<svg id="图层_1" data-name="图层 1" xmlns="http://www.w3.org/2000/svg" viewBox="0 0 400 275"><defs><style>.cls-1{fill:#33353c;}</style></defs><title>team</title><path class="cls-1" d="M116.28,107.61l-.19-.8a10.53,10.53,0,0,0,1.09,0c.38,0,.58-.22.58-.67V102c-.58.26-1.16.5-1.73.72l-.21-.83a16.31,16.31,0,0,0,1.94-.74v-4H116v-.85h1.75v-3h.84v3h1.56v.85H118.6v3.6a16.73,16.73,0,0,0,1.64-1v.84a17.44,17.44,0,0,1-1.64,1v4.87c0,.81-.37,1.21-1.12,1.21Zm3.52-.92h10.42v.75H119.8Zm5.2-13.6a9.53,9.53,0,0,1,.6,1.2H130V95h-9.71v-.73h4.46a6.66,6.66,0,0,0-.61-1ZM121.31,96H129v4.81h-7.66Zm.41,5.81h6.9v3.93h-6.9Zm6.45-1.6V96.62h-6v3.59Zm-5.66,3.29h5.31v-1.09h-5.31Zm5.31,1.63v-1h-5.31v1Zm-4.4-7.68h3.47v2h-3.47Zm2.78,1.48V98h-2.08v1Z"/><path class="cls-1" d="M132,99.5h3.33V93.28h.88V99.5H146v.87H140.6c.68,2.74,2.53,4.85,5.56,6.35l-.5.81a10.76,10.76,0,0,1-5.9-7.16h-3.59v6.17c1.19-.3,2.45-.69,3.79-1.17l.21.82c-1.51.53-3.16,1-4.93,1.46l-.27-.82a.49.49,0,0,0,.32-.45v-6H132Zm12.32-5.45a16.77,16.77,0,0,1-5.79,3.9l-.53-.7a16.53,16.53,0,0,0,5.75-3.81Z"/><path class="cls-1" d="M147.88,94.38a25,25,0,0,0,5.16-1l.3.82c-.83.23-1.54.42-2.11.54v3h2.21v.85h-2.21v1a25.8,25.8,0,0,1,2.33,2.19l-.48.7a27.51,27.51,0,0,0-1.85-2.12v7.45h-.87v-7.66a14.5,14.5,0,0,1-2.51,4.41l-.37-.91a12.78,12.78,0,0,0,2.82-5h-2.46v-.85h2.52V94.89c-.59.1-1.37.2-2.32.31Zm12,5.25a6.66,6.66,0,0,1-1.09,1.3h3.39v.75q-1.48,4.27-8.8,6.06l-.45-.8a19.11,19.11,0,0,0,4.74-1.65c-.49-.51-1-1-1.54-1.53l.63-.45c.58.52,1.12,1,1.61,1.58a7.08,7.08,0,0,0,2.9-3.16h-3.52a13.59,13.59,0,0,1-4,1.68l-.51-.79c2.82-.67,4.77-1.79,5.87-3.34Zm-1.76-6.3c-.26.41-.53.81-.82,1.2h3.79v.7c-.92,2.48-3.3,4.27-7.13,5.34l-.47-.64a14.78,14.78,0,0,0,3.43-1.32,9,9,0,0,0-1.28-1.46l.61-.46a7,7,0,0,1,1.29,1.55,7.65,7.65,0,0,0,2.69-3h-3.58a11.42,11.42,0,0,1-2.6,2l-.57-.69a10.05,10.05,0,0,0,3.79-3.41Z"/><path class="cls-1" d="M163.79,98.73h7v.87H167a33.3,33.3,0,0,1-1.87,5.52,23.75,23.75,0,0,0,4.24-1.19c-.51-1-1-1.88-1.33-2.54l.73-.35a48.17,48.17,0,0,1,2.23,4.49l-.77.39-.54-1.27a36.12,36.12,0,0,1-5.57,1.46l-.21-.82.18-.08q.76-1,2.06-5.61h-2.35Zm.64-4.3h5.69v.82h-5.69Zm8.89-1.18h.87v3h3.52q0,7.69-.23,9.59a1.8,1.8,0,0,1-2,1.82l-1.52,0-.2-.75,1.64,0c.71,0,1.12-.44,1.25-1.31s.18-3.76.21-8.5h-2.67v.23q-.08,7.2-3.41,10.56l-.69-.61q3.18-3.11,3.23-10v-.23h-2.11v-.83h2.11Z"/><path class="cls-1" d="M180.16,94h13.53v.86h-8.53l-.72,2.91h7l-1.33,8.63h4v.84H179.9v-.84h9.36l.5-3.14h-7.51l2-8.4h-4.12Zm9.72,8.44.63-3.85h-6.26l-.94,3.85Z"/><path class="cls-1" d="M195.72,93.93H202v.82h-1.13v9.1l1.16-.36v.84l-1.16.36v3.23H200v-3c-1.21.32-2.57.62-4.1.9l-.21-.82,1.08-.18V94.75h-1.08Zm1.89,3.43H200V94.75h-2.42Zm0,3.34H200V98.17h-2.42Zm0,4c.74-.14,1.54-.32,2.42-.56V101.5h-2.42Zm4.74-7.88h4A20.77,20.77,0,0,0,208,93.25l.81.28a19.38,19.38,0,0,1-1.55,3.24h2.56v.83h-3.36v.64a20.39,20.39,0,0,1-.14,2.4h3.79v.85h-3.49a11.48,11.48,0,0,0,3.7,5.66l-.58.62a11.85,11.85,0,0,1-3.66-5.72,8.9,8.9,0,0,1-3.78,5.79l-.53-.71a7.91,7.91,0,0,0,3.57-5.64h-3.2v-.85h3.33c.08-.71.13-1.44.14-2.21V97.6h-3.21Zm1.42-3.41a20.23,20.23,0,0,1,1.52,2.51l-.65.46a16,16,0,0,0-1.56-2.54Z"/><path class="cls-1" d="M222.28,107.69l-.22-.84,1.58,0a.63.63,0,0,0,.71-.72V94.77H213.53v13h-.86V93.92h12.54v12.45a1.15,1.15,0,0,1-1.29,1.32Zm-3.68-3.48c-.56-.88-1.14-1.73-1.72-2.56a17.16,17.16,0,0,1-2.23,4.24l-.56-.68a16.8,16.8,0,0,0,2.21-4.38c-.86-1.15-1.65-2.12-2.35-2.9l.54-.54a28.16,28.16,0,0,1,2.1,2.53,33,33,0,0,0,.85-3.94l.81.15a32.64,32.64,0,0,1-1.05,4.6c.57.78,1.23,1.75,2,2.92Zm4.76.73c-.57-1-1.17-1.92-1.81-2.93a17.21,17.21,0,0,1-2.4,4.26l-.55-.67a17,17,0,0,0,2.37-4.43,35.44,35.44,0,0,0-2.32-3.09l.56-.55a29.17,29.17,0,0,1,2.08,2.71,27.53,27.53,0,0,0,1-4.21l.81.14a30.43,30.43,0,0,1-1.2,4.93c.69,1,1.37,2.12,2.05,3.27Z"/><path class="cls-1" d="M234.86,93a12.59,12.59,0,0,1,.78,1.94h5.68v.83h-2.83a12,12,0,0,1-.88,2.7h4v.85H230.08v2.51a10.24,10.24,0,0,1-1.78,6l-.64-.59a9.12,9.12,0,0,0,1.54-5.38V98.46h3.29l-.73-2.7h-3v-.83h6a14.32,14.32,0,0,0-.82-1.8Zm-1.49,5.47h3.41a9.89,9.89,0,0,0,.86-2.7h-5Z"/><path class="cls-1" d="M249.92,100.83v6.72h-.85v-.85h-3.7v.85h-.85v-6.72Zm-4.55,5.06h3.7v-4.24h-3.7ZM246.6,94h8.64v5H246.6Zm7.76,4.14V94.8h-6.88v3.31Zm3,2.72v6.72h-.87v-.85h-3.85v.85h-.85v-6.72Zm-4.72,5.06h3.85v-4.24h-3.85Z"/><path class="cls-1" d="M259.69,98.22h3.19v7.36a24.8,24.8,0,0,0,2-1.79l.23.93a23.39,23.39,0,0,1-3.11,2.46l-.33-.78a.9.9,0,0,0,.3-.61V99.07h-2.32Zm1.62-4.75A18.43,18.43,0,0,1,264,96l-.6.61a17.41,17.41,0,0,0-2.72-2.51Zm4.06,6.61h7.51v.8a9.28,9.28,0,0,1-2.68,4.05,16.67,16.67,0,0,0,4.18,2.14l-.46.74a18.17,18.17,0,0,1-4.34-2.36,14.74,14.74,0,0,1-4.8,2.36l-.48-.72a15.69,15.69,0,0,0,4.59-2.21,8.76,8.76,0,0,1-2.67-4h-.85Zm1.31-6.18h5.16v3.55a.56.56,0,0,0,.64.63H274v.8h-1.7c-.89,0-1.33-.43-1.33-1.28V94.72h-3.42v.65a4.39,4.39,0,0,1-2.42,4l-.59-.65a3.55,3.55,0,0,0,2.14-3.24Zm.39,7a7.93,7.93,0,0,0,2.45,3.47,8.86,8.86,0,0,0,2.49-3.47Z"/><path class="cls-1" d="M275.69,98.19H279v7.36c.64-.51,1.33-1.13,2.08-1.84l.22.9a20.5,20.5,0,0,1-3.12,2.52l-.33-.76a.88.88,0,0,0,.3-.58V99h-2.45Zm1.71-4.82a20.71,20.71,0,0,1,2.8,2.55l-.59.61A18.67,18.67,0,0,0,276.78,94Zm3.32,4.74h4.43V93.18H286v4.93h4.23V99H286v8.87h-.89V99h-4.43Z"/><path class="cls-1" d="M76.57,117.09c.24.51.41.9.51,1.16h3.3V119H73.05v-.74H76.2a8.54,8.54,0,0,0-.51-1Zm3.28,8.68c-.79.13-1.61.24-2.48.32v1.09c0,.76-.45,1.14-1.34,1.14h-1.3l-.21-.75,1.25.06c.51,0,.77-.22.77-.66v-.8c-1.24.1-2.36.17-3.38.23l-.11-.71c1.38,0,2.54-.12,3.49-.2v-.76l1.54-.83H73.71v-.7h5.57v.59l-1.91,1.07v.55c1.08-.12,1.91-.23,2.48-.32ZM76,129.09a12.28,12.28,0,0,1-2.19,2.65l-.72-.51a10.86,10.86,0,0,0,2.16-2.51Zm-1.84-9.22h5.15v2.53H74.19Zm4.35,1.92v-1.33H75v1.33Zm0,7c.26.91.48,1.87.67,2.9l-.85.2a21.32,21.32,0,0,0-.64-2.92Zm7.06-1.55a3.44,3.44,0,0,1-.53-1.44,14.79,14.79,0,0,1-.18-2.58c0-.94,0-1.88.07-2.81H83.31a15.38,15.38,0,0,1-.61,3.71,18.26,18.26,0,0,1,1.68,2.21l-.62.59a18,18,0,0,0-1.38-1.91,8.59,8.59,0,0,1-2.32,3.3l-.66-.56a7.93,7.93,0,0,0,2.36-3.44,13.29,13.29,0,0,0-1.62-1.5l.5-.6a13,13,0,0,1,1.4,1.2,14,14,0,0,0,.44-3h-2v-.82h2v-2.51h.83v2.51H85.8c-.07,1.23-.11,2.45-.11,3.66a16.79,16.79,0,0,0,.15,2.52c.12.65.28,1,.46,1s.32-.23.42-.58a9.66,9.66,0,0,0,.24-1.47l.68.3a5.54,5.54,0,0,1-.56,2.24.84.84,0,0,1-1.48,0Zm-3.67,1.42a27.28,27.28,0,0,1,1,3l-.86.21a16.23,16.23,0,0,0-.94-3.06Zm3.09-.35a25.63,25.63,0,0,1,2.13,3l-.72.51a22.31,22.31,0,0,0-2.13-3Z"/><path class="cls-1" d="M91.66,127a15.32,15.32,0,0,1-1.81,4.31l-.75-.48a13,13,0,0,0,1.74-4Zm5.1-4.56v3.24h-.88v-3.24h-.32a12.45,12.45,0,0,1-5.85,3.8l-.47-.77a12.48,12.48,0,0,0,5.51-3H90v-.81h3a12,12,0,0,0-1-1.81l.76-.26a13.6,13.6,0,0,1,1.13,2.07h2v-2.71c-1.6.1-3.33.15-5.21.15l-.27-.82a67.51,67.51,0,0,0,11.21-.81l.43.75a44.43,44.43,0,0,1-5.28.67v2.77h1.83a9.88,9.88,0,0,0,1.28-2.32l.78.21a12.33,12.33,0,0,1-1.12,2.11h3.11v.81H98a11.85,11.85,0,0,0,5.61,3l-.4.84q-4.29-1.44-6-3.8Zm-2.62,9.14c-.69,0-1-.37-1-1.1v-3.81H94v3.61a.39.39,0,0,0,.44.45h4a.93.93,0,0,0,.75-.27,4,4,0,0,0,.4-2l.82.27a4.59,4.59,0,0,1-.59,2.45,1.67,1.67,0,0,1-1.22.37Zm2-5.41a20,20,0,0,1,1.94,2.63l-.7.49a20.94,20.94,0,0,0-1.92-2.69Zm4.92.5a29.17,29.17,0,0,1,2.35,3.73l-.74.51a28.85,28.85,0,0,0-2.32-3.81Z"/><path class="cls-1" d="M106.33,117.89h12.59v.83H107.18v11.57h12.19v.83h-13Zm3.09,2.6q2.14,1.61,4.24,3.48a18.54,18.54,0,0,0,2.51-4.24l.79.41a19.52,19.52,0,0,1-2.64,4.42,48.4,48.4,0,0,1,3.58,3.6l-.66.65a44.2,44.2,0,0,0-3.48-3.6,14.24,14.24,0,0,1-5,3.6l-.5-.78a13.46,13.46,0,0,0,4.85-3.41q-2.14-1.89-4.3-3.53Z"/><path class="cls-1" d="M121.13,121.55h2v-4.24H124v4.24h1.88v.86H124v5.65c.88-.33,1.63-.64,2.26-.94V128a28.51,28.51,0,0,1-5.1,1.86l-.23-.88c.82-.19,1.56-.39,2.21-.59v-6h-2Zm5.47-1.81h3v-2.53h.85v2.53H134v4.64h1.49v.85h-4.72a12.44,12.44,0,0,0,4.85,5.82l-.58.68a13.5,13.5,0,0,1-4.91-6.12,9,9,0,0,1-4.29,6.18l-.52-.7a8.09,8.09,0,0,0,4.06-5.86H126v-.85h3.53a15.66,15.66,0,0,0,.15-2.21v-1.61h-3Zm3.88.82V122a20.09,20.09,0,0,1-.16,2.38h2.78v-3.82Z"/><path class="cls-1" d="M139.63,117.42q-.24,1.13-.42,1.71h2.61V120H139a17.94,17.94,0,0,1-1.29,3.08l-.68-.43a19.63,19.63,0,0,0,1.81-5.37Zm-1.3,4.88h3.17v.79h-1.39v2.28H142v.82h-1.85v4.11a9.63,9.63,0,0,0,1.55-1l.16.78a10.14,10.14,0,0,1-2.56,1.33l-.34-.72a.48.48,0,0,0,.34-.48v-4h-1.87v-.82h1.87v-2.28h-.93Zm13.28,8.39-.22.84h-2.21l-1.46,0a6.55,6.55,0,0,1-1.92-.3,3.07,3.07,0,0,1-1.4-1c-.21-.23-.38-.35-.53-.35q-.45,0-1.59,1.86l-.51-.64a5.39,5.39,0,0,1,1.75-2v-5.67h-1.41v-.8h2.21v6.5a1.83,1.83,0,0,1,.3.27,3.07,3.07,0,0,0,1.23,1,6.67,6.67,0,0,0,1.59.31l1.8,0Zm-8.78-13.11a23.1,23.1,0,0,1,1.76,2.5l-.66.46a18.21,18.21,0,0,0-1.76-2.54Zm2.35,8.77h3.09v-2.24h-2.74l-.14-.75a18.24,18.24,0,0,0,1.58-3.49h-1.71v-.78h2q.32-1.14.51-1.89l.78.17-.48,1.72h3.2v.78H147.8a20.85,20.85,0,0,1-1.52,3.47h2V121.1h.8v2.24h2v.77h-2v2.24h2.46v.78h-2.46V130h-.8v-2.85h-3.09Z"/><path class="cls-1" d="M160.64,117.18a15.27,15.27,0,0,1,.78,1.57h5.94v.83H155.42v3.78a19.24,19.24,0,0,1-1.7,8.37l-.65-.6a17.9,17.9,0,0,0,1.49-7.77v-4.61h6a10.42,10.42,0,0,0-.8-1.41Zm-2.48,8.51v4.71c.57-.14,1.22-.34,1.93-.59l.16.81c-.85.26-1.9.53-3.15.83l-.18-.76q.39-.1.39-.39v-8.64a66.34,66.34,0,0,0,8.59-1l.43.72c-1.11.21-2.35.41-3.73.59.1,1.06.22,2,.37,2.91h4v.83h-3.82c.12.64.25,1.19.38,1.65a8.28,8.28,0,0,0,1.18,2.51q.66.84,1.14.84c.29,0,.58-.8.86-2.31l.71.47c-.44,1.83-.93,2.75-1.49,2.75a2.21,2.21,0,0,1-1.55-.95,9.19,9.19,0,0,1-1.51-2.76,17.09,17.09,0,0,1-.56-2.2Zm0-3.31v2.48h4c-.14-.82-.27-1.76-.38-2.81C160.59,122.17,159.39,122.29,158.16,122.38Zm2.88,6a21.61,21.61,0,0,1,1.85,2.63l-.67.49a20.34,20.34,0,0,0-1.82-2.7Z"/><path class="cls-1" d="M171.72,121.66v1.44a18,18,0,0,1-2,8.59l-.64-.56a16.69,16.69,0,0,0,1.78-8v-5.17h11.4v3.73Zm9.7-2.91h-9.7v2.1h9.7Zm-9,7.28h10.75v.8H177a17.15,17.15,0,0,1-2.78,3.66q3.5-.24,6.78-.73c-.48-.59-1-1.19-1.56-1.81l.65-.4a30.32,30.32,0,0,1,3.09,3.73l-.69.49c-.3-.44-.61-.88-.93-1.31q-4.09.56-8.41.83l-.21-.76.18-.07a12.13,12.13,0,0,0,3-3.63h-3.66Zm1.1-2.61h8.63v.77h-8.63Z"/><path class="cls-1" d="M190.65,120.06v10.75h-.83v-1h-3.23v1.42h-.83v-11.2h1.44a14.79,14.79,0,0,0,.72-2.86l.88.11a13.71,13.71,0,0,1-.77,2.75Zm-4.06,4.4h3.23v-3.57h-3.23Zm0,4.58h3.23v-3.79h-3.23Zm12.35-9q0,7.69-.22,9.58a2,2,0,0,1-2.23,1.92l-1.57,0-.2-.8c.64,0,1.2.05,1.68.05.86,0,1.36-.48,1.48-1.43s.2-3.68.23-8.43h-4.72a13.26,13.26,0,0,1-1.62,2.8l-.51-.67a14.14,14.14,0,0,0,2.35-5.89l.85.1a19.5,19.5,0,0,1-.74,2.8Zm-5.57,3.6a27,27,0,0,1,2.79,3.52l-.69.49a25.67,25.67,0,0,0-2.8-3.56Z"/><path class="cls-1" d="M207.5,127.17a20.84,20.84,0,0,1,1.86,2.16,9.83,9.83,0,0,0,4.44-3.6h-4.94a19,19,0,0,1-5.1,1.5l-.52-.77q5.2-.52,7.76-3.23l.74.4a9.72,9.72,0,0,1-1.5,1.3h4.67v.68q-3.37,5.71-12.66,5.91l-.35-.85a20.78,20.78,0,0,0,6.64-1,18.28,18.28,0,0,0-1.81-2.1Zm1.65-9.57a10.23,10.23,0,0,1-1.12,1.09h4.81v.7q-2.58,4.6-9.61,5.17l-.37-.8a16.92,16.92,0,0,0,4.08-.72,11.91,11.91,0,0,0-1.68-1.78l.75-.37a18,18,0,0,1,1.75,1.86,8.68,8.68,0,0,0,4.08-3.26h-5a14.5,14.5,0,0,1-4.43,1.68l-.51-.77a11.48,11.48,0,0,0,6.43-3.2Z"/><path class="cls-1" d="M224.72,117.21a16.89,16.89,0,0,0,7,6l-.51.76a17.26,17.26,0,0,1-6.86-5.88,18.9,18.9,0,0,1-6.87,6l-.51-.78a18,18,0,0,0,7-6Zm-.84,4.69h.87v9.89h-.87Z"/><path class="cls-1" d="M235.26,119.73h-2v-.87h4.87v.87h-2v7.6c.91-.32,1.62-.59,2.13-.79v.87a43.36,43.36,0,0,1-4.94,1.63l-.23-.85c.85-.21,1.57-.41,2.18-.59Zm7.38,3.08h.86v2.71a6.33,6.33,0,0,1-1.34,4.09,8.45,8.45,0,0,1-4.13,2.24l-.5-.73a8.35,8.35,0,0,0,4-2.07,5.8,5.8,0,0,0,1.11-3.53ZM238.78,118h8.8v.87h-3.92a16.25,16.25,0,0,1-.4,2h3.46v7.37h-.87v-6.54h-5.39v6.54h-.85V120.8h2.8a15.18,15.18,0,0,0,.4-2h-4Zm5.52,10.32a24.16,24.16,0,0,1,3.44,3l-.61.61a23.8,23.8,0,0,0-3.41-3.06Z"/><path class="cls-1" d="M261.74,118.14v13.65h-.85v-1.12h-9.15v1.12h-.85V118.14Zm-10,3.89h9.15v-3h-9.15Zm0,3.9h9.15v-3.08h-9.15Zm0,3.89h9.15v-3.07h-9.15Z"/><path class="cls-1" d="M272.24,117a13.69,13.69,0,0,1,.78,1.94h5.68v.83h-2.83a12.57,12.57,0,0,1-.88,2.7H279v.85H267.45v2.51a10.17,10.17,0,0,1-1.77,6l-.64-.59a9,9,0,0,0,1.53-5.38v-3.36h3.3l-.74-2.7h-3v-.83h6a14.32,14.32,0,0,0-.82-1.8Zm-1.49,5.47h3.41a10.25,10.25,0,0,0,.86-2.7h-5Z"/><path class="cls-1" d="M287.29,124.83v6.72h-.85v-.85h-3.69v.85h-.85v-6.72Zm-4.54,5.06h3.69v-4.24h-3.69ZM284,118h8.64v5H284Zm7.76,4.14V118.8h-6.88v3.31Zm3,2.72v6.72h-.86v-.85H290v.85h-.85v-6.72ZM290,129.89h3.86v-4.24H290Z"/><path class="cls-1" d="M307.72,131.5l-2.89,0a10.93,10.93,0,0,1-2.51-.3,3.62,3.62,0,0,1-1.73-1.19c-.23-.27-.43-.4-.61-.4-.44,0-1.11.74-2,2.23l-.65-.58a5.82,5.82,0,0,1,2.27-2.45v-5.12h-2.37v-.83h3.19v6a1.8,1.8,0,0,1,.51.45,4.1,4.1,0,0,0,1.34,1.06,7.58,7.58,0,0,0,2.21.33c1.09,0,2.13,0,3.14,0h2.2l1.72-.07-.21.88Zm-9.52-14A20.45,20.45,0,0,1,301,120l-.61.61a18.18,18.18,0,0,0-2.82-2.53Zm6.53,7.78A18.11,18.11,0,0,1,307,127a8,8,0,0,0,2.34-2.64h-4.47a14.57,14.57,0,0,1-2.72,2.07l-.54-.64a11.54,11.54,0,0,0,4-3.52l.82.21c-.25.37-.52.74-.83,1.12h4.7v.72q-1.89,4-7.61,5.56l-.5-.75a15,15,0,0,0,4.18-1.68,17.2,17.2,0,0,0-2.15-1.58Zm-2.29-7.39h8.47v4.13h-8.47Zm2.63,3.33V118.7h-1.83v2.55Zm2.46,0V118.7h-1.74v2.55Zm2.58,0V118.7h-1.86v2.55Z"/><path class="cls-1" d="M316.3,121.61h.83v2.52H319v.78h-1.91v2.5c.89-.2,1.6-.36,2.15-.5v.83c-.68.17-1.39.33-2.15.48v3.59h-.83v-3.43q-1.49.27-3.09.48l-.13-.85c1.05-.11,2.12-.27,3.22-.46v-2.64h-2.67l-.19-.75a24.34,24.34,0,0,0,1.26-3.79h-1.52v-.84h1.73c.17-.8.33-1.59.48-2.36l.83.14c-.21,1.09-.37,1.83-.46,2.22h3.47v.84h-3.68a35.62,35.62,0,0,1-1.22,3.76h2Zm4.26,1.35h-1.25v-.77h8.22V123h-1.26v6c.64-.11,1.11-.18,1.42-.22v.77l-1.42.24v2.11h-.83v-2c-2,.29-4.08.53-6.36.72l-.11-.8,1.59-.14Zm-.16-5.11h6.16V121H320.4Zm5.32,2.48v-1.76h-4.49v1.76Zm-.28,2.63h-4.05v1.65h4.05Zm-4.05,4h4.05v-1.62h-4.05Zm0,2.59q2.28-.26,4.05-.48v-1.36h-4.05Z"/><path class="cls-1" d="M75.63,149a25.67,25.67,0,0,1-2.16,2l-.56-.7a18.87,18.87,0,0,0,4.91-6H73.47v-.84h4.75c.31-.74.6-1.53.86-2.37l.88.09a17.34,17.34,0,0,1-.8,2.28h8.21v.84H78.78A19.63,19.63,0,0,1,76.49,148v7.86h-.86Zm2.46-.26H81.9v-3.09h.88v3.09h3.89v.86H82.78v4.79h4.64v.85h-10v-.85H81.9v-4.79H78.09Z"/><path class="cls-1" d="M92.32,152.22l-.58-.69A8.57,8.57,0,0,0,95.42,147a14.76,14.76,0,0,0,.48-2.26H91v11h-.86V143.9H96q.12-1.38.12-2.73H97c0,.85,0,1.76-.11,2.73h5.65v10.26a1.31,1.31,0,0,1-1.46,1.49H98.59l-.24-.87,2.45,0c.58,0,.88-.27.88-.83v-9.23H96.8c-.1.65-.21,1.25-.34,1.81a35,35,0,0,1,4.32,4.81l-.66.66a31,31,0,0,0-3.9-4.59A9,9,0,0,1,92.32,152.22Z"/><path class="cls-1" d="M112.68,146.25q2,2.48,6.72,4.36l-.46.7a16.06,16.06,0,0,1-6.59-4.3,17.92,17.92,0,0,1-6.69,4.32l-.48-.71a17,17,0,0,0,6.82-4.37Zm-1.6-1.44a19.15,19.15,0,0,1-5,3.09l-.51-.67a19.52,19.52,0,0,0,4.94-2.94Zm1.27-3.68c.19.42.39.92.59,1.51h5.79v2.67h-.86v-1.86H106.76v2h-.86v-2.77h6.16a10.59,10.59,0,0,0-.62-1.36Zm4.61,9.52v5.16h-.85v-.74H108.7v.74h-.86v-5.16Zm-8.26,3.64h7.41v-2.84H108.7Zm5.39-10a31.62,31.62,0,0,1,4.85,3l-.59.59a29.59,29.59,0,0,0-4.83-3Z"/><path class="cls-1" d="M121.53,143H126a14.71,14.71,0,0,0,.59-1.79l.88.09c-.11.44-.29,1-.54,1.7h8.32v.85H126.6a17.81,17.81,0,0,1-2.17,3.8v8.23h-.87v-7.15a20.6,20.6,0,0,1-2,2L121,150a17.87,17.87,0,0,0,4.66-6.22h-4.13Zm4.26,7.37h4.75v-1.61a16.9,16.9,0,0,0,2.75-1.94H127V146h7.37v.81a21.42,21.42,0,0,1-3,2.31v1.24h4.12v.85H131.4v3.33a1.11,1.11,0,0,1-1.26,1.25h-2l-.22-.82,1.88,0a.65.65,0,0,0,.74-.73v-3.06h-4.75Z"/><path class="cls-1" d="M138.6,146.43a17.46,17.46,0,0,1-1.39,2.11l-.27-.89a19.73,19.73,0,0,0,2.82-6.45l.78.37a24.47,24.47,0,0,1-1.1,3.2v11h-.84Zm1.6-.19H143v7.07q.66-.67,1.47-1.65l.23.87a19.89,19.89,0,0,1-2.5,2.6l-.33-.78a.82.82,0,0,0,.28-.58v-6.7H140.2Zm1.4-4.32a19.94,19.94,0,0,1,2.4,2.35l-.66.66a15.11,15.11,0,0,0-2.34-2.44Zm3.34,1.25h2v-1.94h.82v1.94h1.88v.75h-1.88v2.32h.6a17.12,17.12,0,0,0,2.28-4.16l.72.4a19.93,19.93,0,0,1-2,3.76h2.09v.8h-2.69a12.22,12.22,0,0,1-1.61,1.69h3.45v7h-.83v-.71h-3.28v.71h-.83v-5.92a13.85,13.85,0,0,1-1.36.75l-.45-.69a11.41,11.41,0,0,0,3.86-2.86h-3.19v-.8h2.42v-2.32h-2Zm4.83,8.33v-2h-3.28v2Zm-3.28.77v2h3.28v-2Z"/><path class="cls-1" d="M156.14,154a2.93,2.93,0,0,1-1.6,2.76l-.34-.56a2.44,2.44,0,0,0,1.22-1.95l-.24,0a.87.87,0,0,1-.59-.21.75.75,0,0,1-.23-.58.72.72,0,0,1,.23-.59.76.76,0,0,1,.59-.22C155.82,152.64,156.14,153.08,156.14,154Z"/><path class="cls-1" d="M173.1,141.37H174v4.36h1.12v.84h-4v1.24c0,.3,0,.74,0,1.29h3.1v6.67h-.86V150H171a13.65,13.65,0,0,1-1.33,5.58L169,155q1.19-2.24,1.21-7.16v-6.12h.85v4h2Zm3.71,5.35v2.11a15,15,0,0,1-1.5,6.88l-.61-.62a14.32,14.32,0,0,0,1.3-6.26v-6.46a25.23,25.23,0,0,0,6.81-1l.42.77a25.79,25.79,0,0,1-6.42,1v2.8h6v.75a14.05,14.05,0,0,1-2.21,5.76,8.64,8.64,0,0,0,3,2.6l-.43.76a9.14,9.14,0,0,1-3.14-2.65,11.6,11.6,0,0,1-3.3,2.67l-.41-.75a11,11,0,0,0,3.21-2.63,15.67,15.67,0,0,1-2.11-5.69Zm1.43,0a15,15,0,0,0,1.85,5,12.6,12.6,0,0,0,1.87-5Z"/><path class="cls-1" d="M188.76,155.74h-.86v-8.83a17.16,17.16,0,0,1-2.56,5l-.38-1a14.79,14.79,0,0,0,2.92-5.63h-2.59v-.85h2.61v-3.22h.86v3.22H191v.85h-2.23v1a32.82,32.82,0,0,1,2.52,2.75l-.52.75c-.75-1-1.42-1.91-2-2.59Zm3.36-12.62h-.68v-.85h7.1v.83a20.19,20.19,0,0,1-2.82,7.89,17,17,0,0,0,4,4l-.57.69a19.31,19.31,0,0,1-3.89-4,15.44,15.44,0,0,1-4.26,4l-.56-.69a16,16,0,0,0,4.29-4.1A16.62,16.62,0,0,1,192.12,143.12Zm.84,0a15.31,15.31,0,0,0,2.24,7.09,18.27,18.27,0,0,0,2.49-7.09Z"/><path class="cls-1" d="M205.42,141.52a20.27,20.27,0,0,1-1.47,3.41v10.91h-.88v-9.46a18.05,18.05,0,0,1-1.95,2.43l-.28-.91a18.18,18.18,0,0,0,3.76-6.77Zm1.12.45H214v4.84h-3.28v2h4.69v.86h-3.74a14.26,14.26,0,0,0,4,4.48l-.54.74a16.31,16.31,0,0,1-4.16-5.22h-.26v6.15h-.86v-6.15h-.27a14.1,14.1,0,0,1-4.24,5.25l-.48-.77a12.78,12.78,0,0,0,4-4.48h-3.58v-.86h4.56v-2h-3.28Zm6.56,4V142.8h-5.7V146Z"/><path class="cls-1" d="M217.39,155.65l-.19-.84c.68.05,1.18.07,1.48.07.46,0,.69-.25.69-.74V150c-.73.26-1.45.49-2.14.67l-.23-.85a22.85,22.85,0,0,0,2.37-.69v-3.89h-2.14v-.84h2.14v-3.11h.87v3.11h1.85v.84h-1.85v3.57c.63-.24,1.27-.53,1.93-.86v.88c-.72.34-1.37.62-1.93.85v4.72a1.12,1.12,0,0,1-1.25,1.28Zm6.61-7.41a14,14,0,0,1-2,7.57l-.66-.6a12.54,12.54,0,0,0,1.83-7v-5h3.6a14.52,14.52,0,0,0-.77-1.94l.91-.16a16.08,16.08,0,0,1,.72,2.1h3.47v5Zm6.25-4.15H224v3.3h6.25Z"/><path class="cls-1" d="M233.45,143.65h7a10.54,10.54,0,0,0-1.22-2.18l.83-.3a13.34,13.34,0,0,1,1.27,2.48h6v.84h-8.5l-.17,3.14h6.67a42.41,42.41,0,0,1-.3,5.82,2.36,2.36,0,0,1-2.31,2.23c-.51,0-1.13,0-1.85-.05l-.26-.8,2,.06q1.38-.06,1.68-1.95c.09-.77.14-2.26.14-4.48h-5.89a11.3,11.3,0,0,1-1.15,3.65,14.38,14.38,0,0,1-3.28,3.71l-.64-.61a13,13,0,0,0,3.44-4,12.11,12.11,0,0,0,.94-4.17c.06-1.16.09-2,.1-2.52h-4.53Z"/><path class="cls-1" d="M249.24,141.93H263.4v.84h-6.51a13,13,0,0,1-.67,2.32h6.24v10.75h-.85V155H251.07v.87h-.85V145.09h5.14a10.39,10.39,0,0,0,.65-2.32h-6.77Zm1.83,12.21h2.48V145.9h-2.48Zm3.29-6h3.91V145.9h-3.91Zm0,3h3.91v-2.21h-3.91Zm0,3h3.91v-2.29h-3.91Zm4.72,0h2.53V145.9h-2.53Z"/><path class="cls-1" d="M269.28,144.13v3.36h2.06v.6a11.45,11.45,0,0,1-1.28,3.7,25.24,25.24,0,0,1,1.58,2l-.6.59c-.4-.56-.87-1.16-1.43-1.82a12.33,12.33,0,0,1-2.61,3l-.54-.63a13.71,13.71,0,0,0,2.59-3c-.61-.67-1.26-1.34-2-2l.56-.53c.7.64,1.31,1.24,1.84,1.81a12.18,12.18,0,0,0,1-2.9h-3.78a23.09,23.09,0,0,1-1.13,7.36l-.64-.58a24.26,24.26,0,0,0,1-7.24v-4.48h2.51v-2.12h.82v2.12h2.48v.41a18.56,18.56,0,0,1-.63,2.75l-.73-.2a15.78,15.78,0,0,0,.56-2.16Zm-2.53,3.36h1.71v-3.36h-1.71Zm8.65-1h.84v3a7.32,7.32,0,0,1-1.11,4,7,7,0,0,1-3.39,2.19l-.45-.71a6.24,6.24,0,0,0,3.22-2,6.68,6.68,0,0,0,.89-3.49ZM272.3,142h7.15v.83h-3.18a12.66,12.66,0,0,1-.43,1.95h3.07v7.44h-.82v-6.62H273.6v6.62h-.82v-7.44H275a13.7,13.7,0,0,0,.42-1.95H272.3Zm4.42,10.48a21.63,21.63,0,0,1,3,2.89l-.6.59a18.08,18.08,0,0,0-3-2.94Z"/><path class="cls-1" d="M292.41,152.3h-6.65v3.47h-.82v-8.68a20.71,20.71,0,0,1-3.36,3.39l-.54-.72a17.67,17.67,0,0,0,4.86-5.84h-4.45v-.83h4.85a19.39,19.39,0,0,0,.74-2l.88.09c-.18.61-.4,1.24-.66,1.88h8.1v.83h-8.47a19.82,19.82,0,0,1-1.2,2.11h7.55v8.64c0,.69-.4,1.05-1.21,1.07h-1.79L290,155l1.73,0c.43,0,.65-.19.65-.58Zm-6.65-5.5v2h6.65v-2Zm6.65,2.77h-6.65v2h6.65Z"/><path class="cls-1" d="M297.44,143v-.84h5.47V143H300.3a18,18,0,0,1-1.06,3.87h3v7h-2.75v1.31h-.84v-7.12a18.05,18.05,0,0,1-1.31,2.16l-.46-.74a15.7,15.7,0,0,0,2.57-6.52Zm2.08,10.12h2v-5.45h-2Zm9.28-4.67H306c-.1,3.33-1.06,5.78-2.9,7.36l-.65-.57c1.72-1.44,2.63-3.71,2.7-6.79h-1.84v-.85h1.84v-4.68h-1.49v-.84h7.51v.84h-1.56v4.68h2v.85h-2v7.31h-.84Zm0-5.53H306v4.68h2.76Z"/><path class="cls-1" d="M318.76,147.05h.85v1q0,.41-.06,1.17h4.16v5.1c0,.33.18.5.54.5h1.28c.47,0,.75-.27.85-.8.05-.72.08-1.39.08-2l.83.24a20.81,20.81,0,0,1-.24,2.35,1.34,1.34,0,0,1-1.5,1.06h-1.43c-.84,0-1.26-.4-1.26-1.19v-4.41h-3.44a7,7,0,0,1-1.23,3,8.77,8.77,0,0,1-4.39,2.72l-.48-.73a8.41,8.41,0,0,0,4.26-2.59,7.14,7.14,0,0,0,1-2.4h-4.18v-.82h4.3c.05-.5.07-.89.08-1.17Zm1.43-5.93c.25.57.47,1.14.65,1.69h6v3.09H326v-2.27H314.68v2.26h-.86v-3.08H320a11.34,11.34,0,0,0-.71-1.53Zm-.88,4a16.05,16.05,0,0,1-5,3.12l-.39-.8a13.58,13.58,0,0,0,4.8-2.93Zm2.49-.56a21.72,21.72,0,0,1,4.61,3.09l-.48.72a20.26,20.26,0,0,0-4.57-3.15Z"/><path class="cls-1" d="M63.52,175.17a19.59,19.59,0,0,1,1.85,2.16,9.91,9.91,0,0,0,4.45-3.6H64.88a18.92,18.92,0,0,1-5.11,1.5l-.51-.77c3.47-.35,6.05-1.43,7.76-3.23l.74.4a9.34,9.34,0,0,1-1.51,1.3h4.67v.68q-3.37,5.71-12.65,5.91l-.35-.85a20.82,20.82,0,0,0,6.64-1,18.28,18.28,0,0,0-1.81-2.1Zm1.65-9.57A9.45,9.45,0,0,1,64,166.69h4.82v.7q-2.6,4.61-9.61,5.17l-.37-.8A17.11,17.11,0,0,0,63,171a13,13,0,0,0-1.68-1.78l.75-.37a16.83,16.83,0,0,1,1.74,1.86,8.68,8.68,0,0,0,4.08-3.26H62.91a14.6,14.6,0,0,1-4.43,1.68L58,168.4a11.51,11.51,0,0,0,6.44-3.2Z"/><path class="cls-1" d="M76.27,167.93a9.38,9.38,0,0,1-2.51,2.9l-.59-.74a9.09,9.09,0,0,0,3.32-5l.88.16a13.28,13.28,0,0,1-.67,1.86H86.81v.84H81.68v2.87h4.57v.81H81.68v3.73h5.65v.87H81.68v3.64h-.85v-3.64h-7.5v-.87H76V170.8h4.8v-2.87Zm.64,7.41h3.92v-3.73H76.91Z"/><path class="cls-1" d="M89.55,166h13.53v.86H94.56l-.72,2.91h7l-1.32,8.63h4v.84H89.29v-.84h9.36l.5-3.14H91.64l2-8.4H89.55Zm9.73,8.44.62-3.85H93.64l-.94,3.85Z"/><path class="cls-1" d="M105.12,165.93h6.29v.82h-1.14v9.1l1.17-.36v.84l-1.17.36v3.23h-.85v-3c-1.2.32-2.57.62-4.09.9l-.21-.82,1.07-.18V166.75h-1.07Zm1.88,3.43h2.42v-2.61H107Zm0,3.34h2.42v-2.53H107Zm0,4c.74-.14,1.55-.32,2.42-.56V173.5H107Zm4.74-7.88h4a20.74,20.74,0,0,0,1.58-3.52l.82.28a20.2,20.2,0,0,1-1.55,3.24h2.56v.83H115.8v.64a18.45,18.45,0,0,1-.14,2.4h3.79v.85H116a11.48,11.48,0,0,0,3.7,5.66l-.58.62a11.92,11.92,0,0,1-3.66-5.72,8.86,8.86,0,0,1-3.78,5.79l-.52-.71a7.93,7.93,0,0,0,3.56-5.64h-3.19v-.85h3.32a19.51,19.51,0,0,0,.15-2.21v-.83h-3.22Zm1.43-3.41a20,20,0,0,1,1.51,2.51l-.65.46a15.92,15.92,0,0,0-1.55-2.54Z"/><path class="cls-1" d="M131.68,179.69l-.23-.84,1.59,0a.63.63,0,0,0,.7-.72v-11.4H122.92v13h-.86V165.92h12.55v12.45a1.16,1.16,0,0,1-1.3,1.32ZM128,176.21c-.57-.88-1.14-1.73-1.73-2.56a17.16,17.16,0,0,1-2.23,4.24l-.55-.68a16.79,16.79,0,0,0,2.2-4.38c-.86-1.15-1.65-2.12-2.35-2.9l.54-.54a26.57,26.57,0,0,1,2.1,2.53,33,33,0,0,0,.85-3.94l.81.15a30.07,30.07,0,0,1-1,4.6c.58.78,1.24,1.75,2,2.92Zm4.75.73c-.57-.95-1.17-1.92-1.81-2.93a17.21,17.21,0,0,1-2.4,4.26l-.54-.67a17.34,17.34,0,0,0,2.37-4.43,35.41,35.41,0,0,0-2.33-3.09l.57-.55a31,31,0,0,1,2.07,2.71,26.4,26.4,0,0,0,1-4.21l.82.14a31.51,31.51,0,0,1-1.2,4.93c.68,1,1.36,2.12,2.05,3.27Z"/><path class="cls-1" d="M144.25,165a13.63,13.63,0,0,1,.79,1.94h5.68v.83h-2.84a12,12,0,0,1-.88,2.7h4.05v.85H139.47v2.51a10.17,10.17,0,0,1-1.78,6l-.64-.59a9,9,0,0,0,1.54-5.38v-3.36h3.29l-.73-2.7h-3v-.83h6a13,13,0,0,0-.81-1.8Zm-1.49,5.47h3.41a9.91,9.91,0,0,0,.87-2.7h-5Z"/><path class="cls-1" d="M159.31,172.83v6.72h-.85v-.85h-3.7v.85h-.84v-6.72Zm-4.55,5.06h3.7v-4.24h-3.7ZM156,166h8.64v5H156Zm7.76,4.14V166.8h-6.88v3.31Zm3,2.72v6.72h-.87v-.85H162v.85h-.85v-6.72ZM162,177.89h3.85v-4.24H162Z"/><path class="cls-1" d="M179.74,179.5l-2.85,0a10.63,10.63,0,0,1-2.48-.3,3.66,3.66,0,0,1-1.69-1.19.82.82,0,0,0-.61-.41q-.66,0-2.1,2.22l-.65-.58a5.68,5.68,0,0,1,2.36-2.43v-5.12h-2.36v-.83h3.18v6a2,2,0,0,1,.5.45,4,4,0,0,0,1.31,1.06,7.19,7.19,0,0,0,2.18.33c1.06,0,2.09,0,3.08,0h2.21l1.71-.07-.2.88Zm-9.45-14A20.78,20.78,0,0,1,173,168l-.6.62a18.67,18.67,0,0,0-2.72-2.51Zm3.51,4.23h9.38v.81h-5.09a21.46,21.46,0,0,1-2.57,5.09,52.45,52.45,0,0,0,5.81-.81,30.4,30.4,0,0,0-1.37-2.74l.72-.24A28.26,28.26,0,0,1,183,177l-.78.2c-.19-.55-.38-1.06-.58-1.54a67.27,67.27,0,0,1-7.13.9l-.26-.79q1-.3,3-5.17H173.8Zm1.06-3.84H182v.8h-7.18Z"/><path class="cls-1" d="M185.5,166.38h3.7v-1.15h.86v1.15h4.55v-1.15h.86v1.15h3.7v.79h-3.7v1h-.86v-1h-4.55v1h-.86v-1h-3.7ZM198.65,169v2.86h-.85v-2.09H186.86v2.17H186V169Zm-.94,6.45v4.37h-.85v-.68h-9v.68H187v-4.37Zm-9.84,2.94h9v-2.17h-9Zm.64-7.29h7.71v3.1h-7.71Zm6.9,2.41v-1.73h-6.08v1.73Z"/><path class="cls-1" d="M206.32,177.25a23.47,23.47,0,0,1-5.07,1.85l-.12-.85a22.54,22.54,0,0,0,5.19-1.8Zm-1.54-11.68a26,26,0,0,1-2.54,5c.84-.1,1.71-.21,2.6-.34.43-.82.76-1.43,1-1.82l.8.28a34.45,34.45,0,0,1-3.92,6,23.36,23.36,0,0,0,3.65-1v.8a25.91,25.91,0,0,1-4.71,1.12l-.23-.8a1.66,1.66,0,0,0,.41-.26,18.46,18.46,0,0,0,2.56-3.6c-.56.09-1.55.22-3,.4l-.21-.8a1.17,1.17,0,0,0,.37-.3,24.16,24.16,0,0,0,2.37-5.1Zm2.16,7.07-.56-.71q4.63-1.77,6.42-5.07h-5.65V166h6.7v.69a10.25,10.25,0,0,1-1.85,2.71,24,24,0,0,1,3.58,2.72l-.61.62a23.84,23.84,0,0,0-3.53-2.8A14.54,14.54,0,0,1,206.94,172.64Zm3.59,1.84h-3.28v-.83h7.45v.83h-3.31v3.92h4.05v.86h-8.93v-.86h4Z"/><path class="cls-1" d="M220.51,175.85a20.57,20.57,0,0,1-3.57,1l-.11-.84a17.81,17.81,0,0,0,3.68-.94Zm.72-9h-3.95V166h4.81l-.75,6.58h1.06q0,5.31-.45,6.16a2,2,0,0,1-1.92.81l-1.14,0-.24-.77c.64.05,1,.08,1.2.08.8,0,1.29-.27,1.48-.8a23.69,23.69,0,0,0,.25-4.65h-4.09l.75-5.38.8.05-.66,4.53h2.13Zm6.26-1.52a13.19,13.19,0,0,0,4.27,5.49l-.48.72a13.52,13.52,0,0,1-4.2-5.36,14.11,14.11,0,0,1-4.16,5.39l-.44-.69a14.12,14.12,0,0,0,4.2-5.55Zm-4.57,13.07h5.25a42,42,0,0,0,1.71-6.51l.84.22a40.35,40.35,0,0,1-1.72,6.29h2.6v.83h-8.68Zm1.29-6a37.4,37.4,0,0,1,1.42,4.62l-.75.2a35,35,0,0,0-1.43-4.56Zm.7-2.42h4.43v.8h-4.43Zm1.76,2a32.71,32.71,0,0,1,1.21,4.4l-.75.19a36.47,36.47,0,0,0-1.21-4.34Z"/><path class="cls-1" d="M236.16,178a2.94,2.94,0,0,1-1.6,2.76l-.34-.56a2.46,2.46,0,0,0,1.22-1.95l-.24,0a.84.84,0,0,1-.59-.21.75.75,0,0,1-.23-.58.72.72,0,0,1,.23-.59.74.74,0,0,1,.59-.22C235.84,176.64,236.16,177.08,236.16,178Z"/><path class="cls-1" d="M261.58,173.2c-1.3.21-2.85.38-4.64.49V175h4.93v.69h-4.93v1.26h6.19v.74h-6.19v1a1,1,0,0,1-1.17,1.19h-2.06l-.18-.75c.7,0,1.35,0,2,0,.4,0,.59-.22.59-.67v-.81h-6.64v-.74h6.64v-1.26h-5.42V175h5.42v-1.22c-1.82.08-3.53.11-5.13.11l-.24-.67a69.17,69.17,0,0,0,10.46-.69Zm-5.68-8.13h.86v2.1h2.16a11.6,11.6,0,0,0,1.08-1.89l.84.29a9.71,9.71,0,0,1-1,1.6h2.95V170h-.87v-2.11h-11.2v2.14h-.86v-2.89h3a8,8,0,0,0-1-1.57l.83-.31a8.08,8.08,0,0,1,1.09,1.88h2.16Zm-3.47,4.06h7.81v2.72h-7.81Zm6.94,2.07v-1.41h-6.08v1.41Z"/><path class="cls-1" d="M265.52,179.65l-.19-.82c.44,0,.88,0,1.31,0s.62-.23.62-.69V174c-.67.26-1.36.5-2.06.72l-.23-.86a21.34,21.34,0,0,0,2.29-.74v-3.86h-2v-.84h2v-3.11h.87v3.11h1.64v.84h-1.64v3.49c.7-.34,1.22-.61,1.56-.8v.91c-.48.26-1,.52-1.56.77v4.83a1.08,1.08,0,0,1-1.19,1.24Zm6-8.2v.28a18.14,18.14,0,0,1-1.68,8l-.66-.6a16,16,0,0,0,1.52-7.4v-5.86h8v3.25h-7.21v1.57H279v.76h-4a9.93,9.93,0,0,1-1.67,2.37c1.74-.13,3.13-.25,4.16-.38-.25-.45-.51-.87-.77-1.25l.68-.34a28.8,28.8,0,0,1,1.66,2.93l-.7.35c-.12-.25-.29-.6-.52-1l-2,.21v1.79h2.81v.75h-2.81v1.82h3.55v.79H271.5v-.79h3.55v-1.82h-2.88v-.75h2.88v-1.71l-2.75.19-.13-.72a5.2,5.2,0,0,0,2-2.39Zm6.4-4.8h-6.4v1.72H278Z"/><path class="cls-1" d="M287.52,175.17a19.59,19.59,0,0,1,1.85,2.16,9.91,9.91,0,0,0,4.45-3.6h-4.94a18.92,18.92,0,0,1-5.11,1.5l-.51-.77c3.47-.35,6.05-1.43,7.76-3.23l.74.4a9.34,9.34,0,0,1-1.51,1.3h4.67v.68q-3.37,5.71-12.65,5.91l-.35-.85a20.82,20.82,0,0,0,6.64-1,18.28,18.28,0,0,0-1.81-2.1Zm1.65-9.57a9.45,9.45,0,0,1-1.13,1.09h4.82v.7q-2.6,4.61-9.61,5.17l-.37-.8A17.11,17.11,0,0,0,287,171a13,13,0,0,0-1.68-1.78l.75-.37a16.83,16.83,0,0,1,1.74,1.86,8.68,8.68,0,0,0,4.08-3.26h-4.94a14.6,14.6,0,0,1-4.43,1.68l-.52-.77a11.51,11.51,0,0,0,6.44-3.2Z"/><path class="cls-1" d="M297.25,166.53a22.6,22.6,0,0,0,5.23-1.17l.28.8a22,22,0,0,1-2.14.64v2.88h2.16v.85h-2.16v.91a36.46,36.46,0,0,1,2.5,2.75l-.5.72a29,29,0,0,0-2-2.69v7.68h-.86v-7.77a16.15,16.15,0,0,1-2.48,4.59l-.36-.91a13.54,13.54,0,0,0,2.77-5.28H297.2v-.85h2.56V167c-.8.16-1.59.29-2.35.37Zm9.66-1.27h.85v2.91H311v7.08h-.84v-.88h-2.4v5.44h-.85v-5.44h-2.35v.88h-.84v-7.08h3.19Zm-2.35,8.31h2.35V169h-2.35Zm3.2,0h2.4V169h-2.4Z"/><path class="cls-1" d="M313,170.19h3.29v7.33c.6-.51,1.21-1.08,1.83-1.7l.24.93a21.41,21.41,0,0,1-2.87,2.42l-.33-.79a.83.83,0,0,0,.29-.57V171H313Zm1.8-4.77a18.34,18.34,0,0,1,2.71,2.47l-.59.59a17.83,17.83,0,0,0-2.74-2.47Zm3.67.5h8.66v.81h-4.53l-.43,2h3.88v3.15h1.55v.81h-9.56v-.81h2.59l.5-2.34h-2.29v-.81h2.46l.43-2h-3.26Zm8.1,8.48v5.44h-.87V179h-5.57v.83h-.86V174.4Zm-6.44,3.77h5.57v-3h-5.57Zm1.36-6.25h3.7v-2.34H322Z"/><path class="cls-1" d="M329.21,167.41h14.26v.81H329.21Zm12.39,7.42v5h-.85V179h-8.83v.85h-.85v-5Zm-10.31-5h10.1v.79h-10.1Zm0,2.45h10.1v.8h-10.1Zm.63,5.87h8.83v-2.48h-8.83Zm4.29-13A15.26,15.26,0,0,1,337,167l-.8.31a13.83,13.83,0,0,0-.95-1.94Z"/><path class="cls-1" d="M89.5,203.61l-.18-.8c.45,0,.88.05,1.28.05a.6.6,0,0,0,.69-.67v-4.34q-1.1.41-2.13.72l-.22-.84a23.63,23.63,0,0,0,2.35-.72v-3.92H89.21v-.85h2.08v-3h.87v3H94v.85H92.16v3.58c.58-.25,1.21-.54,1.87-.9v.85c-.56.29-1.18.58-1.87.88v4.9a1.09,1.09,0,0,1-1.25,1.21Zm6.1-5a10.65,10.65,0,0,1-1.81,5.22l-.64-.61a10.82,10.82,0,0,0,1.68-6.08V189.9h8v12.72a1,1,0,0,1-1.11,1.12h-1.21l-.24-.81,1.18,0q.51,0,.51-.63v-3.71H99.24v4.93h-.83v-4.93Zm.09-4v2.42q0,.24,0,.72h2.75v-3.14Zm2.72-3.94H95.69v3.14h2.72Zm3.6,3.14v-3.14H99.24v3.14Zm0,3.94v-3.14H99.24v3.14Z"/><path class="cls-1" d="M116.4,200.3h-6.66v3.47h-.82v-8.68a20.71,20.71,0,0,1-3.36,3.39l-.54-.72a17.67,17.67,0,0,0,4.86-5.84h-4.44v-.83h4.84a17.27,17.27,0,0,0,.74-2l.88.09c-.18.61-.4,1.24-.66,1.88h8.1v.83h-8.46a24,24,0,0,1-1.2,2.11h7.55v8.64c0,.69-.41,1.05-1.22,1.07h-1.79L114,203l1.73,0c.44,0,.66-.19.66-.58Zm-6.66-5.5v2h6.66v-2Zm6.66,2.77h-6.66v2h6.66Z"/><path class="cls-1" d="M128.54,188.94a21.2,21.2,0,0,1,.93,2h5.9v.85h-12v3.73a19,19,0,0,1-1.68,8.4l-.72-.66a17.06,17.06,0,0,0,1.54-7.74V191h6a15.6,15.6,0,0,0-1-1.87Z"/><path class="cls-1" d="M137.79,193.25a19.08,19.08,0,0,1,2.51,2.49l-.61.61a17.63,17.63,0,0,0-2.53-2.51Zm3,4.6a49.57,49.57,0,0,1-2.48,5.8l-.85-.37a45.2,45.2,0,0,0,2.56-5.75Zm-2.57-8.36a19.56,19.56,0,0,1,2.7,2.48l-.61.62a17.86,17.86,0,0,0-2.72-2.5Zm8,2.43c.23.62.47,1.42.74,2.41h3.54v.77a16.12,16.12,0,0,1-6.24,6.29,2.45,2.45,0,0,0,2,1.2l1.54,0c1.21,0,2.5,0,3.87-.05l-.17.87h-3.57c-.6,0-1.12,0-1.57-.05a3.14,3.14,0,0,1-1.87-.66,4.3,4.3,0,0,1-1-1.21.52.52,0,0,0-.37-.24q-.53,0-1.47,2.4l-.67-.56c.73-1.86,1.46-2.79,2.17-2.79a.66.66,0,0,1,.47.21l.16.18a15.24,15.24,0,0,0,5.72-5.54h-7.32v-.85h3.9a18.52,18.52,0,0,0-.78-2.27Zm4.76-1.76a30.41,30.41,0,0,1-9.19,1.13l-.29-.78a32,32,0,0,0,9-1.09Z"/><path class="cls-1" d="M158.64,192.06v10.75h-.84v-1h-3.23v1.42h-.83v-11.2h1.44a14.79,14.79,0,0,0,.72-2.86l.88.11a13.71,13.71,0,0,1-.77,2.75Zm-4.07,4.4h3.23v-3.57h-3.23Zm0,4.58h3.23v-3.79h-3.23Zm12.35-9q0,7.69-.22,9.58a2,2,0,0,1-2.22,1.92l-1.57,0-.21-.8c.64,0,1.2.05,1.68.05.86,0,1.36-.48,1.49-1.43s.19-3.68.22-8.43h-4.72a13.69,13.69,0,0,1-1.61,2.8l-.52-.67a14.15,14.15,0,0,0,2.36-5.89l.84.1a19.55,19.55,0,0,1-.73,2.8Zm-5.56,3.6a27.67,27.67,0,0,1,2.78,3.52l-.69.49a24.93,24.93,0,0,0-2.8-3.56Z"/><path class="cls-1" d="M169.26,191.13H176a16,16,0,0,0-.9-1.95L176,189a15.85,15.85,0,0,1,.87,2.11h6.51V192h-6.61v2.37H182v5.7c0,.92-.45,1.39-1.33,1.39H179l-.24-.83,1.53,0c.5,0,.75-.26.75-.79v-4.68h-4.35v8.59h-.86v-8.59h-4.16v6.36h-.85v-7.18h5V192h-6.61Z"/><path class="cls-1" d="M185.15,193.73h2v-4.2h.86v4.2h2.13v.84h-2.13v5.94c.83-.25,1.56-.49,2.19-.74v.88a35.36,35.36,0,0,1-5.07,1.48l-.22-.9c.73-.13,1.48-.29,2.24-.48v-6.18h-2Zm5.87,1.93v-.8a45.66,45.66,0,0,0,5.63-3.85H191.2v-.82h6.7V191a43.83,43.83,0,0,1-5.38,3.92h6.42a48.68,48.68,0,0,1-.48,7,2,2,0,0,1-2.11,1.65l-1.52,0-.24-.85c.72,0,1.27.07,1.63.07a1.45,1.45,0,0,0,1.38-1,33.32,33.32,0,0,0,.46-6.13h-1.39a13.18,13.18,0,0,1-1.71,4.69,11.28,11.28,0,0,1-3.75,3.23l-.54-.67a10.7,10.7,0,0,0,3.5-2.9,11.43,11.43,0,0,0,1.67-4.35h-1.49a9,9,0,0,1-3.09,4.74l-.56-.67a8.28,8.28,0,0,0,2.82-4.07Z"/><path class="cls-1" d="M201.47,190.38h3.69v-1.15H206v1.15h4.54v-1.15h.87v1.15h3.69v.79h-3.69v1h-.87v-1H206v1h-.87v-1h-3.69ZM214.62,193v2.86h-.85v-2.09H202.83v2.17H202V193Zm-.94,6.45v4.37h-.85v-.68h-9v.68H203v-4.37Zm-9.84,2.94h9v-2.17h-9Zm.64-7.29h7.71v3.1h-7.71Zm6.89,2.41v-1.73h-6.08v1.73Z"/><path class="cls-1" d="M220,189.41c-.18.66-.34,1.22-.49,1.69h3.1v.83h-3.41a17.1,17.1,0,0,1-1.53,3.09l-.71-.45a17.17,17.17,0,0,0,2.21-5.34Zm-1.44,4.92h3.75v.79H220.6v2.29h2.29v.81H220.6v4.11a12.56,12.56,0,0,0,2.31-1.07l.16.79a16.28,16.28,0,0,1-3.36,1.36l-.37-.76c.27-.09.4-.23.4-.4v-4h-2.29v-.81h2.29v-2.29H218.6Zm5.56-4.48a27.71,27.71,0,0,1,1.52,2.72l-.71.36a19.81,19.81,0,0,0-1.53-2.71Zm2.75-.6h.85v4.52h3.05v8.61c0,.88-.41,1.31-1.23,1.31h-1.65l-.24-.83,1.6,0q.66,0,.66-.72v-2.05H224.7v3.63h-.86v-10h3.07Zm3,7.36v-2H224.7v2Zm-5.25.76v2H230v-2Zm6.53-7.29a15.33,15.33,0,0,1-1.57,2.86l-.7-.37a15.59,15.59,0,0,0,1.53-2.84Z"/><path class="cls-1" d="M233.48,193.69h2.9v-2.57c-.9.15-1.77.25-2.62.32l-.29-.8a20.12,20.12,0,0,0,6-1.23l.42.73a19.48,19.48,0,0,1-2.66.8v2.75H240v.82h-2.83v.91a36.51,36.51,0,0,1,2.87,3l-.52.73a35,35,0,0,0-2.35-2.88v7.51h-.83v-7.68a15.22,15.22,0,0,1-2.94,4.56l-.37-.92a12.86,12.86,0,0,0,3.31-5.18h-2.9Zm13.25-3.31v12.79h-.86v-1.33h-4.19v1.47h-.85V190.38Zm-5,10.64h4.19V191.2h-4.19Z"/><path class="cls-1" d="M251.31,191.21a12.26,12.26,0,0,1-1.38,1.8l-.73-.47a9.69,9.69,0,0,0,2.19-3.42l.85.17c-.22.52-.38.89-.5,1.14h4.5v.78h-2.9a10.38,10.38,0,0,1,1,1.56l-.79.3a16,16,0,0,0-1.12-1.86ZM263,193.66v2.75h-.84v-2H250.44v2h-.84v-2.75h6.46c-.18-.4-.37-.79-.58-1.17l.85-.16a10,10,0,0,1,.58,1.33Zm-2.19,1.87v3h-8.14v1.29h8.88v4h-.87v-.72h-8v.7h-.87v-8.24Zm-8.14,2.28H260v-1.54h-7.29Zm0,4.48h8v-1.75h-8Zm5.55-11.08a9.45,9.45,0,0,1-1,1.59l-.74-.48a9.09,9.09,0,0,0,1.73-3.19l.81.18c-.12.37-.26.75-.41,1.12h4.78v.78h-3a9.12,9.12,0,0,1,.91,1.43l-.78.27a11.25,11.25,0,0,0-1.08-1.7Z"/><path class="cls-1" d="M265.39,195.23h1.82v-4.06h-2.06v-.84h5v.84h-2v4.06h1.85v.83h-1.85V200c.69-.24,1.38-.52,2.08-.81V200a30.9,30.9,0,0,1-5,1.68l-.21-.82a22.21,22.21,0,0,0,2.29-.59v-4.21h-1.82Zm5.79-5.33h7.54v7.22h-3.33v2.19H279v.83h-3.65v2.31h4.16v.84h-9.19v-.84h4.16v-2.31h-3.68v-.83h3.68v-2.19h-3.34Zm.85,3.22h2.49v-2.43H272Zm2.49,3.21v-2.44H272v2.44Zm.87-5.64v2.43h2.48v-2.43Zm2.48,5.64v-2.44h-2.48v2.44Z"/><path class="cls-1" d="M286.28,201.25a23.09,23.09,0,0,1-5.07,1.85l-.11-.85a22.46,22.46,0,0,0,5.18-1.8Zm-1.53-11.68a25.43,25.43,0,0,1-2.55,5c.85-.1,1.72-.21,2.61-.34.43-.82.75-1.43,1-1.82l.8.28a34.45,34.45,0,0,1-3.92,6,23.36,23.36,0,0,0,3.65-1v.8a25.91,25.91,0,0,1-4.71,1.12l-.24-.8a1.54,1.54,0,0,0,.42-.26,18.9,18.9,0,0,0,2.56-3.6c-.57.09-1.55.22-3,.4l-.21-.8a1.17,1.17,0,0,0,.37-.3,25.2,25.2,0,0,0,2.37-5.1Zm2.16,7.07-.56-.71q4.63-1.77,6.41-5.07h-5.64V190h6.7v.69a10.06,10.06,0,0,1-1.86,2.71,24.14,24.14,0,0,1,3.59,2.72l-.61.62a23.47,23.47,0,0,0-3.54-2.8A14.37,14.37,0,0,1,286.91,196.64Zm3.58,1.84h-3.28v-.83h7.46v.83h-3.31v3.92h4v.86h-8.92v-.86h4Z"/><path class="cls-1" d="M300.48,199.85a21.09,21.09,0,0,1-3.57,1l-.11-.84a17.81,17.81,0,0,0,3.68-.94Zm.72-9h-4V190h4.82l-.75,6.58h1.05q0,5.31-.44,6.16a2,2,0,0,1-1.92.81l-1.14,0-.24-.77c.64.05,1,.08,1.2.08.8,0,1.29-.27,1.47-.8a23.34,23.34,0,0,0,.26-4.65h-4.1l.75-5.38.8.05-.65,4.53h2.13Zm6.25-1.52a13.28,13.28,0,0,0,4.27,5.49l-.48.72a13.58,13.58,0,0,1-4.19-5.36,14.21,14.21,0,0,1-4.16,5.39l-.45-.69a14.05,14.05,0,0,0,4.21-5.55Zm-4.56,13.07h5.25a42,42,0,0,0,1.71-6.51l.83.22a41.52,41.52,0,0,1-1.71,6.29h2.59v.83h-8.67Zm1.28-6A35.71,35.71,0,0,1,305.6,201l-.76.2a35,35,0,0,0-1.42-4.56Zm.71-2.42h4.43v.8h-4.43Zm1.76,2a34.27,34.27,0,0,1,1.21,4.4l-.75.19a36.53,36.53,0,0,0-1.22-4.34Z"/><path class="cls-1" d="M168.23,17h2.6v14.9h9.43v2.23h-12Z"/><path class="cls-1" d="M182.18,21.68h2.54v7.56a3.27,3.27,0,0,0,.67,2.3,2.91,2.91,0,0,0,4-.07,4.6,4.6,0,0,0,1.2-2.21V21.68h2.54v12.4h-2.54V32.4a4.8,4.8,0,0,1-3.91,2c-3,0-4.49-1.67-4.49-5Z"/><path class="cls-1" d="M205.36,22.42a5.25,5.25,0,0,1,1.82,3.46h-2.51a2.89,2.89,0,0,0-1-1.85,3.31,3.31,0,0,0-2.09-.6,2.94,2.94,0,0,0-2.47,1.17,5.11,5.11,0,0,0-.91,3.27,5.38,5.38,0,0,0,.89,3.29,2.84,2.84,0,0,0,2.47,1.17,2.89,2.89,0,0,0,3.19-2.83h2.52a6,6,0,0,1-1.89,3.72,5.88,5.88,0,0,1-3.84,1.2,5.47,5.47,0,0,1-4.42-1.87,6.89,6.89,0,0,1-1.54-4.66,6.88,6.88,0,0,1,1.52-4.6,5.52,5.52,0,0,1,4.48-1.95A6.21,6.21,0,0,1,205.36,22.42Z"/><path class="cls-1" d="M219,22.71a4.87,4.87,0,0,1,1.13,3.46v7.91h-2.35V32.33A5.36,5.36,0,0,1,216,33.84a6.5,6.5,0,0,1-2.85.58,4.51,4.51,0,0,1-3-1,3.36,3.36,0,0,1-1.15-2.67,3.8,3.8,0,0,1,1.85-3.48,7.7,7.7,0,0,1,4.08-1l2.78,0V26c0-1.73-.94-2.6-2.81-2.6a3.51,3.51,0,0,0-2,.48,2.24,2.24,0,0,0-1,1.64h-2.52a4.39,4.39,0,0,1,1.87-3.27,6.85,6.85,0,0,1,3.82-.91A5.32,5.32,0,0,1,219,22.71Zm-1.39,5.54-2.62,0c-2.32,0-3.48.8-3.48,2.42a1.54,1.54,0,0,0,.56,1.22,2.3,2.3,0,0,0,1.6.48,4.32,4.32,0,0,0,2.86-1,3.27,3.27,0,0,0,1.08-2.54Z"/><path class="cls-1" d="M233,25.25h-2.47a2.37,2.37,0,0,0-.88-1.39,3.6,3.6,0,0,0-2-.43,3.28,3.28,0,0,0-1.73.34,1.15,1.15,0,0,0-.67,1.1c0,.42.33.78,1,1.1a20.52,20.52,0,0,0,2.5.75,10.94,10.94,0,0,1,3.15,1.17,2.92,2.92,0,0,1,1.48,2.59q0,3.94-5.52,3.94-5.09,0-5.52-4.34h2.5a2.72,2.72,0,0,0,.89,1.77,3.54,3.54,0,0,0,2.06.48c2,0,3-.56,3-1.68a1.55,1.55,0,0,0-1.11-1.41,12.82,12.82,0,0,0-2.49-.72,10.26,10.26,0,0,1-3.08-1.08,2.81,2.81,0,0,1-1.43-2.5,3,3,0,0,1,1.39-2.64,6.28,6.28,0,0,1,3.65-1C230.94,21.34,232.7,22.65,233,25.25Z"/><path class="cls-1" d="M105.73,66.92a17.73,17.73,0,0,1-2.29,4l-1.4-1a16.14,16.14,0,0,0,2.26-3.68Zm3.47-12.49h1.69V56h6.86v1.6h-6.86v1.91h5.73v6.1H104.34v-6.1h4.86ZM114.91,64V61.13H106V64Zm-6.32,2.76c.36,1.14.68,2.39,1,3.76l-1.73.4a26.92,26.92,0,0,0-.84-3.82Zm3.74-.24a34.48,34.48,0,0,1,1.37,4l-1.69.4a22.47,22.47,0,0,0-1.28-4Zm3.6-.39A31.33,31.33,0,0,1,118.54,70l-1.42,1a30.16,30.16,0,0,0-2.56-4Z"/><path class="cls-1" d="M122.16,59.24c-.32.35-.71.74-1.17,1.19l-1-1.3a13.16,13.16,0,0,0,3.4-4.88l1.6.36a13.21,13.21,0,0,1-.54,1.26h3.46a11,11,0,0,0-.76-1.4l1.75-.29c.24.53.47,1.09.7,1.69h5.67v1.41H129.7v.91h4.86v1.3H129.7v.88h4.86v1.3H129.7v.95h5.92V64H122.16Zm-1.64,7.47V65.14h7v-.72h1.69v.72h6.92v1.57h-4.94A14,14,0,0,0,136.36,69l-.74,1.51a13.14,13.14,0,0,1-6.15-3.78h-.24V71h-1.69V66.71h-.23q-1.71,2.24-6.09,3.85l-.9-1.46a15.4,15.4,0,0,0,5.26-2.39ZM128,58.19v-.91h-4.29v.91Zm0,2.18v-.88h-4.29v.88Zm0,2.25v-.95h-4.29v.95Z"/><path class="cls-1" d="M153.89,54.2a16.55,16.55,0,0,0-1.72,3.72,14.12,14.12,0,0,0-.8,4.68,14.31,14.31,0,0,0,.8,4.69A17.63,17.63,0,0,0,153.89,71h-1.6a15.28,15.28,0,0,1-1.94-3.67,13.86,13.86,0,0,1,0-9.45,14.06,14.06,0,0,1,1.94-3.69Z"/><path class="cls-1" d="M159.11,65.68a17.9,17.9,0,0,1-1.81,4.76l-1.41-.9a13.49,13.49,0,0,0,1.68-4.18Zm-2.91-5.85h1.91a12.46,12.46,0,0,0-.81-1.76l1.49-.56a16.63,16.63,0,0,1,.83,2.32h1.71a23.6,23.6,0,0,0,.75-2.34l1.53.54a14.12,14.12,0,0,1-.73,1.8h1.83V61.4h-3.33V63h3v1.55h-3v4.8c0,1.09-.59,1.64-1.78,1.64h-.94l-.37-1.58a3,3,0,0,0,.75.11c.43,0,.65-.2.65-.58V64.57h-3.2V63h3.2V61.4H156.2Zm.18-4.08h3.22a11.8,11.8,0,0,0-.77-1.33l1.76-.29a16,16,0,0,1,.68,1.62h3.33v1.58h-8.22Zm6.82,9.48c.49,1.2.86,2.25,1.12,3.13l-1.44.54a28.1,28.1,0,0,0-1.08-3.29Zm9-9.25a19.79,19.79,0,0,1-5.13,1v2.92h5.58v1.63h-1.75V71h-1.67V61.52h-2.16v1.82A13.74,13.74,0,0,1,165,70.92l-1.21-1.29a11.6,11.6,0,0,0,1.66-6.29V55.57a17.21,17.21,0,0,0,6-1.1Z"/><path class="cls-1" d="M177,54.38h1.72v3h3.62q0,9.18-.27,11.34c-.18,1.37-1.07,2.05-2.68,2.05-.22,0-.68,0-1.4-.08l-.44-1.57c.69.06,1.21.09,1.57.09A1.29,1.29,0,0,0,180.48,68c.1-.78.16-3.74.2-8.89h-2v.48q-.09,7.89-3.47,11.52l-1.39-1.22Q177,66.67,177,59.56v-.48h-2.72V57.4H177Zm12.83,2V70.67h-1.67V69.55h-2.78v1.12h-1.67V56.38ZM185.39,67.9h2.78V58h-2.78Z"/><path class="cls-1" d="M192,59h2V54.42h1.71V59h1.69v1.66h-1.69V66l1.39-.54v1.7a34.6,34.6,0,0,1-4.83,1.6l-.43-1.73c.72-.14,1.44-.3,2.16-.49V60.63h-2Zm10.42-4.64h1.71v2.12h4.12v.81a16.12,16.12,0,0,1-.92,3.13l-1.6-.43a12.21,12.21,0,0,0,.74-1.94h-2.34v3.23h3v1.46a11.7,11.7,0,0,1-2.16,4.58,15.85,15.85,0,0,0,3.69,2.19L207.8,71A18.32,18.32,0,0,1,204,68.47a14.18,14.18,0,0,1-4.14,2.61l-1.1-1.33a13,13,0,0,0,4.07-2.45,10.14,10.14,0,0,1-2.37-4.46h-.54A15.85,15.85,0,0,1,197.51,71l-1.32-1.16a14.49,14.49,0,0,0,2.11-7.74V56.45h4.16Zm0,3.69h-2.58v3.23h2.58Zm3,4.82H202a8.27,8.27,0,0,0,1.85,3.29A9.71,9.71,0,0,0,205.5,62.84Z"/><path class="cls-1" d="M212.38,54.2a16.11,16.11,0,0,1,1.94,3.69,13.86,13.86,0,0,1,0,9.45A16.85,16.85,0,0,1,212.38,71h-1.61a18.75,18.75,0,0,0,1.73-3.72,14.75,14.75,0,0,0,.79-4.69,14.46,14.46,0,0,0-.79-4.68,17.53,17.53,0,0,0-1.73-3.72Z"/><path class="cls-1" d="M240.11,70.63l-3.16,0a13.11,13.11,0,0,1-2.85-.31A3.8,3.8,0,0,1,232.25,69a1,1,0,0,0-.69-.45c-.37,0-1,.81-1.94,2.43l-1.26-1.17a7.28,7.28,0,0,1,2.45-2.74V62h-2.43V60.43h4v6.82l.25.25a4.24,4.24,0,0,0,1.28,1.08,5.83,5.83,0,0,0,2.34.45c1.34,0,2.54,0,3.58,0,.59,0,1.48,0,2.68,0,.8,0,1.49,0,2.09-.09l-.41,1.69ZM229.8,54.5a23.17,23.17,0,0,1,3,2.81l-1.22,1.23a18.14,18.14,0,0,0-3-2.9Zm3.64,4.7h10.65v1.61h-5.56a26.55,26.55,0,0,1-2.38,4.91,48.13,48.13,0,0,0,5.31-.81q-.66-1.53-1.26-2.61l1.39-.45a31.83,31.83,0,0,1,2.56,5.67l-1.53.4c-.18-.53-.36-1-.54-1.52a69,69,0,0,1-7.78,1l-.45-1.47q1-.33,3-5.13h-3.38Zm1.18-4.26h8.19v1.58h-8.19Z"/><path class="cls-1" d="M246.54,55.44h3.91V54.36h1.69v1.08h4.39V54.36h1.69v1.08h3.91v1.5h-3.91v.91h-1.69v-.91h-4.39v.91h-1.69v-.91h-3.91Zm15.23,3V62h-1.64V59.85H248.54v2.23H246.9V58.41Zm-1,7.26V71h-1.63v-.71h-9.35V71h-1.65V65.67Zm-11-4.83h9.34v3.85h-9.34Zm0,8h9.35V67.07h-9.35Zm7.74-5.4V62.14h-6.19v1.29Z"/><path class="cls-1" d="M267.35,65.23a17.16,17.16,0,0,1-1.87,4.94L264,69.23a15,15,0,0,0,1.71-4.34Zm-.87-7.88h2.94a19.55,19.55,0,0,0-1.8-2.47l1.46-.72A28.51,28.51,0,0,1,271,56.79l-1.12.56h3.69a21.85,21.85,0,0,0,1.8-3.24l1.64.59a24.43,24.43,0,0,1-1.6,2.65h2.8v6.26h-11.7Zm10,4.64V59h-8.28v3Zm-6.17,8.72c-1.25,0-1.87-.67-1.87-2V65h1.74v3.33c0,.49.22.73.65.73h3.82a.75.75,0,0,0,.66-.3,5,5,0,0,0,.35-2l1.63.52c-.14,1.64-.4,2.65-.77,3a2.37,2.37,0,0,1-1.57.44ZM273,64.06a18.72,18.72,0,0,1,1.58,3l-1.57.7a18.49,18.49,0,0,0-1.53-3.15Zm5.65.44a28.45,28.45,0,0,1,2,4.39l-1.57.7A31.26,31.26,0,0,0,277,65Z"/><path class="cls-1" d="M296.71,63.92v5h1.8v1.53h-16.4V68.89H284v-5Zm-13.49-8.75h1.7v7.42h-1.7Zm2.43,13.72h2V65.47h-2Zm1.28-14.6h1.71v9h-1.71ZM292.37,58a11.11,11.11,0,0,1-2.18,3.5l-1.08-1.33a12.78,12.78,0,0,0,2.48-6l1.77.32c-.1.48-.24,1.09-.42,1.82h5.12V58Zm-3.08,10.87h2V65.47h-2Zm5-10a28.21,28.21,0,0,1,2.15,3.1L295,63a25.38,25.38,0,0,0-2.1-3.2Zm-1.29,10h2.05V65.47H293Z"/></svg>