<svg id="图层_1" data-name="图层 1" xmlns="http://www.w3.org/2000/svg" viewBox="0 0 400 275"><defs><style>.cls-1{fill:#33353c;}</style></defs><title>team</title><path class="cls-1" d="M165.81,22h3.09l6,13.73H175l6-13.73H184V39.18h-2.62V26.94h-.09L176,39.18h-2.25l-5.26-12.24h-.1V39.18h-2.61Z"/><path class="cls-1" d="M196.74,27.8a4.83,4.83,0,0,1,1.13,3.46v7.92h-2.35V37.43a5.56,5.56,0,0,1-1.82,1.51,6.73,6.73,0,0,1-2.86.57,4.46,4.46,0,0,1-3.05-1,3.35,3.35,0,0,1-1.15-2.66,3.79,3.79,0,0,1,1.85-3.48,7.7,7.7,0,0,1,4.08-1l2.78,0v-.31c0-1.73-.93-2.59-2.81-2.59a3.51,3.51,0,0,0-2,.48,2.22,2.22,0,0,0-1,1.63H187a4.38,4.38,0,0,1,1.88-3.26,6.7,6.7,0,0,1,3.81-.92A5.31,5.31,0,0,1,196.74,27.8Zm-1.39,5.55-2.61,0c-2.32,0-3.48.81-3.48,2.42a1.55,1.55,0,0,0,.55,1.23,2.38,2.38,0,0,0,1.61.48,4.31,4.31,0,0,0,2.85-1A3.3,3.3,0,0,0,195.35,34Z"/><path class="cls-1" d="M204.54,22.76v4h2.84v2.11h-2.84v7.2a1.2,1.2,0,0,0,.22.75.9.9,0,0,0,.67.24h1.63v2.11h-2a2.88,2.88,0,0,1-2.32-.84,3.24,3.24,0,0,1-.7-2.26v-7.2h-2.3V26.77H202V23.82Z"/><path class="cls-1" d="M219.3,28.5a8.31,8.31,0,0,1,1.49,5.18h-9.41a4.68,4.68,0,0,0,1,2.79,3.07,3.07,0,0,0,2.37,1,3.5,3.5,0,0,0,2.16-.63A4.13,4.13,0,0,0,218,35.19h2.55a5.78,5.78,0,0,1-1.71,2.91,6,6,0,0,1-4.1,1.41,5.64,5.64,0,0,1-4.35-1.7A6.72,6.72,0,0,1,208.7,33a6.73,6.73,0,0,1,1.63-4.63,5.36,5.36,0,0,1,4.34-1.9A5.43,5.43,0,0,1,219.3,28.5Zm-6.84.86a4.35,4.35,0,0,0-1,2.4h6.7q-.36-3.24-3.39-3.24A3.08,3.08,0,0,0,212.46,29.36Z"/><path class="cls-1" d="M233.17,28.31A6.72,6.72,0,0,1,234.85,33a6.6,6.6,0,0,1-1.65,4.63,6.39,6.39,0,0,1-9.07,0A6.56,6.56,0,0,1,222.47,33a6.62,6.62,0,0,1,1.68-4.68,6.35,6.35,0,0,1,9,0Zm-7.24,1.6a5.13,5.13,0,0,0-.84,3.08,5,5,0,0,0,.84,3,3.15,3.15,0,0,0,2.73,1.4,3.27,3.27,0,0,0,2.76-1.4,5.1,5.1,0,0,0,.87-3,5.06,5.06,0,0,0-.87-3.08,3.24,3.24,0,0,0-2.76-1.39A3.14,3.14,0,0,0,225.93,29.91Z"/><path class="cls-1" d="M62.67,72a17.85,17.85,0,0,1-2.28,4L59,75a16.09,16.09,0,0,0,2.27-3.67Zm3.48-12.49h1.69v1.58H74.7v1.6H67.84v1.91h5.72v6.1H61.29v-6.1h4.86Zm5.7,9.61V66.22H63v2.92Zm-6.32,2.75a37.93,37.93,0,0,1,1,3.76l-1.72.4a26.86,26.86,0,0,0-.85-3.82Zm3.75-.23a35.78,35.78,0,0,1,1.37,4L69,76a22.48,22.48,0,0,0-1.27-4Zm3.6-.4a33.35,33.35,0,0,1,2.61,3.85l-1.42,1a32.37,32.37,0,0,0-2.56-4Z"/><path class="cls-1" d="M79.11,64.33c-.33.35-.72.75-1.17,1.19l-1-1.3a13.13,13.13,0,0,0,3.4-4.87l1.6.36A13.21,13.21,0,0,1,81.41,61h3.46a11.7,11.7,0,0,0-.76-1.41l1.75-.29c.23.53.47,1.1.7,1.7h5.67v1.4H86.65v.92h4.86v1.29H86.65v.89h4.86v1.29H86.65v1h5.92v1.42H79.11ZM77.47,71.8V70.24h7v-.72h1.69v.72h6.91V71.8H88.16a13.93,13.93,0,0,0,5.15,2.27l-.74,1.51a13.12,13.12,0,0,1-6.16-3.78h-.23v4.25H84.49V71.8h-.24Q82.54,74,78.17,75.65l-.9-1.45a15.19,15.19,0,0,0,5.26-2.4ZM85,63.29v-.92H80.69v.92Zm0,2.18v-.89H80.69v.89Zm0,2.25v-1H80.69v1Z"/><path class="cls-1" d="M110.84,59.29A16.67,16.67,0,0,0,109.11,63a14,14,0,0,0-.79,4.68,14.29,14.29,0,0,0,.79,4.68,17.46,17.46,0,0,0,1.73,3.72h-1.6a15.49,15.49,0,0,1-1.95-3.67,13.86,13.86,0,0,1,0-9.45,14.26,14.26,0,0,1,1.95-3.69Z"/><path class="cls-1" d="M116.06,70.78a17.49,17.49,0,0,1-1.82,4.75l-1.4-.9a13.23,13.23,0,0,0,1.67-4.18Zm-2.92-5.85h1.91a12.09,12.09,0,0,0-.81-1.77l1.5-.56a16.77,16.77,0,0,1,.82,2.33h1.71c.29-.77.54-1.55.76-2.34l1.53.54a13.91,13.91,0,0,1-.74,1.8h1.84v1.56h-3.33v1.62h3v1.55h-3v4.81c0,1.09-.6,1.63-1.79,1.63h-.93l-.38-1.58a3.17,3.17,0,0,0,.76.11c.43,0,.65-.19.65-.58V69.66h-3.21V68.11h3.21V66.49h-3.5Zm.18-4.09h3.22a11.8,11.8,0,0,0-.77-1.33l1.77-.29a16,16,0,0,1,.68,1.62h3.33v1.58h-8.23Zm6.83,9.49a29.8,29.8,0,0,1,1.11,3.13l-1.44.54a27.65,27.65,0,0,0-1.08-3.3Zm9-9.26a19.63,19.63,0,0,1-5.13,1V65h5.58v1.64h-1.74v9.43h-1.68V66.62h-2.16v1.82A13.63,13.63,0,0,1,122,76l-1.21-1.29a11.77,11.77,0,0,0,1.66-6.28V60.66a17.16,17.16,0,0,0,5.95-1.1Z"/><path class="cls-1" d="M134,59.47h1.73v3h3.62q0,9.18-.27,11.34c-.18,1.36-1.08,2-2.68,2q-.33,0-1.41-.09l-.43-1.57c.68.06,1.2.09,1.57.09q1.13,0,1.35-1.26c.09-.78.16-3.74.19-8.89h-1.94v.49q-.09,7.88-3.47,11.52L130.82,75q3.08-3.18,3.13-10.29v-.49h-2.72V62.5H134Zm12.84,2V75.76h-1.68V74.65h-2.77v1.11h-1.67V61.47ZM142.34,73h2.77V63.13h-2.77Z"/><path class="cls-1" d="M149,64.06h2V59.51h1.71v4.55h1.69v1.66h-1.69v5.4l1.38-.54v1.69a34.46,34.46,0,0,1-4.82,1.6l-.43-1.73q1.08-.21,2.16-.48V65.72h-2Zm10.42-4.64h1.71v2.12h4.13v.81a16.62,16.62,0,0,1-.92,3.13l-1.61-.43a10,10,0,0,0,.74-1.94h-2.34v3.24h3v1.46A11.87,11.87,0,0,1,162,72.38a15.13,15.13,0,0,0,3.69,2.19l-.94,1.5a18.31,18.31,0,0,1-3.85-2.5,14.61,14.61,0,0,1-4.14,2.61l-1.1-1.34a13.14,13.14,0,0,0,4.07-2.44,10.3,10.3,0,0,1-2.38-4.47h-.54a15.73,15.73,0,0,1-2.36,8.14l-1.31-1.15a14.72,14.72,0,0,0,2.11-7.74V61.54h4.15Zm0,3.69h-2.57v3.24h2.57Zm3,4.82h-3.51a8.07,8.07,0,0,0,1.85,3.3A10.24,10.24,0,0,0,162.45,67.93Z"/><path class="cls-1" d="M169.32,59.29a16,16,0,0,1,2,3.69,14,14,0,0,1,0,9.45,16.26,16.26,0,0,1-2,3.67h-1.6a19.06,19.06,0,0,0,1.73-3.72,14.74,14.74,0,0,0,.79-4.68,14.46,14.46,0,0,0-.79-4.68,18.11,18.11,0,0,0-1.73-3.73Z"/><path class="cls-1" d="M191.75,66.64H188.4v6.85c0,.45.24.67.72.67h3.13c.54,0,.88-.14,1-.41a5.73,5.73,0,0,0,.32-1.82l1.61.54c-.15,1.58-.37,2.53-.69,2.84a2.52,2.52,0,0,1-1.74.43h-4.38c-1.13,0-1.69-.54-1.69-1.62V65.57l-.86.87-1-1.39a30.7,30.7,0,0,0,4.7-5.54h1.26c1.64,1.73,3.14,3.45,4.5,5.18l-1.12,1.17a57.52,57.52,0,0,0-3.87-4.73,33.66,33.66,0,0,1-3.17,4h6.3v5c0,1-.55,1.51-1.63,1.59-.7,0-1.37,0-2-.06l-.42-1.6a17.4,17.4,0,0,0,1.75.11.55.55,0,0,0,.63-.61Zm4.73,9.23-.39-1.64c.9.07,1.74.11,2.54.11.41,0,.62-.25.62-.76V59.47H201V74c0,1.23-.58,1.85-1.74,1.85ZM196.09,61h1.67V72.11h-1.67Z"/><path class="cls-1" d="M206.71,59.45c-.16,1.25-.3,2.34-.43,3.26h2.55v1a23.22,23.22,0,0,1-1.4,7.48,29.77,29.77,0,0,1,2,2.25l-1.15,1.35a24.61,24.61,0,0,0-1.59-1.92,12.71,12.71,0,0,1-2.53,3.29L203,74.77a10.91,10.91,0,0,0,2.44-3.2c-.78-.81-1.54-1.56-2.28-2.27.43-1.64.8-3.29,1.09-5H203V62.71h1.53c.2-1.34.36-2.48.46-3.4Zm-.51,10.46a20,20,0,0,0,1.05-5.56H206a41.9,41.9,0,0,1-1,4.45Zm3-4.62q1.34-.44,3.72-5.91l1.62.54a32,32,0,0,1-2.95,5.26c1.73-.11,3.4-.29,5-.54-.33-.71-.77-1.54-1.31-2.5l1.46-.71a49.85,49.85,0,0,1,2.63,5.19l-1.57.75c-.18-.46-.36-.9-.54-1.29-2.35.32-5,.57-7.81.75Zm9.07,2.86v7.9h-1.64V75h-4.93v1h-1.62v-7.9Zm-6.57,5.29h4.93V69.71h-4.93Z"/><path class="cls-1" d="M230.09,59.45c0,1.38,0,2.73-.13,4a16.54,16.54,0,0,0,7.74,11l-1.13,1.49a18.13,18.13,0,0,1-7.24-9.25A17.18,17.18,0,0,1,221.88,76l-1-1.53q7.29-4.42,7.5-12.17l0-2.83Z"/><path class="cls-1" d="M241,65.39a2.69,2.69,0,0,1-.47-1.47,2.47,2.47,0,0,1,1-2.11,3.67,3.67,0,0,1,2.39-.74,3.81,3.81,0,0,1,2.31.67,2.43,2.43,0,0,1,1,2.07,3.1,3.1,0,0,1-1.51,2.57l-1.06.63,2.68,2.85a11.5,11.5,0,0,0,.63-3.21h2a10.37,10.37,0,0,1-1.18,4.7l2.67,2.83H249l-1.27-1.37a5.43,5.43,0,0,1-4.05,1.62,5.32,5.32,0,0,1-3.24-.9A3.39,3.39,0,0,1,239,70.6a3.58,3.58,0,0,1,1.64-3c.05,0,.52-.33,1.42-.83A8,8,0,0,1,241,65.39Zm5.46,6L243.1,67.9l-.21.12a5.07,5.07,0,0,0-1.33,1.12,2.13,2.13,0,0,0-.6,1.49,1.83,1.83,0,0,0,.78,1.53,2.87,2.87,0,0,0,1.81.54A3.67,3.67,0,0,0,246.42,71.44Zm-3.62-8.53a1.17,1.17,0,0,0-.36,1,2.26,2.26,0,0,0,.52,1.21,9.05,9.05,0,0,0,.67.83l0,0c1.09-.62,1.64-1.27,1.64-1.94a1.27,1.27,0,0,0-.38-1,1.72,1.72,0,0,0-2.12-.05Z"/><path class="cls-1" d="M266.83,64.76V76.05h-1.69V75.4h-8.9v.65h-1.69V64.76h4.88c.07-.33.15-.82.25-1.45h-7V61.65H257a13.68,13.68,0,0,0-.86-1.71l1.67-.63a13.47,13.47,0,0,1,1,2.34h3.69a19.5,19.5,0,0,0,1-2.38l1.69.6a15.55,15.55,0,0,1-.81,1.78h4.34v1.66H261.5c-.07.38-.17.87-.31,1.45Zm-10.59,3.06h8.9V66.31h-8.9Zm0,3h8.9V69.3h-8.9Zm0,3h8.9V72.31h-8.9Z"/><path class="cls-1" d="M273.54,65.54v1A21.63,21.63,0,0,1,271.62,76l-1.3-1.15a19.74,19.74,0,0,0,1.53-8.3V60.68h6.82a8.63,8.63,0,0,0-.63-1.1l1.82-.29a13.12,13.12,0,0,1,.58,1.39h6V62.3H273.54V64h2.7v-1.2h1.66V64h4.23V62.73h1.65V64h2.7v1.59h-2.7v2.77h-2.93v1.21h4.82v3.63A1.54,1.54,0,0,1,284,74.92h-1.37l-.43-1.59,1.26.09a.55.55,0,0,0,.61-.63V71.05h-3.17v5h-1.67v-5h-3v4h-1.66V69.52h4.67V68.31h-2.94V65.54Zm4.36,0v1.37h4.23V65.54Z"/><path class="cls-1" d="M288.91,75.87l-.37-1.66c.6.06,1.11.09,1.54.09s.67-.21.67-.64V69.77q-.84.3-2.07.66l-.41-1.62a21.48,21.48,0,0,0,2.48-.7V64.37h-2.14V62.73h2.14V59.47h1.71v3.26H294v1.64h-1.55v3.09c.38-.16.94-.43,1.66-.79v1.71c-.62.29-1.17.54-1.66.74v5a1.57,1.57,0,0,1-1.78,1.78Zm12.44-1.48q-.62-1.48-.61-6.15V64H298.6v1.78a24.7,24.7,0,0,1-.2,2.72c.85.62,1.61,1.24,2.29,1.84l-1,1.47c-.46-.44-1-.92-1.66-1.44a10.73,10.73,0,0,1-3.37,5.69l-1.29-1.12a9.59,9.59,0,0,0,3.17-5.68A19,19,0,0,0,294.42,68l.94-1.39c.33.17.81.45,1.44.83.06-.6.09-1.15.09-1.64V64h-2.16V62.33h2.16V59.45h1.71v2.88h3.81v5.91a30.9,30.9,0,0,0,.2,4.61c.1.67.26,1,.49,1s.27-.31.38-.95l.25-1.85,1.42.68a10.61,10.61,0,0,1-.85,3.35q-.46.84-1,.84A2.1,2.1,0,0,1,301.35,74.39Z"/><path class="cls-1" d="M311.76,60.26a14.25,14.25,0,0,1-4.9,5.33l-.52-1.71a11.78,11.78,0,0,0,3.85-4.34Zm.82,4.13a13.16,13.16,0,0,1-1.83,2.75V76h-1.68V68.81A24.48,24.48,0,0,1,307,70.43l-.51-1.69A13.63,13.63,0,0,0,311,63.67Zm.22.54h10V66.6H320v7.58c0,1.19-.64,1.78-1.93,1.78h-2.61l-.37-1.67c.82.07,1.62.1,2.39.1.53,0,.79-.21.79-.63V66.6H312.8Zm.45-4.5H322V62.1h-8.78Z"/><path class="cls-1" d="M340.38,60.93v3.94h-1.73V62.59H326.73v2.26H325V60.93h6.75a9.32,9.32,0,0,0-.84-1.42l1.85-.29a16.67,16.67,0,0,1,.76,1.71ZM337.82,64v4.77h-8.64v1.58h9.47V76H337v-.65h-7.78v.67h-1.69V64Zm-8.64,3.29h7V65.48h-7Zm0,6.61H337V71.82h-7.78Z"/><path class="cls-1" d="M121.28,94.26a4.69,4.69,0,0,1,1.49,2.85h-1a3.6,3.6,0,0,0-1.21-2.19,4,4,0,0,0-2.66-.84,3.91,3.91,0,0,0-3.18,1.44,5.56,5.56,0,0,0-1.15,3.67,5.23,5.23,0,0,0,1.15,3.55,4.37,4.37,0,0,0,3.52,1.44,6.82,6.82,0,0,0,2-.29,5.79,5.79,0,0,0,1.55-.7V99.94h-3.9v-.86h4.88v4.57a6.35,6.35,0,0,1-2,1,9,9,0,0,1-2.59.38,5.24,5.24,0,0,1-4.19-1.74,6.08,6.08,0,0,1-1.38-4.13A6.32,6.32,0,0,1,114,95a4.79,4.79,0,0,1,4-1.81A5.07,5.07,0,0,1,121.28,94.26Z"/><path class="cls-1" d="M131.34,97.65a5.11,5.11,0,0,1,0,6.1,3.92,3.92,0,0,1-5.85,0,4.66,4.66,0,0,1-1-3,4.6,4.6,0,0,1,1-3.06,3.59,3.59,0,0,1,2.92-1.31A3.63,3.63,0,0,1,131.34,97.65Zm-5.15.61a3.88,3.88,0,0,0-.73,2.45,3.84,3.84,0,0,0,.73,2.43,2.84,2.84,0,0,0,4.47,0,4,4,0,0,0,.73-2.43,4,4,0,0,0-.73-2.45,2.84,2.84,0,0,0-4.47,0Z"/><path class="cls-1" d="M136.05,93.89v2.67h2.16v.84h-2.16V103a1.24,1.24,0,0,0,.19.78.93.93,0,0,0,.72.22h1v.84h-1.17a1.72,1.72,0,0,1-1.38-.5,2,2,0,0,1-.36-1.34V97.4h-1.76v-.84h1.76V94.29Z"/><path class="cls-1" d="M146.21,97.65a5.15,5.15,0,0,1,0,6.1,3.93,3.93,0,0,1-5.86,0,4.66,4.66,0,0,1-1-3,4.55,4.55,0,0,1,1-3.06,3.56,3.56,0,0,1,2.91-1.31A3.67,3.67,0,0,1,146.21,97.65Zm-5.16.61a3.88,3.88,0,0,0-.73,2.45,3.84,3.84,0,0,0,.73,2.43,2.84,2.84,0,0,0,4.47,0,4,4,0,0,0,.73-2.43,4,4,0,0,0-.73-2.45,2.84,2.84,0,0,0-4.47,0Z"/><path class="cls-1" d="M155.52,97.67a4.89,4.89,0,0,1,.91,3,5,5,0,0,1-.9,3,3.32,3.32,0,0,1-2.76,1.31,3,3,0,0,1-2.9-2V108h-1V96.56h.91V98.2a3,3,0,0,1,2.91-1.86A3.32,3.32,0,0,1,155.52,97.67Zm-5,.54a4,4,0,0,0-.69,2.45v.18a3.85,3.85,0,0,0,.73,2.44,2.45,2.45,0,0,0,2,1,2.6,2.6,0,0,0,2.18-1,5,5,0,0,0,0-5,2.48,2.48,0,0,0-2.16-1.07A2.43,2.43,0,0,0,150.53,98.21Z"/><path class="cls-1" d="M159.76,103.46a.73.73,0,0,1,.24.58.79.79,0,0,1-.26.57.84.84,0,0,1-.56.23.75.75,0,0,1-.57-.24.77.77,0,0,1-.24-.56.73.73,0,0,1,.24-.58.74.74,0,0,1,.57-.22A.78.78,0,0,1,159.76,103.46Z"/><path class="cls-1" d="M161.33,96.56h1l2.61,7.06,2.59-7.06h1.07l-3.16,8.28h-1Z"/><path class="cls-1" d="M175.65,97.06a3.18,3.18,0,0,1,1.13,2.21h-1A2.34,2.34,0,0,0,175,97.7a2.77,2.77,0,0,0-1.76-.53,2.47,2.47,0,0,0-2.08,1,4.79,4.79,0,0,0,0,5.1,2.48,2.48,0,0,0,2.09,1,2.45,2.45,0,0,0,2.66-2.35h.94a3.76,3.76,0,0,1-1.18,2.38,3.58,3.58,0,0,1-2.42.8,3.45,3.45,0,0,1-2.84-1.25,4.62,4.62,0,0,1-1-3,4.82,4.82,0,0,1,1-3.11,3.39,3.39,0,0,1,2.83-1.31A3.85,3.85,0,0,1,175.65,97.06Z"/><path class="cls-1" d="M178.89,92.44A28,28,0,0,1,181.47,96l-.72.5a29,29,0,0,0-2.58-3.64Zm2.74,6.91A63.41,63.41,0,0,1,179,106l-.81-.36A57.45,57.45,0,0,0,180.85,99ZM187,91.86h.87v2.86H192v7.12h-.85V101h-3.31v5.49H187V101h-3.28v.88h-.84V94.72H187Zm-3.28,8.3H187v-4.6h-3.28Zm4.15,0h3.31v-4.6h-3.31Z"/><path class="cls-1" d="M194.65,106.21l-.19-.83c.83,0,1.43.06,1.78.06s.61-.23.61-.7V93.44h-2.58v-.86h5.47v.86h-2V105c0,.84-.39,1.25-1.17,1.25Zm9.22-9h.85v2.88a6.49,6.49,0,0,1-1.23,4,7.63,7.63,0,0,1-3.8,2.19l-.48-.73a7.46,7.46,0,0,0,3.64-2,5.91,5.91,0,0,0,1-3.45Zm-3.47-4.66h8v.86h-3.62c-.07.74-.16,1.38-.25,1.92h3.26v7.44h-.85V96.18h-5.15v6.67h-.86V95.36h2.73a14,14,0,0,0,.24-1.92h-3.5ZM205.55,103a22.87,22.87,0,0,1,3,2.76l-.62.62A22.23,22.23,0,0,0,205,103.6Z"/><path class="cls-1" d="M214,95.8a14.62,14.62,0,0,1-3,2.38l-.57-.66a14.12,14.12,0,0,0,3-2.32Zm3.84,4.78q-.33,3.06-1.47,4.11c-.83.89-2.65,1.44-5.46,1.67l-.35-.79q3.84-.22,5.09-1.39A5.74,5.74,0,0,0,217,100.5Zm-6.69-8.35a14.32,14.32,0,0,1,2.64,1.1l-.46.72a11.29,11.29,0,0,0-2.63-1.17Zm11.2,6.7v4.75h-.88V99.75h-8.38v4h-.88V98.93Zm-5-7.07a8.43,8.43,0,0,1-.47,1.12h6.58v.54a12.52,12.52,0,0,1-.8,2.32l-.83-.24a8.11,8.11,0,0,0,.73-1.84h-3a8.35,8.35,0,0,1-.32,1.17c.87,1.34,2.54,2.24,5,2.72l-.3.75c-2.42-.48-4.1-1.39-5.06-2.73a5.67,5.67,0,0,1-.77,1,8.25,8.25,0,0,1-3.82,1.73l-.34-.78a7.82,7.82,0,0,0,3.51-1.47,4.23,4.23,0,0,0,1.26-2.36h-2.34a7.1,7.1,0,0,1-1.6,1.64l-.52-.69a5.93,5.93,0,0,0,2.22-2.95Zm.93,11.82a32.5,32.5,0,0,1,5.68,2l-.47.72a30.9,30.9,0,0,0-5.66-2.11Z"/><path class="cls-1" d="M226.53,94.84h6.38v-3h.86v3h6.37v.84h-5.45a16.82,16.82,0,0,0,5.93,7.09l-.57.75A18.6,18.6,0,0,1,234,95.68h-.21v6.5h3.56V103h-3.56v3.37h-.86V103h-3.42v-.85h3.42v-6.5h-.22a16.55,16.55,0,0,1-6.21,8l-.5-.79a15.53,15.53,0,0,0,6-7.25h-5.47Z"/><path class="cls-1" d="M247,92c1.37,1.47,2.72,3,4,4.7l-.58.59q-2.08-2.73-3.71-4.48a28.87,28.87,0,0,1-4.22,5l-.51-.69A29.12,29.12,0,0,0,246.29,92Zm1.41,5.77h-3.75v7c0,.35.2.53.59.53h3.27c.61,0,1-.15,1.12-.44A6.12,6.12,0,0,0,250,103l.82.29a4.94,4.94,0,0,1-.6,2.48,2.09,2.09,0,0,1-1.5.4h-3.74c-.78,0-1.17-.37-1.17-1.1V97h5.45v4.13a1.15,1.15,0,0,1-1.24,1.31c-.43,0-1,0-1.76-.06l-.23-.8q1.22.06,1.71.06c.45,0,.68-.24.68-.72Zm3.8,8.48-.19-.81c.89,0,1.72,0,2.51,0,.36,0,.53-.21.53-.63v-13h.87v13.22c0,.77-.37,1.16-1.09,1.16Zm-.08-13h.85v10h-.85Z"/><path class="cls-1" d="M260.94,91.84,260.49,95h2.44v.52a19.78,19.78,0,0,1-1.4,6.76,22.68,22.68,0,0,1,1.94,2.2l-.58.67a25.48,25.48,0,0,0-1.74-2,11.77,11.77,0,0,1-2.48,3.34l-.54-.67a11.21,11.21,0,0,0,2.43-3.3c-.63-.64-1.33-1.32-2.1-2,.4-1.45.74-3,1-4.62h-1.41V95h1.56c.2-1.32.35-2.39.44-3.21Zm1.19,3.94h-1.78c-.33,1.8-.66,3.25-1,4.35.52.47,1,1,1.56,1.49A18.59,18.59,0,0,0,262.13,95.78Zm1.48,1.55c1.05-.64,2.24-2.48,3.59-5.53l.81.27a22.51,22.51,0,0,1-3.07,5.2q3.06-.21,5.68-.63c-.55-1-1.06-1.88-1.52-2.6l.75-.37a40.62,40.62,0,0,1,2.56,4.64l-.78.4L271,97.4q-3.24.48-7.24.72Zm7.81,2.42v6.65h-.83v-1h-5.3v1h-.83V99.75Zm-6.13,4.81h5.3v-4h-5.3Z"/><path class="cls-1" d="M281.79,91.83c0,1.19,0,2.36-.11,3.5a15,15,0,0,0,7,10.18l-.57.73a15.42,15.42,0,0,1-6.76-9,14.79,14.79,0,0,1-6.88,9l-.52-.77q6.67-4.17,6.92-11.07l0-2.59Z"/><path class="cls-1" d="M38,127.84a23,23,0,0,1-5.07,1.86l-.12-.85A22.54,22.54,0,0,0,38,127Zm-1.54-11.68a25.44,25.44,0,0,1-2.54,5q1.26-.14,2.61-.33c.42-.82.75-1.43,1-1.83l.8.29a34.85,34.85,0,0,1-3.92,6,25.45,25.45,0,0,0,3.65-1v.8a26.88,26.88,0,0,1-4.7,1.12l-.24-.8a1.77,1.77,0,0,0,.41-.26,18.46,18.46,0,0,0,2.56-3.6c-.56.09-1.55.22-3,.4l-.21-.8a1.07,1.07,0,0,0,.37-.3,24,24,0,0,0,2.37-5.11Zm2.16,7.08-.56-.71c3.1-1.18,5.23-2.87,6.42-5.07H38.8v-.85h6.7v.69a9.75,9.75,0,0,1-1.85,2.7,25.45,25.45,0,0,1,3.58,2.72l-.61.63a23.2,23.2,0,0,0-3.53-2.8A14.54,14.54,0,0,1,38.59,123.24Zm3.59,1.84H38.9v-.84h7.45v.84H43V129h4.05v.86H38.16V129h4Z"/><path class="cls-1" d="M49.33,119.6a20.51,20.51,0,0,1,2.89,2.82l-.62.61a18.78,18.78,0,0,0-2.86-2.85Zm3.05,5.25a49.15,49.15,0,0,1-2.49,5.46l-.82-.35a42.08,42.08,0,0,0,2.53-5.43ZM49.71,116a20.39,20.39,0,0,1,3,2.8l-.6.62a20.46,20.46,0,0,0-3-2.86Zm5.54,7.82h.85V125a8.67,8.67,0,0,1-.72,3.55,4.55,4.55,0,0,1-2.18,1.92l-.48-.72a4,4,0,0,0,2-1.78,7.42,7.42,0,0,0,.55-3Zm-1.91-6.35h4.42a11,11,0,0,0-.9-1.55l.93-.16a13.66,13.66,0,0,1,.83,1.71h4v.83h-1.4a6.23,6.23,0,0,1-2.36,3.12,15,15,0,0,0,4.46,1.22l-.32.76a14.75,14.75,0,0,1-4.91-1.48,15,15,0,0,1-5,1.58l-.35-.78a16.17,16.17,0,0,0,4.54-1.27,7,7,0,0,1-2.54-3.15H53.34Zm2.28.83A6.18,6.18,0,0,0,58.13,121a5.36,5.36,0,0,0,2.32-2.72Zm4.43,5.44h.86v6.64h-.86Z"/><path class="cls-1" d="M67.7,121.59h8.6v.78a32,32,0,0,1-3.69,2v1h6.21v.83H72.61v2.88a1.09,1.09,0,0,1-1.25,1.22h-2l-.23-.82c.77,0,1.4,0,1.91,0a.63.63,0,0,0,.7-.72v-2.6H65.15v-.83h6.61V124A34.62,34.62,0,0,0,75,122.37H67.7Zm10.92-2.47v3.36h-.86V120H66.21v2.52h-.87v-3.36h9.14a18.22,18.22,0,0,0,1.92-3.42l.86.32a16.79,16.79,0,0,1-1.84,3.1Zm-11.29-3.18A20.3,20.3,0,0,1,69,118.5l-.76.37a18.65,18.65,0,0,0-1.72-2.56Zm3.92-.29a22.9,22.9,0,0,1,1.5,2.66l-.77.4A18.13,18.13,0,0,0,70.45,116Z"/><path class="cls-1" d="M83.7,121.59h8.6v.78a32,32,0,0,1-3.69,2v1h6.21v.83H88.61v2.88a1.09,1.09,0,0,1-1.25,1.22h-2l-.23-.82c.77,0,1.4,0,1.91,0a.63.63,0,0,0,.7-.72v-2.6H81.15v-.83h6.61V124A34.62,34.62,0,0,0,91,122.37H83.7Zm10.92-2.47v3.36h-.86V120H82.21v2.52h-.87v-3.36h9.14a18.22,18.22,0,0,0,1.92-3.42l.86.32a16.79,16.79,0,0,1-1.84,3.1Zm-11.29-3.18A20.3,20.3,0,0,1,85,118.5l-.76.37a18.65,18.65,0,0,0-1.72-2.56Zm3.92-.29a22.9,22.9,0,0,1,1.5,2.66l-.77.4A18.13,18.13,0,0,0,86.45,116Z"/><path class="cls-1" d="M96.9,121.06h6.67V115.8h.86v5.26h6.63v.85h-6.63v6.73h6v.87H97.54v-.87h6v-6.73H96.9Z"/><path class="cls-1" d="M115.81,128.56a3,3,0,0,1-1.6,2.77l-.34-.56a2.44,2.44,0,0,0,1.22-2l-.24,0a.85.85,0,0,1-.59-.21.75.75,0,0,1-.23-.58.71.71,0,0,1,.23-.59.74.74,0,0,1,.59-.22Q115.81,127.24,115.81,128.56Z"/><path class="cls-1" d="M135.17,125.76a21.63,21.63,0,0,1,1.85,2.16,9.73,9.73,0,0,0,4.45-3.6h-4.94a18.56,18.56,0,0,1-5.11,1.51l-.51-.77q5.21-.53,7.76-3.23l.74.4a8.81,8.81,0,0,1-1.51,1.29h4.68v.69q-3.37,5.72-12.66,5.91l-.35-.85a20.81,20.81,0,0,0,6.64-1,18.14,18.14,0,0,0-1.81-2.09Zm1.65-9.56a9.24,9.24,0,0,1-1.12,1.08h4.81V118q-2.59,4.61-9.61,5.17l-.37-.8a17.11,17.11,0,0,0,4.08-.72,11.45,11.45,0,0,0-1.68-1.78l.75-.37a16.83,16.83,0,0,1,1.74,1.86,8.6,8.6,0,0,0,4.08-3.27h-4.94a14.1,14.1,0,0,1-4.43,1.68l-.51-.76a11.48,11.48,0,0,0,6.43-3.2Z"/><path class="cls-1" d="M147.92,118.53a9.49,9.49,0,0,1-2.51,2.9l-.59-.74a9.12,9.12,0,0,0,3.32-5l.88.16a12.71,12.71,0,0,1-.67,1.85h10.11v.85h-5.13v2.87h4.57v.81h-4.57v3.73H159v.86h-5.65v3.65h-.85V126.8H145v-.86h2.7V121.4h4.8v-2.87Zm.64,7.41h3.92v-3.73h-3.92Z"/><path class="cls-1" d="M161.09,120.21h3v-2.64c-1.06.16-2,.28-2.67.35l-.18-.83a31.06,31.06,0,0,0,6-1.13l.31.8c-.88.25-1.76.47-2.64.65v2.8h2.7v.85h-2.7v.67c.86.89,1.69,1.82,2.48,2.8l-.5.71c-.76-1.13-1.42-2-2-2.72v7.84h-.85v-7.8a14.52,14.52,0,0,1-2.85,4.52l-.37-1a12.35,12.35,0,0,0,3.15-5.07h-2.89Zm11.55,2.1a57.57,57.57,0,0,1,2.32,7.87l-.85.22-.38-1.66q-3.49.69-6.91,1.17l-.16-.83c.26-.09.42-.2.46-.34l3.62-12.59.86.11L168,128.88q3.31-.48,5.57-1c-.46-1.77-1-3.55-1.66-5.36Z"/><path class="cls-1" d="M179,118.55h1.86v-1.06h-3.94v-.73h3.94v-1h.86v1h4.48v-1h.87v1H191v.73h-3.93v1.06H189v4H183.1a5.6,5.6,0,0,1-.49,1h8.22v.73H187a9.23,9.23,0,0,0,4.33,2.18l-.35.72a9.82,9.82,0,0,1-4.83-2.9h-4.08a11.67,11.67,0,0,1-5,2.9l-.36-.74a12,12,0,0,0,4.32-2.16h-3.91v-.73h4.59a4.31,4.31,0,0,0,.58-1H179Zm9.43,7.76a6.73,6.73,0,0,1-.51,3.29,2.26,2.26,0,0,1-1.91.71l-1.28,0-.21-.77c.59.05,1.08.08,1.46.08.84,0,1.32-.31,1.42-.82a7.39,7.39,0,0,0,.2-1.73h-3.84a5.46,5.46,0,0,1-1,1.52,8.54,8.54,0,0,1-4.16,1.89l-.34-.73A8.65,8.65,0,0,0,182.1,128a4.06,4.06,0,0,0,.76-1h-3.47v-.73h3.83a7.71,7.71,0,0,0,.32-1.38l.8.08a9.3,9.3,0,0,1-.28,1.3Zm-8.59-6h8.3v-1.07h-8.3Zm8.3,1.63v-1h-8.3v1Zm-1.94-4.4h-4.48v1.06h4.48Z"/><path class="cls-1" d="M194.66,125a12.6,12.6,0,0,1-1.36,5.41l-.64-.59a12.48,12.48,0,0,0,1.23-5.73v-7.62h4.49v12.76q0,1.08-1.26,1.08h-1.28l-.19-.76c.45,0,.86,0,1.23,0s.67-.21.67-.64v-4Zm2.89-4.61v-3.12h-2.86v3.12Zm-2.86.82v3h2.86v-3Zm4.65,1.49H206v.81a9.52,9.52,0,0,1-2.26,4,16.34,16.34,0,0,0,3.63,2.08l-.48.75a15.75,15.75,0,0,1-3.73-2.27,12.28,12.28,0,0,1-3.87,2.22l-.46-.74a12,12,0,0,0,3.68-2.08,8.9,8.9,0,0,1-2.35-4h-.84Zm1.09-6.19h4.79v3.56c0,.33.14.5.43.5h1.47v.83h-1.66q-1.11,0-1.11-1.17v-2.89h-3v1.07a4.26,4.26,0,0,1-1.57,3.52l-.59-.67a3.28,3.28,0,0,0,1.29-2.75Zm.55,7A7.86,7.86,0,0,0,203.1,127a8.88,8.88,0,0,0,2.07-3.41Z"/><path class="cls-1" d="M212.43,130.34h-.86v-8.83a17.16,17.16,0,0,1-2.56,5l-.39-1a14.74,14.74,0,0,0,2.93-5.63H209V119h2.61v-3.22h.86V119h2.23v.85h-2.23v1a33,33,0,0,1,2.51,2.76l-.51.75c-.76-1-1.42-1.91-2-2.59Zm3.36-12.62h-.69v-.85h7.11v.83a20.19,20.19,0,0,1-2.82,7.89,17.19,17.19,0,0,0,4,4l-.58.69a19.51,19.51,0,0,1-3.88-4,15.26,15.26,0,0,1-4.26,4l-.56-.68a16.17,16.17,0,0,0,4.29-4.1A16.62,16.62,0,0,1,215.79,117.72Zm.83,0a15.47,15.47,0,0,0,2.24,7.08,18.17,18.17,0,0,0,2.5-7.08Z"/><path class="cls-1" d="M226.74,126.71a11.89,11.89,0,0,1,1.77,1.55,14.2,14.2,0,0,1,1.35,1.6l-.63.53a15.12,15.12,0,0,0-1.33-1.59,13.39,13.39,0,0,0-1.72-1.56Z"/><path class="cls-1" d="M241.2,130.21l-.19-.83c.57,0,1,.06,1.23.06.49,0,.74-.26.74-.8v-4.2c-.75.31-1.47.57-2.15.8l-.22-.87a20.6,20.6,0,0,0,2.37-.81v-3.88h-2v-.84h2v-3h.86v3h1.94v.84h-1.94v3.51c.64-.32,1.26-.66,1.87-1V123c-.66.39-1.28.72-1.87,1v4.83a1.17,1.17,0,0,1-1.3,1.34Zm5.17-7.47h7.52v.82a9.63,9.63,0,0,1-2.59,4,16.59,16.59,0,0,0,4.11,2.11l-.47.74a17.55,17.55,0,0,1-4.25-2.32,14.5,14.5,0,0,1-4.67,2.34l-.47-.72a14.45,14.45,0,0,0,4.45-2.2,8.62,8.62,0,0,1-2.59-3.92h-1Zm1.34-6.22h5.09v3.53c0,.41.22.61.67.61h1.44v.82H253.3c-.9,0-1.35-.43-1.35-1.28v-2.85h-3.37v1.07a3.79,3.79,0,0,1-2.2,3.44l-.59-.67a2.92,2.92,0,0,0,1.92-2.67Zm.5,7.08a7.8,7.8,0,0,0,2.4,3.43A9.23,9.23,0,0,0,253,123.6Z"/><path class="cls-1" d="M260.67,119.8a14.82,14.82,0,0,1-3,2.38l-.58-.66a13.88,13.88,0,0,0,3-2.32Zm3.84,4.78q-.33,3.06-1.47,4.11c-.83.89-2.65,1.44-5.46,1.67l-.35-.79q3.84-.23,5.09-1.39a5.69,5.69,0,0,0,1.31-3.68Zm-6.69-8.35a14.32,14.32,0,0,1,2.64,1.1l-.46.72a11.4,11.4,0,0,0-2.62-1.17Zm11.2,6.7v4.75h-.88v-3.93h-8.38v4h-.88v-4.85Zm-5-7.07a9.86,9.86,0,0,1-.46,1.12h6.57v.54a12.52,12.52,0,0,1-.8,2.32l-.83-.24a8.59,8.59,0,0,0,.74-1.84h-3a7.18,7.18,0,0,1-.32,1.17c.87,1.34,2.55,2.24,5,2.72l-.3.75q-3.62-.72-5.06-2.73a5.22,5.22,0,0,1-.77,1,8.2,8.2,0,0,1-3.82,1.73l-.34-.78a7.77,7.77,0,0,0,3.51-1.47,4.23,4.23,0,0,0,1.26-2.36h-2.33a7.31,7.31,0,0,1-1.6,1.64l-.53-.69a5.87,5.87,0,0,0,2.22-2.95Zm.93,11.82a32.21,32.21,0,0,1,5.68,2l-.47.72a30.9,30.9,0,0,0-5.66-2.11Z"/><path class="cls-1" d="M275.68,116c-.13.51-.29,1.08-.48,1.72h3.25v.81h-3.54a17.82,17.82,0,0,1-1.52,3.15l-.72-.46a18.09,18.09,0,0,0,2.18-5.39Zm-1.39,4.8h3.79v.8H276.3V124h2.31v.81H276.3v4.15a10.56,10.56,0,0,0,1.94-.87l.16.77a14.55,14.55,0,0,1-3,1.17l-.33-.74c.27-.08.41-.21.41-.37v-4.11h-2.41V124h2.41V121.6h-1.18Zm12.77,3.86a7.68,7.68,0,0,1-2.61,2,9.28,9.28,0,0,0,2.81,2.84l-.44.74a10.53,10.53,0,0,1-4.52-7.2h-2v6.05a19.7,19.7,0,0,0,3-1l.19.78a30.82,30.82,0,0,1-4.16,1.31l-.19-.73c.22-.07.32-.17.32-.31V116.5H286v6.56h-2.94a10.37,10.37,0,0,0,1,2.94,7.37,7.37,0,0,0,2.42-1.9Zm-1.83-5.25V117.3h-4.94v2.11Zm-4.94.77v2.1h4.94v-2.1Z"/><path class="cls-1" d="M293.25,116.32A12.62,12.62,0,0,1,289,121l-.27-.86a11.19,11.19,0,0,0,3.77-4.19ZM294,120a13,13,0,0,1-1.84,2.69v7.74h-.85v-6.86a23.36,23.36,0,0,1-2.27,1.81l-.27-.87a13.33,13.33,0,0,0,4.46-4.88Zm.37,1.07h8.75v.85h-2.66v7a1.3,1.3,0,0,1-1.48,1.47h-2.32l-.2-.83c1,0,1.76.07,2.21.07a.81.81,0,0,0,.91-.92v-6.75h-5.21Zm.46-4.11h7.55v.85h-7.55Z"/><path class="cls-1" d="M311.62,117.83h-5.7V117h12.27v.83h-5.71v10.89h6.4v.87H305.09v-.87h6.53Z"/><path class="cls-1" d="M322.77,121a25.51,25.51,0,0,1-1.89,2.21l-.27-.92a17.85,17.85,0,0,0,3.87-6.52l.8.36a18.23,18.23,0,0,1-1.65,3.57V130.4h-.86Zm4.81-2a18.06,18.06,0,0,1-2.59,4.11l-.61-.72a19.25,19.25,0,0,0,3.56-6.68l.86.2c-.2.63-.48,1.38-.83,2.24h7.17V119h-5.59v2.91h4.85v.87h-4.85v3h5v.85h-5v3.8h-.86V119Z"/><path class="cls-1" d="M342,127.84a23,23,0,0,1-5.07,1.86l-.12-.85A22.54,22.54,0,0,0,342,127Zm-1.54-11.68a25.44,25.44,0,0,1-2.54,5q1.26-.14,2.61-.33c.42-.82.75-1.43,1-1.83l.8.29a34.85,34.85,0,0,1-3.92,6,25.45,25.45,0,0,0,3.65-1v.8a26.88,26.88,0,0,1-4.7,1.12l-.24-.8a1.77,1.77,0,0,0,.41-.26,18.46,18.46,0,0,0,2.56-3.6c-.56.09-1.55.22-3,.4l-.21-.8a1.07,1.07,0,0,0,.37-.3,24,24,0,0,0,2.37-5.11Zm2.16,7.08-.56-.71c3.1-1.18,5.23-2.87,6.42-5.07H342.8v-.85h6.7v.69a9.75,9.75,0,0,1-1.85,2.7,25.45,25.45,0,0,1,3.58,2.72l-.61.63a23.2,23.2,0,0,0-3.53-2.8A14.54,14.54,0,0,1,342.59,123.24Zm3.59,1.84H342.9v-.84h7.45v.84H347V129h4v.86h-8.93V129h4Z"/><path class="cls-1" d="M356.16,126.45a19.76,19.76,0,0,1-3.57,1l-.11-.83a18.29,18.29,0,0,0,3.68-.94Zm.72-9h-3.95v-.8h4.81L357,123.2h1.06q0,5.33-.45,6.16a2,2,0,0,1-1.92.82l-1.14,0-.24-.77c.64.05,1,.08,1.2.08.8,0,1.29-.27,1.48-.8a23.82,23.82,0,0,0,.25-4.66h-4.09l.75-5.37.8.05L354,123.2h2.13Zm6.26-1.52a13.19,13.19,0,0,0,4.27,5.49l-.48.72a13.41,13.41,0,0,1-4.19-5.36,14.31,14.31,0,0,1-4.16,5.39l-.45-.69a14.24,14.24,0,0,0,4.21-5.55ZM358.58,129h5.24a41.88,41.88,0,0,0,1.72-6.51l.83.22a41.85,41.85,0,0,1-1.71,6.29h2.59v.83h-8.67Zm1.28-6a36.87,36.87,0,0,1,1.42,4.62l-.75.19a36,36,0,0,0-1.43-4.56Zm.7-2.42H365v.8h-4.43Zm1.76,2a35.09,35.09,0,0,1,1.22,4.4l-.76.2a36.47,36.47,0,0,0-1.21-4.34Z"/><path class="cls-1" d="M52.66,143.8a15.19,15.19,0,0,1-3,2.38l-.58-.66a13.88,13.88,0,0,0,3-2.32Zm3.84,4.78c-.23,2-.72,3.41-1.48,4.11-.83.89-2.65,1.44-5.45,1.67l-.35-.79q3.84-.23,5.08-1.39a5.69,5.69,0,0,0,1.32-3.68Zm-6.69-8.35a14.32,14.32,0,0,1,2.64,1.1l-.47.72a11.21,11.21,0,0,0-2.62-1.17Zm11.2,6.7v4.75h-.88v-3.93H51.74v4h-.88v-4.85Zm-5-7.07a8.31,8.31,0,0,1-.46,1.12H62.1v.54a13.3,13.3,0,0,1-.8,2.32l-.84-.24a8.1,8.1,0,0,0,.74-1.84h-3a6.3,6.3,0,0,1-.32,1.17c.88,1.34,2.55,2.24,5,2.72l-.31.75q-3.62-.72-5.05-2.73a6.2,6.2,0,0,1-.77,1,8.29,8.29,0,0,1-3.83,1.73l-.33-.78a7.72,7.72,0,0,0,3.5-1.47,4.3,4.3,0,0,0,1.27-2.36H55a7.31,7.31,0,0,1-1.6,1.64l-.53-.69a6,6,0,0,0,2.23-3Zm.93,11.82a32.21,32.21,0,0,1,5.68,2l-.46.72a31,31,0,0,0-5.67-2.11Z"/><path class="cls-1" d="M65.55,143.8a20.1,20.1,0,0,1,2.91,2.54l-.6.61a18.93,18.93,0,0,0-2.93-2.56Zm3.28,4.75a52,52,0,0,1-2.72,5.69l-.85-.36a47.12,47.12,0,0,0,2.8-5.65ZM65.94,140A22,22,0,0,1,69,142.56l-.62.63a20.76,20.76,0,0,0-3.09-2.55Zm3.76,8.32v-.84h4v-1.93h.86v1.93h4.13v.84H75.47a11.13,11.13,0,0,0,3.76,4.25l-.56.71a12.24,12.24,0,0,1-3.9-5h-.26v6h-.86v-6h-.26a11,11,0,0,1-4.21,5.1l-.44-.75a9.86,9.86,0,0,0,4-4.35Zm8.75-7.86v2.85h-.83v-2h-7v2.06h-.84V140.5Zm-5.14,2.32a8.16,8.16,0,0,1-2.91,3.36l-.62-.54a7.56,7.56,0,0,0,2.8-3.11Zm2-.37a21.66,21.66,0,0,1,2.75,3.19l-.69.48a22.51,22.51,0,0,0-2.7-3.27Z"/><path class="cls-1" d="M83.86,147.24l.83.09-.39,1h3.43v.74a6.84,6.84,0,0,1-1.92,2.88,24.12,24.12,0,0,1,2.4,1.18l-.48.69a26.34,26.34,0,0,0-2.61-1.31,12.91,12.91,0,0,1-4,1.86l-.43-.74a12.5,12.5,0,0,0,3.57-1.52c-.68-.3-1.46-.61-2.32-.93a23.35,23.35,0,0,0,1.15-2.06H81v-.79h2.4ZM81.09,143h3.17v-3.12h.81V143h3v.78h-3v.19a30.86,30.86,0,0,1,2.75,1.7l-.46.69c-.87-.72-1.64-1.29-2.29-1.73v2.3h-.81v-3.15h-.05a7.28,7.28,0,0,1-3,3.36l-.45-.72a6.45,6.45,0,0,0,2.75-2.64H81.09Zm1-2.75a10.23,10.23,0,0,1,1,2l-.68.3a15.43,15.43,0,0,0-1.09-2.06Zm4.76,8.91H84a14.89,14.89,0,0,1-1,1.71,19.61,19.61,0,0,1,2,.77A7.05,7.05,0,0,0,86.9,149.11Zm1-8.72a10.66,10.66,0,0,1-1.25,2.13l-.66-.34a11.63,11.63,0,0,0,1.19-2.13Zm1.84,5.1a15.12,15.12,0,0,1-1.06,2.29l-.54-.67a20.8,20.8,0,0,0,2-7.36l.87.16q-.17,1.25-.39,2.43h4.35v.85H93.81a17.27,17.27,0,0,1-1.46,7,10.15,10.15,0,0,0,3.06,3.42l-.5.74a10.77,10.77,0,0,1-3-3.36,10.87,10.87,0,0,1-3.06,3.39l-.48-.74a9.93,9.93,0,0,0,3.06-3.5A21.68,21.68,0,0,1,89.73,145.49Zm.67-2.3c-.11.42-.19.74-.26.94a22.6,22.6,0,0,0,1.72,5.14A17,17,0,0,0,93,143.19Z"/><path class="cls-1" d="M99.7,144.32h8.49v.8a32.78,32.78,0,0,1-3.6,2.2v1.31H111v.83h-6.42v3.68a1.07,1.07,0,0,1-1.23,1.2h-2l-.23-.82c.77,0,1.4,0,1.88,0a.62.62,0,0,0,.68-.71v-3.39h-6.8v-.83h6.8v-1.7a31.84,31.84,0,0,0,3.17-1.81H99.7Zm11-2.78V145h-.88v-2.59H98.13V145h-.88v-3.42h6.43a8.66,8.66,0,0,0-.72-1.68l1-.16a16.56,16.56,0,0,1,.7,1.84Z"/><path class="cls-1" d="M115.55,139.84q-.24,1.89-.45,3.12h2.6v.52a19.24,19.24,0,0,1-1.43,6.62c.75.7,1.34,1.3,1.76,1.78l-.57.67a22.6,22.6,0,0,0-1.56-1.65,11.73,11.73,0,0,1-2.68,3.5l-.56-.67a11.4,11.4,0,0,0,2.64-3.41c-.84-.76-1.56-1.41-2.18-1.93.38-1.47.71-3,1-4.61h-1.36V143h1.51c.2-1.32.35-2.39.44-3.21Zm1.33,3.94H115a38.92,38.92,0,0,1-1,4.37c.6.49,1.15.95,1.63,1.39A17.82,17.82,0,0,0,116.88,143.78Zm3.63-2.42h4.08v-1.52h.82v1.52h1.44v.8h-1.44v4.9H123v1.62h4.2v.8H123.9a9.39,9.39,0,0,0,3.48,3.48l-.6.72a10.38,10.38,0,0,1-3.5-4.2H123v4.84h-.87v-4.84h-.22a9.32,9.32,0,0,1-3.75,4.22l-.48-.77a8.45,8.45,0,0,0,3.57-3.45h-3.31v-.8h4.19v-1.62h-2.45v-4.9h-1.48v-.8h1.48v-1.52h.85Zm0,2.5h4.08v-1.7h-4.08Zm4.08,2.45v-1.68h-4.08v1.68Z"/><path class="cls-1" d="M130.69,145.38a22.52,22.52,0,0,1-1.79,2.35l-.28-.85a19.89,19.89,0,0,0,3.73-7.13l.79.37a22.22,22.22,0,0,1-1.6,3.84v10.46h-.85Zm2.24-2.7h4.4v-2.9h.85v2.9h4.48v.83h-3.52a17.63,17.63,0,0,0,4.14,7.37l-.56.69a19.91,19.91,0,0,1-4.24-8.06h-.3v6.67h2.65V151h-2.65v3.39h-.85V151h-2.61v-.83h2.61v-6.67H137a18,18,0,0,1-4.3,8.21l-.45-.74a16.19,16.19,0,0,0,4.11-7.47h-3.47Z"/><path class="cls-1" d="M145.18,154.21l-.19-.83q.87.06,1.23.06c.49,0,.74-.26.74-.8v-4.2c-.75.31-1.46.57-2.14.8l-.23-.87a20.6,20.6,0,0,0,2.37-.81v-3.88h-2.05v-.84H147v-3h.86v3h1.94v.84h-1.94v3.51c.64-.32,1.27-.66,1.88-1V147c-.67.39-1.29.72-1.88,1v4.83c0,.89-.43,1.34-1.29,1.34Zm5.17-7.47h7.52v.82a9.54,9.54,0,0,1-2.59,4,16.77,16.77,0,0,0,4.11,2.11l-.46.74a17.44,17.44,0,0,1-4.26-2.32,14.39,14.39,0,0,1-4.67,2.34l-.46-.72a14.39,14.39,0,0,0,4.44-2.2,8.62,8.62,0,0,1-2.59-3.92h-1Zm1.35-6.22h5.08v3.53c0,.41.23.61.68.61h1.44v.82h-1.62c-.9,0-1.34-.43-1.34-1.28v-2.85h-3.38v1.07a3.8,3.8,0,0,1-2.19,3.44l-.59-.67a2.92,2.92,0,0,0,1.92-2.67Zm.49,7.08a7.8,7.8,0,0,0,2.4,3.43A9.26,9.26,0,0,0,157,147.6Z"/><path class="cls-1" d="M164.66,143.8a15.19,15.19,0,0,1-3,2.38l-.58-.66a13.88,13.88,0,0,0,3-2.32Zm3.84,4.78c-.23,2-.72,3.41-1.48,4.11-.83.89-2.65,1.44-5.45,1.67l-.35-.79q3.84-.23,5.08-1.39a5.69,5.69,0,0,0,1.32-3.68Zm-6.69-8.35a14.32,14.32,0,0,1,2.64,1.1l-.47.72a11.21,11.21,0,0,0-2.62-1.17Zm11.2,6.7v4.75h-.88v-3.93h-8.39v4h-.88v-4.85Zm-5-7.07a8.31,8.31,0,0,1-.46,1.12h6.58v.54a13.3,13.3,0,0,1-.8,2.32l-.84-.24a8.1,8.1,0,0,0,.74-1.84h-3a6.3,6.3,0,0,1-.32,1.17c.88,1.34,2.55,2.24,5,2.72l-.31.75q-3.61-.72-5.05-2.73a6.2,6.2,0,0,1-.77,1,8.29,8.29,0,0,1-3.83,1.73l-.33-.78a7.72,7.72,0,0,0,3.5-1.47,4.3,4.3,0,0,0,1.27-2.36H167a7.31,7.31,0,0,1-1.6,1.64l-.53-.69a6,6,0,0,0,2.23-3Zm.93,11.82a32.21,32.21,0,0,1,5.68,2l-.46.72a31,31,0,0,0-5.67-2.11Z"/><path class="cls-1" d="M184.42,139.83c0,1.19,0,2.36-.12,3.5a15,15,0,0,0,7,10.18l-.58.73a15.45,15.45,0,0,1-6.75-9,14.87,14.87,0,0,1-6.88,9l-.53-.77q6.69-4.17,6.93-11.07l0-2.59Z"/><path class="cls-1" d="M195.79,152.56a2.93,2.93,0,0,1-1.6,2.77l-.33-.56a2.45,2.45,0,0,0,1.21-2l-.24,0a.87.87,0,0,1-.59-.21.75.75,0,0,1-.22-.58.7.7,0,0,1,.22-.59.77.77,0,0,1,.59-.22Q195.79,151.24,195.79,152.56Z"/><path class="cls-1" d="M209.31,154.21l-.19-.8c.38,0,.75.05,1.09.05s.57-.22.57-.67v-4.24c-.57.25-1.15.49-1.72.72l-.21-.83a15.52,15.52,0,0,0,1.93-.74v-4H209v-.84h1.74v-3h.85v3h1.55v.84h-1.55v3.6a12.67,12.67,0,0,0,1.63-1v.85c-.54.35-1.08.67-1.63,1V153c0,.81-.37,1.21-1.12,1.21Zm3.52-.93h10.42V154H212.83Zm5.2-13.6a9.62,9.62,0,0,1,.59,1.2H223v.74H213.3v-.74h4.46a7.77,7.77,0,0,0-.61-1Zm-3.69,2.92H222v4.81h-7.66Zm.41,5.8h6.9v3.94h-6.9Zm6.45-1.6v-3.58h-6v3.58Zm-5.66,3.3h5.31V149h-5.31Zm5.31,1.63v-1h-5.31v1Zm-4.4-7.68h3.47v2h-3.47Zm2.78,1.47v-1h-2.08v1Z"/><path class="cls-1" d="M225,146.1h3.33v-6.22h.88v6.22H239V147h-5.36c.67,2.75,2.52,4.86,5.55,6.36l-.49.81a10.84,10.84,0,0,1-5.91-7.17H229.2v6.18c1.18-.3,2.45-.69,3.79-1.17l.21.82c-1.52.53-3.16,1-4.93,1.45l-.27-.81a.49.49,0,0,0,.32-.45v-6H225Zm12.32-5.46a16.78,16.78,0,0,1-5.79,3.91l-.53-.71a16.52,16.52,0,0,0,5.75-3.8Z"/><path class="cls-1" d="M254.32,140.6v13.8h-.83v-.8h-11v.8h-.83V140.6Zm-11.87,12.2h11V141.4h-11Zm1.42-8.38h5.47v-2.06h.82v2.06h2.1v.78h-2.1v5.06c0,.87-.41,1.31-1.23,1.31h-1.81l-.18-.8c.77,0,1.34.07,1.7.07s.7-.27.7-.79V145.2h0a13.71,13.71,0,0,1-5.27,5.28l-.46-.75a12.74,12.74,0,0,0,5-4.53h-4.72Z"/><path class="cls-1" d="M257.47,140.56h4.66v.71q-.78,2.26-1.83,4.64a7.12,7.12,0,0,1,1.75,3.81,1.9,1.9,0,0,1-.5,1.4,3.87,3.87,0,0,1-2.29.53l-.28-.88a3.26,3.26,0,0,0,.48,0,3,3,0,0,0,1.39-.29.94.94,0,0,0,.35-.81,5.93,5.93,0,0,0-1.76-3.68,38.83,38.83,0,0,0,1.82-4.64h-2.92v13h-.87Zm9.19-.65c0,1.56-.07,3-.2,4.29a18.69,18.69,0,0,0,4.88,9.32l-.62.72a19.53,19.53,0,0,1-4.53-8c-.09.57-.18,1-.25,1.33a11.73,11.73,0,0,1-4.31,6.76l-.56-.7a11.21,11.21,0,0,0,4-6,32.74,32.74,0,0,0,.77-7.74Z"/><path class="cls-1" d="M274.72,150.71a12.43,12.43,0,0,1,1.78,1.55,14,14,0,0,1,1.34,1.6l-.62.53a18.06,18.06,0,0,0-1.33-1.59,13.4,13.4,0,0,0-1.73-1.56Z"/><path class="cls-1" d="M290.91,142.32h-2v-.86h4.86v.86h-2v7.6c.9-.32,1.61-.58,2.12-.78V150a42.6,42.6,0,0,1-4.94,1.64l-.22-.85c.84-.22,1.56-.41,2.17-.59Zm7.38,3.09h.86v2.71a6.33,6.33,0,0,1-1.34,4.09,8.41,8.41,0,0,1-4.13,2.24l-.5-.73a8.43,8.43,0,0,0,4-2.07,5.74,5.74,0,0,0,1.11-3.53Zm-3.86-4.83h8.8v.86h-3.92a14.35,14.35,0,0,1-.4,2h3.46v7.37h-.87v-6.54h-5.39v6.54h-.85V143.4h2.8a15,15,0,0,0,.4-2h-4ZM300,150.9a24.16,24.16,0,0,1,3.44,3l-.61.61a24.22,24.22,0,0,0-3.4-3.06Z"/><path class="cls-1" d="M317.39,140.74v13.65h-.85v-1.12h-9.15v1.12h-.85V140.74Zm-10,3.89h9.15v-3h-9.15Zm0,3.9h9.15v-3.09h-9.15Zm0,3.89h9.15v-3.07h-9.15Z"/><path class="cls-1" d="M323,141.81a11.66,11.66,0,0,1-1.38,1.79l-.74-.46a9.67,9.67,0,0,0,2.2-3.42l.84.17c-.21.51-.37.89-.49,1.14h4.49v.78H325a10.72,10.72,0,0,1,1,1.55l-.78.31a15.24,15.24,0,0,0-1.12-1.86Zm11.69,2.45V147h-.85v-2H322.11v2h-.85v-2.75h6.47c-.18-.41-.38-.79-.58-1.17l.85-.16a11.45,11.45,0,0,1,.58,1.33Zm-2.19,1.87v3h-8.14v1.3h8.88v4h-.87v-.72h-8v.7h-.87v-8.24Zm-8.14,2.27h7.29v-1.53h-7.29Zm0,4.48h8v-1.74h-8Zm5.55-11.07a8.89,8.89,0,0,1-1,1.59l-.73-.48a9.26,9.26,0,0,0,1.73-3.19l.81.18c-.13.37-.26.74-.41,1.12H335v.78h-3a9.93,9.93,0,0,1,.91,1.43l-.79.27a11.22,11.22,0,0,0-1.07-1.7Z"/><path class="cls-1" d="M337.06,145.83h1.82v-4.07h-2.06v-.83h5v.83h-2.05v4.07h1.86v.83h-1.86v3.92c.7-.25,1.39-.52,2.08-.82v.84a30.77,30.77,0,0,1-5,1.68l-.21-.82c.7-.14,1.46-.34,2.29-.59v-4.21h-1.82Zm5.79-5.33h7.53v7.22h-3.32v2.19h3.64v.83h-3.64V153h4.16v.85H342V153h4.16v-2.3h-3.68v-.83h3.68v-2.19h-3.34Zm.85,3.22h2.49v-2.44H343.7Zm2.49,3.21v-2.45H343.7v2.45Zm.87-5.65v2.44h2.48v-2.44Zm2.48,5.65v-2.45h-2.48v2.45Z"/><path class="cls-1" d="M39.7,169.84h5.18V167H39v-.87h5.92v-2.3h.86v2.3h6.07V167H45.74v2.84h5.33v.87H45.74v2.83h6.45v.85H45.74v4h-.86v-4h-6.4v-.85h6.4v-2.83H39.7Z"/><path class="cls-1" d="M68,165.14V168h-.83v-2.12H55.47V168h-.83v-2.9H61a10.19,10.19,0,0,0-.63-1.28l.9-.16a12.21,12.21,0,0,1,.61,1.44Zm-1,7.73v5.53h-.83v-.62h-9.6v.64H55.7v-5.55Zm-10.54-5.73h9.77v.72H56.42Zm.11,7.81h4.35v-1.38H56.53Zm0,2.11h4.35v-1.44H56.53Zm.56-8.14h8.45v2.92H57.09Zm7.63,2.27v-1.6H57.9v1.6Zm-3,2.38V175h4.39v-1.38Zm0,3.49h4.39v-1.44H61.74Z"/><path class="cls-1" d="M75.65,166.66v10.75h-.83v-1H71.58v1.42h-.83v-11.2h1.44a14.79,14.79,0,0,0,.72-2.86l.88.11a13.08,13.08,0,0,1-.77,2.75Zm-4.07,4.4h3.24v-3.57H71.58Zm0,4.58h3.24v-3.8H71.58Zm12.36-9q0,7.69-.23,9.58a2,2,0,0,1-2.22,1.92l-1.57,0-.21-.8c.64,0,1.2.05,1.68.05.87,0,1.36-.48,1.49-1.43s.19-3.68.22-8.43H78.38a12.82,12.82,0,0,1-1.61,2.8l-.51-.67a14.28,14.28,0,0,0,2.35-5.89l.85.1a21.32,21.32,0,0,1-.74,2.8Zm-5.57,3.6a27,27,0,0,1,2.78,3.52l-.69.49a25.51,25.51,0,0,0-2.8-3.57Z"/><path class="cls-1" d="M87.33,164.48H99.92v.84H88.18v11.56h12.19v.84h-13Zm3.09,2.61q2.14,1.6,4.24,3.47a18.69,18.69,0,0,0,2.51-4.24l.78.42a18.82,18.82,0,0,1-2.64,4.42,46.76,46.76,0,0,1,3.59,3.6l-.66.65a42.79,42.79,0,0,0-3.49-3.6,14.24,14.24,0,0,1-5,3.6l-.49-.78a13.67,13.67,0,0,0,4.85-3.41q-2.14-1.89-4.31-3.54Z"/><path class="cls-1" d="M102.13,168.15h2v-4.24H105v4.24h1.87V169H105v5.65c.87-.33,1.63-.65,2.26-.94v.86a28.33,28.33,0,0,1-5.11,1.86l-.22-.88c.82-.2,1.56-.39,2.21-.6v-6h-2Zm5.47-1.81h3v-2.53h.85v2.53H115V171h1.49v.85h-4.72a12.44,12.44,0,0,0,4.85,5.82l-.58.67a13.47,13.47,0,0,1-4.91-6.11,9,9,0,0,1-4.29,6.18l-.53-.71a8.07,8.07,0,0,0,4.07-5.85h-3.4V171h3.54a15.7,15.7,0,0,0,.14-2.21v-1.61h-3Zm3.87.82v1.44a18.18,18.18,0,0,1-.16,2.38h2.79v-3.82Z"/><path class="cls-1" d="M120.62,164c-.16.75-.29,1.32-.41,1.71h2.61v.83H120a18.53,18.53,0,0,1-1.3,3.09l-.67-.43a20.27,20.27,0,0,0,1.81-5.38Zm-1.29,4.88h3.17v.78h-1.4V172H123v.82H121.1v4.11a9.29,9.29,0,0,0,1.56-1l.16.78a10.14,10.14,0,0,1-2.56,1.33l-.34-.72a.51.51,0,0,0,.34-.48v-4h-1.88V172h1.88v-2.29h-.93Zm13.28,8.38-.23.85h-2.2l-1.46,0a6.44,6.44,0,0,1-1.92-.3,3.23,3.23,0,0,1-1.41-1,.82.82,0,0,0-.53-.35c-.29,0-.82.62-1.58,1.85l-.51-.64a5.43,5.43,0,0,1,1.74-2v-5.67H123.1v-.8h2.21v6.5a1.54,1.54,0,0,1,.31.27,3.07,3.07,0,0,0,1.23,1,6.08,6.08,0,0,0,1.58.3c.81,0,1.42,0,1.81,0C130.82,177.32,131.61,177.31,132.61,177.28Zm-8.79-13.1a20.59,20.59,0,0,1,1.76,2.5l-.65.46a19.11,19.11,0,0,0-1.76-2.54Zm2.36,8.77h3.08v-2.24h-2.73l-.15-.75a17.89,17.89,0,0,0,1.59-3.49h-1.71v-.79h2c.22-.75.39-1.38.52-1.88l.78.17-.48,1.71h3.2v.79H128.8a22.12,22.12,0,0,1-1.52,3.47h2V167.7h.8v2.24h2v.77h-2V173h2.47v.78h-2.47v2.85h-.8v-2.85h-3.08Z"/><path class="cls-1" d="M135.74,174.48a9.73,9.73,0,0,1-1.12,4l-.57-.55a10.28,10.28,0,0,0,1-4.65v-5.24l-.37.42-.53-.64a12.06,12.06,0,0,0,2.39-4.14l.8.19c-.17.47-.32.85-.45,1.15h3v.62a14.1,14.1,0,0,1-1.18,2h2v9.52c0,.73-.35,1.09-1,1.09h-1l-.19-.73,1,0c.36,0,.54-.22.54-.64v-2.47h-1.73v3.73h-.73v-3.73Zm2-6.8a13.76,13.76,0,0,0,1.17-1.87h-2.4a14.32,14.32,0,0,1-1.17,1.87Zm-1.93,3.75v2.06l0,.24h1.7v-2.3Zm1.68-3h-1.68v2.21h1.68Zm2.46,2.21v-2.21h-1.73v2.21Zm0,3.07v-2.3h-1.73v2.3Zm2.8-1.5a6.31,6.31,0,0,1-1,1.55l-.51-.62a6.48,6.48,0,0,0,1.44-3.16l.73.15a10.77,10.77,0,0,1-.33,1.28h1.72v-1.55h.85v1.55h2.53v.8h-2.53v2.19h2.87v.82h-2.87v3.2h-.85v-3.2h-3.53v-.82h3.53v-2.19Zm-1.37-6.61v-.77h6.52a10.08,10.08,0,0,1-.41,3.75,1.51,1.51,0,0,1-1.38.62l-1.34,0-.21-.75,1.36.06q.74,0,.93-.48a10,10,0,0,0,.22-2.4h-2.62a7.38,7.38,0,0,1-.72,2,6.14,6.14,0,0,1-1.83,1.79l-.51-.66a4.58,4.58,0,0,0,1.68-1.61,4.9,4.9,0,0,0,.56-1.57Z"/><path class="cls-1" d="M153.71,171.32A62.23,62.23,0,0,1,151,178l-.82-.36a59.42,59.42,0,0,0,2.78-6.59Zm-2.73-6.9a28.66,28.66,0,0,1,2.56,3.6l-.72.51a26.91,26.91,0,0,0-2.56-3.68Zm4.11,1.87h3.31v-2.48h.85v2.48h3.69V171h1.49v.83H159.5a12.66,12.66,0,0,0,5.16,5.84l-.56.64a13.54,13.54,0,0,1-5.27-6.24,9.31,9.31,0,0,1-5.05,6.32l-.53-.68a8.46,8.46,0,0,0,4.77-5.88h-3.6V171h3.77a17.44,17.44,0,0,0,.21-2.41v-1.49h-3.31Zm4.16.82v1.29a18,18,0,0,1-.19,2.61h3v-3.9Z"/><path class="cls-1" d="M166.45,166.24h7a10.22,10.22,0,0,0-1.21-2.17l.83-.31a13,13,0,0,1,1.26,2.48h6v.85h-8.5l-.18,3.14h6.68a43.67,43.67,0,0,1-.31,5.82,2.34,2.34,0,0,1-2.3,2.23c-.51,0-1.13,0-1.86-.05l-.25-.8,2,.06q1.4-.06,1.68-2a42.5,42.5,0,0,0,.15-4.48h-5.89a11.55,11.55,0,0,1-1.15,3.65,14.57,14.57,0,0,1-3.28,3.71l-.64-.61a13.15,13.15,0,0,0,3.44-4,12.4,12.4,0,0,0,.94-4.18c.05-1.15.09-2,.1-2.51h-4.53Z"/><path class="cls-1" d="M182.5,173.41h6.41v-1.33h.87v1.33h6.36v.77h-5.52a12.08,12.08,0,0,0,5.7,2.91l-.37.75c-2.92-.92-5-2.15-6.13-3.66h0v4.21h-.87v-4.21h-.06q-1.53,2.17-6,3.78l-.47-.77q4.26-1.32,5.71-3H182.5Zm5.76-7.09.8.26c-.37.51-.67.92-.92,1.23h7.52v.72h-2.73a8.59,8.59,0,0,1-2,2c1.52.39,3,.85,4.53,1.36l-.5.67c-1.6-.59-3.23-1.1-4.91-1.54a15.89,15.89,0,0,1-6.67,1.27l-.48-.71a17.51,17.51,0,0,0,6-.84c-1.09-.29-2.25-.55-3.5-.79.55-.64,1-1.12,1.21-1.44H183v-.72h4.19Zm7.42-1.18v2.13h-.83v-1.38H183.78v1.39h-.84v-2.14H189a8.93,8.93,0,0,0-.75-1.22l.86-.12a8,8,0,0,1,.72,1.34ZM192,168.53h-4.42c-.27.34-.57.7-.89,1.06,1.18.21,2.25.45,3.21.7A7.32,7.32,0,0,0,192,168.53Z"/><path class="cls-1" d="M202.22,165.46h-2.88v-.86h9.33v.56c-.26,1.35-.56,2.61-.88,3.77H211v.53a10.29,10.29,0,0,1-3.14,5.6,21.82,21.82,0,0,0,4.48,2.61l-.57.75a20.65,20.65,0,0,1-4.58-2.77,17.51,17.51,0,0,1-5.29,2.82l-.5-.8a18.16,18.16,0,0,0,5.1-2.61,13,13,0,0,1-3.61-5.33q-.69,5.72-4.19,8.61l-.68-.58q4.08-3.34,4.16-10.68Zm7.91,4.29H206.7a37.07,37.07,0,0,0,1-4.29h-4.64v1.9l0,.31a12.11,12.11,0,0,0,4.15,6.83A9.63,9.63,0,0,0,210.13,169.75Z"/><path class="cls-1" d="M215.33,164.48h12.59v.84H216.18v11.56h12.19v.84h-13Zm3.09,2.61q2.15,1.6,4.24,3.47a18.69,18.69,0,0,0,2.51-4.24l.78.42a18.82,18.82,0,0,1-2.64,4.42,46.76,46.76,0,0,1,3.59,3.6l-.66.65a42.79,42.79,0,0,0-3.49-3.6,14.24,14.24,0,0,1-5,3.6l-.49-.78a13.67,13.67,0,0,0,4.85-3.41q-2.15-1.89-4.31-3.54Z"/><path class="cls-1" d="M230.13,168.15h2v-4.24H233v4.24h1.87V169H233v5.65c.87-.33,1.63-.65,2.26-.94v.86a28.33,28.33,0,0,1-5.11,1.86l-.22-.88c.82-.2,1.56-.39,2.21-.6v-6h-2Zm5.47-1.81h3v-2.53h.85v2.53H243V171h1.49v.85h-4.72a12.44,12.44,0,0,0,4.85,5.82l-.58.67a13.47,13.47,0,0,1-4.91-6.11,9,9,0,0,1-4.29,6.18l-.53-.71a8.07,8.07,0,0,0,4.07-5.85h-3.4V171h3.54a15.7,15.7,0,0,0,.14-2.21v-1.61h-3Zm3.87.82v1.44a18.18,18.18,0,0,1-.16,2.38h2.79v-3.82Z"/><path class="cls-1" d="M248.62,164c-.16.75-.29,1.32-.41,1.71h2.61v.83H248a18.53,18.53,0,0,1-1.3,3.09l-.67-.43a20.27,20.27,0,0,0,1.81-5.38Zm-1.29,4.88h3.17v.78h-1.4V172H251v.82H249.1v4.11a9.29,9.29,0,0,0,1.56-1l.16.78a10.14,10.14,0,0,1-2.56,1.33l-.34-.72a.51.51,0,0,0,.34-.48v-4h-1.88V172h1.88v-2.29h-.93Zm13.28,8.38-.23.85h-2.2l-1.46,0a6.44,6.44,0,0,1-1.92-.3,3.23,3.23,0,0,1-1.41-1,.82.82,0,0,0-.53-.35c-.29,0-.82.62-1.58,1.85l-.51-.64a5.43,5.43,0,0,1,1.74-2v-5.67H251.1v-.8h2.21v6.5a1.54,1.54,0,0,1,.31.27,3.07,3.07,0,0,0,1.23,1,6.08,6.08,0,0,0,1.58.3c.81,0,1.42,0,1.81,0C258.82,177.32,259.61,177.31,260.61,177.28Zm-8.79-13.1a20.59,20.59,0,0,1,1.76,2.5l-.65.46a19.11,19.11,0,0,0-1.76-2.54Zm2.36,8.77h3.08v-2.24h-2.73l-.15-.75a17.89,17.89,0,0,0,1.59-3.49h-1.71v-.79h2c.22-.75.39-1.38.52-1.88l.78.17-.48,1.71h3.2v.79H256.8a22.12,22.12,0,0,1-1.52,3.47h2V167.7h.8v2.24h2v.77h-2V173h2.47v.78h-2.47v2.85h-.8v-2.85h-3.08Z"/><path class="cls-1" d="M262.9,170.05a19.15,19.15,0,0,1,2.84,1.87l-.59.6a18.08,18.08,0,0,0-2.86-1.89Zm2.56,3.75a37.64,37.64,0,0,1-2.34,4.41l-.83-.37a34.62,34.62,0,0,0,2.43-4.35Zm-3-8.9h3.8v-1.1h.88v1.1h4.42v-1.1h.88v1.1h3.81v.82H272.4V167h-.88v-1.31H267.1V167h-.88v-1.24h-3.8Zm1.07,1.92a17.74,17.74,0,0,1,2.75,1.92l-.59.61a16,16,0,0,0-2.75-1.95Zm7,0a6.17,6.17,0,0,1-.61,1.2h4.93v.63a9.51,9.51,0,0,1-2.85,2.92,17.59,17.59,0,0,0,4.78,1.64l-.49.72a16.94,16.94,0,0,1-5-1.89,21.84,21.84,0,0,1-4.83,2l-.51-.68a22,22,0,0,0,4.61-1.84,9.31,9.31,0,0,1-2-1.84,10.31,10.31,0,0,1-1.93,1.49l-.5-.65a8.17,8.17,0,0,0,3.6-3.88Zm4.21,6.95v4.7h-.8v-.75h-5.44v.75h-.82v-4.7Zm-6.24,3.18h5.44v-2.42h-5.44Zm2.76-5.81a9.79,9.79,0,0,0,2.6-2.35h-4.47a5.11,5.11,0,0,1-.33.4A9.35,9.35,0,0,0,271.18,171.09Z"/><path class="cls-1" d="M283.31,174.68a30,30,0,0,1-5.1,1.74l-.23-.86c.71-.15,1.44-.34,2.21-.56v-5.91h-2v-.85h2v-4.38h.87v4.38h1.88v.85h-1.88v5.62q1.05-.37,2.25-.9Zm8.58-8a54.11,54.11,0,0,1-.19,6.05c-.15.69-.7,1-1.65,1h-.4l-.26-.88.83,0a.68.68,0,0,0,.71-.61,40.59,40.59,0,0,0,.13-4.48l-2.52.75V175h-.83v-6.13l-2.33.7v7c0,.55.26.82.78.82h4.26a.94.94,0,0,0,.83-.34,6.94,6.94,0,0,0,.41-2.59l.82.26a6.33,6.33,0,0,1-.62,3,1.65,1.65,0,0,1-1.28.47H285.9c-.9,0-1.36-.49-1.36-1.46v-6.9l-1.28.39v-.85l1.28-.38v-3.49h.84v3.23l2.33-.72v-4.13h.83v3.87Z"/><path class="cls-1" d="M296.26,166.32h-2v-.86h4.86v.86h-2v7.6q1.36-.48,2.13-.78V174a43.46,43.46,0,0,1-4.95,1.64l-.22-.85c.84-.22,1.57-.41,2.18-.59Zm7.37,3.09h.87v2.71a6.34,6.34,0,0,1-1.35,4.09,8.41,8.41,0,0,1-4.13,2.24l-.49-.73a8.48,8.48,0,0,0,4-2.07,5.8,5.8,0,0,0,1.1-3.53Zm-3.85-4.83h8.8v.86h-3.92a16,16,0,0,1-.4,2h3.45v7.37h-.86v-6.54h-5.39v6.54h-.85V167.4h2.8a16.86,16.86,0,0,0,.4-2h-4Zm5.52,10.32a24.73,24.73,0,0,1,3.44,3l-.61.61a24.36,24.36,0,0,0-3.41-3.06Z"/><path class="cls-1" d="M322.74,164.74v13.65h-.85v-1.12h-9.15v1.12h-.85V164.74Zm-10,3.89h9.15v-3h-9.15Zm0,3.9h9.15v-3.09h-9.15Zm0,3.89h9.15v-3.07h-9.15Z"/><path class="cls-1" d="M331.3,175.84a22.86,22.86,0,0,1-5.08,1.86l-.11-.85A22.54,22.54,0,0,0,331.3,175Zm-1.54-11.68a25.44,25.44,0,0,1-2.54,5c.84-.09,1.71-.2,2.6-.33.43-.82.76-1.43,1-1.83l.8.29a34.85,34.85,0,0,1-3.92,6,25.8,25.8,0,0,0,3.65-1v.8a26.77,26.77,0,0,1-4.71,1.12l-.24-.8a1.83,1.83,0,0,0,.42-.26,18.46,18.46,0,0,0,2.56-3.6c-.57.09-1.55.22-3,.4l-.21-.8a1.17,1.17,0,0,0,.37-.3,24,24,0,0,0,2.37-5.11Zm2.16,7.08-.56-.71q4.63-1.77,6.42-5.07h-5.65v-.85h6.7v.69A10.2,10.2,0,0,1,337,168a26.05,26.05,0,0,1,3.58,2.72l-.61.63a23.2,23.2,0,0,0-3.53-2.8A14.54,14.54,0,0,1,331.92,171.24Zm3.58,1.84h-3.28v-.84h7.46v.84h-3.31V177h4.05v.86h-8.93V177h4Z"/><path class="cls-1" d="M345.49,174.45a20,20,0,0,1-3.57,1l-.11-.83a18.47,18.47,0,0,0,3.68-.94Zm.72-9h-3.95v-.8h4.81l-.75,6.57h1.06q0,5.33-.45,6.16a2,2,0,0,1-1.92.82l-1.14,0-.24-.77c.64.05,1,.08,1.2.08.8,0,1.29-.27,1.47-.8a23.47,23.47,0,0,0,.26-4.66h-4.1l.76-5.37.8.05-.66,4.52h2.13Zm6.25-1.52a13.3,13.3,0,0,0,4.28,5.49l-.48.72a13.52,13.52,0,0,1-4.2-5.36,14.11,14.11,0,0,1-4.16,5.39l-.44-.69a14.12,14.12,0,0,0,4.2-5.55ZM347.9,177h5.25a42,42,0,0,0,1.71-6.51l.84.22A40.65,40.65,0,0,1,354,177h2.6v.83H347.9Zm1.28-6a35.23,35.23,0,0,1,1.43,4.62l-.75.19a36,36,0,0,0-1.43-4.56Zm.71-2.42h4.43v.8h-4.43Zm1.76,1.95a33.57,33.57,0,0,1,1.21,4.4l-.75.2a36.47,36.47,0,0,0-1.21-4.34Z"/></svg>