<svg id="图层_1" data-name="图层 1" xmlns="http://www.w3.org/2000/svg" viewBox="0 0 400 275"><defs><style>.cls-1{fill:#33353c;}</style></defs><title>team</title><path class="cls-1" d="M101.85,93.29a22.93,22.93,0,0,0,7,5.08l-.43.75a23,23,0,0,1-6.88-5,22.74,22.74,0,0,1-6.94,5.14l-.42-.77a23.34,23.34,0,0,0,7.06-5.17ZM97.1,98.4H106v.85h-4v3h4.75v.85H102v3.3h6.21v.84H94.93v-.84h6.19v-3.3H96.35v-.85h4.77v-3h-4Z"/><path class="cls-1" d="M110.56,96.32h2.32V93.26h.81v3.06h1.89v.81h-1.89V98a37.53,37.53,0,0,1,2.21,3.26l-.51.77c-.7-1.45-1.27-2.53-1.7-3.23v9h-.81V98.88a17.64,17.64,0,0,1-2.35,4.67l-.39-.93a14.87,14.87,0,0,0,2.71-5.49h-2.29Zm13.09-.1.12.82-4.17.65c0,1,.09,1.75.17,2.37l4.5-.8.13.83-4.51.8.19,1.09a14.9,14.9,0,0,0,.57,2,13.94,13.94,0,0,0,2.31-2.64l.69.46a18.1,18.1,0,0,1-2.66,3,5.24,5.24,0,0,0,.45.79c.61.8,1.14,1.2,1.61,1.2s.75-.86,1.06-2.58l.72.48c-.38,2-.94,3-1.68,3a3,3,0,0,1-2.24-1.42,7.38,7.38,0,0,1-.58-.9,13.54,13.54,0,0,1-4.2,2.16l-.53-.69a13.55,13.55,0,0,0,4.37-2.22,12,12,0,0,1-.71-2.19q-.14-.66-.24-1.32l-2.77.48-.12-.83,2.78-.49c-.08-.72-.14-1.51-.16-2.39l-2.58.42-.12-.82,2.68-.43V93.2h.85v3.66Zm-2.13-2.91a14.44,14.44,0,0,1,1.82,2l-.69.49a14.8,14.8,0,0,0-1.8-2Z"/><path class="cls-1" d="M133.18,95.23h-5.69V94.4h12.27v.83h-5.71v10.9h6.4V107h-13.8v-.86h6.53Z"/><path class="cls-1" d="M142.53,97.69H145V95.07c-.67.12-1.43.22-2.27.3l-.18-.83a23.8,23.8,0,0,0,5.36-1l.3.82c-.81.24-1.61.45-2.4.61v2.76H148v.82h-2.26v1a31.72,31.72,0,0,1,2.39,2.68l-.5.74a29,29,0,0,0-1.89-2.64v7.47H145v-7.65a16.26,16.26,0,0,1-2.42,4.66l-.38-.94a13.42,13.42,0,0,0,2.7-5.3h-2.33Zm6,2.28h7.87v.8h-3.6v2.36h3.12v.79h-3.12v2.46h4v.82h-8.9v-.82h4.05v-2.46h-3v-.79h3v-2.36h-3.4Zm.75-6.12h6.3v4.44h-6.3Zm5.47,3.65V94.64h-4.63V97.5Z"/><path class="cls-1" d="M161.89,93.33h.86v7.53c0,3.16-1.14,5.47-3.29,7l-.68-.58c2-1.31,3.07-3.44,3.11-6.37Zm-2.82,2.06h.86v8.32h-.86ZM163.9,94h8.9v.83h-4V97h3.31v7.76c0,.81-.36,1.21-1.1,1.21h-1.1l-.23-.84,1,0c.37,0,.55-.2.55-.59V97.85h-2.47v9.86h-.86V97.85h-2.46v8.31h-.85V97h3.31V94.8h-4Z"/><path class="cls-1" d="M176.54,106a2.93,2.93,0,0,1-1.6,2.76l-.35-.56a2.49,2.49,0,0,0,1.23-2l-.24,0A.87.87,0,0,1,175,106a.75.75,0,0,1-.22-.58.73.73,0,0,1,.8-.81C176.22,104.64,176.54,105.08,176.54,106Z"/><path class="cls-1" d="M179,107.61l-.19-.8a10.41,10.41,0,0,0,1.09,0c.38,0,.58-.22.58-.67V102c-.58.26-1.16.5-1.73.72l-.21-.83a16.31,16.31,0,0,0,1.94-.74v-4h-1.75v-.85h1.75v-3h.84v3h1.55v.85h-1.55v3.6a15.49,15.49,0,0,0,1.63-1v.84a16.13,16.13,0,0,1-1.63,1v4.87c0,.81-.37,1.21-1.12,1.21Zm3.52-.92H193v.75H182.54Zm5.2-13.6a9.62,9.62,0,0,1,.59,1.2h4.39V95H183v-.73h4.46a6.66,6.66,0,0,0-.61-1ZM184.05,96h7.66v4.81h-7.66Zm.41,5.81h6.9v3.93h-6.9Zm6.45-1.6V96.62h-6v3.59Zm-5.66,3.29h5.31v-1.09h-5.31Zm5.31,1.63v-1h-5.31v1Zm-4.4-7.68h3.47v2h-3.47Zm2.78,1.48V98h-2.08v1Z"/><path class="cls-1" d="M194.7,99.5H198V93.28h.88V99.5h9.79v.87h-5.36c.67,2.74,2.53,4.85,5.55,6.35l-.49.81a10.76,10.76,0,0,1-5.9-7.16h-3.59v6.17c1.18-.3,2.45-.69,3.79-1.17l.21.82c-1.51.53-3.16,1-4.93,1.46l-.27-.82a.49.49,0,0,0,.32-.45v-6H194.7ZM207,94.05a16.77,16.77,0,0,1-5.79,3.9l-.53-.7a16.53,16.53,0,0,0,5.75-3.81Z"/><path class="cls-1" d="M210.86,107.61l-.17-.8c.41,0,.81,0,1.2,0s.72-.25.72-.77V102c-.69.29-1.39.54-2.11.77l-.23-.85c.82-.24,1.6-.49,2.34-.77v-4h-2v-.85h2v-3h.86v3h1.78v.85h-1.78v3.64a19.2,19.2,0,0,0,1.84-1v.85c-.53.31-1.15.63-1.84.95v4.73a1.14,1.14,0,0,1-1.28,1.31Zm5.06-12h3.92V93.25h.86v2.38h3.92v.82H220.7v2.86H224v.78a11.1,11.1,0,0,1-2.91,4.68,16.45,16.45,0,0,0,4,2.33l-.45.71a17.14,17.14,0,0,1-4.17-2.53,15.27,15.27,0,0,1-4.67,2.56l-.42-.74a14.6,14.6,0,0,0,4.48-2.37,10.06,10.06,0,0,1-2.8-4.59h-.86v-.83h3.63V96.45h-3.92Zm2,4.51a9,9,0,0,0,2.56,4.08,10.52,10.52,0,0,0,2.68-4.08Z"/><path class="cls-1" d="M226.93,97.1h6.32V93.17h.86V97.1h6.34v.82h-5.36a17.25,17.25,0,0,0,5.82,7.45l-.58.72a19.2,19.2,0,0,1-6.06-8.17h-.16v9.85h-.86V97.92h-.16a16.92,16.92,0,0,1-6.23,8.3l-.48-.75a16.18,16.18,0,0,0,5.91-7.55h-5.36Zm9.74-3.9A21.33,21.33,0,0,1,239,95.89l-.69.48A19.58,19.58,0,0,0,236,93.63Z"/><path class="cls-1" d="M245.9,107.74h-.85V99.07a17.54,17.54,0,0,1-2.38,4.85l-.37-.93A14.9,14.9,0,0,0,245,97.28h-2.35v-.85h2.41V93.21h.85v3.22H248v.85H245.9v1.13c.77.81,1.56,1.73,2.35,2.74l-.49.72a28.31,28.31,0,0,0-1.86-2.53Zm5.15-14.46a16.17,16.17,0,0,1-.51,2.35h5.68q0,8.13-.27,10.06a2,2,0,0,1-2.14,2l-1.73-.05-.19-.77c.67,0,1.26,0,1.77,0a1.39,1.39,0,0,0,1.47-1.31q.23-1.5.26-9.12h-5.1a14.6,14.6,0,0,1-1.65,3.36l-.56-.72a15.21,15.21,0,0,0,2.13-5.91Zm-2.41,10.29q.68-.39,2.4-5.25l.78.29a33.31,33.31,0,0,1-2,4.68c1.36-.27,2.36-.49,3-.65-.18-.53-.44-1.19-.78-2l.75-.24a32.94,32.94,0,0,1,1.44,4l-.75.35c-.14-.54-.28-1-.43-1.49-1.25.33-2.67.65-4.28,1Z"/><path class="cls-1" d="M261.39,93.26h.85v1.35l0,.16h3.11c0,2.66-.18,4.26-.48,4.78a1.77,1.77,0,0,1-1.62.77c-.31,0-.68,0-1.12,0l-.22-.78,1.15.06a1.13,1.13,0,0,0,1.15-.67,14,14,0,0,0,.27-3.31h-2.3a6.6,6.6,0,0,1-3,5.05l-.64-.57a5.88,5.88,0,0,0,2.8-4.48h-2.58v-.8h2.65Zm-2.59,8.66h6.45v-1.41h.86v1.41h6.47v.81H267a13.79,13.79,0,0,0,5.71,3.76l-.59.74a14.25,14.25,0,0,1-5.87-4.5h-.16v5h-.86v-5h-.16a12.8,12.8,0,0,1-6,4.56l-.48-.8a12.3,12.3,0,0,0,5.74-3.76H258.8Zm8.11-7.41h4.94v5.26h-4.94ZM271,99V95.31h-3.3V99Z"/><path class="cls-1" d="M274.43,98.22h3.18v7.36a24.75,24.75,0,0,0,2.05-1.79l.23.93a23.39,23.39,0,0,1-3.11,2.46l-.33-.78a.9.9,0,0,0,.3-.61V99.07h-2.32Zm1.62-4.75A18.43,18.43,0,0,1,278.78,96l-.61.61a17.3,17.3,0,0,0-2.71-2.51Zm4.06,6.61h7.5v.8a9.17,9.17,0,0,1-2.67,4.05,16.5,16.5,0,0,0,4.18,2.14l-.47.74a18.29,18.29,0,0,1-4.33-2.36,14.74,14.74,0,0,1-4.8,2.36l-.48-.72a15.69,15.69,0,0,0,4.59-2.21,8.76,8.76,0,0,1-2.67-4h-.85Zm1.31-6.18h5.16v3.55a.56.56,0,0,0,.63.63h1.52v.8H287c-.89,0-1.33-.43-1.33-1.28V94.72h-3.42v.65a4.39,4.39,0,0,1-2.42,4l-.59-.65a3.55,3.55,0,0,0,2.14-3.24Zm.39,7a7.9,7.9,0,0,0,2.44,3.47,8.79,8.79,0,0,0,2.5-3.47Z"/><path class="cls-1" d="M290.43,98.19h3.3v7.36c.64-.51,1.33-1.13,2.08-1.84l.22.9a20.5,20.5,0,0,1-3.12,2.52l-.33-.76a.88.88,0,0,0,.3-.58V99h-2.45Zm1.71-4.82a20.71,20.71,0,0,1,2.8,2.55l-.59.61A19.17,19.17,0,0,0,291.52,94Zm3.32,4.74h4.43V93.18h.89v4.93H305V99h-4.23v8.87h-.89V99h-4.43Z"/><path class="cls-1" d="M100.73,127.17a18.67,18.67,0,0,1,1.86,2.16,9.91,9.91,0,0,0,4.45-3.6h-5a18.85,18.85,0,0,1-5.1,1.5l-.51-.77c3.47-.35,6-1.43,7.76-3.23l.73.4a9.27,9.27,0,0,1-1.5,1.3h4.67v.68q-3.37,5.71-12.65,5.91l-.36-.85a20.73,20.73,0,0,0,6.64-1,18.23,18.23,0,0,0-1.8-2.1Zm1.65-9.57a8.72,8.72,0,0,1-1.12,1.09h4.82v.7q-2.6,4.6-9.62,5.17l-.37-.8a16.92,16.92,0,0,0,4.08-.72,12.4,12.4,0,0,0-1.67-1.78l.75-.37a16.83,16.83,0,0,1,1.74,1.86,8.68,8.68,0,0,0,4.08-3.26h-4.94a14.56,14.56,0,0,1-4.44,1.68l-.51-.77a11.51,11.51,0,0,0,6.44-3.2Z"/><path class="cls-1" d="M113.49,119.93a9.28,9.28,0,0,1-2.52,2.9l-.59-.74a9.1,9.1,0,0,0,3.33-5l.88.16a13.28,13.28,0,0,1-.67,1.86H124v.84h-5.14v2.87h4.58v.81h-4.58v3.73h5.65v.87h-5.65v3.64h-.84v-3.64h-7.51v-.87h2.71V122.8h4.8v-2.87Zm.64,7.41h3.92v-3.73h-3.92Z"/><path class="cls-1" d="M128.58,120.29a17.94,17.94,0,0,1-1.41,2.52l-.75-.46a17,17,0,0,0,2.35-5.22l.85.2c-.24.83-.47,1.54-.69,2.12h4.84v.84h-2.46a30,30,0,0,1-.22,3.5h2.83v.82H131c-.06.4-.15.86-.27,1.39q1.63,1.68,3.25,3.69l-.51.77a45,45,0,0,0-3-3.68,9.39,9.39,0,0,1-3.58,4.67l-.56-.7a8.8,8.8,0,0,0,3.45-4.75c.09-.34.19-.81.31-1.39h-3.52v-.82h3.65a30,30,0,0,0,.22-3.5ZM140,119v12h-.86V130h-3.38v1.14h-.85V119Zm-4.24,10.14h3.38v-9.32h-3.38Z"/><path class="cls-1" d="M147.07,130.75v1h-.86V126c-1.14.39-2.27.71-3.38,1l-.43-.82a27.86,27.86,0,0,0,7.06-2.41,20.6,20.6,0,0,0-3-2.07l.75-.46a20.57,20.57,0,0,1,3,2.11A10.4,10.4,0,0,0,154,119.6h-6.24a15.5,15.5,0,0,1-4.19,2.73l-.56-.75c2.74-1.19,4.61-2.66,5.59-4.4l.93.11a10.24,10.24,0,0,1-1,1.48H155v.78a13.29,13.29,0,0,1-6.69,5.62h7.1v6.57h-.88v-1Zm7.47-.85V126h-7.47v3.92Z"/><path class="cls-1" d="M158.77,118H172.3v.86h-8.53l-.72,2.91h7l-1.33,8.63h4v.84H158.51v-.84h9.36l.5-3.14h-7.51l2-8.4h-4.12Zm9.73,8.44.62-3.85h-6.26l-.94,3.85Z"/><path class="cls-1" d="M174.33,117.93h6.29v.82h-1.13v9.1l1.16-.36v.84l-1.16.36v3.23h-.85v-3c-1.21.32-2.57.62-4.1.9l-.21-.82,1.08-.18V118.75h-1.08Zm1.89,3.43h2.42v-2.61h-2.42Zm0,3.34h2.42v-2.53h-2.42Zm0,4c.74-.14,1.54-.32,2.42-.56V125.5h-2.42Zm4.74-7.88h4a20.77,20.77,0,0,0,1.59-3.52l.82.28a19.33,19.33,0,0,1-1.56,3.24h2.56v.83H185v.64a20.39,20.39,0,0,1-.14,2.4h3.79v.85h-3.49a11.48,11.48,0,0,0,3.7,5.66l-.58.62a11.92,11.92,0,0,1-3.66-5.72,8.9,8.9,0,0,1-3.78,5.79l-.53-.71a7.91,7.91,0,0,0,3.57-5.64h-3.2v-.85H184a19.55,19.55,0,0,0,.14-2.21v-.83H181Zm1.42-3.41a20.23,20.23,0,0,1,1.52,2.51l-.65.46a16,16,0,0,0-1.56-2.54Z"/><path class="cls-1" d="M200.89,131.69l-.22-.84,1.58,0a.63.63,0,0,0,.71-.72v-11.4H192.14v13h-.86V117.92h12.54v12.45a1.15,1.15,0,0,1-1.29,1.32Zm-3.68-3.48c-.56-.88-1.14-1.73-1.72-2.56a17.16,17.16,0,0,1-2.23,4.24l-.56-.68a16.8,16.8,0,0,0,2.21-4.38c-.86-1.15-1.65-2.12-2.35-2.9l.54-.54a28.16,28.16,0,0,1,2.1,2.53,33,33,0,0,0,.85-3.94l.81.15a31.3,31.3,0,0,1-1.05,4.6c.57.78,1.23,1.75,2,2.92Zm4.76.73c-.57-1-1.17-1.92-1.81-2.93a17.21,17.21,0,0,1-2.4,4.26l-.55-.67a17,17,0,0,0,2.37-4.43,35.44,35.44,0,0,0-2.32-3.09l.56-.55a29.17,29.17,0,0,1,2.08,2.71,27.53,27.53,0,0,0,1-4.21l.81.14a30.45,30.45,0,0,1-1.19,4.93c.68,1,1.36,2.12,2,3.27Z"/><path class="cls-1" d="M213.87,117.26a23.14,23.14,0,0,0,7.06,5.38l-.47.83a23.06,23.06,0,0,1-6.91-5.42,23.56,23.56,0,0,1-7,5.44l-.45-.84a23.44,23.44,0,0,0,7.1-5.39Zm-.29,4.18h.85v3.73h4.5V126h-4.5v4.26h5.65v.85H206.83v-.85h2.51v-6.53h.85v6.53h3.39Z"/><path class="cls-1" d="M227.39,117.39h.85v12.82h2.59V117.39h.85v12.82h4.91v.84H222.51v-.84h4.88Zm-3.7,2.82a58.43,58.43,0,0,1,2.28,7.53l-.8.19a58.47,58.47,0,0,0-2.23-7.47Zm12.4.25a34.86,34.86,0,0,1-2.46,7.38l-.78-.29a36.16,36.16,0,0,0,2.48-7.3Z"/><path class="cls-1" d="M245.18,119.23h-5.69v-.83h12.27v.83h-5.71v10.9h6.4V131h-13.8v-.86h6.53Z"/><path class="cls-1" d="M256.33,122.43a23.78,23.78,0,0,1-1.88,2.21l-.28-.91a17.78,17.78,0,0,0,3.88-6.53l.8.37a17.87,17.87,0,0,1-1.65,3.56v10.68h-.87Zm4.82-2a19.1,19.1,0,0,1-2.59,4.12l-.61-.72a19.29,19.29,0,0,0,3.55-6.69l.87.21c-.21.62-.48,1.37-.83,2.24h7.16v.84h-5.58v2.92H268v.86h-4.85v3h5V128h-5v3.81h-.87v-11.4Z"/><path class="cls-1" d="M275.54,129.25a23.37,23.37,0,0,1-5.08,1.85l-.11-.85a22.71,22.71,0,0,0,5.19-1.8ZM274,117.57a26,26,0,0,1-2.54,5c.84-.1,1.71-.21,2.6-.34.43-.82.75-1.43,1-1.82l.8.28a34.45,34.45,0,0,1-3.92,6,23.36,23.36,0,0,0,3.65-1v.8a25.91,25.91,0,0,1-4.71,1.12l-.24-.8a1.54,1.54,0,0,0,.42-.26,18.9,18.9,0,0,0,2.56-3.6c-.57.09-1.55.22-3,.4l-.21-.8a1.17,1.17,0,0,0,.37-.3,24.16,24.16,0,0,0,2.37-5.1Zm2.16,7.07-.56-.71q4.63-1.77,6.41-5.07h-5.64V118h6.7v.69a10.06,10.06,0,0,1-1.86,2.71,24.14,24.14,0,0,1,3.59,2.72l-.61.62a23.47,23.47,0,0,0-3.54-2.8A14.37,14.37,0,0,1,276.16,124.64Zm3.58,1.84h-3.28v-.83h7.46v.83h-3.31v3.92h4v.86h-8.92v-.86h4Z"/><path class="cls-1" d="M289.73,127.85a21.09,21.09,0,0,1-3.57,1l-.11-.84a17.81,17.81,0,0,0,3.68-.94Zm.72-9H286.5V118h4.81l-.75,6.58h1.06c0,3.54-.16,5.59-.45,6.16a2,2,0,0,1-1.92.81l-1.14,0-.24-.77c.64.05,1,.08,1.2.08.8,0,1.29-.27,1.47-.8a23.34,23.34,0,0,0,.26-4.65h-4.1l.76-5.38.79,0-.65,4.53h2.13Zm6.25-1.52A13.28,13.28,0,0,0,301,122.8l-.47.72a13.52,13.52,0,0,1-4.2-5.36,14.21,14.21,0,0,1-4.16,5.39l-.45-.69a14.05,14.05,0,0,0,4.21-5.55Zm-4.56,13.07h5.25a42,42,0,0,0,1.71-6.51l.83.22a39.31,39.31,0,0,1-1.71,6.29h2.59v.83h-8.67Zm1.28-6a35.71,35.71,0,0,1,1.43,4.62l-.76.2a35,35,0,0,0-1.42-4.56Zm.71-2.42h4.43v.8h-4.43Zm1.76,2a34.27,34.27,0,0,1,1.21,4.4l-.75.19a34.73,34.73,0,0,0-1.22-4.34Z"/><path class="cls-1" d="M127.53,141.89h12.6v.83H128.38v11.57h12.19v.83h-13Zm3.09,2.6q2.15,1.6,4.24,3.48a18.54,18.54,0,0,0,2.51-4.24l.79.41a19.52,19.52,0,0,1-2.64,4.42,46.54,46.54,0,0,1,3.58,3.6l-.65.65a46.18,46.18,0,0,0-3.49-3.6,14.24,14.24,0,0,1-5,3.6l-.5-.78a13.37,13.37,0,0,0,4.85-3.41q-2.15-1.89-4.3-3.53Z"/><path class="cls-1" d="M142.33,145.55h2v-4.24h.87v4.24H147v.86h-1.87v5.65c.87-.33,1.62-.64,2.25-.94V152a28.51,28.51,0,0,1-5.1,1.86l-.23-.88c.83-.19,1.56-.39,2.21-.59v-6h-2Zm5.48-1.81h3v-2.53h.85v2.53h3.49v4.64h1.48v.85h-4.72a12.5,12.5,0,0,0,4.85,5.82l-.57.68a13.52,13.52,0,0,1-4.92-6.12,9,9,0,0,1-4.28,6.18l-.53-.7a8.09,8.09,0,0,0,4.06-5.86h-3.39v-.85h3.54a17.35,17.35,0,0,0,.14-2.21v-1.61h-3Zm3.87.82V146a20.09,20.09,0,0,1-.16,2.38h2.78v-3.82Z"/><path class="cls-1" d="M160.83,141.42q-.24,1.13-.42,1.71H163V144h-2.85a17.94,17.94,0,0,1-1.29,3.08l-.67-.43a20,20,0,0,0,1.8-5.37Zm-1.3,4.88h3.17v.79h-1.39v2.28h1.86v.82h-1.86v4.11a9.63,9.63,0,0,0,1.55-1l.16.78a10,10,0,0,1-2.56,1.33l-.33-.72a.48.48,0,0,0,.33-.48v-4h-1.87v-.82h1.87v-2.28h-.93Zm13.28,8.39-.22.84h-2.21l-1.45,0a6.44,6.44,0,0,1-1.92-.3,3,3,0,0,1-1.41-1c-.21-.23-.38-.35-.53-.35s-.83.62-1.58,1.86l-.52-.64a5.48,5.48,0,0,1,1.75-2v-5.67h-1.41v-.8h2.21v6.5a1.5,1.5,0,0,1,.3.27,3.07,3.07,0,0,0,1.23,1,6.67,6.67,0,0,0,1.59.31l1.81,0ZM164,141.58a23.1,23.1,0,0,1,1.76,2.5l-.66.46a18.21,18.21,0,0,0-1.76-2.54Zm2.35,8.77h3.09v-2.24h-2.74l-.14-.75a17.64,17.64,0,0,0,1.58-3.49h-1.71v-.78h2q.31-1.14.51-1.89l.79.17-.48,1.72h3.2v.78H169a22.65,22.65,0,0,1-1.52,3.47h2V145.1h.8v2.24h2v.77h-2v2.24h2.46v.78h-2.46V154h-.8v-2.85h-3.09Z"/><path class="cls-1" d="M178.11,141.39c1.08,1.27,2.14,2.63,3.18,4.1l-.56.6a43.28,43.28,0,0,0-2.88-3.87,26.13,26.13,0,0,1-3.24,4.59l-.52-.68a26,26,0,0,0,3.33-4.74Zm-3.12,7h5.62v.72a20.43,20.43,0,0,1-2.47,4.06c.64.61,1.24,1.24,1.79,1.88l-.6.6a29.63,29.63,0,0,0-4-3.84l.59-.57c.64.51,1.2,1,1.67,1.39a24.58,24.58,0,0,0,2.11-3.42H175Zm2.54-3.63a18.85,18.85,0,0,1,1.67,2.54l-.64.47a17.84,17.84,0,0,0-1.65-2.61Zm7,2h.84v2.72a8.36,8.36,0,0,1-1,4.08,6,6,0,0,1-3,2.22l-.46-.72a5.39,5.39,0,0,0,2.78-2.06,7.3,7.3,0,0,0,.8-3.52Zm-3.4-4.86h7.5v.83h-3.28a18.54,18.54,0,0,1-.34,2h3v7.42h-.87v-6.59H182.7v6.69h-.85V144.8h2.28a13.25,13.25,0,0,0,.33-2h-3.37Zm4.92,10.4a21,21,0,0,1,2.82,2.86l-.61.62a20.23,20.23,0,0,0-2.8-2.92Z"/><path class="cls-1" d="M190.43,145.57h1.68v-4.36H193v4.36h1.61v.83H193v5.2c.65-.3,1.19-.56,1.63-.79v.88a21,21,0,0,1-4.06,1.65l-.21-.86c.7-.18,1.3-.37,1.79-.55V146.4h-1.68Zm9.07,6.88a35.3,35.3,0,0,1-5.12,1.52l-.22-.82a29.5,29.5,0,0,0,5.34-1.5Zm-4.81-9h5.74c0-.49,0-1.25,0-2.27h.87c0,1,0,1.79,0,2.27h1.91a15.66,15.66,0,0,0-.8-1.76l.77-.13a16.77,16.77,0,0,1,.76,1.89h.82v.83h-3.44a65.86,65.86,0,0,0,.38,6.61,19.09,19.09,0,0,0,1.68-5.1l.77.33a20.43,20.43,0,0,1-2.24,6.07c.35,1.7.77,2.58,1.25,2.64s.71-.91,1-2.53l.66.53c-.46,1.92-1,2.88-1.7,2.88-.5,0-1-.42-1.36-1.25a8,8,0,0,1-.48-1.36,9.66,9.66,0,0,1-2.85,2.62l-.53-.67a9,9,0,0,0,3.12-3c-.06-.34-.13-.84-.22-1.49q-.3-2.44-.38-6.24h-5.76Zm.67,2.61h3.9v4.4h-3.9Zm3.13,3.66v-2.93h-2.36v2.93Z"/><path class="cls-1" d="M210.48,144.13v3.36h2.06v.6a11.45,11.45,0,0,1-1.28,3.7c.58.65,1.11,1.31,1.59,2l-.61.59c-.4-.56-.87-1.16-1.43-1.82a12.09,12.09,0,0,1-2.6,3l-.55-.63a13.71,13.71,0,0,0,2.59-3c-.6-.67-1.26-1.34-2-2l.56-.53c.69.64,1.3,1.24,1.84,1.81a12.16,12.16,0,0,0,1-2.9h-3.78a23.09,23.09,0,0,1-1.13,7.36l-.64-.58a24.26,24.26,0,0,0,1-7.24v-4.48h2.51v-2.12h.82v2.12H213v.41a18.56,18.56,0,0,1-.63,2.75l-.73-.2a15.78,15.78,0,0,0,.56-2.16ZM208,147.49h1.71v-3.36H208Zm8.66-1h.83v3a7.24,7.24,0,0,1-1.11,4,7,7,0,0,1-3.39,2.19l-.45-.71a6.24,6.24,0,0,0,3.22-2,6.78,6.78,0,0,0,.9-3.49ZM213.5,142h7.15v.83h-3.18a12.66,12.66,0,0,1-.43,1.95h3.07v7.44h-.82v-6.62H214.8v6.62H214v-7.44h2.23a13.79,13.79,0,0,0,.41-1.95H213.5Zm4.42,10.48a21.63,21.63,0,0,1,3,2.89l-.59.59a18.57,18.57,0,0,0-3-2.94Z"/><path class="cls-1" d="M233.61,152.3H227v3.47h-.82v-8.68a20.71,20.71,0,0,1-3.36,3.39l-.54-.72a17.67,17.67,0,0,0,4.86-5.84h-4.45v-.83h4.85a19.39,19.39,0,0,0,.74-2l.88.09c-.18.61-.4,1.24-.66,1.88h8.1v.83h-8.47a19.82,19.82,0,0,1-1.2,2.11h7.56v8.64c0,.69-.41,1.05-1.22,1.07h-1.79l-.21-.78,1.73,0c.43,0,.65-.19.65-.58ZM227,146.8v2h6.65v-2Zm6.65,2.77H227v2h6.65Z"/><path class="cls-1" d="M252.73,154.56l-.16.83h-4.76q-4.26,0-6.1-1.26a4.57,4.57,0,0,1-.66-.61,9.12,9.12,0,0,1-2,2.09l-.56-.72a7.3,7.3,0,0,0,2-2.06,11.46,11.46,0,0,1-1.55-3.49l.72-.27a13.55,13.55,0,0,0,1.25,3,11.26,11.26,0,0,0,1.06-4.4h-3V147a37.18,37.18,0,0,0,2.71-4.06h-2.82v-.83h3.79v.72a38.06,38.06,0,0,1-2.54,4h2.67v.55a11.82,11.82,0,0,1-1.33,5.42,4.15,4.15,0,0,0,.93.79,11.1,11.1,0,0,0,5,1Q249.09,154.62,252.73,154.56Zm-1.36-6.91H248v1.47h3.86v.75H248v1.58h4.3v.76H248V154h-.86v-1.79h-3.73v-.76h3.73v-1.58h-3.25v-.75h3.25v-1.47h-2.92v-.77h2.92v-1.49h-3.7v-.74h3.7v-1.5h-2.92v-.75h2.92v-1.22H248v1.22h3.42v2.25h1.17v.74h-1.17Zm-3.42-4.5v1.5h2.59v-1.5Zm0,2.24v1.49h2.59v-1.49Z"/><path class="cls-1" d="M254.51,144.27h2v-3.09h.86v3.09H259v.82h-1.62v1.08q1.14,1.56,2.19,3.33l-.48.71c-.73-1.43-1.31-2.49-1.71-3.17v8.72h-.86v-8.64a20.82,20.82,0,0,1-2,4.85l-.39-.95a16.18,16.18,0,0,0,2.4-5.93h-2Zm5.1,1.23c.69,1,1.32,2,1.89,3a23.31,23.31,0,0,0,.71-4.72h-2.72v-.81H263v.62a23.56,23.56,0,0,1-.94,5.86c.73,1.28,1.39,2.55,2,3.82l-.62.64c-.44-1-1-2.18-1.7-3.46a15,15,0,0,1-2.78,4.71l-.5-.74a13.92,13.92,0,0,0,2.77-4.88q-.87-1.53-2.13-3.45Zm4.63,1.84a19.55,19.55,0,0,1,1.55,3.07l-.7.37a25.66,25.66,0,0,0-1.54-3.15Zm-.51-3.05h3v-3.11h.85v3.11h1.28v.84h-1.28v9.17c0,1-.44,1.44-1.31,1.44h-1.67l-.17-.81q1.05.06,1.53.06c.52,0,.77-.3.77-.9v-9h-3Z"/><path class="cls-1" d="M163.39,17h3.09l6,13.73h.07L178.48,17h3.1V34.09H179V21.85h-.09l-5.26,12.24h-2.25L166.1,21.85H166V34.09h-2.61Z"/><path class="cls-1" d="M187.77,17.19a1.54,1.54,0,0,1,.5,1.22,1.71,1.71,0,0,1-.52,1.25,1.87,1.87,0,0,1-2.5,0,1.7,1.7,0,0,1-.5-1.25,1.58,1.58,0,0,1,.5-1.22,1.89,1.89,0,0,1,2.52,0Zm-2.54,4.49h2.54V34.09h-2.54Z"/><path class="cls-1" d="M200.15,23.33V21.68h2.55V33.27c0,3.94-1.93,5.9-5.78,5.9a6.73,6.73,0,0,1-4-1,4.55,4.55,0,0,1-1.71-3h2.54a2.27,2.27,0,0,0,.92,1.56,4.14,4.14,0,0,0,2.21.46q3.22,0,3.23-3.51V31.73a4.3,4.3,0,0,1-3.79,2.07,5.26,5.26,0,0,1-4.08-1.71,6.27,6.27,0,0,1-1.56-4.48,6.44,6.44,0,0,1,1.56-4.52,5.2,5.2,0,0,1,4.08-1.75A4.31,4.31,0,0,1,200.15,23.33Zm-5.9,1.2a4.59,4.59,0,0,0-.91,3.08,5,5,0,0,0,.72,2.85,3,3,0,0,0,2.69,1.25,3.18,3.18,0,0,0,2.54-1.08,4.84,4.84,0,0,0,.89-3,4.94,4.94,0,0,0-.89-3.08,3.09,3.09,0,0,0-2.54-1.12A2.91,2.91,0,0,0,194.25,24.53Z"/><path class="cls-1" d="M205.58,21.68h2.54v7.56a3.27,3.27,0,0,0,.67,2.3,2.91,2.91,0,0,0,4-.07,4.6,4.6,0,0,0,1.2-2.21V21.68h2.54V34.09H214V32.41a4.81,4.81,0,0,1-3.91,2c-3,0-4.49-1.67-4.49-5Z"/><path class="cls-1" d="M229.31,23.41a8.31,8.31,0,0,1,1.49,5.18h-9.41a4.62,4.62,0,0,0,1,2.78,3.07,3.07,0,0,0,2.37,1,3.5,3.5,0,0,0,2.16-.62A4.13,4.13,0,0,0,228,30.1h2.55A5.82,5.82,0,0,1,228.88,33a6,6,0,0,1-4.1,1.41,5.68,5.68,0,0,1-4.35-1.7,6.72,6.72,0,0,1-1.72-4.85,6.72,6.72,0,0,1,1.63-4.63,5.33,5.33,0,0,1,4.34-1.9A5.43,5.43,0,0,1,229.31,23.41Zm-6.84.86a4.35,4.35,0,0,0-1,2.4h6.7q-.36-3.24-3.39-3.24A3.08,3.08,0,0,0,222.47,24.27Z"/><path class="cls-1" d="M233.25,16.61h2.54V34.09h-2.54Z"/><path class="cls-1" d="M105,66.92a17.73,17.73,0,0,1-2.29,4l-1.4-1a16.14,16.14,0,0,0,2.26-3.68Zm3.47-12.49h1.69V56H117v1.6h-6.86v1.91h5.73v6.1H103.62v-6.1h4.86ZM114.19,64V61.13h-8.88V64Zm-6.32,2.76c.36,1.14.68,2.39,1,3.76l-1.73.4a25.6,25.6,0,0,0-.84-3.82Zm3.74-.24a34.48,34.48,0,0,1,1.37,4l-1.69.4a22.47,22.47,0,0,0-1.28-4Zm3.6-.39A31.33,31.33,0,0,1,117.82,70l-1.42,1a31.08,31.08,0,0,0-2.55-4Z"/><path class="cls-1" d="M121.44,59.24c-.32.35-.71.74-1.17,1.19l-1-1.3a13,13,0,0,0,3.4-4.88l1.61.36c-.18.48-.37.9-.54,1.26h3.45a12.32,12.32,0,0,0-.75-1.4l1.74-.29c.24.53.48,1.09.7,1.69h5.67v1.41H129v.91h4.86v1.3H129v.88h4.86v1.3H129v.95h5.93V64H121.44Zm-1.64,7.47V65.14h7v-.72h1.7v.72h6.91v1.57H130.5A13.87,13.87,0,0,0,135.64,69l-.73,1.51a13.12,13.12,0,0,1-6.16-3.78h-.23V71h-1.7V66.71h-.23q-1.71,2.24-6.09,3.85l-.89-1.46a15.42,15.42,0,0,0,5.25-2.39Zm7.51-8.52v-.91H123v.91Zm0,2.18v-.88H123v.88Zm0,2.25v-.95H123v.95Z"/><path class="cls-1" d="M153.17,54.2a16.55,16.55,0,0,0-1.72,3.72,14.11,14.11,0,0,0-.79,4.68,14.3,14.3,0,0,0,.79,4.69A17.63,17.63,0,0,0,153.17,71h-1.6a15.28,15.28,0,0,1-1.94-3.67,13.86,13.86,0,0,1,0-9.45,14.06,14.06,0,0,1,1.94-3.69Z"/><path class="cls-1" d="M158.4,65.68a18.25,18.25,0,0,1-1.82,4.76l-1.41-.9a13.49,13.49,0,0,0,1.68-4.18Zm-2.92-5.85h1.91a12.46,12.46,0,0,0-.81-1.76l1.49-.56a15.44,15.44,0,0,1,.83,2.32h1.71c.29-.77.54-1.54.76-2.34l1.53.54a14.17,14.17,0,0,1-.74,1.8H164V61.4h-3.33V63h3v1.55h-3v4.8c0,1.09-.59,1.64-1.78,1.64H158l-.38-1.58a3,3,0,0,0,.75.11c.43,0,.65-.2.65-.58V64.57h-3.2V63H159V61.4h-3.49Zm.18-4.08h3.22a11.8,11.8,0,0,0-.77-1.33l1.76-.29q.39.81.69,1.62h3.32v1.58h-8.22Zm6.82,9.48a31,31,0,0,1,1.12,3.13l-1.44.54a28.1,28.1,0,0,0-1.08-3.29Zm9-9.25a19.79,19.79,0,0,1-5.13,1v2.92H172v1.63h-1.75V71h-1.67V61.52h-2.16v1.82a13.74,13.74,0,0,1-2.11,7.58l-1.2-1.29a11.69,11.69,0,0,0,1.65-6.29V55.57a17.21,17.21,0,0,0,6-1.1Z"/><path class="cls-1" d="M176.29,54.38H178v3h3.61q0,9.18-.27,11.34c-.18,1.37-1.07,2.05-2.68,2.05-.22,0-.68,0-1.4-.08l-.43-1.57q1,.09,1.56.09A1.29,1.29,0,0,0,179.76,68c.1-.78.16-3.74.2-8.89H178v.48q-.09,7.89-3.48,11.52l-1.38-1.22q3.08-3.19,3.13-10.3v-.48h-2.72V57.4h2.72Zm12.83,2V70.67h-1.67V69.55h-2.78v1.12H183V56.38ZM184.67,67.9h2.78V58h-2.78Z"/><path class="cls-1" d="M191.32,59h2V54.42H195V59h1.7v1.66H195V66l1.39-.54v1.7a34.9,34.9,0,0,1-4.82,1.6l-.44-1.73c.72-.14,1.44-.3,2.16-.49V60.63h-2Zm10.42-4.64h1.71v2.12h4.12v.81a16.12,16.12,0,0,1-.92,3.13l-1.6-.43a11.32,11.32,0,0,0,.74-1.94h-2.34v3.23h3v1.46a11.7,11.7,0,0,1-2.16,4.58A15.85,15.85,0,0,0,208,69.48l-.94,1.5a18.59,18.59,0,0,1-3.85-2.51,14.18,14.18,0,0,1-4.14,2.61L198,69.75a13.09,13.09,0,0,0,4.06-2.45,10.24,10.24,0,0,1-2.37-4.46h-.54A15.85,15.85,0,0,1,196.79,71l-1.31-1.16a14.58,14.58,0,0,0,2.1-7.74V56.45h4.16Zm0,3.69h-2.57v3.23h2.57Zm3,4.82h-3.51a8.17,8.17,0,0,0,1.86,3.29A9.88,9.88,0,0,0,204.78,62.84Z"/><path class="cls-1" d="M211.66,54.2a15.73,15.73,0,0,1,1.94,3.69,13.86,13.86,0,0,1,0,9.45A16.43,16.43,0,0,1,211.66,71h-1.6a18.69,18.69,0,0,0,1.72-3.72,14.77,14.77,0,0,0,.8-4.69,14.48,14.48,0,0,0-.8-4.68,17.48,17.48,0,0,0-1.72-3.72Z"/><path class="cls-1" d="M227.79,56.81V55.15h6.33v1.66h-2.74a21.31,21.31,0,0,1-1,3.69h3.22V69h-3.06v1.31H229V63.4q-.53.83-.9,1.35l-.9-1.46a17.35,17.35,0,0,0,2.61-6.48Zm2.75,10.69H232V62h-1.49Zm9.77-4.57h-2.43c-.18,3.65-1.23,6.33-3.17,8.05l-1.27-1.14q2.56-2.22,2.79-6.91h-1.82V61.29h1.84V56.7h-1.44V55.08h8.65V56.7H242v4.59h2v1.64h-2v8h-1.64Zm0-6.23H237.9v4.59h2.41Z"/><path class="cls-1" d="M246.47,60.1l1.42-5.25,1.71.28-.93,3.33h2.66c.32-1.27.6-2.67.83-4.21l1.74.22a39.65,39.65,0,0,1-.79,4h8.25V60.1h-8.68c0,.14-.22.7-.56,1.69h7.2v1.44a8.9,8.9,0,0,1-2.68,4,29.29,29.29,0,0,0,4.95,2.11L260.71,71a28.14,28.14,0,0,1-5.49-2.61,26.3,26.3,0,0,1-5.24,2.7l-.9-1.62a27.54,27.54,0,0,0,4.63-2.14,9.84,9.84,0,0,1-2.63-3,18.48,18.48,0,0,1-4.9,6.37l-.88-1.58a19.82,19.82,0,0,0,5.56-9Zm5.85,3.24a9.16,9.16,0,0,0,2.81,3,8.63,8.63,0,0,0,2.46-3Zm4.61-9.07a21.94,21.94,0,0,1,3.13,2.84l-1.23,1.23a16.93,16.93,0,0,0-3-2.94Z"/><path class="cls-1" d="M268,54.88a33.8,33.8,0,0,1-2.59,5.28c.67-.08,1.34-.16,2-.27l1-1.93,1.56.58a43.23,43.23,0,0,1-3.79,6.12,23.72,23.72,0,0,0,3.34-1v1.55A26.3,26.3,0,0,1,264,66.58L263.59,65a2.42,2.42,0,0,0,.77-.49,17,17,0,0,0,2.14-3.11c-1,.14-1.89.27-2.71.37l-.42-1.56a1.91,1.91,0,0,0,.7-.63,34.68,34.68,0,0,0,2.25-5.39Zm1.48,13.39a27,27,0,0,1-5.82,2.17l-.23-1.66a26.82,26.82,0,0,0,6.05-2.09Zm.95-5.32-1.08-1.41q4.85-1.76,6.73-4.91h-5.87V55h7.93v1.35a10.06,10.06,0,0,1-1.79,2.79,28,28,0,0,1,3.6,2.65L278.65,63a19.48,19.48,0,0,0-3.45-2.81A17.35,17.35,0,0,1,270.39,63Zm3.31,2.28h-3.34V63.58h8.44v1.65h-3.37v3.44h4.2v1.67H269.54V68.67h4.16Z"/><path class="cls-1" d="M281.73,60.84h1.78V57h-2V55.39h5.78V57h-2v3.83h1.82V62.5h-1.82V66c.8-.3,1.46-.56,2-.79v1.64a41.72,41.72,0,0,1-5.5,1.84l-.42-1.64c.82-.16,1.56-.33,2.23-.51V62.5h-1.78Zm6.41-5.92h8.91v8.62h-3.6v1.82h3.8v1.58h-3.8V68.8h4.37v1.64H287.38V68.8h4.38V66.94h-3.84V65.36h3.84V63.54h-3.62Zm1.64,3.58h2V56.43h-2Zm2,3.53V60h-2V62Zm1.69-5.6V58.5h2V56.43Zm2,5.6V60h-2V62Z"/></svg>