<svg id="图层_1" data-name="图层 1" xmlns="http://www.w3.org/2000/svg" viewBox="0 0 400 275"><defs><style>.cls-1{fill:#33353c;}</style></defs><title>team</title><path class="cls-1" d="M170.75,22h7.11Q184,22,184,27.25c0,3.5-2.06,5.26-6.17,5.26h-4.44v6.67h-2.62Zm2.62,2.23v6h4.27a4.52,4.52,0,0,0,2.84-.72,2.82,2.82,0,0,0,.88-2.3,2.59,2.59,0,0,0-.91-2.26,4.44,4.44,0,0,0-2.81-.72Z"/><path class="cls-1" d="M196.05,28.5a8.37,8.37,0,0,1,1.49,5.18h-9.41a4.68,4.68,0,0,0,1,2.79,3.1,3.1,0,0,0,2.38,1,3.5,3.5,0,0,0,2.16-.63,4.13,4.13,0,0,0,1.13-1.61h2.54a5.7,5.7,0,0,1-1.7,2.91,6.07,6.07,0,0,1-4.11,1.41,5.62,5.62,0,0,1-4.34-1.7A6.72,6.72,0,0,1,185.44,33a6.78,6.78,0,0,1,1.63-4.63,6.07,6.07,0,0,1,9,.17Zm-6.84.86a4.28,4.28,0,0,0-1,2.4h6.7c-.25-2.16-1.37-3.24-3.39-3.24A3.08,3.08,0,0,0,189.21,29.36Z"/><path class="cls-1" d="M203.47,22.76v4h2.83v2.11h-2.83v7.2a1.19,1.19,0,0,0,.21.75.92.92,0,0,0,.67.24H206v2.11h-2a2.92,2.92,0,0,1-2.33-.84,3.24,3.24,0,0,1-.7-2.26v-7.2h-2.3V26.77h2.3V23.82Z"/><path class="cls-1" d="M215.71,26.75v2.54a6,6,0,0,0-1.8-.26,2.84,2.84,0,0,0-2.07.93,3.63,3.63,0,0,0-1,2.64v6.58h-2.54V26.77h2.54v1.87a3.84,3.84,0,0,1,1.2-1.51,3.08,3.08,0,0,1,2-.7A3.6,3.6,0,0,1,215.71,26.75Z"/><path class="cls-1" d="M227.49,28.31A6.72,6.72,0,0,1,229.17,33a6.56,6.56,0,0,1-1.66,4.63,6.39,6.39,0,0,1-9.07,0A6.6,6.6,0,0,1,216.79,33a6.62,6.62,0,0,1,1.68-4.68,6.35,6.35,0,0,1,9,0Zm-7.25,1.6A5.13,5.13,0,0,0,219.4,33a5,5,0,0,0,.84,3,3.18,3.18,0,0,0,2.74,1.4,3.27,3.27,0,0,0,2.76-1.4,5.17,5.17,0,0,0,.86-3,5.13,5.13,0,0,0-.86-3.08A3.24,3.24,0,0,0,223,28.52,3.14,3.14,0,0,0,220.24,29.91Z"/><path class="cls-1" d="M105,72a17.87,17.87,0,0,1-2.29,4l-1.4-1a16.07,16.07,0,0,0,2.26-3.67Zm3.47-12.49h1.69v1.58H117v1.6h-6.86v1.91h5.73v6.1H103.62v-6.1h4.86Zm5.71,9.61V66.22h-8.88v2.92Zm-6.32,2.75c.36,1.14.68,2.4,1,3.76l-1.73.4a26.92,26.92,0,0,0-.84-3.82Zm3.74-.23a33.83,33.83,0,0,1,1.37,4l-1.69.39A22.47,22.47,0,0,0,110,72Zm3.6-.4a32.11,32.11,0,0,1,2.61,3.85l-1.42,1a30.16,30.16,0,0,0-2.56-4Z"/><path class="cls-1" d="M121.44,64.33c-.32.35-.71.75-1.17,1.19l-1-1.3a13.13,13.13,0,0,0,3.4-4.87l1.6.36a13.21,13.21,0,0,1-.54,1.26h3.46a10.44,10.44,0,0,0-.76-1.41l1.75-.29c.24.53.47,1.1.7,1.7h5.67v1.4H129v.92h4.86v1.29H129v.89h4.86v1.29H129v1h5.92v1.42H121.44ZM119.8,71.8V70.24h7v-.72h1.69v.72h6.92V71.8h-4.94a14,14,0,0,0,5.15,2.27l-.74,1.51a13.14,13.14,0,0,1-6.15-3.78h-.24v4.25h-1.69V71.8h-.23q-1.71,2.24-6.09,3.85l-.9-1.45a15.19,15.19,0,0,0,5.26-2.4Zm7.51-8.51v-.92H123v.92Zm0,2.18v-.89H123v.89Zm0,2.25v-1H123v1Z"/><path class="cls-1" d="M153.17,59.29A16.62,16.62,0,0,0,151.45,63a14,14,0,0,0-.8,4.68,14.3,14.3,0,0,0,.8,4.68,17.4,17.4,0,0,0,1.72,3.72h-1.6a15.1,15.1,0,0,1-1.94-3.67,13.86,13.86,0,0,1,0-9.45,14.22,14.22,0,0,1,1.94-3.69Z"/><path class="cls-1" d="M158.39,70.78a17.83,17.83,0,0,1-1.81,4.75l-1.41-.9a13.49,13.49,0,0,0,1.68-4.18Zm-2.91-5.85h1.91a12.09,12.09,0,0,0-.81-1.77l1.49-.56a16.77,16.77,0,0,1,.83,2.33h1.71a24.47,24.47,0,0,0,.75-2.34l1.53.54a15.42,15.42,0,0,1-.73,1.8H164v1.56h-3.33v1.62h3v1.55h-3v4.81c0,1.09-.59,1.63-1.78,1.63h-.94l-.37-1.58a3,3,0,0,0,.75.11c.43,0,.65-.19.65-.58V69.66h-3.2V68.11H159V66.49h-3.49Zm.18-4.09h3.22a11.8,11.8,0,0,0-.77-1.33l1.76-.29a16,16,0,0,1,.68,1.62h3.33v1.58h-8.22Zm6.82,9.49a32.65,32.65,0,0,1,1.12,3.13l-1.44.54a27.65,27.65,0,0,0-1.08-3.3Zm9-9.26a19.79,19.79,0,0,1-5.13,1V65H172v1.64h-1.75v9.43h-1.67V66.62h-2.16v1.82A13.71,13.71,0,0,1,164.28,76l-1.21-1.29a11.59,11.59,0,0,0,1.66-6.28V60.66a17.21,17.21,0,0,0,6-1.1Z"/><path class="cls-1" d="M176.29,59.47H178v3h3.62q0,9.18-.27,11.34c-.18,1.36-1.07,2-2.68,2-.22,0-.68,0-1.4-.09l-.44-1.57c.69.06,1.21.09,1.57.09a1.29,1.29,0,0,0,1.35-1.26c.1-.78.16-3.74.2-8.89h-2v.49q-.09,7.88-3.47,11.52L173.15,75q3.09-3.18,3.14-10.29v-.49h-2.72V62.5h2.72Zm12.83,2V75.76h-1.67V74.65h-2.78v1.11H183V61.47ZM184.67,73h2.78V63.13h-2.78Z"/><path class="cls-1" d="M191.32,64.06h2V59.51H195v4.55h1.69v1.66H195v5.4l1.39-.54v1.69a34.6,34.6,0,0,1-4.83,1.6l-.43-1.73q1.08-.21,2.16-.48V65.72h-2Zm10.42-4.64h1.71v2.12h4.12v.81a15.91,15.91,0,0,1-.92,3.13l-1.6-.43a11.5,11.5,0,0,0,.74-1.94h-2.34v3.24h3v1.46a11.72,11.72,0,0,1-2.16,4.57A15.52,15.52,0,0,0,208,74.57l-.94,1.5a18.31,18.31,0,0,1-3.85-2.5,14.61,14.61,0,0,1-4.14,2.61L198,74.84a13,13,0,0,0,4.07-2.44,10.17,10.17,0,0,1-2.37-4.47h-.54a15.82,15.82,0,0,1-2.36,8.14l-1.32-1.15a14.54,14.54,0,0,0,2.11-7.74V61.54h4.16Zm0,3.69h-2.58v3.24h2.58Zm3,4.82h-3.51a8.31,8.31,0,0,0,1.85,3.3A9.86,9.86,0,0,0,204.78,67.93Z"/><path class="cls-1" d="M211.66,59.29A16.32,16.32,0,0,1,213.6,63a13.86,13.86,0,0,1,0,9.45,16.62,16.62,0,0,1-1.94,3.67h-1.61a18.49,18.49,0,0,0,1.73-3.72,14.74,14.74,0,0,0,.79-4.68,14.46,14.46,0,0,0-.79-4.68,17.6,17.6,0,0,0-1.73-3.73Z"/><path class="cls-1" d="M227.35,64.82h4v7.61q.76-.63,1.8-1.62l.47,1.8a26.32,26.32,0,0,1-3.72,2.9L229.28,74a1.22,1.22,0,0,0,.45-.95V66.46h-2.38Zm2.29-5.17a22.87,22.87,0,0,1,2.93,2.65l-1.17,1.19a18.37,18.37,0,0,0-3-2.7ZM233.78,67h8.73v1.57a9.8,9.8,0,0,1-2.59,4.12,19.26,19.26,0,0,0,4.17,2l-.92,1.48a20.22,20.22,0,0,1-4.51-2.45,17.49,17.49,0,0,1-5.21,2.43l-.95-1.44a17.75,17.75,0,0,0,4.81-2.12,9.31,9.31,0,0,1-2.51-3.94h-1ZM235,60h6.37v3.78c0,.41.22.61.67.61h1.58V66h-2c-1.28,0-1.91-.6-1.91-1.8V61.61h-3v.54a4.78,4.78,0,0,1-2.84,4.36l-1.14-1.31c1.53-.69,2.29-1.64,2.29-2.87Zm1.37,8.61a7.44,7.44,0,0,0,2.12,3,9.73,9.73,0,0,0,2.25-3Z"/><path class="cls-1" d="M245.35,64.78h4.16v7.67c.49-.4,1.09-.93,1.8-1.6l.45,1.74a24.92,24.92,0,0,1-3.71,2.9L247.4,74a1.12,1.12,0,0,0,.47-.92V66.42h-2.52Zm2.38-5.22a21,21,0,0,1,3,2.67l-1.17,1.18a17.64,17.64,0,0,0-3-2.68ZM251,64.67h4.72V59.4h1.76v5.27H262v1.7h-4.47v9.7h-1.76v-9.7H251Z"/><path class="cls-1" d="M266.63,70.33a17.21,17.21,0,0,1-1.87,4.93l-1.46-.94A15,15,0,0,0,265,70Zm-.87-7.89h2.94A18.71,18.71,0,0,0,266.9,60l1.46-.72a27,27,0,0,1,1.89,2.62l-1.12.56h3.69a21.85,21.85,0,0,0,1.8-3.24l1.64.6a24.18,24.18,0,0,1-1.6,2.64h2.8v6.27h-11.7Zm10,4.65v-3h-8.28v3Zm-6.17,8.71c-1.25,0-1.87-.67-1.87-2V70.11h1.74v3.33c0,.49.22.74.65.74h3.82a.73.73,0,0,0,.66-.31,5,5,0,0,0,.35-2.05l1.63.52c-.14,1.65-.4,2.65-.77,3a2.43,2.43,0,0,1-1.57.43Zm2.65-6.64a18.61,18.61,0,0,1,1.58,3l-1.57.7a18.49,18.49,0,0,0-1.53-3.15Zm5.65.43a28.88,28.88,0,0,1,2,4.39l-1.57.7a31.26,31.26,0,0,0-2.05-4.57Z"/><path class="cls-1" d="M296,69v5h1.8v1.53h-16.4V74h1.89V69ZM282.5,60.26h1.7v7.42h-1.7ZM284.93,74h2V70.56h-2Zm1.28-14.6h1.71v9h-1.71Zm5.44,3.73a11.27,11.27,0,0,1-2.18,3.51l-1.08-1.33a12.78,12.78,0,0,0,2.48-6l1.77.33c-.1.48-.24,1.08-.42,1.81h5.12v1.68ZM288.57,74h2.05V70.56h-2.05Zm5-10a28.19,28.19,0,0,1,2.15,3.09l-1.43,1a26.9,26.9,0,0,0-2.1-3.2Zm-1.29,10h2.05V70.56h-2.05Z"/><path class="cls-1" d="M102.8,101.76a23.16,23.16,0,0,1,1.86,2.16,9.75,9.75,0,0,0,4.44-3.6h-4.94a18.59,18.59,0,0,1-5.1,1.51l-.52-.77q5.2-.53,7.76-3.23l.74.4a9.14,9.14,0,0,1-1.5,1.29h4.67v.69q-3.37,5.72-12.66,5.91l-.35-.85a20.81,20.81,0,0,0,6.64-1,18.14,18.14,0,0,0-1.81-2.09Zm1.65-9.56a9.24,9.24,0,0,1-1.12,1.08h4.81V94q-2.58,4.61-9.61,5.17l-.37-.8a16.92,16.92,0,0,0,4.08-.72,11.45,11.45,0,0,0-1.68-1.78l.75-.37a18,18,0,0,1,1.75,1.86,8.62,8.62,0,0,0,4.07-3.27h-4.94a14,14,0,0,1-4.43,1.68L97.25,95a11.48,11.48,0,0,0,6.43-3.2Z"/><path class="cls-1" d="M115.55,94.53a9.49,9.49,0,0,1-2.51,2.9l-.59-.74a9.19,9.19,0,0,0,3.33-5l.88.16a14,14,0,0,1-.68,1.85H126.1v.85H121V97.4h4.58v.81H121v3.73h5.65v.86H121v3.65h-.85V102.8h-7.5v-.86h2.7V97.4h4.8V94.53Zm.64,7.41h3.92V98.21h-3.92Z"/><path class="cls-1" d="M134,94.66v10.75h-.83v-1h-3.23v1.42h-.83V94.66h1.44a14.08,14.08,0,0,0,.71-2.86l.89.11a14.4,14.4,0,0,1-.77,2.75Zm-4.06,4.4h3.23V95.49h-3.23Zm0,4.58h3.23v-3.8h-3.23Zm12.35-9c0,5.13-.08,8.32-.22,9.58a2,2,0,0,1-2.23,1.92l-1.57,0-.2-.8c.64,0,1.19.05,1.68.05.86,0,1.36-.48,1.48-1.43s.2-3.68.23-8.43h-4.72a13.26,13.26,0,0,1-1.62,2.8l-.51-.67a14.14,14.14,0,0,0,2.35-5.89l.85.1a19.86,19.86,0,0,1-.74,2.8Zm-5.57,3.6a26.34,26.34,0,0,1,2.79,3.52l-.69.49a26.28,26.28,0,0,0-2.8-3.57Z"/><path class="cls-1" d="M146.64,94.88a17.53,17.53,0,0,1-1.41,2.53l-.75-.46a16.53,16.53,0,0,0,2.35-5.22l.85.19q-.36,1.26-.69,2.13h4.85v.83h-2.46a32.33,32.33,0,0,1-.23,3.51H152v.81H149c-.06.41-.16.87-.27,1.4q1.64,1.68,3.25,3.69l-.52.77a43.2,43.2,0,0,0-3-3.68,9.45,9.45,0,0,1-3.59,4.67l-.56-.7a8.87,8.87,0,0,0,3.46-4.75c.08-.35.19-.81.3-1.4h-3.52v-.81h3.65a32.33,32.33,0,0,0,.23-3.51ZM158,93.59v12h-.87v-1.09h-3.37v1.13h-.85V93.59Zm-4.24,10.14h3.37V94.4h-3.37Z"/><path class="cls-1" d="M165.13,105.35v1h-.86v-5.76c-1.14.38-2.27.71-3.37,1l-.44-.82a27.45,27.45,0,0,0,7.06-2.42,21.48,21.48,0,0,0-3-2.06l.75-.46a20.52,20.52,0,0,1,3,2.11,10.4,10.4,0,0,0,3.84-3.71h-6.24a15.82,15.82,0,0,1-4.19,2.73l-.56-.75q4.11-1.79,5.58-4.4l.93.11a9.39,9.39,0,0,1-1,1.47h6.45v.79a13.28,13.28,0,0,1-6.69,5.61h7.11v6.58h-.88v-1Zm7.48-.85v-3.92h-7.48v3.92Z"/><path class="cls-1" d="M176.83,92.56h13.54v.87h-8.53l-.72,2.91h7L186.77,105h4v.85H176.58V105h9.36l.49-3.13h-7.5l2-8.4h-4.13Zm9.73,8.45.62-3.85h-6.25L180,101Z"/><path class="cls-1" d="M192.4,92.53h6.29v.82h-1.14v9.1l1.17-.37v.85l-1.17.35v3.24h-.85v-3c-1.2.32-2.57.62-4.09.89l-.21-.81,1.07-.18V93.35H192.4ZM194.29,96h2.41V93.35h-2.41Zm0,3.34h2.41V96.77h-2.41Zm0,4c.73-.14,1.54-.32,2.41-.56V100.1h-2.41ZM199,95.36h4a19.35,19.35,0,0,0,1.58-3.52l.82.29a19.24,19.24,0,0,1-1.55,3.23h2.56v.84h-3.36v.64a18.4,18.4,0,0,1-.15,2.4h3.8v.84h-3.49a11.36,11.36,0,0,0,3.69,5.67l-.57.62a11.85,11.85,0,0,1-3.67-5.73,8.85,8.85,0,0,1-3.77,5.8l-.53-.71a7.91,7.91,0,0,0,3.57-5.65h-3.2v-.84h3.33c.08-.71.13-1.44.14-2.21V96.2H199Zm1.43-3.4A20.23,20.23,0,0,1,202,94.47l-.66.46a15.49,15.49,0,0,0-1.55-2.54Z"/><path class="cls-1" d="M219,106.29l-.22-.85,1.58,0a.63.63,0,0,0,.7-.72V93.36H210.21v13h-.87V92.52h12.55V105a1.16,1.16,0,0,1-1.3,1.33Zm-3.68-3.49c-.57-.87-1.14-1.72-1.73-2.56a17.12,17.12,0,0,1-2.22,4.24l-.56-.67A17.28,17.28,0,0,0,213,99.43c-.87-1.15-1.65-2.12-2.36-2.9l.55-.54a25.39,25.39,0,0,1,2.09,2.53,31.1,31.1,0,0,0,.85-3.94l.82.14a31.11,31.11,0,0,1-1.06,4.61c.58.78,1.24,1.75,2,2.91Zm4.75.74c-.56-1-1.17-1.93-1.81-2.93a17.39,17.39,0,0,1-2.4,4.26l-.54-.67a16.94,16.94,0,0,0,2.37-4.44c-.8-1.17-1.58-2.2-2.32-3.08l.56-.55A31.46,31.46,0,0,1,218,98.84a27.57,27.57,0,0,0,1-4.21l.82.14a31.79,31.79,0,0,1-1.2,4.93c.68,1,1.36,2.12,2.05,3.26Z"/><path class="cls-1" d="M229.9,92.29a18.54,18.54,0,0,1-4.83,7.7l-.67-.59A16.88,16.88,0,0,0,229.09,92Zm4.26,8.13a35.59,35.59,0,0,1,3.09,5.58l-.82.36c-.27-.63-.54-1.23-.81-1.78-2.86.47-6,.81-9.25,1l-.16-.81q2.11-1.31,4.91-7.51l.85.29a28.88,28.88,0,0,1-4.34,7.15q4-.28,7.6-.89a24.9,24.9,0,0,0-1.85-3.14Zm-.26-8.56a15.18,15.18,0,0,0,5,7.46l-.59.7a15.67,15.67,0,0,1-5.1-7.74Z"/><path class="cls-1" d="M241,95.7h9.61v.82H241Zm8.64,10.59-.23-.83,2.23,0c.56,0,.84-.34.84-1v-11h-11v-.83h11.86v12.1c0,1.07-.51,1.61-1.54,1.61Zm-7.52-7.6h6.84v4.74H242.1Zm6,3.94V99.49h-5.18v3.14Z"/><path class="cls-1" d="M256.37,96.82h3.18v7.36a26.79,26.79,0,0,0,2.05-1.79l.22.93a22.66,22.66,0,0,1-3.1,2.46l-.34-.78a.88.88,0,0,0,.31-.61V97.67h-2.32ZM258,92.07a18.55,18.55,0,0,1,2.74,2.48l-.61.61a17.46,17.46,0,0,0-2.72-2.52Zm4.07,6.61h7.5v.8a9.08,9.08,0,0,1-2.67,4,16.19,16.19,0,0,0,4.18,2.15l-.47.73a18,18,0,0,1-4.34-2.35,14.78,14.78,0,0,1-4.79,2.35l-.48-.72a15.56,15.56,0,0,0,4.59-2.2,8.66,8.66,0,0,1-2.67-4h-.85Zm1.31-6.18h5.15v3.55a.56.56,0,0,0,.64.63h1.52v.8H269c-.89,0-1.33-.43-1.33-1.28V93.32h-3.43V94a4.38,4.38,0,0,1-2.41,4l-.6-.66a3.54,3.54,0,0,0,2.15-3.23Zm.38,7a8,8,0,0,0,2.45,3.47,9,9,0,0,0,2.5-3.47Z"/><path class="cls-1" d="M272.37,96.79h3.29v7.36c.64-.51,1.34-1.13,2.08-1.84l.23.89a20.58,20.58,0,0,1-3.12,2.53l-.34-.77a.86.86,0,0,0,.31-.57V97.64h-2.45ZM274.08,92a20.07,20.07,0,0,1,2.8,2.55l-.59.6a20.35,20.35,0,0,0-2.83-2.56Zm3.31,4.74h4.43V91.78h.9v4.93h4.22v.86h-4.22v8.87h-.9V97.57h-4.43Z"/><path class="cls-1" d="M292,91.92h.87v7.54q-.07,4.74-3.3,6.94l-.67-.57c2-1.31,3.07-3.44,3.1-6.37ZM289.13,94H290v8.32h-.87ZM294,92.56h8.89v.84h-4v2.24h3.31v7.76c0,.81-.37,1.21-1.1,1.21H300l-.22-.85,1,0q.54,0,.54-.6V96.45h-2.46v9.86H298V96.45h-2.46v8.31h-.85V95.64H298V93.4h-4Z"/><path class="cls-1" d="M112.94,130.21l-.19-.8c.38,0,.75.05,1.09.05s.58-.22.58-.67v-4.24l-1.73.72-.21-.83a16.31,16.31,0,0,0,1.94-.74v-4h-1.75v-.84h1.75v-3h.84v3h1.55v.84h-1.55v3.6a12.67,12.67,0,0,0,1.63-1v.85c-.54.35-1.08.67-1.63,1V129c0,.81-.37,1.21-1.12,1.21Zm3.52-.93h10.42V130H116.46Zm5.2-13.6a9.62,9.62,0,0,1,.59,1.2h4.39v.74h-9.71v-.74h4.46a7.77,7.77,0,0,0-.61-1ZM118,118.6h7.66v4.81H118Zm.41,5.8h6.9v3.94h-6.9Zm6.45-1.6v-3.58h-6v3.58Zm-5.66,3.3h5.31V125h-5.31Zm5.31,1.63v-1h-5.31v1Zm-4.4-7.68h3.47v2h-3.47Zm2.78,1.47v-1h-2.08v1Z"/><path class="cls-1" d="M128.62,122.1H132v-6.22h.88v6.22h9.79V123h-5.36c.67,2.75,2.53,4.86,5.55,6.36l-.49.81a10.79,10.79,0,0,1-5.9-7.17h-3.59v6.18c1.18-.3,2.45-.69,3.79-1.17l.21.82c-1.51.53-3.16,1-4.93,1.45l-.27-.81A.49.49,0,0,0,132,129v-6h-3.33Zm12.32-5.46a16.78,16.78,0,0,1-5.79,3.91l-.53-.71a16.52,16.52,0,0,0,5.75-3.8Z"/><path class="cls-1" d="M146.78,125.09a9.38,9.38,0,0,1-1.81,5.14l-.64-.59a9.49,9.49,0,0,0,1.64-5.56V116.5h11.68v12a1.39,1.39,0,0,1-1.57,1.57h-1.84l-.23-.85c.64,0,1.24.05,1.78.05s1-.37,1-1.09v-3.06h-4.69v4.77h-.86v-4.77Zm.07-3.89v3l0,.13h4.4V121.2Zm4.38-3.85h-4.38v3.05h4.38Zm5.55,3.05v-3.05h-4.69v3.05Zm0,3.88V121.2h-4.69v3.08Z"/><path class="cls-1" d="M163.1,123a13.13,13.13,0,0,1-2.29,7.46l-.65-.59a11.8,11.8,0,0,0,2.09-7.16v-4.88h5.28a11.17,11.17,0,0,0-1-2l.92-.16a18.25,18.25,0,0,1,.91,2.12h5.06V123Zm9.47-4.3H163.1v3.45h9.47Z"/><path class="cls-1" d="M178.32,121.38a22.52,22.52,0,0,1-1.79,2.35l-.28-.85a19.89,19.89,0,0,0,3.73-7.13l.79.37a22.22,22.22,0,0,1-1.6,3.84v10.46h-.85Zm2.24-2.7H185v-2.9h.85v2.9h4.48v.83h-3.52a17.63,17.63,0,0,0,4.14,7.37l-.56.69a19.91,19.91,0,0,1-4.24-8.06h-.3v6.67h2.65V127h-2.65v3.39H185V127h-2.61v-.83H185v-6.67h-.29a18,18,0,0,1-4.3,8.21l-.45-.74a16.19,16.19,0,0,0,4.11-7.47h-3.47Z"/><path class="cls-1" d="M195.77,126.45a19.87,19.87,0,0,1-3.56,1l-.12-.83a18.12,18.12,0,0,0,3.68-.94Zm.73-9h-4v-.8h4.82l-.75,6.57h1q0,5.33-.45,6.16a2,2,0,0,1-1.92.82l-1.13,0-.24-.77c.64.05,1,.08,1.2.08.8,0,1.29-.27,1.47-.8a23.47,23.47,0,0,0,.26-4.66h-4.1l.75-5.37.8.05-.65,4.52h2.12Zm6.25-1.52A13.28,13.28,0,0,0,207,121.4l-.48.72a13.58,13.58,0,0,1-4.19-5.36,14.21,14.21,0,0,1-4.16,5.39l-.45-.69a14.05,14.05,0,0,0,4.21-5.55ZM198.19,129h5.25a42,42,0,0,0,1.71-6.51l.83.22a41.85,41.85,0,0,1-1.71,6.29h2.59v.83h-8.67Zm1.28-6a35.28,35.28,0,0,1,1.42,4.62l-.75.19a36,36,0,0,0-1.42-4.56Zm.7-2.42h4.44v.8h-4.44Zm1.76,2a33.47,33.47,0,0,1,1.22,4.4l-.75.2a36.53,36.53,0,0,0-1.22-4.34Z"/><path class="cls-1" d="M210.35,126.71a11.91,11.91,0,0,1,1.78,1.55,14,14,0,0,1,1.34,1.6l-.62.53a16.46,16.46,0,0,0-1.33-1.59,13.4,13.4,0,0,0-1.73-1.56Z"/><path class="cls-1" d="M235.23,122.64a14.36,14.36,0,0,1-2.93,3.91,18.31,18.31,0,0,0,6.48,3l-.51.8a18.66,18.66,0,0,1-6.62-3.2A16.56,16.56,0,0,1,225,130.4l-.52-.76a17,17,0,0,0,6.47-3.06,13.69,13.69,0,0,1-3-3.73l.75-.43a12.53,12.53,0,0,0,2.9,3.58,12.57,12.57,0,0,0,2.8-3.71Zm-10.66-4.83h6.79a12.7,12.7,0,0,0-1-2l.94-.16a13.57,13.57,0,0,1,1,2.11h6.35v.82H224.57Zm5.12,2.1a18.16,18.16,0,0,1-4.51,4.14l-.56-.72a17.43,17.43,0,0,0,4.43-4Zm4.36-.58a31.23,31.23,0,0,1,4.46,4.29l-.64.62a31.12,31.12,0,0,0-4.43-4.33Z"/><path class="cls-1" d="M240.81,116.56h13.54v.87h-8.53l-.72,2.91h7L250.75,129h4v.85H240.56V129h9.36l.5-3.13h-7.51l2-8.4h-4.13Zm9.73,8.45.63-3.85h-6.26L244,125Z"/><path class="cls-1" d="M256.35,120.82h3.18v7.36a26.79,26.79,0,0,0,2.05-1.79l.23.93a23.39,23.39,0,0,1-3.11,2.46l-.33-.78a.9.9,0,0,0,.3-.61v-6.72h-2.32Zm1.62-4.75a18.43,18.43,0,0,1,2.73,2.48l-.61.61a17.8,17.8,0,0,0-2.71-2.52Zm4.06,6.61h7.5v.8a9.08,9.08,0,0,1-2.67,4,16.19,16.19,0,0,0,4.18,2.15l-.47.73a17.93,17.93,0,0,1-4.33-2.35,14.73,14.73,0,0,1-4.8,2.35l-.48-.72a15.56,15.56,0,0,0,4.59-2.2,8.82,8.82,0,0,1-2.67-4H262Zm1.31-6.18h5.16v3.55a.56.56,0,0,0,.63.63h1.52v.8H269c-.89,0-1.33-.43-1.33-1.28v-2.88h-3.42V118a4.39,4.39,0,0,1-2.42,4l-.59-.66a3.53,3.53,0,0,0,2.14-3.23Zm.39,7a7.9,7.9,0,0,0,2.44,3.47,8.79,8.79,0,0,0,2.5-3.47Z"/><path class="cls-1" d="M272.35,120.79h3.3v7.36c.64-.51,1.33-1.13,2.08-1.84l.22.89a20.58,20.58,0,0,1-3.12,2.53l-.33-.77a.84.84,0,0,0,.3-.57v-6.75h-2.45Zm1.71-4.82a20.07,20.07,0,0,1,2.8,2.55l-.59.6a20.35,20.35,0,0,0-2.83-2.56Zm3.32,4.74h4.43v-4.93h.89v4.93h4.23v.86H282.7v8.87h-.89v-8.87h-4.43Z"/><path class="cls-1" d="M134.35,150.9H127.7v3.47h-.82v-8.69a20.38,20.38,0,0,1-3.36,3.4l-.55-.72a17.68,17.68,0,0,0,4.87-5.84h-4.45v-.84h4.85a16.43,16.43,0,0,0,.73-2l.88.09c-.18.61-.39,1.23-.65,1.87h8.09v.84h-8.46a19.82,19.82,0,0,1-1.2,2.11h7.55v8.64c0,.69-.4,1-1.21,1.07h-1.8l-.2-.78,1.73,0c.43,0,.65-.19.65-.58Zm-6.65-5.5v2h6.65v-2Zm6.65,2.76H127.7v2h6.65Z"/><path class="cls-1" d="M142.14,147.24l.83.09-.38,1H146v.74a6.66,6.66,0,0,1-1.92,2.88,25.38,25.38,0,0,1,2.41,1.18l-.49.69a25.05,25.05,0,0,0-2.6-1.31,12.91,12.91,0,0,1-4,1.86l-.43-.74a12.5,12.5,0,0,0,3.57-1.52c-.69-.3-1.46-.61-2.32-.93a23.35,23.35,0,0,0,1.15-2.06h-2v-.79h2.4ZM139.38,143h3.16v-3.12h.82V143h3v.78h-3v.19a30.86,30.86,0,0,1,2.75,1.7l-.46.69c-.88-.72-1.64-1.29-2.29-1.73v2.3h-.82v-3.15h0a7.33,7.33,0,0,1-3,3.36l-.45-.72a6.45,6.45,0,0,0,2.75-2.64h-2.46Zm1.05-2.75a10.8,10.8,0,0,1,1,2l-.69.3a15.39,15.39,0,0,0-1.08-2.06Zm4.75,8.91h-2.94a16.56,16.56,0,0,1-1,1.71,19.61,19.61,0,0,1,2,.77A6.91,6.91,0,0,0,145.18,149.11Zm1-8.72a10.14,10.14,0,0,1-1.24,2.13l-.66-.34a12.26,12.26,0,0,0,1.19-2.13Zm1.84,5.1a15.11,15.11,0,0,1-1,2.29l-.54-.67a20.8,20.8,0,0,0,2-7.36l.86.16c-.1.83-.23,1.64-.38,2.43h4.35v.85h-1.14a17.28,17.28,0,0,1-1.45,7,10,10,0,0,0,3.06,3.42l-.5.74a10.77,10.77,0,0,1-3-3.36,10.87,10.87,0,0,1-3.06,3.39l-.48-.74a9.93,9.93,0,0,0,3.06-3.5A21.15,21.15,0,0,1,148,145.49Zm.68-2.3c-.11.42-.19.74-.26.94a23.11,23.11,0,0,0,1.71,5.14,16.56,16.56,0,0,0,1.12-6.08Z"/><path class="cls-1" d="M162.66,139.81a16.74,16.74,0,0,0,7,5.95l-.51.77a17.31,17.31,0,0,1-6.87-5.89,18.82,18.82,0,0,1-6.86,6l-.51-.79a17.76,17.76,0,0,0,7-6Zm-.84,4.69h.87v9.89h-.87Z"/><path class="cls-1" d="M173.28,142.88a17.53,17.53,0,0,1-1.41,2.53l-.75-.46a16.75,16.75,0,0,0,2.35-5.22l.85.19q-.36,1.26-.69,2.13h4.85v.83H176a30,30,0,0,1-.22,3.51h2.83v.81h-2.94c-.06.41-.16.87-.27,1.4q1.64,1.68,3.25,3.69l-.52.77a43.2,43.2,0,0,0-3-3.68,9.45,9.45,0,0,1-3.59,4.67l-.56-.7a8.87,8.87,0,0,0,3.46-4.75c.08-.35.19-.81.3-1.4h-3.52v-.81h3.65a30,30,0,0,0,.22-3.51Zm11.38-1.29v12h-.87v-1.09h-3.37v1.13h-.85V141.59Zm-4.24,10.14h3.37V142.4h-3.37Z"/><path class="cls-1" d="M191.77,153.35v1h-.86v-5.76c-1.14.38-2.27.71-3.37,1l-.44-.82a27.45,27.45,0,0,0,7.06-2.42,21.48,21.48,0,0,0-3-2.06l.75-.46a20.52,20.52,0,0,1,3,2.11,10.4,10.4,0,0,0,3.84-3.71h-6.24a15.82,15.82,0,0,1-4.19,2.73l-.56-.75q4.11-1.78,5.58-4.4l.93.11a9.39,9.39,0,0,1-1,1.47h6.45v.79a13.28,13.28,0,0,1-6.69,5.61h7.11v6.58h-.88v-1Zm7.48-.85v-3.92h-7.48v3.92Z"/><path class="cls-1" d="M209.05,139.8h.9v5h5.92v.83H210v7.17h7.41v.85H203.2v-.85h5.85Z"/><path class="cls-1" d="M222.78,140.05a25.14,25.14,0,0,1-2.62,5.22c.77-.08,1.6-.18,2.51-.32q1.1-2.05,1-1.89l.79.3a35.07,35.07,0,0,1-3.73,6,25.74,25.74,0,0,0,3.73-.94v.78a26.52,26.52,0,0,1-4.77,1.09l-.22-.8a1.41,1.41,0,0,0,.39-.24,19.83,19.83,0,0,0,2.39-3.47c-1,.15-2,.28-2.9.38l-.22-.8a.88.88,0,0,0,.37-.33,26,26,0,0,0,2.48-5.28Zm1.84,12.18a29.83,29.83,0,0,1-5.39,1.52l-.11-.85a30,30,0,0,0,5.5-1.49Zm7.75-9.52.13.83-4.21.59c0,.93.08,1.74.16,2.42l4.35-.69.13.83-4.39.71c0,.25.09.61.18,1.08a13.09,13.09,0,0,0,.64,2.31,14.72,14.72,0,0,0,2.51-2.93l.71.45a17.48,17.48,0,0,1-2.88,3.28,5,5,0,0,0,.3.56q.81,1.2,1.5,1.2t1.17-2.79l.75.48c-.41,2.16-1,3.24-1.82,3.24a2.88,2.88,0,0,1-2.13-1.48c-.13-.18-.27-.41-.43-.68a12.37,12.37,0,0,1-3.92,2l-.51-.69a13,13,0,0,0,4.06-2.09,12.09,12.09,0,0,1-.75-2.45c-.07-.3-.14-.76-.22-1.38l-3,.48-.12-.83,3-.48c-.08-.73-.14-1.54-.16-2.43l-2.45.35-.11-.81,2.55-.37V139.8h.86v3.5ZM230,139.78a17.75,17.75,0,0,1,2,2l-.69.48a16.81,16.81,0,0,0-2-2.09Z"/><path class="cls-1" d="M242.17,139.59a14,14,0,0,1,.79,1.93h5.68v.84h-2.83a13.14,13.14,0,0,1-.88,2.7h4v.85H237.39v2.51a10.21,10.21,0,0,1-1.77,6l-.65-.59a9,9,0,0,0,1.54-5.38v-3.36h3.3l-.74-2.7h-3v-.84h6a13.43,13.43,0,0,0-.81-1.79Zm-1.48,5.47h3.4a10,10,0,0,0,.87-2.7h-5Z"/><path class="cls-1" d="M257.23,147.43v6.72h-.85v-.85h-3.69v.85h-.85v-6.72Zm-4.54,5h3.69v-4.24h-3.69Zm1.23-11.92h8.64v5h-8.64Zm7.76,4.15V141.4H254.8v3.31Zm3,2.72v6.72h-.86v-.85H260v.85h-.85v-6.72Zm-4.72,5h3.86v-4.24H260Z"/></svg>