<svg id="图层_1" data-name="图层 1" xmlns="http://www.w3.org/2000/svg" viewBox="0 0 400 275"><defs><style>.cls-1{fill:#33353c;}</style></defs><title>team</title><path class="cls-1" d="M66,93.89H78.59v.83H66.85v11.57H79v.83H66Zm3.09,2.6q2.14,1.61,4.24,3.48a18.54,18.54,0,0,0,2.51-4.24l.78.41A18.82,18.82,0,0,1,74,100.56a46.76,46.76,0,0,1,3.59,3.6l-.66.65a42.79,42.79,0,0,0-3.49-3.6,14.29,14.29,0,0,1-5,3.6l-.5-.78a13.46,13.46,0,0,0,4.85-3.41q-2.14-1.89-4.31-3.53Z"/><path class="cls-1" d="M80.8,97.55h2V93.31h.86v4.24H85.5v.86H83.63v5.65c.88-.33,1.63-.64,2.26-.94V104a28.33,28.33,0,0,1-5.11,1.86l-.22-.88c.82-.19,1.56-.39,2.21-.59v-6h-2Zm5.47-1.81h3V93.21h.85v2.53h3.49v4.64h1.49v.85H90.4a12.44,12.44,0,0,0,4.85,5.82l-.58.68a13.5,13.5,0,0,1-4.91-6.12,9,9,0,0,1-4.29,6.18l-.53-.7A8.11,8.11,0,0,0,89,101.23H85.62v-.85h3.53a15.7,15.7,0,0,0,.14-2.21V96.56h-3Zm3.87.82V98a18.18,18.18,0,0,1-.16,2.38h2.79V96.56Z"/><path class="cls-1" d="M99.29,93.42c-.15.75-.29,1.32-.41,1.71h2.61V96H98.64a17.94,17.94,0,0,1-1.3,3.08l-.67-.43a20,20,0,0,0,1.81-5.37ZM98,98.3h3.17v.79H99.78v2.28h1.85v.82H99.78v4.11a9.63,9.63,0,0,0,1.55-1l.16.78a10.14,10.14,0,0,1-2.56,1.33l-.34-.72a.48.48,0,0,0,.34-.48v-4H97.06v-.82h1.87V99.09H98Zm13.28,8.39-.22.84h-2.21l-1.46,0a6.44,6.44,0,0,1-1.92-.3,3.15,3.15,0,0,1-1.41-1c-.2-.23-.38-.35-.52-.35q-.45,0-1.59,1.86l-.51-.64a5.39,5.39,0,0,1,1.74-2V99.45h-1.4v-.8H104v6.5a1.54,1.54,0,0,1,.31.27,3.07,3.07,0,0,0,1.23,1,6.58,6.58,0,0,0,1.58.31l1.81,0ZM102.5,93.58a23.1,23.1,0,0,1,1.76,2.5l-.66.46A19.11,19.11,0,0,0,101.84,94Zm2.35,8.77h3.09v-2.24H105.2l-.14-.75a18.24,18.24,0,0,0,1.58-3.49h-1.71v-.78h2q.31-1.14.51-1.89l.78.17-.48,1.72h3.2v.78h-3.44A21.71,21.71,0,0,1,106,99.34h2V97.1h.8v2.24h2v.77h-2v2.24h2.46v.78h-2.46V106h-.8v-2.85h-3.09Z"/><path class="cls-1" d="M113.2,107.61l-.19-.83c.57,0,1,.07,1.23.07.49,0,.74-.27.74-.8v-4.21c-.75.31-1.47.57-2.15.8l-.22-.87A20.6,20.6,0,0,0,115,101V97.09h-2v-.85h2v-3h.86v3h1.94v.85h-1.94v3.5c.64-.32,1.26-.66,1.87-1v.87c-.66.38-1.28.71-1.87,1v4.83c0,.9-.43,1.34-1.3,1.34Zm5.17-7.47h7.52V101a9.43,9.43,0,0,1-2.6,4,17,17,0,0,0,4.12,2.12l-.47.73a17.55,17.55,0,0,1-4.25-2.32,14.5,14.5,0,0,1-4.67,2.34l-.47-.72a14.79,14.79,0,0,0,4.45-2.19,8.73,8.73,0,0,1-2.59-3.92h-1Zm1.34-6.22h5.09v3.53c0,.41.22.61.67.61h1.44v.82h-1.62c-.89,0-1.34-.43-1.34-1.28V94.75h-3.37v1.07a3.81,3.81,0,0,1-2.2,3.44l-.59-.67a2.92,2.92,0,0,0,1.92-2.67Zm.5,7.09a7.62,7.62,0,0,0,2.4,3.42A9.19,9.19,0,0,0,125,101Z"/><path class="cls-1" d="M132.67,97.2a14.48,14.48,0,0,1-3,2.38l-.58-.65a14.79,14.79,0,0,0,3-2.32Zm3.84,4.78q-.33,3.06-1.47,4.11c-.83.89-2.65,1.44-5.46,1.67l-.35-.79q3.84-.23,5.09-1.39a5.69,5.69,0,0,0,1.31-3.68Zm-6.69-8.35a15,15,0,0,1,2.64,1.1l-.46.72a11,11,0,0,0-2.62-1.16Zm11.2,6.7v4.76h-.88v-3.94h-8.38v4h-.88v-4.85Zm-5-7.07a9.86,9.86,0,0,1-.46,1.12h6.57v.55a13,13,0,0,1-.8,2.32l-.83-.24a9,9,0,0,0,.74-1.84h-3a7.35,7.35,0,0,1-.32,1.16c.87,1.34,2.55,2.24,5,2.72l-.3.76c-2.41-.48-4.1-1.4-5.06-2.74a5.66,5.66,0,0,1-.77,1A8.35,8.35,0,0,1,133,99.77l-.34-.78a7.77,7.77,0,0,0,3.51-1.47,4.23,4.23,0,0,0,1.26-2.35h-2.33a7.72,7.72,0,0,1-1.6,1.63l-.53-.69a5.89,5.89,0,0,0,2.22-2.94Zm.93,11.83a31.42,31.42,0,0,1,5.68,2l-.47.72a30.9,30.9,0,0,0-5.66-2.11Z"/><path class="cls-1" d="M146.91,93.92h10.15v6.88h-4.63v2.14H159v.85h-6.59v4h-.88v-4H145v-.85h6.57V100.8h-4.64Zm.88,3h8.39V94.75h-8.39Zm8.39,3V97.76h-8.39V100Z"/><path class="cls-1" d="M163.66,104.72a13.31,13.31,0,0,1-2.19,3l-.69-.48a11.55,11.55,0,0,0,2.16-2.88Zm-1.53-11.49H163v1.89h3.41V93.26h.83v1.86h1.07v.81H167.2V103h1.15v.8h-7.49V103h1.27V95.93H161v-.81h1.11Zm4.24,2.7H163v1.86h3.41ZM163,100.38h3.41V98.57H163Zm0,2.63h3.41v-1.84H163Zm2.82,1.4a18.51,18.51,0,0,1,1.8,2.63l-.72.49a19.22,19.22,0,0,0-1.76-2.68Zm4.44-1.88a10.06,10.06,0,0,1-1.93,5.26l-.67-.59a9.89,9.89,0,0,0,1.8-6V93.87h5.08v12.4c0,.92-.44,1.38-1.3,1.38h-1.73l-.22-.84,1.66,0c.47,0,.71-.3.71-.88v-3.44Zm.08-4v3.17h3.33V98.56Zm3.32-.8V94.69H170.3v3.07Z"/><path class="cls-1" d="M177,98.09h5.4a6.16,6.16,0,0,0,.81-1.48l-4.51.16-.14-.77a10.42,10.42,0,0,0,4-2.82l.85.29A14.76,14.76,0,0,1,180.3,96c2.6-.09,4.88-.21,6.87-.35-.76-.67-1.33-1.16-1.71-1.48l.67-.43a30.77,30.77,0,0,1,3.65,3.33l-.72.48c-.31-.35-.7-.76-1.16-1.22l-3.77.23a7.22,7.22,0,0,1-.75,1.53h7.44v.8h-4.21a10,10,0,0,0,4.68,2.6l-.38.8a10.49,10.49,0,0,1-5.21-3.4h-2.92a12.91,12.91,0,0,1-5.68,3.49l-.38-.77a11.62,11.62,0,0,0,5-2.72H177Zm12,4.37q-2.19,4-9.52,5.51l-.51-.69q7.31-1.59,9.28-5.17Zm-2.16-1a11.91,11.91,0,0,1-7.1,4l-.5-.69a10.84,10.84,0,0,0,6.92-3.73Zm-2-1.34a10.94,10.94,0,0,1-5,3.17l-.4-.71a10,10,0,0,0,4.67-2.88Z"/><path class="cls-1" d="M193,102.73h9.89v.84H193Zm3.92-6.54L196.59,99h8.93q0,6.57-.69,7.63c-.48.67-1.47,1-3,1-.71,0-1.44,0-2.21-.05l-.24-.79,2.25.07c1.43,0,2.28-.34,2.55-1s.45-2.74.45-6.05H195.6l.73-6.69.87.07L197,95.36h9.15v.83Z"/><path class="cls-1" d="M210.43,95h4.43V93.17h.87V95h4v.81h-4v2.16h2.14a20.93,20.93,0,0,0,4.07-3.71l.65.5a22.23,22.23,0,0,1-3.31,3.21h3.82v.84h-5l-.8.51c-.9.52-1.86,1-2.9,1.49H221v7h-.88V107H212.8v.78h-.86v-6q-1.66.6-2.85.93l-.35-.8a27.43,27.43,0,0,0,7.59-3l.26-.16h-7.66v-.84h5.93V95.77h-4.43Zm9.68,8.53v-1.94H212.8v1.94Zm-7.31.76v2h7.31v-2Z"/><path class="cls-1" d="M227.81,106a2.94,2.94,0,0,1-1.6,2.76l-.34-.56a2.46,2.46,0,0,0,1.22-2l-.24,0a.85.85,0,0,1-.59-.21.75.75,0,0,1-.23-.58.72.72,0,0,1,.23-.59.74.74,0,0,1,.59-.22C227.49,104.64,227.81,105.08,227.81,106Z"/><path class="cls-1" d="M248.43,93.23c0,1.19,0,2.36-.11,3.5a15,15,0,0,0,7,10.18l-.57.74a15.39,15.39,0,0,1-6.75-9,14.87,14.87,0,0,1-6.88,9l-.53-.77q6.69-4.17,6.93-11.07V93.23Z"/><path class="cls-1" d="M258.42,102.33a15.51,15.51,0,0,1-1.06,5.4l-.66-.6a15.46,15.46,0,0,0,.9-5.61V93.9h3.94v12.63a1.09,1.09,0,0,1-1.24,1.23h-1.12l-.2-.8c.38,0,.74.05,1.07.05s.65-.26.65-.77v-3.91Zm2.28-4.57v-3h-2.27v3Zm-2.27.81v2.93h2.27V98.57Zm3.92,1.06h3.19v.67a10.2,10.2,0,0,1-3.11,5.84l-.54-.72a9.26,9.26,0,0,0,2.85-5h-2.39Zm2.27,8.1-.22-.82,1.33,0c.44,0,.65-.27.65-.8v-9h-3.1v-.85h4v2a15,15,0,0,0,.54,1.64,8.94,8.94,0,0,0,2.47-2.57l.67.54a8.76,8.76,0,0,1-2.87,2.72,14,14,0,0,0,3.35,4.9l-.63.72a16.2,16.2,0,0,1-3.53-5.91v6.08c0,.88-.42,1.32-1.27,1.32Zm.12-14.45a18.82,18.82,0,0,1,4.16,1.61l-.32.8A19.47,19.47,0,0,0,264.35,94Z"/><path class="cls-1" d="M276.67,97.2a14.48,14.48,0,0,1-3,2.38l-.58-.65a14.79,14.79,0,0,0,3-2.32Zm3.84,4.78q-.33,3.06-1.47,4.11c-.83.89-2.65,1.44-5.46,1.67l-.35-.79q3.84-.23,5.09-1.39a5.69,5.69,0,0,0,1.31-3.68Zm-6.69-8.35a15,15,0,0,1,2.64,1.1l-.46.72a11,11,0,0,0-2.62-1.16Zm11.2,6.7v4.76h-.88v-3.94h-8.38v4h-.88v-4.85Zm-5-7.07a9.86,9.86,0,0,1-.46,1.12h6.57v.55a13,13,0,0,1-.8,2.32l-.83-.24a9,9,0,0,0,.74-1.84h-3a7.35,7.35,0,0,1-.32,1.16c.87,1.34,2.55,2.24,5,2.72l-.3.76c-2.41-.48-4.1-1.4-5.06-2.74a5.66,5.66,0,0,1-.77,1A8.35,8.35,0,0,1,277,99.77l-.34-.78a7.77,7.77,0,0,0,3.51-1.47,4.23,4.23,0,0,0,1.26-2.35h-2.33a7.72,7.72,0,0,1-1.6,1.63l-.53-.69a5.89,5.89,0,0,0,2.22-2.94Zm.93,11.83a31.42,31.42,0,0,1,5.68,2l-.47.72a30.9,30.9,0,0,0-5.66-2.11Z"/><path class="cls-1" d="M289.44,97.5a17,17,0,0,1,2.69,2.37l-.59.59a16.6,16.6,0,0,0-2.69-2.4Zm2.93,4.55a52.11,52.11,0,0,1-2.53,5.69l-.82-.35a44.39,44.39,0,0,0,2.6-5.63Zm-2.64-8.47a17.89,17.89,0,0,1,2.88,2.47l-.59.59a18.57,18.57,0,0,0-2.88-2.5Zm6,2.85h2.36a7.45,7.45,0,0,0,.5-1.71h-4.19v5a16.88,16.88,0,0,1-1.81,8l-.66-.57a15.53,15.53,0,0,0,1.64-7.46V93.93H303v.79h-3.61a8.91,8.91,0,0,1-.52,1.71h3.25v5.44h-2.75v4.74a1,1,0,0,1-1.12,1.15H296.9l-.18-.8q.82.06,1.23.06c.4,0,.59-.2.59-.61v-4.54H295.7Zm1.31,6.86A11.2,11.2,0,0,1,295.2,107l-.7-.44a10.37,10.37,0,0,0,1.71-3.4Zm-.53-4.48h4.85V97.13h-4.85Zm4.85,2.34V99.5h-4.85v1.65Zm.05,1.92a23.81,23.81,0,0,1,1.79,3.57l-.74.32a23.82,23.82,0,0,0-1.79-3.65Z"/><path class="cls-1" d="M312.22,92.94a17.21,17.21,0,0,1,.93,2h5.91v.85h-12v3.73a19.29,19.29,0,0,1-1.68,8.4l-.72-.66a17.2,17.2,0,0,0,1.53-7.74V95h6a15.6,15.6,0,0,0-1-1.87Z"/><path class="cls-1" d="M321.47,97.25A18.48,18.48,0,0,1,324,99.74l-.6.61a17.63,17.63,0,0,0-2.53-2.51Zm3,4.6a53.22,53.22,0,0,1-2.48,5.8l-.85-.37a46.66,46.66,0,0,0,2.56-5.75Zm-2.58-8.36a18.47,18.47,0,0,1,2.7,2.48l-.6.62a18,18,0,0,0-2.73-2.5Zm8,2.43c.22.62.47,1.42.73,2.41h3.54v.77a16,16,0,0,1-6.24,6.29,2.46,2.46,0,0,0,2,1.2l1.53,0c1.21,0,2.5,0,3.87-.05l-.17.87h-3.57c-.6,0-1.12,0-1.57,0a3.14,3.14,0,0,1-1.87-.66,4.3,4.3,0,0,1-1-1.21.52.52,0,0,0-.37-.24q-.52,0-1.47,2.4l-.67-.56c.74-1.86,1.46-2.79,2.18-2.79a.63.63,0,0,1,.46.21,2.32,2.32,0,0,1,.16.18,15.34,15.34,0,0,0,5.73-5.54h-7.33v-.85h3.9a18.52,18.52,0,0,0-.78-2.27Zm4.75-1.76a30.38,30.38,0,0,1-9.18,1.13l-.29-.78a32,32,0,0,0,9-1.09Z"/><path class="cls-1" d="M150.67,128.3H144v3.47h-.81v-8.68a20.71,20.71,0,0,1-3.36,3.39l-.55-.72a17.58,17.58,0,0,0,4.87-5.84h-4.45v-.83h4.85a19.42,19.42,0,0,0,.73-2l.88.09c-.18.61-.4,1.24-.65,1.88h8.09v.83h-8.46A19.82,19.82,0,0,1,144,122h7.55v8.64c0,.69-.4,1.05-1.21,1.07h-1.8l-.2-.78,1.72,0c.44,0,.66-.19.66-.58ZM144,122.8v2h6.66v-2Zm6.66,2.77H144v2h6.66Z"/><path class="cls-1" d="M157,123.25h5.18V120.4h-5.92v-.87h5.92v-2.3H163v2.3h6.07v.87H163v2.85h5.33v.86H163v2.83h6.45v.85H163v4h-.86v-4h-6.4v-.85h6.4v-2.83H157Z"/><path class="cls-1" d="M185.25,118.54v2.9h-.84v-2.11H172.73v2.11h-.83v-2.9h6.37a11.82,11.82,0,0,0-.62-1.28l.89-.16a10.73,10.73,0,0,1,.61,1.44Zm-1,7.73v5.54h-.83v-.63h-9.6v.64H173v-5.55Zm-10.54-5.73h9.77v.72h-9.77Zm.11,7.81h4.35V127h-4.35Zm0,2.11h4.35V129h-4.35Zm.56-8.14h8.45v2.93h-8.45Zm7.63,2.27V123h-6.81v1.6ZM179,127v1.38h4.39V127Zm0,3.49h4.39V129H179Z"/><path class="cls-1" d="M192.91,120.06v10.75h-.83v-1h-3.23v1.42H188v-11.2h1.44a14.79,14.79,0,0,0,.72-2.86l.88.11a13.7,13.7,0,0,1-.76,2.75Zm-4.06,4.4h3.23v-3.57h-3.23Zm0,4.58h3.23v-3.79h-3.23Zm12.35-9q0,7.69-.23,9.58a2,2,0,0,1-2.22,1.92l-1.57,0-.21-.8c.64,0,1.2.05,1.68.05.87,0,1.36-.48,1.49-1.43s.19-3.68.23-8.43h-4.72a13.26,13.26,0,0,1-1.62,2.8l-.51-.67a14.28,14.28,0,0,0,2.35-5.89l.85.1a20.91,20.91,0,0,1-.74,2.8Zm-5.57,3.6a26.79,26.79,0,0,1,2.78,3.52l-.68.49a25.84,25.84,0,0,0-2.81-3.56Z"/><path class="cls-1" d="M203.5,117.9H211v.8h-7.5Zm5,13.79-.21-.78,1.17.05c.33,0,.5-.16.5-.47v-5.37h-5.35v6.67h-.76v-7.42h6.89v6.28a.91.91,0,0,1-1,1Zm-4-11.76h5.6v3.3h-5.6Zm4.82,2.6v-1.88h-4v1.88Zm-4,5.42h2.2a15,15,0,0,0,.82-2.24l.64.24a16.82,16.82,0,0,1-.78,2h1.13v.69H207.6v3h-.74v-3h-1.61Zm.86-2.1a10,10,0,0,1,.81,1.76l-.59.16a10.41,10.41,0,0,0-.81-1.72Zm5.49-5.74h2.33v-2.85h.82v2.85h2.33v6.14h-2.33v3.91c.53-.11,1.13-.25,1.81-.42-.22-.75-.45-1.44-.69-2.09l.69-.23a28.8,28.8,0,0,1,1.23,4.07l-.74.19-.28-1.19q-2.39.6-5.22,1l-.19-.82c.89-.12,1.75-.24,2.57-.38v-4.07H211.6Zm2.36,5.38v-4.61h-1.59v4.61Zm2.37,0v-4.61h-1.61v4.61Z"/><path class="cls-1" d="M223.26,121.2a14.48,14.48,0,0,1-3,2.38l-.58-.65a14.79,14.79,0,0,0,3-2.32ZM227.1,126q-.33,3.06-1.47,4.11c-.83.89-2.65,1.44-5.46,1.67l-.35-.79q3.84-.22,5.09-1.39a5.69,5.69,0,0,0,1.31-3.68Zm-6.69-8.35a15,15,0,0,1,2.64,1.1l-.46.72a10.86,10.86,0,0,0-2.63-1.16Zm11.2,6.7v4.76h-.88v-3.94h-8.38v4h-.88v-4.85Zm-5-7.07a9.86,9.86,0,0,1-.46,1.12h6.57v.55a13,13,0,0,1-.8,2.32l-.83-.24a9,9,0,0,0,.74-1.84h-3a7.35,7.35,0,0,1-.32,1.16c.87,1.34,2.55,2.24,5,2.72l-.3.76c-2.41-.48-4.1-1.4-5.06-2.74a5.66,5.66,0,0,1-.77,1,8.35,8.35,0,0,1-3.82,1.72l-.34-.78a7.77,7.77,0,0,0,3.51-1.47,4.23,4.23,0,0,0,1.26-2.35h-2.33A7.53,7.53,0,0,1,224,120.8l-.52-.69a5.89,5.89,0,0,0,2.22-2.94Zm.93,11.83a31.42,31.42,0,0,1,5.68,2l-.47.72a30.9,30.9,0,0,0-5.66-2.11Z"/><path class="cls-1" d="M240.56,129.25a23.47,23.47,0,0,1-5.07,1.85l-.12-.85a22.54,22.54,0,0,0,5.19-1.8ZM239,117.57a26,26,0,0,1-2.54,5c.84-.1,1.71-.21,2.6-.34.43-.82.76-1.43,1-1.82l.8.28a34.45,34.45,0,0,1-3.92,6,23.36,23.36,0,0,0,3.65-1v.8a25.91,25.91,0,0,1-4.71,1.12l-.23-.8a1.66,1.66,0,0,0,.41-.26,18.46,18.46,0,0,0,2.56-3.6c-.56.09-1.55.22-3,.4l-.21-.8a1.17,1.17,0,0,0,.37-.3,24.16,24.16,0,0,0,2.37-5.1Zm2.16,7.07-.56-.71q4.63-1.77,6.42-5.07h-5.65V118h6.7v.69a10.25,10.25,0,0,1-1.85,2.71,24,24,0,0,1,3.58,2.72l-.61.62a23.84,23.84,0,0,0-3.53-2.8A14.54,14.54,0,0,1,241.18,124.64Zm3.59,1.84h-3.28v-.83h7.45v.83h-3.31v3.92h4.05v.86h-8.93v-.86h4Z"/><path class="cls-1" d="M254.75,127.85a20.57,20.57,0,0,1-3.57,1l-.11-.84a17.81,17.81,0,0,0,3.68-.94Zm.72-9h-3.95V118h4.81l-.75,6.58h1.06q0,5.31-.45,6.16a2,2,0,0,1-1.92.81l-1.14,0-.24-.77c.64.05,1,.08,1.2.08.8,0,1.29-.27,1.48-.8a23.69,23.69,0,0,0,.25-4.65h-4.09l.75-5.38.8,0-.66,4.53h2.13Zm6.26-1.52A13.19,13.19,0,0,0,266,122.8l-.48.72a13.41,13.41,0,0,1-4.19-5.36,14.31,14.31,0,0,1-4.16,5.39l-.45-.69a14.12,14.12,0,0,0,4.2-5.55Zm-4.56,13.07h5.24a43,43,0,0,0,1.72-6.51l.83.22a41.52,41.52,0,0,1-1.71,6.29h2.59v.83h-8.67Zm1.28-6a37.4,37.4,0,0,1,1.42,4.62l-.75.2a35,35,0,0,0-1.43-4.56Zm.7-2.42h4.43v.8h-4.43Zm1.76,2a34.16,34.16,0,0,1,1.22,4.4l-.76.19a36.47,36.47,0,0,0-1.21-4.34Z"/><path class="cls-1" d="M93.26,145.41v7.12h-.84v-6.29H84.25v6.4h-.86v-7.19a20.46,20.46,0,0,1-1.68,1.24l-.56-.66A15.22,15.22,0,0,0,86,141.2l.86.19c-.31.49-.58.91-.83,1.25h5.46v.67a14.6,14.6,0,0,1-1.9,2.1Zm-5.39,2h.83v2.16a5.56,5.56,0,0,1-1.61,4.06,11.37,11.37,0,0,1-5,2.23l-.48-.74a11.21,11.21,0,0,0,4.92-2,5,5,0,0,0,1.37-3.5Zm.71-2a14.42,14.42,0,0,0,1.85-2h-5a17.53,17.53,0,0,1-2,2Zm.51,6.81a30.87,30.87,0,0,1,5.82,2.85l-.48.75a26.35,26.35,0,0,0-5.79-2.94Z"/><path class="cls-1" d="M97.55,142.3h6v-1.07h.86v1.07h5.93v.75H104.4v1.28h5.12v.74H104.4v1.3h6.43v.75H97.1v-.75h6.44v-1.3H98.38v-.74h5.16v-1.28h-6Zm6.87,7.81a6,6,0,0,1-1.86,3.7,10.54,10.54,0,0,1-4.82,2l-.35-.82a10.06,10.06,0,0,0,4.48-1.74,4.83,4.83,0,0,0,1.68-3.2Zm4.33-1.84v4.66h-.85V149H100v4h-.85v-4.78Zm-4,4.26a30.14,30.14,0,0,1,5.79,2.64l-.48.75a30.07,30.07,0,0,0-5.79-2.71Z"/><path class="cls-1" d="M115.6,152.08a16.71,16.71,0,0,1-2.13,3.65l-.7-.5a14.19,14.19,0,0,0,2.09-3.52Zm3.68-10.9h.85v1.68h6.3v.82h-6.3V146h5.1v4.91H114.91V146h4.37Zm5.1,8.9V146.8h-8.61v3.28Zm-6.29,2.08a35,35,0,0,1,.88,3.49l-.88.2a21.09,21.09,0,0,0-.81-3.52Zm3.37-.15a29.91,29.91,0,0,1,1.27,3.6l-.86.21a20.26,20.26,0,0,0-1.21-3.63Zm3.35-.28a25.49,25.49,0,0,1,2.34,3.56l-.7.5a31.42,31.42,0,0,0-2.34-3.62Z"/><path class="cls-1" d="M130.75,144.88a17.2,17.2,0,0,1-1.58,1.61l-.45-.68a12.56,12.56,0,0,0,3.29-4.63l.8.21a10.92,10.92,0,0,1-.6,1.34H136a12.46,12.46,0,0,0-.69-1.45l.87-.16c.23.51.45,1,.65,1.61h5.28v.77h-5.2v1.28h4.64v.71h-4.64v1.24h4.64v.71h-4.64v1.36h5.49v.75h-11.6Zm-1.63,7V151h6.46v-1h.87v1h6.36v.82h-5.12a11.49,11.49,0,0,0,5.3,2.77l-.37.76a11.68,11.68,0,0,1-5.77-3.53h-.4v4h-.87v-4h-.43c-1,1.39-2.9,2.6-5.74,3.61l-.47-.75q4-1.24,5.39-2.86Zm6.89-7.06V143.5h-4.25l-.19.31v1Zm0,1.95v-1.24h-4.44v1.24Zm0,2.07v-1.36h-4.44v1.36Z"/><path class="cls-1" d="M147.69,145.15a12,12,0,0,1-2.43,3.71l-.57-.7a12.72,12.72,0,0,0,3.15-6.55l.88.18a18.87,18.87,0,0,1-.71,2.53h3.81v-3h.85v3h5.39v.83h-5.39v4h5.07V150h-5.07v4.37h6.42v.87h-14v-.87h6.75V150H147v-.84h4.81v-4Z"/><path class="cls-1" d="M168.42,141.17a15.65,15.65,0,0,1-.34,1.8h6.29v.85h-5.32q1.2,2.84,6.15,4.42l-.47.75q-5.34-1.87-6.54-5.17h-.38a7.92,7.92,0,0,1-1.44,2.48,3,3,0,0,1-.26.27,22.72,22.72,0,0,1,2.43,2l-.59.61a24.66,24.66,0,0,0-2.43-2.11A13.58,13.58,0,0,1,161,149l-.35-.82a10.21,10.21,0,0,0,5-2.48,6.64,6.64,0,0,0,1.22-1.92h-5.47V143h5.76a12.77,12.77,0,0,0,.38-1.9Zm-5.17,9.53a16,16,0,0,1-1.63,4.29l-.76-.46a13.18,13.18,0,0,0,1.54-4Zm3,4.75c-1,0-1.49-.47-1.49-1.4v-3.57h.87v3.39c0,.49.29.74.89.74H170a1,1,0,0,0,.8-.28,4.36,4.36,0,0,0,.43-2.19l.82.27a5,5,0,0,1-.62,2.64,1.71,1.71,0,0,1-1.25.4Zm1.95-5.5a17.28,17.28,0,0,1,1.47,2.74l-.8.36a18.33,18.33,0,0,0-1.45-2.84Zm4.75.32a24.84,24.84,0,0,1,2.05,3.87l-.8.37a24.4,24.4,0,0,0-2.1-4Z"/><path class="cls-1" d="M191.18,154.56l-.16.83h-4.77q-4.25,0-6.09-1.26a4.57,4.57,0,0,1-.66-.61,9.12,9.12,0,0,1-2,2.09l-.56-.72a7.3,7.3,0,0,0,2-2.06,11.46,11.46,0,0,1-1.55-3.49l.72-.27a13.09,13.09,0,0,0,1.25,3,11.26,11.26,0,0,0,1.06-4.4h-3V147a37.18,37.18,0,0,0,2.71-4.06h-2.82v-.83h3.79v.72a38.06,38.06,0,0,1-2.54,4h2.67v.55a11.82,11.82,0,0,1-1.33,5.42,4.15,4.15,0,0,0,.93.79,11.1,11.1,0,0,0,5,1Q187.53,154.62,191.18,154.56Zm-1.36-6.91H186.4v1.47h3.85v.75H186.4v1.58h4.3v.76h-4.3V154h-.86v-1.79h-3.73v-.76h3.73v-1.58h-3.25v-.75h3.25v-1.47h-2.92v-.77h2.92v-1.49h-3.7v-.74h3.7v-1.5h-2.92v-.75h2.92v-1.22h.86v1.22h3.42v2.25H191v.74h-1.17Zm-3.42-4.5v1.5H189v-1.5Zm0,2.24v1.49H189v-1.49Z"/><path class="cls-1" d="M192.72,146.22h3.18v7.36a24.75,24.75,0,0,0,2-1.79l.22.93a22.66,22.66,0,0,1-3.1,2.46l-.34-.78a.88.88,0,0,0,.31-.61v-6.72h-2.32Zm1.61-4.75a18.06,18.06,0,0,1,2.74,2.48l-.61.61a17,17,0,0,0-2.72-2.51Zm4.07,6.61h7.5v.8a9.17,9.17,0,0,1-2.67,4.05,16.5,16.5,0,0,0,4.18,2.14l-.47.74a18.09,18.09,0,0,1-4.33-2.36,14.74,14.74,0,0,1-4.8,2.36l-.48-.72a15.82,15.82,0,0,0,4.59-2.21,8.76,8.76,0,0,1-2.67-4h-.85Zm1.31-6.18h5.15v3.55a.56.56,0,0,0,.64.63H207v.8h-1.69c-.89,0-1.33-.43-1.33-1.28v-2.88h-3.42v.65a4.39,4.39,0,0,1-2.42,4l-.59-.65a3.55,3.55,0,0,0,2.14-3.24Zm.38,7a8,8,0,0,0,2.45,3.47,8.89,8.89,0,0,0,2.5-3.47Z"/><path class="cls-1" d="M210.72,152.11a12.43,12.43,0,0,1,1.78,1.55,14,14,0,0,1,1.34,1.6l-.63.53a15.11,15.11,0,0,0-1.32-1.58,12.84,12.84,0,0,0-1.73-1.57Z"/><path class="cls-1" d="M231.84,141.05a10.87,10.87,0,0,1,.67,1.59H239v.83H235.5a14.62,14.62,0,0,1-1,2.16h3.63v8.54q0,1.56-1.29,1.56h-1.62l-.22-.8,1.57,0q.72,0,.72-1v-7.59H226.66v9.27h-.85V145.63h3.45a10.11,10.11,0,0,0-1-2.16h-3.37v-.83h6.65c-.22-.54-.45-1-.67-1.44Zm-.79,6.42a14,14,0,0,1-3.47,2.9l-.54-.71a13.61,13.61,0,0,0,3.39-2.75Zm-2,2.59h5.71v3.73H229.1Zm4.44-4.43a17.91,17.91,0,0,0,1-2.16h-5.28a13.41,13.41,0,0,1,.88,2.16ZM234,153v-2.16h-4V153Zm-.58-6.13a22.32,22.32,0,0,1,3.38,2.88l-.64.62a20.63,20.63,0,0,0-3.32-2.93Z"/><path class="cls-1" d="M246.51,141.28a10.63,10.63,0,0,1-.69,1.33h7.09v.7a14.15,14.15,0,0,1-3.94,3.14,21,21,0,0,0,6.28,1.63l-.39.81a20.38,20.38,0,0,1-6.83-2,26.83,26.83,0,0,1-6.94,2l-.4-.8a25.42,25.42,0,0,0,6.43-1.68,20,20,0,0,1-2.79-2,11.85,11.85,0,0,1-2.16,1.6l-.52-.69a8.81,8.81,0,0,0,4-4.16Zm1.52,6.93a10.56,10.56,0,0,1-.18,1.95h5.7c0,2.64-.28,4.22-.74,4.72a3.13,3.13,0,0,1-2.43.78c-.48,0-1.06,0-1.76,0l-.22-.8c1,.05,1.56.07,1.79.07,1.07,0,1.73-.24,2-.64a8.62,8.62,0,0,0,.5-3.3h-5a7.06,7.06,0,0,1-.56,1.31q-1.28,2.16-5.63,3.56l-.58-.69q3.95-1.17,5.28-3a6.38,6.38,0,0,0,.56-1.17h-4.94v-.78H247a9.38,9.38,0,0,0,.21-1.95Zm3.65-4.79h-6.45a4.37,4.37,0,0,0-.32.39,15.43,15.43,0,0,0,3.14,2.19A14.45,14.45,0,0,0,251.68,143.42Z"/><path class="cls-1" d="M256.93,143.13h6.69a16,16,0,0,0-.9-1.95l.91-.16a15.85,15.85,0,0,1,.87,2.11H271V144H264.4v2.37h5.22v5.7c0,.92-.45,1.39-1.33,1.39H266.7l-.24-.83,1.54,0c.5,0,.75-.26.75-.79v-4.68H264.4v8.59h-.86v-8.59h-4.16v6.36h-.85v-7.18h5V144h-6.61Z"/><path class="cls-1" d="M272.81,145.73h2.05v-4.2h.87v4.2h2.12v.84h-2.12v5.94c.83-.25,1.56-.49,2.19-.74v.88a35.36,35.36,0,0,1-5.07,1.48l-.23-.9c.74-.13,1.49-.29,2.24-.48v-6.18h-2.05Zm5.88,1.93v-.8a45.66,45.66,0,0,0,5.63-3.85h-5.46v-.82h6.71V143a43.83,43.83,0,0,1-5.38,3.92h6.42a48.68,48.68,0,0,1-.48,7,2,2,0,0,1-2.12,1.65l-1.51,0-.25-.85c.73,0,1.27.07,1.64.07a1.43,1.43,0,0,0,1.37-1,31.91,31.91,0,0,0,.47-6.13h-1.4a12.81,12.81,0,0,1-1.71,4.69,11.23,11.23,0,0,1-3.74,3.23l-.55-.67a10.74,10.74,0,0,0,3.51-2.9,11.43,11.43,0,0,0,1.66-4.35H282a9,9,0,0,1-3.08,4.74l-.56-.67a8.19,8.19,0,0,0,2.81-4.07Z"/><path class="cls-1" d="M289.13,155.65l-.19-.84c.71.05,1.21.07,1.51.07a.74.74,0,0,0,.83-.83v-4.12c-.68.24-1.48.48-2.39.74l-.2-.83c.94-.23,1.8-.47,2.59-.74v-3.89h-2.34v-.84h2.34v-3.09h.85v3.09h2.06v.84h-2.06v3.59c.64-.25,1.33-.55,2.06-.9v.87c-.67.29-1.36.58-2.06.86v4.64a1.21,1.21,0,0,1-1.36,1.38Zm4.9-13.44H303v.86h-4.88a16.67,16.67,0,0,1-1.2,4.46h5.35v8.29h-.85V155H296.8v.81H296v-6.51a12.57,12.57,0,0,1-2.4,2.77l-.42-.8a12.46,12.46,0,0,0,4.12-8.21H294Zm7.36,12v-5.8H296.8v5.8Z"/><path class="cls-1" d="M306.94,150.86a16,16,0,0,1-1.68,4.95l-.68-.61a15.83,15.83,0,0,0,1.77-7.89v-5.42h11.58v3.6h-2.22v1.87h2.59v.8h-2.59v1.9h3.1v.8h-5.35a8,8,0,0,0,1.69,2.16,7.14,7.14,0,0,0,2.31-1.89l.59.6a7.48,7.48,0,0,1-2.23,1.82,9.21,9.21,0,0,0,3.49,1.49l-.4.8a9,9,0,0,1-6.32-5h-2.34v3.87a16.56,16.56,0,0,0,2.87-1l.16.8a27.34,27.34,0,0,1-4.08,1.19L309,155a.66.66,0,0,0,.45-.64v-3.49Zm1.15-3.5h2.42v-1.84h.85v1.84h3.49v-1.87h-7.62v1.82a20.94,20.94,0,0,1-.18,2.75h3.46v-1.9h-2.42Zm9-4.66h-9.84v2h9.84Zm-5.71,7.36h3.49v-1.9h-3.49Z"/><path class="cls-1" d="M154.86,17H162q6.12,0,6.12,5.21t-6.17,5.25h-4.44v6.67h-2.62Zm2.62,2.23v6h4.27a4.47,4.47,0,0,0,2.83-.72,2.8,2.8,0,0,0,.89-2.3,2.58,2.58,0,0,0-.91-2.26,4.44,4.44,0,0,0-2.81-.72Z"/><path class="cls-1" d="M179.9,22.71A4.87,4.87,0,0,1,181,26.17v7.91h-2.35V32.33a5.32,5.32,0,0,1-1.82,1.51,6.58,6.58,0,0,1-2.86.58,4.52,4.52,0,0,1-3.05-1,3.39,3.39,0,0,1-1.15-2.67,3.81,3.81,0,0,1,1.85-3.48,7.7,7.7,0,0,1,4.08-1l2.78,0V26c0-1.73-.93-2.6-2.8-2.6a3.55,3.55,0,0,0-2,.48,2.2,2.2,0,0,0-1,1.64h-2.52a4.36,4.36,0,0,1,1.87-3.27,6.81,6.81,0,0,1,3.81-.91A5.35,5.35,0,0,1,179.9,22.71Zm-1.4,5.54-2.61,0c-2.32,0-3.48.8-3.48,2.42a1.53,1.53,0,0,0,.55,1.22,2.33,2.33,0,0,0,1.61.48,4.29,4.29,0,0,0,2.85-1,3.27,3.27,0,0,0,1.08-2.54Z"/><path class="cls-1" d="M194.85,26.43v7.65H192.3V26.65c0-2.12-1-3.17-2.9-3.17a2.57,2.57,0,0,0-1.9.77,3.76,3.76,0,0,0-1,2.37v7.46h-2.54V21.68h2.54v1.53a4.77,4.77,0,0,1,1.66-1.39,4.33,4.33,0,0,1,2.09-.48C193.3,21.34,194.85,23,194.85,26.43Z"/><path class="cls-1" d="M206.68,16.61h2.54V34.08h-2.37V32.6A4.46,4.46,0,0,1,203,34.42a5.22,5.22,0,0,1-4.3-1.94,7.22,7.22,0,0,1-1.44-4.66,7,7,0,0,1,1.42-4.53,5,5,0,0,1,4.2-1.95,4.49,4.49,0,0,1,3.79,2.18Zm-6,8.07a5.26,5.26,0,0,0-.79,3.14,5.81,5.81,0,0,0,.74,3.19A3.33,3.33,0,0,0,206,31a5.42,5.42,0,0,0,.79-3.05v-.22a5.2,5.2,0,0,0-1-3.24,2.87,2.87,0,0,0-2.33-1.13A3.15,3.15,0,0,0,200.68,24.68Z"/><path class="cls-1" d="M219.47,21.65V24.2a6,6,0,0,0-1.8-.27,2.81,2.81,0,0,0-2.06.94,3.61,3.61,0,0,0-1,2.64v6.57H212.1V21.68h2.55v1.87a3.61,3.61,0,0,1,1.2-1.51,3,3,0,0,1,2-.7A3.72,3.72,0,0,1,219.47,21.65Z"/><path class="cls-1" d="M230.92,23.4a8.42,8.42,0,0,1,1.49,5.19H223a4.62,4.62,0,0,0,1,2.78,3.1,3.1,0,0,0,2.38,1,3.5,3.5,0,0,0,2.16-.62,4.13,4.13,0,0,0,1.13-1.61h2.54a5.67,5.67,0,0,1-1.7,2.9,6,6,0,0,1-4.11,1.42,5.66,5.66,0,0,1-4.34-1.7,6.72,6.72,0,0,1-1.73-4.85,6.76,6.76,0,0,1,1.63-4.63,5.36,5.36,0,0,1,4.35-1.9A5.45,5.45,0,0,1,230.92,23.4Zm-6.84.87a4.25,4.25,0,0,0-1,2.4h6.69c-.24-2.16-1.36-3.24-3.38-3.24A3.08,3.08,0,0,0,224.08,24.27Z"/><path class="cls-1" d="M244.19,22.71a4.87,4.87,0,0,1,1.13,3.46v7.91H243V32.33a5.46,5.46,0,0,1-1.83,1.51,6.5,6.5,0,0,1-2.85.58,4.51,4.51,0,0,1-3-1,3.36,3.36,0,0,1-1.15-2.67,3.81,3.81,0,0,1,1.84-3.48,7.7,7.7,0,0,1,4.08-1l2.79,0V26c0-1.73-.94-2.6-2.81-2.6a3.57,3.57,0,0,0-2,.48,2.25,2.25,0,0,0-1,1.64h-2.52a4.39,4.39,0,0,1,1.87-3.27,6.85,6.85,0,0,1,3.82-.91A5.32,5.32,0,0,1,244.19,22.71Zm-1.39,5.54-2.62,0c-2.32,0-3.48.8-3.48,2.42a1.56,1.56,0,0,0,.55,1.22,2.35,2.35,0,0,0,1.61.48,4.32,4.32,0,0,0,2.86-1,3.27,3.27,0,0,0,1.08-2.54Z"/><path class="cls-1" d="M68.33,56.23h5.33c3.06,0,4.59,1.31,4.59,3.91s-1.54,3.94-4.63,3.94H70.29v5h-2Zm2,1.68v4.5H73.5a3.35,3.35,0,0,0,2.12-.54,2.11,2.11,0,0,0,.67-1.73,1.91,1.91,0,0,0-.69-1.69,3.3,3.3,0,0,0-2.1-.54Z"/><path class="cls-1" d="M87.11,60.55a3.68,3.68,0,0,1,.84,2.6v5.93H86.19V67.77a4.14,4.14,0,0,1-1.37,1.13,5,5,0,0,1-2.14.44,3.39,3.39,0,0,1-2.29-.74,2.55,2.55,0,0,1-.86-2A2.85,2.85,0,0,1,80.92,64a5.71,5.71,0,0,1,3-.72l2.09,0V63c0-1.3-.7-1.94-2.1-1.94a2.61,2.61,0,0,0-1.52.36,1.62,1.62,0,0,0-.73,1.22H79.82a3.29,3.29,0,0,1,1.4-2.45,5,5,0,0,1,2.86-.68A4,4,0,0,1,87.11,60.55Zm-1,4.16-2,0c-1.74,0-2.61.6-2.61,1.82a1.15,1.15,0,0,0,.41.91,1.75,1.75,0,0,0,1.21.37,3.23,3.23,0,0,0,2.14-.73,2.44,2.44,0,0,0,.81-1.9Z"/><path class="cls-1" d="M98.32,63.34v5.74H96.41V63.5c0-1.58-.72-2.37-2.18-2.37a1.92,1.92,0,0,0-1.42.58A2.79,2.79,0,0,0,92,63.49v5.59H90.13v-9.3H92v1.15a3.62,3.62,0,0,1,1.24-1,3.25,3.25,0,0,1,1.57-.36Q98.32,59.53,98.32,63.34Z"/><path class="cls-1" d="M107.19,56h1.91v13.1h-1.78V68a3.34,3.34,0,0,1-2.88,1.37,3.91,3.91,0,0,1-3.22-1.46,5.43,5.43,0,0,1-1.08-3.49A5.3,5.3,0,0,1,101.2,61a3.78,3.78,0,0,1,3.15-1.45,3.33,3.33,0,0,1,2.84,1.64ZM102.69,62a4,4,0,0,0-.59,2.36,4.33,4.33,0,0,0,.56,2.39,2.49,2.49,0,0,0,4,0,4,4,0,0,0,.6-2.29v-.16a3.86,3.86,0,0,0-.72-2.43,2.16,2.16,0,0,0-1.75-.84A2.37,2.37,0,0,0,102.69,62Z"/><path class="cls-1" d="M116.79,59.76v1.91a4.64,4.64,0,0,0-1.35-.2,2.14,2.14,0,0,0-1.55.7,2.74,2.74,0,0,0-.72,2v4.93h-1.91v-9.3h1.91v1.4a2.79,2.79,0,0,1,.9-1.13,2.27,2.27,0,0,1,1.51-.52A2.67,2.67,0,0,1,116.79,59.76Z"/><path class="cls-1" d="M125.37,61.08A6.26,6.26,0,0,1,126.49,65h-7.06a3.44,3.44,0,0,0,.74,2.09,2.32,2.32,0,0,0,1.78.72,2.6,2.6,0,0,0,1.62-.47,3.06,3.06,0,0,0,.85-1.2h1.91a4.29,4.29,0,0,1-1.28,2.17A4.53,4.53,0,0,1,122,69.34a4.24,4.24,0,0,1-3.26-1.28,5.66,5.66,0,0,1-.07-7.11,4,4,0,0,1,3.26-1.42A4.06,4.06,0,0,1,125.37,61.08Zm-5.13.64a3.21,3.21,0,0,0-.77,1.8h5A2.36,2.36,0,0,0,122,61.09,2.31,2.31,0,0,0,120.24,61.72Z"/><path class="cls-1" d="M135.33,60.55a3.68,3.68,0,0,1,.84,2.6v5.93h-1.76V67.77A4,4,0,0,1,133,68.9a5,5,0,0,1-2.14.44,3.39,3.39,0,0,1-2.29-.74,2.55,2.55,0,0,1-.86-2A2.85,2.85,0,0,1,129.14,64a5.78,5.78,0,0,1,3.06-.72l2.08,0V63c0-1.3-.7-1.94-2.1-1.94a2.55,2.55,0,0,0-1.51.36,1.63,1.63,0,0,0-.74,1.22H128a3.29,3.29,0,0,1,1.4-2.45,5,5,0,0,1,2.86-.68A4,4,0,0,1,135.33,60.55Zm-1.05,4.16-2,0c-1.74,0-2.61.6-2.61,1.82a1.13,1.13,0,0,0,.42.91,1.71,1.71,0,0,0,1.2.37,3.23,3.23,0,0,0,2.14-.73,2.44,2.44,0,0,0,.81-1.9Z"/><path class="cls-1" d="M141.66,66.92a17.33,17.33,0,0,1-2.28,4l-1.41-1a16.17,16.17,0,0,0,2.27-3.68Zm3.48-12.49h1.69V56h6.86v1.6h-6.86v1.91h5.72v6.1H140.28v-6.1h4.86Zm5.7,9.61V61.13H142V64Zm-6.31,2.76c.36,1.14.68,2.39,1,3.76l-1.73.4a26.86,26.86,0,0,0-.85-3.82Zm3.74-.24a36.51,36.51,0,0,1,1.37,4l-1.69.4a23.3,23.3,0,0,0-1.28-4Zm3.6-.39A31.33,31.33,0,0,1,154.48,70l-1.42,1a31.22,31.22,0,0,0-2.56-4Z"/><path class="cls-1" d="M158.1,59.24c-.33.35-.72.74-1.17,1.19l-1-1.3a13.16,13.16,0,0,0,3.4-4.88l1.6.36a13.21,13.21,0,0,1-.54,1.26h3.46a11,11,0,0,0-.76-1.4l1.75-.29c.24.53.47,1.09.7,1.69h5.67v1.41h-5.58v.91h4.86v1.3h-4.86v.88h4.86v1.3h-4.86v.95h5.92V64H158.1Zm-1.64,7.47V65.14h7v-.72h1.69v.72h6.91v1.57h-4.93A14,14,0,0,0,172.3,69l-.74,1.51a13.09,13.09,0,0,1-6.15-3.78h-.24V71h-1.69V66.71h-.23q-1.71,2.24-6.09,3.85l-.9-1.46a15.4,15.4,0,0,0,5.26-2.39ZM164,58.19v-.91h-4.29v.91Zm0,2.18v-.88h-4.29v.88Zm0,2.25v-.95h-4.29v.95Z"/><path class="cls-1" d="M189.83,54.2a17.05,17.05,0,0,0-1.73,3.72,14.37,14.37,0,0,0-.79,4.68,14.57,14.57,0,0,0,.79,4.69A18.2,18.2,0,0,0,189.83,71h-1.6a15.28,15.28,0,0,1-1.94-3.67,13.86,13.86,0,0,1,0-9.45,14.06,14.06,0,0,1,1.94-3.69Z"/><path class="cls-1" d="M195.05,65.68a17.57,17.57,0,0,1-1.82,4.76l-1.4-.9a13.23,13.23,0,0,0,1.67-4.18Zm-2.91-5.85H194a12.46,12.46,0,0,0-.81-1.76l1.5-.56a16.63,16.63,0,0,1,.83,2.32h1.71c.28-.77.54-1.54.75-2.34l1.53.54a12.84,12.84,0,0,1-.74,1.8h1.84V61.4h-3.33V63h3v1.55h-3v4.8c0,1.09-.59,1.64-1.78,1.64h-.94l-.38-1.58a3.17,3.17,0,0,0,.76.11c.43,0,.65-.2.65-.58V64.57h-3.21V63h3.21V61.4h-3.49Zm.18-4.08h3.22a11.74,11.74,0,0,0-.78-1.33l1.77-.29a16,16,0,0,1,.68,1.62h3.33v1.58h-8.22Zm6.82,9.48a30.62,30.62,0,0,1,1.11,3.13l-1.44.54a24.8,24.8,0,0,0-1.08-3.29Zm9-9.25A19.63,19.63,0,0,1,203,57v2.92h5.58v1.63h-1.74V71H205.2V61.52H203v1.82a13.66,13.66,0,0,1-2.1,7.58l-1.21-1.29a11.69,11.69,0,0,0,1.66-6.29V55.57a17.21,17.21,0,0,0,6-1.1Z"/><path class="cls-1" d="M212.94,54.38h1.73v3h3.62q0,9.18-.27,11.34c-.18,1.37-1.07,2.05-2.68,2.05-.22,0-.69,0-1.41-.08l-.43-1.57c.69.06,1.21.09,1.57.09q1.13,0,1.35-1.26t.2-8.89h-2v.48q-.09,7.89-3.47,11.52l-1.39-1.22q3.08-3.19,3.13-10.3v-.48h-2.71V57.4h2.71Zm12.84,2V70.67H224.1V69.55h-2.77v1.12h-1.67V56.38ZM221.33,67.9h2.77V58h-2.77Z"/><path class="cls-1" d="M228,59h2V54.42h1.71V59h1.69v1.66H231.7V66l1.39-.54v1.7a34.6,34.6,0,0,1-4.83,1.6l-.43-1.73c.72-.14,1.44-.3,2.16-.49V60.63h-2Zm10.43-4.64h1.71v2.12h4.12v.81a16.12,16.12,0,0,1-.92,3.13l-1.6-.43a12.21,12.21,0,0,0,.74-1.94h-2.34v3.23h3v1.46A11.7,11.7,0,0,1,241,67.29a15.85,15.85,0,0,0,3.69,2.19l-.94,1.5a18.32,18.32,0,0,1-3.85-2.51,14.18,14.18,0,0,1-4.14,2.61l-1.1-1.33a13.15,13.15,0,0,0,4.07-2.45,10.26,10.26,0,0,1-2.38-4.46h-.54A15.75,15.75,0,0,1,233.45,71l-1.32-1.16a14.58,14.58,0,0,0,2.11-7.74V56.45h4.16Zm0,3.69h-2.58v3.23h2.58Zm3,4.82h-3.51a8.27,8.27,0,0,0,1.85,3.29A9.9,9.9,0,0,0,241.44,62.84Z"/><path class="cls-1" d="M248.31,54.2a15.77,15.77,0,0,1,1.95,3.69,13.86,13.86,0,0,1,0,9.45A16.47,16.47,0,0,1,248.31,71h-1.6a18.75,18.75,0,0,0,1.73-3.72,14.75,14.75,0,0,0,.79-4.69,14.46,14.46,0,0,0-.79-4.68,17.53,17.53,0,0,0-1.73-3.72Z"/><path class="cls-1" d="M268.74,64.23c-.45.31-.8.54-1,.68l-1.06-1.37v7.27H265V59.13h3.74a13.33,13.33,0,0,0-.84-1.85h-3.66V55.64h7.08a12.23,12.23,0,0,0-.52-1.21l1.89-.28c.09.24.27.73.52,1.49h7.09v1.64h-3.78a20.42,20.42,0,0,1-.88,1.85h3.87v9.61c0,1.41-.59,2.11-1.77,2.11h-1.83l-.43-1.55,1.72,0c.45,0,.67-.32.67-1V60.64H266.64v2.83a14,14,0,0,0,3.6-2.79l1.2,1.06a15.73,15.73,0,0,1-2.53,2.36h6.87v4.75h-7Zm5-5.1c.31-.57.6-1.19.88-1.85h-4.88a16.57,16.57,0,0,1,.72,1.85Zm.36,8.21V65.63H270.4v1.71Zm.05-6.68a26.65,26.65,0,0,1,3.65,3l-1.27,1.26A21.79,21.79,0,0,0,273,61.76Z"/><path class="cls-1" d="M289,54.5q-.3.69-.6,1.23h7.71v1.38a15.44,15.44,0,0,1-3.93,3.23,25.35,25.35,0,0,0,6.45,1.42l-.78,1.6a23.42,23.42,0,0,1-7.54-2.07,29,29,0,0,1-7.52,2.11l-.8-1.61a28.59,28.59,0,0,0,6.45-1.51,20,20,0,0,1-2.4-1.69,14,14,0,0,1-2,1.46L283,58.68a9.43,9.43,0,0,0,4.27-4.43Zm1.69,7.89a11.51,11.51,0,0,1-.15,1.84h6.21c0,3.15-.3,5-.81,5.65a3.28,3.28,0,0,1-2.66.93c-.53,0-1.27,0-2.23-.09l-.43-1.55,2.26.11c.92,0,1.49-.2,1.73-.57a8,8,0,0,0,.43-3h-4.87a9,9,0,0,1-.56,1.23q-1.35,2.43-6.34,4l-1.13-1.38q4.42-1.31,5.76-3.15a6.44,6.44,0,0,0,.39-.71h-5V64.23h5.58a10,10,0,0,0,.18-1.84Zm2.91-5.06h-6.31a.49.49,0,0,0-.11.13,16.82,16.82,0,0,0,3.11,2A15.48,15.48,0,0,0,293.58,57.33Z"/><path class="cls-1" d="M304.62,54.88A33.8,33.8,0,0,1,302,60.16c.67-.08,1.33-.16,2-.27.33-.62.66-1.26,1-1.93l1.57.58a43.1,43.1,0,0,1-3.8,6.12,23.82,23.82,0,0,0,3.35-1v1.55a26.38,26.38,0,0,1-5.44,1.42L300.24,65a2.58,2.58,0,0,0,.78-.49,17.5,17.5,0,0,0,2.14-3.11c-1,.14-1.89.27-2.72.37L300,60.25a1.91,1.91,0,0,0,.7-.63A34.68,34.68,0,0,0,303,54.23Zm1.47,13.39a26.93,26.93,0,0,1-5.81,2.17l-.23-1.66a26.56,26.56,0,0,0,6-2.09Zm1-5.32L306,61.54q4.84-1.76,6.73-4.91h-5.87V55h7.92v1.35A9.81,9.81,0,0,1,313,59.13a28,28,0,0,1,3.6,2.65L315.31,63a19.23,19.23,0,0,0-3.46-2.81A17.14,17.14,0,0,1,307.05,63Zm3.31,2.28H307V63.58h8.44v1.65h-3.36v3.44h4.19v1.67H306.2V68.67h4.16Z"/><path class="cls-1" d="M318.39,60.84h1.78V57h-2V55.39h5.77V57h-2v3.83h1.82V62.5H321.9V66c.8-.3,1.46-.56,2-.79v1.64a41.87,41.87,0,0,1-5.51,1.84l-.41-1.64c.81-.16,1.56-.33,2.23-.51V62.5h-1.78Zm6.41-5.92h8.91v8.62h-3.6v1.82h3.79v1.58h-3.79V68.8h4.37v1.64H324V68.8h4.37V66.94h-3.83V65.36h3.83V63.54H324.8Zm1.63,3.58h2V56.43h-2Zm2,3.53V60h-2V62Zm1.7-5.6V58.5h2V56.43Zm2,5.6V60h-2V62Z"/></svg>