<svg id="图层_1" data-name="图层 1" xmlns="http://www.w3.org/2000/svg" viewBox="0 0 440 275"><defs><style>.cls-1{fill:#33353c;}</style></defs><title>币网站中英文</title><path class="cls-1" d="M70.05,15.35h4.64q3.81,0,3.81,3.28t-3.83,3.29H71v4.85h-1Zm1,.86v4.85h3.6a3.35,3.35,0,0,0,2.19-.61,2.3,2.3,0,0,0,.69-1.82,2.26,2.26,0,0,0-.69-1.8,3.31,3.31,0,0,0-2.19-.62Z"/><path class="cls-1" d="M86.58,19.59a4.63,4.63,0,0,1,1,3.05,4.64,4.64,0,0,1-1,3,3.93,3.93,0,0,1-5.86,0,4.64,4.64,0,0,1-1-3,4.59,4.59,0,0,1,1-3.05,3.54,3.54,0,0,1,2.91-1.32A3.63,3.63,0,0,1,86.58,19.59Zm-5.15.6a3.88,3.88,0,0,0-.74,2.45,3.83,3.83,0,0,0,.74,2.43,2.83,2.83,0,0,0,4.46,0,4,4,0,0,0,.74-2.43,4,4,0,0,0-.74-2.45,2.84,2.84,0,0,0-4.46,0Z"/><path class="cls-1" d="M90.82,15.76a.68.68,0,0,1,.24.56.8.8,0,0,1-.26.58.83.83,0,0,1-.56.22.77.77,0,0,1-.57-.22.78.78,0,0,1-.24-.58.68.68,0,0,1,.24-.56.75.75,0,0,1,.57-.24A.78.78,0,0,1,90.82,15.76ZM89.76,18.5h1v8.27h-1Z"/><path class="cls-1" d="M99.94,21.68v5.09H99v-5c0-1.76-.79-2.64-2.35-2.64a2.19,2.19,0,0,0-1.67.72,2.9,2.9,0,0,0-.78,2v5h-1V18.5h1v1.36a3.4,3.4,0,0,1,1.12-1.17,2.9,2.9,0,0,1,1.57-.42C98.91,18.27,99.94,19.41,99.94,21.68Z"/><path class="cls-1" d="M104,15.83V18.5h2.16v.83H104v5.6a1.24,1.24,0,0,0,.2.78.9.9,0,0,0,.72.23h1v.83h-1.16a1.69,1.69,0,0,1-1.38-.5,2,2,0,0,1-.37-1.34v-5.6h-1.76V18.5H103V16.23Z"/><path class="cls-1" d="M114.43,16a3.63,3.63,0,0,1,1.28,2.69h-1a3.21,3.21,0,0,0-1-2,3.42,3.42,0,0,0-2.3-.69,4.22,4.22,0,0,0-2.18.48,1.74,1.74,0,0,0,.18,3.14,17.19,17.19,0,0,0,2.19.73,13.76,13.76,0,0,1,2.94,1.09,2.67,2.67,0,0,1,1.43,2.4,2.73,2.73,0,0,1-1.24,2.34,5.37,5.37,0,0,1-3.12.81,4.86,4.86,0,0,1-3.1-.89A4.13,4.13,0,0,1,107.09,23h1a3.46,3.46,0,0,0,1.12,2.4,3.82,3.82,0,0,0,2.45.71,4.65,4.65,0,0,0,2.45-.59,1.88,1.88,0,0,0,.92-1.62,2,2,0,0,0-1.16-1.82,12.2,12.2,0,0,0-2.52-.88,13.8,13.8,0,0,1-2.62-.92,2.33,2.33,0,0,1-1.31-2.14,2.53,2.53,0,0,1,1.23-2.27,5,5,0,0,1,2.85-.74A4.54,4.54,0,0,1,114.43,16Z"/><path class="cls-1" d="M123.81,19.6a5.73,5.73,0,0,1,.94,3.31H118a4,4,0,0,0,.82,2.39,2.61,2.61,0,0,0,2.05.86,2.8,2.8,0,0,0,1.82-.59,3,3,0,0,0,.88-1.46h1a3.82,3.82,0,0,1-1.11,2,3.67,3.67,0,0,1-2.57.91,3.54,3.54,0,0,1-2.79-1.18A4.58,4.58,0,0,1,117,22.63a4.59,4.59,0,0,1,1-3.06,3.79,3.79,0,0,1,5.74,0Zm-4.9.35a3.65,3.65,0,0,0-.86,2.18h5.7c-.16-2-1.12-3-2.87-3A2.49,2.49,0,0,0,118.91,20Z"/><path class="cls-1" d="M128.29,15.83V18.5h2.16v.83h-2.16v5.6a1.24,1.24,0,0,0,.19.78.92.92,0,0,0,.72.23h1v.83h-1.17a1.67,1.67,0,0,1-1.37-.5,2,2,0,0,1-.37-1.34v-5.6h-1.76V18.5h1.76V16.23Z"/><path class="cls-1" d="M143.78,19.59a4.63,4.63,0,0,1,1,3.05,4.64,4.64,0,0,1-1,3,3.93,3.93,0,0,1-5.86,0,4.64,4.64,0,0,1-1-3,4.54,4.54,0,0,1,1-3.05,3.54,3.54,0,0,1,2.91-1.32A3.63,3.63,0,0,1,143.78,19.59Zm-5.15.6a3.82,3.82,0,0,0-.74,2.45,3.77,3.77,0,0,0,.74,2.43,2.83,2.83,0,0,0,4.46,0,4,4,0,0,0,.73-2.43,4,4,0,0,0-.73-2.45,2.84,2.84,0,0,0-4.46,0Z"/><path class="cls-1" d="M151.31,15.35v.84h-1.39a1.14,1.14,0,0,0-.91.32,1.51,1.51,0,0,0-.29,1v1h4v-1a2.27,2.27,0,0,1,.5-1.58,2,2,0,0,1,1.57-.59h1.49v.84h-1.4a1.16,1.16,0,0,0-.92.32,1.48,1.48,0,0,0-.28,1v1h2.48v.83h-2.48v7.44h-1V19.33h-4v7.44h-1V19.33h-2.21V18.5h2.21v-1a2.19,2.19,0,0,1,.51-1.58,2,2,0,0,1,1.57-.59Z"/><path class="cls-1" d="M163.68,19.6a5.81,5.81,0,0,1,.95,3.31H157.9a4,4,0,0,0,.82,2.39,2.61,2.61,0,0,0,2.05.86,2.8,2.8,0,0,0,1.82-.59,3,3,0,0,0,.88-1.46h1a3.82,3.82,0,0,1-1.11,2,3.67,3.67,0,0,1-2.57.91A3.51,3.51,0,0,1,158,25.81a4.54,4.54,0,0,1-1.08-3.18,4.59,4.59,0,0,1,1-3.06,3.79,3.79,0,0,1,5.74,0Zm-4.9.35a3.65,3.65,0,0,0-.86,2.18h5.7c-.16-2-1.12-3-2.87-3A2.51,2.51,0,0,0,158.78,20Z"/><path class="cls-1" d="M170.83,18.45v1a4.26,4.26,0,0,0-1.26-.18,2,2,0,0,0-1.79,1,3.55,3.55,0,0,0-.66,2.16v4.37h-1V18.5h1v1.58a3.05,3.05,0,0,1,.91-1.23,2.4,2.4,0,0,1,1.6-.58A3.19,3.19,0,0,1,170.83,18.45Z"/><path class="cls-1" d="M178,20.82h-.94a2,2,0,0,0-.69-1.27,2.7,2.7,0,0,0-1.68-.44,2.74,2.74,0,0,0-1.49.36,1.17,1.17,0,0,0-.57,1,1.13,1.13,0,0,0,.73,1,10.51,10.51,0,0,0,1.75.58,8.38,8.38,0,0,1,2.14.77,1.86,1.86,0,0,1,1,1.66c0,1.68-1.12,2.51-3.36,2.51s-3.28-.94-3.47-2.83h.94a2.29,2.29,0,0,0,.77,1.57,2.87,2.87,0,0,0,1.73.43c1.6,0,2.4-.54,2.4-1.63a1.24,1.24,0,0,0-.82-1.15,11,11,0,0,0-1.84-.58,7.9,7.9,0,0,1-2-.73,1.76,1.76,0,0,1-1-1.59,1.85,1.85,0,0,1,.9-1.61,3.69,3.69,0,0,1,2.18-.6C176.7,18.27,177.8,19.12,178,20.82Z"/><path class="cls-1" d="M191.22,19.22a3.18,3.18,0,0,1,.73,2.22v5.33H191V25.19a4.29,4.29,0,0,1-1.34,1.23,4.23,4.23,0,0,1-2.16.57,3,3,0,0,1-2-.62,2.14,2.14,0,0,1-.75-1.71,2.45,2.45,0,0,1,1.29-2.31,5.67,5.67,0,0,1,2.77-.59H191v-.31a2.1,2.1,0,0,0-2.4-2.35,2.94,2.94,0,0,0-1.73.46A2,2,0,0,0,186,21h-1a2.92,2.92,0,0,1,1.17-2.08,4.11,4.11,0,0,1,2.4-.64A3.28,3.28,0,0,1,191.22,19.22ZM191,22.53l-2.06,0c-2.09,0-3.14.71-3.14,2.09a1.39,1.39,0,0,0,.53,1.12,2.1,2.1,0,0,0,1.41.43,3.41,3.41,0,0,0,2.3-.86,2.46,2.46,0,0,0,1-1.84Z"/><path class="cls-1" d="M205.25,20a3.18,3.18,0,0,1,1.1-1.26,2.59,2.59,0,0,1,1.51-.44,2.76,2.76,0,0,1,2.08.82,3.25,3.25,0,0,1,.75,2.27v5.41h-1V21.49a2.7,2.7,0,0,0-.48-1.76,2,2,0,0,0-1.65-.62,1.9,1.9,0,0,0-1.5.68,2.41,2.41,0,0,0-.61,1.72v5.26h-1V21.49c0-1.59-.69-2.38-2.06-2.38a1.9,1.9,0,0,0-1.55.75,2.66,2.66,0,0,0-.64,1.82v5.09h-1V18.5h1v1.25a2.67,2.67,0,0,1,2.4-1.48A2.5,2.5,0,0,1,205.25,20Z"/><path class="cls-1" d="M212.7,18.5h1v5.05a3,3,0,0,0,.55,1.94,2.19,2.19,0,0,0,1.77.67,2.31,2.31,0,0,0,1.68-.73,2.92,2.92,0,0,0,.82-1.91v-5h1v8.27h-1V25.38A3,3,0,0,1,215.73,27q-3,0-3-3.39Z"/><path class="cls-1" d="M227.36,19a3.15,3.15,0,0,1,1.14,2.21h-1a2.4,2.4,0,0,0-.84-1.57,2.75,2.75,0,0,0-1.76-.52,2.49,2.49,0,0,0-2.08,1,4,4,0,0,0-.75,2.58,4.07,4.07,0,0,0,.72,2.53,2.47,2.47,0,0,0,2.1.94,2.43,2.43,0,0,0,2.65-2.35h.95a3.74,3.74,0,0,1-1.19,2.38,3.51,3.51,0,0,1-2.41.8,3.45,3.45,0,0,1-2.85-1.24,4.64,4.64,0,0,1-.94-3.06,4.79,4.79,0,0,1,1-3.1,3.38,3.38,0,0,1,2.83-1.32A3.83,3.83,0,0,1,227.36,19Z"/><path class="cls-1" d="M230.06,15.12h1V20a3.15,3.15,0,0,1,1.15-1.29,2.93,2.93,0,0,1,1.57-.44,2.87,2.87,0,0,1,2.21.84,3.34,3.34,0,0,1,.8,2.38v5.28h-1V21.62a2.7,2.7,0,0,0-.61-1.87,2.28,2.28,0,0,0-1.71-.64,2.22,2.22,0,0,0-1.75.83,3,3,0,0,0-.7,2v4.78h-1Z"/><path class="cls-1" d="M250.22,20.82h-.94a2,2,0,0,0-.69-1.27,2.7,2.7,0,0,0-1.68-.44,2.74,2.74,0,0,0-1.49.36,1.17,1.17,0,0,0-.57,1,1.13,1.13,0,0,0,.73,1,10.86,10.86,0,0,0,1.75.58,8.23,8.23,0,0,1,2.14.77,1.86,1.86,0,0,1,1,1.66c0,1.68-1.12,2.51-3.36,2.51s-3.28-.94-3.47-2.83h1a2.24,2.24,0,0,0,.76,1.57,2.87,2.87,0,0,0,1.73.43c1.6,0,2.4-.54,2.4-1.63a1.24,1.24,0,0,0-.82-1.15,11.07,11.07,0,0,0-1.83-.58,7.86,7.86,0,0,1-2-.73,1.76,1.76,0,0,1-.94-1.59,1.84,1.84,0,0,1,.89-1.61,3.69,3.69,0,0,1,2.18-.6C248.89,18.27,250,19.12,250.22,20.82Z"/><path class="cls-1" d="M258.08,19.22a3.18,3.18,0,0,1,.74,2.22v5.33h-.92V25.19a4.29,4.29,0,0,1-1.34,1.23,4.2,4.2,0,0,1-2.16.57,3,3,0,0,1-2-.62,2.14,2.14,0,0,1-.75-1.71,2.44,2.44,0,0,1,1.3-2.31,5.6,5.6,0,0,1,2.76-.59h2.12v-.31a2.1,2.1,0,0,0-2.4-2.35,2.89,2.89,0,0,0-1.73.46,2,2,0,0,0-.85,1.44h-.94a2.88,2.88,0,0,1,1.16-2.08,4.11,4.11,0,0,1,2.4-.64A3.27,3.27,0,0,1,258.08,19.22Zm-.22,3.31-2.07,0c-2.09,0-3.14.71-3.14,2.09a1.39,1.39,0,0,0,.53,1.12,2.1,2.1,0,0,0,1.41.43,3.44,3.44,0,0,0,2.31-.86,2.46,2.46,0,0,0,1-1.84Z"/><path class="cls-1" d="M265.66,15.35v.84h-1.39a1.14,1.14,0,0,0-.91.32,1.51,1.51,0,0,0-.29,1v1h2.48v.83h-2.48v7.44h-1V19.33H259.9V18.5h2.21v-1a2.19,2.19,0,0,1,.51-1.58,2,2,0,0,1,1.57-.59Z"/><path class="cls-1" d="M273,19.6a5.73,5.73,0,0,1,.94,3.31h-6.72a4,4,0,0,0,.82,2.39,2.61,2.61,0,0,0,2.05.86,2.8,2.8,0,0,0,1.82-.59,3.12,3.12,0,0,0,.88-1.46h1a3.82,3.82,0,0,1-1.11,2,3.67,3.67,0,0,1-2.57.91,3.53,3.53,0,0,1-2.79-1.18,4.58,4.58,0,0,1-1.07-3.18,4.59,4.59,0,0,1,1-3.06,3.79,3.79,0,0,1,5.74,0Zm-4.9.35a3.65,3.65,0,0,0-.86,2.18H273c-.16-2-1.12-3-2.87-3A2.49,2.49,0,0,0,268.14,20Z"/><path class="cls-1" d="M280.19,18.45v1a4.31,4.31,0,0,0-1.26-.18,2,2,0,0,0-1.79,1,3.55,3.55,0,0,0-.66,2.16v4.37h-1V18.5h1v1.58a3.05,3.05,0,0,1,.91-1.23,2.4,2.4,0,0,1,1.6-.58A3.22,3.22,0,0,1,280.19,18.45Z"/><path class="cls-1" d="M283.26,26.5a2.94,2.94,0,0,1-1.6,2.77l-.35-.56a2.51,2.51,0,0,0,1.23-2l-.24,0a.87.87,0,0,1-.59-.21.74.74,0,0,1-.22-.57.82.82,0,0,1,.2-.6.85.85,0,0,1,.6-.22C282.94,25.17,283.26,25.61,283.26,26.5Z"/><path class="cls-1" d="M297,19.6a5.81,5.81,0,0,1,1,3.31h-6.72a3.89,3.89,0,0,0,.81,2.39,2.63,2.63,0,0,0,2.05.86,2.78,2.78,0,0,0,1.82-.59,3.14,3.14,0,0,0,.89-1.46h1a3.88,3.88,0,0,1-1.1,2,3.7,3.7,0,0,1-2.58.91,3.51,3.51,0,0,1-2.78-1.18,4.54,4.54,0,0,1-1.08-3.18,4.64,4.64,0,0,1,1-3.06,3.79,3.79,0,0,1,5.74,0Zm-4.89.35a3.73,3.73,0,0,0-.87,2.18H297c-.16-2-1.12-3-2.87-3A2.47,2.47,0,0,0,292.13,20Z"/><path class="cls-1" d="M305.58,19.22a3.18,3.18,0,0,1,.74,2.22v5.33h-.91V25.19A4.26,4.26,0,0,1,301.9,27a3,3,0,0,1-2-.62,2.14,2.14,0,0,1-.75-1.71,2.44,2.44,0,0,1,1.3-2.31,5.61,5.61,0,0,1,2.77-.59h2.11v-.31a2.1,2.1,0,0,0-2.4-2.35,2.91,2.91,0,0,0-1.73.46,2,2,0,0,0-.85,1.44h-.94a2.92,2.92,0,0,1,1.17-2.08,4.07,4.07,0,0,1,2.4-.64A3.24,3.24,0,0,1,305.58,19.22Zm-.22,3.31-2.07,0c-2.09,0-3.13.71-3.13,2.09a1.36,1.36,0,0,0,.53,1.12,2.09,2.09,0,0,0,1.4.43,3.42,3.42,0,0,0,2.31-.86,2.46,2.46,0,0,0,1-1.84Z"/><path class="cls-1" d="M314.45,20.82h-.95a1.91,1.91,0,0,0-.69-1.27,3.33,3.33,0,0,0-3.16-.08,1.16,1.16,0,0,0-.58,1,1.14,1.14,0,0,0,.74,1,10.65,10.65,0,0,0,1.74.58,8.23,8.23,0,0,1,2.14.77,1.85,1.85,0,0,1,1,1.66c0,1.68-1.12,2.51-3.36,2.51s-3.28-.94-3.48-2.83h.95a2.21,2.21,0,0,0,.77,1.57,2.83,2.83,0,0,0,1.72.43c1.6,0,2.4-.54,2.4-1.63a1.24,1.24,0,0,0-.81-1.15A11.29,11.29,0,0,0,311,22.8a8.17,8.17,0,0,1-2-.73,1.76,1.76,0,0,1-.94-1.59,1.86,1.86,0,0,1,.89-1.61,3.69,3.69,0,0,1,2.18-.6Q314.09,18.27,314.45,20.82Z"/><path class="cls-1" d="M317.76,15.76a.68.68,0,0,1,.24.56.8.8,0,0,1-.26.58.83.83,0,0,1-.56.22.75.75,0,0,1-.57-.22.78.78,0,0,1-.24-.58.68.68,0,0,1,.24-.56.73.73,0,0,1,.57-.24A.78.78,0,0,1,317.76,15.76ZM316.7,18.5h1v8.27h-1Z"/><path class="cls-1" d="M326.45,19.6a5.81,5.81,0,0,1,.94,3.31h-6.72a3.83,3.83,0,0,0,.82,2.39,2.61,2.61,0,0,0,2,.86,2.81,2.81,0,0,0,1.83-.59,3.12,3.12,0,0,0,.88-1.46h1a3.88,3.88,0,0,1-1.1,2,3.68,3.68,0,0,1-2.58.91,3.51,3.51,0,0,1-2.78-1.18,4.58,4.58,0,0,1-1.07-3.18,4.63,4.63,0,0,1,1-3.06,3.8,3.8,0,0,1,5.75,0Zm-4.9.35a3.65,3.65,0,0,0-.86,2.18h5.69c-.16-2-1.11-3-2.86-3A2.49,2.49,0,0,0,321.55,20Z"/><path class="cls-1" d="M333.6,18.45v1a4.38,4.38,0,0,0-1.27-.18,2.05,2.05,0,0,0-1.79,1,3.55,3.55,0,0,0-.65,2.16v4.37h-1V18.5h1v1.58a3,3,0,0,1,.91-1.23,2.4,2.4,0,0,1,1.6-.58A3.22,3.22,0,0,1,333.6,18.45Z"/><path class="cls-1" d="M346.09,19.22a3.18,3.18,0,0,1,.74,2.22v5.33h-.91V25.19a4.26,4.26,0,0,1-3.51,1.8,2.93,2.93,0,0,1-2-.62,2.12,2.12,0,0,1-.76-1.71,2.46,2.46,0,0,1,1.3-2.31,5.64,5.64,0,0,1,2.77-.59h2.11v-.31a2.1,2.1,0,0,0-2.4-2.35,2.91,2.91,0,0,0-1.73.46,2,2,0,0,0-.85,1.44H340a2.92,2.92,0,0,1,1.17-2.08,4.09,4.09,0,0,1,2.4-.64A3.24,3.24,0,0,1,346.09,19.22Zm-.22,3.31-2.06,0c-2.09,0-3.14.71-3.14,2.09a1.39,1.39,0,0,0,.53,1.12,2.1,2.1,0,0,0,1.41.43,3.41,3.41,0,0,0,2.3-.86,2.46,2.46,0,0,0,1-1.84Z"/><path class="cls-1" d="M355.57,21.68v5.09h-1v-5c0-1.76-.79-2.64-2.36-2.64a2.18,2.18,0,0,0-1.66.72,2.9,2.9,0,0,0-.78,2v5h-1V18.5h1v1.36a3.37,3.37,0,0,1,1.11-1.17,2.93,2.93,0,0,1,1.57-.42Q355.57,18.27,355.57,21.68Z"/><path class="cls-1" d="M363.82,15.12h1V26.77h-.91V25.14A3,3,0,0,1,361,27a3.36,3.36,0,0,1-2.8-1.31,5,5,0,0,1-.91-3.05,4.91,4.91,0,0,1,.91-3,3.26,3.26,0,0,1,2.76-1.33,3,3,0,0,1,2.89,2Zm-4.89,5a4,4,0,0,0-.69,2.48,4.19,4.19,0,0,0,.67,2.49,2.48,2.48,0,0,0,2.16,1.06,2.42,2.42,0,0,0,2.09-1,4,4,0,0,0,.69-2.4v-.19a4,4,0,0,0-.73-2.48,2.41,2.41,0,0,0-2-1A2.51,2.51,0,0,0,358.93,20.15Z"/><path class="cls-1" d="M68.43,43.12h1V54.77h-1Z"/><path class="cls-1" d="M78.25,47.59a5.1,5.1,0,0,1,0,6.09,3.93,3.93,0,0,1-5.86,0,4.64,4.64,0,0,1-1-3,4.59,4.59,0,0,1,1-3,3.55,3.55,0,0,1,2.91-1.32A3.63,3.63,0,0,1,78.25,47.59Zm-5.15.6a3.88,3.88,0,0,0-.74,2.45,3.83,3.83,0,0,0,.74,2.43,2.83,2.83,0,0,0,4.46,0,4,4,0,0,0,.74-2.43,4,4,0,0,0-.74-2.45,2.84,2.84,0,0,0-4.46,0Z"/><path class="cls-1" d="M80,46.5H81.1l2.24,7,2.08-7h.93l2.08,7,2.25-7h1.06L88.9,54.77H88l-2.08-7-2.11,7h-.92Z"/><path class="cls-1" d="M98.15,43.12h1v5.12a3,3,0,0,1,2.9-2,3.26,3.26,0,0,1,2.75,1.33,5.53,5.53,0,0,1,0,6.08A3.32,3.32,0,0,1,102,55a3,3,0,0,1-2.91-1.85v1.63h-.92Zm1.67,5a3.93,3.93,0,0,0-.74,2.48v.19a3.88,3.88,0,0,0,.69,2.4,2.42,2.42,0,0,0,2.1,1A2.52,2.52,0,0,0,104,53.12a4.27,4.27,0,0,0,.67-2.49,4,4,0,0,0-.69-2.48,2.52,2.52,0,0,0-2.18-1.06A2.37,2.37,0,0,0,99.82,48.08Z"/><path class="cls-1" d="M107.37,46.5h1v5a3,3,0,0,0,.54,1.94,2.22,2.22,0,0,0,1.78.67,2.31,2.31,0,0,0,1.68-.73,3,3,0,0,0,.82-1.91v-5h1v8.27h-1V53.38A3,3,0,0,1,110.39,55q-3,0-3-3.39Z"/><path class="cls-1" d="M122.36,43.12h1V54.77h-.91V53.14a3,3,0,0,1-2.9,1.85,3.36,3.36,0,0,1-2.8-1.31,5.53,5.53,0,0,1,0-6.08,3.26,3.26,0,0,1,2.76-1.33,3,3,0,0,1,2.89,2Zm-4.89,5a4,4,0,0,0-.69,2.48,4.19,4.19,0,0,0,.67,2.49,2.69,2.69,0,0,0,4.26,0,4.07,4.07,0,0,0,.68-2.4v-.19a4,4,0,0,0-.73-2.48,2.41,2.41,0,0,0-2-1A2.51,2.51,0,0,0,117.47,48.15Z"/><path class="cls-1" d="M131.71,48.16V46.5h.95v7.66c0,2.67-1.23,4-3.71,4a4,4,0,0,1-2.51-.7,3,3,0,0,1-1-2h1a2.14,2.14,0,0,0,.76,1.38,2.9,2.9,0,0,0,1.84.51q2.76,0,2.76-3.09V52.69a3.08,3.08,0,0,1-3,1.89A3.42,3.42,0,0,1,126,53.35a4.91,4.91,0,0,1,0-5.83,3.41,3.41,0,0,1,2.76-1.25A3.08,3.08,0,0,1,131.71,48.16Zm-5-.08a3.59,3.59,0,0,0-.74,2.35,3.69,3.69,0,0,0,.69,2.31,2.54,2.54,0,0,0,2.16,1,2.61,2.61,0,0,0,2.15-1,4.21,4.21,0,0,0,0-4.71,2.79,2.79,0,0,0-4.26,0Z"/><path class="cls-1" d="M141,47.6a5.73,5.73,0,0,1,.94,3.31h-6.72A4,4,0,0,0,136,53.3a2.61,2.61,0,0,0,2.05.86,2.8,2.8,0,0,0,1.82-.59,3.12,3.12,0,0,0,.88-1.46h1a3.82,3.82,0,0,1-1.11,2,3.67,3.67,0,0,1-2.57.91,3.53,3.53,0,0,1-2.79-1.18,5.16,5.16,0,0,1,0-6.24,3.79,3.79,0,0,1,5.74,0Zm-4.9.35a3.65,3.65,0,0,0-.86,2.18h5.69c-.16-2-1.11-3-2.86-3A2.49,2.49,0,0,0,136.07,48Z"/><path class="cls-1" d="M145.45,43.83V46.5h2.16v.83h-2.16v5.6a1.24,1.24,0,0,0,.19.78.92.92,0,0,0,.72.23h1v.83h-1.17a1.65,1.65,0,0,1-1.37-.5,2,2,0,0,1-.37-1.34v-5.6h-1.76V46.5h1.76V44.23Z"/><path class="cls-1" d="M160.3,47a3.11,3.11,0,0,1,1.13,2.21h-1a2.35,2.35,0,0,0-.83-1.57,2.77,2.77,0,0,0-1.76-.52,2.48,2.48,0,0,0-2.08,1,4.81,4.81,0,0,0,0,5.11,2.47,2.47,0,0,0,2.09.94,2.44,2.44,0,0,0,2.66-2.35h.95a3.74,3.74,0,0,1-1.19,2.38,3.53,3.53,0,0,1-2.42.8A3.44,3.44,0,0,1,155,53.75a4.65,4.65,0,0,1-1-3.06,4.79,4.79,0,0,1,1-3.1,3.38,3.38,0,0,1,2.83-1.32A3.85,3.85,0,0,1,160.3,47Z"/><path class="cls-1" d="M169.54,47.59a5.1,5.1,0,0,1,0,6.09,3.92,3.92,0,0,1-5.85,0,4.64,4.64,0,0,1-1-3,4.59,4.59,0,0,1,1-3,3.57,3.57,0,0,1,2.92-1.32A3.61,3.61,0,0,1,169.54,47.59Zm-5.15.6a3.88,3.88,0,0,0-.73,2.45,3.82,3.82,0,0,0,.73,2.43,2.84,2.84,0,0,0,4.47,0,4,4,0,0,0,.73-2.43,4,4,0,0,0-.73-2.45,2.85,2.85,0,0,0-4.47,0Z"/><path class="cls-1" d="M178.86,47.6a5.56,5.56,0,0,1,0,6.08A3.3,3.3,0,0,1,176.1,55a3,3,0,0,1-2.89-2v4.9h-1V46.5h.91v1.63a3,3,0,0,1,2.91-1.86A3.36,3.36,0,0,1,178.86,47.6Zm-5,.55a4,4,0,0,0-.68,2.44v.18a3.88,3.88,0,0,0,.73,2.45,2.44,2.44,0,0,0,2,1,2.56,2.56,0,0,0,2.17-1,4.17,4.17,0,0,0,.68-2.49,4.28,4.28,0,0,0-.66-2.5A2.51,2.51,0,0,0,176,47.09,2.44,2.44,0,0,0,173.86,48.15Z"/><path class="cls-1" d="M180.54,46.5h1.05l2.71,6.89L187,46.5H188l-4.56,11.44h-1l1.4-3.38Z"/><path class="cls-1" d="M193.78,46.45v1a4.26,4.26,0,0,0-1.26-.18,2,2,0,0,0-1.79,1,3.55,3.55,0,0,0-.66,2.16v4.37h-1V46.5h1v1.58a3.15,3.15,0,0,1,.91-1.23,2.42,2.42,0,0,1,1.6-.58A3.15,3.15,0,0,1,193.78,46.45Z"/><path class="cls-1" d="M196.41,43.76a.68.68,0,0,1,.24.56.8.8,0,0,1-.26.58.83.83,0,0,1-.56.22.75.75,0,0,1-.57-.22.78.78,0,0,1-.24-.58.68.68,0,0,1,.24-.56.73.73,0,0,1,.57-.24A.78.78,0,0,1,196.41,43.76Zm-1.06,2.74h1v8.27h-1Z"/><path class="cls-1" d="M205.18,48.16V46.5h1v7.66q0,4-3.72,4a4,4,0,0,1-2.51-.7,3,3,0,0,1-1-2h1a2.14,2.14,0,0,0,.76,1.38,2.9,2.9,0,0,0,1.84.51q2.76,0,2.76-3.09V52.69a3.08,3.08,0,0,1-3,1.89,3.43,3.43,0,0,1-2.77-1.23,4.91,4.91,0,0,1,0-5.83,3.42,3.42,0,0,1,2.77-1.25A3.08,3.08,0,0,1,205.18,48.16Zm-5-.08a3.59,3.59,0,0,0-.74,2.35,3.69,3.69,0,0,0,.69,2.31,2.54,2.54,0,0,0,2.16,1,2.61,2.61,0,0,0,2.15-1,4.21,4.21,0,0,0,0-4.71,2.79,2.79,0,0,0-4.26,0Z"/><path class="cls-1" d="M208.15,43.12h1V48a3.15,3.15,0,0,1,1.15-1.29,2.93,2.93,0,0,1,1.57-.44,2.89,2.89,0,0,1,2.21.84,3.34,3.34,0,0,1,.8,2.38v5.28h-1V49.62a2.75,2.75,0,0,0-.61-1.87,2.28,2.28,0,0,0-1.71-.64,2.21,2.21,0,0,0-1.75.83,3,3,0,0,0-.7,2.05v4.78h-1Z"/><path class="cls-1" d="M218.87,43.83V46.5H221v.83h-2.16v5.6a1.31,1.31,0,0,0,.19.78.92.92,0,0,0,.72.23h1v.83h-1.17a1.68,1.68,0,0,1-1.37-.5,2,2,0,0,1-.37-1.34v-5.6h-1.76V46.5h1.76V44.23Z"/><path class="cls-1" d="M234.42,47.6a5.53,5.53,0,0,1,0,6.08A3.31,3.31,0,0,1,231.67,55a3,3,0,0,1-2.89-2v4.9h-1V46.5h.91v1.63a3,3,0,0,1,2.91-1.86A3.34,3.34,0,0,1,234.42,47.6Zm-5,.55a4,4,0,0,0-.69,2.44v.18a3.88,3.88,0,0,0,.74,2.45,2.43,2.43,0,0,0,2,1,2.57,2.57,0,0,0,2.17-1,4.17,4.17,0,0,0,.67-2.49,4.28,4.28,0,0,0-.65-2.5,2.51,2.51,0,0,0-2.16-1.07A2.42,2.42,0,0,0,229.43,48.15Z"/><path class="cls-1" d="M241.7,46.45v1a4.26,4.26,0,0,0-1.26-.18,2,2,0,0,0-1.79,1A3.55,3.55,0,0,0,238,50.4v4.37h-1V46.5h1v1.58a3.15,3.15,0,0,1,.91-1.23,2.42,2.42,0,0,1,1.6-.58A3.15,3.15,0,0,1,241.7,46.45Z"/><path class="cls-1" d="M249.33,47.59a5.1,5.1,0,0,1,0,6.09,3.92,3.92,0,0,1-5.85,0,4.64,4.64,0,0,1-1-3,4.59,4.59,0,0,1,1-3,3.57,3.57,0,0,1,2.92-1.32A3.61,3.61,0,0,1,249.33,47.59Zm-5.15.6a3.88,3.88,0,0,0-.73,2.45,3.82,3.82,0,0,0,.73,2.43,2.84,2.84,0,0,0,4.47,0,4,4,0,0,0,.73-2.43,4,4,0,0,0-.73-2.45,2.85,2.85,0,0,0-4.47,0Z"/><path class="cls-1" d="M254,43.83V46.5h2.16v.83H254v5.6a1.24,1.24,0,0,0,.19.78.92.92,0,0,0,.72.23h1v.83h-1.17a1.65,1.65,0,0,1-1.37-.5,2,2,0,0,1-.37-1.34v-5.6h-1.76V46.5h1.76V44.23Z"/><path class="cls-1" d="M263.94,47.6a5.81,5.81,0,0,1,.95,3.31h-6.72A3.89,3.89,0,0,0,259,53.3a2.63,2.63,0,0,0,2,.86,2.78,2.78,0,0,0,1.82-.59,3.14,3.14,0,0,0,.89-1.46h1a3.88,3.88,0,0,1-1.1,2A3.7,3.7,0,0,1,261,55a3.51,3.51,0,0,1-2.78-1.18,4.54,4.54,0,0,1-1.08-3.18,4.64,4.64,0,0,1,1-3.06,3.79,3.79,0,0,1,5.74,0Zm-4.89.35a3.73,3.73,0,0,0-.87,2.18h5.7c-.16-2-1.12-3-2.87-3A2.47,2.47,0,0,0,259.05,48Z"/><path class="cls-1" d="M272.33,47a3.15,3.15,0,0,1,1.13,2.21h-1a2.35,2.35,0,0,0-.83-1.57,2.77,2.77,0,0,0-1.76-.52,2.48,2.48,0,0,0-2.08,1,4.81,4.81,0,0,0,0,5.11,2.47,2.47,0,0,0,2.1.94,2.43,2.43,0,0,0,2.65-2.35h.94a3.74,3.74,0,0,1-1.18,2.38,3.53,3.53,0,0,1-2.41.8,3.45,3.45,0,0,1-2.85-1.24,4.65,4.65,0,0,1-.95-3.06,4.79,4.79,0,0,1,1-3.1,3.38,3.38,0,0,1,2.83-1.32A3.85,3.85,0,0,1,272.33,47Z"/><path class="cls-1" d="M277,43.83V46.5h2.16v.83H277v5.6a1.24,1.24,0,0,0,.19.78.92.92,0,0,0,.72.23h1v.83h-1.16a1.67,1.67,0,0,1-1.38-.5,2,2,0,0,1-.37-1.34v-5.6h-1.76V46.5h1.76V44.23Z"/><path class="cls-1" d="M282.18,43.76a.68.68,0,0,1,.24.56.79.79,0,0,1-.25.58.83.83,0,0,1-.56.22.78.78,0,0,1-.58-.22.78.78,0,0,1-.24-.58.68.68,0,0,1,.24-.56.75.75,0,0,1,.58-.24A.78.78,0,0,1,282.18,43.76Zm-1.05,2.74h1v8.27h-1Z"/><path class="cls-1" d="M291.13,47.59a5.14,5.14,0,0,1,0,6.09,3.93,3.93,0,0,1-5.86,0,4.64,4.64,0,0,1-1-3,4.54,4.54,0,0,1,1-3,3.54,3.54,0,0,1,2.91-1.32A3.64,3.64,0,0,1,291.13,47.59Zm-5.16.6a3.88,3.88,0,0,0-.73,2.45,3.82,3.82,0,0,0,.73,2.43,2.84,2.84,0,0,0,4.47,0,4,4,0,0,0,.73-2.43,4,4,0,0,0-.73-2.45,2.85,2.85,0,0,0-4.47,0Z"/><path class="cls-1" d="M300.55,49.68v5.09h-1v-5c0-1.76-.78-2.64-2.35-2.64a2.2,2.2,0,0,0-1.67.72,2.94,2.94,0,0,0-.78,2v5h-1V46.5h1v1.36a3.4,3.4,0,0,1,1.12-1.17,2.9,2.9,0,0,1,1.57-.42Q300.55,46.27,300.55,49.68Z"/><path class="cls-1" d="M314,48.82h-.95a1.91,1.91,0,0,0-.69-1.27,3.33,3.33,0,0,0-3.16-.08,1.16,1.16,0,0,0-.58,1,1.14,1.14,0,0,0,.74,1,10.65,10.65,0,0,0,1.74.58,8.23,8.23,0,0,1,2.14.77,1.87,1.87,0,0,1,1,1.66c0,1.68-1.12,2.51-3.36,2.51s-3.28-.94-3.48-2.83h.95a2.21,2.21,0,0,0,.77,1.57,2.83,2.83,0,0,0,1.72.43c1.6,0,2.4-.54,2.4-1.63a1.24,1.24,0,0,0-.81-1.15,11.29,11.29,0,0,0-1.84-.58,8.17,8.17,0,0,1-2-.73,1.76,1.76,0,0,1-.94-1.59,1.86,1.86,0,0,1,.89-1.61,3.69,3.69,0,0,1,2.18-.6Q313.65,46.27,314,48.82Z"/><path class="cls-1" d="M314.85,46.5h1.06l2.7,6.89,2.68-6.89h1l-4.56,11.44h-1l1.39-3.38Z"/><path class="cls-1" d="M329.54,48.82h-.94a2,2,0,0,0-.69-1.27,2.7,2.7,0,0,0-1.68-.44,2.74,2.74,0,0,0-1.49.36,1.17,1.17,0,0,0-.57,1,1.13,1.13,0,0,0,.73,1,10.51,10.51,0,0,0,1.75.58,8.38,8.38,0,0,1,2.14.77,1.86,1.86,0,0,1,1,1.66c0,1.68-1.12,2.51-3.36,2.51s-3.28-.94-3.47-2.83h.94a2.29,2.29,0,0,0,.77,1.57,2.87,2.87,0,0,0,1.73.43c1.6,0,2.4-.54,2.4-1.63a1.24,1.24,0,0,0-.82-1.15,11,11,0,0,0-1.84-.58,7.9,7.9,0,0,1-2-.73,1.76,1.76,0,0,1-.95-1.59,1.85,1.85,0,0,1,.9-1.61,3.69,3.69,0,0,1,2.18-.6C328.21,46.27,329.31,47.12,329.54,48.82Z"/><path class="cls-1" d="M333.32,43.83V46.5h2.16v.83h-2.16v5.6a1.24,1.24,0,0,0,.19.78.92.92,0,0,0,.72.23h1v.83H334.1a1.65,1.65,0,0,1-1.37-.5,2,2,0,0,1-.37-1.34v-5.6H330.6V46.5h1.76V44.23Z"/><path class="cls-1" d="M343.22,47.6a5.81,5.81,0,0,1,.95,3.31h-6.72a3.89,3.89,0,0,0,.81,2.39,2.63,2.63,0,0,0,2.05.86,2.78,2.78,0,0,0,1.82-.59,3,3,0,0,0,.88-1.46h1a3.88,3.88,0,0,1-1.1,2,3.7,3.7,0,0,1-2.58.91,3.51,3.51,0,0,1-2.78-1.18,4.54,4.54,0,0,1-1.08-3.18,4.64,4.64,0,0,1,1-3.06,3.79,3.79,0,0,1,5.74,0Zm-4.89.35a3.66,3.66,0,0,0-.87,2.18h5.7c-.16-2-1.12-3-2.87-3A2.47,2.47,0,0,0,338.33,48Z"/><path class="cls-1" d="M351.65,48a3.2,3.2,0,0,1,1.11-1.26,2.53,2.53,0,0,1,1.5-.44,2.73,2.73,0,0,1,2.08.82,3.25,3.25,0,0,1,.75,2.27v5.41h-1V49.49a2.7,2.7,0,0,0-.48-1.76,2,2,0,0,0-1.64-.62,1.93,1.93,0,0,0-1.51.68,2.46,2.46,0,0,0-.61,1.72v5.26h-1V49.49c0-1.59-.69-2.38-2.07-2.38a1.91,1.91,0,0,0-1.55.75,2.66,2.66,0,0,0-.64,1.82v5.09h-1V46.5h1v1.25a2.69,2.69,0,0,1,2.4-1.48A2.49,2.49,0,0,1,351.65,48Z"/><path class="cls-1" d="M360.74,53.39A.73.73,0,0,1,361,54a.8.8,0,0,1-.25.58.83.83,0,0,1-.56.22.75.75,0,0,1-.58-.24.77.77,0,0,1-.24-.56.73.73,0,0,1,.24-.58.78.78,0,0,1,.58-.22A.81.81,0,0,1,360.74,53.39Z"/><path class="cls-1" d="M75.22,71.76a.68.68,0,0,1,.24.56.8.8,0,0,1-.26.58.83.83,0,0,1-.56.22.77.77,0,0,1-.57-.22.78.78,0,0,1-.24-.58.68.68,0,0,1,.24-.56.75.75,0,0,1,.57-.24A.78.78,0,0,1,75.22,71.76ZM74.16,74.5h1v8.27h-1Z"/><path class="cls-1" d="M84.34,77.68v5.09h-1v-5c0-1.76-.79-2.64-2.35-2.64a2.19,2.19,0,0,0-1.67.72,2.9,2.9,0,0,0-.78,2v5h-1V74.5h1v1.36a3.4,3.4,0,0,1,1.12-1.17,2.9,2.9,0,0,1,1.57-.42C83.31,74.27,84.34,75.41,84.34,77.68Z"/><path class="cls-1" d="M90.75,74.5h1.07l2.25,7,2.08-7h.92l2.08,7,2.26-7h1.06l-2.84,8.27h-.92l-2.08-7-2.12,7H93.6Z"/><path class="cls-1" d="M103.55,71.12h1V76a3.15,3.15,0,0,1,1.15-1.29,2.93,2.93,0,0,1,1.57-.44,2.89,2.89,0,0,1,2.21.84,3.34,3.34,0,0,1,.8,2.38v5.28h-1V77.62a2.75,2.75,0,0,0-.61-1.87,2.28,2.28,0,0,0-1.71-.64,2.21,2.21,0,0,0-1.75.83,3,3,0,0,0-.7,2v4.78h-1Z"/><path class="cls-1" d="M113.81,71.76a.68.68,0,0,1,.24.56.8.8,0,0,1-.26.58.81.81,0,0,1-.56.22.77.77,0,0,1-.57-.22.78.78,0,0,1-.24-.58.68.68,0,0,1,.24-.56.75.75,0,0,1,.57-.24A.78.78,0,0,1,113.81,71.76Zm-1.06,2.74h1v8.27h-1Z"/><path class="cls-1" d="M122.11,75a3.15,3.15,0,0,1,1.14,2.21h-1a2.43,2.43,0,0,0-.83-1.57,2.79,2.79,0,0,0-1.76-.52,2.47,2.47,0,0,0-2.08,1,4,4,0,0,0-.75,2.58,4.13,4.13,0,0,0,.71,2.53,2.49,2.49,0,0,0,2.1.94,2.44,2.44,0,0,0,2.66-2.35h.94a3.74,3.74,0,0,1-1.18,2.38,3.55,3.55,0,0,1-2.42.8,3.46,3.46,0,0,1-2.85-1.24,4.64,4.64,0,0,1-.94-3.06,4.74,4.74,0,0,1,1-3.1,3.37,3.37,0,0,1,2.83-1.32A3.82,3.82,0,0,1,122.11,75Z"/><path class="cls-1" d="M124.82,71.12h1V76A3.11,3.11,0,0,1,127,74.71a3.18,3.18,0,0,1,3.77.4,3.34,3.34,0,0,1,.8,2.38v5.28h-1V77.62a2.7,2.7,0,0,0-.61-1.87,2.25,2.25,0,0,0-1.71-.64,2.2,2.2,0,0,0-1.74.83,3,3,0,0,0-.71,2v4.78h-1Z"/><path class="cls-1" d="M144.77,75a3.11,3.11,0,0,1,1.13,2.21h-1a2.35,2.35,0,0,0-.83-1.57,2.77,2.77,0,0,0-1.76-.52,2.48,2.48,0,0,0-2.08,1,4.81,4.81,0,0,0,0,5.11,2.47,2.47,0,0,0,2.1.94A2.43,2.43,0,0,0,145,79.81h.95a3.74,3.74,0,0,1-1.19,2.38,3.53,3.53,0,0,1-2.41.8,3.45,3.45,0,0,1-2.85-1.24,4.65,4.65,0,0,1-1-3.06,4.79,4.79,0,0,1,1-3.1,3.38,3.38,0,0,1,2.83-1.32A3.85,3.85,0,0,1,144.77,75Z"/><path class="cls-1" d="M154,75.59a5.1,5.1,0,0,1,0,6.09,3.93,3.93,0,0,1-5.86,0,4.64,4.64,0,0,1-1-3,4.54,4.54,0,0,1,1-3,3.54,3.54,0,0,1,2.91-1.32A3.63,3.63,0,0,1,154,75.59Zm-5.16.6a3.88,3.88,0,0,0-.73,2.45,3.82,3.82,0,0,0,.73,2.43,2.84,2.84,0,0,0,4.47,0,4,4,0,0,0,.74-2.43,4,4,0,0,0-.74-2.45,2.85,2.85,0,0,0-4.47,0Z"/><path class="cls-1" d="M163.44,77.68v5.09h-1v-5c0-1.76-.78-2.64-2.35-2.64a2.2,2.2,0,0,0-1.67.72,2.9,2.9,0,0,0-.78,2v5h-1V74.5h1v1.36a3.4,3.4,0,0,1,1.12-1.17,2.9,2.9,0,0,1,1.57-.42Q163.45,74.27,163.44,77.68Z"/><path class="cls-1" d="M167.46,71.83V74.5h2.16v.83h-2.16v5.6a1.24,1.24,0,0,0,.19.78.92.92,0,0,0,.72.23h1v.83h-1.17a1.69,1.69,0,0,1-1.38-.5,2,2,0,0,1-.36-1.34v-5.6h-1.76V74.5h1.76V72.23Z"/><path class="cls-1" d="M177.36,75.6a5.81,5.81,0,0,1,.95,3.31h-6.73a4,4,0,0,0,.82,2.39,2.61,2.61,0,0,0,2,.86,2.8,2.8,0,0,0,1.82-.59,3,3,0,0,0,.88-1.46h1a3.82,3.82,0,0,1-1.11,2,3.67,3.67,0,0,1-2.57.91,3.54,3.54,0,0,1-2.79-1.18,5.16,5.16,0,0,1,0-6.24,3.79,3.79,0,0,1,5.74,0Zm-4.9.35a3.65,3.65,0,0,0-.86,2.18h5.7c-.16-2-1.12-3-2.87-3A2.51,2.51,0,0,0,172.46,76Z"/><path class="cls-1" d="M186.56,77.68v5.09h-1v-5c0-1.76-.78-2.64-2.35-2.64a2.2,2.2,0,0,0-1.67.72,2.9,2.9,0,0,0-.78,2v5h-1V74.5h1v1.36a3.4,3.4,0,0,1,1.12-1.17,2.9,2.9,0,0,1,1.57-.42Q186.57,74.27,186.56,77.68Z"/><path class="cls-1" d="M190.58,71.83V74.5h2.16v.83h-2.16v5.6a1.24,1.24,0,0,0,.19.78.92.92,0,0,0,.72.23h1v.83h-1.17a1.69,1.69,0,0,1-1.38-.5,2,2,0,0,1-.36-1.34v-5.6h-1.76V74.5h1.76V72.23Z"/><path class="cls-1" d="M205.89,76.16V74.5h1v7.66q0,4-3.71,4a4,4,0,0,1-2.52-.7,3,3,0,0,1-1.05-2h1a2.15,2.15,0,0,0,.77,1.38,2.88,2.88,0,0,0,1.84.51c1.83,0,2.75-1,2.75-3.09V80.69a3.08,3.08,0,0,1-3,1.89,3.45,3.45,0,0,1-2.77-1.23,4.91,4.91,0,0,1,0-5.83,3.43,3.43,0,0,1,2.77-1.25A3.08,3.08,0,0,1,205.89,76.16Zm-5-.08a3.59,3.59,0,0,0-.73,2.35,3.69,3.69,0,0,0,.68,2.31,2.54,2.54,0,0,0,2.16,1,2.6,2.6,0,0,0,2.15-1,4.21,4.21,0,0,0,0-4.71,2.79,2.79,0,0,0-4.26,0Z"/><path class="cls-1" d="M215.15,75.6a5.81,5.81,0,0,1,.95,3.31h-6.72a3.89,3.89,0,0,0,.81,2.39,2.63,2.63,0,0,0,2.05.86,2.78,2.78,0,0,0,1.82-.59,3,3,0,0,0,.88-1.46h1a3.88,3.88,0,0,1-1.1,2,3.72,3.72,0,0,1-2.58.91,3.51,3.51,0,0,1-2.78-1.18,4.54,4.54,0,0,1-1.08-3.18,4.64,4.64,0,0,1,1-3.06,3.79,3.79,0,0,1,5.74,0Zm-4.89.35a3.66,3.66,0,0,0-.87,2.18h5.7c-.16-2-1.12-3-2.87-3A2.47,2.47,0,0,0,210.26,76Z"/><path class="cls-1" d="M224.35,77.68v5.09h-1v-5c0-1.76-.78-2.64-2.35-2.64a2.17,2.17,0,0,0-1.66.72,3,3,0,0,0-.79,2v5h-1V74.5h1v1.36a3.4,3.4,0,0,1,1.12-1.17,2.9,2.9,0,0,1,1.57-.42Q224.36,74.27,224.35,77.68Z"/><path class="cls-1" d="M232.65,75.6a5.73,5.73,0,0,1,.95,3.31h-6.72a3.83,3.83,0,0,0,.82,2.39,2.61,2.61,0,0,0,2,.86,2.81,2.81,0,0,0,1.83-.59,3.21,3.21,0,0,0,.88-1.46h1a3.88,3.88,0,0,1-1.1,2,3.68,3.68,0,0,1-2.58.91A3.51,3.51,0,0,1,227,81.81a4.53,4.53,0,0,1-1.07-3.18,4.63,4.63,0,0,1,1-3.06,3.79,3.79,0,0,1,5.74,0Zm-4.89.35a3.65,3.65,0,0,0-.86,2.18h5.69c-.16-2-1.11-3-2.86-3A2.49,2.49,0,0,0,227.76,76Z"/><path class="cls-1" d="M239.81,74.45v1a4.38,4.38,0,0,0-1.27-.18,2.05,2.05,0,0,0-1.79,1,3.55,3.55,0,0,0-.66,2.16v4.37h-1V74.5h1v1.58a3.07,3.07,0,0,1,.92-1.23,2.4,2.4,0,0,1,1.6-.58A3.22,3.22,0,0,1,239.81,74.45Z"/><path class="cls-1" d="M247,75.22a3.18,3.18,0,0,1,.73,2.22v5.33h-.91V81.19a4.26,4.26,0,0,1-3.5,1.8,2.94,2.94,0,0,1-2-.62,2.12,2.12,0,0,1-.76-1.71,2.46,2.46,0,0,1,1.3-2.31,5.64,5.64,0,0,1,2.77-.59h2.11v-.31a2.1,2.1,0,0,0-2.4-2.35,2.91,2.91,0,0,0-1.73.46,1.94,1.94,0,0,0-.84,1.44h-.95A2.92,2.92,0,0,1,242,74.91a4.11,4.11,0,0,1,2.4-.64A3.28,3.28,0,0,1,247,75.22Zm-.23,3.31-2.06,0c-2.09,0-3.14.71-3.14,2.09a1.39,1.39,0,0,0,.53,1.12,2.1,2.1,0,0,0,1.41.43,3.41,3.41,0,0,0,2.3-.86,2.46,2.46,0,0,0,1-1.84Z"/><path class="cls-1" d="M251.73,71.83V74.5h2.16v.83h-2.16v5.6a1.24,1.24,0,0,0,.19.78.92.92,0,0,0,.72.23h1v.83h-1.17a1.65,1.65,0,0,1-1.37-.5,2,2,0,0,1-.37-1.34v-5.6H249V74.5h1.76V72.23Z"/><path class="cls-1" d="M261.89,75.59a5.1,5.1,0,0,1,0,6.09,3.93,3.93,0,0,1-5.86,0,4.64,4.64,0,0,1-1-3,4.54,4.54,0,0,1,1-3A3.54,3.54,0,0,1,259,74.27,3.64,3.64,0,0,1,261.89,75.59Zm-5.15.6a3.82,3.82,0,0,0-.74,2.45,3.77,3.77,0,0,0,.74,2.43A2.61,2.61,0,0,0,259,82.16a2.64,2.64,0,0,0,2.24-1.09,4,4,0,0,0,.74-2.43,4,4,0,0,0-.74-2.45,2.84,2.84,0,0,0-4.46,0Z"/><path class="cls-1" d="M269.26,74.45v1a4.26,4.26,0,0,0-1.26-.18,2,2,0,0,0-1.79,1,3.55,3.55,0,0,0-.66,2.16v4.37h-1V74.5h1v1.58a3.05,3.05,0,0,1,.91-1.23,2.4,2.4,0,0,1,1.6-.58A3.19,3.19,0,0,1,269.26,74.45Z"/><path class="cls-1" d="M276.46,76.82h-.94a2,2,0,0,0-.69-1.27,2.7,2.7,0,0,0-1.68-.44,2.74,2.74,0,0,0-1.49.36,1.17,1.17,0,0,0-.57,1,1.13,1.13,0,0,0,.73,1,10.86,10.86,0,0,0,1.75.58,8.38,8.38,0,0,1,2.14.77,1.86,1.86,0,0,1,1,1.66c0,1.68-1.12,2.51-3.36,2.51s-3.28-.94-3.47-2.83h.95a2.24,2.24,0,0,0,.76,1.57,2.87,2.87,0,0,0,1.73.43c1.6,0,2.4-.54,2.4-1.63a1.24,1.24,0,0,0-.82-1.15,11,11,0,0,0-1.84-.58,7.9,7.9,0,0,1-2-.73,1.76,1.76,0,0,1-1-1.59,1.85,1.85,0,0,1,.9-1.61,3.69,3.69,0,0,1,2.18-.6C275.13,74.27,276.23,75.12,276.46,76.82Z"/><path class="cls-1" d="M289.47,75a3.15,3.15,0,0,1,1.14,2.21h-1a2.4,2.4,0,0,0-.84-1.57,2.75,2.75,0,0,0-1.76-.52,2.49,2.49,0,0,0-2.08,1,4.81,4.81,0,0,0,0,5.11,2.47,2.47,0,0,0,2.1.94,2.43,2.43,0,0,0,2.65-2.35h.95a3.74,3.74,0,0,1-1.19,2.38A3.51,3.51,0,0,1,287,83a3.45,3.45,0,0,1-2.85-1.24,4.64,4.64,0,0,1-.94-3.06,4.79,4.79,0,0,1,1-3.1,3.38,3.38,0,0,1,2.83-1.32A3.83,3.83,0,0,1,289.47,75Z"/><path class="cls-1" d="M298.72,75.59a5.1,5.1,0,0,1,0,6.09,3.93,3.93,0,0,1-5.86,0,4.64,4.64,0,0,1-1-3,4.59,4.59,0,0,1,1-3,3.54,3.54,0,0,1,2.91-1.32A3.63,3.63,0,0,1,298.72,75.59Zm-5.15.6a3.82,3.82,0,0,0-.74,2.45,3.77,3.77,0,0,0,.74,2.43,2.83,2.83,0,0,0,4.46,0,4,4,0,0,0,.74-2.43,4,4,0,0,0-.74-2.45,2.84,2.84,0,0,0-4.46,0Z"/><path class="cls-1" d="M301.42,74.5h1v5a2.9,2.9,0,0,0,.55,1.94,2.19,2.19,0,0,0,1.77.67,2.31,2.31,0,0,0,1.68-.73,3,3,0,0,0,.82-1.91v-5h1v8.27h-1V81.38A3,3,0,0,1,304.45,83q-3,0-3-3.39Z"/><path class="cls-1" d="M310.48,71.12h1V82.77h-1Z"/><path class="cls-1" d="M320,71.12h1V82.77h-.91V81.14a3,3,0,0,1-2.9,1.85,3.35,3.35,0,0,1-2.8-1.31,5.53,5.53,0,0,1,0-6.08,3.26,3.26,0,0,1,2.75-1.33,3,3,0,0,1,2.9,2Zm-4.9,5a4,4,0,0,0-.69,2.48,4.19,4.19,0,0,0,.68,2.49,2.48,2.48,0,0,0,2.16,1.06,2.43,2.43,0,0,0,2.09-1,4,4,0,0,0,.69-2.4v-.19a4,4,0,0,0-.74-2.48,2.39,2.39,0,0,0-2-1A2.52,2.52,0,0,0,315.1,76.15Z"/><path class="cls-1" d="M328.3,71.12h1v5.12a3,3,0,0,1,2.9-2,3.26,3.26,0,0,1,2.75,1.33,5.53,5.53,0,0,1,0,6.08A3.32,3.32,0,0,1,332.13,83a3,3,0,0,1-2.92-1.85v1.63h-.91Zm1.67,5a3.93,3.93,0,0,0-.74,2.48v.19a3.88,3.88,0,0,0,.69,2.4,2.41,2.41,0,0,0,2.09,1,2.5,2.5,0,0,0,2.16-1.06,4.19,4.19,0,0,0,.68-2.49,4,4,0,0,0-.69-2.48A2.52,2.52,0,0,0,332,75.09,2.37,2.37,0,0,0,330,76.08Z"/><path class="cls-1" d="M337.52,74.5h1v5a3,3,0,0,0,.54,1.94,2.21,2.21,0,0,0,1.78.67,2.31,2.31,0,0,0,1.68-.73,2.92,2.92,0,0,0,.81-1.91v-5h1v8.27h-1V81.38A3,3,0,0,1,340.54,83q-3,0-3-3.39Z"/><path class="cls-1" d="M347.81,71.76a.68.68,0,0,1,.24.56.8.8,0,0,1-.26.58.83.83,0,0,1-.56.22.78.78,0,0,1-.58-.22.78.78,0,0,1-.24-.58.68.68,0,0,1,.24-.56.75.75,0,0,1,.58-.24A.8.8,0,0,1,347.81,71.76Zm-1.06,2.74h1v8.27h-1Z"/><path class="cls-1" d="M350.51,71.12h1V82.77h-1Z"/><path class="cls-1" d="M360,71.12h1V82.77h-.91V81.14a3,3,0,0,1-2.9,1.85,3.35,3.35,0,0,1-2.8-1.31,5.53,5.53,0,0,1,0-6.08,3.26,3.26,0,0,1,2.75-1.33,3,3,0,0,1,2.9,2Zm-4.9,5a4,4,0,0,0-.68,2.48,4.19,4.19,0,0,0,.67,2.49,2.48,2.48,0,0,0,2.16,1.06,2.43,2.43,0,0,0,2.09-1,4,4,0,0,0,.69-2.4v-.19a4,4,0,0,0-.74-2.48,2.39,2.39,0,0,0-2-1A2.54,2.54,0,0,0,355.13,76.15Z"/><path class="cls-1" d="M71.92,99.83v2.67h2.16v.83H71.92v5.6a1.31,1.31,0,0,0,.19.78.92.92,0,0,0,.72.23h1v.83H72.71a1.69,1.69,0,0,1-1.38-.5,2,2,0,0,1-.37-1.34v-5.6H69.2v-.83H71v-2.27Z"/><path class="cls-1" d="M75.54,99.12h1V104a3.17,3.17,0,0,1,1.16-1.29,2.93,2.93,0,0,1,1.57-.44,2.86,2.86,0,0,1,2.2.84,3.3,3.3,0,0,1,.8,2.38v5.28h-1v-5.15a2.7,2.7,0,0,0-.61-1.87,2.25,2.25,0,0,0-1.71-.64,2.2,2.2,0,0,0-1.74.83,3,3,0,0,0-.71,2v4.78h-1Z"/><path class="cls-1" d="M90.55,103.6a5.81,5.81,0,0,1,.94,3.31H84.77a3.89,3.89,0,0,0,.82,2.39,2.61,2.61,0,0,0,2,.86,2.81,2.81,0,0,0,1.83-.59,3.12,3.12,0,0,0,.88-1.46h1a3.88,3.88,0,0,1-1.1,2,3.68,3.68,0,0,1-2.58.91,3.51,3.51,0,0,1-2.78-1.18,4.58,4.58,0,0,1-1.07-3.18,4.63,4.63,0,0,1,1-3.06,3.8,3.8,0,0,1,5.75,0Zm-4.9.35a3.65,3.65,0,0,0-.86,2.18h5.69c-.16-2-1.11-3-2.86-3A2.49,2.49,0,0,0,85.65,104Z"/><path class="cls-1" d="M94.56,99.76a.68.68,0,0,1,.24.56.79.79,0,0,1-.25.58.83.83,0,0,1-.56.22.78.78,0,0,1-.58-.22.78.78,0,0,1-.24-.58.68.68,0,0,1,.24-.56.75.75,0,0,1,.58-.24A.78.78,0,0,1,94.56,99.76Zm-1,2.74h1v8.27h-1Z"/><path class="cls-1" d="M101.63,102.45v1a4.26,4.26,0,0,0-1.26-.18,2,2,0,0,0-1.79,1,3.55,3.55,0,0,0-.66,2.16v4.37H97V102.5h1v1.58a3.15,3.15,0,0,1,.91-1.23,2.42,2.42,0,0,1,1.6-.58A3.15,3.15,0,0,1,101.63,102.45Z"/><path class="cls-1" d="M108.05,102.5h1v5a3,3,0,0,0,.54,1.94,2.22,2.22,0,0,0,1.78.67,2.31,2.31,0,0,0,1.68-.73,2.92,2.92,0,0,0,.81-1.91v-5h1v8.27h-1v-1.39a3,3,0,0,1-2.75,1.61q-3,0-3-3.39Z"/><path class="cls-1" d="M123.52,105.68v5.09h-1v-5c0-1.76-.78-2.64-2.35-2.64a2.17,2.17,0,0,0-1.66.72,3,3,0,0,0-.79,2v5h-1V102.5h1v1.36a3.4,3.4,0,0,1,1.12-1.17,2.9,2.9,0,0,1,1.57-.42Q123.53,102.27,123.52,105.68Z"/><path class="cls-1" d="M127.07,99.76a.68.68,0,0,1,.24.56.79.79,0,0,1-.25.58.83.83,0,0,1-.56.22.78.78,0,0,1-.58-.22.78.78,0,0,1-.24-.58.68.68,0,0,1,.24-.56.75.75,0,0,1,.58-.24A.78.78,0,0,1,127.07,99.76Zm-1,2.74h1v8.27h-1Z"/><path class="cls-1" d="M135.76,104.13V102.5h.91v11.44h-1V109a3,3,0,0,1-2.89,1.95,3.2,3.2,0,0,1-2.75-1.31,5.46,5.46,0,0,1,0-6.08,3.29,3.29,0,0,1,2.78-1.33A3,3,0,0,1,135.76,104.13Zm-5,0a4.19,4.19,0,0,0-.65,2.5,4.06,4.06,0,0,0,.68,2.49,2.48,2.48,0,0,0,2.16,1,2.4,2.4,0,0,0,2-1,4,4,0,0,0,.73-2.45v-.18a4.07,4.07,0,0,0-.68-2.44,2.66,2.66,0,0,0-4.26,0Z"/><path class="cls-1" d="M138.69,102.5h1v5a3,3,0,0,0,.54,1.94,2.22,2.22,0,0,0,1.78.67,2.31,2.31,0,0,0,1.68-.73,3,3,0,0,0,.82-1.91v-5h.95v8.27h-.95v-1.39a3,3,0,0,1-2.76,1.61q-3,0-3-3.39Z"/><path class="cls-1" d="M153.73,103.6a5.73,5.73,0,0,1,.94,3.31H148a4,4,0,0,0,.82,2.39,2.61,2.61,0,0,0,2,.86,2.8,2.8,0,0,0,1.82-.59,3.12,3.12,0,0,0,.88-1.46h1a3.82,3.82,0,0,1-1.11,2,3.67,3.67,0,0,1-2.57.91,3.53,3.53,0,0,1-2.79-1.18,5.16,5.16,0,0,1,0-6.24,3.79,3.79,0,0,1,5.74,0Zm-4.9.35a3.65,3.65,0,0,0-.86,2.18h5.69c-.16-2-1.11-3-2.86-3A2.49,2.49,0,0,0,148.83,104Z"/><path class="cls-1" d="M167.78,99.12h1v11.65h-.92v-1.63a3,3,0,0,1-2.89,1.85,3.33,3.33,0,0,1-2.8-1.31,5.53,5.53,0,0,1,0-6.08,3.26,3.26,0,0,1,2.75-1.33,3,3,0,0,1,2.9,2Zm-4.9,5a4,4,0,0,0-.69,2.48,4.27,4.27,0,0,0,.67,2.49,2.5,2.5,0,0,0,2.16,1.06,2.44,2.44,0,0,0,2.1-1,4,4,0,0,0,.69-2.4v-.19a4,4,0,0,0-.74-2.48,2.39,2.39,0,0,0-2-1A2.52,2.52,0,0,0,162.88,104.15Z"/><path class="cls-1" d="M172.29,99.76a.68.68,0,0,1,.24.56.8.8,0,0,1-.26.58.83.83,0,0,1-.56.22.77.77,0,0,1-.57-.22.78.78,0,0,1-.24-.58.68.68,0,0,1,.24-.56.75.75,0,0,1,.57-.24A.78.78,0,0,1,172.29,99.76Zm-1.06,2.74h1v8.27h-1Z"/><path class="cls-1" d="M181.06,104.16V102.5h1v7.66q0,4-3.72,4a4,4,0,0,1-2.51-.7,3,3,0,0,1-1-2h1a2.14,2.14,0,0,0,.76,1.38,2.9,2.9,0,0,0,1.84.51q2.76,0,2.76-3.09v-1.58a3.08,3.08,0,0,1-3,1.89,3.43,3.43,0,0,1-2.77-1.23,4.91,4.91,0,0,1,0-5.83,3.42,3.42,0,0,1,2.77-1.25A3.08,3.08,0,0,1,181.06,104.16Zm-5-.08a3.59,3.59,0,0,0-.74,2.35,3.69,3.69,0,0,0,.69,2.31,2.54,2.54,0,0,0,2.16,1,2.61,2.61,0,0,0,2.15-1,4.21,4.21,0,0,0,0-4.71,2.79,2.79,0,0,0-4.26,0Z"/><path class="cls-1" d="M185.57,99.76a.68.68,0,0,1,.24.56.8.8,0,0,1-.26.58.83.83,0,0,1-.56.22.77.77,0,0,1-.57-.22.78.78,0,0,1-.24-.58.68.68,0,0,1,.24-.56.75.75,0,0,1,.57-.24A.78.78,0,0,1,185.57,99.76Zm-1.06,2.74h1v8.27h-1Z"/><path class="cls-1" d="M190,99.83v2.67h2.16v.83H190v5.6a1.24,1.24,0,0,0,.19.78.92.92,0,0,0,.72.23h1v.83h-1.17a1.65,1.65,0,0,1-1.37-.5,2,2,0,0,1-.37-1.34v-5.6h-1.76v-.83H189v-2.27Z"/><path class="cls-1" d="M199.66,103.22a3.18,3.18,0,0,1,.74,2.22v5.33h-.91v-1.58A4.26,4.26,0,0,1,196,111a2.93,2.93,0,0,1-2-.62,2.12,2.12,0,0,1-.76-1.71,2.46,2.46,0,0,1,1.3-2.31,5.64,5.64,0,0,1,2.77-.59h2.11v-.31a2.1,2.1,0,0,0-2.4-2.35,2.91,2.91,0,0,0-1.73.46,2,2,0,0,0-.85,1.44h-.94a2.92,2.92,0,0,1,1.17-2.08,4.09,4.09,0,0,1,2.4-.64A3.24,3.24,0,0,1,199.66,103.22Zm-.22,3.31-2.06,0c-2.09,0-3.14.71-3.14,2.09a1.39,1.39,0,0,0,.53,1.12,2.1,2.1,0,0,0,1.41.43,3.41,3.41,0,0,0,2.3-.86,2.46,2.46,0,0,0,1-1.84Z"/><path class="cls-1" d="M202.72,99.12h1v11.65h-1Z"/><path class="cls-1" d="M217.44,104.82h-.95a1.94,1.94,0,0,0-.68-1.27,3.35,3.35,0,0,0-3.17-.08,1.18,1.18,0,0,0-.58,1,1.14,1.14,0,0,0,.74,1,10.65,10.65,0,0,0,1.74.58,8.34,8.34,0,0,1,2.15.77,1.86,1.86,0,0,1,1,1.66c0,1.68-1.12,2.51-3.36,2.51s-3.28-.94-3.47-2.83h.94a2.25,2.25,0,0,0,.77,1.57,2.85,2.85,0,0,0,1.73.43c1.6,0,2.4-.54,2.4-1.63a1.24,1.24,0,0,0-.82-1.15,11.29,11.29,0,0,0-1.84-.58,7.9,7.9,0,0,1-2-.73,1.76,1.76,0,0,1-1-1.59,1.85,1.85,0,0,1,.9-1.61,3.66,3.66,0,0,1,2.17-.6C216.11,102.27,217.2,103.12,217.44,104.82Z"/><path class="cls-1" d="M220.75,99.76a.68.68,0,0,1,.24.56.79.79,0,0,1-.25.58.83.83,0,0,1-.57.22.77.77,0,0,1-.57-.22.78.78,0,0,1-.24-.58.68.68,0,0,1,.24-.56.75.75,0,0,1,.57-.24A.78.78,0,0,1,220.75,99.76Zm-1.05,2.74h1v8.27h-1Z"/><path class="cls-1" d="M229.52,104.16V102.5h1v7.66q0,4-3.71,4a4,4,0,0,1-2.52-.7,3,3,0,0,1-1.05-2h1a2.15,2.15,0,0,0,.77,1.38,2.88,2.88,0,0,0,1.84.51c1.83,0,2.75-1,2.75-3.09v-1.58a3.08,3.08,0,0,1-3,1.89,3.46,3.46,0,0,1-2.77-1.23,4.91,4.91,0,0,1,0-5.83,3.45,3.45,0,0,1,2.77-1.25A3.08,3.08,0,0,1,229.52,104.16Zm-5-.08a3.59,3.59,0,0,0-.73,2.35,3.75,3.75,0,0,0,.68,2.31,2.56,2.56,0,0,0,2.16,1,2.6,2.6,0,0,0,2.15-1,4.21,4.21,0,0,0,0-4.71,2.79,2.79,0,0,0-4.26,0Z"/><path class="cls-1" d="M239.22,105.68v5.09h-1v-5c0-1.76-.79-2.64-2.36-2.64a2.18,2.18,0,0,0-1.66.72,2.9,2.9,0,0,0-.78,2v5h-1V102.5h1v1.36a3.37,3.37,0,0,1,1.11-1.17,2.93,2.93,0,0,1,1.57-.42Q239.22,102.27,239.22,105.68Z"/><path class="cls-1" d="M247.31,103.22a3.18,3.18,0,0,1,.74,2.22v5.33h-.91v-1.58a4.33,4.33,0,0,1-1.35,1.23,4.2,4.2,0,0,1-2.16.57,3,3,0,0,1-2-.62,2.14,2.14,0,0,1-.75-1.71,2.44,2.44,0,0,1,1.3-2.31,5.61,5.61,0,0,1,2.77-.59h2.11v-.31a2.1,2.1,0,0,0-2.4-2.35,2.89,2.89,0,0,0-1.73.46,2,2,0,0,0-.85,1.44h-.94a2.88,2.88,0,0,1,1.16-2.08,4.12,4.12,0,0,1,2.41-.64A3.24,3.24,0,0,1,247.31,103.22Zm-.22,3.31-2.07,0c-2.09,0-3.13.71-3.13,2.09a1.38,1.38,0,0,0,.52,1.12,2.14,2.14,0,0,0,1.41.43,3.44,3.44,0,0,0,2.31-.86,2.46,2.46,0,0,0,1-1.84Z"/><path class="cls-1" d="M252.06,99.83v2.67h2.16v.83h-2.16v5.6a1.31,1.31,0,0,0,.19.78.94.94,0,0,0,.73.23h1v.83h-1.16a1.69,1.69,0,0,1-1.38-.5,2,2,0,0,1-.37-1.34v-5.6h-1.76v-.83h1.76v-2.27Z"/><path class="cls-1" d="M255.68,102.5h1v5a3,3,0,0,0,.54,1.94,2.22,2.22,0,0,0,1.78.67,2.31,2.31,0,0,0,1.68-.73,3,3,0,0,0,.82-1.91v-5h1v8.27h-1v-1.39A3,3,0,0,1,258.7,111q-3,0-3-3.39Z"/><path class="cls-1" d="M269.1,102.45v1a4.26,4.26,0,0,0-1.26-.18,2,2,0,0,0-1.79,1,3.55,3.55,0,0,0-.66,2.16v4.37h-1V102.5h1v1.58a3.05,3.05,0,0,1,.91-1.23,2.4,2.4,0,0,1,1.6-.58A3.19,3.19,0,0,1,269.1,102.45Z"/><path class="cls-1" d="M276.48,103.6a5.73,5.73,0,0,1,.94,3.31H270.7a4,4,0,0,0,.82,2.39,2.61,2.61,0,0,0,2.05.86,2.8,2.8,0,0,0,1.82-.59,3.12,3.12,0,0,0,.88-1.46h1a3.82,3.82,0,0,1-1.11,2,3.67,3.67,0,0,1-2.57.91,3.53,3.53,0,0,1-2.79-1.18,5.16,5.16,0,0,1,0-6.24,3.79,3.79,0,0,1,5.74,0Zm-4.9.35a3.65,3.65,0,0,0-.86,2.18h5.69c-.16-2-1.11-3-2.86-3A2.49,2.49,0,0,0,271.58,104Z"/><path class="cls-1" d="M280.59,109.39a.73.73,0,0,1,.24.58.82.82,0,0,1-.82.8.75.75,0,0,1-.57-.24.77.77,0,0,1-.24-.56.73.73,0,0,1,.24-.58.78.78,0,0,1,.57-.22A.82.82,0,0,1,280.59,109.39Z"/><path class="cls-1" d="M285.09,99.83v2.67h2.16v.83h-2.16v5.6a1.24,1.24,0,0,0,.19.78.92.92,0,0,0,.72.23h1v.83h-1.17a1.69,1.69,0,0,1-1.38-.5,2,2,0,0,1-.36-1.34v-5.6h-1.76v-.83h1.76v-2.27Z"/><path class="cls-1" d="M288.7,99.12h1V104a3.15,3.15,0,0,1,1.15-1.29,2.93,2.93,0,0,1,1.57-.44,2.89,2.89,0,0,1,2.21.84,3.34,3.34,0,0,1,.8,2.38v5.28h-1v-5.15a2.75,2.75,0,0,0-.61-1.87,2.28,2.28,0,0,0-1.71-.64,2.21,2.21,0,0,0-1.75.83,3,3,0,0,0-.7,2v4.78h-1Z"/><path class="cls-1" d="M303.71,103.6a5.73,5.73,0,0,1,.94,3.31h-6.72a4,4,0,0,0,.82,2.39,2.61,2.61,0,0,0,2.05.86,2.8,2.8,0,0,0,1.82-.59,3,3,0,0,0,.88-1.46h1a3.82,3.82,0,0,1-1.11,2,3.67,3.67,0,0,1-2.57.91,3.54,3.54,0,0,1-2.79-1.18,5.16,5.16,0,0,1,0-6.24,3.79,3.79,0,0,1,5.74,0Zm-4.9.35a3.65,3.65,0,0,0-.86,2.18h5.7c-.16-2-1.12-3-2.87-3A2.51,2.51,0,0,0,298.81,104Z"/><path class="cls-1" d="M316.19,102.45v1a4.31,4.31,0,0,0-1.26-.18,2.06,2.06,0,0,0-1.8,1,3.61,3.61,0,0,0-.65,2.16v4.37h-1V102.5h1v1.58a3.05,3.05,0,0,1,.91-1.23,2.4,2.4,0,0,1,1.6-.58A3.22,3.22,0,0,1,316.19,102.45Z"/><path class="cls-1" d="M323.57,103.6a5.81,5.81,0,0,1,.94,3.31h-6.72a3.83,3.83,0,0,0,.82,2.39,2.61,2.61,0,0,0,2,.86,2.81,2.81,0,0,0,1.83-.59,3.21,3.21,0,0,0,.88-1.46h1a3.88,3.88,0,0,1-1.1,2,3.68,3.68,0,0,1-2.58.91,3.51,3.51,0,0,1-2.78-1.18,4.53,4.53,0,0,1-1.07-3.18,4.63,4.63,0,0,1,1-3.06,3.8,3.8,0,0,1,5.75,0Zm-4.9.35a3.65,3.65,0,0,0-.86,2.18h5.69c-.16-2-1.11-3-2.86-3A2.49,2.49,0,0,0,318.67,104Z"/><path class="cls-1" d="M332,103a3.11,3.11,0,0,1,1.13,2.21h-.95a2.4,2.4,0,0,0-.84-1.57,2.75,2.75,0,0,0-1.76-.52,2.49,2.49,0,0,0-2.08,1,4.81,4.81,0,0,0,0,5.11,2.47,2.47,0,0,0,2.1.94,2.43,2.43,0,0,0,2.65-2.35h.95a3.74,3.74,0,0,1-1.19,2.38,3.51,3.51,0,0,1-2.41.8,3.45,3.45,0,0,1-2.85-1.24,4.64,4.64,0,0,1-.94-3.06,4.79,4.79,0,0,1,1-3.1,3.38,3.38,0,0,1,2.83-1.32A3.83,3.83,0,0,1,332,103Z"/><path class="cls-1" d="M341.2,103.59a5.1,5.1,0,0,1,0,6.09,3.93,3.93,0,0,1-5.86,0,4.64,4.64,0,0,1-1-3,4.54,4.54,0,0,1,1-3,3.54,3.54,0,0,1,2.91-1.32A3.63,3.63,0,0,1,341.2,103.59Zm-5.15.6a3.88,3.88,0,0,0-.74,2.45,3.83,3.83,0,0,0,.74,2.43,2.83,2.83,0,0,0,4.46,0,4,4,0,0,0,.74-2.43,4,4,0,0,0-.74-2.45,2.84,2.84,0,0,0-4.46,0Z"/><path class="cls-1" d="M348.57,102.45v1a4.26,4.26,0,0,0-1.26-.18,2,2,0,0,0-1.79,1,3.55,3.55,0,0,0-.66,2.16v4.37h-1V102.5h1v1.58a3.05,3.05,0,0,1,.91-1.23,2.4,2.4,0,0,1,1.6-.58A3.15,3.15,0,0,1,348.57,102.45Z"/><path class="cls-1" d="M355.9,99.12h1v11.65H356v-1.63a3,3,0,0,1-2.9,1.85,3.36,3.36,0,0,1-2.8-1.31,5.53,5.53,0,0,1,0-6.08,3.26,3.26,0,0,1,2.75-1.33,3,3,0,0,1,2.9,2Zm-4.9,5a4,4,0,0,0-.68,2.48,4.19,4.19,0,0,0,.67,2.49,2.48,2.48,0,0,0,2.16,1.06,2.42,2.42,0,0,0,2.09-1,4,4,0,0,0,.69-2.4v-.19a4,4,0,0,0-.73-2.48,2.41,2.41,0,0,0-2-1A2.54,2.54,0,0,0,351,104.15Z"/><path class="cls-1" d="M365,104.82H364a1.94,1.94,0,0,0-.68-1.27,3.35,3.35,0,0,0-3.17-.08,1.18,1.18,0,0,0-.58,1,1.14,1.14,0,0,0,.74,1,10.65,10.65,0,0,0,1.74.58,8.34,8.34,0,0,1,2.15.77,1.86,1.86,0,0,1,1,1.66c0,1.68-1.12,2.51-3.36,2.51s-3.28-.94-3.47-2.83h.94a2.25,2.25,0,0,0,.77,1.57,2.85,2.85,0,0,0,1.73.43c1.6,0,2.4-.54,2.4-1.63a1.24,1.24,0,0,0-.82-1.15,11.29,11.29,0,0,0-1.84-.58,7.9,7.9,0,0,1-2-.73,1.76,1.76,0,0,1-.95-1.59,1.85,1.85,0,0,1,.9-1.61,3.66,3.66,0,0,1,2.17-.6Q364.63,102.27,365,104.82Z"/><path class="cls-1" d="M65.51,131a3.15,3.15,0,0,1,1.13,2.21h-1a2.35,2.35,0,0,0-.83-1.57,2.77,2.77,0,0,0-1.76-.52,2.48,2.48,0,0,0-2.08,1,4.81,4.81,0,0,0,0,5.11,2.47,2.47,0,0,0,2.09.94,2.44,2.44,0,0,0,2.66-2.35h.94a3.74,3.74,0,0,1-1.18,2.38,3.53,3.53,0,0,1-2.42.8,3.44,3.44,0,0,1-2.84-1.24,4.65,4.65,0,0,1-.95-3.06,4.79,4.79,0,0,1,1-3.1,3.38,3.38,0,0,1,2.83-1.32A3.85,3.85,0,0,1,65.51,131Z"/><path class="cls-1" d="M74.75,131.59a5.1,5.1,0,0,1,0,6.09,3.92,3.92,0,0,1-5.85,0,4.64,4.64,0,0,1-1-3,4.59,4.59,0,0,1,1-3,3.57,3.57,0,0,1,2.92-1.32A3.61,3.61,0,0,1,74.75,131.59Zm-5.15.6a3.88,3.88,0,0,0-.73,2.45,3.82,3.82,0,0,0,.73,2.43,2.84,2.84,0,0,0,4.47,0,4,4,0,0,0,.73-2.43,4,4,0,0,0-.73-2.45,2.85,2.85,0,0,0-4.47,0Z"/><path class="cls-1" d="M77.46,130.5h1v5.05a3,3,0,0,0,.54,1.94,2.22,2.22,0,0,0,1.78.67,2.31,2.31,0,0,0,1.68-.73,3,3,0,0,0,.82-1.91v-5h1v8.27h-1v-1.39A3,3,0,0,1,80.48,139q-3,0-3-3.39Z"/><path class="cls-1" d="M86.51,127.12h1v11.65h-1Z"/><path class="cls-1" d="M96,127.12h1v11.65h-.91v-1.63A3,3,0,0,1,93.19,139a3.33,3.33,0,0,1-2.8-1.31,5.48,5.48,0,0,1,0-6.08,3.26,3.26,0,0,1,2.75-1.33,3,3,0,0,1,2.89,2Zm-4.89,5a4,4,0,0,0-.69,2.48,4.19,4.19,0,0,0,.67,2.49,2.48,2.48,0,0,0,2.16,1.06,2.44,2.44,0,0,0,2.1-1,4,4,0,0,0,.69-2.4v-.19a4,4,0,0,0-.74-2.48,2.4,2.4,0,0,0-2-1A2.52,2.52,0,0,0,91.14,132.15Z"/><path class="cls-1" d="M111.06,133.68v5.09h-1v-5c0-1.76-.79-2.64-2.35-2.64a2.19,2.19,0,0,0-1.67.72,2.9,2.9,0,0,0-.78,1.95v5h-1V130.5h1v1.36a3.4,3.4,0,0,1,1.12-1.17,2.9,2.9,0,0,1,1.57-.42C110,130.27,111.06,131.41,111.06,133.68Z"/><path class="cls-1" d="M119.62,131.59a5.1,5.1,0,0,1,0,6.09,3.93,3.93,0,0,1-5.86,0,4.64,4.64,0,0,1-1-3,4.59,4.59,0,0,1,1-3,3.54,3.54,0,0,1,2.91-1.32A3.63,3.63,0,0,1,119.62,131.59Zm-5.15.6a3.88,3.88,0,0,0-.74,2.45,3.83,3.83,0,0,0,.74,2.43,2.83,2.83,0,0,0,4.46,0,4,4,0,0,0,.74-2.43,4,4,0,0,0-.74-2.45,2.84,2.84,0,0,0-4.46,0Z"/><path class="cls-1" d="M124.32,127.83v2.67h2.16v.83h-2.16v5.6a1.31,1.31,0,0,0,.19.78.92.92,0,0,0,.72.23h1v.83h-1.16a1.69,1.69,0,0,1-1.38-.5,2,2,0,0,1-.37-1.34v-5.6H121.6v-.83h1.76v-2.27Z"/><path class="cls-1" d="M133.27,127.12h1v5.12a3,3,0,0,1,2.89-2,3.24,3.24,0,0,1,2.75,1.33,5.48,5.48,0,0,1,0,6.08,3.32,3.32,0,0,1-2.78,1.31,3,3,0,0,1-2.91-1.85v1.63h-.91Zm1.66,5a3.93,3.93,0,0,0-.74,2.48v.19a3.88,3.88,0,0,0,.69,2.4,2.42,2.42,0,0,0,2.1,1,2.5,2.5,0,0,0,2.16-1.06,4.19,4.19,0,0,0,.67-2.49,4,4,0,0,0-.69-2.48,2.52,2.52,0,0,0-2.17-1.06A2.37,2.37,0,0,0,134.93,132.08Z"/><path class="cls-1" d="M148.77,131.6a5.73,5.73,0,0,1,.94,3.31H143a4,4,0,0,0,.82,2.39,2.61,2.61,0,0,0,2.05.86,2.8,2.8,0,0,0,1.82-.59,3,3,0,0,0,.88-1.46h1a3.82,3.82,0,0,1-1.11,2,3.67,3.67,0,0,1-2.57.91,3.54,3.54,0,0,1-2.79-1.18,5.16,5.16,0,0,1,0-6.24,3.79,3.79,0,0,1,5.74,0Zm-4.9.35a3.65,3.65,0,0,0-.86,2.18h5.7c-.16-2-1.12-3-2.87-3A2.49,2.49,0,0,0,143.87,132Z"/><path class="cls-1" d="M162.82,127.12h1v11.65h-.91v-1.63A3,3,0,0,1,160,139a3.35,3.35,0,0,1-2.8-1.31,5.53,5.53,0,0,1,0-6.08,3.26,3.26,0,0,1,2.75-1.33,3,3,0,0,1,2.9,2Zm-4.9,5a4,4,0,0,0-.69,2.48,4.27,4.27,0,0,0,.67,2.49,2.51,2.51,0,0,0,2.17,1.06,2.43,2.43,0,0,0,2.09-1,4,4,0,0,0,.69-2.4v-.19a4,4,0,0,0-.74-2.48,2.39,2.39,0,0,0-2-1A2.52,2.52,0,0,0,157.92,132.15Z"/><path class="cls-1" d="M167.33,127.76a.68.68,0,0,1,.24.56.8.8,0,0,1-.26.58.81.81,0,0,1-.56.22.77.77,0,0,1-.57-.22.78.78,0,0,1-.24-.58.68.68,0,0,1,.24-.56.75.75,0,0,1,.57-.24A.78.78,0,0,1,167.33,127.76Zm-1.06,2.74h1v8.27h-1Z"/><path class="cls-1" d="M175.84,132.82h-.94a2,2,0,0,0-.69-1.27,3.35,3.35,0,0,0-3.17-.08,1.17,1.17,0,0,0-.57,1,1.13,1.13,0,0,0,.73,1,10.51,10.51,0,0,0,1.75.58,8.38,8.38,0,0,1,2.14.77,1.86,1.86,0,0,1,1,1.66c0,1.68-1.12,2.51-3.36,2.51s-3.28-.94-3.47-2.83h.94a2.29,2.29,0,0,0,.77,1.57,2.85,2.85,0,0,0,1.73.43c1.6,0,2.4-.54,2.4-1.63a1.24,1.24,0,0,0-.82-1.15,11.29,11.29,0,0,0-1.84-.58,7.9,7.9,0,0,1-2-.73,1.76,1.76,0,0,1-.95-1.59,1.85,1.85,0,0,1,.9-1.61,3.67,3.67,0,0,1,2.18-.6C174.51,130.27,175.61,131.12,175.84,132.82Z"/><path class="cls-1" d="M179.62,127.83v2.67h2.16v.83h-2.16v5.6a1.24,1.24,0,0,0,.19.78.92.92,0,0,0,.72.23h1v.83H180.4a1.69,1.69,0,0,1-1.38-.5,2,2,0,0,1-.36-1.34v-5.6H176.9v-.83h1.76v-2.27Z"/><path class="cls-1" d="M189.78,131.59a5.14,5.14,0,0,1,0,6.09,3.93,3.93,0,0,1-5.86,0,4.64,4.64,0,0,1-1-3,4.54,4.54,0,0,1,1-3,3.54,3.54,0,0,1,2.91-1.32A3.63,3.63,0,0,1,189.78,131.59Zm-5.16.6a3.88,3.88,0,0,0-.73,2.45,3.82,3.82,0,0,0,.73,2.43,2.84,2.84,0,0,0,4.47,0,4,4,0,0,0,.73-2.43,4,4,0,0,0-.73-2.45,2.85,2.85,0,0,0-4.47,0Z"/><path class="cls-1" d="M197.15,130.45v1a4.26,4.26,0,0,0-1.26-.18,2,2,0,0,0-1.79,1,3.55,3.55,0,0,0-.66,2.16v4.37h-1V130.5h1v1.58a3.05,3.05,0,0,1,.91-1.23,2.4,2.4,0,0,1,1.6-.58A3.19,3.19,0,0,1,197.15,130.45Z"/><path class="cls-1" d="M200.24,127.83v2.67h2.16v.83h-2.16v5.6a1.24,1.24,0,0,0,.19.78.92.92,0,0,0,.72.23h1v.83H201a1.67,1.67,0,0,1-1.37-.5,2,2,0,0,1-.37-1.34v-5.6h-1.76v-.83h1.76v-2.27Z"/><path class="cls-1" d="M210.14,131.6a5.73,5.73,0,0,1,1,3.31h-6.72a3.89,3.89,0,0,0,.81,2.39,2.64,2.64,0,0,0,2,.86,2.81,2.81,0,0,0,1.83-.59,3.21,3.21,0,0,0,.88-1.46h1a3.88,3.88,0,0,1-1.1,2,3.68,3.68,0,0,1-2.58.91,3.51,3.51,0,0,1-2.78-1.18,4.53,4.53,0,0,1-1.07-3.18,4.63,4.63,0,0,1,1-3.06,3.79,3.79,0,0,1,5.74,0Zm-4.89.35a3.73,3.73,0,0,0-.87,2.18h5.7c-.16-2-1.11-3-2.86-3A2.49,2.49,0,0,0,205.25,132Z"/><path class="cls-1" d="M218.86,127.12h1v11.65h-.91v-1.63A3,3,0,0,1,216,139a3.33,3.33,0,0,1-2.8-1.31,5.48,5.48,0,0,1,0-6.08,3.26,3.26,0,0,1,2.75-1.33,3,3,0,0,1,2.89,2Zm-4.89,5a4,4,0,0,0-.69,2.48,4.19,4.19,0,0,0,.67,2.49,2.48,2.48,0,0,0,2.16,1.06,2.44,2.44,0,0,0,2.1-1,4,4,0,0,0,.69-2.4v-.19a4,4,0,0,0-.74-2.48,2.4,2.4,0,0,0-2-1A2.52,2.52,0,0,0,214,132.15Z"/><path class="cls-1" d="M233.25,131.22a3.18,3.18,0,0,1,.73,2.22v5.33h-.91v-1.58a4.29,4.29,0,0,1-1.34,1.23,4.2,4.2,0,0,1-2.16.57,3,3,0,0,1-2-.62,2.14,2.14,0,0,1-.75-1.71,2.45,2.45,0,0,1,1.29-2.31,5.67,5.67,0,0,1,2.77-.59H233v-.31a2.1,2.1,0,0,0-2.4-2.35,2.88,2.88,0,0,0-1.72.46,2,2,0,0,0-.85,1.44h-1a2.92,2.92,0,0,1,1.17-2.08,4.11,4.11,0,0,1,2.4-.64A3.28,3.28,0,0,1,233.25,131.22Zm-.23,3.31-2.06,0c-2.09,0-3.14.71-3.14,2.09a1.39,1.39,0,0,0,.53,1.12,2.1,2.1,0,0,0,1.41.43,3.41,3.41,0,0,0,2.3-.86,2.46,2.46,0,0,0,1-1.84Z"/><path class="cls-1" d="M242.72,133.68v5.09h-1v-5c0-1.76-.78-2.64-2.35-2.64a2.2,2.2,0,0,0-1.67.72,2.9,2.9,0,0,0-.78,1.95v5h-1V130.5h1v1.36a3.4,3.4,0,0,1,1.12-1.17,2.9,2.9,0,0,1,1.57-.42Q242.72,130.27,242.72,133.68Z"/><path class="cls-1" d="M251,127.12h1v11.65H251v-1.63a3,3,0,0,1-2.89,1.85,3.33,3.33,0,0,1-2.8-1.31,5.53,5.53,0,0,1,0-6.08,3.26,3.26,0,0,1,2.75-1.33,3,3,0,0,1,2.9,2Zm-4.9,5a4,4,0,0,0-.69,2.48,4.27,4.27,0,0,0,.67,2.49,2.49,2.49,0,0,0,2.16,1.06,2.44,2.44,0,0,0,2.1-1,4,4,0,0,0,.69-2.4v-.19a4,4,0,0,0-.74-2.48,2.39,2.39,0,0,0-2-1A2.52,2.52,0,0,0,246.08,132.15Z"/><path class="cls-1" d="M258.35,130.5h1.07l2.24,7,2.08-7h.93l2.08,7,2.26-7h1.05l-2.83,8.27h-.93l-2.08-7-2.11,7h-.91Z"/><path class="cls-1" d="M277.69,131.59a5.1,5.1,0,0,1,0,6.09,3.92,3.92,0,0,1-5.85,0,4.64,4.64,0,0,1-1-3,4.59,4.59,0,0,1,1-3,3.57,3.57,0,0,1,2.92-1.32A3.61,3.61,0,0,1,277.69,131.59Zm-5.15.6a3.88,3.88,0,0,0-.73,2.45,3.82,3.82,0,0,0,.73,2.43,2.84,2.84,0,0,0,4.47,0,4,4,0,0,0,.73-2.43,4,4,0,0,0-.73-2.45,2.85,2.85,0,0,0-4.47,0Z"/><path class="cls-1" d="M280.4,130.5h1v5.05a3,3,0,0,0,.54,1.94,2.22,2.22,0,0,0,1.78.67,2.31,2.31,0,0,0,1.68-.73,2.92,2.92,0,0,0,.81-1.91v-5h1v8.27h-1v-1.39a3,3,0,0,1-2.75,1.61q-3,0-3-3.39Z"/><path class="cls-1" d="M289.45,127.12h1v11.65h-1Z"/><path class="cls-1" d="M299,127.12h.95v11.65H299v-1.63a3,3,0,0,1-2.89,1.85,3.33,3.33,0,0,1-2.8-1.31,5.48,5.48,0,0,1,0-6.08,3.24,3.24,0,0,1,2.75-1.33,3,3,0,0,1,2.9,2Zm-4.9,5a4,4,0,0,0-.69,2.48,4.19,4.19,0,0,0,.67,2.49,2.48,2.48,0,0,0,2.16,1.06,2.44,2.44,0,0,0,2.1-1,4,4,0,0,0,.69-2.4v-.19a4,4,0,0,0-.74-2.48,2.4,2.4,0,0,0-2-1A2.52,2.52,0,0,0,294.08,132.15Z"/><path class="cls-1" d="M307.28,127.12h1v5.12a3,3,0,0,1,2.89-2,3.26,3.26,0,0,1,2.76,1.33,5.53,5.53,0,0,1,0,6.08A3.34,3.34,0,0,1,311.1,139a3,3,0,0,1-2.91-1.85v1.63h-.91Zm1.66,5a3.93,3.93,0,0,0-.73,2.48v.19a3.88,3.88,0,0,0,.69,2.4,2.4,2.4,0,0,0,2.09,1,2.5,2.5,0,0,0,2.16-1.06,4.19,4.19,0,0,0,.67-2.49,4,4,0,0,0-.69-2.48,2.51,2.51,0,0,0-2.17-1.06A2.39,2.39,0,0,0,308.94,132.08Z"/><path class="cls-1" d="M322.78,131.6a5.81,5.81,0,0,1,1,3.31H317a3.89,3.89,0,0,0,.81,2.39,2.63,2.63,0,0,0,2.05.86,2.78,2.78,0,0,0,1.82-.59,3,3,0,0,0,.88-1.46h1a3.88,3.88,0,0,1-1.1,2,3.7,3.7,0,0,1-2.58.91,3.51,3.51,0,0,1-2.78-1.18,4.54,4.54,0,0,1-1.08-3.18,4.64,4.64,0,0,1,1-3.06,3.79,3.79,0,0,1,5.74,0Zm-4.89.35a3.73,3.73,0,0,0-.87,2.18h5.7c-.16-2-1.12-3-2.87-3A2.47,2.47,0,0,0,317.89,132Z"/><path class="cls-1" d="M336.7,132.82h-.94a2,2,0,0,0-.69-1.27,2.7,2.7,0,0,0-1.68-.44,2.74,2.74,0,0,0-1.49.36,1.17,1.17,0,0,0-.57,1,1.13,1.13,0,0,0,.73,1,10.51,10.51,0,0,0,1.75.58,8.38,8.38,0,0,1,2.14.77,1.86,1.86,0,0,1,1,1.66c0,1.68-1.12,2.51-3.36,2.51s-3.28-.94-3.47-2.83h.94a2.29,2.29,0,0,0,.77,1.57,2.87,2.87,0,0,0,1.73.43c1.6,0,2.4-.54,2.4-1.63a1.24,1.24,0,0,0-.82-1.15,11,11,0,0,0-1.84-.58,7.9,7.9,0,0,1-2-.73,1.76,1.76,0,0,1-.95-1.59,1.85,1.85,0,0,1,.9-1.61,3.69,3.69,0,0,1,2.18-.6C335.37,130.27,336.47,131.12,336.7,132.82Z"/><path class="cls-1" d="M340.48,127.83v2.67h2.16v.83h-2.16v5.6a1.24,1.24,0,0,0,.19.78.92.92,0,0,0,.72.23h1v.83h-1.17a1.65,1.65,0,0,1-1.37-.5,2,2,0,0,1-.37-1.34v-5.6h-1.76v-.83h1.76v-2.27Z"/><path class="cls-1" d="M350.64,131.59a5.1,5.1,0,0,1,0,6.09,3.93,3.93,0,0,1-5.86,0,4.64,4.64,0,0,1-1-3,4.59,4.59,0,0,1,1-3,3.54,3.54,0,0,1,2.91-1.32A3.63,3.63,0,0,1,350.64,131.59Zm-5.15.6a3.82,3.82,0,0,0-.74,2.45,3.77,3.77,0,0,0,.74,2.43,2.83,2.83,0,0,0,4.46,0,4,4,0,0,0,.74-2.43,4,4,0,0,0-.74-2.45,2.84,2.84,0,0,0-4.46,0Z"/><path class="cls-1" d="M358,130.45v1a4.26,4.26,0,0,0-1.26-.18,2,2,0,0,0-1.79,1,3.55,3.55,0,0,0-.66,2.16v4.37h-1V130.5h1v1.58a3.15,3.15,0,0,1,.91-1.23,2.42,2.42,0,0,1,1.6-.58A3.15,3.15,0,0,1,358,130.45Z"/><path class="cls-1" d="M365.39,131.6a5.73,5.73,0,0,1,.94,3.31h-6.72a4,4,0,0,0,.82,2.39,2.61,2.61,0,0,0,2.05.86,2.8,2.8,0,0,0,1.82-.59,3,3,0,0,0,.88-1.46h1a3.82,3.82,0,0,1-1.11,2,3.67,3.67,0,0,1-2.57.91,3.54,3.54,0,0,1-2.79-1.18,5.16,5.16,0,0,1,0-6.24,3.79,3.79,0,0,1,5.74,0Zm-4.9.35a3.65,3.65,0,0,0-.86,2.18h5.69c-.16-2-1.11-3-2.86-3A2.49,2.49,0,0,0,360.49,132Z"/><path class="cls-1" d="M374.11,127.12h1v11.65h-.91v-1.63a3,3,0,0,1-2.9,1.85,3.35,3.35,0,0,1-2.8-1.31,5.53,5.53,0,0,1,0-6.08,3.26,3.26,0,0,1,2.75-1.33,3,3,0,0,1,2.9,2Zm-4.9,5a4,4,0,0,0-.68,2.48,4.19,4.19,0,0,0,.67,2.49,2.48,2.48,0,0,0,2.16,1.06,2.43,2.43,0,0,0,2.09-1,4,4,0,0,0,.69-2.4v-.19a4,4,0,0,0-.74-2.48,2.39,2.39,0,0,0-2-1A2.54,2.54,0,0,0,369.21,132.15Z"/><path class="cls-1" d="M58.87,155.76a.68.68,0,0,1,.24.56.79.79,0,0,1-.25.58.83.83,0,0,1-.56.22.78.78,0,0,1-.58-.22.78.78,0,0,1-.24-.58.68.68,0,0,1,.24-.56.75.75,0,0,1,.58-.24A.78.78,0,0,1,58.87,155.76Zm-1,2.74h1v8.27h-1Z"/><path class="cls-1" d="M68,161.68v5.09H67v-5c0-1.76-.78-2.64-2.35-2.64a2.18,2.18,0,0,0-1.66.72,2.9,2.9,0,0,0-.78,1.95v5h-1V158.5h1v1.36a3.37,3.37,0,0,1,1.11-1.17,2.9,2.9,0,0,1,1.57-.42Q68,158.27,68,161.68Z"/><path class="cls-1" d="M77.34,155.83v2.67H79.5v.83H77.34v5.6a1.24,1.24,0,0,0,.19.78.92.92,0,0,0,.72.23h1v.83H78.12a1.65,1.65,0,0,1-1.37-.5,2,2,0,0,1-.37-1.34v-5.6H74.62v-.83h1.76v-2.27Z"/><path class="cls-1" d="M81,155.12h1V160a3.15,3.15,0,0,1,1.15-1.29,2.93,2.93,0,0,1,1.57-.44,2.87,2.87,0,0,1,2.21.84,3.34,3.34,0,0,1,.8,2.38v5.28h-1v-5.15a2.7,2.7,0,0,0-.61-1.87,2.28,2.28,0,0,0-1.71-.64,2.22,2.22,0,0,0-1.75.83,3,3,0,0,0-.7,2.05v4.78H81Z"/><path class="cls-1" d="M96,159.6a5.81,5.81,0,0,1,1,3.31H90.19A3.89,3.89,0,0,0,91,165.3a2.63,2.63,0,0,0,2,.86,2.78,2.78,0,0,0,1.82-.59,3,3,0,0,0,.88-1.46h1a3.88,3.88,0,0,1-1.1,2,3.7,3.7,0,0,1-2.58.91,3.51,3.51,0,0,1-2.78-1.18,4.54,4.54,0,0,1-1.08-3.18,4.64,4.64,0,0,1,1-3.06,3.79,3.79,0,0,1,5.74,0Zm-4.89.35a3.73,3.73,0,0,0-.87,2.18h5.7c-.16-2-1.12-3-2.87-3A2.47,2.47,0,0,0,91.07,160Z"/><path class="cls-1" d="M110,155.12h1v11.65h-.91v-1.63a3,3,0,0,1-2.9,1.85,3.35,3.35,0,0,1-2.8-1.31,5.53,5.53,0,0,1,0-6.08,3.26,3.26,0,0,1,2.75-1.33,3,3,0,0,1,2.9,2Zm-4.9,5a4,4,0,0,0-.68,2.48,4.19,4.19,0,0,0,.67,2.49,2.48,2.48,0,0,0,2.16,1.06,2.43,2.43,0,0,0,2.09-1,4,4,0,0,0,.69-2.4v-.19a4,4,0,0,0-.73-2.48,2.42,2.42,0,0,0-2-1A2.54,2.54,0,0,0,105.11,160.15Z"/><path class="cls-1" d="M119.27,159.6a5.81,5.81,0,0,1,1,3.31H113.5a3.89,3.89,0,0,0,.81,2.39,2.64,2.64,0,0,0,2,.86,2.81,2.81,0,0,0,1.83-.59,3.21,3.21,0,0,0,.88-1.46h1a3.88,3.88,0,0,1-1.1,2,3.68,3.68,0,0,1-2.58.91,3.51,3.51,0,0,1-2.78-1.18,4.53,4.53,0,0,1-1.07-3.18,4.63,4.63,0,0,1,1-3.06,3.79,3.79,0,0,1,5.74,0Zm-4.89.35a3.73,3.73,0,0,0-.87,2.18h5.7c-.16-2-1.12-3-2.86-3A2.48,2.48,0,0,0,114.38,160Z"/><path class="cls-1" d="M127.66,159a3.15,3.15,0,0,1,1.13,2.21h-1a2.35,2.35,0,0,0-.83-1.57,2.77,2.77,0,0,0-1.76-.52,2.48,2.48,0,0,0-2.08,1,4.81,4.81,0,0,0,0,5.11,2.47,2.47,0,0,0,2.1.94,2.43,2.43,0,0,0,2.65-2.35h.94a3.74,3.74,0,0,1-1.18,2.38,3.53,3.53,0,0,1-2.41.8,3.45,3.45,0,0,1-2.85-1.24,4.65,4.65,0,0,1-.95-3.06,4.79,4.79,0,0,1,1-3.1,3.38,3.38,0,0,1,2.83-1.32A3.85,3.85,0,0,1,127.66,159Z"/><path class="cls-1" d="M136.65,159.6a5.73,5.73,0,0,1,.94,3.31h-6.72a4,4,0,0,0,.82,2.39,2.61,2.61,0,0,0,2.05.86,2.8,2.8,0,0,0,1.82-.59,3,3,0,0,0,.88-1.46h1a3.82,3.82,0,0,1-1.11,2,3.67,3.67,0,0,1-2.57.91,3.53,3.53,0,0,1-2.79-1.18,4.58,4.58,0,0,1-1.07-3.18,4.63,4.63,0,0,1,1-3.06,3.46,3.46,0,0,1,2.81-1.3A3.42,3.42,0,0,1,136.65,159.6Zm-4.9.35a3.65,3.65,0,0,0-.86,2.18h5.7c-.16-2-1.12-3-2.87-3A2.49,2.49,0,0,0,131.75,160Z"/><path class="cls-1" d="M145.85,161.68v5.09h-1v-5c0-1.76-.78-2.64-2.35-2.64a2.2,2.2,0,0,0-1.67.72,2.9,2.9,0,0,0-.78,1.95v5h-1V158.5h1v1.36a3.4,3.4,0,0,1,1.12-1.17,2.9,2.9,0,0,1,1.57-.42C144.82,158.27,145.85,159.41,145.85,161.68Z"/><path class="cls-1" d="M149.86,155.83v2.67H152v.83h-2.17v5.6a1.24,1.24,0,0,0,.2.78.91.91,0,0,0,.72.23h1v.83h-1.17a1.69,1.69,0,0,1-1.38-.5,2,2,0,0,1-.37-1.34v-5.6h-1.75v-.83h1.75v-2.27Z"/><path class="cls-1" d="M158.15,158.45v1a4.26,4.26,0,0,0-1.26-.18,2,2,0,0,0-1.79,1,3.55,3.55,0,0,0-.66,2.16v4.37h-1V158.5h1v1.58a3.05,3.05,0,0,1,.91-1.23,2.4,2.4,0,0,1,1.6-.58A3.19,3.19,0,0,1,158.15,158.45Z"/><path class="cls-1" d="M165.32,159.22a3.18,3.18,0,0,1,.74,2.22v5.33h-.91v-1.58a4.33,4.33,0,0,1-1.35,1.23,4.2,4.2,0,0,1-2.16.57,3,3,0,0,1-2-.62,2.14,2.14,0,0,1-.75-1.71,2.44,2.44,0,0,1,1.3-2.31,5.61,5.61,0,0,1,2.77-.59h2.11v-.31a2.1,2.1,0,0,0-2.4-2.35,2.89,2.89,0,0,0-1.73.46,2,2,0,0,0-.85,1.44h-.94a2.88,2.88,0,0,1,1.16-2.08,4.11,4.11,0,0,1,2.4-.64A3.25,3.25,0,0,1,165.32,159.22Zm-.22,3.31-2.07,0c-2.09,0-3.13.71-3.13,2.09a1.38,1.38,0,0,0,.52,1.12,2.14,2.14,0,0,0,1.41.43,3.44,3.44,0,0,0,2.31-.86,2.46,2.46,0,0,0,1-1.84Z"/><path class="cls-1" d="M168.38,155.12h1v11.65h-1Z"/><path class="cls-1" d="M173.19,155.76a.68.68,0,0,1,.24.56.79.79,0,0,1-.25.58.83.83,0,0,1-.56.22.78.78,0,0,1-.58-.22.78.78,0,0,1-.24-.58.68.68,0,0,1,.24-.56.75.75,0,0,1,.58-.24A.78.78,0,0,1,173.19,155.76Zm-1.05,2.74h1v8.27h-1Z"/><path class="cls-1" d="M175.14,158.5h6.42v.73l-5.34,6.71h5.6v.83H175V166l5.33-6.69h-5.17Z"/><path class="cls-1" d="M189.51,159.6a5.81,5.81,0,0,1,1,3.31h-6.72a3.89,3.89,0,0,0,.81,2.39,2.63,2.63,0,0,0,2,.86,2.78,2.78,0,0,0,1.82-.59,3,3,0,0,0,.88-1.46h1a3.88,3.88,0,0,1-1.1,2,3.7,3.7,0,0,1-2.58.91,3.51,3.51,0,0,1-2.78-1.18,4.54,4.54,0,0,1-1.08-3.18,4.59,4.59,0,0,1,1-3.06,3.79,3.79,0,0,1,5.74,0Zm-4.89.35a3.66,3.66,0,0,0-.87,2.18h5.7c-.16-2-1.12-3-2.87-3A2.47,2.47,0,0,0,184.62,160Z"/><path class="cls-1" d="M198.23,155.12h1v11.65h-.91v-1.63a3,3,0,0,1-2.9,1.85,3.36,3.36,0,0,1-2.8-1.31,5.53,5.53,0,0,1,0-6.08,3.26,3.26,0,0,1,2.76-1.33,3,3,0,0,1,2.89,2Zm-4.89,5a4,4,0,0,0-.69,2.48,4.19,4.19,0,0,0,.67,2.49,2.69,2.69,0,0,0,4.26,0,4.07,4.07,0,0,0,.68-2.4v-.19a4,4,0,0,0-.73-2.48,2.41,2.41,0,0,0-2-1A2.51,2.51,0,0,0,193.34,160.15Z"/><path class="cls-1" d="M206.54,155.12h1v5.12a3,3,0,0,1,2.9-2,3.24,3.24,0,0,1,2.75,1.33,5.48,5.48,0,0,1,0,6.08,3.32,3.32,0,0,1-2.78,1.31,3,3,0,0,1-2.91-1.85v1.63h-.91Zm1.66,5a3.93,3.93,0,0,0-.74,2.48v.19a3.88,3.88,0,0,0,.69,2.4,2.42,2.42,0,0,0,2.1,1,2.5,2.5,0,0,0,2.16-1.06,4.19,4.19,0,0,0,.67-2.49,4,4,0,0,0-.69-2.48,2.52,2.52,0,0,0-2.17-1.06A2.37,2.37,0,0,0,208.2,160.08Z"/><path class="cls-1" d="M222.3,159.59a5.14,5.14,0,0,1,0,6.09,3.93,3.93,0,0,1-5.86,0,4.64,4.64,0,0,1-1-3,4.54,4.54,0,0,1,1-3,3.54,3.54,0,0,1,2.91-1.32A3.64,3.64,0,0,1,222.3,159.59Zm-5.16.6a3.88,3.88,0,0,0-.73,2.45,3.82,3.82,0,0,0,.73,2.43,2.84,2.84,0,0,0,4.47,0,4,4,0,0,0,.73-2.43,4,4,0,0,0-.73-2.45,2.85,2.85,0,0,0-4.47,0Z"/><path class="cls-1" d="M227,155.83v2.67h2.16v.83H227v5.6a1.24,1.24,0,0,0,.19.78.92.92,0,0,0,.72.23h1v.83h-1.17a1.65,1.65,0,0,1-1.37-.5,2,2,0,0,1-.37-1.34v-5.6h-1.76v-.83H226v-2.27Z"/><path class="cls-1" d="M232.62,155.83v2.67h2.16v.83h-2.16v5.6a1.24,1.24,0,0,0,.19.78.92.92,0,0,0,.72.23h1v.83H233.4a1.69,1.69,0,0,1-1.38-.5,2,2,0,0,1-.37-1.34v-5.6H229.9v-.83h1.75v-2.27Z"/><path class="cls-1" d="M242.78,159.59a5.14,5.14,0,0,1,0,6.09,3.93,3.93,0,0,1-5.86,0,4.64,4.64,0,0,1-1-3,4.54,4.54,0,0,1,1-3,3.54,3.54,0,0,1,2.91-1.32A3.64,3.64,0,0,1,242.78,159.59Zm-5.16.6a3.88,3.88,0,0,0-.73,2.45,3.82,3.82,0,0,0,.73,2.43,2.84,2.84,0,0,0,4.47,0,4,4,0,0,0,.73-2.43,4,4,0,0,0-.73-2.45,2.85,2.85,0,0,0-4.47,0Z"/><path class="cls-1" d="M251.43,160a3.26,3.26,0,0,1,1.1-1.26,2.59,2.59,0,0,1,1.51-.44,2.74,2.74,0,0,1,2.08.82,3.25,3.25,0,0,1,.75,2.27v5.41h-1v-5.28a2.7,2.7,0,0,0-.48-1.76,2,2,0,0,0-1.65-.62,1.9,1.9,0,0,0-1.5.68,2.41,2.41,0,0,0-.61,1.72v5.26h-1v-5.28c0-1.59-.69-2.38-2.07-2.38a1.9,1.9,0,0,0-1.55.75,2.66,2.66,0,0,0-.64,1.82v5.09h-1V158.5h1v1.25a2.68,2.68,0,0,1,2.4-1.48A2.5,2.5,0,0,1,251.43,160Z"/><path class="cls-1" d="M264.52,155.12h1v11.65h-1Z"/><path class="cls-1" d="M273.88,159.22a3.18,3.18,0,0,1,.74,2.22v5.33h-.92v-1.58a4.29,4.29,0,0,1-1.34,1.23,4.2,4.2,0,0,1-2.16.57,3,3,0,0,1-2-.62,2.14,2.14,0,0,1-.75-1.71,2.44,2.44,0,0,1,1.3-2.31,5.6,5.6,0,0,1,2.76-.59h2.11v-.31a2.09,2.09,0,0,0-2.4-2.35,2.88,2.88,0,0,0-1.72.46,2,2,0,0,0-.85,1.44h-.94a2.88,2.88,0,0,1,1.16-2.08,4.11,4.11,0,0,1,2.4-.64A3.27,3.27,0,0,1,273.88,159.22Zm-.23,3.31-2.06,0c-2.09,0-3.13.71-3.13,2.09a1.38,1.38,0,0,0,.52,1.12,2.1,2.1,0,0,0,1.41.43,3.45,3.45,0,0,0,2.31-.86,2.48,2.48,0,0,0,.95-1.84Z"/><path class="cls-1" d="M275.7,158.5h1.06l2.7,6.89,2.68-6.89h1.05l-4.56,11.44h-1l1.39-3.38Z"/><path class="cls-1" d="M290.57,159.6a5.81,5.81,0,0,1,.94,3.31h-6.72a3.89,3.89,0,0,0,.82,2.39,2.61,2.61,0,0,0,2,.86,2.81,2.81,0,0,0,1.83-.59,3.12,3.12,0,0,0,.88-1.46h1a3.88,3.88,0,0,1-1.1,2,3.68,3.68,0,0,1-2.58.91,3.51,3.51,0,0,1-2.78-1.18,4.58,4.58,0,0,1-1.07-3.18,4.63,4.63,0,0,1,1-3.06,3.8,3.8,0,0,1,5.75,0Zm-4.9.35a3.65,3.65,0,0,0-.86,2.18h5.69c-.16-2-1.11-3-2.86-3A2.49,2.49,0,0,0,285.67,160Z"/><path class="cls-1" d="M297.72,158.45v1a4.38,4.38,0,0,0-1.27-.18,2.05,2.05,0,0,0-1.79,1,3.61,3.61,0,0,0-.65,2.16v4.37h-1V158.5h1v1.58a3,3,0,0,1,.91-1.23,2.4,2.4,0,0,1,1.6-.58A3.22,3.22,0,0,1,297.72,158.45Z"/><path class="cls-1" d="M300.44,165.39a.73.73,0,0,1,.24.58.82.82,0,0,1-.82.8.75.75,0,0,1-.57-.24.77.77,0,0,1-.24-.56.73.73,0,0,1,.24-.58.76.76,0,0,1,.57-.22A.82.82,0,0,1,300.44,165.39Z"/><path class="cls-1" d="M316.45,156.11A3.91,3.91,0,0,1,318,158.8h-.95a3,3,0,0,0-1.29-2.06,4.16,4.16,0,0,0-2.44-.72,4,4,0,0,0-3.29,1.49,6.33,6.33,0,0,0,0,7.16,3.91,3.91,0,0,0,3.22,1.43,4.08,4.08,0,0,0,2.51-.79,3.94,3.94,0,0,0,1.47-2.44h.95a4.82,4.82,0,0,1-4.92,4.12,4.87,4.87,0,0,1-4-1.76,6.3,6.3,0,0,1-1.31-4.12,6.38,6.38,0,0,1,1.35-4.18,5.41,5.41,0,0,1,7.16-.82Z"/><path class="cls-1" d="M326.4,159.59a5.1,5.1,0,0,1,0,6.09,3.92,3.92,0,0,1-5.85,0,4.64,4.64,0,0,1-1-3,4.54,4.54,0,0,1,1-3,3.54,3.54,0,0,1,2.91-1.32A3.61,3.61,0,0,1,326.4,159.59Zm-5.15.6a3.88,3.88,0,0,0-.73,2.45,3.82,3.82,0,0,0,.73,2.43,2.84,2.84,0,0,0,4.47,0,4,4,0,0,0,.73-2.43,4,4,0,0,0-.73-2.45,2.85,2.85,0,0,0-4.47,0Z"/><path class="cls-1" d="M335.72,159.6a5.56,5.56,0,0,1,0,6.08A3.3,3.3,0,0,1,333,167a3,3,0,0,1-2.9-2v4.9h-1V158.5H330v1.63a3,3,0,0,1,2.91-1.86A3.36,3.36,0,0,1,335.72,159.6Zm-5,.55a4,4,0,0,0-.69,2.44v.18a3.88,3.88,0,0,0,.73,2.45,2.45,2.45,0,0,0,2,1,2.59,2.59,0,0,0,2.18-1,5,5,0,0,0,0-5,2.51,2.51,0,0,0-2.16-1.07A2.41,2.41,0,0,0,330.73,160.15Z"/><path class="cls-1" d="M337.4,158.5h1.05l2.71,6.89,2.67-6.89h1.06l-4.57,11.44h-1l1.39-3.38Z"/><path class="cls-1" d="M350.65,158.45v1a4.38,4.38,0,0,0-1.27-.18,2,2,0,0,0-1.79,1,3.55,3.55,0,0,0-.66,2.16v4.37h-1V158.5h1v1.58a3.07,3.07,0,0,1,.92-1.23,2.38,2.38,0,0,1,1.6-.58A3.22,3.22,0,0,1,350.65,158.45Z"/><path class="cls-1" d="M353.27,155.76a.68.68,0,0,1,.24.56.8.8,0,0,1-.26.58.81.81,0,0,1-.56.22.77.77,0,0,1-.57-.22.78.78,0,0,1-.24-.58.68.68,0,0,1,.24-.56.75.75,0,0,1,.57-.24A.78.78,0,0,1,353.27,155.76Zm-1.06,2.74h1v8.27h-1Z"/><path class="cls-1" d="M362,160.16V158.5h1v7.66q0,4-3.71,4a4,4,0,0,1-2.52-.7,3,3,0,0,1-1-2h1a2.1,2.1,0,0,0,.77,1.38,2.88,2.88,0,0,0,1.84.51c1.83,0,2.75-1,2.75-3.09v-1.58a3.08,3.08,0,0,1-3,1.89,3.45,3.45,0,0,1-2.77-1.23,4.91,4.91,0,0,1,0-5.83,3.43,3.43,0,0,1,2.77-1.25A3.08,3.08,0,0,1,362,160.16Zm-5-.08a3.59,3.59,0,0,0-.74,2.35,3.69,3.69,0,0,0,.69,2.31,2.55,2.55,0,0,0,2.16,1,2.6,2.6,0,0,0,2.15-1,4.21,4.21,0,0,0,0-4.71,2.79,2.79,0,0,0-4.26,0Z"/><path class="cls-1" d="M365,155.12h1V160a3.15,3.15,0,0,1,1.15-1.29,2.93,2.93,0,0,1,1.57-.44,2.89,2.89,0,0,1,2.21.84,3.34,3.34,0,0,1,.8,2.38v5.28h-1v-5.15a2.75,2.75,0,0,0-.61-1.87,2.28,2.28,0,0,0-1.71-.64,2.21,2.21,0,0,0-1.75.83A3,3,0,0,0,366,162v4.78h-1Z"/><path class="cls-1" d="M375.73,155.83v2.67h2.16v.83h-2.16v5.6a1.31,1.31,0,0,0,.19.78.94.94,0,0,0,.73.23h1v.83h-1.16a1.69,1.69,0,0,1-1.38-.5,2,2,0,0,1-.37-1.34v-5.6H373v-.83h1.76v-2.27Z"/><path class="cls-1" d="M92.66,187.59a5.1,5.1,0,0,1,0,6.09,3.93,3.93,0,0,1-5.86,0,4.64,4.64,0,0,1-1-3,4.59,4.59,0,0,1,1-3,3.54,3.54,0,0,1,2.91-1.32A3.63,3.63,0,0,1,92.66,187.59Zm-5.15.6a3.88,3.88,0,0,0-.74,2.45,3.83,3.83,0,0,0,.74,2.43,2.83,2.83,0,0,0,4.46,0,4,4,0,0,0,.74-2.43,4,4,0,0,0-.74-2.45,2.84,2.84,0,0,0-4.46,0Z"/><path class="cls-1" d="M100.19,183.35v.84H98.8a1.15,1.15,0,0,0-.91.32,1.51,1.51,0,0,0-.29,1v1h2.48v.83H97.6v7.44h-1v-7.44H94.43v-.83h2.21v-1a2.19,2.19,0,0,1,.51-1.58,2,2,0,0,1,1.57-.59Z"/><path class="cls-1" d="M108.61,183.83v2.67h2.16v.83h-2.16v5.6a1.24,1.24,0,0,0,.19.78.92.92,0,0,0,.72.23h1v.83h-1.17a1.67,1.67,0,0,1-1.37-.5,2,2,0,0,1-.37-1.34v-5.6h-1.76v-.83h1.76v-2.27Z"/><path class="cls-1" d="M112.23,183.12h1V188a3.15,3.15,0,0,1,1.15-1.29,3,3,0,0,1,1.57-.44,2.87,2.87,0,0,1,2.21.84,3.34,3.34,0,0,1,.8,2.38v5.28h-1v-5.15a2.7,2.7,0,0,0-.61-1.87,2.25,2.25,0,0,0-1.71-.64,2.2,2.2,0,0,0-1.74.83,3,3,0,0,0-.71,2.05v4.78h-1Z"/><path class="cls-1" d="M127.23,187.6a5.73,5.73,0,0,1,1,3.31h-6.72a3.89,3.89,0,0,0,.81,2.39,2.64,2.64,0,0,0,2,.86,2.81,2.81,0,0,0,1.83-.59,3.21,3.21,0,0,0,.88-1.46h1a3.88,3.88,0,0,1-1.1,2,3.68,3.68,0,0,1-2.58.91,3.51,3.51,0,0,1-2.78-1.18,4.53,4.53,0,0,1-1.07-3.18,4.63,4.63,0,0,1,1-3.06,3.79,3.79,0,0,1,5.74,0Zm-4.89.35a3.73,3.73,0,0,0-.87,2.18h5.7c-.16-2-1.11-3-2.86-3A2.48,2.48,0,0,0,122.34,188Z"/><path class="cls-1" d="M135.82,188.82h-.94a2,2,0,0,0-.69-1.27,3.33,3.33,0,0,0-3.16-.08,1.16,1.16,0,0,0-.58,1,1.12,1.12,0,0,0,.74,1,10.65,10.65,0,0,0,1.74.58,8.23,8.23,0,0,1,2.14.77,1.85,1.85,0,0,1,1,1.66c0,1.68-1.12,2.51-3.36,2.51s-3.28-.94-3.48-2.83h1a2.21,2.21,0,0,0,.77,1.57,2.81,2.81,0,0,0,1.72.43c1.6,0,2.4-.54,2.4-1.63a1.24,1.24,0,0,0-.81-1.15,11.29,11.29,0,0,0-1.84-.58,8,8,0,0,1-2-.73,1.76,1.76,0,0,1-.94-1.59,1.86,1.86,0,0,1,.89-1.61,3.69,3.69,0,0,1,2.18-.6C134.49,186.27,135.59,187.12,135.82,188.82Z"/><path class="cls-1" d="M143.89,187.6a5.73,5.73,0,0,1,.94,3.31h-6.72a4,4,0,0,0,.82,2.39,2.61,2.61,0,0,0,2,.86,2.8,2.8,0,0,0,1.82-.59,3,3,0,0,0,.88-1.46h1a3.82,3.82,0,0,1-1.11,2A3.67,3.67,0,0,1,141,195a3.54,3.54,0,0,1-2.79-1.18,5.16,5.16,0,0,1,0-6.24,3.79,3.79,0,0,1,5.74,0ZM139,188a3.65,3.65,0,0,0-.86,2.18h5.69c-.16-2-1.11-3-2.86-3A2.49,2.49,0,0,0,139,188Z"/><path class="cls-1" d="M157.6,187a3.15,3.15,0,0,1,1.14,2.21h-1a2.43,2.43,0,0,0-.83-1.57,2.79,2.79,0,0,0-1.76-.52,2.47,2.47,0,0,0-2.08,1,4,4,0,0,0-.76,2.58,4.07,4.07,0,0,0,.72,2.53,2.47,2.47,0,0,0,2.1.94,2.43,2.43,0,0,0,2.65-2.35h1a3.74,3.74,0,0,1-1.19,2.38,3.51,3.51,0,0,1-2.41.8,3.45,3.45,0,0,1-2.85-1.24,4.64,4.64,0,0,1-.94-3.06,4.79,4.79,0,0,1,1-3.1,3.4,3.4,0,0,1,2.84-1.32A3.82,3.82,0,0,1,157.6,187Z"/><path class="cls-1" d="M166.85,187.59a5.1,5.1,0,0,1,0,6.09,3.93,3.93,0,0,1-5.86,0,4.64,4.64,0,0,1-1-3,4.59,4.59,0,0,1,1-3,3.54,3.54,0,0,1,2.91-1.32A3.63,3.63,0,0,1,166.85,187.59Zm-5.15.6a3.88,3.88,0,0,0-.74,2.45,3.83,3.83,0,0,0,.74,2.43,2.83,2.83,0,0,0,4.46,0,4,4,0,0,0,.74-2.43,4,4,0,0,0-.74-2.45,2.84,2.84,0,0,0-4.46,0Z"/><path class="cls-1" d="M176.27,189.68v5.09h-1v-5c0-1.76-.78-2.64-2.35-2.64a2.17,2.17,0,0,0-1.66.72,3,3,0,0,0-.79,1.95v5h-1V186.5h1v1.36a3.4,3.4,0,0,1,1.12-1.17,2.9,2.9,0,0,1,1.57-.42Q176.28,186.27,176.27,189.68Z"/><path class="cls-1" d="M180.29,183.83v2.67h2.16v.83h-2.16v5.6a1.24,1.24,0,0,0,.19.78.92.92,0,0,0,.72.23h1v.83h-1.17a1.65,1.65,0,0,1-1.37-.5,2,2,0,0,1-.37-1.34v-5.6h-1.76v-.83h1.76v-2.27Z"/><path class="cls-1" d="M190.19,187.6a5.81,5.81,0,0,1,.95,3.31h-6.72a3.89,3.89,0,0,0,.81,2.39,2.63,2.63,0,0,0,2.05.86,2.78,2.78,0,0,0,1.82-.59,3.14,3.14,0,0,0,.89-1.46h1a3.88,3.88,0,0,1-1.1,2,3.7,3.7,0,0,1-2.58.91,3.51,3.51,0,0,1-2.78-1.18,4.54,4.54,0,0,1-1.08-3.18,4.64,4.64,0,0,1,1-3.06,3.79,3.79,0,0,1,5.74,0Zm-4.89.35a3.73,3.73,0,0,0-.87,2.18h5.7c-.16-2-1.12-3-2.87-3A2.47,2.47,0,0,0,185.3,188Z"/><path class="cls-1" d="M199.39,189.68v5.09h-1v-5c0-1.76-.78-2.64-2.35-2.64a2.17,2.17,0,0,0-1.66.72,3,3,0,0,0-.79,1.95v5h-1V186.5h1v1.36a3.4,3.4,0,0,1,1.12-1.17,2.9,2.9,0,0,1,1.57-.42Q199.4,186.27,199.39,189.68Z"/><path class="cls-1" d="M203.41,183.83v2.67h2.16v.83h-2.16v5.6a1.24,1.24,0,0,0,.19.78.92.92,0,0,0,.72.23h1v.83h-1.17a1.65,1.65,0,0,1-1.37-.5,2,2,0,0,1-.37-1.34v-5.6h-1.76v-.83h1.76v-2.27Z"/><path class="cls-1" d="M213.14,188.82h-.95a1.91,1.91,0,0,0-.69-1.27,3.33,3.33,0,0,0-3.16-.08,1.16,1.16,0,0,0-.58,1,1.14,1.14,0,0,0,.74,1,10.65,10.65,0,0,0,1.74.58,8.23,8.23,0,0,1,2.14.77,1.85,1.85,0,0,1,1,1.66c0,1.68-1.12,2.51-3.36,2.51s-3.28-.94-3.48-2.83h1a2.21,2.21,0,0,0,.77,1.57,2.83,2.83,0,0,0,1.72.43c1.6,0,2.4-.54,2.4-1.63a1.24,1.24,0,0,0-.81-1.15,11.29,11.29,0,0,0-1.84-.58,8.17,8.17,0,0,1-2-.73,1.76,1.76,0,0,1-.94-1.59,1.86,1.86,0,0,1,.89-1.61,3.69,3.69,0,0,1,2.18-.6Q212.78,186.27,213.14,188.82Z"/><path class="cls-1" d="M226.61,188.16V186.5h1v7.66q0,4-3.71,4a4,4,0,0,1-2.52-.7,3,3,0,0,1-1.05-2h1a2.15,2.15,0,0,0,.77,1.38,2.88,2.88,0,0,0,1.84.51c1.83,0,2.75-1,2.75-3.09v-1.58a3.08,3.08,0,0,1-3,1.89,3.45,3.45,0,0,1-2.77-1.23,4.91,4.91,0,0,1,0-5.83,3.43,3.43,0,0,1,2.77-1.25A3.08,3.08,0,0,1,226.61,188.16Zm-5-.08a3.59,3.59,0,0,0-.73,2.35,3.75,3.75,0,0,0,.68,2.31,2.55,2.55,0,0,0,2.16,1,2.6,2.6,0,0,0,2.15-1,4.21,4.21,0,0,0,0-4.71,2.79,2.79,0,0,0-4.26,0Z"/><path class="cls-1" d="M235.87,187.6a5.81,5.81,0,0,1,.95,3.31H230.1a3.89,3.89,0,0,0,.81,2.39,2.63,2.63,0,0,0,2.05.86,2.78,2.78,0,0,0,1.82-.59,3,3,0,0,0,.88-1.46h1a3.88,3.88,0,0,1-1.1,2A3.7,3.7,0,0,1,233,195a3.51,3.51,0,0,1-2.78-1.18,4.54,4.54,0,0,1-1.08-3.18,4.64,4.64,0,0,1,1-3.06,3.79,3.79,0,0,1,5.74,0ZM231,188a3.73,3.73,0,0,0-.87,2.18h5.7c-.16-2-1.12-3-2.87-3A2.47,2.47,0,0,0,231,188Z"/><path class="cls-1" d="M245.07,189.68v5.09h-1v-5c0-1.76-.78-2.64-2.35-2.64a2.17,2.17,0,0,0-1.66.72,3,3,0,0,0-.79,1.95v5h-1V186.5h1v1.36a3.4,3.4,0,0,1,1.12-1.17,2.9,2.9,0,0,1,1.57-.42Q245.08,186.27,245.07,189.68Z"/><path class="cls-1" d="M253.38,187.6a5.81,5.81,0,0,1,.94,3.31H247.6a3.83,3.83,0,0,0,.82,2.39,2.61,2.61,0,0,0,2,.86,2.81,2.81,0,0,0,1.83-.59,3.12,3.12,0,0,0,.88-1.46h1a3.88,3.88,0,0,1-1.1,2,3.68,3.68,0,0,1-2.58.91,3.51,3.51,0,0,1-2.78-1.18,4.58,4.58,0,0,1-1.07-3.18,4.63,4.63,0,0,1,1-3.06,3.8,3.8,0,0,1,5.75,0Zm-4.9.35a3.65,3.65,0,0,0-.86,2.18h5.69c-.16-2-1.11-3-2.86-3A2.49,2.49,0,0,0,248.48,188Z"/><path class="cls-1" d="M260.53,186.45v1a4.38,4.38,0,0,0-1.27-.18,2.05,2.05,0,0,0-1.79,1,3.55,3.55,0,0,0-.65,2.16v4.37h-1V186.5h1v1.58a3,3,0,0,1,.91-1.23,2.4,2.4,0,0,1,1.6-.58A3.22,3.22,0,0,1,260.53,186.45Z"/><path class="cls-1" d="M267.7,187.22a3.18,3.18,0,0,1,.73,2.22v5.33h-.91v-1.58a4.29,4.29,0,0,1-1.34,1.23A4.2,4.2,0,0,1,264,195a2.94,2.94,0,0,1-2-.62,2.14,2.14,0,0,1-.75-1.71,2.45,2.45,0,0,1,1.29-2.31,5.64,5.64,0,0,1,2.77-.59h2.11v-.31a2.1,2.1,0,0,0-2.4-2.35,2.94,2.94,0,0,0-1.73.46,1.94,1.94,0,0,0-.84,1.44h-.95a2.92,2.92,0,0,1,1.17-2.08,4.11,4.11,0,0,1,2.4-.64A3.28,3.28,0,0,1,267.7,187.22Zm-.23,3.31-2.06,0c-2.09,0-3.14.71-3.14,2.09a1.39,1.39,0,0,0,.53,1.12,2.1,2.1,0,0,0,1.41.43,3.41,3.41,0,0,0,2.3-.86,2.46,2.46,0,0,0,1-1.84Z"/><path class="cls-1" d="M272.45,183.83v2.67h2.16v.83h-2.16v5.6a1.24,1.24,0,0,0,.19.78.92.92,0,0,0,.72.23h1v.83h-1.17a1.65,1.65,0,0,1-1.37-.5,2,2,0,0,1-.37-1.34v-5.6h-1.76v-.83h1.76v-2.27Z"/><path class="cls-1" d="M282.61,187.59a5.14,5.14,0,0,1,0,6.09,3.93,3.93,0,0,1-5.86,0,4.64,4.64,0,0,1-1-3,4.54,4.54,0,0,1,1-3,3.54,3.54,0,0,1,2.91-1.32A3.63,3.63,0,0,1,282.61,187.59Zm-5.16.6a3.88,3.88,0,0,0-.73,2.45,3.82,3.82,0,0,0,.73,2.43,2.84,2.84,0,0,0,4.47,0,4,4,0,0,0,.73-2.43,4,4,0,0,0-.73-2.45,2.85,2.85,0,0,0-4.47,0Z"/><path class="cls-1" d="M290,186.45v1a4.26,4.26,0,0,0-1.26-.18,2,2,0,0,0-1.79,1,3.55,3.55,0,0,0-.66,2.16v4.37h-1V186.5h1v1.58a3.05,3.05,0,0,1,.91-1.23,2.4,2.4,0,0,1,1.6-.58A3.15,3.15,0,0,1,290,186.45Z"/><path class="cls-1" d="M297.18,188.82h-.94a2,2,0,0,0-.69-1.27,2.7,2.7,0,0,0-1.68-.44,2.74,2.74,0,0,0-1.49.36,1.17,1.17,0,0,0-.57,1,1.13,1.13,0,0,0,.73,1,10.51,10.51,0,0,0,1.75.58,8.38,8.38,0,0,1,2.14.77,1.86,1.86,0,0,1,1,1.66c0,1.68-1.12,2.51-3.36,2.51s-3.28-.94-3.47-2.83h.94a2.29,2.29,0,0,0,.77,1.57,2.87,2.87,0,0,0,1.73.43c1.6,0,2.4-.54,2.4-1.63a1.24,1.24,0,0,0-.82-1.15,11,11,0,0,0-1.84-.58,7.9,7.9,0,0,1-2-.73,1.76,1.76,0,0,1-.94-1.59,1.84,1.84,0,0,1,.89-1.61,3.69,3.69,0,0,1,2.18-.6C295.85,186.27,297,187.12,297.18,188.82Z"/><path class="cls-1" d="M303.36,186.5h1.07l2.24,7,2.08-7h.93l2.08,7,2.25-7h1.06l-2.83,8.27h-.93l-2.08-7-2.11,7h-.91Z"/><path class="cls-1" d="M317.69,183.76a.68.68,0,0,1,.24.56.79.79,0,0,1-.25.58.83.83,0,0,1-.56.22.78.78,0,0,1-.58-.22.78.78,0,0,1-.24-.58.68.68,0,0,1,.24-.56.75.75,0,0,1,.58-.24A.78.78,0,0,1,317.69,183.76Zm-1.05,2.74h1v8.27h-1Z"/><path class="cls-1" d="M320.4,183.12h1v11.65h-1Z"/><path class="cls-1" d="M324,183.12h1v11.65h-1Z"/><path class="cls-1" d="M332.59,183.12h1v5.12a3,3,0,0,1,2.9-2,3.26,3.26,0,0,1,2.75,1.33,5.53,5.53,0,0,1,0,6.08,3.33,3.33,0,0,1-2.79,1.31,3,3,0,0,1-2.91-1.85v1.63h-.91Zm1.66,5a3.93,3.93,0,0,0-.73,2.48v.19a3.88,3.88,0,0,0,.69,2.4,2.41,2.41,0,0,0,2.09,1,2.5,2.5,0,0,0,2.16-1.06,4.19,4.19,0,0,0,.67-2.49,4.1,4.1,0,0,0-.68-2.48,2.54,2.54,0,0,0-2.18-1.06A2.39,2.39,0,0,0,334.25,188.08Z"/><path class="cls-1" d="M348.09,187.6a5.81,5.81,0,0,1,1,3.31h-6.72a3.89,3.89,0,0,0,.81,2.39,2.64,2.64,0,0,0,2.05.86,2.81,2.81,0,0,0,1.83-.59,3.21,3.21,0,0,0,.88-1.46h1a3.88,3.88,0,0,1-1.1,2,3.68,3.68,0,0,1-2.58.91,3.51,3.51,0,0,1-2.78-1.18,4.53,4.53,0,0,1-1.07-3.18,4.63,4.63,0,0,1,1-3.06,3.79,3.79,0,0,1,5.74,0Zm-4.89.35a3.73,3.73,0,0,0-.87,2.18H348c-.16-2-1.12-3-2.86-3A2.48,2.48,0,0,0,343.2,188Z"/><path class="cls-1" d="M114.11,214.45v1a4.38,4.38,0,0,0-1.27-.18,2,2,0,0,0-1.79,1,3.55,3.55,0,0,0-.66,2.16v4.37h-1V214.5h1v1.58a3.07,3.07,0,0,1,.92-1.23,2.38,2.38,0,0,1,1.59-.58A3.25,3.25,0,0,1,114.11,214.45Z"/><path class="cls-1" d="M121.48,215.6a5.81,5.81,0,0,1,1,3.31h-6.72a3.89,3.89,0,0,0,.81,2.39,2.63,2.63,0,0,0,2,.86,2.78,2.78,0,0,0,1.82-.59,3,3,0,0,0,.88-1.46h1a3.88,3.88,0,0,1-1.1,2,3.72,3.72,0,0,1-2.58.91,3.51,3.51,0,0,1-2.78-1.18,4.54,4.54,0,0,1-1.08-3.18,4.59,4.59,0,0,1,1-3.06,3.79,3.79,0,0,1,5.74,0Zm-4.9.35a3.72,3.72,0,0,0-.86,2.18h5.7c-.16-2-1.12-3-2.87-3A2.51,2.51,0,0,0,116.58,216Z"/><path class="cls-1" d="M129.87,215A3.18,3.18,0,0,1,131,217.2h-1a2.39,2.39,0,0,0-.83-1.57,2.79,2.79,0,0,0-1.76-.52,2.47,2.47,0,0,0-2.08,1,4.81,4.81,0,0,0,0,5.11,2.47,2.47,0,0,0,2.09.94,2.44,2.44,0,0,0,2.66-2.35H131a3.74,3.74,0,0,1-1.18,2.38,3.53,3.53,0,0,1-2.42.8,3.48,3.48,0,0,1-2.85-1.24,4.7,4.7,0,0,1-.94-3.06,4.79,4.79,0,0,1,1-3.1,3.37,3.37,0,0,1,2.83-1.32A3.85,3.85,0,0,1,129.87,215Z"/><path class="cls-1" d="M139.11,215.59a5.1,5.1,0,0,1,0,6.09,3.92,3.92,0,0,1-5.85,0,5.08,5.08,0,0,1,0-6.09,3.56,3.56,0,0,1,2.91-1.32A3.62,3.62,0,0,1,139.11,215.59Zm-5.15.6a3.88,3.88,0,0,0-.73,2.45,3.82,3.82,0,0,0,.73,2.43,2.83,2.83,0,0,0,4.46,0,4,4,0,0,0,.74-2.43,4,4,0,0,0-.74-2.45,2.84,2.84,0,0,0-4.46,0Z"/><path class="cls-1" d="M148.18,216.16V214.5h1v7.66q0,4-3.72,4a4,4,0,0,1-2.51-.7,3.06,3.06,0,0,1-1.06-2h1a2.19,2.19,0,0,0,.77,1.38,2.9,2.9,0,0,0,1.84.51c1.84,0,2.75-1,2.75-3.09v-1.58a3.06,3.06,0,0,1-3,1.89,3.43,3.43,0,0,1-2.77-1.23,4.91,4.91,0,0,1,0-5.83,3.42,3.42,0,0,1,2.77-1.25A3.06,3.06,0,0,1,148.18,216.16Zm-5-.08a3.59,3.59,0,0,0-.74,2.35,3.69,3.69,0,0,0,.69,2.31,2.54,2.54,0,0,0,2.16,1,2.58,2.58,0,0,0,2.14-1,4.21,4.21,0,0,0,0-4.71,2.78,2.78,0,0,0-4.25,0Z"/><path class="cls-1" d="M157.88,217.68v5.09h-1v-5c0-1.76-.78-2.64-2.35-2.64a2.2,2.2,0,0,0-1.67.72,2.94,2.94,0,0,0-.78,1.95v5h-1V214.5h1v1.36a3.4,3.4,0,0,1,1.12-1.17,2.9,2.9,0,0,1,1.57-.42Q157.89,214.27,157.88,217.68Z"/><path class="cls-1" d="M161.43,211.76a.68.68,0,0,1,.24.56.79.79,0,0,1-.25.58.83.83,0,0,1-.56.22.78.78,0,0,1-.58-.22.78.78,0,0,1-.24-.58.68.68,0,0,1,.24-.56.75.75,0,0,1,.58-.24A.78.78,0,0,1,161.43,211.76Zm-1.05,2.74h1v8.27h-1Z"/><path class="cls-1" d="M163.38,214.5h6.42v.73l-5.34,6.71h5.6v.83h-6.84V222l5.33-6.69h-5.17Z"/><path class="cls-1" d="M177.75,215.6a5.81,5.81,0,0,1,.95,3.31H172a3.89,3.89,0,0,0,.81,2.39,2.63,2.63,0,0,0,2.05.86,2.78,2.78,0,0,0,1.82-.59,3,3,0,0,0,.88-1.46h1a3.88,3.88,0,0,1-1.1,2,3.7,3.7,0,0,1-2.58.91,3.51,3.51,0,0,1-2.78-1.18,4.54,4.54,0,0,1-1.08-3.18,4.59,4.59,0,0,1,1-3.06,3.79,3.79,0,0,1,5.74,0Zm-4.89.35a3.66,3.66,0,0,0-.87,2.18h5.7c-.16-2-1.12-3-2.87-3A2.47,2.47,0,0,0,172.86,216Z"/><path class="cls-1" d="M186.47,211.12h1v11.65h-.91v-1.63a3,3,0,0,1-2.9,1.85,3.36,3.36,0,0,1-2.8-1.31,5.53,5.53,0,0,1,0-6.08,3.27,3.27,0,0,1,2.76-1.33,3,3,0,0,1,2.89,2Zm-4.89,5a4,4,0,0,0-.69,2.48,4.19,4.19,0,0,0,.67,2.49,2.69,2.69,0,0,0,4.26,0,4.07,4.07,0,0,0,.68-2.4v-.19a4,4,0,0,0-.73-2.48,2.41,2.41,0,0,0-2-1A2.51,2.51,0,0,0,181.58,216.15Z"/><path class="cls-1" d="M194.78,211.12h1v5.12a3,3,0,0,1,2.89-2,3.24,3.24,0,0,1,2.75,1.33,5.48,5.48,0,0,1,0,6.08A3.32,3.32,0,0,1,198.6,223a3,3,0,0,1-2.91-1.85v1.63h-.91Zm1.66,5a3.93,3.93,0,0,0-.74,2.48v.19a3.88,3.88,0,0,0,.69,2.4,2.42,2.42,0,0,0,2.1,1,2.5,2.5,0,0,0,2.16-1.06,4.19,4.19,0,0,0,.67-2.49,4,4,0,0,0-.69-2.48,2.52,2.52,0,0,0-2.17-1.06A2.37,2.37,0,0,0,196.44,216.08Z"/><path class="cls-1" d="M203.06,214.5h1.06l2.7,6.89,2.68-6.89h1.05L206,225.94h-1l1.39-3.38Z"/><path class="cls-1" d="M219,211.83v2.67h2.16v.83H219v5.6a1.24,1.24,0,0,0,.19.78.92.92,0,0,0,.72.23h1v.83h-1.17a1.65,1.65,0,0,1-1.37-.5,2,2,0,0,1-.37-1.34v-5.6h-1.76v-.83H218v-2.27Z"/><path class="cls-1" d="M222.58,211.12h1V216a3.15,3.15,0,0,1,1.15-1.29,2.93,2.93,0,0,1,1.57-.44,2.89,2.89,0,0,1,2.21.84,3.34,3.34,0,0,1,.8,2.38v5.28h-1v-5.15a2.75,2.75,0,0,0-.61-1.87,2.28,2.28,0,0,0-1.71-.64,2.21,2.21,0,0,0-1.75.83,3,3,0,0,0-.7,2.05v4.78h-1Z"/><path class="cls-1" d="M237.59,215.6a5.81,5.81,0,0,1,.95,3.31h-6.72a3.89,3.89,0,0,0,.81,2.39,2.61,2.61,0,0,0,2.05.86,2.8,2.8,0,0,0,1.82-.59,3,3,0,0,0,.88-1.46h1a3.82,3.82,0,0,1-1.11,2,3.67,3.67,0,0,1-2.57.91,3.51,3.51,0,0,1-2.78-1.18,4.54,4.54,0,0,1-1.08-3.18,4.59,4.59,0,0,1,1-3.06,3.79,3.79,0,0,1,5.74,0Zm-4.89.35a3.6,3.6,0,0,0-.87,2.18h5.7c-.16-2-1.12-3-2.87-3A2.47,2.47,0,0,0,232.7,216Z"/><path class="cls-1" d="M245.4,211.12h1v5.12a3,3,0,0,1,2.89-2A3.26,3.26,0,0,1,252,215.6a5.53,5.53,0,0,1,0,6.08,3.34,3.34,0,0,1-2.79,1.31,3,3,0,0,1-2.91-1.85v1.63h-.91Zm1.66,5a3.93,3.93,0,0,0-.73,2.48v.19a4,4,0,0,0,.68,2.4,2.42,2.42,0,0,0,2.1,1,2.5,2.5,0,0,0,2.16-1.06,4.19,4.19,0,0,0,.67-2.49,4,4,0,0,0-.69-2.48,2.51,2.51,0,0,0-2.17-1.06A2.39,2.39,0,0,0,247.06,216.08Z"/><path class="cls-1" d="M254.92,211.12h1v11.65h-1Z"/><path class="cls-1" d="M264.74,215.59a5.1,5.1,0,0,1,0,6.09,3.92,3.92,0,0,1-5.85,0,5.08,5.08,0,0,1,0-6.09,3.57,3.57,0,0,1,2.92-1.32A3.61,3.61,0,0,1,264.74,215.59Zm-5.15.6a3.88,3.88,0,0,0-.74,2.45,3.83,3.83,0,0,0,.74,2.43,2.83,2.83,0,0,0,4.46,0,3.94,3.94,0,0,0,.74-2.43,3.9,3.9,0,0,0-.74-2.45,2.84,2.84,0,0,0-4.46,0Z"/><path class="cls-1" d="M273.35,215a3.15,3.15,0,0,1,1.14,2.21h-1a2.4,2.4,0,0,0-.84-1.57,2.75,2.75,0,0,0-1.76-.52,2.49,2.49,0,0,0-2.08,1,4.81,4.81,0,0,0,0,5.11,2.47,2.47,0,0,0,2.1.94,2.43,2.43,0,0,0,2.65-2.35h.95a3.74,3.74,0,0,1-1.19,2.38,3.51,3.51,0,0,1-2.41.8,3.45,3.45,0,0,1-2.85-1.24,4.64,4.64,0,0,1-.94-3.06,4.79,4.79,0,0,1,1-3.1,3.4,3.4,0,0,1,2.83-1.32A3.83,3.83,0,0,1,273.35,215Z"/><path class="cls-1" d="M276.05,211.12h1v7.55l4.6-4.17h1.31l-3.63,3.28,4,5H282l-3.42-4.37L277,219.84v2.93h-1Z"/><path class="cls-1" d="M290.2,215a3.11,3.11,0,0,1,1.13,2.21h-1a2.35,2.35,0,0,0-.83-1.57,2.77,2.77,0,0,0-1.76-.52,2.48,2.48,0,0,0-2.08,1,4.81,4.81,0,0,0,0,5.11,2.47,2.47,0,0,0,2.1.94,2.43,2.43,0,0,0,2.65-2.35h.95a3.74,3.74,0,0,1-1.19,2.38,3.53,3.53,0,0,1-2.41.8,3.45,3.45,0,0,1-2.85-1.24,4.65,4.65,0,0,1-.95-3.06,4.79,4.79,0,0,1,1-3.1,3.38,3.38,0,0,1,2.83-1.32A3.85,3.85,0,0,1,290.2,215Z"/><path class="cls-1" d="M292.9,211.12h1V216a3.15,3.15,0,0,1,1.15-1.29,2.93,2.93,0,0,1,1.57-.44,2.89,2.89,0,0,1,2.21.84,3.34,3.34,0,0,1,.8,2.38v5.28h-1v-5.15a2.75,2.75,0,0,0-.61-1.87,2.28,2.28,0,0,0-1.71-.64,2.21,2.21,0,0,0-1.75.83,3,3,0,0,0-.7,2.05v4.78h-1Z"/><path class="cls-1" d="M307.7,215.22a3.18,3.18,0,0,1,.74,2.22v5.33h-.91v-1.58a4.33,4.33,0,0,1-1.35,1.23A4.2,4.2,0,0,1,304,223a3,3,0,0,1-2-.62,2.14,2.14,0,0,1-.75-1.71,2.46,2.46,0,0,1,1.3-2.31,5.61,5.61,0,0,1,2.77-.59h2.11v-.31a2.1,2.1,0,0,0-2.4-2.35,2.91,2.91,0,0,0-1.73.46,2,2,0,0,0-.85,1.44h-.94a2.92,2.92,0,0,1,1.17-2.08,4.07,4.07,0,0,1,2.4-.64A3.24,3.24,0,0,1,307.7,215.22Zm-.22,3.31-2.07,0c-2.09,0-3.13.71-3.13,2.09a1.36,1.36,0,0,0,.53,1.12,2.09,2.09,0,0,0,1.4.43,3.42,3.42,0,0,0,2.31-.86,2.46,2.46,0,0,0,1-1.84Z"/><path class="cls-1" d="M312,211.76a.68.68,0,0,1,.24.56.76.76,0,0,1-.26.58.81.81,0,0,1-.56.22.77.77,0,0,1-.57-.22.78.78,0,0,1-.24-.58.68.68,0,0,1,.24-.56.75.75,0,0,1,.57-.24A.78.78,0,0,1,312,211.76Zm-1.06,2.74h1v8.27h-1Z"/><path class="cls-1" d="M321.11,217.68v5.09h-1v-5c0-1.76-.78-2.64-2.35-2.64a2.2,2.2,0,0,0-1.67.72,2.9,2.9,0,0,0-.78,1.95v5h-1V214.5h1v1.36a3.4,3.4,0,0,1,1.12-1.17,2.9,2.9,0,0,1,1.57-.42Q321.11,214.27,321.11,217.68Z"/><path class="cls-1" d="M324.76,221.39a.73.73,0,0,1,.24.58.82.82,0,0,1-.26.58.83.83,0,0,1-.56.22.73.73,0,0,1-.57-.24.77.77,0,0,1-.24-.56.73.73,0,0,1,.24-.58.76.76,0,0,1,.57-.22A.82.82,0,0,1,324.76,221.39Z"/></svg>