<svg id="图层_1" data-name="图层 1" xmlns="http://www.w3.org/2000/svg" viewBox="0 0 441 276"><defs><style>.cls-1{fill:#33353c;}</style></defs><title>121212</title><path class="cls-1" d="M51.61,14.42h5.22q4.28,0,4.28,3.69t-4.3,3.71h-4.1v5.45h-1.1Zm1.1,1v5.45h4a3.8,3.8,0,0,0,2.47-.68A2.6,2.6,0,0,0,60,18.11a2.52,2.52,0,0,0-.77-2,3.69,3.69,0,0,0-2.47-.7Z"/><path class="cls-1" d="M70.2,19.19a5.21,5.21,0,0,1,1.13,3.44A5.22,5.22,0,0,1,70.2,26a4.41,4.41,0,0,1-6.59,0,5.22,5.22,0,0,1-1.13-3.42,5.15,5.15,0,0,1,1.15-3.44,4,4,0,0,1,3.28-1.48A4.09,4.09,0,0,1,70.2,19.19Zm-5.8.68a4.35,4.35,0,0,0-.83,2.75,4.32,4.32,0,0,0,.83,2.74,3.19,3.19,0,0,0,5,0,4.51,4.51,0,0,0,.83-2.74,4.45,4.45,0,0,0-.83-2.75,3.19,3.19,0,0,0-5,0Z"/><path class="cls-1" d="M75,14.89a.76.76,0,0,1,.27.63.89.89,0,0,1-.29.65.94.94,0,0,1-.63.25.89.89,0,0,1-.92-.9.76.76,0,0,1,.27-.63.84.84,0,0,1,.65-.27A.88.88,0,0,1,75,14.89ZM73.78,18h1.08v9.31H73.78Z"/><path class="cls-1" d="M85.23,21.55v5.72H84.15V21.62q0-3-2.65-3a2.46,2.46,0,0,0-1.87.81,3.28,3.28,0,0,0-.88,2.2v5.62H77.67V18h1.08v1.53A3.78,3.78,0,0,1,80,18.18a3.28,3.28,0,0,1,1.76-.47Q85.23,17.71,85.23,21.55Z"/><path class="cls-1" d="M89.75,15v3h2.43v.94H89.75v6.3a1.42,1.42,0,0,0,.22.88,1,1,0,0,0,.81.25h1.17v.94H90.63a1.92,1.92,0,0,1-1.55-.56,2.25,2.25,0,0,1-.41-1.51V18.9h-2V18h2V15.41Z"/><path class="cls-1" d="M101.54,15.19a4.1,4.1,0,0,1,1.44,3h-1.1a3.57,3.57,0,0,0-1.13-2.29,3.86,3.86,0,0,0-2.59-.77,4.74,4.74,0,0,0-2.45.54,2,2,0,0,0,.2,3.53,19.2,19.2,0,0,0,2.47.83,15.37,15.37,0,0,1,3.31,1.22,3,3,0,0,1,1.6,2.7,3.05,3.05,0,0,1-1.39,2.63,6,6,0,0,1-3.51.92,5.5,5.5,0,0,1-3.49-1A4.61,4.61,0,0,1,93.28,23h1.08a3.89,3.89,0,0,0,1.26,2.7,4.3,4.3,0,0,0,2.75.79,5.18,5.18,0,0,0,2.75-.67,2.09,2.09,0,0,0,1-1.82A2.27,2.27,0,0,0,100.86,22,13.92,13.92,0,0,0,98,21a15.73,15.73,0,0,1-3-1,2.62,2.62,0,0,1-1.48-2.41A2.85,2.85,0,0,1,95,15a5.62,5.62,0,0,1,3.2-.83A5.09,5.09,0,0,1,101.54,15.19Z"/><path class="cls-1" d="M112.09,19.21a6.49,6.49,0,0,1,1.06,3.73h-7.56a4.38,4.38,0,0,0,.92,2.68,2.93,2.93,0,0,0,2.3,1,3.12,3.12,0,0,0,2.05-.67,3.49,3.49,0,0,0,1-1.64H113a4.35,4.35,0,0,1-1.24,2.21,4.15,4.15,0,0,1-2.9,1,4,4,0,0,1-3.13-1.33,5.14,5.14,0,0,1-1.21-3.58,5.2,5.2,0,0,1,1.15-3.44,4.27,4.27,0,0,1,6.46,0Zm-5.51.4a4.09,4.09,0,0,0-1,2.45H112q-.27-3.4-3.22-3.4A2.78,2.78,0,0,0,106.58,19.6Z"/><path class="cls-1" d="M117.13,15v3h2.43v.94h-2.43v6.3a1.42,1.42,0,0,0,.22.88,1,1,0,0,0,.81.25h1.17v.94H118a1.92,1.92,0,0,1-1.55-.56A2.25,2.25,0,0,1,116,25.2V18.9h-2V18h2V15.41Z"/><path class="cls-1" d="M134.55,19.19a5.21,5.21,0,0,1,1.13,3.44A5.22,5.22,0,0,1,134.55,26,4.41,4.41,0,0,1,128,26a5.22,5.22,0,0,1-1.13-3.42A5.15,5.15,0,0,1,128,19.19a4,4,0,0,1,3.28-1.48A4.09,4.09,0,0,1,134.55,19.19Zm-5.8.68a4.35,4.35,0,0,0-.83,2.75,4.32,4.32,0,0,0,.83,2.74,3.19,3.19,0,0,0,5,0,4.51,4.51,0,0,0,.83-2.74,4.44,4.44,0,0,0-.83-2.75,3.19,3.19,0,0,0-5,0Z"/><path class="cls-1" d="M143,14.42v1h-1.57a1.28,1.28,0,0,0-1,.36,1.65,1.65,0,0,0-.32,1.15V18h4.54v-1.1a2.56,2.56,0,0,1,.56-1.78,2.25,2.25,0,0,1,1.76-.67h1.67v1h-1.57a1.31,1.31,0,0,0-1,.36,1.68,1.68,0,0,0-.31,1.15V18h2.79v.94h-2.79v8.37h-1.08V18.9h-4.54v8.37H139V18.9h-2.48V18H139v-1.1a2.47,2.47,0,0,1,.58-1.78,2.24,2.24,0,0,1,1.76-.67Z"/><path class="cls-1" d="M156.94,19.21A6.49,6.49,0,0,1,158,22.93h-7.56a4.38,4.38,0,0,0,.92,2.68,2.93,2.93,0,0,0,2.3,1,3.12,3.12,0,0,0,2.05-.67,3.48,3.48,0,0,0,1-1.64h1.1a4.34,4.34,0,0,1-1.24,2.21,4.15,4.15,0,0,1-2.9,1,4,4,0,0,1-3.13-1.33,5.14,5.14,0,0,1-1.21-3.58,5.2,5.2,0,0,1,1.15-3.44,4.27,4.27,0,0,1,6.46,0Zm-5.51.4a4.09,4.09,0,0,0-1,2.45h6.41q-.27-3.4-3.22-3.4A2.78,2.78,0,0,0,151.44,19.6Z"/><path class="cls-1" d="M165,17.91V19a5,5,0,0,0-1.42-.2,2.3,2.3,0,0,0-2,1.12,4,4,0,0,0-.74,2.43v4.91h-1.08V18h1.08v1.78a3.41,3.41,0,0,1,1-1.39,2.68,2.68,0,0,1,1.8-.65A3.69,3.69,0,0,1,165,17.91Z"/><path class="cls-1" d="M173.09,20.57H172a2.2,2.2,0,0,0-.78-1.42,3.7,3.7,0,0,0-3.56-.09,1.3,1.3,0,0,0-.65,1.12,1.28,1.28,0,0,0,.83,1.13,12.6,12.6,0,0,0,2,.65,9.36,9.36,0,0,1,2.41.86,2.1,2.1,0,0,1,1.12,1.87q0,2.83-3.78,2.83-3.58,0-3.91-3.19h1.06a2.54,2.54,0,0,0,.86,1.76,3.23,3.23,0,0,0,1.94.49q2.7,0,2.7-1.84a1.41,1.41,0,0,0-.92-1.3,12.29,12.29,0,0,0-2.07-.65A9,9,0,0,1,167,22a2,2,0,0,1-1.06-1.78,2.1,2.1,0,0,1,1-1.82,4.19,4.19,0,0,1,2.45-.67Q172.69,17.71,173.09,20.57Z"/><path class="cls-1" d="M187.92,18.77a3.59,3.59,0,0,1,.83,2.5v6h-1V25.49a4.82,4.82,0,0,1-1.51,1.39,4.69,4.69,0,0,1-2.43.65,3.36,3.36,0,0,1-2.21-.7,2.4,2.4,0,0,1-.85-1.93,2.75,2.75,0,0,1,1.46-2.59,6.28,6.28,0,0,1,3.12-.67l2.38,0v-.34a2.36,2.36,0,0,0-2.7-2.65,3.2,3.2,0,0,0-1.94.52,2.21,2.21,0,0,0-1,1.62H181a3.25,3.25,0,0,1,1.31-2.34,4.55,4.55,0,0,1,2.7-.72A3.66,3.66,0,0,1,187.92,18.77Zm-.25,3.73-2.32,0q-3.53,0-3.53,2.36a1.55,1.55,0,0,0,.59,1.26,2.39,2.39,0,0,0,1.58.49,3.87,3.87,0,0,0,2.59-1,2.75,2.75,0,0,0,1.08-2.07Z"/><path class="cls-1" d="M203.71,19.62a3.62,3.62,0,0,1,1.24-1.42,2.9,2.9,0,0,1,1.69-.49,3.06,3.06,0,0,1,2.34.92,3.67,3.67,0,0,1,.85,2.56v6.08h-1.08V21.33a3,3,0,0,0-.54-2,2.29,2.29,0,0,0-1.85-.7,2.13,2.13,0,0,0-1.69.77,2.72,2.72,0,0,0-.68,1.93v5.92h-1.1V21.33q0-2.68-2.32-2.68a2.15,2.15,0,0,0-1.75.85,3,3,0,0,0-.72,2.05v5.72H197V18h1.08v1.4a3,3,0,0,1,2.7-1.66A2.81,2.81,0,0,1,203.71,19.62Z"/><path class="cls-1" d="M212.09,18h1.08v5.69a3.3,3.3,0,0,0,.61,2.18,2.49,2.49,0,0,0,2,.76,2.6,2.6,0,0,0,1.89-.83,3.29,3.29,0,0,0,.92-2.14V18h1.08v9.31h-1.08V25.7a3.41,3.41,0,0,1-3.1,1.82q-3.4,0-3.4-3.82Z"/><path class="cls-1" d="M228.58,18.52A3.53,3.53,0,0,1,229.86,21h-1.08a2.65,2.65,0,0,0-.94-1.76,3.11,3.11,0,0,0-2-.59,2.79,2.79,0,0,0-2.34,1.13,4.53,4.53,0,0,0-.85,2.9,4.57,4.57,0,0,0,.81,2.84,2.78,2.78,0,0,0,2.36,1.06,2.75,2.75,0,0,0,3-2.65h1.06a4.25,4.25,0,0,1-1.33,2.68,4,4,0,0,1-2.72.9,3.88,3.88,0,0,1-3.2-1.4,5.2,5.2,0,0,1-1.06-3.44,5.41,5.41,0,0,1,1.1-3.49,3.82,3.82,0,0,1,3.19-1.48A4.31,4.31,0,0,1,228.58,18.52Z"/><path class="cls-1" d="M231.62,14.17h1.1v5.49A3.58,3.58,0,0,1,234,18.2a3.3,3.3,0,0,1,1.76-.49,3.25,3.25,0,0,1,2.48.94,3.76,3.76,0,0,1,.9,2.68v5.94h-1.08v-5.8a3.07,3.07,0,0,0-.68-2.11,2.57,2.57,0,0,0-1.93-.72,2.51,2.51,0,0,0-2,.94,3.36,3.36,0,0,0-.79,2.3v5.38h-1.1Z"/><path class="cls-1" d="M254.3,20.57h-1.06a2.2,2.2,0,0,0-.77-1.42,3.7,3.7,0,0,0-3.56-.09,1.3,1.3,0,0,0-.65,1.12,1.28,1.28,0,0,0,.83,1.13,12.59,12.59,0,0,0,2,.65,9.37,9.37,0,0,1,2.41.86,2.1,2.1,0,0,1,1.12,1.87q0,2.83-3.78,2.83-3.58,0-3.91-3.19h1.06a2.54,2.54,0,0,0,.87,1.76,3.23,3.23,0,0,0,1.94.49q2.7,0,2.7-1.84a1.41,1.41,0,0,0-.92-1.3,12.35,12.35,0,0,0-2.07-.65A9,9,0,0,1,248.2,22a2,2,0,0,1-1.06-1.78,2.1,2.1,0,0,1,1-1.82,4.18,4.18,0,0,1,2.45-.67Q253.91,17.71,254.3,20.57Z"/><path class="cls-1" d="M263.14,18.77a3.6,3.6,0,0,1,.83,2.5v6h-1V25.49a4.82,4.82,0,0,1-1.51,1.39,4.69,4.69,0,0,1-2.43.65,3.36,3.36,0,0,1-2.21-.7,2.4,2.4,0,0,1-.85-1.93,2.75,2.75,0,0,1,1.46-2.59,6.28,6.28,0,0,1,3.11-.67l2.38,0v-.34a2.36,2.36,0,0,0-2.7-2.65,3.2,3.2,0,0,0-1.94.52,2.21,2.21,0,0,0-1,1.62h-1.06a3.25,3.25,0,0,1,1.31-2.34,4.55,4.55,0,0,1,2.7-.72A3.67,3.67,0,0,1,263.14,18.77Zm-.25,3.73-2.32,0q-3.53,0-3.53,2.36a1.55,1.55,0,0,0,.59,1.26,2.39,2.39,0,0,0,1.58.49,3.87,3.87,0,0,0,2.59-1,2.76,2.76,0,0,0,1.08-2.07Z"/><path class="cls-1" d="M271.67,14.42v1h-1.57a1.28,1.28,0,0,0-1,.36,1.65,1.65,0,0,0-.32,1.15V18h2.79v.94h-2.79v8.37h-1.08V18.9h-2.48V18h2.48v-1.1a2.47,2.47,0,0,1,.58-1.78,2.24,2.24,0,0,1,1.76-.67Z"/><path class="cls-1" d="M280,19.21A6.49,6.49,0,0,1,281,22.93h-7.56a4.38,4.38,0,0,0,.92,2.68,2.93,2.93,0,0,0,2.3,1,3.12,3.12,0,0,0,2.05-.67,3.48,3.48,0,0,0,1-1.64h1.1a4.36,4.36,0,0,1-1.24,2.21,4.15,4.15,0,0,1-2.9,1,4,4,0,0,1-3.13-1.33,5.14,5.14,0,0,1-1.21-3.58,5.2,5.2,0,0,1,1.15-3.44,4.27,4.27,0,0,1,6.46,0Zm-5.51.4a4.09,4.09,0,0,0-1,2.45h6.41q-.27-3.4-3.22-3.4A2.79,2.79,0,0,0,274.46,19.6Z"/><path class="cls-1" d="M288,17.91V19a5,5,0,0,0-1.42-.2,2.3,2.3,0,0,0-2,1.12,4,4,0,0,0-.74,2.43v4.91h-1.08V18h1.08v1.78a3.42,3.42,0,0,1,1-1.39,2.68,2.68,0,0,1,1.8-.65A3.69,3.69,0,0,1,288,17.91Z"/><path class="cls-1" d="M291.47,27a3.31,3.31,0,0,1-1.8,3.11l-.4-.63a2.84,2.84,0,0,0,1.39-2.2l-.27,0a1,1,0,0,1-.67-.23.84.84,0,0,1-.25-.65.86.86,0,0,1,.23-.67.9.9,0,0,1,.67-.25Q291.47,25.47,291.47,27Z"/><path class="cls-1" d="M307,19.21A6.49,6.49,0,0,1,308,22.93h-7.56a4.37,4.37,0,0,0,.92,2.68,2.93,2.93,0,0,0,2.3,1,3.12,3.12,0,0,0,2.05-.67,3.49,3.49,0,0,0,1-1.64h1.1a4.35,4.35,0,0,1-1.24,2.21,4.15,4.15,0,0,1-2.9,1,4,4,0,0,1-3.13-1.33,5.13,5.13,0,0,1-1.21-3.58,5.2,5.2,0,0,1,1.15-3.44,4.27,4.27,0,0,1,6.46,0Zm-5.51.4a4.09,4.09,0,0,0-1,2.45h6.41q-.27-3.4-3.22-3.4A2.78,2.78,0,0,0,301.45,19.6Z"/><path class="cls-1" d="M316.58,18.77a3.59,3.59,0,0,1,.83,2.5v6h-1V25.49a4.82,4.82,0,0,1-1.51,1.39,4.69,4.69,0,0,1-2.43.65,3.36,3.36,0,0,1-2.21-.7,2.4,2.4,0,0,1-.85-1.93,2.75,2.75,0,0,1,1.46-2.59,6.28,6.28,0,0,1,3.12-.67l2.38,0v-.34a2.36,2.36,0,0,0-2.7-2.65,3.2,3.2,0,0,0-1.94.52,2.21,2.21,0,0,0-1,1.62h-1.06A3.25,3.25,0,0,1,311,18.43a4.55,4.55,0,0,1,2.7-.72A3.66,3.66,0,0,1,316.58,18.77Zm-.25,3.73-2.32,0q-3.53,0-3.53,2.36a1.55,1.55,0,0,0,.59,1.26,2.39,2.39,0,0,0,1.58.49,3.87,3.87,0,0,0,2.59-1,2.75,2.75,0,0,0,1.08-2.07Z"/><path class="cls-1" d="M326.55,20.57h-1.06a2.2,2.2,0,0,0-.77-1.42,3.7,3.7,0,0,0-3.56-.09,1.23,1.23,0,0,0,.18,2.25,12.64,12.64,0,0,0,2,.65,9.39,9.39,0,0,1,2.41.86,2.1,2.1,0,0,1,1.12,1.87q0,2.83-3.78,2.83-3.58,0-3.91-3.19h1.06a2.53,2.53,0,0,0,.86,1.76,3.23,3.23,0,0,0,1.94.49q2.7,0,2.7-1.84a1.41,1.41,0,0,0-.92-1.3,12.35,12.35,0,0,0-2.07-.65,9,9,0,0,1-2.27-.83,2,2,0,0,1-1.06-1.78,2.1,2.1,0,0,1,1-1.82,4.18,4.18,0,0,1,2.45-.67Q326.16,17.71,326.55,20.57Z"/><path class="cls-1" d="M330.28,14.89a.76.76,0,0,1,.27.63.9.9,0,0,1-.29.65.94.94,0,0,1-.63.25.87.87,0,0,1-.65-.25.88.88,0,0,1-.27-.65.76.76,0,0,1,.27-.63.84.84,0,0,1,.65-.27A.88.88,0,0,1,330.28,14.89ZM329.09,18h1.08v9.31h-1.08Z"/><path class="cls-1" d="M340.05,19.21a6.49,6.49,0,0,1,1.06,3.73h-7.56a4.37,4.37,0,0,0,.92,2.68,2.93,2.93,0,0,0,2.3,1,3.12,3.12,0,0,0,2.05-.67,3.49,3.49,0,0,0,1-1.64h1.1a4.35,4.35,0,0,1-1.24,2.21,4.15,4.15,0,0,1-2.9,1,4,4,0,0,1-3.13-1.33,5.13,5.13,0,0,1-1.21-3.58,5.2,5.2,0,0,1,1.15-3.44,4.27,4.27,0,0,1,6.46,0Zm-5.51.4a4.09,4.09,0,0,0-1,2.45H340q-.27-3.4-3.22-3.4A2.78,2.78,0,0,0,334.55,19.6Z"/><path class="cls-1" d="M348.1,17.91V19a5,5,0,0,0-1.42-.2,2.3,2.3,0,0,0-2,1.12,4,4,0,0,0-.74,2.43v4.91h-1.08V18h1.08v1.78a3.41,3.41,0,0,1,1-1.39,2.68,2.68,0,0,1,1.8-.65A3.69,3.69,0,0,1,348.1,17.91Z"/><path class="cls-1" d="M362.16,18.77a3.6,3.6,0,0,1,.83,2.5v6h-1V25.49a4.82,4.82,0,0,1-1.51,1.39,4.69,4.69,0,0,1-2.43.65,3.36,3.36,0,0,1-2.21-.7,2.4,2.4,0,0,1-.85-1.93,2.75,2.75,0,0,1,1.46-2.59,6.28,6.28,0,0,1,3.11-.67l2.38,0v-.34a2.36,2.36,0,0,0-2.7-2.65,3.2,3.2,0,0,0-1.94.52,2.21,2.21,0,0,0-1,1.62h-1.06a3.25,3.25,0,0,1,1.31-2.34,4.55,4.55,0,0,1,2.7-.72A3.67,3.67,0,0,1,362.16,18.77Zm-.25,3.73-2.32,0q-3.53,0-3.53,2.36a1.55,1.55,0,0,0,.59,1.26,2.39,2.39,0,0,0,1.58.49,3.87,3.87,0,0,0,2.59-1,2.76,2.76,0,0,0,1.08-2.07Z"/><path class="cls-1" d="M372.81,21.55v5.72h-1.08V21.62q0-3-2.65-3a2.46,2.46,0,0,0-1.87.81,3.28,3.28,0,0,0-.88,2.2v5.62h-1.08V18h1.08v1.53a3.77,3.77,0,0,1,1.26-1.31,3.28,3.28,0,0,1,1.76-.47Q372.81,17.71,372.81,21.55Z"/><path class="cls-1" d="M382.1,14.17h1.08v13.1h-1V25.43a3.34,3.34,0,0,1-3.26,2.09A3.78,3.78,0,0,1,375.75,26a5.52,5.52,0,0,1-1-3.44,5.47,5.47,0,0,1,1-3.4,3.65,3.65,0,0,1,3.1-1.49,3.4,3.4,0,0,1,3.26,2.21Zm-5.51,5.65a4.48,4.48,0,0,0-.77,2.79,4.74,4.74,0,0,0,.76,2.81A2.8,2.8,0,0,0,379,26.6a2.76,2.76,0,0,0,2.36-1.15,4.52,4.52,0,0,0,.77-2.7v-.22a4.51,4.51,0,0,0-.83-2.79A2.7,2.7,0,0,0,379,18.63,2.85,2.85,0,0,0,376.59,19.82Z"/><path class="cls-1" d="M49.78,46.17h1.08v13.1H49.78Z"/><path class="cls-1" d="M60.83,51.19a5.75,5.75,0,0,1,0,6.86,4.41,4.41,0,0,1-6.59,0,5.22,5.22,0,0,1-1.13-3.42,5.15,5.15,0,0,1,1.15-3.44,4,4,0,0,1,3.28-1.48A4.09,4.09,0,0,1,60.83,51.19Zm-5.8.68a5,5,0,0,0,0,5.49,3.19,3.19,0,0,0,5,0,4.51,4.51,0,0,0,.83-2.74,4.45,4.45,0,0,0-.83-2.75,3.19,3.19,0,0,0-5,0Z"/><path class="cls-1" d="M62.83,50H64l2.52,7.92L68.9,50h1l2.34,7.92L74.82,50H76l-3.19,9.31h-1l-2.34-7.9-2.38,7.9H66Z"/><path class="cls-1" d="M83.23,46.17h1.08v5.76a3.4,3.4,0,0,1,3.26-2.21,3.65,3.65,0,0,1,3.1,1.49,5.46,5.46,0,0,1,1,3.4,5.52,5.52,0,0,1-1,3.44,3.76,3.76,0,0,1-3.13,1.48,3.34,3.34,0,0,1-3.28-2.09v1.84h-1Zm1.87,5.58a4.41,4.41,0,0,0-.83,2.79v.22a4.42,4.42,0,0,0,.77,2.7A2.73,2.73,0,0,0,87.4,58.6a2.83,2.83,0,0,0,2.43-1.19,4.74,4.74,0,0,0,.76-2.81,4.58,4.58,0,0,0-.77-2.79,2.85,2.85,0,0,0-2.45-1.19A2.67,2.67,0,0,0,85.1,51.75Z"/><path class="cls-1" d="M93.59,50h1.08v5.69a3.3,3.3,0,0,0,.61,2.18,2.49,2.49,0,0,0,2,.76,2.6,2.6,0,0,0,1.89-.83,3.29,3.29,0,0,0,.92-2.14V50h1.08v9.31h-1.08V57.7A3.41,3.41,0,0,1,97,59.52q-3.4,0-3.4-3.82Z"/><path class="cls-1" d="M110.46,46.17h1.08v13.1h-1V57.43a3.34,3.34,0,0,1-3.26,2.09A3.78,3.78,0,0,1,104.1,58a5.52,5.52,0,0,1-1-3.44,5.47,5.47,0,0,1,1-3.4,3.65,3.65,0,0,1,3.1-1.49,3.4,3.4,0,0,1,3.26,2.21ZM105,51.82a4.48,4.48,0,0,0-.77,2.79,4.74,4.74,0,0,0,.76,2.81,2.8,2.8,0,0,0,2.43,1.19,2.76,2.76,0,0,0,2.36-1.15,4.52,4.52,0,0,0,.77-2.7v-.22a4.51,4.51,0,0,0-.83-2.79,2.7,2.7,0,0,0-2.27-1.12A2.85,2.85,0,0,0,105,51.82Z"/><path class="cls-1" d="M121,51.84V50h1.08v8.62q0,4.5-4.18,4.5a4.47,4.47,0,0,1-2.83-.79,3.39,3.39,0,0,1-1.19-2.23h1.08a2.41,2.41,0,0,0,.86,1.55,3.25,3.25,0,0,0,2.07.58q3.1,0,3.1-3.47V56.93a3.46,3.46,0,0,1-3.33,2.12,3.87,3.87,0,0,1-3.11-1.39,5.51,5.51,0,0,1,0-6.55,3.85,3.85,0,0,1,3.11-1.4A3.46,3.46,0,0,1,121,51.84Zm-5.6-.09a4,4,0,0,0-.83,2.65,4.13,4.13,0,0,0,.77,2.59,2.85,2.85,0,0,0,2.43,1.13A2.92,2.92,0,0,0,120.16,57a4.73,4.73,0,0,0,0-5.29,3.12,3.12,0,0,0-4.79,0Z"/><path class="cls-1" d="M131.39,51.21a6.49,6.49,0,0,1,1.06,3.73h-7.56a4.38,4.38,0,0,0,.92,2.68,2.93,2.93,0,0,0,2.3,1,3.12,3.12,0,0,0,2.05-.67,3.48,3.48,0,0,0,1-1.64h1.1A4.34,4.34,0,0,1,131,58.5a4.15,4.15,0,0,1-2.9,1A4,4,0,0,1,125,58.19a5.14,5.14,0,0,1-1.21-3.58,5.2,5.2,0,0,1,1.15-3.44,4.27,4.27,0,0,1,6.46,0Zm-5.51.4a4.09,4.09,0,0,0-1,2.45h6.41q-.27-3.4-3.22-3.4A2.78,2.78,0,0,0,125.88,51.6Z"/><path class="cls-1" d="M136.43,47v3h2.43v.94h-2.43v6.3a1.41,1.41,0,0,0,.22.88,1,1,0,0,0,.81.25h1.17v.94h-1.31a1.92,1.92,0,0,1-1.55-.56,2.26,2.26,0,0,1-.41-1.51V50.9h-2V50h2V47.41Z"/><path class="cls-1" d="M153.14,50.52A3.53,3.53,0,0,1,154.41,53h-1.08a2.65,2.65,0,0,0-.94-1.76,3.12,3.12,0,0,0-2-.59,2.79,2.79,0,0,0-2.34,1.13,5.39,5.39,0,0,0,0,5.74,2.78,2.78,0,0,0,2.36,1.06,2.75,2.75,0,0,0,3-2.65h1.06a4.24,4.24,0,0,1-1.33,2.68,4,4,0,0,1-2.72.9,3.88,3.88,0,0,1-3.2-1.4,5.21,5.21,0,0,1-1.06-3.44,5.4,5.4,0,0,1,1.1-3.49,3.82,3.82,0,0,1,3.19-1.48A4.31,4.31,0,0,1,153.14,50.52Z"/><path class="cls-1" d="M163.54,51.19a5.75,5.75,0,0,1,0,6.86A4.41,4.41,0,0,1,157,58a5.22,5.22,0,0,1-1.13-3.42A5.15,5.15,0,0,1,157,51.19a4,4,0,0,1,3.28-1.48A4.09,4.09,0,0,1,163.54,51.19Zm-5.8.68a5,5,0,0,0,0,5.49,3.19,3.19,0,0,0,5,0,4.51,4.51,0,0,0,.83-2.74,4.44,4.44,0,0,0-.83-2.75,3.19,3.19,0,0,0-5,0Z"/><path class="cls-1" d="M174,51.21A6.26,6.26,0,0,1,174,58a3.74,3.74,0,0,1-3.11,1.48,3.4,3.4,0,0,1-3.26-2.2v5.51h-1.08V50h1V51.8a3.42,3.42,0,0,1,3.28-2.09A3.74,3.74,0,0,1,174,51.21Zm-5.62.61a4.51,4.51,0,0,0-.77,2.75v.2a4.36,4.36,0,0,0,.83,2.75,2.74,2.74,0,0,0,2.27,1.08,2.91,2.91,0,0,0,2.45-1.15,4.74,4.74,0,0,0,.76-2.81,4.83,4.83,0,0,0-.74-2.81,2.82,2.82,0,0,0-2.43-1.21A2.73,2.73,0,0,0,168.4,51.82Z"/><path class="cls-1" d="M175.91,50h1.19l3,7.76,3-7.76h1.19L179.2,62.83H178L179.6,59Z"/><path class="cls-1" d="M190.81,49.91V51a5,5,0,0,0-1.42-.2,2.3,2.3,0,0,0-2,1.12,4,4,0,0,0-.74,2.43v4.91h-1.08V50h1.08v1.78a3.41,3.41,0,0,1,1-1.39,2.68,2.68,0,0,1,1.8-.65A3.69,3.69,0,0,1,190.81,49.91Z"/><path class="cls-1" d="M193.76,46.89a.76.76,0,0,1,.27.63.89.89,0,0,1-.29.65.94.94,0,0,1-.63.25.89.89,0,0,1-.92-.9.76.76,0,0,1,.27-.63.85.85,0,0,1,.65-.27A.88.88,0,0,1,193.76,46.89ZM192.57,50h1.08v9.31h-1.08Z"/><path class="cls-1" d="M203.63,51.84V50h1.08v8.62q0,4.5-4.18,4.5a4.47,4.47,0,0,1-2.83-.79,3.39,3.39,0,0,1-1.19-2.23h1.08a2.41,2.41,0,0,0,.86,1.55,3.25,3.25,0,0,0,2.07.58q3.1,0,3.1-3.47V56.93a3.46,3.46,0,0,1-3.33,2.12,3.87,3.87,0,0,1-3.11-1.39,5.51,5.51,0,0,1,0-6.55,3.85,3.85,0,0,1,3.11-1.4A3.46,3.46,0,0,1,203.63,51.84Zm-5.6-.09a4,4,0,0,0-.83,2.65A4.14,4.14,0,0,0,198,57a2.85,2.85,0,0,0,2.43,1.13A2.91,2.91,0,0,0,202.81,57a4.72,4.72,0,0,0,0-5.29,3.12,3.12,0,0,0-4.79,0Z"/><path class="cls-1" d="M207,46.17h1.1v5.49a3.58,3.58,0,0,1,1.3-1.46,3.3,3.3,0,0,1,1.76-.49,3.25,3.25,0,0,1,2.48.94,3.76,3.76,0,0,1,.9,2.68v5.94h-1.08v-5.8a3.07,3.07,0,0,0-.68-2.11,2.57,2.57,0,0,0-1.93-.72,2.51,2.51,0,0,0-2,.94,3.36,3.36,0,0,0-.79,2.3v5.38H207Z"/><path class="cls-1" d="M219,47v3h2.43v.94H219v6.3a1.42,1.42,0,0,0,.22.88,1,1,0,0,0,.81.25h1.17v.94h-1.31a1.92,1.92,0,0,1-1.55-.56A2.25,2.25,0,0,1,218,57.2V50.9h-2V50h2V47.41Z"/><path class="cls-1" d="M236.53,51.21a6.26,6.26,0,0,1,0,6.84,3.74,3.74,0,0,1-3.11,1.48,3.41,3.41,0,0,1-3.26-2.2v5.51h-1.08V50h1V51.8a3.42,3.42,0,0,1,3.28-2.09A3.75,3.75,0,0,1,236.53,51.21Zm-5.62.61a4.51,4.51,0,0,0-.77,2.75v.2a4.35,4.35,0,0,0,.83,2.75,2.73,2.73,0,0,0,2.27,1.08,2.91,2.91,0,0,0,2.45-1.15,4.74,4.74,0,0,0,.76-2.81,4.83,4.83,0,0,0-.74-2.81,2.82,2.82,0,0,0-2.43-1.21A2.73,2.73,0,0,0,230.91,51.82Z"/><path class="cls-1" d="M244.72,49.91V51a5,5,0,0,0-1.42-.2,2.3,2.3,0,0,0-2,1.12,4,4,0,0,0-.74,2.43v4.91h-1.08V50h1.08v1.78a3.42,3.42,0,0,1,1-1.39,2.68,2.68,0,0,1,1.8-.65A3.69,3.69,0,0,1,244.72,49.91Z"/><path class="cls-1" d="M253.3,51.19a5.75,5.75,0,0,1,0,6.86,4.41,4.41,0,0,1-6.59,0,5.22,5.22,0,0,1-1.13-3.42,5.16,5.16,0,0,1,1.15-3.44A4,4,0,0,1,250,49.71,4.09,4.09,0,0,1,253.3,51.19Zm-5.8.68a5,5,0,0,0,0,5.49,3.19,3.19,0,0,0,5,0,4.52,4.52,0,0,0,.83-2.74,4.45,4.45,0,0,0-.83-2.75,3.19,3.19,0,0,0-5,0Z"/><path class="cls-1" d="M258.6,47v3H261v.94H258.6v6.3a1.41,1.41,0,0,0,.22.88,1,1,0,0,0,.81.25h1.17v.94h-1.31a1.92,1.92,0,0,1-1.55-.56,2.26,2.26,0,0,1-.41-1.51V50.9h-2V50h2V47.41Z"/><path class="cls-1" d="M269.74,51.21a6.49,6.49,0,0,1,1.06,3.73h-7.56a4.38,4.38,0,0,0,.92,2.68,2.93,2.93,0,0,0,2.3,1,3.12,3.12,0,0,0,2.05-.67,3.48,3.48,0,0,0,1-1.64h1.1a4.34,4.34,0,0,1-1.24,2.21,4.15,4.15,0,0,1-2.9,1,4,4,0,0,1-3.13-1.33,5.14,5.14,0,0,1-1.21-3.58,5.2,5.2,0,0,1,1.15-3.44,4.27,4.27,0,0,1,6.46,0Zm-5.51.4a4.09,4.09,0,0,0-1,2.45h6.41q-.27-3.4-3.22-3.4A2.78,2.78,0,0,0,264.23,51.6Z"/><path class="cls-1" d="M279.17,50.52A3.53,3.53,0,0,1,280.45,53h-1.08a2.65,2.65,0,0,0-.94-1.76,3.11,3.11,0,0,0-2-.59,2.79,2.79,0,0,0-2.34,1.13,5.39,5.39,0,0,0,0,5.74,2.78,2.78,0,0,0,2.36,1.06,2.75,2.75,0,0,0,3-2.65h1.06a4.25,4.25,0,0,1-1.33,2.68,4,4,0,0,1-2.72.9,3.88,3.88,0,0,1-3.2-1.4,5.2,5.2,0,0,1-1.06-3.44,5.41,5.41,0,0,1,1.1-3.49,3.82,3.82,0,0,1,3.19-1.48A4.31,4.31,0,0,1,279.17,50.52Z"/><path class="cls-1" d="M284.46,47v3h2.43v.94h-2.43v6.3a1.42,1.42,0,0,0,.22.88,1,1,0,0,0,.81.25h1.17v.94h-1.31a1.92,1.92,0,0,1-1.55-.56,2.25,2.25,0,0,1-.41-1.51V50.9h-2V50h2V47.41Z"/><path class="cls-1" d="M290.26,46.89a.76.76,0,0,1,.27.63.89.89,0,0,1-.29.65.94.94,0,0,1-.63.25.89.89,0,0,1-.92-.9.76.76,0,0,1,.27-.63.84.84,0,0,1,.65-.27A.88.88,0,0,1,290.26,46.89ZM289.07,50h1.08v9.31h-1.08Z"/><path class="cls-1" d="M300.32,51.19a5.76,5.76,0,0,1,0,6.86,4.41,4.41,0,0,1-6.59,0,5.22,5.22,0,0,1-1.13-3.42,5.15,5.15,0,0,1,1.15-3.44A4,4,0,0,1,297,49.71,4.09,4.09,0,0,1,300.32,51.19Zm-5.8.68a5,5,0,0,0,0,5.49,3.19,3.19,0,0,0,5,0,4.51,4.51,0,0,0,.83-2.74,4.45,4.45,0,0,0-.83-2.75,3.19,3.19,0,0,0-5,0Z"/><path class="cls-1" d="M310.92,53.55v5.72h-1.08V53.62q0-3-2.65-3a2.45,2.45,0,0,0-1.87.81,3.28,3.28,0,0,0-.88,2.2v5.62h-1.08V50h1.08v1.53a3.78,3.78,0,0,1,1.26-1.31,3.28,3.28,0,0,1,1.76-.47Q310.92,49.71,310.92,53.55Z"/><path class="cls-1" d="M326.06,52.57H325a2.2,2.2,0,0,0-.78-1.42,3.7,3.7,0,0,0-3.56-.09,1.3,1.3,0,0,0-.65,1.12,1.28,1.28,0,0,0,.83,1.13,12.6,12.6,0,0,0,2,.65,9.36,9.36,0,0,1,2.41.86,2.1,2.1,0,0,1,1.12,1.87q0,2.83-3.78,2.83-3.58,0-3.91-3.19h1.06a2.54,2.54,0,0,0,.86,1.76,3.23,3.23,0,0,0,1.94.49q2.7,0,2.7-1.84a1.41,1.41,0,0,0-.92-1.3,12.29,12.29,0,0,0-2.07-.65A9,9,0,0,1,320,54a2,2,0,0,1-1.06-1.78,2.1,2.1,0,0,1,1-1.82,4.19,4.19,0,0,1,2.45-.67Q325.66,49.71,326.06,52.57Z"/><path class="cls-1" d="M327,50h1.19l3,7.76,3-7.76h1.19l-5.13,12.87h-1.17L330.7,59Z"/><path class="cls-1" d="M343.54,52.57h-1.06a2.2,2.2,0,0,0-.77-1.42,3.7,3.7,0,0,0-3.56-.09,1.23,1.23,0,0,0,.18,2.25,12.64,12.64,0,0,0,2,.65,9.39,9.39,0,0,1,2.41.86,2.1,2.1,0,0,1,1.12,1.87q0,2.83-3.78,2.83-3.58,0-3.91-3.19h1.06A2.53,2.53,0,0,0,338,58.1a3.23,3.23,0,0,0,1.94.49q2.7,0,2.7-1.84a1.41,1.41,0,0,0-.92-1.3,12.35,12.35,0,0,0-2.07-.65,9,9,0,0,1-2.27-.83,2,2,0,0,1-1.06-1.78,2.1,2.1,0,0,1,1-1.82,4.18,4.18,0,0,1,2.45-.67Q343.14,49.71,343.54,52.57Z"/><path class="cls-1" d="M347.79,47v3h2.43v.94h-2.43v6.3a1.42,1.42,0,0,0,.22.88,1,1,0,0,0,.81.25H350v.94h-1.31a1.92,1.92,0,0,1-1.55-.56,2.25,2.25,0,0,1-.41-1.51V50.9h-2V50h2V47.41Z"/><path class="cls-1" d="M358.93,51.21A6.49,6.49,0,0,1,360,54.93h-7.56a4.38,4.38,0,0,0,.92,2.68,2.93,2.93,0,0,0,2.3,1,3.13,3.13,0,0,0,2.05-.67,3.49,3.49,0,0,0,1-1.64h1.1a4.36,4.36,0,0,1-1.24,2.21,4.15,4.15,0,0,1-2.9,1,4,4,0,0,1-3.13-1.33,5.14,5.14,0,0,1-1.21-3.58,5.2,5.2,0,0,1,1.15-3.44,4.27,4.27,0,0,1,6.46,0Zm-5.51.4a4.09,4.09,0,0,0-1,2.45h6.41q-.27-3.4-3.22-3.4A2.78,2.78,0,0,0,353.42,51.6Z"/><path class="cls-1" d="M368.41,51.62a3.63,3.63,0,0,1,1.24-1.42,2.9,2.9,0,0,1,1.69-.49,3.06,3.06,0,0,1,2.34.92,3.67,3.67,0,0,1,.85,2.56v6.08h-1.08V53.33a3,3,0,0,0-.54-2,2.29,2.29,0,0,0-1.85-.7,2.13,2.13,0,0,0-1.69.77,2.72,2.72,0,0,0-.68,1.93v5.92h-1.1V53.33q0-2.68-2.32-2.68a2.15,2.15,0,0,0-1.75.85,3,3,0,0,0-.72,2.05v5.72h-1.08V50h1.08v1.4a3,3,0,0,1,2.7-1.66A2.81,2.81,0,0,1,368.41,51.62Z"/><path class="cls-1" d="M378.64,57.72a.81.81,0,0,1,.27.65.9.9,0,0,1-.29.65.94.94,0,0,1-.63.25.85.85,0,0,1-.65-.27.86.86,0,0,1-.27-.63.81.81,0,0,1,.27-.65.84.84,0,0,1,.65-.25A.88.88,0,0,1,378.64,57.72Z"/><path class="cls-1" d="M57.42,78.89a.76.76,0,0,1,.27.63.89.89,0,0,1-.29.65.94.94,0,0,1-.63.25.89.89,0,0,1-.92-.9.76.76,0,0,1,.27-.63.84.84,0,0,1,.65-.27A.88.88,0,0,1,57.42,78.89ZM56.23,82h1.08v9.31H56.23Z"/><path class="cls-1" d="M67.68,85.55v5.72H66.6V85.62q0-3-2.65-3a2.46,2.46,0,0,0-1.87.81,3.28,3.28,0,0,0-.88,2.2v5.62H60.12V82H61.2v1.53a3.78,3.78,0,0,1,1.26-1.31,3.28,3.28,0,0,1,1.76-.47Q67.68,81.71,67.68,85.55Z"/><path class="cls-1" d="M74.9,82h1.21l2.52,7.92L81,82h1l2.34,7.92L86.89,82h1.19l-3.19,9.31h-1l-2.34-7.9-2.38,7.9h-1Z"/><path class="cls-1" d="M89.3,78.17h1.1v5.49a3.58,3.58,0,0,1,1.3-1.46,3.3,3.3,0,0,1,1.76-.49,3.25,3.25,0,0,1,2.48.94,3.76,3.76,0,0,1,.9,2.68v5.94H95.76v-5.8a3.07,3.07,0,0,0-.68-2.11,2.57,2.57,0,0,0-1.93-.72,2.51,2.51,0,0,0-2,.94,3.36,3.36,0,0,0-.79,2.3v5.38H89.3Z"/><path class="cls-1" d="M100.84,78.89a.76.76,0,0,1,.27.63.89.89,0,0,1-.29.65.94.94,0,0,1-.63.25.89.89,0,0,1-.92-.9.76.76,0,0,1,.27-.63.84.84,0,0,1,.65-.27A.88.88,0,0,1,100.84,78.89ZM99.65,82h1.08v9.31H99.65Z"/><path class="cls-1" d="M110.18,82.52A3.53,3.53,0,0,1,111.46,85h-1.08a2.65,2.65,0,0,0-.94-1.76,3.12,3.12,0,0,0-2-.59,2.79,2.79,0,0,0-2.34,1.13,4.53,4.53,0,0,0-.85,2.9,4.57,4.57,0,0,0,.81,2.84,2.78,2.78,0,0,0,2.36,1.06,2.75,2.75,0,0,0,3-2.65h1.06a4.24,4.24,0,0,1-1.33,2.68,4,4,0,0,1-2.72.9,3.88,3.88,0,0,1-3.2-1.4,5.21,5.21,0,0,1-1.06-3.44,5.4,5.4,0,0,1,1.1-3.49,3.82,3.82,0,0,1,3.19-1.48A4.31,4.31,0,0,1,110.18,82.52Z"/><path class="cls-1" d="M113.22,78.17h1.1v5.49a3.58,3.58,0,0,1,1.3-1.46,3.3,3.3,0,0,1,1.76-.49,3.25,3.25,0,0,1,2.48.94,3.76,3.76,0,0,1,.9,2.68v5.94h-1.08v-5.8a3.07,3.07,0,0,0-.68-2.11,2.57,2.57,0,0,0-1.93-.72,2.51,2.51,0,0,0-2,.94,3.36,3.36,0,0,0-.79,2.3v5.38h-1.1Z"/><path class="cls-1" d="M135.67,82.52A3.53,3.53,0,0,1,136.95,85h-1.08a2.65,2.65,0,0,0-.94-1.76,3.12,3.12,0,0,0-2-.59,2.79,2.79,0,0,0-2.34,1.13,4.53,4.53,0,0,0-.85,2.9,4.57,4.57,0,0,0,.81,2.84,2.78,2.78,0,0,0,2.36,1.06,2.75,2.75,0,0,0,3-2.65H137a4.24,4.24,0,0,1-1.33,2.68,4,4,0,0,1-2.72.9,3.88,3.88,0,0,1-3.21-1.4,5.21,5.21,0,0,1-1.06-3.44,5.4,5.4,0,0,1,1.1-3.49,3.81,3.81,0,0,1,3.19-1.48A4.31,4.31,0,0,1,135.67,82.52Z"/><path class="cls-1" d="M146.07,83.19a5.75,5.75,0,0,1,0,6.86,4.41,4.41,0,0,1-6.59,0,5.22,5.22,0,0,1-1.13-3.42,5.15,5.15,0,0,1,1.15-3.44,4,4,0,0,1,3.28-1.48A4.09,4.09,0,0,1,146.07,83.19Zm-5.8.68a5,5,0,0,0,0,5.49,3.19,3.19,0,0,0,5,0,4.51,4.51,0,0,0,.83-2.74,4.44,4.44,0,0,0-.83-2.75,3.19,3.19,0,0,0-5,0Z"/><path class="cls-1" d="M156.67,85.55v5.72h-1.08V85.62q0-3-2.65-3a2.46,2.46,0,0,0-1.87.81,3.28,3.28,0,0,0-.88,2.2v5.62h-1.08V82h1.08v1.53a3.78,3.78,0,0,1,1.26-1.31,3.28,3.28,0,0,1,1.76-.47Q156.67,81.71,156.67,85.55Z"/><path class="cls-1" d="M161.19,79v3h2.43v.94h-2.43v6.3a1.42,1.42,0,0,0,.22.88,1,1,0,0,0,.81.25h1.17v.94h-1.31a1.92,1.92,0,0,1-1.55-.56,2.25,2.25,0,0,1-.41-1.51V82.9h-2V82h2V79.41Z"/><path class="cls-1" d="M172.33,83.21a6.49,6.49,0,0,1,1.06,3.73h-7.56a4.38,4.38,0,0,0,.92,2.68,2.93,2.93,0,0,0,2.3,1,3.12,3.12,0,0,0,2.05-.67,3.48,3.48,0,0,0,1-1.64h1.1A4.36,4.36,0,0,1,172,90.5a4.15,4.15,0,0,1-2.9,1,4,4,0,0,1-3.13-1.33,5.14,5.14,0,0,1-1.21-3.58,5.2,5.2,0,0,1,1.15-3.44,4.27,4.27,0,0,1,6.46,0Zm-5.51.4a4.09,4.09,0,0,0-1,2.45h6.41q-.27-3.4-3.22-3.4A2.79,2.79,0,0,0,166.82,83.6Z"/><path class="cls-1" d="M182.68,85.55v5.72H181.6V85.62q0-3-2.65-3a2.46,2.46,0,0,0-1.87.81,3.28,3.28,0,0,0-.88,2.2v5.62h-1.08V82h1.08v1.53a3.78,3.78,0,0,1,1.26-1.31,3.28,3.28,0,0,1,1.76-.47Q182.68,81.71,182.68,85.55Z"/><path class="cls-1" d="M187.2,79v3h2.43v.94H187.2v6.3a1.42,1.42,0,0,0,.22.88,1,1,0,0,0,.81.25h1.17v.94h-1.31a1.92,1.92,0,0,1-1.55-.56,2.25,2.25,0,0,1-.41-1.51V82.9h-2V82h2V79.41Z"/><path class="cls-1" d="M204.43,83.84V82h1.08v8.62q0,4.5-4.18,4.5a4.47,4.47,0,0,1-2.83-.79,3.4,3.4,0,0,1-1.19-2.23h1.08a2.42,2.42,0,0,0,.86,1.55,3.25,3.25,0,0,0,2.07.58q3.1,0,3.1-3.47V88.93a3.46,3.46,0,0,1-3.33,2.12A3.87,3.87,0,0,1,198,89.67a5.51,5.51,0,0,1,0-6.55,3.85,3.85,0,0,1,3.11-1.4A3.46,3.46,0,0,1,204.43,83.84Zm-5.6-.09a4,4,0,0,0-.83,2.65,4.13,4.13,0,0,0,.77,2.59,2.85,2.85,0,0,0,2.43,1.13A2.91,2.91,0,0,0,203.62,89a4.73,4.73,0,0,0,0-5.29,3.13,3.13,0,0,0-4.79,0Z"/><path class="cls-1" d="M214.85,83.21a6.49,6.49,0,0,1,1.06,3.73h-7.56a4.38,4.38,0,0,0,.92,2.68,2.93,2.93,0,0,0,2.3,1,3.12,3.12,0,0,0,2.05-.67,3.48,3.48,0,0,0,1-1.64h1.1a4.36,4.36,0,0,1-1.24,2.21,4.15,4.15,0,0,1-2.9,1,4,4,0,0,1-3.13-1.33,5.14,5.14,0,0,1-1.21-3.58,5.2,5.2,0,0,1,1.15-3.44,4.27,4.27,0,0,1,6.46,0Zm-5.51.4a4.09,4.09,0,0,0-1,2.45h6.41q-.27-3.4-3.22-3.4A2.79,2.79,0,0,0,209.34,83.6Z"/><path class="cls-1" d="M225.2,85.55v5.72h-1.08V85.62q0-3-2.65-3a2.46,2.46,0,0,0-1.87.81,3.28,3.28,0,0,0-.88,2.2v5.62h-1.08V82h1.08v1.53A3.77,3.77,0,0,1,220,82.18a3.28,3.28,0,0,1,1.76-.47Q225.2,81.71,225.2,85.55Z"/><path class="cls-1" d="M234.54,83.21a6.49,6.49,0,0,1,1.06,3.73H228a4.38,4.38,0,0,0,.92,2.68,2.93,2.93,0,0,0,2.3,1,3.12,3.12,0,0,0,2.05-.67,3.48,3.48,0,0,0,1-1.64h1.1a4.36,4.36,0,0,1-1.24,2.21,4.15,4.15,0,0,1-2.9,1,4,4,0,0,1-3.13-1.33,5.14,5.14,0,0,1-1.21-3.58,5.2,5.2,0,0,1,1.15-3.44,4.27,4.27,0,0,1,6.46,0Zm-5.51.4a4.09,4.09,0,0,0-1,2.45h6.41q-.27-3.4-3.22-3.4A2.79,2.79,0,0,0,229,83.6Z"/><path class="cls-1" d="M242.59,81.91V83a5,5,0,0,0-1.42-.2,2.3,2.3,0,0,0-2,1.12,4,4,0,0,0-.74,2.43v4.91h-1.08V82h1.08v1.78a3.42,3.42,0,0,1,1-1.39,2.68,2.68,0,0,1,1.8-.65A3.69,3.69,0,0,1,242.59,81.91Z"/><path class="cls-1" d="M250.65,82.77a3.6,3.6,0,0,1,.83,2.5v6h-1V89.49a4.82,4.82,0,0,1-1.51,1.39,4.69,4.69,0,0,1-2.43.65,3.36,3.36,0,0,1-2.21-.7,2.4,2.4,0,0,1-.85-1.93,2.75,2.75,0,0,1,1.46-2.59,6.28,6.28,0,0,1,3.11-.67l2.38,0v-.34a2.36,2.36,0,0,0-2.7-2.65,3.2,3.2,0,0,0-1.94.52,2.21,2.21,0,0,0-1,1.62h-1.06a3.25,3.25,0,0,1,1.31-2.34,4.55,4.55,0,0,1,2.7-.72A3.67,3.67,0,0,1,250.65,82.77Zm-.25,3.73-2.32,0q-3.53,0-3.53,2.36a1.55,1.55,0,0,0,.59,1.26,2.39,2.39,0,0,0,1.58.49,3.87,3.87,0,0,0,2.59-1,2.76,2.76,0,0,0,1.08-2.07Z"/><path class="cls-1" d="M256,79v3h2.43v.94H256v6.3a1.41,1.41,0,0,0,.22.88,1,1,0,0,0,.81.25h1.17v.94h-1.31a1.92,1.92,0,0,1-1.55-.56,2.26,2.26,0,0,1-.41-1.51V82.9h-2V82h2V79.41Z"/><path class="cls-1" d="M267.43,83.19a5.76,5.76,0,0,1,0,6.86,4.41,4.41,0,0,1-6.59,0,5.22,5.22,0,0,1-1.13-3.42,5.15,5.15,0,0,1,1.15-3.44,4,4,0,0,1,3.28-1.48A4.09,4.09,0,0,1,267.43,83.19Zm-5.8.68a5,5,0,0,0,0,5.49,3.19,3.19,0,0,0,5,0,4.51,4.51,0,0,0,.83-2.74,4.45,4.45,0,0,0-.83-2.75,3.19,3.19,0,0,0-5,0Z"/><path class="cls-1" d="M275.72,81.91V83a5,5,0,0,0-1.42-.2,2.3,2.3,0,0,0-2,1.12,4,4,0,0,0-.74,2.43v4.91h-1.08V82h1.08v1.78a3.41,3.41,0,0,1,1-1.39,2.68,2.68,0,0,1,1.8-.65A3.69,3.69,0,0,1,275.72,81.91Z"/><path class="cls-1" d="M283.82,84.57h-1.06a2.2,2.2,0,0,0-.77-1.42,3.7,3.7,0,0,0-3.56-.09,1.23,1.23,0,0,0,.18,2.25,12.66,12.66,0,0,0,2,.65,9.37,9.37,0,0,1,2.41.86,2.1,2.1,0,0,1,1.12,1.87q0,2.83-3.78,2.83-3.58,0-3.91-3.19h1.06a2.53,2.53,0,0,0,.86,1.76,3.23,3.23,0,0,0,1.94.49q2.7,0,2.7-1.84a1.41,1.41,0,0,0-.92-1.3,12.29,12.29,0,0,0-2.07-.65,9,9,0,0,1-2.27-.83,2,2,0,0,1-1.06-1.78,2.1,2.1,0,0,1,1-1.82,4.19,4.19,0,0,1,2.45-.67Q283.43,81.71,283.82,84.57Z"/><path class="cls-1" d="M298.46,82.52A3.53,3.53,0,0,1,299.73,85h-1.08a2.65,2.65,0,0,0-.94-1.76,3.12,3.12,0,0,0-2-.59,2.79,2.79,0,0,0-2.34,1.13,4.53,4.53,0,0,0-.85,2.9,4.57,4.57,0,0,0,.81,2.84,2.78,2.78,0,0,0,2.36,1.06,2.75,2.75,0,0,0,3-2.65h1.06a4.24,4.24,0,0,1-1.33,2.68,4,4,0,0,1-2.72.9,3.88,3.88,0,0,1-3.21-1.4,5.22,5.22,0,0,1-1.06-3.44,5.4,5.4,0,0,1,1.1-3.49,3.81,3.81,0,0,1,3.19-1.48A4.31,4.31,0,0,1,298.46,82.52Z"/><path class="cls-1" d="M308.86,83.19a5.75,5.75,0,0,1,0,6.86,4.41,4.41,0,0,1-6.59,0,5.22,5.22,0,0,1-1.13-3.42,5.15,5.15,0,0,1,1.15-3.44,4,4,0,0,1,3.28-1.48A4.09,4.09,0,0,1,308.86,83.19Zm-5.8.68a5,5,0,0,0,0,5.49,3.19,3.19,0,0,0,5,0,4.51,4.51,0,0,0,.83-2.74,4.44,4.44,0,0,0-.83-2.75,3.19,3.19,0,0,0-5,0Z"/><path class="cls-1" d="M311.9,82H313v5.69a3.3,3.3,0,0,0,.61,2.18,2.49,2.49,0,0,0,2,.76,2.6,2.6,0,0,0,1.89-.83,3.29,3.29,0,0,0,.92-2.14V82h1.08v9.31H318.4V89.7a3.41,3.41,0,0,1-3.1,1.82q-3.4,0-3.4-3.82Z"/><path class="cls-1" d="M322.09,78.17h1.08v13.1h-1.08Z"/><path class="cls-1" d="M332.8,78.17h1.08v13.1h-1V89.43a3.34,3.34,0,0,1-3.26,2.09A3.78,3.78,0,0,1,326.45,90a5.52,5.52,0,0,1-1-3.44,5.47,5.47,0,0,1,1-3.4,3.65,3.65,0,0,1,3.1-1.49,3.4,3.4,0,0,1,3.26,2.21Zm-5.51,5.65a4.48,4.48,0,0,0-.77,2.79,4.74,4.74,0,0,0,.76,2.81,2.8,2.8,0,0,0,2.43,1.19,2.76,2.76,0,0,0,2.36-1.15,4.52,4.52,0,0,0,.77-2.7v-.22a4.51,4.51,0,0,0-.83-2.79,2.7,2.7,0,0,0-2.27-1.12A2.85,2.85,0,0,0,327.29,83.82Z"/><path class="cls-1" d="M342.14,78.17h1.08v5.76a3.4,3.4,0,0,1,3.26-2.21,3.65,3.65,0,0,1,3.1,1.49,5.47,5.47,0,0,1,1,3.4,5.52,5.52,0,0,1-1,3.44,3.76,3.76,0,0,1-3.13,1.48,3.34,3.34,0,0,1-3.28-2.09v1.84h-1ZM344,83.75a4.41,4.41,0,0,0-.83,2.79v.22a4.41,4.41,0,0,0,.77,2.7,2.73,2.73,0,0,0,2.36,1.15,2.83,2.83,0,0,0,2.43-1.19,4.74,4.74,0,0,0,.76-2.81,4.58,4.58,0,0,0-.77-2.79,2.85,2.85,0,0,0-2.45-1.19A2.67,2.67,0,0,0,344,83.75Z"/><path class="cls-1" d="M352.51,82h1.08v5.69a3.3,3.3,0,0,0,.61,2.18,2.49,2.49,0,0,0,2,.76,2.6,2.6,0,0,0,1.89-.83,3.29,3.29,0,0,0,.92-2.14V82h1.08v9.31H359V89.7a3.41,3.41,0,0,1-3.1,1.82q-3.4,0-3.4-3.82Z"/><path class="cls-1" d="M364.08,78.89a.76.76,0,0,1,.27.63.9.9,0,0,1-.29.65.94.94,0,0,1-.63.25.89.89,0,0,1-.92-.9.76.76,0,0,1,.27-.63.84.84,0,0,1,.65-.27A.88.88,0,0,1,364.08,78.89ZM362.89,82H364v9.31h-1.08Z"/><path class="cls-1" d="M367.13,78.17h1.08v13.1h-1.08Z"/><path class="cls-1" d="M377.83,78.17h1.08v13.1h-1V89.43a3.34,3.34,0,0,1-3.26,2.09A3.78,3.78,0,0,1,371.48,90a5.52,5.52,0,0,1-1-3.44,5.47,5.47,0,0,1,1-3.4,3.65,3.65,0,0,1,3.1-1.49,3.4,3.4,0,0,1,3.26,2.21Zm-5.51,5.65a4.48,4.48,0,0,0-.77,2.79,4.74,4.74,0,0,0,.76,2.81,2.8,2.8,0,0,0,2.43,1.19,2.76,2.76,0,0,0,2.36-1.15,4.52,4.52,0,0,0,.77-2.7v-.22a4.51,4.51,0,0,0-.83-2.79,2.7,2.7,0,0,0-2.27-1.12A2.85,2.85,0,0,0,372.33,83.82Z"/><path class="cls-1" d="M53.71,111v3h2.43v.94H53.71v6.3a1.42,1.42,0,0,0,.22.88,1,1,0,0,0,.81.25h1.17v.94H54.6a1.92,1.92,0,0,1-1.55-.56,2.25,2.25,0,0,1-.41-1.51v-6.3h-2V114h2v-2.56Z"/><path class="cls-1" d="M57.78,110.17h1.1v5.49a3.58,3.58,0,0,1,1.3-1.46,3.3,3.3,0,0,1,1.76-.49,3.25,3.25,0,0,1,2.48.94,3.76,3.76,0,0,1,.9,2.68v5.94H64.25v-5.8a3.07,3.07,0,0,0-.68-2.11,2.57,2.57,0,0,0-1.93-.72,2.51,2.51,0,0,0-2,.94,3.36,3.36,0,0,0-.79,2.3v5.38h-1.1Z"/><path class="cls-1" d="M74.67,115.21a6.49,6.49,0,0,1,1.06,3.73H68.17a4.38,4.38,0,0,0,.92,2.68,2.93,2.93,0,0,0,2.3,1,3.12,3.12,0,0,0,2.05-.67,3.49,3.49,0,0,0,1-1.64h1.1a4.35,4.35,0,0,1-1.24,2.21,4.15,4.15,0,0,1-2.9,1,4,4,0,0,1-3.13-1.33,5.14,5.14,0,0,1-1.21-3.58,5.2,5.2,0,0,1,1.15-3.44,4.27,4.27,0,0,1,6.46,0Zm-5.51.4a4.09,4.09,0,0,0-1,2.45H74.6q-.27-3.4-3.22-3.4A2.78,2.78,0,0,0,69.16,115.6Z"/><path class="cls-1" d="M79.18,110.89a.76.76,0,0,1,.27.63.89.89,0,0,1-.29.65.94.94,0,0,1-.63.25.89.89,0,0,1-.92-.9.76.76,0,0,1,.27-.63.84.84,0,0,1,.65-.27A.88.88,0,0,1,79.18,110.89ZM78,114h1.08v9.31H78Z"/><path class="cls-1" d="M87.14,113.91V115a5,5,0,0,0-1.42-.2,2.3,2.3,0,0,0-2,1.12,4,4,0,0,0-.74,2.43v4.91H81.88V114H83v1.78a3.41,3.41,0,0,1,1-1.39,2.68,2.68,0,0,1,1.8-.65A3.69,3.69,0,0,1,87.14,113.91Z"/><path class="cls-1" d="M94.36,114h1.08v5.69a3.3,3.3,0,0,0,.61,2.18,2.49,2.49,0,0,0,2,.76,2.6,2.6,0,0,0,1.89-.83,3.29,3.29,0,0,0,.92-2.14V114h1.08v9.31h-1.08V121.7a3.41,3.41,0,0,1-3.1,1.82q-3.4,0-3.4-3.82Z"/><path class="cls-1" d="M111.76,117.55v5.72h-1.08v-5.65q0-3-2.65-3a2.46,2.46,0,0,0-1.87.81,3.28,3.28,0,0,0-.88,2.2v5.62H104.2V114h1.08v1.53a3.78,3.78,0,0,1,1.26-1.31,3.28,3.28,0,0,1,1.76-.47Q111.76,113.71,111.76,117.55Z"/><path class="cls-1" d="M115.76,110.89a.76.76,0,0,1,.27.63.89.89,0,0,1-.29.65.94.94,0,0,1-.63.25.89.89,0,0,1-.92-.9.76.76,0,0,1,.27-.63.84.84,0,0,1,.65-.27A.88.88,0,0,1,115.76,110.89ZM114.57,114h1.08v9.31h-1.08Z"/><path class="cls-1" d="M125.53,115.8V114h1v12.87h-1.08v-5.51a3.4,3.4,0,0,1-3.26,2.2,3.63,3.63,0,0,1-3.1-1.48,6.17,6.17,0,0,1,0-6.84,3.68,3.68,0,0,1,3.13-1.49A3.41,3.41,0,0,1,125.53,115.8Zm-5.58,0a4.73,4.73,0,0,0-.74,2.81,4.61,4.61,0,0,0,.77,2.81,2.8,2.8,0,0,0,2.43,1.15,2.7,2.7,0,0,0,2.27-1.08,4.45,4.45,0,0,0,.83-2.75v-.2a4.61,4.61,0,0,0-.77-2.75,3,3,0,0,0-4.79,0Z"/><path class="cls-1" d="M128.83,114h1.08v5.69a3.3,3.3,0,0,0,.61,2.18,2.49,2.49,0,0,0,2,.76,2.6,2.6,0,0,0,1.89-.83,3.28,3.28,0,0,0,.92-2.14V114h1.08v9.31h-1.08V121.7a3.41,3.41,0,0,1-3.1,1.82q-3.4,0-3.4-3.82Z"/><path class="cls-1" d="M145.75,115.21a6.49,6.49,0,0,1,1.06,3.73h-7.56a4.37,4.37,0,0,0,.92,2.68,2.93,2.93,0,0,0,2.3,1,3.12,3.12,0,0,0,2.05-.67,3.49,3.49,0,0,0,1-1.64h1.1a4.35,4.35,0,0,1-1.24,2.21,4.15,4.15,0,0,1-2.9,1,4,4,0,0,1-3.13-1.33,5.13,5.13,0,0,1-1.21-3.58,5.2,5.2,0,0,1,1.15-3.44,4.27,4.27,0,0,1,6.46,0Zm-5.51.4a4.09,4.09,0,0,0-1,2.45h6.41q-.27-3.4-3.22-3.4A2.78,2.78,0,0,0,140.24,115.6Z"/><path class="cls-1" d="M161.55,110.17h1.08v13.1h-1v-1.84a3.34,3.34,0,0,1-3.26,2.09A3.78,3.78,0,0,1,155.2,122a5.52,5.52,0,0,1-1-3.44,5.47,5.47,0,0,1,1-3.4,3.65,3.65,0,0,1,3.1-1.49,3.4,3.4,0,0,1,3.26,2.21ZM156,115.82a4.48,4.48,0,0,0-.77,2.79,4.74,4.74,0,0,0,.76,2.81,2.8,2.8,0,0,0,2.43,1.19,2.76,2.76,0,0,0,2.36-1.15,4.52,4.52,0,0,0,.77-2.7v-.22a4.51,4.51,0,0,0-.83-2.79,2.7,2.7,0,0,0-2.27-1.12A2.85,2.85,0,0,0,156,115.82Z"/><path class="cls-1" d="M166.63,110.89a.76.76,0,0,1,.27.63.89.89,0,0,1-.29.65.94.94,0,0,1-.63.25.89.89,0,0,1-.92-.9.76.76,0,0,1,.27-.63.84.84,0,0,1,.65-.27A.88.88,0,0,1,166.63,110.89ZM165.44,114h1.08v9.31h-1.08Z"/><path class="cls-1" d="M176.49,115.84V114h1.08v8.62q0,4.5-4.18,4.5a4.47,4.47,0,0,1-2.83-.79,3.4,3.4,0,0,1-1.19-2.23h1.08a2.42,2.42,0,0,0,.86,1.55,3.25,3.25,0,0,0,2.07.58q3.1,0,3.1-3.47v-1.78a3.46,3.46,0,0,1-3.33,2.12,3.87,3.87,0,0,1-3.11-1.39,5.51,5.51,0,0,1,0-6.55,3.85,3.85,0,0,1,3.11-1.4A3.46,3.46,0,0,1,176.49,115.84Zm-5.6-.09a4,4,0,0,0-.83,2.65,4.13,4.13,0,0,0,.77,2.59,2.85,2.85,0,0,0,2.43,1.13,2.91,2.91,0,0,0,2.41-1.08,4.73,4.73,0,0,0,0-5.29,3.13,3.13,0,0,0-4.79,0Z"/><path class="cls-1" d="M181.57,110.89a.76.76,0,0,1,.27.63.89.89,0,0,1-.29.65.94.94,0,0,1-.63.25.89.89,0,0,1-.92-.9.76.76,0,0,1,.27-.63.84.84,0,0,1,.65-.27A.88.88,0,0,1,181.57,110.89ZM180.38,114h1.08v9.31h-1.08Z"/><path class="cls-1" d="M186.52,111v3h2.43v.94h-2.43v6.3a1.41,1.41,0,0,0,.22.88,1,1,0,0,0,.81.25h1.17v.94H187.4a1.92,1.92,0,0,1-1.55-.56,2.26,2.26,0,0,1-.41-1.51v-6.3h-2V114h2v-2.56Z"/><path class="cls-1" d="M197.42,114.77a3.59,3.59,0,0,1,.83,2.5v6h-1v-1.78a4.82,4.82,0,0,1-1.51,1.39,4.69,4.69,0,0,1-2.43.65,3.36,3.36,0,0,1-2.21-.7,2.4,2.4,0,0,1-.85-1.93,2.75,2.75,0,0,1,1.46-2.59,6.28,6.28,0,0,1,3.12-.67l2.38,0v-.34a2.36,2.36,0,0,0-2.7-2.65,3.2,3.2,0,0,0-1.94.52,2.21,2.21,0,0,0-1,1.62h-1.06a3.25,3.25,0,0,1,1.31-2.34,4.55,4.55,0,0,1,2.7-.72A3.66,3.66,0,0,1,197.42,114.77Zm-.25,3.73-2.32,0q-3.53,0-3.53,2.36a1.55,1.55,0,0,0,.59,1.26,2.39,2.39,0,0,0,1.58.49,3.87,3.87,0,0,0,2.59-1,2.75,2.75,0,0,0,1.08-2.07Z"/><path class="cls-1" d="M200.86,110.17h1.08v13.1h-1.08Z"/><path class="cls-1" d="M217.42,116.57h-1.06a2.2,2.2,0,0,0-.77-1.42,3.7,3.7,0,0,0-3.56-.09,1.23,1.23,0,0,0,.18,2.25,12.66,12.66,0,0,0,2,.65,9.37,9.37,0,0,1,2.41.86,2.1,2.1,0,0,1,1.12,1.87q0,2.83-3.78,2.83-3.58,0-3.91-3.19h1.06a2.53,2.53,0,0,0,.86,1.76,3.23,3.23,0,0,0,1.94.49q2.7,0,2.7-1.84a1.41,1.41,0,0,0-.92-1.3,12.29,12.29,0,0,0-2.07-.65,9,9,0,0,1-2.27-.83,2,2,0,0,1-1.06-1.78,2.1,2.1,0,0,1,1-1.82,4.19,4.19,0,0,1,2.45-.67Q217,113.71,217.42,116.57Z"/><path class="cls-1" d="M221.15,110.89a.76.76,0,0,1,.27.63.89.89,0,0,1-.29.65.94.94,0,0,1-.63.25.89.89,0,0,1-.92-.9.76.76,0,0,1,.27-.63.85.85,0,0,1,.65-.27A.88.88,0,0,1,221.15,110.89ZM220,114H221v9.31H220Z"/><path class="cls-1" d="M231,115.84V114h1.08v8.62q0,4.5-4.18,4.5a4.47,4.47,0,0,1-2.83-.79,3.39,3.39,0,0,1-1.19-2.23H225a2.41,2.41,0,0,0,.86,1.55,3.25,3.25,0,0,0,2.07.58q3.1,0,3.1-3.47v-1.78a3.46,3.46,0,0,1-3.33,2.12,3.87,3.87,0,0,1-3.11-1.39,5.51,5.51,0,0,1,0-6.55,3.85,3.85,0,0,1,3.11-1.4A3.46,3.46,0,0,1,231,115.84Zm-5.6-.09a4,4,0,0,0-.83,2.65,4.14,4.14,0,0,0,.77,2.59,2.85,2.85,0,0,0,2.43,1.13A2.91,2.91,0,0,0,230.2,121a4.72,4.72,0,0,0,0-5.29,3.12,3.12,0,0,0-4.79,0Z"/><path class="cls-1" d="M241.92,117.55v5.72h-1.08v-5.65q0-3-2.65-3a2.45,2.45,0,0,0-1.87.81,3.28,3.28,0,0,0-.88,2.2v5.62h-1.08V114h1.08v1.53a3.78,3.78,0,0,1,1.26-1.31,3.28,3.28,0,0,1,1.76-.47Q241.92,113.71,241.92,117.55Z"/><path class="cls-1" d="M251,114.77a3.59,3.59,0,0,1,.83,2.5v6h-1v-1.78a4.82,4.82,0,0,1-1.51,1.39,4.69,4.69,0,0,1-2.43.65,3.36,3.36,0,0,1-2.21-.7,2.4,2.4,0,0,1-.85-1.93,2.75,2.75,0,0,1,1.46-2.59,6.28,6.28,0,0,1,3.12-.67l2.38,0v-.34a2.36,2.36,0,0,0-2.7-2.65,3.2,3.2,0,0,0-1.94.52,2.21,2.21,0,0,0-1,1.62h-1.06a3.25,3.25,0,0,1,1.31-2.34,4.55,4.55,0,0,1,2.7-.72A3.66,3.66,0,0,1,251,114.77Zm-.25,3.73-2.32,0q-3.53,0-3.53,2.36a1.55,1.55,0,0,0,.59,1.26,2.39,2.39,0,0,0,1.58.49,3.87,3.87,0,0,0,2.59-1,2.75,2.75,0,0,0,1.08-2.07Z"/><path class="cls-1" d="M256.37,111v3h2.43v.94h-2.43v6.3a1.41,1.41,0,0,0,.22.88,1,1,0,0,0,.81.25h1.17v.94h-1.31a1.92,1.92,0,0,1-1.55-.56,2.26,2.26,0,0,1-.41-1.51v-6.3h-2V114h2v-2.56Z"/><path class="cls-1" d="M260.44,114h1.08v5.69a3.3,3.3,0,0,0,.61,2.18,2.49,2.49,0,0,0,2,.76,2.6,2.6,0,0,0,1.89-.83,3.29,3.29,0,0,0,.92-2.14V114H268v9.31h-1.08V121.7a3.41,3.41,0,0,1-3.1,1.82q-3.4,0-3.4-3.82Z"/><path class="cls-1" d="M275.54,113.91V115a5,5,0,0,0-1.42-.2,2.3,2.3,0,0,0-2,1.12,4,4,0,0,0-.74,2.43v4.91h-1.08V114h1.08v1.78a3.41,3.41,0,0,1,1-1.39,2.68,2.68,0,0,1,1.8-.65A3.69,3.69,0,0,1,275.54,113.91Z"/><path class="cls-1" d="M283.84,115.21a6.49,6.49,0,0,1,1.06,3.73h-7.56a4.38,4.38,0,0,0,.92,2.68,2.93,2.93,0,0,0,2.3,1,3.13,3.13,0,0,0,2.05-.67,3.49,3.49,0,0,0,1-1.64h1.1a4.36,4.36,0,0,1-1.24,2.21,4.15,4.15,0,0,1-2.9,1,4,4,0,0,1-3.13-1.33,5.14,5.14,0,0,1-1.21-3.58,5.2,5.2,0,0,1,1.15-3.44,4.27,4.27,0,0,1,6.46,0Zm-5.51.4a4.09,4.09,0,0,0-1,2.45h6.41q-.27-3.4-3.22-3.4A2.78,2.78,0,0,0,278.33,115.6Z"/><path class="cls-1" d="M288.47,121.72a.81.81,0,0,1,.27.65.9.9,0,0,1-.29.65.94.94,0,0,1-.63.25.85.85,0,0,1-.65-.27.86.86,0,0,1-.27-.63.81.81,0,0,1,.27-.65.84.84,0,0,1,.65-.25A.88.88,0,0,1,288.47,121.72Z"/><path class="cls-1" d="M293.52,111v3H296v.94h-2.43v6.3a1.42,1.42,0,0,0,.22.88,1,1,0,0,0,.81.25h1.17v.94h-1.31a1.92,1.92,0,0,1-1.55-.56,2.25,2.25,0,0,1-.41-1.51v-6.3h-2V114h2v-2.56Z"/><path class="cls-1" d="M297.59,110.17h1.1v5.49a3.58,3.58,0,0,1,1.3-1.46,3.3,3.3,0,0,1,1.76-.49,3.25,3.25,0,0,1,2.48.94,3.76,3.76,0,0,1,.9,2.68v5.94h-1.08v-5.8a3.07,3.07,0,0,0-.68-2.11,2.57,2.57,0,0,0-1.93-.72,2.51,2.51,0,0,0-2,.94,3.36,3.36,0,0,0-.79,2.3v5.38h-1.1Z"/><path class="cls-1" d="M314.48,115.21a6.49,6.49,0,0,1,1.06,3.73H308a4.38,4.38,0,0,0,.92,2.68,2.93,2.93,0,0,0,2.3,1,3.12,3.12,0,0,0,2.05-.67,3.48,3.48,0,0,0,1-1.64h1.1a4.34,4.34,0,0,1-1.24,2.21,4.15,4.15,0,0,1-2.9,1,4,4,0,0,1-3.13-1.33,5.14,5.14,0,0,1-1.21-3.58,5.2,5.2,0,0,1,1.15-3.44,4.27,4.27,0,0,1,6.46,0Zm-5.51.4a4.09,4.09,0,0,0-1,2.45h6.41q-.27-3.4-3.22-3.4A2.78,2.78,0,0,0,309,115.6Z"/><path class="cls-1" d="M328.52,113.91V115a5,5,0,0,0-1.42-.2,2.3,2.3,0,0,0-2,1.12,4,4,0,0,0-.74,2.43v4.91h-1.08V114h1.08v1.78a3.41,3.41,0,0,1,1-1.39,2.68,2.68,0,0,1,1.8-.65A3.69,3.69,0,0,1,328.52,113.91Z"/><path class="cls-1" d="M336.81,115.21a6.49,6.49,0,0,1,1.06,3.73h-7.56a4.37,4.37,0,0,0,.92,2.68,2.93,2.93,0,0,0,2.3,1,3.12,3.12,0,0,0,2.05-.67,3.49,3.49,0,0,0,1-1.64h1.1a4.35,4.35,0,0,1-1.24,2.21,4.15,4.15,0,0,1-2.9,1,4,4,0,0,1-3.13-1.33,5.13,5.13,0,0,1-1.21-3.58,5.2,5.2,0,0,1,1.15-3.44,4.27,4.27,0,0,1,6.46,0Zm-5.51.4a4.09,4.09,0,0,0-1,2.45h6.41q-.27-3.4-3.22-3.4A2.78,2.78,0,0,0,331.31,115.6Z"/><path class="cls-1" d="M346.25,114.52a3.53,3.53,0,0,1,1.28,2.48h-1.08a2.65,2.65,0,0,0-.94-1.76,3.12,3.12,0,0,0-2-.59,2.79,2.79,0,0,0-2.34,1.13,5.39,5.39,0,0,0,0,5.74,2.78,2.78,0,0,0,2.36,1.06,2.75,2.75,0,0,0,3-2.65h1.06a4.24,4.24,0,0,1-1.33,2.68,4,4,0,0,1-2.72.9,3.88,3.88,0,0,1-3.2-1.4,5.21,5.21,0,0,1-1.06-3.44,5.4,5.4,0,0,1,1.1-3.49,3.82,3.82,0,0,1,3.19-1.48A4.31,4.31,0,0,1,346.25,114.52Z"/><path class="cls-1" d="M356.65,115.19a5.76,5.76,0,0,1,0,6.86,4.41,4.41,0,0,1-6.59,0,5.22,5.22,0,0,1-1.13-3.42,5.15,5.15,0,0,1,1.15-3.44,4,4,0,0,1,3.28-1.48A4.09,4.09,0,0,1,356.65,115.19Zm-5.8.68a5,5,0,0,0,0,5.49,3.19,3.19,0,0,0,5,0,4.51,4.51,0,0,0,.83-2.74,4.45,4.45,0,0,0-.83-2.75,3.19,3.19,0,0,0-5,0Z"/><path class="cls-1" d="M364.95,113.91V115a5,5,0,0,0-1.42-.2,2.3,2.3,0,0,0-2,1.12,4,4,0,0,0-.74,2.43v4.91h-1.08V114h1.08v1.78a3.41,3.41,0,0,1,1-1.39,2.68,2.68,0,0,1,1.8-.65A3.69,3.69,0,0,1,364.95,113.91Z"/><path class="cls-1" d="M373.19,110.17h1.08v13.1h-1v-1.84a3.34,3.34,0,0,1-3.26,2.09,3.78,3.78,0,0,1-3.15-1.48,5.52,5.52,0,0,1-1-3.44,5.47,5.47,0,0,1,1-3.4,3.65,3.65,0,0,1,3.1-1.49,3.4,3.4,0,0,1,3.26,2.21Zm-5.51,5.65a4.48,4.48,0,0,0-.77,2.79,4.74,4.74,0,0,0,.76,2.81,2.8,2.8,0,0,0,2.43,1.19,2.76,2.76,0,0,0,2.36-1.15,4.52,4.52,0,0,0,.77-2.7v-.22a4.5,4.5,0,0,0-.83-2.79,2.7,2.7,0,0,0-2.27-1.12A2.85,2.85,0,0,0,367.68,115.82Z"/><path class="cls-1" d="M383.41,116.57h-1.06a2.2,2.2,0,0,0-.78-1.42,3.7,3.7,0,0,0-3.56-.09,1.3,1.3,0,0,0-.65,1.12,1.28,1.28,0,0,0,.83,1.13,12.6,12.6,0,0,0,2,.65,9.36,9.36,0,0,1,2.41.86,2.1,2.1,0,0,1,1.12,1.87q0,2.83-3.78,2.83-3.58,0-3.91-3.19h1.06a2.54,2.54,0,0,0,.86,1.76,3.23,3.23,0,0,0,1.94.49q2.7,0,2.7-1.84a1.41,1.41,0,0,0-.92-1.3,12.29,12.29,0,0,0-2.07-.65,9,9,0,0,1-2.27-.83,2,2,0,0,1-1.06-1.78,2.1,2.1,0,0,1,1-1.82,4.19,4.19,0,0,1,2.45-.67Q383,113.71,383.41,116.57Z"/><path class="cls-1" d="M46.5,146.52A3.53,3.53,0,0,1,47.78,149H46.7a2.65,2.65,0,0,0-.94-1.76,3.12,3.12,0,0,0-2-.59,2.79,2.79,0,0,0-2.34,1.13,4.53,4.53,0,0,0-.85,2.9,4.57,4.57,0,0,0,.81,2.84,2.78,2.78,0,0,0,2.36,1.06,2.75,2.75,0,0,0,3-2.65h1.06a4.24,4.24,0,0,1-1.33,2.68,4,4,0,0,1-2.72.9,3.88,3.88,0,0,1-3.2-1.4,5.21,5.21,0,0,1-1.06-3.44,5.4,5.4,0,0,1,1.1-3.49,3.82,3.82,0,0,1,3.19-1.48A4.31,4.31,0,0,1,46.5,146.52Z"/><path class="cls-1" d="M56.9,147.19a5.75,5.75,0,0,1,0,6.86,4.41,4.41,0,0,1-6.59,0,5.22,5.22,0,0,1-1.13-3.42,5.15,5.15,0,0,1,1.15-3.44,4,4,0,0,1,3.28-1.48A4.09,4.09,0,0,1,56.9,147.19Zm-5.8.68a5,5,0,0,0,0,5.49,3.19,3.19,0,0,0,5,0,4.51,4.51,0,0,0,.83-2.74,4.45,4.45,0,0,0-.83-2.75,3.19,3.19,0,0,0-5,0Z"/><path class="cls-1" d="M59.94,146H61v5.69a3.3,3.3,0,0,0,.61,2.18,2.49,2.49,0,0,0,2,.76,2.6,2.6,0,0,0,1.89-.83,3.29,3.29,0,0,0,.92-2.14V146h1.08v9.31H66.44V153.7a3.41,3.41,0,0,1-3.1,1.82q-3.4,0-3.4-3.82Z"/><path class="cls-1" d="M70.13,142.17h1.08v13.1H70.13Z"/><path class="cls-1" d="M80.84,142.17h1.08v13.1h-1v-1.84a3.34,3.34,0,0,1-3.26,2.09A3.78,3.78,0,0,1,74.49,154a5.52,5.52,0,0,1-1-3.44,5.47,5.47,0,0,1,1-3.4,3.65,3.65,0,0,1,3.1-1.49,3.4,3.4,0,0,1,3.26,2.21Zm-5.51,5.65a4.48,4.48,0,0,0-.77,2.79,4.74,4.74,0,0,0,.76,2.81,2.8,2.8,0,0,0,2.43,1.19,2.76,2.76,0,0,0,2.36-1.15,4.52,4.52,0,0,0,.77-2.7v-.22a4.51,4.51,0,0,0-.83-2.79,2.7,2.7,0,0,0-2.27-1.12A2.85,2.85,0,0,0,75.33,147.82Z"/><path class="cls-1" d="M97.74,149.55v5.72H96.66v-5.65q0-3-2.65-3a2.46,2.46,0,0,0-1.87.81,3.28,3.28,0,0,0-.88,2.2v5.62H90.18V146h1.08v1.53a3.78,3.78,0,0,1,1.26-1.31,3.28,3.28,0,0,1,1.76-.47Q97.74,145.71,97.74,149.55Z"/><path class="cls-1" d="M107.37,147.19a5.75,5.75,0,0,1,0,6.86,4.41,4.41,0,0,1-6.59,0,5.22,5.22,0,0,1-1.13-3.42,5.15,5.15,0,0,1,1.15-3.44,4,4,0,0,1,3.28-1.48A4.09,4.09,0,0,1,107.37,147.19Zm-5.8.68a5,5,0,0,0,0,5.49,3.19,3.19,0,0,0,5,0,4.51,4.51,0,0,0,.83-2.74,4.45,4.45,0,0,0-.83-2.75,3.19,3.19,0,0,0-5,0Z"/><path class="cls-1" d="M112.66,143v3h2.43v.94h-2.43v6.3a1.42,1.42,0,0,0,.22.88,1,1,0,0,0,.81.25h1.17v.94h-1.31a1.92,1.92,0,0,1-1.55-.56,2.25,2.25,0,0,1-.41-1.51v-6.3h-2V146h2v-2.56Z"/><path class="cls-1" d="M122.73,142.17h1.08v5.76a3.4,3.4,0,0,1,3.26-2.21,3.65,3.65,0,0,1,3.1,1.49,5.47,5.47,0,0,1,1,3.4,5.52,5.52,0,0,1-1,3.44,3.76,3.76,0,0,1-3.13,1.48,3.34,3.34,0,0,1-3.28-2.09v1.84h-1Zm1.87,5.58a4.41,4.41,0,0,0-.83,2.79v.22a4.42,4.42,0,0,0,.77,2.7,2.73,2.73,0,0,0,2.36,1.15,2.83,2.83,0,0,0,2.43-1.19,4.74,4.74,0,0,0,.76-2.81,4.58,4.58,0,0,0-.77-2.79,2.85,2.85,0,0,0-2.45-1.19A2.67,2.67,0,0,0,124.6,147.75Z"/><path class="cls-1" d="M140.17,147.21a6.49,6.49,0,0,1,1.06,3.73h-7.56a4.37,4.37,0,0,0,.92,2.68,2.93,2.93,0,0,0,2.3,1,3.12,3.12,0,0,0,2.05-.67,3.49,3.49,0,0,0,1-1.64H141a4.35,4.35,0,0,1-1.24,2.21,4.15,4.15,0,0,1-2.9,1,4,4,0,0,1-3.13-1.33,5.13,5.13,0,0,1-1.21-3.58,5.2,5.2,0,0,1,1.15-3.44,4.27,4.27,0,0,1,6.46,0Zm-5.51.4a4.09,4.09,0,0,0-1,2.45h6.41q-.27-3.4-3.22-3.4A2.78,2.78,0,0,0,134.66,147.6Z"/><path class="cls-1" d="M156,142.17h1.08v13.1h-1v-1.84a3.34,3.34,0,0,1-3.26,2.09,3.78,3.78,0,0,1-3.15-1.48,5.52,5.52,0,0,1-1-3.44,5.47,5.47,0,0,1,1-3.4,3.65,3.65,0,0,1,3.1-1.49,3.4,3.4,0,0,1,3.26,2.21Zm-5.51,5.65a4.48,4.48,0,0,0-.77,2.79,4.74,4.74,0,0,0,.76,2.81,2.8,2.8,0,0,0,2.43,1.19,2.76,2.76,0,0,0,2.36-1.15,4.52,4.52,0,0,0,.77-2.7v-.22a4.51,4.51,0,0,0-.83-2.79,2.7,2.7,0,0,0-2.27-1.12A2.85,2.85,0,0,0,150.46,147.82Z"/><path class="cls-1" d="M161,142.89a.76.76,0,0,1,.27.63.89.89,0,0,1-.29.65.94.94,0,0,1-.63.25.89.89,0,0,1-.92-.9.76.76,0,0,1,.27-.63.84.84,0,0,1,.65-.27A.88.88,0,0,1,161,142.89ZM159.86,146h1.08v9.31h-1.08Z"/><path class="cls-1" d="M170.62,148.57h-1.06a2.2,2.2,0,0,0-.77-1.42,3.7,3.7,0,0,0-3.56-.09,1.23,1.23,0,0,0,.18,2.25,12.64,12.64,0,0,0,2,.65,9.39,9.39,0,0,1,2.41.86,2.1,2.1,0,0,1,1.12,1.87q0,2.83-3.78,2.83-3.58,0-3.91-3.19h1.06a2.53,2.53,0,0,0,.86,1.76,3.23,3.23,0,0,0,1.94.49q2.7,0,2.7-1.84a1.41,1.41,0,0,0-.92-1.3,12.35,12.35,0,0,0-2.07-.65,9,9,0,0,1-2.27-.83,2,2,0,0,1-1.06-1.78,2.1,2.1,0,0,1,1-1.82,4.18,4.18,0,0,1,2.45-.67Q170.23,145.71,170.62,148.57Z"/><path class="cls-1" d="M174.87,143v3h2.43v.94h-2.43v6.3a1.42,1.42,0,0,0,.22.88,1,1,0,0,0,.81.25h1.17v.94h-1.31a1.92,1.92,0,0,1-1.55-.56,2.25,2.25,0,0,1-.41-1.51v-6.3h-2V146h2v-2.56Z"/><path class="cls-1" d="M186.3,147.19a5.75,5.75,0,0,1,0,6.86,4.41,4.41,0,0,1-6.59,0,5.22,5.22,0,0,1-1.13-3.42,5.16,5.16,0,0,1,1.15-3.44,4,4,0,0,1,3.28-1.48A4.09,4.09,0,0,1,186.3,147.19Zm-5.8.68a5,5,0,0,0,0,5.49,3.19,3.19,0,0,0,5,0,4.52,4.52,0,0,0,.83-2.74,4.45,4.45,0,0,0-.83-2.75,3.19,3.19,0,0,0-5,0Z"/><path class="cls-1" d="M194.6,145.91V147a5,5,0,0,0-1.42-.2,2.3,2.3,0,0,0-2,1.12,4,4,0,0,0-.74,2.43v4.91h-1.08V146h1.08v1.78a3.41,3.41,0,0,1,1-1.39,2.68,2.68,0,0,1,1.8-.65A3.69,3.69,0,0,1,194.6,145.91Z"/><path class="cls-1" d="M198.07,143v3h2.43v.94h-2.43v6.3a1.41,1.41,0,0,0,.22.88,1,1,0,0,0,.81.25h1.17v.94H199a1.92,1.92,0,0,1-1.55-.56,2.26,2.26,0,0,1-.41-1.51v-6.3h-2V146h2v-2.56Z"/><path class="cls-1" d="M209.21,147.21a6.49,6.49,0,0,1,1.06,3.73h-7.56a4.37,4.37,0,0,0,.92,2.68,2.93,2.93,0,0,0,2.3,1,3.12,3.12,0,0,0,2.05-.67,3.49,3.49,0,0,0,1-1.64h1.1a4.35,4.35,0,0,1-1.24,2.21,4.15,4.15,0,0,1-2.9,1,4,4,0,0,1-3.13-1.33,5.13,5.13,0,0,1-1.21-3.58,5.2,5.2,0,0,1,1.15-3.44,4.27,4.27,0,0,1,6.46,0Zm-5.51.4a4.09,4.09,0,0,0-1,2.45h6.41q-.27-3.4-3.22-3.4A2.78,2.78,0,0,0,203.71,147.6Z"/><path class="cls-1" d="M219,142.17h1.08v13.1h-1v-1.84a3.34,3.34,0,0,1-3.26,2.09,3.78,3.78,0,0,1-3.15-1.48,5.52,5.52,0,0,1-1-3.44,5.47,5.47,0,0,1,1-3.4,3.65,3.65,0,0,1,3.1-1.49,3.4,3.4,0,0,1,3.26,2.21Zm-5.51,5.65a4.48,4.48,0,0,0-.77,2.79,4.74,4.74,0,0,0,.76,2.81,2.8,2.8,0,0,0,2.43,1.19,2.76,2.76,0,0,0,2.36-1.15,4.52,4.52,0,0,0,.77-2.7v-.22a4.51,4.51,0,0,0-.83-2.79,2.7,2.7,0,0,0-2.27-1.12A2.85,2.85,0,0,0,213.52,147.82Z"/><path class="cls-1" d="M235.21,146.77a3.6,3.6,0,0,1,.83,2.5v6h-1v-1.78a4.82,4.82,0,0,1-1.51,1.39,4.69,4.69,0,0,1-2.43.65,3.36,3.36,0,0,1-2.21-.7,2.4,2.4,0,0,1-.85-1.93,2.75,2.75,0,0,1,1.46-2.59,6.28,6.28,0,0,1,3.11-.67l2.38,0v-.34a2.36,2.36,0,0,0-2.7-2.65,3.2,3.2,0,0,0-1.94.52,2.21,2.21,0,0,0-1,1.62h-1.06a3.25,3.25,0,0,1,1.31-2.34,4.55,4.55,0,0,1,2.7-.72A3.67,3.67,0,0,1,235.21,146.77ZM235,150.5l-2.32,0q-3.53,0-3.53,2.36a1.55,1.55,0,0,0,.59,1.26,2.39,2.39,0,0,0,1.58.49,3.87,3.87,0,0,0,2.59-1,2.76,2.76,0,0,0,1.08-2.07Z"/><path class="cls-1" d="M245.86,149.55v5.72h-1.08v-5.65q0-3-2.65-3a2.45,2.45,0,0,0-1.87.81,3.29,3.29,0,0,0-.88,2.2v5.62H238.3V146h1.08v1.53a3.77,3.77,0,0,1,1.26-1.31,3.28,3.28,0,0,1,1.76-.47Q245.86,145.71,245.86,149.55Z"/><path class="cls-1" d="M255.15,142.17h1.08v13.1h-1v-1.84a3.34,3.34,0,0,1-3.26,2.09,3.78,3.78,0,0,1-3.15-1.48,5.52,5.52,0,0,1-1-3.44,5.47,5.47,0,0,1,1-3.4,3.65,3.65,0,0,1,3.1-1.49,3.4,3.4,0,0,1,3.26,2.21Zm-5.51,5.65a4.48,4.48,0,0,0-.77,2.79,4.74,4.74,0,0,0,.76,2.81,2.8,2.8,0,0,0,2.43,1.19,2.76,2.76,0,0,0,2.36-1.15,4.52,4.52,0,0,0,.77-2.7v-.22a4.51,4.51,0,0,0-.83-2.79,2.7,2.7,0,0,0-2.27-1.12A2.85,2.85,0,0,0,249.64,147.82Z"/><path class="cls-1" d="M263.45,146h1.21l2.52,7.92,2.34-7.92h1l2.34,7.92,2.54-7.92h1.19l-3.19,9.31h-1l-2.34-7.9-2.38,7.9h-1Z"/><path class="cls-1" d="M285.21,147.19a5.75,5.75,0,0,1,0,6.86,4.41,4.41,0,0,1-6.59,0,5.22,5.22,0,0,1-1.13-3.42,5.16,5.16,0,0,1,1.15-3.44,4,4,0,0,1,3.28-1.48A4.09,4.09,0,0,1,285.21,147.19Zm-5.8.68a5,5,0,0,0,0,5.49,3.19,3.19,0,0,0,5,0,4.52,4.52,0,0,0,.83-2.74,4.45,4.45,0,0,0-.83-2.75,3.19,3.19,0,0,0-5,0Z"/><path class="cls-1" d="M288.25,146h1.08v5.69a3.3,3.3,0,0,0,.61,2.18,2.49,2.49,0,0,0,2,.76,2.6,2.6,0,0,0,1.89-.83,3.28,3.28,0,0,0,.92-2.14V146h1.08v9.31h-1.08V153.7a3.41,3.41,0,0,1-3.1,1.82q-3.4,0-3.4-3.82Z"/><path class="cls-1" d="M298.44,142.17h1.08v13.1h-1.08Z"/><path class="cls-1" d="M309.15,142.17h1.08v13.1h-1v-1.84a3.34,3.34,0,0,1-3.26,2.09,3.78,3.78,0,0,1-3.15-1.48,5.52,5.52,0,0,1-1-3.44,5.47,5.47,0,0,1,1-3.4,3.65,3.65,0,0,1,3.1-1.49,3.4,3.4,0,0,1,3.26,2.21Zm-5.51,5.65a4.48,4.48,0,0,0-.77,2.79,4.74,4.74,0,0,0,.76,2.81,2.8,2.8,0,0,0,2.43,1.19,2.76,2.76,0,0,0,2.36-1.15,4.52,4.52,0,0,0,.77-2.7v-.22a4.51,4.51,0,0,0-.83-2.79,2.7,2.7,0,0,0-2.27-1.12A2.85,2.85,0,0,0,303.64,147.82Z"/><path class="cls-1" d="M318.49,142.17h1.08v5.76a3.4,3.4,0,0,1,3.26-2.21,3.65,3.65,0,0,1,3.1,1.49,5.47,5.47,0,0,1,1,3.4,5.52,5.52,0,0,1-1,3.44,3.76,3.76,0,0,1-3.13,1.48,3.34,3.34,0,0,1-3.28-2.09v1.84h-1Zm1.87,5.58a4.42,4.42,0,0,0-.83,2.79v.22a4.41,4.41,0,0,0,.77,2.7,2.73,2.73,0,0,0,2.36,1.15,2.83,2.83,0,0,0,2.43-1.19,4.74,4.74,0,0,0,.76-2.81,4.58,4.58,0,0,0-.77-2.79,2.85,2.85,0,0,0-2.45-1.19A2.67,2.67,0,0,0,320.36,147.75Z"/><path class="cls-1" d="M335.93,147.21a6.49,6.49,0,0,1,1.06,3.73h-7.56a4.38,4.38,0,0,0,.92,2.68,2.93,2.93,0,0,0,2.3,1,3.12,3.12,0,0,0,2.05-.67,3.48,3.48,0,0,0,1-1.64h1.1a4.36,4.36,0,0,1-1.24,2.21,4.15,4.15,0,0,1-2.9,1,4,4,0,0,1-3.13-1.33,5.14,5.14,0,0,1-1.21-3.58,5.2,5.2,0,0,1,1.15-3.44,4.27,4.27,0,0,1,6.46,0Zm-5.51.4a4.09,4.09,0,0,0-1,2.45h6.41q-.27-3.4-3.22-3.4A2.79,2.79,0,0,0,330.42,147.6Z"/><path class="cls-1" d="M351.59,148.57h-1.06a2.2,2.2,0,0,0-.77-1.42,3.7,3.7,0,0,0-3.56-.09,1.23,1.23,0,0,0,.18,2.25,12.64,12.64,0,0,0,2,.65,9.39,9.39,0,0,1,2.41.86,2.1,2.1,0,0,1,1.12,1.87q0,2.83-3.78,2.83-3.58,0-3.91-3.19h1.06a2.53,2.53,0,0,0,.86,1.76,3.23,3.23,0,0,0,1.94.49q2.7,0,2.7-1.84a1.41,1.41,0,0,0-.92-1.3,12.35,12.35,0,0,0-2.07-.65,9,9,0,0,1-2.27-.83,2,2,0,0,1-1.06-1.78,2.1,2.1,0,0,1,1-1.82,4.18,4.18,0,0,1,2.45-.67Q351.2,145.71,351.59,148.57Z"/><path class="cls-1" d="M355.84,143v3h2.43v.94h-2.43v6.3a1.42,1.42,0,0,0,.22.88,1,1,0,0,0,.81.25H358v.94h-1.31a1.92,1.92,0,0,1-1.55-.56,2.25,2.25,0,0,1-.41-1.51v-6.3h-2V146h2v-2.56Z"/><path class="cls-1" d="M367.27,147.19a5.75,5.75,0,0,1,0,6.86,4.41,4.41,0,0,1-6.59,0,5.22,5.22,0,0,1-1.13-3.42,5.16,5.16,0,0,1,1.15-3.44,4,4,0,0,1,3.28-1.48A4.09,4.09,0,0,1,367.27,147.19Zm-5.8.68a5,5,0,0,0,0,5.49,3.19,3.19,0,0,0,5,0,4.52,4.52,0,0,0,.83-2.74,4.45,4.45,0,0,0-.83-2.75,3.19,3.19,0,0,0-5,0Z"/><path class="cls-1" d="M375.57,145.91V147a5,5,0,0,0-1.42-.2,2.3,2.3,0,0,0-2,1.12,4,4,0,0,0-.74,2.43v4.91h-1.08V146h1.08v1.78a3.41,3.41,0,0,1,1-1.39,2.68,2.68,0,0,1,1.8-.65A3.69,3.69,0,0,1,375.57,145.91Z"/><path class="cls-1" d="M383.87,147.21a6.49,6.49,0,0,1,1.06,3.73h-7.56a4.38,4.38,0,0,0,.92,2.68,2.93,2.93,0,0,0,2.3,1,3.12,3.12,0,0,0,2.05-.67,3.48,3.48,0,0,0,1-1.64h1.1a4.34,4.34,0,0,1-1.24,2.21,4.15,4.15,0,0,1-2.9,1,4,4,0,0,1-3.13-1.33,5.14,5.14,0,0,1-1.21-3.58,5.2,5.2,0,0,1,1.15-3.44,4.27,4.27,0,0,1,6.46,0Zm-5.51.4a4.09,4.09,0,0,0-1,2.45h6.41q-.27-3.4-3.22-3.4A2.78,2.78,0,0,0,378.36,147.6Z"/><path class="cls-1" d="M393.67,142.17h1.08v13.1h-1v-1.84a3.34,3.34,0,0,1-3.26,2.09,3.78,3.78,0,0,1-3.15-1.48,5.52,5.52,0,0,1-1-3.44,5.47,5.47,0,0,1,1-3.4,3.65,3.65,0,0,1,3.1-1.49,3.4,3.4,0,0,1,3.26,2.21Zm-5.51,5.65a4.48,4.48,0,0,0-.77,2.79,4.74,4.74,0,0,0,.76,2.81,2.8,2.8,0,0,0,2.43,1.19,2.76,2.76,0,0,0,2.36-1.15,4.52,4.52,0,0,0,.77-2.7v-.22a4.51,4.51,0,0,0-.83-2.79,2.7,2.7,0,0,0-2.27-1.12A2.85,2.85,0,0,0,388.17,147.82Z"/><path class="cls-1" d="M39,174.89a.76.76,0,0,1,.27.63.89.89,0,0,1-.29.65.94.94,0,0,1-.63.25.89.89,0,0,1-.92-.9.76.76,0,0,1,.27-.63.84.84,0,0,1,.65-.27A.88.88,0,0,1,39,174.89ZM37.85,178h1.08v9.31H37.85Z"/><path class="cls-1" d="M49.3,181.55v5.72H48.22v-5.65q0-3-2.65-3a2.46,2.46,0,0,0-1.87.81,3.28,3.28,0,0,0-.88,2.2v5.62H41.74V178h1.08v1.53a3.78,3.78,0,0,1,1.26-1.31,3.28,3.28,0,0,1,1.76-.47Q49.3,177.71,49.3,181.55Z"/><path class="cls-1" d="M59.81,175v3h2.43v.94H59.81v6.3a1.42,1.42,0,0,0,.22.88,1,1,0,0,0,.81.25H62v.94H60.69a1.92,1.92,0,0,1-1.55-.56,2.25,2.25,0,0,1-.41-1.51v-6.3h-2V178h2v-2.56Z"/><path class="cls-1" d="M63.88,174.17H65v5.49a3.58,3.58,0,0,1,1.3-1.46,3.3,3.3,0,0,1,1.76-.49,3.25,3.25,0,0,1,2.48.94,3.76,3.76,0,0,1,.9,2.68v5.94H70.34v-5.8a3.07,3.07,0,0,0-.68-2.11,2.57,2.57,0,0,0-1.93-.72,2.51,2.51,0,0,0-2,.94,3.36,3.36,0,0,0-.79,2.3v5.38h-1.1Z"/><path class="cls-1" d="M80.76,179.21a6.49,6.49,0,0,1,1.06,3.73H74.26a4.38,4.38,0,0,0,.92,2.68,2.93,2.93,0,0,0,2.3,1,3.12,3.12,0,0,0,2.05-.67,3.49,3.49,0,0,0,1-1.64h1.1a4.35,4.35,0,0,1-1.24,2.21,4.15,4.15,0,0,1-2.9,1,4,4,0,0,1-3.13-1.33,5.14,5.14,0,0,1-1.21-3.58,5.2,5.2,0,0,1,1.15-3.44,4.27,4.27,0,0,1,6.46,0Zm-5.51.4a4.09,4.09,0,0,0-1,2.45h6.41q-.27-3.4-3.22-3.4A2.78,2.78,0,0,0,75.25,179.6Z"/><path class="cls-1" d="M96.56,174.17h1.08v13.1h-1v-1.84a3.34,3.34,0,0,1-3.26,2.09A3.78,3.78,0,0,1,90.21,186a5.52,5.52,0,0,1-1-3.44,5.47,5.47,0,0,1,1-3.4,3.65,3.65,0,0,1,3.1-1.49,3.4,3.4,0,0,1,3.26,2.21Zm-5.51,5.65a4.48,4.48,0,0,0-.77,2.79,4.74,4.74,0,0,0,.76,2.81,2.8,2.8,0,0,0,2.43,1.19,2.76,2.76,0,0,0,2.36-1.15,4.52,4.52,0,0,0,.77-2.7v-.22a4.51,4.51,0,0,0-.83-2.79,2.7,2.7,0,0,0-2.27-1.12A2.85,2.85,0,0,0,91.05,179.82Z"/><path class="cls-1" d="M107,179.21a6.49,6.49,0,0,1,1.06,3.73h-7.56a4.38,4.38,0,0,0,.92,2.68,2.93,2.93,0,0,0,2.3,1,3.12,3.12,0,0,0,2.05-.67,3.49,3.49,0,0,0,1-1.64h1.1a4.35,4.35,0,0,1-1.24,2.21,4.15,4.15,0,0,1-2.9,1,4,4,0,0,1-3.13-1.33,5.14,5.14,0,0,1-1.21-3.58,5.2,5.2,0,0,1,1.15-3.44,4.27,4.27,0,0,1,6.46,0Zm-5.51.4a4.09,4.09,0,0,0-1,2.45h6.41q-.27-3.4-3.22-3.4A2.78,2.78,0,0,0,101.48,179.6Z"/><path class="cls-1" d="M116.42,178.52a3.53,3.53,0,0,1,1.28,2.48h-1.08a2.65,2.65,0,0,0-.94-1.76,3.12,3.12,0,0,0-2-.59,2.79,2.79,0,0,0-2.34,1.13,4.53,4.53,0,0,0-.85,2.9,4.57,4.57,0,0,0,.81,2.84,2.78,2.78,0,0,0,2.36,1.06,2.75,2.75,0,0,0,3-2.65h1.06a4.24,4.24,0,0,1-1.33,2.68,4,4,0,0,1-2.72.9,3.88,3.88,0,0,1-3.2-1.4,5.21,5.21,0,0,1-1.06-3.44,5.4,5.4,0,0,1,1.1-3.49,3.82,3.82,0,0,1,3.19-1.48A4.31,4.31,0,0,1,116.42,178.52Z"/><path class="cls-1" d="M126.53,179.21a6.49,6.49,0,0,1,1.06,3.73H120a4.38,4.38,0,0,0,.92,2.68,2.93,2.93,0,0,0,2.3,1,3.12,3.12,0,0,0,2.05-.67,3.49,3.49,0,0,0,1-1.64h1.1a4.35,4.35,0,0,1-1.24,2.21,4.15,4.15,0,0,1-2.9,1,4,4,0,0,1-3.13-1.33,5.14,5.14,0,0,1-1.21-3.58,5.2,5.2,0,0,1,1.15-3.44,4.27,4.27,0,0,1,6.46,0Zm-5.51.4a4.09,4.09,0,0,0-1,2.45h6.41q-.27-3.4-3.22-3.4A2.78,2.78,0,0,0,121,179.6Z"/><path class="cls-1" d="M136.88,181.55v5.72H135.8v-5.65q0-3-2.65-3a2.46,2.46,0,0,0-1.87.81,3.28,3.28,0,0,0-.88,2.2v5.62h-1.08V178h1.08v1.53a3.78,3.78,0,0,1,1.26-1.31,3.28,3.28,0,0,1,1.76-.47Q136.88,177.71,136.88,181.55Z"/><path class="cls-1" d="M141.4,175v3h2.43v.94H141.4v6.3a1.42,1.42,0,0,0,.22.88,1,1,0,0,0,.81.25h1.17v.94h-1.31a1.92,1.92,0,0,1-1.55-.56,2.25,2.25,0,0,1-.41-1.51v-6.3h-2V178h2v-2.56Z"/><path class="cls-1" d="M150.72,177.91V179a5,5,0,0,0-1.42-.2,2.3,2.3,0,0,0-2,1.12,4,4,0,0,0-.74,2.43v4.91h-1.08V178h1.08v1.78a3.42,3.42,0,0,1,1-1.39,2.68,2.68,0,0,1,1.8-.65A3.69,3.69,0,0,1,150.72,177.91Z"/><path class="cls-1" d="M158.79,178.77a3.59,3.59,0,0,1,.83,2.5v6h-1v-1.78a4.82,4.82,0,0,1-1.51,1.39,4.69,4.69,0,0,1-2.43.65,3.36,3.36,0,0,1-2.21-.7,2.4,2.4,0,0,1-.85-1.93A2.75,2.75,0,0,1,153,182.3a6.28,6.28,0,0,1,3.12-.67l2.38,0v-.34a2.36,2.36,0,0,0-2.7-2.65,3.2,3.2,0,0,0-1.94.52,2.21,2.21,0,0,0-1,1.62h-1.06a3.25,3.25,0,0,1,1.31-2.34,4.55,4.55,0,0,1,2.7-.72A3.66,3.66,0,0,1,158.79,178.77Zm-.25,3.73-2.32,0q-3.53,0-3.53,2.36a1.55,1.55,0,0,0,.59,1.26,2.39,2.39,0,0,0,1.58.49,3.87,3.87,0,0,0,2.59-1,2.75,2.75,0,0,0,1.08-2.07Z"/><path class="cls-1" d="M162.23,174.17h1.08v13.1h-1.08Z"/><path class="cls-1" d="M167.64,174.89a.76.76,0,0,1,.27.63.9.9,0,0,1-.29.65.94.94,0,0,1-.63.25.87.87,0,0,1-.65-.25.88.88,0,0,1-.27-.65.76.76,0,0,1,.27-.63.84.84,0,0,1,.65-.27A.88.88,0,0,1,167.64,174.89ZM166.46,178h1.08v9.31h-1.08Z"/><path class="cls-1" d="M169.84,178h7.22v.83l-6,7.54h6.3v.94h-7.69v-.85l6-7.52h-5.81Z"/><path class="cls-1" d="M186,179.21a6.49,6.49,0,0,1,1.06,3.73H179.5a4.38,4.38,0,0,0,.92,2.68,2.93,2.93,0,0,0,2.3,1,3.13,3.13,0,0,0,2.05-.67,3.49,3.49,0,0,0,1-1.64h1.1a4.36,4.36,0,0,1-1.24,2.21,4.15,4.15,0,0,1-2.9,1,4,4,0,0,1-3.13-1.33,5.14,5.14,0,0,1-1.21-3.58,5.2,5.2,0,0,1,1.15-3.44,4.27,4.27,0,0,1,6.46,0Zm-5.51.4a4.09,4.09,0,0,0-1,2.45h6.41q-.27-3.4-3.22-3.4A2.78,2.78,0,0,0,180.5,179.6Z"/><path class="cls-1" d="M195.81,174.17h1.08v13.1h-1v-1.84a3.34,3.34,0,0,1-3.26,2.09,3.78,3.78,0,0,1-3.15-1.48,5.52,5.52,0,0,1-1-3.44,5.47,5.47,0,0,1,1-3.4,3.65,3.65,0,0,1,3.1-1.49,3.4,3.4,0,0,1,3.26,2.21Zm-5.51,5.65a4.48,4.48,0,0,0-.77,2.79,4.74,4.74,0,0,0,.76,2.81,2.8,2.8,0,0,0,2.43,1.19,2.76,2.76,0,0,0,2.36-1.15,4.52,4.52,0,0,0,.77-2.7v-.22a4.51,4.51,0,0,0-.83-2.79,2.7,2.7,0,0,0-2.27-1.12A2.85,2.85,0,0,0,190.3,179.82Z"/><path class="cls-1" d="M205.15,174.17h1.08v5.76a3.4,3.4,0,0,1,3.26-2.21,3.65,3.65,0,0,1,3.1,1.49,5.46,5.46,0,0,1,1,3.4,5.52,5.52,0,0,1-1,3.44,3.76,3.76,0,0,1-3.13,1.48,3.34,3.34,0,0,1-3.28-2.09v1.84h-1Zm1.87,5.58a4.41,4.41,0,0,0-.83,2.79v.22a4.42,4.42,0,0,0,.77,2.7,2.73,2.73,0,0,0,2.36,1.15,2.83,2.83,0,0,0,2.43-1.19,4.74,4.74,0,0,0,.76-2.81,4.58,4.58,0,0,0-.77-2.79,2.85,2.85,0,0,0-2.45-1.19A2.67,2.67,0,0,0,207,179.75Z"/><path class="cls-1" d="M222.88,179.19a5.76,5.76,0,0,1,0,6.86,4.41,4.41,0,0,1-6.59,0,5.22,5.22,0,0,1-1.13-3.42,5.15,5.15,0,0,1,1.15-3.44,4,4,0,0,1,3.28-1.48A4.09,4.09,0,0,1,222.88,179.19Zm-5.8.68a5,5,0,0,0,0,5.49,3.19,3.19,0,0,0,5,0,4.51,4.51,0,0,0,.83-2.74,4.45,4.45,0,0,0-.83-2.75,3.19,3.19,0,0,0-5,0Z"/><path class="cls-1" d="M228.18,175v3h2.43v.94h-2.43v6.3a1.41,1.41,0,0,0,.22.88,1,1,0,0,0,.81.25h1.17v.94h-1.31a1.92,1.92,0,0,1-1.55-.56,2.26,2.26,0,0,1-.41-1.51v-6.3h-2V178h2v-2.56Z"/><path class="cls-1" d="M234.49,175v3h2.43v.94h-2.43v6.3a1.42,1.42,0,0,0,.22.88,1,1,0,0,0,.81.25h1.17v.94h-1.31a1.92,1.92,0,0,1-1.55-.56,2.25,2.25,0,0,1-.41-1.51v-6.3h-2V178h2v-2.56Z"/><path class="cls-1" d="M245.92,179.19a5.75,5.75,0,0,1,0,6.86,4.41,4.41,0,0,1-6.59,0,5.22,5.22,0,0,1-1.13-3.42,5.15,5.15,0,0,1,1.15-3.44,4,4,0,0,1,3.28-1.48A4.09,4.09,0,0,1,245.92,179.19Zm-5.79.68a5,5,0,0,0,0,5.49,3.19,3.19,0,0,0,5,0,4.51,4.51,0,0,0,.83-2.74,4.45,4.45,0,0,0-.83-2.75,3.19,3.19,0,0,0-5,0Z"/><path class="cls-1" d="M255.66,179.62a3.62,3.62,0,0,1,1.24-1.42,2.9,2.9,0,0,1,1.69-.49,3.06,3.06,0,0,1,2.34.92,3.67,3.67,0,0,1,.85,2.56v6.08H260.7v-5.94a3,3,0,0,0-.54-2,2.3,2.3,0,0,0-1.85-.7,2.14,2.14,0,0,0-1.69.77,2.72,2.72,0,0,0-.68,1.93v5.92h-1.1v-5.94q0-2.68-2.32-2.68a2.15,2.15,0,0,0-1.75.85,3,3,0,0,0-.72,2.05v5.72H249V178H250v1.4a3,3,0,0,1,2.7-1.66A2.81,2.81,0,0,1,255.66,179.62Z"/><path class="cls-1" d="M270.39,174.17h1.08v13.1h-1.08Z"/><path class="cls-1" d="M280.92,178.77a3.6,3.6,0,0,1,.83,2.5v6h-1v-1.78a4.8,4.8,0,0,1-1.51,1.39,4.69,4.69,0,0,1-2.43.65,3.35,3.35,0,0,1-2.21-.7,2.4,2.4,0,0,1-.85-1.93,2.75,2.75,0,0,1,1.46-2.59,6.27,6.27,0,0,1,3.11-.67l2.38,0v-.34a2.36,2.36,0,0,0-2.7-2.65,3.2,3.2,0,0,0-1.94.52,2.22,2.22,0,0,0-1,1.62H274a3.25,3.25,0,0,1,1.31-2.34,4.55,4.55,0,0,1,2.7-.72A3.67,3.67,0,0,1,280.92,178.77Zm-.25,3.73-2.32,0q-3.53,0-3.53,2.36a1.55,1.55,0,0,0,.59,1.26,2.38,2.38,0,0,0,1.58.49,3.87,3.87,0,0,0,2.59-1,2.76,2.76,0,0,0,1.08-2.07Z"/><path class="cls-1" d="M283,178h1.19l3,7.76,3-7.76h1.19l-5.13,12.87h-1.17l1.57-3.8Z"/><path class="cls-1" d="M299.69,179.21a6.49,6.49,0,0,1,1.06,3.73h-7.56a4.38,4.38,0,0,0,.92,2.68,2.93,2.93,0,0,0,2.3,1,3.12,3.12,0,0,0,2.05-.67,3.48,3.48,0,0,0,1-1.64h1.1a4.34,4.34,0,0,1-1.24,2.21,4.15,4.15,0,0,1-2.9,1,4,4,0,0,1-3.13-1.33,5.14,5.14,0,0,1-1.21-3.58,5.2,5.2,0,0,1,1.15-3.44,4.27,4.27,0,0,1,6.46,0Zm-5.51.4a4.09,4.09,0,0,0-1,2.45h6.41q-.27-3.4-3.22-3.4A2.78,2.78,0,0,0,294.18,179.6Z"/><path class="cls-1" d="M307.74,177.91V179a5,5,0,0,0-1.42-.2,2.3,2.3,0,0,0-2,1.12,4,4,0,0,0-.74,2.43v4.91h-1.08V178h1.08v1.78a3.41,3.41,0,0,1,1-1.39,2.68,2.68,0,0,1,1.8-.65A3.69,3.69,0,0,1,307.74,177.91Z"/><path class="cls-1" d="M310.79,185.72a.81.81,0,0,1,.27.65.9.9,0,0,1-.29.65.94.94,0,0,1-.63.25.85.85,0,0,1-.65-.27.86.86,0,0,1-.27-.63.81.81,0,0,1,.27-.65.84.84,0,0,1,.65-.25A.88.88,0,0,1,310.79,185.72Z"/><path class="cls-1" d="M328.81,175.28a4.37,4.37,0,0,1,1.75,3H329.5A3.3,3.3,0,0,0,328,176a4.64,4.64,0,0,0-2.74-.81,4.51,4.51,0,0,0-3.71,1.67,6.21,6.21,0,0,0-1.26,4,6.12,6.12,0,0,0,1.24,4,4.39,4.39,0,0,0,3.62,1.6,4.65,4.65,0,0,0,2.83-.88,4.48,4.48,0,0,0,1.66-2.75h1.06a5.55,5.55,0,0,1-2,3.49,5.63,5.63,0,0,1-3.51,1.15,5.49,5.49,0,0,1-4.5-2,7.08,7.08,0,0,1-1.48-4.64,7.19,7.19,0,0,1,1.51-4.7,6.1,6.1,0,0,1,8.06-.92Z"/><path class="cls-1" d="M340,179.19a5.75,5.75,0,0,1,0,6.86,4.41,4.41,0,0,1-6.59,0,5.22,5.22,0,0,1-1.13-3.42,5.15,5.15,0,0,1,1.15-3.44,4,4,0,0,1,3.28-1.48A4.09,4.09,0,0,1,340,179.19Zm-5.79.68a5,5,0,0,0,0,5.49,3.19,3.19,0,0,0,5,0,4.51,4.51,0,0,0,.83-2.74,4.45,4.45,0,0,0-.83-2.75,3.19,3.19,0,0,0-5,0Z"/><path class="cls-1" d="M350.48,179.21a6.26,6.26,0,0,1,0,6.84,3.74,3.74,0,0,1-3.11,1.48,3.41,3.41,0,0,1-3.26-2.2v5.51H343V178h1v1.84a3.42,3.42,0,0,1,3.28-2.09A3.75,3.75,0,0,1,350.48,179.21Zm-5.62.61a4.51,4.51,0,0,0-.77,2.75v.2a4.35,4.35,0,0,0,.83,2.75,2.73,2.73,0,0,0,2.27,1.08,2.91,2.91,0,0,0,2.45-1.15,4.74,4.74,0,0,0,.76-2.81,4.83,4.83,0,0,0-.74-2.81,2.82,2.82,0,0,0-2.43-1.21A2.73,2.73,0,0,0,344.87,179.82Z"/><path class="cls-1" d="M352.37,178h1.19l3,7.76,3-7.76h1.19l-5.13,12.87H354.5l1.57-3.8Z"/><path class="cls-1" d="M367.28,177.91V179a5,5,0,0,0-1.42-.2,2.3,2.3,0,0,0-2,1.12,4,4,0,0,0-.74,2.43v4.91H362V178h1.08v1.78a3.41,3.41,0,0,1,1-1.39,2.68,2.68,0,0,1,1.8-.65A3.69,3.69,0,0,1,367.28,177.91Z"/><path class="cls-1" d="M370.23,174.89a.76.76,0,0,1,.27.63.9.9,0,0,1-.29.65.94.94,0,0,1-.63.25.89.89,0,0,1-.92-.9.76.76,0,0,1,.27-.63.84.84,0,0,1,.65-.27A.88.88,0,0,1,370.23,174.89ZM369,178h1.08v9.31H369Z"/><path class="cls-1" d="M380.09,179.84V178h1.08v8.62q0,4.5-4.18,4.5a4.47,4.47,0,0,1-2.83-.79,3.39,3.39,0,0,1-1.19-2.23h1.08a2.41,2.41,0,0,0,.86,1.55,3.25,3.25,0,0,0,2.07.58q3.09,0,3.1-3.47v-1.78a3.46,3.46,0,0,1-3.33,2.12,3.87,3.87,0,0,1-3.11-1.39,5.51,5.51,0,0,1,0-6.55,3.85,3.85,0,0,1,3.11-1.4A3.46,3.46,0,0,1,380.09,179.84Zm-5.6-.09a4,4,0,0,0-.83,2.65,4.14,4.14,0,0,0,.77,2.59,2.85,2.85,0,0,0,2.43,1.13,2.92,2.92,0,0,0,2.41-1.08,4.72,4.72,0,0,0,0-5.29,3.12,3.12,0,0,0-4.79,0Z"/><path class="cls-1" d="M383.44,174.17h1.1v5.49a3.58,3.58,0,0,1,1.3-1.46,3.3,3.3,0,0,1,1.76-.49,3.25,3.25,0,0,1,2.48.94,3.76,3.76,0,0,1,.9,2.68v5.94H389.9v-5.8a3.07,3.07,0,0,0-.68-2.11,2.57,2.57,0,0,0-1.93-.72,2.5,2.5,0,0,0-2,.94,3.36,3.36,0,0,0-.79,2.3v5.38h-1.1Z"/><path class="cls-1" d="M395.5,175v3h2.43v.94H395.5v6.3a1.42,1.42,0,0,0,.22.88,1,1,0,0,0,.81.25h1.17v.94h-1.31a1.92,1.92,0,0,1-1.55-.56,2.25,2.25,0,0,1-.41-1.51v-6.3h-2V178h2v-2.56Z"/><path class="cls-1" d="M77,211.19A5.75,5.75,0,0,1,77,218a4.41,4.41,0,0,1-6.59,0,5.22,5.22,0,0,1-1.13-3.42,5.15,5.15,0,0,1,1.15-3.44,4,4,0,0,1,3.28-1.48A4.09,4.09,0,0,1,77,211.19Zm-5.8.68a5,5,0,0,0,0,5.49,3.19,3.19,0,0,0,5,0,4.51,4.51,0,0,0,.83-2.74,4.45,4.45,0,0,0-.83-2.75,3.19,3.19,0,0,0-5,0Z"/><path class="cls-1" d="M85.52,206.42v1H84a1.28,1.28,0,0,0-1,.36,1.65,1.65,0,0,0-.32,1.15V210h2.79v.94H82.6v8.37H81.52V210.9H79V210h2.48v-1.1a2.47,2.47,0,0,1,.58-1.78,2.24,2.24,0,0,1,1.76-.67Z"/><path class="cls-1" d="M95,207v3h2.43v.94H95v6.3a1.42,1.42,0,0,0,.22.88,1,1,0,0,0,.81.25h1.17v.94H95.87a1.92,1.92,0,0,1-1.55-.56,2.25,2.25,0,0,1-.41-1.51v-6.3h-2V210h2v-2.56Z"/><path class="cls-1" d="M99.06,206.17h1.1v5.49a3.58,3.58,0,0,1,1.3-1.46,3.3,3.3,0,0,1,1.76-.49,3.25,3.25,0,0,1,2.48.94,3.76,3.76,0,0,1,.9,2.68v5.94h-1.08v-5.8a3.07,3.07,0,0,0-.68-2.11,2.57,2.57,0,0,0-1.93-.72,2.51,2.51,0,0,0-2,.94,3.36,3.36,0,0,0-.79,2.3v5.38h-1.1Z"/><path class="cls-1" d="M115.94,211.21a6.49,6.49,0,0,1,1.06,3.73h-7.56a4.38,4.38,0,0,0,.92,2.68,2.93,2.93,0,0,0,2.3,1,3.12,3.12,0,0,0,2.05-.67,3.49,3.49,0,0,0,1-1.64h1.1a4.35,4.35,0,0,1-1.24,2.21,4.15,4.15,0,0,1-2.9,1,4,4,0,0,1-3.13-1.33,5.14,5.14,0,0,1-1.21-3.58,5.2,5.2,0,0,1,1.15-3.44,4.27,4.27,0,0,1,6.46,0Zm-5.51.4a4.09,4.09,0,0,0-1,2.45h6.41q-.27-3.4-3.22-3.4A2.78,2.78,0,0,0,110.43,211.6Z"/><path class="cls-1" d="M125.61,212.57h-1.06a2.2,2.2,0,0,0-.77-1.42,3.7,3.7,0,0,0-3.56-.09,1.23,1.23,0,0,0,.18,2.25,12.62,12.62,0,0,0,2,.65,9.37,9.37,0,0,1,2.41.86,2.1,2.1,0,0,1,1.12,1.87q0,2.83-3.78,2.83-3.58,0-3.91-3.19h1.06a2.53,2.53,0,0,0,.86,1.76,3.23,3.23,0,0,0,1.94.49q2.7,0,2.7-1.84a1.41,1.41,0,0,0-.92-1.3,12.32,12.32,0,0,0-2.07-.65,9,9,0,0,1-2.27-.83,2,2,0,0,1-1.06-1.78,2.1,2.1,0,0,1,1-1.82,4.19,4.19,0,0,1,2.45-.67Q125.21,209.71,125.61,212.57Z"/><path class="cls-1" d="M134.68,211.21a6.49,6.49,0,0,1,1.06,3.73h-7.56a4.38,4.38,0,0,0,.92,2.68,2.93,2.93,0,0,0,2.3,1,3.12,3.12,0,0,0,2.05-.67,3.48,3.48,0,0,0,1-1.64h1.1a4.34,4.34,0,0,1-1.24,2.21,4.15,4.15,0,0,1-2.9,1,4,4,0,0,1-3.13-1.33,5.14,5.14,0,0,1-1.21-3.58,5.2,5.2,0,0,1,1.15-3.44,4.27,4.27,0,0,1,6.46,0Zm-5.51.4a4.09,4.09,0,0,0-1,2.45h6.41q-.27-3.4-3.22-3.4A2.78,2.78,0,0,0,129.17,211.6Z"/><path class="cls-1" d="M150.1,210.52a3.53,3.53,0,0,1,1.28,2.48H150.3a2.65,2.65,0,0,0-.94-1.76,3.12,3.12,0,0,0-2-.59,2.79,2.79,0,0,0-2.34,1.13,5.39,5.39,0,0,0,0,5.74,2.78,2.78,0,0,0,2.36,1.06,2.75,2.75,0,0,0,3-2.65h1.06a4.24,4.24,0,0,1-1.33,2.68,4,4,0,0,1-2.72.9,3.88,3.88,0,0,1-3.2-1.4,5.21,5.21,0,0,1-1.06-3.44,5.4,5.4,0,0,1,1.1-3.49,3.82,3.82,0,0,1,3.19-1.48A4.31,4.31,0,0,1,150.1,210.52Z"/><path class="cls-1" d="M160.51,211.19a5.76,5.76,0,0,1,0,6.86,4.41,4.41,0,0,1-6.59,0,5.22,5.22,0,0,1-1.13-3.42,5.15,5.15,0,0,1,1.15-3.44,4,4,0,0,1,3.28-1.48A4.09,4.09,0,0,1,160.51,211.19Zm-5.8.68a5,5,0,0,0,0,5.49,3.19,3.19,0,0,0,5,0,4.51,4.51,0,0,0,.83-2.74,4.45,4.45,0,0,0-.83-2.75,3.19,3.19,0,0,0-5,0Z"/><path class="cls-1" d="M171.11,213.55v5.72H170v-5.65q0-3-2.65-3a2.45,2.45,0,0,0-1.87.81,3.28,3.28,0,0,0-.88,2.2v5.62h-1.08V210h1.08v1.53a3.78,3.78,0,0,1,1.26-1.31,3.28,3.28,0,0,1,1.76-.47Q171.11,209.71,171.11,213.55Z"/><path class="cls-1" d="M175.63,207v3h2.43v.94h-2.43v6.3a1.42,1.42,0,0,0,.22.88,1,1,0,0,0,.81.25h1.17v.94h-1.31a1.92,1.92,0,0,1-1.55-.56,2.25,2.25,0,0,1-.41-1.51v-6.3h-2V210h2v-2.56Z"/><path class="cls-1" d="M186.77,211.21a6.49,6.49,0,0,1,1.06,3.73h-7.56a4.38,4.38,0,0,0,.92,2.68,2.93,2.93,0,0,0,2.3,1,3.13,3.13,0,0,0,2.05-.67,3.49,3.49,0,0,0,1-1.64h1.1a4.36,4.36,0,0,1-1.24,2.21,4.15,4.15,0,0,1-2.9,1,4,4,0,0,1-3.13-1.33,5.14,5.14,0,0,1-1.21-3.58,5.2,5.2,0,0,1,1.15-3.44,4.27,4.27,0,0,1,6.46,0Zm-5.51.4a4.09,4.09,0,0,0-1,2.45h6.41q-.27-3.4-3.22-3.4A2.78,2.78,0,0,0,181.26,211.6Z"/><path class="cls-1" d="M197.12,213.55v5.72H196v-5.65q0-3-2.65-3a2.46,2.46,0,0,0-1.87.81,3.28,3.28,0,0,0-.88,2.2v5.62h-1.08V210h1.08v1.53a3.78,3.78,0,0,1,1.26-1.31,3.28,3.28,0,0,1,1.76-.47Q197.12,209.71,197.12,213.55Z"/><path class="cls-1" d="M201.64,207v3h2.43v.94h-2.43v6.3a1.42,1.42,0,0,0,.22.88,1,1,0,0,0,.81.25h1.17v.94h-1.31a1.92,1.92,0,0,1-1.55-.56,2.25,2.25,0,0,1-.41-1.51v-6.3h-2V210h2v-2.56Z"/><path class="cls-1" d="M212.58,212.57h-1.06a2.2,2.2,0,0,0-.77-1.42,3.7,3.7,0,0,0-3.56-.09,1.23,1.23,0,0,0,.18,2.25,12.66,12.66,0,0,0,2,.65,9.37,9.37,0,0,1,2.41.86,2.1,2.1,0,0,1,1.12,1.87q0,2.83-3.78,2.83-3.58,0-3.91-3.19h1.06a2.53,2.53,0,0,0,.86,1.76,3.23,3.23,0,0,0,1.94.49q2.7,0,2.7-1.84a1.41,1.41,0,0,0-.92-1.3,12.29,12.29,0,0,0-2.07-.65,9,9,0,0,1-2.27-.83,2,2,0,0,1-1.06-1.78,2.1,2.1,0,0,1,1-1.82,4.19,4.19,0,0,1,2.45-.67Q212.18,209.71,212.58,212.57Z"/><path class="cls-1" d="M227.74,211.84V210h1.08v8.62q0,4.5-4.18,4.5a4.47,4.47,0,0,1-2.83-.79,3.39,3.39,0,0,1-1.19-2.23h1.08a2.41,2.41,0,0,0,.86,1.55,3.25,3.25,0,0,0,2.07.58q3.09,0,3.1-3.47v-1.78a3.46,3.46,0,0,1-3.33,2.12,3.87,3.87,0,0,1-3.11-1.39,5.51,5.51,0,0,1,0-6.55,3.85,3.85,0,0,1,3.11-1.4A3.46,3.46,0,0,1,227.74,211.84Zm-5.6-.09a4,4,0,0,0-.83,2.65,4.14,4.14,0,0,0,.77,2.59,2.85,2.85,0,0,0,2.43,1.13,2.92,2.92,0,0,0,2.41-1.08,4.72,4.72,0,0,0,0-5.29,3.12,3.12,0,0,0-4.79,0Z"/><path class="cls-1" d="M238.16,211.21a6.49,6.49,0,0,1,1.06,3.73h-7.56a4.38,4.38,0,0,0,.92,2.68,2.93,2.93,0,0,0,2.3,1,3.12,3.12,0,0,0,2.05-.67,3.48,3.48,0,0,0,1-1.64H239a4.34,4.34,0,0,1-1.24,2.21,4.15,4.15,0,0,1-2.9,1,4,4,0,0,1-3.13-1.33,5.14,5.14,0,0,1-1.21-3.58,5.2,5.2,0,0,1,1.15-3.44,4.27,4.27,0,0,1,6.46,0Zm-5.51.4a4.09,4.09,0,0,0-1,2.45h6.41q-.27-3.4-3.22-3.4A2.78,2.78,0,0,0,232.65,211.6Z"/><path class="cls-1" d="M248.51,213.55v5.72h-1.08v-5.65q0-3-2.65-3a2.45,2.45,0,0,0-1.87.81,3.29,3.29,0,0,0-.88,2.2v5.62h-1.08V210H242v1.53a3.77,3.77,0,0,1,1.26-1.31,3.28,3.28,0,0,1,1.76-.47Q248.51,209.71,248.51,213.55Z"/><path class="cls-1" d="M257.85,211.21a6.49,6.49,0,0,1,1.06,3.73h-7.56a4.38,4.38,0,0,0,.92,2.68,2.93,2.93,0,0,0,2.3,1,3.12,3.12,0,0,0,2.05-.67,3.48,3.48,0,0,0,1-1.64h1.1a4.34,4.34,0,0,1-1.24,2.21,4.15,4.15,0,0,1-2.9,1,4,4,0,0,1-3.13-1.33,5.14,5.14,0,0,1-1.21-3.58,5.2,5.2,0,0,1,1.15-3.44,4.27,4.27,0,0,1,6.46,0Zm-5.51.4a4.09,4.09,0,0,0-1,2.45h6.41q-.27-3.4-3.22-3.4A2.78,2.78,0,0,0,252.34,211.6Z"/><path class="cls-1" d="M265.9,209.91V211a5,5,0,0,0-1.42-.2,2.3,2.3,0,0,0-2,1.12,4,4,0,0,0-.74,2.43v4.91h-1.08V210h1.08v1.78a3.41,3.41,0,0,1,1-1.39,2.68,2.68,0,0,1,1.8-.65A3.69,3.69,0,0,1,265.9,209.91Z"/><path class="cls-1" d="M274,210.77a3.59,3.59,0,0,1,.83,2.5v6h-1v-1.78a4.82,4.82,0,0,1-1.51,1.39,4.69,4.69,0,0,1-2.43.65,3.36,3.36,0,0,1-2.21-.7,2.4,2.4,0,0,1-.85-1.93,2.75,2.75,0,0,1,1.46-2.59,6.28,6.28,0,0,1,3.12-.67l2.38,0v-.34a2.36,2.36,0,0,0-2.7-2.65,3.2,3.2,0,0,0-1.94.52,2.21,2.21,0,0,0-1,1.62H267a3.25,3.25,0,0,1,1.31-2.34,4.55,4.55,0,0,1,2.7-.72A3.66,3.66,0,0,1,274,210.77Zm-.25,3.73-2.32,0q-3.53,0-3.53,2.36a1.55,1.55,0,0,0,.59,1.26,2.39,2.39,0,0,0,1.58.49,3.87,3.87,0,0,0,2.59-1,2.75,2.75,0,0,0,1.08-2.07Z"/><path class="cls-1" d="M279.3,207v3h2.43v.94H279.3v6.3a1.41,1.41,0,0,0,.22.88,1,1,0,0,0,.81.25h1.17v.94h-1.31a1.92,1.92,0,0,1-1.55-.56,2.26,2.26,0,0,1-.41-1.51v-6.3h-2V210h2v-2.56Z"/><path class="cls-1" d="M290.73,211.19a5.75,5.75,0,0,1,0,6.86,4.41,4.41,0,0,1-6.59,0,5.22,5.22,0,0,1-1.13-3.42,5.15,5.15,0,0,1,1.15-3.44,4,4,0,0,1,3.28-1.48A4.09,4.09,0,0,1,290.73,211.19Zm-5.79.68a5,5,0,0,0,0,5.49,3.19,3.19,0,0,0,5,0,4.51,4.51,0,0,0,.83-2.74,4.45,4.45,0,0,0-.83-2.75,3.19,3.19,0,0,0-5,0Z"/><path class="cls-1" d="M299,209.91V211a5,5,0,0,0-1.42-.2,2.3,2.3,0,0,0-2,1.12,4,4,0,0,0-.74,2.43v4.91h-1.08V210h1.08v1.78a3.42,3.42,0,0,1,1-1.39,2.68,2.68,0,0,1,1.8-.65A3.69,3.69,0,0,1,299,209.91Z"/><path class="cls-1" d="M307.13,212.57h-1.06a2.2,2.2,0,0,0-.77-1.42,3.7,3.7,0,0,0-3.56-.09,1.23,1.23,0,0,0,.18,2.25,12.64,12.64,0,0,0,2,.65,9.39,9.39,0,0,1,2.41.86,2.1,2.1,0,0,1,1.12,1.87q0,2.83-3.78,2.83-3.58,0-3.91-3.19h1.06a2.53,2.53,0,0,0,.86,1.76,3.23,3.23,0,0,0,1.94.49q2.7,0,2.7-1.84a1.41,1.41,0,0,0-.92-1.3,12.35,12.35,0,0,0-2.07-.65A9,9,0,0,1,301,214,2,2,0,0,1,300,212.2a2.1,2.1,0,0,1,1-1.82,4.18,4.18,0,0,1,2.45-.67Q306.74,209.71,307.13,212.57Z"/><path class="cls-1" d="M314.08,210h1.21l2.52,7.92,2.34-7.92h1l2.34,7.92,2.54-7.92h1.19l-3.19,9.31h-1l-2.34-7.9-2.37,7.9h-1Z"/><path class="cls-1" d="M330.21,206.89a.76.76,0,0,1,.27.63.9.9,0,0,1-.29.65.94.94,0,0,1-.63.25.89.89,0,0,1-.92-.9.76.76,0,0,1,.27-.63.84.84,0,0,1,.65-.27A.88.88,0,0,1,330.21,206.89ZM329,210h1.08v9.31H329Z"/><path class="cls-1" d="M333.25,206.17h1.08v13.1h-1.08Z"/><path class="cls-1" d="M337.28,206.17h1.08v13.1h-1.08Z"/><path class="cls-1" d="M347,206.17H348v5.76a3.4,3.4,0,0,1,3.26-2.21,3.65,3.65,0,0,1,3.1,1.49,5.46,5.46,0,0,1,1,3.4,5.52,5.52,0,0,1-1,3.44,3.76,3.76,0,0,1-3.13,1.48,3.33,3.33,0,0,1-3.28-2.09v1.84h-1Zm1.87,5.58a4.41,4.41,0,0,0-.83,2.79v.22a4.42,4.42,0,0,0,.77,2.7,2.73,2.73,0,0,0,2.36,1.15,2.83,2.83,0,0,0,2.43-1.19,4.74,4.74,0,0,0,.76-2.81,4.58,4.58,0,0,0-.77-2.79,2.85,2.85,0,0,0-2.45-1.19A2.67,2.67,0,0,0,348.84,211.75Z"/><path class="cls-1" d="M364.41,211.21a6.49,6.49,0,0,1,1.06,3.73h-7.56a4.37,4.37,0,0,0,.92,2.68,2.93,2.93,0,0,0,2.3,1,3.12,3.12,0,0,0,2.05-.67,3.49,3.49,0,0,0,1-1.64h1.1A4.35,4.35,0,0,1,364,218.5a4.15,4.15,0,0,1-2.9,1,4,4,0,0,1-3.13-1.33,5.13,5.13,0,0,1-1.21-3.58,5.2,5.2,0,0,1,1.15-3.44,4.27,4.27,0,0,1,6.46,0Zm-5.51.4a4.09,4.09,0,0,0-1,2.45h6.41q-.27-3.4-3.22-3.4A2.78,2.78,0,0,0,358.9,211.6Z"/><path class="cls-1" d="M101.17,241.91V243a5,5,0,0,0-1.42-.2,2.3,2.3,0,0,0-2,1.12,4,4,0,0,0-.74,2.43v4.91H95.91V242H97v1.78a3.41,3.41,0,0,1,1-1.39,2.68,2.68,0,0,1,1.8-.65A3.69,3.69,0,0,1,101.17,241.91Z"/><path class="cls-1" d="M109.47,243.21a6.49,6.49,0,0,1,1.06,3.73H103a4.38,4.38,0,0,0,.92,2.68,2.93,2.93,0,0,0,2.3,1,3.12,3.12,0,0,0,2.05-.67,3.49,3.49,0,0,0,1-1.64h1.1a4.35,4.35,0,0,1-1.24,2.21,4.15,4.15,0,0,1-2.9,1,4,4,0,0,1-3.13-1.33,5.14,5.14,0,0,1-1.21-3.58,5.2,5.2,0,0,1,1.15-3.44,4.27,4.27,0,0,1,6.46,0Zm-5.51.4a4.09,4.09,0,0,0-1,2.45h6.41q-.27-3.4-3.22-3.4A2.78,2.78,0,0,0,104,243.6Z"/><path class="cls-1" d="M118.9,242.52a3.53,3.53,0,0,1,1.28,2.48H119.1a2.65,2.65,0,0,0-.94-1.76,3.12,3.12,0,0,0-2-.59,2.79,2.79,0,0,0-2.34,1.13,4.53,4.53,0,0,0-.85,2.9,4.57,4.57,0,0,0,.81,2.84,2.78,2.78,0,0,0,2.36,1.06,2.75,2.75,0,0,0,3-2.65h1.06a4.24,4.24,0,0,1-1.33,2.68,4,4,0,0,1-2.72.9,3.88,3.88,0,0,1-3.2-1.4,5.21,5.21,0,0,1-1.06-3.44,5.4,5.4,0,0,1,1.1-3.49,3.82,3.82,0,0,1,3.19-1.48A4.31,4.31,0,0,1,118.9,242.52Z"/><path class="cls-1" d="M129.3,243.19a5.76,5.76,0,0,1,0,6.86,4.41,4.41,0,0,1-6.59,0,5.22,5.22,0,0,1-1.13-3.42,5.15,5.15,0,0,1,1.15-3.44,4,4,0,0,1,3.28-1.48A4.09,4.09,0,0,1,129.3,243.19Zm-5.8.68a5,5,0,0,0,0,5.49,3.19,3.19,0,0,0,5,0,4.51,4.51,0,0,0,.83-2.74,4.45,4.45,0,0,0-.83-2.75,3.19,3.19,0,0,0-5,0Z"/><path class="cls-1" d="M139.51,243.84V242h1.08v8.62q0,4.5-4.18,4.5a4.47,4.47,0,0,1-2.83-.79,3.39,3.39,0,0,1-1.19-2.23h1.08a2.41,2.41,0,0,0,.86,1.55,3.25,3.25,0,0,0,2.07.58q3.1,0,3.1-3.47v-1.78a3.46,3.46,0,0,1-3.33,2.12,3.87,3.87,0,0,1-3.11-1.39,5.51,5.51,0,0,1,0-6.55,3.85,3.85,0,0,1,3.11-1.4A3.46,3.46,0,0,1,139.51,243.84Zm-5.6-.09a4,4,0,0,0-.83,2.65,4.14,4.14,0,0,0,.77,2.59,2.85,2.85,0,0,0,2.43,1.13A2.91,2.91,0,0,0,138.7,249a4.72,4.72,0,0,0,0-5.29,3.12,3.12,0,0,0-4.79,0Z"/><path class="cls-1" d="M150.42,245.55v5.72h-1.08v-5.65q0-3-2.65-3a2.45,2.45,0,0,0-1.87.81,3.29,3.29,0,0,0-.88,2.2v5.62h-1.08V242h1.08v1.53a3.77,3.77,0,0,1,1.26-1.31,3.28,3.28,0,0,1,1.76-.47Q150.42,241.71,150.42,245.55Z"/><path class="cls-1" d="M154.41,238.89a.76.76,0,0,1,.27.63.89.89,0,0,1-.29.65.94.94,0,0,1-.63.25.89.89,0,0,1-.92-.9.76.76,0,0,1,.27-.63.85.85,0,0,1,.65-.27A.88.88,0,0,1,154.41,238.89ZM153.23,242h1.08v9.31h-1.08Z"/><path class="cls-1" d="M156.61,242h7.22v.83l-6,7.54h6.3v.94h-7.69v-.85l6-7.52h-5.81Z"/><path class="cls-1" d="M172.77,243.21a6.49,6.49,0,0,1,1.06,3.73h-7.56a4.38,4.38,0,0,0,.92,2.68,2.93,2.93,0,0,0,2.3,1,3.12,3.12,0,0,0,2.05-.67,3.48,3.48,0,0,0,1-1.64h1.1a4.34,4.34,0,0,1-1.24,2.21,4.15,4.15,0,0,1-2.9,1,4,4,0,0,1-3.13-1.33,5.14,5.14,0,0,1-1.21-3.58,5.2,5.2,0,0,1,1.15-3.44,4.27,4.27,0,0,1,6.46,0Zm-5.51.4a4.09,4.09,0,0,0-1,2.45h6.41q-.27-3.4-3.22-3.4A2.78,2.78,0,0,0,167.27,243.6Z"/><path class="cls-1" d="M182.58,238.17h1.08v13.1h-1v-1.84a3.34,3.34,0,0,1-3.26,2.09,3.78,3.78,0,0,1-3.15-1.48,5.52,5.52,0,0,1-1-3.44,5.47,5.47,0,0,1,1-3.4,3.65,3.65,0,0,1,3.1-1.49,3.4,3.4,0,0,1,3.26,2.21Zm-5.51,5.65a4.48,4.48,0,0,0-.77,2.79,4.74,4.74,0,0,0,.76,2.81,2.8,2.8,0,0,0,2.43,1.19,2.76,2.76,0,0,0,2.36-1.15,4.52,4.52,0,0,0,.77-2.7v-.22a4.51,4.51,0,0,0-.83-2.79,2.7,2.7,0,0,0-2.27-1.12A2.85,2.85,0,0,0,177.08,243.82Z"/><path class="cls-1" d="M191.92,238.17H193v5.76a3.4,3.4,0,0,1,3.26-2.21,3.65,3.65,0,0,1,3.1,1.49,5.47,5.47,0,0,1,1,3.4,5.52,5.52,0,0,1-1,3.44,3.76,3.76,0,0,1-3.13,1.48,3.34,3.34,0,0,1-3.28-2.09v1.84h-1Zm1.87,5.58a4.41,4.41,0,0,0-.83,2.79v.22a4.41,4.41,0,0,0,.77,2.7,2.73,2.73,0,0,0,2.36,1.15,2.83,2.83,0,0,0,2.43-1.19,4.74,4.74,0,0,0,.76-2.81,4.58,4.58,0,0,0-.77-2.79,2.85,2.85,0,0,0-2.45-1.19A2.67,2.67,0,0,0,193.8,243.75Z"/><path class="cls-1" d="M201.25,242h1.19l3,7.76,3-7.76h1.19l-5.13,12.87h-1.17l1.57-3.8Z"/><path class="cls-1" d="M219.14,239v3h2.43v.94h-2.43v6.3a1.42,1.42,0,0,0,.22.88,1,1,0,0,0,.81.25h1.17v.94H220a1.92,1.92,0,0,1-1.55-.56,2.25,2.25,0,0,1-.41-1.51v-6.3h-2V242h2v-2.56Z"/><path class="cls-1" d="M223.21,238.17h1.1v5.49a3.59,3.59,0,0,1,1.29-1.46,3.31,3.31,0,0,1,1.76-.49,3.25,3.25,0,0,1,2.48.94,3.75,3.75,0,0,1,.9,2.68v5.94h-1.08v-5.8a3.07,3.07,0,0,0-.68-2.11,2.57,2.57,0,0,0-1.93-.72,2.51,2.51,0,0,0-2,.94,3.36,3.36,0,0,0-.79,2.3v5.38h-1.1Z"/><path class="cls-1" d="M240.09,243.21a6.49,6.49,0,0,1,1.06,3.73h-7.56a4.38,4.38,0,0,0,.92,2.68,2.93,2.93,0,0,0,2.3,1,3.12,3.12,0,0,0,2.05-.67,3.48,3.48,0,0,0,1-1.64H241a4.36,4.36,0,0,1-1.24,2.21,4.15,4.15,0,0,1-2.9,1,4,4,0,0,1-3.13-1.33,5.14,5.14,0,0,1-1.21-3.58,5.2,5.2,0,0,1,1.15-3.44,4.27,4.27,0,0,1,6.46,0Zm-5.51.4a4.09,4.09,0,0,0-1,2.45H240q-.27-3.4-3.22-3.4A2.79,2.79,0,0,0,234.58,243.6Z"/><path class="cls-1" d="M248.88,238.17H250v5.76a3.4,3.4,0,0,1,3.26-2.21,3.65,3.65,0,0,1,3.1,1.49,5.47,5.47,0,0,1,1,3.4,5.52,5.52,0,0,1-1,3.44,3.76,3.76,0,0,1-3.13,1.48,3.34,3.34,0,0,1-3.28-2.09v1.84h-1Zm1.87,5.58a4.41,4.41,0,0,0-.83,2.79v.22a4.41,4.41,0,0,0,.77,2.7,2.73,2.73,0,0,0,2.36,1.15,2.83,2.83,0,0,0,2.43-1.19,4.74,4.74,0,0,0,.76-2.81,4.58,4.58,0,0,0-.77-2.79,2.85,2.85,0,0,0-2.45-1.19A2.67,2.67,0,0,0,250.75,243.75Z"/><path class="cls-1" d="M259.59,238.17h1.08v13.1h-1.08Z"/><path class="cls-1" d="M270.64,243.19a5.75,5.75,0,0,1,0,6.86,4.41,4.41,0,0,1-6.59,0,5.22,5.22,0,0,1-1.13-3.42,5.15,5.15,0,0,1,1.15-3.44,4,4,0,0,1,3.28-1.48A4.09,4.09,0,0,1,270.64,243.19Zm-5.8.68a5,5,0,0,0,0,5.49,3.19,3.19,0,0,0,5,0,4.51,4.51,0,0,0,.83-2.74,4.44,4.44,0,0,0-.83-2.75,3.19,3.19,0,0,0-5,0Z"/><path class="cls-1" d="M280.32,242.52A3.53,3.53,0,0,1,281.6,245h-1.08a2.65,2.65,0,0,0-.94-1.76,3.12,3.12,0,0,0-2-.59,2.79,2.79,0,0,0-2.34,1.13,4.53,4.53,0,0,0-.85,2.9,4.57,4.57,0,0,0,.81,2.84,2.78,2.78,0,0,0,2.36,1.06,2.75,2.75,0,0,0,3-2.65h1.06a4.24,4.24,0,0,1-1.33,2.68,4,4,0,0,1-2.72.9,3.88,3.88,0,0,1-3.21-1.4,5.22,5.22,0,0,1-1.06-3.44,5.4,5.4,0,0,1,1.1-3.49,3.81,3.81,0,0,1,3.19-1.48A4.31,4.31,0,0,1,280.32,242.52Z"/><path class="cls-1" d="M283.36,238.17h1.08v8.5l5.17-4.7h1.48L287,245.65l4.5,5.62h-1.42l-3.85-4.91L284.44,248v3.29h-1.08Z"/><path class="cls-1" d="M299.28,242.52a3.53,3.53,0,0,1,1.28,2.48h-1.08a2.65,2.65,0,0,0-.94-1.76,3.11,3.11,0,0,0-2-.59,2.79,2.79,0,0,0-2.34,1.13,5.39,5.39,0,0,0,0,5.74,2.78,2.78,0,0,0,2.36,1.06,2.75,2.75,0,0,0,3-2.65h1.06a4.25,4.25,0,0,1-1.33,2.68,4,4,0,0,1-2.72.9,3.88,3.88,0,0,1-3.2-1.4,5.2,5.2,0,0,1-1.06-3.44,5.41,5.41,0,0,1,1.1-3.49,3.82,3.82,0,0,1,3.19-1.48A4.31,4.31,0,0,1,299.28,242.52Z"/><path class="cls-1" d="M302.32,238.17h1.1v5.49a3.59,3.59,0,0,1,1.29-1.46,3.31,3.31,0,0,1,1.76-.49,3.25,3.25,0,0,1,2.48.94,3.75,3.75,0,0,1,.9,2.68v5.94h-1.08v-5.8a3.07,3.07,0,0,0-.68-2.11,2.57,2.57,0,0,0-1.93-.72,2.51,2.51,0,0,0-2,.94,3.36,3.36,0,0,0-.79,2.3v5.38h-1.1Z"/><path class="cls-1" d="M319,242.77a3.59,3.59,0,0,1,.83,2.5v6h-1v-1.78a4.82,4.82,0,0,1-1.51,1.39,4.69,4.69,0,0,1-2.43.65,3.36,3.36,0,0,1-2.21-.7,2.4,2.4,0,0,1-.85-1.93,2.75,2.75,0,0,1,1.46-2.59,6.28,6.28,0,0,1,3.12-.67l2.38,0v-.34a2.36,2.36,0,0,0-2.7-2.65,3.2,3.2,0,0,0-1.94.52,2.21,2.21,0,0,0-1,1.62h-1.06a3.25,3.25,0,0,1,1.31-2.34,4.55,4.55,0,0,1,2.7-.72A3.66,3.66,0,0,1,319,242.77Zm-.25,3.73-2.32,0q-3.53,0-3.53,2.36a1.55,1.55,0,0,0,.59,1.26,2.39,2.39,0,0,0,1.58.49,3.87,3.87,0,0,0,2.59-1,2.75,2.75,0,0,0,1.08-2.07Z"/><path class="cls-1" d="M323.79,238.89a.76.76,0,0,1,.27.63.89.89,0,0,1-.29.65.94.94,0,0,1-.63.25.89.89,0,0,1-.92-.9.76.76,0,0,1,.27-.63.84.84,0,0,1,.65-.27A.88.88,0,0,1,323.79,238.89ZM322.6,242h1.08v9.31H322.6Z"/><path class="cls-1" d="M334.05,245.55v5.72H333v-5.65q0-3-2.65-3a2.45,2.45,0,0,0-1.87.81,3.29,3.29,0,0,0-.88,2.2v5.62h-1.08V242h1.08v1.53a3.77,3.77,0,0,1,1.26-1.31,3.28,3.28,0,0,1,1.76-.47Q334.05,241.71,334.05,245.55Z"/><path class="cls-1" d="M338.15,249.72a.81.81,0,0,1,.27.65.9.9,0,0,1-.29.65.94.94,0,0,1-.63.25.84.84,0,0,1-.65-.27.86.86,0,0,1-.27-.63.81.81,0,0,1,.27-.65.84.84,0,0,1,.65-.25A.88.88,0,0,1,338.15,249.72Z"/></svg>