<svg id="图层_1" data-name="图层 1" xmlns="http://www.w3.org/2000/svg" viewBox="0 0 441 276"><defs><style>.cls-1{fill:#33353c;}</style></defs><title>121212</title><path class="cls-1" d="M53.59,24.84a18.61,18.61,0,0,1-2.39,4.1l-.79-.56a16.07,16.07,0,0,0,2.36-4Zm4.14-12.26h1v1.89h7.09v.92H58.68V18h5.74v5.53H52.81V18h4.91Zm5.74,10V18.9H53.78v3.69Zm-7.07,2.34q.59,2,1,3.92l-1,.23a23.47,23.47,0,0,0-.92-4Zm3.78-.16a34.35,34.35,0,0,1,1.44,4l-1,.23A22.32,22.32,0,0,0,59.27,25ZM64,24.44a29.72,29.72,0,0,1,2.63,4l-.79.56a34,34,0,0,0-2.63-4.07Z"/><path class="cls-1" d="M70.63,16.74a18.37,18.37,0,0,1-1.78,1.82l-.5-.77a14.1,14.1,0,0,0,3.71-5.2l.9.23a13.59,13.59,0,0,1-.68,1.51h4.21a16.47,16.47,0,0,0-.77-1.64l1-.18q.4.86.74,1.82h5.94v.86H77.51v1.44h5.22v.79H77.51v1.4h5.22v.79H77.51v1.53h6.17V22H70.63ZM68.8,24.57v-.92h7.27V22.57h1v1.08H84.2v.92H78.44a12.78,12.78,0,0,0,6,3.11l-.41.86q-4.59-1.51-6.5-4H77v4.48h-1V24.57h-.49q-1.66,2.36-6.46,4.07l-.52-.85q4.46-1.4,6.07-3.22Zm7.76-7.94V15.19H71.77l-.22.34v1.1Zm0,2.2v-1.4h-5v1.4Zm0,2.32V19.62h-5v1.53Z"/><path class="cls-1" d="M98.26,28.91,98,28l1.78.05a.71.71,0,0,0,.79-.81V14.36H88.42V29h-1V13.41h14.11v14a1.3,1.3,0,0,1-1.46,1.49ZM94.12,25q-1-1.48-1.94-2.88a19.26,19.26,0,0,1-2.5,4.77L89,26.12a19,19,0,0,0,2.48-4.93q-1.46-1.94-2.65-3.26l.61-.61a31.07,31.07,0,0,1,2.36,2.84,35.71,35.71,0,0,0,1-4.43l.92.16a35.16,35.16,0,0,1-1.19,5.18q1,1.31,2.23,3.28Zm5.35.83q-1-1.6-2-3.29a19.45,19.45,0,0,1-2.7,4.79l-.61-.76a19,19,0,0,0,2.66-5,43.11,43.11,0,0,0-2.61-3.47l.63-.61a34,34,0,0,1,2.34,3,30.91,30.91,0,0,0,1.1-4.73l.92.16a35.43,35.43,0,0,1-1.35,5.54q1.15,1.75,2.3,3.67Z"/><path class="cls-1" d="M110.75,26.57a35.48,35.48,0,0,1-6,1.67l-.12-.94a32.43,32.43,0,0,0,6.16-1.67ZM108.63,13a28,28,0,0,1-2.84,5.74,26.86,26.86,0,0,0,2.75-.5l1-1.93.85.32a38.27,38.27,0,0,1-4,6.73,30,30,0,0,0,4.09-1.12v.88a29.64,29.64,0,0,1-5.24,1.31l-.27-.92a1.92,1.92,0,0,0,.45-.27,21.94,21.94,0,0,0,2.7-4.09q-1.87.38-3.2.56l-.23-.9a1.1,1.1,0,0,0,.41-.36,27.92,27.92,0,0,0,2.68-5.83Zm6-.23q-.25.79-.59,1.58h5V15a12.45,12.45,0,0,1-3,4.07,14.13,14.13,0,0,0,4.77,2.3l-.56.79a13.87,13.87,0,0,1-4.91-2.52,19.39,19.39,0,0,1-4.72,2.63l-.61-.79a18.62,18.62,0,0,0,4.61-2.47,11.52,11.52,0,0,1-2-2.5A15,15,0,0,1,111,18.32l-.58-.76a10,10,0,0,0,3.33-5Zm4.46,9.7v6.5h-.94v-.85h-5.35v.85h-.94v-6.5Zm-6.28,4.75h5.35V23.31h-5.35Zm.4-11.36a10.9,10.9,0,0,0,2.12,2.68,11.5,11.5,0,0,0,2.68-3.29h-4.43Z"/><path class="cls-1" d="M122.85,28.85l-.22-.94q1.08.07,1.55.07.68,0,.68-.58v-5q-1.1.45-2.27.81l-.25-1a20.31,20.31,0,0,0,2.52-.79V17.12h-2.3v-1h2.3V12.67h1v3.49h1.94v1h-1.94V21q.92-.43,1.71-.86v1l-1.71.83v5.65q0,1.21-1.31,1.21Zm5.15-8h10.24v.9h-4.61V24h3.91v.88h-3.91v2.66a19.53,19.53,0,0,0,2.74.18q1.06,0,2.32-.07l-.27,1-2,0A11.53,11.53,0,0,1,131.6,28a5.31,5.31,0,0,1-1.95-2.34A10.6,10.6,0,0,1,127.71,29l-.72-.65a9.55,9.55,0,0,0,2.34-5.72l.88.11a10.51,10.51,0,0,1-.27,1.85,5,5,0,0,0,2.12,2.59,6.38,6.38,0,0,0,.61.22V21.73H128Zm1.31-7.54H137v6.07h-7.71Zm1,2.66H136V14.11h-5.78ZM136,18.52V16.74h-5.78v1.78Z"/><path class="cls-1" d="M142.63,18.47a22.16,22.16,0,0,1-2.23,2.7l-.3-1a20.4,20.4,0,0,0,4.43-7.67l.9.43A24,24,0,0,1,143.6,17V29h-1Zm3.06-1.93h2.47V12.69h1v3.85h3.58V12.69h1v3.85h2.52v1h-2.52V22h3v1h-11.5V22h3v-4.5h-2.47Zm3.85,7.87a19,19,0,0,1-3.35,4.54l-.85-.59A18.48,18.48,0,0,0,148.66,24ZM149.13,22h3.58v-4.5h-3.58Zm3.8,1.85a35.72,35.72,0,0,1,3.53,4.48l-.86.61a31.08,31.08,0,0,0-3.46-4.59Z"/><path class="cls-1" d="M166.3,18.63a36.79,36.79,0,0,0,5.36-3.91H159.61v-.94H173v.94a45.12,45.12,0,0,1-5.74,4.39v8.33q0,1.44-1.51,1.44-1.26,0-2.84-.07l-.27-1q1.3.11,2.84.11.83,0,.83-.72Z"/><path class="cls-1" d="M176.44,20.18h16.11v1H176.44Z"/><path class="cls-1" d="M204.8,15.1a12.61,12.61,0,0,0,5.85,3.15l-.43.88a19.46,19.46,0,0,1-3.53-1.57v.59h-7.58v1.31h8.48v.83h-8.48v1.31h8.48v.81h-8.48v1.39h11.05v.88h-9.52a12.4,12.4,0,0,1-2.27,3.1q4.46-.25,8.48-.86-.56-.85-1.17-1.6l.85-.27a20.94,20.94,0,0,1,2.48,3.6l-.88.4q-.34-.63-.76-1.31a97.31,97.31,0,0,1-10.6,1l-.25-.85q1.37-.13,3-3.17h-4.7v-.88h3.38V17.87a20.15,20.15,0,0,1-3.31,1.37l-.47-.85a14.53,14.53,0,0,0,6-3.29H195v-.9h6.17a7.39,7.39,0,0,0,.9-1.6l.94.11a11.48,11.48,0,0,1-.76,1.49h7.63v.9Zm1.44,2.2a9.78,9.78,0,0,1-2.47-2.2h-2.12a11.1,11.1,0,0,1-2.48,2.2Z"/><path class="cls-1" d="M212.63,19.49h5.08q.68-1.22,1.64-3.06l1,.31-1.48,2.75h9.54v.94h-3.6a15.26,15.26,0,0,1-2.68,4.73q2.65,1.17,5.8,2.93l-.65.83a59.2,59.2,0,0,0-5.87-3,12.14,12.14,0,0,1-8.06,2.88l-.58-.92a12,12,0,0,0,7.65-2.38s0,0,0,0a49.92,49.92,0,0,0-5.17-1.94q1.06-1.66,1.89-3.1h-4.54Zm15.16-5v3.71h-1V15.41H214.16v2.74h-1V14.45h6.89a15.72,15.72,0,0,0-.86-1.8l1.08-.18a19,19,0,0,1,.85,2Zm-9.47,6q-1.22,2-1.66,2.66a40.43,40.43,0,0,1,4.52,1.67,12.11,12.11,0,0,0,2.57-4.34Z"/><path class="cls-1" d="M238.84,12.71a25.68,25.68,0,0,0,7.88,5.71l-.49.85a25.87,25.87,0,0,1-7.74-5.65,25.59,25.59,0,0,1-7.81,5.78l-.47-.86a26.4,26.4,0,0,0,7.94-5.81Zm-5.35,5.74h10v1H239v3.44h5.35v1H239V27.5h7v1H231v-1h7V23.8h-5.37v-1H238V19.4H233.5Z"/><path class="cls-1" d="M250.6,24.88a13.38,13.38,0,0,1,2,1.75,15.25,15.25,0,0,1,1.51,1.8l-.7.59a17.42,17.42,0,0,0-1.49-1.78A15.15,15.15,0,0,0,250,25.47Z"/><path class="cls-1" d="M268.47,18.63a22.08,22.08,0,0,1-1.93,2.65l-.31-1a21.57,21.57,0,0,0,3.82-7.6l.88.4a27.48,27.48,0,0,1-1.51,3.87V29h-1Zm3.26-5.17h10.71v.94h-5.18v1.8h4.32v6.73h-4.36a6.33,6.33,0,0,1-1.17,3.4,15.06,15.06,0,0,0,6.71,1.8l-.23.88a15.18,15.18,0,0,1-7.11-2,10.62,10.62,0,0,1-4.25,2l-.52-.79a10.21,10.21,0,0,0,4-1.75A12.47,12.47,0,0,1,272,24.16l.74-.5a11.33,11.33,0,0,0,2.46,2.18,5.76,5.76,0,0,0,1-2.9H272V16.2h4.32V14.4h-4.55Zm1.15,5.67h3.4V17h-3.4Zm3.4,3V20h-3.4V22.1Zm1-5.08v2.11h3.4V17Zm3.4,5.08V20h-3.4V22.1Z"/><path class="cls-1" d="M284.94,28.82l-.22-.92q.76.05,1.48.05a.61.61,0,0,0,.7-.68v-5q-1.13.48-2.32.86l-.25-1a26.3,26.3,0,0,0,2.57-.88V17h-2.36V16h2.36V12.65h1V16h2v1h-2v3.94a19.51,19.51,0,0,0,1.89-1v1q-.92.5-1.89,1v5.65a1.16,1.16,0,0,1-1.33,1.3Zm14.22-6.28h-3.62v1.91h4.09v.86h-4.09v2.34a21.19,21.19,0,0,0,2.34.13q1.26,0,2.81-.07l-.29,1-2.45,0a10.8,10.8,0,0,1-4.52-.63,5,5,0,0,1-1.82-2.14A8.37,8.37,0,0,1,289.89,29l-.77-.56a9.21,9.21,0,0,0,2.12-5.06l.92.14a12.88,12.88,0,0,1-.27,1.39,4.59,4.59,0,0,0,1.94,2.29,6.2,6.2,0,0,0,.79.25v-5H291v-.86h3.64V19.91h-4.19V19h4.19V17.26h-3.51v-.85h3.51V14.85h-4.28V14h4.28V12.62h.92V14h4.66v.88h-4.66v1.57h3.62V19h1.24v.86h-1.24Zm-3.62-5.27V19h2.72V17.26Zm2.72,2.65h-2.72v1.76h2.72Z"/><path class="cls-1" d="M304.6,24.88a13.38,13.38,0,0,1,2,1.75,15.25,15.25,0,0,1,1.51,1.8l-.7.59a17.42,17.42,0,0,0-1.49-1.78A15.15,15.15,0,0,0,304,25.47Z"/><path class="cls-1" d="M325.37,13A23.55,23.55,0,0,1,323.62,17V29.07h-1V18.49a21.8,21.8,0,0,1-2.2,2.68l-.31-1a20.42,20.42,0,0,0,4.32-7.54Zm1.75,7.24V27.2q1.13-.45,1.84-.79l.16.86q-1.39.58-3.15,1.17l-.25-.85a.59.59,0,0,0,.45-.58V14.92A50.47,50.47,0,0,0,335,13l.54.79a31.49,31.49,0,0,1-3.21.92q0,2.66.16,4.66h4v.92h-3.91a18.19,18.19,0,0,0,.31,2.25A13.06,13.06,0,0,0,334,26.3q.63,1.19,1,1.19t.79-3.15l.81.45q-.49,3.83-1.42,3.83t-1.69-1.44A14.3,14.3,0,0,1,332,22.84q-.23-1.22-.36-2.57Zm0-4.59v3.67h4.43q-.18-2.21-.18-4.45Q329,15.37,327.11,15.68Zm3,9.45a25.82,25.82,0,0,1,2.39,3.28l-.74.52a28.5,28.5,0,0,0-2.34-3.31Z"/><path class="cls-1" d="M353.18,18.43a21,21,0,0,1-2.86,6.12,10,10,0,0,0,1,1.78q1,1.35,1.6,1.35t1-2.9l.88.47q-.59,3.51-1.73,3.51t-2.39-1.62a7.84,7.84,0,0,1-1-1.73,12.6,12.6,0,0,1-4.59,3.53l-.56-.83a12.21,12.21,0,0,0,4.72-3.71,18.7,18.7,0,0,1-.7-2.2,33.46,33.46,0,0,1-.76-5.81h-6.52v3.28h4.41a35.53,35.53,0,0,1-.32,5.65,1.54,1.54,0,0,1-1.57,1.26q-.67,0-1.58-.05l-.31-.9q1.4.07,1.78.07.69-.05.85-.94a32.42,32.42,0,0,0,.18-4.16h-3.44v.83a13.49,13.49,0,0,1-2.05,7.6l-.74-.67a12.17,12.17,0,0,0,1.84-6.93v-6h7.43q-.05-1.4-.05-2.92h1q0,1.12.07,2.92h5.71v.92h-5.67a30.32,30.32,0,0,0,.72,5.58q.2.76.43,1.48a19.27,19.27,0,0,0,2.39-5.4Zm-2.43-5.81A16.3,16.3,0,0,1,353,14.67l-.65.63a17.22,17.22,0,0,0-2.25-2.09Z"/><path class="cls-1" d="M356.83,16H364V12.65h1V16h7.16v1H366a19,19,0,0,0,6.68,8l-.65.85A21,21,0,0,1,365.22,17H365v7.31h4v1h-4V29h-1v-3.8h-3.85v-1H364V17h-.25a18.55,18.55,0,0,1-7,9l-.56-.88A17.45,17.45,0,0,0,363,17h-6.16Z"/><path class="cls-1" d="M380.63,15.82v12.1h-.94v-1.1h-3.64v1.6h-.94V15.82h1.62a16.43,16.43,0,0,0,.81-3.22l1,.13a15.42,15.42,0,0,1-.86,3.1Zm-4.57,5h3.64v-4h-3.64Zm0,5.15h3.64V21.65h-3.64ZM390,15.84q0,8.66-.25,10.78a2.24,2.24,0,0,1-2.5,2.16l-1.76,0-.23-.9q1.08.05,1.89.05,1.46,0,1.67-1.6t.25-9.49h-5.31A15,15,0,0,1,381.89,20l-.58-.76A16,16,0,0,0,384,12.58l1,.11a22.41,22.41,0,0,1-.83,3.15Zm-6.26,4.05a30.63,30.63,0,0,1,3.13,4l-.77.56a28.19,28.19,0,0,0-3.15-4Z"/><path class="cls-1" d="M171.88,44.8h1v4.9h1.26v1h-4.48V52q0,.52,0,1.46h3.49V61h-1V54.45h-2.57A15.47,15.47,0,0,1,168,60.73l-.74-.63q1.33-2.52,1.37-8.06V45.16h1v4.54h2.25Zm4.18,6v2.38a16.9,16.9,0,0,1-1.69,7.74l-.68-.7a16,16,0,0,0,1.46-7V45.91a28.11,28.11,0,0,0,7.67-1.12l.47.86a29.54,29.54,0,0,1-7.22,1.08v3.15h6.73v.85a15.84,15.84,0,0,1-2.48,6.48,9.74,9.74,0,0,0,3.42,2.92l-.49.86a10.33,10.33,0,0,1-3.53-3A12.9,12.9,0,0,1,176,61l-.47-.85a12.41,12.41,0,0,0,3.62-3,17.59,17.59,0,0,1-2.37-6.41Zm1.6,0a16.81,16.81,0,0,0,2.09,5.58,14.21,14.21,0,0,0,2.11-5.58Z"/><path class="cls-1" d="M189.5,61h-1V51a19.23,19.23,0,0,1-2.88,5.58l-.43-1.08a16.68,16.68,0,0,0,3.29-6.34H185.6v-1h2.93V44.62h1v3.62H192v1h-2.5v1.13a38.35,38.35,0,0,1,2.83,3.1l-.58.85q-1.28-1.76-2.25-2.92Zm3.78-14.2h-.77v-1h8v.94a22.72,22.72,0,0,1-3.17,8.87,19,19,0,0,0,4.46,4.54l-.65.77a21.75,21.75,0,0,1-4.37-4.5A17.42,17.42,0,0,1,192,60.94l-.63-.77a18.1,18.1,0,0,0,4.82-4.61A18.6,18.6,0,0,1,193.28,46.76Zm.94,0a17.32,17.32,0,0,0,2.52,8,20.67,20.67,0,0,0,2.81-8Z"/><path class="cls-1" d="M208.24,45a23.31,23.31,0,0,1-1.66,3.83V61.07h-1V50.43a19.92,19.92,0,0,1-2.2,2.74l-.3-1a20.69,20.69,0,0,0,4.23-7.61Zm1.26.5h8.35v5.45h-3.69v2.23h5.27v1h-4.21a16,16,0,0,0,4.52,5l-.61.83a18.14,18.14,0,0,1-4.68-5.87h-.29V61h-1V54.12h-.31a15.87,15.87,0,0,1-4.77,5.9l-.54-.86a14.44,14.44,0,0,0,4.52-5h-4v-1h5.13V50.92H209.5Zm7.38,4.5V46.4h-6.41V50Z"/><path class="cls-1" d="M221.71,60.85l-.22-.94q1.15.07,1.67.07.77,0,.77-.83v-4.7q-1.24.45-2.41.76l-.25-1q1.48-.36,2.66-.77V49.12h-2.41v-1h2.41V44.67h1v3.49H227v1h-2.09v4q1.06-.41,2.18-1v1q-1.22.58-2.18,1v5.31a1.26,1.26,0,0,1-1.4,1.44Zm7.43-8.33A15.73,15.73,0,0,1,226.87,61l-.74-.67a14.2,14.2,0,0,0,2.05-7.87V46.9h4a15.81,15.81,0,0,0-.86-2.18l1-.18a19.24,19.24,0,0,1,.81,2.36h3.91v5.62Zm7-4.66h-7v3.71h7Z"/><path class="cls-1" d="M244.82,56.61a18.78,18.78,0,0,1-4.59,3.87l-.61-.81a17.64,17.64,0,0,0,4.5-3.69Zm0,4.36L244.6,60q1.29.07,1.87.07a.66.66,0,0,0,.76-.74V54.61l-5.74.31-.27-.86a3.58,3.58,0,0,0,.86-.18,25.39,25.39,0,0,0,5.47-3.33q-2,.15-5.42.34l-.22-.88a2.6,2.6,0,0,0,.68-.18,12.68,12.68,0,0,0,3.65-3q-2.59.15-5.18.14l-.29-.85a58.33,58.33,0,0,0,12.76-1.21l.49.83a39.9,39.9,0,0,1-6.53,1,17.06,17.06,0,0,1-3.82,3.35q2.48-.15,4.9-.32,1.24-1,2.59-2.21l.9.43a39,39,0,0,1-8.41,6q4.86-.27,8.33-.65-.77-1-1.51-1.87l.72-.47a33.41,33.41,0,0,1,3.38,4.48l-.77.54q-.54-.92-1.24-1.89-1.69.18-4.39.4v5.06A1.21,1.21,0,0,1,246.82,61Zm5.9-5.13a33.2,33.2,0,0,1,4.59,4l-.7.7a29.12,29.12,0,0,0-4.55-4.1Z"/><path class="cls-1" d="M261.63,45a28.28,28.28,0,0,1-2.88,5.76q1.49-.23,2.81-.56l1-1.91.87.32a38.41,38.41,0,0,1-4.2,6.73,22.14,22.14,0,0,0,4.14-1.4v.92A25.08,25.08,0,0,1,258,56.46l-.25-.94a1.88,1.88,0,0,0,.45-.27A23.67,23.67,0,0,0,261,51.13q-1.44.31-3.24.61l-.23-.92a1,1,0,0,0,.41-.38,29.28,29.28,0,0,0,2.75-5.83Zm1.75,13.1a26,26,0,0,1-5.62,2l-.13-1a25.77,25.77,0,0,0,5.74-2Zm3.19-4.88a14.06,14.06,0,0,1-.86,5A6.82,6.82,0,0,1,263.11,61l-.63-.77a6.11,6.11,0,0,0,2.34-2.47,12.3,12.3,0,0,0,.77-4.54Zm-2.75-1.76.22-.09a12.24,12.24,0,0,0,2.54-3.8h-3.29v-.92H268a12.8,12.8,0,0,0-.88-2l1-.18a17.48,17.48,0,0,1,.9,2.21h4.12v.92h-5.54a18.28,18.28,0,0,1-2.36,3.8q2.77-.22,5.58-.7-.61-.9-1.46-2l.74-.49A34.19,34.19,0,0,1,273,52.39l-.76.56q-.38-.68-.9-1.49Q268,52,264,52.32Zm6.71,9.25a1.24,1.24,0,0,1-1.39-1.42V53.06h.92v6q0,.65.49.7h1.28a.79.79,0,0,0,.85-.61,13.36,13.36,0,0,0,.16-2.52l.85.31a8.48,8.48,0,0,1-.34,3.11,1.72,1.72,0,0,1-1.46.59Z"/><path class="cls-1" d="M80.33,92.69l-3.26,0a12.51,12.51,0,0,1-2.83-.34A4,4,0,0,1,72.31,91c-.24-.31-.47-.47-.68-.47q-.74,0-2.32,2.5l-.74-.65q1.53-2.36,2.61-2.74V83.87H68.51v-.94h3.58v6.73a1.9,1.9,0,0,1,.58.5,4.58,4.58,0,0,0,1.51,1.19,8.45,8.45,0,0,0,2.48.38q1.84,0,3.53,0h2.48l1.93-.07-.23,1ZM69.62,77a22.64,22.64,0,0,1,3.19,2.79l-.68.68A20.69,20.69,0,0,0,69,77.61ZM77,78.71a23.25,23.25,0,0,1,2.12,1.35,16.24,16.24,0,0,0,3-1.91H73.78v-.83h9.65V78a19.29,19.29,0,0,1-3.65,2.52l.43.34h3.53V89q0,1.26-1.31,1.26H80.84l-.23-.86,1.53,0q.67,0,.67-.61V87.09H79.45v3.19h-.9V87.09H75.17v3.26h-.92V80.88h4.7a30,30,0,0,0-2.56-1.6Zm1.55,4.91V81.73H75.17v1.89Zm-3.38.83v1.82h3.38V84.45Zm7.63-.83V81.73H79.45v1.89Zm-3.35.83v1.82H82.8V84.45Z"/><path class="cls-1" d="M98.68,92.69l-3.35,0a13.32,13.32,0,0,1-3-.34,4.1,4.1,0,0,1-2-1.33,1,1,0,0,0-.74-.47q-.74,0-2.36,2.56l-.74-.67q1.55-2.39,2.66-2.77V83.87H86.49v-.94h3.64v6.73a1.89,1.89,0,0,1,.61.49,4.42,4.42,0,0,0,1.57,1.19,8.9,8.9,0,0,0,2.59.4q1.87,0,3.64,0l2.34,0,1.82-.07-.23,1ZM87.59,76.92A22.46,22.46,0,0,1,90.7,79.8l-.7.7a19.34,19.34,0,0,0-3.08-2.93Zm8,13.39-.2-1q1.66.07,2.38.07t.83-.76v-8h-6.7v-1h6.7v-3h1v3h2.7v1h-2.7v8.26q0,1.39-1.46,1.39Zm-2-7.83A27.61,27.61,0,0,1,96.21,86l-.83.58A26,26,0,0,0,92.77,83Z"/><path class="cls-1" d="M105,86.7h2.25V78.22h3.62a8.72,8.72,0,0,0,.56-1.75l1,.14a7.52,7.52,0,0,1-.59,1.6h5.38v8.1a11.15,11.15,0,0,0,2.3-3.53l.85.5a16.51,16.51,0,0,1-3.15,4.28v4A1.26,1.26,0,0,1,115.79,93H114l-.25-1,1.73.05q.79,0,.79-.72v-3a16.39,16.39,0,0,1-1.37,1,27.79,27.79,0,0,1-9.31,3.19l-.43-.88q7.06-1.28,10.19-3.67l.5-.41H105Zm11.27-5.63V79.12h-8v1.94Zm-8,.85v1.87h8V81.91Zm0,2.74V86.7h8V84.65Z"/><path class="cls-1" d="M127.46,76.94a24.18,24.18,0,0,1-1.85,4.23v11.9h-1V82.74a21.9,21.9,0,0,1-2.18,2.68l-.31-1a20.72,20.72,0,0,0,4.43-7.85Zm4.14.22a17.34,17.34,0,0,1-4.41,7.06l-.76-.67a15.68,15.68,0,0,0,4.25-6.75Zm-3.1,7.56v-1h7.78a46.15,46.15,0,0,1-.29,6.79q-.22,2.21-2.09,2.21-.54,0-1.89-.05l-.23-.94q1.55.07,2,.07,1.1,0,1.26-1.62a42.22,42.22,0,0,0,.25-5.49h-3.37a17.45,17.45,0,0,1-1.3,4.81,10.25,10.25,0,0,1-2.88,3.38l-.63-.79a9.17,9.17,0,0,0,2.63-3A15.12,15.12,0,0,0,131,84.72Zm5.72-8.14a13.53,13.53,0,0,0,4.54,6.59l-.67.77a14,14,0,0,1-4.72-6.88Z"/><path class="cls-1" d="M145.82,88.61a18.78,18.78,0,0,1-4.59,3.87l-.61-.81a17.64,17.64,0,0,0,4.5-3.69Zm0,4.36L145.6,92q1.29.07,1.87.07a.66.66,0,0,0,.76-.74V86.61l-5.74.31-.27-.86a3.58,3.58,0,0,0,.86-.18,25.39,25.39,0,0,0,5.47-3.33q-2,.15-5.42.34l-.22-.88a2.6,2.6,0,0,0,.68-.18,12.68,12.68,0,0,0,3.65-3q-2.59.15-5.18.14l-.29-.85a58.33,58.33,0,0,0,12.76-1.21l.49.83a39.9,39.9,0,0,1-6.53,1,17.06,17.06,0,0,1-3.82,3.35q2.48-.15,4.9-.32,1.24-1,2.59-2.21l.9.43a39,39,0,0,1-8.41,6q4.86-.27,8.33-.65-.77-1-1.51-1.87l.72-.47a33.41,33.41,0,0,1,3.38,4.48l-.77.54q-.54-.92-1.24-1.89-1.69.18-4.39.4v5.06A1.21,1.21,0,0,1,147.82,93Zm5.9-5.13a33.2,33.2,0,0,1,4.59,4l-.7.7a29.12,29.12,0,0,0-4.55-4.1Z"/><path class="cls-1" d="M162.63,77a28.28,28.28,0,0,1-2.88,5.76q1.49-.23,2.81-.56l1-1.91.87.32a38.41,38.41,0,0,1-4.2,6.73,22.14,22.14,0,0,0,4.14-1.4v.92A25.08,25.08,0,0,1,159,88.46l-.25-.94a1.88,1.88,0,0,0,.45-.27A23.67,23.67,0,0,0,162,83.13q-1.44.31-3.24.61l-.23-.92a1,1,0,0,0,.41-.38,29.28,29.28,0,0,0,2.75-5.83Zm1.75,13.1a26,26,0,0,1-5.62,2l-.13-1a25.77,25.77,0,0,0,5.74-2Zm3.19-4.88a14.06,14.06,0,0,1-.86,5A6.82,6.82,0,0,1,164.11,93l-.63-.77a6.11,6.11,0,0,0,2.34-2.47,12.3,12.3,0,0,0,.77-4.54Zm-2.75-1.76.22-.09a12.24,12.24,0,0,0,2.54-3.8h-3.29v-.92H169a12.8,12.8,0,0,0-.88-2l1-.18a17.48,17.48,0,0,1,.9,2.21h4.12v.92h-5.54a18.28,18.28,0,0,1-2.36,3.8q2.77-.22,5.58-.7-.61-.9-1.46-2l.74-.49A34.19,34.19,0,0,1,174,84.39l-.76.56q-.38-.68-.9-1.49Q169,84,165,84.32Zm6.71,9.25a1.24,1.24,0,0,1-1.39-1.42V85.06h.92v6q0,.65.49.7h1.28a.79.79,0,0,0,.85-.61,13.36,13.36,0,0,0,.16-2.52l.85.31a8.48,8.48,0,0,1-.34,3.11,1.72,1.72,0,0,1-1.46.59Z"/><path class="cls-1" d="M192.62,91.63l-.18.94h-5.36q-4.79,0-6.86-1.42a4.71,4.71,0,0,1-.74-.68,10.63,10.63,0,0,1-2.23,2.36l-.63-.81a8.36,8.36,0,0,0,2.23-2.32,12.68,12.68,0,0,1-1.75-3.92l.81-.31a15.26,15.26,0,0,0,1.4,3.4,12.68,12.68,0,0,0,1.19-5h-3.37v-.76a41.38,41.38,0,0,0,3-4.57H177v-.94h4.27v.81A42.64,42.64,0,0,1,178.42,83h3v.61a13.35,13.35,0,0,1-1.49,6.1,4.33,4.33,0,0,0,1,.88,12.38,12.38,0,0,0,5.67,1.1Q188.51,91.7,192.62,91.63Zm-1.53-7.78h-3.85v1.66h4.34v.85h-4.34v1.78h4.84V89h-4.84v2h-1V89h-4.2v-.85h4.2V86.36h-3.65v-.85h3.65V83.85H183V83h3.28V81.32h-4.16v-.83h4.16V78.8H183V78h3.28V76.58h1V78h3.85v2.54h1.31v.83h-1.31Zm-3.85-5.06v1.69h2.92V78.8Zm0,2.52V83h2.92V81.32Z"/><path class="cls-1" d="M194.42,91h9a47.5,47.5,0,0,0,2.93-9.16l1,.27A47.18,47.18,0,0,1,204.52,91h6.12v1H194.42ZM195,79.62h7.09a28.08,28.08,0,0,0-.94-2.86l1.1-.18q.5,1.44.9,3H210v1H195Zm3.64,2.27A67.22,67.22,0,0,1,200.79,90l-1,.27a66.57,66.57,0,0,0-2.12-8Z"/><path class="cls-1" d="M226.44,78.83V93h-1V91.79h-9.94V93h-1V78.83h3.8a8.65,8.65,0,0,0,1-2.29l1,.14a8.71,8.71,0,0,1-.92,2.14Zm-10.91,3.92h9.94v-3h-9.94Zm0,3.94h9.94v-3h-9.94Zm0,4.16h9.94V87.63h-9.94Z"/><path class="cls-1" d="M246.42,87.85a10.74,10.74,0,0,1-.68,3.74,1.93,1.93,0,0,1-1.84.85H234q-1.85,0-1.85-1.71V83.64h11.21v-5H231.1v-.94h13.27v6.93H233.15v5.83q0,1.06,1.22,1.08h9.34a1.3,1.3,0,0,0,1.35-.81,12.92,12.92,0,0,0,.4-3.15Z"/><path class="cls-1" d="M254.63,79.82v12.1h-.94v-1.1h-3.64v1.6h-.94V79.82h1.62a16.43,16.43,0,0,0,.81-3.22l1,.13a15.42,15.42,0,0,1-.86,3.1Zm-4.57,5h3.64v-4h-3.64Zm0,5.15h3.64V85.65h-3.64ZM264,79.84q0,8.66-.25,10.78a2.24,2.24,0,0,1-2.5,2.16l-1.76,0-.23-.9q1.08.05,1.89.05,1.46,0,1.67-1.6t.25-9.49h-5.31A15,15,0,0,1,255.89,84l-.58-.76A16,16,0,0,0,258,76.58l1,.11a22.41,22.41,0,0,1-.83,3.15Zm-6.26,4.05a30.63,30.63,0,0,1,3.13,4l-.77.56a28.19,28.19,0,0,0-3.15-4Z"/><path class="cls-1" d="M268.07,90v1.66h-.94V78.18h4.36v13h-.92V90Zm2.5-.94v-9.9h-2.5V89Zm4,3v.86h-1V82.2A22.83,22.83,0,0,1,272,84.74l-.32-1a21.16,21.16,0,0,0,3.11-7.18l1,.18a25.55,25.55,0,0,1-1,3.1h7.58v.94h-3.24v2.77H282v.92h-2.84V87.2H282v.92h-2.84v3h3.56v.94Zm3.56-11.32h-3.56v2.77h3.56Zm-3.56,3.69V87.2h3.56V84.43Zm0,3.69v3h3.56v-3Zm3.71-11.56a25.91,25.91,0,0,1,1,2.83l-.83.31a25.55,25.55,0,0,0-1.1-2.88Z"/><path class="cls-1" d="M284.44,84.18h16.11v1H284.44Z"/><path class="cls-1" d="M305.87,85l.94.11-.43,1.12h3.85V87a7.57,7.57,0,0,1-2.16,3.24,25.36,25.36,0,0,1,2.7,1.33l-.54.77a28.67,28.67,0,0,0-2.93-1.48A14.47,14.47,0,0,1,302.78,93l-.49-.83a14.22,14.22,0,0,0,4-1.71q-1.15-.5-2.61-1,.76-1.22,1.3-2.32h-2.29v-.88h2.7Zm-3.11-4.82h3.56V76.64h.92v3.51h3.4V81h-3.4v.22a34.21,34.21,0,0,1,3.1,1.91l-.52.77q-1.48-1.21-2.57-1.94v2.59h-.92V81h-.05a8.19,8.19,0,0,1-3.33,3.78l-.5-.81a7.21,7.21,0,0,0,3.1-3h-2.77Zm1.19-3.1a13,13,0,0,1,1.17,2.25l-.77.34a17.23,17.23,0,0,0-1.22-2.32Zm5.35,10H306A16.2,16.2,0,0,1,304.9,89a23.43,23.43,0,0,1,2.21.86A7.79,7.79,0,0,0,309.29,87.08Zm1.12-9.81a11.49,11.49,0,0,1-1.4,2.39l-.74-.38a13.19,13.19,0,0,0,1.33-2.39ZM312.48,83a17.55,17.55,0,0,1-1.19,2.57l-.61-.76a23.35,23.35,0,0,0,2.23-8.28l1,.18q-.18,1.4-.43,2.74h4.9v1h-1.28a19.35,19.35,0,0,1-1.64,7.88,11.37,11.37,0,0,0,3.44,3.85l-.56.83a11.91,11.91,0,0,1-3.37-3.78A12.13,12.13,0,0,1,311.51,93l-.54-.83a11.11,11.11,0,0,0,3.44-3.94A24.07,24.07,0,0,1,312.48,83Zm.76-2.59q-.18.72-.29,1.06a25.4,25.4,0,0,0,1.93,5.78,18.77,18.77,0,0,0,1.26-6.84Z"/><path class="cls-1" d="M323.69,81.69h9.56v.9a35.61,35.61,0,0,1-4,2.47v1.48h7.22v.94H329.2v4.14A1.21,1.21,0,0,1,327.82,93h-2.2l-.25-.92,2.11,0a.69.69,0,0,0,.77-.79V87.47H320.6v-.94h7.65V84.63a38.21,38.21,0,0,0,3.56-2h-8.12Zm12.37-3.13v3.85h-1V79.5H321.93v2.92h-1V78.56h7.24a10.2,10.2,0,0,0-.81-1.89l1.08-.18a19.07,19.07,0,0,1,.79,2.07Z"/><path class="cls-1" d="M346.81,81.14a27.58,27.58,0,0,0,7.81,4l-.47.85a25.71,25.71,0,0,1-7.65-4,27.27,27.27,0,0,1-7.65,4l-.47-.86a28,28,0,0,0,7.81-3.94Zm-5.87-2a13.86,13.86,0,0,1-1.62,2.54l-.83-.52A13.38,13.38,0,0,0,341,76.55l1,.2q-.36,1-.56,1.49h5v.9h-2.84a15,15,0,0,1,.77,2l-.88.32a21.26,21.26,0,0,0-.86-2.29Zm10.91,8A20.59,20.59,0,0,1,350,91.45h4.1v.92H339v-.92h9.94a21.82,21.82,0,0,0,2-4.55Zm-9.9,0a21.4,21.4,0,0,1,1.44,3.44l-.88.22a19.86,19.86,0,0,0-1.44-3.37Zm-.07-2h9.27V86h-9.27Zm4.23,1.64a25.09,25.09,0,0,1,1.15,3.69l-.88.22a30.63,30.63,0,0,0-1.17-3.62Zm2.43-7.63A13.67,13.67,0,0,1,347.45,81l-.81-.54a12.18,12.18,0,0,0,1.87-3.89l.94.2q-.22.7-.52,1.49h5.44v.9h-3.1a16,16,0,0,1,1,2.11l-.9.34a19.8,19.8,0,0,0-1.15-2.45Z"/><path class="cls-1" d="M361.71,91.85V93h-1V86.48q-1.92.65-3.8,1.1l-.49-.92a31.09,31.09,0,0,0,7.94-2.72A22.64,22.64,0,0,0,361,81.62l.85-.52a23.35,23.35,0,0,1,3.38,2.38,11.68,11.68,0,0,0,4.32-4.18h-7a17.51,17.51,0,0,1-4.72,3.08l-.63-.85q4.63-2,6.28-5l1,.13a10.62,10.62,0,0,1-1.1,1.66h7.25v.88q-2.11,3.92-7.52,6.32h8V93h-1V91.85Zm8.41-1V86.48h-8.41v4.41Z"/><path class="cls-1" d="M113.87,110.58h5a18.42,18.42,0,0,0,.67-2l1,.11q-.2.74-.61,1.91h9.36v1h-9.74a20.14,20.14,0,0,1-2.45,4.28v9.25h-1v-8a24.52,24.52,0,0,1-2.29,2.3l-.59-.79a20.16,20.16,0,0,0,5.24-7h-4.64Zm4.79,8.3H124v-1.82a19,19,0,0,0,3.1-2.18h-7V114h8.3v.92a24.57,24.57,0,0,1-3.38,2.59v1.4h4.63v1H125v3.74a1.25,1.25,0,0,1-1.42,1.4H121.3l-.25-.92,2.12,0a.73.73,0,0,0,.83-.83v-3.44h-5.35Z"/><path class="cls-1" d="M133.07,114.49a20.75,20.75,0,0,1-1.57,2.38l-.31-1a22.08,22.08,0,0,0,3.17-7.25l.88.41a25.94,25.94,0,0,1-1.24,3.6V125h-.94Zm1.8-.22H138v8q.74-.76,1.66-1.85l.25,1a22.43,22.43,0,0,1-2.81,2.93l-.38-.88a.94.94,0,0,0,.32-.65v-7.54h-2.16Zm1.57-4.86a22.8,22.8,0,0,1,2.7,2.65l-.74.74a17.37,17.37,0,0,0-2.63-2.74Zm3.76,1.4h2.25v-2.18h.92v2.18h2.12v.85h-2.12v2.61h.68a19.25,19.25,0,0,0,2.56-4.68l.81.45a21.67,21.67,0,0,1-2.25,4.23h2.36v.9h-3a14.31,14.31,0,0,1-1.82,1.91h3.89V125h-.94v-.79h-3.69V125H141v-6.66a13.7,13.7,0,0,1-1.53.85l-.5-.77a12.69,12.69,0,0,0,4.34-3.22h-3.58v-.9h2.72v-2.61H140.2Zm5.44,9.38V118h-3.69v2.23Zm-3.69.86v2.27h3.69v-2.27Z"/><path class="cls-1" d="M152.23,117.38a25.54,25.54,0,0,1-2.43,2.3l-.63-.79a21.31,21.31,0,0,0,5.53-6.77h-4.9v-1h5.35q.52-1.24,1-2.66l1,.11a22.09,22.09,0,0,1-.9,2.56h9.23v1h-9.67a22.68,22.68,0,0,1-2.57,4.1v8.84h-1Zm2.77-.29h4.28v-3.47h1v3.47h4.37v1h-4.37v5.38h5.22v1H154.21v-1h5.08v-5.38H155Z"/><path class="cls-1" d="M178.51,118.3a51.71,51.71,0,0,1,4.23,6.26l-.83.58q-.38-.74-1-1.67-5.9.65-12,1.06l-.16-.83q2.36-1.28,4.88-6.44h-6.16v-1H175v-3.71h-6.35v-1H175v-3h1v3h6.32v1H176v3.71h7.45v1h-8.66a20.69,20.69,0,0,1-4.19,6.32q7.27-.58,9.85-.92-1.15-1.8-2.7-3.85Z"/><path class="cls-1" d="M193,108.53h1v3.33h6.52v8.28h-1v-1.21H194v6.23h-1v-6.23h-5.51v1.21h-1v-8.28H193ZM187.49,118H193v-5.15h-5.51Zm6.52,0h5.53v-5.15H194Z"/><path class="cls-1" d="M206.35,114.58a33.83,33.83,0,0,1-2.21,7.78l-.85-.54a31.79,31.79,0,0,0,2.11-7.43Zm3.37,9.86q-1.71,0-1.71-1.62V112.38h1V122.6q0,.86,1,.86h3.56a1.11,1.11,0,0,0,1-.52,12.07,12.07,0,0,0,.52-4l.92.31q-.16,3.58-.74,4.46a1.77,1.77,0,0,1-1.55.68Zm.34-15.7a37.82,37.82,0,0,1,4,4.48l-.83.56a33,33,0,0,0-3.94-4.54Zm6.55,5a51.85,51.85,0,0,1,3.2,7.33l-.9.4a46.41,46.41,0,0,0-3.26-7.4Z"/><path class="cls-1" d="M227.77,109a20.46,20.46,0,0,1-2.39,4.18v11.92h-1V114.36a25.6,25.6,0,0,1-2.84,2.74l-.31-1a19.58,19.58,0,0,0,5.6-7.52Zm3.82,15.75a1.51,1.51,0,0,1-1.73-1.69V117.2q-1.32.76-2.56,1.35l-.47-.94a27.55,27.55,0,0,0,3-1.55v-7.38h1v6.77A25.14,25.14,0,0,0,236,111l.67.76a26.65,26.65,0,0,1-5.87,4.9v6.28q0,.9,1,.9h3.06a1.34,1.34,0,0,0,1.12-.45,9,9,0,0,0,.45-3.31l.9.29a9.9,9.9,0,0,1-.61,3.78,2,2,0,0,1-1.69.63Z"/><path class="cls-1" d="M247.86,108.58a15.12,15.12,0,0,1,.88,1.76h6.68v.94H242v4.25a21.73,21.73,0,0,1-1.91,9.41l-.74-.67a20.12,20.12,0,0,0,1.67-8.75v-5.18h6.73a11.06,11.06,0,0,0-.9-1.58Zm-2.79,9.58v5.29a21.38,21.38,0,0,0,2.18-.67l.18.92q-1.44.43-3.55.94l-.2-.86c.29-.07.43-.22.43-.43v-9.72a74.11,74.11,0,0,0,9.67-1.15l.49.81q-1.87.36-4.19.67.16,1.78.41,3.28H255v.94h-4.3q.22,1.08.43,1.85a9.25,9.25,0,0,0,1.33,2.83q.74.94,1.28.94t1-2.59l.79.52q-.74,3.1-1.67,3.1a2.48,2.48,0,0,1-1.75-1.06,10.41,10.41,0,0,1-1.69-3.11,18.68,18.68,0,0,1-.63-2.47Zm0-3.73v2.79h4.48q-.23-1.39-.43-3.17Q247.16,114.27,245.07,114.43Zm3.24,6.79a24.9,24.9,0,0,1,2.09,3l-.76.56a21.9,21.9,0,0,0-2.05-3Z"/><path class="cls-1" d="M260.33,113.62v1.62a20.23,20.23,0,0,1-2.23,9.67l-.72-.63a18.64,18.64,0,0,0,2-9v-5.81h12.83v4.19Zm10.91-3.28H260.33v2.36h10.91Zm-10.12,8.19h12.1v.9h-6.95a19.85,19.85,0,0,1-3.13,4.12q3.92-.27,7.63-.83-.81-1-1.76-2l.74-.45a34.59,34.59,0,0,1,3.47,4.19l-.77.56q-.5-.76-1-1.48-4.61.63-9.47.94l-.23-.86.2-.07q1.26-.76,3.35-4.09h-4.12Zm1.24-2.93h9.7v.86h-9.7Z"/><path class="cls-1" d="M287.26,124.91l-.25-1,1.78.05a.71.71,0,0,0,.79-.81V110.36H277.42V125h-1V109.41h14.11v14a1.3,1.3,0,0,1-1.46,1.49ZM283.12,121q-1-1.48-1.94-2.88a19.26,19.26,0,0,1-2.5,4.77l-.63-.76a19,19,0,0,0,2.48-4.93q-1.46-1.94-2.65-3.26l.61-.61a31.07,31.07,0,0,1,2.36,2.84,35.71,35.71,0,0,0,1-4.43l.92.16a35.16,35.16,0,0,1-1.19,5.18q1,1.31,2.23,3.28Zm5.35.83q-1-1.6-2-3.29a19.45,19.45,0,0,1-2.7,4.79l-.61-.76a19,19,0,0,0,2.66-5,43.11,43.11,0,0,0-2.61-3.47l.63-.61a34,34,0,0,1,2.34,3,30.91,30.91,0,0,0,1.1-4.73l.92.16a35.43,35.43,0,0,1-1.35,5.54q1.15,1.75,2.3,3.67Z"/><path class="cls-1" d="M299.75,122.57a35.48,35.48,0,0,1-6,1.67l-.12-.94a32.43,32.43,0,0,0,6.16-1.67ZM297.63,109a28,28,0,0,1-2.84,5.74,26.86,26.86,0,0,0,2.75-.5l1-1.93.85.32a38.27,38.27,0,0,1-4,6.73,30,30,0,0,0,4.09-1.12v.88a29.64,29.64,0,0,1-5.24,1.31l-.27-.92a1.92,1.92,0,0,0,.45-.27,21.94,21.94,0,0,0,2.7-4.09q-1.87.38-3.2.56l-.23-.9a1.1,1.1,0,0,0,.41-.36,27.92,27.92,0,0,0,2.68-5.83Zm6-.23q-.25.79-.59,1.58h5V111a12.45,12.45,0,0,1-3,4.07,14.13,14.13,0,0,0,4.77,2.3l-.56.79a13.87,13.87,0,0,1-4.91-2.52,19.39,19.39,0,0,1-4.72,2.63l-.61-.79a18.62,18.62,0,0,0,4.61-2.47,11.52,11.52,0,0,1-2-2.5,15,15,0,0,1-1.73,1.76l-.58-.76a10,10,0,0,0,3.33-5Zm4.46,9.7v6.5h-.94v-.85h-5.35v.85h-.94v-6.5Zm-6.28,4.75h5.35v-3.87h-5.35Zm.4-11.36a10.9,10.9,0,0,0,2.12,2.68,11.5,11.5,0,0,0,2.68-3.29h-4.43Z"/><path class="cls-1" d="M319,108.53h1v3.33h6.52v8.28h-1v-1.21H320v6.23h-1v-6.23h-5.51v1.21h-1v-8.28H319ZM313.49,118H319v-5.15h-5.51Zm6.52,0h5.53v-5.15H320Z"/><path class="cls-1" d="M32.22,146.56a23.53,23.53,0,0,1-2.14,2.75l-.31-1a21.61,21.61,0,0,0,4.18-7.76l.92.43a24.29,24.29,0,0,1-1.66,3.94v12.19h-1Zm3.1-4h4.91v-1.94h1v1.94h5.06v.92H41.18v1.93h4.3v4.91H41.11a10,10,0,0,1-1,4,14.22,14.22,0,0,0,6.52,1.85l-.25.92a14.94,14.94,0,0,1-6.8-2A7.54,7.54,0,0,1,35,157.11l-.43-.9a6.75,6.75,0,0,0,4.21-1.71,14.25,14.25,0,0,1-3-2.86l.77-.52a12.27,12.27,0,0,0,2.77,2.65,8.4,8.4,0,0,0,.86-3.44H36v-4.91h4.21v-1.93H35.32Zm4.9,6.88,0-3.13H36.94v3.13Zm4.34,0v-3.13H41.18v2.79l0,.34Z"/><path class="cls-1" d="M53,141a14,14,0,0,1-4.79,5.09l-.31-1a12.35,12.35,0,0,0,4.27-4.54Zm-2.5,8.21a16.62,16.62,0,0,1-2.27,1.89l-.29-.92a13.44,13.44,0,0,0,4.32-5l.85.4a13.91,13.91,0,0,1-1.66,2.57V157h-1Zm3.1-.88H64v.88h-2.3V151h2.68v.88H61.67v3.71q0,1.33-1.4,1.33h-2l-.2-.92q1.3.07,1.87.07.79,0,.79-.72v-3.47H53V151h7.7v-1.8H53.62Zm.88-7h8.32v5.56H54.51Zm.83,11.3a20.42,20.42,0,0,1,2.45,2.68l-.76.5a20.24,20.24,0,0,0-2.41-2.66Zm.11-8.93h6.44v-1.57H55.44ZM61.88,146v-1.58H55.44V146Z"/><path class="cls-1" d="M70.56,140.8h1v4.9h1.26v1H68.31V148q0,.52,0,1.46h3.49V157h-1v-6.55H68.22a15.47,15.47,0,0,1-1.49,6.28L66,156.1q1.33-2.52,1.37-8.06v-6.88h1v4.54h2.25Zm4.18,6v2.38A16.88,16.88,0,0,1,73,156.93l-.68-.7a16,16,0,0,0,1.46-7v-7.27a28.11,28.11,0,0,0,7.67-1.12l.47.86a29.52,29.52,0,0,1-7.22,1.08v3.15h6.73v.85A15.85,15.85,0,0,1,79,153.22a9.73,9.73,0,0,0,3.42,2.92l-.49.86a10.34,10.34,0,0,1-3.53-3,12.91,12.91,0,0,1-3.71,3l-.47-.85a12.41,12.41,0,0,0,3.62-3,17.59,17.59,0,0,1-2.38-6.41Zm1.6,0a16.77,16.77,0,0,0,2.09,5.58,14.21,14.21,0,0,0,2.11-5.58Z"/><path class="cls-1" d="M88.18,157h-1V147a19.23,19.23,0,0,1-2.88,5.58l-.43-1.08a16.69,16.69,0,0,0,3.29-6.34H84.28v-1h2.93v-3.62h1v3.62h2.5v1h-2.5v1.13a38.72,38.72,0,0,1,2.83,3.1l-.58.85q-1.28-1.76-2.25-2.92ZM92,142.76h-.77v-1h8v.94A22.73,22.73,0,0,1,96,151.62a19,19,0,0,0,4.46,4.54l-.65.77a21.76,21.76,0,0,1-4.37-4.5,17.4,17.4,0,0,1-4.79,4.52l-.63-.77a18.07,18.07,0,0,0,4.82-4.61A18.61,18.61,0,0,1,92,142.76Zm.94,0a17.29,17.29,0,0,0,2.52,8,20.65,20.65,0,0,0,2.81-8Z"/><path class="cls-1" d="M107,141a14,14,0,0,1-4.79,5.09l-.31-1a12.35,12.35,0,0,0,4.27-4.54Zm-2.5,8.21a16.62,16.62,0,0,1-2.27,1.89l-.29-.92a13.44,13.44,0,0,0,4.32-5l.85.4a13.91,13.91,0,0,1-1.66,2.57V157h-1Zm3.1-.88H118v.88h-2.3V151h2.68v.88h-2.68v3.71q0,1.33-1.4,1.33h-2l-.2-.92q1.3.07,1.87.07.79,0,.79-.72v-3.47H107V151h7.7v-1.8h-7.09Zm.88-7h8.32v5.56h-8.32Zm.83,11.3a20.42,20.42,0,0,1,2.45,2.68l-.76.5a20.24,20.24,0,0,0-2.41-2.66Zm.11-8.93h6.44v-1.57h-6.44Zm6.44,2.36v-1.58h-6.44V146Z"/><path class="cls-1" d="M129.31,155.31q-4.25.88-8.93,1.44l-.23-.94q1.84-.18,4.28-.56v-3.76H120.8v-.94h3.64V148.3h1v2.25h3.42v.94h-3.42v3.6q2.05-.34,3.91-.76Zm-8.95-13.81h8.87v.94h-4.72a18.57,18.57,0,0,1-2.7,4.43q2.92-.29,5.74-.74-.58-1-1.49-2.23l.76-.47a34.27,34.27,0,0,1,2.79,4.34l-.79.56q-.38-.74-.81-1.46-3.44.59-7.58,1l-.22-.88.38-.09a14.66,14.66,0,0,0,2.92-4.43h-3.15Zm10.49.79h1v11.2h-1Zm.56,14.56-.22-.94q1.73.07,2.5.07a.77.77,0,0,0,.86-.88V140.67h1v14.69a1.33,1.33,0,0,1-1.51,1.49Z"/><path class="cls-1" d="M139.45,141.37h14.17v.94H140.4v13h13.72v.94H139.45Zm3.47,2.93q2.41,1.8,4.77,3.91a20.93,20.93,0,0,0,2.83-4.77l.88.47a21.73,21.73,0,0,1-3,5,55.67,55.67,0,0,1,4,4.05l-.74.74a48.74,48.74,0,0,0-3.92-4,16,16,0,0,1-5.63,4l-.56-.88a15.17,15.17,0,0,0,5.45-3.83q-2.41-2.12-4.84-4Z"/><path class="cls-1" d="M156.1,145.5h2.21v-4.77h1v4.77h2.11v1h-2.11v6.35q1.48-.56,2.54-1.06v1a32.23,32.23,0,0,1-5.74,2.09l-.25-1q1.39-.32,2.48-.67v-6.7H156.1Zm6.16-2h3.4v-2.84h1v2.84h3.92v5.22h1.67v1H166.9a14,14,0,0,0,5.46,6.55l-.65.76a15.18,15.18,0,0,1-5.53-6.88,10.15,10.15,0,0,1-4.82,6.95l-.59-.79a9.09,9.09,0,0,0,4.57-6.59h-3.82v-1h4a18.32,18.32,0,0,0,.16-2.48v-1.82h-3.4Zm4.36.92V146a21.28,21.28,0,0,1-.18,2.68h3.13v-4.3Z"/><path class="cls-1" d="M176.9,140.85q-.27,1.26-.47,1.93h2.93v.94h-3.2a20.64,20.64,0,0,1-1.46,3.47l-.76-.49a22.58,22.58,0,0,0,2-6Zm-1.46,5.49H179v.88h-1.57v2.57h2.09v.92h-2.09v4.63a10.25,10.25,0,0,0,1.75-1.12l.18.88a11.67,11.67,0,0,1-2.88,1.49l-.38-.81a.55.55,0,0,0,.38-.54v-4.54h-2.11v-.92h2.11v-2.57h-1Zm14.94,9.43-.25,1h-2.48l-1.64,0a7.31,7.31,0,0,1-2.16-.34,3.48,3.48,0,0,1-1.58-1.1c-.23-.26-.43-.4-.59-.4q-.51,0-1.78,2.09l-.58-.72a6.14,6.14,0,0,1,2-2.21v-6.37h-1.58v-.9h2.48V154a2.07,2.07,0,0,1,.34.31,3.53,3.53,0,0,0,1.39,1.08,7.13,7.13,0,0,0,1.78.34l2,0ZM180.51,141a25.05,25.05,0,0,1,2,2.81l-.74.52a21.61,21.61,0,0,0-2-2.86Zm2.65,9.86h3.47v-2.52h-3.08l-.16-.85a20.11,20.11,0,0,0,1.78-3.92h-1.93v-.88h2.21q.36-1.28.58-2.12l.88.2-.54,1.93H190v.88H186.1a24.89,24.89,0,0,1-1.71,3.91h2.23V145h.9v2.52h2.29v.86h-2.29v2.52h2.77v.88h-2.77V155h-.9v-3.2h-3.47Z"/><path class="cls-1" d="M192,146.22h3.71v8.14q1.06-.85,2.29-2l.27,1a25.86,25.86,0,0,1-3.47,2.81l-.38-.88a1,1,0,0,0,.34-.67v-7.43H192ZM194,140.8a23.25,23.25,0,0,1,3.15,2.86l-.67.68a22.07,22.07,0,0,0-3.19-2.88Zm9.67-.13q0,2.09-.14,4.14a24.77,24.77,0,0,0,5.06,11.3l-.68.79a25.44,25.44,0,0,1-4.63-9.7q-.16,1.1-.38,2.11a13.25,13.25,0,0,1-4.63,7.63l-.65-.81a12.62,12.62,0,0,0,4.25-6.73,40.93,40.93,0,0,0,.83-8.73Z"/><path class="cls-1" d="M210.22,141.77h16v1h-2.45v12.49a1.47,1.47,0,0,1-1.66,1.67h-3l-.22-.94q2,.07,2.84.07t1-1.06V142.72H210.22Zm8.91,4v6.37h-5.79v1.64h-.94v-8Zm-5.79,5.47h4.86v-4.59h-4.86Z"/><path class="cls-1" d="M230.54,155a3.31,3.31,0,0,1-1.8,3.11l-.4-.63a2.84,2.84,0,0,0,1.39-2.2l-.27,0a1,1,0,0,1-.67-.23.84.84,0,0,1-.25-.65.86.86,0,0,1,.23-.67.9.9,0,0,1,.67-.25Q230.55,153.47,230.54,155Z"/><path class="cls-1" d="M233.1,143.35h7.85a11.86,11.86,0,0,0-1.37-2.45l.94-.34a14.79,14.79,0,0,1,1.42,2.79h6.79v1h-9.56l-.2,3.53h7.51a47.73,47.73,0,0,1-.34,6.55,2.63,2.63,0,0,1-2.59,2.5q-.86,0-2.09-.05l-.29-.9q1.8.07,2.27.07,1.56-.07,1.89-2.2a49.66,49.66,0,0,0,.16-5h-6.62a12.87,12.87,0,0,1-1.3,4.1,16.22,16.22,0,0,1-3.69,4.18l-.72-.68a14.68,14.68,0,0,0,3.87-4.54,13.75,13.75,0,0,0,1.06-4.7q.09-1.94.11-2.83H233.1Z"/><path class="cls-1" d="M252.79,146.63a22.08,22.08,0,0,1-1.93,2.65l-.31-1a21.57,21.57,0,0,0,3.82-7.6l.88.4a27.48,27.48,0,0,1-1.51,3.87V157h-1Zm3.26-5.17h10.71v.94h-5.18v1.8h4.32v6.73h-4.36a6.33,6.33,0,0,1-1.17,3.4,15.06,15.06,0,0,0,6.71,1.8l-.23.88a15.18,15.18,0,0,1-7.11-2,10.62,10.62,0,0,1-4.25,2l-.52-.79a10.21,10.21,0,0,0,4-1.75,12.47,12.47,0,0,1-2.57-2.32l.74-.5a11.33,11.33,0,0,0,2.46,2.18,5.76,5.76,0,0,0,1-2.9h-4.3V144.2h4.32v-1.8h-4.55Zm1.15,5.67h3.4V145h-3.4Zm3.4,3V148h-3.4v2.14Zm1-5.08v2.11H265V145Zm3.4,5.08V148h-3.4v2.14Z"/><path class="cls-1" d="M270,141.39h13.45v1h-6v5.27h7.25v1h-7.25v6.61a1.48,1.48,0,0,1-1.69,1.66H273l-.22-1q1.84.07,2.65.07a.92.92,0,0,0,1-1v-6.35h-7.58v-1h7.58v-5.27H270Z"/><path class="cls-1" d="M291.2,140.8h1v4.9h1.26v1H289V148q0,.52,0,1.46h3.49V157h-1v-6.55h-2.57a15.47,15.47,0,0,1-1.49,6.28l-.74-.63Q288,153.58,288,148v-6.88h1v4.54h2.25Zm4.18,6v2.38a16.9,16.9,0,0,1-1.69,7.74l-.68-.7a16,16,0,0,0,1.46-7v-7.27a28.11,28.11,0,0,0,7.67-1.12l.47.86a29.54,29.54,0,0,1-7.22,1.08v3.15h6.73v.85a15.84,15.84,0,0,1-2.48,6.48,9.74,9.74,0,0,0,3.42,2.92l-.49.86a10.33,10.33,0,0,1-3.53-3,12.9,12.9,0,0,1-3.71,3l-.47-.85a12.41,12.41,0,0,0,3.62-3,17.59,17.59,0,0,1-2.37-6.41Zm1.6,0a16.81,16.81,0,0,0,2.09,5.58,14.21,14.21,0,0,0,2.11-5.58Z"/><path class="cls-1" d="M308.83,157h-1V147a19.23,19.23,0,0,1-2.88,5.58l-.43-1.08a16.68,16.68,0,0,0,3.29-6.34h-2.92v-1h2.93v-3.62h1v3.62h2.5v1h-2.5v1.13a38.35,38.35,0,0,1,2.83,3.1l-.58.85q-1.28-1.76-2.25-2.92Zm3.78-14.2h-.77v-1h8v.94a22.72,22.72,0,0,1-3.17,8.87,19,19,0,0,0,4.46,4.54l-.65.77a21.75,21.75,0,0,1-4.37-4.5,17.42,17.42,0,0,1-4.79,4.52l-.63-.77a18.1,18.1,0,0,0,4.82-4.61A18.6,18.6,0,0,1,312.61,142.76Zm.94,0a17.32,17.32,0,0,0,2.52,8,20.67,20.67,0,0,0,2.81-8Z"/><path class="cls-1" d="M323.19,145.87v-1h10.28a24.61,24.61,0,0,0,2.29-4.45l.92.34a22.33,22.33,0,0,1-2.21,4.1h4v1H334.3a9.74,9.74,0,0,0,4.81,4l-.43.9a11.14,11.14,0,0,1-5.33-4.88h-5.17a10.86,10.86,0,0,1-5.06,4.81l-.56-.86a9.93,9.93,0,0,0,4.7-3.94Zm2.9,3.24h4.25V147h1v2.11h4.27v1h-4.27v2.52h6.63v1h-6.62V157h-1v-3.46h-6.62v-1h6.63v-2.52h-4.25Zm-.29-8.32a26.32,26.32,0,0,1,1.76,3.22l-.83.43a27.5,27.5,0,0,0-1.73-3.28Zm4.21-.23a35,35,0,0,1,1.66,3.19l-.83.43A24.37,24.37,0,0,0,329.2,141Z"/><path class="cls-1" d="M340.65,146.22h3.65v8.1q1.08-.9,2.11-1.93l.25,1a23,23,0,0,1-3.22,2.7l-.38-.9a.86.86,0,0,0,.32-.61v-7.43h-2.74Zm2-5.4a21.21,21.21,0,0,1,3,2.84l-.67.68a20,20,0,0,0-3.06-2.88Zm9.27,1.71h-5.17v-1h10v1h-3.85v5.38h3.62v.92h-3.62v6.62h4.23v1H346.21v-1h1.91v-9.74h1v9.74h2.84Z"/><path class="cls-1" d="M360.92,152.88a13.38,13.38,0,0,1,2,1.75,15.25,15.25,0,0,1,1.51,1.8l-.7.59a17.42,17.42,0,0,0-1.49-1.78,15.15,15.15,0,0,0-1.94-1.76Z"/><path class="cls-1" d="M382.93,154.59a37.13,37.13,0,0,1-6.08,1.67l-.14-1a31.51,31.51,0,0,0,6.23-1.67ZM380.83,141a29.71,29.71,0,0,1-2.7,5.76q1.4-.23,2.65-.56.68-1.39,1-2.11l.85.32a40.35,40.35,0,0,1-4,6.95,25.77,25.77,0,0,0,3.87-1.3V151a25.5,25.5,0,0,1-5,1.48l-.25-.9a1.75,1.75,0,0,0,.45-.29,21.48,21.48,0,0,0,2.61-4.14q-1.58.38-3.13.65l-.23-.9a1,1,0,0,0,.41-.38,29.89,29.89,0,0,0,2.55-5.89ZM385.26,156V157h-.94V145.86a22.16,22.16,0,0,1-1.85,2.9l-.31-1a21.38,21.38,0,0,0,3.15-7.09l.94.18a24.49,24.49,0,0,1-1,3h7.43v.94h-3v2.74h2.72v.92H389.7v2.77h2.72v.92H389.7v3h3.38V156Zm3.51-11.3h-3.51v2.74h3.51Zm-3.51,3.65v2.77h3.51v-2.77Zm0,3.69v3h3.51v-3Zm3.58-11.52a26.44,26.44,0,0,1,.94,2.83l-.85.31a28.26,28.26,0,0,0-1-2.88Z"/><path class="cls-1" d="M398.83,157h-1V147a19.23,19.23,0,0,1-2.88,5.58l-.43-1.08a16.68,16.68,0,0,0,3.29-6.34h-2.92v-1h2.93v-3.62h1v3.62h2.5v1h-2.5v1.13a38.35,38.35,0,0,1,2.83,3.1l-.58.85q-1.28-1.76-2.25-2.92Zm3.78-14.2h-.77v-1h8v.94a22.72,22.72,0,0,1-3.17,8.87,19,19,0,0,0,4.46,4.54l-.65.77a21.75,21.75,0,0,1-4.37-4.5,17.42,17.42,0,0,1-4.79,4.52l-.63-.77a18.1,18.1,0,0,0,4.82-4.61A18.6,18.6,0,0,1,402.61,142.76Zm.94,0a17.32,17.32,0,0,0,2.52,8,20.67,20.67,0,0,0,2.81-8Z"/></svg>