<svg id="图层_1" data-name="图层 1" xmlns="http://www.w3.org/2000/svg" viewBox="0 0 440 275"><defs><style>.cls-1{fill:#33353c;}</style></defs><title>币网站中英文</title><path class="cls-1" d="M23.63,24.61a16.47,16.47,0,0,1-2.13,3.65l-.7-.5a14.34,14.34,0,0,0,2.1-3.52Zm3.68-10.9h.85v1.68h6.3v.82h-6.3v2.3h5.1v4.92H22.94V18.51h4.37Zm5.11,8.9V19.33H23.81v3.28Zm-6.29,2.08c.35,1.17.64,2.34.88,3.49l-.88.21a20.58,20.58,0,0,0-.82-3.52Zm3.36-.14a31.77,31.77,0,0,1,1.28,3.6l-.87.2a20,20,0,0,0-1.21-3.63Zm3.36-.29a25.68,25.68,0,0,1,2.33,3.57l-.7.49a28.91,28.91,0,0,0-2.34-3.61Z"/><path class="cls-1" d="M38.78,17.41A16.18,16.18,0,0,1,37.2,19l-.45-.69a12.54,12.54,0,0,0,3.3-4.63l.8.21a11.16,11.16,0,0,1-.61,1.35H44a14.72,14.72,0,0,0-.68-1.46l.86-.16c.24.51.45,1,.66,1.62H50.1V16H44.9v1.28h4.64V18H44.9v1.25h4.64V20H44.9v1.36h5.48v.75H38.78Zm-1.63,7v-.82h6.47v-1h.86v1h6.37v.82H45.73A11.36,11.36,0,0,0,51,27.14l-.36.77a11.8,11.8,0,0,1-5.78-3.54h-.4v4h-.86v-4h-.44c-1,1.4-2.89,2.6-5.74,3.62L37,27.23q4-1.25,5.39-2.86Zm6.9-7.06V16H39.79l-.19.31v1Zm0,2V18H39.6v1.25Zm0,2.06V20H39.6v1.36Z"/><path class="cls-1" d="M63.34,28.23l-.22-.85,1.58.05a.63.63,0,0,0,.71-.72V15.3H54.59v13h-.86V14.45H66.27V26.9A1.16,1.16,0,0,1,65,28.23Zm-3.68-3.49c-.56-.88-1.14-1.73-1.72-2.56a17.16,17.16,0,0,1-2.23,4.24l-.56-.67a16.87,16.87,0,0,0,2.21-4.39c-.86-1.15-1.65-2.11-2.35-2.89l.54-.55a29.65,29.65,0,0,1,2.1,2.53,32.52,32.52,0,0,0,.85-3.94l.81.15a31.75,31.75,0,0,1-1.05,4.61c.57.77,1.23,1.75,2,2.91Zm4.76.73c-.57-.94-1.17-1.92-1.81-2.92a17.14,17.14,0,0,1-2.4,4.25l-.55-.67A16.88,16.88,0,0,0,62,21.7c-.8-1.17-1.57-2.2-2.32-3.09l.56-.54a29,29,0,0,1,2.08,2.7,27.53,27.53,0,0,0,1-4.21l.81.15a29.53,29.53,0,0,1-1.2,4.92c.69,1,1.37,2.13,2,3.27Z"/><path class="cls-1" d="M74.45,26.15a32.08,32.08,0,0,1-5.36,1.48L69,26.8a28.53,28.53,0,0,0,5.47-1.49Zm-1.89-12.1A24.37,24.37,0,0,1,70,19.15a23.09,23.09,0,0,0,2.45-.44L73.34,17l.76.29a34.24,34.24,0,0,1-3.59,6,26.6,26.6,0,0,0,3.63-1v.79a27.28,27.28,0,0,1-4.65,1.17l-.24-.82a1.47,1.47,0,0,0,.4-.24,19.34,19.34,0,0,0,2.4-3.63c-1.11.22-2.06.39-2.85.49l-.21-.8a1,1,0,0,0,.37-.32,24.57,24.57,0,0,0,2.38-5.18Zm5.38-.21c-.15.47-.33.94-.53,1.41h4.48v.66a11.08,11.08,0,0,1-2.67,3.61,12.41,12.41,0,0,0,4.24,2.05l-.5.7A12.35,12.35,0,0,1,78.59,20a17.05,17.05,0,0,1-4.19,2.34l-.54-.7A16.52,16.52,0,0,0,78,19.47a10.31,10.31,0,0,1-1.76-2.22,13.4,13.4,0,0,1-1.53,1.57l-.52-.67a8.87,8.87,0,0,0,3-4.45Zm4,8.63v5.77h-.83v-.75H76.32v.75h-.83V22.47Zm-5.58,4.22h4.75V23.25H76.32Zm.35-10.1A9.51,9.51,0,0,0,78.56,19a10.24,10.24,0,0,0,2.38-2.93H77Z"/><path class="cls-1" d="M85.2,28.18,85,27.35c.64,0,1.1.06,1.37.06s.61-.17.61-.51V22.45q-1,.4-2,.72l-.23-.86A17.57,17.57,0,0,0,87,21.6V17.75h-2V16.9h2V13.79h.87V16.9h1.72v.85H87.86v3.48c.54-.25,1-.51,1.52-.76v.88l-1.52.73v5c0,.71-.39,1.07-1.17,1.07ZM89.78,21h9.1v.8h-4.1v2.07h3.48v.78H94.78v2.37a16.85,16.85,0,0,0,2.44.16c.63,0,1.31,0,2.06-.07L99,28l-1.76,0a10.3,10.3,0,0,1-4.3-.61,4.72,4.72,0,0,1-1.73-2.08,9.55,9.55,0,0,1-1.73,3l-.64-.58A8.49,8.49,0,0,0,91,22.64l.78.1a9.12,9.12,0,0,1-.24,1.65,4.5,4.5,0,0,0,1.89,2.3,5.1,5.1,0,0,0,.55.19v-5H89.78Zm1.16-6.7h6.85v5.39H90.94Zm.85,2.37h5.14V15.07H91.79ZM96.93,19V17.41H91.79V19Z"/><path class="cls-1" d="M102.78,19a20,20,0,0,1-2,2.4l-.27-.93a18.2,18.2,0,0,0,3.93-6.82l.8.39a20.64,20.64,0,0,1-1.61,3.61V28.34h-.87Zm2.72-1.72h2.2V13.81h.86v3.42h3.18V13.81h.87v3.42h2.24v.87h-2.24v4h2.69V23H105.07V22.1h2.63v-4h-2.2Zm3.43,7a17,17,0,0,1-3,4l-.75-.53a16.3,16.3,0,0,0,2.94-3.89Zm-.37-2.13h3.18v-4h-3.18Zm3.38,1.65a31.29,31.29,0,0,1,3.13,4l-.77.54a28.17,28.17,0,0,0-3.07-4.08Z"/><path class="cls-1" d="M123.82,19.09a32.19,32.19,0,0,0,4.77-3.47H117.87v-.83h11.91v.83a40.64,40.64,0,0,1-5.11,3.9v7.41c0,.85-.45,1.28-1.34,1.28s-1.59,0-2.53-.06l-.24-.85c.77.06,1.61.09,2.53.09.49,0,.73-.21.73-.64Z"/><path class="cls-1" d="M132.83,20.47h14.32v.86H132.83Z"/><path class="cls-1" d="M158.05,16a11.13,11.13,0,0,0,5.2,2.8l-.39.79a17.73,17.73,0,0,1-3.13-1.39v.52H153v1.17h7.54v.74H153v1.17h7.54v.72H153V23.7h9.83v.78h-8.47a10.78,10.78,0,0,1-2,2.75q4-.23,7.53-.76a17.51,17.51,0,0,0-1-1.43l.75-.24a18.21,18.21,0,0,1,2.21,3.2l-.78.35c-.2-.37-.43-.76-.67-1.16a89.23,89.23,0,0,1-9.43.86l-.22-.75c.81-.08,1.69-1,2.64-2.82h-4.18V23.7h3V18.42a17.46,17.46,0,0,1-2.94,1.21l-.42-.75A12.83,12.83,0,0,0,154.18,16h-4.8v-.8h5.48a6.16,6.16,0,0,0,.8-1.42l.84.1a10.19,10.19,0,0,1-.68,1.32h6.79V16Zm1.28,2a8.56,8.56,0,0,1-2.19-2h-1.89a9.86,9.86,0,0,1-2.21,2Z"/><path class="cls-1" d="M165,19.86h4.51c.41-.73.89-1.63,1.46-2.72l.88.27-1.32,2.45H179v.83h-3.2a13.54,13.54,0,0,1-2.38,4.21q2.35,1,5.15,2.61l-.57.73a53.85,53.85,0,0,0-5.22-2.69,10.71,10.71,0,0,1-7.17,2.56l-.51-.81a10.72,10.72,0,0,0,6.8-2.11s0,0,0,0a44.86,44.86,0,0,0-4.59-1.73c.63-1,1.19-1.9,1.68-2.75h-4Zm13.47-4.48v3.29h-.86V16.23H166.37v2.43h-.87V15.38h6.13a12.51,12.51,0,0,0-.77-1.6l1-.16a17.21,17.21,0,0,1,.76,1.76Zm-8.42,5.31q-1.08,1.78-1.47,2.37a35.21,35.21,0,0,1,4,1.49,10.9,10.9,0,0,0,2.29-3.86Z"/><path class="cls-1" d="M188.3,13.83a23.07,23.07,0,0,0,7,5.07l-.43.75a23.09,23.09,0,0,1-6.88-5,22.89,22.89,0,0,1-6.94,5.13l-.42-.77a23.32,23.32,0,0,0,7.06-5.16Zm-4.75,5.1h8.93v.85h-4v3h4.75v.85h-4.75V27h6.21v.85H181.38V27h6.19v-3.3H182.8v-.85h4.77v-3h-4Z"/><path class="cls-1" d="M198.75,24.64a11.43,11.43,0,0,1,1.78,1.55,14,14,0,0,1,1.34,1.6l-.62.53a15.31,15.31,0,0,0-1.33-1.58,13.56,13.56,0,0,0-1.73-1.57Z"/><path class="cls-1" d="M214.64,19.09a19.77,19.77,0,0,1-1.71,2.35l-.27-.93a19.33,19.33,0,0,0,3.39-6.75l.78.35a23.81,23.81,0,0,1-1.34,3.44V28.31h-.85Zm2.9-4.59h9.52v.83h-4.61v1.6h3.84v6h-3.87a5.74,5.74,0,0,1-1,3,13.38,13.38,0,0,0,6,1.6l-.2.78a13.44,13.44,0,0,1-6.32-1.79A9.51,9.51,0,0,1,217,28.32l-.46-.7a9.22,9.22,0,0,0,3.52-1.55A11,11,0,0,1,217.81,24l.65-.45a9.79,9.79,0,0,0,2.2,1.94,5.14,5.14,0,0,0,.91-2.58h-3.83v-6h3.84v-1.6h-4Zm1,5h3V17.67h-3Zm3,2.64V20.27h-3v1.91Zm.87-4.51v1.87h3V17.67Zm3,4.51V20.27h-3v1.91Z"/><path class="cls-1" d="M229.28,28.15l-.19-.82c.45,0,.88.05,1.31.05a.54.54,0,0,0,.62-.61V22.35a21.21,21.21,0,0,1-2.06.77l-.22-.85a21.57,21.57,0,0,0,2.28-.78V17.62h-2.09v-.85H231v-3h.87v3h1.81v.85h-1.81v3.5a17.42,17.42,0,0,0,1.68-.89v.88c-.55.3-1.11.58-1.68.86v5a1,1,0,0,1-1.19,1.16Zm12.64-5.59H238.7v1.7h3.64V25H238.7v2.08a20.24,20.24,0,0,0,2.08.11c.75,0,1.58,0,2.5-.07L243,28h-2.17a9.68,9.68,0,0,1-4-.56,4.46,4.46,0,0,1-1.61-1.91,7.64,7.64,0,0,1-1.54,2.79l-.69-.5a8.2,8.2,0,0,0,1.89-4.49l.82.12c-.07.45-.15.86-.24,1.24a4.13,4.13,0,0,0,1.72,2,6,6,0,0,0,.71.22v-4.4h-3.23v-.77h3.23V20.23h-3.73v-.77h3.73V17.87h-3.12v-.75h3.12V15.73h-3.81V15h3.81v-1.2h.81V15h4.15v.78H238.7v1.39h3.22v2.34H243v.77h-1.1Zm-3.22-4.69v1.59h2.42V17.87Zm2.42,2.36H238.7v1.56h2.42Z"/><path class="cls-1" d="M246.75,24.64a11.43,11.43,0,0,1,1.78,1.55,14,14,0,0,1,1.34,1.6l-.62.53a15.31,15.31,0,0,0-1.33-1.58,13.56,13.56,0,0,0-1.73-1.57Z"/><path class="cls-1" d="M265.22,14.11a21.1,21.1,0,0,1-1.56,3.49V28.37h-.86V19a20.79,20.79,0,0,1-1.95,2.39l-.27-.9a18.18,18.18,0,0,0,3.84-6.7Zm1.55,6.44v6.16c.67-.27,1.21-.5,1.63-.71l.14.77c-.82.34-1.75.69-2.8,1l-.22-.75a.52.52,0,0,0,.4-.51V15.79a44.86,44.86,0,0,0,7.84-1.72l.48.7a28.12,28.12,0,0,1-2.85.82q0,2.37.15,4.14h3.53v.82H271.6a15.32,15.32,0,0,0,.27,2,11.85,11.85,0,0,0,1,3.36c.37.7.67,1.05.89,1.05s.5-.95.71-2.8l.72.4c-.29,2.27-.71,3.41-1.27,3.41s-1-.43-1.5-1.28a12.49,12.49,0,0,1-1.36-3.86,22,22,0,0,1-.32-2.28Zm0-4.08v3.26h3.93c-.1-1.31-.16-2.63-.16-4C269.13,16.06,267.87,16.29,266.77,16.47Zm2.69,8.4a22.29,22.29,0,0,1,2.12,2.91l-.65.46a25.51,25.51,0,0,0-2.08-2.94Z"/><path class="cls-1" d="M289.94,18.91a18.43,18.43,0,0,1-2.55,5.44,9.17,9.17,0,0,0,.85,1.59c.58.8,1.05,1.2,1.42,1.2s.66-.87.92-2.58l.78.42c-.35,2.08-.86,3.12-1.54,3.12s-1.37-.48-2.12-1.44a7.19,7.19,0,0,1-.9-1.54,11.21,11.21,0,0,1-4.08,3.14l-.5-.74a10.84,10.84,0,0,0,4.2-3.29,15.46,15.46,0,0,1-.63-2,30,30,0,0,1-.67-5.16h-5.79V20h3.92a31.41,31.41,0,0,1-.29,5,1.35,1.35,0,0,1-1.39,1.12c-.4,0-.87,0-1.41-.05l-.27-.8c.83.05,1.36.07,1.58.07.41,0,.66-.31.75-.83a28.37,28.37,0,0,0,.16-3.7h-3.05v.74a11.93,11.93,0,0,1-1.83,6.75l-.65-.59a10.87,10.87,0,0,0,1.63-6.16v-5.3h6.61c0-.83,0-1.7,0-2.59h.86c0,.66,0,1.52.07,2.59H291v.82h-5a27.18,27.18,0,0,0,.64,5c.12.44.25.88.38,1.31a17,17,0,0,0,2.13-4.8Zm-2.16-5.16a13.47,13.47,0,0,1,2,1.82l-.57.56a16.28,16.28,0,0,0-2-1.86Z"/><path class="cls-1" d="M293.18,16.77h6.39v-3h.86v3h6.37v.85h-5.46a17,17,0,0,0,5.94,7.09l-.58.75a18.71,18.71,0,0,1-6.06-7.84h-.21v6.49H304V25h-3.55v3.38h-.86V25h-3.43v-.85h3.43V17.62h-.23a16.49,16.49,0,0,1-6.2,8l-.5-.78a15.58,15.58,0,0,0,6-7.25h-5.48Z"/><path class="cls-1" d="M314.34,16.59V27.35h-.84v-1h-3.23v1.42h-.83V16.59h1.44a14.61,14.61,0,0,0,.72-2.86l.88.11a13.71,13.71,0,0,1-.77,2.75ZM310.27,21h3.23V17.43h-3.23Zm0,4.58h3.23V21.78h-3.23Zm12.35-9c0,5.13-.07,8.33-.22,9.58a2,2,0,0,1-2.22,1.92l-1.57,0-.21-.8c.64,0,1.2,0,1.68,0a1.41,1.41,0,0,0,1.49-1.42q.18-1.32.22-8.44h-4.72a13.69,13.69,0,0,1-1.61,2.8l-.52-.67a14.15,14.15,0,0,0,2.36-5.89l.84.1a19.21,19.21,0,0,1-.73,2.8Zm-5.56,3.6a28.4,28.4,0,0,1,2.78,3.52l-.69.5a24.4,24.4,0,0,0-2.8-3.57Z"/><path class="cls-1" d="M328.78,13.91h.87v4.35h1.12v.85h-4v1.23q0,.46,0,1.29h3.11v6.68H329V22.48H326.7a13.88,13.88,0,0,1-1.32,5.59l-.66-.56c.79-1.5,1.19-3.89,1.22-7.17V14.23h.84v4h2Zm3.72,5.34v2.11A15,15,0,0,1,331,28.24l-.61-.62a14.18,14.18,0,0,0,1.3-6.26V14.9a24.87,24.87,0,0,0,6.82-1l.41.76a25.78,25.78,0,0,1-6.41,1v2.8h6v.76A14,14,0,0,1,336.27,25a8.7,8.7,0,0,0,3,2.59l-.43.77a9.26,9.26,0,0,1-3.14-2.66,11.22,11.22,0,0,1-3.29,2.67l-.42-.75A11,11,0,0,0,335.25,25a15.61,15.61,0,0,1-2.11-5.7Zm1.42,0a14.87,14.87,0,0,0,1.86,5,12.76,12.76,0,0,0,1.87-5Z"/><path class="cls-1" d="M344.45,28.27h-.87V19.44a16.8,16.8,0,0,1-2.56,5l-.38-1a14.81,14.81,0,0,0,2.93-5.63H341V17h2.6V13.75h.87V17h2.22v.85h-2.22v1A34.43,34.43,0,0,1,347,21.57l-.51.75c-.76-1-1.43-1.91-2-2.59Zm3.36-12.62h-.69V14.8h7.1v.83a20.07,20.07,0,0,1-2.81,7.89,16.63,16.63,0,0,0,4,4l-.58.69a19.32,19.32,0,0,1-3.89-4,15.54,15.54,0,0,1-4.25,4l-.56-.69a16.12,16.12,0,0,0,4.28-4.1A16.5,16.5,0,0,1,347.81,15.65Zm.83,0a15.39,15.39,0,0,0,2.24,7.09,18.44,18.44,0,0,0,2.5-7.09Z"/><path class="cls-1" d="M361.1,14.05a19.93,19.93,0,0,1-1.47,3.41V28.37h-.88V18.91a17.36,17.36,0,0,1-1.95,2.44l-.27-.92a18.36,18.36,0,0,0,3.76-6.76Zm1.12.45h7.43v4.85h-3.28v2h4.69v.86h-3.75a14.07,14.07,0,0,0,4,4.48l-.55.74a16.1,16.1,0,0,1-4.16-5.22h-.25v6.15h-.87V22.19h-.27A14.1,14.1,0,0,1,361,27.44l-.48-.77a12.9,12.9,0,0,0,4-4.48h-3.59v-.86h4.56v-2h-3.28Zm6.56,4V15.33h-5.69V18.5Z"/><path class="cls-1" d="M373.07,28.18l-.19-.83c.68,0,1.18.06,1.49.06s.69-.24.69-.74V22.5c-.74.26-1.45.49-2.15.67l-.22-.85a24.4,24.4,0,0,0,2.37-.69V17.75h-2.15V16.9h2.15V13.79h.86V16.9h1.86v.85h-1.86v3.56c.63-.24,1.27-.53,1.94-.86v.88c-.73.34-1.37.62-1.94.85V26.9a1.12,1.12,0,0,1-1.25,1.28Zm6.61-7.41a13.93,13.93,0,0,1-2,7.57l-.65-.59a12.68,12.68,0,0,0,1.82-7v-5h3.6a13.29,13.29,0,0,0-.77-1.94l.92-.16a19.72,19.72,0,0,1,.72,2.1h3.47v5Zm6.26-4.14h-6.26v3.29h6.26Z"/><path class="cls-1" d="M393.62,24.4a16.75,16.75,0,0,1-4.08,3.44l-.55-.72a15.51,15.51,0,0,0,4-3.28Zm0,3.87-.2-.83c.77,0,1.33.07,1.67.07a.59.59,0,0,0,.67-.66V22.63l-5.1.27-.24-.77a3.24,3.24,0,0,0,.76-.16,22.66,22.66,0,0,0,4.87-3c-1.18.09-2.78.19-4.82.3l-.19-.78a2.09,2.09,0,0,0,.61-.16,11.27,11.27,0,0,0,3.25-2.69c-1.54.09-3.08.13-4.61.13l-.26-.75A52,52,0,0,0,401.38,14l.43.73a35,35,0,0,1-5.81.88,15.34,15.34,0,0,1-3.39,3c1.47-.09,2.92-.18,4.35-.29.74-.61,1.5-1.26,2.3-2l.8.39a34.06,34.06,0,0,1-7.47,5.37q4.32-.24,7.41-.57c-.46-.6-.91-1.16-1.34-1.67l.64-.41a29.25,29.25,0,0,1,3,4l-.68.48q-.48-.81-1.11-1.68c-1,.11-2.3.22-3.9.35v4.5a1.07,1.07,0,0,1-1.22,1.21Zm5.24-4.56a29.64,29.64,0,0,1,4.08,3.59l-.62.62a26.25,26.25,0,0,0-4.05-3.65Z"/><path class="cls-1" d="M408.56,14.07A25.44,25.44,0,0,1,406,19.19c.89-.14,1.72-.31,2.5-.5l.89-1.7.77.29a34,34,0,0,1-3.73,6A20,20,0,0,0,410.11,22v.81a21.45,21.45,0,0,1-4.77,1.44l-.22-.83a1.47,1.47,0,0,0,.4-.24,21,21,0,0,0,2.5-3.66q-1.29.27-2.88.54l-.21-.81a1,1,0,0,0,.37-.34,26.27,26.27,0,0,0,2.44-5.18Zm1.55,11.64a23.11,23.11,0,0,1-5,1.81l-.11-.86a23.26,23.26,0,0,0,5.1-1.76Zm2.83-4.33a12.59,12.59,0,0,1-.76,4.4,6.05,6.05,0,0,1-2.31,2.51l-.56-.69a5.43,5.43,0,0,0,2.08-2.19,10.75,10.75,0,0,0,.69-4Zm-2.44-1.57.19-.08a10.83,10.83,0,0,0,2.25-3.38H410v-.81h4.22a11.11,11.11,0,0,0-.78-1.81l.86-.16a15.21,15.21,0,0,1,.8,2h3.66v.81h-4.92a16.23,16.23,0,0,1-2.1,3.38c1.64-.13,3.3-.34,5-.62-.36-.54-.79-1.12-1.3-1.75l.66-.43a29.4,29.4,0,0,1,2.59,3.73l-.67.49c-.22-.4-.49-.84-.8-1.32-2,.32-4.17.57-6.51.76Zm6,8.22a1.1,1.1,0,0,1-1.23-1.26V21.25h.82v5.38c0,.38.14.59.43.62h1.14a.7.7,0,0,0,.75-.54,12.62,12.62,0,0,0,.14-2.24l.75.27a7.66,7.66,0,0,1-.3,2.77,1.53,1.53,0,0,1-1.3.52Z"/><path class="cls-1" d="M95.41,56l-2.9,0A11.08,11.08,0,0,1,90,55.7a3.55,3.55,0,0,1-1.73-1.19.85.85,0,0,0-.61-.41c-.43,0-1.12.74-2.06,2.22l-.66-.57a6,6,0,0,1,2.32-2.44V48.19H84.9v-.83h3.18v6a1.62,1.62,0,0,1,.51.44,4.1,4.1,0,0,0,1.35,1.06,7.81,7.81,0,0,0,2.2.34l3.14,0h2.21l1.71-.07L99,56Zm-9.52-14a20.24,20.24,0,0,1,2.83,2.48l-.61.6a18.53,18.53,0,0,0-2.81-2.52Zm6.56,1.53q1.11.65,1.89,1.2A14.39,14.39,0,0,0,97,43.11h-7.4v-.74h8.58V43a16.65,16.65,0,0,1-3.25,2.24l.39.31h3.13v7.18c0,.75-.39,1.12-1.17,1.12h-1.4l-.21-.77,1.36,0c.39,0,.59-.19.59-.55v-1.5h-3v2.83h-.8V51.06h-3V54H90V45.54h4.18c-.72-.5-1.48-1-2.28-1.43ZM93.82,48V46.29h-3V48Zm-3,.74v1.61h3V48.71ZM97.6,48V46.29h-3V48Zm-3,.74v1.61h3V48.71Z"/><path class="cls-1" d="M111.71,56l-3,0a11.82,11.82,0,0,1-2.63-.3,3.61,3.61,0,0,1-1.77-1.19.91.91,0,0,0-.66-.41c-.44,0-1.14.76-2.1,2.27l-.65-.59a5.89,5.89,0,0,1,2.37-2.47V48.19h-2.42v-.83h3.23v6a1.76,1.76,0,0,1,.55.43,3.82,3.82,0,0,0,1.39,1,7.85,7.85,0,0,0,2.3.36l3.23,0,2.08,0,1.62-.06-.21.89Zm-9.85-14a19.43,19.43,0,0,1,2.76,2.56l-.62.62a17,17,0,0,0-2.74-2.61Zm7.07,11.9-.18-.85c1,0,1.69.07,2.11.07s.74-.23.74-.67V45.35h-5.95v-.87h5.95V41.81h.86v2.67h2.4v.87h-2.4v7.34q0,1.23-1.29,1.23Zm-1.76-7a25.39,25.39,0,0,1,2.35,3.15l-.74.52a22.11,22.11,0,0,0-2.32-3.22Z"/><path class="cls-1" d="M117.33,50.71h2V43.17h3.21a7.6,7.6,0,0,0,.5-1.55l.91.13a6.5,6.5,0,0,1-.53,1.42h4.79v7.2a9.94,9.94,0,0,0,2-3.14l.75.45a14.47,14.47,0,0,1-2.8,3.81V55a1.13,1.13,0,0,1-1.28,1.27h-1.6l-.23-.85,1.54,0c.47,0,.7-.22.7-.64V52.24a13.91,13.91,0,0,1-1.21.88A24.57,24.57,0,0,1,117.86,56l-.39-.78q6.27-1.14,9.06-3.26l.45-.37h-9.65Zm10-5V44h-7.15V45.7Zm-7.15.75v1.66h7.15V46.45Zm0,2.43v1.83h7.15V48.88Z"/><path class="cls-1" d="M137.3,42a21.39,21.39,0,0,1-1.65,3.76V56.37h-.87V47.19a19.74,19.74,0,0,1-1.93,2.38l-.27-.93a18.41,18.41,0,0,0,3.93-7Zm3.68.2a15.48,15.48,0,0,1-3.92,6.27l-.68-.59a13.93,13.93,0,0,0,3.78-6ZM138.22,49v-.87h6.92a40.78,40.78,0,0,1-.26,6c-.13,1.32-.75,2-1.86,2-.32,0-.88,0-1.68,0l-.2-.83c.91,0,1.51.07,1.79.07.65,0,1-.48,1.12-1.44a39.44,39.44,0,0,0,.22-4.88h-3a15.71,15.71,0,0,1-1.15,4.27,9.22,9.22,0,0,1-2.56,3l-.56-.71a8.17,8.17,0,0,0,2.33-2.67,13.23,13.23,0,0,0,1.09-3.9Zm5.09-7.24a12.06,12.06,0,0,0,4,5.86l-.59.69a12.51,12.51,0,0,1-4.19-6.11Z"/><path class="cls-1" d="M153.62,52.4a16.75,16.75,0,0,1-4.08,3.44l-.55-.72a15.51,15.51,0,0,0,4-3.28Zm0,3.87-.2-.83c.77,0,1.33.07,1.67.07a.59.59,0,0,0,.67-.66V50.63l-5.1.27-.24-.77a3.24,3.24,0,0,0,.76-.16,22.66,22.66,0,0,0,4.87-3c-1.18.09-2.78.19-4.82.3l-.19-.78a2.09,2.09,0,0,0,.61-.16,11.27,11.27,0,0,0,3.25-2.69c-1.54.09-3.08.13-4.61.13l-.26-.75A52,52,0,0,0,161.38,42l.43.73a35,35,0,0,1-5.81.88,15.34,15.34,0,0,1-3.39,3c1.47-.09,2.92-.18,4.35-.29.74-.61,1.5-1.26,2.3-2l.8.39a34.06,34.06,0,0,1-7.47,5.37q4.32-.24,7.41-.57c-.46-.6-.91-1.16-1.34-1.67l.64-.41a29.25,29.25,0,0,1,3,4l-.68.48q-.48-.81-1.11-1.68c-1,.11-2.3.22-3.9.35v4.5a1.07,1.07,0,0,1-1.22,1.21Zm5.24-4.56a29.64,29.64,0,0,1,4.08,3.59l-.62.62a26.25,26.25,0,0,0-4-3.65Z"/><path class="cls-1" d="M168.56,42.07A25.44,25.44,0,0,1,166,47.19c.89-.14,1.72-.31,2.5-.5l.89-1.7.77.29a34,34,0,0,1-3.73,6A20,20,0,0,0,170.11,50v.81a21.45,21.45,0,0,1-4.77,1.44l-.22-.83a1.47,1.47,0,0,0,.4-.24,21,21,0,0,0,2.5-3.66q-1.29.27-2.88.54l-.21-.81a1,1,0,0,0,.37-.34,26.27,26.27,0,0,0,2.44-5.18Zm1.55,11.64a23.11,23.11,0,0,1-5,1.81l-.11-.86a23.26,23.26,0,0,0,5.1-1.76Zm2.83-4.33a12.59,12.59,0,0,1-.76,4.4,6.05,6.05,0,0,1-2.31,2.51l-.56-.69a5.43,5.43,0,0,0,2.08-2.19,10.75,10.75,0,0,0,.69-4Zm-2.44-1.57.19-.08a10.83,10.83,0,0,0,2.25-3.38H170v-.81h4.22a11.11,11.11,0,0,0-.78-1.81l.86-.16a15.21,15.21,0,0,1,.8,2h3.66v.81h-4.92a16.23,16.23,0,0,1-2.1,3.38c1.64-.13,3.3-.34,5-.62-.36-.54-.79-1.12-1.3-1.75l.66-.43a29.4,29.4,0,0,1,2.59,3.73l-.67.49c-.22-.4-.49-.84-.8-1.32-2,.32-4.17.57-6.51.76Zm6,8.22a1.1,1.1,0,0,1-1.23-1.26V49.25h.82v5.38c0,.38.14.59.43.62h1.14a.7.7,0,0,0,.75-.54,12.62,12.62,0,0,0,.14-2.24l.75.27a7.66,7.66,0,0,1-.3,2.77,1.53,1.53,0,0,1-1.3.52Z"/><path class="cls-1" d="M195.22,55.09l-.16.83h-4.77q-4.26,0-6.1-1.26a4.42,4.42,0,0,1-.65-.61,9.65,9.65,0,0,1-2,2.1l-.56-.72a7.51,7.51,0,0,0,2-2.07,11.35,11.35,0,0,1-1.56-3.49l.72-.27a13.86,13.86,0,0,0,1.25,3,11.35,11.35,0,0,0,1.06-4.4h-3v-.68a35.76,35.76,0,0,0,2.7-4.06h-2.82v-.83h3.8v.72a41.07,41.07,0,0,1-2.55,4h2.67V48a11.82,11.82,0,0,1-1.32,5.42,3.89,3.89,0,0,0,.92.79,11,11,0,0,0,5,1C191,55.15,192.78,55.13,195.22,55.09Zm-1.36-6.91h-3.43v1.47h3.86v.75h-3.86V52h4.31v.75h-4.31v1.79h-.86V52.74h-3.73V52h3.73V50.4h-3.25v-.75h3.25V48.18h-2.91v-.77h2.91V45.92h-3.7v-.73h3.7V43.68h-2.91v-.75h2.91V41.71h.86v1.22h3.43v2.26H195v.73h-1.16Zm-3.43-4.5v1.51H193V43.68Zm0,2.24v1.49H193V45.92Z"/><path class="cls-1" d="M196.82,54.5h8a41.87,41.87,0,0,0,2.61-8.15l.91.24a41.49,41.49,0,0,1-2.56,7.91h5.44v.85H196.82Zm.54-10.08h6.3a23.25,23.25,0,0,0-.83-2.55l1-.16c.3.86.56,1.76.8,2.71h6.08v.85H197.36Zm3.23,2a58.36,58.36,0,0,1,1.89,7.19l-.91.24a58.09,58.09,0,0,0-1.89-7.12Z"/><path class="cls-1" d="M225.28,43.71V56.32h-.86V55.23h-8.84v1.09h-.86V43.71h3.38a7.66,7.66,0,0,0,.84-2l.88.13a7.66,7.66,0,0,1-.81,1.9Zm-9.7,3.49h8.84V44.55h-8.84Zm0,3.51h8.84V48h-8.84Zm0,3.69h8.84V51.54h-8.84Z"/><path class="cls-1" d="M243,51.73a9.54,9.54,0,0,1-.61,3.33,1.72,1.72,0,0,1-1.63.75H232c-1.1,0-1.65-.51-1.65-1.52V48h10V43.51H229.42v-.84h11.8v6.16h-10V54c0,.63.36.95,1.09,1h8.3a1.15,1.15,0,0,0,1.2-.72,11.41,11.41,0,0,0,.35-2.8Z"/><path class="cls-1" d="M250.34,44.59V55.35h-.84v-1h-3.23v1.42h-.83V44.59h1.44a14.61,14.61,0,0,0,.72-2.86l.88.11a13.71,13.71,0,0,1-.77,2.75ZM246.27,49h3.23V45.43h-3.23Zm0,4.58h3.23V49.78h-3.23Zm12.35-9c0,5.13-.07,8.33-.22,9.58a2,2,0,0,1-2.22,1.92l-1.57,0-.21-.8c.64,0,1.2,0,1.68,0a1.41,1.41,0,0,0,1.49-1.42q.18-1.32.22-8.44h-4.72a13.69,13.69,0,0,1-1.61,2.8l-.52-.67a14.15,14.15,0,0,0,2.36-5.89l.84.1a19.21,19.21,0,0,1-.73,2.8Zm-5.56,3.6a28.4,28.4,0,0,1,2.78,3.52l-.69.5a24.4,24.4,0,0,0-2.8-3.57Z"/><path class="cls-1" d="M262.29,53.6v1.47h-.83V43.14h3.87V54.71h-.82V53.6Zm2.22-.83V44h-2.22v8.8Zm3.57,2.7v.77h-.85V46.71A19.05,19.05,0,0,1,265.79,49l-.29-.91a18.61,18.61,0,0,0,2.77-6.38l.85.16a23.93,23.93,0,0,1-.88,2.75H275v.83H272.1v2.46h2.52v.82H272.1v2.46h2.52V52H272.1v2.67h3.16v.83Zm3.17-10.06h-3.17v2.46h3.17Zm-3.17,3.28v2.46h3.17V48.69Zm0,3.28v2.67h3.17V52Zm3.3-10.27a22.82,22.82,0,0,1,.86,2.51l-.74.27a21.46,21.46,0,0,0-1-2.56Z"/><path class="cls-1" d="M276.83,48.47h14.32v.86H276.83Z"/><path class="cls-1" d="M295.89,49.17l.83.1-.38,1h3.42V51a6.66,6.66,0,0,1-1.92,2.88,24.26,24.26,0,0,1,2.4,1.19l-.48.69a26.27,26.27,0,0,0-2.61-1.32,12.85,12.85,0,0,1-4,1.86l-.44-.74A12.5,12.5,0,0,0,296.27,54c-.68-.29-1.45-.6-2.32-.92.45-.73.83-1.42,1.15-2.07h-2v-.78h2.4Zm-2.77-4.29h3.17V41.76h.81v3.12h3v.79h-3v.19a31.05,31.05,0,0,1,2.76,1.69l-.47.69c-.87-.71-1.64-1.29-2.29-1.73v2.31h-.81V45.67h-.05a7.28,7.28,0,0,1-3,3.36l-.45-.72a6.4,6.4,0,0,0,2.75-2.64h-2.46Zm1.06-2.75a12.2,12.2,0,0,1,1,2l-.69.3a14.9,14.9,0,0,0-1.09-2.06ZM298.93,51H296a12.26,12.26,0,0,1-1,1.71c.68.23,1.33.48,2,.77A6.86,6.86,0,0,0,298.93,51Zm1-8.72a10.13,10.13,0,0,1-1.25,2.13l-.65-.34A11.75,11.75,0,0,0,299.2,42Zm1.84,5.11a15,15,0,0,1-1.06,2.28l-.54-.67a20.68,20.68,0,0,0,2-7.36l.87.16c-.11.83-.24,1.65-.39,2.43H307v.85h-1.14a17.11,17.11,0,0,1-1.46,7,10.25,10.25,0,0,0,3.06,3.42l-.5.74a10.55,10.55,0,0,1-3-3.36,10.74,10.74,0,0,1-3.05,3.39l-.48-.73a9.84,9.84,0,0,0,3.05-3.51A21.58,21.58,0,0,1,301.76,47.43Zm.67-2.31c-.11.43-.19.74-.25,1a22,22,0,0,0,1.71,5.13A16.72,16.72,0,0,0,305,45.12Z"/><path class="cls-1" d="M311.73,46.26h8.49v.8a29.65,29.65,0,0,1-3.6,2.19v1.31H323v.83h-6.42v3.68a1.07,1.07,0,0,1-1.23,1.2h-1.95l-.22-.81,1.87,0a.61.61,0,0,0,.69-.7v-3.4H309v-.83h6.8V48.87a34.92,34.92,0,0,0,3.16-1.81h-7.21Zm11-2.79V46.9h-.88V44.31H310.16V46.9h-.88V43.47h6.43a8.94,8.94,0,0,0-.72-1.68l1-.16a17.16,17.16,0,0,1,.71,1.84Z"/><path class="cls-1" d="M332.27,45.76a24.22,24.22,0,0,0,7,3.54l-.42.75a23,23,0,0,1-6.8-3.57A24.12,24.12,0,0,1,325.2,50l-.42-.76a24.83,24.83,0,0,0,7-3.51ZM327.06,44a12.73,12.73,0,0,1-1.44,2.25l-.74-.46a12,12,0,0,0,2.19-4.1l.85.18c-.21.6-.38,1-.5,1.33h4.42V44h-2.53a13.4,13.4,0,0,1,.69,1.74l-.78.29a20.07,20.07,0,0,0-.77-2Zm9.69,7.13a18.43,18.43,0,0,1-1.68,3.81h3.65v.82H325.31v-.82h8.83a19.39,19.39,0,0,0,1.76-4Zm-8.8,0a18.44,18.44,0,0,1,1.28,3l-.78.19a17.93,17.93,0,0,0-1.28-3Zm-.06-1.8h8.24v.77h-8.24Zm3.76,1.46a23.25,23.25,0,0,1,1,3.28l-.78.19a28.21,28.21,0,0,0-1-3.21ZM333.81,44a12.94,12.94,0,0,1-1,1.63l-.72-.48a11,11,0,0,0,1.66-3.46l.83.18c-.12.41-.28.86-.46,1.33H339V44h-2.75a13.78,13.78,0,0,1,.91,1.87l-.8.3a17.19,17.19,0,0,0-1-2.17Z"/><path class="cls-1" d="M345.52,55.28v1h-.86V50.51c-1.15.39-2.27.71-3.38,1l-.43-.82a27.63,27.63,0,0,0,7-2.41,19.57,19.57,0,0,0-3-2.07l.76-.46a20.57,20.57,0,0,1,3,2.11,10.32,10.32,0,0,0,3.84-3.71h-6.24A15.51,15.51,0,0,1,342,46.87l-.56-.76q4.11-1.78,5.59-4.4l.92.12a9.32,9.32,0,0,1-1,1.47h6.45v.78a13.29,13.29,0,0,1-6.69,5.62h7.1v6.57H353v-1Zm7.47-.85V50.51h-7.47v3.92Z"/><path class="cls-1" d="M125.22,71.49h4.48a18.37,18.37,0,0,0,.59-1.79l.88.09c-.12.44-.3,1-.55,1.7h8.32v.85h-8.65a18.17,18.17,0,0,1-2.18,3.81v8.22h-.86V77.22a21.88,21.88,0,0,1-2,2l-.53-.71a17.84,17.84,0,0,0,4.65-6.22h-4.12Zm4.25,7.38h4.75V77.25A17,17,0,0,0,137,75.31h-6.26V74.5h7.38v.81a22.65,22.65,0,0,1-3,2.31v1.25h4.11v.84h-4.11V83a1.11,1.11,0,0,1-1.27,1.25h-2l-.22-.82c.77,0,1.4,0,1.89,0a.65.65,0,0,0,.73-.74V79.71h-4.75Z"/><path class="cls-1" d="M142.29,75a18.74,18.74,0,0,1-1.39,2.11l-.28-.89a19.52,19.52,0,0,0,2.82-6.45l.78.37a22.63,22.63,0,0,1-1.1,3.2v11h-.83Zm1.6-.19h2.77v7.07q.65-.68,1.47-1.65l.22.87a20.59,20.59,0,0,1-2.49,2.61l-.34-.79a.83.83,0,0,0,.29-.57V75.6h-1.92Zm1.39-4.32a19.94,19.94,0,0,1,2.4,2.35l-.66.66A15,15,0,0,0,144.69,71Zm3.34,1.25h2V69.76h.82V71.7h1.89v.75h-1.89v2.32h.61a17.26,17.26,0,0,0,2.27-4.16l.72.4a18.85,18.85,0,0,1-2,3.76h2.1v.8h-2.69a13,13,0,0,1-1.62,1.7h3.46v7h-.83v-.7h-3.28v.7h-.84V78.37a10,10,0,0,1-1.36.75l-.44-.69a11.24,11.24,0,0,0,3.85-2.86h-3.18v-.8h2.41V72.45h-2ZM153.46,80v-2h-3.28v2Zm-3.28.77v2h3.28v-2Z"/><path class="cls-1" d="M159.31,77.54a21.82,21.82,0,0,1-2.16,2l-.56-.71a18.94,18.94,0,0,0,4.91-6h-4.35V72h4.75q.47-1.11.87-2.37l.88.1a19.43,19.43,0,0,1-.8,2.27h8.21v.85h-8.6a20,20,0,0,1-2.28,3.64v7.86h-.87Zm2.47-.26h3.8V74.19h.88v3.09h3.89v.87h-3.89v4.78h4.64v.85h-10v-.85h4.51V78.15h-3.8Z"/><path class="cls-1" d="M182.67,78.35a45.91,45.91,0,0,1,3.76,5.57l-.73.51c-.23-.43-.51-.93-.85-1.48q-5.25.57-10.64.94l-.15-.74q2.1-1.12,4.34-5.72h-5.47v-.87h6.64V73.27h-5.65v-.85h5.65V69.76h.86v2.66h5.62v.85h-5.62v3.29h6.63v.87h-7.7A18.38,18.38,0,0,1,175.63,83q6.47-.51,8.75-.81c-.68-1.07-1.48-2.21-2.4-3.43Z"/><path class="cls-1" d="M195.55,69.67h.9v3h5.79V80h-.88V78.91h-4.91v5.54h-.9V78.91h-4.89V80h-.88V72.63h5.77Zm-4.89,8.4h4.89V73.49h-4.89Zm5.79,0h4.91V73.49h-4.91Z"/><path class="cls-1" d="M207.42,75a29.73,29.73,0,0,1-2,6.91l-.76-.48a28.09,28.09,0,0,0,1.88-6.6Zm3,8.77c-1,0-1.52-.48-1.52-1.44V73.09h.88v9.09c0,.51.29.77.89.77h3.17a1,1,0,0,0,.93-.47,10.73,10.73,0,0,0,.46-3.52l.82.27a10,10,0,0,1-.66,4,1.55,1.55,0,0,1-1.37.61Zm.3-14a32.73,32.73,0,0,1,3.52,4l-.74.5a28.9,28.9,0,0,0-3.5-4Zm5.82,4.46a46.15,46.15,0,0,1,2.85,6.51l-.8.36a41.33,41.33,0,0,0-2.89-6.58Z"/><path class="cls-1" d="M226.46,70.07a18,18,0,0,1-2.12,3.71V84.37h-.87V74.85a23.41,23.41,0,0,1-2.53,2.43l-.27-.89a17.45,17.45,0,0,0,5-6.69Zm3.4,14a1.35,1.35,0,0,1-1.54-1.51V77.38c-.78.45-1.54.85-2.27,1.2l-.42-.83a26.31,26.31,0,0,0,2.69-1.38V69.81h.86v6a22.69,22.69,0,0,0,4.63-4l.59.67a23.68,23.68,0,0,1-5.22,4.35v5.58c0,.54.3.8.88.8h2.72a1.21,1.21,0,0,0,1-.4,8.11,8.11,0,0,0,.4-2.94l.8.26a8.83,8.83,0,0,1-.55,3.36,1.8,1.8,0,0,1-1.5.56Z"/><path class="cls-1" d="M244.32,69.71a12,12,0,0,1,.78,1.57H251v.83H239.1v3.78a19.22,19.22,0,0,1-1.69,8.37l-.66-.59a17.84,17.84,0,0,0,1.49-7.78V71.28h6a9.45,9.45,0,0,0-.8-1.41Zm-2.48,8.52v4.7c.58-.14,1.22-.34,1.94-.59l.16.81c-.86.26-1.91.54-3.16.84l-.17-.77c.25-.07.38-.19.38-.39V74.19a66.13,66.13,0,0,0,8.59-1l.44.72c-1.11.21-2.36.41-3.73.59.09,1.06.22,2,.37,2.91h4v.84H246.8c.13.64.26,1.19.38,1.64a8.23,8.23,0,0,0,1.19,2.52c.44.55.81.83,1.13.83s.58-.8.87-2.31l.7.47c-.44,1.83-.93,2.75-1.49,2.75a2.21,2.21,0,0,1-1.55-.94,9.49,9.49,0,0,1-1.5-2.77,17.34,17.34,0,0,1-.56-2.19Zm0-3.32v2.48h4c-.13-.82-.26-1.76-.38-2.81Q243.7,74.77,241.84,74.91Zm2.88,6a22.2,22.2,0,0,1,1.86,2.62l-.68.5a18.59,18.59,0,0,0-1.82-2.71Z"/><path class="cls-1" d="M255.41,74.19v1.44a17.88,17.88,0,0,1-2,8.6l-.64-.56a16.5,16.5,0,0,0,1.78-8V70.47H266v3.72Zm9.69-2.91h-9.69v2.1h9.69Zm-9,7.28h10.75v.8h-6.17A17.86,17.86,0,0,1,257.9,83q3.5-.24,6.79-.74c-.48-.59-1-1.19-1.57-1.81l.66-.4a31.82,31.82,0,0,1,3.08,3.73l-.68.5q-.45-.68-.93-1.32c-2.73.38-5.54.65-8.42.84l-.21-.77.18-.07a11.71,11.71,0,0,0,3-3.63h-3.67ZM257.22,76h8.62v.77h-8.62Z"/><path class="cls-1" d="M279.34,84.23l-.22-.85,1.58.05a.63.63,0,0,0,.71-.72V71.3H270.59v13h-.86V70.45h12.54V82.9A1.16,1.16,0,0,1,281,84.23Zm-3.68-3.49c-.56-.88-1.14-1.73-1.72-2.56a17.16,17.16,0,0,1-2.23,4.24l-.56-.67a16.87,16.87,0,0,0,2.21-4.39c-.86-1.15-1.65-2.11-2.35-2.89l.54-.55a29.65,29.65,0,0,1,2.1,2.53,32.52,32.52,0,0,0,.85-3.94l.81.15a31.75,31.75,0,0,1-1.05,4.61c.57.77,1.23,1.75,2,2.91Zm4.76.73c-.57-.94-1.17-1.92-1.81-2.92a17.14,17.14,0,0,1-2.4,4.25l-.55-.67A16.88,16.88,0,0,0,278,77.7c-.8-1.17-1.57-2.2-2.32-3.09l.56-.54a29,29,0,0,1,2.08,2.7,27.53,27.53,0,0,0,1-4.21l.81.15a29.53,29.53,0,0,1-1.2,4.92c.69,1,1.37,2.13,2.05,3.27Z"/><path class="cls-1" d="M290.45,82.15a32.08,32.08,0,0,1-5.36,1.48L285,82.8a28.53,28.53,0,0,0,5.47-1.49Zm-1.89-12.1a24.37,24.37,0,0,1-2.53,5.1,23.09,23.09,0,0,0,2.45-.44l.86-1.72.76.29a34.24,34.24,0,0,1-3.59,6,26.6,26.6,0,0,0,3.63-1v.79a27.28,27.28,0,0,1-4.65,1.17l-.24-.82a1.47,1.47,0,0,0,.4-.24,19.34,19.34,0,0,0,2.4-3.63c-1.11.22-2.06.39-2.85.49l-.21-.8a1,1,0,0,0,.37-.32,24.57,24.57,0,0,0,2.38-5.18Zm5.38-.21c-.15.47-.33.94-.53,1.41h4.48v.66a11.08,11.08,0,0,1-2.67,3.61,12.41,12.41,0,0,0,4.24,2l-.5.7A12.35,12.35,0,0,1,294.59,76a17.05,17.05,0,0,1-4.19,2.34l-.54-.7a16.52,16.52,0,0,0,4.09-2.2,10.31,10.31,0,0,1-1.76-2.22,13.4,13.4,0,0,1-1.53,1.57l-.52-.67a8.87,8.87,0,0,0,3-4.45Zm4,8.63v5.77h-.83v-.75h-4.75v.75h-.83V78.47Zm-5.58,4.22h4.75V79.25h-4.75Zm.35-10.1A9.51,9.51,0,0,0,294.56,75a10.24,10.24,0,0,0,2.38-2.93H293Z"/><path class="cls-1" d="M307.55,69.67h.9v3h5.79V80h-.88V78.91h-4.91v5.54h-.9V78.91h-4.89V80h-.88V72.63h5.77Zm-4.89,8.4h4.89V73.49h-4.89Zm5.79,0h4.91V73.49h-4.91Z"/><path class="cls-1" d="M52.64,103a21.26,21.26,0,0,1-1.9,2.44l-.28-.92a19.24,19.24,0,0,0,3.72-6.9L55,98a21,21,0,0,1-1.47,3.51v10.83h-.88Zm2.75-3.56h4.37V97.75h.85v1.72H65.1v.82H60.61V102h3.82v4.37H60.54a8.7,8.7,0,0,1-.88,3.52,12.74,12.74,0,0,0,5.8,1.65l-.23.81a13.23,13.23,0,0,1-6.05-1.77,6.69,6.69,0,0,1-4.11,1.82l-.38-.8a6,6,0,0,0,3.74-1.52,12.71,12.71,0,0,1-2.65-2.54l.68-.47a11,11,0,0,0,2.47,2.36,7.67,7.67,0,0,0,.77-3.06H56V102h3.74v-1.71H55.39Zm4.35,6.12,0-2.79H56.83v2.79Zm3.86,0V102.8h-3v2.48l0,.31Z"/><path class="cls-1" d="M71.14,98.07a12.57,12.57,0,0,1-4.26,4.52l-.27-.84a11,11,0,0,0,3.79-4Zm-2.23,7.29a14.91,14.91,0,0,1-2,1.68l-.26-.81a12,12,0,0,0,3.84-4.44l.75.36a12.77,12.77,0,0,1-1.47,2.28v7.89h-.85Zm2.75-.78h9.2v.78h-2V107H81.2v.79H78.82V111c0,.79-.42,1.19-1.25,1.19H75.78l-.18-.82c.77,0,1.32.06,1.66.06s.71-.21.71-.64v-3.08H71.12V107H78v-1.6H71.66Zm.79-6.24h7.39v4.94H72.45Zm.73,10a17.3,17.3,0,0,1,2.18,2.38l-.67.45a17.73,17.73,0,0,0-2.15-2.37Zm.1-7.94H79V99.06H73.28Zm5.73,2.1v-1.41H73.28v1.41Z"/><path class="cls-1" d="M86.72,97.91h.86v4.35H88.7v.85h-4v1.23q0,.47,0,1.29h3.1v6.68h-.86v-5.83H84.64a13.7,13.7,0,0,1-1.33,5.59l-.65-.56q1.19-2.25,1.21-7.17V98.23h.85v4h2Zm3.71,5.34v2.11a14.93,14.93,0,0,1-1.5,6.88l-.61-.62a14.32,14.32,0,0,0,1.3-6.26V98.9a24.85,24.85,0,0,0,6.81-1l.42.76a25.79,25.79,0,0,1-6.42,1v2.8h6v.76A14.17,14.17,0,0,1,94.21,109a8.61,8.61,0,0,0,3,2.59l-.43.77a9.17,9.17,0,0,1-3.14-2.66,11.27,11.27,0,0,1-3.3,2.67l-.41-.75A11,11,0,0,0,93.18,109a15.79,15.79,0,0,1-2.11-5.7Zm1.43,0a14.87,14.87,0,0,0,1.85,5,12.6,12.6,0,0,0,1.87-5Z"/><path class="cls-1" d="M102.38,112.27h-.86v-8.83a17,17,0,0,1-2.56,5l-.38-1a14.79,14.79,0,0,0,2.92-5.63H98.91V101h2.61V97.75h.86V101h2.23v.85h-2.23v1a34.47,34.47,0,0,1,2.52,2.75l-.52.75c-.75-1-1.42-1.91-2-2.59Zm3.36-12.62h-.68V98.8h7.1v.83a20.07,20.07,0,0,1-2.82,7.89,17,17,0,0,0,4,4l-.57.69a19.07,19.07,0,0,1-3.89-4,15.44,15.44,0,0,1-4.26,4l-.56-.69a16,16,0,0,0,4.29-4.1A16.62,16.62,0,0,1,105.74,99.65Zm.84,0a15.27,15.27,0,0,0,2.24,7.09,18.43,18.43,0,0,0,2.49-7.09Z"/><path class="cls-1" d="M119.14,98.07a12.57,12.57,0,0,1-4.26,4.52l-.27-.84a11,11,0,0,0,3.79-4Zm-2.23,7.29a14.91,14.91,0,0,1-2,1.68l-.26-.81a12,12,0,0,0,3.84-4.44l.75.36a12.77,12.77,0,0,1-1.47,2.28v7.89h-.85Zm2.75-.78h9.2v.78h-2V107h2.38v.79h-2.38V111c0,.79-.42,1.19-1.25,1.19h-1.79l-.18-.82c.77,0,1.32.06,1.66.06s.71-.21.71-.64v-3.08h-6.85V107H126v-1.6h-6.31Zm.79-6.24h7.39v4.94h-7.39Zm.73,10a17.3,17.3,0,0,1,2.18,2.38l-.67.45a17.73,17.73,0,0,0-2.15-2.37Zm.1-7.94H127V99.06h-5.73Zm5.73,2.1v-1.41h-5.73v1.41Z"/><path class="cls-1" d="M138.94,110.8c-2.51.53-5.16,1-7.93,1.28l-.21-.83c1.09-.11,2.36-.27,3.81-.5v-3.34h-3.23v-.83h3.23v-2h.86v2h3v.83h-3v3.2c1.22-.2,2.38-.43,3.47-.67ZM131,98.53h7.89v.83h-4.19a16.39,16.39,0,0,1-2.4,3.94q2.6-.26,5.1-.66c-.34-.56-.78-1.22-1.33-2l.68-.42a31,31,0,0,1,2.48,3.86l-.71.49c-.22-.43-.46-.87-.72-1.29q-3.06.53-6.73.86l-.2-.78.34-.08a13,13,0,0,0,2.59-3.94H131Zm9.33.7h.85v10h-.85Zm.5,13-.2-.83c1,0,1.77.06,2.23.06a.69.69,0,0,0,.77-.78V97.79h.88v13.06a1.18,1.18,0,0,1-1.35,1.33Z"/><path class="cls-1" d="M148,98.42h12.59v.83H148.8v11.57H161v.83H148ZM151,101q2.15,1.59,4.24,3.47a18.54,18.54,0,0,0,2.51-4.24l.79.41a19.52,19.52,0,0,1-2.64,4.42,50.38,50.38,0,0,1,3.58,3.6l-.66.66a41.18,41.18,0,0,0-3.48-3.6,14.24,14.24,0,0,1-5,3.6l-.5-.79a13.46,13.46,0,0,0,4.85-3.41q-2.15-1.87-4.3-3.53Z"/><path class="cls-1" d="M162.75,102.08h2V97.84h.86v4.24h1.88V103h-1.88v5.64c.88-.33,1.63-.64,2.26-.94v.86a28.51,28.51,0,0,1-5.1,1.86l-.23-.88c.82-.19,1.56-.39,2.21-.59v-6h-2Zm5.47-1.81h3V97.75h.85v2.52h3.48v4.64h1.49v.85h-4.72a12.47,12.47,0,0,0,4.85,5.83l-.58.67a13.52,13.52,0,0,1-4.91-6.11,9,9,0,0,1-4.29,6.17l-.52-.7a8.09,8.09,0,0,0,4.06-5.86h-3.39v-.85h3.53a15.62,15.62,0,0,0,.15-2.2v-1.62h-3Zm3.88.82v1.44a20,20,0,0,1-.16,2.38h2.78v-3.82Z"/><path class="cls-1" d="M181.25,98c-.16.75-.3,1.32-.42,1.72h2.61v.83h-2.85a18.4,18.4,0,0,1-1.29,3.09l-.68-.44a19.63,19.63,0,0,0,1.81-5.37Zm-1.3,4.88h3.17v.79h-1.39v2.29h1.85v.81h-1.85v4.11a8.43,8.43,0,0,0,1.55-1l.16.79a10.46,10.46,0,0,1-2.56,1.32l-.34-.72a.48.48,0,0,0,.34-.48v-4H179v-.81h1.87v-2.29H180Zm13.28,8.39-.22.85H190.8c-.33,0-.82,0-1.46,0a6.55,6.55,0,0,1-1.92-.3,3.07,3.07,0,0,1-1.4-1c-.21-.23-.38-.35-.53-.35q-.45,0-1.59,1.86l-.51-.64a5.48,5.48,0,0,1,1.75-2V104h-1.41v-.8h2.21v6.49l.3.27a3.07,3.07,0,0,0,1.23,1,6.21,6.21,0,0,0,1.59.31l1.8,0Zm-8.78-13.11a23.1,23.1,0,0,1,1.76,2.5l-.66.46a18.82,18.82,0,0,0-1.76-2.54Zm2.35,8.77h3.09v-2.24h-2.74l-.14-.75a18.24,18.24,0,0,0,1.58-3.49h-1.71v-.78h2q.32-1.14.51-1.89l.78.18-.48,1.71h3.2v.78h-3.44a20.85,20.85,0,0,1-1.52,3.47h2v-2.24h.8v2.24h2v.77h-2v2.24h2.46v.79h-2.46v2.84h-.8v-2.84H186.8Z"/><path class="cls-1" d="M194.69,102.72H198V110c.63-.5,1.31-1.09,2-1.79l.24.9a22.89,22.89,0,0,1-3.09,2.49l-.34-.78a.88.88,0,0,0,.31-.59v-6.61h-2.45Zm1.71-4.81a20.67,20.67,0,0,1,2.8,2.54l-.59.61a19.74,19.74,0,0,0-2.83-2.56Zm8.59-.12c0,1.24,0,2.47-.13,3.68a22.06,22.06,0,0,0,4.5,10l-.61.71a22.79,22.79,0,0,1-4.11-8.63c-.1.65-.21,1.28-.34,1.87a11.74,11.74,0,0,1-4.11,6.79l-.57-.72a11.29,11.29,0,0,0,3.77-6,36.19,36.19,0,0,0,.74-7.76Z"/><path class="cls-1" d="M210.86,98.77h14.2v.85h-2.18v11.1a1.31,1.31,0,0,1-1.47,1.49h-2.64l-.19-.83q1.75.06,2.52.06c.6,0,.9-.31.9-.94V99.62H210.86Zm7.92,3.57V108h-5.15v1.46h-.83v-7.12Zm-5.15,4.86H218v-4.08h-4.32Z"/><path class="cls-1" d="M228.93,110.5a2.94,2.94,0,0,1-1.6,2.77l-.35-.56a2.56,2.56,0,0,0,1.23-2l-.24,0a.85.85,0,0,1-.59-.21.75.75,0,0,1-.23-.57.78.78,0,0,1,.21-.6.84.84,0,0,1,.59-.22C228.6,109.17,228.93,109.61,228.93,110.5Z"/><path class="cls-1" d="M231.2,100.18h7A10.81,10.81,0,0,0,237,98l.83-.3a13.34,13.34,0,0,1,1.27,2.48h6V101h-8.5l-.17,3.13h6.67a42.13,42.13,0,0,1-.31,5.83,2.32,2.32,0,0,1-2.3,2.22c-.51,0-1.13,0-1.86,0l-.25-.8,2,.07c.93-.05,1.49-.7,1.68-2a42.37,42.37,0,0,0,.15-4.48h-5.89a11.47,11.47,0,0,1-1.15,3.65,14.38,14.38,0,0,1-3.28,3.71l-.64-.6a13.17,13.17,0,0,0,3.44-4,12.05,12.05,0,0,0,.94-4.17c.06-1.15.09-2,.1-2.51H231.2Z"/><path class="cls-1" d="M248.7,103.09a19.77,19.77,0,0,1-1.71,2.35l-.27-.93a19,19,0,0,0,3.39-6.75l.79.35a23.85,23.85,0,0,1-1.35,3.44v10.76h-.85Zm2.9-4.59h9.52v.83h-4.61v1.6h3.84v6h-3.87a5.65,5.65,0,0,1-1,3,13.42,13.42,0,0,0,6,1.6l-.21.78a13.48,13.48,0,0,1-6.32-1.79,9.38,9.38,0,0,1-3.78,1.79l-.46-.7a9.15,9.15,0,0,0,3.52-1.55,11.3,11.3,0,0,1-2.29-2.07l.66-.45a10,10,0,0,0,2.19,1.94,5,5,0,0,0,.91-2.58h-3.82v-6h3.84v-1.6H251.6Zm1,5h3v-1.87h-3Zm3,2.64v-1.91h-3v1.91Zm.86-4.51v1.87h3v-1.87Zm3,4.51v-1.91h-3v1.91Z"/><path class="cls-1" d="M264,98.43h12v.85h-5.34V104h6.45v.86h-6.45v5.88a1.31,1.31,0,0,1-1.5,1.47h-2.45l-.19-.85c1.08,0,1.87.06,2.35.06a.81.81,0,0,0,.93-.91v-5.65H263V104h6.74V99.28H264Z"/><path class="cls-1" d="M282.85,97.91h.86v4.35h1.12v.85h-4v1.23q0,.47,0,1.29h3.1v6.68h-.86v-5.83h-2.29a13.87,13.87,0,0,1-1.33,5.59l-.66-.56q1.19-2.25,1.22-7.17V98.23h.85v4h2Zm3.71,5.34v2.11a15.06,15.06,0,0,1-1.5,6.88l-.61-.62a14.2,14.2,0,0,0,1.29-6.26V98.9a24.87,24.87,0,0,0,6.82-1l.42.76a25.79,25.79,0,0,1-6.42,1v2.8h6v.76a14.16,14.16,0,0,1-2.2,5.76,8.61,8.61,0,0,0,3,2.59l-.44.77a9.23,9.23,0,0,1-3.13-2.66,11.4,11.4,0,0,1-3.3,2.67l-.41-.75a11,11,0,0,0,3.21-2.62,15.79,15.79,0,0,1-2.11-5.7Zm1.42,0a15.09,15.09,0,0,0,1.86,5,12.6,12.6,0,0,0,1.87-5Z"/><path class="cls-1" d="M298.51,112.27h-.86v-8.83a17,17,0,0,1-2.56,5l-.39-1a14.67,14.67,0,0,0,2.93-5.63H295V101h2.61V97.75h.86V101h2.23v.85h-2.23v1a34.43,34.43,0,0,1,2.51,2.75l-.51.75c-.76-1-1.42-1.91-2-2.59Zm3.36-12.62h-.69V98.8h7.11v.83a20.07,20.07,0,0,1-2.82,7.89,17,17,0,0,0,4,4l-.58.69a19.26,19.26,0,0,1-3.88-4,15.44,15.44,0,0,1-4.26,4l-.56-.69a16,16,0,0,0,4.29-4.1A16.51,16.51,0,0,1,301.87,99.65Zm.83,0a15.51,15.51,0,0,0,2.24,7.09,18.44,18.44,0,0,0,2.5-7.09Z"/><path class="cls-1" d="M311.28,102.42v-.85h9.14a21.91,21.91,0,0,0,2-3.95l.81.3a19.5,19.5,0,0,1-2,3.65h3.55v.85h-3.7a8.68,8.68,0,0,0,4.27,3.53l-.38.8a9.9,9.9,0,0,1-4.74-4.33h-4.59a9.59,9.59,0,0,1-4.49,4.27l-.5-.77a8.87,8.87,0,0,0,4.18-3.5Zm2.58,2.88h3.77v-1.87h.87v1.87h3.79v.86H318.5v2.24h5.88v.85H318.5v3.07h-.87v-3.07h-5.89v-.85h5.89v-2.24h-3.77Zm-.26-7.39a24.13,24.13,0,0,1,1.57,2.86l-.74.38a24.3,24.3,0,0,0-1.53-2.91Zm3.74-.21a30.32,30.32,0,0,1,1.48,2.83l-.74.38a21.56,21.56,0,0,0-1.46-2.86Z"/><path class="cls-1" d="M326.8,102.72h3.25v7.2c.64-.53,1.26-1.1,1.87-1.71l.22.91a19.79,19.79,0,0,1-2.86,2.4l-.34-.8a.74.74,0,0,0,.29-.54v-6.61H326.8Zm1.78-4.8a19.42,19.42,0,0,1,2.7,2.53l-.59.61A17.85,17.85,0,0,0,328,98.5Zm8.24,1.52h-4.6v-.85h8.9v.85H337.7v4.79h3.21V105H337.7v5.89h3.76v.85h-9.72v-.85h1.7v-8.66h.85v8.66h2.53Z"/><path class="cls-1" d="M344.82,108.64a11.89,11.89,0,0,1,1.77,1.55,14.2,14.2,0,0,1,1.35,1.6l-.63.53a14.14,14.14,0,0,0-1.33-1.58,13.55,13.55,0,0,0-1.72-1.57Z"/><path class="cls-1" d="M364.38,110.16a32.41,32.41,0,0,1-5.4,1.49l-.13-.85a27.78,27.78,0,0,0,5.53-1.49Zm-1.87-12.11a26.41,26.41,0,0,1-2.4,5.12c.83-.14,1.62-.3,2.35-.5.41-.82.71-1.44.9-1.87l.75.29a36.34,36.34,0,0,1-3.53,6.18,23.2,23.2,0,0,0,3.44-1.16v.82a22.23,22.23,0,0,1-4.48,1.31l-.23-.8a1.63,1.63,0,0,0,.4-.25,18.73,18.73,0,0,0,2.32-3.68c-.94.22-1.87.41-2.78.57l-.21-.8a.88.88,0,0,0,.37-.33,26.92,26.92,0,0,0,2.27-5.24Zm3.94,13.41v.83h-.83V102.4A19.27,19.27,0,0,1,364,105l-.27-.91a19.21,19.21,0,0,0,2.8-6.31l.83.16a23.29,23.29,0,0,1-.85,2.66h6.61v.83H370.4v2.43h2.42v.82H370.4v2.46h2.42v.82H370.4v2.7h3v.82Zm3.12-10h-3.12v2.43h3.12Zm-3.12,3.25v2.46h3.12v-2.46Zm0,3.28v2.7h3.12v-2.7Zm3.18-10.24a21.89,21.89,0,0,1,.83,2.51l-.75.27a24.1,24.1,0,0,0-.91-2.56Z"/><path class="cls-1" d="M378.51,112.27h-.86v-8.83a17,17,0,0,1-2.56,5l-.39-1a14.67,14.67,0,0,0,2.93-5.63H375V101h2.61V97.75h.86V101h2.23v.85h-2.23v1a34.43,34.43,0,0,1,2.51,2.75l-.51.75c-.76-1-1.42-1.91-2-2.59Zm3.36-12.62h-.69V98.8h7.11v.83a20.07,20.07,0,0,1-2.82,7.89,17,17,0,0,0,4,4l-.58.69a19.26,19.26,0,0,1-3.88-4,15.44,15.44,0,0,1-4.26,4l-.56-.69a16,16,0,0,0,4.29-4.1A16.51,16.51,0,0,1,381.87,99.65Zm.83,0a15.51,15.51,0,0,0,2.24,7.09,18.44,18.44,0,0,0,2.5-7.09Z"/></svg>