<svg id="图层_1" data-name="图层 1" xmlns="http://www.w3.org/2000/svg" viewBox="0 0 440 275"><defs><style>.cls-1{fill:#33353c;}</style></defs><title>币网站中英文</title><path class="cls-1" d="M48.69,14.8a14.32,14.32,0,0,1-3,2.39l-.57-.66a14.45,14.45,0,0,0,3-2.32Zm3.84,4.79q-.35,3.06-1.47,4.11c-.84.88-2.66,1.44-5.46,1.66l-.35-.78c2.56-.15,4.25-.61,5.09-1.39a5.77,5.77,0,0,0,1.31-3.68Zm-6.69-8.35a14.32,14.32,0,0,1,2.64,1.1l-.46.72a11.47,11.47,0,0,0-2.63-1.17ZM57,17.94v4.75h-.88V18.76H47.78v4H46.9V17.94Zm-5-7.07A10.87,10.87,0,0,1,51.55,12h6.58v.54a12.77,12.77,0,0,1-.8,2.32l-.83-.24a8.6,8.6,0,0,0,.73-1.84h-3a6.3,6.3,0,0,1-.32,1.17c.88,1.33,2.55,2.24,5,2.72l-.31.75q-3.61-.72-5-2.73a5.67,5.67,0,0,1-.77,1A8.35,8.35,0,0,1,49,17.38l-.34-.78a7.83,7.83,0,0,0,3.5-1.48,4.27,4.27,0,0,0,1.27-2.35H51.07a7.27,7.27,0,0,1-1.6,1.63l-.53-.68a6,6,0,0,0,2.23-3Zm.92,11.82a31.92,31.92,0,0,1,5.68,2l-.46.72a30.45,30.45,0,0,0-5.66-2.11Z"/><path class="cls-1" d="M67.92,10.6a12.87,12.87,0,0,1,.78,1.93h5.68v.83H71.55a12.12,12.12,0,0,1-.88,2.71h4v.85H63.14v2.51a10.29,10.29,0,0,1-1.78,6l-.64-.6a9.08,9.08,0,0,0,1.54-5.37V16.07h3.29l-.73-2.71h-3v-.83h6A14.16,14.16,0,0,0,67,10.74Zm-1.49,5.47h3.41a10.07,10.07,0,0,0,.86-2.71h-5Z"/><path class="cls-1" d="M82.34,13.67V24.42H81.5v-1H78.27v1.43h-.83V13.67h1.44a14.71,14.71,0,0,0,.72-2.87l.88.12a13.9,13.9,0,0,1-.77,2.75Zm-4.07,4.4H81.5V14.5H78.27Zm0,4.57H81.5V18.85H78.27Zm12.35-9q0,7.7-.22,9.59a2,2,0,0,1-2.22,1.92l-1.57,0-.21-.8c.64,0,1.2,0,1.68,0A1.41,1.41,0,0,0,89.57,23c.12-.87.19-3.69.22-8.43H85.07a14,14,0,0,1-1.61,2.8l-.52-.67a14.21,14.21,0,0,0,2.36-5.89l.84.09a19.21,19.21,0,0,1-.73,2.8Zm-5.56,3.6a28.4,28.4,0,0,1,2.78,3.52l-.69.5a25.51,25.51,0,0,0-2.8-3.57Z"/><path class="cls-1" d="M94.34,13a19.23,19.23,0,0,1,2.3,1.89,9.11,9.11,0,0,0,2-2.62H94.43v-.82h5.22v.66a9.73,9.73,0,0,1-2.08,3H103a12.93,12.93,0,0,1-2.76-3.82L101,11a12.19,12.19,0,0,0,1.18,2,8.92,8.92,0,0,0,2-1.89l.63.56a10.13,10.13,0,0,1-2.13,1.95A13.15,13.15,0,0,0,104,15,10.12,10.12,0,0,0,106.13,13l.62.56a10.64,10.64,0,0,1-2.11,2,15,15,0,0,0,2.83,1.79l-.57.64a16.52,16.52,0,0,1-3.78-2.67V16H97.33v-.58a13.57,13.57,0,0,1-4,2.53l-.53-.69A14.21,14.21,0,0,0,96,15.44a23,23,0,0,0-2.29-1.84Zm2.57,8.76a10.54,10.54,0,0,1,1.51,2.27h3.28a14.1,14.1,0,0,0,1.37-2.39l.82.31a12.51,12.51,0,0,1-1.28,2.08h4.19v.83H93.17v-.83h4.37a9.75,9.75,0,0,0-1.44-2Zm-1.25-4.23h8.74V21.3H95.66Zm7.86,2.95V18.34h-7v2.18Z"/><path class="cls-1" d="M108.75,15.8h3.3v7.42c.64-.48,1.36-1.09,2.17-1.82l.23.92a21.37,21.37,0,0,1-3.19,2.42l-.33-.77a.88.88,0,0,0,.27-.57V16.64h-2.45ZM110.46,11a20.09,20.09,0,0,1,2.8,2.54l-.59.61a19.79,19.79,0,0,0-2.83-2.56Zm12.9,10a7.91,7.91,0,0,1-.62,3.18,1.86,1.86,0,0,1-1.73.72h-4.13c-.95,0-1.42-.49-1.42-1.48V16.58h5.72v-4h-6.57V11.7H122v5.71H116.3v5.71c0,.62.3.94.88.95h3.68a1.22,1.22,0,0,0,1.27-.71,8.58,8.58,0,0,0,.38-2.65Z"/><path class="cls-1" d="M126.75,21.72a11.43,11.43,0,0,1,1.78,1.55,13.2,13.2,0,0,1,1.34,1.6l-.62.53a16.46,16.46,0,0,0-1.33-1.59,14.36,14.36,0,0,0-1.73-1.57Z"/><path class="cls-1" d="M151.63,17.65a14.36,14.36,0,0,1-2.93,3.91,18.31,18.31,0,0,0,6.48,3l-.51.8a18.66,18.66,0,0,1-6.62-3.2,16.5,16.5,0,0,1-6.63,3.26l-.52-.77a17.11,17.11,0,0,0,6.48-3.05,13.54,13.54,0,0,1-3-3.73l.76-.43A12.32,12.32,0,0,0,148,21a12.57,12.57,0,0,0,2.8-3.71ZM141,12.82h6.78a12.7,12.7,0,0,0-1-2l.94-.16a13.15,13.15,0,0,1,1,2.11H155v.82H141Zm5.12,2.1a18.59,18.59,0,0,1-4.52,4.14l-.56-.72a17.64,17.64,0,0,0,4.44-4Zm4.35-.58a31.23,31.23,0,0,1,4.46,4.29l-.64.62a30.09,30.09,0,0,0-4.43-4.33Z"/><path class="cls-1" d="M159.23,16.88V11.46h9.62v5.42h-6.27a8.13,8.13,0,0,1-1.19,1.48H170c0,1.63-.13,3-.27,4.09a4.69,4.69,0,0,1-.75,2.16,2.15,2.15,0,0,1-1.64.66h-2l-.21-.83c.61,0,1.19,0,1.76,0a1.62,1.62,0,0,0,1.66-1,16.06,16.06,0,0,0,.55-4.33h-1.8a10.62,10.62,0,0,1-6.64,6.2l-.48-.72a10,10,0,0,0,6.26-5.48H164.1a10.87,10.87,0,0,1-5.51,4.27l-.56-.67a10.42,10.42,0,0,0,5.15-3.6h-2.7a13,13,0,0,1-2.85,1.66l-.48-.75a10,10,0,0,0,4.48-3.19Zm.85-3.08H168V12.21h-7.9Zm7.9,2.32V14.53h-7.9v1.59Z"/><path class="cls-1" d="M174.75,21.72a11.43,11.43,0,0,1,1.78,1.55,13.2,13.2,0,0,1,1.34,1.6l-.62.53a16.46,16.46,0,0,0-1.33-1.59,14.36,14.36,0,0,0-1.73-1.57Z"/><path class="cls-1" d="M194.59,23.19A34.24,34.24,0,0,1,189,24.68l-.11-.85a28.91,28.91,0,0,0,5.66-1.47Zm-2-12.08a26.09,26.09,0,0,1-2.6,5.18c.86-.09,1.72-.22,2.59-.38l1-1.86.77.29a33.15,33.15,0,0,1-3.84,6,28.23,28.23,0,0,0,3.87-1v.8a29,29,0,0,1-4.91,1.18l-.24-.82a1,1,0,0,0,.38-.24,17.71,17.71,0,0,0,2.51-3.52c-1,.16-1.95.31-3,.44l-.2-.8a1,1,0,0,0,.36-.34,26.53,26.53,0,0,0,2.47-5.23Zm1.83,1.79h3.93V10.85h.87V12.9h3.92v.83h-3.92v2.66h3.45v.83H195v-.83h3.4V13.73h-3.93Zm7.69,6.19v6.26h-.83V24.5h-4.89v.85h-.85V19.09Zm-5.72,4.58h4.89V19.92h-4.89Z"/><path class="cls-1" d="M206.93,14.45h10.32v6.13h-1.94v1.26h3.76v.77h-3.76v2.83h-.85V22.61H209.7a3.8,3.8,0,0,1-.69,1.31,5.53,5.53,0,0,1-2.63,1.44l-.46-.7a5.1,5.1,0,0,0,2.42-1.25,2.72,2.72,0,0,0,.43-.8h-3.84v-.77h4a3.5,3.5,0,0,0,0-.54v-.72h-2.08Zm.29-1.76a10.61,10.61,0,0,1-1.4,1.87l-.72-.46a9.53,9.53,0,0,0,2.15-3.39l.81.17c-.1.28-.25.63-.44,1h4.17v.77h-2.32a9.21,9.21,0,0,1,.77,1.15l-.74.28a9.28,9.28,0,0,0-.92-1.43Zm.57,3.6h8.61V15.16h-8.61Zm0,1.75h8.61V17h-8.61Zm8.61,1.84v-1.2h-8.61v1.2Zm-6.53.7v.72q0,.19,0,.54h4.62V20.58Zm3.92-7.92a9,9,0,0,1-1.12,1.58l-.72-.46a9,9,0,0,0,1.78-3l.83.18-.38,1h4.76v.77h-2.89a8.45,8.45,0,0,1,.81,1.2l-.72.27a11.75,11.75,0,0,0-1-1.47Z"/><path class="cls-1" d="M223,12.77a11.94,11.94,0,0,1-1.44,2.16l-.74-.48A11.12,11.12,0,0,0,223,10.58l.83.18c-.18.49-.34.91-.49,1.26h4.32v.75h-3.06a12.94,12.94,0,0,1,1.23,1.73l-.78.29a13.18,13.18,0,0,0-1.38-2Zm-.27,2.9h4.83V14.55h.86v1.12h4.77v.77h-4.77v1.74H235V19h-3.17v1.81h2.47v.78h-2.47v2.67c0,.79-.41,1.19-1.25,1.19h-2.35l-.19-.82c1,0,1.8.06,2.26.06s.67-.2.67-.62V21.54h-9.09v-.78H231V19H220.94v-.77h6.63V16.44h-4.83Zm1.5,6.49a20.53,20.53,0,0,1,2.26,2.31l-.68.49a16.85,16.85,0,0,0-2.28-2.35Zm5.34-9.4a9.15,9.15,0,0,1-1.1,1.74l-.7-.45a10.19,10.19,0,0,0,1.77-3.49l.83.18a13.17,13.17,0,0,1-.44,1.26h4.83v.76h-3.15a11.33,11.33,0,0,1,1.18,1.72l-.77.29a11.91,11.91,0,0,0-1.34-2Z"/><path class="cls-1" d="M237.06,16.92H239v-4h-2.18v-.83H242v.83h-2.15v4h1.92v.83h-1.92V21.7c.79-.26,1.56-.53,2.31-.82v.85A38.62,38.62,0,0,1,237,23.27l-.21-.83c.84-.16,1.6-.33,2.26-.5V17.75h-1.95Zm5.66-5.28H251v.86h-3.2q-.25.88-.57,1.74V25.43h-.87V16.18a17.06,17.06,0,0,1-3.63,4.69l-.51-.69a16.41,16.41,0,0,0,4.72-7.68h-4.21Zm5.55,4.3a37.42,37.42,0,0,1,3,4.35l-.71.51a34.22,34.22,0,0,0-3-4.43Z"/><path class="cls-1" d="M253.09,12.47h3.82V10.8h.88v1.67h4.42V10.8h.88v1.67h3.82v.86h-3.82V15h-.88V13.33h-4.42V15h-.88V13.33h-3.82Zm5.36,4.3h-4.66v-.85h11.76c-.06,2.59-.12,4.08-.16,4.5a3.5,3.5,0,0,1-.48,1.86,2,2,0,0,1-1.52.49l-1.69,0-.23-.85,1.71,0a1.36,1.36,0,0,0,1-.37,3.07,3.07,0,0,0,.41-1.76l.05-3.06H259.3v8.59h-.85Z"/><path class="cls-1" d="M269.81,12.76h2.38V10.84h.87v1.92h1.79v.8h-1.79v2.28h.7a14.47,14.47,0,0,0,2.43-4.12l.75.32a14.9,14.9,0,0,1-2.09,3.8h2v.8h-2.67a14.12,14.12,0,0,1-2,1.81H276v7h-.81v-.77h-3.8v.78h-.83V19.48c-.54.28-1,.53-1.5.73l-.47-.69A14.18,14.18,0,0,0,273,16.64h-3.95v-.8h3.13V13.56h-2.38Zm5.41,8.41v-2h-3.8v2Zm-3.8.77v1.89h3.8V21.94Zm6.32-10.32h5v.67Q282,14.63,281.09,17A7.63,7.63,0,0,1,282.86,21a2.1,2.1,0,0,1-.6,1.73,4.48,4.48,0,0,1-2.58.51l-.26-.86c.32,0,.59.05.8.05a2.67,2.67,0,0,0,1.48-.32A1.65,1.65,0,0,0,282,21,7.62,7.62,0,0,0,280.19,17c.57-1.37,1.11-2.9,1.62-4.57h-3.22V25.38h-.85Z"/><path class="cls-1" d="M287.31,18.61a21.82,21.82,0,0,1-2.16,2.05l-.56-.7a19,19,0,0,0,4.91-6h-4.35v-.85h4.75q.47-1.1.87-2.37l.88.1a18.81,18.81,0,0,1-.8,2.27h8.21v.85h-8.6a20.49,20.49,0,0,1-2.28,3.65v7.85h-.87Zm2.47-.25h3.8V15.27h.88v3.09h3.89v.86h-3.89V24h4.64v.85h-10V24h4.51V19.22h-3.8Z"/><path class="cls-1" d="M303.63,21.68a16.47,16.47,0,0,1-2.13,3.65l-.7-.49a14.72,14.72,0,0,0,2.1-3.52Zm3.68-10.89h.85v1.68h6.3v.81h-6.3v2.31h5.1V20.5H302.94V15.59h4.37Zm5.11,8.89V16.4h-8.61v3.28Zm-6.29,2.08c.35,1.18.64,2.34.88,3.49l-.88.21a20.81,20.81,0,0,0-.82-3.52Zm3.36-.14a31.77,31.77,0,0,1,1.28,3.6l-.87.21a19.5,19.5,0,0,0-1.21-3.63Zm3.36-.29a25.68,25.68,0,0,1,2.33,3.57l-.7.5a28.93,28.93,0,0,0-2.34-3.62Z"/><path class="cls-1" d="M318.78,14.48a16.18,16.18,0,0,1-1.58,1.62l-.45-.69a12.59,12.59,0,0,0,3.3-4.62l.8.21a11.8,11.8,0,0,1-.61,1.34H324a14.72,14.72,0,0,0-.68-1.46l.86-.16c.24.52.45,1,.66,1.62h5.28v.77h-5.2v1.28h4.64v.7H324.9v1.25h4.64V17H324.9V18.4h5.48v.76h-11.6Zm-1.63,7v-.81h6.47v-1h.86v1h6.37v.81h-5.12A11.27,11.27,0,0,0,331,24.21l-.36.77a11.73,11.73,0,0,1-5.78-3.54h-.4v4h-.86v-4h-.44q-1.47,2.1-5.74,3.62l-.46-.75q4-1.24,5.39-2.87Zm6.9-7V13.11h-4.26l-.19.3v1Zm0,1.95V15.09H319.6v1.25Zm0,2.06V17H319.6V18.4Z"/><path class="cls-1" d="M335.31,11c-.16.74-.3,1.32-.41,1.71h2.6v.83h-2.84a19.27,19.27,0,0,1-1.3,3.09l-.67-.43a20.27,20.27,0,0,0,1.81-5.38ZM334,15.91h3.16v.78h-1.39V19h1.86v.82h-1.86v4.11a9.63,9.63,0,0,0,1.55-1l.16.78A10.3,10.3,0,0,1,334.94,25l-.33-.72a.5.5,0,0,0,.33-.48v-4h-1.87V19h1.87V16.69H334Zm13.28,8.38-.23.85h-2.21l-1.45,0a6.12,6.12,0,0,1-1.92-.31,3.07,3.07,0,0,1-1.41-1,.78.78,0,0,0-.53-.35c-.3,0-.82.61-1.58,1.85l-.51-.64a5.57,5.57,0,0,1,1.74-2V17.06h-1.41v-.8H340v6.5a1.27,1.27,0,0,1,.3.27,3.22,3.22,0,0,0,1.24,1,6.08,6.08,0,0,0,1.58.3l1.81,0Zm-8.79-13.1a21.74,21.74,0,0,1,1.76,2.49l-.65.47a20.14,20.14,0,0,0-1.76-2.55ZM340.86,20H344V17.72h-2.73l-.15-.76a17.52,17.52,0,0,0,1.59-3.48h-1.72v-.79h2c.22-.76.39-1.38.51-1.89l.79.18-.48,1.71h3.2v.79h-3.44A23.09,23.09,0,0,1,342,17h2V14.71h.8V17h2v.77h-2V20h2.47v.78h-2.47v2.85H344V20.74h-3.09Z"/><path class="cls-1" d="M354.8,10.8h.9v5.06h5.92v.83H355.7v7.17h7.4v.85H348.94v-.85h5.86Z"/><path class="cls-1" d="M365.09,18.6h13.84v.84h-4.64v4.15a.64.64,0,0,0,.73.72h2.23A.83.83,0,0,0,378,24a5.91,5.91,0,0,0,.37-2.3l.82.26a5.88,5.88,0,0,1-.58,2.76,1.46,1.46,0,0,1-1.17.42h-2.65a1.21,1.21,0,0,1-1.35-1.38V19.44h-2.89v.18a5.76,5.76,0,0,1-1.28,3.78,8.41,8.41,0,0,1-3.92,2.08l-.5-.77a7.82,7.82,0,0,0,3.78-1.89,5.14,5.14,0,0,0,1.05-3.2v-.18h-4.57Zm13.6-6v3.44h-.87V13.46H366.14v2.61h-.86V12.63h6.3a13.68,13.68,0,0,0-.67-1.65l1-.16a14,14,0,0,1,.64,1.81Zm-11.17,3h8.9v.83h-8.9Z"/><path class="cls-1" d="M393.94,16a18.55,18.55,0,0,1-2.55,5.44,9.45,9.45,0,0,0,.85,1.58c.58.8,1.05,1.2,1.42,1.2s.66-.87.92-2.57l.78.41c-.35,2.08-.86,3.12-1.54,3.12s-1.37-.48-2.12-1.44a7.1,7.1,0,0,1-.9-1.53,11.18,11.18,0,0,1-4.08,3.13l-.5-.73a11,11,0,0,0,4.2-3.3,15.85,15.85,0,0,1-.63-1.95,30.29,30.29,0,0,1-.67-5.17h-5.79v2.91h3.92a31.57,31.57,0,0,1-.29,5,1.37,1.37,0,0,1-1.39,1.12c-.4,0-.87,0-1.41,0l-.27-.8,1.58.06c.41,0,.66-.31.75-.83a28.26,28.26,0,0,0,.16-3.7h-3.05v.74a11.88,11.88,0,0,1-1.83,6.75l-.65-.59a10.84,10.84,0,0,0,1.63-6.16v-5.3h6.61c0-.83,0-1.69,0-2.59h.86c0,.66,0,1.53.07,2.59H395v.82h-5a27.18,27.18,0,0,0,.64,5c.12.45.25.89.38,1.31a16.83,16.83,0,0,0,2.13-4.8Zm-2.16-5.17a14.65,14.65,0,0,1,2,1.82l-.57.56a16.28,16.28,0,0,0-2-1.85Z"/><path class="cls-1" d="M141.39,42.37h.87V44a11.56,11.56,0,0,1-.72,3.92h5.37v.81h-5.76a6.7,6.7,0,0,1-.62,1,36.12,36.12,0,0,1,6.3,3.07l-.49.75a32.64,32.64,0,0,0-6.32-3.2,13.85,13.85,0,0,1-6.1,3.11l-.48-.74q4.4-1.19,6.21-3.23c.12-.15.28-.39.49-.71H133v-.81h7.54a9.88,9.88,0,0,0,.81-3.92Zm5-1.81v3h-.88V41.38H134.46v2.29h-.88V40.56h6.15c-.24-.66-.48-1.24-.72-1.76l.91-.16q.36.91.66,1.92Zm-11.09,4.12a17.86,17.86,0,0,1,3.36,1.74l-.47.7a15.52,15.52,0,0,0-3.32-1.8Zm1-2.45a16.73,16.73,0,0,1,3.24,1.71l-.46.69a13.14,13.14,0,0,0-3.22-1.78Z"/><path class="cls-1" d="M149.06,44.84H151v-4h-2.18V40H154v.81h-2.15v4h1.92v.83h-1.92v4c.73-.25,1.45-.52,2.18-.82v.85A33.24,33.24,0,0,1,149,51.28l-.21-.83c.75-.16,1.49-.33,2.23-.53V45.67h-1.95Zm9-3.25h.81v4a9.72,9.72,0,0,1-1.23,5.08,7.63,7.63,0,0,1-3.82,2.77l-.5-.73A7.07,7.07,0,0,0,157,50,9.29,9.29,0,0,0,158,45.56Zm3.92-2.08v8.75h-.87V40.34h-5.15v7.92h-.86V39.51ZM160,53.16A1,1,0,0,1,158.85,52V48.2h.86v3.61c0,.35.19.53.56.53h1.25a.76.76,0,0,0,.66-.26,4.68,4.68,0,0,0,.35-1.95l.8.27a5,5,0,0,1-.53,2.39,1.54,1.54,0,0,1-1.12.37Z"/><path class="cls-1" d="M174.67,47.43A44.4,44.4,0,0,1,178.43,53l-.73.51c-.23-.44-.51-.94-.85-1.49-3.5.38-7,.7-10.64.94l-.15-.73q2.1-1.14,4.34-5.73h-5.47v-.86h6.64v-3.3h-5.65v-.85h5.65V38.84h.86v2.65h5.62v.85h-5.62v3.3h6.63v.86h-7.7a18.58,18.58,0,0,1-3.73,5.62q6.47-.52,8.75-.82-1-1.61-2.4-3.42Z"/><path class="cls-1" d="M187.55,38.74h.9v3h5.79v7.36h-.88V48h-4.91v5.53h-.9V48h-4.89v1.07h-.88V41.7h5.77Zm-4.89,8.4h4.89V42.56h-4.89Zm5.79,0h4.91V42.56h-4.91Z"/><path class="cls-1" d="M199.42,44.12a29.87,29.87,0,0,1-2,6.91l-.76-.48a28.17,28.17,0,0,0,1.88-6.61Zm3,8.76c-1,0-1.52-.48-1.52-1.44V42.16h.88v9.09c0,.51.29.77.89.77h3.17a1,1,0,0,0,.93-.46,10.78,10.78,0,0,0,.46-3.52l.82.27a10.08,10.08,0,0,1-.66,4,1.57,1.57,0,0,1-1.37.6Zm.3-14a32.73,32.73,0,0,1,3.52,4l-.74.49a29.49,29.49,0,0,0-3.5-4Zm5.82,4.47a46.15,46.15,0,0,1,2.85,6.51l-.8.35a42.15,42.15,0,0,0-2.89-6.58Z"/><path class="cls-1" d="M218.46,39.14a18,18,0,0,1-2.12,3.71V53.44h-.87V43.92a22.56,22.56,0,0,1-2.53,2.44l-.27-.9a17.38,17.38,0,0,0,5-6.69Zm3.4,14a1.34,1.34,0,0,1-1.54-1.5V46.45c-.78.45-1.54.85-2.27,1.2l-.42-.83a22.81,22.81,0,0,0,2.69-1.38V38.88h.86v6a22.09,22.09,0,0,0,4.63-4l.59.67a23.15,23.15,0,0,1-5.22,4.35v5.59c0,.53.3.8.88.8h2.72a1.24,1.24,0,0,0,1-.4,8.24,8.24,0,0,0,.4-2.95l.8.26a8.74,8.74,0,0,1-.55,3.36,1.8,1.8,0,0,1-1.5.56Z"/><path class="cls-1" d="M230.75,49.72a11.43,11.43,0,0,1,1.78,1.55,13.2,13.2,0,0,1,1.34,1.6l-.62.53a16.46,16.46,0,0,0-1.33-1.59,14.36,14.36,0,0,0-1.73-1.57Z"/><path class="cls-1" d="M254.67,47.43A44.4,44.4,0,0,1,258.43,53l-.73.51c-.23-.44-.51-.94-.85-1.49-3.5.38-7.05.7-10.64.94l-.15-.73q2.1-1.14,4.34-5.73h-5.47v-.86h6.64v-3.3h-5.65v-.85h5.65V38.84h.86v2.65h5.62v.85h-5.62v3.3h6.63v.86h-7.7a18.58,18.58,0,0,1-3.73,5.62q6.47-.52,8.75-.82-1-1.61-2.4-3.42Z"/><path class="cls-1" d="M261.6,39.6h12.85v.87h-6.08v6.32H275v.85h-6.67V53.4h-.87V47.64H261v-.85h6.54V40.47h-5.9Zm1.73,2.1a32.49,32.49,0,0,1,1.76,3.7l-.82.4a29.56,29.56,0,0,0-1.74-3.72Zm10.21.26a21.92,21.92,0,0,1-2,3.79l-.78-.4a20.32,20.32,0,0,0,2-3.76Z"/><path class="cls-1" d="M277.38,44.26q2.33-1,5.36-5.47l.88.3A22.3,22.3,0,0,1,279,44.23q5.2-.23,9.39-.64c-.7-1-1.4-1.84-2.11-2.64l.8-.39A44.9,44.9,0,0,1,291,45.88l-.83.41c-.31-.51-.73-1.16-1.26-1.93q-5.08.48-11.39.72Zm11.87,2.61v6.56h-.87v-.91h-8.76v.91h-.87V46.87Zm-9.63,4.8h8.76v-4h-8.76Z"/><path class="cls-1" d="M298.46,39.14a18,18,0,0,1-2.12,3.71V53.44h-.87V43.92a22.56,22.56,0,0,1-2.53,2.44l-.27-.9a17.38,17.38,0,0,0,5-6.69Zm3.4,14a1.34,1.34,0,0,1-1.54-1.5V46.45c-.78.45-1.54.85-2.27,1.2l-.42-.83a22.81,22.81,0,0,0,2.69-1.38V38.88h.86v6a22.09,22.09,0,0,0,4.63-4l.59.67a23.15,23.15,0,0,1-5.22,4.35v5.59c0,.53.3.8.88.8h2.72a1.24,1.24,0,0,0,1-.4,8.24,8.24,0,0,0,.4-2.95l.8.26a8.74,8.74,0,0,1-.55,3.36,1.8,1.8,0,0,1-1.5.56Z"/><path class="cls-1" d="M71.31,67c-.16.74-.3,1.32-.41,1.71h2.6v.83H70.66a19.27,19.27,0,0,1-1.3,3.09l-.67-.43a20.27,20.27,0,0,0,1.81-5.38ZM70,71.91h3.16v.78H71.79V75h1.86v.82H71.79v4.11a9.63,9.63,0,0,0,1.55-1l.16.78A10.3,10.3,0,0,1,70.94,81l-.33-.72a.5.5,0,0,0,.33-.48v-4H69.07V75h1.87V72.69H70ZM83.3,80.29l-.23.85H80.86l-1.45,0a6.12,6.12,0,0,1-1.92-.31,3.07,3.07,0,0,1-1.41-1,.78.78,0,0,0-.53-.35c-.3,0-.82.61-1.58,1.85l-.51-.64a5.57,5.57,0,0,1,1.74-2V73.06H73.79v-.8H76v6.5a1.27,1.27,0,0,1,.3.27,3.22,3.22,0,0,0,1.24,1,6.08,6.08,0,0,0,1.58.3l1.81,0Zm-8.79-13.1a21.74,21.74,0,0,1,1.76,2.49l-.65.47a20.14,20.14,0,0,0-1.76-2.55ZM76.86,76H80V73.72H77.22L77.07,73a17.52,17.52,0,0,0,1.59-3.48H76.94v-.79h2c.22-.76.39-1.38.51-1.89l.79.18-.48,1.71h3.2v.79H79.49A23.09,23.09,0,0,1,78,73h2V70.71h.8V73h2v.77h-2V76h2.47v.78H80.75v2.85H80V76.74H76.86Z"/><path class="cls-1" d="M84.93,67.75H99.06v.85H92v2.67a64.23,64.23,0,0,1,6.14,3.6l-.51.77A64.85,64.85,0,0,0,92,72.16v9.28h-.85V68.6H84.93Z"/><path class="cls-1" d="M105.12,67.11a19.93,19.93,0,0,1-1.41,3.34v11h-.86v-9.5a18.3,18.3,0,0,1-2,2.61l-.29-1a18.39,18.39,0,0,0,3.81-6.83Zm4.62-.29c.28.78.53,1.62.76,2.51h4.27v.82H110.9a20.82,20.82,0,0,0,1,4.46,13.72,13.72,0,0,0,2.48-2.17l.55.68a14.53,14.53,0,0,1-2.76,2.26,13.71,13.71,0,0,0,3.22,4.94l-.53.82q-3.94-3.93-4.75-11h-.27a16.92,16.92,0,0,1-1.87,3.76v6.14a24,24,0,0,0,3.28-1.28l.14.83a31.92,31.92,0,0,1-4.5,1.62l-.17-.77a.5.5,0,0,0,.38-.49V75a16.13,16.13,0,0,1-2.43,2.3l-.45-.75a13.71,13.71,0,0,0,4.75-6.43H105.1v-.82h4.53a19.08,19.08,0,0,0-.8-2.35Z"/><path class="cls-1" d="M119.36,78A15.27,15.27,0,0,1,118,81.49l-.78-.3a15,15,0,0,0,1.38-3.44Zm-1.68-10.45h4.37V76.9h-4.37Zm.86,4.25h2.69V68.31h-2.69Zm2.69,4.34V72.58h-2.69V76.1Zm.9,1.87c.29,1,.54,2.11.77,3.28l-.85.21a24,24,0,0,0-.72-3.31Zm1-9.63v-.83h7.23a13.85,13.85,0,0,1-.31,3.39,1.62,1.62,0,0,1-1.71,1.15L127.18,72l-.25-.75,1.34.06a1,1,0,0,0,1.06-.88,10,10,0,0,0,.16-2.08h-3.11c-.17,1.77-1.25,3.07-3.26,3.89l-.46-.72q2.66-1,2.89-3.17Zm.38,4.54h6.56v4h-6.56Zm5.71,3.24V73.67h-4.86v2.45Zm-3.69,1.74a27.5,27.5,0,0,1,1.15,3.36l-.85.21a20.79,20.79,0,0,0-1.1-3.39Zm3.31-.26A24.69,24.69,0,0,1,131,81l-.69.5A23.5,23.5,0,0,0,128.16,78Z"/><path class="cls-1" d="M135.31,67c-.16.74-.3,1.32-.41,1.71h2.6v.83h-2.84a19.27,19.27,0,0,1-1.3,3.09l-.67-.43a20.27,20.27,0,0,0,1.81-5.38ZM134,71.91h3.16v.78h-1.39V75h1.86v.82h-1.86v4.11a9.63,9.63,0,0,0,1.55-1l.16.78A10.3,10.3,0,0,1,134.94,81l-.33-.72a.5.5,0,0,0,.33-.48v-4h-1.87V75h1.87V72.69H134Zm13.28,8.38-.23.85h-2.21l-1.45,0a6.12,6.12,0,0,1-1.92-.31,3.07,3.07,0,0,1-1.41-1,.78.78,0,0,0-.53-.35c-.3,0-.82.61-1.58,1.85l-.51-.64a5.57,5.57,0,0,1,1.74-2V73.06h-1.41v-.8H140v6.5a1.27,1.27,0,0,1,.3.27,3.22,3.22,0,0,0,1.24,1,6.08,6.08,0,0,0,1.58.3l1.81,0Zm-8.79-13.1a21.74,21.74,0,0,1,1.76,2.49l-.65.47a20.14,20.14,0,0,0-1.76-2.55ZM140.86,76H144V73.72h-2.73l-.15-.76a17.52,17.52,0,0,0,1.59-3.48h-1.72v-.79h2c.22-.76.39-1.38.51-1.89l.79.18-.48,1.71h3.2v.79h-3.44A23.09,23.09,0,0,1,142,73h2V70.71h.8V73h2v.77h-2V76h2.47v.78h-2.47v2.85H144V76.74h-3.09Z"/><path class="cls-1" d="M154.8,66.8h.9v5.06h5.92v.83H155.7v7.17h7.4v.85H148.94v-.85h5.86Z"/><path class="cls-1" d="M165,67.51H179v.8h-4.83V70H178v3.85h-6.75c-.25.46-.55,1-.91,1.65h8.85v.82h-3.51a5.3,5.3,0,0,1-1.9,2.64c1.68.52,3.42,1.14,5.2,1.85l-.53.71q-2.65-1.12-5.47-2l-.07,0a22.92,22.92,0,0,1-7.45,1.92l-.34-.78a24.51,24.51,0,0,0,6.79-1.52c-1.36-.42-2.75-.79-4.16-1.11.38-.57.75-1.15,1.1-1.72h-4.11v-.82h4.61l.94-1.65H166V70h3.82V68.31H165ZM169.79,73V70.71h-3V73Zm5,3.24h-5c-.34.54-.63,1-.88,1.36q1.83.39,3.87,1A4.61,4.61,0,0,0,174.83,76.28ZM173.39,70V68.31h-2.78V70Zm0,3.08V70.71h-2.78V73Zm3.81,0V70.71h-3V73Z"/><path class="cls-1" d="M181.18,69.84h6.5V66.76h.86v3.08h6.24v.85h-6.24v.91a14.6,14.6,0,0,0,1.72,3.09,13.43,13.43,0,0,0,3.07-3l.65.59a14.63,14.63,0,0,1-3.26,3.06,18.45,18.45,0,0,0,4.54,4.11l-.59.69a17.73,17.73,0,0,1-6.13-7v6.83c0,.91-.43,1.36-1.31,1.36H185.1l-.19-.83c.94,0,1.61.06,2,.06s.75-.27.75-.81V74.84a23.15,23.15,0,0,1-6.16,5.47l-.46-.79a21.87,21.87,0,0,0,6.62-5.77V70.69h-6.5ZM182.56,72a21.94,21.94,0,0,1,2.8,3l-.59.59a20.71,20.71,0,0,0-2.82-3Zm8.05-5.09a18.51,18.51,0,0,1,2.48,2.23l-.59.61A15.29,15.29,0,0,0,190,67.41Z"/><path class="cls-1" d="M199.31,74.61a21.82,21.82,0,0,1-2.16,2l-.56-.7a19,19,0,0,0,4.91-6h-4.35v-.85h4.75q.47-1.09.87-2.37l.88.1a18.81,18.81,0,0,1-.8,2.27h8.21v.85h-8.6a20.49,20.49,0,0,1-2.28,3.65v7.85h-.87Zm2.47-.25h3.8V71.27h.88v3.09h3.89v.86h-3.89V80h4.64v.85h-10V80h4.51V75.22h-3.8Z"/><path class="cls-1" d="M220.32,66.82a23.69,23.69,0,0,0,7.1,5.7l-.46.8a23,23,0,0,1-7-5.72,23.22,23.22,0,0,1-7,5.75l-.45-.82a23.79,23.79,0,0,0,7.15-5.71Zm4.62,8.27v6.29h-.84v-1h-8.2v1h-.84V75.09ZM215.87,72h8.26v.85h-8.26Zm0,7.54h8.2V75.92h-8.2Z"/><path class="cls-1" d="M229.17,69.27h2.38V67h.87v2.29h2.25v.83h-2.25v2.64l0,.27h2.5v.83h-2.53q0,.69-.15,1.35c.95,1,1.9,2,2.84,3.13l-.5.72a30.37,30.37,0,0,0-2.48-3,9.84,9.84,0,0,1-2.72,5.46l-.66-.58q2.48-2.31,2.8-7H229V73h2.58V70.1h-2.38Zm9.31.61h.82v2.75A12,12,0,0,1,238,78.32a7.78,7.78,0,0,1-3.9,3.12l-.47-.72a7.66,7.66,0,0,0,3.78-3,11.52,11.52,0,0,0,1-5.09ZM242,67.54V76.2h-.85V68.36h-4.53V76.2h-.84V67.54ZM240.38,81.2c-.75,0-1.13-.41-1.13-1.23V76.34h.81v3.47c0,.42.2.63.58.63h.88a.85.85,0,0,0,.69-.26,4.3,4.3,0,0,0,.37-1.92l.75.26a4.71,4.71,0,0,1-.55,2.35,1.58,1.58,0,0,1-1.12.33Z"/><path class="cls-1" d="M250.34,69.67V80.42h-.84v-1h-3.23v1.43h-.83V69.67h1.44a14.71,14.71,0,0,0,.72-2.87l.88.12a13.9,13.9,0,0,1-.77,2.75Zm-4.07,4.4h3.23V70.5h-3.23Zm0,4.57h3.23V74.85h-3.23Zm12.35-9q0,7.69-.22,9.59a2,2,0,0,1-2.22,1.92l-1.57,0-.21-.8c.64,0,1.2,0,1.68,0A1.41,1.41,0,0,0,257.57,79c.12-.87.19-3.69.22-8.43h-4.72a14,14,0,0,1-1.61,2.8l-.52-.67a14.21,14.21,0,0,0,2.36-5.89l.84.09a19.21,19.21,0,0,1-.73,2.8Zm-5.56,3.6a28.4,28.4,0,0,1,2.78,3.52l-.69.5a25.51,25.51,0,0,0-2.8-3.57Z"/><path class="cls-1" d="M271.74,67a11.35,11.35,0,0,1-1.13,1.9h4.51v.86H260.86V68.9h4.56a9.68,9.68,0,0,0-1.1-2l.9-.15a15.82,15.82,0,0,1,1.12,2.13h3.32a15.93,15.93,0,0,0,1.24-2.21Zm-6.62,14.3-.24-.85,1.22,0q.72,0,.72-.81V77.86h-3.91v3.57h-.85V71.28h5.6v8.56c0,1-.42,1.46-1.28,1.46Zm-2.21-7.09h3.91V72.1h-3.91Zm0,2.85h3.91V75h-3.91ZM269.68,72h.86V78.9h-.86Zm.82,9.28-.2-.81c.71,0,1.37,0,2,0s.75-.26.75-.8V70.77h.86v9.14a1.17,1.17,0,0,1-1.31,1.34Z"/><path class="cls-1" d="M277.2,81.25l-.19-.83c.64,0,1.1.06,1.37.06s.61-.17.61-.51V75.52q-1,.41-2,.72l-.23-.86a19.25,19.25,0,0,0,2.24-.7V70.82h-2.05V70H279v-3.1h.87V70h1.72v.85h-1.72v3.49c.54-.26,1.05-.51,1.52-.77v.88l-1.52.74v5c0,.71-.39,1.07-1.17,1.07Zm4.58-7.13h9.1v.8h-4.1V77h3.48v.78h-3.48v2.37a16.85,16.85,0,0,0,2.44.16c.63,0,1.31,0,2.06-.06l-.24.86-1.76,0a10.13,10.13,0,0,1-4.3-.61,4.67,4.67,0,0,1-1.73-2.08,9.55,9.55,0,0,1-1.73,3l-.64-.58A8.49,8.49,0,0,0,283,75.72l.78.09a8.87,8.87,0,0,1-.24,1.65,4.5,4.5,0,0,0,1.89,2.3,5.14,5.14,0,0,0,.55.2v-5h-4.16Zm1.16-6.71h6.85V72.8h-6.85Zm.85,2.37h5.14V68.15h-5.14Zm5.14,2.29V70.48h-5.14v1.59Z"/><path class="cls-1" d="M292.93,67.75h14.13v.85H300v2.67a64.23,64.23,0,0,1,6.14,3.6l-.51.77A64.85,64.85,0,0,0,300,72.16v9.28h-.85V68.6h-6.22Z"/><path class="cls-1" d="M319.36,81.11l-2.82,0a10.83,10.83,0,0,1-2.46-.31,3.59,3.59,0,0,1-1.7-1.18q-.3-.42-.6-.42c-.44,0-1.12.74-2,2.23l-.66-.58a5.87,5.87,0,0,1,2.32-2.43V73.27H309v-.83h3.19v6a1.23,1.23,0,0,1,.49.43,3.64,3.64,0,0,0,1.3,1,6.76,6.76,0,0,0,2.16.34l3.07,0h2.24l1.73-.06-.21.88Zm-9.41-14a20.25,20.25,0,0,1,2.72,2.46l-.61.63a17.65,17.65,0,0,0-2.72-2.51Zm4,2.29h2V66.79h.85v2.64h2.78V66.82h.86v2.61h2.12v.81h-2.12v3.44H323v.84h-2.64v4.75h-.86V74.52h-3.07a7,7,0,0,1-2.51,4.38l-.52-.69a5.9,5.9,0,0,0,2.18-3.69h-2.24v-.84h2.38a13.47,13.47,0,0,0,.15-2.08V70.24h-2Zm2.82.81v1.17a16.12,16.12,0,0,1-.15,2.27h2.93V70.24Z"/><path class="cls-1" d="M329.26,67.33A12.58,12.58,0,0,1,325,72l-.28-.86a11.26,11.26,0,0,0,3.78-4.2ZM330,71a13.77,13.77,0,0,1-1.84,2.69v7.74h-.85V74.55a26.06,26.06,0,0,1-2.27,1.81l-.28-.87a13.45,13.45,0,0,0,4.47-4.88Zm.36,1.07h8.76v.85h-2.66v7A1.31,1.31,0,0,1,335,81.33h-2.32l-.19-.83c1,0,1.76.06,2.21.06a.8.8,0,0,0,.91-.91V72.9h-5.22Zm.47-4.11h7.55v.85h-7.55Z"/><path class="cls-1" d="M351.63,73.65a14.36,14.36,0,0,1-2.93,3.91,18.31,18.31,0,0,0,6.48,3l-.51.8a18.66,18.66,0,0,1-6.62-3.2,16.5,16.5,0,0,1-6.63,3.26l-.52-.77a17.11,17.11,0,0,0,6.48-3,13.54,13.54,0,0,1-3-3.73l.76-.43A12.32,12.32,0,0,0,348,77a12.57,12.57,0,0,0,2.8-3.71ZM341,68.82h6.78a12.7,12.7,0,0,0-1-1.95l.94-.16a13.15,13.15,0,0,1,1,2.11H355v.82H341Zm5.12,2.1a18.59,18.59,0,0,1-4.52,4.14l-.56-.72a17.64,17.64,0,0,0,4.44-4Zm4.35-.58a31.23,31.23,0,0,1,4.46,4.29l-.64.62a30.09,30.09,0,0,0-4.43-4.33Z"/><path class="cls-1" d="M358.35,72.76h2.51V71.41h-3.21v-.72h3.21V69.8h.87v.89h3.18v.72h-3.18v1.35h2.53v.7h-2.53v1.39h3.63v.72h-3.63v.93h-.87v-.93H357.3v-.72h3.56V73.46h-2.51Zm7.19-4.6v2.45h-.82V68.93h-6.59v1.7h-.82V68.16h3.52a8.7,8.7,0,0,0-.72-1.29l.87-.16a14.31,14.31,0,0,1,.7,1.45ZM364.82,77v4.41H364v-.72h-5.12v.66h-.82V77Zm-5.94,2.94H364V77.75h-5.12Zm7.82-11.62h.82v9.94h-.82Zm.66,12.92-.18-.82c.86,0,1.47.06,1.84.06s.68-.25.68-.76V66.85h.86V79.92q0,1.32-1.23,1.32Z"/></svg>