<svg id="图层_1" data-name="图层 1" xmlns="http://www.w3.org/2000/svg" viewBox="0 0 441 276"><defs><style>.cls-1{fill:#33353c;}</style></defs><title>121212</title><path class="cls-1" d="M50.12,10.49h1.3l5.15,12.85H55.36l-1.49-3.83H47.68l-1.49,3.83H45ZM48,18.57h5.47l-2.7-6.89h-.05Z"/><path class="cls-1" d="M64.58,16.65H63.52a2.21,2.21,0,0,0-.77-1.42,3.7,3.7,0,0,0-3.56-.09,1.23,1.23,0,0,0,.18,2.25,12.49,12.49,0,0,0,2,.65,9.37,9.37,0,0,1,2.41.86,2.1,2.1,0,0,1,1.12,1.87q0,2.83-3.78,2.83-3.58,0-3.91-3.19h1.06a2.53,2.53,0,0,0,.86,1.76,3.22,3.22,0,0,0,1.94.49q2.7,0,2.7-1.84a1.41,1.41,0,0,0-.92-1.3,12.39,12.39,0,0,0-2.07-.65,9,9,0,0,1-2.27-.83,2,2,0,0,1-1.06-1.78,2.1,2.1,0,0,1,1-1.82,4.18,4.18,0,0,1,2.45-.67Q64.18,13.79,64.58,16.65Z"/><path class="cls-1" d="M73.45,16.65H72.39a2.21,2.21,0,0,0-.77-1.42,3.7,3.7,0,0,0-3.56-.09,1.23,1.23,0,0,0,.18,2.25,12.49,12.49,0,0,0,2,.65,9.37,9.37,0,0,1,2.41.86,2.1,2.1,0,0,1,1.12,1.87q0,2.83-3.78,2.83-3.58,0-3.91-3.19H67.1A2.53,2.53,0,0,0,68,22.17a3.22,3.22,0,0,0,1.94.49q2.7,0,2.7-1.84a1.41,1.41,0,0,0-.92-1.3,12.39,12.39,0,0,0-2.07-.65,9,9,0,0,1-2.27-.83,2,2,0,0,1-1.06-1.78,2.1,2.1,0,0,1,1-1.82,4.18,4.18,0,0,1,2.45-.67Q73.06,13.79,73.45,16.65Z"/><path class="cls-1" d="M82.52,15.28A6.48,6.48,0,0,1,83.59,19H76a4.38,4.38,0,0,0,.92,2.68,2.93,2.93,0,0,0,2.3,1A3.12,3.12,0,0,0,81.3,22a3.49,3.49,0,0,0,1-1.64h1.1a4.36,4.36,0,0,1-1.24,2.21,4.16,4.16,0,0,1-2.9,1,4,4,0,0,1-3.13-1.33,5.13,5.13,0,0,1-1.21-3.58,5.2,5.2,0,0,1,1.15-3.44,4.27,4.27,0,0,1,6.46,0Zm-5.51.4a4.09,4.09,0,0,0-1,2.45h6.41q-.27-3.4-3.22-3.4A2.78,2.78,0,0,0,77,15.68Z"/><path class="cls-1" d="M87.56,11v3H90V15H87.56v6.3a1.42,1.42,0,0,0,.22.88,1,1,0,0,0,.81.25h1.17v.94H88.45a1.92,1.92,0,0,1-1.55-.56,2.26,2.26,0,0,1-.41-1.51V15h-2V14h2V11.48Z"/><path class="cls-1" d="M102.88,14v1.1a5,5,0,0,0-1.42-.2,2.3,2.3,0,0,0-2,1.12,4,4,0,0,0-.74,2.43v4.91H97.63V14h1.08v1.78a3.42,3.42,0,0,1,1-1.39,2.68,2.68,0,0,1,1.8-.65A3.69,3.69,0,0,1,102.88,14Z"/><path class="cls-1" d="M111.18,15.28A6.48,6.48,0,0,1,112.24,19h-7.56a4.38,4.38,0,0,0,.92,2.68,2.93,2.93,0,0,0,2.3,1A3.12,3.12,0,0,0,110,22a3.49,3.49,0,0,0,1-1.64H112a4.36,4.36,0,0,1-1.24,2.21,4.16,4.16,0,0,1-2.9,1,4,4,0,0,1-3.13-1.33,5.13,5.13,0,0,1-1.21-3.58,5.2,5.2,0,0,1,1.15-3.44,4.27,4.27,0,0,1,6.46,0Zm-5.51.4a4.09,4.09,0,0,0-1,2.45h6.41q-.27-3.4-3.22-3.4A2.78,2.78,0,0,0,105.67,15.68Z"/><path class="cls-1" d="M121.13,15.91V14h1.08v8.62q0,4.5-4.18,4.5a4.48,4.48,0,0,1-2.83-.79A3.39,3.39,0,0,1,114,24.14h1.08a2.41,2.41,0,0,0,.86,1.55,3.24,3.24,0,0,0,2.07.58q3.1,0,3.1-3.47V21a3.46,3.46,0,0,1-3.33,2.12,3.87,3.87,0,0,1-3.11-1.39,4.94,4.94,0,0,1-1.08-3.28,4.94,4.94,0,0,1,1.08-3.28,3.85,3.85,0,0,1,3.11-1.4A3.46,3.46,0,0,1,121.13,15.91Zm-5.6-.09a4,4,0,0,0-.83,2.65,4.13,4.13,0,0,0,.77,2.59,2.85,2.85,0,0,0,2.43,1.13,2.92,2.92,0,0,0,2.41-1.08,4.14,4.14,0,0,0,.81-2.65,4.14,4.14,0,0,0-.81-2.65,3.12,3.12,0,0,0-4.79,0Z"/><path class="cls-1" d="M126.21,11a.76.76,0,0,1,.27.63.9.9,0,0,1-.29.65.94.94,0,0,1-.63.25.88.88,0,0,1-.65-.25.89.89,0,0,1-.27-.65.76.76,0,0,1,.27-.63.85.85,0,0,1,.65-.27A.88.88,0,0,1,126.21,11ZM125,14h1.08v9.31H125Z"/><path class="cls-1" d="M135.78,16.65h-1.06a2.21,2.21,0,0,0-.77-1.42,3.7,3.7,0,0,0-3.56-.09,1.3,1.3,0,0,0-.65,1.12,1.28,1.28,0,0,0,.83,1.13,12.46,12.46,0,0,0,2,.65,9.37,9.37,0,0,1,2.41.86,2.1,2.1,0,0,1,1.12,1.87q0,2.83-3.78,2.83-3.58,0-3.91-3.19h1.06a2.53,2.53,0,0,0,.87,1.76,3.22,3.22,0,0,0,1.94.49q2.7,0,2.7-1.84a1.41,1.41,0,0,0-.92-1.3,12.42,12.42,0,0,0-2.07-.65,9,9,0,0,1-2.27-.83,2,2,0,0,1-1.06-1.78,2.1,2.1,0,0,1,1-1.82,4.17,4.17,0,0,1,2.45-.67Q135.39,13.79,135.78,16.65Z"/><path class="cls-1" d="M140,11v3h2.43V15H140v6.3a1.43,1.43,0,0,0,.22.88,1,1,0,0,0,.81.25h1.17v.94h-1.31a1.92,1.92,0,0,1-1.55-.56,2.25,2.25,0,0,1-.41-1.51V15h-2V14h2V11.48Z"/><path class="cls-1" d="M149.36,14v1.1a5,5,0,0,0-1.42-.2,2.3,2.3,0,0,0-2,1.12,4,4,0,0,0-.74,2.43v4.91H144.1V14h1.08v1.78a3.42,3.42,0,0,1,1-1.39,2.67,2.67,0,0,1,1.8-.65A3.69,3.69,0,0,1,149.36,14Z"/><path class="cls-1" d="M157.42,14.85a3.6,3.6,0,0,1,.83,2.5v6h-1V21.56a4.8,4.8,0,0,1-1.51,1.39,4.7,4.7,0,0,1-2.43.65,3.35,3.35,0,0,1-2.21-.7,2.4,2.4,0,0,1-.85-1.93,2.75,2.75,0,0,1,1.46-2.59,6.29,6.29,0,0,1,3.11-.67l2.38,0v-.34a2.36,2.36,0,0,0-2.7-2.65,3.2,3.2,0,0,0-1.94.52,2.22,2.22,0,0,0-1,1.62h-1.06a3.25,3.25,0,0,1,1.31-2.34,4.56,4.56,0,0,1,2.7-.72A3.67,3.67,0,0,1,157.42,14.85Zm-.25,3.73-2.32,0q-3.53,0-3.53,2.36a1.55,1.55,0,0,0,.59,1.26,2.38,2.38,0,0,0,1.58.49,3.87,3.87,0,0,0,2.59-1,2.75,2.75,0,0,0,1.08-2.07Z"/><path class="cls-1" d="M162.77,11v3h2.43V15h-2.43v6.3a1.42,1.42,0,0,0,.22.88,1,1,0,0,0,.81.25H165v.94h-1.31a1.92,1.92,0,0,1-1.55-.56,2.26,2.26,0,0,1-.41-1.51V15h-2V14h2V11.48Z"/><path class="cls-1" d="M168.56,11a.76.76,0,0,1,.27.63.9.9,0,0,1-.29.65.94.94,0,0,1-.63.25.88.88,0,0,1-.65-.25.89.89,0,0,1-.27-.65.76.76,0,0,1,.27-.63.85.85,0,0,1,.65-.27A.88.88,0,0,1,168.56,11ZM167.37,14h1.08v9.31h-1.08Z"/><path class="cls-1" d="M178.62,15.26a5.21,5.21,0,0,1,1.13,3.44,5.22,5.22,0,0,1-1.13,3.42,4.41,4.41,0,0,1-6.59,0,5.22,5.22,0,0,1-1.13-3.42,5.16,5.16,0,0,1,1.15-3.44,4,4,0,0,1,3.28-1.48A4.09,4.09,0,0,1,178.62,15.26Zm-5.79.68A4.35,4.35,0,0,0,172,18.7a4.31,4.31,0,0,0,.83,2.74,3.19,3.19,0,0,0,5,0,4.51,4.51,0,0,0,.83-2.74,4.44,4.44,0,0,0-.83-2.75,3.19,3.19,0,0,0-5,0Z"/><path class="cls-1" d="M189.23,17.62v5.72h-1.08V17.69q0-3-2.65-3a2.46,2.46,0,0,0-1.87.81,3.28,3.28,0,0,0-.88,2.2v5.62h-1.08V14h1.08v1.53A3.79,3.79,0,0,1,184,14.25a3.29,3.29,0,0,1,1.76-.47Q189.23,13.79,189.23,17.62Z"/><path class="cls-1" d="M193.73,23a3.31,3.31,0,0,1-1.8,3.11l-.4-.63a2.84,2.84,0,0,0,1.39-2.2l-.27,0a1,1,0,0,1-.67-.23.84.84,0,0,1-.25-.65.86.86,0,0,1,.23-.67.9.9,0,0,1,.67-.25Q193.73,21.54,193.73,23Z"/><path class="cls-1" d="M204.38,11v3h2.43V15h-2.43v6.3a1.42,1.42,0,0,0,.22.88,1,1,0,0,0,.81.25h1.17v.94h-1.31a1.92,1.92,0,0,1-1.55-.56,2.26,2.26,0,0,1-.41-1.51V15h-2V14h2V11.48Z"/><path class="cls-1" d="M213.71,14v1.1a5,5,0,0,0-1.42-.2,2.3,2.3,0,0,0-2,1.12,4,4,0,0,0-.74,2.43v4.91h-1.08V14h1.08v1.78a3.43,3.43,0,0,1,1-1.39,2.68,2.68,0,0,1,1.8-.65A3.69,3.69,0,0,1,213.71,14Z"/><path class="cls-1" d="M221.77,14.85a3.6,3.6,0,0,1,.83,2.5v6h-1V21.56a4.82,4.82,0,0,1-1.51,1.39,4.7,4.7,0,0,1-2.43.65,3.35,3.35,0,0,1-2.21-.7,2.4,2.4,0,0,1-.85-1.93A2.75,2.75,0,0,1,216,18.38a6.29,6.29,0,0,1,3.11-.67l2.38,0v-.34a2.36,2.36,0,0,0-2.7-2.65,3.2,3.2,0,0,0-1.94.52,2.22,2.22,0,0,0-1,1.62h-1.06a3.25,3.25,0,0,1,1.31-2.34,4.56,4.56,0,0,1,2.7-.72A3.67,3.67,0,0,1,221.77,14.85Zm-.25,3.73-2.32,0q-3.53,0-3.53,2.36a1.55,1.55,0,0,0,.59,1.26,2.38,2.38,0,0,0,1.58.49,3.87,3.87,0,0,0,2.59-1,2.75,2.75,0,0,0,1.08-2.07Z"/><path class="cls-1" d="M232.42,17.62v5.72h-1.08V17.69q0-3-2.65-3a2.46,2.46,0,0,0-1.87.81,3.28,3.28,0,0,0-.88,2.2v5.62h-1.08V14h1.08v1.53a3.79,3.79,0,0,1,1.26-1.31,3.29,3.29,0,0,1,1.76-.47Q232.42,13.79,232.42,17.62Z"/><path class="cls-1" d="M241.57,16.65h-1.06a2.2,2.2,0,0,0-.77-1.42,3.7,3.7,0,0,0-3.56-.09,1.23,1.23,0,0,0,.18,2.25,12.51,12.51,0,0,0,2,.65,9.39,9.39,0,0,1,2.41.86,2.1,2.1,0,0,1,1.12,1.87q0,2.83-3.78,2.83-3.58,0-3.91-3.19h1.06a2.53,2.53,0,0,0,.86,1.76,3.22,3.22,0,0,0,1.94.49q2.7,0,2.7-1.84a1.41,1.41,0,0,0-.92-1.3,12.42,12.42,0,0,0-2.07-.65,9,9,0,0,1-2.27-.83,2,2,0,0,1-1.06-1.78,2.1,2.1,0,0,1,1-1.82,4.18,4.18,0,0,1,2.45-.67Q241.17,13.79,241.57,16.65Z"/><path class="cls-1" d="M250.41,14.85a3.6,3.6,0,0,1,.83,2.5v6h-1V21.56a4.8,4.8,0,0,1-1.51,1.39,4.7,4.7,0,0,1-2.43.65,3.35,3.35,0,0,1-2.21-.7,2.4,2.4,0,0,1-.85-1.93,2.75,2.75,0,0,1,1.46-2.59,6.29,6.29,0,0,1,3.11-.67l2.38,0v-.34a2.36,2.36,0,0,0-2.7-2.65,3.2,3.2,0,0,0-1.94.52,2.22,2.22,0,0,0-1,1.62h-1.06a3.25,3.25,0,0,1,1.31-2.34,4.56,4.56,0,0,1,2.7-.72A3.67,3.67,0,0,1,250.41,14.85Zm-.25,3.73-2.32,0q-3.53,0-3.53,2.36a1.55,1.55,0,0,0,.59,1.26,2.38,2.38,0,0,0,1.58.49,3.87,3.87,0,0,0,2.59-1,2.75,2.75,0,0,0,1.08-2.07Z"/><path class="cls-1" d="M260.14,14.6a3.53,3.53,0,0,1,1.28,2.48h-1.08a2.65,2.65,0,0,0-.94-1.76,3.11,3.11,0,0,0-2-.59,2.78,2.78,0,0,0-2.34,1.13,4.52,4.52,0,0,0-.85,2.9,4.57,4.57,0,0,0,.81,2.84,2.78,2.78,0,0,0,2.36,1.06,2.75,2.75,0,0,0,3-2.65h1.06a4.24,4.24,0,0,1-1.33,2.68,4,4,0,0,1-2.72.9,3.89,3.89,0,0,1-3.21-1.4,5.22,5.22,0,0,1-1.06-3.44,5.4,5.4,0,0,1,1.1-3.49,3.82,3.82,0,0,1,3.19-1.48A4.31,4.31,0,0,1,260.14,14.6Z"/><path class="cls-1" d="M265.44,11v3h2.43V15h-2.43v6.3a1.42,1.42,0,0,0,.22.88,1,1,0,0,0,.81.25h1.17v.94h-1.31a1.92,1.92,0,0,1-1.55-.56,2.26,2.26,0,0,1-.41-1.51V15h-2V14h2V11.48Z"/><path class="cls-1" d="M271.23,11a.76.76,0,0,1,.27.63.9.9,0,0,1-.29.65.94.94,0,0,1-.63.25.88.88,0,0,1-.65-.25.89.89,0,0,1-.27-.65.76.76,0,0,1,.27-.63.85.85,0,0,1,.65-.27A.88.88,0,0,1,271.23,11ZM270,14h1.08v9.31H270Z"/><path class="cls-1" d="M281.29,15.26a5.21,5.21,0,0,1,1.13,3.44,5.22,5.22,0,0,1-1.13,3.42,4.41,4.41,0,0,1-6.59,0,5.22,5.22,0,0,1-1.13-3.42,5.16,5.16,0,0,1,1.15-3.44A4,4,0,0,1,278,13.79,4.09,4.09,0,0,1,281.29,15.26Zm-5.79.68a4.35,4.35,0,0,0-.83,2.75,4.31,4.31,0,0,0,.83,2.74,3.19,3.19,0,0,0,5,0,4.51,4.51,0,0,0,.83-2.74,4.44,4.44,0,0,0-.83-2.75,3.19,3.19,0,0,0-5,0Z"/><path class="cls-1" d="M291.9,17.62v5.72h-1.08V17.69q0-3-2.65-3a2.46,2.46,0,0,0-1.87.81,3.28,3.28,0,0,0-.88,2.2v5.62h-1.08V14h1.08v1.53a3.79,3.79,0,0,1,1.26-1.31,3.29,3.29,0,0,1,1.76-.47Q291.9,13.79,291.9,17.62Z"/><path class="cls-1" d="M296.4,23a3.31,3.31,0,0,1-1.8,3.11l-.4-.63a2.84,2.84,0,0,0,1.39-2.2l-.27,0a1,1,0,0,1-.67-.23.84.84,0,0,1-.25-.65.86.86,0,0,1,.23-.67.9.9,0,0,1,.67-.25Q296.4,21.54,296.4,23Z"/><path class="cls-1" d="M311.68,16.65h-1.06a2.21,2.21,0,0,0-.77-1.42,3.7,3.7,0,0,0-3.56-.09,1.3,1.3,0,0,0-.65,1.12,1.28,1.28,0,0,0,.83,1.13,12.46,12.46,0,0,0,2,.65,9.37,9.37,0,0,1,2.41.86,2.1,2.1,0,0,1,1.12,1.87q0,2.83-3.78,2.83-3.58,0-3.91-3.19h1.06a2.53,2.53,0,0,0,.87,1.76,3.22,3.22,0,0,0,1.94.49q2.7,0,2.7-1.84a1.41,1.41,0,0,0-.92-1.3,12.42,12.42,0,0,0-2.07-.65,9,9,0,0,1-2.27-.83,2,2,0,0,1-1.06-1.78,2.1,2.1,0,0,1,1-1.82,4.17,4.17,0,0,1,2.45-.67Q311.28,13.79,311.68,16.65Z"/><path class="cls-1" d="M320.75,15.28A6.48,6.48,0,0,1,321.81,19h-7.56a4.38,4.38,0,0,0,.92,2.68,2.93,2.93,0,0,0,2.3,1,3.12,3.12,0,0,0,2.05-.67,3.48,3.48,0,0,0,1-1.64h1.1a4.36,4.36,0,0,1-1.24,2.21,4.16,4.16,0,0,1-2.9,1,4,4,0,0,1-3.13-1.33,5.14,5.14,0,0,1-1.21-3.58,5.2,5.2,0,0,1,1.15-3.44,4.27,4.27,0,0,1,6.46,0Zm-5.51.4a4.09,4.09,0,0,0-1,2.45h6.41q-.27-3.4-3.22-3.4A2.79,2.79,0,0,0,315.24,15.68Z"/><path class="cls-1" d="M325.79,11v3h2.43V15h-2.43v6.3a1.43,1.43,0,0,0,.22.88,1,1,0,0,0,.81.25H328v.94h-1.31a1.92,1.92,0,0,1-1.55-.56,2.25,2.25,0,0,1-.41-1.51V15h-2V14h2V11.48Z"/><path class="cls-1" d="M332.11,11v3h2.43V15h-2.43v6.3a1.43,1.43,0,0,0,.22.88,1,1,0,0,0,.81.25h1.17v.94H333a1.92,1.92,0,0,1-1.55-.56,2.25,2.25,0,0,1-.41-1.51V15h-2V14h2V11.48Z"/><path class="cls-1" d="M336.52,10.24h1.08v13.1h-1.08Z"/><path class="cls-1" d="M347.28,15.28A6.48,6.48,0,0,1,348.34,19h-7.56a4.38,4.38,0,0,0,.92,2.68,2.93,2.93,0,0,0,2.3,1,3.13,3.13,0,0,0,2.05-.67,3.5,3.5,0,0,0,1-1.64h1.1a4.37,4.37,0,0,1-1.24,2.21,4.16,4.16,0,0,1-2.9,1,4,4,0,0,1-3.13-1.33,5.13,5.13,0,0,1-1.21-3.58,5.2,5.2,0,0,1,1.15-3.44,4.27,4.27,0,0,1,6.46,0Zm-5.51.4a4.09,4.09,0,0,0-1,2.45h6.41q-.27-3.4-3.22-3.4A2.78,2.78,0,0,0,341.77,15.68Z"/><path class="cls-1" d="M356.77,15.69A3.62,3.62,0,0,1,358,14.27a2.9,2.9,0,0,1,1.69-.49,3.06,3.06,0,0,1,2.34.92,3.67,3.67,0,0,1,.85,2.56v6.08h-1.08V17.4a3,3,0,0,0-.54-2,2.3,2.3,0,0,0-1.85-.7,2.13,2.13,0,0,0-1.69.77,2.72,2.72,0,0,0-.68,1.93v5.92h-1.1V17.4q0-2.68-2.32-2.68a2.15,2.15,0,0,0-1.75.85,3,3,0,0,0-.72,2.05v5.72h-1.08V14h1.08v1.4a3,3,0,0,1,2.7-1.66A2.8,2.8,0,0,1,356.77,15.69Z"/><path class="cls-1" d="M372.23,15.28A6.48,6.48,0,0,1,373.29,19h-7.56a4.37,4.37,0,0,0,.92,2.68,2.93,2.93,0,0,0,2.3,1A3.12,3.12,0,0,0,371,22a3.5,3.5,0,0,0,1-1.64h1.1a4.35,4.35,0,0,1-1.24,2.21,4.15,4.15,0,0,1-2.9,1,4,4,0,0,1-3.13-1.33,5.13,5.13,0,0,1-1.21-3.58,5.2,5.2,0,0,1,1.15-3.44,4.27,4.27,0,0,1,6.46,0Zm-5.51.4a4.1,4.1,0,0,0-1,2.45h6.41q-.27-3.4-3.22-3.4A2.78,2.78,0,0,0,366.72,15.68Z"/><path class="cls-1" d="M382.58,17.62v5.72H381.5V17.69q0-3-2.65-3a2.46,2.46,0,0,0-1.87.81,3.28,3.28,0,0,0-.88,2.2v5.62H375V14h1.08v1.53a3.79,3.79,0,0,1,1.26-1.31,3.29,3.29,0,0,1,1.76-.47Q382.58,13.79,382.58,17.62Z"/><path class="cls-1" d="M387.1,11v3h2.43V15H387.1v6.3a1.42,1.42,0,0,0,.22.88,1,1,0,0,0,.81.25h1.17v.94H388a1.92,1.92,0,0,1-1.55-.56,2.26,2.26,0,0,1-.41-1.51V15h-2V14h2V11.48Z"/><path class="cls-1" d="M62.78,46.85a3.6,3.6,0,0,1,.83,2.5v6h-1V53.56a4.81,4.81,0,0,1-1.51,1.39,4.7,4.7,0,0,1-2.43.65,3.35,3.35,0,0,1-2.21-.7A2.4,2.4,0,0,1,55.58,53,2.75,2.75,0,0,1,57,50.38a6.29,6.29,0,0,1,3.11-.67l2.38,0v-.34a2.36,2.36,0,0,0-2.7-2.65,3.2,3.2,0,0,0-1.94.52,2.22,2.22,0,0,0-1,1.62H55.87a3.25,3.25,0,0,1,1.31-2.34,4.56,4.56,0,0,1,2.7-.72A3.67,3.67,0,0,1,62.78,46.85Zm-.25,3.73-2.32,0q-3.53,0-3.53,2.36a1.55,1.55,0,0,0,.59,1.26,2.38,2.38,0,0,0,1.58.49,3.87,3.87,0,0,0,2.59-1,2.75,2.75,0,0,0,1.08-2.07Z"/><path class="cls-1" d="M73.43,49.62v5.72H72.35V49.69q0-3-2.65-3a2.46,2.46,0,0,0-1.87.81,3.28,3.28,0,0,0-.88,2.2v5.62H65.87V46H67v1.53a3.79,3.79,0,0,1,1.26-1.31A3.29,3.29,0,0,1,70,45.79Q73.43,45.79,73.43,49.62Z"/><path class="cls-1" d="M82.72,42.24H83.8v13.1h-1V53.51a3.34,3.34,0,0,1-3.26,2.09,3.78,3.78,0,0,1-3.15-1.48,5.53,5.53,0,0,1-1-3.44,5.46,5.46,0,0,1,1-3.4,3.65,3.65,0,0,1,3.1-1.49A3.4,3.4,0,0,1,82.72,48Zm-5.51,5.65a4.48,4.48,0,0,0-.77,2.79,4.75,4.75,0,0,0,.76,2.81,2.8,2.8,0,0,0,2.43,1.19A2.76,2.76,0,0,0,82,53.53a4.52,4.52,0,0,0,.77-2.7v-.22a4.51,4.51,0,0,0-.83-2.79,2.7,2.7,0,0,0-2.27-1.12A2.85,2.85,0,0,0,77.21,47.89Z"/><path class="cls-1" d="M99.43,47.26a5.75,5.75,0,0,1,0,6.86,4.41,4.41,0,0,1-6.59,0A5.22,5.22,0,0,1,91.7,50.7a5.16,5.16,0,0,1,1.15-3.44,4,4,0,0,1,3.28-1.48A4.09,4.09,0,0,1,99.43,47.26Zm-5.8.68a5,5,0,0,0,0,5.49,3.19,3.19,0,0,0,5,0,4.51,4.51,0,0,0,.83-2.74,4.44,4.44,0,0,0-.83-2.75,3.19,3.19,0,0,0-5,0Z"/><path class="cls-1" d="M104.72,43v3h2.43V47h-2.43v6.3a1.42,1.42,0,0,0,.22.88,1,1,0,0,0,.81.25h1.17v.94H105.6a1.92,1.92,0,0,1-1.55-.56,2.26,2.26,0,0,1-.41-1.51V47h-2V46h2V43.48Z"/><path class="cls-1" d="M108.78,42.24h1.1v5.49a3.58,3.58,0,0,1,1.3-1.46,3.3,3.3,0,0,1,1.76-.49,3.25,3.25,0,0,1,2.48.94,3.76,3.76,0,0,1,.9,2.68v5.94h-1.08v-5.8a3.07,3.07,0,0,0-.68-2.11,2.57,2.57,0,0,0-1.93-.72,2.5,2.5,0,0,0-2,.94,3.36,3.36,0,0,0-.79,2.3v5.38h-1.1Z"/><path class="cls-1" d="M125.67,47.28A6.48,6.48,0,0,1,126.73,51h-7.56a4.38,4.38,0,0,0,.92,2.68,2.93,2.93,0,0,0,2.3,1,3.12,3.12,0,0,0,2.05-.67,3.49,3.49,0,0,0,1-1.64h1.1a4.36,4.36,0,0,1-1.24,2.21,4.16,4.16,0,0,1-2.9,1,4,4,0,0,1-3.13-1.33,5.13,5.13,0,0,1-1.21-3.58,5.2,5.2,0,0,1,1.15-3.44,4.27,4.27,0,0,1,6.46,0Zm-5.51.4a4.09,4.09,0,0,0-1,2.45h6.41q-.27-3.4-3.22-3.4A2.78,2.78,0,0,0,120.16,47.68Z"/><path class="cls-1" d="M133.72,46v1.1a5,5,0,0,0-1.42-.2,2.3,2.3,0,0,0-2,1.12,4,4,0,0,0-.74,2.43v4.91h-1.08V46h1.08v1.78a3.43,3.43,0,0,1,1-1.39,2.68,2.68,0,0,1,1.8-.65A3.69,3.69,0,0,1,133.72,46Z"/><path class="cls-1" d="M147.77,46.85a3.6,3.6,0,0,1,.83,2.5v6h-1V53.56a4.8,4.8,0,0,1-1.51,1.39,4.7,4.7,0,0,1-2.43.65,3.35,3.35,0,0,1-2.21-.7,2.4,2.4,0,0,1-.85-1.93A2.75,2.75,0,0,1,142,50.38a6.29,6.29,0,0,1,3.11-.67l2.38,0v-.34a2.36,2.36,0,0,0-2.7-2.65,3.2,3.2,0,0,0-1.94.52,2.22,2.22,0,0,0-1,1.62h-1.06a3.25,3.25,0,0,1,1.31-2.34,4.56,4.56,0,0,1,2.7-.72A3.67,3.67,0,0,1,147.77,46.85Zm-.25,3.73-2.32,0q-3.53,0-3.53,2.36a1.55,1.55,0,0,0,.59,1.26,2.38,2.38,0,0,0,1.58.49,3.87,3.87,0,0,0,2.59-1,2.75,2.75,0,0,0,1.08-2.07Z"/><path class="cls-1" d="M157.74,48.65h-1.06a2.21,2.21,0,0,0-.77-1.42,3.7,3.7,0,0,0-3.56-.09,1.3,1.3,0,0,0-.65,1.12,1.28,1.28,0,0,0,.83,1.13,12.46,12.46,0,0,0,2,.65,9.37,9.37,0,0,1,2.41.86A2.1,2.1,0,0,1,158,52.77q0,2.83-3.78,2.83-3.58,0-3.91-3.19h1.06a2.53,2.53,0,0,0,.87,1.76,3.22,3.22,0,0,0,1.94.49q2.7,0,2.7-1.84a1.41,1.41,0,0,0-.92-1.3,12.42,12.42,0,0,0-2.07-.65,9,9,0,0,1-2.27-.83,2,2,0,0,1-1.06-1.78,2.1,2.1,0,0,1,1-1.82,4.17,4.17,0,0,1,2.45-.67Q157.35,45.79,157.74,48.65Z"/><path class="cls-1" d="M167.18,47.28a5.52,5.52,0,0,1,1,3.44,5.58,5.58,0,0,1-1,3.4,3.74,3.74,0,0,1-3.11,1.48,3.4,3.4,0,0,1-3.26-2.2v5.51h-1.08V46h1v1.84A3.42,3.42,0,0,1,164,45.79,3.75,3.75,0,0,1,167.18,47.28Zm-5.62.61a4.51,4.51,0,0,0-.77,2.75v.2a4.35,4.35,0,0,0,.83,2.75,2.73,2.73,0,0,0,2.27,1.08,2.91,2.91,0,0,0,2.45-1.15,4.75,4.75,0,0,0,.76-2.81,4.83,4.83,0,0,0-.74-2.81,2.82,2.82,0,0,0-2.43-1.21A2.73,2.73,0,0,0,161.56,47.89Z"/><path class="cls-1" d="M177.18,47.28A6.48,6.48,0,0,1,178.25,51h-7.56a4.37,4.37,0,0,0,.92,2.68,2.93,2.93,0,0,0,2.3,1A3.12,3.12,0,0,0,176,54a3.5,3.5,0,0,0,1-1.64H178a4.35,4.35,0,0,1-1.24,2.21,4.15,4.15,0,0,1-2.9,1,4,4,0,0,1-3.13-1.33,5.13,5.13,0,0,1-1.21-3.58,5.2,5.2,0,0,1,1.15-3.44,4.27,4.27,0,0,1,6.46,0Zm-5.51.4a4.1,4.1,0,0,0-1,2.45h6.41q-.27-3.4-3.22-3.4A2.78,2.78,0,0,0,171.68,47.68Z"/><path class="cls-1" d="M186.62,46.6a3.53,3.53,0,0,1,1.28,2.48h-1.08a2.64,2.64,0,0,0-.94-1.76,3.11,3.11,0,0,0-2-.59,2.78,2.78,0,0,0-2.34,1.13,5.39,5.39,0,0,0,0,5.74,2.78,2.78,0,0,0,2.36,1.06,2.75,2.75,0,0,0,3-2.65h1.06a4.25,4.25,0,0,1-1.33,2.68,4,4,0,0,1-2.72.9,3.88,3.88,0,0,1-3.2-1.4,5.21,5.21,0,0,1-1.06-3.44,5.4,5.4,0,0,1,1.1-3.49,3.82,3.82,0,0,1,3.19-1.48A4.31,4.31,0,0,1,186.62,46.6Z"/><path class="cls-1" d="M191.91,43v3h2.43V47h-2.43v6.3a1.42,1.42,0,0,0,.22.88,1,1,0,0,0,.81.25h1.17v.94h-1.31a1.92,1.92,0,0,1-1.55-.56,2.26,2.26,0,0,1-.41-1.51V47h-2V46h2V43.48Z"/><path class="cls-1" d="M202.85,48.65h-1.06a2.21,2.21,0,0,0-.77-1.42,3.7,3.7,0,0,0-3.56-.09,1.3,1.3,0,0,0-.65,1.12,1.28,1.28,0,0,0,.83,1.13,12.46,12.46,0,0,0,2,.65,9.37,9.37,0,0,1,2.41.86,2.1,2.1,0,0,1,1.12,1.87q0,2.83-3.78,2.83-3.58,0-3.91-3.19h1.06a2.53,2.53,0,0,0,.87,1.76,3.22,3.22,0,0,0,1.94.49q2.7,0,2.7-1.84a1.41,1.41,0,0,0-.92-1.3,12.42,12.42,0,0,0-2.07-.65,9,9,0,0,1-2.27-.83,2,2,0,0,1-1.06-1.78,2.1,2.1,0,0,1,1-1.82,4.17,4.17,0,0,1,2.45-.67Q202.46,45.79,202.85,48.65Z"/><path class="cls-1" d="M217.68,46.85a3.6,3.6,0,0,1,.83,2.5v6h-1V53.56A4.82,4.82,0,0,1,216,54.95a4.7,4.7,0,0,1-2.43.65,3.35,3.35,0,0,1-2.21-.7,2.4,2.4,0,0,1-.85-1.93,2.75,2.75,0,0,1,1.46-2.59,6.29,6.29,0,0,1,3.11-.67l2.38,0v-.34a2.36,2.36,0,0,0-2.7-2.65,3.2,3.2,0,0,0-1.94.52,2.22,2.22,0,0,0-1,1.62h-1.06a3.25,3.25,0,0,1,1.31-2.34,4.56,4.56,0,0,1,2.7-.72A3.67,3.67,0,0,1,217.68,46.85Zm-.25,3.73-2.32,0q-3.53,0-3.53,2.36a1.55,1.55,0,0,0,.59,1.26,2.38,2.38,0,0,0,1.58.49,3.87,3.87,0,0,0,2.59-1,2.75,2.75,0,0,0,1.08-2.07Z"/><path class="cls-1" d="M226,46v1.1a5,5,0,0,0-1.42-.2,2.3,2.3,0,0,0-2,1.12,4,4,0,0,0-.74,2.43v4.91h-1.08V46h1.08v1.78a3.43,3.43,0,0,1,1-1.39,2.68,2.68,0,0,1,1.8-.65A3.69,3.69,0,0,1,226,46Z"/><path class="cls-1" d="M234.33,47.28A6.48,6.48,0,0,1,235.4,51h-7.56a4.38,4.38,0,0,0,.92,2.68,2.93,2.93,0,0,0,2.3,1,3.12,3.12,0,0,0,2.05-.67,3.48,3.48,0,0,0,1-1.64h1.1A4.35,4.35,0,0,1,234,54.57a4.15,4.15,0,0,1-2.9,1,4,4,0,0,1-3.13-1.33,5.13,5.13,0,0,1-1.21-3.58,5.19,5.19,0,0,1,1.15-3.44,4.27,4.27,0,0,1,6.46,0Zm-5.51.4a4.1,4.1,0,0,0-1,2.45h6.41q-.27-3.4-3.22-3.4A2.78,2.78,0,0,0,228.82,47.68Z"/><path class="cls-1" d="M249.76,46.6A3.53,3.53,0,0,1,251,49.08H250a2.64,2.64,0,0,0-.94-1.76,3.11,3.11,0,0,0-2-.59,2.78,2.78,0,0,0-2.34,1.13,5.39,5.39,0,0,0,0,5.74A2.78,2.78,0,0,0,247,54.66,2.75,2.75,0,0,0,250,52h1.06a4.25,4.25,0,0,1-1.33,2.68,4,4,0,0,1-2.72.9,3.88,3.88,0,0,1-3.2-1.4,5.21,5.21,0,0,1-1.06-3.44,5.4,5.4,0,0,1,1.1-3.49A3.82,3.82,0,0,1,247,45.79,4.31,4.31,0,0,1,249.76,46.6Z"/><path class="cls-1" d="M260.16,47.26a5.76,5.76,0,0,1,0,6.86,4.41,4.41,0,0,1-6.59,0,5.22,5.22,0,0,1-1.13-3.42,5.15,5.15,0,0,1,1.15-3.44,4,4,0,0,1,3.28-1.48A4.09,4.09,0,0,1,260.16,47.26Zm-5.8.68a5,5,0,0,0,0,5.49,3.19,3.19,0,0,0,5,0,4.51,4.51,0,0,0,.83-2.74,4.44,4.44,0,0,0-.83-2.75,3.19,3.19,0,0,0-5,0Z"/><path class="cls-1" d="M269.9,47.69a3.61,3.61,0,0,1,1.24-1.42,2.9,2.9,0,0,1,1.69-.49,3.06,3.06,0,0,1,2.34.92,3.67,3.67,0,0,1,.85,2.56v6.08h-1.08V49.4a3,3,0,0,0-.54-2,2.3,2.3,0,0,0-1.85-.7,2.13,2.13,0,0,0-1.69.77,2.72,2.72,0,0,0-.68,1.93v5.92h-1.1V49.4q0-2.68-2.32-2.68a2.14,2.14,0,0,0-1.75.85,3,3,0,0,0-.72,2.05v5.72H263.2V46h1.08v1.4a3,3,0,0,1,2.7-1.66A2.81,2.81,0,0,1,269.9,47.69Z"/><path class="cls-1" d="M285.72,47.28a5.52,5.52,0,0,1,1,3.44,5.58,5.58,0,0,1-1,3.4,3.74,3.74,0,0,1-3.11,1.48,3.4,3.4,0,0,1-3.26-2.2v5.51h-1.08V46h1v1.84a3.42,3.42,0,0,1,3.28-2.09A3.74,3.74,0,0,1,285.72,47.28Zm-5.62.61a4.52,4.52,0,0,0-.77,2.75v.2a4.35,4.35,0,0,0,.83,2.75,2.73,2.73,0,0,0,2.27,1.08,2.91,2.91,0,0,0,2.45-1.15,4.75,4.75,0,0,0,.76-2.81,4.83,4.83,0,0,0-.74-2.81,2.82,2.82,0,0,0-2.43-1.21A2.73,2.73,0,0,0,280.11,47.89Z"/><path class="cls-1" d="M289,42.24h1.08v13.1H289Z"/><path class="cls-1" d="M299.76,47.28A6.48,6.48,0,0,1,300.82,51h-7.56a4.37,4.37,0,0,0,.92,2.68,2.93,2.93,0,0,0,2.3,1,3.12,3.12,0,0,0,2.05-.67,3.5,3.5,0,0,0,1-1.64h1.1a4.35,4.35,0,0,1-1.24,2.21,4.15,4.15,0,0,1-2.9,1,4,4,0,0,1-3.13-1.33,5.13,5.13,0,0,1-1.21-3.58,5.2,5.2,0,0,1,1.15-3.44,4.27,4.27,0,0,1,6.46,0Zm-5.51.4a4.1,4.1,0,0,0-1,2.45h6.41q-.27-3.4-3.22-3.4A2.78,2.78,0,0,0,294.25,47.68Z"/><path class="cls-1" d="M304.8,43v3h2.43V47H304.8v6.3a1.42,1.42,0,0,0,.22.88,1,1,0,0,0,.81.25H307v.94h-1.31a1.92,1.92,0,0,1-1.55-.56,2.26,2.26,0,0,1-.41-1.51V47h-2V46h2V43.48Z"/><path class="cls-1" d="M315.94,47.28A6.48,6.48,0,0,1,317,51h-7.56a4.37,4.37,0,0,0,.92,2.68,2.93,2.93,0,0,0,2.3,1,3.12,3.12,0,0,0,2.05-.67,3.5,3.5,0,0,0,1-1.64h1.1a4.35,4.35,0,0,1-1.24,2.21,4.15,4.15,0,0,1-2.9,1,4,4,0,0,1-3.13-1.33,5.13,5.13,0,0,1-1.21-3.58,5.2,5.2,0,0,1,1.15-3.44,4.27,4.27,0,0,1,6.46,0Zm-5.51.4a4.1,4.1,0,0,0-1,2.45h6.41q-.27-3.4-3.22-3.4A2.78,2.78,0,0,0,310.44,47.68Z"/><path class="cls-1" d="M325.75,42.24h1.08v13.1h-1V53.51a3.34,3.34,0,0,1-3.26,2.09,3.78,3.78,0,0,1-3.15-1.48,5.53,5.53,0,0,1-1-3.44,5.46,5.46,0,0,1,1-3.4,3.65,3.65,0,0,1,3.1-1.49A3.4,3.4,0,0,1,325.75,48Zm-5.51,5.65a4.49,4.49,0,0,0-.77,2.79,4.75,4.75,0,0,0,.76,2.81,2.8,2.8,0,0,0,2.43,1.19A2.76,2.76,0,0,0,325,53.53a4.52,4.52,0,0,0,.77-2.7v-.22a4.51,4.51,0,0,0-.83-2.79,2.7,2.7,0,0,0-2.27-1.12A2.85,2.85,0,0,0,320.24,47.89Z"/><path class="cls-1" d="M336.82,43a.76.76,0,0,1,.27.63.9.9,0,0,1-.29.65.94.94,0,0,1-.63.25.88.88,0,0,1-.65-.25.89.89,0,0,1-.27-.65.76.76,0,0,1,.27-.63.85.85,0,0,1,.65-.27A.89.89,0,0,1,336.82,43ZM335.64,46h1.08v9.31h-1.08Z"/><path class="cls-1" d="M347.08,49.62v5.72H346V49.69q0-3-2.65-3a2.46,2.46,0,0,0-1.87.81,3.28,3.28,0,0,0-.88,2.2v5.62h-1.08V46h1.08v1.53a3.79,3.79,0,0,1,1.26-1.31,3.29,3.29,0,0,1,1.76-.47Q347.08,45.79,347.08,49.62Z"/><path class="cls-1" d="M357.59,43v3H360V47h-2.43v6.3a1.42,1.42,0,0,0,.22.88,1,1,0,0,0,.81.25h1.17v.94h-1.31a1.92,1.92,0,0,1-1.55-.56,2.26,2.26,0,0,1-.41-1.51V47h-2V46h2V43.48Z"/><path class="cls-1" d="M361.66,42.24h1.1v5.49a3.58,3.58,0,0,1,1.3-1.46,3.31,3.31,0,0,1,1.76-.49,3.25,3.25,0,0,1,2.48.94,3.76,3.76,0,0,1,.9,2.68v5.94h-1.08v-5.8a3.07,3.07,0,0,0-.68-2.11,2.56,2.56,0,0,0-1.93-.72,2.51,2.51,0,0,0-2,.94,3.36,3.36,0,0,0-.79,2.3v5.38h-1.1Z"/><path class="cls-1" d="M378.55,47.28A6.48,6.48,0,0,1,379.61,51H372a4.38,4.38,0,0,0,.92,2.68,2.93,2.93,0,0,0,2.3,1,3.13,3.13,0,0,0,2.05-.67,3.5,3.5,0,0,0,1-1.64h1.1a4.37,4.37,0,0,1-1.24,2.21,4.16,4.16,0,0,1-2.9,1,4,4,0,0,1-3.13-1.33,5.13,5.13,0,0,1-1.21-3.58,5.2,5.2,0,0,1,1.15-3.44,4.27,4.27,0,0,1,6.46,0Zm-5.51.4a4.09,4.09,0,0,0-1,2.45h6.41q-.27-3.4-3.22-3.4A2.78,2.78,0,0,0,373,47.68Z"/><path class="cls-1" d="M52.46,79.28a5.52,5.52,0,0,1,1,3.44,5.58,5.58,0,0,1-1,3.4,3.74,3.74,0,0,1-3.11,1.48,3.4,3.4,0,0,1-3.26-2.2v5.51H45V78h1v1.84a3.42,3.42,0,0,1,3.28-2.09A3.74,3.74,0,0,1,52.46,79.28Zm-5.62.61a4.51,4.51,0,0,0-.77,2.75v.2a4.35,4.35,0,0,0,.83,2.75,2.73,2.73,0,0,0,2.27,1.08,2.91,2.91,0,0,0,2.45-1.15,4.75,4.75,0,0,0,.76-2.81,4.83,4.83,0,0,0-.74-2.81,2.82,2.82,0,0,0-2.43-1.21A2.73,2.73,0,0,0,46.85,79.89Z"/><path class="cls-1" d="M62.76,79.26a5.75,5.75,0,0,1,0,6.86,4.41,4.41,0,0,1-6.59,0A5.22,5.22,0,0,1,55,82.7a5.16,5.16,0,0,1,1.15-3.44,4,4,0,0,1,3.28-1.48A4.09,4.09,0,0,1,62.76,79.26Zm-5.8.68a5,5,0,0,0,0,5.49,3.19,3.19,0,0,0,5,0,4.51,4.51,0,0,0,.83-2.74A4.44,4.44,0,0,0,62,79.95a3.19,3.19,0,0,0-5,0Z"/><path class="cls-1" d="M67.53,75a.76.76,0,0,1,.27.63.9.9,0,0,1-.29.65.94.94,0,0,1-.63.25.88.88,0,0,1-.65-.25.89.89,0,0,1-.27-.65.76.76,0,0,1,.27-.63.85.85,0,0,1,.65-.27A.88.88,0,0,1,67.53,75ZM66.34,78h1.08v9.31H66.34Z"/><path class="cls-1" d="M77.79,81.62v5.72H76.71V81.69q0-3-2.65-3a2.46,2.46,0,0,0-1.87.81,3.28,3.28,0,0,0-.88,2.2v5.62H70.23V78h1.08v1.53a3.79,3.79,0,0,1,1.26-1.31,3.29,3.29,0,0,1,1.76-.47Q77.79,77.79,77.79,81.62Z"/><path class="cls-1" d="M82.31,75v3h2.43V79H82.31v6.3a1.42,1.42,0,0,0,.22.88,1,1,0,0,0,.81.25H84.5v.94H83.19a1.92,1.92,0,0,1-1.55-.56,2.26,2.26,0,0,1-.41-1.51V79h-2V78h2V75.48Z"/><path class="cls-1" d="M99,78.6a3.53,3.53,0,0,1,1.28,2.48H99.21a2.65,2.65,0,0,0-.94-1.76,3.11,3.11,0,0,0-2-.59A2.79,2.79,0,0,0,94,79.86a5.39,5.39,0,0,0,0,5.74,2.78,2.78,0,0,0,2.36,1.06,2.75,2.75,0,0,0,3-2.65h1.06A4.25,4.25,0,0,1,99,86.7a4,4,0,0,1-2.72.9,3.88,3.88,0,0,1-3.2-1.4A5.21,5.21,0,0,1,92,82.75a5.4,5.4,0,0,1,1.1-3.49,3.82,3.82,0,0,1,3.19-1.48A4.31,4.31,0,0,1,99,78.6Z"/><path class="cls-1" d="M109.42,79.26a5.75,5.75,0,0,1,0,6.86,4.41,4.41,0,0,1-6.59,0,5.22,5.22,0,0,1-1.13-3.42,5.16,5.16,0,0,1,1.15-3.44,4,4,0,0,1,3.28-1.48A4.09,4.09,0,0,1,109.42,79.26Zm-5.8.68a5,5,0,0,0,0,5.49,3.19,3.19,0,0,0,5,0,4.51,4.51,0,0,0,.83-2.74,4.44,4.44,0,0,0-.83-2.75,3.19,3.19,0,0,0-5,0Z"/><path class="cls-1" d="M112.8,74.24h1.08v13.1H112.8Z"/><path class="cls-1" d="M116.83,74.24h1.08v13.1h-1.08Z"/><path class="cls-1" d="M127.6,79.28A6.48,6.48,0,0,1,128.66,83H121.1a4.38,4.38,0,0,0,.92,2.68,2.93,2.93,0,0,0,2.3,1,3.12,3.12,0,0,0,2.05-.67,3.49,3.49,0,0,0,1-1.64h1.1a4.36,4.36,0,0,1-1.24,2.21,4.16,4.16,0,0,1-2.9,1,4,4,0,0,1-3.13-1.33A5.13,5.13,0,0,1,120,82.68a5.2,5.2,0,0,1,1.15-3.44,4.27,4.27,0,0,1,6.46,0Zm-5.51.4a4.09,4.09,0,0,0-1,2.45h6.41q-.27-3.4-3.22-3.4A2.78,2.78,0,0,0,122.09,79.68Z"/><path class="cls-1" d="M137,78.6a3.53,3.53,0,0,1,1.28,2.48h-1.08a2.65,2.65,0,0,0-.94-1.76,3.11,3.11,0,0,0-2-.59A2.78,2.78,0,0,0,132,79.86a4.52,4.52,0,0,0-.85,2.9,4.57,4.57,0,0,0,.81,2.84,2.78,2.78,0,0,0,2.36,1.06,2.75,2.75,0,0,0,3-2.65h1.06A4.24,4.24,0,0,1,137,86.7a4,4,0,0,1-2.72.9,3.89,3.89,0,0,1-3.21-1.4A5.22,5.22,0,0,1,130,82.75a5.4,5.4,0,0,1,1.1-3.49,3.82,3.82,0,0,1,3.19-1.48A4.31,4.31,0,0,1,137,78.6Z"/><path class="cls-1" d="M142.32,75v3h2.43V79h-2.43v6.3a1.42,1.42,0,0,0,.22.88,1,1,0,0,0,.81.25h1.17v.94H143.2a1.92,1.92,0,0,1-1.55-.56,2.26,2.26,0,0,1-.41-1.51V79h-2V78h2V75.48Z"/><path class="cls-1" d="M148.11,75a.76.76,0,0,1,.27.63.9.9,0,0,1-.29.65.94.94,0,0,1-.63.25.88.88,0,0,1-.65-.25.89.89,0,0,1-.27-.65.76.76,0,0,1,.27-.63.85.85,0,0,1,.65-.27A.88.88,0,0,1,148.11,75ZM146.93,78H148v9.31h-1.08Z"/><path class="cls-1" d="M158.18,79.26a5.75,5.75,0,0,1,0,6.86,4.41,4.41,0,0,1-6.59,0,5.22,5.22,0,0,1-1.13-3.42,5.16,5.16,0,0,1,1.15-3.44,4,4,0,0,1,3.28-1.48A4.09,4.09,0,0,1,158.18,79.26Zm-5.79.68a5,5,0,0,0,0,5.49,3.19,3.19,0,0,0,5,0,4.51,4.51,0,0,0,.83-2.74,4.44,4.44,0,0,0-.83-2.75,3.19,3.19,0,0,0-5,0Z"/><path class="cls-1" d="M168.78,81.62v5.72H167.7V81.69q0-3-2.65-3a2.46,2.46,0,0,0-1.87.81,3.28,3.28,0,0,0-.88,2.2v5.62h-1.08V78h1.08v1.53a3.79,3.79,0,0,1,1.26-1.31,3.29,3.29,0,0,1,1.76-.47Q168.78,77.79,168.78,81.62Z"/><path class="cls-1" d="M183.68,78.6A3.53,3.53,0,0,1,185,81.08h-1.08a2.64,2.64,0,0,0-.94-1.76,3.11,3.11,0,0,0-2-.59,2.78,2.78,0,0,0-2.34,1.13,5.39,5.39,0,0,0,0,5.74,2.78,2.78,0,0,0,2.36,1.06,2.75,2.75,0,0,0,3-2.65H185a4.25,4.25,0,0,1-1.33,2.68,4,4,0,0,1-2.72.9,3.88,3.88,0,0,1-3.2-1.4,5.21,5.21,0,0,1-1.06-3.44,5.4,5.4,0,0,1,1.1-3.49A3.82,3.82,0,0,1,181,77.79,4.31,4.31,0,0,1,183.68,78.6Z"/><path class="cls-1" d="M186.72,74.24h1.1v5.49a3.58,3.58,0,0,1,1.3-1.46,3.3,3.3,0,0,1,1.76-.49,3.25,3.25,0,0,1,2.48.94,3.76,3.76,0,0,1,.9,2.68v5.94h-1.08v-5.8a3.07,3.07,0,0,0-.68-2.11,2.57,2.57,0,0,0-1.93-.72,2.5,2.5,0,0,0-2,.94,3.36,3.36,0,0,0-.79,2.3v5.38h-1.1Z"/><path class="cls-1" d="M203.37,78.85a3.59,3.59,0,0,1,.83,2.5v6h-1V85.56a4.82,4.82,0,0,1-1.51,1.39,4.7,4.7,0,0,1-2.43.65,3.35,3.35,0,0,1-2.21-.7,2.4,2.4,0,0,1-.85-1.93,2.75,2.75,0,0,1,1.46-2.59,6.29,6.29,0,0,1,3.12-.67l2.38,0v-.34a2.36,2.36,0,0,0-2.7-2.65,3.2,3.2,0,0,0-1.94.52,2.22,2.22,0,0,0-1,1.62h-1.06a3.25,3.25,0,0,1,1.31-2.34,4.56,4.56,0,0,1,2.7-.72A3.66,3.66,0,0,1,203.37,78.85Zm-.25,3.73-2.32,0q-3.53,0-3.53,2.36a1.55,1.55,0,0,0,.59,1.26,2.38,2.38,0,0,0,1.58.49,3.87,3.87,0,0,0,2.59-1,2.75,2.75,0,0,0,1.08-2.07Z"/><path class="cls-1" d="M208.2,75a.76.76,0,0,1,.27.63.9.9,0,0,1-.29.65.94.94,0,0,1-.63.25.89.89,0,0,1-.92-.9.76.76,0,0,1,.27-.63.85.85,0,0,1,.65-.27A.89.89,0,0,1,208.2,75ZM207,78h1.08v9.31H207Z"/><path class="cls-1" d="M218.46,81.62v5.72h-1.08V81.69q0-3-2.65-3a2.46,2.46,0,0,0-1.87.81,3.28,3.28,0,0,0-.88,2.2v5.62H210.9V78H212v1.53a3.79,3.79,0,0,1,1.26-1.31,3.29,3.29,0,0,1,1.76-.47Q218.46,77.79,218.46,81.62Z"/><path class="cls-1" d="M229,75v3h2.43V79H229v6.3a1.43,1.43,0,0,0,.22.88,1,1,0,0,0,.81.25h1.17v.94h-1.31a1.92,1.92,0,0,1-1.55-.56,2.25,2.25,0,0,1-.41-1.51V79h-2V78h2V75.48Z"/><path class="cls-1" d="M240.4,79.26a5.75,5.75,0,0,1,0,6.86,4.41,4.41,0,0,1-6.59,0,5.22,5.22,0,0,1-1.13-3.42,5.16,5.16,0,0,1,1.15-3.44,4,4,0,0,1,3.28-1.48A4.09,4.09,0,0,1,240.4,79.26Zm-5.8.68a5,5,0,0,0,0,5.49,3.19,3.19,0,0,0,5,0,4.52,4.52,0,0,0,.83-2.74,4.45,4.45,0,0,0-.83-2.75,3.19,3.19,0,0,0-5,0Z"/><path class="cls-1" d="M256.28,78.85a3.6,3.6,0,0,1,.83,2.5v6h-1V85.56a4.82,4.82,0,0,1-1.51,1.39,4.7,4.7,0,0,1-2.43.65,3.35,3.35,0,0,1-2.21-.7,2.4,2.4,0,0,1-.85-1.93,2.75,2.75,0,0,1,1.46-2.59,6.29,6.29,0,0,1,3.11-.67l2.38,0v-.34a2.36,2.36,0,0,0-2.7-2.65,3.2,3.2,0,0,0-1.94.52,2.22,2.22,0,0,0-1,1.62h-1.06a3.25,3.25,0,0,1,1.31-2.34,4.56,4.56,0,0,1,2.7-.72A3.67,3.67,0,0,1,256.28,78.85ZM256,82.57l-2.32,0q-3.53,0-3.53,2.36a1.55,1.55,0,0,0,.59,1.26,2.38,2.38,0,0,0,1.58.49,3.87,3.87,0,0,0,2.59-1A2.75,2.75,0,0,0,256,83.65Z"/><path class="cls-1" d="M266,78.6a3.53,3.53,0,0,1,1.28,2.48h-1.08a2.65,2.65,0,0,0-.94-1.76,3.11,3.11,0,0,0-2-.59A2.79,2.79,0,0,0,261,79.86a5.39,5.39,0,0,0,0,5.74,2.78,2.78,0,0,0,2.36,1.06,2.75,2.75,0,0,0,3-2.65h1.06A4.25,4.25,0,0,1,266,86.7a4,4,0,0,1-2.72.9,3.88,3.88,0,0,1-3.2-1.4A5.21,5.21,0,0,1,259,82.75a5.41,5.41,0,0,1,1.1-3.49,3.82,3.82,0,0,1,3.19-1.48A4.31,4.31,0,0,1,266,78.6Z"/><path class="cls-1" d="M269.05,74.24h1.1v5.49a3.58,3.58,0,0,1,1.29-1.46,3.31,3.31,0,0,1,1.76-.49,3.25,3.25,0,0,1,2.48.94,3.76,3.76,0,0,1,.9,2.68v5.94h-1.08v-5.8a3.07,3.07,0,0,0-.68-2.11,2.57,2.57,0,0,0-1.93-.72,2.51,2.51,0,0,0-2,.94,3.36,3.36,0,0,0-.79,2.3v5.38h-1.1Z"/><path class="cls-1" d="M280.59,75a.76.76,0,0,1,.27.63.9.9,0,0,1-.29.65.94.94,0,0,1-.63.25.88.88,0,0,1-.65-.25.89.89,0,0,1-.27-.65.76.76,0,0,1,.27-.63.85.85,0,0,1,.65-.27A.89.89,0,0,1,280.59,75ZM279.4,78h1.08v9.31H279.4Z"/><path class="cls-1" d="M290.37,79.28A6.48,6.48,0,0,1,291.43,83h-7.56a4.38,4.38,0,0,0,.92,2.68,2.93,2.93,0,0,0,2.3,1,3.12,3.12,0,0,0,2.05-.67,3.48,3.48,0,0,0,1-1.64h1.1A4.36,4.36,0,0,1,290,86.57a4.16,4.16,0,0,1-2.9,1A4,4,0,0,1,284,86.26a5.14,5.14,0,0,1-1.21-3.58,5.2,5.2,0,0,1,1.15-3.44,4.27,4.27,0,0,1,6.46,0Zm-5.51.4a4.09,4.09,0,0,0-1,2.45h6.41q-.27-3.4-3.22-3.4A2.79,2.79,0,0,0,284.86,79.68Z"/><path class="cls-1" d="M292.11,78h1.19L296.23,86,299.15,78h1.21l-3.56,9.31h-1.12Z"/><path class="cls-1" d="M308.65,79.28A6.48,6.48,0,0,1,309.72,83h-7.56a4.38,4.38,0,0,0,.92,2.68,2.93,2.93,0,0,0,2.3,1,3.13,3.13,0,0,0,2.05-.67,3.5,3.5,0,0,0,1-1.64h1.1a4.37,4.37,0,0,1-1.24,2.21,4.16,4.16,0,0,1-2.9,1,4,4,0,0,1-3.13-1.33A5.13,5.13,0,0,1,301,82.68a5.2,5.2,0,0,1,1.15-3.44,4.27,4.27,0,0,1,6.46,0Zm-5.51.4a4.09,4.09,0,0,0-1,2.45h6.41q-.27-3.4-3.22-3.4A2.78,2.78,0,0,0,303.15,79.68Z"/><path class="cls-1" d="M324.46,74.24h1.08v13.1h-1V85.51a3.34,3.34,0,0,1-3.26,2.09,3.78,3.78,0,0,1-3.15-1.48,5.53,5.53,0,0,1-1-3.44,5.46,5.46,0,0,1,1-3.4,3.65,3.65,0,0,1,3.1-1.49A3.4,3.4,0,0,1,324.46,80Zm-5.51,5.65a4.48,4.48,0,0,0-.77,2.79,4.75,4.75,0,0,0,.76,2.81,2.8,2.8,0,0,0,2.43,1.19,2.76,2.76,0,0,0,2.36-1.15,4.52,4.52,0,0,0,.77-2.7v-.22a4.5,4.5,0,0,0-.83-2.79,2.7,2.7,0,0,0-2.27-1.12A2.85,2.85,0,0,0,318.95,79.89Z"/><path class="cls-1" d="M334.88,79.28A6.48,6.48,0,0,1,335.94,83h-7.56a4.37,4.37,0,0,0,.92,2.68,2.93,2.93,0,0,0,2.3,1,3.12,3.12,0,0,0,2.05-.67,3.5,3.5,0,0,0,1-1.64h1.1a4.35,4.35,0,0,1-1.24,2.21,4.15,4.15,0,0,1-2.9,1,4,4,0,0,1-3.13-1.33,5.13,5.13,0,0,1-1.21-3.58,5.2,5.2,0,0,1,1.15-3.44,4.27,4.27,0,0,1,6.46,0Zm-5.51.4a4.1,4.1,0,0,0-1,2.45h6.41q-.27-3.4-3.22-3.4A2.78,2.78,0,0,0,329.37,79.68Z"/><path class="cls-1" d="M344.31,78.6a3.53,3.53,0,0,1,1.28,2.48h-1.08a2.64,2.64,0,0,0-.94-1.76,3.11,3.11,0,0,0-2-.59,2.78,2.78,0,0,0-2.34,1.13,5.39,5.39,0,0,0,0,5.74,2.78,2.78,0,0,0,2.36,1.06,2.75,2.75,0,0,0,3-2.65h1.06a4.25,4.25,0,0,1-1.33,2.68,4,4,0,0,1-2.72.9,3.88,3.88,0,0,1-3.2-1.4,5.21,5.21,0,0,1-1.06-3.44,5.4,5.4,0,0,1,1.1-3.49,3.82,3.82,0,0,1,3.19-1.48A4.31,4.31,0,0,1,344.31,78.6Z"/><path class="cls-1" d="M354.43,79.28A6.48,6.48,0,0,1,355.49,83h-7.56a4.38,4.38,0,0,0,.92,2.68,2.93,2.93,0,0,0,2.3,1A3.12,3.12,0,0,0,353.2,86a3.48,3.48,0,0,0,1-1.64h1.1A4.36,4.36,0,0,1,354,86.57a4.16,4.16,0,0,1-2.9,1A4,4,0,0,1,348,86.26a5.14,5.14,0,0,1-1.21-3.58A5.2,5.2,0,0,1,348,79.24a4.27,4.27,0,0,1,6.46,0Zm-5.51.4a4.09,4.09,0,0,0-1,2.45h6.41q-.27-3.4-3.22-3.4A2.79,2.79,0,0,0,348.92,79.68Z"/><path class="cls-1" d="M364.78,81.62v5.72H363.7V81.69q0-3-2.65-3a2.46,2.46,0,0,0-1.87.81,3.28,3.28,0,0,0-.88,2.2v5.62h-1.08V78h1.08v1.53a3.79,3.79,0,0,1,1.26-1.31,3.29,3.29,0,0,1,1.76-.47Q364.78,77.79,364.78,81.62Z"/><path class="cls-1" d="M369.29,75v3h2.43V79h-2.43v6.3a1.43,1.43,0,0,0,.22.88,1,1,0,0,0,.81.25h1.17v.94h-1.31a1.92,1.92,0,0,1-1.55-.56,2.25,2.25,0,0,1-.41-1.51V79h-2V78h2V75.48Z"/><path class="cls-1" d="M378.62,78v1.1a5,5,0,0,0-1.42-.2,2.3,2.3,0,0,0-2,1.12,4,4,0,0,0-.74,2.43v4.91h-1.08V78h1.08v1.78a3.42,3.42,0,0,1,1-1.39,2.67,2.67,0,0,1,1.8-.65A3.69,3.69,0,0,1,378.62,78Z"/><path class="cls-1" d="M386.68,78.85a3.6,3.6,0,0,1,.83,2.5v6h-1V85.56A4.8,4.8,0,0,1,385,86.95a4.7,4.7,0,0,1-2.43.65,3.35,3.35,0,0,1-2.21-.7,2.4,2.4,0,0,1-.85-1.93,2.75,2.75,0,0,1,1.46-2.59,6.29,6.29,0,0,1,3.11-.67l2.38,0v-.34a2.36,2.36,0,0,0-2.7-2.65,3.2,3.2,0,0,0-1.94.52,2.22,2.22,0,0,0-1,1.62h-1.06a3.25,3.25,0,0,1,1.31-2.34,4.56,4.56,0,0,1,2.7-.72A3.67,3.67,0,0,1,386.68,78.85Zm-.25,3.73-2.32,0q-3.53,0-3.53,2.36a1.55,1.55,0,0,0,.59,1.26,2.38,2.38,0,0,0,1.58.49,3.87,3.87,0,0,0,2.59-1,2.75,2.75,0,0,0,1.08-2.07Z"/><path class="cls-1" d="M390.12,74.24h1.08v13.1h-1.08Z"/><path class="cls-1" d="M395.54,75a.76.76,0,0,1,.27.63.9.9,0,0,1-.29.65.94.94,0,0,1-.63.25.88.88,0,0,1-.65-.25.89.89,0,0,1-.27-.65.76.76,0,0,1,.27-.63.85.85,0,0,1,.65-.27A.89.89,0,0,1,395.54,75ZM394.35,78h1.08v9.31h-1.08Z"/><path class="cls-1" d="M40,110h7.22v.83l-6,7.54h6.3v.94H39.82v-.85l6-7.52H40Z"/><path class="cls-1" d="M55.93,110.85a3.6,3.6,0,0,1,.83,2.5v6h-1v-1.78a4.81,4.81,0,0,1-1.51,1.39,4.7,4.7,0,0,1-2.43.65,3.35,3.35,0,0,1-2.21-.7,2.4,2.4,0,0,1-.85-1.93,2.75,2.75,0,0,1,1.46-2.59,6.29,6.29,0,0,1,3.11-.67l2.38,0v-.34A2.36,2.36,0,0,0,53,110.7a3.2,3.2,0,0,0-1.94.52,2.22,2.22,0,0,0-1,1.62H49a3.25,3.25,0,0,1,1.31-2.34,4.56,4.56,0,0,1,2.7-.72A3.67,3.67,0,0,1,55.93,110.85Zm-.25,3.73-2.32,0q-3.53,0-3.53,2.36a1.55,1.55,0,0,0,.59,1.26,2.38,2.38,0,0,0,1.58.49,3.87,3.87,0,0,0,2.59-1,2.75,2.75,0,0,0,1.08-2.07Z"/><path class="cls-1" d="M61.27,107v3H63.7V111H61.27v6.3a1.42,1.42,0,0,0,.22.88,1,1,0,0,0,.81.25h1.17v.94H62.16a1.92,1.92,0,0,1-1.55-.56,2.26,2.26,0,0,1-.41-1.51V111h-2V110h2v-2.56Z"/><path class="cls-1" d="M67.07,107a.76.76,0,0,1,.27.63.9.9,0,0,1-.29.65.94.94,0,0,1-.63.25.88.88,0,0,1-.65-.25.89.89,0,0,1-.27-.65.76.76,0,0,1,.27-.63.85.85,0,0,1,.65-.27A.88.88,0,0,1,67.07,107ZM65.88,110H67v9.31H65.88Z"/><path class="cls-1" d="M77.13,111.26a5.75,5.75,0,0,1,0,6.86,4.41,4.41,0,0,1-6.59,0,5.22,5.22,0,0,1-1.13-3.42,5.16,5.16,0,0,1,1.15-3.44,4,4,0,0,1,3.28-1.48A4.09,4.09,0,0,1,77.13,111.26Zm-5.8.68a5,5,0,0,0,0,5.49,3.19,3.19,0,0,0,5,0,4.51,4.51,0,0,0,.83-2.74,4.44,4.44,0,0,0-.83-2.75,3.19,3.19,0,0,0-5,0Z"/><path class="cls-1" d="M87.73,113.62v5.72H86.65v-5.65q0-3-2.65-3a2.46,2.46,0,0,0-1.87.81,3.28,3.28,0,0,0-.88,2.2v5.62H80.17V110h1.08v1.53a3.79,3.79,0,0,1,1.26-1.31,3.29,3.29,0,0,1,1.76-.47Q87.73,109.79,87.73,113.62Z"/><path class="cls-1" d="M102.84,110.85a3.6,3.6,0,0,1,.83,2.5v6h-1v-1.78a4.81,4.81,0,0,1-1.51,1.39,4.7,4.7,0,0,1-2.43.65,3.35,3.35,0,0,1-2.21-.7,2.4,2.4,0,0,1-.85-1.93,2.75,2.75,0,0,1,1.46-2.59,6.29,6.29,0,0,1,3.11-.67l2.38,0v-.34a2.36,2.36,0,0,0-2.7-2.65,3.2,3.2,0,0,0-1.94.52,2.22,2.22,0,0,0-1,1.62H95.92a3.25,3.25,0,0,1,1.31-2.34,4.56,4.56,0,0,1,2.7-.72A3.67,3.67,0,0,1,102.84,110.85Zm-.25,3.73-2.32,0q-3.53,0-3.53,2.36a1.55,1.55,0,0,0,.59,1.26,2.38,2.38,0,0,0,1.58.49,3.87,3.87,0,0,0,2.59-1,2.75,2.75,0,0,0,1.08-2.07Z"/><path class="cls-1" d="M113.49,113.62v5.72h-1.08v-5.65q0-3-2.65-3a2.46,2.46,0,0,0-1.87.81,3.28,3.28,0,0,0-.88,2.2v5.62h-1.08V110H107v1.53a3.79,3.79,0,0,1,1.26-1.31,3.29,3.29,0,0,1,1.76-.47Q113.49,109.79,113.49,113.62Z"/><path class="cls-1" d="M122.78,106.24h1.08v13.1h-1v-1.84a3.34,3.34,0,0,1-3.26,2.09,3.78,3.78,0,0,1-3.15-1.48,5.53,5.53,0,0,1-1-3.44,5.46,5.46,0,0,1,1-3.4,3.65,3.65,0,0,1,3.1-1.49,3.4,3.4,0,0,1,3.26,2.21Zm-5.51,5.65a4.48,4.48,0,0,0-.77,2.79,4.75,4.75,0,0,0,.76,2.81,2.8,2.8,0,0,0,2.43,1.19,2.76,2.76,0,0,0,2.36-1.15,4.52,4.52,0,0,0,.77-2.7v-.22a4.51,4.51,0,0,0-.83-2.79,2.7,2.7,0,0,0-2.27-1.12A2.85,2.85,0,0,0,117.27,111.89Z"/><path class="cls-1" d="M139.14,106.24h1.08v13.1h-1v-1.84a3.34,3.34,0,0,1-3.26,2.09,3.78,3.78,0,0,1-3.15-1.48,5.53,5.53,0,0,1-1-3.44,5.46,5.46,0,0,1,1-3.4,3.65,3.65,0,0,1,3.1-1.49,3.4,3.4,0,0,1,3.26,2.21Zm-5.51,5.65a4.49,4.49,0,0,0-.77,2.79,4.75,4.75,0,0,0,.76,2.81,2.8,2.8,0,0,0,2.43,1.19,2.76,2.76,0,0,0,2.36-1.15,4.52,4.52,0,0,0,.77-2.7v-.22a4.51,4.51,0,0,0-.83-2.79,2.7,2.7,0,0,0-2.27-1.12A2.85,2.85,0,0,0,133.63,111.89Z"/><path class="cls-1" d="M149.56,111.28a6.48,6.48,0,0,1,1.06,3.73h-7.56a4.38,4.38,0,0,0,.92,2.68,2.93,2.93,0,0,0,2.3,1,3.12,3.12,0,0,0,2.05-.67,3.48,3.48,0,0,0,1-1.64h1.1a4.35,4.35,0,0,1-1.24,2.21,4.15,4.15,0,0,1-2.9,1,4,4,0,0,1-3.13-1.33,5.13,5.13,0,0,1-1.21-3.58,5.19,5.19,0,0,1,1.15-3.44,4.27,4.27,0,0,1,6.46,0Zm-5.51.4a4.1,4.1,0,0,0-1,2.45h6.41q-.27-3.4-3.22-3.4A2.78,2.78,0,0,0,144.06,111.68Z"/><path class="cls-1" d="M152.12,114.21h9.09v.94h-9.09Z"/><path class="cls-1" d="M170.68,111.28a5.52,5.52,0,0,1,1,3.44,5.58,5.58,0,0,1-1,3.4,3.74,3.74,0,0,1-3.11,1.48,3.4,3.4,0,0,1-3.26-2.2v5.51h-1.08V110h1v1.84a3.42,3.42,0,0,1,3.28-2.09A3.74,3.74,0,0,1,170.68,111.28Zm-5.62.61a4.52,4.52,0,0,0-.77,2.75v.2a4.35,4.35,0,0,0,.83,2.75,2.73,2.73,0,0,0,2.27,1.08,2.91,2.91,0,0,0,2.45-1.15,4.75,4.75,0,0,0,.76-2.81,4.83,4.83,0,0,0-.74-2.81,2.82,2.82,0,0,0-2.43-1.21A2.73,2.73,0,0,0,165.06,111.89Z"/><path class="cls-1" d="M174,106.24H175v13.1H174Z"/><path class="cls-1" d="M184.48,110.85a3.6,3.6,0,0,1,.83,2.5v6h-1v-1.78a4.8,4.8,0,0,1-1.51,1.39,4.7,4.7,0,0,1-2.43.65,3.35,3.35,0,0,1-2.21-.7,2.4,2.4,0,0,1-.85-1.93,2.75,2.75,0,0,1,1.46-2.59,6.28,6.28,0,0,1,3.11-.67l2.38,0v-.34q0-2.65-2.7-2.65a3.2,3.2,0,0,0-1.94.52,2.22,2.22,0,0,0-1,1.62h-1.06a3.25,3.25,0,0,1,1.31-2.34,4.56,4.56,0,0,1,2.7-.72A3.67,3.67,0,0,1,184.48,110.85Zm-.25,3.73-2.32,0q-3.53,0-3.53,2.36a1.55,1.55,0,0,0,.59,1.26,2.38,2.38,0,0,0,1.58.49,3.87,3.87,0,0,0,2.59-1,2.76,2.76,0,0,0,1.08-2.07Z"/><path class="cls-1" d="M189.83,107v3h2.43V111h-2.43v6.3a1.43,1.43,0,0,0,.22.88,1,1,0,0,0,.81.25H192v.94h-1.31a1.92,1.92,0,0,1-1.55-.56,2.25,2.25,0,0,1-.41-1.51V111h-2V110h2v-2.56Z"/><path class="cls-1" d="M195.62,107a.76.76,0,0,1,.27.63.9.9,0,0,1-.29.65.94.94,0,0,1-.63.25.87.87,0,0,1-.65-.25.89.89,0,0,1-.27-.65.76.76,0,0,1,.27-.63.85.85,0,0,1,.65-.27A.88.88,0,0,1,195.62,107ZM194.44,110h1.08v9.31h-1.08Z"/><path class="cls-1" d="M205.88,113.62v5.72H204.8v-5.65q0-3-2.65-3a2.46,2.46,0,0,0-1.87.81,3.28,3.28,0,0,0-.88,2.2v5.62h-1.08V110h1.08v1.53a3.79,3.79,0,0,1,1.26-1.31,3.29,3.29,0,0,1,1.76-.47Q205.88,109.79,205.88,113.62Z"/><path class="cls-1" d="M215.32,111.91V110h1.08v8.62q0,4.5-4.18,4.5a4.48,4.48,0,0,1-2.83-.79,3.4,3.4,0,0,1-1.19-2.23h1.08a2.41,2.41,0,0,0,.86,1.55,3.24,3.24,0,0,0,2.07.58q3.1,0,3.1-3.47V117a3.46,3.46,0,0,1-3.33,2.12,3.87,3.87,0,0,1-3.11-1.39,5.51,5.51,0,0,1,0-6.55,3.85,3.85,0,0,1,3.11-1.4A3.46,3.46,0,0,1,215.32,111.91Zm-5.6-.09a4,4,0,0,0-.83,2.65,4.13,4.13,0,0,0,.77,2.59,2.85,2.85,0,0,0,2.43,1.13,2.91,2.91,0,0,0,2.41-1.08,4.73,4.73,0,0,0,0-5.29,3.13,3.13,0,0,0-4.79,0Z"/><path class="cls-1" d="M220.5,117.8a.81.81,0,0,1,.27.65.89.89,0,0,1-.29.65.94.94,0,0,1-.63.25.85.85,0,0,1-.65-.27.86.86,0,0,1-.27-.63.81.81,0,0,1,.27-.65.84.84,0,0,1,.65-.25A.88.88,0,0,1,220.5,117.8Z"/><path class="cls-1" d="M229.48,106.49h1.1v7.88a4.62,4.62,0,0,0,.9,3.11,4.61,4.61,0,0,0,6,0,4.7,4.7,0,0,0,.9-3.11v-7.88h1.1v7.88a5.57,5.57,0,0,1-1.21,3.83,5.9,5.9,0,0,1-7.58,0,5.49,5.49,0,0,1-1.22-3.85Z"/><path class="cls-1" d="M249.5,113.62v5.72h-1.08v-5.65q0-3-2.65-3a2.46,2.46,0,0,0-1.87.81,3.28,3.28,0,0,0-.88,2.2v5.62h-1.08V110H243v1.53a3.79,3.79,0,0,1,1.26-1.31,3.29,3.29,0,0,1,1.76-.47Q249.5,109.79,249.5,113.62Z"/><path class="cls-1" d="M258.79,106.24h1.08v13.1h-1v-1.84a3.34,3.34,0,0,1-3.26,2.09,3.78,3.78,0,0,1-3.15-1.48,5.53,5.53,0,0,1-1-3.44,5.46,5.46,0,0,1,1-3.4,3.65,3.65,0,0,1,3.1-1.49,3.4,3.4,0,0,1,3.26,2.21Zm-5.51,5.65a4.48,4.48,0,0,0-.77,2.79,4.75,4.75,0,0,0,.76,2.81,2.8,2.8,0,0,0,2.43,1.19,2.76,2.76,0,0,0,2.36-1.15,4.52,4.52,0,0,0,.77-2.7v-.22a4.5,4.5,0,0,0-.83-2.79,2.7,2.7,0,0,0-2.27-1.12A2.85,2.85,0,0,0,253.28,111.89Z"/><path class="cls-1" d="M269.21,111.28a6.48,6.48,0,0,1,1.06,3.73h-7.56a4.37,4.37,0,0,0,.92,2.68,2.93,2.93,0,0,0,2.3,1A3.12,3.12,0,0,0,268,118a3.5,3.5,0,0,0,1-1.64h1.1a4.35,4.35,0,0,1-1.24,2.21,4.15,4.15,0,0,1-2.9,1,4,4,0,0,1-3.13-1.33,5.13,5.13,0,0,1-1.21-3.58,5.2,5.2,0,0,1,1.15-3.44,4.27,4.27,0,0,1,6.46,0Zm-5.51.4a4.1,4.1,0,0,0-1,2.45h6.41q-.27-3.4-3.22-3.4A2.78,2.78,0,0,0,263.7,111.68Z"/><path class="cls-1" d="M277.25,110v1.1a5,5,0,0,0-1.42-.2,2.3,2.3,0,0,0-2,1.12,4,4,0,0,0-.74,2.43v4.91H272V110h1.08v1.78a3.42,3.42,0,0,1,1-1.39,2.68,2.68,0,0,1,1.8-.65A3.69,3.69,0,0,1,277.25,110Z"/><path class="cls-1" d="M286.72,107v3h2.43V111h-2.43v6.3a1.43,1.43,0,0,0,.22.88,1,1,0,0,0,.81.25h1.17v.94H287.6a1.92,1.92,0,0,1-1.55-.56,2.25,2.25,0,0,1-.41-1.51V111h-2V110h2v-2.56Z"/><path class="cls-1" d="M290.79,106.24h1.1v5.49a3.58,3.58,0,0,1,1.3-1.46,3.3,3.3,0,0,1,1.76-.49,3.25,3.25,0,0,1,2.48.94,3.76,3.76,0,0,1,.9,2.68v5.94h-1.08v-5.8a3.07,3.07,0,0,0-.68-2.11,2.57,2.57,0,0,0-1.93-.72,2.5,2.5,0,0,0-2,.94,3.36,3.36,0,0,0-.79,2.3v5.38h-1.1Z"/><path class="cls-1" d="M307.67,111.28a6.48,6.48,0,0,1,1.06,3.73h-7.56a4.38,4.38,0,0,0,.92,2.68,2.93,2.93,0,0,0,2.3,1,3.12,3.12,0,0,0,2.05-.67,3.48,3.48,0,0,0,1-1.64h1.1a4.35,4.35,0,0,1-1.24,2.21,4.15,4.15,0,0,1-2.9,1,4,4,0,0,1-3.13-1.33,5.13,5.13,0,0,1-1.21-3.58,5.19,5.19,0,0,1,1.15-3.44,4.27,4.27,0,0,1,6.46,0Zm-5.51.4a4.1,4.1,0,0,0-1,2.45h6.41q-.27-3.4-3.22-3.4A2.78,2.78,0,0,0,302.16,111.68Z"/><path class="cls-1" d="M323.1,110.6a3.53,3.53,0,0,1,1.28,2.48H323.3a2.65,2.65,0,0,0-.94-1.76,3.11,3.11,0,0,0-2-.59,2.79,2.79,0,0,0-2.34,1.13,5.39,5.39,0,0,0,0,5.74,2.78,2.78,0,0,0,2.36,1.06,2.75,2.75,0,0,0,3-2.65h1.06a4.25,4.25,0,0,1-1.33,2.68,4,4,0,0,1-2.72.9,3.88,3.88,0,0,1-3.2-1.4,5.21,5.21,0,0,1-1.06-3.44,5.41,5.41,0,0,1,1.1-3.49,3.82,3.82,0,0,1,3.19-1.48A4.31,4.31,0,0,1,323.1,110.6Z"/><path class="cls-1" d="M326.14,106.24h1.1v5.49a3.58,3.58,0,0,1,1.3-1.46,3.3,3.3,0,0,1,1.76-.49,3.25,3.25,0,0,1,2.48.94,3.76,3.76,0,0,1,.9,2.68v5.94H332.6v-5.8a3.07,3.07,0,0,0-.68-2.11,2.57,2.57,0,0,0-1.93-.72,2.5,2.5,0,0,0-2,.94,3.36,3.36,0,0,0-.79,2.3v5.38h-1.1Z"/><path class="cls-1" d="M342.79,110.85a3.59,3.59,0,0,1,.83,2.5v6h-1v-1.78a4.82,4.82,0,0,1-1.51,1.39,4.7,4.7,0,0,1-2.43.65,3.35,3.35,0,0,1-2.21-.7,2.4,2.4,0,0,1-.85-1.93,2.75,2.75,0,0,1,1.46-2.59,6.29,6.29,0,0,1,3.12-.67l2.38,0v-.34a2.36,2.36,0,0,0-2.7-2.65,3.2,3.2,0,0,0-1.94.52,2.22,2.22,0,0,0-1,1.62h-1.06a3.25,3.25,0,0,1,1.31-2.34,4.56,4.56,0,0,1,2.7-.72A3.66,3.66,0,0,1,342.79,110.85Zm-.25,3.73-2.32,0q-3.53,0-3.53,2.36a1.55,1.55,0,0,0,.59,1.26,2.38,2.38,0,0,0,1.58.49,3.87,3.87,0,0,0,2.59-1,2.75,2.75,0,0,0,1.08-2.07Z"/><path class="cls-1" d="M347.61,107a.76.76,0,0,1,.27.63.9.9,0,0,1-.29.65.94.94,0,0,1-.63.25.89.89,0,0,1-.92-.9.76.76,0,0,1,.27-.63.85.85,0,0,1,.65-.27A.89.89,0,0,1,347.61,107ZM346.43,110h1.08v9.31h-1.08Z"/><path class="cls-1" d="M357.87,113.62v5.72h-1.08v-5.65q0-3-2.65-3a2.46,2.46,0,0,0-1.87.81,3.28,3.28,0,0,0-.88,2.2v5.62h-1.08V110h1.08v1.53a3.79,3.79,0,0,1,1.26-1.31,3.29,3.29,0,0,1,1.76-.47Q357.87,109.79,357.87,113.62Z"/><path class="cls-1" d="M362.37,119a3.31,3.31,0,0,1-1.8,3.11l-.4-.63a2.83,2.83,0,0,0,1.39-2.2l-.27,0a1,1,0,0,1-.67-.23.84.84,0,0,1-.25-.65.86.86,0,0,1,.23-.67.9.9,0,0,1,.67-.25Q362.37,117.54,362.37,119Z"/><path class="cls-1" d="M373,107v3h2.43V111H373v6.3a1.43,1.43,0,0,0,.22.88,1,1,0,0,0,.81.25h1.17v.94h-1.31a1.92,1.92,0,0,1-1.55-.56,2.25,2.25,0,0,1-.41-1.51V111h-2V110h2v-2.56Z"/><path class="cls-1" d="M377.1,106.24h1.1v5.49a3.58,3.58,0,0,1,1.3-1.46,3.3,3.3,0,0,1,1.76-.49,3.25,3.25,0,0,1,2.48.94,3.76,3.76,0,0,1,.9,2.68v5.94h-1.08v-5.8a3.07,3.07,0,0,0-.68-2.11,2.57,2.57,0,0,0-1.93-.72,2.5,2.5,0,0,0-2,.94,3.36,3.36,0,0,0-.79,2.3v5.38h-1.1Z"/><path class="cls-1" d="M394,111.28A6.48,6.48,0,0,1,395,115h-7.56a4.38,4.38,0,0,0,.92,2.68,2.93,2.93,0,0,0,2.3,1,3.12,3.12,0,0,0,2.05-.67,3.48,3.48,0,0,0,1-1.64h1.1a4.35,4.35,0,0,1-1.24,2.21,4.15,4.15,0,0,1-2.9,1,4,4,0,0,1-3.13-1.33,5.13,5.13,0,0,1-1.21-3.58,5.19,5.19,0,0,1,1.15-3.44,4.27,4.27,0,0,1,6.46,0Zm-5.51.4a4.1,4.1,0,0,0-1,2.45h6.41q-.27-3.4-3.22-3.4A2.78,2.78,0,0,0,388.47,111.68Z"/><path class="cls-1" d="M47.89,138.24H49v13.1h-1v-1.84a3.34,3.34,0,0,1-3.26,2.09,3.78,3.78,0,0,1-3.15-1.48,5.53,5.53,0,0,1-1-3.44,5.46,5.46,0,0,1,1-3.4,3.65,3.65,0,0,1,3.1-1.49A3.4,3.4,0,0,1,47.89,144Zm-5.51,5.65a4.48,4.48,0,0,0-.77,2.79,4.75,4.75,0,0,0,.76,2.81,2.8,2.8,0,0,0,2.43,1.19,2.76,2.76,0,0,0,2.36-1.15,4.52,4.52,0,0,0,.77-2.7v-.22a4.51,4.51,0,0,0-.83-2.79,2.7,2.7,0,0,0-2.27-1.12A2.85,2.85,0,0,0,42.38,143.89Z"/><path class="cls-1" d="M58.31,143.28A6.48,6.48,0,0,1,59.38,147H51.82a4.38,4.38,0,0,0,.92,2.68,2.93,2.93,0,0,0,2.3,1,3.12,3.12,0,0,0,2.05-.67,3.49,3.49,0,0,0,1-1.64h1.1a4.36,4.36,0,0,1-1.24,2.21,4.16,4.16,0,0,1-2.9,1,4,4,0,0,1-3.13-1.33,5.13,5.13,0,0,1-1.21-3.58,5.2,5.2,0,0,1,1.15-3.44,4.27,4.27,0,0,1,6.46,0Zm-5.51.4a4.09,4.09,0,0,0-1,2.45h6.41q-.27-3.4-3.22-3.4A2.78,2.78,0,0,0,52.81,143.68Z"/><path class="cls-1" d="M61.45,138.24h1.08v13.1H61.45Z"/><path class="cls-1" d="M66.86,139a.76.76,0,0,1,.27.63.9.9,0,0,1-.29.65.94.94,0,0,1-.63.25.88.88,0,0,1-.65-.25.89.89,0,0,1-.27-.65.76.76,0,0,1,.27-.63.85.85,0,0,1,.65-.27A.88.88,0,0,1,66.86,139ZM65.68,142h1.08v9.31H65.68Z"/><path class="cls-1" d="M68.52,142h1.19L72.64,150,75.56,142h1.21l-3.56,9.31H72.08Z"/><path class="cls-1" d="M85.06,143.28A6.48,6.48,0,0,1,86.12,147H78.56a4.38,4.38,0,0,0,.92,2.68,2.93,2.93,0,0,0,2.3,1,3.12,3.12,0,0,0,2.05-.67,3.49,3.49,0,0,0,1-1.64h1.1a4.36,4.36,0,0,1-1.24,2.21,4.16,4.16,0,0,1-2.9,1,4,4,0,0,1-3.13-1.33,5.13,5.13,0,0,1-1.21-3.58,5.2,5.2,0,0,1,1.15-3.44,4.27,4.27,0,0,1,6.46,0Zm-5.51.4a4.09,4.09,0,0,0-1,2.45H85q-.27-3.4-3.22-3.4A2.78,2.78,0,0,0,79.55,143.68Z"/><path class="cls-1" d="M93.11,142v1.1a5,5,0,0,0-1.42-.2,2.3,2.3,0,0,0-2,1.12,4,4,0,0,0-.74,2.43v4.91H87.85V142h1.08v1.78a3.42,3.42,0,0,1,1-1.39,2.68,2.68,0,0,1,1.8-.65A3.69,3.69,0,0,1,93.11,142Z"/><path class="cls-1" d="M93.29,142h1.19l3,7.76,3-7.76h1.19l-5.13,12.87H95.41l1.57-3.8Z"/><path class="cls-1" d="M110.66,139a.76.76,0,0,1,.27.63.9.9,0,0,1-.29.65.94.94,0,0,1-.63.25.88.88,0,0,1-.65-.25.89.89,0,0,1-.27-.65.76.76,0,0,1,.27-.63.85.85,0,0,1,.65-.27A.88.88,0,0,1,110.66,139ZM109.47,142h1.08v9.31h-1.08Z"/><path class="cls-1" d="M120.23,144.65h-1.06a2.21,2.21,0,0,0-.77-1.42,3.7,3.7,0,0,0-3.56-.09,1.23,1.23,0,0,0,.18,2.25,12.49,12.49,0,0,0,2,.65,9.37,9.37,0,0,1,2.41.86,2.1,2.1,0,0,1,1.12,1.87q0,2.83-3.78,2.83-3.58,0-3.91-3.19h1.06a2.53,2.53,0,0,0,.86,1.76,3.22,3.22,0,0,0,1.94.49q2.7,0,2.7-1.84a1.41,1.41,0,0,0-.92-1.3,12.39,12.39,0,0,0-2.07-.65,9,9,0,0,1-2.27-.83,2,2,0,0,1-1.06-1.78,2.1,2.1,0,0,1,1-1.82,4.18,4.18,0,0,1,2.45-.67Q119.84,141.79,120.23,144.65Z"/><path class="cls-1" d="M134.87,142.6a3.53,3.53,0,0,1,1.28,2.48h-1.08a2.65,2.65,0,0,0-.94-1.76,3.11,3.11,0,0,0-2-.59,2.78,2.78,0,0,0-2.34,1.13,4.52,4.52,0,0,0-.85,2.9,4.57,4.57,0,0,0,.81,2.84,2.78,2.78,0,0,0,2.36,1.06,2.75,2.75,0,0,0,3-2.65h1.06a4.24,4.24,0,0,1-1.33,2.68,4,4,0,0,1-2.72.9,3.88,3.88,0,0,1-3.2-1.4,5.21,5.21,0,0,1-1.06-3.44,5.4,5.4,0,0,1,1.1-3.49,3.82,3.82,0,0,1,3.19-1.48A4.31,4.31,0,0,1,134.87,142.6Z"/><path class="cls-1" d="M144.75,142.85a3.59,3.59,0,0,1,.83,2.5v6h-1v-1.78a4.82,4.82,0,0,1-1.51,1.39,4.7,4.7,0,0,1-2.43.65,3.35,3.35,0,0,1-2.21-.7,2.4,2.4,0,0,1-.85-1.93,2.75,2.75,0,0,1,1.46-2.59,6.29,6.29,0,0,1,3.12-.67l2.38,0v-.34a2.36,2.36,0,0,0-2.7-2.65,3.2,3.2,0,0,0-1.94.52,2.22,2.22,0,0,0-1,1.62h-1.06a3.25,3.25,0,0,1,1.31-2.34,4.56,4.56,0,0,1,2.7-.72A3.66,3.66,0,0,1,144.75,142.85Zm-.25,3.73-2.32,0q-3.53,0-3.53,2.36a1.55,1.55,0,0,0,.59,1.26,2.38,2.38,0,0,0,1.58.49,3.87,3.87,0,0,0,2.59-1,2.75,2.75,0,0,0,1.08-2.07Z"/><path class="cls-1" d="M153.1,142v1.1a5,5,0,0,0-1.42-.2,2.3,2.3,0,0,0-2,1.12,4,4,0,0,0-.74,2.43v4.91h-1.08V142h1.08v1.78a3.42,3.42,0,0,1,1-1.39,2.68,2.68,0,0,1,1.8-.65A3.69,3.69,0,0,1,153.1,142Z"/><path class="cls-1" d="M159.58,142v1.1a5,5,0,0,0-1.42-.2,2.3,2.3,0,0,0-2,1.12,4,4,0,0,0-.74,2.43v4.91h-1.08V142h1.08v1.78a3.43,3.43,0,0,1,1-1.39,2.68,2.68,0,0,1,1.8-.65A3.69,3.69,0,0,1,159.58,142Z"/><path class="cls-1" d="M162.53,139a.76.76,0,0,1,.27.63.9.9,0,0,1-.29.65.94.94,0,0,1-.63.25.88.88,0,0,1-.65-.25.89.89,0,0,1-.27-.65.76.76,0,0,1,.27-.63.85.85,0,0,1,.65-.27A.89.89,0,0,1,162.53,139ZM161.34,142h1.08v9.31h-1.08Z"/><path class="cls-1" d="M172.31,143.28a6.48,6.48,0,0,1,1.06,3.73h-7.56a4.38,4.38,0,0,0,.92,2.68,2.93,2.93,0,0,0,2.3,1,3.12,3.12,0,0,0,2.05-.67,3.48,3.48,0,0,0,1-1.64h1.1a4.36,4.36,0,0,1-1.24,2.21,4.16,4.16,0,0,1-2.9,1,4,4,0,0,1-3.13-1.33,5.14,5.14,0,0,1-1.21-3.58,5.2,5.2,0,0,1,1.15-3.44,4.27,4.27,0,0,1,6.46,0Zm-5.51.4a4.09,4.09,0,0,0-1,2.45h6.41q-.27-3.4-3.22-3.4A2.79,2.79,0,0,0,166.8,143.68Z"/><path class="cls-1" d="M182.12,138.24h1.08v13.1h-1v-1.84a3.34,3.34,0,0,1-3.26,2.09,3.78,3.78,0,0,1-3.15-1.48,5.53,5.53,0,0,1-1-3.44,5.46,5.46,0,0,1,1-3.4,3.65,3.65,0,0,1,3.1-1.49,3.4,3.4,0,0,1,3.26,2.21Zm-5.51,5.65a4.48,4.48,0,0,0-.77,2.79,4.75,4.75,0,0,0,.76,2.81,2.8,2.8,0,0,0,2.43,1.19,2.76,2.76,0,0,0,2.36-1.15,4.52,4.52,0,0,0,.77-2.7v-.22a4.5,4.5,0,0,0-.83-2.79,2.7,2.7,0,0,0-2.27-1.12A2.85,2.85,0,0,0,176.61,143.89Z"/><path class="cls-1" d="M198.82,143.26a5.75,5.75,0,0,1,0,6.86,4.41,4.41,0,0,1-6.59,0,5.22,5.22,0,0,1-1.13-3.42,5.16,5.16,0,0,1,1.15-3.44,4,4,0,0,1,3.28-1.48A4.09,4.09,0,0,1,198.82,143.26Zm-5.79.68a5,5,0,0,0,0,5.49,3.19,3.19,0,0,0,5,0,4.51,4.51,0,0,0,.83-2.74,4.44,4.44,0,0,0-.83-2.75,3.19,3.19,0,0,0-5,0Z"/><path class="cls-1" d="M201.86,142h1.08v5.69a3.3,3.3,0,0,0,.61,2.18,2.49,2.49,0,0,0,2,.76,2.6,2.6,0,0,0,1.89-.83,3.29,3.29,0,0,0,.92-2.14V142h1.08v9.31h-1.08v-1.57a3.41,3.41,0,0,1-3.1,1.82q-3.4,0-3.4-3.82Z"/><path class="cls-1" d="M214,139v3h2.43V143H214v6.3a1.43,1.43,0,0,0,.22.88,1,1,0,0,0,.81.25h1.17v.94h-1.31a1.92,1.92,0,0,1-1.55-.56,2.25,2.25,0,0,1-.41-1.51V143h-2V142h2v-2.56Z"/><path class="cls-1" d="M224,142h1.08v5.69a3.3,3.3,0,0,0,.61,2.18,2.49,2.49,0,0,0,2,.76,2.6,2.6,0,0,0,1.89-.83,3.28,3.28,0,0,0,.92-2.14V142h1.08v9.31h-1.08v-1.57a3.41,3.41,0,0,1-3.1,1.82q-3.4,0-3.4-3.82Z"/><path class="cls-1" d="M241.42,145.62v5.72h-1.08v-5.65q0-3-2.65-3a2.46,2.46,0,0,0-1.87.81,3.28,3.28,0,0,0-.88,2.2v5.62h-1.08V142h1.08v1.53a3.79,3.79,0,0,1,1.26-1.31,3.29,3.29,0,0,1,1.76-.47Q241.42,141.79,241.42,145.62Z"/><path class="cls-1" d="M250.71,138.24h1.08v13.1h-1v-1.84a3.34,3.34,0,0,1-3.26,2.09,3.78,3.78,0,0,1-3.15-1.48,5.53,5.53,0,0,1-1-3.44,5.46,5.46,0,0,1,1-3.4,3.65,3.65,0,0,1,3.1-1.49,3.4,3.4,0,0,1,3.26,2.21Zm-5.51,5.65a4.48,4.48,0,0,0-.77,2.79,4.75,4.75,0,0,0,.76,2.81,2.8,2.8,0,0,0,2.43,1.19,2.76,2.76,0,0,0,2.36-1.15,4.52,4.52,0,0,0,.77-2.7v-.22a4.51,4.51,0,0,0-.83-2.79,2.7,2.7,0,0,0-2.27-1.12A2.85,2.85,0,0,0,245.2,143.89Z"/><path class="cls-1" d="M261.13,143.28A6.48,6.48,0,0,1,262.2,147h-7.56a4.38,4.38,0,0,0,.92,2.68,2.93,2.93,0,0,0,2.3,1,3.13,3.13,0,0,0,2.05-.67,3.5,3.5,0,0,0,1-1.64H262a4.37,4.37,0,0,1-1.24,2.21,4.16,4.16,0,0,1-2.9,1,4,4,0,0,1-3.13-1.33,5.13,5.13,0,0,1-1.21-3.58,5.2,5.2,0,0,1,1.15-3.44,4.27,4.27,0,0,1,6.46,0Zm-5.51.4a4.09,4.09,0,0,0-1,2.45h6.41q-.27-3.4-3.22-3.4A2.78,2.78,0,0,0,255.63,143.68Z"/><path class="cls-1" d="M269.18,142v1.1a5,5,0,0,0-1.42-.2,2.3,2.3,0,0,0-2,1.12,4,4,0,0,0-.74,2.43v4.91h-1.08V142H265v1.78a3.43,3.43,0,0,1,1-1.39,2.68,2.68,0,0,1,1.8-.65A3.69,3.69,0,0,1,269.18,142Z"/><path class="cls-1" d="M278.65,139v3h2.43V143h-2.43v6.3a1.42,1.42,0,0,0,.22.88,1,1,0,0,0,.81.25h1.17v.94h-1.31a1.92,1.92,0,0,1-1.55-.56,2.26,2.26,0,0,1-.41-1.51V143h-2V142h2v-2.56Z"/><path class="cls-1" d="M282.72,138.24h1.1v5.49a3.57,3.57,0,0,1,1.3-1.46,3.3,3.3,0,0,1,1.76-.49,3.25,3.25,0,0,1,2.48.94,3.76,3.76,0,0,1,.9,2.68v5.94h-1.08v-5.8a3.07,3.07,0,0,0-.68-2.11,2.57,2.57,0,0,0-1.93-.72,2.5,2.5,0,0,0-2,.94,3.35,3.35,0,0,0-.79,2.3v5.38h-1.1Z"/><path class="cls-1" d="M299.6,143.28a6.48,6.48,0,0,1,1.06,3.73H293.1a4.37,4.37,0,0,0,.92,2.68,2.93,2.93,0,0,0,2.3,1,3.12,3.12,0,0,0,2.05-.67,3.5,3.5,0,0,0,1-1.64h1.1a4.35,4.35,0,0,1-1.24,2.21,4.15,4.15,0,0,1-2.9,1,4,4,0,0,1-3.13-1.33,5.13,5.13,0,0,1-1.21-3.58,5.2,5.2,0,0,1,1.15-3.44,4.27,4.27,0,0,1,6.46,0Zm-5.51.4a4.1,4.1,0,0,0-1,2.45h6.41q-.27-3.4-3.22-3.4A2.78,2.78,0,0,0,294.09,143.68Z"/><path class="cls-1" d="M315.82,143.28a5.52,5.52,0,0,1,1,3.44,5.58,5.58,0,0,1-1,3.4,3.74,3.74,0,0,1-3.11,1.48,3.4,3.4,0,0,1-3.26-2.2v5.51h-1.08V142h1v1.84a3.42,3.42,0,0,1,3.28-2.09A3.74,3.74,0,0,1,315.82,143.28Zm-5.62.61a4.52,4.52,0,0,0-.77,2.75v.2a4.35,4.35,0,0,0,.83,2.75,2.73,2.73,0,0,0,2.27,1.08,2.91,2.91,0,0,0,2.45-1.15,4.75,4.75,0,0,0,.76-2.81,4.83,4.83,0,0,0-.74-2.81,2.82,2.82,0,0,0-2.43-1.21A2.73,2.73,0,0,0,310.2,143.89Z"/><path class="cls-1" d="M324,142v1.1a5,5,0,0,0-1.42-.2,2.3,2.3,0,0,0-2,1.12,4,4,0,0,0-.74,2.43v4.91h-1.08V142h1.08v1.78a3.42,3.42,0,0,1,1-1.39,2.67,2.67,0,0,1,1.8-.65A3.69,3.69,0,0,1,324,142Z"/><path class="cls-1" d="M332.31,143.28a6.48,6.48,0,0,1,1.06,3.73h-7.56a4.37,4.37,0,0,0,.92,2.68,2.93,2.93,0,0,0,2.3,1,3.12,3.12,0,0,0,2.05-.67,3.5,3.5,0,0,0,1-1.64h1.1a4.35,4.35,0,0,1-1.24,2.21,4.15,4.15,0,0,1-2.9,1,4,4,0,0,1-3.13-1.33,5.13,5.13,0,0,1-1.21-3.58,5.2,5.2,0,0,1,1.15-3.44,4.27,4.27,0,0,1,6.46,0Zm-5.51.4a4.1,4.1,0,0,0-1,2.45h6.41q-.27-3.4-3.22-3.4A2.78,2.78,0,0,0,326.8,143.68Z"/><path class="cls-1" d="M341.79,143.69a3.61,3.61,0,0,1,1.24-1.42,2.9,2.9,0,0,1,1.69-.49,3.06,3.06,0,0,1,2.34.92,3.67,3.67,0,0,1,.85,2.56v6.08h-1.08V145.4a3,3,0,0,0-.54-2,2.3,2.3,0,0,0-1.85-.7,2.13,2.13,0,0,0-1.69.77,2.72,2.72,0,0,0-.68,1.93v5.92H341V145.4q0-2.68-2.32-2.68a2.14,2.14,0,0,0-1.75.85,3,3,0,0,0-.72,2.05v5.72h-1.08V142h1.08v1.4a3,3,0,0,1,2.7-1.66A2.81,2.81,0,0,1,341.79,143.69Z"/><path class="cls-1" d="M351.91,139a.76.76,0,0,1,.27.63.9.9,0,0,1-.29.65.94.94,0,0,1-.63.25.89.89,0,0,1-.92-.9.76.76,0,0,1,.27-.63.85.85,0,0,1,.65-.27A.89.89,0,0,1,351.91,139ZM350.72,142h1.08v9.31h-1.08Z"/><path class="cls-1" d="M361.48,144.65h-1.06a2.21,2.21,0,0,0-.77-1.42,3.7,3.7,0,0,0-3.56-.09,1.3,1.3,0,0,0-.65,1.12,1.28,1.28,0,0,0,.83,1.13,12.46,12.46,0,0,0,2,.65,9.37,9.37,0,0,1,2.41.86,2.1,2.1,0,0,1,1.12,1.87q0,2.83-3.78,2.83-3.58,0-3.91-3.19h1.06a2.53,2.53,0,0,0,.87,1.76,3.22,3.22,0,0,0,1.94.49q2.7,0,2.7-1.84a1.41,1.41,0,0,0-.92-1.3,12.42,12.42,0,0,0-2.07-.65,9,9,0,0,1-2.27-.83,2,2,0,0,1-1.06-1.78,2.1,2.1,0,0,1,1-1.82,4.17,4.17,0,0,1,2.45-.67Q361.09,141.79,361.48,144.65Z"/><path class="cls-1" d="M370.55,143.28a6.48,6.48,0,0,1,1.06,3.73h-7.56a4.38,4.38,0,0,0,.92,2.68,2.93,2.93,0,0,0,2.3,1,3.13,3.13,0,0,0,2.05-.67,3.5,3.5,0,0,0,1-1.64h1.1a4.37,4.37,0,0,1-1.24,2.21,4.16,4.16,0,0,1-2.9,1,4,4,0,0,1-3.13-1.33,5.13,5.13,0,0,1-1.21-3.58,5.2,5.2,0,0,1,1.15-3.44,4.27,4.27,0,0,1,6.46,0Zm-5.51.4a4.09,4.09,0,0,0-1,2.45h6.41q-.27-3.4-3.22-3.4A2.78,2.78,0,0,0,365,143.68Z"/><path class="cls-1" d="M386.7,143.26a5.75,5.75,0,0,1,0,6.86,4.41,4.41,0,0,1-6.59,0A5.22,5.22,0,0,1,379,146.7a5.16,5.16,0,0,1,1.15-3.44,4,4,0,0,1,3.28-1.48A4.09,4.09,0,0,1,386.7,143.26Zm-5.79.68a5,5,0,0,0,0,5.49,3.19,3.19,0,0,0,5,0,4.51,4.51,0,0,0,.83-2.74,4.44,4.44,0,0,0-.83-2.75,3.19,3.19,0,0,0-5,0Z"/><path class="cls-1" d="M395.18,138.49v1h-1.57a1.28,1.28,0,0,0-1,.36,1.65,1.65,0,0,0-.32,1.15V142h2.79V143h-2.79v8.37h-1.08V143H388.7V142h2.48v-1.1a2.46,2.46,0,0,1,.58-1.78,2.24,2.24,0,0,1,1.76-.67Z"/><path class="cls-1" d="M51,174.6a3.53,3.53,0,0,1,1.28,2.48H51.17a2.65,2.65,0,0,0-.94-1.76,3.11,3.11,0,0,0-2-.59,2.79,2.79,0,0,0-2.34,1.13,5.39,5.39,0,0,0,0,5.74,2.78,2.78,0,0,0,2.36,1.06,2.75,2.75,0,0,0,3-2.65h1.06A4.25,4.25,0,0,1,51,182.7a4,4,0,0,1-2.72.9,3.88,3.88,0,0,1-3.2-1.4A5.21,5.21,0,0,1,44,178.75a5.4,5.4,0,0,1,1.1-3.49,3.82,3.82,0,0,1,3.19-1.48A4.31,4.31,0,0,1,51,174.6Z"/><path class="cls-1" d="M61.37,175.26a5.75,5.75,0,0,1,0,6.86,4.41,4.41,0,0,1-6.59,0,5.22,5.22,0,0,1-1.13-3.42,5.16,5.16,0,0,1,1.15-3.44,4,4,0,0,1,3.28-1.48A4.09,4.09,0,0,1,61.37,175.26Zm-5.8.68a5,5,0,0,0,0,5.49,3.19,3.19,0,0,0,5,0,4.51,4.51,0,0,0,.83-2.74,4.44,4.44,0,0,0-.83-2.75,3.19,3.19,0,0,0-5,0Z"/><path class="cls-1" d="M71.11,175.69a3.62,3.62,0,0,1,1.24-1.42,2.9,2.9,0,0,1,1.69-.49,3.06,3.06,0,0,1,2.34.92,3.67,3.67,0,0,1,.85,2.56v6.08H76.15V177.4a3,3,0,0,0-.54-2,2.3,2.3,0,0,0-1.85-.7,2.14,2.14,0,0,0-1.69.77,2.72,2.72,0,0,0-.68,1.93v5.92h-1.1V177.4q0-2.68-2.32-2.68a2.15,2.15,0,0,0-1.75.85,3,3,0,0,0-.72,2.05v5.72H64.42V174H65.5v1.4a3,3,0,0,1,2.7-1.66A2.81,2.81,0,0,1,71.11,175.69Z"/><path class="cls-1" d="M86.93,175.28a5.52,5.52,0,0,1,1,3.44,5.58,5.58,0,0,1-1,3.4,3.74,3.74,0,0,1-3.11,1.48,3.4,3.4,0,0,1-3.26-2.2v5.51H79.5V174h1v1.84a3.42,3.42,0,0,1,3.28-2.09A3.74,3.74,0,0,1,86.93,175.28Zm-5.62.61a4.51,4.51,0,0,0-.77,2.75v.2a4.35,4.35,0,0,0,.83,2.75,2.73,2.73,0,0,0,2.27,1.08,2.91,2.91,0,0,0,2.45-1.15,4.75,4.75,0,0,0,.76-2.81,4.83,4.83,0,0,0-.74-2.81,2.82,2.82,0,0,0-2.43-1.21A2.73,2.73,0,0,0,81.32,175.89Z"/><path class="cls-1" d="M90.21,170.24h1.08v13.1H90.21Z"/><path class="cls-1" d="M95.63,171a.76.76,0,0,1,.27.63.9.9,0,0,1-.29.65.94.94,0,0,1-.63.25.88.88,0,0,1-.65-.25.89.89,0,0,1-.27-.65.76.76,0,0,1,.27-.63.85.85,0,0,1,.65-.27A.88.88,0,0,1,95.63,171ZM94.44,174h1.08v9.31H94.44Z"/><path class="cls-1" d="M105.17,174.85a3.6,3.6,0,0,1,.83,2.5v6h-1v-1.78a4.81,4.81,0,0,1-1.51,1.39,4.7,4.7,0,0,1-2.43.65,3.35,3.35,0,0,1-2.21-.7A2.4,2.4,0,0,1,98,181a2.75,2.75,0,0,1,1.46-2.59,6.29,6.29,0,0,1,3.11-.67l2.38,0v-.34a2.36,2.36,0,0,0-2.7-2.65,3.2,3.2,0,0,0-1.94.52,2.22,2.22,0,0,0-1,1.62H98.26a3.25,3.25,0,0,1,1.31-2.34,4.56,4.56,0,0,1,2.7-.72A3.67,3.67,0,0,1,105.17,174.85Zm-.25,3.73-2.32,0q-3.53,0-3.53,2.36a1.55,1.55,0,0,0,.59,1.26,2.38,2.38,0,0,0,1.58.49,3.87,3.87,0,0,0,2.59-1,2.75,2.75,0,0,0,1.08-2.07Z"/><path class="cls-1" d="M115.82,177.62v5.72h-1.08v-5.65q0-3-2.65-3a2.46,2.46,0,0,0-1.87.81,3.28,3.28,0,0,0-.88,2.2v5.62h-1.08V174h1.08v1.53a3.79,3.79,0,0,1,1.26-1.31,3.29,3.29,0,0,1,1.76-.47Q115.82,173.79,115.82,177.62Z"/><path class="cls-1" d="M124.73,174.6a3.53,3.53,0,0,1,1.28,2.48h-1.08a2.65,2.65,0,0,0-.94-1.76,3.11,3.11,0,0,0-2-.59,2.79,2.79,0,0,0-2.34,1.13,5.39,5.39,0,0,0,0,5.74,2.78,2.78,0,0,0,2.36,1.06,2.75,2.75,0,0,0,3-2.65H126a4.25,4.25,0,0,1-1.33,2.68,4,4,0,0,1-2.72.9,3.88,3.88,0,0,1-3.2-1.4,5.21,5.21,0,0,1-1.06-3.44,5.4,5.4,0,0,1,1.1-3.49,3.82,3.82,0,0,1,3.19-1.48A4.31,4.31,0,0,1,124.73,174.6Z"/><path class="cls-1" d="M134.85,175.28a6.48,6.48,0,0,1,1.06,3.73h-7.56a4.38,4.38,0,0,0,.92,2.68,2.93,2.93,0,0,0,2.3,1,3.13,3.13,0,0,0,2.05-.67,3.5,3.5,0,0,0,1-1.64h1.1a4.37,4.37,0,0,1-1.24,2.21,4.16,4.16,0,0,1-2.9,1,4,4,0,0,1-3.13-1.33,5.13,5.13,0,0,1-1.21-3.58,5.2,5.2,0,0,1,1.15-3.44,4.27,4.27,0,0,1,6.46,0Zm-5.51.4a4.09,4.09,0,0,0-1,2.45h6.41q-.27-3.4-3.22-3.4A2.78,2.78,0,0,0,129.34,175.68Z"/><path class="cls-1" d="M150.47,174.85a3.6,3.6,0,0,1,.83,2.5v6h-1v-1.78a4.8,4.8,0,0,1-1.51,1.39,4.7,4.7,0,0,1-2.43.65,3.35,3.35,0,0,1-2.21-.7,2.4,2.4,0,0,1-.85-1.93,2.75,2.75,0,0,1,1.46-2.59,6.28,6.28,0,0,1,3.11-.67l2.38,0v-.34q0-2.65-2.7-2.65a3.2,3.2,0,0,0-1.94.52,2.22,2.22,0,0,0-1,1.62h-1.06a3.25,3.25,0,0,1,1.31-2.34,4.56,4.56,0,0,1,2.7-.72A3.67,3.67,0,0,1,150.47,174.85Zm-.25,3.73-2.32,0q-3.53,0-3.53,2.36a1.55,1.55,0,0,0,.59,1.26,2.38,2.38,0,0,0,1.58.49,3.87,3.87,0,0,0,2.59-1,2.76,2.76,0,0,0,1.08-2.07Z"/><path class="cls-1" d="M160.21,174.6a3.53,3.53,0,0,1,1.28,2.48h-1.08a2.65,2.65,0,0,0-.94-1.76,3.11,3.11,0,0,0-2-.59,2.78,2.78,0,0,0-2.34,1.13,4.52,4.52,0,0,0-.85,2.9,4.57,4.57,0,0,0,.81,2.84,2.78,2.78,0,0,0,2.36,1.06,2.75,2.75,0,0,0,3-2.65h1.06a4.24,4.24,0,0,1-1.33,2.68,4,4,0,0,1-2.72.9,3.89,3.89,0,0,1-3.21-1.4,5.22,5.22,0,0,1-1.06-3.44,5.4,5.4,0,0,1,1.1-3.49,3.82,3.82,0,0,1,3.19-1.48A4.31,4.31,0,0,1,160.21,174.6Z"/><path class="cls-1" d="M169.89,174.6a3.53,3.53,0,0,1,1.28,2.48h-1.08a2.65,2.65,0,0,0-.94-1.76,3.11,3.11,0,0,0-2-.59,2.78,2.78,0,0,0-2.34,1.13,4.52,4.52,0,0,0-.85,2.9,4.57,4.57,0,0,0,.81,2.84,2.78,2.78,0,0,0,2.36,1.06,2.75,2.75,0,0,0,3-2.65h1.06a4.24,4.24,0,0,1-1.33,2.68,4,4,0,0,1-2.72.9,3.89,3.89,0,0,1-3.21-1.4,5.22,5.22,0,0,1-1.06-3.44,5.4,5.4,0,0,1,1.1-3.49,3.82,3.82,0,0,1,3.19-1.48A4.31,4.31,0,0,1,169.89,174.6Z"/><path class="cls-1" d="M180.3,175.26a5.75,5.75,0,0,1,0,6.86,4.41,4.41,0,0,1-6.59,0,5.22,5.22,0,0,1-1.13-3.42,5.15,5.15,0,0,1,1.15-3.44,4,4,0,0,1,3.28-1.48A4.09,4.09,0,0,1,180.3,175.26Zm-5.8.68a5,5,0,0,0,0,5.49,3.19,3.19,0,0,0,5,0,4.51,4.51,0,0,0,.83-2.74,4.44,4.44,0,0,0-.83-2.75,3.19,3.19,0,0,0-5,0Z"/><path class="cls-1" d="M188.6,174v1.1a5,5,0,0,0-1.42-.2,2.3,2.3,0,0,0-2,1.12,4,4,0,0,0-.74,2.43v4.91h-1.08V174h1.08v1.78a3.43,3.43,0,0,1,1-1.39,2.68,2.68,0,0,1,1.8-.65A3.69,3.69,0,0,1,188.6,174Z"/><path class="cls-1" d="M196.84,170.24h1.08v13.1h-1v-1.84a3.34,3.34,0,0,1-3.26,2.09,3.78,3.78,0,0,1-3.15-1.48,5.53,5.53,0,0,1-1-3.44,5.46,5.46,0,0,1,1-3.4,3.65,3.65,0,0,1,3.1-1.49,3.4,3.4,0,0,1,3.26,2.21Zm-5.51,5.65a4.48,4.48,0,0,0-.77,2.79,4.75,4.75,0,0,0,.76,2.81,2.8,2.8,0,0,0,2.43,1.19,2.76,2.76,0,0,0,2.36-1.15,4.52,4.52,0,0,0,.77-2.7v-.22a4.51,4.51,0,0,0-.83-2.79,2.7,2.7,0,0,0-2.27-1.12A2.85,2.85,0,0,0,191.33,175.89Z"/><path class="cls-1" d="M201.92,171a.76.76,0,0,1,.27.63.9.9,0,0,1-.29.65.94.94,0,0,1-.63.25.88.88,0,0,1-.65-.25.89.89,0,0,1-.27-.65.76.76,0,0,1,.27-.63.85.85,0,0,1,.65-.27A.88.88,0,0,1,201.92,171ZM200.73,174h1.08v9.31h-1.08Z"/><path class="cls-1" d="M212.18,177.62v5.72H211.1v-5.65q0-3-2.65-3a2.46,2.46,0,0,0-1.87.81,3.28,3.28,0,0,0-.88,2.2v5.62h-1.08V174h1.08v1.53a3.79,3.79,0,0,1,1.26-1.31,3.29,3.29,0,0,1,1.76-.47Q212.18,173.79,212.18,177.62Z"/><path class="cls-1" d="M221.61,175.91V174h1.08v8.62q0,4.5-4.18,4.5a4.48,4.48,0,0,1-2.83-.79,3.4,3.4,0,0,1-1.19-2.23h1.08a2.41,2.41,0,0,0,.86,1.55,3.24,3.24,0,0,0,2.07.58q3.1,0,3.1-3.47V181a3.46,3.46,0,0,1-3.33,2.12,3.87,3.87,0,0,1-3.11-1.39,5.51,5.51,0,0,1,0-6.55,3.85,3.85,0,0,1,3.11-1.4A3.46,3.46,0,0,1,221.61,175.91Zm-5.6-.09a4,4,0,0,0-.83,2.65,4.13,4.13,0,0,0,.77,2.59,2.84,2.84,0,0,0,2.43,1.13,2.92,2.92,0,0,0,2.41-1.08,4.73,4.73,0,0,0,0-5.29,3.13,3.13,0,0,0-4.79,0Z"/><path class="cls-1" d="M233.2,171v3h2.43V175H233.2v6.3a1.43,1.43,0,0,0,.22.88,1,1,0,0,0,.81.25h1.17v.94h-1.31a1.92,1.92,0,0,1-1.55-.56,2.25,2.25,0,0,1-.41-1.51V175h-2V174h2v-2.56Z"/><path class="cls-1" d="M244.63,175.26a5.76,5.76,0,0,1,0,6.86,4.41,4.41,0,0,1-6.59,0,5.22,5.22,0,0,1-1.13-3.42,5.15,5.15,0,0,1,1.15-3.44,4,4,0,0,1,3.28-1.48A4.09,4.09,0,0,1,244.63,175.26Zm-5.8.68a5,5,0,0,0,0,5.49,3.19,3.19,0,0,0,5,0,4.51,4.51,0,0,0,.83-2.74,4.44,4.44,0,0,0-.83-2.75,3.19,3.19,0,0,0-5,0Z"/><path class="cls-1" d="M255.91,171v3h2.43V175h-2.43v6.3a1.42,1.42,0,0,0,.22.88,1,1,0,0,0,.81.25h1.17v.94H256.8a1.92,1.92,0,0,1-1.55-.56,2.26,2.26,0,0,1-.41-1.51V175h-2V174h2v-2.56Z"/><path class="cls-1" d="M260,170.24h1.1v5.49a3.58,3.58,0,0,1,1.3-1.46,3.31,3.31,0,0,1,1.76-.49,3.25,3.25,0,0,1,2.48.94,3.76,3.76,0,0,1,.9,2.68v5.94h-1.08v-5.8a3.07,3.07,0,0,0-.68-2.11,2.56,2.56,0,0,0-1.93-.72,2.51,2.51,0,0,0-2,.94,3.36,3.36,0,0,0-.79,2.3v5.38H260Z"/><path class="cls-1" d="M276.87,175.28a6.48,6.48,0,0,1,1.06,3.73h-7.56a4.38,4.38,0,0,0,.92,2.68,2.93,2.93,0,0,0,2.3,1,3.13,3.13,0,0,0,2.05-.67,3.5,3.5,0,0,0,1-1.64h1.1a4.37,4.37,0,0,1-1.24,2.21,4.16,4.16,0,0,1-2.9,1,4,4,0,0,1-3.13-1.33,5.13,5.13,0,0,1-1.21-3.58,5.2,5.2,0,0,1,1.15-3.44,4.27,4.27,0,0,1,6.46,0Zm-5.51.4a4.09,4.09,0,0,0-1,2.45h6.41q-.27-3.4-3.22-3.4A2.78,2.78,0,0,0,271.36,175.68Z"/><path class="cls-1" d="M290.91,174v1.1a5,5,0,0,0-1.42-.2,2.3,2.3,0,0,0-2,1.12,4,4,0,0,0-.74,2.43v4.91h-1.08V174h1.08v1.78a3.43,3.43,0,0,1,1-1.39,2.68,2.68,0,0,1,1.8-.65A3.69,3.69,0,0,1,290.91,174Z"/><path class="cls-1" d="M299.2,175.28a6.48,6.48,0,0,1,1.06,3.73h-7.56a4.38,4.38,0,0,0,.92,2.68,2.93,2.93,0,0,0,2.3,1A3.12,3.12,0,0,0,298,182a3.48,3.48,0,0,0,1-1.64h1.1a4.36,4.36,0,0,1-1.24,2.21,4.16,4.16,0,0,1-2.9,1,4,4,0,0,1-3.13-1.33,5.14,5.14,0,0,1-1.21-3.58,5.2,5.2,0,0,1,1.15-3.44,4.27,4.27,0,0,1,6.46,0Zm-5.51.4a4.09,4.09,0,0,0-1,2.45h6.41q-.27-3.4-3.22-3.4A2.79,2.79,0,0,0,293.7,175.68Z"/><path class="cls-1" d="M309.07,175.87V174h1v12.87H309V181.4a3.4,3.4,0,0,1-3.26,2.2,3.63,3.63,0,0,1-3.1-1.48,5.47,5.47,0,0,1-1-3.4,5.41,5.41,0,0,1,1-3.44,3.68,3.68,0,0,1,3.13-1.49A3.41,3.41,0,0,1,309.07,175.87Zm-5.58,0a4.72,4.72,0,0,0-.74,2.81,4.62,4.62,0,0,0,.77,2.81,2.8,2.8,0,0,0,2.43,1.15,2.7,2.7,0,0,0,2.27-1.08,4.44,4.44,0,0,0,.83-2.75v-.2a4.62,4.62,0,0,0-.77-2.75,3,3,0,0,0-4.79,0Z"/><path class="cls-1" d="M312.36,174h1.08v5.69a3.3,3.3,0,0,0,.61,2.18,2.49,2.49,0,0,0,2,.76,2.61,2.61,0,0,0,1.89-.83,3.3,3.3,0,0,0,.92-2.14V174h1.08v9.31h-1.08v-1.57a3.41,3.41,0,0,1-3.1,1.82q-3.4,0-3.4-3.82Z"/><path class="cls-1" d="M323.94,171a.76.76,0,0,1,.27.63.9.9,0,0,1-.29.65.94.94,0,0,1-.63.25.88.88,0,0,1-.65-.25.89.89,0,0,1-.27-.65.76.76,0,0,1,.27-.63.85.85,0,0,1,.65-.27A.88.88,0,0,1,323.94,171ZM322.75,174h1.08v9.31h-1.08Z"/><path class="cls-1" d="M331.89,174v1.1a5,5,0,0,0-1.42-.2,2.3,2.3,0,0,0-2,1.12,4,4,0,0,0-.74,2.43v4.91h-1.08V174h1.08v1.78a3.42,3.42,0,0,1,1-1.39,2.68,2.68,0,0,1,1.8-.65A3.69,3.69,0,0,1,331.89,174Z"/><path class="cls-1" d="M340.19,175.28a6.48,6.48,0,0,1,1.06,3.73h-7.56a4.38,4.38,0,0,0,.92,2.68,2.93,2.93,0,0,0,2.3,1A3.13,3.13,0,0,0,339,182a3.5,3.5,0,0,0,1-1.64h1.1a4.37,4.37,0,0,1-1.24,2.21,4.16,4.16,0,0,1-2.9,1,4,4,0,0,1-3.13-1.33,5.13,5.13,0,0,1-1.21-3.58,5.2,5.2,0,0,1,1.15-3.44,4.27,4.27,0,0,1,6.46,0Zm-5.51.4a4.09,4.09,0,0,0-1,2.45h6.41q-.27-3.4-3.22-3.4A2.78,2.78,0,0,0,334.68,175.68Z"/><path class="cls-1" d="M349.67,175.69a3.62,3.62,0,0,1,1.24-1.42,2.9,2.9,0,0,1,1.69-.49,3.06,3.06,0,0,1,2.34.92,3.67,3.67,0,0,1,.85,2.56v6.08h-1.08V177.4a3,3,0,0,0-.54-2,2.3,2.3,0,0,0-1.85-.7,2.13,2.13,0,0,0-1.69.77,2.72,2.72,0,0,0-.68,1.93v5.92h-1.1V177.4q0-2.68-2.32-2.68a2.15,2.15,0,0,0-1.75.85,3,3,0,0,0-.72,2.05v5.72H343V174h1.08v1.4a3,3,0,0,1,2.7-1.66A2.8,2.8,0,0,1,349.67,175.69Z"/><path class="cls-1" d="M365.14,175.28A6.48,6.48,0,0,1,366.2,179h-7.56a4.37,4.37,0,0,0,.92,2.68,2.93,2.93,0,0,0,2.3,1,3.12,3.12,0,0,0,2.05-.67,3.5,3.5,0,0,0,1-1.64H366a4.35,4.35,0,0,1-1.24,2.21,4.15,4.15,0,0,1-2.9,1,4,4,0,0,1-3.13-1.33,5.13,5.13,0,0,1-1.21-3.58,5.2,5.2,0,0,1,1.15-3.44,4.27,4.27,0,0,1,6.46,0Zm-5.51.4a4.1,4.1,0,0,0-1,2.45h6.41q-.27-3.4-3.22-3.4A2.78,2.78,0,0,0,359.63,175.68Z"/><path class="cls-1" d="M375.49,177.62v5.72h-1.08v-5.65q0-3-2.65-3a2.46,2.46,0,0,0-1.87.81,3.28,3.28,0,0,0-.88,2.2v5.62h-1.08V174H369v1.53a3.79,3.79,0,0,1,1.26-1.31,3.29,3.29,0,0,1,1.76-.47Q375.49,173.79,375.49,177.62Z"/><path class="cls-1" d="M380,171v3h2.43V175H380v6.3a1.43,1.43,0,0,0,.22.88,1,1,0,0,0,.81.25h1.17v.94h-1.31a1.92,1.92,0,0,1-1.55-.56,2.25,2.25,0,0,1-.41-1.51V175h-2V174h2v-2.56Z"/><path class="cls-1" d="M390.95,176.65h-1.06a2.21,2.21,0,0,0-.78-1.42,3.7,3.7,0,0,0-3.56-.09,1.3,1.3,0,0,0-.65,1.12,1.28,1.28,0,0,0,.83,1.13,12.47,12.47,0,0,0,2,.65,9.36,9.36,0,0,1,2.41.86,2.1,2.1,0,0,1,1.12,1.87q0,2.83-3.78,2.83-3.58,0-3.91-3.19h1.06a2.53,2.53,0,0,0,.86,1.76,3.22,3.22,0,0,0,1.94.49q2.7,0,2.7-1.84a1.41,1.41,0,0,0-.92-1.3,12.36,12.36,0,0,0-2.07-.65,9,9,0,0,1-2.27-.83,2,2,0,0,1-1.06-1.78,2.1,2.1,0,0,1,1-1.82,4.18,4.18,0,0,1,2.45-.67Q390.55,173.79,390.95,176.65Z"/><path class="cls-1" d="M177.31,207.26a5.75,5.75,0,0,1,0,6.86,4.41,4.41,0,0,1-6.59,0,5.22,5.22,0,0,1-1.13-3.42,5.15,5.15,0,0,1,1.15-3.44,4,4,0,0,1,3.28-1.48A4.09,4.09,0,0,1,177.31,207.26Zm-5.8.68a5,5,0,0,0,0,5.49,3.19,3.19,0,0,0,5,0,4.51,4.51,0,0,0,.83-2.74,4.44,4.44,0,0,0-.83-2.75,3.19,3.19,0,0,0-5,0Z"/><path class="cls-1" d="M185.79,202.49v1h-1.57a1.28,1.28,0,0,0-1,.36,1.65,1.65,0,0,0-.32,1.15V206h2.79V207h-2.79v8.37h-1.08V207h-2.48V206h2.48v-1.1a2.46,2.46,0,0,1,.58-1.78,2.24,2.24,0,0,1,1.76-.67Z"/><path class="cls-1" d="M195.26,203v3h2.43V207h-2.43v6.3a1.43,1.43,0,0,0,.22.88,1,1,0,0,0,.81.25h1.17v.94h-1.31a1.92,1.92,0,0,1-1.55-.56,2.25,2.25,0,0,1-.41-1.51V207h-2V206h2v-2.56Z"/><path class="cls-1" d="M199.32,202.24h1.1v5.49a3.58,3.58,0,0,1,1.3-1.46,3.3,3.3,0,0,1,1.76-.49,3.25,3.25,0,0,1,2.48.94,3.76,3.76,0,0,1,.9,2.68v5.94h-1.08v-5.8a3.07,3.07,0,0,0-.68-2.11,2.57,2.57,0,0,0-1.93-.72,2.5,2.5,0,0,0-2,.94,3.36,3.36,0,0,0-.79,2.3v5.38h-1.1Z"/><path class="cls-1" d="M216.21,207.28a6.48,6.48,0,0,1,1.06,3.73h-7.56a4.38,4.38,0,0,0,.92,2.68,2.93,2.93,0,0,0,2.3,1A3.12,3.12,0,0,0,215,214a3.48,3.48,0,0,0,1-1.64h1.1a4.35,4.35,0,0,1-1.24,2.21,4.15,4.15,0,0,1-2.9,1,4,4,0,0,1-3.13-1.33,5.13,5.13,0,0,1-1.21-3.58,5.19,5.19,0,0,1,1.15-3.44,4.27,4.27,0,0,1,6.46,0Zm-5.51.4a4.1,4.1,0,0,0-1,2.45h6.41q-.27-3.4-3.22-3.4A2.78,2.78,0,0,0,210.7,207.68Z"/><path class="cls-1" d="M231.63,206.6a3.53,3.53,0,0,1,1.28,2.48h-1.08a2.64,2.64,0,0,0-.94-1.76,3.11,3.11,0,0,0-2-.59,2.78,2.78,0,0,0-2.34,1.13,5.39,5.39,0,0,0,0,5.74,2.78,2.78,0,0,0,2.36,1.06,2.75,2.75,0,0,0,3-2.65h1.06a4.25,4.25,0,0,1-1.33,2.68,4,4,0,0,1-2.72.9,3.88,3.88,0,0,1-3.2-1.4,5.21,5.21,0,0,1-1.06-3.44,5.4,5.4,0,0,1,1.1-3.49,3.82,3.82,0,0,1,3.19-1.48A4.31,4.31,0,0,1,231.63,206.6Z"/><path class="cls-1" d="M234.67,202.24h1.1v5.49a3.58,3.58,0,0,1,1.3-1.46,3.3,3.3,0,0,1,1.76-.49,3.25,3.25,0,0,1,2.48.94,3.76,3.76,0,0,1,.9,2.68v5.94h-1.08v-5.8a3.07,3.07,0,0,0-.68-2.11,2.57,2.57,0,0,0-1.93-.72,2.5,2.5,0,0,0-2,.94,3.36,3.36,0,0,0-.79,2.3v5.38h-1.1Z"/><path class="cls-1" d="M251.32,206.85a3.59,3.59,0,0,1,.83,2.5v6h-1v-1.78a4.82,4.82,0,0,1-1.51,1.39,4.7,4.7,0,0,1-2.43.65,3.35,3.35,0,0,1-2.21-.7,2.4,2.4,0,0,1-.85-1.93,2.75,2.75,0,0,1,1.46-2.59,6.29,6.29,0,0,1,3.12-.67l2.38,0v-.34a2.36,2.36,0,0,0-2.7-2.65,3.2,3.2,0,0,0-1.94.52,2.22,2.22,0,0,0-1,1.62h-1.06a3.25,3.25,0,0,1,1.31-2.34,4.56,4.56,0,0,1,2.7-.72A3.66,3.66,0,0,1,251.32,206.85Zm-.25,3.73-2.32,0q-3.53,0-3.53,2.36a1.55,1.55,0,0,0,.59,1.26,2.38,2.38,0,0,0,1.58.49,3.87,3.87,0,0,0,2.59-1,2.75,2.75,0,0,0,1.08-2.07Z"/><path class="cls-1" d="M256.15,203a.76.76,0,0,1,.27.63.9.9,0,0,1-.29.65.94.94,0,0,1-.63.25.89.89,0,0,1-.92-.9.76.76,0,0,1,.27-.63.85.85,0,0,1,.65-.27A.89.89,0,0,1,256.15,203ZM255,206H256v9.31H255Z"/><path class="cls-1" d="M266.41,209.62v5.72h-1.08v-5.65q0-3-2.65-3a2.46,2.46,0,0,0-1.87.81,3.28,3.28,0,0,0-.88,2.2v5.62h-1.08V206h1.08v1.53a3.79,3.79,0,0,1,1.26-1.31,3.29,3.29,0,0,1,1.76-.47Q266.41,205.79,266.41,209.62Z"/><path class="cls-1" d="M270.51,213.8a.81.81,0,0,1,.27.65.9.9,0,0,1-.29.65.94.94,0,0,1-.63.25.85.85,0,0,1-.65-.27.87.87,0,0,1-.27-.63.81.81,0,0,1,.27-.65.84.84,0,0,1,.65-.25A.88.88,0,0,1,270.51,213.8Z"/></svg>