<svg id="图层_1" data-name="图层 1" xmlns="http://www.w3.org/2000/svg" viewBox="0 0 441 276"><defs><style>.cls-1{fill:#33353c;}</style></defs><title>121212</title><path class="cls-1" d="M28.53,14.73a16.35,16.35,0,0,1-3.35,2.68l-.65-.74A16.2,16.2,0,0,0,28,14.07Zm4.32,5.38q-.38,3.44-1.66,4.63-1.4,1.49-6.14,1.87l-.4-.88q4.32-.25,5.72-1.57A6.41,6.41,0,0,0,31.86,20Zm-7.53-9.4a16.22,16.22,0,0,1,3,1.24l-.52.81a12.53,12.53,0,0,0-3-1.31Zm12.6,7.54v5.35h-1V19.18H27.5v4.54h-1V18.26Zm-5.65-8a10.62,10.62,0,0,1-.52,1.26h7.4v.61a14.26,14.26,0,0,1-.9,2.61l-.94-.27a9.54,9.54,0,0,0,.83-2.07H34.76a7.83,7.83,0,0,1-.36,1.31Q35.87,16,40,16.82l-.34.85q-4.07-.81-5.69-3.08a6.51,6.51,0,0,1-.87,1.1,9.41,9.41,0,0,1-4.3,1.94l-.38-.88a8.76,8.76,0,0,0,3.94-1.66,4.77,4.77,0,0,0,1.42-2.65H31.21a8.12,8.12,0,0,1-1.8,1.84l-.59-.77a6.66,6.66,0,0,0,2.5-3.31Zm1,13.3a35.56,35.56,0,0,1,6.39,2.3l-.52.81a34.65,34.65,0,0,0-6.37-2.38Z"/><path class="cls-1" d="M50.17,10A15.51,15.51,0,0,1,51,12.18h6.39v.94H54.25a14,14,0,0,1-1,3h4.55v1h-13v2.83a11.49,11.49,0,0,1-2,6.71L42.07,26a10.17,10.17,0,0,0,1.73-6V16.15H47.5l-.83-3H43.31v-.94h6.77a15.61,15.61,0,0,0-.92-2Zm-1.67,6.16h3.83a11.34,11.34,0,0,0,1-3H47.65Z"/><path class="cls-1" d="M66.38,13.45v12.1h-.94v-1.1H61.81v1.6h-.94V13.45H62.5a16.43,16.43,0,0,0,.81-3.22l1,.13a15.38,15.38,0,0,1-.86,3.1Zm-4.57,5h3.64v-4H61.81Zm0,5.15h3.64V19.29H61.81Zm13.9-10.08q0,8.66-.25,10.78A2.24,2.24,0,0,1,73,26.42l-1.76,0-.23-.9q1.08.05,1.89.05,1.46,0,1.67-1.6t.25-9.49H69.46a15,15,0,0,1-1.82,3.15l-.58-.76a16,16,0,0,0,2.65-6.62l1,.11a22.39,22.39,0,0,1-.83,3.15Zm-6.26,4a30.7,30.7,0,0,1,3.13,4L71.8,22a28.24,28.24,0,0,0-3.15-4Z"/><path class="cls-1" d="M79.88,12.75a21.13,21.13,0,0,1,2.59,2.12,10.19,10.19,0,0,0,2.29-3H80V11h5.87v.74a10.94,10.94,0,0,1-2.34,3.44h6.14a14.61,14.61,0,0,1-3.11-4.3l.81-.47a13.48,13.48,0,0,0,1.33,2.29,9.91,9.91,0,0,0,2.23-2.12l.7.63a10.94,10.94,0,0,1-2.39,2.2A13.74,13.74,0,0,0,90.77,15a11.18,11.18,0,0,0,2.38-2.32l.7.63a11.87,11.87,0,0,1-2.38,2.27,16.83,16.83,0,0,0,3.19,2L94,18.3a18.79,18.79,0,0,1-4.25-3v.81H83.25v-.65a15.43,15.43,0,0,1-4.52,2.84l-.59-.77a16.6,16.6,0,0,0,3.65-2.07,25,25,0,0,0-2.57-2.07Zm2.9,9.85a12.14,12.14,0,0,1,1.69,2.56h3.69a16,16,0,0,0,1.55-2.68l.92.34a13.69,13.69,0,0,1-1.44,2.34h4.71v.94H78.57v-.94h4.91a10.6,10.6,0,0,0-1.62-2.21Zm-1.4-4.75h9.83V22H81.38Zm8.84,3.31V18.71H82.37v2.45Z"/><path class="cls-1" d="M96.1,15.85h3.71V24.2q1.08-.81,2.45-2.05l.25,1a24.33,24.33,0,0,1-3.58,2.72L98.55,25a1,1,0,0,0,.31-.65V16.8H96.1ZM98,10.43a23.12,23.12,0,0,1,3.15,2.86l-.67.68a22,22,0,0,0-3.19-2.88Zm14.51,11.25a8.87,8.87,0,0,1-.7,3.58,2.08,2.08,0,0,1-1.94.81h-4.64q-1.6,0-1.6-1.67V16.73h6.44V12.18h-7.4v-.94H111v6.43H104.6v6.43q0,1,1,1.06h4.14a1.36,1.36,0,0,0,1.42-.79,9.71,9.71,0,0,0,.43-3Z"/><path class="cls-1" d="M116.35,22.51a13.38,13.38,0,0,1,2,1.75,15.17,15.17,0,0,1,1.51,1.8l-.7.59a17.63,17.63,0,0,0-1.49-1.78,15.23,15.23,0,0,0-1.94-1.76Z"/><path class="cls-1" d="M144.34,17.94A16.32,16.32,0,0,1,141,22.33a20.57,20.57,0,0,0,7.29,3.37l-.58.9a21,21,0,0,1-7.45-3.6,18.57,18.57,0,0,1-7.45,3.67l-.59-.86a19.14,19.14,0,0,0,7.29-3.44,15.17,15.17,0,0,1-3.37-4.19l.85-.49a13.9,13.9,0,0,0,3.26,4,14.33,14.33,0,0,0,3.15-4.18Zm-12-5.44H140a13.43,13.43,0,0,0-1.12-2.2l1.06-.18A14.86,14.86,0,0,1,141,12.5h7.15v.92H132.35Zm5.76,2.36A20.86,20.86,0,0,1,133,19.52l-.63-.81a19.81,19.81,0,0,0,5-4.5Zm4.9-.65A35.38,35.38,0,0,1,148,19l-.72.7a34.62,34.62,0,0,0-5-4.88Z"/><path class="cls-1" d="M152.89,17.07V11h10.82v6.1h-7.06a9.34,9.34,0,0,1-1.33,1.66H165q-.07,2.75-.31,4.61a5.34,5.34,0,0,1-.85,2.43,2.42,2.42,0,0,1-1.84.74H159.8l-.23-.94q1,.05,2,.05a1.83,1.83,0,0,0,1.87-1.12,18.23,18.23,0,0,0,.61-4.88h-2a12,12,0,0,1-7.47,7L154,25.8a11.28,11.28,0,0,0,7-6.17h-2.68a12.16,12.16,0,0,1-6.19,4.81l-.63-.76a11.75,11.75,0,0,0,5.8-4h-3a14.65,14.65,0,0,1-3.2,1.87l-.54-.85a11.27,11.27,0,0,0,5-3.58Zm1-3.47h8.89V11.82h-8.89Zm8.89,2.61V14.43h-8.89v1.78Z"/><path class="cls-1" d="M170.35,22.51a13.38,13.38,0,0,1,2,1.75,15.17,15.17,0,0,1,1.51,1.8l-.7.59a17.63,17.63,0,0,0-1.49-1.78,15.23,15.23,0,0,0-1.94-1.76Z"/><path class="cls-1" d="M192.67,24.17a38.36,38.36,0,0,1-6.25,1.67l-.13-1a32.81,32.81,0,0,0,6.37-1.66Zm-2.21-13.59a29.15,29.15,0,0,1-2.93,5.83q1.46-.16,2.92-.43l1.12-2.09.86.32A37,37,0,0,1,188.1,21a29.86,29.86,0,0,0,4.36-1.15v.9A32.59,32.59,0,0,1,186.93,22l-.27-.92a1.27,1.27,0,0,0,.43-.27,20.63,20.63,0,0,0,2.83-4q-1.64.27-3.33.49l-.23-.9a1,1,0,0,0,.41-.38,29.65,29.65,0,0,0,2.77-5.89Zm2.05,2h4.43v-2.3h1v2.3h4.41v.94h-4.41v3h3.89v.94H193.1v-.94h3.83v-3h-4.43Zm8.66,7v7h-.94v-1h-5.51v1h-1v-7Zm-6.44,5.15h5.51V20.49h-5.51Z"/><path class="cls-1" d="M206.55,14.34h11.61v6.89H216v1.42h4.23v.86H216V26.7h-1V23.52h-5.36a4.32,4.32,0,0,1-.77,1.48,6.22,6.22,0,0,1-3,1.62l-.52-.79a5.69,5.69,0,0,0,2.72-1.4,3,3,0,0,0,.49-.9H204.3v-.86h4.54a3.71,3.71,0,0,0,.05-.61v-.81h-2.34Zm.32-2a12.21,12.21,0,0,1-1.57,2.11l-.81-.52a10.71,10.71,0,0,0,2.41-3.82l.92.2q-.18.47-.5,1.17H212v.86h-2.61a10.08,10.08,0,0,1,.87,1.3l-.83.31a10.72,10.72,0,0,0-1-1.6Zm.65,4h9.68V15.13h-9.68Zm0,2h9.68V17.14h-9.68Zm9.68,2.07V19.09h-9.68v1.35Zm-7.34.79V22q0,.22,0,.61H215V21.23Zm4.41-8.91A10.13,10.13,0,0,1,213,14.1l-.81-.52a10,10,0,0,0,2-3.42l.94.2-.43,1.1h5.36v.86h-3.26a9.24,9.24,0,0,1,.92,1.35l-.81.31a14.24,14.24,0,0,0-1.15-1.66Z"/><path class="cls-1" d="M224.64,12.45A13,13,0,0,1,223,14.88l-.83-.54A12.5,12.5,0,0,0,224.68,10l.94.2q-.31.83-.56,1.42h4.86v.85h-3.44a14,14,0,0,1,1.39,1.94l-.88.32a14.58,14.58,0,0,0-1.55-2.27Zm-.31,3.26h5.44V14.44h1V15.7h5.37v.86h-5.37v2h7.43v.86h-3.56v2h2.77v.88h-2.77v3q0,1.33-1.4,1.33h-2.65l-.22-.92q1.77.07,2.54.07t.76-.7V22.31H223.42v-.88h10.22v-2H222.32v-.86h7.45v-2h-5.44ZM226,23a21.65,21.65,0,0,1,2.54,2.59l-.76.56a18.63,18.63,0,0,0-2.57-2.65Zm6-10.58a10.64,10.64,0,0,1-1.24,2l-.79-.5A11.7,11.7,0,0,0,232,10l.94.2q-.16.56-.5,1.42h5.44v.85h-3.55a12.26,12.26,0,0,1,1.33,1.94l-.86.32a13.39,13.39,0,0,0-1.51-2.27Z"/><path class="cls-1" d="M240.44,17.11h2.2V12.59h-2.45v-.94H246v.94h-2.41v4.52h2.16V18h-2.16v4.45q1.33-.43,2.59-.92v1a43.32,43.32,0,0,1-5.87,1.73l-.23-.94q1.42-.27,2.54-.56V18h-2.2Zm6.37-5.94h9.31v1h-3.6q-.29,1-.65,2V26.68h-1V16.28a19.43,19.43,0,0,1-4.09,5.27l-.58-.77a18.39,18.39,0,0,0,5.31-8.64h-4.73ZM253.06,16a41,41,0,0,1,3.4,4.9l-.79.58a39.21,39.21,0,0,0-3.37-5Z"/><path class="cls-1" d="M258.48,12.1h4.3V10.23h1V12.1h5V10.23h1V12.1H274v1h-4.3v1.84h-1V13.08h-5v1.82h-1V13.08h-4.3Zm6,4.84h-5.24V16H272.5q-.11,4.36-.18,5.06a4,4,0,0,1-.54,2.09,2.22,2.22,0,0,1-1.71.56l-1.91,0-.25-1,1.93,0a1.48,1.48,0,0,0,1.15-.41,3.41,3.41,0,0,0,.47-2l.05-3.44h-6v9.67h-1Z"/><path class="cls-1" d="M277.29,12.43H280V10.27h1v2.16h2v.9h-2V15.9h.79a16.09,16.09,0,0,0,2.74-4.64l.85.36A17.05,17.05,0,0,1,283,15.9h2.25v.9h-3a15.66,15.66,0,0,1-2.25,2h4.34v7.81h-.92v-.86h-4.27v.88h-.94V20q-.92.49-1.69.83L276,20a16.14,16.14,0,0,0,4.93-3.24h-4.45v-.9H280V13.33h-2.68Zm6.08,9.47V19.7h-4.27v2.2Zm-4.27.86v2.12h4.27V22.76Zm7.11-11.61h5.62v.76Q291,14.54,290,17.22q2,2.74,2,4.45a2.35,2.35,0,0,1-.68,1.94,5,5,0,0,1-2.9.58l-.29-1q.54.05.9.05a3,3,0,0,0,1.66-.36,1.83,1.83,0,0,0,.38-1.24Q291,20,289,17.22q1-2.32,1.82-5.15h-3.62V26.63h-1Z"/><path class="cls-1" d="M297,19a25.52,25.52,0,0,1-2.43,2.3l-.63-.79a21.31,21.31,0,0,0,5.53-6.77h-4.9v-1h5.35q.52-1.24,1-2.66l1,.11a22.15,22.15,0,0,1-.9,2.56h9.23v1h-9.67a22.67,22.67,0,0,1-2.57,4.1V26.7h-1Zm2.77-.29H304V15.25h1v3.47h4.37v1H305v5.38h5.22v1H299v-1H304V19.7h-4.28Z"/><path class="cls-1" d="M315.34,22.47a18.6,18.6,0,0,1-2.39,4.1l-.79-.56a16.06,16.06,0,0,0,2.36-4Zm4.14-12.26h1V12.1h7.09V13h-7.09v2.59h5.74v5.53H314.57V15.61h4.91Zm5.74,10V16.53h-9.68v3.69Zm-7.07,2.34q.59,2,1,3.92l-1,.23a23.45,23.45,0,0,0-.92-4Zm3.78-.16a34.35,34.35,0,0,1,1.44,4l-1,.23A22.31,22.31,0,0,0,321,22.6Zm3.78-.32a29.66,29.66,0,0,1,2.63,4l-.79.56a34.1,34.1,0,0,0-2.63-4.07Z"/><path class="cls-1" d="M332.39,14.37a18.46,18.46,0,0,1-1.78,1.82l-.5-.77a14.11,14.11,0,0,0,3.71-5.2l.9.23A13.6,13.6,0,0,1,334,12h4.21a16.39,16.39,0,0,0-.77-1.64l1-.18q.4.86.74,1.82h5.94v.86h-5.85v1.44h5.22v.79h-5.22v1.4h5.22v.79h-5.22v1.53h6.17v.85H332.39Zm-1.84,7.83v-.92h7.27V20.2h1v1.08H346v.92H340.2a12.78,12.78,0,0,0,6,3.11l-.41.86q-4.59-1.51-6.5-4h-.45v4.48h-1V22.2h-.49q-1.66,2.36-6.46,4.07l-.52-.85q4.46-1.4,6.07-3.22Zm7.76-7.94V12.82h-4.79l-.22.34v1.1Zm0,2.2v-1.4h-5v1.4Zm0,2.32V17.25h-5v1.53Z"/><path class="cls-1" d="M351,10.48q-.27,1.26-.47,1.93h2.93v.94h-3.21a20.71,20.71,0,0,1-1.46,3.47l-.76-.49a22.56,22.56,0,0,0,2-6ZM349.52,16h3.56v.88h-1.57v2.57h2.09v.92h-2.09V25a10.2,10.2,0,0,0,1.75-1.12l.18.88a11.61,11.61,0,0,1-2.88,1.49l-.38-.81a.55.55,0,0,0,.38-.54V20.35h-2.11v-.92h2.11V16.86h-1Zm14.94,9.43-.25,1h-2.48l-1.64,0a7.25,7.25,0,0,1-2.16-.34,3.49,3.49,0,0,1-1.58-1.1c-.23-.26-.43-.4-.59-.4q-.51,0-1.78,2.09l-.58-.72a6.16,6.16,0,0,1,2-2.21V17.27h-1.58v-.9h2.48v7.31a2.07,2.07,0,0,1,.34.31A3.53,3.53,0,0,0,358,25.06a7.11,7.11,0,0,0,1.78.34l2,0Zm-9.88-14.74a24.84,24.84,0,0,1,2,2.81l-.74.52a21.42,21.42,0,0,0-2-2.86Zm2.65,9.86h3.47V18h-3.08l-.16-.85a20,20,0,0,0,1.78-3.92h-1.93v-.88h2.21q.36-1.28.58-2.12l.88.2-.54,1.93H364v.88h-3.87a24.81,24.81,0,0,1-1.71,3.91h2.23V14.63h.9v2.52h2.29V18H361.6v2.52h2.77v.88H361.6v3.2h-.9v-3.2h-3.47Z"/><path class="cls-1" d="M372.91,10.23h1v5.69h6.66v.94h-6.66v8.06h8.33v1H366.32v-1h6.59Z"/><path class="cls-1" d="M384.48,19H400v1h-5.22v4.66a.72.72,0,0,0,.83.81h2.5a1,1,0,0,0,.83-.34,6.76,6.76,0,0,0,.41-2.59l.92.29a6.64,6.64,0,0,1-.65,3.11,1.67,1.67,0,0,1-1.31.47h-3a1.35,1.35,0,0,1-1.51-1.55V20H390.6v.2a6.48,6.48,0,0,1-1.44,4.25,9.31,9.31,0,0,1-4.41,2.34l-.56-.86a8.75,8.75,0,0,0,4.25-2.12,5.79,5.79,0,0,0,1.19-3.6V20h-5.15Zm15.3-6.71v3.87h-1V13.22H385.67v2.93h-1V12.28h7.09a17.26,17.26,0,0,0-.76-1.85l1.08-.18a16.65,16.65,0,0,1,.72,2Zm-12.56,3.33h10v.94h-10Z"/><path class="cls-1" d="M416.93,16.06a21,21,0,0,1-2.86,6.12A10,10,0,0,0,415,24q1,1.35,1.6,1.35t1-2.9l.88.47q-.59,3.51-1.73,3.51t-2.39-1.62a7.84,7.84,0,0,1-1-1.73,12.58,12.58,0,0,1-4.59,3.53l-.56-.83A12.22,12.22,0,0,0,413,22a18.75,18.75,0,0,1-.7-2.2,33.48,33.48,0,0,1-.76-5.81H405v3.28h4.41a35.53,35.53,0,0,1-.32,5.65,1.54,1.54,0,0,1-1.57,1.26q-.67,0-1.58-.05l-.31-.9q1.4.07,1.78.07.69-.05.85-.94a32.41,32.41,0,0,0,.18-4.16H405v.83a13.49,13.49,0,0,1-2.05,7.6l-.74-.67A12.18,12.18,0,0,0,404,19.07v-6h7.43q-.05-1.4-.05-2.92h1q0,1.12.07,2.92h5.71V14h-5.67a30.3,30.3,0,0,0,.72,5.58q.2.76.43,1.48a19.27,19.27,0,0,0,2.39-5.4Zm-2.43-5.81a16.18,16.18,0,0,1,2.27,2.05l-.65.63a17.15,17.15,0,0,0-2.25-2.09Z"/><path class="cls-1" d="M132.82,46.25h1v1.82a12.56,12.56,0,0,1-.81,4.41h6v.92h-6.48a7,7,0,0,1-.7,1.06,40.62,40.62,0,0,1,7.09,3.46l-.56.85a36.36,36.36,0,0,0-7.11-3.6,15.46,15.46,0,0,1-6.86,3.49l-.54-.83q4.95-1.33,7-3.64.2-.25.56-.79h-8v-.92h8.48a11.08,11.08,0,0,0,.92-4.41Zm5.65-2v3.42h-1v-2.5H125V47.7h-1V44.21H131a20.7,20.7,0,0,0-.81-2l1-.18a21.3,21.3,0,0,1,.74,2.16ZM126,48.84a20.23,20.23,0,0,1,3.78,2l-.52.79a17.77,17.77,0,0,0-3.74-2Zm1.13-2.75A18.65,18.65,0,0,1,130.79,48l-.52.77a14.82,14.82,0,0,0-3.62-2Z"/><path class="cls-1" d="M141.44,49h2.2V44.48h-2.45v-.92H147v.92h-2.41V49h2.16V50h-2.16v4.5q1.22-.41,2.45-.92v1a37.85,37.85,0,0,1-5.69,1.78l-.23-.94q1.26-.27,2.5-.59V50h-2.2Zm10.08-3.65h.92v4.46a11,11,0,0,1-1.39,5.72,8.65,8.65,0,0,1-4.3,3.11l-.56-.83a7.94,7.94,0,0,0,4.14-3,10.3,10.3,0,0,0,1.19-5ZM155.93,43v9.85h-1V44h-5.8v8.91h-1V43Zm-2.16,15.35a1.15,1.15,0,0,1-1.31-1.3V52.8h1v4.07q0,.59.63.59h1.4a.84.84,0,0,0,.74-.29,5.18,5.18,0,0,0,.4-2.2l.9.31a5.62,5.62,0,0,1-.59,2.68,1.71,1.71,0,0,1-1.26.41Z"/><path class="cls-1" d="M170.26,51.93a51.86,51.86,0,0,1,4.23,6.26l-.83.58q-.38-.74-1-1.67-5.9.65-12,1.06l-.16-.83q2.36-1.28,4.88-6.44H159.3v-1h7.47V46.21h-6.35v-1h6.35v-3h1v3h6.32v1h-6.32v3.71h7.45v1h-8.66a20.71,20.71,0,0,1-4.19,6.32q7.27-.58,9.85-.92-1.15-1.8-2.7-3.85Z"/><path class="cls-1" d="M184.75,42.16h1v3.33h6.52v8.28h-1V52.56h-5.53v6.23h-1V52.56h-5.51v1.21h-1V45.49h6.5Zm-5.51,9.45h5.51V46.46h-5.51Zm6.52,0h5.53V46.46h-5.53Z"/><path class="cls-1" d="M198.11,48.21A33.82,33.82,0,0,1,195.89,56l-.85-.54A31.78,31.78,0,0,0,197.15,48Zm3.37,9.86q-1.71,0-1.71-1.62V46h1V56.24q0,.86,1,.86h3.56a1.11,1.11,0,0,0,1-.52,12.06,12.06,0,0,0,.52-4l.92.31q-.16,3.58-.74,4.46a1.77,1.77,0,0,1-1.55.68Zm.34-15.7a37.74,37.74,0,0,1,4,4.48l-.83.56A32.92,32.92,0,0,0,201,42.88Zm6.55,5a51.81,51.81,0,0,1,3.2,7.33l-.9.4a46.44,46.44,0,0,0-3.26-7.4Z"/><path class="cls-1" d="M219.53,42.61a20.44,20.44,0,0,1-2.39,4.18V58.7h-1V48a25.51,25.51,0,0,1-2.84,2.74l-.31-1a19.59,19.59,0,0,0,5.6-7.52Zm3.82,15.75a1.51,1.51,0,0,1-1.73-1.69V50.84q-1.32.76-2.56,1.35l-.47-.94a27.56,27.56,0,0,0,3-1.55V42.32h1v6.77a25.14,25.14,0,0,0,5.2-4.5l.67.76a26.61,26.61,0,0,1-5.87,4.9v6.28q0,.9,1,.9h3.06a1.34,1.34,0,0,0,1.12-.45,9,9,0,0,0,.45-3.31l.9.29a9.9,9.9,0,0,1-.61,3.78,2,2,0,0,1-1.69.63Z"/><path class="cls-1" d="M233.35,54.51a13.38,13.38,0,0,1,2,1.75,15.17,15.17,0,0,1,1.51,1.8l-.7.59a17.63,17.63,0,0,0-1.49-1.78,15.23,15.23,0,0,0-1.94-1.76Z"/><path class="cls-1" d="M260.26,51.93a51.86,51.86,0,0,1,4.23,6.26l-.83.58q-.38-.74-1-1.67-5.9.65-12,1.06l-.16-.83q2.36-1.28,4.88-6.44H249.3v-1h7.47V46.21h-6.35v-1h6.35v-3h1v3h6.32v1h-6.32v3.71h7.45v1h-8.66a20.71,20.71,0,0,1-4.19,6.32q7.27-.58,9.85-.92-1.15-1.8-2.7-3.85Z"/><path class="cls-1" d="M268.06,43.13h14.45v1h-6.84v7.11h7.51v1h-7.51v6.48h-1V52.17h-7.36v-1h7.36V44.1h-6.64ZM270,45.49a38.1,38.1,0,0,1,2,4.16l-.92.45a33.64,33.64,0,0,0-2-4.18Zm11.48.29A23.87,23.87,0,0,1,279.25,50l-.88-.45a22.78,22.78,0,0,0,2.21-4.23Z"/><path class="cls-1" d="M285.8,48.37q2.63-1.08,6-6.16l1,.34a25.14,25.14,0,0,1-5.2,5.78q5.85-.25,10.57-.72-1.19-1.62-2.38-3l.9-.43a50.66,50.66,0,0,1,4.45,6l-.94.47q-.52-.86-1.42-2.18-5.72.54-12.82.81Zm13.36,2.93v7.38h-1v-1h-9.87v1h-1V51.3Zm-10.84,5.4h9.87V52.24h-9.87Z"/><path class="cls-1" d="M309.53,42.61a20.44,20.44,0,0,1-2.39,4.18V58.7h-1V48a25.51,25.51,0,0,1-2.84,2.74l-.31-1a19.59,19.59,0,0,0,5.6-7.52Zm3.82,15.75a1.51,1.51,0,0,1-1.73-1.69V50.84q-1.32.76-2.56,1.35l-.47-.94a27.56,27.56,0,0,0,3-1.55V42.32h1v6.77a25.14,25.14,0,0,0,5.2-4.5l.67.76a26.61,26.61,0,0,1-5.87,4.9v6.28q0,.9,1,.9h3.06a1.34,1.34,0,0,0,1.12-.45,9,9,0,0,0,.45-3.31l.9.29a9.9,9.9,0,0,1-.61,3.78,2,2,0,0,1-1.69.63Z"/><path class="cls-1" d="M54,74.48q-.27,1.26-.47,1.93h2.93v.94H53.24a20.71,20.71,0,0,1-1.46,3.47L51,80.33a22.56,22.56,0,0,0,2-6ZM52.52,80h3.56v.88H54.52v2.57h2.09v.92H54.52V89a10.2,10.2,0,0,0,1.75-1.12l.18.88a11.61,11.61,0,0,1-2.88,1.49l-.38-.81a.55.55,0,0,0,.38-.54V84.35H51.46v-.92h2.11V80.86h-1Zm14.94,9.43-.25,1H64.73l-1.64,0A7.25,7.25,0,0,1,60.93,90a3.49,3.49,0,0,1-1.58-1.1c-.23-.26-.43-.4-.59-.4q-.51,0-1.78,2.09l-.58-.72a6.16,6.16,0,0,1,2-2.21V81.27H56.77v-.9h2.48v7.31a2.07,2.07,0,0,1,.34.31A3.53,3.53,0,0,0,61,89.06a7.11,7.11,0,0,0,1.78.34l2,0ZM57.58,74.67a24.84,24.84,0,0,1,2,2.81l-.74.52a21.42,21.42,0,0,0-2-2.86Zm2.65,9.86H63.7V82H60.62l-.16-.85a20,20,0,0,0,1.78-3.92H60.32v-.88h2.21q.36-1.28.58-2.12l.88.2-.54,1.93H67v.88H63.18a24.81,24.81,0,0,1-1.71,3.91H63.7V78.63h.9v2.52h2.29V82H64.6v2.52h2.77v.88H64.6v3.2h-.9v-3.2H60.23Z"/><path class="cls-1" d="M69.3,75.29H85.19v1H77.26v3a75.21,75.21,0,0,1,6.91,4l-.58.86a72.05,72.05,0,0,0-6.34-3.91V90.7h-1V76.25h-7Z"/><path class="cls-1" d="M92,74.57a23.39,23.39,0,0,1-1.58,3.76V90.67h-1V80a20.7,20.7,0,0,1-2.3,2.93l-.32-1.06a20.73,20.73,0,0,0,4.28-7.69Zm5.2-.32q.47,1.31.85,2.83h4.81V78H98.51a23.62,23.62,0,0,0,1.1,5,15.23,15.23,0,0,0,2.79-2.45l.61.77a15.94,15.94,0,0,1-3.1,2.54,15.46,15.46,0,0,0,3.62,5.56l-.59.92Q98.5,85.93,97.6,78h-.31a18.58,18.58,0,0,1-2.11,4.23v6.91a26.78,26.78,0,0,0,3.69-1.44l.16.94A37.27,37.27,0,0,1,94,90.45l-.2-.86a.57.57,0,0,0,.43-.56V83.48a18.78,18.78,0,0,1-2.74,2.59l-.5-.85A15.44,15.44,0,0,0,96.32,78H92v-.92h5.09a22.14,22.14,0,0,0-.9-2.65Z"/><path class="cls-1" d="M108,86.78a17.61,17.61,0,0,1-1.55,4l-.88-.34a16.23,16.23,0,0,0,1.55-3.87ZM106.15,75h4.91V85.59h-4.91Zm1,4.79h3V75.92h-3Zm3,4.88v-4h-3v4Zm1,2.11q.49,1.71.86,3.69l-1,.23a27.83,27.83,0,0,0-.81-3.73ZM112.28,76V75h8.14a16.44,16.44,0,0,1-.34,3.82,1.84,1.84,0,0,1-1.93,1.3q-.3,0-1.31-.07l-.29-.85q1.15.07,1.51.07a1.14,1.14,0,0,0,1.19-1,10.72,10.72,0,0,0,.18-2.34h-3.49q-.29,3-3.67,4.37l-.52-.81q3-1.1,3.26-3.56Zm.43,5.11h7.38v4.52h-7.38Zm6.43,3.64V82h-5.47v2.75Zm-4.16,2a30.45,30.45,0,0,1,1.3,3.78l-1,.23a22.67,22.67,0,0,0-1.24-3.82Zm3.73-.29a28.07,28.07,0,0,1,2.38,3.78l-.77.56a27.36,27.36,0,0,0-2.37-3.85Z"/><path class="cls-1" d="M126,74.48q-.27,1.26-.47,1.93h2.93v.94h-3.21a20.71,20.71,0,0,1-1.46,3.47l-.76-.49a22.56,22.56,0,0,0,2-6ZM124.52,80h3.56v.88h-1.57v2.57h2.09v.92h-2.09V89a10.2,10.2,0,0,0,1.75-1.12l.18.88a11.61,11.61,0,0,1-2.88,1.49l-.38-.81a.55.55,0,0,0,.38-.54V84.35h-2.11v-.92h2.11V80.86h-1Zm14.94,9.43-.25,1h-2.48l-1.64,0a7.25,7.25,0,0,1-2.16-.34,3.49,3.49,0,0,1-1.58-1.1c-.23-.26-.43-.4-.59-.4q-.51,0-1.78,2.09l-.58-.72a6.16,6.16,0,0,1,2-2.21V81.27h-1.58v-.9h2.48v7.31a2.07,2.07,0,0,1,.34.31A3.53,3.53,0,0,0,133,89.06a7.11,7.11,0,0,0,1.78.34l2,0Zm-9.88-14.74a24.84,24.84,0,0,1,2,2.81l-.74.52a21.42,21.42,0,0,0-2-2.86Zm2.65,9.86h3.47V82h-3.08l-.16-.85a20,20,0,0,0,1.78-3.92h-1.93v-.88h2.21q.36-1.28.58-2.12l.88.2-.54,1.93H139v.88h-3.87a24.81,24.81,0,0,1-1.71,3.91h2.23V78.63h.9v2.52h2.29V82H136.6v2.52h2.77v.88H136.6v3.2h-.9v-3.2h-3.47Z"/><path class="cls-1" d="M147.91,74.23h1v5.69h6.66v.94h-6.66v8.06h8.33v1H141.32v-1h6.59Z"/><path class="cls-1" d="M159.34,75h15.84v.9h-5.44v1.85H174v4.34h-7.6q-.42.77-1,1.85h10v.92h-3.94a5.93,5.93,0,0,1-2.14,3q2.84.88,5.85,2.09l-.59.79q-3-1.26-6.16-2.29s-.07,0-.07.05q-2.59,1.4-8.39,2.16l-.38-.88a27.44,27.44,0,0,0,7.63-1.71q-2.29-.7-4.68-1.24.65-1,1.24-1.94h-4.63V84h5.18l1.06-1.85h-4.9V77.78h4.3V75.92h-5.44Zm5.44,6.23V78.63h-3.37v2.63Zm5.67,3.64h-5.58q-.58.92-1,1.53,2.05.45,4.36,1.12A5.2,5.2,0,0,0,170.44,84.89Zm-1.62-7.11V75.92h-3.13v1.85Zm0,3.47V78.63h-3.13v2.63Zm4.29,0V78.63h-3.37v2.63Z"/><path class="cls-1" d="M177.59,77.65h7.31V74.18h1v3.47h7v1h-7v1a16.62,16.62,0,0,0,1.93,3.47,15.11,15.11,0,0,0,3.46-3.42l.74.67a17,17,0,0,1-3.67,3.44,21,21,0,0,0,5.11,4.63l-.67.77a19.81,19.81,0,0,1-6.89-7.87V89q0,1.53-1.48,1.53H182l-.22-.94q1.58.07,2.27.07.85,0,.85-.92V83.27A25.89,25.89,0,0,1,178,89.42l-.52-.88A24.63,24.63,0,0,0,184.9,82V78.61h-7.31ZM179.14,80a24.5,24.5,0,0,1,3.15,3.35l-.67.67a22.43,22.43,0,0,0-3.17-3.35Zm9.05-5.72a20.27,20.27,0,0,1,2.79,2.5l-.67.68a17.52,17.52,0,0,0-2.77-2.59Z"/><path class="cls-1" d="M198,83a25.52,25.52,0,0,1-2.43,2.3l-.63-.79a21.31,21.31,0,0,0,5.53-6.77h-4.9v-1h5.35q.52-1.24,1-2.66l1,.11a22.15,22.15,0,0,1-.9,2.56h9.23v1h-9.67a22.67,22.67,0,0,1-2.57,4.1V90.7h-1Zm2.77-.29H205V79.25h1v3.47h4.37v1H206v5.38h5.22v1H200v-1H205V83.7h-4.28Z"/><path class="cls-1" d="M221.62,74.25a26.44,26.44,0,0,0,8,6.41l-.52.9a25.76,25.76,0,0,1-7.83-6.43,26.16,26.16,0,0,1-7.9,6.46l-.5-.92a26.86,26.86,0,0,0,8-6.43Zm5.2,9.31v7.07h-1V89.46h-9.22v1.17h-1V83.56ZM216.61,80h9.29v1h-9.29Zm0,8.48h9.22v-4h-9.22Z"/><path class="cls-1" d="M231.57,77h2.68V74.43h1V77h2.54v.94h-2.54v3l0,.31H238v.94h-2.84q-.05.77-.16,1.51,1.6,1.6,3.19,3.53l-.56.81a34.27,34.27,0,0,0-2.79-3.42,11.1,11.1,0,0,1-3.06,6.14l-.74-.65q2.77-2.61,3.15-7.92h-2.86v-.94h2.9l0-.59V77.94h-2.68Zm10.48.68H243v3.1a13.4,13.4,0,0,1-1.42,6.41,8.84,8.84,0,0,1-4.39,3.51l-.52-.81a8.59,8.59,0,0,0,4.25-3.38A13,13,0,0,0,242,80.78Zm4-2.63V84.8h-1V76H240V84.8h-1V75.06Zm-1.82,15.37q-1.28,0-1.28-1.39V85h.92v3.91q0,.7.65.7h1a.94.94,0,0,0,.77-.29,4.73,4.73,0,0,0,.41-2.16l.85.29a5.33,5.33,0,0,1-.61,2.65,1.78,1.78,0,0,1-1.26.38Z"/><path class="cls-1" d="M255.38,77.45v12.1h-.94v-1.1h-3.64v1.6h-.94V77.45h1.62a16.43,16.43,0,0,0,.81-3.22l1,.13a15.38,15.38,0,0,1-.86,3.1Zm-4.57,5h3.64v-4h-3.64Zm0,5.15h3.64V83.29h-3.64Zm13.9-10.08q0,8.66-.25,10.78a2.24,2.24,0,0,1-2.5,2.16l-1.76,0-.23-.9q1.08.05,1.89.05,1.46,0,1.67-1.6t.25-9.49h-5.31a15,15,0,0,1-1.82,3.15l-.58-.76a16,16,0,0,0,2.65-6.62l1,.11a22.39,22.39,0,0,1-.83,3.15Zm-6.26,4a30.7,30.7,0,0,1,3.13,4l-.77.56a28.24,28.24,0,0,0-3.15-4Z"/><path class="cls-1" d="M279.47,74.45a12.12,12.12,0,0,1-1.28,2.14h5.08v1h-16v-1h5.13a11.55,11.55,0,0,0-1.24-2.23l1-.16a16.14,16.14,0,0,1,1.26,2.39h3.74a17.4,17.4,0,0,0,1.39-2.48ZM272,90.54l-.27-1,1.37,0q.81,0,.81-.92v-2h-4.39v4h-1V79.27h6.3V88.9q0,1.64-1.44,1.64Zm-2.48-8h4.39V80.19h-4.39Zm0,3.2h4.39V83.45h-4.39ZM277.15,80h1v7.79h-1Zm.92,10.44-.22-.92q1.19.05,2.23.05.85,0,.85-.9v-10h1V89a1.32,1.32,0,0,1-1.48,1.51Z"/><path class="cls-1" d="M285.61,90.49l-.22-.94q1.08.07,1.55.07.68,0,.68-.58V84q-1.1.45-2.27.81l-.25-1a20.48,20.48,0,0,0,2.52-.79V78.75h-2.3v-1h2.3V74.3h1V77.8h1.94v1h-1.94v3.92q.92-.43,1.71-.86v1l-1.71.83v5.65q0,1.21-1.31,1.21Zm5.15-8H301v.9h-4.61v2.32h3.91v.88h-3.91v2.66a19.38,19.38,0,0,0,2.74.18q1.06,0,2.32-.07l-.27,1-2,0a11.54,11.54,0,0,1-4.84-.68,5.31,5.31,0,0,1-1.95-2.34,10.62,10.62,0,0,1-1.94,3.38l-.72-.65a9.55,9.55,0,0,0,2.34-5.72l.88.11a10.51,10.51,0,0,1-.27,1.85,5,5,0,0,0,2.12,2.59,6.12,6.12,0,0,0,.61.22V83.36h-4.68Zm1.31-7.54h7.71V81h-7.71Zm1,2.66h5.78V75.74H293Zm5.78,2.57V78.37H293v1.78Z"/><path class="cls-1" d="M303.3,75.29h15.89v1h-7.94v3a75.21,75.21,0,0,1,6.91,4l-.58.86a72.05,72.05,0,0,0-6.34-3.91V90.7h-1V76.25h-7Z"/><path class="cls-1" d="M333,90.32l-3.17,0a11.66,11.66,0,0,1-2.77-.34,4,4,0,0,1-1.91-1.33.92.92,0,0,0-.68-.47q-.74,0-2.3,2.5l-.74-.65q1.53-2.36,2.61-2.74V81.5h-2.66v-.94H325v6.75a1.5,1.5,0,0,1,.56.49A4.09,4.09,0,0,0,327,89a7.93,7.93,0,0,0,2.43.38q1.8,0,3.46,0h2.52l1.95-.07-.23,1ZM322.45,74.61a23.61,23.61,0,0,1,3.06,2.77l-.68.7a20.78,20.78,0,0,0-3.06-2.83Zm4.46,2.57h2.21v-3h1v3h3.13V74.25h1v2.93h2.38v.92h-2.37V82h3v.94h-3v5.35h-1V82.91h-3.46a7.75,7.75,0,0,1-2.83,4.93l-.58-.77a6.66,6.66,0,0,0,2.45-4.16h-2.52V82H329a15.88,15.88,0,0,0,.16-2.34V78.1h-2.21Zm3.17.92v1.31a18.88,18.88,0,0,1-.16,2.56h3.29V78.1Z"/><path class="cls-1" d="M344.18,74.83a14.23,14.23,0,0,1-4.82,5.27l-.31-1a12.6,12.6,0,0,0,4.25-4.72Zm.85,4.1A14.88,14.88,0,0,1,343,82v8.71h-1V82.94a26.12,26.12,0,0,1-2.56,2l-.31-1a15.14,15.14,0,0,0,5-5.49Zm.41,1.21h9.85v1h-3v7.83a1.47,1.47,0,0,1-1.67,1.66H348l-.22-.94q1.73.07,2.48.07a.91.91,0,0,0,1-1v-7.6h-5.87Zm.52-4.63h8.5v1H346Z"/><path class="cls-1" d="M369.34,81.94A16.32,16.32,0,0,1,366,86.33a20.57,20.57,0,0,0,7.29,3.37l-.58.9a21,21,0,0,1-7.45-3.6,18.57,18.57,0,0,1-7.45,3.67l-.59-.86a19.14,19.14,0,0,0,7.29-3.44,15.17,15.17,0,0,1-3.37-4.19l.85-.49a13.9,13.9,0,0,0,3.26,4,14.33,14.33,0,0,0,3.15-4.18Zm-12-5.44H365a13.43,13.43,0,0,0-1.12-2.2l1.06-.18A14.86,14.86,0,0,1,366,76.5h7.15v.92H357.35Zm5.76,2.36A20.86,20.86,0,0,1,358,83.52l-.63-.81a19.81,19.81,0,0,0,5-4.5Zm4.9-.65A35.38,35.38,0,0,1,373,83l-.72.7a34.62,34.62,0,0,0-5-4.88Z"/><path class="cls-1" d="M376.9,80.93h2.83V79.42h-3.62v-.81h3.62v-1h1v1h3.58v.81H380.7v1.51h2.84v.79H380.7v1.57h4.09v.81H380.7v1h-1v-1h-4v-.81h4V81.72H376.9ZM385,75.76v2.75h-.92V76.63h-7.42v1.91h-.92V75.76h4a11,11,0,0,0-.81-1.46l1-.18a14,14,0,0,1,.79,1.64Zm-.81,9.94v5h-.92v-.81H377.5v.74h-.92V85.7ZM377.5,89h5.76V86.54H377.5Zm8.8-13.07h.92V87.12h-.92ZM387,90.47l-.2-.92q1.44.07,2.07.07t.76-.86V74.29h1V89q0,1.48-1.39,1.48Z"/></svg>