<svg id="图层_1" data-name="图层 1" xmlns="http://www.w3.org/2000/svg" viewBox="0 0 440 275"><defs><style>.cls-1{fill:#33353c;}</style></defs><title>币网站中英文</title><path class="cls-1" d="M68.56,11.42h1.15l4.57,11.42H73.21l-1.33-3.4h-5.5l-1.33,3.4H64ZM66.7,18.6h4.86l-2.4-6.12h0Z"/><path class="cls-1" d="M81.4,16.89h-.94a2,2,0,0,0-.69-1.26,3.28,3.28,0,0,0-3.17-.08,1.1,1.1,0,0,0,.16,2,10.74,10.74,0,0,0,1.75.57,8.63,8.63,0,0,1,2.14.77,1.88,1.88,0,0,1,1,1.67c0,1.67-1.12,2.51-3.36,2.51s-3.28-.95-3.47-2.83h.94a2.28,2.28,0,0,0,.77,1.56,2.86,2.86,0,0,0,1.73.44c1.6,0,2.4-.55,2.4-1.64a1.25,1.25,0,0,0-.82-1.15A10.3,10.3,0,0,0,78,18.88a7.83,7.83,0,0,1-2-.74,1.75,1.75,0,0,1-1-1.58,1.87,1.87,0,0,1,.9-1.62,3.77,3.77,0,0,1,2.18-.59C80.07,14.35,81.17,15.2,81.4,16.89Z"/><path class="cls-1" d="M89.29,16.89h-.94a2,2,0,0,0-.69-1.26,3.28,3.28,0,0,0-3.17-.08,1.09,1.09,0,0,0,.16,2,10.74,10.74,0,0,0,1.75.57,8.79,8.79,0,0,1,2.14.77,1.88,1.88,0,0,1,1,1.67c0,1.67-1.12,2.51-3.36,2.51s-3.28-.95-3.47-2.83h.94a2.24,2.24,0,0,0,.77,1.56,2.84,2.84,0,0,0,1.73.44c1.6,0,2.4-.55,2.4-1.64a1.25,1.25,0,0,0-.82-1.15,10.6,10.6,0,0,0-1.84-.57,7.83,7.83,0,0,1-2-.74,1.75,1.75,0,0,1-1-1.58,1.87,1.87,0,0,1,.9-1.62A3.73,3.73,0,0,1,86,14.35C88,14.35,89.06,15.2,89.29,16.89Z"/><path class="cls-1" d="M97.35,15.68a5.71,5.71,0,0,1,1,3.31H91.58a3.85,3.85,0,0,0,.81,2.38,2.62,2.62,0,0,0,2,.87,2.76,2.76,0,0,0,1.83-.6,3.17,3.17,0,0,0,.88-1.45h1a3.92,3.92,0,0,1-1.1,2,3.73,3.73,0,0,1-2.58.91,3.51,3.51,0,0,1-2.78-1.19,4.53,4.53,0,0,1-1.07-3.18,4.65,4.65,0,0,1,1-3.06,3.44,3.44,0,0,1,2.8-1.29A3.4,3.4,0,0,1,97.35,15.68ZM92.46,16a3.67,3.67,0,0,0-.87,2.17h5.7c-.16-2-1.11-3-2.86-3A2.45,2.45,0,0,0,92.46,16Z"/><path class="cls-1" d="M101.83,11.9v2.67H104v.83h-2.16V21a1.25,1.25,0,0,0,.2.79.9.9,0,0,0,.72.22h1v.83h-1.17a1.72,1.72,0,0,1-1.38-.49,2.05,2.05,0,0,1-.37-1.35V15.4H99.11v-.83h1.76V12.3Z"/><path class="cls-1" d="M115.45,14.52v1a4.31,4.31,0,0,0-1.26-.18,2,2,0,0,0-1.8,1,3.57,3.57,0,0,0-.65,2.16v4.36h-1V14.57h1v1.59a3,3,0,0,1,.91-1.24,2.39,2.39,0,0,1,1.6-.57A3.48,3.48,0,0,1,115.45,14.52Z"/><path class="cls-1" d="M122.83,15.68a5.78,5.78,0,0,1,.94,3.31h-6.72a3.86,3.86,0,0,0,.82,2.38,2.58,2.58,0,0,0,2,.87,2.76,2.76,0,0,0,1.83-.6,3.17,3.17,0,0,0,.88-1.45h1a3.92,3.92,0,0,1-1.1,2,3.73,3.73,0,0,1-2.58.91,3.51,3.51,0,0,1-2.78-1.19,4.53,4.53,0,0,1-1.07-3.18,4.65,4.65,0,0,1,1-3.06,3.81,3.81,0,0,1,5.75,0Zm-4.9.35a3.6,3.6,0,0,0-.86,2.17h5.69c-.16-2-1.11-3-2.86-3A2.47,2.47,0,0,0,117.93,16Z"/><path class="cls-1" d="M131.67,16.24V14.57h1v7.67c0,2.66-1.23,4-3.71,4a4,4,0,0,1-2.51-.71,3,3,0,0,1-1.06-2h1a2.14,2.14,0,0,0,.77,1.37,2.84,2.84,0,0,0,1.84.52c1.84,0,2.75-1,2.75-3.09V20.76a3.06,3.06,0,0,1-3,1.89A3.42,3.42,0,0,1,126,21.42a4.4,4.4,0,0,1-1-2.91,4.36,4.36,0,0,1,1-2.91,3.38,3.38,0,0,1,2.76-1.25A3.06,3.06,0,0,1,131.67,16.24Zm-5-.08a3.57,3.57,0,0,0-.74,2.35,3.66,3.66,0,0,0,.69,2.3,2.54,2.54,0,0,0,2.16,1,2.58,2.58,0,0,0,2.14-1,3.68,3.68,0,0,0,.72-2.35,3.66,3.66,0,0,0-.72-2.35,2.76,2.76,0,0,0-4.25,0Z"/><path class="cls-1" d="M136.19,11.84a.66.66,0,0,1,.24.56.79.79,0,0,1-.26.57.84.84,0,0,1-.56.23A.8.8,0,0,1,135,13a.78.78,0,0,1-.24-.57.66.66,0,0,1,.24-.56.77.77,0,0,1,.58-.24A.8.8,0,0,1,136.19,11.84Zm-1.06,2.73h1v8.27h-1Z"/><path class="cls-1" d="M144.7,16.89h-.95a1.92,1.92,0,0,0-.68-1.26,2.67,2.67,0,0,0-1.68-.45,2.63,2.63,0,0,0-1.49.37,1.13,1.13,0,0,0-.58,1,1.15,1.15,0,0,0,.74,1,10.89,10.89,0,0,0,1.74.57,8.74,8.74,0,0,1,2.15.77,1.88,1.88,0,0,1,1,1.67c0,1.67-1.12,2.51-3.36,2.51s-3.28-.95-3.47-2.83h.94a2.24,2.24,0,0,0,.77,1.56,2.84,2.84,0,0,0,1.73.44c1.6,0,2.4-.55,2.4-1.64a1.26,1.26,0,0,0-.82-1.15,10.6,10.6,0,0,0-1.84-.57,8.09,8.09,0,0,1-2-.74,1.74,1.74,0,0,1-.94-1.58,1.87,1.87,0,0,1,.9-1.62,3.73,3.73,0,0,1,2.17-.59C143.36,14.35,144.46,15.2,144.7,16.89Z"/><path class="cls-1" d="M148.47,11.9v2.67h2.16v.83h-2.16V21a1.25,1.25,0,0,0,.2.79.9.9,0,0,0,.72.22h1v.83h-1.17a1.72,1.72,0,0,1-1.38-.49,2.05,2.05,0,0,1-.37-1.35V15.4h-1.76v-.83h1.76V12.3Z"/><path class="cls-1" d="M156.76,14.52v1a4.26,4.26,0,0,0-1.26-.18,2,2,0,0,0-1.79,1,3.51,3.51,0,0,0-.66,2.16v4.36h-1V14.57h1v1.59a3,3,0,0,1,.91-1.24,2.39,2.39,0,0,1,1.6-.57A3.48,3.48,0,0,1,156.76,14.52Z"/><path class="cls-1" d="M163.93,15.29a3.23,3.23,0,0,1,.74,2.23v5.32h-.92V21.26a4.29,4.29,0,0,1-1.34,1.23,4.11,4.11,0,0,1-2.16.58,3,3,0,0,1-2-.63,2.12,2.12,0,0,1-.75-1.71,2.44,2.44,0,0,1,1.29-2.3,5.56,5.56,0,0,1,2.77-.59l2.12,0v-.3a2.11,2.11,0,0,0-2.4-2.36,2.82,2.82,0,0,0-1.73.47,2,2,0,0,0-.85,1.44h-.94A2.86,2.86,0,0,1,159,15a4,4,0,0,1,2.4-.64A3.26,3.26,0,0,1,163.93,15.29Zm-.22,3.31-2.07,0c-2.09,0-3.13.71-3.13,2.1a1.39,1.39,0,0,0,.52,1.12,2.16,2.16,0,0,0,1.41.43,3.4,3.4,0,0,0,2.3-.87,2.41,2.41,0,0,0,1-1.84Z"/><path class="cls-1" d="M168.68,11.9v2.67h2.16v.83h-2.16V21a1.26,1.26,0,0,0,.19.79.93.93,0,0,0,.72.22h1v.83h-1.16a1.7,1.7,0,0,1-1.38-.49,2,2,0,0,1-.37-1.35V15.4H166v-.83h1.76V12.3Z"/><path class="cls-1" d="M173.83,11.84a.66.66,0,0,1,.24.56.78.78,0,0,1-.25.57.84.84,0,0,1-.56.23.8.8,0,0,1-.82-.8.66.66,0,0,1,.24-.56.75.75,0,0,1,.58-.24A.78.78,0,0,1,173.83,11.84Zm-1.05,2.73h1v8.27h-1Z"/><path class="cls-1" d="M182.78,15.66a4.64,4.64,0,0,1,1,3.06,4.68,4.68,0,0,1-1,3,3.93,3.93,0,0,1-5.86,0,4.68,4.68,0,0,1-1-3,4.55,4.55,0,0,1,1-3.06,3.56,3.56,0,0,1,2.91-1.31A3.65,3.65,0,0,1,182.78,15.66Zm-5.16.61a3.86,3.86,0,0,0-.73,2.45,3.84,3.84,0,0,0,.73,2.43,2.84,2.84,0,0,0,4.47,0,4,4,0,0,0,.73-2.43,3.94,3.94,0,0,0-.73-2.45,2.84,2.84,0,0,0-4.47,0Z"/><path class="cls-1" d="M192.2,17.76v5.08h-1v-5c0-1.76-.78-2.64-2.35-2.64a2.2,2.2,0,0,0-1.67.72,2.9,2.9,0,0,0-.78,2v5h-1V14.57h1v1.36a3.4,3.4,0,0,1,1.12-1.17,3,3,0,0,1,1.57-.41C191.18,14.35,192.2,15.48,192.2,17.76Z"/><path class="cls-1" d="M196.2,22.57a2.94,2.94,0,0,1-1.6,2.77l-.35-.56a2.49,2.49,0,0,0,1.23-2h-.24a.92.92,0,0,1-.59-.2.89.89,0,0,1,0-1.17.81.81,0,0,1,.6-.23C195.88,21.24,196.2,21.69,196.2,22.57Z"/><path class="cls-1" d="M205.67,11.9v2.67h2.16v.83h-2.16V21a1.33,1.33,0,0,0,.19.79.93.93,0,0,0,.72.22h1v.83h-1.16a1.72,1.72,0,0,1-1.38-.49,2,2,0,0,1-.37-1.35V15.4H203v-.83h1.76V12.3Z"/><path class="cls-1" d="M214,14.52v1a4.31,4.31,0,0,0-1.26-.18,2,2,0,0,0-1.8,1,3.57,3.57,0,0,0-.65,2.16v4.36h-1V14.57h1v1.59a3,3,0,0,1,.91-1.24,2.39,2.39,0,0,1,1.6-.57A3.48,3.48,0,0,1,214,14.52Z"/><path class="cls-1" d="M221.13,15.29a3.22,3.22,0,0,1,.73,2.23v5.32H221V21.26a4.29,4.29,0,0,1-1.34,1.23,4.11,4.11,0,0,1-2.16.58,3,3,0,0,1-2-.63,2.12,2.12,0,0,1-.75-1.71,2.44,2.44,0,0,1,1.29-2.3,5.56,5.56,0,0,1,2.77-.59l2.11,0v-.3a2.11,2.11,0,0,0-2.4-2.36,2.81,2.81,0,0,0-1.72.47,2,2,0,0,0-.85,1.44h-1A2.9,2.9,0,0,1,216.15,15a4,4,0,0,1,2.4-.64A3.28,3.28,0,0,1,221.13,15.29Zm-.23,3.31-2.06,0c-2.09,0-3.14.71-3.14,2.1a1.4,1.4,0,0,0,.53,1.12,2.16,2.16,0,0,0,1.41.43,3.42,3.42,0,0,0,2.3-.87,2.43,2.43,0,0,0,1-1.84Z"/><path class="cls-1" d="M230.6,17.76v5.08h-1v-5c0-1.76-.78-2.64-2.35-2.64a2.2,2.2,0,0,0-1.67.72,2.9,2.9,0,0,0-.78,2v5h-1V14.57h1v1.36A3.4,3.4,0,0,1,226,14.76a3,3,0,0,1,1.57-.41C229.58,14.35,230.6,15.48,230.6,17.76Z"/><path class="cls-1" d="M238.73,16.89h-.95a1.92,1.92,0,0,0-.68-1.26,2.67,2.67,0,0,0-1.68-.45,2.63,2.63,0,0,0-1.49.37,1.13,1.13,0,0,0-.58,1,1.15,1.15,0,0,0,.74,1,10.89,10.89,0,0,0,1.74.57,8.9,8.9,0,0,1,2.15.77,1.88,1.88,0,0,1,1,1.67c0,1.67-1.12,2.51-3.36,2.51s-3.28-.95-3.47-2.83h.94a2.24,2.24,0,0,0,.77,1.56,2.83,2.83,0,0,0,1.72.44c1.61,0,2.41-.55,2.41-1.64a1.26,1.26,0,0,0-.82-1.15,10.6,10.6,0,0,0-1.84-.57,8.09,8.09,0,0,1-2-.74,1.74,1.74,0,0,1-.94-1.58,1.87,1.87,0,0,1,.9-1.62,3.73,3.73,0,0,1,2.17-.59C237.39,14.35,238.49,15.2,238.73,16.89Z"/><path class="cls-1" d="M246.58,15.29a3.23,3.23,0,0,1,.74,2.23v5.32h-.91V21.26a4.22,4.22,0,0,1-1.35,1.23,4.11,4.11,0,0,1-2.16.58,2.94,2.94,0,0,1-2-.63,2.09,2.09,0,0,1-.76-1.71,2.45,2.45,0,0,1,1.3-2.3,5.53,5.53,0,0,1,2.77-.59l2.11,0v-.3a2.11,2.11,0,0,0-2.4-2.36,2.84,2.84,0,0,0-1.73.47,2,2,0,0,0-.85,1.44h-.94A2.9,2.9,0,0,1,241.61,15a4,4,0,0,1,2.4-.64A3.24,3.24,0,0,1,246.58,15.29Zm-.22,3.31-2.06,0c-2.09,0-3.14.71-3.14,2.1a1.4,1.4,0,0,0,.53,1.12,2.16,2.16,0,0,0,1.41.43,3.42,3.42,0,0,0,2.3-.87,2.43,2.43,0,0,0,1-1.84Z"/><path class="cls-1" d="M255.24,15.07a3.13,3.13,0,0,1,1.14,2.21h-1a2.3,2.3,0,0,0-.83-1.57,2.75,2.75,0,0,0-1.76-.53,2.5,2.5,0,0,0-2.08,1,4,4,0,0,0-.75,2.57,4.07,4.07,0,0,0,.72,2.53,2.48,2.48,0,0,0,2.1.95,2.44,2.44,0,0,0,2.65-2.36h1a3.8,3.8,0,0,1-1.19,2.39,3.58,3.58,0,0,1-2.41.8A3.46,3.46,0,0,1,250,21.82a4.64,4.64,0,0,1-.94-3.06,4.81,4.81,0,0,1,1-3.1,3.4,3.4,0,0,1,2.83-1.31A3.83,3.83,0,0,1,255.24,15.07Z"/><path class="cls-1" d="M259.94,11.9v2.67h2.16v.83h-2.16V21a1.25,1.25,0,0,0,.2.79.9.9,0,0,0,.72.22h1v.83h-1.17a1.72,1.72,0,0,1-1.38-.49A2.05,2.05,0,0,1,259,21V15.4h-1.76v-.83H259V12.3Z"/><path class="cls-1" d="M265.1,11.84a.66.66,0,0,1,.24.56.79.79,0,0,1-.26.57.84.84,0,0,1-.56.23.8.8,0,0,1-.82-.8.66.66,0,0,1,.24-.56.75.75,0,0,1,.58-.24A.8.8,0,0,1,265.1,11.84ZM264,14.57h1v8.27h-1Z"/><path class="cls-1" d="M274,15.66a4.64,4.64,0,0,1,1,3.06,4.68,4.68,0,0,1-1,3,3.93,3.93,0,0,1-5.86,0,4.68,4.68,0,0,1-1-3,4.6,4.6,0,0,1,1-3.06,3.56,3.56,0,0,1,2.91-1.31A3.65,3.65,0,0,1,274,15.66Zm-5.15.61a3.86,3.86,0,0,0-.74,2.45,3.84,3.84,0,0,0,.74,2.43,2.83,2.83,0,0,0,4.46,0,4,4,0,0,0,.74-2.43,3.94,3.94,0,0,0-.74-2.45,2.83,2.83,0,0,0-4.46,0Z"/><path class="cls-1" d="M283.46,17.76v5.08h-1v-5c0-1.76-.78-2.64-2.35-2.64a2.18,2.18,0,0,0-1.66.72,3,3,0,0,0-.79,2v5h-1V14.57h1v1.36a3.4,3.4,0,0,1,1.12-1.17,3,3,0,0,1,1.57-.41C282.44,14.35,283.46,15.48,283.46,17.76Z"/><path class="cls-1" d="M287.46,22.57a2.94,2.94,0,0,1-1.6,2.77l-.35-.56a2.49,2.49,0,0,0,1.23-2h-.24a.92.92,0,0,1-.59-.2.75.75,0,0,1-.22-.58.79.79,0,0,1,.2-.59.81.81,0,0,1,.6-.23C287.14,21.24,287.46,21.69,287.46,22.57Z"/><path class="cls-1" d="M301.05,16.89h-.95a1.89,1.89,0,0,0-.69-1.26,3.26,3.26,0,0,0-3.16-.08,1.13,1.13,0,0,0-.58,1,1.15,1.15,0,0,0,.74,1,10.89,10.89,0,0,0,1.74.57,8.63,8.63,0,0,1,2.14.77,1.87,1.87,0,0,1,1,1.67c0,1.67-1.12,2.51-3.36,2.51s-3.28-.95-3.48-2.83h.95a2.21,2.21,0,0,0,.77,1.56,2.83,2.83,0,0,0,1.72.44c1.6,0,2.4-.55,2.4-1.64a1.25,1.25,0,0,0-.81-1.15,10.6,10.6,0,0,0-1.84-.57,8.09,8.09,0,0,1-2-.74,1.74,1.74,0,0,1-.94-1.58,1.88,1.88,0,0,1,.89-1.62,3.77,3.77,0,0,1,2.18-.59C299.71,14.35,300.81,15.2,301.05,16.89Z"/><path class="cls-1" d="M309.11,15.68a5.71,5.71,0,0,1,.94,3.31h-6.72a3.92,3.92,0,0,0,.82,2.38,2.59,2.59,0,0,0,2.05.87,2.75,2.75,0,0,0,1.82-.6,3,3,0,0,0,.88-1.45h1a3.86,3.86,0,0,1-1.11,2,3.72,3.72,0,0,1-2.57.91,3.55,3.55,0,0,1-2.79-1.19,4.58,4.58,0,0,1-1.07-3.18,4.61,4.61,0,0,1,1-3.06,3.8,3.8,0,0,1,5.74,0Zm-4.9.35a3.6,3.6,0,0,0-.86,2.17h5.7c-.16-2-1.12-3-2.87-3A2.47,2.47,0,0,0,304.21,16Z"/><path class="cls-1" d="M313.59,11.9v2.67h2.16v.83h-2.16V21a1.26,1.26,0,0,0,.19.79.93.93,0,0,0,.72.22h1v.83h-1.17a1.69,1.69,0,0,1-1.37-.49,2,2,0,0,1-.37-1.35V15.4h-1.76v-.83h1.76V12.3Z"/><path class="cls-1" d="M319.21,11.9v2.67h2.16v.83h-2.16V21a1.26,1.26,0,0,0,.19.79.93.93,0,0,0,.72.22h1v.83H320a1.72,1.72,0,0,1-1.38-.49,2.06,2.06,0,0,1-.36-1.35V15.4h-1.76v-.83h1.76V12.3Z"/><path class="cls-1" d="M323.13,11.2h1V22.84h-1Z"/><path class="cls-1" d="M332.69,15.68a5.71,5.71,0,0,1,.95,3.31h-6.72a3.85,3.85,0,0,0,.81,2.38,2.62,2.62,0,0,0,2,.87,2.76,2.76,0,0,0,1.83-.6,3.17,3.17,0,0,0,.88-1.45h1a3.92,3.92,0,0,1-1.1,2,3.73,3.73,0,0,1-2.58.91A3.51,3.51,0,0,1,327,21.88a4.53,4.53,0,0,1-1.07-3.18,4.65,4.65,0,0,1,1-3.06,3.44,3.44,0,0,1,2.8-1.29A3.4,3.4,0,0,1,332.69,15.68ZM327.8,16a3.67,3.67,0,0,0-.87,2.17h5.7c-.16-2-1.11-3-2.86-3A2.45,2.45,0,0,0,327.8,16Z"/><path class="cls-1" d="M341.13,16a3.17,3.17,0,0,1,1.1-1.26,2.57,2.57,0,0,1,1.5-.43,2.72,2.72,0,0,1,2.08.81,3.26,3.26,0,0,1,.76,2.28v5.4h-1V17.56a2.72,2.72,0,0,0-.48-1.76,2.08,2.08,0,0,0-1.65-.62,1.91,1.91,0,0,0-1.51.69,2.44,2.44,0,0,0-.6,1.71v5.26h-1V17.56c0-1.59-.69-2.38-2.06-2.38a1.93,1.93,0,0,0-1.56.75,2.72,2.72,0,0,0-.64,1.83v5.08h-1V14.57h1v1.25a2.7,2.7,0,0,1,2.4-1.47A2.5,2.5,0,0,1,341.13,16Z"/><path class="cls-1" d="M354.87,15.68a5.71,5.71,0,0,1,.94,3.31h-6.72a3.92,3.92,0,0,0,.82,2.38,2.59,2.59,0,0,0,2,.87,2.75,2.75,0,0,0,1.82-.6,3,3,0,0,0,.88-1.45h1a3.86,3.86,0,0,1-1.11,2,3.72,3.72,0,0,1-2.57.91,3.55,3.55,0,0,1-2.79-1.19,4.58,4.58,0,0,1-1.07-3.18,4.61,4.61,0,0,1,1-3.06,3.8,3.8,0,0,1,5.74,0ZM350,16a3.6,3.6,0,0,0-.86,2.17h5.7c-.16-2-1.12-3-2.87-3A2.47,2.47,0,0,0,350,16Z"/><path class="cls-1" d="M364.07,17.76v5.08h-1v-5c0-1.76-.79-2.64-2.35-2.64a2.2,2.2,0,0,0-1.67.72,2.9,2.9,0,0,0-.78,2v5h-1V14.57h1v1.36a3.4,3.4,0,0,1,1.12-1.17,3,3,0,0,1,1.57-.41C363.05,14.35,364.07,15.48,364.07,17.76Z"/><path class="cls-1" d="M368.09,11.9v2.67h2.16v.83h-2.16V21a1.26,1.26,0,0,0,.19.79A.93.93,0,0,0,369,22h1v.83h-1.17a1.72,1.72,0,0,1-1.38-.49,2.06,2.06,0,0,1-.36-1.35V15.4h-1.76v-.83h1.76V12.3Z"/><path class="cls-1" d="M79.8,43.29a3.23,3.23,0,0,1,.74,2.23v5.32h-.91V49.26a4.33,4.33,0,0,1-1.35,1.23,4.11,4.11,0,0,1-2.16.58,3,3,0,0,1-2-.63,2.12,2.12,0,0,1-.75-1.71,2.44,2.44,0,0,1,1.3-2.3,5.53,5.53,0,0,1,2.77-.59l2.11,0v-.3a2.11,2.11,0,0,0-2.4-2.36,2.84,2.84,0,0,0-1.73.47,2,2,0,0,0-.85,1.44h-.94A2.9,2.9,0,0,1,74.83,43a4,4,0,0,1,2.4-.64A3.24,3.24,0,0,1,79.8,43.29Zm-.22,3.31-2.07,0c-2.09,0-3.13.71-3.13,2.1a1.37,1.37,0,0,0,.53,1.12,2.16,2.16,0,0,0,1.41.43,3.42,3.42,0,0,0,2.3-.87,2.43,2.43,0,0,0,1-1.84Z"/><path class="cls-1" d="M89.27,45.76v5.08h-1v-5c0-1.76-.79-2.64-2.36-2.64a2.18,2.18,0,0,0-1.66.72,3,3,0,0,0-.79,2v5h-1V42.57h1v1.36a3.49,3.49,0,0,1,1.12-1.17,3,3,0,0,1,1.57-.41C88.25,42.35,89.27,43.48,89.27,45.76Z"/><path class="cls-1" d="M97.53,39.2h1V50.84h-.91V49.21a3,3,0,0,1-2.9,1.86,3.38,3.38,0,0,1-2.8-1.31A4.9,4.9,0,0,1,91,46.7a4.82,4.82,0,0,1,.91-3,3.23,3.23,0,0,1,2.75-1.33,3,3,0,0,1,2.9,2Zm-4.9,5A4,4,0,0,0,92,46.7a4.23,4.23,0,0,0,.67,2.5,2.49,2.49,0,0,0,2.16,1,2.45,2.45,0,0,0,2.09-1,4,4,0,0,0,.69-2.4v-.19a4,4,0,0,0-.73-2.48,2.43,2.43,0,0,0-2-1A2.56,2.56,0,0,0,92.63,44.22Z"/><path class="cls-1" d="M112.38,43.66a5.11,5.11,0,0,1,0,6.1,3.93,3.93,0,0,1-5.86,0,4.68,4.68,0,0,1-1-3,4.6,4.6,0,0,1,1-3.06,3.56,3.56,0,0,1,2.91-1.31A3.65,3.65,0,0,1,112.38,43.66Zm-5.15.61a4.39,4.39,0,0,0,0,4.88,2.83,2.83,0,0,0,4.46,0,4,4,0,0,0,.74-2.43,3.94,3.94,0,0,0-.74-2.45,2.83,2.83,0,0,0-4.46,0Z"/><path class="cls-1" d="M117.08,39.9v2.67h2.16v.83h-2.16V49a1.33,1.33,0,0,0,.19.79A.93.93,0,0,0,118,50h1v.83h-1.16a1.72,1.72,0,0,1-1.38-.49,2,2,0,0,1-.37-1.35V43.4h-1.76v-.83h1.76V40.3Z"/><path class="cls-1" d="M120.7,39.2h1v4.88a3.2,3.2,0,0,1,1.16-1.3,3.23,3.23,0,0,1,3.77.4,3.31,3.31,0,0,1,.8,2.38v5.28h-1V45.69a2.7,2.7,0,0,0-.61-1.87,2.4,2.4,0,0,0-3.45.19,3,3,0,0,0-.71,2.05v4.78h-1Z"/><path class="cls-1" d="M135.71,43.68a5.78,5.78,0,0,1,.94,3.31h-6.72a3.8,3.8,0,0,0,.82,2.38,2.58,2.58,0,0,0,2,.87,2.76,2.76,0,0,0,1.83-.6,3.09,3.09,0,0,0,.88-1.45h1a3.92,3.92,0,0,1-1.1,2,3.73,3.73,0,0,1-2.58.91A3.51,3.51,0,0,1,130,49.88a4.58,4.58,0,0,1-1.07-3.18,4.65,4.65,0,0,1,1-3.06,3.81,3.81,0,0,1,5.75,0Zm-4.9.35A3.6,3.6,0,0,0,130,46.2h5.69c-.16-2-1.11-3-2.86-3A2.47,2.47,0,0,0,130.81,44Z"/><path class="cls-1" d="M142.86,42.52v1a4.38,4.38,0,0,0-1.27-.18,2,2,0,0,0-1.79,1,3.51,3.51,0,0,0-.65,2.16v4.36h-1V42.57h1v1.59a2.93,2.93,0,0,1,.91-1.24,2.39,2.39,0,0,1,1.6-.57A3.48,3.48,0,0,1,142.86,42.52Z"/><path class="cls-1" d="M155.35,43.29a3.23,3.23,0,0,1,.74,2.23v5.32h-.91V49.26a4.22,4.22,0,0,1-1.35,1.23,4.11,4.11,0,0,1-2.16.58,2.94,2.94,0,0,1-2-.63,2.09,2.09,0,0,1-.76-1.71,2.45,2.45,0,0,1,1.3-2.3,5.53,5.53,0,0,1,2.77-.59l2.11,0v-.3a2.11,2.11,0,0,0-2.4-2.36,2.84,2.84,0,0,0-1.73.47,2,2,0,0,0-.85,1.44h-.94A2.9,2.9,0,0,1,150.38,43a4,4,0,0,1,2.4-.64A3.24,3.24,0,0,1,155.35,43.29Zm-.22,3.31-2.06,0c-2.09,0-3.14.71-3.14,2.1a1.4,1.4,0,0,0,.53,1.12,2.16,2.16,0,0,0,1.41.43,3.42,3.42,0,0,0,2.3-.87,2.43,2.43,0,0,0,1-1.84Z"/><path class="cls-1" d="M164.22,44.89h-.95a1.89,1.89,0,0,0-.69-1.26,3.26,3.26,0,0,0-3.16-.08,1.13,1.13,0,0,0-.58,1,1.15,1.15,0,0,0,.74,1,10.89,10.89,0,0,0,1.74.57,8.9,8.9,0,0,1,2.15.77,1.88,1.88,0,0,1,1,1.67c0,1.67-1.12,2.51-3.36,2.51s-3.28-1-3.48-2.83h.95a2.21,2.21,0,0,0,.77,1.56,2.84,2.84,0,0,0,1.73.44c1.59,0,2.4-.55,2.4-1.64a1.26,1.26,0,0,0-.82-1.15,10.6,10.6,0,0,0-1.84-.57,8.09,8.09,0,0,1-2-.74,1.74,1.74,0,0,1-.94-1.58,1.88,1.88,0,0,1,.89-1.62,3.79,3.79,0,0,1,2.18-.59C162.88,42.35,164,43.2,164.22,44.89Z"/><path class="cls-1" d="M172.6,43.68a4.89,4.89,0,0,1,.91,3,5,5,0,0,1-.89,3,3.35,3.35,0,0,1-2.77,1.31,3,3,0,0,1-2.9-2V54h-1V42.57h.91V44.2a3.05,3.05,0,0,1,2.92-1.85A3.31,3.31,0,0,1,172.6,43.68Zm-5,.54a4,4,0,0,0-.69,2.45v.17a3.86,3.86,0,0,0,.74,2.45,2.42,2.42,0,0,0,2,1,2.59,2.59,0,0,0,2.18-1,4.2,4.2,0,0,0,.67-2.5,4.26,4.26,0,0,0-.66-2.49,2.49,2.49,0,0,0-2.15-1.08A2.44,2.44,0,0,0,167.61,44.22Z"/><path class="cls-1" d="M181.5,43.68a5.78,5.78,0,0,1,.94,3.31h-6.72a3.86,3.86,0,0,0,.82,2.38,2.58,2.58,0,0,0,2,.87,2.76,2.76,0,0,0,1.83-.6,3.09,3.09,0,0,0,.88-1.45h1a3.92,3.92,0,0,1-1.1,2,3.73,3.73,0,0,1-2.58.91,3.51,3.51,0,0,1-2.78-1.19,4.58,4.58,0,0,1-1.07-3.18,4.65,4.65,0,0,1,1-3.06,3.81,3.81,0,0,1,5.75,0Zm-4.9.35a3.6,3.6,0,0,0-.86,2.17h5.69c-.16-2-1.11-3-2.86-3A2.47,2.47,0,0,0,176.6,44Z"/><path class="cls-1" d="M189.88,43.07A3.13,3.13,0,0,1,191,45.28h-1a2.35,2.35,0,0,0-.84-1.57,2.75,2.75,0,0,0-1.76-.53,2.5,2.5,0,0,0-2.08,1,4.79,4.79,0,0,0,0,5.1,2.48,2.48,0,0,0,2.1,1,2.44,2.44,0,0,0,2.65-2.36h1a3.8,3.8,0,0,1-1.19,2.39,3.56,3.56,0,0,1-2.41.8,3.46,3.46,0,0,1-2.85-1.25,4.64,4.64,0,0,1-.94-3.06,4.81,4.81,0,0,1,1-3.1,3.42,3.42,0,0,1,2.83-1.31A3.83,3.83,0,0,1,189.88,43.07Z"/><path class="cls-1" d="M194.58,39.9v2.67h2.16v.83h-2.16V49a1.25,1.25,0,0,0,.2.79.9.9,0,0,0,.72.22h1v.83h-1.17a1.72,1.72,0,0,1-1.38-.49,2.05,2.05,0,0,1-.37-1.35V43.4h-1.76v-.83h1.76V40.3Z"/><path class="cls-1" d="M204.31,44.89h-.94a2,2,0,0,0-.69-1.26,3.28,3.28,0,0,0-3.17-.08,1.1,1.1,0,0,0,.16,2,10.74,10.74,0,0,0,1.75.57,8.79,8.79,0,0,1,2.14.77,1.88,1.88,0,0,1,1,1.67c0,1.67-1.12,2.51-3.36,2.51s-3.28-1-3.47-2.83h.94a2.28,2.28,0,0,0,.77,1.56,2.86,2.86,0,0,0,1.73.44c1.6,0,2.4-.55,2.4-1.64a1.25,1.25,0,0,0-.82-1.15,10.3,10.3,0,0,0-1.84-.57,7.83,7.83,0,0,1-2-.74,1.75,1.75,0,0,1-.95-1.58,1.87,1.87,0,0,1,.9-1.62,3.74,3.74,0,0,1,2.18-.59C203,42.35,204.08,43.2,204.31,44.89Z"/><path class="cls-1" d="M217.5,43.29a3.22,3.22,0,0,1,.73,2.23v5.32h-.91V49.26A4.29,4.29,0,0,1,216,50.49a4.14,4.14,0,0,1-2.16.58,3,3,0,0,1-2-.63,2.12,2.12,0,0,1-.75-1.71,2.44,2.44,0,0,1,1.29-2.3,5.53,5.53,0,0,1,2.77-.59l2.11,0v-.3a2.11,2.11,0,0,0-2.4-2.36,2.87,2.87,0,0,0-1.73.47,1.94,1.94,0,0,0-.84,1.44h-1A2.9,2.9,0,0,1,212.52,43a4,4,0,0,1,2.4-.64A3.28,3.28,0,0,1,217.5,43.29Zm-.23,3.31-2.06,0c-2.09,0-3.14.71-3.14,2.1a1.4,1.4,0,0,0,.53,1.12,2.16,2.16,0,0,0,1.41.43,3.42,3.42,0,0,0,2.3-.87,2.43,2.43,0,0,0,1-1.84Z"/><path class="cls-1" d="M224.92,42.52v1a4.31,4.31,0,0,0-1.26-.18,2,2,0,0,0-1.8,1,3.57,3.57,0,0,0-.65,2.16v4.36h-1V42.57h1v1.59a3,3,0,0,1,.91-1.24,2.39,2.39,0,0,1,1.6-.57A3.48,3.48,0,0,1,224.92,42.52Z"/><path class="cls-1" d="M232.3,43.68a5.78,5.78,0,0,1,.94,3.31h-6.72a3.8,3.8,0,0,0,.82,2.38,2.58,2.58,0,0,0,2,.87,2.76,2.76,0,0,0,1.83-.6,3.09,3.09,0,0,0,.88-1.45h1a3.92,3.92,0,0,1-1.1,2,3.73,3.73,0,0,1-2.58.91,3.51,3.51,0,0,1-2.78-1.19,4.58,4.58,0,0,1-1.07-3.18,4.65,4.65,0,0,1,1-3.06,3.81,3.81,0,0,1,5.75,0Zm-4.9.35a3.6,3.6,0,0,0-.86,2.17h5.69c-.16-2-1.11-3-2.86-3A2.47,2.47,0,0,0,227.4,44Z"/><path class="cls-1" d="M246,43.07a3.09,3.09,0,0,1,1.13,2.21h-1a2.3,2.3,0,0,0-.83-1.57,2.77,2.77,0,0,0-1.76-.53,2.49,2.49,0,0,0-2.08,1,4.79,4.79,0,0,0,0,5.1,2.48,2.48,0,0,0,2.09,1,2.45,2.45,0,0,0,2.66-2.36h1A3.8,3.8,0,0,1,246,50.27a3.58,3.58,0,0,1-2.42.8,3.45,3.45,0,0,1-2.84-1.25,4.65,4.65,0,0,1-.95-3.06,4.81,4.81,0,0,1,1-3.1,3.4,3.4,0,0,1,2.83-1.31A3.85,3.85,0,0,1,246,43.07Z"/><path class="cls-1" d="M255.25,43.66a5.11,5.11,0,0,1,0,6.1,3.92,3.92,0,0,1-5.85,0,4.68,4.68,0,0,1-1-3,4.6,4.6,0,0,1,1-3.06,3.59,3.59,0,0,1,2.92-1.31A3.63,3.63,0,0,1,255.25,43.66Zm-5.15.61a4.44,4.44,0,0,0,0,4.88,2.84,2.84,0,0,0,4.47,0,4,4,0,0,0,.73-2.43,3.94,3.94,0,0,0-.73-2.45,2.84,2.84,0,0,0-4.47,0Z"/><path class="cls-1" d="M263.91,44a3.33,3.33,0,0,1,1.1-1.26,2.58,2.58,0,0,1,1.51-.43,2.73,2.73,0,0,1,2.08.81,3.3,3.3,0,0,1,.75,2.28v5.4h-1V45.56a2.72,2.72,0,0,0-.48-1.76,2.06,2.06,0,0,0-1.65-.62,1.88,1.88,0,0,0-1.5.69,2.4,2.4,0,0,0-.61,1.71v5.26h-1V45.56c0-1.59-.68-2.38-2.06-2.38a1.9,1.9,0,0,0-1.55.75,2.67,2.67,0,0,0-.64,1.83v5.08h-1V42.57h1v1.25a2.7,2.7,0,0,1,2.4-1.47A2.49,2.49,0,0,1,263.91,44Z"/><path class="cls-1" d="M278,43.68a5.56,5.56,0,0,1,0,6.08,3.33,3.33,0,0,1-2.77,1.31,3,3,0,0,1-2.89-2V54h-1V42.57h.91V44.2a3,3,0,0,1,2.91-1.85A3.34,3.34,0,0,1,278,43.68Zm-5,.54a4,4,0,0,0-.68,2.45v.17a3.86,3.86,0,0,0,.73,2.45,2.43,2.43,0,0,0,2,1,2.57,2.57,0,0,0,2.17-1,4.21,4.21,0,0,0,.68-2.5,4.26,4.26,0,0,0-.66-2.49,2.49,2.49,0,0,0-2.16-1.08A2.45,2.45,0,0,0,273,44.22Z"/><path class="cls-1" d="M280.89,39.2h1V50.84h-1Z"/><path class="cls-1" d="M290.45,43.68A5.71,5.71,0,0,1,291.4,47h-6.72a3.85,3.85,0,0,0,.81,2.38,2.62,2.62,0,0,0,2.05.87,2.76,2.76,0,0,0,1.83-.6,3.17,3.17,0,0,0,.88-1.45h1a3.92,3.92,0,0,1-1.1,2,3.73,3.73,0,0,1-2.58.91,3.51,3.51,0,0,1-2.78-1.19,4.53,4.53,0,0,1-1.07-3.18,4.65,4.65,0,0,1,1-3.06,3.44,3.44,0,0,1,2.8-1.29A3.4,3.4,0,0,1,290.45,43.68Zm-4.89.35a3.6,3.6,0,0,0-.86,2.17h5.69c-.16-2-1.11-3-2.86-3A2.47,2.47,0,0,0,285.56,44Z"/><path class="cls-1" d="M294.93,39.9v2.67h2.16v.83h-2.16V49a1.25,1.25,0,0,0,.2.79.9.9,0,0,0,.72.22h1v.83h-1.17a1.72,1.72,0,0,1-1.38-.49A2.05,2.05,0,0,1,294,49V43.4h-1.76v-.83H294V40.3Z"/><path class="cls-1" d="M304.84,43.68a5.78,5.78,0,0,1,.94,3.31h-6.72a3.92,3.92,0,0,0,.82,2.38,2.59,2.59,0,0,0,2.05.87,2.75,2.75,0,0,0,1.82-.6,3.09,3.09,0,0,0,.88-1.45h1a3.93,3.93,0,0,1-1.11,2,3.72,3.72,0,0,1-2.57.91,3.53,3.53,0,0,1-2.79-1.19,4.58,4.58,0,0,1-1.07-3.18,4.65,4.65,0,0,1,1-3.06,3.46,3.46,0,0,1,2.81-1.29A3.4,3.4,0,0,1,304.84,43.68Zm-4.9.35a3.6,3.6,0,0,0-.86,2.17h5.69c-.16-2-1.11-3-2.86-3A2.47,2.47,0,0,0,299.94,44Z"/><path class="cls-1" d="M313.56,39.2h1V50.84h-.91V49.21a3,3,0,0,1-2.9,1.86,3.37,3.37,0,0,1-2.8-1.31A4.9,4.9,0,0,1,307,46.7a4.82,4.82,0,0,1,.91-3,3.23,3.23,0,0,1,2.75-1.33,3,3,0,0,1,2.9,2Zm-4.9,5A4,4,0,0,0,308,46.7a4.23,4.23,0,0,0,.68,2.5,2.49,2.49,0,0,0,2.16,1,2.45,2.45,0,0,0,2.09-1,4,4,0,0,0,.69-2.4v-.19a4,4,0,0,0-.74-2.48,2.4,2.4,0,0,0-2-1A2.55,2.55,0,0,0,308.66,44.22Z"/><path class="cls-1" d="M323.4,39.84a.66.66,0,0,1,.24.56.79.79,0,0,1-.26.57.84.84,0,0,1-.56.23.8.8,0,0,1-.81-.8.66.66,0,0,1,.24-.56.75.75,0,0,1,.57-.24A.78.78,0,0,1,323.4,39.84Zm-1.06,2.73h1v8.27h-1Z"/><path class="cls-1" d="M332.52,45.76v5.08h-1v-5c0-1.76-.79-2.64-2.35-2.64a2.19,2.19,0,0,0-1.67.72,2.9,2.9,0,0,0-.78,2v5h-1V42.57h1v1.36a3.4,3.4,0,0,1,1.12-1.17,3,3,0,0,1,1.57-.41C331.49,42.35,332.52,43.48,332.52,45.76Z"/><path class="cls-1" d="M341.86,39.9v2.67H344v.83h-2.16V49a1.33,1.33,0,0,0,.19.79.93.93,0,0,0,.72.22h1v.83h-1.16a1.72,1.72,0,0,1-1.38-.49A2,2,0,0,1,340.9,49V43.4h-1.76v-.83h1.76V40.3Z"/><path class="cls-1" d="M345.48,39.2h1v4.88a3.2,3.2,0,0,1,1.16-1.3,3.23,3.23,0,0,1,3.77.4,3.36,3.36,0,0,1,.8,2.38v5.28h-1V45.69a2.7,2.7,0,0,0-.61-1.87,2.4,2.4,0,0,0-3.45.19,3,3,0,0,0-.71,2.05v4.78h-1Z"/><path class="cls-1" d="M360.49,43.68a5.78,5.78,0,0,1,.94,3.31h-6.72a3.8,3.8,0,0,0,.82,2.38,2.58,2.58,0,0,0,2,.87,2.76,2.76,0,0,0,1.83-.6,3.17,3.17,0,0,0,.88-1.45h1a3.92,3.92,0,0,1-1.1,2,3.73,3.73,0,0,1-2.58.91,3.51,3.51,0,0,1-2.78-1.19,4.53,4.53,0,0,1-1.07-3.18,4.65,4.65,0,0,1,1-3.06,3.81,3.81,0,0,1,5.75,0Zm-4.9.35a3.6,3.6,0,0,0-.86,2.17h5.69c-.16-2-1.11-3-2.86-3A2.47,2.47,0,0,0,355.59,44Z"/><path class="cls-1" d="M70.64,71.68a5.56,5.56,0,0,1,0,6.08,3.33,3.33,0,0,1-2.77,1.31A3,3,0,0,1,65,77.12V82H64V70.57h.91V72.2a3,3,0,0,1,2.91-1.85A3.34,3.34,0,0,1,70.64,71.68Zm-5,.54A4,4,0,0,0,65,74.67v.17a3.86,3.86,0,0,0,.73,2.45,2.43,2.43,0,0,0,2,1,2.57,2.57,0,0,0,2.17-1,4.21,4.21,0,0,0,.68-2.5,4.26,4.26,0,0,0-.66-2.49,2.49,2.49,0,0,0-2.16-1.08A2.45,2.45,0,0,0,65.64,72.22Z"/><path class="cls-1" d="M79.79,71.66a5.11,5.11,0,0,1,0,6.1,3.93,3.93,0,0,1-5.86,0,4.68,4.68,0,0,1-1-3,4.55,4.55,0,0,1,1-3.06,3.56,3.56,0,0,1,2.91-1.31A3.67,3.67,0,0,1,79.79,71.66Zm-5.15.61a4.39,4.39,0,0,0,0,4.88,2.83,2.83,0,0,0,4.46,0,4,4,0,0,0,.73-2.43,3.94,3.94,0,0,0-.73-2.45,2.83,2.83,0,0,0-4.46,0Z"/><path class="cls-1" d="M84,67.84a.66.66,0,0,1,.24.56A.79.79,0,0,1,84,69a.84.84,0,0,1-.56.23.76.76,0,0,1-.57-.23.78.78,0,0,1-.24-.57.66.66,0,0,1,.24-.56.73.73,0,0,1,.57-.24A.8.8,0,0,1,84,67.84ZM83,70.57h1v8.27H83Z"/><path class="cls-1" d="M93.15,73.76v5.08h-1v-5c0-1.76-.79-2.64-2.36-2.64a2.18,2.18,0,0,0-1.66.72,2.9,2.9,0,0,0-.78,1.95v5h-1V70.57h1v1.36a3.31,3.31,0,0,1,1.12-1.17,3,3,0,0,1,1.56-.41C92.12,70.35,93.15,71.48,93.15,73.76Z"/><path class="cls-1" d="M97.16,67.9v2.67h2.16v.83H97.16V77a1.33,1.33,0,0,0,.19.79.93.93,0,0,0,.72.22h1v.83H98a1.72,1.72,0,0,1-1.38-.49A2,2,0,0,1,96.2,77V71.4H94.44v-.83H96.2V68.3Z"/><path class="cls-1" d="M112,71.07a3.13,3.13,0,0,1,1.14,2.21h-1a2.35,2.35,0,0,0-.84-1.57,2.75,2.75,0,0,0-1.76-.53,2.5,2.5,0,0,0-2.08,1,4.79,4.79,0,0,0,0,5.1,2.48,2.48,0,0,0,2.1.95,2.46,2.46,0,0,0,2.66-2.36h.94A3.8,3.8,0,0,1,112,78.27a3.56,3.56,0,0,1-2.41.8,3.46,3.46,0,0,1-2.85-1.25,4.64,4.64,0,0,1-.94-3.06,4.81,4.81,0,0,1,1-3.1,3.42,3.42,0,0,1,2.83-1.31A3.83,3.83,0,0,1,112,71.07Z"/><path class="cls-1" d="M121.26,71.66a5.11,5.11,0,0,1,0,6.1,3.93,3.93,0,0,1-5.86,0,4.68,4.68,0,0,1-1-3,4.6,4.6,0,0,1,1-3.06,3.56,3.56,0,0,1,2.91-1.31A3.65,3.65,0,0,1,121.26,71.66Zm-5.15.61a4.39,4.39,0,0,0,0,4.88,2.83,2.83,0,0,0,4.46,0,4,4,0,0,0,.74-2.43,3.94,3.94,0,0,0-.74-2.45,2.83,2.83,0,0,0-4.46,0Z"/><path class="cls-1" d="M124.27,67.2h1V78.84h-1Z"/><path class="cls-1" d="M127.85,67.2h1V78.84h-1Z"/><path class="cls-1" d="M137.42,71.68a5.78,5.78,0,0,1,.94,3.31h-6.72a3.92,3.92,0,0,0,.82,2.38,2.59,2.59,0,0,0,2,.87,2.75,2.75,0,0,0,1.82-.6,3.09,3.09,0,0,0,.88-1.45h1a3.93,3.93,0,0,1-1.11,2,3.72,3.72,0,0,1-2.57.91,3.52,3.52,0,0,1-2.79-1.19,4.58,4.58,0,0,1-1.07-3.18,4.65,4.65,0,0,1,1-3.06,3.45,3.45,0,0,1,2.8-1.29A3.41,3.41,0,0,1,137.42,71.68Zm-4.9.35a3.6,3.6,0,0,0-.86,2.17h5.69c-.16-2-1.11-3-2.86-3A2.47,2.47,0,0,0,132.52,72Z"/><path class="cls-1" d="M145.8,71.07a3.13,3.13,0,0,1,1.14,2.21h-1a2.39,2.39,0,0,0-.83-1.57,2.79,2.79,0,0,0-1.76-.53,2.47,2.47,0,0,0-2.08,1,4,4,0,0,0-.76,2.57,4.07,4.07,0,0,0,.72,2.53,2.48,2.48,0,0,0,2.1.95A2.45,2.45,0,0,0,146,75.88H147a3.84,3.84,0,0,1-1.18,2.39,3.6,3.6,0,0,1-2.42.8,3.46,3.46,0,0,1-2.85-1.25,4.64,4.64,0,0,1-.94-3.06,4.81,4.81,0,0,1,1-3.1,3.42,3.42,0,0,1,2.84-1.31A3.82,3.82,0,0,1,145.8,71.07Z"/><path class="cls-1" d="M150.51,67.9v2.67h2.16v.83h-2.16V77a1.26,1.26,0,0,0,.19.79.93.93,0,0,0,.72.22h1v.83h-1.17a1.72,1.72,0,0,1-1.38-.49,2.06,2.06,0,0,1-.36-1.35V71.4h-1.76v-.83h1.76V68.3Z"/><path class="cls-1" d="M155.66,67.84a.66.66,0,0,1,.24.56.79.79,0,0,1-.26.57.84.84,0,0,1-.56.23.76.76,0,0,1-.57-.23.78.78,0,0,1-.24-.57.66.66,0,0,1,.24-.56.73.73,0,0,1,.57-.24A.78.78,0,0,1,155.66,67.84Zm-1.06,2.73h1v8.27h-1Z"/><path class="cls-1" d="M164.6,71.66a5.11,5.11,0,0,1,0,6.1,3.93,3.93,0,0,1-5.86,0,4.68,4.68,0,0,1-1-3,4.6,4.6,0,0,1,1-3.06,3.59,3.59,0,0,1,2.91-1.31A3.64,3.64,0,0,1,164.6,71.66Zm-5.15.61a4.39,4.39,0,0,0,0,4.88,2.83,2.83,0,0,0,4.46,0,4,4,0,0,0,.74-2.43,3.94,3.94,0,0,0-.74-2.45,2.83,2.83,0,0,0-4.46,0Z"/><path class="cls-1" d="M174,73.76v5.08h-1v-5c0-1.76-.79-2.64-2.36-2.64a2.18,2.18,0,0,0-1.66.72,2.9,2.9,0,0,0-.78,1.95v5h-1V70.57h1v1.36a3.31,3.31,0,0,1,1.12-1.17,3,3,0,0,1,1.56-.41C173,70.35,174,71.48,174,73.76Z"/><path class="cls-1" d="M187.27,71.07a3.13,3.13,0,0,1,1.14,2.21h-1a2.34,2.34,0,0,0-.83-1.57,2.79,2.79,0,0,0-1.76-.53,2.47,2.47,0,0,0-2.08,1,4.82,4.82,0,0,0,0,5.1,2.49,2.49,0,0,0,2.1.95,2.45,2.45,0,0,0,2.66-2.36h.94a3.79,3.79,0,0,1-1.18,2.39,3.6,3.6,0,0,1-2.42.8A3.46,3.46,0,0,1,182,77.82a4.64,4.64,0,0,1-.94-3.06,4.76,4.76,0,0,1,1-3.1,3.39,3.39,0,0,1,2.83-1.31A3.82,3.82,0,0,1,187.27,71.07Z"/><path class="cls-1" d="M190,67.2h1v4.88a3.13,3.13,0,0,1,1.16-1.3,3.23,3.23,0,0,1,3.77.4,3.36,3.36,0,0,1,.8,2.38v5.28h-1V73.69a2.7,2.7,0,0,0-.61-1.87,2.4,2.4,0,0,0-3.45.19,3,3,0,0,0-.71,2v4.78h-1Z"/><path class="cls-1" d="M204.78,71.29a3.22,3.22,0,0,1,.73,2.23v5.32h-.91V77.26a4.29,4.29,0,0,1-1.34,1.23,4.11,4.11,0,0,1-2.16.58,3,3,0,0,1-2-.63,2.12,2.12,0,0,1-.75-1.71,2.44,2.44,0,0,1,1.29-2.3,5.56,5.56,0,0,1,2.77-.59l2.11,0v-.3a2.11,2.11,0,0,0-2.4-2.36,2.87,2.87,0,0,0-1.73.47,2,2,0,0,0-.84,1.44h-1A2.9,2.9,0,0,1,199.8,71a4,4,0,0,1,2.4-.64A3.28,3.28,0,0,1,204.78,71.29Zm-.23,3.31-2.06,0c-2.09,0-3.14.71-3.14,2.1a1.4,1.4,0,0,0,.53,1.12,2.16,2.16,0,0,0,1.41.43,3.42,3.42,0,0,0,2.3-.87,2.43,2.43,0,0,0,1-1.84Z"/><path class="cls-1" d="M209.07,67.84a.66.66,0,0,1,.24.56.79.79,0,0,1-.26.57.84.84,0,0,1-.56.23.8.8,0,0,1-.82-.8.66.66,0,0,1,.24-.56.75.75,0,0,1,.58-.24A.82.82,0,0,1,209.07,67.84ZM208,70.57h1v8.27h-1Z"/><path class="cls-1" d="M218.18,73.76v5.08h-1v-5c0-1.76-.79-2.64-2.36-2.64a2.18,2.18,0,0,0-1.66.72,3,3,0,0,0-.79,1.95v5h-1V70.57h1v1.36a3.49,3.49,0,0,1,1.12-1.17,3,3,0,0,1,1.57-.41C217.16,70.35,218.18,71.48,218.18,73.76Z"/><path class="cls-1" d="M227.53,67.9v2.67h2.16v.83h-2.16V77a1.26,1.26,0,0,0,.19.79.93.93,0,0,0,.72.22h1v.83h-1.17a1.68,1.68,0,0,1-1.37-.49,2,2,0,0,1-.37-1.35V71.4h-1.76v-.83h1.76V68.3Z"/><path class="cls-1" d="M237.69,71.66a5.11,5.11,0,0,1,0,6.1,3.93,3.93,0,0,1-5.86,0,4.68,4.68,0,0,1-1-3,4.6,4.6,0,0,1,1-3.06,3.56,3.56,0,0,1,2.91-1.31A3.65,3.65,0,0,1,237.69,71.66Zm-5.15.61a4.39,4.39,0,0,0,0,4.88,2.83,2.83,0,0,0,4.46,0,4,4,0,0,0,.74-2.43,3.94,3.94,0,0,0-.74-2.45,2.83,2.83,0,0,0-4.46,0Z"/><path class="cls-1" d="M251.8,71.29a3.23,3.23,0,0,1,.74,2.23v5.32h-.92V77.26a4.29,4.29,0,0,1-1.34,1.23,4.11,4.11,0,0,1-2.16.58,3,3,0,0,1-2-.63,2.12,2.12,0,0,1-.75-1.71,2.44,2.44,0,0,1,1.3-2.3,5.49,5.49,0,0,1,2.76-.59l2.11,0v-.3a2.1,2.1,0,0,0-2.39-2.36,2.82,2.82,0,0,0-1.73.47,2,2,0,0,0-.85,1.44h-.95A2.9,2.9,0,0,1,246.82,71a4,4,0,0,1,2.4-.64A3.26,3.26,0,0,1,251.8,71.29Zm-.23,3.31-2.06,0c-2.09,0-3.13.71-3.13,2.1a1.39,1.39,0,0,0,.52,1.12,2.16,2.16,0,0,0,1.41.43,3.45,3.45,0,0,0,2.31-.87,2.41,2.41,0,0,0,.95-1.84Z"/><path class="cls-1" d="M260.46,71.07a3.16,3.16,0,0,1,1.13,2.21h-1a2.3,2.3,0,0,0-.83-1.57,2.79,2.79,0,0,0-1.76-.53,2.47,2.47,0,0,0-2.08,1,4.79,4.79,0,0,0,0,5.1,2.48,2.48,0,0,0,2.09.95,2.45,2.45,0,0,0,2.66-2.36h.94a3.79,3.79,0,0,1-1.18,2.39,3.58,3.58,0,0,1-2.42.8,3.45,3.45,0,0,1-2.84-1.25,4.65,4.65,0,0,1-1-3.06,4.81,4.81,0,0,1,1-3.1A3.39,3.39,0,0,1,258,70.35,3.85,3.85,0,0,1,260.46,71.07Z"/><path class="cls-1" d="M263.16,67.2h1v4.88a3.11,3.11,0,0,1,1.15-1.3,2.92,2.92,0,0,1,1.57-.43,2.88,2.88,0,0,1,2.2.83,3.31,3.31,0,0,1,.8,2.38v5.28h-1V73.69a2.75,2.75,0,0,0-.6-1.87,2.29,2.29,0,0,0-1.72-.64,2.23,2.23,0,0,0-1.74.83,3,3,0,0,0-.7,2v4.78h-1Z"/><path class="cls-1" d="M273.42,67.84a.66.66,0,0,1,.24.56.79.79,0,0,1-.26.57.84.84,0,0,1-.56.23.8.8,0,0,1-.58-.23.78.78,0,0,1-.24-.57.66.66,0,0,1,.24-.56.77.77,0,0,1,.58-.24A.8.8,0,0,1,273.42,67.84Zm-1.06,2.73h1v8.27h-1Z"/><path class="cls-1" d="M282.1,71.68a5.78,5.78,0,0,1,.95,3.31h-6.72a3.85,3.85,0,0,0,.81,2.38,2.6,2.6,0,0,0,2.05.87,2.76,2.76,0,0,0,1.83-.6,3.17,3.17,0,0,0,.88-1.45h1a3.92,3.92,0,0,1-1.1,2,3.73,3.73,0,0,1-2.58.91,3.51,3.51,0,0,1-2.78-1.19,4.54,4.54,0,0,1-1.08-3.18,4.66,4.66,0,0,1,1-3.06,3.44,3.44,0,0,1,2.8-1.29A3.4,3.4,0,0,1,282.1,71.68Zm-4.89.35a3.67,3.67,0,0,0-.87,2.17H282c-.16-2-1.12-3-2.86-3A2.45,2.45,0,0,0,277.21,72Z"/><path class="cls-1" d="M283.65,70.57h1.06l2.61,7.06,2.59-7.06H291l-3.16,8.27h-1Z"/><path class="cls-1" d="M298.36,71.68A5.71,5.71,0,0,1,299.3,75h-6.72a3.92,3.92,0,0,0,.82,2.38,2.59,2.59,0,0,0,2.05.87,2.75,2.75,0,0,0,1.82-.6,3.09,3.09,0,0,0,.88-1.45h1a3.86,3.86,0,0,1-1.11,2,3.72,3.72,0,0,1-2.57.91,3.53,3.53,0,0,1-2.79-1.19,4.58,4.58,0,0,1-1.07-3.18,4.65,4.65,0,0,1,1-3.06,3.45,3.45,0,0,1,2.8-1.29A3.41,3.41,0,0,1,298.36,71.68Zm-4.9.35a3.6,3.6,0,0,0-.86,2.17h5.7c-.16-2-1.12-3-2.87-3A2.47,2.47,0,0,0,293.46,72Z"/><path class="cls-1" d="M312.41,67.2h1V78.84h-.92V77.21a3,3,0,0,1-2.89,1.86,3.36,3.36,0,0,1-2.8-1.31,4.9,4.9,0,0,1-.91-3.06,4.82,4.82,0,0,1,.91-3,3.23,3.23,0,0,1,2.75-1.33,3,3,0,0,1,2.9,2Zm-4.9,5a4,4,0,0,0-.69,2.48,4.3,4.3,0,0,0,.67,2.5,2.52,2.52,0,0,0,2.16,1,2.46,2.46,0,0,0,2.1-1,4,4,0,0,0,.69-2.4v-.19a4,4,0,0,0-.74-2.48,2.4,2.4,0,0,0-2-1A2.55,2.55,0,0,0,307.51,72.22Z"/><path class="cls-1" d="M321.67,71.68a5.71,5.71,0,0,1,.94,3.31H315.9a3.85,3.85,0,0,0,.81,2.38,2.59,2.59,0,0,0,2.05.87,2.75,2.75,0,0,0,1.82-.6,3,3,0,0,0,.88-1.45h1a3.86,3.86,0,0,1-1.11,2,3.72,3.72,0,0,1-2.57.91A3.51,3.51,0,0,1,316,77.88a4.54,4.54,0,0,1-1.08-3.18,4.61,4.61,0,0,1,1-3.06,3.8,3.8,0,0,1,5.74,0Zm-4.9.35a3.66,3.66,0,0,0-.86,2.17h5.7c-.16-2-1.12-3-2.87-3A2.48,2.48,0,0,0,316.77,72Z"/><path class="cls-1" d="M330.05,71.07a3.13,3.13,0,0,1,1.14,2.21h-1a2.34,2.34,0,0,0-.83-1.57,2.79,2.79,0,0,0-1.76-.53,2.47,2.47,0,0,0-2.08,1,4.79,4.79,0,0,0,0,5.1,2.71,2.71,0,0,0,4.75-1.41h.94A3.79,3.79,0,0,1,330,78.27a3.6,3.6,0,0,1-2.42.8,3.48,3.48,0,0,1-2.85-1.25,4.7,4.7,0,0,1-.94-3.06,4.76,4.76,0,0,1,1-3.1,3.39,3.39,0,0,1,2.83-1.31A3.8,3.8,0,0,1,330.05,71.07Z"/><path class="cls-1" d="M339.05,71.68A5.78,5.78,0,0,1,340,75h-6.72a3.86,3.86,0,0,0,.82,2.38,2.58,2.58,0,0,0,2,.87,2.76,2.76,0,0,0,1.83-.6,3.09,3.09,0,0,0,.88-1.45h1a3.92,3.92,0,0,1-1.1,2,3.73,3.73,0,0,1-2.58.91,3.51,3.51,0,0,1-2.78-1.19,4.58,4.58,0,0,1-1.07-3.18,4.65,4.65,0,0,1,1-3.06,3.81,3.81,0,0,1,5.75,0Zm-4.9.35a3.6,3.6,0,0,0-.86,2.17H339c-.16-2-1.11-3-2.86-3A2.47,2.47,0,0,0,334.15,72Z"/><path class="cls-1" d="M348.25,73.76v5.08h-1v-5c0-1.76-.79-2.64-2.36-2.64a2.18,2.18,0,0,0-1.66.72,2.9,2.9,0,0,0-.78,1.95v5h-1V70.57h1v1.36a3.31,3.31,0,0,1,1.12-1.17,3,3,0,0,1,1.56-.41C347.22,70.35,348.25,71.48,348.25,73.76Z"/><path class="cls-1" d="M352.26,67.9v2.67h2.16v.83h-2.16V77a1.26,1.26,0,0,0,.19.79.93.93,0,0,0,.72.22h1v.83h-1.16a1.7,1.7,0,0,1-1.38-.49A2,2,0,0,1,351.3,77V71.4h-1.76v-.83h1.76V68.3Z"/><path class="cls-1" d="M360.55,70.52v1a4.36,4.36,0,0,0-1.26-.18,2,2,0,0,0-1.8,1,3.57,3.57,0,0,0-.65,2.16v4.36h-1V70.57h1v1.59a3,3,0,0,1,.91-1.24,2.39,2.39,0,0,1,1.6-.57A3.48,3.48,0,0,1,360.55,70.52Z"/><path class="cls-1" d="M367.72,71.29a3.22,3.22,0,0,1,.73,2.23v5.32h-.91V77.26a4.29,4.29,0,0,1-1.34,1.23,4.11,4.11,0,0,1-2.16.58,3,3,0,0,1-2-.63,2.12,2.12,0,0,1-.75-1.71,2.44,2.44,0,0,1,1.29-2.3,5.56,5.56,0,0,1,2.77-.59l2.11,0v-.3a2.11,2.11,0,0,0-2.4-2.36,2.81,2.81,0,0,0-1.72.47,2,2,0,0,0-.85,1.44h-.95A2.9,2.9,0,0,1,362.74,71a4,4,0,0,1,2.4-.64A3.28,3.28,0,0,1,367.72,71.29Zm-.23,3.31-2.06,0c-2.09,0-3.14.71-3.14,2.1a1.4,1.4,0,0,0,.53,1.12,2.16,2.16,0,0,0,1.41.43,3.42,3.42,0,0,0,2.3-.87,2.43,2.43,0,0,0,1-1.84Z"/><path class="cls-1" d="M370.77,67.2h1V78.84h-1Z"/><path class="cls-1" d="M375.59,67.84a.66.66,0,0,1,.24.56.79.79,0,0,1-.26.57.82.82,0,0,1-.56.23.8.8,0,0,1-.81-.8.66.66,0,0,1,.24-.56.75.75,0,0,1,.57-.24A.78.78,0,0,1,375.59,67.84Zm-1.06,2.73h1v8.27h-1Z"/><path class="cls-1" d="M59.56,98.57H66v.74L60.63,106h5.6v.83H59.4v-.75l5.32-6.69H59.56Z"/><path class="cls-1" d="M73.71,99.29a3.18,3.18,0,0,1,.74,2.23v5.32h-.91v-1.58a4.22,4.22,0,0,1-1.35,1.23,4.11,4.11,0,0,1-2.16.58,2.94,2.94,0,0,1-2-.63,2.12,2.12,0,0,1-.75-1.71,2.44,2.44,0,0,1,1.29-2.3,5.53,5.53,0,0,1,2.77-.59l2.11,0v-.3a2.11,2.11,0,0,0-2.4-2.36,2.84,2.84,0,0,0-1.73.47,2,2,0,0,0-.85,1.44h-.94A2.9,2.9,0,0,1,68.74,99a4,4,0,0,1,2.4-.64A3.24,3.24,0,0,1,73.71,99.29Zm-.22,3.31-2.06,0c-2.09,0-3.14.71-3.14,2.1a1.4,1.4,0,0,0,.53,1.12,2.16,2.16,0,0,0,1.41.43,3.42,3.42,0,0,0,2.3-.87,2.43,2.43,0,0,0,1-1.84Z"/><path class="cls-1" d="M78.47,95.9v2.67h2.16v.83H78.47V105a1.26,1.26,0,0,0,.19.79.93.93,0,0,0,.72.22h1v.83H79.25a1.72,1.72,0,0,1-1.38-.49,2.06,2.06,0,0,1-.36-1.35V99.4H75.75v-.83h1.76V96.3Z"/><path class="cls-1" d="M83.62,95.84a.66.66,0,0,1,.24.56.79.79,0,0,1-.26.57.84.84,0,0,1-.56.23.8.8,0,0,1-.81-.8.66.66,0,0,1,.24-.56A.75.75,0,0,1,83,95.6.78.78,0,0,1,83.62,95.84Zm-1.06,2.73h1v8.27h-1Z"/><path class="cls-1" d="M92.56,99.66a5.11,5.11,0,0,1,0,6.1,3.92,3.92,0,0,1-5.85,0,5.09,5.09,0,0,1,0-6.1,3.59,3.59,0,0,1,2.91-1.31A3.64,3.64,0,0,1,92.56,99.66Zm-5.15.61a4.39,4.39,0,0,0,0,4.88,2.83,2.83,0,0,0,4.46,0,4,4,0,0,0,.74-2.43,3.94,3.94,0,0,0-.74-2.45,2.83,2.83,0,0,0-4.46,0Z"/><path class="cls-1" d="M102,101.76v5.08h-1v-5c0-1.76-.79-2.64-2.36-2.64A2.18,2.18,0,0,0,97,99.9a2.9,2.9,0,0,0-.78,1.95v5h-1V98.57h1v1.36a3.31,3.31,0,0,1,1.12-1.17,3,3,0,0,1,1.56-.41C101,98.35,102,99.48,102,101.76Z"/><path class="cls-1" d="M115.41,99.29a3.23,3.23,0,0,1,.74,2.23v5.32h-.92v-1.58a4.29,4.29,0,0,1-1.34,1.23,4.11,4.11,0,0,1-2.16.58,3,3,0,0,1-2-.63,2.12,2.12,0,0,1-.75-1.71,2.44,2.44,0,0,1,1.3-2.3,5.49,5.49,0,0,1,2.76-.59l2.12,0v-.3a2.11,2.11,0,0,0-2.4-2.36,2.82,2.82,0,0,0-1.73.47,2,2,0,0,0-.85,1.44h-.94A2.86,2.86,0,0,1,110.43,99a4,4,0,0,1,2.4-.64A3.25,3.25,0,0,1,115.41,99.29Zm-.22,3.31-2.07,0c-2.09,0-3.13.71-3.13,2.1a1.39,1.39,0,0,0,.52,1.12,2.18,2.18,0,0,0,1.41.43,3.45,3.45,0,0,0,2.31-.87,2.43,2.43,0,0,0,1-1.84Z"/><path class="cls-1" d="M124.88,101.76v5.08h-1v-5c0-1.76-.78-2.64-2.35-2.64a2.2,2.2,0,0,0-1.67.72,2.94,2.94,0,0,0-.78,1.95v5h-1V98.57h1v1.36a3.4,3.4,0,0,1,1.12-1.17,3,3,0,0,1,1.57-.41C123.86,98.35,124.88,99.48,124.88,101.76Z"/><path class="cls-1" d="M133.14,95.2h1v11.64h-.91v-1.63a3,3,0,0,1-2.9,1.86,3.37,3.37,0,0,1-2.8-1.31,4.9,4.9,0,0,1-.91-3.06,4.82,4.82,0,0,1,.91-3,3.23,3.23,0,0,1,2.75-1.33,3,3,0,0,1,2.9,2Zm-4.9,5a4,4,0,0,0-.69,2.48,4.23,4.23,0,0,0,.68,2.5,2.49,2.49,0,0,0,2.16,1,2.45,2.45,0,0,0,2.09-1,4,4,0,0,0,.69-2.4v-.19a4,4,0,0,0-.74-2.48,2.4,2.4,0,0,0-2-1A2.55,2.55,0,0,0,128.24,100.22Z"/><path class="cls-1" d="M147.68,95.2h1v11.64h-.91v-1.63a3,3,0,0,1-2.9,1.86,3.38,3.38,0,0,1-2.8-1.31,5,5,0,0,1-.91-3.06,4.88,4.88,0,0,1,.91-3,3.24,3.24,0,0,1,2.76-1.33,3,3,0,0,1,2.89,2Zm-4.89,5a4,4,0,0,0-.69,2.48,4.23,4.23,0,0,0,.67,2.5,2.71,2.71,0,0,0,4.26,0,4.07,4.07,0,0,0,.68-2.4v-.19a4,4,0,0,0-.73-2.48,2.42,2.42,0,0,0-2-1A2.53,2.53,0,0,0,142.79,100.22Z"/><path class="cls-1" d="M157,99.68a5.78,5.78,0,0,1,.94,3.31h-6.72a3.8,3.8,0,0,0,.82,2.38,2.58,2.58,0,0,0,2,.87,2.76,2.76,0,0,0,1.83-.6,3.17,3.17,0,0,0,.88-1.45h1a3.92,3.92,0,0,1-1.1,2,3.73,3.73,0,0,1-2.58.91,3.51,3.51,0,0,1-2.78-1.19,4.53,4.53,0,0,1-1.07-3.18,4.65,4.65,0,0,1,1-3.06,3.81,3.81,0,0,1,5.75,0Zm-4.9.35a3.6,3.6,0,0,0-.86,2.17h5.69c-.16-2-1.11-3-2.86-3A2.47,2.47,0,0,0,152.05,100Z"/><path class="cls-1" d="M159.22,102.28h8.08v.84h-8.08Z"/><path class="cls-1" d="M175.71,99.68a4.89,4.89,0,0,1,.91,3,5,5,0,0,1-.89,3,3.34,3.34,0,0,1-2.77,1.31,3,3,0,0,1-2.9-1.95V110h-1V98.57H170v1.63a3,3,0,0,1,2.91-1.85A3.31,3.31,0,0,1,175.71,99.68Zm-5,.54a4,4,0,0,0-.69,2.45v.17a3.86,3.86,0,0,0,.74,2.45,2.42,2.42,0,0,0,2,1,2.59,2.59,0,0,0,2.18-1,4.2,4.2,0,0,0,.67-2.5,4.34,4.34,0,0,0-.65-2.49,2.52,2.52,0,0,0-2.16-1.08A2.44,2.44,0,0,0,170.72,100.22Z"/><path class="cls-1" d="M178.62,95.2h1v11.64h-1Z"/><path class="cls-1" d="M188,99.29a3.18,3.18,0,0,1,.74,2.23v5.32h-.91v-1.58a4.22,4.22,0,0,1-1.35,1.23,4.11,4.11,0,0,1-2.16.58,2.94,2.94,0,0,1-2-.63,2.09,2.09,0,0,1-.76-1.71,2.45,2.45,0,0,1,1.3-2.3,5.53,5.53,0,0,1,2.77-.59l2.11,0v-.3a2.11,2.11,0,0,0-2.4-2.36,2.84,2.84,0,0,0-1.73.47,2,2,0,0,0-.85,1.44h-.94A2.9,2.9,0,0,1,183,99a4,4,0,0,1,2.4-.64A3.24,3.24,0,0,1,188,99.29Zm-.22,3.31-2.06,0c-2.09,0-3.14.71-3.14,2.1a1.4,1.4,0,0,0,.53,1.12,2.16,2.16,0,0,0,1.41.43,3.42,3.42,0,0,0,2.3-.87,2.43,2.43,0,0,0,1-1.84Z"/><path class="cls-1" d="M192.74,95.9v2.67h2.16v.83h-2.16V105a1.26,1.26,0,0,0,.19.79.93.93,0,0,0,.72.22h1v.83h-1.17a1.72,1.72,0,0,1-1.38-.49,2.06,2.06,0,0,1-.36-1.35V99.4H190v-.83h1.76V96.3Z"/><path class="cls-1" d="M197.89,95.84a.66.66,0,0,1,.24.56.79.79,0,0,1-.26.57.84.84,0,0,1-.56.23.8.8,0,0,1-.81-.8.66.66,0,0,1,.24-.56.75.75,0,0,1,.57-.24A.78.78,0,0,1,197.89,95.84Zm-1.06,2.73h1v8.27h-1Z"/><path class="cls-1" d="M207,101.76v5.08h-1v-5c0-1.76-.79-2.64-2.35-2.64a2.19,2.19,0,0,0-1.67.72,2.9,2.9,0,0,0-.78,1.95v5h-1V98.57h1v1.36a3.4,3.4,0,0,1,1.12-1.17,3,3,0,0,1,1.57-.41C206,98.35,207,99.48,207,101.76Z"/><path class="cls-1" d="M215.39,100.24V98.57h1v7.67c0,2.66-1.24,4-3.71,4a4,4,0,0,1-2.51-.71,3,3,0,0,1-1.06-2h1a2.1,2.1,0,0,0,.77,1.37,2.84,2.84,0,0,0,1.84.52c1.83,0,2.75-1,2.75-3.09v-1.59a3.07,3.07,0,0,1-3,1.89,3.46,3.46,0,0,1-2.77-1.23,4.89,4.89,0,0,1,0-5.82,3.42,3.42,0,0,1,2.77-1.25A3.07,3.07,0,0,1,215.39,100.24Zm-5-.08a3.52,3.52,0,0,0-.74,2.35,3.66,3.66,0,0,0,.69,2.3,2.54,2.54,0,0,0,2.16,1,2.58,2.58,0,0,0,2.14-1,4.2,4.2,0,0,0,0-4.7,2.76,2.76,0,0,0-4.25,0Z"/><path class="cls-1" d="M220,105.47a.72.72,0,0,1,.24.57.8.8,0,0,1-.26.58.81.81,0,0,1-.56.22.75.75,0,0,1-.57-.24.76.76,0,0,1-.24-.56.72.72,0,0,1,.24-.57.75.75,0,0,1,.57-.23A.78.78,0,0,1,220,105.47Z"/><path class="cls-1" d="M228,95.42h1v7a4.13,4.13,0,0,0,.8,2.77,4.1,4.1,0,0,0,5.34,0,4.16,4.16,0,0,0,.8-2.77v-7h1v7a5,5,0,0,1-1.07,3.41,5.25,5.25,0,0,1-6.74,0,4.91,4.91,0,0,1-1.09-3.42Z"/><path class="cls-1" d="M245.78,101.76v5.08h-1v-5c0-1.76-.79-2.64-2.36-2.64a2.18,2.18,0,0,0-1.66.72,2.9,2.9,0,0,0-.78,1.95v5h-1V98.57h1v1.36a3.31,3.31,0,0,1,1.12-1.17,3,3,0,0,1,1.56-.41C244.75,98.35,245.78,99.48,245.78,101.76Z"/><path class="cls-1" d="M254,95.2h1v11.64h-.91v-1.63a3,3,0,0,1-2.9,1.86,3.38,3.38,0,0,1-2.8-1.31,5,5,0,0,1-.91-3.06,4.88,4.88,0,0,1,.91-3,3.24,3.24,0,0,1,2.76-1.33,3,3,0,0,1,2.89,2Zm-4.89,5a4,4,0,0,0-.69,2.48,4.23,4.23,0,0,0,.67,2.5,2.71,2.71,0,0,0,4.26,0,4.07,4.07,0,0,0,.68-2.4v-.19a4,4,0,0,0-.73-2.48,2.42,2.42,0,0,0-2-1A2.53,2.53,0,0,0,249.14,100.22Z"/><path class="cls-1" d="M263.3,99.68a5.78,5.78,0,0,1,.94,3.31h-6.72a3.85,3.85,0,0,0,.81,2.38,2.62,2.62,0,0,0,2.05.87,2.76,2.76,0,0,0,1.83-.6,3.17,3.17,0,0,0,.88-1.45h1a3.92,3.92,0,0,1-1.1,2,3.73,3.73,0,0,1-2.58.91,3.51,3.51,0,0,1-2.78-1.19,4.53,4.53,0,0,1-1.07-3.18,4.65,4.65,0,0,1,1-3.06,3.81,3.81,0,0,1,5.75,0Zm-4.9.35a3.6,3.6,0,0,0-.86,2.17h5.69c-.16-2-1.11-3-2.86-3A2.47,2.47,0,0,0,258.4,100Z"/><path class="cls-1" d="M270.45,98.52v1a4.38,4.38,0,0,0-1.27-.18,2,2,0,0,0-1.79,1,3.51,3.51,0,0,0-.65,2.16v4.36h-1V98.57h1v1.59a2.93,2.93,0,0,1,.91-1.24,2.39,2.39,0,0,1,1.6-.57A3.48,3.48,0,0,1,270.45,98.52Z"/><path class="cls-1" d="M278.86,95.9v2.67H281v.83h-2.16V105a1.25,1.25,0,0,0,.2.79.89.89,0,0,0,.71.22h1.05v.83h-1.17a1.72,1.72,0,0,1-1.38-.49,2.05,2.05,0,0,1-.37-1.35V99.4h-1.76v-.83h1.76V96.3Z"/><path class="cls-1" d="M282.48,95.2h1v4.88a3.2,3.2,0,0,1,1.16-1.3,3.23,3.23,0,0,1,3.77.4,3.31,3.31,0,0,1,.8,2.38v5.28h-1v-5.15a2.7,2.7,0,0,0-.61-1.87,2.4,2.4,0,0,0-3.45.19,3,3,0,0,0-.71,2v4.78h-1Z"/><path class="cls-1" d="M297.49,99.68a5.78,5.78,0,0,1,.94,3.31h-6.72a3.86,3.86,0,0,0,.82,2.38,2.58,2.58,0,0,0,2,.87,2.76,2.76,0,0,0,1.83-.6,3.09,3.09,0,0,0,.88-1.45h1a3.92,3.92,0,0,1-1.1,2,3.73,3.73,0,0,1-2.58.91,3.51,3.51,0,0,1-2.78-1.19,4.58,4.58,0,0,1-1.07-3.18,4.65,4.65,0,0,1,1-3.06,3.81,3.81,0,0,1,5.75,0Zm-4.9.35a3.6,3.6,0,0,0-.86,2.17h5.69c-.16-2-1.11-3-2.86-3A2.47,2.47,0,0,0,292.59,100Z"/><path class="cls-1" d="M311.2,99.07a3.09,3.09,0,0,1,1.13,2.21h-1a2.3,2.3,0,0,0-.83-1.57,2.77,2.77,0,0,0-1.76-.53,2.49,2.49,0,0,0-2.08,1,4.79,4.79,0,0,0,0,5.1,2.48,2.48,0,0,0,2.1.95,2.44,2.44,0,0,0,2.65-2.36h.95a3.8,3.8,0,0,1-1.19,2.39,3.58,3.58,0,0,1-2.41.8,3.46,3.46,0,0,1-2.85-1.25,4.65,4.65,0,0,1-.95-3.06,4.81,4.81,0,0,1,1-3.1,3.4,3.4,0,0,1,2.83-1.31A3.85,3.85,0,0,1,311.2,99.07Z"/><path class="cls-1" d="M313.9,95.2h1v4.88a3.18,3.18,0,0,1,1.15-1.3,3.24,3.24,0,0,1,3.78.4,3.36,3.36,0,0,1,.8,2.38v5.28h-1v-5.15a2.75,2.75,0,0,0-.61-1.87,2.28,2.28,0,0,0-1.71-.64,2.24,2.24,0,0,0-1.75.83,3,3,0,0,0-.7,2v4.78h-1Z"/><path class="cls-1" d="M328.7,99.29a3.23,3.23,0,0,1,.74,2.23v5.32h-.91v-1.58a4.33,4.33,0,0,1-1.35,1.23,4.11,4.11,0,0,1-2.16.58,3,3,0,0,1-2-.63,2.12,2.12,0,0,1-.75-1.71,2.44,2.44,0,0,1,1.3-2.3,5.51,5.51,0,0,1,2.77-.59l2.11,0v-.3a2.11,2.11,0,0,0-2.4-2.36,2.84,2.84,0,0,0-1.73.47,2,2,0,0,0-.85,1.44h-.94A2.87,2.87,0,0,1,323.73,99a4,4,0,0,1,2.4-.64A3.24,3.24,0,0,1,328.7,99.29Zm-.22,3.31-2.07,0c-2.09,0-3.13.71-3.13,2.1a1.37,1.37,0,0,0,.53,1.12,2.15,2.15,0,0,0,1.4.43,3.43,3.43,0,0,0,2.31-.87,2.43,2.43,0,0,0,1-1.84Z"/><path class="cls-1" d="M333,95.84a.66.66,0,0,1,.24.56A.76.76,0,0,1,333,97a.82.82,0,0,1-.56.23.8.8,0,0,1-.81-.8.66.66,0,0,1,.24-.56.75.75,0,0,1,.57-.24A.78.78,0,0,1,333,95.84Zm-1.06,2.73h1v8.27h-1Z"/><path class="cls-1" d="M342.11,101.76v5.08h-1v-5c0-1.76-.78-2.64-2.35-2.64a2.2,2.2,0,0,0-1.67.72,2.9,2.9,0,0,0-.78,1.95v5h-1V98.57h1v1.36a3.4,3.4,0,0,1,1.12-1.17,3,3,0,0,1,1.57-.41C341.09,98.35,342.11,99.48,342.11,101.76Z"/><path class="cls-1" d="M346.11,106.57a2.94,2.94,0,0,1-1.6,2.77l-.35-.56a2.52,2.52,0,0,0,1.23-2h-.24a.9.9,0,0,1-.59-.2.89.89,0,0,1,0-1.17.81.81,0,0,1,.59-.23C345.78,105.24,346.11,105.69,346.11,106.57Z"/><path class="cls-1" d="M355.58,95.9v2.67h2.16v.83h-2.16V105a1.33,1.33,0,0,0,.19.79.93.93,0,0,0,.72.22h1v.83h-1.16a1.72,1.72,0,0,1-1.38-.49,2,2,0,0,1-.37-1.35V99.4h-1.76v-.83h1.76V96.3Z"/><path class="cls-1" d="M359.2,95.2h1v4.88a3.18,3.18,0,0,1,1.15-1.3,2.94,2.94,0,0,1,1.57-.43,2.9,2.9,0,0,1,2.21.83,3.36,3.36,0,0,1,.8,2.38v5.28h-1v-5.15a2.7,2.7,0,0,0-.61-1.87,2.4,2.4,0,0,0-3.45.19,3,3,0,0,0-.71,2v4.78h-1Z"/><path class="cls-1" d="M374.21,99.68a5.78,5.78,0,0,1,.94,3.31h-6.72a3.85,3.85,0,0,0,.81,2.38,2.62,2.62,0,0,0,2.05.87,2.76,2.76,0,0,0,1.83-.6,3.17,3.17,0,0,0,.88-1.45h1a3.92,3.92,0,0,1-1.1,2,3.73,3.73,0,0,1-2.58.91,3.51,3.51,0,0,1-2.78-1.19,4.53,4.53,0,0,1-1.07-3.18,4.65,4.65,0,0,1,1-3.06,3.81,3.81,0,0,1,5.75,0Zm-4.9.35a3.6,3.6,0,0,0-.86,2.17h5.69c-.16-2-1.11-3-2.86-3A2.47,2.47,0,0,0,369.31,100Z"/><path class="cls-1" d="M66.57,123.2h1v11.64h-.91v-1.63a3,3,0,0,1-2.9,1.86,3.38,3.38,0,0,1-2.8-1.31A5,5,0,0,1,60,130.7a4.88,4.88,0,0,1,.91-3,3.24,3.24,0,0,1,2.76-1.33,3,3,0,0,1,2.89,2Zm-4.89,5A4,4,0,0,0,61,130.7a4.23,4.23,0,0,0,.67,2.5,2.49,2.49,0,0,0,2.16,1.05,2.44,2.44,0,0,0,2.09-1,4,4,0,0,0,.69-2.4v-.19a4,4,0,0,0-.73-2.48,2.42,2.42,0,0,0-2-1A2.53,2.53,0,0,0,61.68,128.22Z"/><path class="cls-1" d="M75.83,127.68a5.71,5.71,0,0,1,1,3.31H70.06a3.8,3.8,0,0,0,.82,2.38,2.58,2.58,0,0,0,2,.87,2.76,2.76,0,0,0,1.83-.6,3.17,3.17,0,0,0,.88-1.45h1a3.92,3.92,0,0,1-1.1,2,3.73,3.73,0,0,1-2.58.91,3.51,3.51,0,0,1-2.78-1.19,4.53,4.53,0,0,1-1.07-3.18,4.65,4.65,0,0,1,1-3.06,3.45,3.45,0,0,1,2.8-1.29A3.4,3.4,0,0,1,75.83,127.68Zm-4.89.35a3.67,3.67,0,0,0-.87,2.17h5.7c-.16-2-1.11-3-2.86-3A2.47,2.47,0,0,0,70.94,128Z"/><path class="cls-1" d="M78.62,123.2h1v11.64h-1Z"/><path class="cls-1" d="M83.44,123.84a.66.66,0,0,1,.24.56.79.79,0,0,1-.26.57.84.84,0,0,1-.56.23.8.8,0,0,1-.82-.8.66.66,0,0,1,.24-.56.75.75,0,0,1,.58-.24A.8.8,0,0,1,83.44,123.84Zm-1.06,2.73h1v8.27h-1Z"/><path class="cls-1" d="M84.91,126.57h1l2.61,7.06,2.59-7.06h1.08l-3.17,8.27h-1Z"/><path class="cls-1" d="M99.61,127.68a5.78,5.78,0,0,1,1,3.31H93.83a3.92,3.92,0,0,0,.82,2.38,2.59,2.59,0,0,0,2,.87,2.75,2.75,0,0,0,1.82-.6,3,3,0,0,0,.88-1.45h1a3.86,3.86,0,0,1-1.11,2,3.72,3.72,0,0,1-2.57.91,3.55,3.55,0,0,1-2.79-1.19,5.16,5.16,0,0,1,0-6.24,3.8,3.8,0,0,1,5.74,0Zm-4.9.35a3.6,3.6,0,0,0-.86,2.17h5.7c-.16-2-1.12-3-2.87-3A2.48,2.48,0,0,0,94.71,128Z"/><path class="cls-1" d="M106.76,126.52v1a4.26,4.26,0,0,0-1.26-.18,2,2,0,0,0-1.79,1,3.51,3.51,0,0,0-.66,2.16v4.36h-1v-8.27h1v1.59a3,3,0,0,1,.91-1.24,2.39,2.39,0,0,1,1.6-.57A3.44,3.44,0,0,1,106.76,126.52Z"/><path class="cls-1" d="M106.92,126.57H108l2.7,6.9,2.67-6.9h1.06L109.85,138h-1l1.39-3.37Z"/><path class="cls-1" d="M122.36,123.84a.66.66,0,0,1,.24.56.78.78,0,0,1-.25.57.84.84,0,0,1-.56.23.8.8,0,0,1-.82-.8.66.66,0,0,1,.24-.56.75.75,0,0,1,.58-.24A.78.78,0,0,1,122.36,123.84Zm-1,2.73h1v8.27h-1Z"/><path class="cls-1" d="M130.87,128.89h-.94a2,2,0,0,0-.69-1.26,3.28,3.28,0,0,0-3.17-.08,1.1,1.1,0,0,0,.16,2,11.1,11.1,0,0,0,1.75.57,8.63,8.63,0,0,1,2.14.77,1.88,1.88,0,0,1,1,1.67c0,1.67-1.12,2.51-3.36,2.51s-3.28-.95-3.47-2.83h1a2.24,2.24,0,0,0,.76,1.56,2.86,2.86,0,0,0,1.73.44c1.6,0,2.4-.55,2.4-1.64a1.25,1.25,0,0,0-.81-1.15,10.91,10.91,0,0,0-1.84-.57,7.78,7.78,0,0,1-2-.74,1.74,1.74,0,0,1-.94-1.58,1.86,1.86,0,0,1,.89-1.62,3.77,3.77,0,0,1,2.18-.59C129.54,126.35,130.64,127.2,130.87,128.89Z"/><path class="cls-1" d="M143.88,127.07a3.13,3.13,0,0,1,1.14,2.21h-1a2.39,2.39,0,0,0-.83-1.57,2.79,2.79,0,0,0-1.76-.53,2.47,2.47,0,0,0-2.08,1,4,4,0,0,0-.76,2.57,4.07,4.07,0,0,0,.72,2.53,2.48,2.48,0,0,0,2.1,1,2.45,2.45,0,0,0,2.66-2.36h.94a3.84,3.84,0,0,1-1.18,2.39,3.6,3.6,0,0,1-2.42.8,3.46,3.46,0,0,1-2.85-1.25,4.64,4.64,0,0,1-.94-3.06,4.81,4.81,0,0,1,1-3.1,3.42,3.42,0,0,1,2.84-1.31A3.82,3.82,0,0,1,143.88,127.07Z"/><path class="cls-1" d="M152.67,127.29a3.22,3.22,0,0,1,.73,2.23v5.32h-.91v-1.58a4.29,4.29,0,0,1-1.34,1.23,4.14,4.14,0,0,1-2.16.58,3,3,0,0,1-2-.63,2.12,2.12,0,0,1-.75-1.71,2.44,2.44,0,0,1,1.29-2.3,5.53,5.53,0,0,1,2.77-.59l2.11,0v-.3a2.11,2.11,0,0,0-2.4-2.36,2.87,2.87,0,0,0-1.73.47,1.94,1.94,0,0,0-.84,1.44h-.95a2.9,2.9,0,0,1,1.17-2.08,4,4,0,0,1,2.4-.64A3.28,3.28,0,0,1,152.67,127.29Zm-.23,3.31-2.06,0c-2.09,0-3.14.71-3.14,2.1a1.4,1.4,0,0,0,.53,1.12,2.16,2.16,0,0,0,1.41.43,3.42,3.42,0,0,0,2.3-.87,2.43,2.43,0,0,0,1-1.84Z"/><path class="cls-1" d="M160.09,126.52v1a4.38,4.38,0,0,0-1.27-.18,2,2,0,0,0-1.79,1,3.57,3.57,0,0,0-.65,2.16v4.36h-1v-8.27h1v1.59a2.93,2.93,0,0,1,.91-1.24,2.39,2.39,0,0,1,1.6-.57A3.48,3.48,0,0,1,160.09,126.52Z"/><path class="cls-1" d="M165.85,126.52v1a4.38,4.38,0,0,0-1.27-.18,2,2,0,0,0-1.79,1,3.57,3.57,0,0,0-.65,2.16v4.36h-1v-8.27h1v1.59a2.93,2.93,0,0,1,.91-1.24,2.39,2.39,0,0,1,1.6-.57A3.48,3.48,0,0,1,165.85,126.52Z"/><path class="cls-1" d="M168.47,123.84a.66.66,0,0,1,.24.56.78.78,0,0,1-.25.57.84.84,0,0,1-.56.23.8.8,0,0,1-.82-.8.66.66,0,0,1,.24-.56.75.75,0,0,1,.58-.24A.78.78,0,0,1,168.47,123.84Zm-1.05,2.73h1v8.27h-1Z"/><path class="cls-1" d="M177.16,127.68a5.78,5.78,0,0,1,1,3.31h-6.72a3.85,3.85,0,0,0,.81,2.38,2.6,2.6,0,0,0,2.05.87,2.73,2.73,0,0,0,1.82-.6,3,3,0,0,0,.88-1.45h1a3.86,3.86,0,0,1-1.11,2,3.72,3.72,0,0,1-2.57.91,3.51,3.51,0,0,1-2.78-1.19,4.54,4.54,0,0,1-1.08-3.18,4.61,4.61,0,0,1,1-3.06,3.8,3.8,0,0,1,5.74,0Zm-4.9.35a3.66,3.66,0,0,0-.86,2.17h5.7c-.16-2-1.12-3-2.87-3A2.48,2.48,0,0,0,172.26,128Z"/><path class="cls-1" d="M185.88,123.2h1v11.64h-.91v-1.63a3,3,0,0,1-2.9,1.86,3.37,3.37,0,0,1-2.8-1.31,4.9,4.9,0,0,1-.91-3.06,4.82,4.82,0,0,1,.91-3,3.24,3.24,0,0,1,2.76-1.33,3,3,0,0,1,2.89,2Zm-4.89,5a4,4,0,0,0-.69,2.48,4.23,4.23,0,0,0,.67,2.5,2.49,2.49,0,0,0,2.16,1.05,2.45,2.45,0,0,0,2.09-1,4,4,0,0,0,.69-2.4v-.19a4,4,0,0,0-.73-2.48,2.43,2.43,0,0,0-2-1A2.53,2.53,0,0,0,181,128.22Z"/><path class="cls-1" d="M200.73,127.66a5.11,5.11,0,0,1,0,6.1,3.93,3.93,0,0,1-5.86,0,4.68,4.68,0,0,1-1-3,4.6,4.6,0,0,1,1-3.06,3.56,3.56,0,0,1,2.91-1.31A3.65,3.65,0,0,1,200.73,127.66Zm-5.15.61a4.39,4.39,0,0,0,0,4.88,2.83,2.83,0,0,0,4.46,0,4,4,0,0,0,.74-2.43,3.94,3.94,0,0,0-.74-2.45,2.83,2.83,0,0,0-4.46,0Z"/><path class="cls-1" d="M203.43,126.57h1v5.06a2.87,2.87,0,0,0,.55,1.93,2.19,2.19,0,0,0,1.77.68,2.32,2.32,0,0,0,1.68-.74,3,3,0,0,0,.82-1.9v-5h1v8.27h-1v-1.39a3,3,0,0,1-2.75,1.62q-3,0-3-3.39Z"/><path class="cls-1" d="M214.18,123.9v2.67h2.16v.83h-2.16V133a1.25,1.25,0,0,0,.2.79.9.9,0,0,0,.72.22h1v.83H215a1.72,1.72,0,0,1-1.38-.49,2.05,2.05,0,0,1-.37-1.35v-5.6h-1.76v-.83h1.76V124.3Z"/><path class="cls-1" d="M223.13,126.57h1v5.06a2.92,2.92,0,0,0,.54,1.93,2.23,2.23,0,0,0,1.78.68,2.32,2.32,0,0,0,1.68-.74,2.89,2.89,0,0,0,.81-1.9v-5h1v8.27h-1v-1.39a3,3,0,0,1-2.75,1.62q-3,0-3-3.39Z"/><path class="cls-1" d="M238.6,129.76v5.08h-1v-5c0-1.76-.78-2.64-2.35-2.64a2.2,2.2,0,0,0-1.67.72,2.9,2.9,0,0,0-.78,1.95v5h-1v-8.27h1v1.36a3.4,3.4,0,0,1,1.12-1.17,3,3,0,0,1,1.57-.41C237.58,126.35,238.6,127.48,238.6,129.76Z"/><path class="cls-1" d="M246.86,123.2h1v11.64h-.92v-1.63a3,3,0,0,1-2.89,1.86,3.36,3.36,0,0,1-2.8-1.31,4.9,4.9,0,0,1-.91-3.06,4.82,4.82,0,0,1,.91-3,3.23,3.23,0,0,1,2.75-1.33,3,3,0,0,1,2.9,2Zm-4.9,5a4,4,0,0,0-.69,2.48,4.3,4.3,0,0,0,.67,2.5,2.5,2.5,0,0,0,2.16,1.05,2.46,2.46,0,0,0,2.1-1,4,4,0,0,0,.69-2.4v-.19a4,4,0,0,0-.74-2.48,2.4,2.4,0,0,0-2-1A2.55,2.55,0,0,0,242,128.22Z"/><path class="cls-1" d="M256.12,127.68a5.71,5.71,0,0,1,.94,3.31h-6.72a3.92,3.92,0,0,0,.82,2.38,2.59,2.59,0,0,0,2.05.87,2.75,2.75,0,0,0,1.82-.6,3.09,3.09,0,0,0,.88-1.45h1a3.86,3.86,0,0,1-1.11,2,3.72,3.72,0,0,1-2.57.91,3.53,3.53,0,0,1-2.79-1.19,5.16,5.16,0,0,1,0-6.24,3.8,3.8,0,0,1,5.74,0Zm-4.9.35a3.6,3.6,0,0,0-.86,2.17h5.7c-.16-2-1.12-3-2.87-3A2.47,2.47,0,0,0,251.22,128Z"/><path class="cls-1" d="M263.27,126.52v1a4.26,4.26,0,0,0-1.26-.18,2,2,0,0,0-1.79,1,3.51,3.51,0,0,0-.66,2.16v4.36h-1v-8.27h1v1.59a3,3,0,0,1,.91-1.24,2.39,2.39,0,0,1,1.6-.57A3.48,3.48,0,0,1,263.27,126.52Z"/><path class="cls-1" d="M271.69,123.9v2.67h2.16v.83h-2.16V133a1.26,1.26,0,0,0,.19.79.93.93,0,0,0,.72.22h1v.83h-1.17a1.72,1.72,0,0,1-1.38-.49,2.06,2.06,0,0,1-.36-1.35v-5.6H269v-.83h1.76V124.3Z"/><path class="cls-1" d="M275.3,123.2h1v4.88a3.18,3.18,0,0,1,1.15-1.3,3.24,3.24,0,0,1,3.78.4,3.36,3.36,0,0,1,.8,2.38v5.28h-1v-5.15a2.75,2.75,0,0,0-.61-1.87,2.28,2.28,0,0,0-1.71-.64A2.24,2.24,0,0,0,277,128a3,3,0,0,0-.7,2.05v4.78h-1Z"/><path class="cls-1" d="M290.31,127.68a5.71,5.71,0,0,1,.94,3.31h-6.72a3.92,3.92,0,0,0,.82,2.38,2.6,2.6,0,0,0,2,.87,2.73,2.73,0,0,0,1.82-.6,3,3,0,0,0,.88-1.45h1a3.92,3.92,0,0,1-1.1,2,3.76,3.76,0,0,1-2.58.91,3.55,3.55,0,0,1-2.79-1.19,5.16,5.16,0,0,1,0-6.24,3.8,3.8,0,0,1,5.74,0Zm-4.9.35a3.66,3.66,0,0,0-.86,2.17h5.7c-.16-2-1.12-3-2.87-3A2.47,2.47,0,0,0,285.41,128Z"/><path class="cls-1" d="M304.73,127.68a5.56,5.56,0,0,1,0,6.08,3.33,3.33,0,0,1-2.77,1.31,3,3,0,0,1-2.89-1.95V138h-1V126.57H299v1.63a3,3,0,0,1,2.91-1.85A3.33,3.33,0,0,1,304.73,127.68Zm-5,.54a4,4,0,0,0-.69,2.45v.17a3.86,3.86,0,0,0,.73,2.45,2.44,2.44,0,0,0,2,1,2.57,2.57,0,0,0,2.17-1,4.21,4.21,0,0,0,.68-2.5,4.26,4.26,0,0,0-.66-2.49,2.49,2.49,0,0,0-2.16-1.08A2.42,2.42,0,0,0,299.74,128.22Z"/><path class="cls-1" d="M312,126.52v1a4.38,4.38,0,0,0-1.27-.18,2,2,0,0,0-1.79,1,3.51,3.51,0,0,0-.66,2.16v4.36h-1v-8.27h1v1.59a3,3,0,0,1,.92-1.24,2.38,2.38,0,0,1,1.6-.57A3.48,3.48,0,0,1,312,126.52Z"/><path class="cls-1" d="M319.38,127.68a5.78,5.78,0,0,1,.95,3.31h-6.72a3.85,3.85,0,0,0,.81,2.38,2.6,2.6,0,0,0,2.05.87,2.73,2.73,0,0,0,1.82-.6,3,3,0,0,0,.88-1.45h1a3.92,3.92,0,0,1-1.1,2,3.74,3.74,0,0,1-2.58.91,3.51,3.51,0,0,1-2.78-1.19,4.54,4.54,0,0,1-1.08-3.18,4.66,4.66,0,0,1,1-3.06,3.44,3.44,0,0,1,2.8-1.29A3.4,3.4,0,0,1,319.38,127.68Zm-4.89.35a3.67,3.67,0,0,0-.87,2.17h5.7c-.16-2-1.12-3-2.87-3A2.45,2.45,0,0,0,314.49,128Z"/><path class="cls-1" d="M327.81,128a3.27,3.27,0,0,1,1.11-1.26,2.55,2.55,0,0,1,1.5-.43,2.72,2.72,0,0,1,2.08.81,3.3,3.3,0,0,1,.75,2.28v5.4h-1v-5.28a2.72,2.72,0,0,0-.48-1.76,2,2,0,0,0-1.64-.62,1.91,1.91,0,0,0-1.51.69,2.45,2.45,0,0,0-.61,1.71v5.26h-1v-5.28c0-1.59-.69-2.38-2.07-2.38a1.91,1.91,0,0,0-1.55.75,2.72,2.72,0,0,0-.64,1.83v5.08h-1v-8.27h1v1.25a2.7,2.7,0,0,1,2.4-1.47A2.48,2.48,0,0,1,327.81,128Z"/><path class="cls-1" d="M336.81,123.84a.66.66,0,0,1,.24.56.79.79,0,0,1-.26.57.84.84,0,0,1-.56.23.8.8,0,0,1-.82-.8.66.66,0,0,1,.24-.56.75.75,0,0,1,.58-.24A.8.8,0,0,1,336.81,123.84Zm-1.06,2.73h1v8.27h-1Z"/><path class="cls-1" d="M345.32,128.89h-.95a1.92,1.92,0,0,0-.68-1.26,2.67,2.67,0,0,0-1.68-.45,2.63,2.63,0,0,0-1.49.37,1.13,1.13,0,0,0-.58,1,1.15,1.15,0,0,0,.74,1,10.89,10.89,0,0,0,1.74.57,8.74,8.74,0,0,1,2.15.77,1.88,1.88,0,0,1,1,1.67c0,1.67-1.12,2.51-3.36,2.51s-3.28-.95-3.47-2.83h.94a2.24,2.24,0,0,0,.77,1.56,2.84,2.84,0,0,0,1.73.44c1.6,0,2.4-.55,2.4-1.64a1.26,1.26,0,0,0-.82-1.15,10.6,10.6,0,0,0-1.84-.57,8.09,8.09,0,0,1-2-.74,1.74,1.74,0,0,1-.94-1.58,1.87,1.87,0,0,1,.9-1.62,3.73,3.73,0,0,1,2.17-.59C344,126.35,345.08,127.2,345.32,128.89Z"/><path class="cls-1" d="M353.38,127.68a5.78,5.78,0,0,1,.95,3.31h-6.72a3.85,3.85,0,0,0,.81,2.38,2.6,2.6,0,0,0,2.05.87,2.73,2.73,0,0,0,1.82-.6,3,3,0,0,0,.88-1.45h1a3.92,3.92,0,0,1-1.1,2,3.76,3.76,0,0,1-2.58.91,3.51,3.51,0,0,1-2.78-1.19,4.54,4.54,0,0,1-1.08-3.18,4.61,4.61,0,0,1,1-3.06,3.44,3.44,0,0,1,2.8-1.29A3.4,3.4,0,0,1,353.38,127.68Zm-4.89.35a3.61,3.61,0,0,0-.87,2.17h5.7c-.16-2-1.12-3-2.87-3A2.45,2.45,0,0,0,348.49,128Z"/><path class="cls-1" d="M367.73,127.66a5.11,5.11,0,0,1,0,6.1,3.92,3.92,0,0,1-5.85,0,4.68,4.68,0,0,1-1-3,4.6,4.6,0,0,1,1-3.06,3.59,3.59,0,0,1,2.92-1.31A3.63,3.63,0,0,1,367.73,127.66Zm-5.15.61a4.44,4.44,0,0,0,0,4.88,2.84,2.84,0,0,0,4.47,0,4,4,0,0,0,.73-2.43,3.94,3.94,0,0,0-.73-2.45,2.84,2.84,0,0,0-4.47,0Z"/><path class="cls-1" d="M375.27,123.42v.85h-1.39a1.14,1.14,0,0,0-.91.32,1.41,1.41,0,0,0-.29,1v1h2.48v.83h-2.48v7.44h-1V127.4h-2.21v-.83h2.21v-1a2.2,2.2,0,0,1,.51-1.59,2,2,0,0,1,1.57-.59Z"/><path class="cls-1" d="M69.31,155.07a3.09,3.09,0,0,1,1.13,2.21h-1a2.3,2.3,0,0,0-.83-1.57,2.77,2.77,0,0,0-1.76-.53,2.49,2.49,0,0,0-2.08,1,4.79,4.79,0,0,0,0,5.1,2.48,2.48,0,0,0,2.1,1,2.44,2.44,0,0,0,2.65-2.36h1a3.8,3.8,0,0,1-1.19,2.39,3.58,3.58,0,0,1-2.41.8A3.46,3.46,0,0,1,64,161.82a4.65,4.65,0,0,1-1-3.06,4.81,4.81,0,0,1,1-3.1,3.4,3.4,0,0,1,2.83-1.31A3.85,3.85,0,0,1,69.31,155.07Z"/><path class="cls-1" d="M78.56,155.66a5.15,5.15,0,0,1,0,6.1,3.93,3.93,0,0,1-5.86,0,4.68,4.68,0,0,1-1-3,4.55,4.55,0,0,1,1-3.06,3.56,3.56,0,0,1,2.91-1.31A3.67,3.67,0,0,1,78.56,155.66Zm-5.16.61a4.44,4.44,0,0,0,0,4.88,2.84,2.84,0,0,0,4.47,0,4,4,0,0,0,.73-2.43,3.94,3.94,0,0,0-.73-2.45,2.84,2.84,0,0,0-4.47,0Z"/><path class="cls-1" d="M87.21,156a3.27,3.27,0,0,1,1.11-1.26,2.53,2.53,0,0,1,1.5-.43,2.73,2.73,0,0,1,2.08.81,3.3,3.3,0,0,1,.75,2.28v5.4h-1v-5.28a2.72,2.72,0,0,0-.48-1.76,2.06,2.06,0,0,0-1.65-.62,1.88,1.88,0,0,0-1.5.69,2.4,2.4,0,0,0-.61,1.71v5.26h-1v-5.28c0-1.59-.69-2.38-2.07-2.38a1.9,1.9,0,0,0-1.55.75,2.67,2.67,0,0,0-.64,1.83v5.08h-1v-8.27h1v1.25a2.7,2.7,0,0,1,2.4-1.47A2.49,2.49,0,0,1,87.21,156Z"/><path class="cls-1" d="M101.28,155.68a5.56,5.56,0,0,1,0,6.08,3.33,3.33,0,0,1-2.77,1.31,3,3,0,0,1-2.89-1.95V166h-1V154.57h.91v1.63a3,3,0,0,1,2.91-1.85A3.34,3.34,0,0,1,101.28,155.68Zm-5,.54a4,4,0,0,0-.69,2.45v.17a3.86,3.86,0,0,0,.74,2.45,2.43,2.43,0,0,0,2,1,2.57,2.57,0,0,0,2.17-1,4.21,4.21,0,0,0,.68-2.5,4.26,4.26,0,0,0-.66-2.49,2.49,2.49,0,0,0-2.16-1.08A2.44,2.44,0,0,0,96.28,156.22Z"/><path class="cls-1" d="M104.19,151.2h1v11.64h-1Z"/><path class="cls-1" d="M109,151.84a.66.66,0,0,1,.24.56.78.78,0,0,1-.25.57.84.84,0,0,1-.56.23.8.8,0,0,1-.82-.8.66.66,0,0,1,.24-.56.75.75,0,0,1,.58-.24A.78.78,0,0,1,109,151.84Zm-1,2.73h1v8.27h-1Z"/><path class="cls-1" d="M117.48,155.29a3.23,3.23,0,0,1,.74,2.23v5.32h-.91v-1.58a4.33,4.33,0,0,1-1.35,1.23,4.11,4.11,0,0,1-2.16.58,3,3,0,0,1-2-.63,2.12,2.12,0,0,1-.75-1.71,2.44,2.44,0,0,1,1.3-2.3,5.51,5.51,0,0,1,2.77-.59l2.11,0v-.3a2.11,2.11,0,0,0-2.4-2.36,2.84,2.84,0,0,0-1.73.47,2,2,0,0,0-.85,1.44h-.94a2.9,2.9,0,0,1,1.17-2.08,4,4,0,0,1,2.4-.64A3.24,3.24,0,0,1,117.48,155.29Zm-.22,3.31-2.07,0c-2.09,0-3.13.71-3.13,2.1a1.37,1.37,0,0,0,.53,1.12,2.15,2.15,0,0,0,1.4.43,3.43,3.43,0,0,0,2.31-.87,2.43,2.43,0,0,0,1-1.84Z"/><path class="cls-1" d="M127,157.76v5.08h-1v-5c0-1.76-.78-2.64-2.35-2.64a2.18,2.18,0,0,0-1.66.72,3,3,0,0,0-.79,1.95v5h-1v-8.27h1v1.36a3.49,3.49,0,0,1,1.12-1.17,3,3,0,0,1,1.57-.41C125.93,154.35,127,155.48,127,157.76Z"/><path class="cls-1" d="M134.87,155.07a3.13,3.13,0,0,1,1.14,2.21h-1a2.34,2.34,0,0,0-.83-1.57,2.79,2.79,0,0,0-1.76-.53,2.47,2.47,0,0,0-2.08,1,4.79,4.79,0,0,0,0,5.1,2.71,2.71,0,0,0,4.75-1.41H136a3.79,3.79,0,0,1-1.18,2.39,3.6,3.6,0,0,1-2.42.8,3.48,3.48,0,0,1-2.85-1.25,4.64,4.64,0,0,1-.94-3.06,4.81,4.81,0,0,1,1-3.1,3.39,3.39,0,0,1,2.83-1.31A3.8,3.8,0,0,1,134.87,155.07Z"/><path class="cls-1" d="M143.87,155.68a5.78,5.78,0,0,1,.94,3.31h-6.72a3.8,3.8,0,0,0,.82,2.38,2.58,2.58,0,0,0,2,.87,2.76,2.76,0,0,0,1.83-.6,3.09,3.09,0,0,0,.88-1.45h1a3.92,3.92,0,0,1-1.1,2,3.73,3.73,0,0,1-2.58.91,3.51,3.51,0,0,1-2.78-1.19,4.58,4.58,0,0,1-1.07-3.18,4.65,4.65,0,0,1,1-3.06,3.81,3.81,0,0,1,5.75,0ZM139,156a3.6,3.6,0,0,0-.86,2.17h5.69c-.16-2-1.11-3-2.86-3A2.47,2.47,0,0,0,139,156Z"/><path class="cls-1" d="M157.75,155.29a3.23,3.23,0,0,1,.74,2.23v5.32h-.91v-1.58a4.22,4.22,0,0,1-1.35,1.23,4.11,4.11,0,0,1-2.16.58,2.94,2.94,0,0,1-2-.63,2.09,2.09,0,0,1-.76-1.71,2.45,2.45,0,0,1,1.3-2.3,5.53,5.53,0,0,1,2.77-.59l2.11,0v-.3a2.11,2.11,0,0,0-2.4-2.36,2.84,2.84,0,0,0-1.73.47,2,2,0,0,0-.85,1.44h-.94a2.9,2.9,0,0,1,1.17-2.08,4,4,0,0,1,2.4-.64A3.24,3.24,0,0,1,157.75,155.29Zm-.22,3.31-2.06,0c-2.09,0-3.14.71-3.14,2.1a1.4,1.4,0,0,0,.53,1.12,2.16,2.16,0,0,0,1.41.43,3.42,3.42,0,0,0,2.3-.87,2.43,2.43,0,0,0,1-1.84Z"/><path class="cls-1" d="M166.41,155.07a3.13,3.13,0,0,1,1.14,2.21h-1a2.35,2.35,0,0,0-.84-1.57,2.75,2.75,0,0,0-1.76-.53,2.5,2.5,0,0,0-2.08,1,4.79,4.79,0,0,0,0,5.1,2.48,2.48,0,0,0,2.1,1,2.44,2.44,0,0,0,2.65-2.36h1a3.8,3.8,0,0,1-1.19,2.39,3.56,3.56,0,0,1-2.41.8,3.46,3.46,0,0,1-2.85-1.25,4.64,4.64,0,0,1-.94-3.06,4.81,4.81,0,0,1,1-3.1,3.4,3.4,0,0,1,2.83-1.31A3.83,3.83,0,0,1,166.41,155.07Z"/><path class="cls-1" d="M175,155.07a3.09,3.09,0,0,1,1.13,2.21h-1a2.3,2.3,0,0,0-.83-1.57,2.77,2.77,0,0,0-1.76-.53,2.49,2.49,0,0,0-2.08,1,4.79,4.79,0,0,0,0,5.1,2.48,2.48,0,0,0,2.09,1,2.45,2.45,0,0,0,2.66-2.36h.95a3.8,3.8,0,0,1-1.19,2.39,3.58,3.58,0,0,1-2.42.8,3.45,3.45,0,0,1-2.84-1.25,4.65,4.65,0,0,1-1-3.06,4.81,4.81,0,0,1,1-3.1,3.4,3.4,0,0,1,2.83-1.31A3.85,3.85,0,0,1,175,155.07Z"/><path class="cls-1" d="M184.27,155.66a5.15,5.15,0,0,1,0,6.1,3.93,3.93,0,0,1-5.86,0,4.68,4.68,0,0,1-1-3,4.55,4.55,0,0,1,1-3.06,3.56,3.56,0,0,1,2.91-1.31A3.67,3.67,0,0,1,184.27,155.66Zm-5.16.61a4.44,4.44,0,0,0,0,4.88,2.84,2.84,0,0,0,4.47,0,4,4,0,0,0,.73-2.43,3.94,3.94,0,0,0-.73-2.45,2.84,2.84,0,0,0-4.47,0Z"/><path class="cls-1" d="M191.64,154.52v1a4.31,4.31,0,0,0-1.26-.18,2,2,0,0,0-1.8,1,3.57,3.57,0,0,0-.65,2.16v4.36h-1v-8.27h1v1.59a3,3,0,0,1,.91-1.24,2.39,2.39,0,0,1,1.6-.57A3.48,3.48,0,0,1,191.64,154.52Z"/><path class="cls-1" d="M199,151.2h1v11.64H199v-1.63a3,3,0,0,1-2.9,1.86,3.37,3.37,0,0,1-2.8-1.31,4.9,4.9,0,0,1-.91-3.06,4.82,4.82,0,0,1,.91-3,3.23,3.23,0,0,1,2.75-1.33,3,3,0,0,1,2.9,2Zm-4.9,5a4,4,0,0,0-.68,2.48,4.23,4.23,0,0,0,.67,2.5,2.49,2.49,0,0,0,2.16,1.05,2.45,2.45,0,0,0,2.09-1,4,4,0,0,0,.69-2.4v-.19a3.93,3.93,0,0,0-.74-2.48,2.4,2.4,0,0,0-2-1A2.55,2.55,0,0,0,194.07,156.22Z"/><path class="cls-1" d="M203.48,151.84a.66.66,0,0,1,.24.56.76.76,0,0,1-.26.57.82.82,0,0,1-.56.23.8.8,0,0,1-.81-.8.66.66,0,0,1,.24-.56.75.75,0,0,1,.57-.24A.78.78,0,0,1,203.48,151.84Zm-1.06,2.73h1v8.27h-1Z"/><path class="cls-1" d="M212.6,157.76v5.08h-1v-5c0-1.76-.78-2.64-2.35-2.64a2.2,2.2,0,0,0-1.67.72,2.9,2.9,0,0,0-.78,1.95v5h-1v-8.27h1v1.36a3.4,3.4,0,0,1,1.12-1.17,3,3,0,0,1,1.57-.41C211.58,154.35,212.6,155.48,212.6,157.76Z"/><path class="cls-1" d="M221,156.24v-1.67h1v7.67c0,2.66-1.23,4-3.71,4a4,4,0,0,1-2.51-.71,3,3,0,0,1-1.06-2h1a2.14,2.14,0,0,0,.77,1.37,2.84,2.84,0,0,0,1.84.52c1.84,0,2.75-1,2.75-3.09v-1.59a3.06,3.06,0,0,1-3,1.89,3.42,3.42,0,0,1-2.76-1.23,4.89,4.89,0,0,1,0-5.82,3.38,3.38,0,0,1,2.76-1.25A3.06,3.06,0,0,1,221,156.24Zm-5-.08a3.57,3.57,0,0,0-.74,2.35,3.66,3.66,0,0,0,.69,2.3,2.54,2.54,0,0,0,2.16,1,2.58,2.58,0,0,0,2.14-1,4.2,4.2,0,0,0,0-4.7,2.76,2.76,0,0,0-4.25,0Z"/><path class="cls-1" d="M231.29,151.9v2.67h2.16v.83h-2.16V161a1.26,1.26,0,0,0,.19.79.93.93,0,0,0,.72.22h1v.83h-1.17a1.68,1.68,0,0,1-1.37-.49,2,2,0,0,1-.37-1.35v-5.6h-1.76v-.83h1.76V152.3Z"/><path class="cls-1" d="M241.45,155.66a5.11,5.11,0,0,1,0,6.1,3.93,3.93,0,0,1-5.86,0,4.68,4.68,0,0,1-1-3,4.6,4.6,0,0,1,1-3.06,3.56,3.56,0,0,1,2.91-1.31A3.65,3.65,0,0,1,241.45,155.66Zm-5.15.61a4.39,4.39,0,0,0,0,4.88,2.83,2.83,0,0,0,4.46,0,4,4,0,0,0,.74-2.43,3.94,3.94,0,0,0-.74-2.45,2.83,2.83,0,0,0-4.46,0Z"/><path class="cls-1" d="M251.48,151.9v2.67h2.16v.83h-2.16V161a1.26,1.26,0,0,0,.19.79.93.93,0,0,0,.72.22h1v.83h-1.17a1.68,1.68,0,0,1-1.37-.49,2,2,0,0,1-.37-1.35v-5.6h-1.76v-.83h1.76V152.3Z"/><path class="cls-1" d="M255.1,151.2h1v4.88a3.18,3.18,0,0,1,1.15-1.3,2.94,2.94,0,0,1,1.57-.43,2.9,2.9,0,0,1,2.21.83,3.36,3.36,0,0,1,.8,2.38v5.28h-1v-5.15a2.7,2.7,0,0,0-.61-1.87,2.26,2.26,0,0,0-1.71-.64,2.23,2.23,0,0,0-1.74.83,3,3,0,0,0-.71,2.05v4.78h-1Z"/><path class="cls-1" d="M270.1,155.68a5.78,5.78,0,0,1,.95,3.31h-6.72a3.85,3.85,0,0,0,.81,2.38,2.62,2.62,0,0,0,2.05.87,2.76,2.76,0,0,0,1.83-.6,3.17,3.17,0,0,0,.88-1.45h1a3.92,3.92,0,0,1-1.1,2,3.73,3.73,0,0,1-2.58.91,3.51,3.51,0,0,1-2.78-1.19,4.53,4.53,0,0,1-1.07-3.18,4.65,4.65,0,0,1,1-3.06,3.44,3.44,0,0,1,2.8-1.29A3.4,3.4,0,0,1,270.1,155.68Zm-4.89.35a3.67,3.67,0,0,0-.87,2.17H270c-.16-2-1.12-3-2.86-3A2.45,2.45,0,0,0,265.21,156Z"/><path class="cls-1" d="M282.58,154.52v1a4.26,4.26,0,0,0-1.26-.18,2,2,0,0,0-1.79,1,3.51,3.51,0,0,0-.66,2.16v4.36h-1v-8.27h1v1.59a3.11,3.11,0,0,1,.91-1.24,2.39,2.39,0,0,1,1.6-.57A3.4,3.4,0,0,1,282.58,154.52Z"/><path class="cls-1" d="M290,155.68a5.71,5.71,0,0,1,.94,3.31h-6.72a3.92,3.92,0,0,0,.82,2.38,2.59,2.59,0,0,0,2.05.87,2.75,2.75,0,0,0,1.82-.6,3.09,3.09,0,0,0,.88-1.45h1a3.86,3.86,0,0,1-1.11,2,3.72,3.72,0,0,1-2.57.91,3.53,3.53,0,0,1-2.79-1.19,5.16,5.16,0,0,1,0-6.24,3.8,3.8,0,0,1,5.74,0Zm-4.9.35a3.6,3.6,0,0,0-.86,2.17h5.7c-.16-2-1.12-3-2.87-3A2.47,2.47,0,0,0,285.06,156Z"/><path class="cls-1" d="M298.73,156.2v-1.63h.91V166h-1v-4.89a3,3,0,0,1-2.9,1.95,3.24,3.24,0,0,1-2.75-1.31,4.85,4.85,0,0,1-.91-3,4.78,4.78,0,0,1,.93-3,3.26,3.26,0,0,1,2.78-1.33A3,3,0,0,1,298.73,156.2Zm-5,0a4.16,4.16,0,0,0-.66,2.49,4.1,4.1,0,0,0,.69,2.5,2.49,2.49,0,0,0,2.16,1,2.41,2.41,0,0,0,2-1,3.94,3.94,0,0,0,.73-2.45v-.17a4.1,4.1,0,0,0-.69-2.45,2.64,2.64,0,0,0-4.25,0Z"/><path class="cls-1" d="M301.65,154.57h1v5.06a2.92,2.92,0,0,0,.55,1.93,2.21,2.21,0,0,0,1.78.68,2.3,2.3,0,0,0,1.67-.74,2.85,2.85,0,0,0,.82-1.9v-5h1v8.27h-1v-1.39a3,3,0,0,1-2.75,1.62q-3,0-3-3.39Z"/><path class="cls-1" d="M311.94,151.84a.66.66,0,0,1,.24.56.78.78,0,0,1-.25.57.84.84,0,0,1-.56.23.8.8,0,0,1-.82-.8.66.66,0,0,1,.24-.56.75.75,0,0,1,.58-.24A.78.78,0,0,1,311.94,151.84Zm-1.05,2.73h1v8.27h-1Z"/><path class="cls-1" d="M319,154.52v1a4.26,4.26,0,0,0-1.26-.18,2,2,0,0,0-1.79,1,3.51,3.51,0,0,0-.66,2.16v4.36h-1v-8.27h1v1.59a3.11,3.11,0,0,1,.91-1.24,2.42,2.42,0,0,1,1.61-.57A3.37,3.37,0,0,1,319,154.52Z"/><path class="cls-1" d="M326.39,155.68a5.71,5.71,0,0,1,.94,3.31h-6.72a3.92,3.92,0,0,0,.82,2.38,2.59,2.59,0,0,0,2.05.87,2.75,2.75,0,0,0,1.82-.6,3,3,0,0,0,.88-1.45h1a3.86,3.86,0,0,1-1.11,2,3.72,3.72,0,0,1-2.57.91,3.55,3.55,0,0,1-2.79-1.19,5.16,5.16,0,0,1,0-6.24,3.8,3.8,0,0,1,5.74,0Zm-4.9.35a3.6,3.6,0,0,0-.86,2.17h5.7c-.16-2-1.12-3-2.87-3A2.48,2.48,0,0,0,321.49,156Z"/><path class="cls-1" d="M334.82,156a3.27,3.27,0,0,1,1.11-1.26,2.53,2.53,0,0,1,1.5-.43,2.73,2.73,0,0,1,2.08.81,3.3,3.3,0,0,1,.75,2.28v5.4h-1v-5.28a2.72,2.72,0,0,0-.48-1.76,2.06,2.06,0,0,0-1.65-.62,1.91,1.91,0,0,0-1.5.69,2.4,2.4,0,0,0-.61,1.71v5.26h-1v-5.28c0-1.59-.69-2.38-2.07-2.38a1.91,1.91,0,0,0-1.55.75,2.67,2.67,0,0,0-.64,1.83v5.08h-1v-8.27h1v1.25a2.7,2.7,0,0,1,2.4-1.47A2.48,2.48,0,0,1,334.82,156Z"/><path class="cls-1" d="M348.57,155.68a5.78,5.78,0,0,1,.94,3.31h-6.72a3.86,3.86,0,0,0,.82,2.38,2.58,2.58,0,0,0,2,.87,2.76,2.76,0,0,0,1.83-.6,3.17,3.17,0,0,0,.88-1.45h1a3.92,3.92,0,0,1-1.1,2,3.73,3.73,0,0,1-2.58.91,3.51,3.51,0,0,1-2.78-1.19,4.53,4.53,0,0,1-1.07-3.18,4.65,4.65,0,0,1,1-3.06,3.81,3.81,0,0,1,5.75,0Zm-4.9.35a3.6,3.6,0,0,0-.86,2.17h5.69c-.16-2-1.11-3-2.86-3A2.47,2.47,0,0,0,343.67,156Z"/><path class="cls-1" d="M357.77,157.76v5.08h-1v-5c0-1.76-.79-2.64-2.36-2.64a2.18,2.18,0,0,0-1.66.72,2.9,2.9,0,0,0-.78,1.95v5h-1v-8.27h1v1.36a3.31,3.31,0,0,1,1.12-1.17,3,3,0,0,1,1.56-.41C356.74,154.35,357.77,155.48,357.77,157.76Z"/><path class="cls-1" d="M361.78,151.9v2.67h2.16v.83h-2.16V161a1.33,1.33,0,0,0,.19.79.93.93,0,0,0,.72.22h1v.83h-1.16a1.72,1.72,0,0,1-1.38-.49,2,2,0,0,1-.37-1.35v-5.6h-1.76v-.83h1.76V152.3Z"/><path class="cls-1" d="M371.51,156.89h-.94a2,2,0,0,0-.69-1.26,2.67,2.67,0,0,0-1.68-.45,2.63,2.63,0,0,0-1.49.37,1.09,1.09,0,0,0,.16,2,10.89,10.89,0,0,0,1.74.57,8.74,8.74,0,0,1,2.15.77,1.88,1.88,0,0,1,1,1.67c0,1.67-1.12,2.51-3.36,2.51s-3.28-.95-3.47-2.83h.94a2.24,2.24,0,0,0,.77,1.56,2.84,2.84,0,0,0,1.73.44c1.6,0,2.4-.55,2.4-1.64a1.25,1.25,0,0,0-.82-1.15,10.6,10.6,0,0,0-1.84-.57,7.83,7.83,0,0,1-2-.74,1.75,1.75,0,0,1-.95-1.58,1.87,1.87,0,0,1,.9-1.62,3.73,3.73,0,0,1,2.17-.59C370.18,154.35,371.28,155.2,371.51,156.89Z"/><path class="cls-1" d="M181.61,183.66a5.11,5.11,0,0,1,0,6.1,3.93,3.93,0,0,1-5.86,0,4.68,4.68,0,0,1-1-3,4.6,4.6,0,0,1,1-3.06,3.56,3.56,0,0,1,2.91-1.31A3.65,3.65,0,0,1,181.61,183.66Zm-5.15.61a4.39,4.39,0,0,0,0,4.88,2.83,2.83,0,0,0,4.46,0,4,4,0,0,0,.74-2.43,3.94,3.94,0,0,0-.74-2.45,2.83,2.83,0,0,0-4.46,0Z"/><path class="cls-1" d="M189.14,179.42v.85h-1.39a1.15,1.15,0,0,0-.91.32,1.46,1.46,0,0,0-.29,1v1H189v.83h-2.48v7.44h-1V183.4h-2.21v-.83h2.21v-1a2.2,2.2,0,0,1,.51-1.59,2,2,0,0,1,1.57-.59Z"/><path class="cls-1" d="M197.56,179.9v2.67h2.16v.83h-2.16V189a1.26,1.26,0,0,0,.19.79.93.93,0,0,0,.72.22h1v.83h-1.17a1.69,1.69,0,0,1-1.37-.49,2,2,0,0,1-.37-1.35v-5.6h-1.76v-.83h1.76V180.3Z"/><path class="cls-1" d="M201.18,179.2h1v4.88a3.13,3.13,0,0,1,1.16-1.3,3.23,3.23,0,0,1,3.77.4,3.36,3.36,0,0,1,.8,2.38v5.28h-1v-5.15a2.7,2.7,0,0,0-.61-1.87,2.4,2.4,0,0,0-3.45.19,3,3,0,0,0-.71,2.05v4.78h-1Z"/><path class="cls-1" d="M216.18,183.68a5.71,5.71,0,0,1,.95,3.31h-6.72a3.85,3.85,0,0,0,.81,2.38,2.62,2.62,0,0,0,2.05.87,2.76,2.76,0,0,0,1.83-.6,3.17,3.17,0,0,0,.88-1.45h1a3.92,3.92,0,0,1-1.1,2,3.73,3.73,0,0,1-2.58.91,3.51,3.51,0,0,1-2.78-1.19,4.53,4.53,0,0,1-1.07-3.18,4.65,4.65,0,0,1,1-3.06,3.44,3.44,0,0,1,2.8-1.29A3.4,3.4,0,0,1,216.18,183.68Zm-4.89.35a3.67,3.67,0,0,0-.87,2.17h5.7c-.16-2-1.11-3-2.86-3A2.45,2.45,0,0,0,211.29,184Z"/><path class="cls-1" d="M229.9,183.07a3.13,3.13,0,0,1,1.13,2.21h-1a2.3,2.3,0,0,0-.83-1.57,2.77,2.77,0,0,0-1.76-.53,2.49,2.49,0,0,0-2.08,1,4.79,4.79,0,0,0,0,5.1,2.48,2.48,0,0,0,2.09,1,2.45,2.45,0,0,0,2.66-2.36h.94a3.79,3.79,0,0,1-1.18,2.39,3.58,3.58,0,0,1-2.42.8,3.45,3.45,0,0,1-2.84-1.25,4.65,4.65,0,0,1-1-3.06,4.81,4.81,0,0,1,1-3.1,3.39,3.39,0,0,1,2.83-1.31A3.85,3.85,0,0,1,229.9,183.07Z"/><path class="cls-1" d="M232.6,179.2h1v4.88a3.11,3.11,0,0,1,1.15-1.3,3.23,3.23,0,0,1,3.77.4,3.31,3.31,0,0,1,.8,2.38v5.28h-1v-5.15a2.75,2.75,0,0,0-.6-1.87,2.29,2.29,0,0,0-1.72-.64,2.23,2.23,0,0,0-1.74.83,3,3,0,0,0-.7,2.05v4.78h-1Z"/><path class="cls-1" d="M247.4,183.29a3.23,3.23,0,0,1,.74,2.23v5.32h-.92v-1.58a4.29,4.29,0,0,1-1.34,1.23,4.11,4.11,0,0,1-2.16.58,3,3,0,0,1-2-.63,2.12,2.12,0,0,1-.75-1.71,2.44,2.44,0,0,1,1.3-2.3,5.49,5.49,0,0,1,2.76-.59l2.12,0v-.3a2.11,2.11,0,0,0-2.4-2.36,2.82,2.82,0,0,0-1.73.47,2,2,0,0,0-.85,1.44h-.94a2.86,2.86,0,0,1,1.16-2.08,4,4,0,0,1,2.4-.64A3.25,3.25,0,0,1,247.4,183.29Zm-.22,3.31-2.07,0c-2.09,0-3.13.71-3.13,2.1a1.39,1.39,0,0,0,.52,1.12,2.2,2.2,0,0,0,1.41.43,3.45,3.45,0,0,0,2.31-.87,2.43,2.43,0,0,0,1-1.84Z"/><path class="cls-1" d="M251.69,179.84a.66.66,0,0,1,.24.56.79.79,0,0,1-.26.57.84.84,0,0,1-.56.23.76.76,0,0,1-.57-.23.78.78,0,0,1-.24-.57.66.66,0,0,1,.24-.56.73.73,0,0,1,.57-.24A.78.78,0,0,1,251.69,179.84Zm-1.06,2.73h1v8.27h-1Z"/><path class="cls-1" d="M260.81,185.76v5.08h-1v-5c0-1.76-.79-2.64-2.35-2.64a2.19,2.19,0,0,0-1.67.72,2.9,2.9,0,0,0-.78,1.95v5h-1v-8.27h1v1.36a3.4,3.4,0,0,1,1.12-1.17,3,3,0,0,1,1.57-.41C259.78,182.35,260.81,183.48,260.81,185.76Z"/><path class="cls-1" d="M264.46,189.47a.75.75,0,0,1,.24.57.8.8,0,0,1-.26.58.83.83,0,0,1-.56.22.82.82,0,0,1-.82-.8.72.72,0,0,1,.24-.57.75.75,0,0,1,.58-.23A.8.8,0,0,1,264.46,189.47Z"/></svg>