<svg id="图层_1" data-name="图层 1" xmlns="http://www.w3.org/2000/svg" viewBox="0 0 500 640"><defs><style>.cls-1{fill:#e3625a;}.cls-2{fill:#fff;}.cls-3{fill:#33353c;}.cls-4{fill:#c1c1c1;}</style></defs><title>中文</title><rect class="cls-1" x="37.22" y="112.95" width="22.33" height="22.33" transform="translate(-73.59 70.57) rotate(-45)"/><rect class="cls-2" x="48.39" y="33.45" width="406.7" height="593"/><rect class="cls-1" x="32.64" y="13.55" width="434.77" height="110.56"/><path class="cls-2" d="M176.52,57.64a29.83,29.83,0,0,1-6.34,9.45l-2.6-3.32q5.67-6,7.68-16.13l4.08.72c-.42,1.93-.89,3.74-1.39,5.42h7.81V46.72h4v7.06h13.48v3.86H189.75v8.69h12.64V70.2H189.75v9.57h16.17v4H168.67v-4h17.09V70.2h-12V66.33h12V57.64Z"/><path class="cls-2" d="M231,46.38a31.21,31.21,0,0,1-.71,4.08h15.83v3.82H233.26q3,6.3,15,10l-2.1,3.45q-13.86-5-16.93-13.4h-.17a22.49,22.49,0,0,1-3.61,6.09l-.12.13a71.92,71.92,0,0,1,5.79,4.7L228.35,68a59.65,59.65,0,0,0-5.63-5.16,36.53,36.53,0,0,1-11.67,5l-1.56-3.69q8.77-2.19,12.68-6.3a15.56,15.56,0,0,0,2.48-3.53H211.59V50.46h14.53A26.84,26.84,0,0,0,227,46ZM217.47,71.71a43.52,43.52,0,0,1-4.16,11.34l-3.44-2.14a35.63,35.63,0,0,0,3.7-10.08Zm6.81,12.56c-3.06,0-4.58-1.6-4.58-4.79V70.7h4v8c0,1.15.6,1.72,1.81,1.72h8.65a1.78,1.78,0,0,0,1.59-.75c.42-.48.72-2,.89-4.58l3.78,1.22q-.51,5.79-1.85,6.89a5.39,5.39,0,0,1-3.66,1.09Zm6.13-15a38.19,38.19,0,0,1,3.82,6.89l-3.65,1.64a47.54,47.54,0,0,0-3.66-7.39Zm12.64.93a64.55,64.55,0,0,1,5.17,10l-3.66,1.64a63.33,63.33,0,0,0-5.33-10.42Z"/><path class="cls-2" d="M272.49,46.3a60.3,60.3,0,0,0,18.23,14.11l-2.14,3.82a60.49,60.49,0,0,1-6.51-4v3H260V60.12a68.52,68.52,0,0,1-6.68,4.2l-2.1-3.87A60.73,60.73,0,0,0,269.55,46.3Zm12.22,21.38V85.11h-3.86V82.84H261.19v2.27h-3.86V67.68Zm-3.78-8.32A57.74,57.74,0,0,1,271,49.91a54.91,54.91,0,0,1-10,9.45Zm-19.74,19.7h19.66V71.42H261.19Z"/><path class="cls-2" d="M298.45,62.81c-1.09,1.31-2.37,2.73-3.82,4.24l-1.35-4.29a45.3,45.3,0,0,0,9.58-16.59l3.78,1.77A49.38,49.38,0,0,1,302.48,57V85.23h-4Zm14.32-6.93a50.66,50.66,0,0,1-6.51,10.45l-2.86-3.44q5.25-6.14,8.91-16.84l4,.88q-.75,2.31-1.85,5H331.8v3.91H318.31v6h11.81v3.87H318.31v6.17H330.2v3.82H318.31v9.49h-4V55.88Z"/><path class="cls-3" d="M114.16,263.42l2.1.24-1,2.5h8.62V268a17,17,0,0,1-4.83,7.24,60,60,0,0,1,6,3l-1.2,1.73a64.59,64.59,0,0,0-6.57-3.3,32.15,32.15,0,0,1-10.1,4.67l-1.09-1.85a32,32,0,0,0,9-3.82c-1.72-.75-3.66-1.53-5.84-2.34a58.77,58.77,0,0,0,2.9-5.19h-5.11v-2h6Zm-7-10.79h8v-7.85h2v7.85h7.61v2h-7.61v.49a77.62,77.62,0,0,1,6.93,4.26L123,261.08q-3.3-2.68-5.76-4.34v5.79h-2V254.6h-.12a18.31,18.31,0,0,1-7.45,8.46l-1.13-1.81q5.11-2.91,6.93-6.65h-6.2Zm2.66-6.92a28.13,28.13,0,0,1,2.61,5l-1.73.76a38.57,38.57,0,0,0-2.73-5.19Zm12,22.42h-7.4a38.43,38.43,0,0,1-2.42,4.31,50.23,50.23,0,0,1,5,1.93A17.45,17.45,0,0,0,121.81,268.13Zm2.5-21.94a25.6,25.6,0,0,1-3.14,5.35l-1.65-.84a30.17,30.17,0,0,0,3-5.35ZM128.94,259a40.3,40.3,0,0,1-2.66,5.76l-1.37-1.69q3.66-6.84,5-18.52l2.18.4q-.41,3.15-1,6.12h10.95v2.14H139.2q-.24,10.42-3.66,17.63a25.34,25.34,0,0,0,7.69,8.61L142,281.33a26.44,26.44,0,0,1-7.53-8.45,27,27,0,0,1-7.69,8.53l-1.21-1.85a24.85,24.85,0,0,0,7.69-8.81A54.12,54.12,0,0,1,128.94,259Zm1.69-5.79c-.27,1.07-.49,1.86-.65,2.37a57,57,0,0,0,4.31,12.92,41.92,41.92,0,0,0,2.82-15.29Z"/><path class="cls-3" d="M154,256.09h21.37v2a79.79,79.79,0,0,1-9.06,5.51v3.3h16.14V269H166.33v9.25c0,2-1,3-3.1,3h-4.91l-.56-2.05c1.93.05,3.5.08,4.71.08a1.55,1.55,0,0,0,1.73-1.77V269H147.09v-2.1H164.2v-4.27a84.58,84.58,0,0,0,8-4.54H154Zm27.65-7v8.61h-2.21v-6.52H150.07v6.52h-2.21v-8.61H164a23.6,23.6,0,0,0-1.81-4.23l2.41-.4a40.23,40.23,0,0,1,1.77,4.63Z"/><path class="cls-3" d="M188.23,267.28h5v-19h8.09a18.74,18.74,0,0,0,1.25-3.9l2.3.32a17.3,17.3,0,0,1-1.33,3.58h12v18.12a25,25,0,0,0,5.16-7.89l1.89,1.13a37.24,37.24,0,0,1-7.05,9.58v8.93q0,3.18-3.22,3.18h-4l-.57-2.13,3.87.12c1.18,0,1.77-.54,1.77-1.61v-6.6c-1,.78-2,1.51-3.06,2.21q-8.09,4.83-20.81,7.13l-1-2q15.78-2.85,22.79-8.21l1.12-.92H188.23Zm25.2-12.6v-4.34h-18v4.34Zm-18,1.9v4.18h18v-4.18Zm0,6.11v4.59h18v-4.59Z"/><path class="cls-3" d="M238.47,245.47a54.31,54.31,0,0,1-4.15,9.46v26.6h-2.17v-23.1a49.84,49.84,0,0,1-4.87,6l-.69-2.34a46.36,46.36,0,0,0,9.91-17.55Zm9.25.48q-3.78,10.31-9.86,15.78l-1.69-1.49a35,35,0,0,0,9.5-15.1Zm-6.92,16.91v-2.18h17.39q0,12.07-.64,15.18c-.33,3.3-1.88,4.95-4.67,4.95q-1.22,0-4.23-.12l-.52-2.1c2.3.11,3.81.17,4.51.17q2.45,0,2.81-3.63.45-2,.57-12.27h-7.53a39,39,0,0,1-2.9,10.74,22.88,22.88,0,0,1-6.44,7.57l-1.41-1.77a20.47,20.47,0,0,0,5.88-6.72,33.88,33.88,0,0,0,2.74-9.82Zm12.8-18.2a30.13,30.13,0,0,0,10.15,14.73l-1.49,1.73a31.28,31.28,0,0,1-10.55-15.37Z"/><path class="cls-3" d="M282.51,244.7h2.25v12.72h14.89v2.1H284.76v18H303.4v2.13H267.77v-2.13h14.74Z"/><path class="cls-3" d="M317,245.35a62.73,62.73,0,0,1-6.6,13.12q2.9-.29,6.32-.81,2.75-5.15,2.5-4.75l2,.77q-5.72,10.79-9.38,15a64.28,64.28,0,0,0,9.38-2.37v2a68.74,68.74,0,0,1-12,2.74l-.56-2a4.85,4.85,0,0,0,1-.61,49.68,49.68,0,0,0,6-8.73c-2.55.37-5,.69-7.28,1l-.57-2a2.25,2.25,0,0,0,.93-.85A63.9,63.9,0,0,0,315,244.5ZM321.67,276a73.58,73.58,0,0,1-13.56,3.82l-.29-2.13a76.75,76.75,0,0,0,13.85-3.74Zm19.48-24,.33,2.09-10.59,1.49q.12,3.5.4,6.08L342.24,260l.32,2.09-11,1.77c.08.65.23,1.56.45,2.74a32.34,32.34,0,0,0,1.61,5.8,37.42,37.42,0,0,0,6.32-7.37l1.77,1.13a42.76,42.76,0,0,1-7.25,8.25c.32.64.58,1.11.77,1.41q2.06,3,3.78,3t2.94-7l1.89,1.21c-1.05,5.42-2.57,8.13-4.59,8.13s-3.66-1.29-5.35-3.7c-.32-.46-.69-1-1.09-1.73a31.15,31.15,0,0,1-9.86,5.07L321.63,279a33.11,33.11,0,0,0,10.23-5.28,30.53,30.53,0,0,1-1.9-6.15c-.16-.75-.35-1.91-.56-3.47l-7.53,1.21-.32-2.09,7.57-1.21q-.33-2.78-.4-6.12l-6.16.89-.29-2,6.41-.93V244.7h2.17v8.82Zm-5.87-7.37a45.31,45.31,0,0,1,5,5.11L338.58,251a42.51,42.51,0,0,0-4.95-5.27Z"/><path class="cls-3" d="M107.28,482.42l-.48-2.09c1.61.1,2.76.16,3.46.16q1.53,0,1.53-1.29V468q-2.46,1-5.07,1.81l-.57-2.17a47,47,0,0,0,5.64-1.77v-9.7h-5.15V454h5.15v-7.81H114V454h4.35v2.14H114V465c1.37-.64,2.65-1.29,3.83-1.93v2.21c-1.91.94-3.18,1.56-3.83,1.85v12.64c0,1.8-1,2.7-2.93,2.7Zm11.51-17.95H141.7v2H131.39v5.19h8.74v2h-8.74v6a43.19,43.19,0,0,0,6.12.4c1.59,0,3.31-.05,5.2-.16L142.1,482c-1.18,0-2.66,0-4.43-.08q-8,0-10.83-1.53c-1.58-.89-3-2.63-4.34-5.24a23.8,23.8,0,0,1-4.35,7.57l-1.61-1.45a21.31,21.31,0,0,0,5.23-12.8l2,.24a23.45,23.45,0,0,1-.6,4.15q2.06,4.51,4.75,5.8c.46.18.91.35,1.37.48V466.48H118.79Zm2.94-16.87H139v13.57H121.73Zm2.13,6h12.93v-4.11H123.86Zm12.93,5.75v-4H123.86v4Z"/><path class="cls-3" d="M164.72,445.87a37.47,37.47,0,0,1,1.37,3.78h16.22v2.1H146.93v-2.1H163.8a23.19,23.19,0,0,0-1.45-3.38Zm7.81,36.83-.52-2,3.26.08c1.83,0,2.74-.72,2.74-2.17V467.08H151.28v15.7h-2.05V465.11h30.83v14q0,3.62-4.11,3.62Zm-18.8-27.85h21.86v7.4H153.73Zm19.77,5.63v-3.86H155.83v3.86ZM157,470.1h15.38v7.77H157Zm13.37,6v-4.27H159v4.27Z"/><path class="cls-3" d="M204.58,451.87a9.17,9.17,0,0,1,3.21,6.76h-2.45a8,8,0,0,0-2.54-5.11,8.59,8.59,0,0,0-5.79-1.73,10.68,10.68,0,0,0-5.48,1.2,4.36,4.36,0,0,0-2.25,4.07c0,1.58.9,2.86,2.69,3.82a42.59,42.59,0,0,0,5.52,1.86,34.52,34.52,0,0,1,7.41,2.73,6.69,6.69,0,0,1,3.58,6,6.84,6.84,0,0,1-3.1,5.88,13.46,13.46,0,0,1-7.85,2.05,12.3,12.3,0,0,1-7.81-2.25q-3.25-2.58-3.62-7.81h2.41a8.75,8.75,0,0,0,2.82,6,9.63,9.63,0,0,0,6.16,1.77,11.61,11.61,0,0,0,6.16-1.49,4.68,4.68,0,0,0,2.33-4.07A5.07,5.07,0,0,0,203,467a31.76,31.76,0,0,0-6.32-2.21,35.19,35.19,0,0,1-6.6-2.3,5.86,5.86,0,0,1-3.3-5.39,6.37,6.37,0,0,1,3.1-5.71,12.53,12.53,0,0,1,7.17-1.86A11.42,11.42,0,0,1,204.58,451.87Z"/><path class="cls-3" d="M212.75,450.14h20.16v2.17H215.2V462.9H232v2.21H215.2V476.7h18.4v2.18H212.75Z"/><path class="cls-3" d="M236.05,450.14H259.6v2.17H249.05v26.57H246.6V452.31H236.05Z"/><path class="cls-3" d="M264.23,456.3a47.16,47.16,0,0,1,6.6,6.07l-1.57,1.57a43.6,43.6,0,0,0-6.6-6.16Zm1-9.54a45.35,45.35,0,0,1,6.49,5.31l-1.57,1.57a37.58,37.58,0,0,0-6.49-5.36Zm5.72,20.85a144.43,144.43,0,0,1-5.27,14.73l-2-.89A136.85,136.85,0,0,0,269,466.84Zm7.61-2.9q-.24,7.82-1.57,11.51a15.11,15.11,0,0,1-4.87,6.56l-1.37-1.73A13.36,13.36,0,0,0,275,475.3q1.17-3.27,1.4-10.59ZM274,460.64c.37-.18.52-.25.44-.2q2.41-1.53,6.28-8h-7.57v-2h11.6a35.8,35.8,0,0,0-2-4.47l2.22-.4a37.22,37.22,0,0,1,2,4.87h10.75v2H283a40.35,40.35,0,0,1-5.52,8q8.42-.53,15.1-1.29-1.33-1.89-3-3.94l1.73-1.13a68.16,68.16,0,0,1,6.2,8.7l-1.81,1.24c-.43-.77-1.06-1.79-1.9-3.06q-8,.9-19.32,1.53Zm9,4.07h2.21V482H283Zm10,17.71c-2,0-3.06-1-3.06-2.9V464.75H292V479.2c0,.75.32,1.15,1,1.21h2a1.44,1.44,0,0,0,1.45-1.25,33.6,33.6,0,0,0,.24-4.83l1.93.72c0,3.33-.22,5.38-.68,6.16s-1.38,1.13-2.86,1.21Z"/><path class="cls-3" d="M302.71,460h17.51v2.17h-9.46q-2.7,9.94-4.71,13.89a59.61,59.61,0,0,0,10.67-3c-1.26-2.6-2.38-4.74-3.34-6.4l1.85-.88a119.2,119.2,0,0,1,5.59,11.31l-1.93,1-1.37-3.18a91.08,91.08,0,0,1-14,3.67L303,476.5a2.08,2.08,0,0,0,.45-.2q1.92-2.54,5.19-14.13h-5.92Zm1.61-10.83h14.33v2.05H304.32Zm22.38-3h2.18v7.49h8.85q0,19.36-.56,24.11-.48,4.59-5,4.59c-.73,0-2,0-3.83-.12l-.52-1.89c2.15.05,3.53.08,4.15.08q2.65,0,3.13-3.3.4-3.51.53-21.38h-6.72v.57q-.17,18.11-8.58,26.56l-1.73-1.53q8-7.8,8.13-25v-.57h-5.31v-2.09h5.31Z"/><path class="cls-3" d="M345.86,453.92a55.45,55.45,0,0,1-1.45,11.47l-1.81-.48a54,54,0,0,0,1.49-11.15Zm2.7-7.73h2.17v36.47h-2.17Zm4.95,6.84a55.79,55.79,0,0,1,2.54,7.09l-1.77.44a51.62,51.62,0,0,0-2.42-7Zm6.44,3.1a32.91,32.91,0,0,1-3.3,8.42L355,463.1a33.06,33.06,0,0,0,3.91-14.61l2,.24a41.69,41.69,0,0,1-.53,5.27h6.53v-7.77h2.21V454h9.06v2.13h-9.06v10.35h8.33v2.13h-8.33V479.4h10.1v2.13H355.12V479.4h11.8V468.61h-9.47v-2.13h9.47V456.13Z"/><path class="cls-3" d="M111,347.21h25.52v17.31H124.91v5.39H141.5V372H124.91v10.11H122.7V372H106.15v-2.13H122.7v-5.39H111Zm2.22,7.69h21.09v-5.6H113.24Zm21.09,7.56v-5.59H113.24v5.59Z"/><path class="cls-3" d="M153.17,374.38a32.87,32.87,0,0,1-5.52,7.57l-1.73-1.21a29.23,29.23,0,0,0,5.44-7.25Zm-3.87-28.9h2.1v4.75H160v-4.67h2.1v4.67h2.69v2h-2.69v17.79H165v2H146.13v-2h3.17V352.28h-2.77v-2h2.77Zm10.67,6.8H151.4V357H160Zm-8.57,11.19H160v-4.55H151.4Zm0,6.6H160v-4.63H151.4Zm7.08,3.54a46.44,46.44,0,0,1,4.55,6.61l-1.81,1.24a51.14,51.14,0,0,0-4.43-6.76Zm11.19-4.75a25.18,25.18,0,0,1-4.87,13.25l-1.69-1.49q4.42-5.88,4.55-15V347.09h12.76v31.19q0,3.47-3.26,3.46h-4.35l-.56-2.09c2,.06,3.43.08,4.19.08,1.18,0,1.77-.74,1.77-2.21v-8.66Zm.21-10v7.29l0,.68h8.38v-8Zm8.33-2v-7.73h-8.33v7.73Z"/><path class="cls-3" d="M193.54,355.34a29.93,29.93,0,0,1-6.12,9.34L186,362.91q5.88-6,7.94-16.47l2.21.45a49,49,0,0,1-1.77,6.35h9.58v-7.52h2.13v7.52h13.57v2.1H206.06v10.1h12.76v2.14H206.06v11H222.2v2.17H186.94v-2.17h17v-11H191.81v-2.14h12.12v-10.1Z"/><path class="cls-3" d="M245.67,345.32a37.28,37.28,0,0,1-.84,4.54h15.82V352H247.28q3,7.13,15.46,11.11L261.57,365q-13.44-4.71-16.46-13h-1a19.92,19.92,0,0,1-3.62,6.24c-.14.16-.35.39-.64.68A57.52,57.52,0,0,1,246,364l-1.48,1.53a66.42,66.42,0,0,0-6.12-5.31q-3.91,2.94-11.36,4.91l-.88-2.05q8.7-2.18,12.6-6.24a17,17,0,0,0,3.06-4.83H228v-2.14h14.49a31.19,31.19,0,0,0,1-4.79Zm-13,24a39,39,0,0,1-4.11,10.78l-1.89-1.16a33.43,33.43,0,0,0,3.87-10.11Zm7.53,11.95q-3.75,0-3.75-3.54v-9h2.18v8.54c0,1.23.75,1.85,2.25,1.85h8.74a2.49,2.49,0,0,0,2-.69c.56-.64.93-2.48,1.09-5.51l2.05.68q-.36,5.36-1.57,6.65a4.29,4.29,0,0,1-3.14,1Zm4.91-13.85a45.28,45.28,0,0,1,3.7,6.89l-2,.92a47.72,47.72,0,0,0-3.66-7.16Zm11.95.81a63.35,63.35,0,0,1,5.16,9.74l-2,.93a60.38,60.38,0,0,0-5.27-10Z"/><path class="cls-3" d="M270.71,380.22v1.93h-2.09v-35.1H301v35.1h-2.09v-1.93Zm28.18-1.9V348.9H270.71v29.42ZM274.17,355h3.95a18.82,18.82,0,0,0-2.1-3.55l1.73-.6A20.49,20.49,0,0,1,280,355H283a38.6,38.6,0,0,0,1-4.79l2,.24a35.29,35.29,0,0,1-1,4.55H289a16.17,16.17,0,0,0,2-4.27l1.77.48A12.91,12.91,0,0,1,291,355h4.39v1.73H284.52c-.38,1-.82,2.05-1.33,3.1h13.44v1.77h-6.28a19.73,19.73,0,0,0,7.49,6.68l-1.21,1.53q-5.75-3.7-8.05-8.21h-6.4a24.74,24.74,0,0,1-2.13,2.9h10.38v4.1c0,1.53-1,2.34-3,2.42q-1.74,0-3.39-.12l-.44-1.61c1.5.1,2.58.16,3.22.16,1.13,0,1.69-.4,1.69-1.21v-2.17h-8.25v7.12c0,.67.43,1,1.29,1h6.84c1.59,0,2.59-.22,3-.65a6.79,6.79,0,0,0,.89-3.06l1.85.57c-.24,2.23-.75,3.62-1.53,4.18a7.36,7.36,0,0,1-3.83.69H281c-1.74,0-2.61-.75-2.61-2.26v-7.4A23.92,23.92,0,0,1,273,370l-1-1.61a20,20,0,0,0,8-6.8h-7v-1.77H281a25.26,25.26,0,0,0,1.45-3.1h-8.29Z"/><path class="cls-3" d="M307.82,381.62l-.44-2.09c1.5.11,2.58.16,3.22.16,1.37,0,2-.72,2-2.17V367a58.36,58.36,0,0,1-5.51,2l-.52-2.09a55.49,55.49,0,0,0,6-2v-9.7h-5.43V353h5.43v-7.6h2.18V353h4v2.14h-4V364c1.23-.56,2.59-1.26,4.06-2.09V364q-2.49,1.33-4.06,2v12c0,2.39-1.16,3.58-3.46,3.58Zm16.71-18a32.54,32.54,0,0,1-5.76,4.15l-1.08-1.69a32.66,32.66,0,0,0,11.91-11.56h1.89q3.58,6.17,12.2,10.87l-1.17,1.77a42.52,42.52,0,0,1-5.67-3.74V365H324.53ZM319.34,349h5.35v-3.34h2.13V349h7.29v-3.34h2.17V349H342v2.05h-5.72v3.42h-2.17v-3.42h-7.29v3.54h-2.13v-3.54h-5.35Zm19.52,20v13.05h-2.05V380H324.45v2.06h-2.13V369Zm-14.41,9h12.36v-7H324.45Zm12.12-14.89a26.39,26.39,0,0,1-6-6.76,34.45,34.45,0,0,1-5.6,6.76Z"/><path class="cls-3" d="M383.46,379l-.4,2.09h-12q-10.71,0-15.33-3.18a10.29,10.29,0,0,1-1.66-1.53,23.49,23.49,0,0,1-5,5.27l-1.4-1.81a18.61,18.61,0,0,0,5-5.19,28.3,28.3,0,0,1-3.91-8.77l1.81-.69a34.27,34.27,0,0,0,3.14,7.61,28.35,28.35,0,0,0,2.66-11.07h-7.53v-1.69a92.19,92.19,0,0,0,6.8-10.23h-7.08v-2.09h9.54v1.81a96.13,96.13,0,0,1-6.4,10.19h6.72v1.36a29.8,29.8,0,0,1-3.34,13.65,9.43,9.43,0,0,0,2.34,2q4.18,2.34,12.68,2.46Q374.29,379.17,383.46,379ZM380,361.62h-8.61v3.7h9.7v1.89h-9.7v4h10.82v1.89H371.43v4.51h-2.18v-4.51h-9.38V371.2h9.38v-4h-8.17v-1.89h8.17v-3.7h-7.32v-1.93h7.32v-3.75H360v-1.85h9.3v-3.78h-7.32v-1.89h7.32v-3.06h2.18v3.06H380v5.67H383v1.85H380Zm-8.61-11.31v3.78H378v-3.78Zm0,5.63v3.75H378v-3.75Z"/><path class="cls-3" d="M132.72,551.52v31.72h-2.17V580.5H108.33v2.74h-2.18V551.52h8.5a19.48,19.48,0,0,0,2.13-5.12l2.21.33a19.45,19.45,0,0,1-2,4.79Zm-24.39,8.77h22.22v-6.68H108.33Zm0,8.82h22.22v-6.73H108.33Zm0,9.29h22.22v-7.2H108.33Z"/><path class="cls-3" d="M148.58,546.64c-.4,3.17-.78,5.79-1.12,7.85H154v1.29a48.34,48.34,0,0,1-3.59,16.67q2.82,2.65,4.43,4.47l-1.45,1.69a52.56,52.56,0,0,0-3.9-4.15,29.77,29.77,0,0,1-6.76,8.82l-1.41-1.7a28.17,28.17,0,0,0,6.64-8.57c-2.1-1.93-3.92-3.55-5.48-4.87q1.46-5.55,2.5-11.59h-3.42v-2.06h3.78q.77-5,1.13-8.09Zm3.34,9.91h-4.79a98.32,98.32,0,0,1-2.41,11c1.53,1.23,2.89,2.4,4.1,3.5A44.42,44.42,0,0,0,151.92,556.55Zm9.14-6.08h10.27v-3.83h2v3.83H177v2h-3.62V564.8h-6.12v4.06h10.59v2h-8.26q2.53,4.86,8.74,8.77l-1.49,1.81A26.19,26.19,0,0,1,168,570.88h-.76v12.19h-2.17V570.88h-.57a23.23,23.23,0,0,1-9.42,10.62l-1.2-1.93a21.47,21.47,0,0,0,9-8.69h-8.33v-2h10.55V564.8h-6.16V552.48h-3.75v-2h3.75v-3.83h2.13Zm0,6.28h10.27v-4.27H161.06Zm10.27,6.16v-4.23H161.06v4.23Z"/><path class="cls-3" d="M186.66,560.57a57,57,0,0,1-4.51,5.92l-.68-2.13a50,50,0,0,0,9.38-18l2,.93a53.54,53.54,0,0,1-4,9.66v26.33h-2.13Zm5.64-6.8h11.07v-7.29h2.13v7.29h11.27v2.09h-8.85a44.5,44.5,0,0,0,10.42,18.56l-1.41,1.73a50,50,0,0,1-10.66-20.29h-.77v16.79h6.68v2.09H205.5v8.54h-2.13v-8.54H196.8v-2.09h6.57V555.86h-.73q-3.13,12.6-10.83,20.65l-1.12-1.85A40.82,40.82,0,0,0,201,555.86H192.3Z"/><path class="cls-3" d="M234.4,564.8c-1.58.91-3.12,1.72-4.63,2.41v12.24q0,3.42-3.34,3.42h-3.1l-.48-2.09c1.29.11,2.23.16,2.82.16,1.29,0,1.93-.68,1.93-2.05V568.22a51,51,0,0,1-5.51,2.09l-.53-2.09a48.44,48.44,0,0,0,6-2.09v-9.82H222v-2.14h5.56v-7.53h2.17v7.53h4.67v2.14h-4.67v8.85c1.42-.67,3-1.5,4.63-2.49Zm2.82-11.43h8.09v-6.69h2.14v6.69h8.69v2.17h-8.69v6c0,.62-.1,1.51-.21,2.7l.08-.05v.05h10.55v2.13h-9.82a31.28,31.28,0,0,0,10.67,15l-1.49,1.73A35.18,35.18,0,0,1,246.52,568q-2.29,8.65-10.63,15l-1.69-1.4q8.82-6.52,10.63-15.3H236V564.2h9.14c.11-1.24.16-2.14.16-2.7v-6h-8.09Z"/><path class="cls-3" d="M263.34,582.87l-.48-2.09c1.5.11,2.59.16,3.26.16,1.15,0,1.73-.62,1.73-1.85V568.46q-2.37.81-5.35,1.69l-.56-2.13a60.45,60.45,0,0,0,5.91-1.73v-9.66h-5.23v-2.1h5.23v-7.85H270v7.85h4.43v2.1H270v8.85c1.79-.75,3.38-1.47,4.75-2.17v2.21c-1.75.84-3.33,1.53-4.75,2.1v12q0,3.23-3.14,3.22ZM276,566.09h14.74v-3.38h2.21v3.38h5.72v2h-5.72v11.51q0,3.3-3.26,3.3H284.2l-.49-2.13c2.42.11,4.15.16,5.2.16s1.81-.63,1.81-1.89v-11H276Zm10-19.53h2.17V551h8.17v2.06h-8.17v5.51h9.94v2.09H276.23V558.6H286v-5.51h-8.21V551H286Zm-6.52,23.75a52.15,52.15,0,0,1,5.63,6.57l-1.69,1.2a49.66,49.66,0,0,0-5.67-6.72Z"/><path class="cls-3" d="M302.47,559.08h8.29V577.6q2.42-1.94,5.24-4.63l.56,2.26a53.12,53.12,0,0,1-7.85,6.35l-.85-1.93a2.15,2.15,0,0,0,.77-1.45v-17h-6.16ZM306.78,547a51.06,51.06,0,0,1,7,6.4l-1.49,1.53a48.66,48.66,0,0,0-7.12-6.44Zm8.33,11.91h11.15v-12.4h2.26v12.4h10.62v2.18H328.52v22.3h-2.26v-22.3H315.11Z"/><path class="cls-3" d="M362.65,555.78l.36,2.1-11.95,1.85a59.67,59.67,0,0,0,1,6.64,47.79,47.79,0,0,0,1.33,4.91,37.77,37.77,0,0,0,6.48-10.1l1.94,1a39.24,39.24,0,0,1-7.57,11.43,22.05,22.05,0,0,0,1.61,3.47q2.37,3.66,4.22,3.7,1.26-.24,2.58-6.8l1.81,1.25a37.52,37.52,0,0,1-1.69,5.23c-.72,1.69-1.58,2.53-2.57,2.53-1.78,0-3.57-1.27-5.4-3.82a21.2,21.2,0,0,1-2.17-4,31.64,31.64,0,0,1-8.9,5.64l-1.25-2a28.31,28.31,0,0,0,9.26-5.88c-.46-1.29-1-3-1.53-5.07a49.66,49.66,0,0,1-1.29-7.81l-5.55.88-.28-2.09,5.63-.88q-.48-5-.48-11.32h2.17q0,6.33.41,11Zm-6.84-9.38a47.86,47.86,0,0,1,4.39,6.12l-1.9,1a43.49,43.49,0,0,0-4.3-6.2ZM367,550.07h2.13v25.24H367Zm1,32.8-.48-2q2.89.12,5.52.12a1.79,1.79,0,0,0,2-2.05V546.68h2.17v32.77q0,3.42-3.42,3.42Z"/><circle class="cls-4" cx="83.14" cy="262.98" r="4.47"/><circle class="cls-4" cx="83.14" cy="363.61" r="4.47"/><circle class="cls-4" cx="83.14" cy="464.25" r="4.47"/><circle class="cls-4" cx="83.14" cy="564.88" r="4.47"/><path class="cls-1" d="M185.46,175.05a8.47,8.47,0,0,1,2.74,6.49,10.49,10.49,0,0,1-2.95,7.12,43.38,43.38,0,0,1-6.24,4.85c-3.23,2.14-5.17,4-5.82,5.69h15.05v4H167.51a11.49,11.49,0,0,1,3-7.88,39.22,39.22,0,0,1,6.78-5.47,34.13,34.13,0,0,0,4.3-3.46,7.28,7.28,0,0,0,2.06-4.93,4.86,4.86,0,0,0-1.39-3.79,5.88,5.88,0,0,0-4.08-1.27,5,5,0,0,0-4.3,1.94,9.22,9.22,0,0,0-1.6,5.52h-4.6a11.75,11.75,0,0,1,2.91-8.09,9.83,9.83,0,0,1,7.75-3.24A10.23,10.23,0,0,1,185.46,175.05Z"/><path class="cls-1" d="M211.37,177Q214,181.21,214,188.2t-2.66,11.17a9.8,9.8,0,0,1-16.43,0q-2.66-4.17-2.66-11.17T194.94,177a9.8,9.8,0,0,1,16.43,0Zm-13.44,3.5a27.29,27.29,0,0,0,0,15.34q1.51,4.09,5.22,4.09t5.23-4.09a22.21,22.21,0,0,0,1.09-7.67,21.78,21.78,0,0,0-1.09-7.67c-1-2.72-2.75-4.09-5.23-4.09S198.94,177.81,197.93,180.53Z"/><path class="cls-1" d="M231.6,173.16v30.08H227V178.68a16.52,16.52,0,0,1-6.91,3.79v-4.55a16.41,16.41,0,0,0,8-4.76Z"/><path class="cls-1" d="M261.35,175.1a7.29,7.29,0,0,1,2.52,5.64,7.14,7.14,0,0,1-1,3.92,7,7,0,0,1-3.41,2.57v.13a6.38,6.38,0,0,1,3.71,2.53,7.59,7.59,0,0,1,1.77,5,8.22,8.22,0,0,1-2.91,6.49c-2,1.66-4.76,2.48-8.3,2.48s-6.34-.82-8.3-2.48a8.22,8.22,0,0,1-2.91-6.49,7.59,7.59,0,0,1,1.77-5,6.38,6.38,0,0,1,3.71-2.53v-.13a7,7,0,0,1-3.42-2.57,7.76,7.76,0,0,1,1.52-9.56,12.77,12.77,0,0,1,15.26,0Zm-12.6,15.76a5.1,5.1,0,0,0-1.69,4,4.68,4.68,0,0,0,1.73,3.79,7.39,7.39,0,0,0,4.93,1.48,7.83,7.83,0,0,0,5-1.48,4.85,4.85,0,0,0,1.65-3.79,5,5,0,0,0-1.65-4,7.07,7.07,0,0,0-5-1.65Q250.35,189.25,248.75,190.86Zm.54-13.15a4.09,4.09,0,0,0-1.43,3.2,4.68,4.68,0,0,0,1.18,3.41c1,1,2.54,1.52,4.68,1.52a6.35,6.35,0,0,0,4.68-1.52,4.91,4.91,0,0,0,1.18-3.41,4.16,4.16,0,0,0-1.44-3.2,7.36,7.36,0,0,0-8.85,0Z"/><path class="cls-1" d="M307.49,177q3.78,4.22,3.79,11.21a16.37,16.37,0,0,1-3.67,11q2.37,3.16,3.33,4.6L308,206.49q-2-2.87-3.33-4.68a15.09,15.09,0,0,1-8,2q-6.87,0-10.83-4.46-3.75-4.26-3.75-11.13c0-4.6,1.25-8.33,3.75-11.16q3.87-4.52,10.83-4.51T307.49,177Zm-18.29,2.83q-2.54,3.07-2.53,8.38a12.84,12.84,0,0,0,2.53,8.35,9.24,9.24,0,0,0,7.46,3.2,10.24,10.24,0,0,0,5.39-1.35c-1.43-1.8-2.94-3.52-4.51-5.18l2.66-2.61q1.89,2,4.55,5.09a13.5,13.5,0,0,0,1.89-7.5c0-3.56-.85-6.4-2.57-8.51s-4.18-3.12-7.41-3.12A9,9,0,0,0,289.2,179.86Z"/><path class="cls-1" d="M328.64,173.16h4.21v19.89h4.55v3.66h-4.55v6.53h-4.38v-6.53H313.81v-4.34Zm-.3,5.81-10.78,14.08h10.91V179Z"/></svg>