<svg id="图层_1" data-name="图层 1" xmlns="http://www.w3.org/2000/svg" viewBox="0 0 500 640"><defs><style>.cls-1{fill:#a494c6;}.cls-2{fill:#fff;}.cls-3{fill:#33353c;}.cls-4{fill:#c1c1c1;}</style></defs><title>中文</title><rect class="cls-1" x="37.22" y="112.95" width="22.33" height="22.33" transform="translate(-73.59 70.57) rotate(-45)"/><rect class="cls-2" x="48.39" y="33.45" width="406.7" height="593"/><rect class="cls-1" x="32.64" y="13.55" width="434.77" height="110.56"/><path class="cls-2" d="M175.56,47.31q-.26,1.21-.84,3.57h5.75v3.78h-6.85q-.87,2.52-1.76,4.66h8v3.57h-3.11v4.33h4.29v3.69h-4.29v8.44a34,34,0,0,0,3.07-2.18l.67,3.44a29.52,29.52,0,0,1-7.14,3.62L171.86,81A1.64,1.64,0,0,0,173,79.4V70.91h-4.32V67.22H173V62.89h-1.68V60.62l-.8,1.6-3.15-2a49.83,49.83,0,0,0,4.41-13.73Zm31,33.43-1,3.74h-5.88q-1.26,0-3.78-.09a17.72,17.72,0,0,1-5.08-.75,8.24,8.24,0,0,1-3.61-2.4,2.15,2.15,0,0,0-1.39-.88c-.58,0-1.75,1.6-3.48,4.79l-2.31-3a18.12,18.12,0,0,1,4.11-5V63.73h-2.94V60.2h6.6V77.42a9,9,0,0,0,3.15,2.52,15.56,15.56,0,0,0,4.24.8c2.13.06,3.72.08,4.79.08C201.61,80.82,203.81,80.8,206.55,80.74ZM183.91,47.1a50.07,50.07,0,0,1,4.2,6.72l-2.94,2.1a48.48,48.48,0,0,0-4.2-7Zm5.55,22.55h7.43V65.41h-6.55l-.76-3.28a39.8,39.8,0,0,0,3.49-7.81h-3.78V50.84h4.87q.59-2.15,1.14-4.41l3.52.84-.92,3.57h7.52v3.48h-8.61a50.77,50.77,0,0,1-3.15,7.6h3.23V56.59h3.7v5.33H205v3.49h-4.41v4.24h5.63v3.53h-5.63v6.3h-3.7v-6.3h-7.43Z"/><path class="cls-2" d="M225,46.38h4.12V59h15.54v3.86H229.11V79.77h18.77v3.87H210.25V79.77H225Z"/><path class="cls-2" d="M272.74,46.09a41,41,0,0,1,2,4.07h15.12V54H259.05v8.82q-.21,14-4.07,22.34l-3.36-3q3.27-6.93,3.4-19.36V50.16h15.25a22.29,22.29,0,0,0-2-3.31ZM259.26,79.65h17.35a128.61,128.61,0,0,0,6.47-21.55l3.94,1a125.6,125.6,0,0,1-6.13,20.5h8.28v3.86H259.26Zm5.21-19.49A122.88,122.88,0,0,1,269,75.49l-3.78,1A117.33,117.33,0,0,0,261,61.25Zm8.06-3.07a147.29,147.29,0,0,1,3.87,15.84l-3.78.92a146.11,146.11,0,0,0-3.57-15.62Z"/><path class="cls-2" d="M301.3,71.75a25.19,25.19,0,0,1-4.66,13.11l-3.06-2.73c2.52-3.62,3.82-8.19,3.9-13.74V47.81H329.7V79.44c0,3.16-1.62,4.74-4.83,4.74H320L319,80.28c1.81.14,3.34.21,4.57.21s2.06-.83,2.06-2.48V71.75H315.21v12h-4v-12Zm9.87-20.07h-9.66V58h9.66Zm-9.66,10v6.43h9.66V61.63ZM325.62,58v-6.3H315.21V58Zm0,10.08V61.63H315.21v6.43Z"/><path class="cls-3" d="M114.16,233.26a17.65,17.65,0,0,1-3.09,3.85l-1.29-1.52a18.45,18.45,0,0,0,4.61-7.43l1.9.42c-.45,1.17-.85,2.12-1.18,2.85h11.32v1.83h-6a33.14,33.14,0,0,1-.46,4.31h7.43v1.9h-7.84l-.42,1.41a51.6,51.6,0,0,1,7.46,4.61L125.17,247a44.94,44.94,0,0,0-6.63-4.57q-2.25,4.18-8.12,6.93l-1.37-1.68q6-2.66,7.93-6.74l.53-1.45h-8v-1.9H118a23.92,23.92,0,0,0,.45-4.31Zm24.49,14.56v15.42h-2.09v-1.9H117v1.9H115V247.82ZM117,253.76h19.54v-4H117Zm0,5.71h19.54v-3.88H117Zm12.34-28.42h12v13.6h-12Zm9.94,11.74v-9.87h-7.92v9.87Z"/><path class="cls-3" d="M160.48,231.09a61.84,61.84,0,0,1,5.45,8.23l-1.67,1.18c-.74-1.37-1.22-2.23-1.45-2.59A148.78,148.78,0,0,1,148,239.36l-.57-1.79a2.69,2.69,0,0,0,1-.54,33.64,33.64,0,0,0,6.21-8.57l2,.58a29.48,29.48,0,0,1-6.21,8.41q5-.22,11.5-1.06c-1.09-1.65-2.08-3.08-3-4.27Zm-8.8,24.76v7.36h-2V242.14h13.8v17.94c0,1.91-1,2.86-2.9,2.86h-3.24l-.49-1.94,3.08.11c1,0,1.53-.48,1.53-1.45v-3.81Zm9.76-7.73V244h-9.76v4.15ZM151.68,250v4.11h9.76V250Zm18.9-5.26c-2.14,0-3.2-1.12-3.2-3.35v-13h2v5.45a95.9,95.9,0,0,0,10.74-2.18l.69,1.87a112.87,112.87,0,0,1-11.43,2.21v5.22c0,1.25.59,1.87,1.79,1.87h5.33a2.45,2.45,0,0,0,1.79-.57c.43-.51.73-2,.88-4.54l1.94.65q-.34,4.42-1.37,5.52a4.23,4.23,0,0,1-2.86.84Zm-1.07,14.36a1.47,1.47,0,0,0,1.64,1.68h5.26a2.33,2.33,0,0,0,1.83-.61c.45-.53.76-2.08.91-4.65l1.9.61c-.22,3-.68,4.9-1.37,5.64a4.18,4.18,0,0,1-2.85.84h-6.29a2.7,2.7,0,0,1-3-3.05V246.44h2v5a57.33,57.33,0,0,0,10.63-2.05l.69,1.9a59.91,59.91,0,0,1-11.32,2Z"/><path class="cls-3" d="M203.23,228.43A56,56,0,0,0,220.14,242l-1.1,1.9a54.41,54.41,0,0,1-16.57-13.6A55.42,55.42,0,0,1,185.74,244L184.67,242a56.89,56.89,0,0,0,17-13.6Zm11,19.69v15h-2v-2.47H192.71v2.47h-2v-15Zm-21.6-7.43h19.65v2H192.64Zm.07,17.95h19.51V250.1H192.71Z"/><path class="cls-3" d="M237.51,258.1A82.74,82.74,0,0,1,224,261.45l-.27-2.05A79.16,79.16,0,0,0,237.51,256Zm-5.29-29a60.85,60.85,0,0,1-5.91,12.23,56.29,56.29,0,0,0,6.1-1q.87-1.6,2.55-4.8l2,.72q-5.79,10.71-9.56,14.86a63.35,63.35,0,0,0,9.68-2.4v1.9a74.07,74.07,0,0,1-12.16,2.75l-.57-1.94a4.23,4.23,0,0,0,1-.61,45.46,45.46,0,0,0,6-8.5c-2.65.51-5,.91-7,1.22l-.53-1.94a2.93,2.93,0,0,0,.92-.84,61,61,0,0,0,5.52-12.38Zm13.75-.61a46.87,46.87,0,0,1-1.9,6.29h12.11q0,19.11-.53,23.84-.57,4.31-5.79,4.31-1.26,0-4.35-.12L245,261c1.75.07,3.28.11,4.57.11q3.54,0,4.08-3.12.42-3.36.53-21.11h-11a31,31,0,0,1-4.87,7.47l-1.3-1.71a30.86,30.86,0,0,0,6.9-14.33Zm-3.39,15.39a67.22,67.22,0,0,1,6.63,8.8L247.46,254A64.86,64.86,0,0,0,240.9,245Z"/><path class="cls-3" d="M275.8,228.39h2.13v12H292v2h-14.1v17.06h17.64v2H261.86v-2H275.8Z"/><path class="cls-3" d="M308.49,229a59.74,59.74,0,0,1-6.25,12.42q2.75-.27,6-.77c1.73-3.25,2.51-4.74,2.36-4.49l1.87.72q-5.42,10.22-8.88,14.21a60.64,60.64,0,0,0,8.88-2.25v1.87a63.73,63.73,0,0,1-11.36,2.59l-.53-1.9a4.2,4.2,0,0,0,.95-.57,47,47,0,0,0,5.68-8.27q-3.62.54-6.9.91l-.53-1.9a2.2,2.2,0,0,0,.88-.8,60.79,60.79,0,0,0,5.9-12.57Zm4.38,29A70.25,70.25,0,0,1,300,261.61l-.27-2A72.8,72.8,0,0,0,312.87,256Zm18.44-22.67.3,2-10,1.41c.08,2.21.2,4.13.38,5.75l10.36-1.63.31,2-10.44,1.67c.08.61.22,1.48.42,2.59a30.78,30.78,0,0,0,1.52,5.49,35.24,35.24,0,0,0,6-7l1.67,1.06a40.07,40.07,0,0,1-6.86,7.81c.31.61.55,1.06.73,1.34,1.29,1.9,2.49,2.85,3.58,2.85s2-2.2,2.78-6.62l1.79,1.14q-1.49,7.7-4.34,7.69-2.67-.08-5.07-3.5c-.31-.43-.65-1-1-1.64a29.38,29.38,0,0,1-9.33,4.8l-1.22-1.64a31.19,31.19,0,0,0,9.68-5,28.63,28.63,0,0,1-1.79-5.83q-.24-1.06-.54-3.27l-7.12,1.14-.31-2,7.17-1.14q-.32-2.64-.39-5.79l-5.83.83-.26-1.94,6.06-.88v-8.64h2.05v8.34Zm-5.57-7a41.59,41.59,0,0,1,4.77,4.84l-1.64,1.14a39.67,39.67,0,0,0-4.69-5Z"/><circle class="cls-4" cx="82.89" cy="245.7" r="4.23"/><path class="cls-3" d="M129.59,317h2v3.85a26.39,26.39,0,0,1-1.71,9.33h12.8v1.94H129a15.36,15.36,0,0,1-1.49,2.25,86.77,86.77,0,0,1,15,7.31l-1.18,1.8a76.3,76.3,0,0,0-15.05-7.62q-4.65,4.65-14.51,7.39l-1.15-1.76q10.48-2.82,14.78-7.69c.28-.36.68-.91,1.19-1.68H109.7v-1.94h18a23.73,23.73,0,0,0,1.94-9.33Zm12-4.31v7.24h-2.1v-5.29H113.09V320H111v-7.39h14.63a42.48,42.48,0,0,0-1.72-4.19l2.17-.38a45.36,45.36,0,0,1,1.57,4.57Zm-26.4,9.79a43.14,43.14,0,0,1,8,4.16L122,328.26a37.65,37.65,0,0,0-7.92-4.3Zm2.4-5.82a39.11,39.11,0,0,1,7.73,4.07l-1.1,1.64a31.36,31.36,0,0,0-7.66-4.23Z"/><path class="cls-3" d="M147.84,322.82h4.64v-9.6H147.3v-2h12.34v2h-5.1v9.6h4.57v2h-4.57v9.52c1.73-.58,3.45-1.23,5.18-1.94v2a80.71,80.71,0,0,1-12,3.77l-.49-2c1.77-.38,3.54-.8,5.29-1.26V324.8h-4.64Zm21.33-7.74h1.94v9.45q-.11,7.62-2.93,12.11-2.75,4.16-9.11,6.6l-1.18-1.76q6.21-2.28,8.76-6.28a21.84,21.84,0,0,0,2.52-10.67Zm9.33-4.95V331h-2.05V312.11H164.18V331h-2.06V310.13Zm-4.57,32.5a2.45,2.45,0,0,1-2.78-2.75v-9.06h2.06v8.61c0,.83.44,1.25,1.33,1.25h3a1.76,1.76,0,0,0,1.56-.61c.41-.51.69-2.05.84-4.64l1.91.64q-.34,4.62-1.26,5.68a3.64,3.64,0,0,1-2.67.88Z"/><path class="cls-3" d="M215,313.18v30H213v-2.59H192v2.59h-2.06v-30h8a18.54,18.54,0,0,0,2-4.84l2.1.3a18.58,18.58,0,0,1-2,4.54ZM192,321.48h21v-6.32H192Zm0,8.35h21v-6.37H192Zm0,8.8h21v-6.82H192Z"/><path class="cls-3" d="M239.53,317.22H225.09v-2h31v2H241.63V327H254.2v2H241.63v10.89h15.73v2H223.8v-2h15.73V329H226.92v-2h12.61Zm0-8.8a48.8,48.8,0,0,1,2.21,5.79l-1.86.68a41.39,41.39,0,0,0-2.4-5.9Z"/><path class="cls-3" d="M264.41,319.73l3-10.13,2.06.3-2.4,7.89h7.46a85,85,0,0,0,1.94-9.68l2.1.23c-.58,3.63-1.22,6.78-1.9,9.45h18.09v1.94H276.14q-.87,2.94-1.67,5h15.81v1.79a20.08,20.08,0,0,1-6.63,9.26,57.62,57.62,0,0,0,11.85,5.48l-1,1.91a57.11,57.11,0,0,1-12.5-6.1,54.31,54.31,0,0,1-12,6.21l-1.07-1.9a51.9,51.9,0,0,0,11.32-5.56,21.34,21.34,0,0,1-6.93-8.27,40.49,40.49,0,0,1-10.94,15l-1.06-1.9Q270,333,274,319.73Zm10.51,6.9a20,20,0,0,0,7,8,19.33,19.33,0,0,0,6.28-8Zm10.06-18a46.86,46.86,0,0,1,6.93,6.44l-1.48,1.49a41.58,41.58,0,0,0-6.86-6.59Z"/><path class="cls-3" d="M323.88,338.63l-.54-2.1,3.24.08a1.48,1.48,0,0,0,1.68-1.68v-12.8h-10.4v21.18H315.8V322.13H305.36V338.7h-2.05V320.15H315.8v-6.63q-7.24.62-14.82.61l-.69-2q18.82,0,30.9-3.32l1.07,1.83a80.39,80.39,0,0,1-14.4,2.67v6.82h12.46v15.2c0,2.18-1,3.28-3.05,3.28Z"/><circle class="cls-4" cx="82.89" cy="325.75" r="4.23"/><path class="cls-3" d="M132.63,408.92a109.24,109.24,0,0,1,9,13.26l-1.75,1.22c-.54-1-1.21-2.23-2-3.55q-12.51,1.38-25.34,2.25l-.34-1.75q5-2.7,10.32-13.64h-13v-2.06h15.81v-7.84H111.8v-2h13.44v-6.33h2.06v6.33h13.37v2H127.3v7.84h15.77v2.06H124.75q-4.35,9.18-8.88,13.37,15.39-1.21,20.84-1.94-2.43-3.81-5.71-8.15Z"/><path class="cls-3" d="M163.3,388.23h2.14v7h13.79v17.53h-2.1v-2.56H165.44v13.18H163.3V410.25H151.65v2.56h-2.1V395.28H163.3Zm-11.65,20H163.3V397.34H151.65Zm13.79,0h11.69V397.34H165.44Z"/><path class="cls-3" d="M191.57,401a71.57,71.57,0,0,1-4.69,16.46l-1.79-1.14a67.33,67.33,0,0,0,4.46-15.74Zm7.12,20.88q-3.62,0-3.62-3.43V396.39h2.1V418q0,1.83,2.13,1.83h7.55a2.37,2.37,0,0,0,2.21-1.1c.55-1,.92-3.79,1.1-8.38l1.94.64c-.22,5.06-.75,8.21-1.56,9.45a3.73,3.73,0,0,1-3.28,1.45Zm.73-33.22a79.67,79.67,0,0,1,8.38,9.49l-1.75,1.18a69.19,69.19,0,0,0-8.35-9.6Zm13.86,10.63a108.9,108.9,0,0,1,6.79,15.5l-1.91.84A98.62,98.62,0,0,0,211.27,400Z"/><path class="cls-3" d="M236.9,389.19a43.29,43.29,0,0,1-5.06,8.83v25.22h-2.06V400.58a54.36,54.36,0,0,1-6,5.79l-.65-2.14A41.39,41.39,0,0,0,235,388.31ZM245,422.52q-3.66,0-3.66-3.58V406.6c-1.85,1.06-3.65,2-5.41,2.85l-1-2a58.52,58.52,0,0,0,6.4-3.27V388.58h2.06V402.9a53.31,53.31,0,0,0,11-9.52l1.41,1.6a56.74,56.74,0,0,1-12.42,10.36v13.29c0,1.27.7,1.91,2.1,1.91H252a2.84,2.84,0,0,0,2.36-1c.49-.66.8-3,1-7l1.9.61q-.35,6.58-1.29,8a4.27,4.27,0,0,1-3.59,1.33Z"/><path class="cls-3" d="M287.3,404.69a34.45,34.45,0,0,1-7,9.3,43.59,43.59,0,0,0,15.43,7.12l-1.22,1.9a44.5,44.5,0,0,1-15.77-7.61A39.3,39.3,0,0,1,263,423.17l-1.26-1.83a40.46,40.46,0,0,0,15.43-7.28,32.29,32.29,0,0,1-7.12-8.87l1.79-1a29.47,29.47,0,0,0,6.89,8.53,30.23,30.23,0,0,0,6.67-8.84Zm-25.37-11.5h16.16a28.51,28.51,0,0,0-2.37-4.65l2.25-.38a31.92,31.92,0,0,1,2.33,5h15.12v1.94H261.93Zm12.19,5A44.13,44.13,0,0,1,263.38,408l-1.33-1.71a41.91,41.91,0,0,0,10.55-9.52Zm10.37-1.37A75.24,75.24,0,0,1,295.12,407l-1.53,1.49A72.81,72.81,0,0,0,283,398.18Z"/><path class="cls-3" d="M305.4,402.86V390h22.9v12.91H313.36a19.74,19.74,0,0,1-2.82,3.51H331q-.15,5.82-.65,9.75a11.27,11.27,0,0,1-1.79,5.14,5.07,5.07,0,0,1-3.89,1.56H320l-.5-2c1.45.08,2.85.12,4.19.12a3.88,3.88,0,0,0,4-2.36q.94-2.33,1.29-10.33h-4.27a25.32,25.32,0,0,1-15.8,14.78l-1.15-1.71a23.87,23.87,0,0,0,14.9-13.07H317q-3.89,6.48-13.1,10.17l-1.34-1.6q8.73-3.31,12.27-8.57h-6.44a30.56,30.56,0,0,1-6.78,4l-1.14-1.79q7.31-3,10.66-7.58Zm2-7.35h18.82v-3.77H307.42ZM326.24,401v-3.77H307.42V401Z"/><circle class="cls-4" cx="82.89" cy="405.8" r="4.23"/><path class="cls-3" d="M110,472.3h9.67q6.36,0,9.57,3.81,2.92,3.47,2.93,9.79t-3.28,9.83q-3.42,3.76-9.71,3.77H110Zm2.32,2.06v23.08h6.51c3.64,0,6.4-1,8.31-3.08s2.74-4.8,2.74-8.46-.8-6.64-2.4-8.5c-1.73-2-4.44-3-8.15-3Z"/><path class="cls-3" d="M151.19,482.43c1.4,1.88,2.14,4.51,2.25,7.89h-16a9.25,9.25,0,0,0,1.94,5.68,6.19,6.19,0,0,0,4.87,2.05,6.61,6.61,0,0,0,4.35-1.41,7.36,7.36,0,0,0,2.09-3.46H153a9.28,9.28,0,0,1-2.63,4.68,8.8,8.8,0,0,1-6.14,2.17,8.37,8.37,0,0,1-6.62-2.82,10.85,10.85,0,0,1-2.56-7.58,11,11,0,0,1,2.44-7.27,8.17,8.17,0,0,1,6.67-3.09C147.3,479.27,149.64,480.33,151.19,482.43Zm-11.66.84a8.71,8.71,0,0,0-2.06,5.18H151q-.57-7.2-6.82-7.2A5.92,5.92,0,0,0,139.53,483.27Z"/><path class="cls-3" d="M154.88,479.8h2.52l6.21,16.8,6.17-16.8h2.55l-7.54,19.7h-2.36Z"/><path class="cls-3" d="M189.09,483.31a7.8,7.8,0,0,1,2.63-3,6.09,6.09,0,0,1,3.58-1,6.48,6.48,0,0,1,4.95,1.94,7.75,7.75,0,0,1,1.8,5.41V499.5h-2.29V486.93a6.45,6.45,0,0,0-1.14-4.19,4.88,4.88,0,0,0-3.93-1.49,4.52,4.52,0,0,0-3.58,1.64,5.78,5.78,0,0,0-1.45,4.08V499.5h-2.32V486.93q0-5.69-4.92-5.68a4.55,4.55,0,0,0-3.69,1.79,6.38,6.38,0,0,0-1.52,4.35V499.5h-2.29V479.8h2.29v3a6.39,6.39,0,0,1,5.71-3.51Q187.6,479.27,189.09,483.31Z"/><path class="cls-3" d="M210.5,473.29a1.6,1.6,0,0,1,.57,1.33,1.9,1.9,0,0,1-.61,1.38,2,2,0,0,1-1.33.53,1.88,1.88,0,0,1-1.94-1.91,1.6,1.6,0,0,1,.57-1.33,1.8,1.8,0,0,1,1.37-.57A1.87,1.87,0,0,1,210.5,473.29ZM208,479.8h2.28v19.7H208Z"/><path class="cls-3" d="M232.22,487.39V499.5h-2.29v-12q0-6.29-5.6-6.29a5.18,5.18,0,0,0-4,1.72,6.92,6.92,0,0,0-1.87,4.64V499.5h-2.28V479.8h2.28V483a8.18,8.18,0,0,1,2.67-2.78,6.93,6.93,0,0,1,3.73-1Q232.22,479.27,232.22,487.39Z"/><path class="cls-3" d="M252,482.43c1.4,1.88,2.14,4.51,2.25,7.89h-16a9.25,9.25,0,0,0,1.94,5.68,6.19,6.19,0,0,0,4.87,2.05,6.61,6.61,0,0,0,4.35-1.41,7.36,7.36,0,0,0,2.09-3.46h2.33a9.28,9.28,0,0,1-2.63,4.68,8.8,8.8,0,0,1-6.14,2.17,8.37,8.37,0,0,1-6.62-2.82,10.8,10.8,0,0,1-2.56-7.58,11,11,0,0,1,2.44-7.27,8.17,8.17,0,0,1,6.67-3.09C248.1,479.27,250.44,480.33,252,482.43Zm-11.66.84a8.71,8.71,0,0,0-2.06,5.18h13.57q-.57-7.2-6.82-7.2A5.92,5.92,0,0,0,240.33,483.27Z"/><path class="cls-3" d="M258.46,502.78l-.45-1.95q1.49.12,2.85.12c1.09,0,1.64-.51,1.64-1.53V489.14c-1.34.58-2.92,1.18-4.72,1.79l-.54-2.06a51.06,51.06,0,0,0,5.26-1.79v-9.37h-4.8v-2h4.8v-7.16h2.06v7.16h3.73v2h-3.73v8.49a40.28,40.28,0,0,0,4.3-2.28V486c-1.47.83-2.91,1.58-4.3,2.24V500q0,2.82-3,2.82Zm22-34.63c.48,1.14,1,2.55,1.52,4.23h8.38v6.36h-1.9v-4.46H272.33v4.46h-2v-6.36h9.56a26.46,26.46,0,0,0-1.64-3.85ZM278.65,477a18.93,18.93,0,0,1-6.21,7.58l-1.52-1.34a16.11,16.11,0,0,0,5.94-6.93Zm-7.43,9.6h17.64v1.79q-11.5,5.52-14.7,8.83a3.38,3.38,0,0,0-1.07,2.06c0,1,.71,1.49,2.14,1.49h10.4a4.06,4.06,0,0,0,2.74-.76c.51-.49.94-2.12,1.3-4.92l1.94.61q-.69,4.8-1.79,5.79a6.35,6.35,0,0,1-4.12,1.14H275.19q-4.28,0-4.27-3.16a5.21,5.21,0,0,1,1.83-3.58q3.66-3.42,12.3-7.35H271.22Zm11.89-10.48a55.63,55.63,0,0,1,5.68,7.2l-1.6,1.14a53.28,53.28,0,0,0-5.64-7.35Z"/><path class="cls-3" d="M296.48,472.83v-2H309v2h-6.14a49.42,49.42,0,0,1-2.36,9.26h7V499h-6.43v2.93h-2v-16.5a37,37,0,0,1-2.93,5L295,488.72a39.82,39.82,0,0,0,5.87-15.89Zm4.58,24.27h4.53V484h-4.53ZM320,468.38a51,51,0,0,1,2.13,5.63h7.47v2.06H313.82v8.5q-.22,11.73-5,19l-1.6-1.45q4.31-6.21,4.53-17.52V474h8.3a39.56,39.56,0,0,0-2.21-5.25Z"/><path class="cls-3" d="M334.58,478.55a45.1,45.1,0,0,1,5.6,5.52l-1.41,1.37a40.71,40.71,0,0,0-5.56-5.56Zm.53-9.22a42.45,42.45,0,0,1,5.87,5.29l-1.3,1.34a39.24,39.24,0,0,0-5.94-5.34Zm5.34,21.07a129.94,129.94,0,0,1-4.88,12.49l-1.83-.76a109.85,109.85,0,0,0,4.92-12.42Zm2.28-18.48h3.7a19.44,19.44,0,0,0,1-3.54l2,.26a19,19,0,0,1-1,3.28h5.21V483.5h-5.59l1.29,3.66h5.52v1.75H347c0,.3-.19,1.45-.5,3.43h7q0,7.28-.92,8.87a3.63,3.63,0,0,1-3.16,1.6h-2.43l-.46-1.75H349a2.15,2.15,0,0,0,2.09-1.29,26.73,26.73,0,0,0,.5-5.68h-5.41c-.3,1.22-.61,2.29-.91,3.2a17.44,17.44,0,0,1-4,5.91L340,501.6a16.41,16.41,0,0,0,3.5-5.15,35.26,35.26,0,0,0,1.6-7.54h-4v-1.75h6.29l-1.26-3.66h-3.43Zm1.83,5.07h7.28v-3.47h-7.28Zm7.28,4.87v-3.27h-7.28v3.27Zm4.64.61a23.1,23.1,0,0,1-1.75,2.82l-1.22-1.49q3.81-5.74,5.11-15.35l1.94.38a53.68,53.68,0,0,1-1.45,6.78h8.65v2H365.4a42.83,42.83,0,0,1-3.12,16.19,21.93,21.93,0,0,0,6,7.31l-1.18,1.75a21.7,21.7,0,0,1-5.82-7.05,24,24,0,0,1-6,7.28l-1.1-1.75a22.57,22.57,0,0,0,6-7.62A51.6,51.6,0,0,1,356.48,482.47Zm2-4.87-.87,2.36a56.74,56.74,0,0,0,3.5,11.54,42.23,42.23,0,0,0,2.4-13.9Z"/><path class="cls-3" d="M380.07,479.16H375.8v5.37q-.15,11.58-3.05,18.67l-1.45-1.3q2.4-6.24,2.52-17.37V470.24h16.61v1.91H375.8v5.1h13.67v1.91H382v6.17h7.09q0,10.4-.65,13.83t-3.92,3.58c-.67,0-1.44,0-2.33-.12l-.57-1.75c1.42.05,2.32.08,2.71.08,1.34-.08,2.17-1,2.47-2.9s.33-5.37.38-10.85h-5.26q-.57,10.67-4.57,15.84l-1.45-1.22q4.15-5.4,4.2-17.14Zm15.54-10.52h2v8.19h6.93q0,17.54-.64,21.72t-5.26,4.19c-.51,0-1.37,0-2.59-.12l-.46-1.75c1.42.05,2.34.08,2.74.08,2,0,3.24-.92,3.62-2.74q.61-3.31.69-19.4h-5.07q-.35,16.5-6.67,24.39l-1.44-1.3q5.79-7.27,6.13-23.09H391v-2h4.57Z"/><circle class="cls-4" cx="82.89" cy="485.84" r="4.23"/><path class="cls-3" d="M109.8,550.33h32.27v2H127v3.77h11.89v14.71H126.56a15.74,15.74,0,0,1-2.44,6.51,53,53,0,0,0,19.36,4l-.57,2q-11.7-.54-20.12-4.5-3.93,3.43-13.18,4.54l-.92-1.87q8.5-.79,12.16-3.66a36.64,36.64,0,0,1-6.59-4.53l1.63-1.14a31.61,31.61,0,0,0,6.37,4.26,13.68,13.68,0,0,0,2.24-5.63H113.07V556.08h11.85v-3.77H109.8Zm5.33,12.15h9.79V558h-9.79Zm9.6,6.44c.1-1.32.17-2.31.19-3v-1.68h-9.79v4.65Zm12.12,0v-4.65H127V566q-.08,2-.15,3ZM127,558v4.53h9.87V558Z"/><path class="cls-3" d="M162.07,572.39a49.12,49.12,0,0,1,4.42,5.14A23.34,23.34,0,0,0,177.08,569H165.31a45.1,45.1,0,0,1-12.16,3.58l-1.22-1.83q12.39-1.26,18.48-7.7l1.75,1a21.35,21.35,0,0,1-3.58,3.08h11.13v1.64q-8,13.6-30.14,14.06l-.84-2a49.63,49.63,0,0,0,15.81-2.44,42.4,42.4,0,0,0-4.3-5ZM166,549.6a19.38,19.38,0,0,1-2.67,2.59h11.47v1.68q-6.16,11-22.89,12.31l-.88-1.91a39.78,39.78,0,0,0,9.71-1.71,28.37,28.37,0,0,0-4-4.23l1.79-.88a40.09,40.09,0,0,1,4.16,4.42,20.54,20.54,0,0,0,9.71-7.77H160.62a33.7,33.7,0,0,1-10.55,4l-1.22-1.83q10.29-2.06,15.31-7.62Z"/><path class="cls-3" d="M187.44,551.13h29.41v2H210.3V564h8.57v2H210.3v17.14h-2.06V566h-11.7a31.18,31.18,0,0,1-2.17,9.94,15.8,15.8,0,0,1-7.12,7.39l-1.18-1.75a15,15,0,0,0,6.7-7.2,31.2,31.2,0,0,0,1.72-8.38h-9.11v-2h9.22l0-1.68v-9.14h-7.2Zm9.26,2v10l0,.84h11.58V553.15Z"/><path class="cls-3" d="M226,559.93l3-10.14,2.06.31-2.4,7.89h7.47a85,85,0,0,0,1.94-9.68l2.1.23c-.59,3.63-1.22,6.78-1.91,9.45h18.1v1.94H237.69c-.59,2-1.14,3.62-1.68,5h15.81v1.79a19.94,19.94,0,0,1-6.63,9.26A58.12,58.12,0,0,0,257,581.45l-1,1.91a57,57,0,0,1-12.49-6.1,54.31,54.31,0,0,1-12,6.21l-1.07-1.9A51.36,51.36,0,0,0,241.76,576a21.42,21.42,0,0,1-6.93-8.26,40.48,40.48,0,0,1-10.93,15l-1.07-1.91q8.76-7.6,12.72-20.87Zm10.52,6.89a19.94,19.94,0,0,0,7,8,19.38,19.38,0,0,0,6.29-8Zm10.06-18a46.86,46.86,0,0,1,6.93,6.44L252,556.77a41.47,41.47,0,0,0-6.85-6.59Z"/><path class="cls-3" d="M265.08,552.84h10.55v-4.26h2.06v4.26h9.48v1.95h-9.48v5.14h5.1a50.25,50.25,0,0,0,9.68-8.84l1.56,1.18a53.62,53.62,0,0,1-7.88,7.66h9.1v2H283.4l-1.9,1.22c-2.14,1.24-4.43,2.42-6.9,3.54h15.62v16.8h-2.09V581.6H270.72v1.87h-2.06v-14.4q-4,1.41-6.78,2.21l-.84-1.9a65.51,65.51,0,0,0,18.1-7.09l.6-.38H261.5v-2h14.13v-5.14H265.08Zm23.05,20.31v-4.61H270.72v4.61ZM270.72,575v4.72h17.41V575Z"/><path class="cls-3" d="M315.52,553.49H302v-2h29.23v2H317.57v25.94h15.24v2.06H300v-2.06h15.55Z"/><path class="cls-3" d="M365.54,550.33v23.35h5.79v1.94H337.65v-1.94h5.79V550.33Zm-14.94,27a43.92,43.92,0,0,1-10.7,6.09l-1.22-1.64a43.09,43.09,0,0,0,10.4-5.83Zm-5.14-21h18.06v-4.08H345.46Zm0,5.75h18.06v-4H345.46Zm0,5.75h18.06v-4H345.46Zm0,5.83h18.06v-4.11H345.46Zm13.91,2.25a56.81,56.81,0,0,1,10.89,5.67l-1.14,1.8a50,50,0,0,0-10.82-5.91Z"/><circle class="cls-4" cx="82.89" cy="565.89" r="4.23"/><path class="cls-1" d="M197.24,162.14a8,8,0,0,1,2.59,6.14A9.93,9.93,0,0,1,197,175a42.1,42.1,0,0,1-5.9,4.58q-4.59,3-5.51,5.39h14.24v3.83H180.25a10.87,10.87,0,0,1,2.83-7.46,36.78,36.78,0,0,1,6.42-5.19,31.34,31.34,0,0,0,4.07-3.27,6.91,6.91,0,0,0,2-4.66,4.63,4.63,0,0,0-1.31-3.59,5.57,5.57,0,0,0-3.87-1.2,4.72,4.72,0,0,0-4.07,1.84,8.78,8.78,0,0,0-1.51,5.22h-4.35a11.09,11.09,0,0,1,2.75-7.66,9.32,9.32,0,0,1,7.34-3.07A9.65,9.65,0,0,1,197.24,162.14Z"/><path class="cls-1" d="M221.76,164q2.52,3.94,2.52,10.57t-2.52,10.57a9.27,9.27,0,0,1-15.55,0q-2.52-3.94-2.51-10.57T206.21,164a9.26,9.26,0,0,1,15.55,0ZM209,167.32a20,20,0,0,0-1,7.26,20.23,20.23,0,0,0,1,7.26q1.44,3.87,5,3.87c2.34,0,4-1.29,4.94-3.87a21.07,21.07,0,0,0,1-7.26,20.61,20.61,0,0,0-1-7.26c-1-2.58-2.6-3.87-4.94-3.87S210,164.74,209,167.32Z"/><path class="cls-1" d="M240.9,160.34v28.48h-4.34V165.57a15.76,15.76,0,0,1-6.54,3.59v-4.31a17.07,17.07,0,0,0,4.07-1.68,16.76,16.76,0,0,0,3.5-2.83Z"/><path class="cls-1" d="M269.46,163.57q2.67,3.7,2.67,10.21,0,6.9-2.83,11.25a9,9,0,0,1-7.82,4.34q-8.3,0-9.37-7.73h4.23c.56,2.76,2.28,4.14,5.18,4.14a5.44,5.44,0,0,0,4.71-2.91,13.07,13.07,0,0,0,1.71-6.89l0-.52h-.16a8.12,8.12,0,0,1-3,2.79,9.1,9.1,0,0,1-3.95.88,8.76,8.76,0,0,1-6.74-2.72,9.55,9.55,0,0,1-2.43-6.82,9.28,9.28,0,0,1,2.83-7,9.69,9.69,0,0,1,7.1-2.8A9.17,9.17,0,0,1,269.46,163.57Zm-12,1.56a6.29,6.29,0,0,0-1.59,4.46,5.88,5.88,0,0,0,1.59,4.35,5.36,5.36,0,0,0,4.19,1.68,5.49,5.49,0,0,0,4.23-1.68,6.29,6.29,0,0,0,1.55-4.47,6.14,6.14,0,0,0-1.59-4.42,5.46,5.46,0,0,0-4.15-1.68A5.29,5.29,0,0,0,257.45,165.13Z"/><path class="cls-1" d="M312.73,164q3.58,4,3.59,10.61a15.56,15.56,0,0,1-3.47,10.45c1.49,2,2.53,3.44,3.15,4.34l-2.79,2.48q-1.87-2.71-3.16-4.43a14.26,14.26,0,0,1-7.57,1.91q-6.51,0-10.25-4.22-3.56-4-3.55-10.53t3.55-10.57q3.66-4.26,10.25-4.27T312.73,164Zm-17.31,2.67c-1.6,1.94-2.39,4.59-2.39,7.94a12.15,12.15,0,0,0,2.39,7.9,8.72,8.72,0,0,0,7.06,3,9.7,9.7,0,0,0,5.1-1.28c-1.35-1.7-2.78-3.34-4.26-4.91l2.51-2.47c1.19,1.25,2.63,2.86,4.3,4.83a12.76,12.76,0,0,0,1.8-7.1,12.42,12.42,0,0,0-2.43-8.06,9.74,9.74,0,0,0-14.08.12Z"/><path class="cls-1" d="M332.75,160.34h4v18.83H341v3.46h-4.31v6.19h-4.14v-6.19H318.71v-4.1Zm-.28,5.51-10.21,13.32h10.33V165.85Z"/></svg>