<svg id="图层_1" data-name="图层 1" xmlns="http://www.w3.org/2000/svg" viewBox="0 0 500 640"><defs><style>.cls-1{fill:#fff;}.cls-2{fill:#fdda57;}.cls-3{fill:#33353c;}.cls-4{fill:#c1c1c1;}</style></defs><title>中文</title><rect class="cls-1" x="48.37" y="33.45" width="406.7" height="593"/><rect class="cls-2" x="32.62" y="13.55" width="434.77" height="110.56"/><path class="cls-1" d="M176.25,75.78a41.59,41.59,0,0,1-5.34,9.33l-3.27-2.4a37.68,37.68,0,0,0,5.29-8.56Zm8.1-29.14h4v3.69h16v3.74h-16v4.45h13.36V72.76H173V58.52h11.34Zm13.32,22.42v-6.8H177v6.8Zm-14.74,6.43q1.26,4,2.26,8.78l-4,.92a61.84,61.84,0,0,0-2-8.9Zm8.73-.55a79.58,79.58,0,0,1,3.19,9.24l-3.94.93a52.32,52.32,0,0,0-3-9.41Zm8.4-.92a74.66,74.66,0,0,1,6.09,9l-3.32,2.31a71.59,71.59,0,0,0-6-9.24Z"/><path class="cls-1" d="M214.59,57.85c-.75.81-1.66,1.74-2.73,2.77l-2.31-3a30.71,30.71,0,0,0,7.94-11.38l3.74.84A30.83,30.83,0,0,1,220,50H228a26.07,26.07,0,0,0-1.76-3.28l4.07-.67c.56,1.23,1.11,2.55,1.64,4h13.23v3.27h-13v2.14h11.34v3H232.19V60.5h11.34v3H232.19v2.23H246v3.31H214.59Zm-3.82,17.43V71.63h16.38V70h3.95v1.68h16.13v3.65H235.72q4.16,3.27,12,5.29L246,84.1q-10-3.41-14.36-8.82h-.55v9.91h-3.95V75.28h-.54q-4,5.2-14.2,9l-2.1-3.4q8.56-2.52,12.26-5.59Zm17.52-19.87V53.27h-10v2.14Zm0,5.09V58.44h-10V60.5Zm0,5.25V63.52h-10v2.23Z"/><path class="cls-1" d="M266.76,48.23q-4.5,13.19-11.85,20.12l-3.15-2.73q7.56-7.14,11.3-18.86ZM278.9,69a95.88,95.88,0,0,1,7.68,14.45l-3.74,1.68c-.61-1.57-1.2-2.94-1.76-4.12q-11.34,1.73-24.19,2.57l-.72-3.87q4.45-1.38,12.52-19.11L272.6,62a109.83,109.83,0,0,1-10.25,17.55q9.15-.63,17.09-1.93-2.06-4.08-4.16-7.39Zm-.76-22.59a38.6,38.6,0,0,0,12.18,18.73l-2.86,3.27a40.65,40.65,0,0,1-12.72-20.07Z"/><path class="cls-1" d="M301.53,47.31q-.24,1.21-.84,3.57h5.76v3.78H299.6c-.59,1.68-1.17,3.23-1.76,4.66h8v3.57h-3.11v4.33H307v3.69h-4.29v8.44a34,34,0,0,0,3.07-2.18l.67,3.44a29.52,29.52,0,0,1-7.14,3.62L297.84,81a1.64,1.64,0,0,0,1.09-1.55V70.91H294.6V67.22h4.33V62.89h-1.68V60.62l-.8,1.6-3.15-2a49.83,49.83,0,0,0,4.41-13.73Zm31,33.43-1,3.74h-5.88q-1.26,0-3.78-.09a17.72,17.72,0,0,1-5.08-.75,8.24,8.24,0,0,1-3.61-2.4,2.17,2.17,0,0,0-1.39-.88q-.88,0-3.48,4.79l-2.31-3a18.12,18.12,0,0,1,4.11-5V63.73h-2.94V60.2h6.6V77.42a9,9,0,0,0,3.15,2.52,15.56,15.56,0,0,0,4.24.8c2.13.06,3.72.08,4.79.08C327.59,80.82,329.79,80.8,332.53,80.74ZM309.89,47.1a50.07,50.07,0,0,1,4.2,6.72l-2.94,2.1a48.48,48.48,0,0,0-4.2-7Zm5.55,22.55h7.43V65.41h-6.55l-.76-3.28a39.8,39.8,0,0,0,3.49-7.81h-3.78V50.84h4.87c.39-1.43.77-2.9,1.13-4.41l3.53.84-.92,3.57h7.52v3.48h-8.61a50.77,50.77,0,0,1-3.15,7.6h3.23V56.59h3.7v5.33H331v3.49h-4.41v4.24h5.62v3.53h-5.62v6.3h-3.7v-6.3h-7.43Z"/><path class="cls-3" d="M115,244.42a35.07,35.07,0,0,1,1.34,3.7h15.84v2H97.58v-2h16.48a21.8,21.8,0,0,0-1.42-3.31Zm7.63,36-.51-1.93,3.18.08c1.79,0,2.67-.71,2.67-2.12V265.14h-26.1v15.34h-2V263.21h30.12v13.65q0,3.54-4,3.54Zm-18.36-27.21h21.35v7.23H104.23Zm19.3,5.5v-3.77H106.27v3.77Zm-16.12,9.4h15v7.59h-15Zm13,5.9v-4.17H109.34V274Z"/><path class="cls-3" d="M139.46,252.28A55.08,55.08,0,0,1,138,263.49l-1.77-.47a53.61,53.61,0,0,0,1.46-10.89Zm2.63-7.55h2.12v35.63h-2.12Zm4.84,6.69a53.74,53.74,0,0,1,2.47,6.92l-1.73.43a49.27,49.27,0,0,0-2.36-6.84Zm6.29,3a31.82,31.82,0,0,1-3.23,8.21l-1.61-1.41A32.15,32.15,0,0,0,152.2,247l2,.23a41.74,41.74,0,0,1-.51,5.15H160v-7.59h2.16v7.59H171v2.09h-8.85v10.1h8.14v2.09h-8.14v10.53h9.87v2.09H148.5v-2.09H160V266.64h-9.24v-2.09H160v-10.1Z"/><path class="cls-3" d="M189.51,247.41a63.71,63.71,0,0,1,5.62,8.49l-1.73,1.22c-.76-1.42-1.25-2.31-1.49-2.67a151.2,151.2,0,0,1-15.3,1.49l-.59-1.85a2.88,2.88,0,0,0,1-.55,35,35,0,0,0,6.41-8.84l2,.58a30,30,0,0,1-6.41,8.69q5.19-.22,11.88-1.1-1.69-2.55-3.07-4.4ZM180.43,273v7.59h-2.09V258.81h14.24v18.52c0,2-1,2.95-3,2.95h-3.34l-.51-2,3.18.12c1.05,0,1.57-.5,1.57-1.49V273Zm10.06-8V260.7H180.43V265Zm-10.06,1.89v4.25h10.06v-4.25Zm19.5-5.42c-2.2,0-3.3-1.16-3.3-3.46V244.58h2.08v5.62A100.19,100.19,0,0,0,209.8,248l.71,1.93q-4.87,1.25-11.8,2.28v5.38c0,1.29.62,1.93,1.85,1.93h5.51a2.52,2.52,0,0,0,1.84-.59c.45-.53.75-2.08.91-4.68l2,.67c-.23,3-.71,4.94-1.41,5.7a4.35,4.35,0,0,1-2.95.87Zm-1.1,14.82a1.51,1.51,0,0,0,1.69,1.73H206a2.38,2.38,0,0,0,1.88-.63c.48-.55.79-2.15.95-4.8l2,.63q-.35,4.68-1.41,5.82a4.35,4.35,0,0,1-3,.87h-6.49c-2.1,0-3.14-1.05-3.14-3.15V263.25h2.08v5.19a59,59,0,0,0,11-2.12l.71,2a62,62,0,0,1-11.68,2.08Z"/><path class="cls-3" d="M233.63,244.58a34.16,34.16,0,0,1,1.93,3.85h14.58v2H220.81v9.27q-.24,12.87-4.17,20.57L215,278.86q3.5-6.84,3.66-19.11V248.43h14.7a24.51,24.51,0,0,0-2-3.46Zm-6.1,20.92v11.56a48.2,48.2,0,0,0,4.76-1.46l.39,2q-3.13.94-7.74,2l-.43-1.89c.62-.15.94-.47.94-.94V255.59a164.28,164.28,0,0,0,21.12-2.52l1.06,1.77c-2.73.52-5.78,1-9.16,1.45.23,2.6.53,5,.9,7.16h9.75v2.05h-9.4c.32,1.57.63,2.92.95,4.05a20.18,20.18,0,0,0,2.91,6.17q1.6,2,2.79,2c.71-.08,1.41-2,2.12-5.66l1.73,1.14q-1.6,6.76-3.65,6.76-1.81,0-3.82-2.32a22.64,22.64,0,0,1-3.7-6.8,41.09,41.09,0,0,1-1.37-5.38Zm0-8.14v6.09h9.79c-.34-2-.65-4.32-.94-6.92C233.52,256.85,230.57,257.12,227.53,257.36Zm7.08,14.82a54.93,54.93,0,0,1,4.56,6.45l-1.65,1.22A48.22,48.22,0,0,0,233,273.2Z"/><path class="cls-3" d="M260.88,255.59v3.54q-.09,12.3-4.88,21.11l-1.57-1.38q4.27-7.67,4.36-19.73v-12.7h28v9.16Zm23.83-7.16H260.88v5.15h23.83Zm-22.1,17.89H289v2H273.85a43.21,43.21,0,0,1-6.84,9q8.58-.59,16.67-1.81-1.77-2.16-3.85-4.44l1.61-1a75.32,75.32,0,0,1,7.59,9.16l-1.69,1.22c-.73-1.1-1.5-2.18-2.28-3.23q-10.06,1.38-20.68,2.05l-.51-1.89.43-.16q2.74-1.65,7.31-8.92h-9Zm2.71-6.41h21.19v1.89H265.32Z"/><path class="cls-3" d="M294.81,248.94h11a40.72,40.72,0,0,0,1.46-4.4l2.16.23c-.29,1.08-.74,2.47-1.34,4.17h20.45V251H307.28a44.4,44.4,0,0,1-5.35,9.35v20.21H299.8V263a52.76,52.76,0,0,1-5,5l-1.3-1.73A44,44,0,0,0,305,251H294.81Zm10.46,18.13H317v-4a41.62,41.62,0,0,0,6.76-4.76H308.34v-2h18.12v2a52.88,52.88,0,0,1-7.39,5.66v3.07h10.11v2.08H319.07v8.18c0,2.05-1,3.07-3.11,3.07h-4.91l-.55-2c1.89.05,3.43.08,4.64.08a1.6,1.6,0,0,0,1.81-1.81v-7.51H305.27Z"/><path class="cls-3" d="M336.77,257.47a46.11,46.11,0,0,1-3.43,5.19l-.66-2.2a48.49,48.49,0,0,0,6.92-15.84l1.92.9a56.09,56.09,0,0,1-2.71,7.86v27.14h-2Zm3.93-.47h6.8v17.38q1.61-1.65,3.62-4.05l.55,2.13a49.72,49.72,0,0,1-6.14,6.4l-.82-1.92a2.06,2.06,0,0,0,.71-1.42V259.05H340.7Zm3.42-10.61a49.3,49.3,0,0,1,5.9,5.78l-1.62,1.61a37.36,37.36,0,0,0-5.74-6Zm8.22,3.06h4.91V244.7h2v4.75h4.64v1.85h-4.64V257h1.49a41.45,41.45,0,0,0,5.58-10.22l1.77,1a46.93,46.93,0,0,1-4.91,9.24h5.15v2h-6.61a31.82,31.82,0,0,1-4,4.17h8.5V280.4h-2.05v-1.73h-8.06v1.73h-2V265.85a29.8,29.8,0,0,1-3.34,1.85l-1.1-1.69a27.85,27.85,0,0,0,9.48-7h-7.83v-2h5.94v-5.7h-4.91Zm11.87,20.49v-4.88h-8.06v4.88Zm-8.06,1.89v4.95h8.06v-4.95Z"/><path class="cls-3" d="M385.92,245.84q-4.57,12.42-11.88,18.91l-1.65-1.46q7.62-6.72,11.52-18.24Zm10.46,20A87.6,87.6,0,0,1,404,279.53l-2,.87c-.66-1.55-1.33-3-2-4.37q-10.53,1.74-22.73,2.52l-.39-2q5.19-3.18,12.07-18.44l2.09.71q-5.39,11.71-10.66,17.58,9.92-.7,18.68-2.2a61.09,61.09,0,0,0-4.56-7.71Zm-.63-21a37.07,37.07,0,0,0,12.19,18.33l-1.46,1.73a38.39,38.39,0,0,1-12.54-19Z"/><path class="cls-3" d="M417.92,245.17q-.59,2.75-1,4.2h6.41v2h-7a46.07,46.07,0,0,1-3.18,7.59L411.47,258a49.56,49.56,0,0,0,4.45-13.22Zm-3.18,12h7.78v1.93H419.1v5.62h4.56v2H419.1v10.11a22.48,22.48,0,0,0,3.81-2.44l.4,1.93a25.38,25.38,0,0,1-6.29,3.26l-.83-1.77a1.21,1.21,0,0,0,.83-1.18v-9.91h-4.6v-2H417v-5.62h-2.28Zm32.63,20.6-.55,2.09H441.4c-.82,0-2,0-3.58-.08a15.66,15.66,0,0,1-4.72-.75,7.51,7.51,0,0,1-3.46-2.4c-.5-.57-.93-.86-1.3-.86q-1.09,0-3.89,4.56l-1.26-1.57c1.65-2.62,3.08-4.24,4.29-4.84V260H424v-2h5.42v16a4.25,4.25,0,0,1,.75.67,7.79,7.79,0,0,0,3,2.36,15.82,15.82,0,0,0,3.89.74c2,.05,3.47.08,4.44.08C443,277.84,444.91,277.81,447.37,277.76Zm-21.58-32.2a54.5,54.5,0,0,1,4.32,6.13l-1.61,1.14a47.87,47.87,0,0,0-4.33-6.25Zm5.78,21.55h7.59V261.6h-6.73l-.35-1.85a44.08,44.08,0,0,0,3.89-8.57h-4.21v-1.92h4.84c.52-1.87.94-3.41,1.26-4.64l1.92.43-1.17,4.21h7.86v1.92H438a53.58,53.58,0,0,1-3.73,8.54h4.88v-5.51h2v5.51h5v1.88h-5v5.51h6.06V269h-6.06v7h-2v-7h-7.59Z"/><path class="cls-3" d="M112.88,367.51a53.46,53.46,0,0,1,4.56,5.31A24,24,0,0,0,128.37,364H116.22a46.4,46.4,0,0,1-12.54,3.7l-1.26-1.89q12.77-1.29,19.07-7.94l1.81,1a22.37,22.37,0,0,1-3.7,3.19h11.48v1.69q-8.3,14-31.1,14.51l-.87-2.09a51.44,51.44,0,0,0,16.32-2.51,43.51,43.51,0,0,0-4.44-5.15ZM116.93,344a22.62,22.62,0,0,1-2.76,2.67H126v1.73q-6.37,11.33-23.63,12.7l-.91-2a41.18,41.18,0,0,0,10-1.77,29.75,29.75,0,0,0-4.13-4.37l1.85-.9a41.72,41.72,0,0,1,4.29,4.56,21.24,21.24,0,0,0,10-8H111.38a34.75,34.75,0,0,1-10.89,4.13l-1.26-1.89Q109.85,348.75,115,343Z"/><path class="cls-3" d="M138.47,345h31.58v2.12H155.11v15.54H171.5v2.08H155.11v14.16H153V364.72H136.9v-2.08H153V347.1H138.47Zm4.25,5.15a83.1,83.1,0,0,1,4.32,9.09l-2,1a72.2,72.2,0,0,0-4.29-9.12Zm25.09.63a52.44,52.44,0,0,1-4.88,9.32l-1.93-1a49.52,49.52,0,0,0,4.84-9.24Z"/><path class="cls-3" d="M177.24,356.42Q183,354.07,190.42,343l2.16.74a54.91,54.91,0,0,1-11.36,12.62q12.76-.54,23.07-1.57-2.59-3.54-5.19-6.49l2-.94a110,110,0,0,1,9.71,13.05l-2,1q-1.14-1.89-3.11-4.76-12.49,1.18-28,1.77Zm29.18,6.41V379h-2.13v-2.24H182.75V379h-2.13V362.83Zm-23.67,11.8h21.54v-9.75H182.75Z"/><path class="cls-3" d="M220.18,355.87a46.13,46.13,0,0,1-5,6l-.67-2.2a45.33,45.33,0,0,0,9.67-16.71l2,.9a45.22,45.22,0,0,1-3.9,8.69V379h-2.12ZM249,352.73l.36,2-13.25,1.61a49.44,49.44,0,0,0,1.06,7.28,24.93,24.93,0,0,0,4.13,9.55q2.4,3.19,4.56,3.31,1.8-.09,2.63-7.87l1.85,1.1a24.76,24.76,0,0,1-1.89,7.16,3,3,0,0,1-2.47,1.73q-2.83,0-5.86-3.74a26.51,26.51,0,0,1-5-10.61,50.55,50.55,0,0,1-1.18-7.63l-8.81,1.06-.31-2,9-1.11q-.39-5.39-.43-11.67h2.13q0,5.9.39,11.4Zm-9-9.4a43.07,43.07,0,0,1,6.13,6.09l-1.45,1.42a43,43,0,0,0-6.1-6.21Z"/><path class="cls-3" d="M279.52,374.16,279,372l3.34.08a1.53,1.53,0,0,0,1.73-1.73V357.13H273.3V379h-2.12V357.13H260.41v17.11h-2.13V355.09h12.9v-6.85q-7.47.63-15.3.63l-.71-2q19.44,0,31.89-3.42l1.11,1.89a84.89,84.89,0,0,1-14.87,2.75v7h12.86v15.69q0,3.38-3.15,3.38Z"/><path class="cls-3" d="M301.14,343.45c-.37,1.41-.78,2.84-1.26,4.28h7.83v2h-8.53a46.29,46.29,0,0,1-3.82,7.55l-1.73-1.1A44.21,44.21,0,0,0,299.1,343Zm-3.54,11.87h9v2h-4V363h5.7v2h-5.7v9.68a29.75,29.75,0,0,0,6.36-3.62l.36,2a36.1,36.1,0,0,1-9,4.56l-.91-1.85c.71-.24,1.06-.57,1.06-1V365h-5.82v-2h5.82v-5.7H297.6Zm29.45-5.15.32,2.05-9.83,1.61c.08,2.28.21,4.24.39,5.9L328,357.92l.31,2-10.18,1.85a22.75,22.75,0,0,0,.35,2.44,36.22,36.22,0,0,0,1.45,5.42,36.85,36.85,0,0,0,5.47-6.72l1.69,1.1a42.51,42.51,0,0,1-6.37,7.59,11.57,11.57,0,0,0,.83,1.65q2,3,3.54,3t2.63-6.33l1.85,1.18c-1,4.9-2.41,7.35-4.25,7.35s-3.42-1.24-5.07-3.58c-.52-.84-.89-1.46-1.1-1.88a31.07,31.07,0,0,1-10.46,5.66l-1.22-1.61a32.11,32.11,0,0,0,10.85-5.94,35.58,35.58,0,0,1-1.77-5.9c-.13-.68-.3-1.7-.51-3.07l-6.76,1.22-.31-2,6.8-1.22q-.29-2.36-.43-5.94l-5.79.95-.27-2,6-1V343h2.13v7.54a11.54,11.54,0,0,0,0,1.18Zm-5.38-7.12a38.26,38.26,0,0,1,4.24,4.76L324.26,349a39.57,39.57,0,0,0-4.21-4.91Z"/><path class="cls-3" d="M345.1,343.13c-.63,1.5-1.3,2.95-2,4.37h22.26q0,14.5-.59,17.93-.47,3.81-4.4,3.81c-.45,0-1.26,0-2.44-.12l-.51-1.88c1.07.08,2,.11,2.75.11,1.44,0,2.28-.86,2.52-2.59s.47-6.71.55-15.26H342a41,41,0,0,1-6.8,8.65l-1.49-1.77a38.66,38.66,0,0,0,9.24-13.76Zm10.7,12.07v11.37H341.44v8c0,1.21.66,1.82,2,1.85h19.27a2.34,2.34,0,0,0,2.12-1.34,21.64,21.64,0,0,0,.75-5l2,.67a23.67,23.67,0,0,1-.86,5.26,3.5,3.5,0,0,1-3.46,2.36H342.7q-3.37,0-3.38-3.14v-20Zm-14.36,9.4h12.23v-7.43H341.44Z"/><path class="cls-3" d="M95.35,460.31h34v2.08H118v10.18a1.58,1.58,0,0,0,1.8,1.77h5.47a2.12,2.12,0,0,0,1.81-.74c.44-.66.75-2.55.9-5.67l2,.63q-.36,5.51-1.42,6.81a3.65,3.65,0,0,1-2.87,1h-6.52q-3.31,0-3.31-3.38V462.39h-7.12v.43a14.07,14.07,0,0,1-3.14,9.28q-3,3.22-9.63,5.11l-1.22-1.88q6.6-1.74,9.28-4.64a12.68,12.68,0,0,0,2.59-7.87v-.43H95.35Zm33.42-14.67v8.45h-2.13v-6.41H97.94v6.41H95.82v-8.45h15.49a38.25,38.25,0,0,0-1.65-4.05l2.36-.39a36.16,36.16,0,0,1,1.57,4.44Zm-27.45,7.27h21.86v2H101.32Z"/><path class="cls-3" d="M166.24,453.9A45.94,45.94,0,0,1,160,467.27a22,22,0,0,0,2.08,3.89c1.42,2,2.58,2.95,3.5,2.95s1.61-2.14,2.24-6.33l1.93,1c-.87,5.11-2.12,7.67-3.78,7.67s-3.36-1.18-5.22-3.54a16.82,16.82,0,0,1-2.21-3.78,27.4,27.4,0,0,1-10,7.71l-1.22-1.81a26.76,26.76,0,0,0,10.3-8.1,40.72,40.72,0,0,1-1.53-4.8,72.67,72.67,0,0,1-1.66-12.7H140.17v7.16h9.63q-.08,9.4-.7,12.35a3.37,3.37,0,0,1-3.43,2.75c-1,0-2.12,0-3.46-.12l-.66-2c2,.1,3.34.15,3.89.15,1-.08,1.61-.76,1.85-2a71.6,71.6,0,0,0,.39-9.08h-7.51v1.8q-.15,10.35-4.48,16.6l-1.61-1.46q3.84-5.43,4-15.14v-13h16.24q-.12-3.07-.12-6.37h2.12c0,1.62,0,3.75.16,6.37H169v2H156.57a66.28,66.28,0,0,0,1.57,12.19c.29,1.1.6,2.18.94,3.23a42,42,0,0,0,5.23-11.8Zm-5.31-12.7a35.25,35.25,0,0,1,5,4.48l-1.42,1.38a37.49,37.49,0,0,0-4.91-4.57Z"/><path class="cls-3" d="M178.31,454a46.71,46.71,0,0,1-4.95,6l-.67-2.2a45.33,45.33,0,0,0,9.67-16.71l2,.9a45,45,0,0,1-3.9,8.69v26.47h-2.12Zm28.78-3.15.36,2-13.25,1.62a49.48,49.48,0,0,0,1.06,7.27,25,25,0,0,0,4.13,9.56q2.4,3.18,4.56,3.3c1.2-.05,2.08-2.68,2.63-7.87l1.85,1.11a24.77,24.77,0,0,1-1.89,7.15,3,3,0,0,1-2.47,1.73q-2.83,0-5.86-3.73a26.62,26.62,0,0,1-5-10.62,50.34,50.34,0,0,1-1.18-7.63l-8.8,1.06-.32-2,9-1.1q-.4-5.38-.44-11.68h2.13q0,5.9.39,11.4Zm-9-9.4a43.65,43.65,0,0,1,6.13,6.1L202.73,449a43,43,0,0,0-6.1-6.21Z"/><path class="cls-3" d="M237.65,472.3l-.55-2.16,3.34.08a1.53,1.53,0,0,0,1.73-1.73V455.27H231.43v21.87h-2.12V455.27H218.54v17.11h-2.13V453.23h12.9v-6.84q-7.47.63-15.3.63l-.7-2q19.42,0,31.89-3.42l1.1,1.89a84,84,0,0,1-14.87,2.75v7h12.86v15.69q0,3.38-3.15,3.38Z"/><path class="cls-3" d="M278.62,476.31q-2.08,0-7.28-.08a28.26,28.26,0,0,1-6.37-.75,9.31,9.31,0,0,1-4.4-3,2.13,2.13,0,0,0-1.57-1c-1.11,0-2.82,1.92-5.15,5.74l-1.62-1.45q3.39-5.38,5.82-6.25V457.08h-5.93V455h7.94v14.63a4.65,4.65,0,0,1,1.34,1.14,10,10,0,0,0,3.38,2.63,19.26,19.26,0,0,0,5.62.87c2.78,0,5.42.07,7.94.07l5.15,0,4-.16-.51,2.2ZM254.51,442a49.13,49.13,0,0,1,6.81,6.06l-1.54,1.53a41.71,41.71,0,0,0-6.72-6.17Zm8.77,12.7h10.66v-8.84q-3.82.59-9,1.1l-.43-2a100.72,100.72,0,0,0,19.19-3.26l.75,2q-3.46.94-8.38,1.85v9.2h10.58v2.05H276.06v14.86h-2.12V456.73H263.28Z"/><path class="cls-3" d="M291.59,444.07a61.07,61.07,0,0,0,12.66-2.48l.75,2c-2,.57-3.77,1-5.19,1.33v7.24h5.43v2.08h-5.43v2.44a66.21,66.21,0,0,1,5.74,5.39l-1.18,1.73a65.09,65.09,0,0,0-4.56-5.23V476.9h-2.12V458.07a36.52,36.52,0,0,1-6.18,10.85l-.9-2.24a31.68,31.68,0,0,0,6.92-12.43h-6.06v-2.08h6.22v-6.84q-2.2.35-5.7.74ZM321,457a15.77,15.77,0,0,1-2.67,3.19h8.34V462q-3.66,10.5-21.63,14.9l-1.1-2a46.13,46.13,0,0,0,11.64-4.05q-1.81-1.87-3.78-3.77l1.54-1.1q2.16,1.92,4,3.89a17.54,17.54,0,0,0,7.12-7.78h-8.66a32.62,32.62,0,0,1-9.87,4.12l-1.25-1.92q10.38-2.47,14.43-8.22Zm-4.32-15.49c-.63,1-1.3,2-2,2.95H324v1.73q-3.42,9.17-17.54,13.13l-1.13-1.57a36.77,36.77,0,0,0,8.41-3.26,21.57,21.57,0,0,0-3.15-3.58l1.5-1.14a18.15,18.15,0,0,1,3.18,3.81,18.73,18.73,0,0,0,6.61-7.27H313.1a28.49,28.49,0,0,1-6.37,4.8l-1.42-1.69a24.73,24.73,0,0,0,9.33-8.38Z"/><path class="cls-3" d="M97.63,541.17h30.94v2H99.71v28.43h30v2.05h-32Zm7.59,6.41q5.27,3.93,10.41,8.53a45.47,45.47,0,0,0,6.18-10.42l1.92,1a47,47,0,0,1-6.48,10.85q4.95,4.53,8.81,8.85L124.44,568a107.2,107.2,0,0,0-8.57-8.84A35,35,0,0,1,103.56,568l-1.22-1.92a33.09,33.09,0,0,0,11.92-8.38Q109,553.09,103.68,549Z"/><path class="cls-3" d="M134,550.17h4.83V539.75H141v10.42h4.6v2.13H141v13.88c2.15-.82,4-1.59,5.54-2.32V566A70.44,70.44,0,0,1,134,570.54l-.55-2.16q3-.71,5.42-1.46V552.3H134Zm13.45-4.44h7.43v-6.21H157v6.21h8.57v11.4h3.66v2.09h-11.6a30.64,30.64,0,0,0,11.91,14.31l-1.41,1.65a33.08,33.08,0,0,1-12.07-15q-2.37,10.46-10.54,15.18l-1.3-1.73q8-4.36,10-14.39h-8.34v-2.09h8.69a39.47,39.47,0,0,0,.36-5.42v-4h-7.43Zm9.51,2v3.54a46.48,46.48,0,0,1-.39,5.86h6.84v-9.4Z"/><path class="cls-3" d="M174.54,549.39a46.77,46.77,0,0,1,6.37,6.25l-1.46,1.45a42.72,42.72,0,0,0-6.37-6.29Zm.67-9.24a46.73,46.73,0,0,1,6.56,6.44l-1.49,1.5a45.14,45.14,0,0,0-6.53-6.53ZM181.85,561a126.33,126.33,0,0,1-6.09,14.28l-2-.87A109.38,109.38,0,0,0,180,560.28ZM183,546.28h5.94a58.28,58.28,0,0,0-2.2-6.21l2.12-.4a56.6,56.6,0,0,1,2.08,6.61h5v2.12H194a75.16,75.16,0,0,1-2.79,13.45q2.83,4.88,4.84,9.08l-1.66,1.22c-1.25-2.67-2.6-5.31-4-7.9l-.08.2a32.86,32.86,0,0,1-8.25,11l-1.34-1.7a31.84,31.84,0,0,0,7.71-10.1l.67-1.65q-2.52-4.32-5.47-8.77l1.61-1c1.91,2.88,3.48,5.33,4.68,7.35A77.33,77.33,0,0,0,192,548.4h-9ZM198.6,575.1l-.43-2.08q3.3.15,4.83.15c1.29,0,1.93-.68,1.93-2v-31.5H207v32c0,2.31-1.08,3.46-3.26,3.46Zm0-32.16h2v24.73h-2Z"/><path class="cls-3" d="M228.64,558.9h2.09v2.68a12.08,12.08,0,0,1-3.94,9.08q-3.69,3.15-12.11,5l-1.25-1.92c5.55-1.11,9.51-2.61,11.87-4.53a10.31,10.31,0,0,0,3.34-7.62Zm-13-17.73h2.08v10.14h-2.08Zm24.57,12.9v13.8h-2.08V556H221.8V568h-2.08V554.07Zm-16.83-14.63h2.09v12.74h-2.09Zm10.89,5.23a22.25,22.25,0,0,1-4.6,6.17l-1.57-1.49a23.68,23.68,0,0,0,6.17-10.19l2.05.55c-.42,1.21-.79,2.19-1.1,2.95h12.11v2Zm.83,30.08c-2.18,0-3.26-1.13-3.26-3.38v-7.79h2.08v7.35a1.6,1.6,0,0,0,1.81,1.81h6.61a3,3,0,0,0,2.16-.67q.75-.86,1.06-5l2,.67q-.39,4.92-1.57,6.09a4.79,4.79,0,0,1-3.26,1Zm2.71-28.51a34.12,34.12,0,0,1,6.53,5.07l-1.37,1.54a38.78,38.78,0,0,0-6.57-5.35Z"/><path class="cls-3" d="M252.35,554.65h13.37a14.12,14.12,0,0,0,2-3.46l2,.24a21.12,21.12,0,0,1-1.69,3.22h11.25a24.34,24.34,0,0,0-2-3l1.89-.59a20.6,20.6,0,0,1,2.24,3.57h5.51v2H275.59q3.89,4.13,12.15,6.49l-.86,1.81c-.87-.29-1.93-.7-3.19-1.22v11.72h-2v-1.85h-8.06v1.85h-2V563.34h11.09c-4.23-1.88-7.34-4.12-9.36-6.72h-6.88a25.64,25.64,0,0,1-9.68,6.72h10.66v12.08h-2v-1.85h-7.43v1.85h-1.92v-11.8a39,39,0,0,1-3.7,1.3l-1-1.77q8.14-2.48,12.43-6.53h-11.6Zm3.26-13.52h11.53v9.08H255.61Zm9.56,7.23V543h-7.55v5.38Zm-7,23.36h7.43v-6.49h-7.43Zm14-30.59h11.68v9.08H272.09Zm1.57,30.59h8.06v-6.49h-8.06Zm8.1-23.36V543h-7.7v5.38Z"/><path class="cls-3" d="M306,539.48h2.21V551.9h14.55V554H308.19v17.61h18.2v2.09h-34.8v-2.09H306Z"/><path class="cls-3" d="M339.72,540.11a61,61,0,0,1-6.45,12.81q2.84-.27,6.17-.78c1.79-3.36,2.6-4.9,2.44-4.64l1.93.75q-5.58,10.53-9.16,14.66a61.62,61.62,0,0,0,9.16-2.32v1.93a66.41,66.41,0,0,1-11.72,2.67l-.55-2a4.12,4.12,0,0,0,1-.59,48.17,48.17,0,0,0,5.86-8.54q-3.74.55-7.11.95l-.55-2a2.24,2.24,0,0,0,.9-.82,62,62,0,0,0,6.09-13ZM344.24,570A71.46,71.46,0,0,1,331,573.76l-.27-2.08A74,74,0,0,0,344.24,568Zm19-23.4.32,2-10.34,1.45q.12,3.42.39,5.94l10.7-1.69.31,2-10.77,1.73c.08.63.22,1.53.43,2.68a31.61,31.61,0,0,0,1.57,5.66,36.34,36.34,0,0,0,6.18-7.2l1.73,1.11a42,42,0,0,1-7.08,8.06c.31.63.56,1.08.74,1.37q2,3,3.7,2.95c1.13,0,2.08-2.28,2.87-6.84l1.85,1.18q-1.53,7.93-4.48,7.94-2.76-.07-5.23-3.62a20,20,0,0,1-1.07-1.69,30.25,30.25,0,0,1-9.63,5L344.2,573a32.42,32.42,0,0,0,10-5.15,31,31,0,0,1-1.85-6c-.16-.73-.34-1.86-.55-3.38l-7.35,1.18-.31-2,7.39-1.18c-.21-1.8-.34-3.8-.4-6l-6,.86-.28-2,6.25-.91v-8.92h2.13v8.61Zm-5.74-7.19a42.58,42.58,0,0,1,4.92,5l-1.69,1.18a41.38,41.38,0,0,0-4.84-5.15Z"/><circle class="cls-4" cx="80.34" cy="262.51" r="4.37"/><circle class="cls-4" cx="80.34" cy="360.81" r="4.37"/><circle class="cls-4" cx="80.34" cy="459.11" r="4.37"/><circle class="cls-4" cx="80.34" cy="557.41" r="4.37"/><path class="cls-2" d="M185.77,175.14a8.37,8.37,0,0,1,2.73,6.45,10.41,10.41,0,0,1-2.94,7.09,43.37,43.37,0,0,1-6.2,4.82q-4.81,3.18-5.79,5.66h15v4H167.91a11.47,11.47,0,0,1,3-7.84,38.82,38.82,0,0,1,6.75-5.45,34,34,0,0,0,4.28-3.43,7.29,7.29,0,0,0,2.05-4.91,4.84,4.84,0,0,0-1.38-3.77,5.85,5.85,0,0,0-4.07-1.26,5,5,0,0,0-4.27,1.93,9.26,9.26,0,0,0-1.6,5.49h-4.57a11.64,11.64,0,0,1,2.9-8.05,9.77,9.77,0,0,1,7.71-3.23A10.1,10.1,0,0,1,185.77,175.14Z"/><path class="cls-2" d="M211.56,177.11q2.64,4.14,2.64,11.11t-2.64,11.11a9.75,9.75,0,0,1-16.35,0q-2.64-4.16-2.65-11.11t2.65-11.11a9.73,9.73,0,0,1,16.35,0Zm-13.38,3.48a21.16,21.16,0,0,0-1.09,7.63,21.39,21.39,0,0,0,1.09,7.63q1.51,4.07,5.2,4.06t5.2-4.06a22,22,0,0,0,1.09-7.63,21.54,21.54,0,0,0-1.09-7.63q-1.52-4.07-5.2-4.07T198.18,180.59Z"/><path class="cls-2" d="M231.68,173.25v29.93h-4.57V178.74a16.51,16.51,0,0,1-6.88,3.78V178a16.26,16.26,0,0,0,8-4.74Z"/><path class="cls-2" d="M261.69,176.65q2.82,3.9,2.81,10.73,0,7.25-3,11.82a9.51,9.51,0,0,1-8.22,4.57q-8.72,0-9.85-8.13h4.44c.59,2.9,2.4,4.36,5.45,4.36a5.72,5.72,0,0,0,5-3.06,13.81,13.81,0,0,0,1.8-7.26l0-.54h-.17a8.36,8.36,0,0,1-3.18,2.93,9.46,9.46,0,0,1-4.16.93,9.18,9.18,0,0,1-7.08-2.85,10,10,0,0,1-2.56-7.17,9.74,9.74,0,0,1,3-7.38,10.18,10.18,0,0,1,7.46-2.94A9.6,9.6,0,0,1,261.69,176.65Zm-12.61,1.63a6.62,6.62,0,0,0-1.68,4.7,6.19,6.19,0,0,0,1.68,4.57,5.63,5.63,0,0,0,4.4,1.76,5.78,5.78,0,0,0,4.44-1.76,6.64,6.64,0,0,0,1.64-4.7,6.44,6.44,0,0,0-1.68-4.65,5.73,5.73,0,0,0-4.36-1.76A5.54,5.54,0,0,0,249.08,178.28Z"/><path class="cls-2" d="M307.18,177.11q3.76,4.19,3.77,11.15a16.28,16.28,0,0,1-3.65,11c1.57,2.1,2.67,3.62,3.32,4.57l-2.94,2.6c-1.31-1.9-2.42-3.45-3.31-4.65a15.07,15.07,0,0,1-8,2q-6.82,0-10.77-4.44-3.74-4.25-3.73-11.07t3.73-11.11q3.86-4.49,10.77-4.49T307.18,177.11ZM289,179.92q-2.5,3.06-2.51,8.34a12.84,12.84,0,0,0,2.51,8.3,9.21,9.21,0,0,0,7.42,3.19,10.15,10.15,0,0,0,5.37-1.35c-1.42-1.78-2.92-3.5-4.48-5.15l2.64-2.6q1.88,2,4.52,5.07a13.4,13.4,0,0,0,1.89-7.46q0-5.32-2.56-8.47t-7.38-3.1A9,9,0,0,0,289,179.92Z"/><path class="cls-2" d="M332.75,175.14a8.37,8.37,0,0,1,2.73,6.45,10.41,10.41,0,0,1-2.94,7.09,43.37,43.37,0,0,1-6.2,4.82q-4.83,3.18-5.79,5.66h15v4H314.89a11.42,11.42,0,0,1,3-7.84,38.82,38.82,0,0,1,6.75-5.45,33.72,33.72,0,0,0,4.27-3.43,7.3,7.3,0,0,0,2.06-4.91,4.84,4.84,0,0,0-1.38-3.77,5.87,5.87,0,0,0-4.07-1.26,5,5,0,0,0-4.28,1.93,9.19,9.19,0,0,0-1.59,5.49h-4.57a11.68,11.68,0,0,1,2.89-8.05,9.78,9.78,0,0,1,7.72-3.23A10.14,10.14,0,0,1,332.75,175.14Z"/></svg>