<svg id="图层_1" data-name="图层 1" xmlns="http://www.w3.org/2000/svg" viewBox="0 0 500 640"><defs><style>.cls-1{fill:#6ae276;}.cls-2{fill:#fff;}.cls-3{fill:#33353c;}.cls-4{fill:#c1c1c1;}</style></defs><title>中文</title><rect class="cls-1" x="37.22" y="112.95" width="22.33" height="22.33" transform="translate(-73.59 70.57) rotate(-45)"/><rect class="cls-2" x="48.39" y="33.45" width="406.7" height="593"/><rect class="cls-1" x="32.64" y="13.55" width="434.77" height="110.56"/><path class="cls-2" d="M169.21,47.9h12.9V61.38a21.86,21.86,0,0,0,7.18-7.1h-5.63V50.71h7.43a25.88,25.88,0,0,0,1.31-4.33l3.52.42a30.83,30.83,0,0,1-1,3.91h9.87v3.57h-5.88a18.33,18.33,0,0,0,7.69,7.22L204.87,65a26.59,26.59,0,0,1-5.59-4.37v1.85H189V60.75a25.63,25.63,0,0,1-5.75,4.45l-1.85-3.36c.06-.05.1-.08.13-.08h-3.11v5.83h3.9v3.7h-3.9v6.64c1.29-.39,2.85-.93,4.7-1.6v3.82a148.53,148.53,0,0,1-14.49,4.29l-1.13-3.66,1.64-.38V65.54h3.44v14l2.14-.54V61.76h-5.46Zm9.16,10.24V51.51H173v6.63Zm5.25,7.65h21v3.44H191.64l-1,3.45H202.9q-.42,8.89-1.85,10.58c-.93,1.06-2.76,1.6-5.5,1.6a13.14,13.14,0,0,1-2.78-.3l-1.26-3.36a18.62,18.62,0,0,0,3.28.34c1.62,0,2.66-.31,3.11-.93a12.41,12.41,0,0,0,.84-4.45H185.93l1.76-6.93h-4.07Zm14.28-6.72A19.55,19.55,0,0,1,195,54.28H193.4a25.44,25.44,0,0,1-3,4.79Z"/><path class="cls-2" d="M217.55,47.31q-.24,1.21-.84,3.57h5.76v3.78h-6.85c-.59,1.68-1.17,3.23-1.76,4.66h8v3.57h-3.11v4.33h4.29v3.69h-4.29v8.44a34,34,0,0,0,3.07-2.18l.67,3.44a29.52,29.52,0,0,1-7.14,3.62L213.86,81A1.64,1.64,0,0,0,215,79.4V70.91h-4.33V67.22H215V62.89h-1.68V60.62l-.8,1.6-3.15-2a49.83,49.83,0,0,0,4.41-13.73Zm31,33.43-1,3.74h-5.88q-1.26,0-3.78-.09a17.72,17.72,0,0,1-5.08-.75,8.24,8.24,0,0,1-3.61-2.4,2.17,2.17,0,0,0-1.39-.88q-.88,0-3.48,4.79l-2.31-3a18.12,18.12,0,0,1,4.11-5V63.73h-2.94V60.2h6.6V77.42a9,9,0,0,0,3.15,2.52,15.56,15.56,0,0,0,4.24.8c2.13.06,3.72.08,4.79.08C243.61,80.82,245.81,80.8,248.55,80.74ZM225.91,47.1a50.07,50.07,0,0,1,4.2,6.72l-2.94,2.1a48.48,48.48,0,0,0-4.2-7Zm5.55,22.55h7.43V65.41h-6.55l-.76-3.28a39.8,39.8,0,0,0,3.49-7.81h-3.78V50.84h4.87c.39-1.43.77-2.9,1.13-4.41l3.53.84-.92,3.57h7.52v3.48h-8.61a50.77,50.77,0,0,1-3.15,7.6h3.23V56.59h3.7v5.33H247v3.49h-4.41v4.24h5.62v3.53h-5.62v6.3h-3.7v-6.3h-7.43Z"/><path class="cls-2" d="M252.25,47.81h20.24v3.57H252.25Zm13.18,37.05-1-3.53,2.77.21c.73,0,1.09-.28,1.09-.84V68.06H256.28V85.19h-3.45V64.78h18.95V81.45q0,3.4-3.36,3.41ZM254.51,53.31H270.1v9.58H254.51Zm2.86,21h1.81a25.93,25.93,0,0,0-1.68-4.29l2.47-.8a21.69,21.69,0,0,1,1.68,4.5l-2.14.59h3a46.52,46.52,0,0,0,1.8-5.38l2.69.92a35.73,35.73,0,0,1-1.64,4.46h1.85v3h-3.49v7.27H260.6V77.38h-3.23Zm9.24-14.58V56.42H258v3.36Zm6.64-6.26H279v-7h3.74v7h5.92V71.08h-5.92v8.19l3-.63c-.5-1.9-.94-3.4-1.3-4.49l3.07-1a74.79,74.79,0,0,1,3,10.71l-3.4.8L286.56,82q-6.26,1.52-12.94,2.52l-.92-3.74q4.11-.5,6.3-.84V71.08h-5.75Zm6,14.12V57h-2.6V67.64Zm6.05,0V57h-2.77V67.64Z"/><path class="cls-2" d="M314.49,46.3a60.3,60.3,0,0,0,18.23,14.11l-2.14,3.82a60.49,60.49,0,0,1-6.51-4v3H302V60.12a67.15,67.15,0,0,1-6.67,4.2l-2.1-3.87A60.73,60.73,0,0,0,311.55,46.3Zm12.22,21.38V85.11h-3.86V82.84H303.19v2.27h-3.86V67.68Zm-3.78-8.32A57.74,57.74,0,0,1,313,49.91a54.32,54.32,0,0,1-10,9.45Zm-19.74,19.7h19.66V71.42H303.19Z"/><path class="cls-3" d="M101.13,287.49l-.45-2c1.67.1,2.86.15,3.56.15a1.74,1.74,0,0,0,2-2v-9.75q-2.43.84-5.66,1.75l-.49-2c2.23-.54,4.27-1.12,6.15-1.75v-9.22h-5.54v-2h5.54v-7.32h2v7.32h4.89v2h-4.89v8.5q2.26-.87,4.89-2.12v2q-2.39,1.06-4.89,2.05v11q0,3.27-3.23,3.27Zm11.61-31.87h21.2v2.05H122.37a40,40,0,0,1-2.84,10.58H132.2V287.9h-2V286H119.3v1.93h-2V272.46A30,30,0,0,1,111.6,279l-1-1.9q8.14-7,9.75-19.46h-7.63ZM130.19,284V270.23H119.3V284Z"/><path class="cls-3" d="M143.35,276.14a37.62,37.62,0,0,1-4,11.72l-1.63-1.44q4.17-7.25,4.21-18.7V254.86h27.46v8.54h-5.27v4.44h6.14v1.89h-6.14v4.52h7.36v1.89H158.79a19.13,19.13,0,0,0,4,5.12,17,17,0,0,0,5.46-4.47l1.41,1.4a17.46,17.46,0,0,1-5.28,4.33,21.52,21.52,0,0,0,8.27,3.52l-.95,1.9q-10.65-2.61-15-11.8H151.2v9.18a43.34,43.34,0,0,0,6.79-2.27l.38,1.89a63.44,63.44,0,0,1-9.67,2.81l-.57-1.82a1.55,1.55,0,0,0,1.06-1.52v-8.27Zm2.73-8.3h5.73v-4.37h2v4.37h8.27V263.4H144v4.32a52.4,52.4,0,0,1-.41,6.53h8.19v-4.52h-5.73Zm21.28-11H144v4.74h23.33Zm-13.54,17.45h8.27v-4.52h-8.27Z"/><path class="cls-3" d="M193.76,252.93a34.66,34.66,0,0,1,2.17,4.1h14v2H181.59v8.87q-.15,12.45-4,19.95l-1.7-1.55q3.45-6.6,3.64-18.4V257h14.22a28.14,28.14,0,0,0-2.23-3.72Zm-11,31.14h15.93a109.79,109.79,0,0,0,6.38-20.37l2,.57a105.94,105.94,0,0,1-6.19,19.8h8.46v2H182.8Zm3.64-18.55a112.15,112.15,0,0,1,4.14,14l-1.94.53a119.22,119.22,0,0,0-4-13.92Zm7.36-2.65a117.86,117.86,0,0,1,3.57,14.45l-1.94.49A136.63,136.63,0,0,0,192,263.47Z"/><path class="cls-3" d="M219.71,275.27a22.26,22.26,0,0,1-4.29,12.18L213.91,286q3.75-5.16,3.87-13.16v-18h27.69v28.37q0,3.72-3.72,3.72h-4.36l-.54-2c1.52.08,2.93.12,4.22.12,1.56,0,2.35-.86,2.35-2.58v-7.25H232.3v11.3h-2v-11.3Zm.15-9.22v7l0,.31h10.44v-7.29Zm10.4-9.14h-10.4v7.25h10.4Zm13.16,7.25v-7.25H232.3v7.25Zm0,9.18v-7.29H232.3v7.29Z"/><path class="cls-3" d="M258.17,263.82v3.41q-.07,11.86-4.7,20.37L252,286.27q4.14-7.39,4.21-19V255h27v8.84Zm23-6.91h-23v5h23Zm-21.32,17.26h25.49v1.9H270.69a41.85,41.85,0,0,1-6.6,8.68q8.27-.57,16.09-1.74-1.71-2.08-3.72-4.29l1.55-1a73.23,73.23,0,0,1,7.32,8.84l-1.63,1.18c-.71-1.06-1.44-2.1-2.2-3.11q-9.71,1.32-19.95,2l-.49-1.82.41-.15q2.65-1.59,7.06-8.61h-8.69Zm2.62-6.18h20.45v1.82H262.46Z"/><path class="cls-3" d="M297.24,270.87l2,.23-.91,2.35h8.11v1.74a15.84,15.84,0,0,1-4.55,6.83,54.4,54.4,0,0,1,5.69,2.81l-1.14,1.63a61.05,61.05,0,0,0-6.18-3.11,30.43,30.43,0,0,1-9.52,4.4l-1-1.74a30.08,30.08,0,0,0,8.45-3.61c-1.61-.7-3.45-1.44-5.5-2.2q1.61-2.58,2.74-4.89h-4.82v-1.86h5.69Zm-6.56-10.17h7.51v-7.39h1.94v7.39h7.17v1.86h-7.17V263a72.76,72.76,0,0,1,6.52,4l-1.1,1.63q-3.1-2.54-5.42-4.1V270h-1.94v-7.48h-.11a17.21,17.21,0,0,1-7,8L290,268.82q4.81-2.73,6.52-6.26h-5.84Zm2.51-6.52a27.23,27.23,0,0,1,2.46,4.74l-1.63.72a36.5,36.5,0,0,0-2.58-4.89Zm11.26,21.13h-7a35.45,35.45,0,0,1-2.27,4.06q2.39.79,4.66,1.82A16.48,16.48,0,0,0,304.45,275.31Zm2.35-20.67a23.79,23.79,0,0,1-3,5l-1.55-.8a28.25,28.25,0,0,0,2.81-5Zm4.37,12.1a37.18,37.18,0,0,1-2.51,5.42l-1.29-1.59q3.45-6.45,4.71-17.45l2,.38q-.37,3-.91,5.76h10.32v2h-2.69q-.22,9.83-3.45,16.62a24,24,0,0,0,7.24,8.12l-1.18,1.74a25.16,25.16,0,0,1-7.09-8,25.76,25.76,0,0,1-7.24,8L308,286.08a23.32,23.32,0,0,0,7.24-8.31A50.18,50.18,0,0,1,311.17,266.74Zm1.59-5.47c-.25,1-.46,1.76-.61,2.24a54,54,0,0,0,4.06,12.18,39.56,39.56,0,0,0,2.65-14.42Z"/><path class="cls-3" d="M328,265.33h33.83v1.6H328Zm4,3.76H357.9v9.52h-12v2.46H359v1.48H345.91v2.58h15.93v1.67H328v-1.67h15.85v-2.58h-13v-1.48h13v-2.46H332Zm.83-15.18H357.1v9.18H332.86Zm1.1,19.35h9.9v-2.81H334Zm9.9,4v-2.69H334v2.69Zm-9-19.42h20.3v-2.54h-20.3Zm20.3,3.91v-2.58h-20.3v2.58Zm-9.22,8.72v2.81h10v-2.81Zm10,6.79v-2.69h-10v2.69Z"/><path class="cls-3" d="M120.63,356.56h2.05v3.83a26.57,26.57,0,0,1-1.71,9.29h12.75v1.94H120.06a14.93,14.93,0,0,1-1.48,2.24,85.37,85.37,0,0,1,15,7.28l-1.18,1.78a76.11,76.11,0,0,0-15-7.58q-4.64,4.62-14.45,7.36L101.78,381q10.43-2.81,14.71-7.66c.28-.36.68-.91,1.18-1.67H100.83v-1.94H118.7a23.32,23.32,0,0,0,1.93-9.29Zm11.91-4.29v7.21h-2.09v-5.27H104.21v5.42h-2.09v-7.36h14.57A44.66,44.66,0,0,0,115,348.1l2.16-.38a47.58,47.58,0,0,1,1.56,4.55ZM106.25,362a42.8,42.8,0,0,1,8,4.14l-1.1,1.67a37.39,37.39,0,0,0-7.89-4.29Zm2.39-5.8a38.56,38.56,0,0,1,7.7,4.06l-1.1,1.63a30.86,30.86,0,0,0-7.62-4.21Z"/><path class="cls-3" d="M138.8,362.4h4.63v-9.56h-5.16v-1.93h12.29v1.93h-5.08v9.56H150v2h-4.55v9.49c1.72-.59,3.44-1.23,5.15-1.94v2a79.91,79.91,0,0,1-12,3.76l-.5-2q2.65-.57,5.28-1.26V364.37H138.8ZM160,354.7H162v9.41q-.12,7.59-2.92,12.06-2.75,4.14-9.07,6.56L148.82,381q6.18-2.28,8.72-6.26a21.64,21.64,0,0,0,2.5-10.62Zm9.3-4.93v20.75h-2.05V351.74H155.07v18.78h-2V349.77Zm-4.56,32.36A2.43,2.43,0,0,1,162,379.4v-9h2v8.57c0,.83.45,1.25,1.33,1.25h3a1.76,1.76,0,0,0,1.56-.61c.4-.5.68-2,.83-4.62l1.9.64c-.23,3.06-.65,4.95-1.26,5.65a3.56,3.56,0,0,1-2.65.88Z"/><path class="cls-3" d="M182.08,348.63c-.38,1.77-.71,3.12-1,4.06h6.19v2h-6.75a43.54,43.54,0,0,1-3.08,7.32l-1.59-1a47.36,47.36,0,0,0,4.29-12.75ZM179,360.2h7.51v1.86h-3.3v5.42h4.4v1.94h-4.4v9.75a21.92,21.92,0,0,0,3.68-2.35l.38,1.85a24.31,24.31,0,0,1-6.07,3.15l-.8-1.7a1.18,1.18,0,0,0,.8-1.14v-9.56h-4.44v-1.94h4.44v-5.42H179Zm31.48,19.88-.53,2h-5.23c-.79,0-1.94,0-3.46-.08a15.33,15.33,0,0,1-4.55-.72,7.39,7.39,0,0,1-3.34-2.31c-.47-.56-.89-.84-1.25-.84-.7,0-2,1.47-3.75,4.4L187.16,381q2.4-3.79,4.14-4.67V362.93H188V361h5.24v15.4a4.24,4.24,0,0,1,.72.64,7.34,7.34,0,0,0,2.92,2.28,15.21,15.21,0,0,0,3.75.72c1.92.05,3.35.07,4.29.07C206.24,380.15,208.12,380.13,210.49,380.08ZM189.67,349a51.53,51.53,0,0,1,4.17,5.92l-1.55,1.1a45.47,45.47,0,0,0-4.18-6Zm5.57,20.79h7.33v-5.31h-6.49l-.34-1.79a42.86,42.86,0,0,0,3.75-8.26h-4.06v-1.86h4.67c.5-1.8.91-3.29,1.21-4.48l1.86.42L202,352.58h7.59v1.86h-8.16a51.4,51.4,0,0,1-3.6,8.23h4.71v-5.31h1.89v5.31h4.82v1.82h-4.82v5.31h5.84v1.86h-5.84v6.75h-1.89v-6.75h-7.33Z"/><path class="cls-3" d="M228.28,348.1h2.13v12h14v2h-14v17H248v2H214.4v-2h13.88Z"/><path class="cls-3" d="M261.21,357.58a34.41,34.41,0,0,1-7.06,5.66l-1.36-1.56a34.05,34.05,0,0,0,7.2-5.5Zm9.1,11.35q-.8,7.24-3.49,9.74-3,3.15-12.93,3.95l-.84-1.86q9.1-.52,12.06-3.3,2.65-2.65,3.11-8.72Zm-15.85-19.81a35.11,35.11,0,0,1,6.26,2.62l-1.11,1.71a26.31,26.31,0,0,0-6.22-2.77ZM281,365v11.26h-2.09V367H259.05v9.56H257V365ZM269.1,348.25a23.22,23.22,0,0,1-1.1,2.66h15.59v1.29a29.94,29.94,0,0,1-1.9,5.5l-2-.57a20.2,20.2,0,0,0,1.74-4.36h-7.13a16,16,0,0,1-.76,2.77q3.12,4.74,11.91,6.44l-.72,1.79q-8.56-1.71-12-6.49a13.57,13.57,0,0,1-1.82,2.31q-2.77,2.63-9.07,4.1l-.8-1.86c3.87-.83,6.64-2,8.31-3.49a10.1,10.1,0,0,0,3-5.57h-5.54a17.59,17.59,0,0,1-3.79,3.87L261.81,355a14,14,0,0,0,5.28-7Zm2.2,28a75.45,75.45,0,0,1,13.46,4.86l-1.1,1.71a72.23,72.23,0,0,0-13.42-5Z"/><path class="cls-3" d="M306.8,347.61a32.06,32.06,0,0,1,1.86,4.59h13.47v2h-6.72a29.72,29.72,0,0,1-2.08,6.41h9.59v2H295.46v6q-.22,8.79-4.21,14.15l-1.52-1.41q3.5-4.62,3.64-12.74v-8h7.82l-1.75-6.41h-7.09v-2h14.26a32.17,32.17,0,0,0-1.93-4.25Zm-3.52,13h8.08a24.2,24.2,0,0,0,2-6.41H301.49Z"/><path class="cls-3" d="M123.66,463.34a109.44,109.44,0,0,1,8.92,13.2l-1.75,1.21c-.53-1-1.2-2.21-2-3.52q-12.43,1.36-25.22,2.23l-.34-1.74q5-2.7,10.28-13.58h-13v-2.05h15.75v-7.81H102.92v-2h13.39V443h2v6.3h13.31v2H118.36v7.81h15.7v2.05H115.81q-4.32,9.14-8.84,13.31,15.33-1.21,20.75-1.93-2.41-3.79-5.69-8.12Z"/><path class="cls-3" d="M154.2,442.74h2.12v7h13.74v17.45H168v-2.54H156.32v13.12H154.2V464.67H142.59v2.54h-2.08V449.76H154.2Zm-11.61,19.92H154.2V451.81H142.59Zm13.73,0H168V451.81H156.32Z"/><path class="cls-3" d="M182.35,455.49a71.52,71.52,0,0,1-4.67,16.38l-1.78-1.13a67.36,67.36,0,0,0,4.44-15.67Zm7.09,20.78c-2.4,0-3.6-1.13-3.6-3.41v-22h2.08v21.55c0,1.21.71,1.82,2.13,1.82h7.51a2.35,2.35,0,0,0,2.2-1.1q.83-1.49,1.1-8.35l1.93.65q-.33,7.54-1.55,9.4a3.74,3.74,0,0,1-3.27,1.44Zm.72-33.07a78.91,78.91,0,0,1,8.34,9.44l-1.74,1.18a69.79,69.79,0,0,0-8.31-9.56ZM204,453.78a109.13,109.13,0,0,1,6.75,15.44l-1.9.83A97.24,97.24,0,0,0,202,454.46Z"/><path class="cls-3" d="M227.49,443.69a43,43,0,0,1-5.05,8.8V477.6h-2.05V455a53,53,0,0,1-6,5.77l-.65-2.13a41.21,41.21,0,0,0,11.8-15.85Zm8,33.19q-3.65,0-3.64-3.56V461q-2.77,1.59-5.39,2.84l-1-2a59.07,59.07,0,0,0,6.38-3.26V443.08h2v14.27a52.94,52.94,0,0,0,11-9.49l1.4,1.6a56,56,0,0,1-12.37,10.31V473c0,1.27.7,1.9,2.09,1.9h6.45a2.83,2.83,0,0,0,2.35-1c.48-.66.8-3,1-7l1.9.61c-.23,4.37-.66,7-1.29,8a4.26,4.26,0,0,1-3.57,1.33Z"/><path class="cls-3" d="M261.21,452.38a34.72,34.72,0,0,1-7.06,5.65l-1.36-1.56A33.72,33.72,0,0,0,260,451Zm9.1,11.34q-.8,7.25-3.49,9.75-3,3.15-12.93,3.94l-.84-1.86q9.1-.53,12.06-3.3c1.77-1.77,2.81-4.67,3.11-8.72Zm-15.85-19.8a34.39,34.39,0,0,1,6.26,2.62l-1.11,1.7a26.31,26.31,0,0,0-6.22-2.77ZM281,459.81v11.27h-2.09v-9.33H259.05v9.56H257v-11.5ZM269.1,443.05a23.11,23.11,0,0,1-1.1,2.65h15.59V447a29.68,29.68,0,0,1-1.9,5.5l-2-.57a20.2,20.2,0,0,0,1.74-4.36h-7.13a16,16,0,0,1-.76,2.77q3.12,4.74,11.91,6.45l-.72,1.78q-8.56-1.71-12-6.49a13.67,13.67,0,0,1-1.82,2.32q-2.77,2.61-9.07,4.09l-.8-1.85q5.81-1.26,8.31-3.49a10.1,10.1,0,0,0,3-5.58h-5.54a17.16,17.16,0,0,1-3.79,3.87l-1.26-1.63a14.09,14.09,0,0,0,5.28-7Zm2.2,28a74.67,74.67,0,0,1,13.46,4.85l-1.1,1.71a73.67,73.67,0,0,0-13.42-5Z"/><path class="cls-3" d="M306.8,442.4a32.06,32.06,0,0,1,1.86,4.59h13.47v2h-6.72a29.72,29.72,0,0,1-2.08,6.41h9.59v2H295.46v6q-.22,8.81-4.21,14.15l-1.52-1.41q3.5-4.62,3.64-12.74v-8h7.82L299.44,449h-7.09v-2h14.26a32.77,32.77,0,0,0-1.93-4.25Zm-3.52,13h8.08a24.2,24.2,0,0,0,2-6.41H301.49Z"/><path class="cls-3" d="M353.54,459.13a34.39,34.39,0,0,1-7,9.25,43.43,43.43,0,0,0,15.37,7.1l-1.22,1.89a44.11,44.11,0,0,1-15.7-7.58,39.33,39.33,0,0,1-15.71,7.74l-1.25-1.82a40.43,40.43,0,0,0,15.37-7.25,31.94,31.94,0,0,1-7.1-8.84l1.79-1a29.2,29.2,0,0,0,6.86,8.49,30,30,0,0,0,6.64-8.8Zm-25.27-11.46h16.09a28.56,28.56,0,0,0-2.36-4.62l2.24-.38a31.52,31.52,0,0,1,2.32,5h15.06v1.94H328.27Zm12.14,5a43.83,43.83,0,0,1-10.7,9.83l-1.32-1.71a41.71,41.71,0,0,0,10.5-9.48Zm10.32-1.36a74,74,0,0,1,10.58,10.16l-1.52,1.48a73.16,73.16,0,0,0-10.5-10.28Z"/><path class="cls-3" d="M369.47,457h5.95v-3.18H367.8v-1.71h7.62V450h2.05v2.12H385v1.71h-7.55V457h6v1.67h-6V462h8.61v1.71h-8.61v2.2h-2.05v-2.2H367V462h8.46v-3.3h-5.95Zm17-10.88v5.8h-1.94v-4H368.94v4H367v-5.84h8.35a23.79,23.79,0,0,0-1.71-3.07l2.05-.38a29.63,29.63,0,0,1,1.67,3.45Zm-1.71,20.94v10.47h-1.93v-1.71H370.72v1.55h-1.94V467.06Zm-14.07,7h12.14v-5.2H370.72Zm18.55-27.54h1.93v23.55h-1.93Zm1.55,30.61-.41-1.94c2,.1,3.47.16,4.36.16,1.06,0,1.59-.61,1.59-1.82V443h2.05v31q0,3.11-2.92,3.11Z"/><path class="cls-3" d="M101.85,539.49h10.44v11.15h-3.68v6.64h4.24v2h-4.24v7.85q2.81-.9,5-1.7v2a102.32,102.32,0,0,1-12.93,3.94l-.53-1.89c.28-.08.83-.2,1.67-.38V554.93h1.82v13.65c1.82-.53,2.84-.82,3.07-.87V550.64h-4.82Zm8.46,9.25v-7.35h-6.48v7.35Zm4.1-6.71h7a28.56,28.56,0,0,0,1.37-4.4l1.9.23a39.28,39.28,0,0,1-1.25,4.17h9.74v1.86h-6.37a17.24,17.24,0,0,0,7.74,8l-.83,1.78a19.82,19.82,0,0,1-8.92-9.82h-2.12a21.6,21.6,0,0,1-9.22,9.94l-1-1.75a20.45,20.45,0,0,0,8.08-8.19h-6.18Zm0,13.43H133v1.86H120.67l-1.22,4.32h11.69q-.34,7.36-1.56,8.88c-.76.91-2.29,1.36-4.59,1.36-.68,0-1.53,0-2.54-.15l-.68-1.78a26.94,26.94,0,0,0,2.77.19c1.84,0,3-.37,3.52-1.1s.69-2.61.92-5.54H117l1.59-6.18h-4.17Zm4.81-6h9v1.82h-9Z"/><path class="cls-3" d="M144.15,538.16c-.38,1.77-.71,3.12-1,4.06h6.19v2h-6.76a43.55,43.55,0,0,1-3.07,7.32l-1.59-1a47.35,47.35,0,0,0,4.28-12.75Zm-3.07,11.57h7.51v1.86h-3.3V557h4.4V559h-4.4v9.75a22.57,22.57,0,0,0,3.68-2.35l.38,1.85a24.31,24.31,0,0,1-6.07,3.15l-.8-1.7a1.18,1.18,0,0,0,.8-1.14V559h-4.44V557h4.44v-5.42h-2.2Zm31.48,19.88-.53,2h-5.24c-.78,0-1.93,0-3.45-.08a15.33,15.33,0,0,1-4.55-.72,7.39,7.39,0,0,1-3.34-2.31c-.48-.56-.9-.84-1.25-.84q-1.06,0-3.75,4.4l-1.22-1.51q2.39-3.79,4.14-4.67V552.46H150v-1.89h5.23V566a3.6,3.6,0,0,1,.72.64,7.48,7.48,0,0,0,2.92,2.28,15.4,15.4,0,0,0,3.76.72c1.92,0,3.35.07,4.29.07C168.31,569.68,170.18,569.66,172.56,569.61Zm-20.82-31.07a52.8,52.8,0,0,1,4.17,5.92l-1.56,1.1a45.29,45.29,0,0,0-4.17-6Zm5.57,20.79h7.32V554h-6.48l-.35-1.79a42.24,42.24,0,0,0,3.76-8.26H157.5v-1.86h4.67c.5-1.8.91-3.29,1.21-4.48l1.86.42-1.14,4.06h7.59V544h-8.16a53.68,53.68,0,0,1-3.6,8.23h4.7v-5.31h1.9v5.31h4.82V554h-4.82v5.31h5.84v1.86h-5.84v6.75h-1.9v-6.75h-7.32Z"/><path class="cls-3" d="M183.45,555.27l2,.23-.91,2.35h8.12v1.74a16,16,0,0,1-4.55,6.83,54.28,54.28,0,0,1,5.68,2.81l-1.13,1.63a60.24,60.24,0,0,0-6.19-3.11,30.32,30.32,0,0,1-9.52,4.4l-1-1.75a30,30,0,0,0,8.46-3.6q-2.43-1.06-5.5-2.2,1.59-2.58,2.73-4.89h-4.82v-1.86h5.69Zm-6.57-10.17h7.52v-7.39h1.93v7.39h7.17V547h-7.17v.46a71.37,71.37,0,0,1,6.52,4l-1.1,1.63c-2.07-1.7-3.88-3.06-5.42-4.1v5.47H184.4V547h-.12a17.21,17.21,0,0,1-7,8l-1.06-1.71q4.81-2.73,6.53-6.26h-5.85Zm2.51-6.52a27.23,27.23,0,0,1,2.46,4.74l-1.63.72a36.5,36.5,0,0,0-2.58-4.89Zm11.26,21.13h-7a37.16,37.16,0,0,1-2.28,4.06,46.87,46.87,0,0,1,4.66,1.82A16.48,16.48,0,0,0,190.65,559.71ZM193,539a24.28,24.28,0,0,1-3,5.05l-1.56-.8a28.25,28.25,0,0,0,2.81-5Zm4.36,12.1a36.82,36.82,0,0,1-2.51,5.43L193.57,555q3.45-6.45,4.71-17.45l2.05.38q-.39,3-.91,5.76h10.31v2H207q-.22,9.83-3.45,16.62a24,24,0,0,0,7.24,8.11l-1.17,1.75a25,25,0,0,1-7.09-8,25.72,25.72,0,0,1-7.25,8.05l-1.14-1.75a23.35,23.35,0,0,0,7.25-8.31A50.58,50.58,0,0,1,197.37,551.13Zm1.59-5.46c-.25,1-.46,1.76-.61,2.24a54.5,54.5,0,0,0,4.06,12.18,39.59,39.59,0,0,0,2.66-14.42Z"/><path class="cls-3" d="M215.16,571.88l-.42-1.93c1.32.1,2.29.15,2.92.15,1,0,1.56-.59,1.56-1.78V558.23c-1.5.55-3.1,1.1-4.82,1.63l-.53-2a53.88,53.88,0,0,0,5.35-1.63v-9.07h-4.75v-2h4.75v-7.36h2.05v7.36h3.86v2h-3.86v8.27c1.28-.58,2.54-1.19,3.75-1.82v2a38.84,38.84,0,0,1-3.75,1.78v11.42c0,2.05-1,3.07-2.89,3.07ZM229.35,555a44.14,44.14,0,0,1-4.52,17.26l-1.59-1.41q4.17-7.7,4.25-20V539.38h19.64v8.68h-7.32v5h8.35V555h-8.35v5.15h6.57v12.11h-1.9v-2H233.14v2h-1.9V560.12h6.53V555Zm8.42-6.91H229.5l0,5h8.31Zm7.35-6.75H229.5v4.89h15.62Zm-12,27.05h11.34V562H233.14Z"/><path class="cls-3" d="M253,541.8H263.6a38.39,38.39,0,0,0,1.4-4.25l2.09.23q-.42,1.56-1.29,4h19.72v2H265a42,42,0,0,1-5.16,9v19.5h-2v-17a50.29,50.29,0,0,1-4.81,4.86l-1.25-1.67a42.4,42.4,0,0,0,11-14.76H253Zm10.09,17.49h11.26v-3.83a40.88,40.88,0,0,0,6.53-4.59H266v-1.94h17.49v1.94a50.92,50.92,0,0,1-7.13,5.46v3h9.75v2h-9.75v7.89c0,2-1,3-3,3h-4.74l-.53-1.94c1.82,0,3.31.08,4.48.08a1.54,1.54,0,0,0,1.74-1.74V561.3H263.07Z"/><path class="cls-3" d="M293.45,550a42.88,42.88,0,0,1-3.3,5l-.64-2.12a46.46,46.46,0,0,0,6.67-15.29l1.86.87a53.15,53.15,0,0,1-2.62,7.59v26.17h-2Zm3.79-.45h6.57v16.77c1-1.07,2.2-2.37,3.49-3.91l.53,2a48.23,48.23,0,0,1-5.92,6.18l-.8-1.86a2,2,0,0,0,.69-1.36v-15.9h-4.56Zm3.3-10.24a47.27,47.27,0,0,1,5.69,5.57l-1.55,1.56a37,37,0,0,0-5.54-5.77Zm7.93,3h4.74v-4.59h1.94v4.59h4.47v1.78h-4.47v5.5h1.44a40.79,40.79,0,0,0,5.39-9.86l1.7.95a45.79,45.79,0,0,1-4.74,8.91h5v1.9h-6.37a30.88,30.88,0,0,1-3.83,4h8.19v16.65h-2v-1.67h-7.78v1.67h-2v-14A28.71,28.71,0,0,1,307,559.9l-1.07-1.63a27,27,0,0,0,9.15-6.79h-7.55v-1.9h5.72v-5.5h-4.74Zm11.46,19.76v-4.7h-7.78v4.7Zm-7.78,1.82v4.78h7.78v-4.78Z"/><circle class="cls-4" cx="76.24" cy="270.43" r="4.21"/><circle class="cls-4" cx="76.24" cy="365.27" r="4.21"/><circle class="cls-4" cx="76.24" cy="460.1" r="4.21"/><circle class="cls-4" cx="76.24" cy="554.93" r="4.21"/><path class="cls-1" d="M189.28,177.25a8,8,0,0,1,2.58,6.12,9.89,9.89,0,0,1-2.78,6.71,40.53,40.53,0,0,1-5.88,4.56c-3,2-4.87,3.8-5.48,5.36H191.9v3.82H172.36a10.83,10.83,0,0,1,2.82-7.43,37.29,37.29,0,0,1,6.39-5.16,30.26,30.26,0,0,0,4.05-3.26,6.86,6.86,0,0,0,1.95-4.64,4.62,4.62,0,0,0-1.31-3.58,5.56,5.56,0,0,0-3.85-1.19,4.71,4.71,0,0,0-4,1.83,8.71,8.71,0,0,0-1.51,5.2h-4.33a11,11,0,0,1,2.74-7.62,9.26,9.26,0,0,1,7.31-3.06A9.61,9.61,0,0,1,189.28,177.25Z"/><path class="cls-1" d="M213.7,179.12q2.51,3.93,2.5,10.52t-2.5,10.52a9.23,9.23,0,0,1-15.49,0q-2.51-3.93-2.5-10.52t2.5-10.52a9.23,9.23,0,0,1,15.49,0ZM201,182.41a25.89,25.89,0,0,0,0,14.46q1.42,3.85,4.92,3.85c2.33,0,4-1.28,4.93-3.85a20.91,20.91,0,0,0,1-7.23,20.53,20.53,0,0,0-1-7.23c-.95-2.56-2.6-3.85-4.93-3.85S202,179.85,201,182.41Z"/><path class="cls-1" d="M236.93,177.25a8,8,0,0,1,2.58,6.12,9.89,9.89,0,0,1-2.78,6.71,40.53,40.53,0,0,1-5.88,4.56c-3,2-4.87,3.8-5.48,5.36h14.18v3.82H220a10.83,10.83,0,0,1,2.82-7.43,37.29,37.29,0,0,1,6.39-5.16,31,31,0,0,0,4.05-3.26,6.86,6.86,0,0,0,1.95-4.64,4.62,4.62,0,0,0-1.31-3.58,5.58,5.58,0,0,0-3.85-1.19,4.71,4.71,0,0,0-4.05,1.83,8.71,8.71,0,0,0-1.51,5.2h-4.33a11,11,0,0,1,2.74-7.62,9.24,9.24,0,0,1,7.31-3.06A9.61,9.61,0,0,1,236.93,177.25Z"/><path class="cls-1" d="M256.58,175.46v28.36h-4.33V180.67a15.49,15.49,0,0,1-6.51,3.57V180a16.73,16.73,0,0,0,4-1.67,17.07,17.07,0,0,0,3.5-2.82Z"/><path class="cls-1" d="M304.27,179.12q3.57,4,3.57,10.56a15.47,15.47,0,0,1-3.45,10.4q2.22,3,3.14,4.33l-2.78,2.46c-1.25-1.8-2.29-3.27-3.14-4.4a14.26,14.26,0,0,1-7.54,1.9q-6.48,0-10.21-4.21-3.54-4-3.53-10.48t3.53-10.52q3.66-4.24,10.21-4.25T304.27,179.12ZM287,181.78a14.19,14.19,0,0,0,0,15.76,8.69,8.69,0,0,0,7,3,9.65,9.65,0,0,0,5.08-1.27q-2-2.53-4.25-4.88l2.5-2.47q1.78,1.88,4.29,4.81a12.74,12.74,0,0,0,1.79-7.07,12.3,12.3,0,0,0-2.43-8,9.68,9.68,0,0,0-14,.12Z"/><path class="cls-1" d="M328.49,177.25a8,8,0,0,1,2.58,6.12,9.84,9.84,0,0,1-2.78,6.71,40.88,40.88,0,0,1-5.87,4.56c-3.05,2-4.87,3.8-5.48,5.36h14.17v3.82H311.58a10.83,10.83,0,0,1,2.82-7.43,36.87,36.87,0,0,1,6.39-5.16,31.66,31.66,0,0,0,4-3.26,6.85,6.85,0,0,0,1.94-4.64,4.59,4.59,0,0,0-1.31-3.58,5.55,5.55,0,0,0-3.85-1.19,4.71,4.71,0,0,0-4.05,1.83,8.78,8.78,0,0,0-1.51,5.2h-4.32a11,11,0,0,1,2.74-7.62,9.24,9.24,0,0,1,7.3-3.06A9.61,9.61,0,0,1,328.49,177.25Z"/></svg>