<svg id="图层_1" data-name="图层 1" xmlns="http://www.w3.org/2000/svg" viewBox="0 0 500 640"><defs><style>.cls-1{fill:#90bae1;}.cls-2{fill:#fff;}.cls-3{fill:#33353c;}.cls-4{fill:#c1c1c1;}</style></defs><title>中文</title><rect class="cls-1" x="440.42" y="112.95" width="22.33" height="22.33" transform="translate(44.51 355.68) rotate(-45)"/><rect class="cls-2" x="48.37" y="33.45" width="406.7" height="593"/><rect class="cls-1" x="32.62" y="13.55" width="434.77" height="110.56"/><path class="cls-2" d="M176.5,57.64a29.83,29.83,0,0,1-6.34,9.45l-2.61-3.32q5.67-6,7.69-16.13l4.07.72q-.63,2.89-1.38,5.42h7.81V46.72h4v7.06h13.48v3.86H189.73v8.69h12.64V70.2H189.73v9.57H205.9v4H168.65v-4h17.09V70.2h-12V66.33h12V57.64Z"/><path class="cls-2" d="M230.93,46.38a33,33,0,0,1-.71,4.08h15.83v3.82H233.24q3,6.3,15,10l-2.1,3.45q-13.86-5-16.93-13.4H229a22.49,22.49,0,0,1-3.61,6.09l-.13.13a72,72,0,0,1,5.8,4.7L228.33,68a59.65,59.65,0,0,0-5.63-5.16,36.5,36.5,0,0,1-11.68,5l-1.55-3.69q8.78-2.19,12.68-6.3a15.56,15.56,0,0,0,2.48-3.53H211.57V50.46H226.1a26.84,26.84,0,0,0,.84-4.5ZM217.45,71.71a43.52,43.52,0,0,1-4.16,11.34l-3.44-2.14a35.31,35.31,0,0,0,3.69-10.08Zm6.8,12.56q-4.58,0-4.57-4.79V70.7h4v8c0,1.15.6,1.72,1.8,1.72h8.66a1.78,1.78,0,0,0,1.59-.75c.42-.48.72-2,.88-4.58l3.78,1.22c-.33,3.86-.95,6.16-1.84,6.89a5.39,5.39,0,0,1-3.66,1.09Zm6.14-15a38.81,38.81,0,0,1,3.82,6.89l-3.66,1.64a46.69,46.69,0,0,0-3.65-7.39Zm12.64.93a63.65,63.65,0,0,1,5.16,10l-3.65,1.64a63.33,63.33,0,0,0-5.33-10.42Z"/><path class="cls-2" d="M253.19,84.77l-.88-3.86a28,28,0,0,0,3.19.21A1.32,1.32,0,0,0,257,79.61v-9c-1.51.58-3.06,1.13-4.66,1.63l-1-4A44.27,44.27,0,0,0,257,66.59V57.93h-4.79V54.11H257v-7.6h4v7.6h3.15v3.82H261v7c1.07-.51,2.12-1,3.15-1.64v4c-.7.36-1.75.88-3.15,1.55V80.61c0,2.78-1.37,4.16-4.11,4.16Zm24.15-20.49c-.36,1-.74,1.87-1.13,2.77h13.9v3.86h-4.37a16.15,16.15,0,0,1-3.48,7.14q3.81,1.73,7.64,3.87l-2.18,3.19a73.14,73.14,0,0,0-8.32-4.41q-4.29,2.89-13,4.66l-1.55-3.61a40,40,0,0,0,10.33-3q-4.67-2-7.77-3.24,1.33-2,2.81-4.62h-5V67.05h7c.61-1.4,1.06-2.47,1.34-3.19Zm-4.74-10.8a57.72,57.72,0,0,1,2.89,5.88h3.57a53.72,53.72,0,0,0,2.69-5.92h-15V49.83h8.73c-.45-1.15-.91-2.19-1.38-3.11l4.15-.67q.63,1.68,1.26,3.78h9.2v3.61h-5.46l2.4.84a45.4,45.4,0,0,1-2.36,5.08h6.18v3.82H265.75V59.36h5.92q-1.26-2.64-2.31-4.37Zm1.59,17.43c-.47.84-1.12,1.85-1.93,3q3.06,1.05,6.38,2.52A13.06,13.06,0,0,0,282,70.91Z"/><path class="cls-2" d="M303.93,48.48l3.32-2.1q5.28,3.7,9.36,14.16,6,14.7,15.54,20.87l-2.48,3.15q-9.87-5.93-16.54-22.72l-.3-.8a40,40,0,0,1-17,23.56l-2.39-3.4q13.1-8.61,17.26-24.78A23.25,23.25,0,0,0,303.93,48.48Z"/><path class="cls-3" d="M94.2,232.11h10.9q9,0,9,7.7t-9,7.74H96.5v11.39H94.2Zm2.3,2v11.38H105a8,8,0,0,0,5.15-1.42,5.43,5.43,0,0,0,1.62-4.29,5.25,5.25,0,0,0-1.62-4.21,7.68,7.68,0,0,0-5.15-1.46Z"/><path class="cls-3" d="M133,242.07a12,12,0,0,1,0,14.32,9.22,9.22,0,0,1-13.76,0,11,11,0,0,1-2.36-7.15,10.75,10.75,0,0,1,2.4-7.17,8.36,8.36,0,0,1,6.84-3.09A8.53,8.53,0,0,1,133,242.07Zm-12.1,1.42a10.37,10.37,0,0,0,0,11.47,6.66,6.66,0,0,0,10.48,0,9.38,9.38,0,0,0,1.73-5.72,9.25,9.25,0,0,0-1.73-5.75,6.66,6.66,0,0,0-10.48,0Z"/><path class="cls-3" d="M143,233.08a1.57,1.57,0,0,1,.56,1.32,1.87,1.87,0,0,1-.6,1.35,2,2,0,0,1-1.31.53,1.86,1.86,0,0,1-1.92-1.88,1.6,1.6,0,0,1,.56-1.32,1.8,1.8,0,0,1,1.36-.56A1.87,1.87,0,0,1,143,233.08Zm-2.48,6.43h2.25v19.43h-2.25Z"/><path class="cls-3" d="M164.41,247v11.95h-2.25v-11.8q0-6.19-5.53-6.2a5.14,5.14,0,0,0-3.91,1.69,6.87,6.87,0,0,0-1.84,4.58v11.73h-2.25V239.51h2.25v3.2a8,8,0,0,1,2.63-2.75,6.87,6.87,0,0,1,3.69-1Q164.42,239,164.41,247Z"/><path class="cls-3" d="M173.85,233.23v6.28h5.07v2h-5.07v13.16a3,3,0,0,0,.45,1.84A2.16,2.16,0,0,0,176,257h2.44v1.95h-2.74a4,4,0,0,1-3.23-1.16,4.7,4.7,0,0,1-.87-3.16V241.46h-4.13v-2h4.13v-5.34Z"/><path class="cls-3" d="M201.58,233.91a9.13,9.13,0,0,1,3.65,6.31H203a6.86,6.86,0,0,0-3-4.84,9.69,9.69,0,0,0-5.72-1.7,9.41,9.41,0,0,0-7.74,3.5,13,13,0,0,0-2.63,8.46,12.8,12.8,0,0,0,2.6,8.38,9.16,9.16,0,0,0,7.55,3.34,9.72,9.72,0,0,0,5.9-1.84,9.38,9.38,0,0,0,3.46-5.75h2.22a11.59,11.59,0,0,1-4.21,7.29,11.74,11.74,0,0,1-7.33,2.41,11.48,11.48,0,0,1-9.4-4.14,14.79,14.79,0,0,1-3.08-9.69,15,15,0,0,1,3.16-9.81,12.72,12.72,0,0,1,16.83-1.92Z"/><path class="cls-3" d="M209.59,231.58h2.29V243a7.52,7.52,0,0,1,2.71-3,7.55,7.55,0,0,1,8.87.94,7.85,7.85,0,0,1,1.88,5.6v12.4h-2.26v-12.1a6.43,6.43,0,0,0-1.42-4.4,5.38,5.38,0,0,0-4-1.5,5.22,5.22,0,0,0-4.09,1.95,7,7,0,0,0-1.66,4.81v11.24h-2.29Z"/><path class="cls-3" d="M244.85,242.1c1.38,1.86,2.11,4.45,2.21,7.78H231.28a9.12,9.12,0,0,0,1.91,5.6,6.12,6.12,0,0,0,4.82,2,6.52,6.52,0,0,0,4.28-1.39,7.27,7.27,0,0,0,2.07-3.42h2.29a9.11,9.11,0,0,1-2.59,4.63,8.72,8.72,0,0,1-6.05,2.14,8.26,8.26,0,0,1-6.54-2.78,10.73,10.73,0,0,1-2.52-7.48,10.87,10.87,0,0,1,2.4-7.18,8.08,8.08,0,0,1,6.58-3.05Q242.55,239,244.85,242.1Zm-11.5.83a8.57,8.57,0,0,0-2,5.11H244.7q-.57-7.09-6.73-7.1A5.8,5.8,0,0,0,233.35,242.93Z"/><path class="cls-3" d="M264.54,240.68a7.33,7.33,0,0,1,2.67,5.18H265a5.53,5.53,0,0,0-1.95-3.68,6.48,6.48,0,0,0-4.14-1.24,5.81,5.81,0,0,0-4.88,2.37,9.43,9.43,0,0,0-1.77,6.05,9.54,9.54,0,0,0,1.69,5.94,5.81,5.81,0,0,0,4.93,2.21q5.4,0,6.24-5.52h2.21a8.85,8.85,0,0,1-2.78,5.6,8.38,8.38,0,0,1-5.67,1.88,8.13,8.13,0,0,1-6.69-2.93,10.89,10.89,0,0,1-2.22-7.18,11.25,11.25,0,0,1,2.29-7.29,8,8,0,0,1,6.65-3.09A9,9,0,0,1,264.54,240.68Z"/><path class="cls-3" d="M270.89,231.58h2.26v17.74l10.79-9.81H287l-8.54,7.7,9.4,11.73h-3l-8-10.26-3.72,3.38v6.88h-2.26Z"/><path class="cls-3" d="M299.12,228.72h2V239h2.63v2h-9.36v2.89c0,.73,0,1.74-.07,3h7.29v15.67h-2V248.87h-5.38q-.6,8.56-3.12,13.12l-1.54-1.32q2.79-5.26,2.86-16.84V229.48h2V239h4.7Zm8.72,12.56v5q-.22,10.14-3.53,16.16l-1.43-1.47q2.82-5.3,3-14.69V231.05a58.42,58.42,0,0,0,16-2.33l1,1.81a61.77,61.77,0,0,1-15.07,2.25v6.58H321.9v1.77a33.08,33.08,0,0,1-5.19,13.53,20.5,20.5,0,0,0,7.14,6.09l-1,1.8a21.57,21.57,0,0,1-7.37-6.24,27,27,0,0,1-7.74,6.28l-1-1.77a25.9,25.9,0,0,0,7.55-6.16,36.78,36.78,0,0,1-5-13.38Zm3.35,0a34.93,34.93,0,0,0,4.35,11.65,29.63,29.63,0,0,0,4.4-11.65Z"/><path class="cls-3" d="M335.92,262.48h-2V241.73a40.26,40.26,0,0,1-6,11.65l-.9-2.26a34.77,34.77,0,0,0,6.88-13.23h-6.09v-2h6.13v-7.55h2v7.55h5.22v2h-5.22v2.37a81.17,81.17,0,0,1,5.9,6.47l-1.21,1.76q-2.67-3.68-4.69-6.09Zm7.89-29.66h-1.62v-2h16.69v1.95a47.48,47.48,0,0,1-6.61,18.53,39.38,39.38,0,0,0,9.32,9.47l-1.35,1.62a45.29,45.29,0,0,1-9.14-9.4,36.38,36.38,0,0,1-10,9.44l-1.31-1.62a37.64,37.64,0,0,0,10.07-9.62A38.86,38.86,0,0,1,343.81,232.82Zm1.95,0A36.12,36.12,0,0,0,351,249.47a43.24,43.24,0,0,0,5.86-16.65Z"/><path class="cls-3" d="M375,229.06a48.48,48.48,0,0,1-3.45,8V262.7h-2.07V240.49a41,41,0,0,1-4.59,5.71l-.64-2.14a43.23,43.23,0,0,0,8.84-15.9Zm2.63,1.05h17.44V241.5h-7.7v4.66h11v2h-8.79a33.43,33.43,0,0,0,9.43,10.53l-1.28,1.73A38,38,0,0,1,388,248.19h-.6v14.44h-2V248.19h-.64a33.26,33.26,0,0,1-10,12.33l-1.13-1.8a30.22,30.22,0,0,0,9.44-10.53h-8.42v-2h10.71V241.5h-7.71Zm15.41,9.4v-7.44H379.7v7.44Z"/><path class="cls-3" d="M403.16,262.25l-.45-1.95c1.6.1,2.76.15,3.49.15,1.08,0,1.62-.58,1.62-1.73v-9.81q-2.6.93-5,1.58l-.52-2c2.05-.5,3.91-1,5.56-1.61v-9.14h-5v-2h5v-7.29h2v7.29h4.36v2h-4.36v8.39c1.48-.58,3-1.26,4.55-2v2.06c-1.71.81-3.22,1.47-4.55,2v11.08c0,2-1,3-2.93,3Zm15.52-17.4A32.85,32.85,0,0,1,414,262.63l-1.55-1.39q4.22-6.36,4.29-16.43V233.12h8.46a33.43,33.43,0,0,0-1.81-4.55l2.14-.37a41.43,41.43,0,0,1,1.7,4.92h8.15v11.73Zm14.7-9.74h-14.7v7.75h14.7Z"/><path class="cls-3" d="M108.3,324.15a43.14,43.14,0,0,1-5.34,7.9,42.2,42.2,0,0,1-7.59,6.5l-1.17-1.81a27.2,27.2,0,0,0,7.22-6,37.12,37.12,0,0,0,5.15-7.63Zm-8.72,15.3v-1.92H122q-.15,6.89-.68,11.17c-.38,2.8-1,4.77-1.8,5.9a5,5,0,0,1-4,1.76h-7l-.53-1.95q4.67.07,6.58.08a4,4,0,0,0,4.13-2.75q1-2.82,1.32-12.29H109.28a30.2,30.2,0,0,1-3.76,10.15,25.38,25.38,0,0,1-8.27,7L96,355a24,24,0,0,0,7.67-6.24,24,24,0,0,0,3.61-9.32Zm17-16.76a27,27,0,0,0,11.77,13.79l-1.4,1.58a29.38,29.38,0,0,1-12.1-14.4Z"/><path class="cls-3" d="M150.21,332.2h2V337h10.71v12.48q0,3.27-3.23,3.27h-3.61l-.49-2,3.46.12c1.28,0,1.92-.62,1.92-1.85V338.89H152.2v17.74h-2V338.89h-8.8v14.05h-1.95V338.17a50.08,50.08,0,0,1-6.62,5.94l-1.31-1.69a43.62,43.62,0,0,0,11.8-12.89H132.77v-2h11.65a44.72,44.72,0,0,0,2.14-5.26l2.07.22a41.81,41.81,0,0,1-2,5h18.61v2H145.66a43.85,43.85,0,0,1-5.11,7.44h9.66Z"/><path class="cls-3" d="M170.77,338.14h15.71v1.95h-6.84v10.56q3.72-.67,8.34-1.84v2q-8,1.95-17.44,3.27l-.49-2q3.84-.45,7.56-1.12V340.09h-6.84Zm-.64-8.84h18.72q-.19-2.78-.19-6.88h2.1q0,4.14.19,6.88h11.8v2H191.06A60.46,60.46,0,0,0,194.18,348q2.41,6.17,4.48,6.28,1.38-.3,2.63-6.77l1.84.94q-1.69,8-4.36,8-4.67-.22-8.05-12.44A72.76,72.76,0,0,1,189,331.33H170.13Zm26.27-6.61a39.06,39.06,0,0,1,3.68,5l-1.72.86a47.29,47.29,0,0,0-3.65-5Z"/><path class="cls-3" d="M213,340.16a55.51,55.51,0,0,1-5.45,5.08l-.64-2.07q8.12-6.72,10.75-13.23h-9.81V328h11.84v1.73a28.13,28.13,0,0,1-4.7,8.15V338a32.2,32.2,0,0,1,6.09,4.55l-1.13,1.77a28.41,28.41,0,0,0-5-4.21v16.46h-2Zm.67-17.92a39.36,39.36,0,0,1,2,4.92l-1.76.64a38.71,38.71,0,0,0-2.18-5Zm15.6.26h2v11.58h8.83v2h-8.83v17.29h9.77v2h-21.8v-2h10V336.07h-8.72v-2h8.72Z"/><path class="cls-3" d="M270.14,338.44a34.26,34.26,0,0,1-6.87,9.17,43.1,43.1,0,0,0,15.22,7l-1.2,1.87A43.63,43.63,0,0,1,261.72,349a38.72,38.72,0,0,1-15.56,7.67l-1.24-1.81a40,40,0,0,0,15.23-7.18,31.53,31.53,0,0,1-7-8.76l1.77-1a28.84,28.84,0,0,0,6.8,8.42,29.82,29.82,0,0,0,6.57-8.72Zm-25-11.35h15.94a28.16,28.16,0,0,0-2.33-4.59l2.22-.38a31.62,31.62,0,0,1,2.29,5h14.92V329h-33Zm12,4.92a43.54,43.54,0,0,1-10.6,9.73l-1.31-1.69a41.5,41.5,0,0,0,10.41-9.39Zm10.22-1.35a73.82,73.82,0,0,1,10.49,10.07l-1.5,1.46A72.42,72.42,0,0,0,265.94,332Z"/><path class="cls-3" d="M296.38,322.35h2.11v11.88h13.9v1.95h-13.9V353h17.4v2H282.62v-2h13.76Z"/><path class="cls-3" d="M328.63,323a58.59,58.59,0,0,1-6.17,12.25q2.71-.26,5.91-.75,2.55-4.8,2.33-4.43l1.84.71q-5.34,10.08-8.76,14a59,59,0,0,0,8.76-2.22v1.84a63.05,63.05,0,0,1-11.2,2.56l-.53-1.88a4.18,4.18,0,0,0,.94-.56,46.38,46.38,0,0,0,5.6-8.16q-3.57.53-6.8.9l-.53-1.88a2.19,2.19,0,0,0,.87-.78,60,60,0,0,0,5.82-12.41Zm4.32,28.6a67.42,67.42,0,0,1-12.67,3.57l-.26-2A71.89,71.89,0,0,0,333,349.64Zm18.19-22.36.3,1.95-9.88,1.4c.07,2.17.2,4.07.37,5.67l10.23-1.62.3,2-10.3,1.65c.08.6.21,1.46.41,2.56a29.9,29.9,0,0,0,1.51,5.41,34.61,34.61,0,0,0,5.9-6.88l1.65,1a39.92,39.92,0,0,1-6.76,7.71c.3.6.53,1,.71,1.32,1.28,1.87,2.45,2.81,3.53,2.81s2-2.17,2.75-6.54l1.76,1.13q-1.46,7.59-4.28,7.59c-1.76-.05-3.42-1.2-5-3.45q-.45-.65-1-1.62a29.11,29.11,0,0,1-9.2,4.74l-1.21-1.62a31,31,0,0,0,9.55-4.92,29.54,29.54,0,0,1-1.77-5.75c-.15-.71-.32-1.78-.52-3.24l-7,1.13-.3-1.95,7.06-1.13q-.3-2.6-.37-5.71l-5.75.82-.27-1.91,6-.87v-8.53h2v8.23Zm-5.48-6.88a40.19,40.19,0,0,1,4.69,4.78l-1.61,1.12a38.71,38.71,0,0,0-4.63-4.92Z"/><path class="cls-3" d="M94.2,514h2.3v16.47q0,4.35,1.87,6.5,2,2.33,6.28,2.33c2.83,0,4.93-.78,6.28-2.33s1.88-3.65,1.88-6.5V514h2.29v16.47q0,5.18-2.52,8-2.67,2.9-7.93,2.9c-3.51,0-6.14-1-7.89-2.86s-2.56-4.54-2.56-8Z"/><path class="cls-3" d="M136.34,515.58a8.53,8.53,0,0,1,3,6.31h-2.29a7.42,7.42,0,0,0-2.37-4.77,8,8,0,0,0-5.41-1.62,9.9,9.9,0,0,0-5.11,1.13,4.07,4.07,0,0,0-2.11,3.8q0,2.22,2.52,3.57a42.11,42.11,0,0,0,5.15,1.73,32.37,32.37,0,0,1,6.92,2.55,6.24,6.24,0,0,1,3.34,5.64,6.36,6.36,0,0,1-2.89,5.49,12.55,12.55,0,0,1-7.33,1.92,11.5,11.5,0,0,1-7.29-2.11q-3-2.4-3.39-7.29h2.26a8.15,8.15,0,0,0,2.63,5.64,9,9,0,0,0,5.75,1.65,10.76,10.76,0,0,0,5.75-1.39,4.34,4.34,0,0,0,2.18-3.8,4.74,4.74,0,0,0-2.74-4.28,28.74,28.74,0,0,0-5.9-2.07,32.82,32.82,0,0,1-6.17-2.14,5.48,5.48,0,0,1-3.08-5,5.93,5.93,0,0,1,2.9-5.33,11.65,11.65,0,0,1,6.69-1.73A10.63,10.63,0,0,1,136.34,515.58Z"/><path class="cls-3" d="M158.36,524q2.07,2.79,2.22,7.78H144.79a9.18,9.18,0,0,0,1.92,5.6,6.13,6.13,0,0,0,4.81,2,6.52,6.52,0,0,0,4.29-1.39,7.28,7.28,0,0,0,2.06-3.42h2.3a9.06,9.06,0,0,1-2.6,4.62,8.65,8.65,0,0,1-6,2.15,8.26,8.26,0,0,1-6.54-2.79,10.7,10.7,0,0,1-2.52-7.48,10.87,10.87,0,0,1,2.41-7.17,8.07,8.07,0,0,1,6.58-3Q156.07,520.84,158.36,524Zm-11.5.83a8.56,8.56,0,0,0-2,5.11h13.38c-.37-4.74-2.62-7.1-6.72-7.1A5.82,5.82,0,0,0,146.86,524.79Z"/><path class="cls-3" d="M178.17,524.83a7.52,7.52,0,0,1,2.59-3,6.05,6.05,0,0,1,3.54-1,6.37,6.37,0,0,1,4.88,1.92A7.65,7.65,0,0,1,191,528.1v12.7h-2.26V528.4a6.38,6.38,0,0,0-1.12-4.14,4.8,4.8,0,0,0-3.88-1.46,4.45,4.45,0,0,0-3.53,1.61,5.7,5.7,0,0,0-1.43,4V540.8h-2.29V528.4c0-3.74-1.62-5.6-4.85-5.6a4.46,4.46,0,0,0-3.64,1.76,6.26,6.26,0,0,0-1.51,4.29V540.8h-2.25V521.37h2.25v2.93a6.32,6.32,0,0,1,5.64-3.46Q176.7,520.84,178.17,524.83Z"/><path class="cls-3" d="M199.29,514.94a1.58,1.58,0,0,1,.57,1.32,1.84,1.84,0,0,1-.61,1.35,1.94,1.94,0,0,1-1.31.53,1.88,1.88,0,0,1-1.92-1.88,1.58,1.58,0,0,1,.57-1.32,1.74,1.74,0,0,1,1.35-.56A1.8,1.8,0,0,1,199.29,514.94Zm-2.48,6.43h2.26V540.8h-2.26Z"/><path class="cls-3" d="M220.72,528.85V540.8h-2.26V529c0-4.14-1.84-6.2-5.52-6.2a5.11,5.11,0,0,0-3.91,1.69,6.78,6.78,0,0,0-1.84,4.58V540.8h-2.26V521.37h2.26v3.19a7.77,7.77,0,0,1,2.63-2.74,6.86,6.86,0,0,1,3.68-1Q220.72,520.84,220.72,528.85Z"/><path class="cls-3" d="M240.22,524q2.07,2.79,2.22,7.78H226.66a9.12,9.12,0,0,0,1.91,5.6,6.14,6.14,0,0,0,4.81,2,6.52,6.52,0,0,0,4.29-1.39,7.28,7.28,0,0,0,2.06-3.42H242a9.06,9.06,0,0,1-2.6,4.62,8.65,8.65,0,0,1-6.05,2.15,8.26,8.26,0,0,1-6.54-2.79,10.7,10.7,0,0,1-2.52-7.48,10.87,10.87,0,0,1,2.41-7.17,8.07,8.07,0,0,1,6.58-3Q237.93,520.84,240.22,524Zm-11.5.83a8.56,8.56,0,0,0-2,5.11h13.38c-.37-4.74-2.62-7.1-6.72-7.1A5.83,5.83,0,0,0,228.72,524.79Z"/><path class="cls-3" d="M246.61,544l-.45-1.92q1.47.12,2.82.12c1.08,0,1.62-.5,1.62-1.51V530.58q-2,.85-4.66,1.76l-.53-2a50.44,50.44,0,0,0,5.19-1.76V519.3h-4.74v-2h4.74v-7.07h2v7.07h3.68v2h-3.68v8.38a40.31,40.31,0,0,0,4.25-2.25v2q-2.19,1.23-4.25,2.21v11.58c0,1.85-1,2.78-2.93,2.78Zm21.65-34.16c.48,1.12,1,2.51,1.51,4.17H278v6.27h-1.88v-4.39H260.3v4.39h-2V514h9.44a27.4,27.4,0,0,0-1.62-3.8Zm-1.72,8.72a18.82,18.82,0,0,1-6.13,7.48l-1.51-1.32a15.9,15.9,0,0,0,5.87-6.84Zm-7.34,9.47h17.41v1.76q-11.36,5.46-14.51,8.72a3.33,3.33,0,0,0-1.05,2q0,1.47,2.1,1.47h10.26a4,4,0,0,0,2.71-.75c.5-.48.93-2.09,1.28-4.85l1.91.6q-.68,4.74-1.76,5.71a6.18,6.18,0,0,1-4.06,1.13H263.11c-2.8,0-4.21-1-4.21-3.12a5.16,5.16,0,0,1,1.81-3.53q3.6-3.39,12.14-7.26H259.2Zm11.73-10.34a55.82,55.82,0,0,1,5.6,7.11L275,526a51.22,51.22,0,0,0-5.56-7.25Z"/><path class="cls-3" d="M284.13,514.49v-2h12.36v2h-6.05a49,49,0,0,1-2.33,9.13H295v16.69h-6.35v2.89h-2V526.93a38.78,38.78,0,0,1-2.89,5l-1.09-1.73a39.44,39.44,0,0,0,5.78-15.67Zm4.51,23.94h4.47V525.54h-4.47Zm18.64-28.34a53.55,53.55,0,0,1,2.1,5.56h7.37v2H301.23v8.39q-.23,11.56-4.93,18.71l-1.58-1.42q4.26-6.14,4.48-17.29V515.65h8.19a40.46,40.46,0,0,0-2.18-5.18Z"/><path class="cls-3" d="M321.71,520.13a43.3,43.3,0,0,1,5.53,5.45l-1.4,1.35a39.54,39.54,0,0,0-5.48-5.49Zm.53-9.1a40.62,40.62,0,0,1,5.78,5.23l-1.27,1.31a39.26,39.26,0,0,0-5.87-5.26Zm5.26,20.79a125.44,125.44,0,0,1-4.81,12.32l-1.81-.75a107.58,107.58,0,0,0,4.85-12.25Zm2.25-18.23h3.65a19.24,19.24,0,0,0,1-3.5l1.95.26a18.59,18.59,0,0,1-1,3.24h5.15V525H335l1.27,3.61h5.45v1.73H334c0,.3-.19,1.43-.49,3.38h7q0,7.18-.91,8.76a3.6,3.6,0,0,1-3.12,1.58H334l-.45-1.73h2.33a2.14,2.14,0,0,0,2.07-1.28,26.88,26.88,0,0,0,.49-5.6h-5.34c-.3,1.2-.6,2.26-.9,3.16a17.23,17.23,0,0,1-3.95,5.83l-1.24-1.58a16.45,16.45,0,0,0,3.46-5.08,35.28,35.28,0,0,0,1.57-7.44h-3.9v-1.73h6.2L333.14,525h-3.39Zm1.81,5h7.18v-3.42h-7.18Zm7.18,4.81v-3.23h-7.18v3.23Zm4.58.6a22,22,0,0,1-1.73,2.78l-1.2-1.47q3.76-5.67,5-15.14l1.91.37a53.16,53.16,0,0,1-1.42,6.69h8.53v2h-2.33a42.29,42.29,0,0,1-3.08,16,21.59,21.59,0,0,0,5.93,7.22l-1.16,1.73a21.5,21.5,0,0,1-5.75-7,23.6,23.6,0,0,1-5.9,7.18l-1.09-1.73a22.26,22.26,0,0,0,5.94-7.51A51.13,51.13,0,0,1,343.32,524Zm2-4.81-.86,2.33a55.84,55.84,0,0,0,3.46,11.39,42,42,0,0,0,2.37-13.72Z"/><path class="cls-3" d="M366.59,520.73h-4.21V526q-.15,11.43-3,18.42l-1.43-1.28q2.37-6.17,2.48-17.14v-14.1h16.39v1.88H362.38v5h13.49v1.88h-7.4v6.09h7a99.73,99.73,0,0,1-.64,13.64q-.68,3.42-3.87,3.53c-.65,0-1.42,0-2.29-.11l-.57-1.73c1.41.05,2.29.08,2.67.08,1.33-.08,2.14-1,2.44-2.86s.33-5.3.38-10.71h-5.19q-.56,10.51-4.51,15.63l-1.43-1.2q4.1-5.34,4.14-16.91Zm15.33-10.38h2v8.09h6.84q0,17.28-.64,21.42c-.45,2.76-2.18,4.13-5.19,4.13-.5,0-1.35,0-2.55-.11l-.45-1.73c1.4.05,2.3.08,2.7.08q3,0,3.57-2.71.6-3.27.68-19.13h-5q-.34,16.27-6.58,24.06l-1.43-1.28q5.71-7.18,6.06-22.78h-4.48v-1.95h4.51Z"/><path class="cls-3" d="M94.2,420.11h10.9q9,0,9,7.71t-9,7.74H96.5V447H94.2Zm2.3,2v11.39H105a8,8,0,0,0,5.15-1.43,5.41,5.41,0,0,0,1.62-4.28,5.24,5.24,0,0,0-1.62-4.21,7.68,7.68,0,0,0-5.15-1.47Z"/><path class="cls-3" d="M133,430.07a12,12,0,0,1,0,14.32,9.22,9.22,0,0,1-13.76,0,11,11,0,0,1-2.36-7.14,10.79,10.79,0,0,1,2.4-7.18,8.38,8.38,0,0,1,6.84-3.08A8.55,8.55,0,0,1,133,430.07Zm-12.1,1.43a10.35,10.35,0,0,0,0,11.46,6.64,6.64,0,0,0,10.48,0,9.37,9.37,0,0,0,1.73-5.71,9.23,9.23,0,0,0-1.73-5.75,6.64,6.64,0,0,0-10.48,0Z"/><path class="cls-3" d="M143,421.09a1.57,1.57,0,0,1,.56,1.31,1.87,1.87,0,0,1-.6,1.36,2,2,0,0,1-1.31.52,1.85,1.85,0,0,1-1.36-.52,1.88,1.88,0,0,1-.56-1.36,1.6,1.6,0,0,1,.56-1.31,1.77,1.77,0,0,1,1.36-.57A1.85,1.85,0,0,1,143,421.09Zm-2.48,6.43h2.25V447h-2.25Z"/><path class="cls-3" d="M164.41,435v12h-2.25v-11.8q0-6.21-5.53-6.21a5.15,5.15,0,0,0-3.91,1.7,6.87,6.87,0,0,0-1.84,4.58V447h-2.25V427.52h2.25v3.19a8,8,0,0,1,2.63-2.74,6.87,6.87,0,0,1,3.69-1Q164.42,427,164.41,435Z"/><path class="cls-3" d="M173.85,421.24v6.28h5.07v2h-5.07v13.16a3,3,0,0,0,.45,1.84A2.16,2.16,0,0,0,176,445h2.44v2h-2.74a4,4,0,0,1-3.23-1.17,4.67,4.67,0,0,1-.87-3.15V429.47h-4.13v-2h4.13v-5.34Z"/><path class="cls-3" d="M182.72,420.11h9.54q6.28,0,9.44,3.76,2.9,3.42,2.89,9.66t-3.23,9.7q-3.39,3.72-9.58,3.72h-9.06Zm2.29,2v22.78h6.43q5.37,0,8.19-3.05c1.8-1.95,2.71-4.73,2.71-8.34s-.79-6.55-2.37-8.38q-2.57-3-8.05-3Z"/><path class="cls-3" d="M224,430.07a12,12,0,0,1,0,14.32,9.22,9.22,0,0,1-13.76,0,12,12,0,0,1,0-14.32,8.38,8.38,0,0,1,6.84-3.08A8.55,8.55,0,0,1,224,430.07Zm-12.1,1.43a10.35,10.35,0,0,0,0,11.46,6.64,6.64,0,0,0,10.48,0,9.44,9.44,0,0,0,1.73-5.71,9.29,9.29,0,0,0-1.73-5.75,6.64,6.64,0,0,0-10.48,0Z"/><path class="cls-3" d="M244.17,428.68a7.37,7.37,0,0,1,2.67,5.19h-2.26a5.56,5.56,0,0,0-2-3.69,6.54,6.54,0,0,0-4.14-1.24,5.81,5.81,0,0,0-4.88,2.37,11.25,11.25,0,0,0-.08,12,5.82,5.82,0,0,0,4.93,2.22q5.4,0,6.24-5.53h2.21a8.8,8.8,0,0,1-2.78,5.6,8.33,8.33,0,0,1-5.67,1.88,8.07,8.07,0,0,1-6.69-2.93,10.87,10.87,0,0,1-2.22-7.18,11.29,11.29,0,0,1,2.29-7.29,8,8,0,0,1,6.65-3.08A9,9,0,0,1,244.17,428.68Z"/><path class="cls-3" d="M250.52,419.58h2.26v17.75l10.78-9.81h3.09l-8.54,7.7,9.4,11.73h-3l-8-10.26-3.72,3.38V447h-2.26Z"/><path class="cls-3" d="M270.33,450.25l-.45-1.95c1.4.1,2.42.15,3,.15,1.08,0,1.62-.61,1.62-1.84v-9.92q-2.37,1-5.11,1.8l-.53-2q2.93-.79,5.64-1.81v-8.94h-4.89v-2h4.89v-7.3h2v7.3H280v2h-3.42v8.08c1.6-.8,2.8-1.42,3.61-1.84v2.07c-1.33.7-2.54,1.29-3.61,1.76v11.32c0,2.08-1,3.11-2.93,3.11ZM291.42,432c-.48,1.2-1,2.31-1.47,3.34h13.27v2h-4.36a14.25,14.25,0,0,1-3.76,7.59q4,1.92,7.89,4.17l-1.13,1.62a80.63,80.63,0,0,0-8.23-4.44q-3.6,2.82-11.91,4.51l-.79-1.84q7.06-1.35,10.67-3.65c-2.2-1-4.76-2.13-7.66-3.3,1-1.51,2-3.06,2.89-4.66h-5.52v-2h6.53c.58-1.18,1.11-2.37,1.58-3.57Zm-4.33-9.33a51.83,51.83,0,0,1,2.82,5.79h4a45,45,0,0,0,2.79-6.2l1.91.68a33.06,33.06,0,0,1-2.59,5.52h6.54v1.92H281.79v-1.92h6.13q-1.32-2.89-2.52-5Zm4.93-6.57c.35.85.79,2.1,1.31,3.76h8.57v1.87H282.7v-1.87h8.6A18.15,18.15,0,0,0,290,416.5Zm-3.09,21.2a44.67,44.67,0,0,1-2.51,3.87c2.4.87,4.67,1.83,6.8,2.85a12.24,12.24,0,0,0,3.76-6.72Z"/><path class="cls-3" d="M316.22,417.44l1.69-1.13q5.23,3.74,8.61,12.71,5.3,13.61,14.36,19.36L339.64,450q-9.28-5.72-15-20.52a24.47,24.47,0,0,0-.94-2.29q-3.65,15-15.75,22.93l-1.28-1.73q12.33-8.08,15.87-23.57A21,21,0,0,0,316.22,417.44Z"/><path class="cls-3" d="M355.88,441.38a39.22,39.22,0,0,1-9.59,8.09l-1.28-1.7a36.81,36.81,0,0,0,9.4-7.7Zm0,9.1-.46-2c1.81.1,3.11.15,3.91.15a1.38,1.38,0,0,0,1.58-1.54v-9.93l-12,.64-.56-1.8a7.62,7.62,0,0,0,1.8-.38,53,53,0,0,0,11.43-6.95q-4.14.3-11.32.71l-.45-1.84a5,5,0,0,0,1.43-.38q3.35-1.57,7.63-6.31-5.42.3-10.82.3l-.6-1.77q16.31-.07,26.64-2.51l1,1.72a82.07,82.07,0,0,1-13.64,2.07,35.86,35.86,0,0,1-8,7q5.17-.3,10.22-.67,2.59-2.14,5.41-4.63l1.88.91q-10,8.94-17.55,12.62,10.15-.56,17.4-1.35-1.62-2.1-3.15-3.91l1.5-1a68.57,68.57,0,0,1,7.06,9.35l-1.61,1.13q-1.12-1.92-2.6-3.94-3.52.38-9.17.82v10.56a2.52,2.52,0,0,1-2.85,2.86Zm12.32-10.71a69.31,69.31,0,0,1,9.59,8.42l-1.47,1.46a61.22,61.22,0,0,0-9.51-8.57Z"/><path class="cls-3" d="M391,417.1a59,59,0,0,1-6,12q3.12-.48,5.86-1.16l2.11-4,1.8.68q-5.3,10.06-8.76,14.06a46.71,46.71,0,0,0,8.65-2.94v1.92a52,52,0,0,1-11.21,3.38l-.52-1.95a4.18,4.18,0,0,0,.94-.56A49.67,49.67,0,0,0,389.7,430c-2,.43-4.26.85-6.76,1.28l-.49-1.92a2.13,2.13,0,0,0,.86-.79,61,61,0,0,0,5.75-12.18Zm3.65,27.37a54.23,54.23,0,0,1-11.73,4.24l-.26-2a53.51,53.51,0,0,0,12-4.13Zm6.65-10.19q-.3,7.07-1.8,10.34a14.32,14.32,0,0,1-5.42,5.9l-1.31-1.62a12.74,12.74,0,0,0,4.88-5.15q1.39-2.92,1.62-9.47Zm-5.75-3.68.45-.19q2-1.47,5.3-7.93H394.4v-1.92h9.92a26.4,26.4,0,0,0-1.84-4.25l2-.37a36.5,36.5,0,0,1,1.88,4.62H415v1.92H403.42a38.28,38.28,0,0,1-4.92,7.93q5.79-.45,11.65-1.47-1.27-1.87-3-4.09l1.55-1a71.8,71.8,0,0,1,6.08,8.76l-1.57,1.17c-.53-1-1.16-2-1.88-3.12q-7,1.13-15.3,1.8Zm14,19.32c-1.93,0-2.9-1-2.9-3V434h1.92v12.63q0,1.35,1,1.47h2.66c1-.06,1.6-.48,1.77-1.28a27.54,27.54,0,0,0,.34-5.26l1.76.63c0,3.44-.23,5.6-.71,6.51-.48.75-1.49,1.16-3,1.24Z"/><circle class="cls-4" cx="75.7" cy="245.43" r="4.18"/><circle class="cls-4" cx="75.7" cy="339.39" r="4.18"/><circle class="cls-4" cx="75.7" cy="433.36" r="4.18"/><circle class="cls-4" cx="75.7" cy="527.33" r="4.18"/><path class="cls-1" d="M195.65,162.34a7.88,7.88,0,0,1,2.56,6.06,9.77,9.77,0,0,1-2.76,6.65,40,40,0,0,1-5.82,4.52c-3,2-4.82,3.77-5.43,5.32h14.05v3.77H178.89a10.72,10.72,0,0,1,2.79-7.35,36.53,36.53,0,0,1,6.34-5.12,30.84,30.84,0,0,0,4-3.23,6.79,6.79,0,0,0,1.93-4.6,4.54,4.54,0,0,0-1.3-3.54,5.48,5.48,0,0,0-3.82-1.18,4.66,4.66,0,0,0-4,1.81,8.64,8.64,0,0,0-1.49,5.15h-4.29a11,11,0,0,1,2.71-7.55,9.18,9.18,0,0,1,7.24-3A9.49,9.49,0,0,1,195.65,162.34Z"/><path class="cls-1" d="M219.85,164.19q2.47,3.9,2.48,10.43T219.85,185a9.15,9.15,0,0,1-15.35,0Q202,181.15,202,174.62t2.47-10.43a9.15,9.15,0,0,1,15.35,0Zm-12.55,3.27a19.52,19.52,0,0,0-1,7.16,19.73,19.73,0,0,0,1,7.16q1.41,3.81,4.88,3.81t4.88-3.81a20.79,20.79,0,0,0,1-7.16,20.32,20.32,0,0,0-1-7.16q-1.42-3.83-4.88-3.82T207.3,167.46Z"/><path class="cls-1" d="M242.87,162.34a7.91,7.91,0,0,1,2.55,6.06,9.81,9.81,0,0,1-2.75,6.65,40,40,0,0,1-5.82,4.52q-4.53,3-5.43,5.32h14v3.77H226.1a10.73,10.73,0,0,1,2.8-7.35,36.34,36.34,0,0,1,6.33-5.12,31.11,31.11,0,0,0,4-3.23,6.82,6.82,0,0,0,1.92-4.6,4.57,4.57,0,0,0-1.29-3.54,5.5,5.5,0,0,0-3.82-1.18,4.64,4.64,0,0,0-4,1.81,8.64,8.64,0,0,0-1.5,5.15h-4.29a10.91,10.91,0,0,1,2.72-7.55,9.15,9.15,0,0,1,7.24-3A9.52,9.52,0,0,1,242.87,162.34Z"/><path class="cls-1" d="M267.06,164.19q2.49,3.9,2.48,10.43T267.06,185a9.14,9.14,0,0,1-15.34,0q-2.47-3.89-2.48-10.42t2.48-10.43a9.14,9.14,0,0,1,15.34,0Zm-12.55,3.27a19.76,19.76,0,0,0-1,7.16,20,20,0,0,0,1,7.16c1,2.54,2.57,3.81,4.88,3.81s3.93-1.27,4.88-3.81a20.79,20.79,0,0,0,1-7.16,20.32,20.32,0,0,0-1-7.16c-.95-2.55-2.57-3.82-4.88-3.82S255.46,164.91,254.51,167.46Z"/><path class="cls-1" d="M309.59,164.19q3.56,3.93,3.55,10.47A15.37,15.37,0,0,1,309.71,185q2.21,2.94,3.11,4.28l-2.75,2.44c-1.24-1.78-2.27-3.24-3.11-4.36a14.23,14.23,0,0,1-7.48,1.88q-6.41,0-10.11-4.17c-2.33-2.64-3.5-6.11-3.5-10.38s1.17-7.78,3.5-10.43Q293,160,299.48,160T309.59,164.19Zm-17.07,2.64a14.1,14.1,0,0,0,0,15.62,8.62,8.62,0,0,0,7,3,9.57,9.57,0,0,0,5-1.26q-2-2.52-4.21-4.84l2.48-2.44c1.18,1.23,2.59,2.82,4.25,4.76a12.59,12.59,0,0,0,1.77-7,12.24,12.24,0,0,0-2.4-7.95,9.61,9.61,0,0,0-13.89.12Z"/><path class="cls-1" d="M333.6,162.07a7,7,0,0,1,2.51,5.66c0,3.1-1.54,5.16-4.64,6.18a7.8,7.8,0,0,1,3.78,2.32,5.89,5.89,0,0,1,1.41,4.09A8.33,8.33,0,0,1,334,186.7a10.76,10.76,0,0,1-7.36,2.51,10.4,10.4,0,0,1-6.92-2.2,9.9,9.9,0,0,1-3.31-7.2h4.33a5.78,5.78,0,0,0,1.85,4.37,5.69,5.69,0,0,0,4,1.41A6.15,6.15,0,0,0,331,184a4.78,4.78,0,0,0,1.46-3.5,4.34,4.34,0,0,0-1.54-3.66,6.43,6.43,0,0,0-4.21-1.18h-2.05v-3.23h2a5.87,5.87,0,0,0,3.9-1.14,4.05,4.05,0,0,0,1.33-3.26,4.19,4.19,0,0,0-1.22-3.23,5.53,5.53,0,0,0-3.81-1.14,5.66,5.66,0,0,0-4,1.3,5.8,5.8,0,0,0-1.69,3.89H317a9.25,9.25,0,0,1,3.11-6.53,9.63,9.63,0,0,1,6.73-2.32A10.57,10.57,0,0,1,333.6,162.07Z"/></svg>