<svg id="图层_1" data-name="图层 1" xmlns="http://www.w3.org/2000/svg" viewBox="0 0 440 275"><defs><style>.cls-1{fill:#33353c;}</style></defs><title>币网站中英文</title><path class="cls-1" d="M83,15.35h1v7a4.13,4.13,0,0,0,.8,2.77,4.06,4.06,0,0,0,5.34,0,4.14,4.14,0,0,0,.8-2.77v-7h1v7a5,5,0,0,1-1.07,3.41,5.26,5.26,0,0,1-6.74,0A4.92,4.92,0,0,1,83,22.35Z"/><path class="cls-1" d="M100.2,20.82h-1a1.94,1.94,0,0,0-.68-1.27,3.35,3.35,0,0,0-3.17-.08,1.16,1.16,0,0,0-.58,1,1.14,1.14,0,0,0,.74,1,10.65,10.65,0,0,0,1.74.58,8.49,8.49,0,0,1,2.15.77,1.86,1.86,0,0,1,1,1.66c0,1.68-1.12,2.51-3.36,2.51s-3.28-.94-3.47-2.83h.94a2.25,2.25,0,0,0,.77,1.57,2.83,2.83,0,0,0,1.72.43c1.61,0,2.41-.54,2.41-1.63a1.25,1.25,0,0,0-.82-1.15,11.29,11.29,0,0,0-1.84-.58,8.17,8.17,0,0,1-2-.73,1.76,1.76,0,0,1-.94-1.59,1.85,1.85,0,0,1,.9-1.61,3.66,3.66,0,0,1,2.17-.6Q99.84,18.27,100.2,20.82Z"/><path class="cls-1" d="M103.51,15.76a.68.68,0,0,1,.24.56.8.8,0,0,1-.26.58.81.81,0,0,1-.56.22.77.77,0,0,1-.57-.22.78.78,0,0,1-.24-.58.68.68,0,0,1,.24-.56.75.75,0,0,1,.57-.24A.78.78,0,0,1,103.51,15.76Zm-1.06,2.74h1v8.27h-1Z"/><path class="cls-1" d="M112.63,21.68v5.09h-1v-5c0-1.76-.79-2.64-2.35-2.64a2.19,2.19,0,0,0-1.67.72,2.9,2.9,0,0,0-.78,2v5h-1V18.5h1v1.36A3.4,3.4,0,0,1,108,18.69a2.9,2.9,0,0,1,1.57-.42Q112.64,18.27,112.63,21.68Z"/><path class="cls-1" d="M121,20.16V18.5h1v7.66c0,2.67-1.23,4-3.71,4a4,4,0,0,1-2.51-.7,3,3,0,0,1-1.06-2h1a2.19,2.19,0,0,0,.77,1.38,2.9,2.9,0,0,0,1.84.51c1.84,0,2.75-1,2.75-3.09V24.69a3.07,3.07,0,0,1-3,1.89,3.46,3.46,0,0,1-2.77-1.23,4.41,4.41,0,0,1-1-2.92,4.4,4.4,0,0,1,1-2.91,3.45,3.45,0,0,1,2.77-1.25A3.07,3.07,0,0,1,121,20.16Zm-5-.08a3.59,3.59,0,0,0-.74,2.35,3.69,3.69,0,0,0,.69,2.31,2.54,2.54,0,0,0,2.16,1,2.58,2.58,0,0,0,2.14-1,3.71,3.71,0,0,0,.72-2.36,3.68,3.68,0,0,0-.72-2.35,2.78,2.78,0,0,0-4.25,0Z"/><path class="cls-1" d="M131.32,15.83V18.5h2.16v.83h-2.16v5.6a1.24,1.24,0,0,0,.19.78.92.92,0,0,0,.72.23h1v.83H132.1a1.69,1.69,0,0,1-1.38-.5,2,2,0,0,1-.36-1.34v-5.6H128.6V18.5h1.76V16.23Z"/><path class="cls-1" d="M134.93,15.12h1V20a3.22,3.22,0,0,1,1.15-1.29,2.93,2.93,0,0,1,1.57-.44,2.89,2.89,0,0,1,2.21.84,3.34,3.34,0,0,1,.8,2.38v5.28h-1V21.62a2.75,2.75,0,0,0-.61-1.87,2.28,2.28,0,0,0-1.71-.64,2.21,2.21,0,0,0-1.75.83,3,3,0,0,0-.7,2v4.78h-1Z"/><path class="cls-1" d="M149.94,19.6a5.73,5.73,0,0,1,.94,3.31h-6.72A4,4,0,0,0,145,25.3a2.58,2.58,0,0,0,2.05.86,2.8,2.8,0,0,0,1.82-.59,3.06,3.06,0,0,0,.88-1.45h1a3.83,3.83,0,0,1-1.11,2A3.67,3.67,0,0,1,147,27a3.54,3.54,0,0,1-2.79-1.18,4.58,4.58,0,0,1-1.07-3.18,4.59,4.59,0,0,1,1-3.06,3.79,3.79,0,0,1,5.74,0ZM145,20a3.6,3.6,0,0,0-.86,2.17h5.7c-.16-2-1.12-3-2.87-3A2.47,2.47,0,0,0,145,20Z"/><path class="cls-1" d="M164,15.12h1V26.77H164V25.14a3,3,0,0,1-2.9,1.85,3.35,3.35,0,0,1-2.8-1.31,4.89,4.89,0,0,1-.91-3.05,4.85,4.85,0,0,1,.91-3,3.26,3.26,0,0,1,2.75-1.33,3,3,0,0,1,2.9,2Zm-4.9,5a4,4,0,0,0-.69,2.48,4.19,4.19,0,0,0,.68,2.49,2.48,2.48,0,0,0,2.16,1.06,2.43,2.43,0,0,0,2.09-1,4,4,0,0,0,.69-2.4v-.19a4,4,0,0,0-.74-2.48,2.39,2.39,0,0,0-2-1A2.52,2.52,0,0,0,159.09,20.15Z"/><path class="cls-1" d="M168.5,15.76a.68.68,0,0,1,.24.56.8.8,0,0,1-.26.58.81.81,0,0,1-.56.22.77.77,0,0,1-.57-.22.78.78,0,0,1-.24-.58.68.68,0,0,1,.24-.56.75.75,0,0,1,.57-.24A.78.78,0,0,1,168.5,15.76Zm-1.06,2.74h1v8.27h-1Z"/><path class="cls-1" d="M177.27,20.16V18.5h1v7.66q0,4-3.71,4a4,4,0,0,1-2.52-.7,3,3,0,0,1-1.05-2h1a2.15,2.15,0,0,0,.77,1.38,2.88,2.88,0,0,0,1.84.51c1.83,0,2.75-1,2.75-3.09V24.69a3.08,3.08,0,0,1-3,1.89,3.45,3.45,0,0,1-2.77-1.23,4.41,4.41,0,0,1-1-2.92,4.4,4.4,0,0,1,1-2.91,3.43,3.43,0,0,1,2.77-1.25A3.08,3.08,0,0,1,177.27,20.16Zm-5-.08a3.59,3.59,0,0,0-.73,2.35,3.69,3.69,0,0,0,.68,2.31,2.54,2.54,0,0,0,2.16,1,2.6,2.6,0,0,0,2.15-1,3.71,3.71,0,0,0,.72-2.36,3.68,3.68,0,0,0-.72-2.35,2.79,2.79,0,0,0-4.26,0Z"/><path class="cls-1" d="M181.78,15.76a.68.68,0,0,1,.24.56.8.8,0,0,1-.26.58.81.81,0,0,1-.56.22.77.77,0,0,1-.57-.22.78.78,0,0,1-.24-.58.68.68,0,0,1,.24-.56.75.75,0,0,1,.57-.24A.78.78,0,0,1,181.78,15.76Zm-1.06,2.74h1v8.27h-1Z"/><path class="cls-1" d="M186.18,15.83V18.5h2.16v.83h-2.16v5.6a1.24,1.24,0,0,0,.19.78.92.92,0,0,0,.72.23h1v.83H187a1.65,1.65,0,0,1-1.37-.5,2,2,0,0,1-.37-1.34v-5.6h-1.76V18.5h1.76V16.23Z"/><path class="cls-1" d="M195.88,19.22a3.18,3.18,0,0,1,.73,2.22v5.33h-.91V25.19a4.29,4.29,0,0,1-1.34,1.23,4.23,4.23,0,0,1-2.16.57,2.94,2.94,0,0,1-2-.62,2.14,2.14,0,0,1-.75-1.71,2.45,2.45,0,0,1,1.29-2.31,5.64,5.64,0,0,1,2.77-.59h2.11v-.31a2.1,2.1,0,0,0-2.4-2.35,2.94,2.94,0,0,0-1.73.46,1.94,1.94,0,0,0-.84,1.44h-1a2.92,2.92,0,0,1,1.17-2.08,4.11,4.11,0,0,1,2.4-.64A3.28,3.28,0,0,1,195.88,19.22Zm-.23,3.31-2.06,0c-2.09,0-3.14.71-3.14,2.09a1.39,1.39,0,0,0,.53,1.12,2.1,2.1,0,0,0,1.41.43,3.41,3.41,0,0,0,2.3-.86,2.44,2.44,0,0,0,1-1.84Z"/><path class="cls-1" d="M198.93,15.12h1V26.77h-1Z"/><path class="cls-1" d="M207.84,15.35h1V26.77h-1Z"/><path class="cls-1" d="M211.3,15.35h4.06a5,5,0,0,1,4,1.6,6.19,6.19,0,0,1,1.23,4.11,6,6,0,0,1-1.37,4.13,5.27,5.27,0,0,1-4.09,1.58H211.3Zm1,.86v9.7H215a4.53,4.53,0,0,0,3.49-1.3,5,5,0,0,0,1.15-3.55,5.32,5.32,0,0,0-1-3.57,4.24,4.24,0,0,0-3.42-1.28Z"/><path class="cls-1" d="M233.75,20.82h-.95a1.91,1.91,0,0,0-.69-1.27,2.69,2.69,0,0,0-1.67-.44,2.72,2.72,0,0,0-1.49.36,1.16,1.16,0,0,0-.58,1,1.14,1.14,0,0,0,.74,1,10.65,10.65,0,0,0,1.74.58,8.23,8.23,0,0,1,2.14.77,1.85,1.85,0,0,1,1,1.66c0,1.68-1.12,2.51-3.36,2.51s-3.28-.94-3.48-2.83h.95a2.25,2.25,0,0,0,.77,1.57,2.83,2.83,0,0,0,1.72.43c1.61,0,2.4-.54,2.4-1.63a1.24,1.24,0,0,0-.81-1.15,11.29,11.29,0,0,0-1.84-.58,8.17,8.17,0,0,1-2-.73,1.76,1.76,0,0,1-.94-1.59,1.85,1.85,0,0,1,.9-1.61,3.66,3.66,0,0,1,2.17-.6Q233.39,18.27,233.75,20.82Z"/><path class="cls-1" d="M234.59,18.5h1.06l2.7,6.89L241,18.5h1.05l-4.56,11.44h-1l1.39-3.38Z"/><path class="cls-1" d="M249.28,20.82h-.94a2,2,0,0,0-.69-1.27,2.7,2.7,0,0,0-1.68-.44,2.74,2.74,0,0,0-1.49.36,1.17,1.17,0,0,0-.57,1,1.13,1.13,0,0,0,.73,1,10.86,10.86,0,0,0,1.75.58,8.38,8.38,0,0,1,2.14.77,1.86,1.86,0,0,1,1,1.66c0,1.68-1.12,2.51-3.36,2.51s-3.28-.94-3.47-2.83h.95a2.24,2.24,0,0,0,.76,1.57,2.87,2.87,0,0,0,1.73.43c1.6,0,2.4-.54,2.4-1.63a1.24,1.24,0,0,0-.82-1.15,11,11,0,0,0-1.84-.58,7.9,7.9,0,0,1-2-.73,1.76,1.76,0,0,1-1-1.59,1.85,1.85,0,0,1,.9-1.61,3.69,3.69,0,0,1,2.18-.6C248,18.27,249.05,19.12,249.28,20.82Z"/><path class="cls-1" d="M253.06,15.83V18.5h2.16v.83h-2.16v5.6a1.24,1.24,0,0,0,.19.78.92.92,0,0,0,.72.23h1v.83h-1.17a1.65,1.65,0,0,1-1.37-.5,2,2,0,0,1-.37-1.34v-5.6h-1.76V18.5h1.76V16.23Z"/><path class="cls-1" d="M263,19.6a5.81,5.81,0,0,1,1,3.31h-6.72A3.89,3.89,0,0,0,258,25.3a2.61,2.61,0,0,0,2.05.86,2.76,2.76,0,0,0,1.82-.59,3.06,3.06,0,0,0,.88-1.45h1a3.89,3.89,0,0,1-1.1,2,3.7,3.7,0,0,1-2.58.91,3.51,3.51,0,0,1-2.78-1.18,4.53,4.53,0,0,1-1.07-3.18,4.63,4.63,0,0,1,1-3.06,3.79,3.79,0,0,1,5.74,0Zm-4.89.36a3.67,3.67,0,0,0-.87,2.17h5.7c-.16-2-1.12-3-2.87-3A2.45,2.45,0,0,0,258.07,20Z"/><path class="cls-1" d="M271.39,20a3.2,3.2,0,0,1,1.11-1.26,2.56,2.56,0,0,1,1.5-.44,2.73,2.73,0,0,1,2.08.82,3.25,3.25,0,0,1,.75,2.27v5.41h-1V21.49a2.72,2.72,0,0,0-.48-1.76,2,2,0,0,0-1.64-.62,1.93,1.93,0,0,0-1.51.68,2.46,2.46,0,0,0-.61,1.72v5.26h-1V21.49c0-1.59-.69-2.38-2.07-2.38a1.91,1.91,0,0,0-1.55.75,2.71,2.71,0,0,0-.64,1.82v5.09h-1V18.5h1v1.25a2.71,2.71,0,0,1,2.4-1.48A2.49,2.49,0,0,1,271.39,20Z"/><path class="cls-1" d="M280.83,26.5a3,3,0,0,1-1.59,2.77l-.36-.56a2.51,2.51,0,0,0,1.23-2l-.24,0a.87.87,0,0,1-.59-.21.74.74,0,0,1-.22-.57.78.78,0,0,1,.21-.6.82.82,0,0,1,.59-.22C280.51,25.17,280.83,25.61,280.83,26.5Z"/><path class="cls-1" d="M288.31,18.5h1v5.05a3,3,0,0,0,.54,1.94,2.21,2.21,0,0,0,1.78.67,2.31,2.31,0,0,0,1.68-.73,2.92,2.92,0,0,0,.81-1.91v-5h1v8.27h-1V25.38A3,3,0,0,1,291.33,27c-2,0-3-1.13-3-3.39Z"/><path class="cls-1" d="M303.17,20.82h-.94a2,2,0,0,0-.69-1.27,3.35,3.35,0,0,0-3.17-.08,1.18,1.18,0,0,0-.58,1,1.14,1.14,0,0,0,.74,1,10.65,10.65,0,0,0,1.74.58,8.34,8.34,0,0,1,2.15.77,1.86,1.86,0,0,1,1,1.66c0,1.68-1.12,2.51-3.36,2.51s-3.28-.94-3.47-2.83h.94a2.25,2.25,0,0,0,.77,1.57,2.85,2.85,0,0,0,1.73.43c1.6,0,2.4-.54,2.4-1.63a1.24,1.24,0,0,0-.82-1.15,11.29,11.29,0,0,0-1.84-.58,7.9,7.9,0,0,1-2-.73,1.76,1.76,0,0,1-.95-1.59,1.85,1.85,0,0,1,.9-1.61,3.66,3.66,0,0,1,2.17-.6Q302.82,18.27,303.17,20.82Z"/><path class="cls-1" d="M311.23,19.6a5.73,5.73,0,0,1,.95,3.31h-6.72a3.89,3.89,0,0,0,.81,2.39,2.61,2.61,0,0,0,2.05.86,2.81,2.81,0,0,0,1.83-.59,3.23,3.23,0,0,0,.88-1.45h1a3.89,3.89,0,0,1-1.1,2,3.68,3.68,0,0,1-2.58.91,3.51,3.51,0,0,1-2.78-1.18,4.53,4.53,0,0,1-1.07-3.18,4.63,4.63,0,0,1,1-3.06,3.79,3.79,0,0,1,5.74,0Zm-4.89.36a3.67,3.67,0,0,0-.87,2.17h5.7c-.16-2-1.11-3-2.86-3A2.47,2.47,0,0,0,306.34,20Z"/><path class="cls-1" d="M318.39,18.45v1a4.38,4.38,0,0,0-1.27-.18,2,2,0,0,0-1.79,1,3.55,3.55,0,0,0-.66,2.16v4.37h-1V18.5h1v1.58a3.07,3.07,0,0,1,.92-1.23,2.38,2.38,0,0,1,1.6-.58A3.22,3.22,0,0,1,318.39,18.45Z"/><path class="cls-1" d="M325.59,20.82h-.95a2,2,0,0,0-.69-1.27,3.33,3.33,0,0,0-3.16-.08,1.16,1.16,0,0,0-.58,1,1.12,1.12,0,0,0,.74,1,10.65,10.65,0,0,0,1.74.58,8.23,8.23,0,0,1,2.14.77,1.87,1.87,0,0,1,1,1.66c0,1.68-1.12,2.51-3.36,2.51s-3.28-.94-3.48-2.83h.95a2.21,2.21,0,0,0,.77,1.57,2.83,2.83,0,0,0,1.72.43c1.6,0,2.4-.54,2.4-1.63a1.24,1.24,0,0,0-.81-1.15,11.29,11.29,0,0,0-1.84-.58,8,8,0,0,1-2-.73,1.76,1.76,0,0,1-.94-1.59,1.86,1.86,0,0,1,.89-1.61,3.69,3.69,0,0,1,2.18-.6Q325.23,18.27,325.59,20.82Z"/><path class="cls-1" d="M338.59,19a3.15,3.15,0,0,1,1.14,2.21h-1a2.39,2.39,0,0,0-.83-1.57,2.79,2.79,0,0,0-1.76-.52,2.45,2.45,0,0,0-2.08,1,4,4,0,0,0-.75,2.57,4.07,4.07,0,0,0,.72,2.53,2.72,2.72,0,0,0,4.75-1.41h.94a3.74,3.74,0,0,1-1.18,2.38,3.55,3.55,0,0,1-2.42.8,3.48,3.48,0,0,1-2.85-1.24,4.64,4.64,0,0,1-.94-3.06,4.79,4.79,0,0,1,1-3.1,3.37,3.37,0,0,1,2.83-1.32A3.8,3.8,0,0,1,338.59,19Z"/><path class="cls-1" d="M347.84,19.59a4.63,4.63,0,0,1,1,3.05,4.64,4.64,0,0,1-1,3,3.92,3.92,0,0,1-5.85,0,4.59,4.59,0,0,1-1-3,4.59,4.59,0,0,1,1-3.05,3.56,3.56,0,0,1,2.91-1.32A3.62,3.62,0,0,1,347.84,19.59Zm-5.15.6a3.88,3.88,0,0,0-.74,2.45,3.83,3.83,0,0,0,.74,2.43,2.83,2.83,0,0,0,4.46,0,4,4,0,0,0,.74-2.43,4,4,0,0,0-.74-2.45,2.84,2.84,0,0,0-4.46,0Z"/><path class="cls-1" d="M350.54,18.5h1v5.05a3,3,0,0,0,.55,1.94,2.2,2.2,0,0,0,1.77.67,2.31,2.31,0,0,0,1.68-.73,2.88,2.88,0,0,0,.82-1.91v-5h1v8.27h-1V25.38A3,3,0,0,1,353.57,27q-3,0-3-3.39Z"/><path class="cls-1" d="M359.6,15.12h1V26.77h-1Z"/><path class="cls-1" d="M369.12,15.12h1V26.77h-.91V25.14a3,3,0,0,1-2.9,1.85,3.36,3.36,0,0,1-2.8-1.31,4.89,4.89,0,0,1-.91-3.05,4.85,4.85,0,0,1,.91-3,3.26,3.26,0,0,1,2.76-1.33,3,3,0,0,1,2.89,2Zm-4.89,5a4,4,0,0,0-.69,2.48,4.19,4.19,0,0,0,.67,2.49,2.48,2.48,0,0,0,2.16,1.06,2.42,2.42,0,0,0,2.09-1,4,4,0,0,0,.69-2.4v-.19a4,4,0,0,0-.73-2.48,2.41,2.41,0,0,0-2-1A2.51,2.51,0,0,0,364.23,20.15Z"/><path class="cls-1" d="M84.38,47a3.15,3.15,0,0,1,1.14,2.21h-1a2.43,2.43,0,0,0-.83-1.57A2.79,2.79,0,0,0,82,47.11a2.45,2.45,0,0,0-2.08,1,3.94,3.94,0,0,0-.76,2.57,4.07,4.07,0,0,0,.72,2.53,2.47,2.47,0,0,0,2.1.94,2.44,2.44,0,0,0,2.66-2.35h.94a3.79,3.79,0,0,1-1.18,2.38A3.55,3.55,0,0,1,82,55a3.45,3.45,0,0,1-2.85-1.24,4.64,4.64,0,0,1-.94-3.06,4.79,4.79,0,0,1,1-3.1A3.4,3.4,0,0,1,82,46.27,3.82,3.82,0,0,1,84.38,47Z"/><path class="cls-1" d="M93.63,47.59a5.1,5.1,0,0,1,0,6.09,3.93,3.93,0,0,1-5.86,0,4.64,4.64,0,0,1-1-3,4.59,4.59,0,0,1,1-3,3.55,3.55,0,0,1,2.91-1.32A3.63,3.63,0,0,1,93.63,47.59Zm-5.15.6a3.88,3.88,0,0,0-.74,2.45,3.83,3.83,0,0,0,.74,2.43,2.83,2.83,0,0,0,4.46,0,4.39,4.39,0,0,0,0-4.88,2.84,2.84,0,0,0-4.46,0Z"/><path class="cls-1" d="M103.05,49.68v5.09h-1v-5c0-1.76-.78-2.64-2.35-2.64a2.18,2.18,0,0,0-1.66.72,3,3,0,0,0-.79,2v5h-1V46.5h1v1.36a3.4,3.4,0,0,1,1.12-1.17,2.9,2.9,0,0,1,1.57-.42Q103.06,46.27,103.05,49.68Z"/><path class="cls-1" d="M111.79,49.68v5.09h-1v-5c0-1.76-.78-2.64-2.35-2.64a2.2,2.2,0,0,0-1.67.72,2.9,2.9,0,0,0-.78,2v5h-1V46.5h1v1.36a3.4,3.4,0,0,1,1.12-1.17,2.9,2.9,0,0,1,1.57-.42Q111.79,46.27,111.79,49.68Z"/><path class="cls-1" d="M120.09,47.6a5.81,5.81,0,0,1,1,3.31h-6.72a3.89,3.89,0,0,0,.81,2.39,2.61,2.61,0,0,0,2.05.86,2.76,2.76,0,0,0,1.82-.59,3.06,3.06,0,0,0,.88-1.45h1a3.89,3.89,0,0,1-1.1,2,3.7,3.7,0,0,1-2.58.91,3.51,3.51,0,0,1-2.78-1.18,4.54,4.54,0,0,1-1.08-3.18,4.64,4.64,0,0,1,1-3.06,3.79,3.79,0,0,1,5.74,0ZM115.2,48a3.67,3.67,0,0,0-.87,2.17H120c-.16-2-1.12-3-2.87-3A2.45,2.45,0,0,0,115.2,48Z"/><path class="cls-1" d="M128.48,47a3.11,3.11,0,0,1,1.13,2.21h-1a2.35,2.35,0,0,0-.83-1.57,2.77,2.77,0,0,0-1.76-.52,2.46,2.46,0,0,0-2.08,1,4,4,0,0,0-.75,2.57,4.07,4.07,0,0,0,.72,2.53,2.47,2.47,0,0,0,2.09.94,2.44,2.44,0,0,0,2.66-2.35h1a3.74,3.74,0,0,1-1.19,2.38A3.53,3.53,0,0,1,126,55a3.44,3.44,0,0,1-2.84-1.24,4.65,4.65,0,0,1-1-3.06,4.79,4.79,0,0,1,1-3.1,3.38,3.38,0,0,1,2.83-1.32A3.85,3.85,0,0,1,128.48,47Z"/><path class="cls-1" d="M133.18,43.83V46.5h2.16v.83h-2.16v5.6a1.24,1.24,0,0,0,.19.78.92.92,0,0,0,.72.23h1v.83H134a1.67,1.67,0,0,1-1.37-.5,2,2,0,0,1-.37-1.34v-5.6h-1.76V46.5h1.76V44.23Z"/><path class="cls-1" d="M144.12,43.83V46.5h2.16v.83h-2.16v5.6a1.24,1.24,0,0,0,.2.78.91.91,0,0,0,.72.23h1v.83h-1.17a1.69,1.69,0,0,1-1.38-.5,2,2,0,0,1-.37-1.34v-5.6H141.4V46.5h1.76V44.23Z"/><path class="cls-1" d="M154.28,47.59a5.1,5.1,0,0,1,0,6.09,3.92,3.92,0,0,1-5.85,0,4.64,4.64,0,0,1-1-3,4.59,4.59,0,0,1,1-3,3.57,3.57,0,0,1,2.92-1.32A3.61,3.61,0,0,1,154.28,47.59Zm-5.15.6a3.88,3.88,0,0,0-.73,2.45,3.82,3.82,0,0,0,.73,2.43,2.84,2.84,0,0,0,4.47,0,4.44,4.44,0,0,0,0-4.88,2.85,2.85,0,0,0-4.47,0Z"/><path class="cls-1" d="M164.32,43.83V46.5h2.16v.83h-2.16v5.6a1.24,1.24,0,0,0,.19.78.92.92,0,0,0,.72.23h1v.83H165.1a1.69,1.69,0,0,1-1.38-.5,2,2,0,0,1-.36-1.34v-5.6H161.6V46.5h1.76V44.23Z"/><path class="cls-1" d="M167.93,43.12h1V48a3.22,3.22,0,0,1,1.15-1.29,2.93,2.93,0,0,1,1.57-.44,2.89,2.89,0,0,1,2.21.84,3.34,3.34,0,0,1,.8,2.38v5.28h-1V49.62a2.75,2.75,0,0,0-.61-1.87,2.28,2.28,0,0,0-1.71-.64,2.21,2.21,0,0,0-1.75.83,3,3,0,0,0-.7,2.05v4.78h-1Z"/><path class="cls-1" d="M182.94,47.6a5.73,5.73,0,0,1,.94,3.31h-6.72A4,4,0,0,0,178,53.3a2.58,2.58,0,0,0,2.05.86,2.8,2.8,0,0,0,1.82-.59,3.06,3.06,0,0,0,.88-1.45h1a3.83,3.83,0,0,1-1.11,2A3.67,3.67,0,0,1,180,55a3.54,3.54,0,0,1-2.79-1.18,5.16,5.16,0,0,1,0-6.24,3.79,3.79,0,0,1,5.74,0ZM178,48a3.6,3.6,0,0,0-.86,2.17h5.7c-.16-2-1.12-3-2.87-3A2.47,2.47,0,0,0,178,48Z"/><path class="cls-1" d="M197.47,49.68v5.09h-1v-5c0-1.76-.79-2.64-2.35-2.64a2.19,2.19,0,0,0-1.67.72,2.9,2.9,0,0,0-.78,2v5h-1V46.5h1v1.36a3.4,3.4,0,0,1,1.12-1.17,2.9,2.9,0,0,1,1.57-.42C196.44,46.27,197.47,47.41,197.47,49.68Z"/><path class="cls-1" d="M205.77,47.6a5.81,5.81,0,0,1,.95,3.31H200a3.89,3.89,0,0,0,.81,2.39,2.6,2.6,0,0,0,2.05.86,2.78,2.78,0,0,0,1.82-.59,3.06,3.06,0,0,0,.88-1.45h1a3.89,3.89,0,0,1-1.1,2,3.72,3.72,0,0,1-2.58.91,3.51,3.51,0,0,1-2.78-1.18A4.54,4.54,0,0,1,199,50.63a4.59,4.59,0,0,1,1-3.06,3.79,3.79,0,0,1,5.74,0Zm-4.89.36a3.61,3.61,0,0,0-.87,2.17h5.7c-.16-2-1.12-3-2.87-3A2.45,2.45,0,0,0,200.88,48Z"/><path class="cls-1" d="M210.25,43.83V46.5h2.16v.83h-2.16v5.6a1.31,1.31,0,0,0,.19.78.92.92,0,0,0,.72.23h1v.83H211a1.69,1.69,0,0,1-1.38-.5,2,2,0,0,1-.37-1.34v-5.6h-1.76V46.5h1.76V44.23Z"/><path class="cls-1" d="M212.94,46.5H214l2.24,7,2.08-7h.93l2.08,7,2.26-7h1.05l-2.83,8.27h-.93l-2.08-7-2.11,7h-.91Z"/><path class="cls-1" d="M232.28,47.59a5.1,5.1,0,0,1,0,6.09,3.92,3.92,0,0,1-5.85,0,4.64,4.64,0,0,1-1-3,4.59,4.59,0,0,1,1-3,3.57,3.57,0,0,1,2.92-1.32A3.61,3.61,0,0,1,232.28,47.59Zm-5.15.6a3.88,3.88,0,0,0-.73,2.45,3.82,3.82,0,0,0,.73,2.43,2.84,2.84,0,0,0,4.47,0,4.44,4.44,0,0,0,0-4.88,2.85,2.85,0,0,0-4.47,0Z"/><path class="cls-1" d="M239.66,46.45v1a4.36,4.36,0,0,0-1.26-.18,2.06,2.06,0,0,0-1.8,1A3.61,3.61,0,0,0,236,50.4v4.37h-1V46.5h1v1.58a3.05,3.05,0,0,1,.91-1.23,2.4,2.4,0,0,1,1.6-.58A3.22,3.22,0,0,1,239.66,46.45Z"/><path class="cls-1" d="M240.75,43.12h1v7.55l4.59-4.17h1.31L244,49.78l4,5h-1.26l-3.43-4.37-1.58,1.44v2.93h-1Z"/><path class="cls-1" d="M254.31,46.5h1v5a3,3,0,0,0,.55,1.94,2.19,2.19,0,0,0,1.77.67,2.31,2.31,0,0,0,1.68-.73,2.92,2.92,0,0,0,.82-1.91v-5h1v8.27h-1V53.38A3,3,0,0,1,257.34,55q-3,0-3-3.39Z"/><path class="cls-1" d="M269.18,48.82h-.95a1.94,1.94,0,0,0-.68-1.27,3.35,3.35,0,0,0-3.17-.08,1.16,1.16,0,0,0-.58,1,1.14,1.14,0,0,0,.74,1,10.65,10.65,0,0,0,1.74.58,8.34,8.34,0,0,1,2.15.77,1.86,1.86,0,0,1,1,1.66c0,1.68-1.12,2.51-3.36,2.51s-3.28-.94-3.47-2.83h.94a2.25,2.25,0,0,0,.77,1.57,2.85,2.85,0,0,0,1.73.43c1.6,0,2.4-.54,2.4-1.63a1.25,1.25,0,0,0-.82-1.15,11.29,11.29,0,0,0-1.84-.58,8.17,8.17,0,0,1-2-.73,1.76,1.76,0,0,1-.94-1.59,1.85,1.85,0,0,1,.9-1.61,3.66,3.66,0,0,1,2.17-.6C267.85,46.27,268.94,47.12,269.18,48.82Z"/><path class="cls-1" d="M272.49,43.76a.68.68,0,0,1,.24.56.76.76,0,0,1-.26.58.81.81,0,0,1-.56.22.77.77,0,0,1-.57-.22.78.78,0,0,1-.24-.58.68.68,0,0,1,.24-.56.75.75,0,0,1,.57-.24A.78.78,0,0,1,272.49,43.76Zm-1.06,2.74h1v8.27h-1Z"/><path class="cls-1" d="M281.61,49.68v5.09h-1v-5c0-1.76-.78-2.64-2.35-2.64a2.2,2.2,0,0,0-1.67.72,2.94,2.94,0,0,0-.78,2v5h-1V46.5h1v1.36A3.4,3.4,0,0,1,277,46.69a2.9,2.9,0,0,1,1.57-.42Q281.61,46.27,281.61,49.68Z"/><path class="cls-1" d="M290,48.16V46.5h1v7.66c0,2.67-1.23,4-3.71,4a4,4,0,0,1-2.51-.7,3,3,0,0,1-1.06-2h1a2.19,2.19,0,0,0,.77,1.38,2.9,2.9,0,0,0,1.84.51c1.84,0,2.75-1,2.75-3.09V52.69a3.06,3.06,0,0,1-3,1.89,3.42,3.42,0,0,1-2.76-1.23,4.91,4.91,0,0,1,0-5.83A3.41,3.41,0,0,1,287,46.27,3.06,3.06,0,0,1,290,48.16Zm-5-.08a3.59,3.59,0,0,0-.74,2.35,3.69,3.69,0,0,0,.69,2.31,2.54,2.54,0,0,0,2.16,1,2.58,2.58,0,0,0,2.14-1,4.21,4.21,0,0,0,0-4.71,2.78,2.78,0,0,0-4.25,0Z"/><path class="cls-1" d="M304.38,47.22a3.18,3.18,0,0,1,.73,2.22v5.33h-.91V53.19a4.29,4.29,0,0,1-1.34,1.23,4.2,4.2,0,0,1-2.16.57,3,3,0,0,1-2-.62,2.14,2.14,0,0,1-.75-1.71,2.45,2.45,0,0,1,1.29-2.31,5.67,5.67,0,0,1,2.77-.59h2.11v-.31a2.1,2.1,0,0,0-2.4-2.35,2.88,2.88,0,0,0-1.72.46,2,2,0,0,0-.85,1.44h-.95a2.92,2.92,0,0,1,1.17-2.08,4.11,4.11,0,0,1,2.4-.64A3.28,3.28,0,0,1,304.38,47.22Zm-.23,3.31-2.06,0c-2.09,0-3.14.71-3.14,2.09a1.39,1.39,0,0,0,.53,1.12,2.1,2.1,0,0,0,1.41.43,3.41,3.41,0,0,0,2.3-.86,2.44,2.44,0,0,0,1-1.84Z"/><path class="cls-1" d="M307.13,46.5h1v5a3,3,0,0,0,.54,1.94,2.22,2.22,0,0,0,1.78.67,2.31,2.31,0,0,0,1.68-.73,3,3,0,0,0,.82-1.91v-5h1v8.27h-1V53.38A3,3,0,0,1,310.15,55q-3,0-3-3.39Z"/><path class="cls-1" d="M317.88,43.83V46.5H320v.83h-2.16v5.6a1.31,1.31,0,0,0,.19.78.92.92,0,0,0,.72.23h1v.83h-1.16a1.69,1.69,0,0,1-1.38-.5,2,2,0,0,1-.37-1.34v-5.6h-1.76V46.5h1.76V44.23Z"/><path class="cls-1" d="M328,47.59a5.1,5.1,0,0,1,0,6.09,3.92,3.92,0,0,1-5.85,0,5.08,5.08,0,0,1,0-6.09,3.56,3.56,0,0,1,2.91-1.32A3.62,3.62,0,0,1,328,47.59Zm-5.15.6a3.88,3.88,0,0,0-.74,2.45,3.83,3.83,0,0,0,.74,2.43,2.83,2.83,0,0,0,4.46,0,4.39,4.39,0,0,0,0-4.88,2.84,2.84,0,0,0-4.46,0Z"/><path class="cls-1" d="M336.7,48a3.18,3.18,0,0,1,1.1-1.26,2.59,2.59,0,0,1,1.51-.44,2.76,2.76,0,0,1,2.08.82,3.25,3.25,0,0,1,.75,2.27v5.41h-1V49.49a2.72,2.72,0,0,0-.48-1.76,2,2,0,0,0-1.65-.62,1.9,1.9,0,0,0-1.5.68,2.41,2.41,0,0,0-.61,1.72v5.26h-1V49.49c0-1.59-.69-2.38-2.06-2.38a1.9,1.9,0,0,0-1.55.75,2.66,2.66,0,0,0-.64,1.82v5.09h-1V46.5h1v1.25a2.68,2.68,0,0,1,2.4-1.48A2.5,2.5,0,0,1,336.7,48Z"/><path class="cls-1" d="M350.23,47.22a3.18,3.18,0,0,1,.74,2.22v5.33h-.91V53.19a4.26,4.26,0,0,1-3.51,1.8,2.93,2.93,0,0,1-2-.62,2.12,2.12,0,0,1-.76-1.71,2.46,2.46,0,0,1,1.3-2.31,5.64,5.64,0,0,1,2.77-.59H350v-.31a2.1,2.1,0,0,0-2.4-2.35,2.91,2.91,0,0,0-1.73.46A2,2,0,0,0,345,49h-.94a2.92,2.92,0,0,1,1.17-2.08,4.09,4.09,0,0,1,2.4-.64A3.24,3.24,0,0,1,350.23,47.22ZM350,50.53l-2.06,0c-2.09,0-3.14.71-3.14,2.09a1.39,1.39,0,0,0,.53,1.12,2.1,2.1,0,0,0,1.41.43,3.41,3.41,0,0,0,2.3-.86,2.44,2.44,0,0,0,1-1.84Z"/><path class="cls-1" d="M355,43.83V46.5h2.16v.83H355v5.6a1.24,1.24,0,0,0,.19.78.92.92,0,0,0,.72.23h1v.83h-1.17a1.69,1.69,0,0,1-1.38-.5,2,2,0,0,1-.36-1.34v-5.6h-1.76V46.5H354V44.23Z"/><path class="cls-1" d="M360.14,43.76a.68.68,0,0,1,.24.56.8.8,0,0,1-.26.58.83.83,0,0,1-.56.22.75.75,0,0,1-.57-.22.78.78,0,0,1-.24-.58.68.68,0,0,1,.24-.56.73.73,0,0,1,.57-.24A.78.78,0,0,1,360.14,43.76Zm-1.06,2.74h1v8.27h-1Z"/><path class="cls-1" d="M368.44,47a3.15,3.15,0,0,1,1.14,2.21h-1a2.4,2.4,0,0,0-.84-1.57,2.74,2.74,0,0,0-1.75-.52,2.45,2.45,0,0,0-2.08,1,3.94,3.94,0,0,0-.76,2.57,4.07,4.07,0,0,0,.72,2.53,2.47,2.47,0,0,0,2.1.94,2.44,2.44,0,0,0,2.66-2.35h.94a3.79,3.79,0,0,1-1.18,2.38A3.55,3.55,0,0,1,366,55a3.45,3.45,0,0,1-2.85-1.24,4.64,4.64,0,0,1-.94-3.06,4.79,4.79,0,0,1,1-3.1A3.4,3.4,0,0,1,366,46.27,3.82,3.82,0,0,1,368.44,47Z"/><path class="cls-1" d="M87.62,77.68v5.09h-1v-5c0-1.76-.78-2.64-2.35-2.64a2.17,2.17,0,0,0-1.66.72,3,3,0,0,0-.79,2v5h-1V74.5h1v1.36A3.4,3.4,0,0,1,83,74.69a2.9,2.9,0,0,1,1.57-.42Q87.63,74.27,87.62,77.68Z"/><path class="cls-1" d="M96.18,75.59a5.1,5.1,0,0,1,0,6.09,3.92,3.92,0,0,1-5.85,0,5.08,5.08,0,0,1,0-6.09,3.56,3.56,0,0,1,2.91-1.32A3.62,3.62,0,0,1,96.18,75.59Zm-5.15.6a3.88,3.88,0,0,0-.74,2.45A3.83,3.83,0,0,0,91,81.07a2.83,2.83,0,0,0,4.46,0,4.39,4.39,0,0,0,0-4.88,2.84,2.84,0,0,0-4.46,0Z"/><path class="cls-1" d="M105.13,71.12h1V82.77h-.92V81.14A3,3,0,0,1,102.28,83a3.33,3.33,0,0,1-2.8-1.31,5.53,5.53,0,0,1,0-6.08,3.26,3.26,0,0,1,2.75-1.33,3,3,0,0,1,2.9,2Zm-4.9,5a4,4,0,0,0-.69,2.48,4.27,4.27,0,0,0,.67,2.49,2.5,2.5,0,0,0,2.16,1.06,2.44,2.44,0,0,0,2.1-1,4,4,0,0,0,.69-2.4v-.19a4,4,0,0,0-.74-2.48,2.39,2.39,0,0,0-2-1A2.52,2.52,0,0,0,100.23,76.15Z"/><path class="cls-1" d="M114.39,75.6a5.73,5.73,0,0,1,.94,3.31h-6.72a4,4,0,0,0,.82,2.39,2.58,2.58,0,0,0,2,.86,2.8,2.8,0,0,0,1.82-.59,3.06,3.06,0,0,0,.88-1.45h1a3.83,3.83,0,0,1-1.11,2,3.67,3.67,0,0,1-2.57.91,3.54,3.54,0,0,1-2.79-1.18,5.16,5.16,0,0,1,0-6.24,3.79,3.79,0,0,1,5.74,0Zm-4.9.36a3.6,3.6,0,0,0-.86,2.17h5.7c-.16-2-1.12-3-2.87-3A2.47,2.47,0,0,0,109.49,76Z"/><path class="cls-1" d="M123,76.82H122a2,2,0,0,0-.69-1.27,3.35,3.35,0,0,0-3.17-.08,1.17,1.17,0,0,0-.57,1,1.13,1.13,0,0,0,.73,1,10.51,10.51,0,0,0,1.75.58,8.38,8.38,0,0,1,2.14.77,1.86,1.86,0,0,1,1,1.66c0,1.68-1.12,2.51-3.36,2.51s-3.28-.94-3.47-2.83h.94a2.29,2.29,0,0,0,.77,1.57,2.87,2.87,0,0,0,1.73.43c1.6,0,2.4-.54,2.4-1.63a1.24,1.24,0,0,0-.82-1.15,11.29,11.29,0,0,0-1.84-.58,7.9,7.9,0,0,1-2-.73,1.76,1.76,0,0,1-1-1.59,1.85,1.85,0,0,1,.9-1.61,3.67,3.67,0,0,1,2.18-.6C121.65,74.27,122.75,75.12,123,76.82Z"/><path class="cls-1" d="M136.16,75.22a3.14,3.14,0,0,1,.74,2.22v5.33H136V81.19a4.22,4.22,0,0,1-3.5,1.8,2.94,2.94,0,0,1-2-.62,2.14,2.14,0,0,1-.75-1.71,2.45,2.45,0,0,1,1.29-2.31,5.64,5.64,0,0,1,2.77-.59h2.11v-.31a2.1,2.1,0,0,0-2.4-2.35,2.94,2.94,0,0,0-1.73.46A1.94,1.94,0,0,0,131,77H130a2.92,2.92,0,0,1,1.17-2.08,4.11,4.11,0,0,1,2.4-.64A3.24,3.24,0,0,1,136.16,75.22Zm-.22,3.31-2.06,0c-2.09,0-3.14.71-3.14,2.09a1.39,1.39,0,0,0,.53,1.12,2.1,2.1,0,0,0,1.41.43,3.41,3.41,0,0,0,2.3-.86,2.44,2.44,0,0,0,1-1.84Z"/><path class="cls-1" d="M145.64,77.68v5.09h-1v-5c0-1.76-.79-2.64-2.36-2.64a2.18,2.18,0,0,0-1.66.72,2.9,2.9,0,0,0-.78,2v5h-1V74.5h1v1.36A3.31,3.31,0,0,1,141,74.69a2.9,2.9,0,0,1,1.57-.42C144.61,74.27,145.64,75.41,145.64,77.68Z"/><path class="cls-1" d="M153.89,71.12h1V82.77h-.91V81.14A3,3,0,0,1,151,83a3.36,3.36,0,0,1-2.8-1.31,5.53,5.53,0,0,1,0-6.08A3.27,3.27,0,0,1,151,74.27a3,3,0,0,1,2.89,2Zm-4.89,5a4,4,0,0,0-.69,2.48,4.19,4.19,0,0,0,.67,2.49,2.48,2.48,0,0,0,2.16,1.06,2.44,2.44,0,0,0,2.1-1,4,4,0,0,0,.68-2.4v-.19a4,4,0,0,0-.73-2.48,2.4,2.4,0,0,0-2-1A2.51,2.51,0,0,0,149,76.15Z"/><path class="cls-1" d="M166.87,74.45v1a4.38,4.38,0,0,0-1.27-.18,2.05,2.05,0,0,0-1.79,1,3.55,3.55,0,0,0-.65,2.16v4.37h-1V74.5h1v1.58a3,3,0,0,1,.91-1.23,2.4,2.4,0,0,1,1.6-.58A3.22,3.22,0,0,1,166.87,74.45Z"/><path class="cls-1" d="M174.24,75.6a5.73,5.73,0,0,1,.95,3.31h-6.72a3.89,3.89,0,0,0,.81,2.39,2.61,2.61,0,0,0,2.05.86,2.81,2.81,0,0,0,1.83-.59,3.23,3.23,0,0,0,.88-1.45h1a3.89,3.89,0,0,1-1.1,2,3.68,3.68,0,0,1-2.58.91,3.51,3.51,0,0,1-2.78-1.18,4.53,4.53,0,0,1-1.07-3.18,4.63,4.63,0,0,1,1-3.06,3.79,3.79,0,0,1,5.74,0Zm-4.89.36a3.67,3.67,0,0,0-.87,2.17h5.7c-.16-2-1.11-3-2.86-3A2.45,2.45,0,0,0,169.35,76Z"/><path class="cls-1" d="M182.8,75.22a3.18,3.18,0,0,1,.74,2.22v5.33h-.91V81.19a4.26,4.26,0,0,1-3.51,1.8,2.93,2.93,0,0,1-2-.62,2.12,2.12,0,0,1-.76-1.71,2.46,2.46,0,0,1,1.3-2.31,5.64,5.64,0,0,1,2.77-.59h2.11v-.31a2.1,2.1,0,0,0-2.4-2.35,2.91,2.91,0,0,0-1.73.46A2,2,0,0,0,177.6,77h-.94a2.92,2.92,0,0,1,1.17-2.08,4.11,4.11,0,0,1,2.4-.64A3.24,3.24,0,0,1,182.8,75.22Zm-.22,3.31-2.06,0c-2.09,0-3.14.71-3.14,2.09a1.39,1.39,0,0,0,.53,1.12,2.1,2.1,0,0,0,1.41.43,3.41,3.41,0,0,0,2.3-.86,2.44,2.44,0,0,0,1-1.84Z"/><path class="cls-1" d="M185.86,71.12h1V82.77h-1Z"/><path class="cls-1" d="M190.68,71.76a.68.68,0,0,1,.24.56.8.8,0,0,1-.26.58.83.83,0,0,1-.56.22.78.78,0,0,1-.58-.22.78.78,0,0,1-.24-.58.68.68,0,0,1,.24-.56.75.75,0,0,1,.58-.24A.8.8,0,0,1,190.68,71.76Zm-1.06,2.74h1v8.27h-1Z"/><path class="cls-1" d="M192.63,74.5H199v.73l-5.34,6.71h5.6v.83h-6.83V82l5.33-6.69h-5.17Z"/><path class="cls-1" d="M207,75.6a5.73,5.73,0,0,1,.95,3.31h-6.72A3.89,3.89,0,0,0,202,81.3a2.61,2.61,0,0,0,2.05.86,2.81,2.81,0,0,0,1.83-.59,3.23,3.23,0,0,0,.88-1.45h1a3.89,3.89,0,0,1-1.1,2,3.68,3.68,0,0,1-2.58.91,3.51,3.51,0,0,1-2.78-1.18,4.53,4.53,0,0,1-1.07-3.18,4.63,4.63,0,0,1,1-3.06,3.79,3.79,0,0,1,5.74,0ZM202.1,76a3.6,3.6,0,0,0-.86,2.17h5.69c-.16-2-1.11-3-2.86-3A2.47,2.47,0,0,0,202.1,76Z"/><path class="cls-1" d="M219.48,74.45v1a4.38,4.38,0,0,0-1.27-.18,2,2,0,0,0-1.79,1,3.55,3.55,0,0,0-.66,2.16v4.37h-1V74.5h1v1.58a3.15,3.15,0,0,1,.91-1.23,2.43,2.43,0,0,1,1.61-.58A3.22,3.22,0,0,1,219.48,74.45Z"/><path class="cls-1" d="M226.85,75.6a5.73,5.73,0,0,1,.94,3.31h-6.72a4,4,0,0,0,.82,2.39,2.58,2.58,0,0,0,2.05.86,2.8,2.8,0,0,0,1.82-.59,3.06,3.06,0,0,0,.88-1.45h1a3.83,3.83,0,0,1-1.11,2,3.67,3.67,0,0,1-2.57.91,3.54,3.54,0,0,1-2.79-1.18,5.16,5.16,0,0,1,0-6.24,3.79,3.79,0,0,1,5.74,0ZM222,76a3.6,3.6,0,0,0-.86,2.17h5.7c-.16-2-1.12-3-2.87-3A2.48,2.48,0,0,0,222,76Z"/><path class="cls-1" d="M235.41,75.22a3.18,3.18,0,0,1,.74,2.22v5.33h-.91V81.19a4.33,4.33,0,0,1-1.35,1.23,4.2,4.2,0,0,1-2.16.57,3,3,0,0,1-2-.62,2.14,2.14,0,0,1-.75-1.71,2.44,2.44,0,0,1,1.3-2.31,5.6,5.6,0,0,1,2.76-.59h2.12v-.31a2.1,2.1,0,0,0-2.4-2.35,2.89,2.89,0,0,0-1.73.46,2,2,0,0,0-.85,1.44h-.94a2.88,2.88,0,0,1,1.16-2.08,4.11,4.11,0,0,1,2.4-.64A3.25,3.25,0,0,1,235.41,75.22Zm-.22,3.31-2.07,0c-2.09,0-3.13.71-3.13,2.09a1.38,1.38,0,0,0,.52,1.12,2.12,2.12,0,0,0,1.41.43,3.44,3.44,0,0,0,2.31-.86,2.44,2.44,0,0,0,1-1.84Z"/><path class="cls-1" d="M238.47,71.12h1V82.77h-1Z"/><path class="cls-1" d="M241.54,78.21h8.08V79h-8.08Z"/><path class="cls-1" d="M253.43,71.83V74.5h2.16v.83h-2.16v5.6a1.24,1.24,0,0,0,.19.78.92.92,0,0,0,.72.23h1v.83h-1.17a1.69,1.69,0,0,1-1.38-.5,2,2,0,0,1-.36-1.34v-5.6h-1.76V74.5h1.76V72.23Z"/><path class="cls-1" d="M258.58,71.76a.68.68,0,0,1,.24.56.8.8,0,0,1-.26.58.83.83,0,0,1-.56.22.75.75,0,0,1-.57-.22.78.78,0,0,1-.24-.58.68.68,0,0,1,.24-.56.73.73,0,0,1,.57-.24A.78.78,0,0,1,258.58,71.76Zm-1.06,2.74h1v8.27h-1Z"/><path class="cls-1" d="M266.93,76a3.26,3.26,0,0,1,1.1-1.26,2.59,2.59,0,0,1,1.51-.44,2.74,2.74,0,0,1,2.08.82,3.25,3.25,0,0,1,.75,2.27v5.41h-1V77.49a2.72,2.72,0,0,0-.48-1.76,2,2,0,0,0-1.65-.62,1.9,1.9,0,0,0-1.5.68,2.41,2.41,0,0,0-.61,1.72v5.26h-1V77.49c0-1.59-.68-2.38-2.06-2.38a1.9,1.9,0,0,0-1.55.75,2.66,2.66,0,0,0-.64,1.82v5.09h-1V74.5h1v1.25a2.7,2.7,0,0,1,2.4-1.48A2.5,2.5,0,0,1,266.93,76Z"/><path class="cls-1" d="M280.67,75.6a5.81,5.81,0,0,1,.95,3.31H274.9a3.89,3.89,0,0,0,.81,2.39,2.61,2.61,0,0,0,2.05.86,2.81,2.81,0,0,0,1.83-.59,3.23,3.23,0,0,0,.88-1.45h1a3.89,3.89,0,0,1-1.1,2,3.68,3.68,0,0,1-2.58.91A3.51,3.51,0,0,1,275,81.81a4.53,4.53,0,0,1-1.07-3.18,4.63,4.63,0,0,1,1-3.06,3.79,3.79,0,0,1,5.74,0Zm-4.89.36a3.67,3.67,0,0,0-.87,2.17h5.7c-.16-2-1.12-3-2.86-3A2.45,2.45,0,0,0,275.78,76Z"/><path class="cls-1" d="M294.39,75a3.18,3.18,0,0,1,1.13,2.21h-1a2.39,2.39,0,0,0-.83-1.57,2.77,2.77,0,0,0-1.76-.52,2.45,2.45,0,0,0-2.08,1,4,4,0,0,0-.75,2.57,4.07,4.07,0,0,0,.72,2.53,2.47,2.47,0,0,0,2.09.94,2.44,2.44,0,0,0,2.66-2.35h.94a3.74,3.74,0,0,1-1.18,2.38A3.53,3.53,0,0,1,292,83a3.44,3.44,0,0,1-2.84-1.24,4.65,4.65,0,0,1-.95-3.06,4.79,4.79,0,0,1,1-3.1A3.37,3.37,0,0,1,292,74.27,3.85,3.85,0,0,1,294.39,75Z"/><path class="cls-1" d="M303.63,75.59a5.1,5.1,0,0,1,0,6.09,3.92,3.92,0,0,1-5.85,0,4.64,4.64,0,0,1-1-3,4.59,4.59,0,0,1,1-3,3.57,3.57,0,0,1,2.92-1.32A3.61,3.61,0,0,1,303.63,75.59Zm-5.15.6a3.88,3.88,0,0,0-.73,2.45,3.82,3.82,0,0,0,.73,2.43,2.84,2.84,0,0,0,4.47,0,4.44,4.44,0,0,0,0-4.88,2.85,2.85,0,0,0-4.47,0Z"/><path class="cls-1" d="M313.06,77.68v5.09h-1v-5c0-1.76-.79-2.64-2.35-2.64a2.19,2.19,0,0,0-1.67.72,2.9,2.9,0,0,0-.78,2v5h-1V74.5h1v1.36a3.4,3.4,0,0,1,1.12-1.17,2.9,2.9,0,0,1,1.57-.42C312,74.27,313.06,75.41,313.06,77.68Z"/><path class="cls-1" d="M321.79,77.68v5.09h-1v-5c0-1.76-.78-2.64-2.35-2.64a2.18,2.18,0,0,0-1.66.72,3,3,0,0,0-.79,2v5h-1V74.5h1v1.36a3.49,3.49,0,0,1,1.12-1.17,2.9,2.9,0,0,1,1.57-.42Q321.79,74.27,321.79,77.68Z"/><path class="cls-1" d="M330.1,75.6a5.81,5.81,0,0,1,.94,3.31h-6.72a3.89,3.89,0,0,0,.82,2.39,2.58,2.58,0,0,0,2.05.86,2.8,2.8,0,0,0,1.82-.59,3.14,3.14,0,0,0,.88-1.45h1a3.82,3.82,0,0,1-1.1,2,3.67,3.67,0,0,1-2.57.91,3.51,3.51,0,0,1-2.79-1.18,4.58,4.58,0,0,1-1.07-3.18,4.63,4.63,0,0,1,1-3.06,3.8,3.8,0,0,1,5.75,0Zm-4.9.36a3.6,3.6,0,0,0-.86,2.17H330c-.16-2-1.11-3-2.86-3A2.47,2.47,0,0,0,325.2,76Z"/><path class="cls-1" d="M338.48,75a3.15,3.15,0,0,1,1.14,2.21h-1a2.4,2.4,0,0,0-.84-1.57,2.74,2.74,0,0,0-1.75-.52,2.45,2.45,0,0,0-2.08,1,3.94,3.94,0,0,0-.76,2.57,4.07,4.07,0,0,0,.72,2.53,2.47,2.47,0,0,0,2.1.94,2.44,2.44,0,0,0,2.66-2.35h.94a3.79,3.79,0,0,1-1.18,2.38,3.55,3.55,0,0,1-2.42.8,3.45,3.45,0,0,1-2.85-1.24,4.64,4.64,0,0,1-.94-3.06,4.79,4.79,0,0,1,1-3.1,3.4,3.4,0,0,1,2.84-1.32A3.82,3.82,0,0,1,338.48,75Z"/><path class="cls-1" d="M343.18,71.83V74.5h2.16v.83h-2.16v5.6a1.24,1.24,0,0,0,.2.78.9.9,0,0,0,.72.23h1v.83H344a1.69,1.69,0,0,1-1.38-.5,2,2,0,0,1-.37-1.34v-5.6h-1.76V74.5h1.76V72.23Z"/><path class="cls-1" d="M348.34,71.76a.68.68,0,0,1,.24.56.8.8,0,0,1-.26.58.83.83,0,0,1-.56.22.75.75,0,0,1-.57-.22.78.78,0,0,1-.24-.58.68.68,0,0,1,.24-.56.73.73,0,0,1,.57-.24A.78.78,0,0,1,348.34,71.76Zm-1.06,2.74h1v8.27h-1Z"/><path class="cls-1" d="M357.28,75.59a5.1,5.1,0,0,1,0,6.09,3.93,3.93,0,0,1-5.86,0,4.64,4.64,0,0,1-1-3,4.59,4.59,0,0,1,1-3,3.55,3.55,0,0,1,2.91-1.32A3.63,3.63,0,0,1,357.28,75.59Zm-5.15.6a3.88,3.88,0,0,0-.74,2.45,3.83,3.83,0,0,0,.74,2.43,2.83,2.83,0,0,0,4.46,0,4.39,4.39,0,0,0,0-4.88,2.84,2.84,0,0,0-4.46,0Z"/><path class="cls-1" d="M366.7,77.68v5.09h-1v-5c0-1.76-.78-2.64-2.35-2.64a2.18,2.18,0,0,0-1.66.72,3,3,0,0,0-.79,2v5h-1V74.5h1v1.36a3.49,3.49,0,0,1,1.12-1.17,2.9,2.9,0,0,1,1.57-.42Q366.71,74.27,366.7,77.68Z"/><path class="cls-1" d="M78.93,99.12h1v5.12a3,3,0,0,1,2.9-2,3.26,3.26,0,0,1,2.75,1.33,5.53,5.53,0,0,1,0,6.08A3.32,3.32,0,0,1,82.76,111a3,3,0,0,1-2.91-1.85v1.63h-.92Zm1.67,5a3.93,3.93,0,0,0-.74,2.48v.19a3.88,3.88,0,0,0,.69,2.4,2.42,2.42,0,0,0,2.1,1,2.52,2.52,0,0,0,2.16-1.06,4.27,4.27,0,0,0,.67-2.49,4.05,4.05,0,0,0-.69-2.48,2.52,2.52,0,0,0-2.18-1.06A2.37,2.37,0,0,0,80.6,104.08Z"/><path class="cls-1" d="M94.44,103.6a5.81,5.81,0,0,1,.94,3.31H88.66a4,4,0,0,0,.82,2.39,2.58,2.58,0,0,0,2,.86,2.8,2.8,0,0,0,1.82-.59,3.14,3.14,0,0,0,.88-1.45h1a3.9,3.9,0,0,1-1.11,2,3.67,3.67,0,0,1-2.57.91,3.53,3.53,0,0,1-2.79-1.18,4.58,4.58,0,0,1-1.07-3.18,4.63,4.63,0,0,1,1-3.06,3.8,3.8,0,0,1,5.75,0Zm-4.9.36a3.6,3.6,0,0,0-.86,2.17h5.69c-.16-2-1.11-3-2.86-3A2.47,2.47,0,0,0,89.54,104Z"/><path class="cls-1" d="M98.92,99.83v2.67h2.16v.83H98.92v5.6a1.24,1.24,0,0,0,.19.78.92.92,0,0,0,.72.23h1v.83H99.7a1.65,1.65,0,0,1-1.37-.5,2,2,0,0,1-.37-1.34v-5.6H96.2v-.83H98v-2.27Z"/><path class="cls-1" d="M101.61,102.5h1.07l2.24,7,2.08-7h.93l2.08,7,2.25-7h1.06l-2.83,8.27h-.93l-2.08-7-2.11,7h-.92Z"/><path class="cls-1" d="M120.69,103.6a5.81,5.81,0,0,1,1,3.31h-6.72a3.89,3.89,0,0,0,.81,2.39,2.61,2.61,0,0,0,2,.86,2.81,2.81,0,0,0,1.83-.59,3.23,3.23,0,0,0,.88-1.45h1a3.89,3.89,0,0,1-1.1,2,3.68,3.68,0,0,1-2.58.91,3.51,3.51,0,0,1-2.78-1.18,4.53,4.53,0,0,1-1.07-3.18,4.63,4.63,0,0,1,1-3.06,3.79,3.79,0,0,1,5.74,0Zm-4.89.36a3.67,3.67,0,0,0-.87,2.17h5.7c-.16-2-1.12-3-2.86-3A2.45,2.45,0,0,0,115.8,104Z"/><path class="cls-1" d="M129.46,103.6a5.81,5.81,0,0,1,.95,3.31h-6.72a3.89,3.89,0,0,0,.81,2.39,2.6,2.6,0,0,0,2,.86,2.78,2.78,0,0,0,1.82-.59,3.06,3.06,0,0,0,.88-1.45h1a3.89,3.89,0,0,1-1.1,2,3.72,3.72,0,0,1-2.58.91,3.51,3.51,0,0,1-2.78-1.18,4.54,4.54,0,0,1-1.08-3.18,4.59,4.59,0,0,1,1-3.06,3.79,3.79,0,0,1,5.74,0Zm-4.89.36a3.61,3.61,0,0,0-.87,2.17h5.7c-.16-2-1.12-3-2.87-3A2.45,2.45,0,0,0,124.57,104Z"/><path class="cls-1" d="M138.66,105.68v5.09h-1v-5c0-1.76-.78-2.64-2.35-2.64a2.17,2.17,0,0,0-1.66.72,2.9,2.9,0,0,0-.79,2v5h-1V102.5h1v1.36a3.4,3.4,0,0,1,1.12-1.17,2.9,2.9,0,0,1,1.57-.42Q138.66,102.27,138.66,105.68Z"/><path class="cls-1" d="M152.73,105.68v5.09h-1v-5c0-1.76-.79-2.64-2.36-2.64a2.18,2.18,0,0,0-1.66.72,3,3,0,0,0-.79,2v5h-1V102.5h1v1.36a3.49,3.49,0,0,1,1.12-1.17,2.93,2.93,0,0,1,1.57-.42Q152.72,102.27,152.73,105.68Z"/><path class="cls-1" d="M161.28,103.59a5.1,5.1,0,0,1,0,6.09,3.92,3.92,0,0,1-5.85,0,4.64,4.64,0,0,1-1-3,4.54,4.54,0,0,1,1-3,3.54,3.54,0,0,1,2.91-1.32A3.61,3.61,0,0,1,161.28,103.59Zm-5.15.6a3.88,3.88,0,0,0-.73,2.45,3.82,3.82,0,0,0,.73,2.43,2.84,2.84,0,0,0,4.47,0,4.44,4.44,0,0,0,0-4.88,2.85,2.85,0,0,0-4.47,0Z"/><path class="cls-1" d="M170.23,99.12h1v11.65h-.91v-1.63a3,3,0,0,1-2.9,1.85,3.35,3.35,0,0,1-2.8-1.31,5.53,5.53,0,0,1,0-6.08,3.26,3.26,0,0,1,2.75-1.33,3,3,0,0,1,2.9,2Zm-4.9,5a4,4,0,0,0-.69,2.48,4.19,4.19,0,0,0,.68,2.49,2.48,2.48,0,0,0,2.16,1.06,2.43,2.43,0,0,0,2.09-1,4,4,0,0,0,.69-2.4v-.19a4,4,0,0,0-.74-2.48,2.39,2.39,0,0,0-2-1A2.52,2.52,0,0,0,165.33,104.15Z"/><path class="cls-1" d="M179.49,103.6a5.81,5.81,0,0,1,.95,3.31h-6.72a3.89,3.89,0,0,0,.81,2.39,2.6,2.6,0,0,0,2.05.86,2.78,2.78,0,0,0,1.82-.59,3.06,3.06,0,0,0,.88-1.45h1a3.89,3.89,0,0,1-1.1,2,3.7,3.7,0,0,1-2.58.91,3.51,3.51,0,0,1-2.78-1.18,4.54,4.54,0,0,1-1.08-3.18,4.64,4.64,0,0,1,1-3.06,3.79,3.79,0,0,1,5.74,0Zm-4.89.36a3.61,3.61,0,0,0-.87,2.17h5.7c-.16-2-1.12-3-2.87-3A2.45,2.45,0,0,0,174.6,104Z"/><path class="cls-1" d="M188.08,104.82h-.94a2,2,0,0,0-.69-1.27,2.7,2.7,0,0,0-1.68-.44,2.74,2.74,0,0,0-1.49.36,1.17,1.17,0,0,0-.57,1,1.13,1.13,0,0,0,.73,1,11.22,11.22,0,0,0,1.75.58,8.23,8.23,0,0,1,2.14.77,1.86,1.86,0,0,1,1,1.66c0,1.68-1.12,2.51-3.36,2.51s-3.28-.94-3.47-2.83h.95a2.24,2.24,0,0,0,.76,1.57,2.87,2.87,0,0,0,1.73.43c1.6,0,2.4-.54,2.4-1.63a1.24,1.24,0,0,0-.81-1.15,11.65,11.65,0,0,0-1.84-.58,8,8,0,0,1-2-.73,1.76,1.76,0,0,1-.94-1.59,1.84,1.84,0,0,1,.89-1.61,3.69,3.69,0,0,1,2.18-.6C186.75,102.27,187.85,103.12,188.08,104.82Z"/><path class="cls-1" d="M191.49,109.39a.73.73,0,0,1,.24.58.8.8,0,0,1-.25.58.83.83,0,0,1-.56.22.75.75,0,0,1-.58-.24.77.77,0,0,1-.24-.56.73.73,0,0,1,.24-.58.78.78,0,0,1,.58-.22A.81.81,0,0,1,191.49,109.39Z"/><path class="cls-1" d="M199.48,99.35h1v7a4.13,4.13,0,0,0,.8,2.77,4.08,4.08,0,0,0,5.35,0,4.2,4.2,0,0,0,.8-2.77v-7h1v7a5,5,0,0,1-1.07,3.41,5.26,5.26,0,0,1-6.74,0,4.92,4.92,0,0,1-1.08-3.43Z"/><path class="cls-1" d="M216.66,104.82h-.94a2,2,0,0,0-.69-1.27,3.35,3.35,0,0,0-3.17-.08,1.18,1.18,0,0,0-.58,1,1.14,1.14,0,0,0,.74,1,10.65,10.65,0,0,0,1.74.58,8.34,8.34,0,0,1,2.15.77,1.86,1.86,0,0,1,1,1.66c0,1.68-1.12,2.51-3.36,2.51s-3.28-.94-3.47-2.83H211a2.25,2.25,0,0,0,.77,1.57,2.85,2.85,0,0,0,1.73.43c1.6,0,2.4-.54,2.4-1.63a1.24,1.24,0,0,0-.82-1.15,11.29,11.29,0,0,0-1.84-.58,7.9,7.9,0,0,1-2-.73,1.76,1.76,0,0,1-1-1.59,1.85,1.85,0,0,1,.9-1.61,3.66,3.66,0,0,1,2.17-.6Q216.32,102.27,216.66,104.82Z"/><path class="cls-1" d="M224.72,103.6a5.81,5.81,0,0,1,.95,3.31H219a3.89,3.89,0,0,0,.81,2.39,2.61,2.61,0,0,0,2.05.86,2.81,2.81,0,0,0,1.83-.59,3.23,3.23,0,0,0,.88-1.45h1a3.89,3.89,0,0,1-1.1,2,3.68,3.68,0,0,1-2.58.91,3.51,3.51,0,0,1-2.78-1.18,4.53,4.53,0,0,1-1.07-3.18,4.63,4.63,0,0,1,1-3.06,3.79,3.79,0,0,1,5.74,0Zm-4.89.36a3.67,3.67,0,0,0-.87,2.17h5.7c-.16-2-1.12-3-2.86-3A2.45,2.45,0,0,0,219.83,104Z"/><path class="cls-1" d="M231.88,102.45v1a4.38,4.38,0,0,0-1.27-.18,2,2,0,0,0-1.79,1,3.55,3.55,0,0,0-.66,2.16v4.37h-1V102.5h1v1.58a3.07,3.07,0,0,1,.92-1.23,2.38,2.38,0,0,1,1.6-.58A3.22,3.22,0,0,1,231.88,102.45Z"/><path class="cls-1" d="M239.83,99.76a.68.68,0,0,1,.24.56.8.8,0,0,1-.26.58.83.83,0,0,1-.56.22.75.75,0,0,1-.57-.22.78.78,0,0,1-.24-.58.68.68,0,0,1,.24-.56.73.73,0,0,1,.57-.24A.78.78,0,0,1,239.83,99.76Zm-1.06,2.74h1v8.27h-1Z"/><path class="cls-1" d="M249,105.68v5.09h-1v-5c0-1.76-.79-2.64-2.35-2.64a2.19,2.19,0,0,0-1.67.72,2.9,2.9,0,0,0-.78,2v5h-1V102.5h1v1.36a3.4,3.4,0,0,1,1.12-1.17,2.89,2.89,0,0,1,1.56-.42Q248.95,102.27,249,105.68Z"/><path class="cls-1" d="M255.79,99.35v.84H254.4a1.15,1.15,0,0,0-.91.32,1.51,1.51,0,0,0-.29,1v1h2.48v.83H253.2v7.44h-1v-7.44H250v-.83h2.21v-1a2.19,2.19,0,0,1,.51-1.58,2,2,0,0,1,1.57-.59Z"/><path class="cls-1" d="M263.43,103.59a5.1,5.1,0,0,1,0,6.09,3.93,3.93,0,0,1-5.86,0,4.64,4.64,0,0,1-1-3,4.54,4.54,0,0,1,1-3,3.54,3.54,0,0,1,2.91-1.32A3.64,3.64,0,0,1,263.43,103.59Zm-5.15.6a3.82,3.82,0,0,0-.74,2.45,3.77,3.77,0,0,0,.74,2.43,2.83,2.83,0,0,0,4.46,0,4.39,4.39,0,0,0,0-4.88,2.84,2.84,0,0,0-4.46,0Z"/><path class="cls-1" d="M270.8,102.45v1a4.26,4.26,0,0,0-1.26-.18,2,2,0,0,0-1.79,1,3.55,3.55,0,0,0-.66,2.16v4.37h-1V102.5h1v1.58a3.15,3.15,0,0,1,.91-1.23,2.4,2.4,0,0,1,1.6-.58A3.19,3.19,0,0,1,270.8,102.45Z"/><path class="cls-1" d="M277.84,104a3.2,3.2,0,0,1,1.11-1.26,2.53,2.53,0,0,1,1.5-.44,2.74,2.74,0,0,1,2.08.82,3.25,3.25,0,0,1,.75,2.27v5.41h-1v-5.28a2.72,2.72,0,0,0-.48-1.76,2,2,0,0,0-1.64-.62,1.93,1.93,0,0,0-1.51.68,2.41,2.41,0,0,0-.61,1.72v5.26h-1v-5.28c0-1.59-.69-2.38-2.07-2.38a1.91,1.91,0,0,0-1.55.75,2.66,2.66,0,0,0-.64,1.82v5.09h-1V102.5h1v1.25a2.71,2.71,0,0,1,2.4-1.48A2.49,2.49,0,0,1,277.84,104Z"/><path class="cls-1" d="M291.38,103.22a3.18,3.18,0,0,1,.73,2.22v5.33h-.91v-1.58a4.29,4.29,0,0,1-1.34,1.23,4.2,4.2,0,0,1-2.16.57,3,3,0,0,1-2-.62,2.14,2.14,0,0,1-.75-1.71,2.45,2.45,0,0,1,1.29-2.31,5.67,5.67,0,0,1,2.77-.59h2.11v-.31a2.1,2.1,0,0,0-2.4-2.35,2.88,2.88,0,0,0-1.72.46,2,2,0,0,0-.85,1.44h-.95a2.92,2.92,0,0,1,1.17-2.08,4.11,4.11,0,0,1,2.4-.64A3.28,3.28,0,0,1,291.38,103.22Zm-.23,3.31-2.06,0c-2.09,0-3.14.71-3.14,2.09a1.39,1.39,0,0,0,.53,1.12,2.1,2.1,0,0,0,1.41.43,3.41,3.41,0,0,0,2.3-.86,2.44,2.44,0,0,0,1-1.84Z"/><path class="cls-1" d="M296.13,99.83v2.67h2.16v.83h-2.16v5.6a1.24,1.24,0,0,0,.19.78.92.92,0,0,0,.72.23h1v.83h-1.17a1.67,1.67,0,0,1-1.37-.5,2,2,0,0,1-.37-1.34v-5.6h-1.76v-.83h1.76v-2.27Z"/><path class="cls-1" d="M301.28,99.76a.68.68,0,0,1,.24.56.79.79,0,0,1-.25.58.83.83,0,0,1-.56.22.78.78,0,0,1-.58-.22.78.78,0,0,1-.24-.58.68.68,0,0,1,.24-.56.75.75,0,0,1,.58-.24A.78.78,0,0,1,301.28,99.76Zm-1,2.74h1v8.27h-1Z"/><path class="cls-1" d="M310.23,103.59a5.14,5.14,0,0,1,0,6.09,3.93,3.93,0,0,1-5.86,0,4.64,4.64,0,0,1-1-3,4.54,4.54,0,0,1,1-3,3.54,3.54,0,0,1,2.91-1.32A3.64,3.64,0,0,1,310.23,103.59Zm-5.16.6a3.88,3.88,0,0,0-.73,2.45,3.82,3.82,0,0,0,.73,2.43,2.84,2.84,0,0,0,4.47,0,4.44,4.44,0,0,0,0-4.88,2.85,2.85,0,0,0-4.47,0Z"/><path class="cls-1" d="M319.65,105.68v5.09h-1v-5c0-1.76-.78-2.64-2.35-2.64a2.2,2.2,0,0,0-1.67.72,2.9,2.9,0,0,0-.78,2v5h-1V102.5h1v1.36a3.4,3.4,0,0,1,1.12-1.17,2.9,2.9,0,0,1,1.57-.42Q319.65,102.27,319.65,105.68Z"/><path class="cls-1" d="M328.53,99.76a.68.68,0,0,1,.24.56.8.8,0,0,1-.26.58.81.81,0,0,1-.56.22.77.77,0,0,1-.57-.22.78.78,0,0,1-.24-.58.68.68,0,0,1,.24-.56.75.75,0,0,1,.57-.24A.78.78,0,0,1,328.53,99.76Zm-1.06,2.74h1v8.27h-1Z"/><path class="cls-1" d="M337,104.82h-.94a2,2,0,0,0-.69-1.27,3.35,3.35,0,0,0-3.17-.08,1.17,1.17,0,0,0-.57,1,1.13,1.13,0,0,0,.73,1,10.51,10.51,0,0,0,1.75.58,8.38,8.38,0,0,1,2.14.77,1.86,1.86,0,0,1,1,1.66c0,1.68-1.12,2.51-3.36,2.51s-3.28-.94-3.47-2.83h.94a2.29,2.29,0,0,0,.77,1.57,2.87,2.87,0,0,0,1.73.43c1.6,0,2.4-.54,2.4-1.63a1.24,1.24,0,0,0-.82-1.15,11.29,11.29,0,0,0-1.84-.58,7.9,7.9,0,0,1-2-.73,1.76,1.76,0,0,1-.95-1.59,1.85,1.85,0,0,1,.9-1.61,3.67,3.67,0,0,1,2.18-.6C335.71,102.27,336.81,103.12,337,104.82Z"/><path class="cls-1" d="M350.43,103.6a5.81,5.81,0,0,1,.95,3.31h-6.72a3.89,3.89,0,0,0,.81,2.39,2.61,2.61,0,0,0,2,.86,2.83,2.83,0,0,0,1.83-.59,3.23,3.23,0,0,0,.88-1.45h1a3.89,3.89,0,0,1-1.1,2,3.68,3.68,0,0,1-2.58.91,3.51,3.51,0,0,1-2.78-1.18,4.54,4.54,0,0,1-1.08-3.18,4.64,4.64,0,0,1,1-3.06,3.79,3.79,0,0,1,5.74,0Zm-4.89.36a3.67,3.67,0,0,0-.87,2.17h5.7c-.16-2-1.12-3-2.86-3A2.45,2.45,0,0,0,345.54,104Z"/><path class="cls-1" d="M359.63,105.68v5.09h-1v-5c0-1.76-.78-2.64-2.35-2.64a2.18,2.18,0,0,0-1.66.72,3,3,0,0,0-.79,2v5h-1V102.5h1v1.36a3.4,3.4,0,0,1,1.12-1.17,2.9,2.9,0,0,1,1.57-.42Q359.64,102.27,359.63,105.68Z"/><path class="cls-1" d="M367.55,103a3.15,3.15,0,0,1,1.14,2.21h-1a2.43,2.43,0,0,0-.83-1.57,2.79,2.79,0,0,0-1.76-.52,2.45,2.45,0,0,0-2.08,1,4,4,0,0,0-.76,2.57,4.07,4.07,0,0,0,.72,2.53,2.47,2.47,0,0,0,2.1.94,2.44,2.44,0,0,0,2.66-2.35h.94a3.74,3.74,0,0,1-1.18,2.38,3.55,3.55,0,0,1-2.42.8,3.46,3.46,0,0,1-2.85-1.24,4.64,4.64,0,0,1-.94-3.06,4.79,4.79,0,0,1,1-3.1,3.4,3.4,0,0,1,2.84-1.32A3.82,3.82,0,0,1,367.55,103Z"/><path class="cls-1" d="M374.93,102.45v1a4.38,4.38,0,0,0-1.27-.18,2.05,2.05,0,0,0-1.79,1,3.61,3.61,0,0,0-.65,2.16v4.37h-1V102.5h1v1.58a3,3,0,0,1,.91-1.23,2.4,2.4,0,0,1,1.6-.58A3.22,3.22,0,0,1,374.93,102.45Z"/><path class="cls-1" d="M69.14,130.5H70.2l2.7,6.89,2.67-6.89h1.06l-4.56,11.44H71l1.39-3.38Z"/><path class="cls-1" d="M84.33,131.6a5.56,5.56,0,0,1,0,6.08A3.3,3.3,0,0,1,81.57,139a3,3,0,0,1-2.89-2v4.9h-1V130.5h.91v1.63a3,3,0,0,1,2.91-1.86A3.36,3.36,0,0,1,84.33,131.6Zm-5,.55a4,4,0,0,0-.68,2.44v.18a3.88,3.88,0,0,0,.73,2.45,2.44,2.44,0,0,0,2,1,2.56,2.56,0,0,0,2.17-1,4.17,4.17,0,0,0,.68-2.49,4.28,4.28,0,0,0-.66-2.5,2.51,2.51,0,0,0-2.16-1.07A2.43,2.43,0,0,0,79.33,132.15Z"/><path class="cls-1" d="M88.93,127.83v2.67h2.16v.83H88.93v5.6a1.24,1.24,0,0,0,.2.78.9.9,0,0,0,.72.23h1v.83H89.72a1.69,1.69,0,0,1-1.38-.5,2,2,0,0,1-.37-1.34v-5.6H86.21v-.83H88v-2.27Z"/><path class="cls-1" d="M98.84,131.6a5.81,5.81,0,0,1,.94,3.31H93.06a3.89,3.89,0,0,0,.82,2.39,2.58,2.58,0,0,0,2.05.86,2.8,2.8,0,0,0,1.82-.59,3.14,3.14,0,0,0,.88-1.45h1a3.9,3.9,0,0,1-1.11,2,3.67,3.67,0,0,1-2.57.91,3.53,3.53,0,0,1-2.79-1.18,4.58,4.58,0,0,1-1.07-3.18,4.63,4.63,0,0,1,1-3.06,3.8,3.8,0,0,1,5.75,0Zm-4.9.36a3.6,3.6,0,0,0-.86,2.17h5.69c-.16-2-1.11-3-2.86-3A2.47,2.47,0,0,0,93.94,132Z"/><path class="cls-1" d="M107.56,127.12h1v11.65h-.91v-1.63a3,3,0,0,1-2.9,1.85,3.35,3.35,0,0,1-2.8-1.31,5.53,5.53,0,0,1,0-6.08,3.26,3.26,0,0,1,2.75-1.33,3,3,0,0,1,2.9,2Zm-4.9,5a4,4,0,0,0-.69,2.48,4.19,4.19,0,0,0,.68,2.49,2.48,2.48,0,0,0,2.16,1.06,2.43,2.43,0,0,0,2.09-1,4,4,0,0,0,.69-2.4v-.19a4,4,0,0,0-.74-2.48,2.39,2.39,0,0,0-2-1A2.52,2.52,0,0,0,102.66,132.15Z"/><path class="cls-1" d="M121.94,131.22a3.18,3.18,0,0,1,.74,2.22v5.33h-.91v-1.58a4.33,4.33,0,0,1-1.35,1.23,4.2,4.2,0,0,1-2.16.57,3,3,0,0,1-2-.62,2.14,2.14,0,0,1-.75-1.71,2.44,2.44,0,0,1,1.3-2.31,5.61,5.61,0,0,1,2.77-.59h2.11v-.31a2.1,2.1,0,0,0-2.4-2.35,2.91,2.91,0,0,0-1.73.46,2,2,0,0,0-.85,1.44h-.94a2.92,2.92,0,0,1,1.17-2.08,4.07,4.07,0,0,1,2.4-.64A3.24,3.24,0,0,1,121.94,131.22Zm-.22,3.31-2.07,0c-2.09,0-3.13.71-3.13,2.09a1.36,1.36,0,0,0,.53,1.12,2.09,2.09,0,0,0,1.4.43,3.42,3.42,0,0,0,2.31-.86,2.44,2.44,0,0,0,1-1.84Z"/><path class="cls-1" d="M131.41,133.68v5.09h-1v-5c0-1.76-.78-2.64-2.35-2.64a2.18,2.18,0,0,0-1.66.72,3,3,0,0,0-.79,1.95v5h-1V130.5h1v1.36a3.4,3.4,0,0,1,1.12-1.17,2.9,2.9,0,0,1,1.57-.42Q131.41,130.27,131.41,133.68Z"/><path class="cls-1" d="M139.67,127.12h1v11.65h-.91v-1.63a3,3,0,0,1-2.9,1.85,3.35,3.35,0,0,1-2.8-1.31,5.53,5.53,0,0,1,0-6.08,3.26,3.26,0,0,1,2.75-1.33,3,3,0,0,1,2.9,2Zm-4.9,5a4,4,0,0,0-.69,2.48,4.19,4.19,0,0,0,.68,2.49,2.48,2.48,0,0,0,2.16,1.06,2.43,2.43,0,0,0,2.09-1,4,4,0,0,0,.69-2.4v-.19a4,4,0,0,0-.74-2.48,2.39,2.39,0,0,0-2-1A2.52,2.52,0,0,0,134.77,132.15Z"/><path class="cls-1" d="M154.08,132.82h-.94a2,2,0,0,0-.69-1.27,2.7,2.7,0,0,0-1.68-.44,2.74,2.74,0,0,0-1.49.36,1.17,1.17,0,0,0-.57,1,1.12,1.12,0,0,0,.74,1,10.65,10.65,0,0,0,1.74.58,8.23,8.23,0,0,1,2.14.77,1.86,1.86,0,0,1,1,1.66c0,1.68-1.12,2.51-3.36,2.51s-3.27-.94-3.47-2.83h.95a2.24,2.24,0,0,0,.76,1.57,2.87,2.87,0,0,0,1.73.43c1.6,0,2.4-.54,2.4-1.63a1.24,1.24,0,0,0-.81-1.15,11.29,11.29,0,0,0-1.84-.58,8,8,0,0,1-2-.73,1.76,1.76,0,0,1-.94-1.59,1.86,1.86,0,0,1,.89-1.61,3.69,3.69,0,0,1,2.18-.6C152.75,130.27,153.85,131.12,154.08,132.82Z"/><path class="cls-1" d="M157.86,127.83v2.67H160v.83h-2.16v5.6a1.24,1.24,0,0,0,.19.78.92.92,0,0,0,.72.23h1v.83h-1.17a1.67,1.67,0,0,1-1.37-.5,2,2,0,0,1-.37-1.34v-5.6h-1.76v-.83h1.76v-2.27Z"/><path class="cls-1" d="M168,131.59a5.1,5.1,0,0,1,0,6.09,3.93,3.93,0,0,1-5.86,0,4.64,4.64,0,0,1-1-3,4.59,4.59,0,0,1,1-3,3.56,3.56,0,0,1,2.91-1.32A3.63,3.63,0,0,1,168,131.59Zm-5.15.6a3.88,3.88,0,0,0-.74,2.45,3.83,3.83,0,0,0,.74,2.43,2.83,2.83,0,0,0,4.46,0,4.39,4.39,0,0,0,0-4.88,2.84,2.84,0,0,0-4.46,0Z"/><path class="cls-1" d="M175.4,130.45v1a4.38,4.38,0,0,0-1.27-.18,2,2,0,0,0-1.79,1,3.55,3.55,0,0,0-.66,2.16v4.37h-1V130.5h1v1.58a3.07,3.07,0,0,1,.92-1.23,2.38,2.38,0,0,1,1.6-.58A3.22,3.22,0,0,1,175.4,130.45Z"/><path class="cls-1" d="M182.77,131.6a5.81,5.81,0,0,1,.95,3.31H177a3.89,3.89,0,0,0,.81,2.39,2.6,2.6,0,0,0,2.05.86,2.78,2.78,0,0,0,1.82-.59,3.06,3.06,0,0,0,.88-1.45h1a3.89,3.89,0,0,1-1.1,2,3.72,3.72,0,0,1-2.58.91,3.51,3.51,0,0,1-2.78-1.18,4.54,4.54,0,0,1-1.08-3.18,4.64,4.64,0,0,1,1-3.06,3.79,3.79,0,0,1,5.74,0Zm-4.89.36a3.61,3.61,0,0,0-.87,2.17h5.7c-.16-2-1.12-3-2.87-3A2.45,2.45,0,0,0,177.88,132Z"/><path class="cls-1" d="M191.49,127.12h1v11.65h-.91v-1.63a3,3,0,0,1-2.9,1.85,3.36,3.36,0,0,1-2.8-1.31,5.53,5.53,0,0,1,0-6.08,3.27,3.27,0,0,1,2.76-1.33,3,3,0,0,1,2.89,2Zm-4.89,5a4,4,0,0,0-.69,2.48,4.19,4.19,0,0,0,.67,2.49,2.69,2.69,0,0,0,4.26,0,4.07,4.07,0,0,0,.68-2.4v-.19a4,4,0,0,0-.73-2.48,2.41,2.41,0,0,0-2-1A2.51,2.51,0,0,0,186.6,132.15Z"/><path class="cls-1" d="M205.28,127.35h4.64q3.81,0,3.81,3.28t-3.82,3.29h-3.65v4.85h-1Zm1,.86v4.85h3.6a3.35,3.35,0,0,0,2.19-.61,2.3,2.3,0,0,0,.69-1.82,2.26,2.26,0,0,0-.69-1.8,3.31,3.31,0,0,0-2.19-.62Z"/><path class="cls-1" d="M221.75,128a3,3,0,0,1,1,2.37,3.83,3.83,0,0,1-1.14,2.68,15.67,15.67,0,0,1-2.37,1.83c-1.62,1.1-2.52,2.09-2.7,3h6.22v.89h-7.42a4,4,0,0,1,1.13-2.72,13.92,13.92,0,0,1,2.4-2,17.09,17.09,0,0,0,1.94-1.52,3.17,3.17,0,0,0,.94-2.19,2.23,2.23,0,0,0-.7-1.76,2.66,2.66,0,0,0-1.87-.62,2.46,2.46,0,0,0-2,.83,3.46,3.46,0,0,0-.77,2.43h-1a4.15,4.15,0,0,1,1.06-3,3.43,3.43,0,0,1,2.68-1.11A3.64,3.64,0,0,1,221.75,128Z"/><path class="cls-1" d="M225,127.35h4.64q3.81,0,3.81,3.28t-3.83,3.29H226v4.85h-1Zm1,.86v4.85h3.6a3.39,3.39,0,0,0,2.2-.61,2.33,2.33,0,0,0,.68-1.82,2.29,2.29,0,0,0-.68-1.8,3.34,3.34,0,0,0-2.2-.62Z"/><path class="cls-1" d="M246.88,131.59a5.1,5.1,0,0,1,0,6.09,3.92,3.92,0,0,1-5.85,0,4.64,4.64,0,0,1-1-3,4.59,4.59,0,0,1,1-3,3.56,3.56,0,0,1,2.91-1.32A3.62,3.62,0,0,1,246.88,131.59Zm-5.15.6a3.88,3.88,0,0,0-.74,2.45,3.83,3.83,0,0,0,.74,2.43,2.63,2.63,0,0,0,2.22,1.09,2.66,2.66,0,0,0,2.25-1.09,4.44,4.44,0,0,0,0-4.88,2.65,2.65,0,0,0-2.25-1.08A2.61,2.61,0,0,0,241.73,132.19Z"/><path class="cls-1" d="M256.31,133.68v5.09h-1v-5c0-1.76-.79-2.64-2.36-2.64a2.18,2.18,0,0,0-1.66.72,2.9,2.9,0,0,0-.78,1.95v5h-1V130.5h1v1.36a3.31,3.31,0,0,1,1.12-1.17,2.87,2.87,0,0,1,1.56-.42Q256.31,130.27,256.31,133.68Z"/><path class="cls-1" d="M265.65,127.83v2.67h2.16v.83h-2.16v5.6a1.24,1.24,0,0,0,.19.78.92.92,0,0,0,.72.23h1v.83h-1.17a1.67,1.67,0,0,1-1.37-.5,2,2,0,0,1-.37-1.34v-5.6h-1.76v-.83h1.76v-2.27Z"/><path class="cls-1" d="M269.27,127.12h1V132a3.22,3.22,0,0,1,1.15-1.29,3,3,0,0,1,1.57-.44,2.87,2.87,0,0,1,2.21.84,3.34,3.34,0,0,1,.8,2.38v5.28h-1v-5.15a2.7,2.7,0,0,0-.61-1.87,2.25,2.25,0,0,0-1.71-.64,2.2,2.2,0,0,0-1.74.83,3,3,0,0,0-.71,2.05v4.78h-1Z"/><path class="cls-1" d="M284.27,131.6a5.73,5.73,0,0,1,1,3.31H278.5a3.89,3.89,0,0,0,.81,2.39,2.61,2.61,0,0,0,2.05.86,2.81,2.81,0,0,0,1.83-.59,3.23,3.23,0,0,0,.88-1.45h1a3.89,3.89,0,0,1-1.1,2,3.68,3.68,0,0,1-2.58.91,3.51,3.51,0,0,1-2.78-1.18,4.53,4.53,0,0,1-1.07-3.18,4.63,4.63,0,0,1,1-3.06,3.79,3.79,0,0,1,5.74,0Zm-4.89.36a3.67,3.67,0,0,0-.87,2.17h5.7c-.16-2-1.11-3-2.86-3A2.47,2.47,0,0,0,279.38,132Z"/><path class="cls-1" d="M298.69,131.6a4.9,4.9,0,0,1,.91,3.06,5,5,0,0,1-.89,3,3.33,3.33,0,0,1-2.77,1.31,3,3,0,0,1-2.9-2v4.9h-1V130.5H293v1.63a3,3,0,0,1,2.92-1.86A3.34,3.34,0,0,1,298.69,131.6Zm-5,.55a4,4,0,0,0-.69,2.44v.18a3.88,3.88,0,0,0,.74,2.45,2.42,2.42,0,0,0,2,1,2.57,2.57,0,0,0,2.18-1,4.17,4.17,0,0,0,.67-2.49,4.28,4.28,0,0,0-.66-2.5,2.51,2.51,0,0,0-2.16-1.07A2.41,2.41,0,0,0,293.7,132.15Z"/><path class="cls-1" d="M301.3,130.5h1v5.05a3,3,0,0,0,.54,1.94,2.22,2.22,0,0,0,1.78.67,2.31,2.31,0,0,0,1.68-.73,2.92,2.92,0,0,0,.81-1.91v-5h1v8.27h-1v-1.39a3,3,0,0,1-2.75,1.61q-3,0-3-3.39Z"/><path class="cls-1" d="M310.05,127.12h1v5.12a3,3,0,0,1,2.9-2,3.26,3.26,0,0,1,2.75,1.33,5.53,5.53,0,0,1,0,6.08,3.33,3.33,0,0,1-2.79,1.31,3,3,0,0,1-2.91-1.85v1.63h-.91Zm1.66,5a3.93,3.93,0,0,0-.73,2.48v.19a3.88,3.88,0,0,0,.69,2.4,2.41,2.41,0,0,0,2.09,1,2.5,2.5,0,0,0,2.16-1.06,4.19,4.19,0,0,0,.67-2.49,4.12,4.12,0,0,0-.68-2.48,2.54,2.54,0,0,0-2.18-1.06A2.39,2.39,0,0,0,311.71,132.08Z"/><path class="cls-1" d="M319.57,127.12h1v11.65h-1Z"/><path class="cls-1" d="M324.39,127.76a.68.68,0,0,1,.24.56.8.8,0,0,1-.26.58.83.83,0,0,1-.56.22.78.78,0,0,1-.58-.22.78.78,0,0,1-.24-.58.68.68,0,0,1,.24-.56.75.75,0,0,1,.58-.24A.8.8,0,0,1,324.39,127.76Zm-1.06,2.74h1v8.27h-1Z"/><path class="cls-1" d="M332.69,131a3.11,3.11,0,0,1,1.13,2.21h-1a2.35,2.35,0,0,0-.83-1.57,2.75,2.75,0,0,0-1.76-.52,2.47,2.47,0,0,0-2.08,1,4,4,0,0,0-.75,2.57,4.07,4.07,0,0,0,.72,2.53,2.47,2.47,0,0,0,2.1.94,2.43,2.43,0,0,0,2.65-2.35h.95a3.74,3.74,0,0,1-1.19,2.38,3.53,3.53,0,0,1-2.41.8,3.45,3.45,0,0,1-2.85-1.24,4.64,4.64,0,0,1-.94-3.06,4.79,4.79,0,0,1,1-3.1,3.38,3.38,0,0,1,2.83-1.32A3.83,3.83,0,0,1,332.69,131Z"/><path class="cls-1" d="M346.62,131a3.15,3.15,0,0,1,1.14,2.21h-1a2.39,2.39,0,0,0-.83-1.57,2.79,2.79,0,0,0-1.76-.52,2.45,2.45,0,0,0-2.08,1,4,4,0,0,0-.75,2.57,4.07,4.07,0,0,0,.72,2.53,2.47,2.47,0,0,0,2.09.94,2.44,2.44,0,0,0,2.66-2.35h.94a3.74,3.74,0,0,1-1.18,2.38,3.53,3.53,0,0,1-2.42.8,3.48,3.48,0,0,1-2.85-1.24,4.7,4.7,0,0,1-.94-3.06,4.79,4.79,0,0,1,1-3.1,3.37,3.37,0,0,1,2.83-1.32A3.8,3.8,0,0,1,346.62,131Z"/><path class="cls-1" d="M349.33,127.12h1V132a3.15,3.15,0,0,1,1.15-1.29,2.93,2.93,0,0,1,1.57-.44,2.86,2.86,0,0,1,2.2.84,3.3,3.3,0,0,1,.8,2.38v5.28h-1v-5.15a2.75,2.75,0,0,0-.6-1.87,2.29,2.29,0,0,0-1.72-.64,2.2,2.2,0,0,0-1.74.83,3,3,0,0,0-.7,2.05v4.78h-1Z"/><path class="cls-1" d="M364.13,131.22a3.18,3.18,0,0,1,.73,2.22v5.33H364v-1.58a4.29,4.29,0,0,1-1.34,1.23,4.2,4.2,0,0,1-2.16.57,3,3,0,0,1-2-.62,2.14,2.14,0,0,1-.75-1.71,2.44,2.44,0,0,1,1.3-2.31,5.6,5.6,0,0,1,2.76-.59h2.11v-.31a2.1,2.1,0,0,0-2.4-2.35,2.88,2.88,0,0,0-1.72.46,2,2,0,0,0-.85,1.44H358a2.88,2.88,0,0,1,1.16-2.08,4.11,4.11,0,0,1,2.4-.64A3.27,3.27,0,0,1,364.13,131.22Zm-.23,3.31-2.06,0c-2.09,0-3.14.71-3.14,2.09a1.39,1.39,0,0,0,.53,1.12,2.1,2.1,0,0,0,1.41.43,3.45,3.45,0,0,0,2.31-.86,2.46,2.46,0,0,0,.95-1.84Z"/><path class="cls-1" d="M368.42,127.76a.68.68,0,0,1,.24.56.8.8,0,0,1-.26.58.83.83,0,0,1-.56.22.75.75,0,0,1-.57-.22.78.78,0,0,1-.24-.58.68.68,0,0,1,.24-.56.73.73,0,0,1,.57-.24A.78.78,0,0,1,368.42,127.76Zm-1.06,2.74h1v8.27h-1Z"/><path class="cls-1" d="M377.54,133.68v5.09h-1v-5c0-1.76-.79-2.64-2.36-2.64a2.18,2.18,0,0,0-1.66.72,2.9,2.9,0,0,0-.78,1.95v5h-1V130.5h1v1.36a3.31,3.31,0,0,1,1.12-1.17,2.87,2.87,0,0,1,1.56-.42Q377.54,130.27,377.54,133.68Z"/><path class="cls-1" d="M85.17,159.22a3.18,3.18,0,0,1,.73,2.22v5.33H85v-1.58a4.29,4.29,0,0,1-1.34,1.23,4.2,4.2,0,0,1-2.16.57,3,3,0,0,1-2-.62,2.14,2.14,0,0,1-.75-1.71,2.45,2.45,0,0,1,1.29-2.31,5.67,5.67,0,0,1,2.77-.59h2.11v-.31a2.1,2.1,0,0,0-2.4-2.35,2.94,2.94,0,0,0-1.73.46A1.94,1.94,0,0,0,80,161H79a2.92,2.92,0,0,1,1.17-2.08,4.11,4.11,0,0,1,2.4-.64A3.28,3.28,0,0,1,85.17,159.22Zm-.23,3.31-2.06,0c-2.09,0-3.14.71-3.14,2.09a1.39,1.39,0,0,0,.53,1.12,2.1,2.1,0,0,0,1.41.43,3.41,3.41,0,0,0,2.3-.86,2.44,2.44,0,0,0,1-1.84Z"/><path class="cls-1" d="M94.64,161.68v5.09h-1v-5c0-1.76-.79-2.64-2.35-2.64a2.19,2.19,0,0,0-1.67.72,2.9,2.9,0,0,0-.78,1.95v5h-1V158.5h1v1.36A3.4,3.4,0,0,1,90,158.69a2.9,2.9,0,0,1,1.57-.42C93.61,158.27,94.64,159.41,94.64,161.68Z"/><path class="cls-1" d="M102.89,155.12h1v11.65h-.91v-1.63a3,3,0,0,1-2.89,1.85,3.33,3.33,0,0,1-2.8-1.31,5.48,5.48,0,0,1,0-6.08,3.24,3.24,0,0,1,2.75-1.33,3,3,0,0,1,2.89,2Zm-4.89,5a4,4,0,0,0-.69,2.48,4.19,4.19,0,0,0,.67,2.49,2.48,2.48,0,0,0,2.16,1.06,2.44,2.44,0,0,0,2.1-1,4,4,0,0,0,.69-2.4v-.19a4,4,0,0,0-.74-2.48,2.4,2.4,0,0,0-2-1A2.52,2.52,0,0,0,98,160.15Z"/><path class="cls-1" d="M113.2,155.83v2.67h2.16v.83H113.2v5.6a1.24,1.24,0,0,0,.19.78.92.92,0,0,0,.72.23h1v.83H114a1.65,1.65,0,0,1-1.37-.5,2,2,0,0,1-.37-1.34v-5.6h-1.76v-.83h1.76v-2.27Z"/><path class="cls-1" d="M116.81,155.12h1V160a3.22,3.22,0,0,1,1.15-1.29,2.93,2.93,0,0,1,1.57-.44,2.87,2.87,0,0,1,2.21.84,3.34,3.34,0,0,1,.8,2.38v5.28h-1v-5.15a2.7,2.7,0,0,0-.61-1.87,2.28,2.28,0,0,0-1.71-.64,2.21,2.21,0,0,0-1.75.83,3,3,0,0,0-.7,2.05v4.78h-1Z"/><path class="cls-1" d="M131.82,159.6a5.81,5.81,0,0,1,1,3.31h-6.72a3.89,3.89,0,0,0,.81,2.39,2.6,2.6,0,0,0,2,.86,2.78,2.78,0,0,0,1.82-.59,3.06,3.06,0,0,0,.88-1.45h1a3.89,3.89,0,0,1-1.1,2,3.72,3.72,0,0,1-2.58.91,3.51,3.51,0,0,1-2.78-1.18,4.54,4.54,0,0,1-1.08-3.18,4.59,4.59,0,0,1,1-3.06,3.79,3.79,0,0,1,5.74,0Zm-4.89.36a3.61,3.61,0,0,0-.87,2.17h5.7c-.16-2-1.12-3-2.87-3A2.45,2.45,0,0,0,126.93,160Z"/><path class="cls-1" d="M135.84,155.76a.68.68,0,0,1,.24.56.8.8,0,0,1-.26.58.83.83,0,0,1-.56.22.75.75,0,0,1-.57-.22.78.78,0,0,1-.24-.58.68.68,0,0,1,.24-.56.73.73,0,0,1,.57-.24A.78.78,0,0,1,135.84,155.76Zm-1.06,2.74h1v8.27h-1Z"/><path class="cls-1" d="M142.91,158.45v1a4.36,4.36,0,0,0-1.26-.18,2.06,2.06,0,0,0-1.8,1,3.61,3.61,0,0,0-.65,2.16v4.37h-1V158.5h1v1.58a3.05,3.05,0,0,1,.91-1.23,2.4,2.4,0,0,1,1.6-.58A3.22,3.22,0,0,1,142.91,158.45Z"/><path class="cls-1" d="M155.44,160.82h-.95a1.91,1.91,0,0,0-.69-1.27,3.33,3.33,0,0,0-3.16-.08,1.16,1.16,0,0,0-.58,1,1.14,1.14,0,0,0,.74,1,10.65,10.65,0,0,0,1.74.58,8.23,8.23,0,0,1,2.14.77,1.85,1.85,0,0,1,1,1.66c0,1.68-1.12,2.51-3.36,2.51s-3.28-.94-3.48-2.83h.95a2.21,2.21,0,0,0,.77,1.57,2.83,2.83,0,0,0,1.72.43c1.6,0,2.4-.54,2.4-1.63a1.24,1.24,0,0,0-.81-1.15,11.29,11.29,0,0,0-1.84-.58,8.17,8.17,0,0,1-2-.73,1.76,1.76,0,0,1-.94-1.59,1.86,1.86,0,0,1,.89-1.61,3.69,3.69,0,0,1,2.18-.6Q155.08,158.27,155.44,160.82Z"/><path class="cls-1" d="M163.76,159.59a5.14,5.14,0,0,1,0,6.09,3.93,3.93,0,0,1-5.86,0,4.64,4.64,0,0,1-1-3,4.54,4.54,0,0,1,1-3,3.54,3.54,0,0,1,2.91-1.32A3.64,3.64,0,0,1,163.76,159.59Zm-5.16.6a3.88,3.88,0,0,0-.73,2.45,3.82,3.82,0,0,0,.73,2.43,2.84,2.84,0,0,0,4.47,0,4.44,4.44,0,0,0,0-4.88,2.85,2.85,0,0,0-4.47,0Z"/><path class="cls-1" d="M172.36,159a3.15,3.15,0,0,1,1.14,2.21h-1a2.39,2.39,0,0,0-.83-1.57,2.79,2.79,0,0,0-1.76-.52,2.45,2.45,0,0,0-2.08,1,4,4,0,0,0-.75,2.57,4.07,4.07,0,0,0,.72,2.53,2.72,2.72,0,0,0,4.75-1.41h.94a3.74,3.74,0,0,1-1.18,2.38,3.55,3.55,0,0,1-2.42.8,3.48,3.48,0,0,1-2.85-1.24,4.64,4.64,0,0,1-.94-3.06,4.79,4.79,0,0,1,1-3.1,3.37,3.37,0,0,1,2.83-1.32A3.8,3.8,0,0,1,172.36,159Z"/><path class="cls-1" d="M176.6,155.76a.68.68,0,0,1,.24.56.79.79,0,0,1-.25.58.83.83,0,0,1-.56.22.78.78,0,0,1-.58-.22.78.78,0,0,1-.24-.58.68.68,0,0,1,.24-.56.75.75,0,0,1,.58-.24A.78.78,0,0,1,176.6,155.76Zm-1,2.74h1v8.27h-1Z"/><path class="cls-1" d="M185.08,159.22a3.18,3.18,0,0,1,.74,2.22v5.33h-.91v-1.58a4.26,4.26,0,0,1-3.51,1.8,2.93,2.93,0,0,1-2-.62,2.12,2.12,0,0,1-.76-1.71,2.46,2.46,0,0,1,1.3-2.31,5.64,5.64,0,0,1,2.77-.59h2.11v-.31a2.1,2.1,0,0,0-2.4-2.35,2.91,2.91,0,0,0-1.73.46,2,2,0,0,0-.85,1.44h-.94a2.92,2.92,0,0,1,1.17-2.08,4.11,4.11,0,0,1,2.4-.64A3.24,3.24,0,0,1,185.08,159.22Zm-.22,3.31-2.06,0c-2.09,0-3.14.71-3.14,2.09a1.39,1.39,0,0,0,.53,1.12,2.1,2.1,0,0,0,1.41.43,3.41,3.41,0,0,0,2.3-.86,2.44,2.44,0,0,0,1-1.84Z"/><path class="cls-1" d="M188.14,155.12h1v11.65h-1Z"/><path class="cls-1" d="M198.28,155.76a.68.68,0,0,1,.24.56.79.79,0,0,1-.25.58.83.83,0,0,1-.56.22.78.78,0,0,1-.58-.22.78.78,0,0,1-.24-.58.68.68,0,0,1,.24-.56.75.75,0,0,1,.58-.24A.78.78,0,0,1,198.28,155.76Zm-1.05,2.74h1v8.27h-1Z"/><path class="cls-1" d="M207.4,161.68v5.09h-1v-5c0-1.76-.78-2.64-2.35-2.64a2.18,2.18,0,0,0-1.66.72,3,3,0,0,0-.79,1.95v5h-1V158.5h1v1.36a3.49,3.49,0,0,1,1.12-1.17,2.9,2.9,0,0,1,1.57-.42Q207.4,158.27,207.4,161.68Z"/><path class="cls-1" d="M214.25,155.35v.84h-1.39a1.14,1.14,0,0,0-.91.32,1.51,1.51,0,0,0-.29,1v1h2.48v.83h-2.48v7.44h-1v-7.44h-2.21v-.83h2.21v-1a2.19,2.19,0,0,1,.51-1.58,2,2,0,0,1,1.57-.59Z"/><path class="cls-1" d="M221.88,159.59a5.1,5.1,0,0,1,0,6.09,3.92,3.92,0,0,1-5.85,0,4.64,4.64,0,0,1-1-3,4.59,4.59,0,0,1,1-3,3.56,3.56,0,0,1,2.91-1.32A3.62,3.62,0,0,1,221.88,159.59Zm-5.15.6a3.88,3.88,0,0,0-.74,2.45,3.83,3.83,0,0,0,.74,2.43,2.63,2.63,0,0,0,2.22,1.09,2.66,2.66,0,0,0,2.25-1.09,4.44,4.44,0,0,0,0-4.88,2.65,2.65,0,0,0-2.25-1.08A2.61,2.61,0,0,0,216.73,160.19Z"/><path class="cls-1" d="M229.26,158.45v1a4.38,4.38,0,0,0-1.27-.18,2.05,2.05,0,0,0-1.79,1,3.61,3.61,0,0,0-.65,2.16v4.37h-1V158.5h1v1.58a3,3,0,0,1,.91-1.23,2.4,2.4,0,0,1,1.6-.58A3.22,3.22,0,0,1,229.26,158.45Z"/><path class="cls-1" d="M236.3,160a3.18,3.18,0,0,1,1.1-1.26,2.59,2.59,0,0,1,1.51-.44,2.74,2.74,0,0,1,2.08.82,3.25,3.25,0,0,1,.75,2.27v5.41h-1v-5.28a2.72,2.72,0,0,0-.48-1.76,2,2,0,0,0-1.65-.62,1.9,1.9,0,0,0-1.5.68,2.41,2.41,0,0,0-.61,1.72v5.26h-1v-5.28c0-1.59-.69-2.38-2.06-2.38a1.9,1.9,0,0,0-1.55.75,2.66,2.66,0,0,0-.64,1.82v5.09h-1V158.5h1v1.25a2.68,2.68,0,0,1,2.4-1.48A2.5,2.5,0,0,1,236.3,160Z"/><path class="cls-1" d="M249.83,159.22a3.14,3.14,0,0,1,.74,2.22v5.33h-.91v-1.58a4.22,4.22,0,0,1-3.51,1.8,2.93,2.93,0,0,1-2-.62,2.14,2.14,0,0,1-.75-1.71,2.45,2.45,0,0,1,1.29-2.31,5.64,5.64,0,0,1,2.77-.59h2.11v-.31a2.1,2.1,0,0,0-2.4-2.35,2.94,2.94,0,0,0-1.73.46,1.94,1.94,0,0,0-.84,1.44h-.95a2.92,2.92,0,0,1,1.17-2.08,4.11,4.11,0,0,1,2.4-.64A3.24,3.24,0,0,1,249.83,159.22Zm-.22,3.31-2.06,0c-2.09,0-3.14.71-3.14,2.09a1.39,1.39,0,0,0,.53,1.12,2.1,2.1,0,0,0,1.41.43,3.41,3.41,0,0,0,2.3-.86,2.44,2.44,0,0,0,1-1.84Z"/><path class="cls-1" d="M254.59,155.83v2.67h2.16v.83h-2.16v5.6a1.24,1.24,0,0,0,.19.78.92.92,0,0,0,.72.23h1v.83h-1.17a1.69,1.69,0,0,1-1.38-.5,2,2,0,0,1-.36-1.34v-5.6h-1.76v-.83h1.76v-2.27Z"/><path class="cls-1" d="M259.74,155.76a.68.68,0,0,1,.24.56.8.8,0,0,1-.26.58.83.83,0,0,1-.56.22.77.77,0,0,1-.57-.22.78.78,0,0,1-.24-.58.68.68,0,0,1,.24-.56.75.75,0,0,1,.57-.24A.78.78,0,0,1,259.74,155.76Zm-1.06,2.74h1v8.27h-1Z"/><path class="cls-1" d="M268.68,159.59a5.1,5.1,0,0,1,0,6.09,3.92,3.92,0,0,1-5.85,0,5.08,5.08,0,0,1,0-6.09,3.56,3.56,0,0,1,2.91-1.32A3.62,3.62,0,0,1,268.68,159.59Zm-5.15.6a3.88,3.88,0,0,0-.74,2.45,3.83,3.83,0,0,0,.74,2.43,2.83,2.83,0,0,0,4.46,0,4.39,4.39,0,0,0,0-4.88,2.84,2.84,0,0,0-4.46,0Z"/><path class="cls-1" d="M278.11,161.68v5.09h-1v-5c0-1.76-.79-2.64-2.36-2.64a2.18,2.18,0,0,0-1.66.72,2.9,2.9,0,0,0-.78,1.95v5h-1V158.5h1v1.36a3.31,3.31,0,0,1,1.12-1.17,2.87,2.87,0,0,1,1.56-.42Q278.11,158.27,278.11,161.68Z"/><path class="cls-1" d="M287,155.76a.68.68,0,0,1,.24.56.8.8,0,0,1-.26.58.83.83,0,0,1-.56.22.79.79,0,0,1-.82-.8.68.68,0,0,1,.24-.56.77.77,0,0,1,.58-.24A.8.8,0,0,1,287,155.76Zm-1.06,2.74h1v8.27h-1Z"/><path class="cls-1" d="M295.5,160.82h-.95a1.94,1.94,0,0,0-.68-1.27,3.35,3.35,0,0,0-3.17-.08,1.16,1.16,0,0,0-.58,1,1.14,1.14,0,0,0,.74,1,10.65,10.65,0,0,0,1.74.58,8.49,8.49,0,0,1,2.15.77,1.86,1.86,0,0,1,1,1.66c0,1.68-1.12,2.51-3.36,2.51s-3.28-.94-3.47-2.83h.94a2.25,2.25,0,0,0,.77,1.57,2.85,2.85,0,0,0,1.73.43c1.6,0,2.4-.54,2.4-1.63a1.25,1.25,0,0,0-.82-1.15,11.29,11.29,0,0,0-1.84-.58,8.17,8.17,0,0,1-2-.73,1.76,1.76,0,0,1-.94-1.59,1.85,1.85,0,0,1,.9-1.61,3.66,3.66,0,0,1,2.17-.6Q295.14,158.27,295.5,160.82Z"/><path class="cls-1" d="M308.68,159.22a3.18,3.18,0,0,1,.74,2.22v5.33h-.91v-1.58a4.33,4.33,0,0,1-1.35,1.23A4.2,4.2,0,0,1,305,167a3,3,0,0,1-2-.62,2.14,2.14,0,0,1-.75-1.71,2.44,2.44,0,0,1,1.3-2.31,5.61,5.61,0,0,1,2.77-.59h2.11v-.31a2.1,2.1,0,0,0-2.4-2.35,2.91,2.91,0,0,0-1.73.46,2,2,0,0,0-.85,1.44h-.94a2.92,2.92,0,0,1,1.17-2.08,4.07,4.07,0,0,1,2.4-.64A3.24,3.24,0,0,1,308.68,159.22Zm-.22,3.31-2.07,0c-2.09,0-3.13.71-3.13,2.09a1.36,1.36,0,0,0,.53,1.12,2.09,2.09,0,0,0,1.4.43,3.42,3.42,0,0,0,2.31-.86,2.44,2.44,0,0,0,1-1.84Z"/><path class="cls-1" d="M311.43,155.12h1v5.12a3,3,0,0,1,2.9-2A3.26,3.26,0,0,1,318,159.6a5.53,5.53,0,0,1,0,6.08,3.32,3.32,0,0,1-2.78,1.31,3,3,0,0,1-2.91-1.85v1.63h-.92Zm1.67,5a3.93,3.93,0,0,0-.74,2.48v.19a3.88,3.88,0,0,0,.69,2.4,2.42,2.42,0,0,0,2.1,1,2.52,2.52,0,0,0,2.16-1.06,4.27,4.27,0,0,0,.67-2.49,4.05,4.05,0,0,0-.69-2.48,2.52,2.52,0,0,0-2.18-1.06A2.37,2.37,0,0,0,313.1,160.08Z"/><path class="cls-1" d="M320.65,158.5h1v5.05a3,3,0,0,0,.54,1.94,2.22,2.22,0,0,0,1.78.67,2.31,2.31,0,0,0,1.68-.73,3,3,0,0,0,.82-1.91v-5h1v8.27h-1v-1.39a3,3,0,0,1-2.76,1.61q-3,0-3-3.39Z"/><path class="cls-1" d="M336.12,161.68v5.09h-1v-5c0-1.76-.78-2.64-2.35-2.64a2.17,2.17,0,0,0-1.66.72,2.9,2.9,0,0,0-.79,1.95v5h-1V158.5h1v1.36a3.4,3.4,0,0,1,1.12-1.17,2.9,2.9,0,0,1,1.57-.42Q336.13,158.27,336.12,161.68Z"/><path class="cls-1" d="M344.38,155.12h1v11.65h-.92v-1.63a3,3,0,0,1-2.89,1.85,3.33,3.33,0,0,1-2.8-1.31,5.53,5.53,0,0,1,0-6.08,3.26,3.26,0,0,1,2.75-1.33,3,3,0,0,1,2.9,2Zm-4.9,5a4,4,0,0,0-.69,2.48,4.27,4.27,0,0,0,.67,2.49,2.5,2.5,0,0,0,2.16,1.06,2.44,2.44,0,0,0,2.1-1,4,4,0,0,0,.69-2.4v-.19a4,4,0,0,0-.74-2.48,2.39,2.39,0,0,0-2-1A2.52,2.52,0,0,0,339.48,160.15Z"/><path class="cls-1" d="M353.43,159.22a3.18,3.18,0,0,1,.74,2.22v5.33h-.91v-1.58a4.33,4.33,0,0,1-1.35,1.23,4.2,4.2,0,0,1-2.16.57,3,3,0,0,1-2-.62,2.14,2.14,0,0,1-.75-1.71,2.44,2.44,0,0,1,1.3-2.31,5.64,5.64,0,0,1,2.77-.59h2.11v-.31a2.1,2.1,0,0,0-2.4-2.35,2.91,2.91,0,0,0-1.73.46,2,2,0,0,0-.85,1.44h-.94a2.92,2.92,0,0,1,1.17-2.08,4.07,4.07,0,0,1,2.4-.64A3.24,3.24,0,0,1,353.43,159.22Zm-.22,3.31-2.07,0c-2.09,0-3.13.71-3.13,2.09a1.36,1.36,0,0,0,.53,1.12,2.1,2.1,0,0,0,1.41.43,3.41,3.41,0,0,0,2.3-.86,2.44,2.44,0,0,0,1-1.84Z"/><path class="cls-1" d="M362.9,161.68v5.09H362v-5c0-1.76-.79-2.64-2.36-2.64a2.18,2.18,0,0,0-1.66.72,3,3,0,0,0-.79,1.95v5h-1V158.5h1v1.36a3.49,3.49,0,0,1,1.12-1.17,2.93,2.93,0,0,1,1.57-.42Q362.91,158.27,362.9,161.68Z"/><path class="cls-1" d="M366.92,155.83v2.67h2.16v.83h-2.16v5.6a1.24,1.24,0,0,0,.19.78.92.92,0,0,0,.72.23h1v.83H367.7a1.67,1.67,0,0,1-1.37-.5,2,2,0,0,1-.37-1.34v-5.6H364.2v-.83H366v-2.27Z"/><path class="cls-1" d="M159.68,187.59a5.1,5.1,0,0,1,0,6.09,3.92,3.92,0,0,1-5.85,0,4.64,4.64,0,0,1-1-3,4.59,4.59,0,0,1,1-3,3.57,3.57,0,0,1,2.92-1.32A3.61,3.61,0,0,1,159.68,187.59Zm-5.15.6a3.88,3.88,0,0,0-.73,2.45,3.82,3.82,0,0,0,.73,2.43,2.84,2.84,0,0,0,4.47,0,4.44,4.44,0,0,0,0-4.88,2.85,2.85,0,0,0-4.47,0Z"/><path class="cls-1" d="M169.11,189.68v5.09h-1v-5c0-1.76-.79-2.64-2.35-2.64a2.2,2.2,0,0,0-1.67.72,2.9,2.9,0,0,0-.78,1.95v5h-1V186.5h1v1.36a3.4,3.4,0,0,1,1.12-1.17,2.9,2.9,0,0,1,1.57-.42C168.08,186.27,169.11,187.41,169.11,189.68Z"/><path class="cls-1" d="M178.45,183.83v2.67h2.16v.83h-2.16v5.6a1.31,1.31,0,0,0,.19.78.92.92,0,0,0,.72.23h1v.83h-1.16a1.69,1.69,0,0,1-1.38-.5,2,2,0,0,1-.37-1.34v-5.6h-1.76v-.83h1.76v-2.27Z"/><path class="cls-1" d="M182.07,183.12h1V188a3.24,3.24,0,0,1,1.16-1.29,2.92,2.92,0,0,1,1.56-.44,2.87,2.87,0,0,1,2.21.84,3.3,3.3,0,0,1,.8,2.38v5.28h-1v-5.15a2.7,2.7,0,0,0-.61-1.87,2.25,2.25,0,0,0-1.71-.64,2.2,2.2,0,0,0-1.74.83A3,3,0,0,0,183,190v4.78h-1Z"/><path class="cls-1" d="M197.08,187.6a5.81,5.81,0,0,1,.94,3.31H191.3a3.89,3.89,0,0,0,.82,2.39,2.57,2.57,0,0,0,2,.86,2.81,2.81,0,0,0,1.83-.59,3.14,3.14,0,0,0,.88-1.45h1a3.89,3.89,0,0,1-1.1,2,3.68,3.68,0,0,1-2.58.91,3.51,3.51,0,0,1-2.78-1.18,4.58,4.58,0,0,1-1.07-3.18,4.63,4.63,0,0,1,1-3.06,3.8,3.8,0,0,1,5.75,0Zm-4.9.36a3.6,3.6,0,0,0-.86,2.17H197c-.16-2-1.11-3-2.86-3A2.47,2.47,0,0,0,192.18,188Z"/><path class="cls-1" d="M211.49,187.6a5.58,5.58,0,0,1,0,6.08,3.33,3.33,0,0,1-2.77,1.31,3,3,0,0,1-2.9-2v4.9h-1V186.5h.92v1.63a3,3,0,0,1,2.91-1.86A3.34,3.34,0,0,1,211.49,187.6Zm-5,.55a4,4,0,0,0-.69,2.44v.18a3.88,3.88,0,0,0,.74,2.45,2.42,2.42,0,0,0,2,1,2.57,2.57,0,0,0,2.18-1,4.17,4.17,0,0,0,.67-2.49,4.35,4.35,0,0,0-.65-2.5,2.53,2.53,0,0,0-2.16-1.07A2.42,2.42,0,0,0,206.5,188.15Z"/><path class="cls-1" d="M214.1,186.5h1v5.05a3,3,0,0,0,.54,1.94,2.22,2.22,0,0,0,1.78.67,2.31,2.31,0,0,0,1.68-.73,3,3,0,0,0,.82-1.91v-5h1v8.27h-1v-1.39a3,3,0,0,1-2.76,1.61q-3,0-3-3.39Z"/><path class="cls-1" d="M222.85,183.12h1v5.12a3,3,0,0,1,2.9-2,3.26,3.26,0,0,1,2.75,1.33,5.53,5.53,0,0,1,0,6.08,3.32,3.32,0,0,1-2.78,1.31,3,3,0,0,1-2.92-1.85v1.63h-.91Zm1.67,5a3.93,3.93,0,0,0-.74,2.48v.19a3.88,3.88,0,0,0,.69,2.4,2.41,2.41,0,0,0,2.09,1,2.5,2.5,0,0,0,2.16-1.06,4.19,4.19,0,0,0,.68-2.49,4.05,4.05,0,0,0-.69-2.48,2.52,2.52,0,0,0-2.18-1.06A2.37,2.37,0,0,0,224.52,188.08Z"/><path class="cls-1" d="M232.37,183.12h1v11.65h-1Z"/><path class="cls-1" d="M237.19,183.76a.68.68,0,0,1,.24.56.8.8,0,0,1-.26.58.83.83,0,0,1-.56.22.75.75,0,0,1-.57-.22.78.78,0,0,1-.24-.58.68.68,0,0,1,.24-.56.73.73,0,0,1,.57-.24A.78.78,0,0,1,237.19,183.76Zm-1.06,2.74h1v8.27h-1Z"/><path class="cls-1" d="M245.49,187a3.15,3.15,0,0,1,1.14,2.21h-1a2.4,2.4,0,0,0-.84-1.57,2.75,2.75,0,0,0-1.76-.52,2.47,2.47,0,0,0-2.08,1,4,4,0,0,0-.75,2.57,4.07,4.07,0,0,0,.72,2.53,2.47,2.47,0,0,0,2.1.94,2.44,2.44,0,0,0,2.66-2.35h.94a3.79,3.79,0,0,1-1.18,2.38,3.55,3.55,0,0,1-2.42.8,3.45,3.45,0,0,1-2.85-1.24,4.64,4.64,0,0,1-.94-3.06,4.79,4.79,0,0,1,1-3.1,3.4,3.4,0,0,1,2.83-1.32A3.83,3.83,0,0,1,245.49,187Z"/><path class="cls-1" d="M259.43,187a3.11,3.11,0,0,1,1.13,2.21h-1a2.35,2.35,0,0,0-.83-1.57,2.77,2.77,0,0,0-1.76-.52,2.46,2.46,0,0,0-2.08,1,4,4,0,0,0-.75,2.57,4.07,4.07,0,0,0,.72,2.53,2.47,2.47,0,0,0,2.09.94,2.44,2.44,0,0,0,2.66-2.35h1a3.74,3.74,0,0,1-1.19,2.38,3.53,3.53,0,0,1-2.42.8,3.44,3.44,0,0,1-2.84-1.24,4.65,4.65,0,0,1-1-3.06,4.79,4.79,0,0,1,1-3.1,3.38,3.38,0,0,1,2.83-1.32A3.85,3.85,0,0,1,259.43,187Z"/><path class="cls-1" d="M262.13,183.12h1V188a3.22,3.22,0,0,1,1.15-1.29,2.93,2.93,0,0,1,1.57-.44,2.85,2.85,0,0,1,2.2.84,3.3,3.3,0,0,1,.8,2.38v5.28h-1v-5.15a2.75,2.75,0,0,0-.6-1.87,2.28,2.28,0,0,0-1.71-.64,2.21,2.21,0,0,0-1.75.83,3,3,0,0,0-.7,2.05v4.78h-1Z"/><path class="cls-1" d="M276.93,187.22a3.18,3.18,0,0,1,.74,2.22v5.33h-.92v-1.58a4.22,4.22,0,0,1-3.5,1.8,3,3,0,0,1-2-.62,2.14,2.14,0,0,1-.75-1.71,2.44,2.44,0,0,1,1.3-2.31,5.6,5.6,0,0,1,2.76-.59h2.12v-.31a2.1,2.1,0,0,0-2.4-2.35,2.89,2.89,0,0,0-1.73.46,2,2,0,0,0-.85,1.44h-.94a2.88,2.88,0,0,1,1.16-2.08,4.12,4.12,0,0,1,2.41-.64A3.24,3.24,0,0,1,276.93,187.22Zm-.22,3.31-2.07,0c-2.09,0-3.13.71-3.13,2.09a1.38,1.38,0,0,0,.52,1.12,2.14,2.14,0,0,0,1.41.43,3.44,3.44,0,0,0,2.31-.86,2.44,2.44,0,0,0,1-1.84Z"/><path class="cls-1" d="M281.22,183.76a.68.68,0,0,1,.24.56.8.8,0,0,1-.26.58.81.81,0,0,1-.56.22.77.77,0,0,1-.57-.22.78.78,0,0,1-.24-.58.68.68,0,0,1,.24-.56.75.75,0,0,1,.57-.24A.78.78,0,0,1,281.22,183.76Zm-1.06,2.74h1v8.27h-1Z"/><path class="cls-1" d="M290.34,189.68v5.09h-1v-5c0-1.76-.79-2.64-2.35-2.64a2.19,2.19,0,0,0-1.67.72,2.9,2.9,0,0,0-.78,1.95v5h-1V186.5h1v1.36a3.4,3.4,0,0,1,1.12-1.17,2.9,2.9,0,0,1,1.57-.42C289.31,186.27,290.34,187.41,290.34,189.68Z"/><path class="cls-1" d="M294,193.39a.73.73,0,0,1,.24.58.82.82,0,0,1-.26.58.83.83,0,0,1-.56.22.82.82,0,0,1-.82-.8.73.73,0,0,1,.24-.58.78.78,0,0,1,.58-.22A.82.82,0,0,1,294,193.39Z"/></svg>