<svg id="图层_1" data-name="图层 1" xmlns="http://www.w3.org/2000/svg" viewBox="0 0 440 275"><defs><style>.cls-1{fill:#33353c;}</style></defs><title>币网站中英文</title><path class="cls-1" d="M37.65,23a9.32,9.32,0,0,1-1.81,5.13l-.64-.59A9.38,9.38,0,0,0,36.83,22V14.43H48.51v12A1.38,1.38,0,0,1,47,28H45.11l-.23-.85c.64,0,1.23.05,1.78.05s1-.36,1-1.09V23H43v4.76H42.1V23Zm.07-3.89v2.94l0,.13h4.4V19.14Zm4.38-3.86H37.72v3.06H42.1Zm5.55,3.06V15.28H43v3.06Zm0,3.87V19.14H43v3.07Z"/><path class="cls-1" d="M54,21a13.18,13.18,0,0,1-2.29,7.45L51,27.81a11.79,11.79,0,0,0,2.09-7.15V15.78H58.4a12,12,0,0,0-1-2l.92-.16a17.71,17.71,0,0,1,.91,2.13h5V21Zm9.47-4.31H54V20.1h9.47Z"/><path class="cls-1" d="M79.75,15.71V28.32h-.87V27.23H70.05v1.09h-.86V15.71h3.37a7.38,7.38,0,0,0,.85-2l.88.13a7.66,7.66,0,0,1-.81,1.9Zm-9.7,3.49h8.83V16.55H70.05Zm0,3.51h8.83V20H70.05Zm0,3.69h8.83V23.54H70.05Z"/><path class="cls-1" d="M87.73,14.26A12.77,12.77,0,0,1,83.44,19l-.27-.87A11.16,11.16,0,0,0,87,13.89Zm.75,3.65a12.88,12.88,0,0,1-1.84,2.68v7.75H85.8V21.47a21.76,21.76,0,0,1-2.28,1.81l-.27-.86a13.53,13.53,0,0,0,4.47-4.88ZM88.85,19H97.6v.85H95v7a1.31,1.31,0,0,1-1.49,1.47H91.14L91,27.43c1,0,1.76.06,2.2.06a.81.81,0,0,0,.92-.91V19.83H88.85Zm.47-4.11h7.55v.84H89.32Z"/><path class="cls-1" d="M109.88,28,107,28a10.49,10.49,0,0,1-2.48-.3,3.61,3.61,0,0,1-1.7-1.19.81.81,0,0,0-.61-.41c-.43,0-1.13.74-2.09,2.22l-.66-.57a5.72,5.72,0,0,1,2.37-2.44V20.19H99.49v-.83h3.18v6a1.62,1.62,0,0,1,.5.44,4,4,0,0,0,1.31,1.06,7.47,7.47,0,0,0,2.18.34l3.09,0H112l1.72-.07-.21.89Zm-9.46-14a20.88,20.88,0,0,1,2.72,2.46l-.61.62a19.24,19.24,0,0,0-2.72-2.51Zm3.52,4.22h9.38v.82h-5.09a21.47,21.47,0,0,1-2.58,5.08,52.11,52.11,0,0,0,5.81-.81c-.44-1-.89-1.91-1.36-2.74l.72-.24a28.76,28.76,0,0,1,2.32,5.11l-.78.19c-.2-.55-.39-1.06-.58-1.54a65,65,0,0,1-7.14.9l-.25-.79q1-.3,3-5.16h-3.42Zm1-3.84h7.19v.8H105Z"/><path class="cls-1" d="M119.73,14.26A12.77,12.77,0,0,1,115.44,19l-.27-.87A11.16,11.16,0,0,0,119,13.89Zm.75,3.65a12.88,12.88,0,0,1-1.84,2.68v7.75h-.84V21.47a21.76,21.76,0,0,1-2.28,1.81l-.27-.86a13.53,13.53,0,0,0,4.47-4.88Zm.37,1.07h8.75v.85H127v7a1.31,1.31,0,0,1-1.49,1.47h-2.32l-.19-.83c1,0,1.76.06,2.2.06a.81.81,0,0,0,.92-.91V19.83h-5.22Zm.47-4.11h7.55v.84h-7.55Z"/><path class="cls-1" d="M131.56,15.39h3.82V13.73h.88v1.66h4.41V13.73h.89v1.66h3.82v.87h-3.82v1.63h-.89V16.26h-4.41v1.62h-.88V16.26h-3.82Zm5.35,4.31h-4.65v-.85H144c-.07,2.58-.12,4.08-.16,4.5a3.48,3.48,0,0,1-.48,1.85,2,2,0,0,1-1.52.5h-1.7l-.22-.84h1.71a1.29,1.29,0,0,0,1-.37,3,3,0,0,0,.42-1.76l0-3.05h-5.38v8.59h-.85Z"/><path class="cls-1" d="M150.1,24.61A16.47,16.47,0,0,1,148,28.26l-.7-.5a14,14,0,0,0,2.09-3.52Zm3.68-10.9h.85v1.68h6.3v.82h-6.3v2.3h5.1v4.92H149.41V18.51h4.37Zm5.1,8.9V19.33h-8.6v3.28Zm-6.29,2.08c.36,1.17.65,2.34.89,3.49l-.89.21a20.63,20.63,0,0,0-.81-3.52Zm3.36-.14a30,30,0,0,1,1.29,3.6l-.87.2a20,20,0,0,0-1.22-3.63Zm3.37-.29a25.68,25.68,0,0,1,2.33,3.57l-.7.49a31.4,31.4,0,0,0-2.34-3.61Z"/><path class="cls-1" d="M170.77,13.79a22.58,22.58,0,0,0,6.88,5.72l-.43.75a21.64,21.64,0,0,1-6.75-5.65,22.72,22.72,0,0,1-6.74,5.79l-.41-.77a23.35,23.35,0,0,0,6.84-5.84Zm-3.47,5.38h.86V22c0,2.86-1,5-2.88,6.31l-.65-.59Q167.26,26,167.3,22Zm5.41-.05h.86v9.09h-.86Z"/><path class="cls-1" d="M183.2,14.21l.72-.48a11.36,11.36,0,0,1,3.67,5.41q2.25,5.79,6.11,8.24l-.53.69q-3.94-2.43-6.38-8.74c-.1-.28-.23-.6-.4-1a15.69,15.69,0,0,1-6.71,9.77l-.54-.74a15.61,15.61,0,0,0,6.75-10A8.92,8.92,0,0,0,183.2,14.21Z"/><path class="cls-1" d="M205.81,28.23l-.22-.85,1.58.05a.63.63,0,0,0,.71-.72V15.3H197.06v13h-.86V14.45h12.54V26.9a1.16,1.16,0,0,1-1.3,1.33Zm-3.68-3.49c-.56-.88-1.14-1.73-1.73-2.56a17.14,17.14,0,0,1-2.22,4.24l-.56-.67a17.19,17.19,0,0,0,2.21-4.39c-.87-1.15-1.65-2.11-2.35-2.89l.54-.55a27.93,27.93,0,0,1,2.09,2.53,29.1,29.1,0,0,0,.85-3.94l.82.15a31.71,31.71,0,0,1-1.06,4.61c.58.77,1.24,1.75,2,2.91Zm4.75.73c-.56-.94-1.16-1.92-1.81-2.92a17.14,17.14,0,0,1-2.4,4.25l-.54-.67a16.88,16.88,0,0,0,2.37-4.43c-.8-1.17-1.57-2.2-2.32-3.09l.56-.54a30.8,30.8,0,0,1,2.08,2.7,28.76,28.76,0,0,0,1-4.21l.81.15a31.65,31.65,0,0,1-1.2,4.92c.68,1,1.37,2.13,2.05,3.27Z"/><path class="cls-1" d="M216.91,26.15a31.69,31.69,0,0,1-5.35,1.48l-.12-.83a28.33,28.33,0,0,0,5.47-1.49ZM215,14.05a24.86,24.86,0,0,1-2.53,5.1,23.54,23.54,0,0,0,2.45-.44l.86-1.72.75.29a34,34,0,0,1-3.58,6,27.41,27.41,0,0,0,3.63-1v.79A27.38,27.38,0,0,1,212,24.23l-.23-.82a1.41,1.41,0,0,0,.39-.24,18.39,18.39,0,0,0,2.4-3.63c-1.11.22-2,.39-2.84.5l-.21-.81a1,1,0,0,0,.37-.32,25.08,25.08,0,0,0,2.38-5.18Zm5.37-.21c-.15.47-.32.94-.52,1.41h4.48v.66a11,11,0,0,1-2.68,3.61,12.5,12.5,0,0,0,4.24,2.05l-.49.7A12.26,12.26,0,0,1,221.06,20a17.55,17.55,0,0,1-4.19,2.33l-.55-.7a16.41,16.41,0,0,0,4.1-2.2,10.31,10.31,0,0,1-1.76-2.22,12.72,12.72,0,0,1-1.54,1.57l-.51-.67a8.94,8.94,0,0,0,3-4.45Zm4,8.63v5.77h-.83v-.75h-4.75v.75H218V22.47Zm-5.58,4.22h4.75V23.25h-4.75Zm.35-10.1A9.51,9.51,0,0,0,221,19a10.41,10.41,0,0,0,2.38-2.93h-3.93Z"/><path class="cls-1" d="M230.29,26.5a2.94,2.94,0,0,1-1.6,2.77l-.33-.56a2.48,2.48,0,0,0,1.21-2l-.24,0a.87.87,0,0,1-.59-.21.75.75,0,0,1-.23-.57.73.73,0,0,1,.23-.6.79.79,0,0,1,.59-.22C230,25.17,230.29,25.61,230.29,26.5Z"/><path class="cls-1" d="M245.07,19a19.39,19.39,0,0,1-1.79,2.36L243,20.4a18.68,18.68,0,0,0,3.54-6.8l.82.39a20.89,20.89,0,0,1-1.43,3.48v10.9h-.85Zm2.37-3h10.34v.83H247.44Zm9.22,7v5.36h-.85v-.88h-6.29v.88h-.86V23Zm-7.73-4.61h7.46v.79h-7.46Zm0,2.26h7.46v.8h-7.46Zm.59,6h6.29V23.78h-6.29Zm2.95-12.91a12.45,12.45,0,0,1,.81,1.87l-.77.31a12.19,12.19,0,0,0-.87-2Z"/><path class="cls-1" d="M261.68,24a13.1,13.1,0,0,1-1.65,3.8l-.71-.48a10.54,10.54,0,0,0,1.53-3.48Zm-.08-9h3.51a6.06,6.06,0,0,0,.54-1.34l.9.12A5.46,5.46,0,0,1,266,15h5.43v7.62H261.6Zm.85,2.3h8.16V15.76h-8.16Zm0,2.24h8.16v-1.5h-8.16Zm8.16,2.31V20.27h-8.16v1.59Zm-6.38,6.22c-.81,0-1.22-.38-1.22-1.15v-3.2h.88v3a.51.51,0,0,0,.58.57h3.74a1.1,1.1,0,0,0,.85-.27,3.93,3.93,0,0,0,.43-2.05l.83.28a4.24,4.24,0,0,1-.64,2.44,1.92,1.92,0,0,1-1.31.37Zm1.87-4.89a19.23,19.23,0,0,1,2.11,2.25l-.65.47a18.35,18.35,0,0,0-2.1-2.32Zm5.18.36a29,29,0,0,1,2.5,3.48l-.69.48A25.74,25.74,0,0,0,270.61,24Z"/><path class="cls-1" d="M283.86,17.3h.86v1.61a11,11,0,0,1-.72,3.92h5.38v.82h-5.76a5.51,5.51,0,0,1-.63.94,35.9,35.9,0,0,1,6.31,3.08l-.5.75a32.08,32.08,0,0,0-6.32-3.2,13.75,13.75,0,0,1-6.09,3.1l-.48-.73q4.39-1.18,6.2-3.24a7.63,7.63,0,0,0,.5-.7h-7.1v-.82H283a9.67,9.67,0,0,0,.82-3.92Zm5-1.81v3H288V16.31H276.93v2.28h-.88v-3.1h6.15c-.24-.66-.48-1.25-.72-1.76l.91-.16c.24.61.46,1.25.65,1.92ZM277.8,19.6a17.52,17.52,0,0,1,3.35,1.75l-.46.7a15.4,15.4,0,0,0-3.33-1.81Zm1-2.45a16.32,16.32,0,0,1,3.25,1.72l-.46.68a13.28,13.28,0,0,0-3.22-1.77Z"/><path class="cls-1" d="M291.52,19.76h2v-4H291.3v-.82h5.18v.82h-2.14v4h1.92v.83h-1.92v4c.72-.24,1.45-.51,2.17-.81v.85a33.9,33.9,0,0,1-5.05,1.58l-.21-.83c.75-.16,1.49-.34,2.23-.53V20.59h-2Zm9-3.25h.82v4a9.76,9.76,0,0,1-1.23,5.09,7.72,7.72,0,0,1-3.83,2.77l-.49-.74A7.07,7.07,0,0,0,299.43,25a9.12,9.12,0,0,0,1.05-4.48Zm3.92-2.08v8.76h-.86V15.27h-5.15v7.92h-.87V14.43Zm-1.92,13.65a1,1,0,0,1-1.16-1.15V23.12h.86v3.62c0,.35.19.53.56.53H304a.72.72,0,0,0,.65-.26,4.51,4.51,0,0,0,.35-2l.81.27a5.07,5.07,0,0,1-.53,2.38,1.51,1.51,0,0,1-1.12.37Z"/><path class="cls-1" d="M312.2,25.84a31.91,31.91,0,0,1-4.82,1.46l-.23-.85c1-.19,1.92-.41,2.82-.67a67.23,67.23,0,0,0,.93-7.6l.78.11a66.48,66.48,0,0,1-.94,7.25c.54-.18,1-.36,1.46-.53Zm-5-9.34h2.2c-.23-.87-.49-1.67-.77-2.42l.86-.14a26.16,26.16,0,0,1,.74,2.56h1.95v.83h-5Zm1.11,1.93q.57,2.81,1,6.36l-.71.17q-.47-3.48-1-6.29Zm4.28.84h9.08v.83h-4.32a9.2,9.2,0,0,1-.55,1.74h4.32v5.31c0,.75-.3,1.12-.89,1.12h-.72l-.23-.78.69,0c.26,0,.39-.17.39-.53V22.64h-1.73v5.41h-.74V22.64h-1.53v5.41h-.76V22.64h-1.68v5.63h-.8V21.84H316a7.6,7.6,0,0,0,.53-1.74h-3.91ZM320,16.93V14.4h.85v3.31h-7.45V14.4h.85v2.53h2.43V13.76h.86v3.17Z"/><path class="cls-1" d="M324.26,17.88c1.06,1.15,2,2.3,2.93,3.45a16.29,16.29,0,0,0,1.18-5.06h-4.48v-.84h5.28v.64a16.73,16.73,0,0,1-1.41,6c.77,1.05,1.42,2,2,2.85l-.65.64c-.45-.78-1-1.66-1.74-2.64a14.66,14.66,0,0,1-3.65,4.32l-.49-.75a13.48,13.48,0,0,0,3.6-4.31c-.86-1.13-1.9-2.38-3.14-3.76Zm5.87-1h4.72v-3.2h.88v3.2h1.89v.85h-1.89v9.09a1.26,1.26,0,0,1-1.44,1.42h-2.57l-.2-.83c1.15,0,2,.07,2.47.07a.77.77,0,0,0,.86-.88V17.76h-4.72Zm.69,2.95a25.74,25.74,0,0,1,2.54,3.55l-.69.48a26.71,26.71,0,0,0-2.52-3.57Z"/><path class="cls-1" d="M344.2,25.84a31.91,31.91,0,0,1-4.82,1.46l-.23-.85c1-.19,1.92-.41,2.82-.67a67.23,67.23,0,0,0,.93-7.6l.78.11a66.48,66.48,0,0,1-.94,7.25c.54-.18,1-.36,1.46-.53Zm-5-9.34h2.2c-.23-.87-.49-1.67-.77-2.42l.86-.14a26.16,26.16,0,0,1,.74,2.56h1.95v.83h-5Zm1.11,1.93q.57,2.81,1,6.36l-.71.17q-.47-3.48-1-6.29Zm4.28.84h9.08v.83h-4.32a9.2,9.2,0,0,1-.55,1.74h4.32v5.31c0,.75-.3,1.12-.89,1.12h-.72l-.23-.78.69,0c.26,0,.39-.17.39-.53V22.64h-1.73v5.41h-.74V22.64h-1.53v5.41h-.76V22.64h-1.68v5.63h-.8V21.84H348a7.6,7.6,0,0,0,.53-1.74h-3.91ZM352,16.93V14.4h.85v3.31h-7.45V14.4h.85v2.53h2.43V13.76h.86v3.17Z"/><path class="cls-1" d="M358.07,13.78h.86v2.85h3.36c0,5.08-.08,8.24-.24,9.45a2.12,2.12,0,0,1-2.38,2.08c-.24,0-.64,0-1.2,0l-.21-.79c.5,0,.94.05,1.31.05.95,0,1.5-.53,1.67-1.59q.15-1.35.2-8.3h-2.51v.19q-.07,7.34-3.13,10.71l-.69-.61q2.91-3.15,3-10.1v-.19H355.4v-.86h2.67Zm10.8,2.14V28.08H368V27h-3.17v1.1H364V15.92Zm-4,10.21H368V16.77h-3.17Z"/><path class="cls-1" d="M382.53,17.28a17.74,17.74,0,0,1-5.94,4.64.73.73,0,0,0,.65.27h3.24a1.22,1.22,0,0,0,.88-.25,3.13,3.13,0,0,0,.48-1.86l.8.26a3.62,3.62,0,0,1-.65,2.29,2.11,2.11,0,0,1-1.33.33H377c-.65,0-1.06-.22-1.22-.65a30.16,30.16,0,0,1-4.17,1.47l-.34-.74a26,26,0,0,0,4.39-1.57V18.13h.84v2.93a16.93,16.93,0,0,0,5.4-4.27Zm2.54-2.17v3.12h-.84V15.91H372.71v2.32h-.85V15.11h6.27c-.18-.44-.37-.86-.57-1.27l.89-.16c.13.29.32.77.56,1.43Zm-10.25,2.6a11.3,11.3,0,0,1-2,3.76l-.72-.44a10.46,10.46,0,0,0,1.92-3.48Zm3.26,5.78H379v3.3h4.33V23.91h.87v4.44h-.87v-.76h-9.4v.75H373V24h.85v2.77h4.2Zm-.56-7.1a14.41,14.41,0,0,1,1.81,1.95l-.66.46a13.5,13.5,0,0,0-1.79-2Zm5.59,2a23.67,23.67,0,0,1,2.53,3.36l-.69.47a30.54,30.54,0,0,0-2.48-3.38Z"/><path class="cls-1" d="M387.68,15.49h4.48a14.17,14.17,0,0,0,.59-1.79l.89.09c-.12.44-.3,1-.55,1.7h8.32v.85h-8.66a17.69,17.69,0,0,1-2.17,3.81v8.22h-.86V21.22a22,22,0,0,1-2,2.05l-.53-.71a17.78,17.78,0,0,0,4.66-6.22h-4.13Zm4.26,7.38h4.75V21.25a16.9,16.9,0,0,0,2.75-1.94h-6.25V18.5h7.37v.81a21.13,21.13,0,0,1-3,2.31v1.25h4.11v.84h-4.11V27a1.11,1.11,0,0,1-1.27,1.25h-2l-.22-.82c.76,0,1.39,0,1.88,0a.65.65,0,0,0,.74-.74V23.71h-4.75Z"/><path class="cls-1" d="M404.75,19a16.35,16.35,0,0,1-1.39,2.11l-.27-.89a19.73,19.73,0,0,0,2.82-6.45l.78.37a24,24,0,0,1-1.1,3.2v11h-.84Zm1.61-.19h2.76v7.07c.44-.45.93-1,1.47-1.65l.23.87a20,20,0,0,1-2.5,2.61l-.33-.79a.83.83,0,0,0,.29-.57V19.6h-1.92Zm1.39-4.32a20.72,20.72,0,0,1,2.4,2.35l-.66.66A15.49,15.49,0,0,0,407.15,15Zm3.34,1.25h2V13.76h.82V15.7h1.89v.75h-1.89v2.32h.6a16.94,16.94,0,0,0,2.28-4.16l.72.4a19.37,19.37,0,0,1-2,3.76h2.09v.8h-2.69a12.88,12.88,0,0,1-1.61,1.7h3.45v7h-.83v-.7h-3.28v.7h-.83V22.37a10.65,10.65,0,0,1-1.36.75l-.45-.69a11.18,11.18,0,0,0,3.86-2.86h-3.19v-.8h2.42V16.45h-2ZM415.92,24v-2h-3.28v2Zm-3.28.76v2h3.28v-2Z"/><path class="cls-1" d="M163.33,42.5h7.17v.83h-2.18v2.11h1.91V56.27h-.8v-.94h-4.85v.94h-.78V45.44h1.77V43.33h-2.24Zm2.39,3.74h-1.14v5.64h4.85V50.29h-1c-.62,0-.93-.35-.93-1v-3h-1.18v1.17a5.46,5.46,0,0,1-1.1,3.74l-.49-.43a4.91,4.91,0,0,0,1-3.31Zm-1.14,8.26h4.85V52.67h-4.85Zm1.74-9.06h1.24V43.33h-1.24Zm3.11,4.16V46.24h-1.27v2.87c0,.33.15.49.43.49Zm8.25,2.47a9.23,9.23,0,0,1-.54,3.18,1.52,1.52,0,0,1-1.47.72h-3.06c-.77,0-1.15-.49-1.15-1.46V47.92h4.46V43.35h-4.8v-.84h5.63v6.24h-4.43v5.49c0,.59.19.89.58.91h2.62a1,1,0,0,0,1-.68,13.63,13.63,0,0,0,.3-2.68Z"/><path class="cls-1" d="M186.79,41.75a23.38,23.38,0,0,0,7.1,5.69l-.46.8a22.82,22.82,0,0,1-7-5.71,23.12,23.12,0,0,1-7,5.74l-.45-.81a24,24,0,0,0,7.16-5.71ZM191.41,50v6.29h-.85v-1h-8.19v1h-.85V50Zm-9.07-3.12h8.25v.85h-8.25Zm0,7.53h8.19V50.85h-8.19Z"/><path class="cls-1" d="M205.88,56,203,56a11,11,0,0,1-2.51-.3,3.55,3.55,0,0,1-1.73-1.19.86.86,0,0,0-.61-.41c-.44,0-1.12.74-2.06,2.22l-.66-.57a6,6,0,0,1,2.32-2.44V48.19h-2.37v-.83h3.19v6a1.62,1.62,0,0,1,.51.44,4.07,4.07,0,0,0,1.34,1.06,7.89,7.89,0,0,0,2.21.34l3.14,0H208l1.72-.07-.21.89Zm-9.52-14a20.24,20.24,0,0,1,2.83,2.48l-.61.6a18.19,18.19,0,0,0-2.82-2.52Zm6.55,1.53a21.3,21.3,0,0,1,1.89,1.2,14.06,14.06,0,0,0,2.64-1.69h-7.39v-.74h8.58V43a16.65,16.65,0,0,1-3.25,2.24l.38.31h3.14v7.18c0,.75-.39,1.12-1.17,1.12h-1.41l-.21-.77,1.37,0c.39,0,.59-.18.59-.55v-1.5h-3v2.83h-.8V51.06h-3V54h-.81V45.54h4.17a24.25,24.25,0,0,0-2.27-1.42ZM204.29,48V46.29h-3V48Zm-3,.74v1.61h3V48.71Zm6.79-.74V46.29h-3V48Zm-3,.74v1.61h3V48.71Z"/><path class="cls-1" d="M211.2,46.72h3.25v7.2a24.89,24.89,0,0,0,1.87-1.71l.23.91a20.41,20.41,0,0,1-2.87,2.4l-.33-.8a.77.77,0,0,0,.29-.54V47.57H211.2Zm1.78-4.8a18.88,18.88,0,0,1,2.7,2.53l-.59.61a17.39,17.39,0,0,0-2.72-2.56Zm8.24,1.52h-4.59v-.85h8.89v.85H222.1v4.79h3.22V49H222.1v5.89h3.76v.85h-9.71v-.85h1.69V46.27h.85v8.66h2.53Z"/><path class="cls-1" d="M227.68,46A18.46,18.46,0,0,1,230,48.29l-.59.58a16.38,16.38,0,0,0-2.33-2.34Zm.23-3.87a17.56,17.56,0,0,1,2.46,2.22l-.54.56a16.8,16.8,0,0,0-2.5-2.24ZM230.15,51a53.43,53.43,0,0,1-2.05,5.24l-.77-.31a47.22,47.22,0,0,0,2.07-5.22Zm1-7.76h1.55a8.48,8.48,0,0,0,.43-1.49l.83.11a7.53,7.53,0,0,1-.41,1.38h2.19v4.86h-2.35l.54,1.54h2.32v.73h-3.3c0,.13-.08.61-.2,1.44h3a10.09,10.09,0,0,1-.39,3.73,1.51,1.51,0,0,1-1.33.67h-1l-.19-.73h1a.93.93,0,0,0,.88-.55,10.84,10.84,0,0,0,.21-2.38h-2.27c-.13.51-.26,1-.39,1.34a7.09,7.09,0,0,1-1.68,2.48l-.53-.67a6.78,6.78,0,0,0,1.48-2.16,14.91,14.91,0,0,0,.67-3.17h-1.67v-.73h2.64l-.52-1.54h-1.44Zm.77,2.12h3.05V43.86h-3.05Zm3.05,2V46h-3.05v1.37Zm1.95.26a9.65,9.65,0,0,1-.73,1.18l-.51-.62a15.4,15.4,0,0,0,2.14-6.45l.81.16a23.36,23.36,0,0,1-.6,2.85h3.63v.83h-1a18.08,18.08,0,0,1-1.31,6.8,9.12,9.12,0,0,0,2.52,3.07l-.49.74a9.16,9.16,0,0,1-2.45-3,10.13,10.13,0,0,1-2.51,3.05l-.47-.73a9.39,9.39,0,0,0,2.53-3.2A22.13,22.13,0,0,1,236.88,47.62Zm.85-2-.37,1a24.43,24.43,0,0,0,1.47,4.85,17.64,17.64,0,0,0,1-5.84Z"/><path class="cls-1" d="M246.79,46.23H245v2.25a21.81,21.81,0,0,1-1.27,7.84l-.61-.54a21.68,21.68,0,0,0,1-7.3v-6h7v.8H245v2.15h5.75v.8h-3.15v2.59h3a42.28,42.28,0,0,1-.27,5.81,1.62,1.62,0,0,1-1.65,1.5,9,9,0,0,1-1-.05l-.24-.73,1.13,0c.57,0,.92-.44,1-1.22s.14-2.25.16-4.56h-2.2c-.16,3-.81,5.21-1.92,6.66l-.61-.51q1.74-2.28,1.76-7.2Zm6.53-4.42h.83v3.44h2.91a86.56,86.56,0,0,1-.27,9.12,2,2,0,0,1-2.21,1.76c-.21,0-.58,0-1.09-.05l-.19-.73,1.15,0A1.38,1.38,0,0,0,256,54.23a71.54,71.54,0,0,0,.29-8.15h-2.13Q254,53,251.33,56.32l-.61-.54q2.43-3.06,2.58-9.7h-1.9v-.83h1.92Z"/><path class="cls-1" d="M262.37,56.27h-.83V47.73a17.68,17.68,0,0,1-2.11,4.61l-.37-.93a15.31,15.31,0,0,0,2.46-5.62h-2.09V45h2.11V41.75h.83V45H264v.81h-1.66V47q.84,1.08,1.95,2.82l-.46.7c-.6-1.1-1.09-1.95-1.49-2.57Zm2.82-10.6h7.39v4.86h-3.33a8.44,8.44,0,0,1-.16,1.44h4.59v.8h-4.27a9.32,9.32,0,0,0,4.34,2.91l-.56.67a9.88,9.88,0,0,1-4.44-3.24l-.16.35c-.58,1.17-1.9,2.14-4,2.89l-.55-.68a7,7,0,0,0,3.7-2.42,3.58,3.58,0,0,0,.24-.48h-4V52h4.28a6.59,6.59,0,0,0,.19-1.44h-3.28Zm-1-2.5h2.46V41.75h.83v1.42h2.72V41.75H271v1.42h2.57V44H271v1.22h-.83V44h-2.72v1.22h-.83V44h-2.46ZM266,47.76h5.77V46.37H266Zm5.77,2.07V48.45H266v1.38Z"/><path class="cls-1" d="M275.8,48.45h6.68v.83h-2.91v4.5c1.06-.19,2.24-.45,3.55-.79v.87c-2.28.55-4.75,1-7.42,1.39l-.21-.83c1.09-.13,2.16-.29,3.22-.48V49.28H275.8Zm-.28-3.76h8c-.05-.79-.08-1.76-.08-2.93h.9c0,1.18,0,2.15.08,2.93h5v.86h-5a26.26,26.26,0,0,0,1.33,7.11c.69,1.75,1.32,2.64,1.91,2.67.39-.08.76-1,1.12-2.88l.78.4c-.48,2.27-1.1,3.41-1.85,3.42q-2-.09-3.43-5.29a31.33,31.33,0,0,1-.75-5.43h-8Zm11.19-2.81A17.81,17.81,0,0,1,288.28,44l-.74.37A20,20,0,0,0,286,42.23Z"/><path class="cls-1" d="M105.28,77c-.8.36-1.61.69-2.45,1V83a1.08,1.08,0,0,1-1.23,1.22H99.91l-.19-.83c.74,0,1.27.06,1.58.06a.59.59,0,0,0,.67-.66V78.34c-1,.31-1.84.57-2.67.8l-.21-.83c1-.24,2-.5,2.88-.79v-3.9H99.33v-.85H102v-3h.86v3H105v.85h-2.21v3.6c.94-.36,1.76-.71,2.45-1Zm.32-6h8v.87h-2.72V82.8c0,.92-.44,1.38-1.31,1.38H107l-.2-.85c1.16,0,2,.06,2.49.06s.75-.27.75-.81V71.94H105.6Z"/><path class="cls-1" d="M125.78,84l-2.85,0a10.9,10.9,0,0,1-2.5-.3,3.59,3.59,0,0,1-1.69-1.19.86.86,0,0,0-.61-.41c-.46,0-1.16.76-2.11,2.29l-.66-.58a6,6,0,0,1,2.37-2.5V76.19h-2.37v-.83h3.19v6a1.87,1.87,0,0,1,.51.44,4,4,0,0,0,1.3,1.06,7.74,7.74,0,0,0,2.2.34l3.09,0H128l1.82-.07-.21.89ZM116.4,69.89a20,20,0,0,1,2.74,2.69l-.61.61a19.24,19.24,0,0,0-2.72-2.72Zm5.38,2.69a13.42,13.42,0,0,1-1,1.66l-.71-.45a11.16,11.16,0,0,0,1.76-3.67l.82.17q-.3,1-.51,1.47h2.36v-2h.82v2h3.41v.82h-3.41v2.27h4.21v.82h-9.7v-.82h4.67V72.58Zm-.59,4.59h7.13v4.38h-7.13Zm6.3,3.58V78H122v2.76Z"/><path class="cls-1" d="M131.48,75.86H136c.4-.73.89-1.63,1.45-2.72l.88.27L137,75.86h8.48v.83h-3.2a13.74,13.74,0,0,1-2.38,4.21c1.57.69,3.28,1.56,5.15,2.61l-.58.73a53.7,53.7,0,0,0-5.21-2.69,10.76,10.76,0,0,1-7.17,2.57l-.51-.82a10.72,10.72,0,0,0,6.8-2.11s0,0,0,0a45.76,45.76,0,0,0-4.59-1.73c.63-1,1.19-1.9,1.68-2.75h-4ZM145,71.38v3.29h-.87V72.23H132.83v2.43H132V71.38h6.13a14,14,0,0,0-.77-1.6l1-.16a15.26,15.26,0,0,1,.75,1.76Zm-8.42,5.31q-1.08,1.78-1.47,2.37a34.41,34.41,0,0,1,4,1.49,10.76,10.76,0,0,0,2.29-3.86Z"/><path class="cls-1" d="M154.77,69.83a23,23,0,0,0,7,5.07l-.43.75a22.92,22.92,0,0,1-6.88-5,22.81,22.81,0,0,1-6.95,5.13l-.41-.77a23.39,23.39,0,0,0,7-5.16ZM150,74.93H159v.85h-4v3h4.75v.85H154.9V83h6.21v.85H147.84V83H154v-3.3h-4.76v-.85H154v-3h-4Z"/><path class="cls-1" d="M164.47,72.85a22.93,22.93,0,0,1-.58,4.56l-.72-.19a21.53,21.53,0,0,0,.59-4.43Zm1.07-3.07h.86V84.27h-.86Zm2,2.72a21.09,21.09,0,0,1,1,2.81l-.7.18a18.61,18.61,0,0,0-1-2.78Zm2.56,1.23a12.92,12.92,0,0,1-1.32,3.34l-.65-.57a13,13,0,0,0,1.55-5.81l.8.1a15.87,15.87,0,0,1-.21,2.09h2.59V69.79h.89v3.09h3.6v.85h-3.6v4.11H177v.85h-3.31V83h4v.85h-9.58V83h4.68V78.69h-3.76v-.85h3.76V73.73Z"/><path class="cls-1" d="M179.65,74.23h2.9V71.65c-.9.15-1.77.26-2.63.32l-.28-.8a20.18,20.18,0,0,0,6-1.23l.41.73a18.05,18.05,0,0,1-2.65.8v2.76h2.83V75h-2.83V76a34.7,34.7,0,0,1,2.86,2.94l-.51.73c-.91-1.21-1.69-2.17-2.35-2.88v7.51h-.83V76.58a15.45,15.45,0,0,1-3,4.56l-.36-.91A13.07,13.07,0,0,0,182.55,75h-2.9Zm13.25-3.32V83.7H192V82.37h-4.19v1.47H187V70.91Zm-5.06,10.64H192V71.73h-4.19Z"/><path class="cls-1" d="M195.4,70.77h14.19v.85h-2.18v11.1a1.31,1.31,0,0,1-1.47,1.49H203.3l-.19-.83c1.17,0,2,.06,2.53.06s.89-.31.89-.94V71.62H195.4Zm7.92,3.57V80h-5.16v1.46h-.83V74.34Zm-5.16,4.86h4.32V75.12h-4.32Z"/><path class="cls-1" d="M211.67,84.18l-.19-.83q.89.06,1.29.06c.46,0,.69-.24.69-.74V78.45c-.63.21-1.34.44-2.13.67l-.22-.85c.84-.2,1.62-.43,2.35-.68V73.75h-2.08v-.84h2.08V69.79h.86v3.12h1.76v.84h-1.76v3.52q1.08-.45,1.89-.87v.88q-1,.5-1.89.84V82.9a1.12,1.12,0,0,1-1.25,1.28Zm5-6.67h5.86V76.16h.88v1.35h2.27v.81h-2.27V82.9a1.16,1.16,0,0,1-1.3,1.31H220l-.19-.85c1,0,1.65.07,2.07.07s.72-.25.72-.76V78.32h-5.86Zm4-7.76h.86v1.77h3.25v.82h-3.25v2.19h4v.83h-8.69v-.83h3.87V72.34H217.4v-.82h3.26Zm-2.59,9.44a21,21,0,0,1,2.24,2.6l-.67.48a19.61,19.61,0,0,0-2.26-2.67Z"/><path class="cls-1" d="M230.82,70.08a25.1,25.1,0,0,1-2.4,5,20.48,20.48,0,0,0,2.35-.43l.88-1.68.78.29a33.76,33.76,0,0,1-3.6,5.73A20.9,20.9,0,0,0,232,78.1v.81a23.21,23.21,0,0,1-4.24,1l-.22-.8a2.23,2.23,0,0,0,.4-.24,19.32,19.32,0,0,0,2.37-3.43c-.9.2-1.81.36-2.72.49l-.21-.81a1,1,0,0,0,.37-.32A24.68,24.68,0,0,0,230,69.75ZM232.23,82a25,25,0,0,1-4.74,1.42l-.11-.87a24,24,0,0,0,4.85-1.39Zm.33-2.87h4.5a11.8,11.8,0,0,0,.11-1.2V75H238v2.91c0,.3,0,.7-.08,1.2h3.84v.83h-4a6.71,6.71,0,0,1-.3,1,23.63,23.63,0,0,1,4.43,2.75l-.49.73a20.5,20.5,0,0,0-4.26-2.81,5.45,5.45,0,0,0-.37.56A7.6,7.6,0,0,1,233,84.37l-.5-.75a7.21,7.21,0,0,0,3.68-2.13,4.85,4.85,0,0,0,.75-1.57h-4.32Zm.5-2.66a11.3,11.3,0,0,1,2.5,1.59l-.42.67a10.38,10.38,0,0,0-2.48-1.63Zm.35-5.58h3.3V69.7h.86v1.15h3.52v.8h-3.52v1.68h3.71v.56a20.82,20.82,0,0,1-.92,3l-.84-.24a13,13,0,0,0,.87-2.53H232.9v-.83h3.81V71.65h-3.3Zm.9,3.94a10.7,10.7,0,0,1,2.28,1.5l-.41.64a10,10,0,0,0-2.27-1.55Z"/><path class="cls-1" d="M244.47,72.85a22.93,22.93,0,0,1-.58,4.56l-.72-.19a21.53,21.53,0,0,0,.59-4.43Zm1.07-3.07h.86V84.27h-.86Zm2,2.72a21.09,21.09,0,0,1,1,2.81l-.7.18a18.61,18.61,0,0,0-1-2.78Zm2.56,1.23a12.92,12.92,0,0,1-1.32,3.34l-.65-.57a13,13,0,0,0,1.55-5.81l.8.1a15.87,15.87,0,0,1-.21,2.09h2.59V69.79h.89v3.09h3.6v.85h-3.6v4.11H257v.85h-3.31V83h4v.85h-9.58V83h4.68V78.69h-3.76v-.85h3.76V73.73Z"/><path class="cls-1" d="M264.8,72.59V83.35H264v-1h-3.23v1.42h-.83V72.59h1.44a14.61,14.61,0,0,0,.72-2.86l.88.11a13.71,13.71,0,0,1-.77,2.75ZM260.74,77H264V73.43h-3.23Zm0,4.58H264V77.78h-3.23Zm12.35-9c0,5.13-.07,8.33-.22,9.58a2,2,0,0,1-2.23,1.93l-1.57,0-.2-.8c.64,0,1.2,0,1.68,0A1.39,1.39,0,0,0,272,81.91q.18-1.32.23-8.44h-4.72a13.26,13.26,0,0,1-1.62,2.8l-.51-.67a14.14,14.14,0,0,0,2.35-5.89l.85.1a20.58,20.58,0,0,1-.73,2.8Zm-5.57,3.6a27.68,27.68,0,0,1,2.79,3.52l-.69.5a24.4,24.4,0,0,0-2.8-3.57Z"/><path class="cls-1" d="M278.1,80.61A16.47,16.47,0,0,1,276,84.26l-.7-.5a14,14,0,0,0,2.09-3.52Zm3.68-10.9h.85v1.68h6.3v.82h-6.3v2.3h5.1v4.92H277.41V74.51h4.37Zm5.1,8.9V75.33h-8.6v3.28Zm-6.29,2.08c.36,1.17.65,2.34.89,3.49l-.89.21a20.63,20.63,0,0,0-.81-3.52Zm3.36-.14a30,30,0,0,1,1.29,3.6l-.87.2a20,20,0,0,0-1.22-3.63Zm3.37-.29a25.68,25.68,0,0,1,2.33,3.57l-.7.49a31.4,31.4,0,0,0-2.34-3.61Z"/><path class="cls-1" d="M293.25,73.41A16.18,16.18,0,0,1,291.67,75l-.45-.69a12.4,12.4,0,0,0,3.29-4.63l.81.21c-.17.43-.37.88-.61,1.35h3.74a12.67,12.67,0,0,0-.69-1.46l.87-.16c.23.51.45,1,.65,1.62h5.28V72h-5.2v1.27H304V74h-4.64v1.25H304V76h-4.64v1.36h5.49v.75h-11.6Zm-1.63,7v-.82h6.46v-1H299v1h6.37v.82H300.2a11.31,11.31,0,0,0,5.29,2.77l-.37.77a11.76,11.76,0,0,1-5.77-3.54H299v4h-.87v-4h-.43c-1,1.4-2.9,2.6-5.74,3.62l-.47-.76q4-1.24,5.39-2.86Zm6.89-7.06V72h-4.25l-.19.3v1Zm0,2V74h-4.44v1.25Zm0,2.06V76h-4.44v1.36Z"/><path class="cls-1" d="M310.2,73.68a12,12,0,0,1-2.44,3.71l-.57-.7a12.65,12.65,0,0,0,3.15-6.54l.88.17a18.46,18.46,0,0,1-.71,2.53h3.81v-3h.85v3h5.39v.83h-5.39v4h5.07v.85h-5.07v4.36h6.42v.87h-14v-.87h6.75V78.55h-4.81V77.7h4.81v-4Z"/><path class="cls-1" d="M330.91,69.7a14.32,14.32,0,0,1-.33,1.81h6.29v.84h-5.31c.8,1.89,2.84,3.36,6.14,4.42l-.46.75q-5.36-1.87-6.55-5.17h-.38a7.73,7.73,0,0,1-1.44,2.48l-.26.28a23.49,23.49,0,0,1,2.43,2l-.59.61A26.07,26.07,0,0,0,328,75.62a13.19,13.19,0,0,1-4.51,1.95l-.36-.82a10.21,10.21,0,0,0,5-2.48,6.64,6.64,0,0,0,1.22-1.92h-5.47v-.84h5.76a11.74,11.74,0,0,0,.38-1.91Zm-5.16,9.53a15.47,15.47,0,0,1-1.64,4.29l-.75-.46a13,13,0,0,0,1.54-4Zm3,4.76c-1,0-1.49-.47-1.49-1.41V79h.86V82.4c0,.49.3.74.9.74h3.47a1,1,0,0,0,.8-.27,4.52,4.52,0,0,0,.44-2.2l.81.28a5,5,0,0,1-.62,2.64,1.75,1.75,0,0,1-1.25.4Zm1.95-5.51a16.91,16.91,0,0,1,1.47,2.74l-.8.37a18.9,18.9,0,0,0-1.45-2.85Zm4.75.32a24.84,24.84,0,0,1,2.05,3.87l-.8.37a24.4,24.4,0,0,0-2.1-4Z"/><path class="cls-1" d="M340.87,83.57v.77H340v-14H352.9v14h-.83v-.77Zm11.2-.75V71.12h-11.2v11.7Zm-9.83-9.27h1.57a7.77,7.77,0,0,0-.83-1.4l.69-.24a8.72,8.72,0,0,1,.88,1.64h1.21a14.34,14.34,0,0,0,.4-1.9l.8.1a12.66,12.66,0,0,1-.38,1.8h1.57a6.39,6.39,0,0,0,.78-1.69l.71.19a5,5,0,0,1-.69,1.5h1.74v.69h-4.33a13,13,0,0,1-.53,1.23h5.34v.71h-2.5a7.86,7.86,0,0,0,3,2.65l-.48.61a8.83,8.83,0,0,1-3.2-3.26h-2.54a10,10,0,0,1-.85,1.15h4.13V79c0,.61-.4.93-1.19,1-.46,0-.9,0-1.34,0l-.18-.65c.6,0,1,.07,1.28.07.45,0,.67-.16.67-.48V78h-3.28v2.83c0,.26.18.4.52.4h2.72a1.84,1.84,0,0,0,1.2-.26,2.61,2.61,0,0,0,.35-1.22l.74.23a2.41,2.41,0,0,1-.61,1.66,3,3,0,0,1-1.52.28H345c-.7,0-1-.3-1-.9V78a9.42,9.42,0,0,1-2.13,1.48l-.42-.64a7.93,7.93,0,0,0,3.17-2.7h-2.77v-.71H345a8.72,8.72,0,0,0,.58-1.23h-3.3Z"/></svg>