<svg id="图层_1" data-name="图层 1" xmlns="http://www.w3.org/2000/svg" viewBox="0 0 441 276"><defs><style>.cls-1{fill:#33353c;}</style></defs><title>121212</title><path class="cls-1" d="M65.58,14.42h1.1V22.3a4.61,4.61,0,0,0,.9,3.11,4.6,4.6,0,0,0,6,0,4.7,4.7,0,0,0,.9-3.11V14.42h1.1V22.3a5.57,5.57,0,0,1-1.21,3.83,4.92,4.92,0,0,1-3.8,1.39,4.89,4.89,0,0,1-3.78-1.37,5.49,5.49,0,0,1-1.22-3.85Z"/><path class="cls-1" d="M84.91,20.57H83.85a2.2,2.2,0,0,0-.77-1.42,3.7,3.7,0,0,0-3.56-.09,1.23,1.23,0,0,0,.18,2.25,12.63,12.63,0,0,0,2,.65,9.36,9.36,0,0,1,2.41.86,2.1,2.1,0,0,1,1.12,1.87q0,2.83-3.78,2.83-3.58,0-3.91-3.19h1.06a2.53,2.53,0,0,0,.86,1.76,3.23,3.23,0,0,0,1.94.49q2.7,0,2.7-1.84a1.4,1.4,0,0,0-.92-1.29,12.26,12.26,0,0,0-2.07-.65A9,9,0,0,1,78.81,22a2,2,0,0,1-1.06-1.78,2.1,2.1,0,0,1,1-1.82,4.18,4.18,0,0,1,2.45-.67Q84.52,17.71,84.91,20.57Z"/><path class="cls-1" d="M88.64,14.89a.76.76,0,0,1,.27.63.89.89,0,0,1-.29.65.94.94,0,0,1-.63.25.89.89,0,0,1-.92-.9.76.76,0,0,1,.27-.63.85.85,0,0,1,.65-.27A.89.89,0,0,1,88.64,14.89ZM87.45,18h1.08v9.31H87.45Z"/><path class="cls-1" d="M98.9,21.55v5.72H97.82V21.62q0-3-2.65-3a2.45,2.45,0,0,0-1.87.81,3.28,3.28,0,0,0-.88,2.2v5.62H91.34V18h1.08v1.53a3.78,3.78,0,0,1,1.26-1.31,3.29,3.29,0,0,1,1.76-.47Q98.9,17.71,98.9,21.55Z"/><path class="cls-1" d="M108.33,19.84V18h1.08v8.62q0,4.5-4.18,4.5a4.48,4.48,0,0,1-2.83-.79,3.39,3.39,0,0,1-1.19-2.23h1.08a2.42,2.42,0,0,0,.86,1.55,3.25,3.25,0,0,0,2.07.58q3.1,0,3.1-3.47V24.93A3.46,3.46,0,0,1,105,27.05a3.87,3.87,0,0,1-3.11-1.39,4.94,4.94,0,0,1-1.08-3.28,4.94,4.94,0,0,1,1.08-3.28,3.85,3.85,0,0,1,3.11-1.4A3.46,3.46,0,0,1,108.33,19.84Zm-5.6-.09a4,4,0,0,0-.83,2.65,4.13,4.13,0,0,0,.77,2.59,2.85,2.85,0,0,0,2.43,1.13A2.92,2.92,0,0,0,107.52,25a4.14,4.14,0,0,0,.81-2.65,4.14,4.14,0,0,0-.81-2.65,3.13,3.13,0,0,0-4.79,0Z"/><path class="cls-1" d="M119.92,15v3h2.43v.94h-2.43v6.3a1.41,1.41,0,0,0,.22.88,1,1,0,0,0,.81.25h1.17v.94h-1.31a1.92,1.92,0,0,1-1.55-.56,2.26,2.26,0,0,1-.41-1.51V18.9h-2V18h2V15.41Z"/><path class="cls-1" d="M124,14.17h1.1v5.49a3.58,3.58,0,0,1,1.3-1.46,3.31,3.31,0,0,1,1.76-.49,3.25,3.25,0,0,1,2.48.94,3.75,3.75,0,0,1,.9,2.68v5.94h-1.08v-5.8a3.07,3.07,0,0,0-.68-2.11,2.57,2.57,0,0,0-1.93-.72,2.51,2.51,0,0,0-2,.94,3.36,3.36,0,0,0-.79,2.3v5.38H124Z"/><path class="cls-1" d="M140.87,19.21a6.48,6.48,0,0,1,1.06,3.73h-7.56a4.39,4.39,0,0,0,.92,2.68,2.93,2.93,0,0,0,2.3,1,3.12,3.12,0,0,0,2.05-.67,3.5,3.5,0,0,0,1-1.64h1.1a4.35,4.35,0,0,1-1.24,2.21,4.15,4.15,0,0,1-2.9,1,4,4,0,0,1-3.13-1.33,5.13,5.13,0,0,1-1.21-3.58,5.2,5.2,0,0,1,1.15-3.44,4.27,4.27,0,0,1,6.46,0Zm-5.51.4a4.09,4.09,0,0,0-1,2.45h6.41q-.27-3.4-3.22-3.4A2.78,2.78,0,0,0,135.37,19.6Z"/><path class="cls-1" d="M156.68,14.17h1.08v13.1h-1V25.43a3.34,3.34,0,0,1-3.26,2.09A3.78,3.78,0,0,1,150.32,26a5.53,5.53,0,0,1-1-3.44,5.46,5.46,0,0,1,1-3.4,3.65,3.65,0,0,1,3.1-1.49,3.4,3.4,0,0,1,3.26,2.21Zm-5.51,5.65a4.48,4.48,0,0,0-.77,2.79,4.74,4.74,0,0,0,.76,2.81,2.8,2.8,0,0,0,2.43,1.19,2.76,2.76,0,0,0,2.36-1.15,4.52,4.52,0,0,0,.77-2.7v-.21a4.51,4.51,0,0,0-.83-2.79,2.7,2.7,0,0,0-2.27-1.12A2.85,2.85,0,0,0,151.17,19.82Z"/><path class="cls-1" d="M161.75,14.89a.76.76,0,0,1,.27.63.9.9,0,0,1-.29.65.94.94,0,0,1-.63.25.89.89,0,0,1-.92-.9.76.76,0,0,1,.27-.63.85.85,0,0,1,.65-.27A.88.88,0,0,1,161.75,14.89ZM160.57,18h1.08v9.31h-1.08Z"/><path class="cls-1" d="M171.62,19.84V18h1.08v8.62q0,4.5-4.18,4.5a4.48,4.48,0,0,1-2.83-.79,3.39,3.39,0,0,1-1.19-2.23h1.08a2.41,2.41,0,0,0,.86,1.55,3.25,3.25,0,0,0,2.07.58q3.1,0,3.1-3.47V24.93a3.46,3.46,0,0,1-3.33,2.12,3.87,3.87,0,0,1-3.11-1.39,4.94,4.94,0,0,1-1.08-3.28,4.94,4.94,0,0,1,1.08-3.28,3.85,3.85,0,0,1,3.11-1.4A3.46,3.46,0,0,1,171.62,19.84Zm-5.6-.09a4,4,0,0,0-.83,2.65A4.14,4.14,0,0,0,166,25a2.85,2.85,0,0,0,2.43,1.13A2.92,2.92,0,0,0,170.81,25a4.14,4.14,0,0,0,.81-2.65,4.14,4.14,0,0,0-.81-2.65,3.13,3.13,0,0,0-4.79,0Z"/><path class="cls-1" d="M176.69,14.89a.76.76,0,0,1,.27.63.89.89,0,0,1-.29.65.94.94,0,0,1-.63.25.89.89,0,0,1-.92-.9.76.76,0,0,1,.27-.63.85.85,0,0,1,.65-.27A.89.89,0,0,1,176.69,14.89ZM175.51,18h1.08v9.31h-1.08Z"/><path class="cls-1" d="M181.64,15v3h2.43v.94h-2.43v6.3a1.41,1.41,0,0,0,.22.88,1,1,0,0,0,.81.25h1.17v.94h-1.31a1.92,1.92,0,0,1-1.55-.56,2.26,2.26,0,0,1-.41-1.51V18.9h-2V18h2V15.41Z"/><path class="cls-1" d="M192.55,18.77a3.6,3.6,0,0,1,.83,2.5v6h-1V25.49a4.8,4.8,0,0,1-1.51,1.39,4.7,4.7,0,0,1-2.43.65,3.35,3.35,0,0,1-2.21-.7,2.4,2.4,0,0,1-.85-1.93,2.75,2.75,0,0,1,1.46-2.59,6.29,6.29,0,0,1,3.11-.67l2.38,0v-.34a2.36,2.36,0,0,0-2.7-2.65,3.2,3.2,0,0,0-1.94.52,2.21,2.21,0,0,0-1,1.62h-1.06A3.25,3.25,0,0,1,187,18.43a4.56,4.56,0,0,1,2.7-.72A3.67,3.67,0,0,1,192.55,18.77Zm-.25,3.73-2.32,0q-3.53,0-3.53,2.36a1.55,1.55,0,0,0,.59,1.26,2.38,2.38,0,0,0,1.58.49,3.87,3.87,0,0,0,2.59-1,2.76,2.76,0,0,0,1.08-2.07Z"/><path class="cls-1" d="M196,14.17h1.08v13.1H196Z"/><path class="cls-1" d="M206,14.42h1.1V27.27H206Z"/><path class="cls-1" d="M209.9,14.42h4.57a5.57,5.57,0,0,1,4.52,1.8,7,7,0,0,1,1.39,4.63,6.66,6.66,0,0,1-1.55,4.64,5.89,5.89,0,0,1-4.59,1.78H209.9Zm1.1,1V26.3h3.08A5.08,5.08,0,0,0,218,24.84a5.68,5.68,0,0,0,1.3-4,6,6,0,0,0-1.13-4,4.79,4.79,0,0,0-3.85-1.44Z"/><path class="cls-1" d="M235.16,20.57H234.1a2.2,2.2,0,0,0-.77-1.42,3.7,3.7,0,0,0-3.56-.09,1.3,1.3,0,0,0-.65,1.12,1.28,1.28,0,0,0,.83,1.13,12.56,12.56,0,0,0,2,.65,9.39,9.39,0,0,1,2.41.86,2.1,2.1,0,0,1,1.12,1.87q0,2.83-3.78,2.83-3.58,0-3.91-3.19h1.06a2.54,2.54,0,0,0,.86,1.76,3.23,3.23,0,0,0,1.94.49q2.7,0,2.7-1.84a1.41,1.41,0,0,0-.92-1.29,12.33,12.33,0,0,0-2.07-.65,9,9,0,0,1-2.27-.83A2,2,0,0,1,228,20.2a2.1,2.1,0,0,1,1-1.82,4.18,4.18,0,0,1,2.45-.67Q234.76,17.71,235.16,20.57Z"/><path class="cls-1" d="M236.11,18h1.19l3,7.76,3-7.76h1.19L239.4,30.83h-1.17L239.8,27Z"/><path class="cls-1" d="M252.63,20.57h-1.06a2.2,2.2,0,0,0-.77-1.42,3.7,3.7,0,0,0-3.56-.09,1.23,1.23,0,0,0,.18,2.25,12.63,12.63,0,0,0,2,.65,9.36,9.36,0,0,1,2.41.86,2.1,2.1,0,0,1,1.12,1.87q0,2.83-3.78,2.83-3.58,0-3.91-3.19h1.06a2.53,2.53,0,0,0,.86,1.76,3.23,3.23,0,0,0,1.94.49q2.7,0,2.7-1.84a1.4,1.4,0,0,0-.92-1.29,12.26,12.26,0,0,0-2.07-.65,9,9,0,0,1-2.27-.83,2,2,0,0,1-1.06-1.78,2.1,2.1,0,0,1,1-1.82,4.18,4.18,0,0,1,2.45-.67Q252.24,17.71,252.63,20.57Z"/><path class="cls-1" d="M256.88,15v3h2.43v.94h-2.43v6.3a1.41,1.41,0,0,0,.22.88,1,1,0,0,0,.81.25h1.17v.94h-1.31a1.92,1.92,0,0,1-1.55-.56,2.26,2.26,0,0,1-.41-1.51V18.9h-2V18h2V15.41Z"/><path class="cls-1" d="M268,19.21a6.48,6.48,0,0,1,1.06,3.73h-7.56a4.37,4.37,0,0,0,.92,2.68,2.93,2.93,0,0,0,2.3,1,3.12,3.12,0,0,0,2.05-.67,3.48,3.48,0,0,0,1-1.64h1.1a4.36,4.36,0,0,1-1.24,2.21,4.15,4.15,0,0,1-2.9,1,4,4,0,0,1-3.13-1.33,5.13,5.13,0,0,1-1.21-3.58,5.2,5.2,0,0,1,1.15-3.44,4.27,4.27,0,0,1,6.46,0Zm-5.51.4a4.09,4.09,0,0,0-1,2.45H268q-.27-3.4-3.22-3.4A2.78,2.78,0,0,0,262.52,19.6Z"/><path class="cls-1" d="M277.51,19.62a3.62,3.62,0,0,1,1.24-1.42,2.9,2.9,0,0,1,1.69-.49,3.06,3.06,0,0,1,2.34.92,3.67,3.67,0,0,1,.85,2.56v6.08h-1.08V21.33a3,3,0,0,0-.54-2,2.3,2.3,0,0,0-1.85-.7,2.14,2.14,0,0,0-1.69.77,2.72,2.72,0,0,0-.68,1.93v5.92h-1.1V21.33q0-2.68-2.32-2.68a2.15,2.15,0,0,0-1.75.85,3,3,0,0,0-.72,2.05v5.72h-1.08V18h1.08v1.4a3,3,0,0,1,2.7-1.66A2.8,2.8,0,0,1,277.51,19.62Z"/><path class="cls-1" d="M288.13,27a3.31,3.31,0,0,1-1.8,3.11l-.4-.63a2.84,2.84,0,0,0,1.39-2.2l-.27,0a1,1,0,0,1-.67-.23.84.84,0,0,1-.25-.65.86.86,0,0,1,.23-.67.9.9,0,0,1,.67-.25Q288.13,25.47,288.13,27Z"/><path class="cls-1" d="M296.54,18h1.08v5.69a3.29,3.29,0,0,0,.61,2.18,2.49,2.49,0,0,0,2,.76,2.6,2.6,0,0,0,1.89-.83,3.28,3.28,0,0,0,.92-2.14V18h1.08v9.31H303V25.71a3.41,3.41,0,0,1-3.1,1.82q-3.4,0-3.4-3.82Z"/><path class="cls-1" d="M313.26,20.57H312.2a2.2,2.2,0,0,0-.77-1.42,3.7,3.7,0,0,0-3.56-.09,1.23,1.23,0,0,0,.18,2.25,12.63,12.63,0,0,0,2,.65,9.36,9.36,0,0,1,2.41.86,2.1,2.1,0,0,1,1.12,1.87q0,2.83-3.78,2.83-3.58,0-3.91-3.19h1.06a2.53,2.53,0,0,0,.86,1.76,3.23,3.23,0,0,0,1.94.49q2.7,0,2.7-1.84a1.4,1.4,0,0,0-.92-1.29,12.26,12.26,0,0,0-2.07-.65,9,9,0,0,1-2.27-.83,2,2,0,0,1-1.06-1.78,2.1,2.1,0,0,1,1-1.82,4.18,4.18,0,0,1,2.45-.67Q312.86,17.71,313.26,20.57Z"/><path class="cls-1" d="M322.33,19.21a6.48,6.48,0,0,1,1.06,3.73h-7.56a4.39,4.39,0,0,0,.92,2.68,2.93,2.93,0,0,0,2.3,1,3.12,3.12,0,0,0,2.05-.67,3.5,3.5,0,0,0,1-1.64h1.1A4.35,4.35,0,0,1,322,26.5a4.15,4.15,0,0,1-2.9,1,4,4,0,0,1-3.13-1.33,5.13,5.13,0,0,1-1.21-3.58,5.2,5.2,0,0,1,1.15-3.44,4.27,4.27,0,0,1,6.46,0Zm-5.51.4a4.09,4.09,0,0,0-1,2.45h6.41q-.27-3.4-3.22-3.4A2.78,2.78,0,0,0,316.82,19.6Z"/><path class="cls-1" d="M330.38,17.91V19a5,5,0,0,0-1.42-.2,2.3,2.3,0,0,0-2,1.12,4,4,0,0,0-.74,2.43v4.91h-1.08V18h1.08v1.78a3.41,3.41,0,0,1,1-1.39,2.68,2.68,0,0,1,1.8-.65A3.71,3.71,0,0,1,330.38,17.91Z"/><path class="cls-1" d="M338.48,20.57h-1.06a2.2,2.2,0,0,0-.77-1.42,3.7,3.7,0,0,0-3.56-.09,1.23,1.23,0,0,0,.18,2.25,12.63,12.63,0,0,0,2,.65,9.36,9.36,0,0,1,2.41.86,2.1,2.1,0,0,1,1.12,1.87q0,2.83-3.78,2.83-3.58,0-3.91-3.19h1.06A2.53,2.53,0,0,0,333,26.1a3.23,3.23,0,0,0,1.94.49q2.7,0,2.7-1.84a1.4,1.4,0,0,0-.92-1.29,12.26,12.26,0,0,0-2.07-.65,9,9,0,0,1-2.27-.83,2,2,0,0,1-1.06-1.78,2.1,2.1,0,0,1,1-1.82,4.18,4.18,0,0,1,2.45-.67Q338.08,17.71,338.48,20.57Z"/><path class="cls-1" d="M353.11,18.52A3.53,3.53,0,0,1,354.39,21h-1.08a2.65,2.65,0,0,0-.94-1.76,3.12,3.12,0,0,0-2-.59,2.78,2.78,0,0,0-2.34,1.13,4.52,4.52,0,0,0-.85,2.9,4.57,4.57,0,0,0,.81,2.84,2.78,2.78,0,0,0,2.36,1.06,2.75,2.75,0,0,0,3-2.65h1.06a4.25,4.25,0,0,1-1.33,2.68,4,4,0,0,1-2.72.9,3.88,3.88,0,0,1-3.2-1.4,5.21,5.21,0,0,1-1.06-3.44,5.4,5.4,0,0,1,1.1-3.49,3.82,3.82,0,0,1,3.19-1.48A4.31,4.31,0,0,1,353.11,18.52Z"/><path class="cls-1" d="M363.51,19.19a5.21,5.21,0,0,1,1.13,3.44A5.22,5.22,0,0,1,363.51,26a4.41,4.41,0,0,1-6.59,0,5.22,5.22,0,0,1-1.13-3.42,5.16,5.16,0,0,1,1.15-3.44,4,4,0,0,1,3.28-1.48A4.09,4.09,0,0,1,363.51,19.19Zm-5.8.68a4.35,4.35,0,0,0-.83,2.75,4.32,4.32,0,0,0,.83,2.74,3.19,3.19,0,0,0,5,0,4.51,4.51,0,0,0,.83-2.74,4.44,4.44,0,0,0-.83-2.75,3.19,3.19,0,0,0-5,0Z"/><path class="cls-1" d="M366.56,18h1.08v5.69a3.29,3.29,0,0,0,.61,2.18,2.49,2.49,0,0,0,2,.76,2.6,2.6,0,0,0,1.89-.83,3.29,3.29,0,0,0,.92-2.14V18h1.08v9.31h-1.08V25.71a3.41,3.41,0,0,1-3.1,1.82q-3.4,0-3.4-3.82Z"/><path class="cls-1" d="M376.74,14.17h1.08v13.1h-1.08Z"/><path class="cls-1" d="M387.45,14.17h1.08v13.1h-1V25.43a3.34,3.34,0,0,1-3.26,2.09A3.78,3.78,0,0,1,381.1,26a5.53,5.53,0,0,1-1-3.44,5.46,5.46,0,0,1,1-3.4,3.65,3.65,0,0,1,3.1-1.49,3.4,3.4,0,0,1,3.26,2.21Zm-5.51,5.65a4.48,4.48,0,0,0-.77,2.79,4.74,4.74,0,0,0,.76,2.81,2.8,2.8,0,0,0,2.43,1.19,2.76,2.76,0,0,0,2.36-1.15,4.52,4.52,0,0,0,.77-2.7v-.21a4.51,4.51,0,0,0-.83-2.79,2.7,2.7,0,0,0-2.27-1.12A2.85,2.85,0,0,0,381.95,19.82Z"/><path class="cls-1" d="M67.12,50.52A3.53,3.53,0,0,1,68.4,53H67.32a2.65,2.65,0,0,0-.94-1.76,3.11,3.11,0,0,0-2-.59,2.79,2.79,0,0,0-2.34,1.13,5.39,5.39,0,0,0,0,5.74,2.78,2.78,0,0,0,2.36,1.06,2.75,2.75,0,0,0,3-2.65h1.06a4.25,4.25,0,0,1-1.33,2.68,4,4,0,0,1-2.72.9,3.89,3.89,0,0,1-3.2-1.4,5.21,5.21,0,0,1-1.06-3.44,5.41,5.41,0,0,1,1.1-3.49,3.82,3.82,0,0,1,3.19-1.48A4.31,4.31,0,0,1,67.12,50.52Z"/><path class="cls-1" d="M77.53,51.19a5.75,5.75,0,0,1,0,6.86,4.41,4.41,0,0,1-6.59,0,5.22,5.22,0,0,1-1.13-3.42A5.15,5.15,0,0,1,71,51.19a4,4,0,0,1,3.28-1.48A4.09,4.09,0,0,1,77.53,51.19Zm-5.8.68a5,5,0,0,0,0,5.49,3.19,3.19,0,0,0,5,0,4.51,4.51,0,0,0,.83-2.74,4.44,4.44,0,0,0-.83-2.75,3.19,3.19,0,0,0-5,0Z"/><path class="cls-1" d="M88.13,53.55v5.72H87V53.62q0-3-2.65-3a2.45,2.45,0,0,0-1.87.81,3.28,3.28,0,0,0-.88,2.2v5.62H80.57V50h1.08v1.53a3.78,3.78,0,0,1,1.26-1.31,3.29,3.29,0,0,1,1.76-.47Q88.13,49.71,88.13,53.55Z"/><path class="cls-1" d="M98,53.55v5.72H96.87V53.62q0-3-2.65-3a2.45,2.45,0,0,0-1.87.81,3.28,3.28,0,0,0-.88,2.2v5.62H90.39V50h1.08v1.53a3.79,3.79,0,0,1,1.26-1.31,3.29,3.29,0,0,1,1.76-.47Q98,49.71,98,53.55Z"/><path class="cls-1" d="M107.3,51.21a6.48,6.48,0,0,1,1.06,3.73H100.8a4.39,4.39,0,0,0,.92,2.68,2.93,2.93,0,0,0,2.3,1,3.12,3.12,0,0,0,2.05-.67,3.5,3.5,0,0,0,1-1.64h1.1a4.35,4.35,0,0,1-1.24,2.21,4.15,4.15,0,0,1-2.9,1,4,4,0,0,1-3.13-1.33,5.13,5.13,0,0,1-1.21-3.58,5.2,5.2,0,0,1,1.15-3.44,4.27,4.27,0,0,1,6.46,0Zm-5.51.4a4.09,4.09,0,0,0-1,2.45h6.41q-.27-3.4-3.22-3.4A2.78,2.78,0,0,0,101.79,51.6Z"/><path class="cls-1" d="M116.73,50.52A3.53,3.53,0,0,1,118,53h-1.08a2.65,2.65,0,0,0-.94-1.76,3.12,3.12,0,0,0-2-.59,2.78,2.78,0,0,0-2.34,1.13,4.52,4.52,0,0,0-.85,2.9,4.57,4.57,0,0,0,.81,2.84A2.78,2.78,0,0,0,114,58.59a2.75,2.75,0,0,0,3-2.65H118a4.25,4.25,0,0,1-1.33,2.68,4,4,0,0,1-2.72.9,3.88,3.88,0,0,1-3.2-1.4,5.21,5.21,0,0,1-1.06-3.44,5.4,5.4,0,0,1,1.1-3.49A3.82,3.82,0,0,1,114,49.71,4.31,4.31,0,0,1,116.73,50.52Z"/><path class="cls-1" d="M122,47v3h2.43v.94H122v6.3a1.41,1.41,0,0,0,.22.88,1,1,0,0,0,.81.25h1.17v.94H122.9a1.92,1.92,0,0,1-1.55-.56,2.26,2.26,0,0,1-.41-1.51V50.9h-2V50h2V47.41Z"/><path class="cls-1" d="M134.33,47v3h2.43v.94h-2.43v6.3a1.42,1.42,0,0,0,.22.88,1,1,0,0,0,.81.25h1.17v.94h-1.31a1.92,1.92,0,0,1-1.55-.56,2.25,2.25,0,0,1-.41-1.51V50.9h-2V50h2V47.41Z"/><path class="cls-1" d="M145.76,51.19a5.75,5.75,0,0,1,0,6.86,4.41,4.41,0,0,1-6.59,0A5.22,5.22,0,0,1,138,54.63a5.16,5.16,0,0,1,1.15-3.44,4,4,0,0,1,3.28-1.48A4.09,4.09,0,0,1,145.76,51.19Zm-5.8.68a5,5,0,0,0,0,5.49,3.19,3.19,0,0,0,5,0,4.51,4.51,0,0,0,.83-2.74,4.44,4.44,0,0,0-.83-2.75,3.19,3.19,0,0,0-5,0Z"/><path class="cls-1" d="M157,47v3h2.43v.94H157v6.3a1.41,1.41,0,0,0,.22.88,1,1,0,0,0,.81.25h1.17v.94h-1.31a1.92,1.92,0,0,1-1.55-.56A2.26,2.26,0,0,1,156,57.2V50.9h-2V50h2V47.41Z"/><path class="cls-1" d="M161.11,46.17h1.1v5.49a3.58,3.58,0,0,1,1.3-1.46,3.31,3.31,0,0,1,1.76-.49,3.25,3.25,0,0,1,2.48.94,3.75,3.75,0,0,1,.9,2.68v5.94h-1.08v-5.8a3.07,3.07,0,0,0-.68-2.11,2.57,2.57,0,0,0-1.93-.72,2.51,2.51,0,0,0-2,.94,3.36,3.36,0,0,0-.79,2.3v5.38h-1.1Z"/><path class="cls-1" d="M178,51.21a6.48,6.48,0,0,1,1.06,3.73H171.5a4.39,4.39,0,0,0,.92,2.68,2.93,2.93,0,0,0,2.3,1,3.12,3.12,0,0,0,2.05-.67,3.5,3.5,0,0,0,1-1.64h1.1a4.35,4.35,0,0,1-1.24,2.21,4.15,4.15,0,0,1-2.9,1,4,4,0,0,1-3.13-1.33,5.13,5.13,0,0,1-1.21-3.58,5.2,5.2,0,0,1,1.15-3.44,4.27,4.27,0,0,1,6.46,0Zm-5.51.4a4.09,4.09,0,0,0-1,2.45h6.41q-.27-3.4-3.22-3.4A2.78,2.78,0,0,0,172.49,51.6Z"/><path class="cls-1" d="M194.34,53.55v5.72h-1.08V53.62q0-3-2.65-3a2.45,2.45,0,0,0-1.87.81,3.28,3.28,0,0,0-.88,2.2v5.62h-1.08V50h1.08v1.53a3.79,3.79,0,0,1,1.26-1.31,3.29,3.29,0,0,1,1.76-.47Q194.34,49.71,194.34,53.55Z"/><path class="cls-1" d="M203.68,51.21a6.48,6.48,0,0,1,1.06,3.73h-7.56a4.39,4.39,0,0,0,.92,2.68,2.93,2.93,0,0,0,2.3,1,3.12,3.12,0,0,0,2.05-.67,3.5,3.5,0,0,0,1-1.64h1.1a4.35,4.35,0,0,1-1.24,2.21,4.15,4.15,0,0,1-2.9,1,4,4,0,0,1-3.13-1.33,5.13,5.13,0,0,1-1.21-3.58,5.2,5.2,0,0,1,1.15-3.44,4.27,4.27,0,0,1,6.46,0Zm-5.51.4a4.09,4.09,0,0,0-1,2.45h6.41q-.27-3.4-3.22-3.4A2.78,2.78,0,0,0,198.18,51.6Z"/><path class="cls-1" d="M208.72,47v3h2.43v.94h-2.43v6.3a1.42,1.42,0,0,0,.22.88,1,1,0,0,0,.81.25h1.17v.94h-1.31a1.92,1.92,0,0,1-1.55-.56,2.25,2.25,0,0,1-.41-1.51V50.9h-2V50h2V47.41Z"/><path class="cls-1" d="M211.75,50H213l2.52,7.92L217.81,50h1l2.34,7.92L223.74,50h1.19l-3.19,9.31h-1l-2.34-7.9L216,59.27h-1Z"/><path class="cls-1" d="M233.51,51.19a5.75,5.75,0,0,1,0,6.86,4.41,4.41,0,0,1-6.59,0,5.22,5.22,0,0,1-1.13-3.42,5.15,5.15,0,0,1,1.15-3.44,4,4,0,0,1,3.28-1.48A4.09,4.09,0,0,1,233.51,51.19Zm-5.8.68a5,5,0,0,0,0,5.49,3.19,3.19,0,0,0,5,0,4.51,4.51,0,0,0,.83-2.74,4.44,4.44,0,0,0-.83-2.75,3.19,3.19,0,0,0-5,0Z"/><path class="cls-1" d="M241.81,49.91V51a5,5,0,0,0-1.42-.2,2.3,2.3,0,0,0-2,1.12,4,4,0,0,0-.74,2.43v4.91h-1.08V50h1.08v1.78a3.42,3.42,0,0,1,1-1.39,2.68,2.68,0,0,1,1.8-.65A3.72,3.72,0,0,1,241.81,49.91Z"/><path class="cls-1" d="M243,46.17h1.08v8.5l5.17-4.7h1.48l-4.09,3.69,4.5,5.62h-1.42l-3.85-4.91L244.11,56v3.29H243Z"/><path class="cls-1" d="M258.3,50h1.08v5.69a3.29,3.29,0,0,0,.61,2.18,2.49,2.49,0,0,0,2,.76,2.6,2.6,0,0,0,1.89-.83,3.29,3.29,0,0,0,.92-2.14V50h1.08v9.31h-1.08V57.71a3.41,3.41,0,0,1-3.1,1.82q-3.4,0-3.4-3.82Z"/><path class="cls-1" d="M275,52.57H274a2.2,2.2,0,0,0-.77-1.42,3.7,3.7,0,0,0-3.56-.09,1.3,1.3,0,0,0-.65,1.12,1.28,1.28,0,0,0,.83,1.13,12.56,12.56,0,0,0,2,.65,9.39,9.39,0,0,1,2.41.86,2.1,2.1,0,0,1,1.12,1.87q0,2.83-3.78,2.83-3.58,0-3.91-3.19h1.06a2.54,2.54,0,0,0,.86,1.76,3.23,3.23,0,0,0,1.94.49q2.7,0,2.7-1.84a1.41,1.41,0,0,0-.92-1.29,12.33,12.33,0,0,0-2.07-.65,9,9,0,0,1-2.27-.83,2,2,0,0,1-1.06-1.78,2.1,2.1,0,0,1,1-1.82,4.18,4.18,0,0,1,2.45-.67Q274.62,49.71,275,52.57Z"/><path class="cls-1" d="M278.74,46.89a.76.76,0,0,1,.27.63.9.9,0,0,1-.29.65.94.94,0,0,1-.63.25.89.89,0,0,1-.92-.9.76.76,0,0,1,.27-.63.85.85,0,0,1,.65-.27A.88.88,0,0,1,278.74,46.89ZM277.56,50h1.08v9.31h-1.08Z"/><path class="cls-1" d="M289,53.55v5.72h-1.08V53.62q0-3-2.65-3a2.45,2.45,0,0,0-1.87.81,3.28,3.28,0,0,0-.88,2.2v5.62h-1.08V50h1.08v1.53a3.79,3.79,0,0,1,1.26-1.31,3.29,3.29,0,0,1,1.76-.47Q289,49.71,289,53.55Z"/><path class="cls-1" d="M298.44,51.84V50h1.08v8.62q0,4.5-4.18,4.5a4.48,4.48,0,0,1-2.83-.79,3.39,3.39,0,0,1-1.19-2.23h1.08a2.41,2.41,0,0,0,.86,1.55,3.25,3.25,0,0,0,2.07.58q3.1,0,3.1-3.47V56.93a3.46,3.46,0,0,1-3.33,2.12A3.87,3.87,0,0,1,292,57.67a5.51,5.51,0,0,1,0-6.55,3.85,3.85,0,0,1,3.11-1.4A3.46,3.46,0,0,1,298.44,51.84Zm-5.6-.09a4,4,0,0,0-.83,2.65,4.14,4.14,0,0,0,.77,2.59,2.85,2.85,0,0,0,2.43,1.13A2.92,2.92,0,0,0,297.62,57a4.73,4.73,0,0,0,0-5.29,3.13,3.13,0,0,0-4.79,0Z"/><path class="cls-1" d="M314.62,50.77a3.6,3.6,0,0,1,.83,2.5v6h-1V57.49a4.8,4.8,0,0,1-1.51,1.39,4.7,4.7,0,0,1-2.43.65,3.35,3.35,0,0,1-2.21-.7,2.4,2.4,0,0,1-.85-1.93,2.75,2.75,0,0,1,1.46-2.59,6.29,6.29,0,0,1,3.11-.67l2.38,0v-.34a2.36,2.36,0,0,0-2.7-2.65,3.2,3.2,0,0,0-1.94.52,2.21,2.21,0,0,0-1,1.62H307.7A3.25,3.25,0,0,1,309,50.43a4.56,4.56,0,0,1,2.7-.72A3.67,3.67,0,0,1,314.62,50.77Zm-.25,3.73-2.32,0q-3.53,0-3.53,2.36a1.55,1.55,0,0,0,.59,1.26,2.38,2.38,0,0,0,1.58.49,3.87,3.87,0,0,0,2.59-1,2.76,2.76,0,0,0,1.08-2.07Z"/><path class="cls-1" d="M317.71,50h1.08v5.69a3.29,3.29,0,0,0,.61,2.18,2.49,2.49,0,0,0,2,.76,2.6,2.6,0,0,0,1.89-.83,3.29,3.29,0,0,0,.92-2.14V50h1.08v9.31h-1.08V57.71a3.41,3.41,0,0,1-3.1,1.82q-3.4,0-3.4-3.82Z"/><path class="cls-1" d="M329.81,47v3h2.43v.94h-2.43v6.3a1.41,1.41,0,0,0,.22.88,1,1,0,0,0,.81.25H332v.94h-1.31a1.92,1.92,0,0,1-1.55-.56,2.26,2.26,0,0,1-.41-1.51V50.9h-2V50h2V47.41Z"/><path class="cls-1" d="M341.24,51.19a5.75,5.75,0,0,1,0,6.86,4.41,4.41,0,0,1-6.59,0,5.22,5.22,0,0,1-1.13-3.42,5.15,5.15,0,0,1,1.15-3.44,4,4,0,0,1,3.28-1.48A4.09,4.09,0,0,1,341.24,51.19Zm-5.8.68a5,5,0,0,0,0,5.49,3.19,3.19,0,0,0,5,0,4.51,4.51,0,0,0,.83-2.74,4.44,4.44,0,0,0-.83-2.75,3.19,3.19,0,0,0-5,0Z"/><path class="cls-1" d="M351,51.62a3.62,3.62,0,0,1,1.24-1.42,2.9,2.9,0,0,1,1.69-.49,3.06,3.06,0,0,1,2.34.92,3.67,3.67,0,0,1,.85,2.56v6.08H356V53.33a3,3,0,0,0-.54-2,2.3,2.3,0,0,0-1.85-.7,2.14,2.14,0,0,0-1.69.77,2.72,2.72,0,0,0-.68,1.93v5.92h-1.1V53.33q0-2.68-2.32-2.68a2.15,2.15,0,0,0-1.75.85,3,3,0,0,0-.72,2.05v5.72h-1.08V50h1.08v1.4a3,3,0,0,1,2.7-1.66A2.8,2.8,0,0,1,351,51.62Z"/><path class="cls-1" d="M366.2,50.77a3.6,3.6,0,0,1,.83,2.5v6h-1V57.49a4.82,4.82,0,0,1-1.51,1.39,4.7,4.7,0,0,1-2.43.65,3.35,3.35,0,0,1-2.21-.7,2.4,2.4,0,0,1-.85-1.93,2.75,2.75,0,0,1,1.46-2.59,6.28,6.28,0,0,1,3.11-.67l2.38,0v-.34a2.36,2.36,0,0,0-2.7-2.65,3.2,3.2,0,0,0-1.94.52,2.22,2.22,0,0,0-1,1.62h-1.06a3.25,3.25,0,0,1,1.31-2.34,4.56,4.56,0,0,1,2.7-.72A3.67,3.67,0,0,1,366.2,50.77ZM366,54.5l-2.32,0q-3.53,0-3.53,2.36a1.55,1.55,0,0,0,.59,1.26,2.38,2.38,0,0,0,1.58.49,3.87,3.87,0,0,0,2.59-1A2.76,2.76,0,0,0,366,55.58Z"/><path class="cls-1" d="M371.55,47v3H374v.94h-2.43v6.3a1.41,1.41,0,0,0,.22.88,1,1,0,0,0,.81.25h1.17v.94h-1.31a1.92,1.92,0,0,1-1.55-.56,2.26,2.26,0,0,1-.41-1.51V50.9h-2V50h2V47.41Z"/><path class="cls-1" d="M377.35,46.89a.76.76,0,0,1,.27.63.9.9,0,0,1-.29.65.94.94,0,0,1-.63.25.89.89,0,0,1-.92-.9.76.76,0,0,1,.27-.63.85.85,0,0,1,.65-.27A.88.88,0,0,1,377.35,46.89ZM376.16,50h1.08v9.31h-1.08Z"/><path class="cls-1" d="M386.69,50.52A3.53,3.53,0,0,1,388,53h-1.08a2.65,2.65,0,0,0-.94-1.76,3.12,3.12,0,0,0-2-.59,2.78,2.78,0,0,0-2.34,1.13,4.52,4.52,0,0,0-.85,2.9,4.57,4.57,0,0,0,.81,2.84A2.78,2.78,0,0,0,384,58.59a2.75,2.75,0,0,0,3-2.65H388a4.25,4.25,0,0,1-1.33,2.68,4,4,0,0,1-2.72.9,3.88,3.88,0,0,1-3.2-1.4,5.21,5.21,0,0,1-1.06-3.44,5.4,5.4,0,0,1,1.1-3.49A3.82,3.82,0,0,1,384,49.71,4.31,4.31,0,0,1,386.69,50.52Z"/><path class="cls-1" d="M70.77,85.55v5.72H69.69V85.62q0-3-2.65-3a2.45,2.45,0,0,0-1.87.81,3.28,3.28,0,0,0-.88,2.2v5.62H63.21V82h1.08v1.53a3.79,3.79,0,0,1,1.26-1.31,3.29,3.29,0,0,1,1.76-.47Q70.77,81.71,70.77,85.55Z"/><path class="cls-1" d="M80.4,83.19a5.75,5.75,0,0,1,0,6.86,4.41,4.41,0,0,1-6.59,0,5.22,5.22,0,0,1-1.13-3.42,5.16,5.16,0,0,1,1.15-3.44,4,4,0,0,1,3.28-1.48A4.09,4.09,0,0,1,80.4,83.19Zm-5.8.68a5,5,0,0,0,0,5.49,3.19,3.19,0,0,0,5,0,4.51,4.51,0,0,0,.83-2.74,4.44,4.44,0,0,0-.83-2.75,3.19,3.19,0,0,0-5,0Z"/><path class="cls-1" d="M90.46,78.17h1.08v13.1h-1V89.43a3.34,3.34,0,0,1-3.26,2.09A3.78,3.78,0,0,1,84.1,90a5.53,5.53,0,0,1-1-3.44,5.46,5.46,0,0,1,1-3.4,3.65,3.65,0,0,1,3.1-1.49,3.4,3.4,0,0,1,3.26,2.21Zm-5.51,5.65a4.48,4.48,0,0,0-.77,2.79,4.74,4.74,0,0,0,.76,2.81,2.8,2.8,0,0,0,2.43,1.19,2.76,2.76,0,0,0,2.36-1.15,4.52,4.52,0,0,0,.77-2.7v-.21a4.51,4.51,0,0,0-.83-2.79,2.7,2.7,0,0,0-2.27-1.12A2.85,2.85,0,0,0,84.95,83.82Z"/><path class="cls-1" d="M100.88,83.21a6.48,6.48,0,0,1,1.06,3.73H94.38a4.37,4.37,0,0,0,.92,2.68,2.93,2.93,0,0,0,2.3,1,3.12,3.12,0,0,0,2.05-.67,3.48,3.48,0,0,0,1-1.64h1.1a4.36,4.36,0,0,1-1.24,2.21,4.15,4.15,0,0,1-2.9,1,4,4,0,0,1-3.13-1.33,5.13,5.13,0,0,1-1.21-3.58,5.2,5.2,0,0,1,1.15-3.44,4.27,4.27,0,0,1,6.46,0Zm-5.51.4a4.09,4.09,0,0,0-1,2.45h6.41q-.27-3.4-3.22-3.4A2.78,2.78,0,0,0,95.37,83.6Z"/><path class="cls-1" d="M110.55,84.57h-1.06a2.2,2.2,0,0,0-.77-1.42,3.7,3.7,0,0,0-3.56-.09,1.23,1.23,0,0,0,.18,2.25,12.63,12.63,0,0,0,2,.65,9.36,9.36,0,0,1,2.41.86,2.1,2.1,0,0,1,1.12,1.87q0,2.83-3.78,2.83-3.58,0-3.91-3.19h1.06a2.53,2.53,0,0,0,.86,1.76,3.23,3.23,0,0,0,1.94.49q2.7,0,2.7-1.84a1.4,1.4,0,0,0-.92-1.29,12.26,12.26,0,0,0-2.07-.65,9,9,0,0,1-2.27-.83,2,2,0,0,1-1.06-1.78,2.1,2.1,0,0,1,1-1.82,4.18,4.18,0,0,1,2.45-.67Q110.15,81.71,110.55,84.57Z"/><path class="cls-1" d="M125.38,82.77a3.6,3.6,0,0,1,.83,2.5v6h-1V89.49a4.8,4.8,0,0,1-1.51,1.39,4.7,4.7,0,0,1-2.43.65,3.35,3.35,0,0,1-2.21-.7,2.4,2.4,0,0,1-.85-1.93,2.75,2.75,0,0,1,1.46-2.59,6.29,6.29,0,0,1,3.11-.67l2.38,0v-.34a2.36,2.36,0,0,0-2.7-2.65,3.2,3.2,0,0,0-1.94.52,2.21,2.21,0,0,0-1,1.62h-1.06a3.25,3.25,0,0,1,1.31-2.34,4.56,4.56,0,0,1,2.7-.72A3.67,3.67,0,0,1,125.38,82.77Zm-.25,3.73-2.32,0q-3.53,0-3.53,2.36a1.55,1.55,0,0,0,.59,1.26,2.38,2.38,0,0,0,1.58.49,3.87,3.87,0,0,0,2.59-1,2.76,2.76,0,0,0,1.08-2.07Z"/><path class="cls-1" d="M136,85.55v5.72H135V85.62q0-3-2.65-3a2.45,2.45,0,0,0-1.87.81,3.28,3.28,0,0,0-.88,2.2v5.62h-1.08V82h1.08v1.53a3.79,3.79,0,0,1,1.26-1.31,3.29,3.29,0,0,1,1.76-.47Q136,81.71,136,85.55Z"/><path class="cls-1" d="M145.32,78.17h1.08v13.1h-1V89.43a3.34,3.34,0,0,1-3.26,2.09A3.78,3.78,0,0,1,139,90a5.53,5.53,0,0,1-1-3.44,5.46,5.46,0,0,1,1-3.4,3.65,3.65,0,0,1,3.1-1.49,3.4,3.4,0,0,1,3.26,2.21Zm-5.51,5.65a4.48,4.48,0,0,0-.77,2.79,4.74,4.74,0,0,0,.76,2.81,2.8,2.8,0,0,0,2.43,1.19,2.76,2.76,0,0,0,2.36-1.15,4.52,4.52,0,0,0,.77-2.7v-.21a4.51,4.51,0,0,0-.83-2.79,2.7,2.7,0,0,0-2.27-1.12A2.85,2.85,0,0,0,139.81,83.82Z"/><path class="cls-1" d="M159.92,81.91V83a5,5,0,0,0-1.42-.2,2.3,2.3,0,0,0-2,1.12,4,4,0,0,0-.74,2.43v4.91h-1.08V82h1.08v1.78a3.41,3.41,0,0,1,1-1.39,2.68,2.68,0,0,1,1.8-.65A3.71,3.71,0,0,1,159.92,81.91Z"/><path class="cls-1" d="M168.22,83.21a6.48,6.48,0,0,1,1.06,3.73h-7.56a4.39,4.39,0,0,0,.92,2.68,2.93,2.93,0,0,0,2.3,1,3.12,3.12,0,0,0,2.05-.67,3.5,3.5,0,0,0,1-1.64h1.1a4.35,4.35,0,0,1-1.24,2.21,4.15,4.15,0,0,1-2.9,1,4,4,0,0,1-3.13-1.33,5.13,5.13,0,0,1-1.21-3.58,5.2,5.2,0,0,1,1.15-3.44,4.27,4.27,0,0,1,6.46,0Zm-5.51.4a4.09,4.09,0,0,0-1,2.45h6.41q-.27-3.4-3.22-3.4A2.78,2.78,0,0,0,162.71,83.6Z"/><path class="cls-1" d="M177.85,82.77a3.6,3.6,0,0,1,.83,2.5v6h-1V89.49a4.8,4.8,0,0,1-1.51,1.39,4.7,4.7,0,0,1-2.43.65,3.35,3.35,0,0,1-2.21-.7,2.4,2.4,0,0,1-.85-1.93,2.75,2.75,0,0,1,1.46-2.59,6.29,6.29,0,0,1,3.11-.67l2.38,0v-.34a2.36,2.36,0,0,0-2.7-2.65,3.2,3.2,0,0,0-1.94.52,2.21,2.21,0,0,0-1,1.62h-1.06a3.25,3.25,0,0,1,1.31-2.34,4.56,4.56,0,0,1,2.7-.72A3.67,3.67,0,0,1,177.85,82.77Zm-.25,3.73-2.32,0q-3.53,0-3.53,2.36a1.55,1.55,0,0,0,.59,1.26,2.38,2.38,0,0,0,1.58.49,3.87,3.87,0,0,0,2.59-1,2.76,2.76,0,0,0,1.08-2.07Z"/><path class="cls-1" d="M181.28,78.17h1.08v13.1h-1.08Z"/><path class="cls-1" d="M186.7,78.89a.76.76,0,0,1,.27.63.9.9,0,0,1-.29.65.94.94,0,0,1-.63.25.89.89,0,0,1-.92-.9.76.76,0,0,1,.27-.63.85.85,0,0,1,.65-.27A.88.88,0,0,1,186.7,78.89ZM185.51,82h1.08v9.31h-1.08Z"/><path class="cls-1" d="M188.9,82h7.22v.83l-6,7.54h6.3v.94h-7.69v-.85l6-7.52H188.9Z"/><path class="cls-1" d="M205.06,83.21a6.48,6.48,0,0,1,1.06,3.73h-7.56a4.37,4.37,0,0,0,.92,2.68,2.93,2.93,0,0,0,2.3,1,3.12,3.12,0,0,0,2.05-.67,3.48,3.48,0,0,0,1-1.64h1.1a4.36,4.36,0,0,1-1.24,2.21,4.15,4.15,0,0,1-2.9,1,4,4,0,0,1-3.13-1.33,5.13,5.13,0,0,1-1.21-3.58,5.2,5.2,0,0,1,1.15-3.44,4.27,4.27,0,0,1,6.46,0Zm-5.51.4a4.09,4.09,0,0,0-1,2.45H205q-.27-3.4-3.22-3.4A2.78,2.78,0,0,0,199.55,83.6Z"/><path class="cls-1" d="M219.1,81.91V83a5,5,0,0,0-1.42-.2,2.3,2.3,0,0,0-2,1.12,4,4,0,0,0-.74,2.43v4.91h-1.08V82h1.08v1.78a3.41,3.41,0,0,1,1-1.39,2.68,2.68,0,0,1,1.8-.65A3.71,3.71,0,0,1,219.1,81.91Z"/><path class="cls-1" d="M227.4,83.21a6.48,6.48,0,0,1,1.06,3.73H220.9a4.39,4.39,0,0,0,.92,2.68,2.93,2.93,0,0,0,2.3,1,3.12,3.12,0,0,0,2.05-.67,3.5,3.5,0,0,0,1-1.64h1.1A4.35,4.35,0,0,1,227,90.5a4.15,4.15,0,0,1-2.9,1A4,4,0,0,1,221,90.19a5.13,5.13,0,0,1-1.21-3.58,5.2,5.2,0,0,1,1.15-3.44,4.27,4.27,0,0,1,6.46,0Zm-5.51.4a4.09,4.09,0,0,0-1,2.45h6.41q-.27-3.4-3.22-3.4A2.78,2.78,0,0,0,221.89,83.6Z"/><path class="cls-1" d="M237,82.77a3.6,3.6,0,0,1,.83,2.5v6h-1V89.49a4.8,4.8,0,0,1-1.51,1.39,4.7,4.7,0,0,1-2.43.65,3.35,3.35,0,0,1-2.21-.7,2.4,2.4,0,0,1-.85-1.93,2.75,2.75,0,0,1,1.46-2.59,6.29,6.29,0,0,1,3.11-.67l2.38,0v-.34a2.36,2.36,0,0,0-2.7-2.65,3.2,3.2,0,0,0-1.94.52,2.21,2.21,0,0,0-1,1.62h-1.06a3.25,3.25,0,0,1,1.31-2.34,4.56,4.56,0,0,1,2.7-.72A3.67,3.67,0,0,1,237,82.77Zm-.25,3.73-2.32,0q-3.53,0-3.53,2.36a1.55,1.55,0,0,0,.59,1.26,2.38,2.38,0,0,0,1.58.49,3.87,3.87,0,0,0,2.59-1,2.76,2.76,0,0,0,1.08-2.07Z"/><path class="cls-1" d="M240.47,78.17h1.08v13.1h-1.08Z"/><path class="cls-1" d="M243.92,86.14H253v.94h-9.09Z"/><path class="cls-1" d="M257.3,79v3h2.43v.94H257.3v6.3a1.42,1.42,0,0,0,.22.88,1,1,0,0,0,.81.25h1.17v.94h-1.31a1.92,1.92,0,0,1-1.55-.56,2.25,2.25,0,0,1-.41-1.51V82.9h-2V82h2V79.41Z"/><path class="cls-1" d="M263.09,78.89a.76.76,0,0,1,.27.63.89.89,0,0,1-.29.65.94.94,0,0,1-.63.25.89.89,0,0,1-.92-.9.76.76,0,0,1,.27-.63.85.85,0,0,1,.65-.27A.89.89,0,0,1,263.09,78.89ZM261.9,82H263v9.31H261.9Z"/><path class="cls-1" d="M272.49,83.62a3.62,3.62,0,0,1,1.24-1.42,2.9,2.9,0,0,1,1.69-.49,3.06,3.06,0,0,1,2.34.92,3.67,3.67,0,0,1,.85,2.56v6.08h-1.08V85.33a3,3,0,0,0-.54-2,2.3,2.3,0,0,0-1.85-.7,2.14,2.14,0,0,0-1.69.77,2.72,2.72,0,0,0-.68,1.93v5.92h-1.1V85.33q0-2.68-2.32-2.68a2.15,2.15,0,0,0-1.75.85,3,3,0,0,0-.72,2.05v5.72h-1.08V82h1.08v1.4a3,3,0,0,1,2.7-1.66A2.8,2.8,0,0,1,272.49,83.62Z"/><path class="cls-1" d="M287.95,83.21A6.48,6.48,0,0,1,289,86.93h-7.56a4.39,4.39,0,0,0,.92,2.68,2.93,2.93,0,0,0,2.3,1,3.12,3.12,0,0,0,2.05-.67,3.5,3.5,0,0,0,1-1.64h1.1a4.35,4.35,0,0,1-1.24,2.21,4.15,4.15,0,0,1-2.9,1,4,4,0,0,1-3.13-1.33,5.13,5.13,0,0,1-1.21-3.58,5.2,5.2,0,0,1,1.15-3.44,4.27,4.27,0,0,1,6.46,0Zm-5.51.4a4.09,4.09,0,0,0-1,2.45h6.41q-.27-3.4-3.22-3.4A2.78,2.78,0,0,0,282.44,83.6Z"/><path class="cls-1" d="M303.38,82.52A3.53,3.53,0,0,1,304.65,85h-1.08a2.65,2.65,0,0,0-.94-1.76,3.12,3.12,0,0,0-2-.59,2.78,2.78,0,0,0-2.34,1.13,4.52,4.52,0,0,0-.85,2.9,4.57,4.57,0,0,0,.81,2.84,2.78,2.78,0,0,0,2.36,1.06,2.75,2.75,0,0,0,3-2.65h1.06a4.25,4.25,0,0,1-1.33,2.68,4,4,0,0,1-2.72.9,3.88,3.88,0,0,1-3.2-1.4,5.21,5.21,0,0,1-1.06-3.44,5.4,5.4,0,0,1,1.1-3.49,3.82,3.82,0,0,1,3.19-1.48A4.31,4.31,0,0,1,303.38,82.52Z"/><path class="cls-1" d="M313.78,83.19a5.75,5.75,0,0,1,0,6.86,4.41,4.41,0,0,1-6.59,0,5.22,5.22,0,0,1-1.13-3.42,5.16,5.16,0,0,1,1.15-3.44,4,4,0,0,1,3.28-1.48A4.09,4.09,0,0,1,313.78,83.19Zm-5.8.68a5,5,0,0,0,0,5.49,3.19,3.19,0,0,0,5,0,4.51,4.51,0,0,0,.83-2.74,4.44,4.44,0,0,0-.83-2.75,3.19,3.19,0,0,0-5,0Z"/><path class="cls-1" d="M324.38,85.55v5.72H323.3V85.62q0-3-2.65-3a2.45,2.45,0,0,0-1.87.81,3.28,3.28,0,0,0-.88,2.2v5.62h-1.08V82h1.08v1.53a3.78,3.78,0,0,1,1.26-1.31,3.29,3.29,0,0,1,1.76-.47Q324.38,81.71,324.38,85.55Z"/><path class="cls-1" d="M334.21,85.55v5.72h-1.08V85.62q0-3-2.65-3a2.45,2.45,0,0,0-1.87.81,3.28,3.28,0,0,0-.88,2.2v5.62h-1.08V82h1.08v1.53A3.78,3.78,0,0,1,329,82.18a3.29,3.29,0,0,1,1.76-.47Q334.21,81.71,334.21,85.55Z"/><path class="cls-1" d="M343.55,83.21a6.48,6.48,0,0,1,1.06,3.73h-7.56a4.37,4.37,0,0,0,.92,2.68,2.93,2.93,0,0,0,2.3,1,3.12,3.12,0,0,0,2.05-.67,3.48,3.48,0,0,0,1-1.64h1.1a4.36,4.36,0,0,1-1.24,2.21,4.15,4.15,0,0,1-2.9,1,4,4,0,0,1-3.13-1.33,5.13,5.13,0,0,1-1.21-3.58,5.2,5.2,0,0,1,1.15-3.44,4.27,4.27,0,0,1,6.46,0Zm-5.51.4a4.09,4.09,0,0,0-1,2.45h6.41q-.27-3.4-3.22-3.4A2.78,2.78,0,0,0,338,83.6Z"/><path class="cls-1" d="M353,82.52A3.53,3.53,0,0,1,354.26,85h-1.08a2.65,2.65,0,0,0-.94-1.76,3.11,3.11,0,0,0-2-.59,2.79,2.79,0,0,0-2.34,1.13,5.39,5.39,0,0,0,0,5.74,2.78,2.78,0,0,0,2.36,1.06,2.75,2.75,0,0,0,3-2.65h1.06A4.25,4.25,0,0,1,353,90.62a4,4,0,0,1-2.72.9,3.89,3.89,0,0,1-3.2-1.4A5.21,5.21,0,0,1,346,86.68a5.41,5.41,0,0,1,1.1-3.49,3.82,3.82,0,0,1,3.19-1.48A4.31,4.31,0,0,1,353,82.52Z"/><path class="cls-1" d="M358.28,79v3h2.43v.94h-2.43v6.3a1.42,1.42,0,0,0,.22.88,1,1,0,0,0,.81.25h1.17v.94h-1.31a1.92,1.92,0,0,1-1.55-.56,2.25,2.25,0,0,1-.41-1.51V82.9h-2V82h2V79.41Z"/><path class="cls-1" d="M364.07,78.89a.76.76,0,0,1,.27.63.89.89,0,0,1-.29.65.94.94,0,0,1-.63.25.89.89,0,0,1-.92-.9.76.76,0,0,1,.27-.63.85.85,0,0,1,.65-.27A.89.89,0,0,1,364.07,78.89ZM362.88,82H364v9.31h-1.08Z"/><path class="cls-1" d="M374.13,83.19a5.75,5.75,0,0,1,0,6.86,4.41,4.41,0,0,1-6.59,0,5.22,5.22,0,0,1-1.13-3.42,5.16,5.16,0,0,1,1.15-3.44,4,4,0,0,1,3.28-1.48A4.09,4.09,0,0,1,374.13,83.19Zm-5.8.68a5,5,0,0,0,0,5.49,3.19,3.19,0,0,0,5,0,4.51,4.51,0,0,0,.83-2.74,4.44,4.44,0,0,0-.83-2.75,3.19,3.19,0,0,0-5,0Z"/><path class="cls-1" d="M384.73,85.55v5.72h-1.08V85.62q0-3-2.65-3a2.45,2.45,0,0,0-1.87.81,3.28,3.28,0,0,0-.88,2.2v5.62h-1.08V82h1.08v1.53a3.79,3.79,0,0,1,1.26-1.31,3.29,3.29,0,0,1,1.76-.47Q384.74,81.71,384.73,85.55Z"/><path class="cls-1" d="M61,110.17h1.08v5.76a3.41,3.41,0,0,1,3.26-2.21,3.65,3.65,0,0,1,3.1,1.49,5.46,5.46,0,0,1,1,3.4,5.53,5.53,0,0,1-1,3.44,3.76,3.76,0,0,1-3.13,1.48A3.34,3.34,0,0,1,62,121.43v1.84H61Zm1.87,5.58a4.42,4.42,0,0,0-.83,2.79v.21a4.42,4.42,0,0,0,.77,2.7,2.73,2.73,0,0,0,2.36,1.15,2.83,2.83,0,0,0,2.43-1.19,4.74,4.74,0,0,0,.76-2.81,4.58,4.58,0,0,0-.77-2.79,2.85,2.85,0,0,0-2.45-1.19A2.67,2.67,0,0,0,62.86,115.75Z"/><path class="cls-1" d="M78.43,115.21a6.48,6.48,0,0,1,1.06,3.73H71.94a4.37,4.37,0,0,0,.92,2.68,2.93,2.93,0,0,0,2.3,1,3.12,3.12,0,0,0,2.05-.67,3.48,3.48,0,0,0,1-1.64h1.1a4.36,4.36,0,0,1-1.24,2.21,4.15,4.15,0,0,1-2.9,1A4,4,0,0,1,72,122.19a5.13,5.13,0,0,1-1.21-3.58A5.2,5.2,0,0,1,72,115.17a4.27,4.27,0,0,1,6.46,0Zm-5.51.4a4.09,4.09,0,0,0-1,2.45h6.41q-.27-3.4-3.22-3.4A2.78,2.78,0,0,0,72.93,115.6Z"/><path class="cls-1" d="M83.47,111v3H85.9v.94H83.47v6.3a1.41,1.41,0,0,0,.22.88,1,1,0,0,0,.81.25h1.17v.94H84.36a1.92,1.92,0,0,1-1.55-.56,2.26,2.26,0,0,1-.41-1.51v-6.3h-2V114h2v-2.56Z"/><path class="cls-1" d="M86.5,114H87.7l2.52,7.92L92.56,114h1l2.34,7.92L98.49,114h1.19l-3.19,9.31h-1l-2.34-7.9-2.38,7.9h-1Z"/><path class="cls-1" d="M108,115.21a6.48,6.48,0,0,1,1.06,3.73h-7.56a4.39,4.39,0,0,0,.92,2.68,2.93,2.93,0,0,0,2.3,1,3.12,3.12,0,0,0,2.05-.67,3.5,3.5,0,0,0,1-1.64h1.1a4.35,4.35,0,0,1-1.24,2.21,4.15,4.15,0,0,1-2.9,1,4,4,0,0,1-3.13-1.33,5.13,5.13,0,0,1-1.21-3.58,5.2,5.2,0,0,1,1.15-3.44,4.27,4.27,0,0,1,6.46,0Zm-5.51.4a4.09,4.09,0,0,0-1,2.45h6.41q-.27-3.4-3.22-3.4A2.78,2.78,0,0,0,102.46,115.6Z"/><path class="cls-1" d="M117.84,115.21a6.48,6.48,0,0,1,1.06,3.73h-7.56a4.37,4.37,0,0,0,.92,2.68,2.93,2.93,0,0,0,2.3,1,3.12,3.12,0,0,0,2.05-.67,3.48,3.48,0,0,0,1-1.64h1.1a4.36,4.36,0,0,1-1.24,2.21,4.15,4.15,0,0,1-2.9,1,4,4,0,0,1-3.13-1.33,5.13,5.13,0,0,1-1.21-3.58,5.2,5.2,0,0,1,1.15-3.44,4.27,4.27,0,0,1,6.46,0Zm-5.51.4a4.09,4.09,0,0,0-1,2.45h6.41q-.27-3.4-3.22-3.4A2.78,2.78,0,0,0,112.33,115.6Z"/><path class="cls-1" d="M128.19,117.55v5.72h-1.08v-5.65q0-3-2.65-3a2.45,2.45,0,0,0-1.87.81,3.28,3.28,0,0,0-.88,2.2v5.62h-1.08V114h1.08v1.53a3.78,3.78,0,0,1,1.26-1.31,3.29,3.29,0,0,1,1.76-.47Q128.18,113.71,128.19,117.55Z"/><path class="cls-1" d="M144,117.55v5.72h-1.08v-5.65q0-3-2.65-3a2.45,2.45,0,0,0-1.87.81,3.28,3.28,0,0,0-.88,2.2v5.62h-1.08V114h1.08v1.53a3.79,3.79,0,0,1,1.26-1.31,3.29,3.29,0,0,1,1.76-.47Q144,113.71,144,117.55Z"/><path class="cls-1" d="M153.64,115.19a5.75,5.75,0,0,1,0,6.86,4.41,4.41,0,0,1-6.59,0,5.22,5.22,0,0,1-1.13-3.42,5.16,5.16,0,0,1,1.15-3.44,4,4,0,0,1,3.28-1.48A4.09,4.09,0,0,1,153.64,115.19Zm-5.8.68a5,5,0,0,0,0,5.49,3.19,3.19,0,0,0,5,0,4.51,4.51,0,0,0,.83-2.74,4.44,4.44,0,0,0-.83-2.75,3.19,3.19,0,0,0-5,0Z"/><path class="cls-1" d="M163.7,110.17h1.08v13.1h-1v-1.84a3.34,3.34,0,0,1-3.26,2.09,3.78,3.78,0,0,1-3.15-1.48,5.53,5.53,0,0,1-1-3.44,5.46,5.46,0,0,1,1-3.4,3.65,3.65,0,0,1,3.1-1.49,3.4,3.4,0,0,1,3.26,2.21Zm-5.51,5.65a4.48,4.48,0,0,0-.77,2.79,4.74,4.74,0,0,0,.76,2.81,2.8,2.8,0,0,0,2.43,1.19,2.76,2.76,0,0,0,2.36-1.15,4.52,4.52,0,0,0,.77-2.7v-.21a4.51,4.51,0,0,0-.83-2.79,2.7,2.7,0,0,0-2.27-1.12A2.85,2.85,0,0,0,158.19,115.82Z"/><path class="cls-1" d="M174.12,115.21a6.48,6.48,0,0,1,1.06,3.73h-7.56a4.37,4.37,0,0,0,.92,2.68,2.93,2.93,0,0,0,2.3,1,3.12,3.12,0,0,0,2.05-.67,3.48,3.48,0,0,0,1-1.64H175a4.36,4.36,0,0,1-1.24,2.21,4.15,4.15,0,0,1-2.9,1,4,4,0,0,1-3.13-1.33,5.13,5.13,0,0,1-1.21-3.58,5.2,5.2,0,0,1,1.15-3.44,4.27,4.27,0,0,1,6.46,0Zm-5.51.4a4.09,4.09,0,0,0-1,2.45H174q-.27-3.4-3.22-3.4A2.78,2.78,0,0,0,168.61,115.6Z"/><path class="cls-1" d="M183.79,116.57h-1.06a2.2,2.2,0,0,0-.77-1.42,3.7,3.7,0,0,0-3.56-.09,1.23,1.23,0,0,0,.18,2.25,12.63,12.63,0,0,0,2,.65,9.36,9.36,0,0,1,2.41.86,2.1,2.1,0,0,1,1.12,1.87q0,2.83-3.78,2.83-3.58,0-3.91-3.19h1.06a2.53,2.53,0,0,0,.86,1.76,3.23,3.23,0,0,0,1.94.49q2.7,0,2.7-1.84a1.4,1.4,0,0,0-.92-1.29,12.26,12.26,0,0,0-2.07-.65,9,9,0,0,1-2.27-.83,2,2,0,0,1-1.06-1.78,2.1,2.1,0,0,1,1-1.82,4.18,4.18,0,0,1,2.45-.67Q183.39,113.71,183.79,116.57Z"/><path class="cls-1" d="M187.62,121.72a.81.81,0,0,1,.27.65.89.89,0,0,1-.29.65.94.94,0,0,1-.63.25.85.85,0,0,1-.65-.27.86.86,0,0,1-.27-.63.81.81,0,0,1,.27-.65.84.84,0,0,1,.65-.25A.88.88,0,0,1,187.62,121.72Z"/><path class="cls-1" d="M196.6,110.42h1.1v7.88a4.61,4.61,0,0,0,.9,3.11,4.6,4.6,0,0,0,6,0,4.7,4.7,0,0,0,.9-3.11v-7.88h1.1v7.88a5.57,5.57,0,0,1-1.21,3.83,5.9,5.9,0,0,1-7.58,0,5.49,5.49,0,0,1-1.22-3.85Z"/><path class="cls-1" d="M215.93,116.57h-1.06a2.2,2.2,0,0,0-.77-1.42,3.7,3.7,0,0,0-3.56-.09,1.23,1.23,0,0,0,.18,2.25,12.63,12.63,0,0,0,2,.65,9.36,9.36,0,0,1,2.41.86,2.1,2.1,0,0,1,1.12,1.87q0,2.83-3.78,2.83-3.58,0-3.91-3.19h1.06a2.53,2.53,0,0,0,.86,1.76,3.23,3.23,0,0,0,1.94.49q2.7,0,2.7-1.84a1.4,1.4,0,0,0-.92-1.29,12.26,12.26,0,0,0-2.07-.65,9,9,0,0,1-2.27-.83,2,2,0,0,1-1.06-1.78,2.1,2.1,0,0,1,1-1.82,4.18,4.18,0,0,1,2.45-.67Q215.54,113.71,215.93,116.57Z"/><path class="cls-1" d="M225,115.21a6.48,6.48,0,0,1,1.06,3.73h-7.56a4.39,4.39,0,0,0,.92,2.68,2.93,2.93,0,0,0,2.3,1,3.12,3.12,0,0,0,2.05-.67,3.5,3.5,0,0,0,1-1.64h1.1a4.35,4.35,0,0,1-1.24,2.21,4.15,4.15,0,0,1-2.9,1,4,4,0,0,1-3.13-1.33,5.13,5.13,0,0,1-1.21-3.58,5.2,5.2,0,0,1,1.15-3.44,4.27,4.27,0,0,1,6.46,0Zm-5.51.4a4.09,4.09,0,0,0-1,2.45h6.41q-.27-3.4-3.22-3.4A2.78,2.78,0,0,0,219.5,115.6Z"/><path class="cls-1" d="M233.05,113.91V115a5,5,0,0,0-1.42-.2,2.3,2.3,0,0,0-2,1.12,4,4,0,0,0-.74,2.43v4.91H227.8V114h1.08v1.78a3.41,3.41,0,0,1,1-1.39,2.68,2.68,0,0,1,1.8-.65A3.71,3.71,0,0,1,233.05,113.91Z"/><path class="cls-1" d="M242,110.89a.76.76,0,0,1,.27.63.9.9,0,0,1-.29.65.94.94,0,0,1-.63.25.89.89,0,0,1-.92-.9.76.76,0,0,1,.27-.63.85.85,0,0,1,.65-.27A.88.88,0,0,1,242,110.89ZM240.81,114h1.08v9.31h-1.08Z"/><path class="cls-1" d="M252.26,117.55v5.72h-1.08v-5.65q0-3-2.65-3a2.45,2.45,0,0,0-1.87.81,3.28,3.28,0,0,0-.88,2.2v5.62H244.7V114h1.08v1.53a3.79,3.79,0,0,1,1.26-1.31,3.29,3.29,0,0,1,1.76-.47Q252.26,113.71,252.26,117.55Z"/><path class="cls-1" d="M260,110.42v1h-1.57a1.28,1.28,0,0,0-1,.36,1.65,1.65,0,0,0-.32,1.15V114h2.79v.94H257v8.37H256V114.9h-2.48V114H256v-1.1a2.47,2.47,0,0,1,.58-1.78,2.24,2.24,0,0,1,1.76-.67Z"/><path class="cls-1" d="M268.55,115.19a5.75,5.75,0,0,1,0,6.86,4.41,4.41,0,0,1-6.59,0,5.22,5.22,0,0,1-1.13-3.42,5.16,5.16,0,0,1,1.15-3.44,4,4,0,0,1,3.28-1.48A4.09,4.09,0,0,1,268.55,115.19Zm-5.8.68a5,5,0,0,0,0,5.49,3.19,3.19,0,0,0,5,0,4.51,4.51,0,0,0,.83-2.74,4.44,4.44,0,0,0-.83-2.75,3.19,3.19,0,0,0-5,0Z"/><path class="cls-1" d="M276.84,113.91V115a5,5,0,0,0-1.42-.2,2.3,2.3,0,0,0-2,1.12,4,4,0,0,0-.74,2.43v4.91h-1.08V114h1.08v1.78a3.41,3.41,0,0,1,1-1.39,2.68,2.68,0,0,1,1.8-.65A3.71,3.71,0,0,1,276.84,113.91Z"/><path class="cls-1" d="M284.76,115.62A3.61,3.61,0,0,1,286,114.2a2.9,2.9,0,0,1,1.69-.49,3.06,3.06,0,0,1,2.34.92,3.67,3.67,0,0,1,.85,2.56v6.08H289.8v-5.94a3.05,3.05,0,0,0-.54-2,2.3,2.3,0,0,0-1.85-.7,2.13,2.13,0,0,0-1.69.77,2.72,2.72,0,0,0-.68,1.93v5.92h-1.1v-5.94q0-2.68-2.32-2.68a2.15,2.15,0,0,0-1.75.85,3,3,0,0,0-.72,2.05v5.72h-1.08V114h1.08v1.4a3,3,0,0,1,2.7-1.66A2.81,2.81,0,0,1,284.76,115.62Z"/><path class="cls-1" d="M300,114.77a3.6,3.6,0,0,1,.83,2.5v6h-1v-1.78a4.8,4.8,0,0,1-1.51,1.39,4.7,4.7,0,0,1-2.43.65,3.35,3.35,0,0,1-2.21-.7,2.4,2.4,0,0,1-.85-1.93,2.75,2.75,0,0,1,1.46-2.59,6.29,6.29,0,0,1,3.11-.67l2.38,0v-.34a2.36,2.36,0,0,0-2.7-2.65,3.2,3.2,0,0,0-1.94.52,2.21,2.21,0,0,0-1,1.62h-1.06a3.25,3.25,0,0,1,1.31-2.34,4.56,4.56,0,0,1,2.7-.72A3.67,3.67,0,0,1,300,114.77Zm-.25,3.73-2.32,0q-3.53,0-3.53,2.36a1.55,1.55,0,0,0,.59,1.26,2.38,2.38,0,0,0,1.58.49,3.87,3.87,0,0,0,2.59-1,2.76,2.76,0,0,0,1.08-2.07Z"/><path class="cls-1" d="M305.34,111v3h2.43v.94h-2.43v6.3a1.41,1.41,0,0,0,.22.88,1,1,0,0,0,.81.25h1.17v.94h-1.31a1.92,1.92,0,0,1-1.55-.56,2.26,2.26,0,0,1-.41-1.51v-6.3h-2V114h2v-2.56Z"/><path class="cls-1" d="M311.13,110.89a.76.76,0,0,1,.27.63.9.9,0,0,1-.29.65.94.94,0,0,1-.63.25.89.89,0,0,1-.92-.9.76.76,0,0,1,.27-.63.85.85,0,0,1,.65-.27A.88.88,0,0,1,311.13,110.89ZM309.95,114H311v9.31h-1.08Z"/><path class="cls-1" d="M321.2,115.19a5.75,5.75,0,0,1,0,6.86,4.41,4.41,0,0,1-6.59,0,5.22,5.22,0,0,1-1.13-3.42,5.15,5.15,0,0,1,1.15-3.44,4,4,0,0,1,3.28-1.48A4.09,4.09,0,0,1,321.2,115.19Zm-5.8.68a5,5,0,0,0,0,5.49,3.19,3.19,0,0,0,5,0,4.51,4.51,0,0,0,.83-2.74,4.44,4.44,0,0,0-.83-2.75,3.19,3.19,0,0,0-5,0Z"/><path class="cls-1" d="M331.8,117.55v5.72h-1.08v-5.65q0-3-2.65-3a2.45,2.45,0,0,0-1.87.81,3.28,3.28,0,0,0-.88,2.2v5.62h-1.08V114h1.08v1.53a3.78,3.78,0,0,1,1.26-1.31,3.29,3.29,0,0,1,1.76-.47Q331.8,113.71,331.8,117.55Z"/><path class="cls-1" d="M341.79,110.89a.76.76,0,0,1,.27.63.9.9,0,0,1-.29.65.94.94,0,0,1-.63.25.89.89,0,0,1-.92-.9.76.76,0,0,1,.27-.63.85.85,0,0,1,.65-.27A.88.88,0,0,1,341.79,110.89ZM340.6,114h1.08v9.31H340.6Z"/><path class="cls-1" d="M351.36,116.57H350.3a2.2,2.2,0,0,0-.77-1.42,3.7,3.7,0,0,0-3.56-.09,1.3,1.3,0,0,0-.65,1.12,1.28,1.28,0,0,0,.83,1.13,12.56,12.56,0,0,0,2,.65,9.39,9.39,0,0,1,2.41.86,2.1,2.1,0,0,1,1.12,1.87q0,2.83-3.78,2.83-3.58,0-3.91-3.19H345a2.54,2.54,0,0,0,.86,1.76,3.23,3.23,0,0,0,1.94.49q2.7,0,2.7-1.84a1.41,1.41,0,0,0-.92-1.29,12.33,12.33,0,0,0-2.07-.65,9,9,0,0,1-2.27-.83,2,2,0,0,1-1.06-1.78,2.1,2.1,0,0,1,1-1.82,4.18,4.18,0,0,1,2.45-.67Q351,113.71,351.36,116.57Z"/><path class="cls-1" d="M366.43,115.21a6.48,6.48,0,0,1,1.06,3.73h-7.56a4.39,4.39,0,0,0,.92,2.68,2.93,2.93,0,0,0,2.3,1,3.12,3.12,0,0,0,2.05-.67,3.5,3.5,0,0,0,1-1.64h1.1a4.35,4.35,0,0,1-1.24,2.21,4.15,4.15,0,0,1-2.9,1,4,4,0,0,1-3.13-1.33,5.13,5.13,0,0,1-1.21-3.58,5.2,5.2,0,0,1,1.15-3.44,4.27,4.27,0,0,1,6.46,0Zm-5.51.4a4.09,4.09,0,0,0-1,2.45h6.41q-.27-3.4-3.22-3.4A2.78,2.78,0,0,0,360.92,115.6Z"/><path class="cls-1" d="M376.78,117.55v5.72H375.7v-5.65q0-3-2.65-3a2.45,2.45,0,0,0-1.87.81,3.28,3.28,0,0,0-.88,2.2v5.62h-1.08V114h1.08v1.53a3.79,3.79,0,0,1,1.26-1.31,3.29,3.29,0,0,1,1.76-.47Q376.78,113.71,376.78,117.55Z"/><path class="cls-1" d="M385.69,114.52A3.53,3.53,0,0,1,387,117h-1.08a2.65,2.65,0,0,0-.94-1.76,3.11,3.11,0,0,0-2-.59,2.79,2.79,0,0,0-2.34,1.13,5.39,5.39,0,0,0,0,5.74,2.78,2.78,0,0,0,2.36,1.06,2.75,2.75,0,0,0,3-2.65H387a4.25,4.25,0,0,1-1.33,2.68,4,4,0,0,1-2.72.9,3.89,3.89,0,0,1-3.2-1.4,5.21,5.21,0,0,1-1.06-3.44,5.41,5.41,0,0,1,1.1-3.49,3.82,3.82,0,0,1,3.19-1.48A4.31,4.31,0,0,1,385.69,114.52Z"/><path class="cls-1" d="M394,113.91V115a5,5,0,0,0-1.42-.2,2.3,2.3,0,0,0-2,1.12,4,4,0,0,0-.74,2.43v4.91h-1.08V114h1.08v1.78a3.41,3.41,0,0,1,1-1.39,2.68,2.68,0,0,1,1.8-.65A3.71,3.71,0,0,1,394,113.91Z"/><path class="cls-1" d="M50,146h1.19l3,7.76,3-7.76H58.4l-5.13,12.87H52.1l1.57-3.8Z"/><path class="cls-1" d="M67.06,147.21a5.51,5.51,0,0,1,1,3.44,5.58,5.58,0,0,1-1,3.4A3.74,3.74,0,0,1,64,155.52a3.4,3.4,0,0,1-3.26-2.2v5.51H59.62V146h1v1.84a3.42,3.42,0,0,1,3.28-2.09A3.74,3.74,0,0,1,67.06,147.21Zm-5.62.61a4.51,4.51,0,0,0-.77,2.75v.2a4.35,4.35,0,0,0,.83,2.75,2.73,2.73,0,0,0,2.27,1.08,2.91,2.91,0,0,0,2.45-1.15,4.75,4.75,0,0,0,.76-2.81,4.84,4.84,0,0,0-.74-2.81,2.82,2.82,0,0,0-2.43-1.21A2.73,2.73,0,0,0,61.44,147.82Z"/><path class="cls-1" d="M72.24,143v3h2.43v.94H72.24v6.3a1.41,1.41,0,0,0,.22.88,1,1,0,0,0,.81.25h1.17v.94H73.12a1.92,1.92,0,0,1-1.55-.56,2.26,2.26,0,0,1-.41-1.51v-6.3h-2V146h2v-2.56Z"/><path class="cls-1" d="M83.38,147.21a6.48,6.48,0,0,1,1.06,3.73H76.89a4.37,4.37,0,0,0,.92,2.68,2.93,2.93,0,0,0,2.3,1,3.12,3.12,0,0,0,2.05-.67,3.48,3.48,0,0,0,1-1.64h1.1A4.36,4.36,0,0,1,83,154.5a4.15,4.15,0,0,1-2.9,1A4,4,0,0,1,77,154.19a5.13,5.13,0,0,1-1.21-3.58,5.2,5.2,0,0,1,1.15-3.44,4.27,4.27,0,0,1,6.46,0Zm-5.51.4a4.09,4.09,0,0,0-1,2.45h6.41q-.27-3.4-3.22-3.4A2.78,2.78,0,0,0,77.88,147.6Z"/><path class="cls-1" d="M93.19,142.17h1.08v13.1h-1v-1.84A3.34,3.34,0,0,1,90,155.52,3.78,3.78,0,0,1,86.84,154a5.53,5.53,0,0,1-1-3.44,5.46,5.46,0,0,1,1-3.4,3.65,3.65,0,0,1,3.1-1.49,3.4,3.4,0,0,1,3.26,2.21Zm-5.51,5.65a4.48,4.48,0,0,0-.77,2.79,4.74,4.74,0,0,0,.76,2.81,2.8,2.8,0,0,0,2.43,1.19,2.76,2.76,0,0,0,2.36-1.15,4.53,4.53,0,0,0,.77-2.7v-.21a4.51,4.51,0,0,0-.83-2.79,2.7,2.7,0,0,0-2.27-1.12A2.85,2.85,0,0,0,87.69,147.82Z"/><path class="cls-1" d="M109.38,146.77a3.6,3.6,0,0,1,.83,2.5v6h-1v-1.78a4.8,4.8,0,0,1-1.51,1.39,4.7,4.7,0,0,1-2.43.65,3.35,3.35,0,0,1-2.21-.7,2.4,2.4,0,0,1-.85-1.93,2.75,2.75,0,0,1,1.46-2.59,6.29,6.29,0,0,1,3.11-.67l2.38,0v-.34a2.36,2.36,0,0,0-2.7-2.65,3.2,3.2,0,0,0-1.94.52,2.21,2.21,0,0,0-1,1.62h-1.06a3.25,3.25,0,0,1,1.31-2.34,4.56,4.56,0,0,1,2.7-.72A3.67,3.67,0,0,1,109.38,146.77Zm-.25,3.73-2.32,0q-3.53,0-3.53,2.36a1.55,1.55,0,0,0,.59,1.26,2.38,2.38,0,0,0,1.58.49,3.87,3.87,0,0,0,2.59-1,2.76,2.76,0,0,0,1.08-2.07Z"/><path class="cls-1" d="M120,149.55v5.72H119v-5.65q0-3-2.65-3a2.45,2.45,0,0,0-1.87.81,3.28,3.28,0,0,0-.88,2.2v5.62h-1.08V146h1.08v1.53a3.78,3.78,0,0,1,1.26-1.31,3.29,3.29,0,0,1,1.76-.47Q120,145.71,120,149.55Z"/><path class="cls-1" d="M129.32,142.17h1.08v13.1h-1v-1.84a3.34,3.34,0,0,1-3.26,2.09A3.78,3.78,0,0,1,123,154a5.53,5.53,0,0,1-1-3.44,5.46,5.46,0,0,1,1-3.4,3.65,3.65,0,0,1,3.1-1.49,3.4,3.4,0,0,1,3.26,2.21Zm-5.51,5.65a4.48,4.48,0,0,0-.77,2.79,4.74,4.74,0,0,0,.76,2.81,2.8,2.8,0,0,0,2.43,1.19,2.76,2.76,0,0,0,2.36-1.15,4.52,4.52,0,0,0,.77-2.7v-.21a4.51,4.51,0,0,0-.83-2.79,2.7,2.7,0,0,0-2.27-1.12A2.85,2.85,0,0,0,123.81,147.82Z"/><path class="cls-1" d="M145.54,148.57h-1.06a2.2,2.2,0,0,0-.77-1.42,3.7,3.7,0,0,0-3.56-.09,1.23,1.23,0,0,0,.18,2.25,12.63,12.63,0,0,0,2,.65,9.36,9.36,0,0,1,2.41.86,2.1,2.1,0,0,1,1.12,1.87q0,2.83-3.78,2.83-3.58,0-3.91-3.19h1.06a2.53,2.53,0,0,0,.86,1.76,3.23,3.23,0,0,0,1.94.49q2.7,0,2.7-1.84a1.4,1.4,0,0,0-.92-1.29,12.26,12.26,0,0,0-2.07-.65,9,9,0,0,1-2.27-.83,2,2,0,0,1-1.06-1.78,2.1,2.1,0,0,1,1-1.82,4.18,4.18,0,0,1,2.45-.67Q145.14,145.71,145.54,148.57Z"/><path class="cls-1" d="M149.78,143v3h2.43v.94h-2.43v6.3a1.42,1.42,0,0,0,.22.88,1,1,0,0,0,.81.25H152v.94h-1.31a1.92,1.92,0,0,1-1.55-.56,2.25,2.25,0,0,1-.41-1.51v-6.3h-2V146h2v-2.56Z"/><path class="cls-1" d="M161.22,147.19a5.75,5.75,0,0,1,0,6.86,4.41,4.41,0,0,1-6.59,0,5.22,5.22,0,0,1-1.13-3.42,5.15,5.15,0,0,1,1.15-3.44,4,4,0,0,1,3.28-1.48A4.09,4.09,0,0,1,161.22,147.19Zm-5.8.68a5,5,0,0,0,0,5.49,3.19,3.19,0,0,0,5,0,4.51,4.51,0,0,0,.83-2.74,4.44,4.44,0,0,0-.83-2.75,3.19,3.19,0,0,0-5,0Z"/><path class="cls-1" d="M169.51,145.91V147a5,5,0,0,0-1.42-.2,2.3,2.3,0,0,0-2,1.12,4,4,0,0,0-.74,2.43v4.91h-1.08V146h1.08v1.78a3.42,3.42,0,0,1,1-1.39,2.68,2.68,0,0,1,1.8-.65A3.72,3.72,0,0,1,169.51,145.91Z"/><path class="cls-1" d="M177.81,147.21a6.48,6.48,0,0,1,1.06,3.73h-7.56a4.39,4.39,0,0,0,.92,2.68,2.93,2.93,0,0,0,2.3,1,3.12,3.12,0,0,0,2.05-.67,3.5,3.5,0,0,0,1-1.64h1.1a4.35,4.35,0,0,1-1.24,2.21,4.15,4.15,0,0,1-2.9,1,4,4,0,0,1-3.13-1.33,5.13,5.13,0,0,1-1.21-3.58,5.2,5.2,0,0,1,1.15-3.44,4.27,4.27,0,0,1,6.46,0Zm-5.51.4a4.09,4.09,0,0,0-1,2.45h6.41q-.27-3.4-3.22-3.4A2.78,2.78,0,0,0,172.3,147.6Z"/><path class="cls-1" d="M187.62,142.17h1.08v13.1h-1v-1.84a3.34,3.34,0,0,1-3.26,2.09,3.78,3.78,0,0,1-3.15-1.48,5.53,5.53,0,0,1-1-3.44,5.46,5.46,0,0,1,1-3.4,3.65,3.65,0,0,1,3.1-1.49,3.4,3.4,0,0,1,3.26,2.21Zm-5.51,5.65a4.48,4.48,0,0,0-.77,2.79,4.74,4.74,0,0,0,.76,2.81,2.8,2.8,0,0,0,2.43,1.19,2.76,2.76,0,0,0,2.36-1.15,4.52,4.52,0,0,0,.77-2.7v-.21a4.51,4.51,0,0,0-.83-2.79,2.7,2.7,0,0,0-2.27-1.12A2.85,2.85,0,0,0,182.11,147.82Z"/><path class="cls-1" d="M203.14,142.42h5.22q4.28,0,4.28,3.69t-4.3,3.71h-4.1v5.45h-1.1Zm1.1,1v5.45h4a3.79,3.79,0,0,0,2.47-.68,2.59,2.59,0,0,0,.77-2.05,2.52,2.52,0,0,0-.77-2,3.7,3.7,0,0,0-2.47-.7Z"/><path class="cls-1" d="M221.66,143.17a3.36,3.36,0,0,1,1.13,2.66,4.34,4.34,0,0,1-1.28,3,18.73,18.73,0,0,1-2.66,2.05q-2.74,1.85-3,3.35h7v1h-8.35a4.46,4.46,0,0,1,1.28-3.06,15.43,15.43,0,0,1,2.7-2.21,19.47,19.47,0,0,0,2.18-1.71,3.59,3.59,0,0,0,1.06-2.47,2.51,2.51,0,0,0-.79-2,3,3,0,0,0-2.11-.7,2.78,2.78,0,0,0-2.21.94,3.9,3.9,0,0,0-.86,2.74h-1.12a4.72,4.72,0,0,1,1.19-3.4,3.9,3.9,0,0,1,3-1.24A4.11,4.11,0,0,1,221.66,143.17Z"/><path class="cls-1" d="M225.35,142.42h5.22q4.28,0,4.28,3.69t-4.3,3.71h-4.1v5.45h-1.1Zm1.1,1v5.45h4a3.79,3.79,0,0,0,2.47-.68,2.59,2.59,0,0,0,.77-2.05,2.52,2.52,0,0,0-.77-2,3.7,3.7,0,0,0-2.47-.7Z"/><path class="cls-1" d="M249.94,147.19a5.75,5.75,0,0,1,0,6.86,4.41,4.41,0,0,1-6.59,0,5.22,5.22,0,0,1-1.13-3.42,5.15,5.15,0,0,1,1.15-3.44,4,4,0,0,1,3.28-1.48A4.09,4.09,0,0,1,249.94,147.19Zm-5.8.68a5,5,0,0,0,0,5.49,3.19,3.19,0,0,0,5,0,4.51,4.51,0,0,0,.83-2.74,4.44,4.44,0,0,0-.83-2.75,3.19,3.19,0,0,0-5,0Z"/><path class="cls-1" d="M260.54,149.55v5.72h-1.08v-5.65q0-3-2.65-3a2.45,2.45,0,0,0-1.87.81,3.28,3.28,0,0,0-.88,2.2v5.62H253V146h1.08v1.53a3.78,3.78,0,0,1,1.26-1.31,3.29,3.29,0,0,1,1.76-.47Q260.54,145.71,260.54,149.55Z"/><path class="cls-1" d="M271,143v3h2.43v.94H271v6.3a1.42,1.42,0,0,0,.22.88,1,1,0,0,0,.81.25h1.17v.94h-1.31a1.92,1.92,0,0,1-1.55-.56,2.25,2.25,0,0,1-.41-1.51v-6.3h-2V146h2v-2.56Z"/><path class="cls-1" d="M275.12,142.17h1.1v5.49a3.58,3.58,0,0,1,1.3-1.46,3.3,3.3,0,0,1,1.76-.49,3.25,3.25,0,0,1,2.48.94,3.76,3.76,0,0,1,.9,2.68v5.94h-1.08v-5.8a3.06,3.06,0,0,0-.68-2.11,2.56,2.56,0,0,0-1.93-.72,2.51,2.51,0,0,0-2,.94,3.36,3.36,0,0,0-.79,2.3v5.38h-1.1Z"/><path class="cls-1" d="M292,147.21a6.48,6.48,0,0,1,1.06,3.73H285.5a4.37,4.37,0,0,0,.92,2.68,2.93,2.93,0,0,0,2.3,1,3.12,3.12,0,0,0,2.05-.67,3.48,3.48,0,0,0,1-1.64h1.1a4.36,4.36,0,0,1-1.24,2.21,4.15,4.15,0,0,1-2.9,1,4,4,0,0,1-3.13-1.33,5.13,5.13,0,0,1-1.21-3.58,5.2,5.2,0,0,1,1.15-3.44,4.27,4.27,0,0,1,6.46,0Zm-5.51.4a4.09,4.09,0,0,0-1,2.45h6.41q-.27-3.4-3.22-3.4A2.78,2.78,0,0,0,286.49,147.6Z"/><path class="cls-1" d="M308.22,147.21a5.52,5.52,0,0,1,1,3.44,5.58,5.58,0,0,1-1,3.4,3.74,3.74,0,0,1-3.11,1.48,3.4,3.4,0,0,1-3.26-2.2v5.51h-1.08V146h1v1.84a3.42,3.42,0,0,1,3.28-2.09A3.74,3.74,0,0,1,308.22,147.21Zm-5.62.61a4.52,4.52,0,0,0-.77,2.75v.2a4.35,4.35,0,0,0,.83,2.75,2.74,2.74,0,0,0,2.27,1.08,2.91,2.91,0,0,0,2.45-1.15,4.75,4.75,0,0,0,.76-2.81,4.83,4.83,0,0,0-.74-2.81,2.82,2.82,0,0,0-2.43-1.21A2.73,2.73,0,0,0,302.6,147.82Z"/><path class="cls-1" d="M311.15,146h1.08v5.69a3.29,3.29,0,0,0,.61,2.18,2.49,2.49,0,0,0,2,.76,2.6,2.6,0,0,0,1.89-.83,3.29,3.29,0,0,0,.92-2.14V146h1.08v9.31h-1.08v-1.57a3.41,3.41,0,0,1-3.1,1.82q-3.4,0-3.4-3.82Z"/><path class="cls-1" d="M321,142.17h1.08v5.76a3.4,3.4,0,0,1,3.26-2.21,3.65,3.65,0,0,1,3.1,1.49,5.45,5.45,0,0,1,1,3.4,5.52,5.52,0,0,1-1,3.44,3.76,3.76,0,0,1-3.13,1.48,3.33,3.33,0,0,1-3.28-2.09v1.84h-1Zm1.87,5.58a4.42,4.42,0,0,0-.83,2.79v.21a4.42,4.42,0,0,0,.77,2.7,2.73,2.73,0,0,0,2.36,1.15,2.83,2.83,0,0,0,2.43-1.19,4.74,4.74,0,0,0,.76-2.81,4.58,4.58,0,0,0-.77-2.79,2.85,2.85,0,0,0-2.45-1.19A2.67,2.67,0,0,0,322.87,147.75Z"/><path class="cls-1" d="M331.71,142.17h1.08v13.1h-1.08Z"/><path class="cls-1" d="M337.13,142.89a.76.76,0,0,1,.27.63.89.89,0,0,1-.29.65.94.94,0,0,1-.63.25.89.89,0,0,1-.92-.9.76.76,0,0,1,.27-.63.85.85,0,0,1,.65-.27A.89.89,0,0,1,337.13,142.89ZM335.94,146H337v9.31h-1.08Z"/><path class="cls-1" d="M346.47,146.52a3.53,3.53,0,0,1,1.28,2.48h-1.08a2.65,2.65,0,0,0-.94-1.76,3.11,3.11,0,0,0-2-.59,2.79,2.79,0,0,0-2.34,1.13,5.39,5.39,0,0,0,0,5.74,2.78,2.78,0,0,0,2.36,1.06,2.75,2.75,0,0,0,3-2.65h1.06a4.25,4.25,0,0,1-1.33,2.68,4,4,0,0,1-2.72.9,3.89,3.89,0,0,1-3.2-1.4,5.21,5.21,0,0,1-1.06-3.44,5.41,5.41,0,0,1,1.1-3.49,3.82,3.82,0,0,1,3.19-1.48A4.31,4.31,0,0,1,346.47,146.52Z"/><path class="cls-1" d="M362.15,146.52a3.53,3.53,0,0,1,1.28,2.48h-1.08a2.65,2.65,0,0,0-.94-1.76,3.11,3.11,0,0,0-2-.59,2.79,2.79,0,0,0-2.34,1.13,5.39,5.39,0,0,0,0,5.74,2.78,2.78,0,0,0,2.36,1.06,2.75,2.75,0,0,0,3-2.65h1.06a4.25,4.25,0,0,1-1.33,2.68,4,4,0,0,1-2.72.9,3.89,3.89,0,0,1-3.2-1.4,5.21,5.21,0,0,1-1.06-3.44,5.41,5.41,0,0,1,1.1-3.49,3.82,3.82,0,0,1,3.19-1.48A4.31,4.31,0,0,1,362.15,146.52Z"/><path class="cls-1" d="M365.19,142.17h1.1v5.49a3.58,3.58,0,0,1,1.3-1.46,3.31,3.31,0,0,1,1.76-.49,3.25,3.25,0,0,1,2.48.94,3.75,3.75,0,0,1,.9,2.68v5.94h-1.08v-5.8a3.07,3.07,0,0,0-.68-2.11,2.57,2.57,0,0,0-1.93-.72,2.51,2.51,0,0,0-2,.94,3.36,3.36,0,0,0-.79,2.3v5.38h-1.1Z"/><path class="cls-1" d="M381.84,146.77a3.6,3.6,0,0,1,.83,2.5v6h-1v-1.78a4.82,4.82,0,0,1-1.51,1.39,4.7,4.7,0,0,1-2.43.65,3.35,3.35,0,0,1-2.21-.7,2.4,2.4,0,0,1-.85-1.93,2.75,2.75,0,0,1,1.46-2.59,6.28,6.28,0,0,1,3.11-.67l2.38,0v-.34a2.36,2.36,0,0,0-2.7-2.65,3.2,3.2,0,0,0-1.94.52,2.22,2.22,0,0,0-1,1.62h-1.06a3.25,3.25,0,0,1,1.31-2.34,4.56,4.56,0,0,1,2.7-.72A3.67,3.67,0,0,1,381.84,146.77Zm-.25,3.73-2.32,0q-3.53,0-3.53,2.36a1.55,1.55,0,0,0,.59,1.26,2.38,2.38,0,0,0,1.58.49,3.87,3.87,0,0,0,2.59-1,2.76,2.76,0,0,0,1.08-2.07Z"/><path class="cls-1" d="M386.66,142.89a.76.76,0,0,1,.27.63.89.89,0,0,1-.29.65.94.94,0,0,1-.63.25.89.89,0,0,1-.92-.9.76.76,0,0,1,.27-.63.85.85,0,0,1,.65-.27A.89.89,0,0,1,386.66,142.89ZM385.47,146h1.08v9.31h-1.08Z"/><path class="cls-1" d="M396.92,149.55v5.72h-1.08v-5.65q0-3-2.65-3a2.45,2.45,0,0,0-1.87.81,3.28,3.28,0,0,0-.88,2.2v5.62h-1.08V146h1.08v1.53a3.78,3.78,0,0,1,1.26-1.31,3.29,3.29,0,0,1,1.76-.47Q396.92,145.71,396.92,149.55Z"/><path class="cls-1" d="M68,178.77a3.6,3.6,0,0,1,.83,2.5v6h-1v-1.78a4.8,4.8,0,0,1-1.51,1.39,4.7,4.7,0,0,1-2.43.65,3.35,3.35,0,0,1-2.21-.7,2.4,2.4,0,0,1-.85-1.93,2.75,2.75,0,0,1,1.46-2.59,6.29,6.29,0,0,1,3.11-.67l2.38,0v-.34a2.36,2.36,0,0,0-2.7-2.65,3.2,3.2,0,0,0-1.94.52,2.21,2.21,0,0,0-1,1.62H61.09a3.25,3.25,0,0,1,1.31-2.34,4.56,4.56,0,0,1,2.7-.72A3.67,3.67,0,0,1,68,178.77Zm-.25,3.73-2.32,0q-3.53,0-3.53,2.36a1.55,1.55,0,0,0,.59,1.26,2.38,2.38,0,0,0,1.58.49,3.87,3.87,0,0,0,2.59-1,2.76,2.76,0,0,0,1.08-2.07Z"/><path class="cls-1" d="M78.66,181.55v5.72H77.58v-5.65q0-3-2.65-3a2.45,2.45,0,0,0-1.87.81,3.28,3.28,0,0,0-.88,2.2v5.62H71.1V178h1.08v1.53a3.79,3.79,0,0,1,1.26-1.31,3.29,3.29,0,0,1,1.76-.47Q78.66,177.71,78.66,181.55Z"/><path class="cls-1" d="M87.95,174.17H89v13.1H88v-1.84a3.34,3.34,0,0,1-3.26,2.09A3.78,3.78,0,0,1,81.59,186a5.53,5.53,0,0,1-1-3.44,5.46,5.46,0,0,1,1-3.4,3.65,3.65,0,0,1,3.1-1.49,3.4,3.4,0,0,1,3.26,2.21Zm-5.51,5.65a4.48,4.48,0,0,0-.77,2.79,4.74,4.74,0,0,0,.76,2.81,2.8,2.8,0,0,0,2.43,1.19,2.76,2.76,0,0,0,2.36-1.15,4.52,4.52,0,0,0,.77-2.7v-.21a4.51,4.51,0,0,0-.83-2.79,2.7,2.7,0,0,0-2.27-1.12A2.85,2.85,0,0,0,82.44,179.82Z"/><path class="cls-1" d="M99.54,175v3H102v.94H99.54v6.3a1.41,1.41,0,0,0,.22.88,1,1,0,0,0,.81.25h1.17v.94h-1.31a1.92,1.92,0,0,1-1.55-.56,2.26,2.26,0,0,1-.41-1.51v-6.3h-2V178h2v-2.56Z"/><path class="cls-1" d="M103.61,174.17h1.1v5.49a3.58,3.58,0,0,1,1.3-1.46,3.31,3.31,0,0,1,1.76-.49,3.25,3.25,0,0,1,2.48.94,3.75,3.75,0,0,1,.9,2.68v5.94h-1.08v-5.8a3.07,3.07,0,0,0-.68-2.11,2.57,2.57,0,0,0-1.93-.72,2.51,2.51,0,0,0-2,.94,3.36,3.36,0,0,0-.79,2.3v5.38h-1.1Z"/><path class="cls-1" d="M120.49,179.21a6.48,6.48,0,0,1,1.06,3.73H114a4.39,4.39,0,0,0,.92,2.68,2.93,2.93,0,0,0,2.3,1,3.12,3.12,0,0,0,2.05-.67,3.5,3.5,0,0,0,1-1.64h1.1a4.35,4.35,0,0,1-1.24,2.21,4.15,4.15,0,0,1-2.9,1,4,4,0,0,1-3.13-1.33,5.13,5.13,0,0,1-1.21-3.58,5.2,5.2,0,0,1,1.15-3.44,4.27,4.27,0,0,1,6.46,0Zm-5.51.4a4.09,4.09,0,0,0-1,2.45h6.41q-.27-3.4-3.22-3.4A2.78,2.78,0,0,0,115,179.6Z"/><path class="cls-1" d="M125,174.89a.76.76,0,0,1,.27.63.9.9,0,0,1-.29.65.94.94,0,0,1-.63.25.89.89,0,0,1-.92-.9.76.76,0,0,1,.27-.63.85.85,0,0,1,.65-.27A.88.88,0,0,1,125,174.89ZM123.82,178h1.08v9.31h-1.08Z"/><path class="cls-1" d="M133,177.91V179a5,5,0,0,0-1.42-.2,2.3,2.3,0,0,0-2,1.12,4,4,0,0,0-.74,2.43v4.91h-1.08V178h1.08v1.78a3.41,3.41,0,0,1,1-1.39,2.68,2.68,0,0,1,1.8-.65A3.71,3.71,0,0,1,133,177.91Z"/><path class="cls-1" d="M147.06,180.57H146a2.2,2.2,0,0,0-.77-1.42,3.7,3.7,0,0,0-3.56-.09,1.3,1.3,0,0,0-.65,1.12,1.28,1.28,0,0,0,.83,1.13,12.56,12.56,0,0,0,2,.65,9.39,9.39,0,0,1,2.41.86,2.1,2.1,0,0,1,1.12,1.87q0,2.83-3.78,2.83-3.58,0-3.91-3.19h1.06a2.54,2.54,0,0,0,.86,1.76,3.23,3.23,0,0,0,1.94.49q2.7,0,2.7-1.84a1.41,1.41,0,0,0-.92-1.29,12.33,12.33,0,0,0-2.07-.65A9,9,0,0,1,141,182a2,2,0,0,1-1.06-1.78,2.1,2.1,0,0,1,1-1.82,4.18,4.18,0,0,1,2.45-.67Q146.66,177.71,147.06,180.57Z"/><path class="cls-1" d="M156.42,179.19a5.75,5.75,0,0,1,0,6.86,4.41,4.41,0,0,1-6.59,0,5.22,5.22,0,0,1-1.13-3.42,5.16,5.16,0,0,1,1.15-3.44,4,4,0,0,1,3.28-1.48A4.09,4.09,0,0,1,156.42,179.19Zm-5.8.68a5,5,0,0,0,0,5.49,3.19,3.19,0,0,0,5,0,4.51,4.51,0,0,0,.83-2.74,4.44,4.44,0,0,0-.83-2.75,3.19,3.19,0,0,0-5,0Z"/><path class="cls-1" d="M166.1,178.52a3.53,3.53,0,0,1,1.28,2.48H166.3a2.65,2.65,0,0,0-.94-1.76,3.12,3.12,0,0,0-2-.59,2.78,2.78,0,0,0-2.34,1.13,4.52,4.52,0,0,0-.85,2.9,4.57,4.57,0,0,0,.81,2.84,2.78,2.78,0,0,0,2.36,1.06,2.75,2.75,0,0,0,3-2.65h1.06a4.25,4.25,0,0,1-1.33,2.68,4,4,0,0,1-2.72.9,3.88,3.88,0,0,1-3.2-1.4,5.21,5.21,0,0,1-1.06-3.44,5.4,5.4,0,0,1,1.1-3.49,3.82,3.82,0,0,1,3.19-1.48A4.31,4.31,0,0,1,166.1,178.52Z"/><path class="cls-1" d="M170.87,174.89a.76.76,0,0,1,.27.63.89.89,0,0,1-.29.65.94.94,0,0,1-.63.25.89.89,0,0,1-.92-.9.76.76,0,0,1,.27-.63.85.85,0,0,1,.65-.27A.89.89,0,0,1,170.87,174.89ZM169.68,178h1.08v9.31h-1.08Z"/><path class="cls-1" d="M180.41,178.77a3.6,3.6,0,0,1,.83,2.5v6h-1v-1.78a4.82,4.82,0,0,1-1.51,1.39,4.7,4.7,0,0,1-2.43.65,3.35,3.35,0,0,1-2.21-.7,2.4,2.4,0,0,1-.85-1.93,2.75,2.75,0,0,1,1.46-2.59,6.28,6.28,0,0,1,3.11-.67l2.38,0v-.34a2.36,2.36,0,0,0-2.7-2.65,3.2,3.2,0,0,0-1.94.52,2.22,2.22,0,0,0-1,1.62H173.5a3.25,3.25,0,0,1,1.31-2.34,4.56,4.56,0,0,1,2.7-.72A3.67,3.67,0,0,1,180.41,178.77Zm-.25,3.73-2.32,0q-3.53,0-3.53,2.36a1.55,1.55,0,0,0,.59,1.26,2.38,2.38,0,0,0,1.58.49,3.87,3.87,0,0,0,2.59-1,2.76,2.76,0,0,0,1.08-2.07Z"/><path class="cls-1" d="M183.85,174.17h1.08v13.1h-1.08Z"/><path class="cls-1" d="M195.26,174.89a.76.76,0,0,1,.27.63.9.9,0,0,1-.29.65.94.94,0,0,1-.63.25.89.89,0,0,1-.92-.9.76.76,0,0,1,.27-.63.85.85,0,0,1,.65-.27A.88.88,0,0,1,195.26,174.89ZM194.07,178h1.08v9.31h-1.08Z"/><path class="cls-1" d="M205.52,181.55v5.72h-1.08v-5.65q0-3-2.65-3a2.45,2.45,0,0,0-1.87.81,3.28,3.28,0,0,0-.88,2.2v5.62H198V178H199v1.53a3.79,3.79,0,0,1,1.26-1.31,3.29,3.29,0,0,1,1.76-.47Q205.52,177.71,205.52,181.55Z"/><path class="cls-1" d="M213.22,174.42v1h-1.57a1.28,1.28,0,0,0-1,.36,1.65,1.65,0,0,0-.32,1.15V178h2.79v.94h-2.79v8.37h-1.08V178.9h-2.48V178h2.48v-1.1a2.47,2.47,0,0,1,.58-1.78,2.25,2.25,0,0,1,1.76-.67Z"/><path class="cls-1" d="M221.81,179.19a5.75,5.75,0,0,1,0,6.86,4.41,4.41,0,0,1-6.59,0,5.22,5.22,0,0,1-1.13-3.42,5.16,5.16,0,0,1,1.15-3.44,4,4,0,0,1,3.28-1.48A4.09,4.09,0,0,1,221.81,179.19Zm-5.8.68a5,5,0,0,0,0,5.49,3.19,3.19,0,0,0,5,0,4.51,4.51,0,0,0,.83-2.74,4.44,4.44,0,0,0-.83-2.75,3.19,3.19,0,0,0-5,0Z"/><path class="cls-1" d="M230.11,177.91V179a5,5,0,0,0-1.42-.2,2.3,2.3,0,0,0-2,1.12,4,4,0,0,0-.74,2.43v4.91h-1.08V178h1.08v1.78a3.41,3.41,0,0,1,1-1.39,2.68,2.68,0,0,1,1.8-.65A3.71,3.71,0,0,1,230.11,177.91Z"/><path class="cls-1" d="M238,179.62a3.62,3.62,0,0,1,1.24-1.42,2.9,2.9,0,0,1,1.69-.49,3.06,3.06,0,0,1,2.34.92,3.67,3.67,0,0,1,.85,2.56v6.08h-1.08v-5.94a3,3,0,0,0-.54-2,2.3,2.3,0,0,0-1.85-.7,2.14,2.14,0,0,0-1.69.77,2.72,2.72,0,0,0-.68,1.93v5.92h-1.1v-5.94q0-2.68-2.32-2.68a2.15,2.15,0,0,0-1.75.85,3,3,0,0,0-.72,2.05v5.72h-1.08V178h1.08v1.4a3,3,0,0,1,2.7-1.66A2.8,2.8,0,0,1,238,179.62Z"/><path class="cls-1" d="M253.26,178.77a3.6,3.6,0,0,1,.83,2.5v6h-1v-1.78a4.82,4.82,0,0,1-1.51,1.39,4.7,4.7,0,0,1-2.43.65,3.35,3.35,0,0,1-2.21-.7,2.4,2.4,0,0,1-.85-1.93,2.75,2.75,0,0,1,1.46-2.59,6.28,6.28,0,0,1,3.11-.67l2.38,0v-.34a2.36,2.36,0,0,0-2.7-2.65,3.2,3.2,0,0,0-1.94.52,2.22,2.22,0,0,0-1,1.62h-1.06a3.25,3.25,0,0,1,1.31-2.34,4.56,4.56,0,0,1,2.7-.72A3.67,3.67,0,0,1,253.26,178.77ZM253,182.5l-2.32,0q-3.53,0-3.53,2.36a1.55,1.55,0,0,0,.59,1.26,2.38,2.38,0,0,0,1.58.49,3.87,3.87,0,0,0,2.59-1,2.76,2.76,0,0,0,1.08-2.07Z"/><path class="cls-1" d="M258.6,175v3H261v.94H258.6v6.3a1.41,1.41,0,0,0,.22.88,1,1,0,0,0,.81.25h1.17v.94h-1.31a1.92,1.92,0,0,1-1.55-.56,2.26,2.26,0,0,1-.41-1.51v-6.3h-2V178h2v-2.56Z"/><path class="cls-1" d="M264.4,174.89a.76.76,0,0,1,.27.63.9.9,0,0,1-.29.65.94.94,0,0,1-.63.25.89.89,0,0,1-.92-.9.76.76,0,0,1,.27-.63.85.85,0,0,1,.65-.27A.88.88,0,0,1,264.4,174.89ZM263.21,178h1.08v9.31h-1.08Z"/><path class="cls-1" d="M274.46,179.19a5.75,5.75,0,0,1,0,6.86,4.41,4.41,0,0,1-6.59,0,5.22,5.22,0,0,1-1.13-3.42,5.15,5.15,0,0,1,1.15-3.44,4,4,0,0,1,3.28-1.48A4.09,4.09,0,0,1,274.46,179.19Zm-5.8.68a5,5,0,0,0,0,5.49,3.19,3.19,0,0,0,5,0,4.51,4.51,0,0,0,.83-2.74,4.44,4.44,0,0,0-.83-2.75,3.19,3.19,0,0,0-5,0Z"/><path class="cls-1" d="M285.06,181.55v5.72H284v-5.65q0-3-2.65-3a2.45,2.45,0,0,0-1.87.81,3.28,3.28,0,0,0-.88,2.2v5.62H277.5V178h1.08v1.53a3.78,3.78,0,0,1,1.26-1.31,3.29,3.29,0,0,1,1.76-.47Q285.06,177.71,285.06,181.55Z"/><path class="cls-1" d="M295.05,174.89a.76.76,0,0,1,.27.63.9.9,0,0,1-.29.65.94.94,0,0,1-.63.25.89.89,0,0,1-.92-.9.76.76,0,0,1,.27-.63.85.85,0,0,1,.65-.27A.88.88,0,0,1,295.05,174.89ZM293.86,178h1.08v9.31h-1.08Z"/><path class="cls-1" d="M304.63,180.57h-1.06a2.2,2.2,0,0,0-.77-1.42,3.7,3.7,0,0,0-3.56-.09,1.3,1.3,0,0,0-.65,1.12,1.28,1.28,0,0,0,.83,1.13,12.56,12.56,0,0,0,2,.65,9.39,9.39,0,0,1,2.41.86,2.1,2.1,0,0,1,1.12,1.87q0,2.83-3.78,2.83-3.58,0-3.91-3.19h1.06a2.54,2.54,0,0,0,.86,1.76,3.23,3.23,0,0,0,1.94.49q2.7,0,2.7-1.84a1.41,1.41,0,0,0-.92-1.29,12.33,12.33,0,0,0-2.07-.65,9,9,0,0,1-2.27-.83,2,2,0,0,1-1.06-1.78,2.1,2.1,0,0,1,1-1.82,4.18,4.18,0,0,1,2.45-.67Q304.23,177.71,304.63,180.57Z"/><path class="cls-1" d="M319.46,178.77a3.6,3.6,0,0,1,.83,2.5v6h-1v-1.78a4.82,4.82,0,0,1-1.51,1.39,4.7,4.7,0,0,1-2.43.65,3.35,3.35,0,0,1-2.21-.7,2.4,2.4,0,0,1-.85-1.93,2.75,2.75,0,0,1,1.46-2.59,6.28,6.28,0,0,1,3.11-.67l2.38,0v-.34a2.36,2.36,0,0,0-2.7-2.65,3.2,3.2,0,0,0-1.94.52,2.22,2.22,0,0,0-1,1.62h-1.06a3.25,3.25,0,0,1,1.31-2.34,4.56,4.56,0,0,1,2.7-.72A3.67,3.67,0,0,1,319.46,178.77Zm-.25,3.73-2.32,0q-3.53,0-3.53,2.36a1.55,1.55,0,0,0,.59,1.26,2.38,2.38,0,0,0,1.58.49,3.87,3.87,0,0,0,2.59-1,2.76,2.76,0,0,0,1.08-2.07Z"/><path class="cls-1" d="M322.55,174.17h1.08v5.76a3.4,3.4,0,0,1,3.26-2.21,3.65,3.65,0,0,1,3.1,1.49,5.45,5.45,0,0,1,1,3.4,5.52,5.52,0,0,1-1,3.44,3.76,3.76,0,0,1-3.13,1.48,3.33,3.33,0,0,1-3.28-2.09v1.84h-1Zm1.87,5.58a4.42,4.42,0,0,0-.83,2.79v.21a4.42,4.42,0,0,0,.77,2.7,2.73,2.73,0,0,0,2.36,1.15,2.83,2.83,0,0,0,2.43-1.19,4.74,4.74,0,0,0,.76-2.81,4.58,4.58,0,0,0-.77-2.79,2.85,2.85,0,0,0-2.45-1.19A2.67,2.67,0,0,0,324.43,179.75Z"/><path class="cls-1" d="M332.92,178H334v5.69a3.29,3.29,0,0,0,.61,2.18,2.49,2.49,0,0,0,2,.76,2.6,2.6,0,0,0,1.89-.83,3.28,3.28,0,0,0,.92-2.14V178h1.08v9.31h-1.08v-1.57a3.41,3.41,0,0,1-3.1,1.82q-3.4,0-3.4-3.82Z"/><path class="cls-1" d="M350.33,181.55v5.72h-1.08v-5.65q0-3-2.65-3a2.45,2.45,0,0,0-1.87.81,3.28,3.28,0,0,0-.88,2.2v5.62h-1.08V178h1.08v1.53a3.79,3.79,0,0,1,1.26-1.31,3.29,3.29,0,0,1,1.76-.47Q350.33,177.71,350.33,181.55Z"/><path class="cls-1" d="M359.62,174.17h1.08v13.1h-1v-1.84a3.34,3.34,0,0,1-3.26,2.09,3.78,3.78,0,0,1-3.15-1.48,5.53,5.53,0,0,1-1-3.44,5.46,5.46,0,0,1,1-3.4,3.65,3.65,0,0,1,3.1-1.49,3.4,3.4,0,0,1,3.26,2.21Zm-5.51,5.65a4.48,4.48,0,0,0-.77,2.79,4.74,4.74,0,0,0,.76,2.81,2.8,2.8,0,0,0,2.43,1.19,2.76,2.76,0,0,0,2.36-1.15,4.52,4.52,0,0,0,.77-2.7v-.21a4.51,4.51,0,0,0-.83-2.79,2.7,2.7,0,0,0-2.27-1.12A2.85,2.85,0,0,0,354.11,179.82Z"/><path class="cls-1" d="M369.8,178.77a3.6,3.6,0,0,1,.83,2.5v6h-1v-1.78a4.8,4.8,0,0,1-1.51,1.39,4.7,4.7,0,0,1-2.43.65,3.35,3.35,0,0,1-2.21-.7,2.4,2.4,0,0,1-.85-1.93,2.75,2.75,0,0,1,1.46-2.59,6.29,6.29,0,0,1,3.11-.67l2.38,0v-.34a2.36,2.36,0,0,0-2.7-2.65,3.2,3.2,0,0,0-1.94.52,2.21,2.21,0,0,0-1,1.62h-1.06a3.25,3.25,0,0,1,1.31-2.34,4.56,4.56,0,0,1,2.7-.72A3.67,3.67,0,0,1,369.8,178.77Zm-.25,3.73-2.32,0q-3.53,0-3.53,2.36a1.55,1.55,0,0,0,.59,1.26,2.38,2.38,0,0,0,1.58.49,3.87,3.87,0,0,0,2.59-1,2.76,2.76,0,0,0,1.08-2.07Z"/><path class="cls-1" d="M380.46,181.55v5.72h-1.08v-5.65q0-3-2.65-3a2.45,2.45,0,0,0-1.87.81,3.28,3.28,0,0,0-.88,2.2v5.62H372.9V178H374v1.53a3.78,3.78,0,0,1,1.26-1.31,3.29,3.29,0,0,1,1.76-.47Q380.46,177.71,380.46,181.55Z"/><path class="cls-1" d="M385,175v3h2.43v.94H385v6.3a1.42,1.42,0,0,0,.22.88,1,1,0,0,0,.81.25h1.17v.94h-1.31a1.92,1.92,0,0,1-1.55-.56,2.25,2.25,0,0,1-.41-1.51v-6.3h-2V178h2v-2.56Z"/><path class="cls-1" d="M151.84,211.19a5.75,5.75,0,0,1,0,6.86,4.41,4.41,0,0,1-6.59,0,5.22,5.22,0,0,1-1.13-3.42,5.16,5.16,0,0,1,1.15-3.44,4,4,0,0,1,3.28-1.48A4.09,4.09,0,0,1,151.84,211.19Zm-5.8.68a5,5,0,0,0,0,5.49,3.19,3.19,0,0,0,5,0,4.51,4.51,0,0,0,.83-2.74,4.44,4.44,0,0,0-.83-2.75,3.19,3.19,0,0,0-5,0Z"/><path class="cls-1" d="M162.44,213.55v5.72h-1.08v-5.65q0-3-2.65-3a2.45,2.45,0,0,0-1.87.81,3.28,3.28,0,0,0-.88,2.2v5.62h-1.08V210H156v1.53a3.79,3.79,0,0,1,1.26-1.31,3.29,3.29,0,0,1,1.76-.47Q162.44,209.71,162.44,213.55Z"/><path class="cls-1" d="M172.95,207v3h2.43v.94h-2.43v6.3a1.41,1.41,0,0,0,.22.88,1,1,0,0,0,.81.25h1.17v.94h-1.31a1.92,1.92,0,0,1-1.55-.56,2.26,2.26,0,0,1-.41-1.51v-6.3h-2V210h2v-2.56Z"/><path class="cls-1" d="M177,206.17h1.1v5.49a3.58,3.58,0,0,1,1.3-1.46,3.31,3.31,0,0,1,1.76-.49,3.25,3.25,0,0,1,2.48.94,3.75,3.75,0,0,1,.9,2.68v5.94h-1.08v-5.8a3.07,3.07,0,0,0-.68-2.11,2.57,2.57,0,0,0-1.93-.72,2.51,2.51,0,0,0-2,.94,3.36,3.36,0,0,0-.79,2.3v5.38H177Z"/><path class="cls-1" d="M193.9,211.21a6.48,6.48,0,0,1,1.06,3.73H187.4a4.39,4.39,0,0,0,.92,2.68,2.93,2.93,0,0,0,2.3,1,3.12,3.12,0,0,0,2.05-.67,3.5,3.5,0,0,0,1-1.64h1.1a4.35,4.35,0,0,1-1.24,2.21,4.15,4.15,0,0,1-2.9,1,4,4,0,0,1-3.13-1.33,5.13,5.13,0,0,1-1.21-3.58,5.2,5.2,0,0,1,1.15-3.44,4.27,4.27,0,0,1,6.46,0Zm-5.51.4a4.09,4.09,0,0,0-1,2.45h6.41q-.27-3.4-3.22-3.4A2.78,2.78,0,0,0,188.39,211.6Z"/><path class="cls-1" d="M210.12,211.21a5.52,5.52,0,0,1,1,3.44,5.58,5.58,0,0,1-1,3.4,3.74,3.74,0,0,1-3.11,1.48,3.4,3.4,0,0,1-3.26-2.2v5.51h-1.08V210h1v1.84a3.42,3.42,0,0,1,3.28-2.09A3.74,3.74,0,0,1,210.12,211.21Zm-5.62.61a4.52,4.52,0,0,0-.77,2.75v.2a4.35,4.35,0,0,0,.83,2.75,2.74,2.74,0,0,0,2.27,1.08,2.91,2.91,0,0,0,2.45-1.15,4.75,4.75,0,0,0,.76-2.81,4.83,4.83,0,0,0-.74-2.81,2.82,2.82,0,0,0-2.43-1.21A2.73,2.73,0,0,0,204.5,211.82Z"/><path class="cls-1" d="M213.05,210h1.08v5.69a3.29,3.29,0,0,0,.61,2.18,2.49,2.49,0,0,0,2,.76,2.6,2.6,0,0,0,1.89-.83,3.28,3.28,0,0,0,.92-2.14V210h1.08v9.31h-1.08v-1.57a3.41,3.41,0,0,1-3.1,1.82q-3.4,0-3.4-3.82Z"/><path class="cls-1" d="M222.9,206.17H224v5.76a3.41,3.41,0,0,1,3.26-2.21,3.65,3.65,0,0,1,3.1,1.49,5.46,5.46,0,0,1,1,3.4,5.53,5.53,0,0,1-1,3.44,3.76,3.76,0,0,1-3.13,1.48,3.34,3.34,0,0,1-3.28-2.09v1.84h-1Zm1.87,5.58a4.42,4.42,0,0,0-.83,2.79v.21a4.42,4.42,0,0,0,.77,2.7,2.73,2.73,0,0,0,2.36,1.15,2.83,2.83,0,0,0,2.43-1.19,4.74,4.74,0,0,0,.76-2.81,4.58,4.58,0,0,0-.77-2.79,2.85,2.85,0,0,0-2.45-1.19A2.67,2.67,0,0,0,224.77,211.75Z"/><path class="cls-1" d="M233.61,206.17h1.08v13.1h-1.08Z"/><path class="cls-1" d="M239,206.89a.76.76,0,0,1,.27.63.9.9,0,0,1-.29.65.94.94,0,0,1-.63.25.89.89,0,0,1-.92-.9.76.76,0,0,1,.27-.63.85.85,0,0,1,.65-.27A.88.88,0,0,1,239,206.89ZM237.84,210h1.08v9.31h-1.08Z"/><path class="cls-1" d="M248.37,210.52a3.53,3.53,0,0,1,1.28,2.48h-1.08a2.65,2.65,0,0,0-.94-1.76,3.12,3.12,0,0,0-2-.59,2.78,2.78,0,0,0-2.34,1.13,4.52,4.52,0,0,0-.85,2.9,4.57,4.57,0,0,0,.81,2.84,2.78,2.78,0,0,0,2.36,1.06,2.75,2.75,0,0,0,3-2.65h1.06a4.25,4.25,0,0,1-1.33,2.68,4,4,0,0,1-2.72.9,3.88,3.88,0,0,1-3.2-1.4,5.21,5.21,0,0,1-1.06-3.44,5.4,5.4,0,0,1,1.1-3.49,3.82,3.82,0,0,1,3.19-1.48A4.31,4.31,0,0,1,248.37,210.52Z"/><path class="cls-1" d="M264,210.52a3.53,3.53,0,0,1,1.28,2.48h-1.08a2.65,2.65,0,0,0-.94-1.76,3.12,3.12,0,0,0-2-.59,2.78,2.78,0,0,0-2.34,1.13,4.52,4.52,0,0,0-.85,2.9,4.57,4.57,0,0,0,.81,2.84,2.78,2.78,0,0,0,2.36,1.06,2.75,2.75,0,0,0,3-2.65h1.06a4.25,4.25,0,0,1-1.33,2.68,4,4,0,0,1-2.72.9,3.88,3.88,0,0,1-3.2-1.4,5.21,5.21,0,0,1-1.06-3.44,5.4,5.4,0,0,1,1.1-3.49,3.82,3.82,0,0,1,3.19-1.48A4.31,4.31,0,0,1,264,210.52Z"/><path class="cls-1" d="M267.09,206.17h1.1v5.49a3.58,3.58,0,0,1,1.3-1.46,3.3,3.3,0,0,1,1.76-.49,3.25,3.25,0,0,1,2.48.94,3.76,3.76,0,0,1,.9,2.68v5.94h-1.08v-5.8a3.06,3.06,0,0,0-.68-2.11,2.56,2.56,0,0,0-1.93-.72,2.51,2.51,0,0,0-2,.94,3.36,3.36,0,0,0-.79,2.3v5.38h-1.1Z"/><path class="cls-1" d="M283.74,210.77a3.6,3.6,0,0,1,.83,2.5v6h-1v-1.78a4.82,4.82,0,0,1-1.51,1.39,4.7,4.7,0,0,1-2.43.65,3.35,3.35,0,0,1-2.21-.7,2.4,2.4,0,0,1-.85-1.93A2.75,2.75,0,0,1,278,214.3a6.28,6.28,0,0,1,3.11-.67l2.38,0v-.34a2.36,2.36,0,0,0-2.7-2.65,3.2,3.2,0,0,0-1.94.52,2.22,2.22,0,0,0-1,1.62h-1.06a3.25,3.25,0,0,1,1.31-2.34,4.56,4.56,0,0,1,2.7-.72A3.67,3.67,0,0,1,283.74,210.77Zm-.25,3.73-2.32,0q-3.53,0-3.53,2.36a1.55,1.55,0,0,0,.59,1.26,2.38,2.38,0,0,0,1.58.49,3.87,3.87,0,0,0,2.59-1,2.76,2.76,0,0,0,1.08-2.07Z"/><path class="cls-1" d="M288.56,206.89a.76.76,0,0,1,.27.63.9.9,0,0,1-.29.65.94.94,0,0,1-.63.25.89.89,0,0,1-.92-.9.76.76,0,0,1,.27-.63.85.85,0,0,1,.65-.27A.88.88,0,0,1,288.56,206.89ZM287.37,210h1.08v9.31h-1.08Z"/><path class="cls-1" d="M298.82,213.55v5.72h-1.08v-5.65q0-3-2.65-3a2.45,2.45,0,0,0-1.87.81,3.28,3.28,0,0,0-.88,2.2v5.62h-1.08V210h1.08v1.53a3.79,3.79,0,0,1,1.26-1.31,3.29,3.29,0,0,1,1.76-.47Q298.82,209.71,298.82,213.55Z"/><path class="cls-1" d="M302.93,217.72a.81.81,0,0,1,.27.65.89.89,0,0,1-.29.65.94.94,0,0,1-.63.25.85.85,0,0,1-.65-.27.86.86,0,0,1-.27-.63.81.81,0,0,1,.27-.65.84.84,0,0,1,.65-.25A.88.88,0,0,1,302.93,217.72Z"/></svg>