<svg id="图层_1" data-name="图层 1" xmlns="http://www.w3.org/2000/svg" viewBox="0 0 441 276"><defs><style>.cls-1{fill:#33353c;}</style></defs><title>121212</title><path class="cls-1" d="M122.55,23.06a10.57,10.57,0,0,1-2,5.78l-.72-.67a10.6,10.6,0,0,0,1.84-6.25V13.39h13.14V26.86A1.56,1.56,0,0,1,133,28.62h-2.07l-.25-1q1.08.06,2,.05,1.12,0,1.12-1.22V23.06h-5.27v5.36h-1V23.06Zm.07-4.37V22l0,.14h5V18.68Zm4.93-4.34h-4.93v3.44h4.93Zm6.25,3.44V14.35h-5.27v3.44Zm0,4.36V18.68h-5.27v3.46Z"/><path class="cls-1" d="M140.91,20.72a14.87,14.87,0,0,1-2.57,8.39l-.74-.67a13.21,13.21,0,0,0,2.36-8V14.9h5.94a14.12,14.12,0,0,0-1.08-2.21l1-.18a19.5,19.5,0,0,1,1,2.39h5.69v5.81Zm10.66-4.84H140.91v3.89h10.66Z"/><path class="cls-1" d="M169.91,14.83V29h-1V27.79H159V29h-1V14.83h3.8a8.66,8.66,0,0,0,1-2.29l1,.14a8.69,8.69,0,0,1-.92,2.14ZM159,18.76h9.94v-3H159Zm0,3.94h9.94v-3H159Zm0,4.16h9.94V23.63H159Z"/><path class="cls-1" d="M178.89,13.19a14.23,14.23,0,0,1-4.82,5.27l-.31-1A12.59,12.59,0,0,0,178,12.78Zm.85,4.1a14.88,14.88,0,0,1-2.07,3V29h-1V21.31a26.27,26.27,0,0,1-2.56,2l-.31-1a15.16,15.16,0,0,0,5-5.49Zm.41,1.21H190v1h-3v7.83a1.47,1.47,0,0,1-1.67,1.66h-2.61l-.22-.94q1.73.07,2.48.07a.91.91,0,0,0,1-1v-7.6h-5.87Zm.52-4.62h8.5v1h-8.5Z"/><path class="cls-1" d="M203.8,28.69l-3.2,0a11.93,11.93,0,0,1-2.79-.34A4.08,4.08,0,0,1,195.9,27a.92.92,0,0,0-.68-.47q-.74,0-2.36,2.5l-.74-.65q1.51-2.36,2.66-2.74V19.87h-2.66v-.94h3.58v6.73a2.05,2.05,0,0,1,.56.5,4.46,4.46,0,0,0,1.48,1.19,8,8,0,0,0,2.45.38q1.8,0,3.47,0h2.48l1.93-.07-.23,1ZM193.16,13a23.54,23.54,0,0,1,3.06,2.77l-.68.7a20.73,20.73,0,0,0-3.06-2.83Zm4,4.75h10.55v.92h-5.72a24.14,24.14,0,0,1-2.9,5.72,59.43,59.43,0,0,0,6.53-.92q-.74-1.68-1.53-3.08l.81-.27a32.5,32.5,0,0,1,2.61,5.74l-.88.22q-.32-.92-.65-1.73a73.9,73.9,0,0,1-8,1l-.29-.88q1.15-.34,3.35-5.81h-3.85Zm1.19-4.32h8.08v.9h-8.08Z"/><path class="cls-1" d="M214.89,13.19a14.23,14.23,0,0,1-4.82,5.27l-.31-1A12.59,12.59,0,0,0,214,12.78Zm.85,4.1a14.88,14.88,0,0,1-2.07,3V29h-1V21.31a26.27,26.27,0,0,1-2.56,2l-.31-1a15.16,15.16,0,0,0,5-5.49Zm.41,1.21H226v1h-3v7.83a1.47,1.47,0,0,1-1.67,1.66h-2.61l-.22-.94q1.73.07,2.48.07a.91.91,0,0,0,1-1v-7.6h-5.87Zm.52-4.62h8.5v1h-8.5Z"/><path class="cls-1" d="M228.19,14.47h4.3V12.6h1v1.87h5V12.6h1v1.87h4.3v1h-4.3v1.84h-1V15.44h-5v1.82h-1V15.44h-4.3Zm6,4.84H229v-1h13.23q-.11,4.36-.18,5.06a4,4,0,0,1-.54,2.09,2.22,2.22,0,0,1-1.71.56l-1.91,0-.25-1,1.93,0a1.48,1.48,0,0,0,1.15-.41,3.41,3.41,0,0,0,.47-2l.05-3.44h-6V29h-1Z"/><path class="cls-1" d="M249.05,24.84a18.59,18.59,0,0,1-2.39,4.1l-.79-.56a16.07,16.07,0,0,0,2.36-4Zm4.14-12.26h1v1.89h7.09v.92h-7.09V18h5.74v5.53H248.28V18h4.91Zm5.74,10V18.9h-9.68v3.69Zm-7.07,2.34q.59,2,1,3.92l-1,.23a23.44,23.44,0,0,0-.92-4Zm3.78-.16a34.35,34.35,0,0,1,1.44,4l-1,.23A22.31,22.31,0,0,0,254.74,25Zm3.78-.32a29.66,29.66,0,0,1,2.63,4l-.79.56a33.94,33.94,0,0,0-2.63-4.07Z"/><path class="cls-1" d="M272.31,12.67A25.46,25.46,0,0,0,280,19.1l-.49.85a24.5,24.5,0,0,1-7.6-6.35,25.61,25.61,0,0,1-7.58,6.52l-.47-.86a26.41,26.41,0,0,0,7.7-6.57Zm-3.91,6h1v3.22q-.07,4.84-3.24,7.11l-.74-.67q3-2,3-6.44Zm6.08-.05h1V28.89h-1Z"/><path class="cls-1" d="M286.3,13.14l.81-.54a12.72,12.72,0,0,1,4.12,6.08q2.54,6.52,6.88,9.27l-.59.77q-4.45-2.74-7.18-9.83-.16-.47-.45-1.1a17.61,17.61,0,0,1-7.54,11l-.61-.83a17.58,17.58,0,0,0,7.6-11.29A10,10,0,0,0,286.3,13.14Z"/><path class="cls-1" d="M311.73,28.91l-.25-1,1.78.05a.71.71,0,0,0,.79-.81V14.37H301.88V29h-1V13.41H315v14a1.3,1.3,0,0,1-1.46,1.49ZM307.59,25q-1-1.48-1.94-2.88a19.28,19.28,0,0,1-2.5,4.77l-.63-.76A19,19,0,0,0,305,21.19q-1.46-1.94-2.65-3.26l.61-.61a31.2,31.2,0,0,1,2.36,2.84,35.71,35.71,0,0,0,1-4.43l.92.16A35.16,35.16,0,0,1,306,21.08q1,1.32,2.23,3.28Zm5.35.83q-1-1.6-2-3.29a19.43,19.43,0,0,1-2.7,4.79l-.61-.76a19.06,19.06,0,0,0,2.66-5,43.11,43.11,0,0,0-2.61-3.47l.63-.61a34,34,0,0,1,2.34,3,30.87,30.87,0,0,0,1.1-4.73l.92.16a35.44,35.44,0,0,1-1.35,5.54q1.15,1.75,2.3,3.67Z"/><path class="cls-1" d="M324.22,26.57a35.48,35.48,0,0,1-6,1.67l-.12-.94a32.5,32.5,0,0,0,6.16-1.67ZM322.1,13a28,28,0,0,1-2.84,5.74,27.4,27.4,0,0,0,2.75-.5l1-1.93.85.32a38.2,38.2,0,0,1-4,6.73,30.12,30.12,0,0,0,4.09-1.12v.88a29.64,29.64,0,0,1-5.24,1.31l-.27-.92a1.92,1.92,0,0,0,.45-.27,22,22,0,0,0,2.7-4.09q-1.87.38-3.2.56l-.23-.9a1.1,1.1,0,0,0,.41-.36,27.92,27.92,0,0,0,2.68-5.83Zm6-.23q-.25.79-.59,1.58h5V15a12.47,12.47,0,0,1-3,4.07,14.11,14.11,0,0,0,4.77,2.3l-.56.79a13.85,13.85,0,0,1-4.91-2.52,19.36,19.36,0,0,1-4.72,2.63l-.61-.79a18.59,18.59,0,0,0,4.61-2.47,11.52,11.52,0,0,1-2-2.5,14.85,14.85,0,0,1-1.73,1.76l-.58-.76a10,10,0,0,0,3.33-5Zm4.46,9.7v6.5h-.94v-.85h-5.35v.85h-.94v-6.5Zm-6.28,4.75h5.35V23.31h-5.35Zm.4-11.36a10.9,10.9,0,0,0,2.12,2.68,11.51,11.51,0,0,0,2.68-3.29H327.1Z"/><path class="cls-1" d="M130.9,50.47a22.62,22.62,0,0,1-2,2.66l-.32-1a21.29,21.29,0,0,0,4-7.65l.92.43a23,23,0,0,1-1.6,3.92V61.07h-1Zm2.66-3.33h11.63v.94H133.57ZM143.93,55v6h-1V60h-7.07v1h-1V55Zm-8.69-5.18h8.39v.88h-8.39Zm0,2.54h8.39v.9h-8.39Zm.67,6.75H143V55.9h-7.07Zm3.31-14.53a14.46,14.46,0,0,1,.92,2.11l-.86.34a14.1,14.1,0,0,0-1-2.2Z"/><path class="cls-1" d="M149.59,56.14a15.27,15.27,0,0,1-1.85,4.28l-.81-.54A11.88,11.88,0,0,0,148.65,56ZM149.5,46h3.94a6.45,6.45,0,0,0,.61-1.51l1,.14a6.56,6.56,0,0,1-.58,1.37h6.1v8.57H149.5Zm1,2.59h9.18V46.89h-9.18Zm0,2.52h9.18V49.46h-9.18Zm9.18,2.59V52h-9.18v1.78Zm-7.18,7q-1.37,0-1.37-1.29v-3.6h1v3.38a.57.57,0,0,0,.65.65h4.21a1.23,1.23,0,0,0,1-.31,4.45,4.45,0,0,0,.49-2.3l.94.31a4.85,4.85,0,0,1-.72,2.75,2.19,2.19,0,0,1-1.48.41Zm2.11-5.51a22.49,22.49,0,0,1,2.38,2.54l-.74.52a21,21,0,0,0-2.36-2.61Zm5.83.41a31.58,31.58,0,0,1,2.81,3.91l-.77.54a29.09,29.09,0,0,0-2.79-4Z"/><path class="cls-1" d="M174.53,48.62h1v1.82a12.56,12.56,0,0,1-.81,4.41h6v.92h-6.48a7,7,0,0,1-.7,1.06,40.62,40.62,0,0,1,7.09,3.46l-.56.85a36.36,36.36,0,0,0-7.11-3.6A15.47,15.47,0,0,1,166.13,61l-.54-.83q4.95-1.33,7-3.64.2-.25.56-.79h-8v-.92h8.48a11.07,11.07,0,0,0,.92-4.41Zm5.65-2V50h-1V47.5H166.74v2.57h-1V46.58h6.91a20.58,20.58,0,0,0-.81-2l1-.18a21.38,21.38,0,0,1,.74,2.16Zm-12.47,4.63a20.28,20.28,0,0,1,3.78,2L171,54a17.82,17.82,0,0,0-3.74-2Zm1.13-2.75a18.65,18.65,0,0,1,3.65,1.93l-.52.77a14.82,14.82,0,0,0-3.62-2Z"/><path class="cls-1" d="M183.16,51.39h2.2V46.85H182.9v-.92h5.83v.92h-2.41v4.54h2.16v.94h-2.16v4.5q1.22-.41,2.45-.92v1a38.08,38.08,0,0,1-5.69,1.78l-.23-.94q1.26-.27,2.5-.59V52.32h-2.2Zm10.08-3.65h.92V52.2a11,11,0,0,1-1.39,5.72,8.65,8.65,0,0,1-4.3,3.12l-.56-.83a8,8,0,0,0,4.14-3,10.3,10.3,0,0,0,1.19-5Zm4.41-2.34v9.85h-1V46.33h-5.8v8.91h-1V45.39Zm-2.16,15.35a1.15,1.15,0,0,1-1.31-1.29V55.17h1v4.07q0,.59.63.59h1.4a.84.84,0,0,0,.74-.29,5.18,5.18,0,0,0,.4-2.2l.9.31a5.61,5.61,0,0,1-.59,2.68,1.71,1.71,0,0,1-1.26.41Z"/><path class="cls-1" d="M206.41,58.23A36.3,36.3,0,0,1,201,59.87l-.25-1q1.66-.32,3.17-.76a76.64,76.64,0,0,0,1-8.55l.88.13a76.43,76.43,0,0,1-1.06,8.15q.92-.31,1.64-.59ZM200.8,47.71h2.47A25.08,25.08,0,0,0,202.4,45l1-.16a27.33,27.33,0,0,1,.83,2.88h2.2v.94h-5.6ZM202,49.89q.65,3.15,1.13,7.15l-.79.2q-.52-3.92-1.17-7.07Zm4.82.94h10.21v.94h-4.86a10.59,10.59,0,0,1-.61,2h4.86v6q0,1.26-1,1.26h-.81l-.25-.88.77,0c.29,0,.43-.2.43-.59v-4.9h-1.94v6.08h-.83V54.63h-1.73v6.08h-.85V54.63h-1.89V61h-.9V53.73h3.21a8.83,8.83,0,0,0,.59-2h-4.39Zm8.28-2.63V45.36h1v3.73h-8.39V45.36h1V48.2h2.74V44.64h1V48.2Z"/><path class="cls-1" d="M220,49.26q1.78,1.94,3.29,3.89a18.26,18.26,0,0,0,1.33-5.69h-5v-1h5.94v.72A18.82,18.82,0,0,1,223.93,54q1.29,1.77,2.2,3.21l-.72.72q-.77-1.31-2-3a16.41,16.41,0,0,1-4.1,4.86l-.56-.85a15,15,0,0,0,4.05-4.84q-1.44-1.91-3.53-4.23Zm6.61-1.08h5.31v-3.6h1v3.6H235v1h-2.12V59.36a1.42,1.42,0,0,1-1.62,1.6h-2.9l-.21-.94q1.94.07,2.77.07a.87.87,0,0,0,1-1v-10h-5.31Zm.77,3.31a29.66,29.66,0,0,1,2.86,4l-.77.54a29.6,29.6,0,0,0-2.84-4Z"/><path class="cls-1" d="M242.41,58.23A36.3,36.3,0,0,1,237,59.87l-.25-1q1.66-.32,3.17-.76a76.64,76.64,0,0,0,1-8.55l.88.13a76.43,76.43,0,0,1-1.06,8.15q.92-.31,1.64-.59ZM236.8,47.71h2.47A25.08,25.08,0,0,0,238.4,45l1-.16a27.33,27.33,0,0,1,.83,2.88h2.2v.94h-5.6ZM238,49.89q.65,3.15,1.13,7.15l-.79.2q-.52-3.92-1.17-7.07Zm4.82.94h10.21v.94h-4.86a10.59,10.59,0,0,1-.61,2h4.86v6q0,1.26-1,1.26h-.81l-.25-.88.77,0c.29,0,.43-.2.43-.59v-4.9h-1.94v6.08h-.83V54.63h-1.73v6.08h-.85V54.63h-1.89V61h-.9V53.73h3.21a8.83,8.83,0,0,0,.59-2h-4.39Zm8.28-2.63V45.36h1v3.73h-8.39V45.36h1V48.2h2.74V44.64h1V48.2Z"/><path class="cls-1" d="M258,44.65h1v3.2h3.78q0,8.59-.27,10.64a2.39,2.39,0,0,1-2.68,2.34q-.4,0-1.35-.05l-.23-.88q.85.05,1.48.05,1.6,0,1.87-1.78.18-1.53.23-9.34H259V49q-.09,8.24-3.53,12l-.77-.68Q258,56.86,258,49v-.22h-3v-1h3Zm12.15,2.41V60.75h-1V59.5h-3.56v1.24h-1V47.07Zm-4.54,11.48h3.56V48h-3.56Z"/><path class="cls-1" d="M285.54,48.6a20.08,20.08,0,0,1-6.68,5.22.79.79,0,0,0,.72.31h3.65a1.37,1.37,0,0,0,1-.29,3.58,3.58,0,0,0,.54-2.09l.9.29a4.09,4.09,0,0,1-.74,2.57,2.33,2.33,0,0,1-1.49.38h-4.14q-1.1,0-1.37-.74a32.35,32.35,0,0,1-4.7,1.66l-.38-.83a29.59,29.59,0,0,0,4.93-1.76V49.55h1v3.29A18.93,18.93,0,0,0,284.8,48Zm2.86-2.45v3.51h-1V47h-13v2.61h-1V46.15h7.06q-.31-.74-.65-1.42l1-.18q.22.49.63,1.6Zm-11.54,2.93a12.78,12.78,0,0,1-2.21,4.23l-.81-.5A11.63,11.63,0,0,0,276,48.9Zm3.67,6.5h1v3.71h4.88V56h1v5h-1v-.86H275.8V61h-1V56.17h1v3.12h4.73Zm-.63-8a16.67,16.67,0,0,1,2,2.2l-.74.52a16.31,16.31,0,0,0-2-2.27Zm6.28,2.27A26.21,26.21,0,0,1,289,53.64l-.77.52a33.62,33.62,0,0,0-2.79-3.8Z"/><path class="cls-1" d="M291.34,46.58h5a18.42,18.42,0,0,0,.67-2l1,.11q-.2.74-.61,1.91h9.36v1H297a20.11,20.11,0,0,1-2.45,4.28v9.25h-1V53a24.4,24.4,0,0,1-2.29,2.3l-.59-.79a20.18,20.18,0,0,0,5.24-7h-4.64Zm4.79,8.3h5.35V53.06a19.11,19.11,0,0,0,3.1-2.18h-7V50h8.3v.92a24.56,24.56,0,0,1-3.38,2.59v1.4h4.63v1h-4.63v3.74A1.25,1.25,0,0,1,301,61h-2.25l-.25-.92,2.12,0a.73.73,0,0,0,.83-.83V55.83h-5.35Z"/><path class="cls-1" d="M310.54,50.49A20.75,20.75,0,0,1,309,52.86l-.31-1a22.08,22.08,0,0,0,3.17-7.25l.88.41a26,26,0,0,1-1.24,3.6V61h-.94Zm1.8-.22h3.11v8q.74-.76,1.66-1.85l.25,1a22.43,22.43,0,0,1-2.81,2.93l-.38-.88a.93.93,0,0,0,.32-.65V51.21h-2.16Zm1.57-4.86a22.8,22.8,0,0,1,2.7,2.65l-.74.74a17.33,17.33,0,0,0-2.63-2.74Zm3.76,1.4h2.25V44.64h.92v2.18H323v.85h-2.12v2.61h.68a19.25,19.25,0,0,0,2.56-4.68l.81.45a21.66,21.66,0,0,1-2.25,4.23H325v.9h-3a14.31,14.31,0,0,1-1.82,1.91H324V61h-.94v-.79h-3.69V61h-.94V54.32a13.7,13.7,0,0,1-1.53.85l-.5-.77a12.69,12.69,0,0,0,4.34-3.22H317.2v-.9h2.72V47.66h-2.25Zm5.44,9.38V54h-3.69v2.23Zm-3.69.86v2.27h3.69V57.06Z"/><path class="cls-1" d="M155.94,77.46H164v.94h-2.45v2.38h2.14V93h-.9V91.9h-5.45V93h-.88V80.78h2V78.4h-2.52Zm2.68,4.21h-1.28V88h5.45V86.23h-1.1q-1,0-1-1.17V81.68h-1.33V83a6.16,6.16,0,0,1-1.24,4.21l-.54-.49A5.5,5.5,0,0,0,158.62,83ZM157.34,91h5.45V88.91h-5.45Zm2-10.19h1.39V78.4H159.3Zm3.49,4.68V81.68h-1.42V84.9c0,.37.16.56.49.56Zm9.29,2.77a10.38,10.38,0,0,1-.61,3.58,1.7,1.7,0,0,1-1.66.81h-3.44q-1.3,0-1.3-1.64V83.57h5V78.42h-5.4v-.94H171v7h-5v6.17q0,1,.65,1h3a1.09,1.09,0,0,0,1.13-.77,15.7,15.7,0,0,0,.34-3Z"/><path class="cls-1" d="M182.33,76.62a26.46,26.46,0,0,0,8,6.41l-.52.9A25.73,25.73,0,0,1,182,77.5a26.14,26.14,0,0,1-7.9,6.46l-.5-.92a26.88,26.88,0,0,0,8-6.43Zm5.2,9.3V93h-1V91.83h-9.22V93h-1V85.92Zm-10.21-3.51h9.29v1h-9.29Zm0,8.48h9.22v-4h-9.22Z"/><path class="cls-1" d="M203.8,92.69l-3.26,0a12.46,12.46,0,0,1-2.83-.34A4,4,0,0,1,195.77,91c-.24-.31-.47-.47-.68-.47q-.74,0-2.32,2.5l-.74-.65q1.53-2.36,2.61-2.74V83.87H192v-.94h3.58v6.73a1.93,1.93,0,0,1,.58.5,4.57,4.57,0,0,0,1.51,1.19,8.42,8.42,0,0,0,2.48.38q1.84,0,3.53,0h2.48l1.93-.07-.23,1ZM193.09,77a22.7,22.7,0,0,1,3.19,2.79l-.68.68a20.64,20.64,0,0,0-3.17-2.84Zm7.38,1.73a23,23,0,0,1,2.12,1.35,16.19,16.19,0,0,0,3-1.91h-8.32v-.83h9.65V78a19.3,19.3,0,0,1-3.65,2.52l.43.34h3.53V89q0,1.26-1.31,1.26H204.3l-.23-.86,1.53,0q.67,0,.67-.61V87.09h-3.35v3.19H202V87.09h-3.38v3.26h-.92V80.88h4.7a29.72,29.72,0,0,0-2.56-1.6ZM202,83.62V81.73h-3.38v1.89Zm-3.38.83v1.82H202V84.45Zm7.63-.83V81.73h-3.35v1.89Zm-3.35.83v1.82h3.35V84.45Z"/><path class="cls-1" d="M209.8,82.22h3.65v8.1q1.08-.9,2.11-1.93l.25,1a23,23,0,0,1-3.22,2.7l-.38-.9a.86.86,0,0,0,.32-.61V83.17H209.8Zm2-5.4a21.21,21.21,0,0,1,3,2.84l-.67.68a19.89,19.89,0,0,0-3.06-2.88Zm9.27,1.71H215.9v-1h10v1h-3.85v5.38h3.62v.92h-3.62v6.63h4.23v1H215.36v-1h1.91V81.71h1v9.74h2.84Z"/><path class="cls-1" d="M228.34,81.37A21,21,0,0,1,231,84l-.67.65A19.29,19.29,0,0,0,227.69,82Zm.25-4.36a19.81,19.81,0,0,1,2.77,2.5l-.61.63a18.69,18.69,0,0,0-2.81-2.52Zm2.52,10a60.34,60.34,0,0,1-2.3,5.9l-.86-.36a51.77,51.77,0,0,0,2.32-5.87Zm1.08-8.73h1.75a8.8,8.8,0,0,0,.49-1.67l.94.13a8.77,8.77,0,0,1-.47,1.55h2.47v5.47h-2.65l.61,1.73h2.61v.83h-3.71q0,.22-.23,1.62h3.33q0,3.44-.43,4.19a1.72,1.72,0,0,1-1.49.76h-1.15L234,92h1.12a1,1,0,0,0,1-.61,12.68,12.68,0,0,0,.23-2.68h-2.56q-.22.86-.43,1.51A8.18,8.18,0,0,1,231.49,93l-.59-.76a7.83,7.83,0,0,0,1.66-2.43,16.92,16.92,0,0,0,.76-3.56h-1.87v-.83h3l-.59-1.73h-1.62Zm.86,2.39h3.44V79h-3.44Zm3.44,2.3V81.39h-3.44v1.55Zm2.2.29a11.09,11.09,0,0,1-.83,1.33l-.58-.7a17.26,17.26,0,0,0,2.41-7.25l.92.18a25.31,25.31,0,0,1-.68,3.2H244v.94H242.9a20.23,20.23,0,0,1-1.48,7.65A10.36,10.36,0,0,0,244.26,92l-.56.83A10.33,10.33,0,0,1,241,89.52,11.35,11.35,0,0,1,238.13,93l-.52-.83a10.65,10.65,0,0,0,2.84-3.6A24.39,24.39,0,0,1,238.68,83.22Zm1-2.3L239.22,82a26.64,26.64,0,0,0,1.66,5.45A20,20,0,0,0,242,80.92Z"/><path class="cls-1" d="M249.83,81.66h-2V84.2A24.57,24.57,0,0,1,246.37,93l-.68-.61a24.36,24.36,0,0,0,1.19-8.21V77.45h7.85v.9h-6.91v2.41h6.46v.9h-3.55v2.92h3.35a47.55,47.55,0,0,1-.31,6.53,1.84,1.84,0,0,1-1.85,1.69c-.31,0-.68,0-1.1-.05l-.27-.83,1.28,0q1-.06,1.17-1.37t.18-5.13h-2.48q-.27,5-2.16,7.49l-.68-.58q2-2.56,2-8.1Zm7.34-5h.94v3.87h3.28a97.08,97.08,0,0,1-.31,10.26,2.21,2.21,0,0,1-2.48,2q-.36,0-1.22-.05l-.21-.83,1.29,0a1.54,1.54,0,0,0,1.71-1.3,81.2,81.2,0,0,0,.32-9.16h-2.39q-.16,7.79-3.15,11.52l-.68-.61Q257,89,257.15,81.5H255v-.94h2.16Z"/><path class="cls-1" d="M267.36,93h-.94V83.35A19.74,19.74,0,0,1,264,88.54l-.41-1a17.25,17.25,0,0,0,2.77-6.32H264v-.92h2.38V76.62h.94v3.63h1.87v.92h-1.87v1.31q.94,1.21,2.2,3.17l-.52.79q-1-1.85-1.67-2.9ZM270.53,81h8.32V86.5H275.1a10.1,10.1,0,0,1-.18,1.62h5.17V89h-4.81a10.58,10.58,0,0,0,4.88,3.28l-.63.76a11.11,11.11,0,0,1-5-3.65l-.18.4q-1,2-4.46,3.26l-.61-.77a7.82,7.82,0,0,0,4.16-2.72,3.72,3.72,0,0,0,.27-.54h-4.52v-.9H274a7,7,0,0,0,.22-1.62h-3.69Zm-1.17-2.81h2.77v-1.6h.94v1.6h3.06v-1.6h.94v1.6h2.88v.9h-2.88v1.37h-.94V79.12h-3.06v1.37h-.94V79.12h-2.77Zm2.07,5.17h6.5V81.82h-6.5Zm6.5,2.32V84.16h-6.5v1.55Z"/><path class="cls-1" d="M282.46,84.16H290v.94h-3.28v5.06q1.78-.32,4-.88v1q-3.85.94-8.35,1.57l-.23-.94q1.84-.22,3.62-.54V85.1h-3.28Zm-.31-4.23h9Q291,78.6,291,76.64h1q0,2,.09,3.29h5.65v1h-5.6a29,29,0,0,0,1.49,8q1.15,3,2.14,3,.67-.14,1.26-3.24l.88.45q-.81,3.83-2.09,3.85-2.23-.11-3.85-6a34.66,34.66,0,0,1-.85-6.1h-9Zm12.58-3.17a18.9,18.9,0,0,1,1.76,2.39l-.83.41a22.57,22.57,0,0,0-1.75-2.41Z"/><path class="cls-1" d="M90.64,116.81q-1.35.61-2.75,1.13v5.54a1.22,1.22,0,0,1-1.39,1.37H84.59l-.22-.94q1.26.07,1.78.07a.66.66,0,0,0,.76-.74v-5q-1.6.52-3,.9l-.23-.94q1.76-.4,3.24-.88V113h-3v-1h3v-3.37h1V112h2.48v1H87.88v4q1.58-.61,2.75-1.17Zm.36-6.7h9v1H96.9v12.22q0,1.55-1.48,1.55H92.51l-.22-1q1.94.07,2.79.07t.85-.92v-12H91Z"/><path class="cls-1" d="M113.69,124.69l-3.2,0a12.19,12.19,0,0,1-2.81-.34,4,4,0,0,1-1.91-1.33c-.24-.31-.47-.47-.68-.47q-.77,0-2.38,2.57l-.74-.65q1.51-2.39,2.66-2.81v-5.76H102v-.94h3.58v6.73a2.28,2.28,0,0,1,.58.5,4.54,4.54,0,0,0,1.46,1.19,8.42,8.42,0,0,0,2.48.38q1.8,0,3.47,0h2.63l2.05-.07-.23,1Zm-10.55-15.91a22.44,22.44,0,0,1,3.08,3l-.68.68a21.46,21.46,0,0,0-3.06-3.06Zm6,3a14.21,14.21,0,0,1-1.12,1.87l-.79-.5a12.7,12.7,0,0,0,2-4.14l.92.2c-.23.72-.42,1.27-.58,1.66h2.66v-2.27h.92v2.27H117v.92h-3.83v2.56h4.73v.92H107v-.92h5.26V111.8Zm-.67,5.17h8v4.93h-8Zm7.09,4v-3.11h-6.16V121Z"/><path class="cls-1" d="M120.1,115.49h5.08q.68-1.22,1.64-3.06l1,.31-1.48,2.75h9.54v.94h-3.6a15.26,15.26,0,0,1-2.68,4.73q2.65,1.17,5.8,2.93l-.65.83a59.41,59.41,0,0,0-5.87-3,12.14,12.14,0,0,1-8.06,2.88l-.58-.92a12,12,0,0,0,7.65-2.38s0,0,0,0a50.15,50.15,0,0,0-5.17-1.94q1.06-1.66,1.89-3.1H120.1Zm15.16-5v3.71h-1v-2.75H121.63v2.74h-1v-3.69h6.89a15.74,15.74,0,0,0-.86-1.8l1.08-.18a18.92,18.92,0,0,1,.85,2Zm-9.47,6q-1.22,2-1.66,2.66a40.43,40.43,0,0,1,4.52,1.67,12.11,12.11,0,0,0,2.57-4.34Z"/><path class="cls-1" d="M146.31,108.71a25.68,25.68,0,0,0,7.88,5.71l-.49.85a25.87,25.87,0,0,1-7.74-5.65,25.58,25.58,0,0,1-7.81,5.78l-.47-.86a26.4,26.4,0,0,0,7.94-5.81ZM141,114.45h10v1h-4.55v3.44h5.35v1h-5.35v3.71h7v1H138.51v-1h7V119.8h-5.37v-1h5.37V115.4H141Z"/><path class="cls-1" d="M157.22,112.11a25.16,25.16,0,0,1-.65,5.13l-.81-.22a24.32,24.32,0,0,0,.67-5Zm1.21-3.46h1V125h-1Zm2.21,3.06a24.59,24.59,0,0,1,1.13,3.17l-.79.2a23.12,23.12,0,0,0-1.08-3.13Zm2.88,1.39a14.63,14.63,0,0,1-1.48,3.76l-.74-.65a14.73,14.73,0,0,0,1.75-6.53l.9.11a18.71,18.71,0,0,1-.23,2.36h2.92v-3.47h1v3.47h4.05v1h-4.05v4.63h3.73v1h-3.73v4.82h4.52v1H161.36v-1h5.27v-4.82H162.4v-1h4.23V113.1Z"/><path class="cls-1" d="M174.3,113.66h3.26v-2.9q-1.51.25-3,.36l-.32-.9a22.59,22.59,0,0,0,6.73-1.39l.47.83a22,22,0,0,1-3,.9v3.1h3.19v.92h-3.19v1a40.47,40.47,0,0,1,3.22,3.31l-.58.83a38.67,38.67,0,0,0-2.65-3.24v8.44h-.94V116.3a17.1,17.1,0,0,1-3.31,5.13l-.41-1a14.55,14.55,0,0,0,3.73-5.83H174.3Zm14.9-3.73v14.38h-1v-1.49h-4.72v1.66h-1V109.93Zm-5.69,12h4.72V110.85h-4.72Z"/><path class="cls-1" d="M192,109.77h16v1h-2.45v12.49a1.47,1.47,0,0,1-1.66,1.67h-3l-.22-.94q2,.07,2.84.07t1-1.06V110.72H192Zm8.91,4v6.37h-5.8v1.64h-.94v-8Zm-5.8,5.47H200v-4.59h-4.86Z"/><path class="cls-1" d="M210.32,124.85l-.22-.94q1,.07,1.46.07.77,0,.77-.83v-4.75q-1.06.36-2.39.76l-.25-1a26.9,26.9,0,0,0,2.65-.77v-4.32H210v-.94h2.34v-3.51h1v3.51h2v.94h-2v4q1.21-.5,2.12-1v1q-1.17.56-2.12.94v5.38a1.26,1.26,0,0,1-1.4,1.44Zm5.65-7.51h6.59v-1.51h1v1.51h2.56v.92h-2.56v5.15a1.3,1.3,0,0,1-1.46,1.48h-2.45l-.22-1q1.62.07,2.32.07t.81-.85v-4.9H216Zm4.46-8.73h1v2h3.65v.92h-3.65V114h4.45v.94h-9.77V114h4.36v-2.46h-3.67v-.92h3.67Zm-2.92,10.62a23.4,23.4,0,0,1,2.52,2.93l-.76.54a21.52,21.52,0,0,0-2.54-3Z"/><path class="cls-1" d="M231.86,109a28.59,28.59,0,0,1-2.7,5.62,24.57,24.57,0,0,0,2.65-.49l1-1.89.88.32a37.94,37.94,0,0,1-4,6.44,23.61,23.61,0,0,0,3.56-1v.92a27,27,0,0,1-4.77,1.15l-.25-.9a1.84,1.84,0,0,0,.45-.27,21.5,21.5,0,0,0,2.66-3.85q-1.51.32-3.06.54l-.23-.9a1.09,1.09,0,0,0,.41-.36,27.84,27.84,0,0,0,2.52-5.72Zm1.58,13.36a27.51,27.51,0,0,1-5.33,1.6l-.12-1a27.38,27.38,0,0,0,5.45-1.57Zm.38-3.22h5.06a12.92,12.92,0,0,0,.13-1.35V114.5h.94v3.28c0,.34,0,.79-.09,1.35h4.32v.94h-4.5a9.39,9.39,0,0,1-.34,1.06,27.6,27.6,0,0,1,5,3.1l-.56.83a23,23,0,0,0-4.79-3.17c-.32.48-.46.69-.41.63a8.58,8.58,0,0,1-4.3,2.56l-.56-.85a8.14,8.14,0,0,0,4.14-2.39,5.44,5.44,0,0,0,.85-1.76h-4.86Zm.56-3a12.57,12.57,0,0,1,2.81,1.78l-.47.76a11.65,11.65,0,0,0-2.79-1.84Zm.4-6.28h3.71v-1.3h1v1.3h4v.9h-4v1.89h4.18v.63a23,23,0,0,1-1,3.42l-.94-.27a14.74,14.74,0,0,0,1-2.84H234.2v-.94h4.29v-1.89h-3.71Zm1,4.43a12.47,12.47,0,0,1,2.57,1.69l-.47.72a11.56,11.56,0,0,0-2.56-1.75Z"/><path class="cls-1" d="M247.22,112.11a25.16,25.16,0,0,1-.65,5.13l-.81-.22a24.32,24.32,0,0,0,.67-5Zm1.21-3.46h1V125h-1Zm2.21,3.06a24.59,24.59,0,0,1,1.13,3.17l-.79.2a23.12,23.12,0,0,0-1.08-3.13Zm2.88,1.39a14.63,14.63,0,0,1-1.48,3.76l-.74-.65a14.73,14.73,0,0,0,1.75-6.53l.9.11a18.71,18.71,0,0,1-.23,2.36h2.92v-3.47h1v3.47h4.05v1h-4.05v4.63h3.73v1h-3.73v4.82h4.52v1H251.36v-1h5.27v-4.82H252.4v-1h4.23V113.1Z"/><path class="cls-1" d="M270.09,111.82v12.1h-.94v-1.1h-3.64v1.6h-.94v-12.6h1.62a16.43,16.43,0,0,0,.81-3.22l1,.13a15.4,15.4,0,0,1-.86,3.1Zm-4.57,5h3.64v-4h-3.64Zm0,5.15h3.64v-4.27h-3.64Zm13.9-10.08q0,8.66-.25,10.78a2.24,2.24,0,0,1-2.5,2.16l-1.76,0-.23-.9q1.08.05,1.89.05,1.46,0,1.67-1.6t.25-9.49h-5.31a15,15,0,0,1-1.82,3.15l-.58-.76a16,16,0,0,0,2.65-6.62l1,.11a22.37,22.37,0,0,1-.83,3.15Zm-6.26,4.05a30.63,30.63,0,0,1,3.13,4l-.77.56a28.19,28.19,0,0,0-3.15-4Z"/><path class="cls-1" d="M285.05,120.84a18.59,18.59,0,0,1-2.39,4.1l-.79-.56a16.07,16.07,0,0,0,2.36-4Zm4.14-12.26h1v1.89h7.09v.92h-7.09V114h5.74v5.53H284.28V114h4.91Zm5.74,10V114.9h-9.68v3.69Zm-7.07,2.34q.59,2,1,3.92l-1,.23a23.44,23.44,0,0,0-.92-4Zm3.78-.16a34.35,34.35,0,0,1,1.44,4l-1,.23a22.31,22.31,0,0,0-1.37-4.09Zm3.78-.32a29.66,29.66,0,0,1,2.63,4l-.79.56a33.94,33.94,0,0,0-2.63-4.07Z"/><path class="cls-1" d="M302.1,112.74a18.37,18.37,0,0,1-1.78,1.82l-.5-.77a14.11,14.11,0,0,0,3.71-5.2l.9.23a13.51,13.51,0,0,1-.68,1.51h4.21a16.47,16.47,0,0,0-.77-1.64l1-.18q.4.86.74,1.82h5.94v.86H309v1.44h5.22v.79H309v1.4h5.22v.79H309v1.53h6.17V118H302.1Zm-1.84,7.83v-.92h7.27v-1.08h1v1.08h7.16v.92h-5.76a12.78,12.78,0,0,0,6,3.11l-.41.86q-4.59-1.51-6.5-4h-.45v4.48h-1v-4.48H307q-1.66,2.36-6.46,4.07l-.52-.85q4.46-1.4,6.07-3.22Zm7.76-7.94v-1.44h-4.79l-.22.34v1.1Zm0,2.2v-1.4h-5v1.4Zm0,2.32v-1.53h-5v1.53Z"/><path class="cls-1" d="M321.16,113a13.43,13.43,0,0,1-2.74,4.18l-.65-.79a14.21,14.21,0,0,0,3.55-7.36l1,.2a21.68,21.68,0,0,1-.79,2.84h4.28v-3.37h1v3.37h6.07V113h-6.07v4.52h5.71v1h-5.71v4.91H334v1H318.21v-1h7.6v-4.91h-5.42v-1h5.42V113Z"/><path class="cls-1" d="M344.47,108.56a17.25,17.25,0,0,1-.38,2h7.07v1h-6q1.35,3.18,6.91,5l-.52.85q-6-2.11-7.36-5.81h-.43a8.8,8.8,0,0,1-1.62,2.79l-.29.31a25.33,25.33,0,0,1,2.74,2.27l-.67.68a29.16,29.16,0,0,0-2.74-2.38,14.85,14.85,0,0,1-5.08,2.2l-.4-.92a11.61,11.61,0,0,0,5.63-2.79,7.56,7.56,0,0,0,1.37-2.16h-6.16v-1h6.48a13.84,13.84,0,0,0,.43-2.14Zm-5.81,10.73a17.64,17.64,0,0,1-1.84,4.82l-.85-.52a14.85,14.85,0,0,0,1.73-4.52Zm3.37,5.35q-1.67,0-1.67-1.58v-4h1v3.82q0,.83,1,.83h3.91a1.12,1.12,0,0,0,.9-.31,5.08,5.08,0,0,0,.49-2.47l.92.31a5.59,5.59,0,0,1-.7,3,1.92,1.92,0,0,1-1.4.45Zm2.2-6.19a20.18,20.18,0,0,1,1.66,3.08l-.9.41a21,21,0,0,0-1.64-3.2Zm5.35.36a28.14,28.14,0,0,1,2.3,4.36l-.9.41a27.09,27.09,0,0,0-2.36-4.46Z"/><path class="cls-1" d="M355.67,124.17V125h-.94v-15.7H369.2V125h-.94v-.87Zm12.6-.85V110.17h-12.6v13.16ZM357.22,112.9H359a8.6,8.6,0,0,0-.94-1.58l.77-.27a9.33,9.33,0,0,1,1,1.85h1.37a17.63,17.63,0,0,0,.45-2.14l.9.11a15.45,15.45,0,0,1-.43,2h1.76a7.15,7.15,0,0,0,.88-1.91l.79.22a5.71,5.71,0,0,1-.77,1.69h2v.77h-4.88a15,15,0,0,1-.59,1.39h6v.79h-2.81a8.8,8.8,0,0,0,3.35,3l-.54.68a9.84,9.84,0,0,1-3.6-3.67H360.8a10.63,10.63,0,0,1-1,1.3h4.64V119q0,1-1.33,1.08-.77,0-1.51-.05l-.2-.72q1,.07,1.44.07.76,0,.76-.54v-1H360V121c0,.3.19.45.58.45h3.06a2.08,2.08,0,0,0,1.35-.29,3,3,0,0,0,.4-1.37l.83.25a2.71,2.71,0,0,1-.68,1.87,3.31,3.31,0,0,1-1.71.31h-3.51q-1.17,0-1.17-1v-3.31a10.61,10.61,0,0,1-2.39,1.67l-.47-.72a8.94,8.94,0,0,0,3.56-3h-3.11v-.79h3.6a11.33,11.33,0,0,0,.65-1.39h-3.71Z"/></svg>