<svg id="图层_1" data-name="图层 1" xmlns="http://www.w3.org/2000/svg" viewBox="0 0 441 276"><defs><style>.cls-1{fill:#33353c;}</style></defs><title>121212</title><path class="cls-1" d="M185,19.38a52.1,52.1,0,0,1,4.23,6.26l-.83.58q-.38-.74-1-1.67-5.9.65-12,1.06l-.16-.83q2.36-1.28,4.88-6.44H174v-1h7.47V13.65h-6.35v-1h6.35v-3h1v3h6.32v1h-6.32v3.71h7.45v1h-8.66a20.7,20.7,0,0,1-4.19,6.32q7.27-.58,9.85-.92-1.15-1.8-2.7-3.85Z"/><path class="cls-1" d="M199.46,9.6h1v3.33H207v8.28h-1V20h-5.53v6.23h-1V20H194v1.21h-1V12.93h6.5ZM194,19.05h5.51V13.9H194Zm6.52,0H206V13.9h-5.53Z"/><path class="cls-1" d="M212.82,15.65a33.82,33.82,0,0,1-2.21,7.78l-.85-.54a31.79,31.79,0,0,0,2.11-7.43Zm3.37,9.86q-1.71,0-1.71-1.62V13.45h1V23.68q0,.86,1,.86H220a1.11,1.11,0,0,0,1-.52,12.08,12.08,0,0,0,.52-4l.92.31q-.16,3.58-.74,4.46a1.77,1.77,0,0,1-1.55.68Zm.34-15.7a37.64,37.64,0,0,1,4,4.48l-.83.56a32.89,32.89,0,0,0-3.94-4.54Zm6.55,5a51.81,51.81,0,0,1,3.2,7.33l-.9.4a46.57,46.57,0,0,0-3.26-7.4Z"/><path class="cls-1" d="M234.24,10.05a20.39,20.39,0,0,1-2.39,4.18V26.14h-1V15.43A25.69,25.69,0,0,1,228,18.17l-.31-1a19.58,19.58,0,0,0,5.6-7.52Zm3.82,15.75a1.51,1.51,0,0,1-1.73-1.69V18.28q-1.31.76-2.56,1.35l-.47-.94a27.45,27.45,0,0,0,3-1.55V9.76h1v6.77a25.08,25.08,0,0,0,5.2-4.5l.67.76a26.61,26.61,0,0,1-5.87,4.9V24q0,.9,1,.9h3.06a1.35,1.35,0,0,0,1.12-.45,9,9,0,0,0,.45-3.31l.9.29a9.91,9.91,0,0,1-.61,3.78,2,2,0,0,1-1.69.63Z"/><path class="cls-1" d="M258.05,17.38a16.33,16.33,0,0,1-3.29,4.39,20.58,20.58,0,0,0,7.29,3.37l-.58.9a20.93,20.93,0,0,1-7.45-3.6,18.56,18.56,0,0,1-7.45,3.67l-.59-.86a19.14,19.14,0,0,0,7.29-3.44,15.19,15.19,0,0,1-3.37-4.19l.85-.49a13.93,13.93,0,0,0,3.26,4A14.29,14.29,0,0,0,257.15,17Zm-12-5.44h7.63a13.46,13.46,0,0,0-1.12-2.2l1.06-.18a14.8,14.8,0,0,1,1.1,2.38h7.15v.92H246.07Zm5.76,2.36A20.85,20.85,0,0,1,246.75,19l-.63-.81a19.84,19.84,0,0,0,5-4.5Zm4.9-.65a35.37,35.37,0,0,1,5,4.82l-.72.7a34.67,34.67,0,0,0-5-4.88Z"/><path class="cls-1" d="M266.6,16.51v-6.1h10.82v6.1h-7.06A9.38,9.38,0,0,1,269,18.17h9.68q-.07,2.75-.31,4.61a5.32,5.32,0,0,1-.85,2.43,2.41,2.41,0,0,1-1.84.74h-2.21l-.23-.94q1,.05,2,.05a1.83,1.83,0,0,0,1.87-1.12,18.23,18.23,0,0,0,.61-4.88h-2a12,12,0,0,1-7.47,7l-.54-.81a11.28,11.28,0,0,0,7-6.17h-2.68a12.16,12.16,0,0,1-6.19,4.81l-.63-.76a11.75,11.75,0,0,0,5.8-4h-3a14.62,14.62,0,0,1-3.2,1.87l-.54-.85a11.28,11.28,0,0,0,5-3.58Zm1-3.47h8.89V11.26h-8.89Zm8.89,2.61V13.87h-8.89v1.78Z"/><path class="cls-1" d="M185,51.38a52.1,52.1,0,0,1,4.23,6.26l-.83.58q-.38-.74-1-1.67-5.9.65-12,1.06l-.16-.83q2.36-1.28,4.88-6.44H174v-1h7.47V45.65h-6.35v-1h6.35v-3h1v3h6.32v1h-6.32v3.71h7.45v1h-8.66a20.7,20.7,0,0,1-4.19,6.32q7.27-.58,9.85-.92-1.15-1.8-2.7-3.85Z"/><path class="cls-1" d="M199.46,41.6h1v3.33H207v8.28h-1V52h-5.53v6.23h-1V52H194v1.21h-1V44.93h6.5ZM194,51.05h5.51V45.9H194Zm6.52,0H206V45.9h-5.53Z"/><path class="cls-1" d="M212.82,47.65a33.82,33.82,0,0,1-2.21,7.78l-.85-.54a31.79,31.79,0,0,0,2.11-7.43Zm3.37,9.86q-1.71,0-1.71-1.62V45.45h1V55.68q0,.86,1,.86H220a1.11,1.11,0,0,0,1-.52,12.08,12.08,0,0,0,.52-4l.92.31q-.16,3.58-.74,4.46a1.77,1.77,0,0,1-1.55.68Zm.34-15.7a37.64,37.64,0,0,1,4,4.48l-.83.56a32.89,32.89,0,0,0-3.94-4.54Zm6.55,5a51.81,51.81,0,0,1,3.2,7.33l-.9.4a46.57,46.57,0,0,0-3.26-7.4Z"/><path class="cls-1" d="M234.24,42.05a20.39,20.39,0,0,1-2.39,4.18V58.14h-1V47.43A25.69,25.69,0,0,1,228,50.17l-.31-1a19.58,19.58,0,0,0,5.6-7.52Zm3.82,15.75a1.51,1.51,0,0,1-1.73-1.69V50.28q-1.31.76-2.56,1.35l-.47-.94a27.45,27.45,0,0,0,3-1.55V41.76h1v6.77a25.08,25.08,0,0,0,5.2-4.5l.67.76a26.61,26.61,0,0,1-5.87,4.9V56q0,.9,1,.9h3.06a1.35,1.35,0,0,0,1.12-.45,9,9,0,0,0,.45-3.31l.9.29a9.91,9.91,0,0,1-.61,3.78,2,2,0,0,1-1.69.63Z"/><path class="cls-1" d="M250.71,42a23.36,23.36,0,0,1-1.66,3.83V58.14h-1V47.51a20,20,0,0,1-2.2,2.74l-.31-1a20.69,20.69,0,0,0,4.23-7.61Zm1.26.5h8.35V48h-3.69v2.23h5.27v1h-4.21a16,16,0,0,0,4.52,5l-.61.83a18.17,18.17,0,0,1-4.68-5.87h-.29v6.91h-1V51.2h-.31a15.88,15.88,0,0,1-4.77,5.9l-.54-.86a14.46,14.46,0,0,0,4.52-5h-4v-1h5.13V48H252Zm7.38,4.5V43.47h-6.41V47Z"/><path class="cls-1" d="M264.64,42.56h5.06v.76q-.85,2.65-1.91,5.24a8.54,8.54,0,0,1,1.82,4.36,2,2,0,0,1-.56,1.49,4,4,0,0,1-2.47.58l-.31-1a3.42,3.42,0,0,0,.52.05,3,3,0,0,0,1.48-.32.94.94,0,0,0,.36-.83,7.08,7.08,0,0,0-1.84-4.21,49.31,49.31,0,0,0,1.93-5.24h-3.11V58.11h-1Zm10.53-.77a15.11,15.11,0,0,0,5.2,6.19l-.54.81a15.11,15.11,0,0,1-5.11-6,15.91,15.91,0,0,1-5,6l-.5-.77a15.87,15.87,0,0,0,5.09-6.21Zm-5.76,14.69h6.28a38.69,38.69,0,0,0,2.39-7.29l1,.25a40.64,40.64,0,0,1-2.38,7H280v.94H269.41Zm1.89-6.59A34.91,34.91,0,0,1,273,55.07l-.85.21a33.75,33.75,0,0,0-1.73-5.11ZM272,47h5.53v.9H272Zm2.16,2.14a41.47,41.47,0,0,1,1.44,5l-.85.22a38.22,38.22,0,0,0-1.42-5Z"/><path class="cls-1" d="M199.82,73.51a12,12,0,0,1,.76,1.78h7.31v.94h-3.94a16,16,0,0,1-1.17,2.43h4.09v9.61q0,1.75-1.46,1.75h-1.82l-.25-.9,1.76,0q.81,0,.81-1.08V79.54H194V90h-1V78.66h3.89a12,12,0,0,0-1.08-2.43H192v-.94h7.49q-.38-.9-.76-1.62Zm-.88,7.22A15.92,15.92,0,0,1,195,84l-.61-.79a15.28,15.28,0,0,0,3.82-3.1Zm-2.2,2.92h6.43v4.19h-6.43Zm5-5a19.73,19.73,0,0,0,1.13-2.43h-5.94a16.78,16.78,0,0,1,1,2.43Zm.49,8.3V84.53H197.7V87Zm-.65-6.89a25.12,25.12,0,0,1,3.8,3.24l-.72.7a23,23,0,0,0-3.73-3.29Z"/><path class="cls-1" d="M216.82,82.26v7.56h-1v-1H211.7v1h-1V82.26Zm-5.11,5.69h4.16V83.18H211.7Zm1.39-13.41h9.72v5.6h-9.72Zm8.73,4.66V75.47h-7.74V79.2Zm3.37,3.06v7.56h-1v-1h-4.34v1h-1V82.26Zm-5.31,5.69h4.34V83.18h-4.34Z"/><path class="cls-1" d="M228.32,78.3A21.39,21.39,0,0,1,231,81l-.68.67a18.6,18.6,0,0,0-2.66-2.7Zm.22-4.34a18,18,0,0,1,2.72,2.68l-.67.67a16.55,16.55,0,0,0-2.72-2.7Zm2.56,9.68a65.48,65.48,0,0,1-2.27,6.21l-.86-.38a53.06,53.06,0,0,0,2.27-6.16Zm.5-6.53h3.73a23,23,0,0,0,1.4-3.49l.88.32a19.55,19.55,0,0,1-1.4,3.17h2V78h-2.81v4.16q0,.54-.09,1.55H237V79.33h.79v5.31h-2.57a8.63,8.63,0,0,1-3,5.51l-.72-.65a7.64,7.64,0,0,0,2.83-4.86h-2.12V79.36H233v4.38h1.44a14.87,14.87,0,0,0,.09-1.55V78h-3Zm1.4-3.37a25.61,25.61,0,0,1,1.48,2.79l-.77.38a24.3,24.3,0,0,0-1.48-2.81Zm6.93,10.48a11,11,0,0,1-2.3,5.94l-.68-.65a10.53,10.53,0,0,0,2.16-6.68V74.5h4.38V88.72q0,1.26-1.21,1.26h-1.35l-.23-.9q.7.05,1.3.05t.59-.74V84.22Zm.09-4.43v3.26l0,.31h2.57V79.79Zm2.56-.86V75.37H240v3.56Z"/><path class="cls-1" d="M246.61,78.52a19.06,19.06,0,0,1,3,2.66l-.67.67a18.46,18.46,0,0,0-3-2.7Zm3.29,5.11A58,58,0,0,1,247.06,90l-.92-.4a50.06,50.06,0,0,0,2.92-6.34Zm-3-9.52a20.33,20.33,0,0,1,3.24,2.77l-.67.67a19.91,19.91,0,0,0-3.24-2.81Zm6.71,3.2h2.66a8.3,8.3,0,0,0,.56-1.93h-4.72V81a18.92,18.92,0,0,1-2,9l-.74-.65A17.47,17.47,0,0,0,251.21,81V74.5h10.64v.88h-4.07a10.68,10.68,0,0,1-.58,1.93h3.65v6.12h-3.1v5.33a1.13,1.13,0,0,1-1.26,1.3H255l-.2-.9c.62,0,1.09.07,1.38.07a.6.6,0,0,0,.67-.68V83.43h-3.2ZM255.12,85a12.57,12.57,0,0,1-2,4.14l-.79-.5a11.25,11.25,0,0,0,1.93-3.82Zm-.59-5H260V78.1h-5.45ZM260,82.62V80.77h-5.45v1.85Zm.05,2.16a26.64,26.64,0,0,1,2,4l-.83.36a27.1,27.1,0,0,0-2-4.1Z"/><path class="cls-1" d="M198,106.23a21,21,0,0,1-5.44,8.66l-.76-.67a18.92,18.92,0,0,0,5.27-8.35Zm4.79,9.14a40,40,0,0,1,3.47,6.28l-.92.4q-.45-1.06-.92-2-4.83.79-10.4,1.15l-.18-.92q2.38-1.46,5.53-8.44l1,.32a32.6,32.6,0,0,1-4.88,8q4.54-.32,8.55-1a28.4,28.4,0,0,0-2.09-3.53Zm-.29-9.63a17,17,0,0,0,5.58,8.39l-.67.79a17.57,17.57,0,0,1-5.74-8.71Z"/><path class="cls-1" d="M216.17,111.4a18.79,18.79,0,0,1-5.87,3.76l-.43-.9a16.9,16.9,0,0,0,5.69-3.56Zm7.4,3.29v5.81h2.32v.94H210.07v-.94h2.45v-5.81ZM210.43,109h9.41a19.86,19.86,0,0,0,2.07-3.35l1,.34a15.6,15.6,0,0,1-2,3h4.63v.94h-15.1Zm3.22-3.31a19.2,19.2,0,0,1,2.36,2.68l-.79.54a21,21,0,0,0-2.36-2.72Zm-.18,14.85h2.39v-4.9h-2.39Zm3.33,0h2.46v-4.9H216.8Zm3.56-9.68a29.23,29.23,0,0,1,5.65,3.51l-.56.83a25,25,0,0,0-5.62-3.56Zm-.18,9.68h2.41v-4.9h-2.41Z"/><path class="cls-1" d="M231,117.54a11.92,11.92,0,0,1-2.09,4l-.85-.54a10.56,10.56,0,0,0,2-3.65Zm10.93-4.86a20.65,20.65,0,0,1,1.57,3.49l-.83.22a12.39,12.39,0,0,0-.49-1.3,44,44,0,0,1-5.65,1l-.18-.85.38-.11a13,13,0,0,0,2.92-2.75q-1.35.22-3.46.43l-.13-.83a2.71,2.71,0,0,0,1.15-.92,13.44,13.44,0,0,0,1.46-2.34h-6.19a16.23,16.23,0,0,1-2.16,3.1q1.53-.22,2.88-.49l1.06-1.37.88.38a30.31,30.31,0,0,1-4.72,4.95q2.32-.38,3.92-.74c-.26-.6-.49-1.08-.67-1.44l.77-.25a19.78,19.78,0,0,1,1.35,3.29l-.79.2q-.18-.58-.38-1.08a42,42,0,0,1-5.65.92l-.2-.85.38-.09a14.1,14.1,0,0,0,3.24-3q-1.12.16-3.46.4l-.13-.81A2.31,2.31,0,0,0,230,111a14.68,14.68,0,0,0,1.44-2.29h-3v-.92h4.37a13.29,13.29,0,0,0-1.13-2.12l1-.18a23,23,0,0,1,1.13,2.3H238a8.89,8.89,0,0,0,1.13-2.23l1,.14a7.35,7.35,0,0,1-1.12,2.09h4.5v.92h-3.85a17.6,17.6,0,0,1-2.16,3.19q1.39-.2,2.86-.47l1-1.4.86.38a29.09,29.09,0,0,1-4.34,4.75q2.12-.34,3.89-.77-.29-.67-.72-1.44Zm-7.7,9.14q-1.53,0-1.53-1.46V117h1v3.11q0,.77.83.77H238a1.61,1.61,0,0,0,1.08-.27,3.35,3.35,0,0,0,.56-2l.92.29a4.12,4.12,0,0,1-.77,2.54,2.6,2.6,0,0,1-1.58.38Zm1.85-5a23.92,23.92,0,0,1,1.94,2.5l-.83.41a20.26,20.26,0,0,0-1.89-2.54Zm5.27,0A22.55,22.55,0,0,1,244,120.6l-.86.4a21.87,21.87,0,0,0-2.7-3.85Z"/><path class="cls-1" d="M246.77,107.37H251a10.41,10.41,0,0,0-.92-1.58l1.06-.18q.41.74.86,1.76h4a6.73,6.73,0,0,0,1-1.8l1,.14a6.83,6.83,0,0,1-1,1.66h4.12v.87h-6.71v1.47h5.9v.79h-5.9V112h7.09v.87h-2.79a9.07,9.07,0,0,1-1,2h4.05v.88h-15.7v-.88h4a11.24,11.24,0,0,0-1-2h-2.75V112h7.09V110.5h-5.9v-.79h5.9v-1.47h-6.71Zm13.05,9.85v4.9h-1v-.77h-9.76v.77h-1v-4.9Zm-10.73,3.2h9.76v-2.3h-9.76Zm1.1-7.6a12.21,12.21,0,0,1,.86,2h2.43v-2Zm6.62,2a9.1,9.1,0,0,0,1-2h-3.35v2Z"/><path class="cls-1" d="M212.62,150.8a.81.81,0,0,1,.27.65.88.88,0,0,1-.27.65,1,1,0,0,1-.65.25.85.85,0,0,1-.65-.27.87.87,0,0,1-.27-.63.81.81,0,0,1,.27-.65.84.84,0,0,1,.65-.25A.88.88,0,0,1,212.62,150.8Zm6,0a.88.88,0,0,1,.25.65,1,1,0,0,1-.25.65,1,1,0,0,1-.67.25.89.89,0,0,1-.65-.27.87.87,0,0,1-.27-.63.81.81,0,0,1,.27-.65.88.88,0,0,1,.65-.25A.9.9,0,0,1,218.63,150.8Zm6,0a.81.81,0,0,1,.27.65.89.89,0,0,1-.27.65,1,1,0,0,1-.65.25.89.89,0,0,1-.65-.27.87.87,0,0,1-.27-.63.81.81,0,0,1,.27-.65,1,1,0,0,1,1.3,0Z"/><path class="cls-1" d="M230.62,150.8a.81.81,0,0,1,.27.65.88.88,0,0,1-.27.65,1,1,0,0,1-.65.25.85.85,0,0,1-.65-.27.87.87,0,0,1-.27-.63.81.81,0,0,1,.27-.65.84.84,0,0,1,.65-.25A.88.88,0,0,1,230.62,150.8Zm6,0a.88.88,0,0,1,.25.65,1,1,0,0,1-.25.65,1,1,0,0,1-.67.25.89.89,0,0,1-.65-.27.87.87,0,0,1-.27-.63.81.81,0,0,1,.27-.65.88.88,0,0,1,.65-.25A.9.9,0,0,1,236.63,150.8Zm6,0a.81.81,0,0,1,.27.65.89.89,0,0,1-.27.65,1,1,0,0,1-.65.25.89.89,0,0,1-.65-.27.87.87,0,0,1-.27-.63.81.81,0,0,1,.27-.65,1,1,0,0,1,1.3,0Z"/></svg>