<svg id="图层_1" data-name="图层 1" xmlns="http://www.w3.org/2000/svg" viewBox="0 0 441 276"><defs><style>.cls-1{fill:#33353c;}</style></defs><title>121212</title><path class="cls-1" d="M104.9,10.49h4.57a5.56,5.56,0,0,1,4.52,1.8,7,7,0,0,1,1.39,4.63,6.66,6.66,0,0,1-1.55,4.64,5.89,5.89,0,0,1-4.59,1.78H104.9Zm1.1,1V22.37h3.08A5.08,5.08,0,0,0,113,20.91a5.68,5.68,0,0,0,1.3-4,6,6,0,0,0-1.13-4,4.78,4.78,0,0,0-3.85-1.44Z"/><path class="cls-1" d="M124.36,15.28A6.49,6.49,0,0,1,125.42,19h-7.56a4.37,4.37,0,0,0,.92,2.68,2.93,2.93,0,0,0,2.3,1,3.13,3.13,0,0,0,2.05-.67,3.5,3.5,0,0,0,1-1.64h1.1A4.37,4.37,0,0,1,124,22.57a4.16,4.16,0,0,1-2.9,1A4,4,0,0,1,118,22.26a5.14,5.14,0,0,1-1.21-3.58,5.2,5.2,0,0,1,1.15-3.44,4.27,4.27,0,0,1,6.46,0Zm-5.51.4a4.09,4.09,0,0,0-1,2.45h6.41q-.27-3.4-3.22-3.4A2.78,2.78,0,0,0,118.85,15.68Z"/><path class="cls-1" d="M133.79,14.6a3.53,3.53,0,0,1,1.28,2.48H134a2.65,2.65,0,0,0-.94-1.76,3.11,3.11,0,0,0-2-.59,2.79,2.79,0,0,0-2.34,1.13,4.53,4.53,0,0,0-.85,2.9,4.57,4.57,0,0,0,.81,2.84,2.78,2.78,0,0,0,2.36,1.06A2.75,2.75,0,0,0,134,20h1.06a4.24,4.24,0,0,1-1.33,2.68,4,4,0,0,1-2.72.9,3.88,3.88,0,0,1-3.21-1.4,5.22,5.22,0,0,1-1.06-3.44,5.4,5.4,0,0,1,1.1-3.49,3.81,3.81,0,0,1,3.19-1.48A4.31,4.31,0,0,1,133.79,14.6Z"/><path class="cls-1" d="M143.91,15.28A6.49,6.49,0,0,1,145,19h-7.56a4.37,4.37,0,0,0,.92,2.68,2.93,2.93,0,0,0,2.3,1,3.12,3.12,0,0,0,2.05-.67,3.48,3.48,0,0,0,1-1.64h1.1a4.34,4.34,0,0,1-1.24,2.21,4.15,4.15,0,0,1-2.9,1,4,4,0,0,1-3.13-1.33,5.14,5.14,0,0,1-1.21-3.58,5.19,5.19,0,0,1,1.15-3.44,4.27,4.27,0,0,1,6.46,0Zm-5.51.4a4.09,4.09,0,0,0-1,2.45h6.41q-.27-3.4-3.22-3.4A2.78,2.78,0,0,0,138.4,15.68Z"/><path class="cls-1" d="M154.26,17.62v5.72h-1.08V17.69q0-3-2.65-3a2.46,2.46,0,0,0-1.87.81,3.29,3.29,0,0,0-.88,2.2v5.62H146.7V14h1.08v1.53A3.78,3.78,0,0,1,149,14.25a3.28,3.28,0,0,1,1.76-.47Q154.26,13.79,154.26,17.62Z"/><path class="cls-1" d="M158.78,11v3h2.43V15h-2.43v6.3a1.42,1.42,0,0,0,.22.88,1,1,0,0,0,.81.25H161v.94h-1.31a1.92,1.92,0,0,1-1.55-.56,2.26,2.26,0,0,1-.41-1.51V15h-2V14h2V11.48Z"/><path class="cls-1" d="M168.1,14v1.1a4.94,4.94,0,0,0-1.42-.2,2.3,2.3,0,0,0-2,1.12,4,4,0,0,0-.74,2.43v4.91h-1.08V14h1.08v1.78a3.42,3.42,0,0,1,1-1.39,2.68,2.68,0,0,1,1.8-.65A3.66,3.66,0,0,1,168.1,14Z"/><path class="cls-1" d="M176.16,14.85a3.6,3.6,0,0,1,.83,2.5v6h-1V21.56a4.8,4.8,0,0,1-1.51,1.39,4.69,4.69,0,0,1-2.43.65,3.35,3.35,0,0,1-2.21-.7A2.4,2.4,0,0,1,169,21a2.75,2.75,0,0,1,1.46-2.59,6.27,6.27,0,0,1,3.11-.67l2.38,0v-.34a2.36,2.36,0,0,0-2.7-2.65,3.2,3.2,0,0,0-1.94.52,2.22,2.22,0,0,0-1,1.62h-1.06a3.25,3.25,0,0,1,1.31-2.34,4.55,4.55,0,0,1,2.7-.72A3.67,3.67,0,0,1,176.16,14.85Zm-.25,3.73-2.32,0q-3.53,0-3.53,2.36a1.55,1.55,0,0,0,.59,1.26,2.38,2.38,0,0,0,1.58.49,3.87,3.87,0,0,0,2.59-1,2.76,2.76,0,0,0,1.08-2.07Z"/><path class="cls-1" d="M179.6,10.24h1.08v13.1H179.6Z"/><path class="cls-1" d="M185,11a.76.76,0,0,1,.27.63.9.9,0,0,1-.29.65.94.94,0,0,1-.63.25.89.89,0,0,1-.92-.9.76.76,0,0,1,.27-.63.85.85,0,0,1,.65-.27A.88.88,0,0,1,185,11ZM183.83,14h1.08v9.31h-1.08Z"/><path class="cls-1" d="M187.22,14h7.22v.83l-6,7.54h6.3v.94H187V22.5L193,15h-5.81Z"/><path class="cls-1" d="M203.38,15.28A6.49,6.49,0,0,1,204.44,19h-7.56a4.37,4.37,0,0,0,.92,2.68,2.93,2.93,0,0,0,2.3,1,3.12,3.12,0,0,0,2.05-.67,3.48,3.48,0,0,0,1-1.64h1.1A4.34,4.34,0,0,1,203,22.57a4.15,4.15,0,0,1-2.9,1A4,4,0,0,1,197,22.26a5.14,5.14,0,0,1-1.21-3.58,5.19,5.19,0,0,1,1.15-3.44,4.27,4.27,0,0,1,6.46,0Zm-5.51.4a4.09,4.09,0,0,0-1,2.45h6.41q-.27-3.4-3.22-3.4A2.78,2.78,0,0,0,197.87,15.68Z"/><path class="cls-1" d="M213.19,10.24h1.08v13.1h-1V21.51A3.34,3.34,0,0,1,210,23.6a3.78,3.78,0,0,1-3.15-1.48,5.52,5.52,0,0,1-1-3.44,5.47,5.47,0,0,1,1-3.4,3.65,3.65,0,0,1,3.1-1.49A3.4,3.4,0,0,1,213.19,16Zm-5.51,5.65a4.48,4.48,0,0,0-.77,2.79,4.75,4.75,0,0,0,.76,2.81,2.81,2.81,0,0,0,2.43,1.19,2.76,2.76,0,0,0,2.36-1.15,4.52,4.52,0,0,0,.77-2.7v-.22a4.5,4.5,0,0,0-.83-2.79,2.7,2.7,0,0,0-2.27-1.12A2.85,2.85,0,0,0,207.68,15.89Z"/><path class="cls-1" d="M229.17,14.6a3.53,3.53,0,0,1,1.28,2.48h-1.08a2.65,2.65,0,0,0-.94-1.76,3.11,3.11,0,0,0-2-.59,2.79,2.79,0,0,0-2.34,1.13,4.53,4.53,0,0,0-.85,2.9,4.57,4.57,0,0,0,.81,2.84,2.78,2.78,0,0,0,2.36,1.06,2.75,2.75,0,0,0,3-2.65h1.06a4.25,4.25,0,0,1-1.33,2.68,4,4,0,0,1-2.72.9,3.88,3.88,0,0,1-3.2-1.4,5.2,5.2,0,0,1-1.06-3.44,5.41,5.41,0,0,1,1.1-3.49,3.82,3.82,0,0,1,3.19-1.48A4.31,4.31,0,0,1,229.17,14.6Z"/><path class="cls-1" d="M239.06,14.85a3.6,3.6,0,0,1,.83,2.5v6h-1V21.56a4.8,4.8,0,0,1-1.51,1.39,4.69,4.69,0,0,1-2.43.65,3.35,3.35,0,0,1-2.21-.7,2.4,2.4,0,0,1-.85-1.93,2.75,2.75,0,0,1,1.46-2.59,6.27,6.27,0,0,1,3.11-.67l2.38,0v-.34a2.36,2.36,0,0,0-2.7-2.65,3.2,3.2,0,0,0-1.94.52,2.22,2.22,0,0,0-1,1.62h-1.06a3.25,3.25,0,0,1,1.31-2.34,4.55,4.55,0,0,1,2.7-.72A3.67,3.67,0,0,1,239.06,14.85Zm-.25,3.73-2.32,0q-3.53,0-3.53,2.36a1.55,1.55,0,0,0,.59,1.26,2.38,2.38,0,0,0,1.58.49,3.87,3.87,0,0,0,2.59-1,2.76,2.76,0,0,0,1.08-2.07Z"/><path class="cls-1" d="M249.58,15.28a5.53,5.53,0,0,1,1,3.44,5.57,5.57,0,0,1-1,3.4,3.74,3.74,0,0,1-3.11,1.48,3.41,3.41,0,0,1-3.26-2.2v5.51h-1.08V14h1v1.84a3.42,3.42,0,0,1,3.28-2.09A3.75,3.75,0,0,1,249.58,15.28Zm-5.62.61a4.51,4.51,0,0,0-.77,2.75v.2A4.35,4.35,0,0,0,244,21.6a2.73,2.73,0,0,0,2.27,1.08,2.91,2.91,0,0,0,2.45-1.15,4.74,4.74,0,0,0,.76-2.81,4.83,4.83,0,0,0-.74-2.81,2.82,2.82,0,0,0-2.43-1.21A2.73,2.73,0,0,0,244,15.89Z"/><path class="cls-1" d="M254.25,11a.76.76,0,0,1,.27.63.9.9,0,0,1-.29.65.94.94,0,0,1-.63.25.89.89,0,0,1-.92-.9.76.76,0,0,1,.27-.63.85.85,0,0,1,.65-.27A.88.88,0,0,1,254.25,11ZM253.06,14h1.08v9.31h-1.08Z"/><path class="cls-1" d="M259.2,11v3h2.43V15H259.2v6.3a1.42,1.42,0,0,0,.22.88,1,1,0,0,0,.81.25h1.17v.94h-1.31a1.92,1.92,0,0,1-1.55-.56,2.26,2.26,0,0,1-.41-1.51V15h-2V14h2V11.48Z"/><path class="cls-1" d="M270.1,14.85a3.6,3.6,0,0,1,.83,2.5v6h-1V21.56a4.8,4.8,0,0,1-1.51,1.39,4.69,4.69,0,0,1-2.43.65,3.35,3.35,0,0,1-2.21-.7A2.4,2.4,0,0,1,262.9,21a2.75,2.75,0,0,1,1.46-2.59,6.28,6.28,0,0,1,3.11-.67l2.38,0v-.34a2.36,2.36,0,0,0-2.7-2.65,3.2,3.2,0,0,0-1.94.52,2.22,2.22,0,0,0-1,1.62h-1.06a3.25,3.25,0,0,1,1.31-2.34,4.55,4.55,0,0,1,2.7-.72A3.67,3.67,0,0,1,270.1,14.85Zm-.25,3.73-2.32,0q-3.53,0-3.53,2.36a1.55,1.55,0,0,0,.59,1.26,2.38,2.38,0,0,0,1.58.49,3.87,3.87,0,0,0,2.59-1,2.75,2.75,0,0,0,1.08-2.07Z"/><path class="cls-1" d="M273.54,10.24h1.08v13.1h-1.08Z"/><path class="cls-1" d="M290.1,16.65H289a2.2,2.2,0,0,0-.77-1.42,3.7,3.7,0,0,0-3.56-.09,1.3,1.3,0,0,0-.65,1.12,1.28,1.28,0,0,0,.83,1.13,12.48,12.48,0,0,0,2,.65,9.36,9.36,0,0,1,2.41.87,2.1,2.1,0,0,1,1.12,1.87q0,2.83-3.78,2.83-3.58,0-3.91-3.19h1.06a2.53,2.53,0,0,0,.87,1.76,3.22,3.22,0,0,0,1.94.49q2.7,0,2.7-1.84a1.41,1.41,0,0,0-.92-1.3,12.45,12.45,0,0,0-2.07-.65,9,9,0,0,1-2.27-.83,2,2,0,0,1-1.06-1.78,2.1,2.1,0,0,1,1-1.82,4.18,4.18,0,0,1,2.45-.67Q289.71,13.79,290.1,16.65Z"/><path class="cls-1" d="M299.17,15.28A6.49,6.49,0,0,1,300.24,19h-7.56a4.37,4.37,0,0,0,.92,2.68,2.93,2.93,0,0,0,2.3,1,3.13,3.13,0,0,0,2.05-.67,3.5,3.5,0,0,0,1-1.64H300a4.37,4.37,0,0,1-1.24,2.21,4.16,4.16,0,0,1-2.9,1,4,4,0,0,1-3.13-1.33,5.14,5.14,0,0,1-1.21-3.58,5.2,5.2,0,0,1,1.15-3.44,4.27,4.27,0,0,1,6.46,0Zm-5.51.4a4.09,4.09,0,0,0-1,2.45h6.41q-.27-3.4-3.22-3.4A2.78,2.78,0,0,0,293.67,15.68Z"/><path class="cls-1" d="M307.22,14v1.1a4.94,4.94,0,0,0-1.42-.2,2.3,2.3,0,0,0-2,1.12,4,4,0,0,0-.74,2.43v4.91H302V14H303v1.78a3.42,3.42,0,0,1,1-1.39,2.68,2.68,0,0,1,1.8-.65A3.66,3.66,0,0,1,307.22,14Z"/><path class="cls-1" d="M307.4,14h1.19L311.52,22,314.44,14h1.21l-3.56,9.31H311Z"/><path class="cls-1" d="M318.59,11a.76.76,0,0,1,.27.63.9.9,0,0,1-.29.65.94.94,0,0,1-.63.25.88.88,0,0,1-.65-.25.89.89,0,0,1-.27-.65.76.76,0,0,1,.27-.63.84.84,0,0,1,.65-.27A.88.88,0,0,1,318.59,11ZM317.41,14h1.08v9.31h-1.08Z"/><path class="cls-1" d="M327.94,14.6a3.53,3.53,0,0,1,1.28,2.48h-1.08a2.65,2.65,0,0,0-.94-1.76,3.11,3.11,0,0,0-2-.59,2.79,2.79,0,0,0-2.34,1.13,4.53,4.53,0,0,0-.85,2.9,4.58,4.58,0,0,0,.81,2.84,2.78,2.78,0,0,0,2.36,1.06,2.75,2.75,0,0,0,3-2.65h1.06a4.24,4.24,0,0,1-1.33,2.68,4,4,0,0,1-2.72.9,3.88,3.88,0,0,1-3.2-1.4,5.21,5.21,0,0,1-1.06-3.44,5.41,5.41,0,0,1,1.1-3.49,3.81,3.81,0,0,1,3.19-1.48A4.3,4.3,0,0,1,327.94,14.6Z"/><path class="cls-1" d="M338.05,15.28A6.49,6.49,0,0,1,339.11,19h-7.56a4.37,4.37,0,0,0,.92,2.68,2.93,2.93,0,0,0,2.3,1,3.13,3.13,0,0,0,2.05-.67,3.5,3.5,0,0,0,1-1.64h1.1a4.37,4.37,0,0,1-1.24,2.21,4.16,4.16,0,0,1-2.9,1,4,4,0,0,1-3.13-1.33,5.14,5.14,0,0,1-1.21-3.58,5.2,5.2,0,0,1,1.15-3.44,4.27,4.27,0,0,1,6.46,0Zm-5.51.4a4.09,4.09,0,0,0-1,2.45H338q-.27-3.4-3.22-3.4A2.78,2.78,0,0,0,332.54,15.68Z"/><path class="cls-1" d="M343.11,23a3.31,3.31,0,0,1-1.8,3.12l-.38-.63a2.75,2.75,0,0,0,1.37-2.2l-.27,0a1,1,0,0,1-.67-.23.84.84,0,0,1-.25-.65.8.8,0,0,1,.25-.67.87.87,0,0,1,.67-.25Q343.11,21.54,343.11,23Zm-.43-7.83a.81.81,0,0,1,.27.65.9.9,0,0,1-.29.65.94.94,0,0,1-.63.25.85.85,0,0,1-.65-.27.87.87,0,0,1-.27-.63.81.81,0,0,1,.27-.65A.85.85,0,0,1,342,15,.88.88,0,0,1,342.68,15.21Z"/><path class="cls-1" d="M126,42.24h1.08v13.1h-1V53.51a3.34,3.34,0,0,1-3.26,2.09,3.78,3.78,0,0,1-3.15-1.48,6.21,6.21,0,0,1,0-6.84,3.65,3.65,0,0,1,3.1-1.49A3.4,3.4,0,0,1,126,48Zm-5.51,5.65a4.48,4.48,0,0,0-.77,2.79,4.75,4.75,0,0,0,.76,2.81,2.8,2.8,0,0,0,2.43,1.19,2.76,2.76,0,0,0,2.36-1.15,4.52,4.52,0,0,0,.77-2.7v-.22a4.5,4.5,0,0,0-.83-2.79,2.7,2.7,0,0,0-2.27-1.12A2.85,2.85,0,0,0,120.47,47.89Z"/><path class="cls-1" d="M136.4,47.28A6.49,6.49,0,0,1,137.46,51H129.9a4.37,4.37,0,0,0,.92,2.68,2.93,2.93,0,0,0,2.3,1,3.13,3.13,0,0,0,2.05-.67,3.5,3.5,0,0,0,1-1.64h1.1A4.35,4.35,0,0,1,136,54.57a4.15,4.15,0,0,1-2.9,1A4,4,0,0,1,130,54.26a5.13,5.13,0,0,1-1.21-3.58,5.2,5.2,0,0,1,1.15-3.44,4.27,4.27,0,0,1,6.46,0Zm-5.51.4a4.09,4.09,0,0,0-1,2.45h6.41q-.27-3.4-3.22-3.4A2.78,2.78,0,0,0,130.9,47.68Z"/><path class="cls-1" d="M145.83,46.6a3.53,3.53,0,0,1,1.28,2.48H146a2.64,2.64,0,0,0-.94-1.76,3.11,3.11,0,0,0-2-.59,2.79,2.79,0,0,0-2.34,1.13,5.39,5.39,0,0,0,0,5.74,2.78,2.78,0,0,0,2.36,1.06,2.75,2.75,0,0,0,3-2.65h1.06a4.24,4.24,0,0,1-1.33,2.68,4,4,0,0,1-2.72.9,3.88,3.88,0,0,1-3.2-1.4,5.21,5.21,0,0,1-1.06-3.44,5.4,5.4,0,0,1,1.1-3.49,3.82,3.82,0,0,1,3.19-1.48A4.31,4.31,0,0,1,145.83,46.6Z"/><path class="cls-1" d="M155.95,47.28A6.49,6.49,0,0,1,157,51h-7.56a4.38,4.38,0,0,0,.92,2.68,2.93,2.93,0,0,0,2.3,1,3.13,3.13,0,0,0,2.05-.67,3.48,3.48,0,0,0,1-1.64h1.1a4.36,4.36,0,0,1-1.24,2.21,4.16,4.16,0,0,1-2.9,1,4,4,0,0,1-3.13-1.33,5.14,5.14,0,0,1-1.21-3.58,5.2,5.2,0,0,1,1.15-3.44,4.27,4.27,0,0,1,6.46,0Zm-5.51.4a4.09,4.09,0,0,0-1,2.45h6.41q-.27-3.4-3.22-3.4A2.79,2.79,0,0,0,150.44,47.68Z"/><path class="cls-1" d="M166.3,49.62v5.72h-1.08V49.69q0-3-2.65-3a2.46,2.46,0,0,0-1.87.81,3.29,3.29,0,0,0-.88,2.2v5.62h-1.08V46h1.08v1.53a3.78,3.78,0,0,1,1.26-1.31,3.28,3.28,0,0,1,1.76-.47Q166.3,45.79,166.3,49.62Z"/><path class="cls-1" d="M170.82,43v3h2.43V47h-2.43v6.3a1.42,1.42,0,0,0,.22.88,1,1,0,0,0,.81.25H173v.94H171.7a1.92,1.92,0,0,1-1.55-.56,2.26,2.26,0,0,1-.41-1.51V47h-2V46h2V43.48Z"/><path class="cls-1" d="M180.14,46v1.1a4.94,4.94,0,0,0-1.42-.2,2.3,2.3,0,0,0-2,1.12,4,4,0,0,0-.74,2.43v4.91h-1.08V46H176v1.78a3.41,3.41,0,0,1,1-1.39,2.68,2.68,0,0,1,1.8-.65A3.67,3.67,0,0,1,180.14,46Z"/><path class="cls-1" d="M188.21,46.85a3.6,3.6,0,0,1,.83,2.5v6h-1V53.56a4.8,4.8,0,0,1-1.51,1.39,4.69,4.69,0,0,1-2.43.65,3.35,3.35,0,0,1-2.21-.7A2.4,2.4,0,0,1,181,53a2.75,2.75,0,0,1,1.46-2.59,6.28,6.28,0,0,1,3.11-.67l2.38,0v-.34a2.36,2.36,0,0,0-2.7-2.65,3.2,3.2,0,0,0-1.94.52,2.22,2.22,0,0,0-1,1.62h-1.06a3.25,3.25,0,0,1,1.31-2.34,4.55,4.55,0,0,1,2.7-.72A3.67,3.67,0,0,1,188.21,46.85ZM188,50.57l-2.32,0q-3.53,0-3.53,2.36a1.55,1.55,0,0,0,.59,1.26,2.38,2.38,0,0,0,1.58.49,3.87,3.87,0,0,0,2.59-1A2.75,2.75,0,0,0,188,51.65Z"/><path class="cls-1" d="M191.64,42.24h1.08v13.1h-1.08Z"/><path class="cls-1" d="M197.06,43a.76.76,0,0,1,.27.63.9.9,0,0,1-.29.65.94.94,0,0,1-.63.25.88.88,0,0,1-.65-.25.89.89,0,0,1-.27-.65.76.76,0,0,1,.27-.63.84.84,0,0,1,.65-.27A.88.88,0,0,1,197.06,43ZM195.87,46H197v9.31h-1.08Z"/><path class="cls-1" d="M199.26,46h7.22v.83l-6,7.54h6.3v.94h-7.69V54.5l6-7.52h-5.81Z"/><path class="cls-1" d="M215.42,47.28A6.49,6.49,0,0,1,216.48,51h-7.56a4.38,4.38,0,0,0,.92,2.68,2.93,2.93,0,0,0,2.3,1A3.13,3.13,0,0,0,214.2,54a3.48,3.48,0,0,0,1-1.64h1.1A4.36,4.36,0,0,1,215,54.57a4.16,4.16,0,0,1-2.9,1A4,4,0,0,1,209,54.26a5.14,5.14,0,0,1-1.21-3.58A5.2,5.2,0,0,1,209,47.24a4.27,4.27,0,0,1,6.46,0Zm-5.51.4a4.09,4.09,0,0,0-1,2.45h6.41q-.27-3.4-3.22-3.4A2.79,2.79,0,0,0,209.91,47.68Z"/><path class="cls-1" d="M225.23,42.24h1.08v13.1h-1V53.51A3.34,3.34,0,0,1,222,55.6a3.78,3.78,0,0,1-3.15-1.48,6.21,6.21,0,0,1,0-6.84,3.65,3.65,0,0,1,3.1-1.49A3.4,3.4,0,0,1,225.23,48Zm-5.51,5.65a4.48,4.48,0,0,0-.77,2.79,4.75,4.75,0,0,0,.76,2.81,2.8,2.8,0,0,0,2.43,1.19,2.76,2.76,0,0,0,2.36-1.15,4.52,4.52,0,0,0,.77-2.7v-.22a4.5,4.5,0,0,0-.83-2.79,2.7,2.7,0,0,0-2.27-1.12A2.85,2.85,0,0,0,219.72,47.89Z"/><path class="cls-1" d="M236.82,43v3h2.43V47h-2.43v6.3a1.43,1.43,0,0,0,.22.88,1,1,0,0,0,.81.25H239v.94H237.7a1.91,1.91,0,0,1-1.55-.56,2.25,2.25,0,0,1-.41-1.51V47h-2V46h2V43.48Z"/><path class="cls-1" d="M246.15,46v1.1a5,5,0,0,0-1.42-.2,2.3,2.3,0,0,0-2,1.12,4,4,0,0,0-.74,2.43v4.91h-1.08V46H242v1.78a3.42,3.42,0,0,1,1-1.39,2.68,2.68,0,0,1,1.8-.65A3.67,3.67,0,0,1,246.15,46Z"/><path class="cls-1" d="M254.21,46.85a3.59,3.59,0,0,1,.83,2.5v6h-1V53.56a4.82,4.82,0,0,1-1.51,1.39,4.69,4.69,0,0,1-2.43.65,3.36,3.36,0,0,1-2.21-.7A2.4,2.4,0,0,1,247,53a2.75,2.75,0,0,1,1.46-2.59,6.28,6.28,0,0,1,3.12-.67l2.38,0v-.34a2.36,2.36,0,0,0-2.7-2.65,3.2,3.2,0,0,0-1.94.52,2.21,2.21,0,0,0-1,1.62H247.3a3.25,3.25,0,0,1,1.31-2.34,4.55,4.55,0,0,1,2.7-.72A3.66,3.66,0,0,1,254.21,46.85ZM254,50.57l-2.32,0q-3.53,0-3.53,2.36a1.55,1.55,0,0,0,.59,1.26,2.39,2.39,0,0,0,1.58.49,3.87,3.87,0,0,0,2.59-1A2.75,2.75,0,0,0,254,51.65Z"/><path class="cls-1" d="M264.87,49.62v5.72h-1.08V49.69q0-3-2.65-3a2.46,2.46,0,0,0-1.87.81,3.29,3.29,0,0,0-.88,2.2v5.62h-1.08V46h1.08v1.53a3.78,3.78,0,0,1,1.26-1.31,3.28,3.28,0,0,1,1.76-.47Q264.87,45.79,264.87,49.62Z"/><path class="cls-1" d="M274,48.65h-1.06a2.2,2.2,0,0,0-.77-1.42,3.7,3.7,0,0,0-3.56-.09,1.3,1.3,0,0,0-.65,1.12,1.28,1.28,0,0,0,.83,1.13,12.48,12.48,0,0,0,2,.65,9.36,9.36,0,0,1,2.41.87,2.1,2.1,0,0,1,1.12,1.87q0,2.83-3.78,2.83-3.58,0-3.91-3.19h1.06a2.53,2.53,0,0,0,.87,1.76,3.22,3.22,0,0,0,1.94.49q2.7,0,2.7-1.84a1.41,1.41,0,0,0-.92-1.3,12.45,12.45,0,0,0-2.07-.65,9,9,0,0,1-2.27-.83,2,2,0,0,1-1.06-1.78,2.1,2.1,0,0,1,1-1.82,4.18,4.18,0,0,1,2.45-.67Q273.61,45.79,274,48.65Z"/><path class="cls-1" d="M282.85,46.85a3.6,3.6,0,0,1,.83,2.5v6h-1V53.56a4.8,4.8,0,0,1-1.51,1.39,4.69,4.69,0,0,1-2.43.65,3.35,3.35,0,0,1-2.21-.7,2.4,2.4,0,0,1-.85-1.93,2.75,2.75,0,0,1,1.46-2.59,6.27,6.27,0,0,1,3.11-.67l2.38,0v-.34a2.36,2.36,0,0,0-2.7-2.65,3.2,3.2,0,0,0-1.94.52,2.22,2.22,0,0,0-1,1.62h-1.06a3.25,3.25,0,0,1,1.31-2.34,4.55,4.55,0,0,1,2.7-.72A3.67,3.67,0,0,1,282.85,46.85Zm-.25,3.73-2.32,0q-3.53,0-3.53,2.36a1.55,1.55,0,0,0,.59,1.26,2.38,2.38,0,0,0,1.58.49,3.87,3.87,0,0,0,2.59-1,2.76,2.76,0,0,0,1.08-2.07Z"/><path class="cls-1" d="M292.58,46.6a3.53,3.53,0,0,1,1.28,2.48h-1.08a2.65,2.65,0,0,0-.94-1.76,3.11,3.11,0,0,0-2-.59,2.79,2.79,0,0,0-2.34,1.13,4.53,4.53,0,0,0-.85,2.9,4.58,4.58,0,0,0,.81,2.84,2.78,2.78,0,0,0,2.36,1.06,2.75,2.75,0,0,0,3-2.65h1.06a4.24,4.24,0,0,1-1.33,2.68,4,4,0,0,1-2.72.9,3.88,3.88,0,0,1-3.2-1.4,5.21,5.21,0,0,1-1.06-3.44,5.41,5.41,0,0,1,1.1-3.49,3.81,3.81,0,0,1,3.19-1.48A4.3,4.3,0,0,1,292.58,46.6Z"/><path class="cls-1" d="M297.88,43v3h2.43V47h-2.43v6.3a1.43,1.43,0,0,0,.22.88,1,1,0,0,0,.81.25h1.17v.94h-1.31a1.91,1.91,0,0,1-1.55-.56,2.25,2.25,0,0,1-.41-1.51V47h-2V46h2V43.48Z"/><path class="cls-1" d="M303.67,43a.76.76,0,0,1,.27.63.9.9,0,0,1-.29.65.94.94,0,0,1-.63.25.87.87,0,0,1-.65-.25.89.89,0,0,1-.27-.65.76.76,0,0,1,.27-.63.84.84,0,0,1,.65-.27A.88.88,0,0,1,303.67,43ZM302.49,46h1.08v9.31h-1.08Z"/><path class="cls-1" d="M313.74,47.26a5.75,5.75,0,0,1,0,6.86,4.41,4.41,0,0,1-6.59,0A5.22,5.22,0,0,1,306,50.7a5.16,5.16,0,0,1,1.15-3.44,4,4,0,0,1,3.28-1.48A4.09,4.09,0,0,1,313.74,47.26Zm-5.8.68a5,5,0,0,0,0,5.49,3.19,3.19,0,0,0,5,0,4.52,4.52,0,0,0,.83-2.74,4.45,4.45,0,0,0-.83-2.75,3.19,3.19,0,0,0-5,0Z"/><path class="cls-1" d="M324.34,49.62v5.72h-1.08V49.69q0-3-2.65-3a2.46,2.46,0,0,0-1.87.81,3.29,3.29,0,0,0-.88,2.2v5.62h-1.08V46h1.08v1.53a3.78,3.78,0,0,1,1.26-1.31,3.28,3.28,0,0,1,1.76-.47Q324.34,45.79,324.34,49.62Z"/><path class="cls-1" d="M328.87,55a3.31,3.31,0,0,1-1.8,3.12l-.38-.63a2.76,2.76,0,0,0,1.37-2.2l-.27,0a1,1,0,0,1-.67-.23.84.84,0,0,1-.25-.65.8.8,0,0,1,.25-.67.86.86,0,0,1,.67-.25Q328.87,53.54,328.87,55Zm-.43-7.83a.82.82,0,0,1,.27.65.89.89,0,0,1-.29.65.94.94,0,0,1-.63.25.85.85,0,0,1-.65-.27.87.87,0,0,1-.27-.63.82.82,0,0,1,.27-.65.84.84,0,0,1,.65-.25A.88.88,0,0,1,328.44,47.21Z"/><path class="cls-1" d="M135.61,74.24h1.08v13.1h-1V85.51a3.34,3.34,0,0,1-3.26,2.09,3.78,3.78,0,0,1-3.15-1.48,6.21,6.21,0,0,1,0-6.84,3.65,3.65,0,0,1,3.1-1.49A3.4,3.4,0,0,1,135.61,80Zm-5.51,5.65a4.49,4.49,0,0,0-.77,2.79,4.75,4.75,0,0,0,.76,2.81,2.8,2.8,0,0,0,2.43,1.19,2.76,2.76,0,0,0,2.36-1.15,4.52,4.52,0,0,0,.77-2.7v-.22a4.5,4.5,0,0,0-.83-2.79,2.7,2.7,0,0,0-2.27-1.12A2.85,2.85,0,0,0,130.1,79.89Z"/><path class="cls-1" d="M146,79.28A6.49,6.49,0,0,1,147.09,83h-7.56a4.38,4.38,0,0,0,.92,2.68,2.93,2.93,0,0,0,2.3,1,3.13,3.13,0,0,0,2.05-.67,3.48,3.48,0,0,0,1-1.64h1.1a4.36,4.36,0,0,1-1.24,2.21,4.16,4.16,0,0,1-2.9,1,4,4,0,0,1-3.13-1.33,5.14,5.14,0,0,1-1.21-3.58,5.2,5.2,0,0,1,1.15-3.44,4.27,4.27,0,0,1,6.46,0Zm-5.51.4a4.09,4.09,0,0,0-1,2.45H146q-.27-3.4-3.22-3.4A2.79,2.79,0,0,0,140.52,79.68Z"/><path class="cls-1" d="M155.46,78.6a3.53,3.53,0,0,1,1.28,2.48h-1.08a2.65,2.65,0,0,0-.94-1.76,3.11,3.11,0,0,0-2-.59,2.79,2.79,0,0,0-2.34,1.13,4.53,4.53,0,0,0-.85,2.9,4.58,4.58,0,0,0,.81,2.84,2.78,2.78,0,0,0,2.36,1.06,2.75,2.75,0,0,0,3-2.65h1.06a4.24,4.24,0,0,1-1.33,2.68,4,4,0,0,1-2.72.9,3.88,3.88,0,0,1-3.2-1.4,5.21,5.21,0,0,1-1.06-3.44,5.41,5.41,0,0,1,1.1-3.49,3.81,3.81,0,0,1,3.19-1.48A4.3,4.3,0,0,1,155.46,78.6Z"/><path class="cls-1" d="M165.58,79.28A6.49,6.49,0,0,1,166.64,83h-7.56a4.37,4.37,0,0,0,.92,2.68,2.93,2.93,0,0,0,2.3,1,3.13,3.13,0,0,0,2.05-.67,3.5,3.5,0,0,0,1-1.64h1.1a4.37,4.37,0,0,1-1.24,2.21,4.16,4.16,0,0,1-2.9,1,4,4,0,0,1-3.13-1.33A5.14,5.14,0,0,1,158,82.68a5.2,5.2,0,0,1,1.15-3.44,4.27,4.27,0,0,1,6.46,0Zm-5.51.4a4.09,4.09,0,0,0-1,2.45h6.41q-.27-3.4-3.22-3.4A2.78,2.78,0,0,0,160.07,79.68Z"/><path class="cls-1" d="M175.93,81.62v5.72h-1.08V81.69q0-3-2.65-3a2.46,2.46,0,0,0-1.87.81,3.28,3.28,0,0,0-.88,2.2v5.62h-1.08V78h1.08v1.53a3.78,3.78,0,0,1,1.26-1.31,3.28,3.28,0,0,1,1.76-.47Q175.93,77.79,175.93,81.62Z"/><path class="cls-1" d="M180.45,75v3h2.43V79h-2.43v6.3a1.43,1.43,0,0,0,.22.88,1,1,0,0,0,.81.25h1.17v.94h-1.31a1.91,1.91,0,0,1-1.55-.56,2.25,2.25,0,0,1-.41-1.51V79h-2V78h2V75.48Z"/><path class="cls-1" d="M189.77,78v1.1a5,5,0,0,0-1.42-.2,2.3,2.3,0,0,0-2,1.12,4,4,0,0,0-.74,2.43v4.91h-1.08V78h1.08v1.78a3.42,3.42,0,0,1,1-1.39,2.68,2.68,0,0,1,1.8-.65A3.67,3.67,0,0,1,189.77,78Z"/><path class="cls-1" d="M197.84,78.85a3.6,3.6,0,0,1,.83,2.5v6h-1V85.56a4.82,4.82,0,0,1-1.51,1.39,4.69,4.69,0,0,1-2.43.65,3.36,3.36,0,0,1-2.21-.7,2.4,2.4,0,0,1-.85-1.93,2.75,2.75,0,0,1,1.46-2.59,6.28,6.28,0,0,1,3.11-.67l2.38,0v-.34a2.36,2.36,0,0,0-2.7-2.65,3.2,3.2,0,0,0-1.94.52,2.22,2.22,0,0,0-1,1.62h-1.06a3.25,3.25,0,0,1,1.31-2.34,4.55,4.55,0,0,1,2.7-.72A3.67,3.67,0,0,1,197.84,78.85Zm-.25,3.73-2.32,0q-3.53,0-3.53,2.36a1.55,1.55,0,0,0,.59,1.26,2.39,2.39,0,0,0,1.58.49,3.87,3.87,0,0,0,2.59-1,2.75,2.75,0,0,0,1.08-2.07Z"/><path class="cls-1" d="M201.27,74.24h1.08v13.1h-1.08Z"/><path class="cls-1" d="M206.69,75a.76.76,0,0,1,.27.63.9.9,0,0,1-.29.65.94.94,0,0,1-.63.25.87.87,0,0,1-.65-.25.89.89,0,0,1-.27-.65.76.76,0,0,1,.27-.63.84.84,0,0,1,.65-.27A.88.88,0,0,1,206.69,75ZM205.5,78h1.08v9.31H205.5Z"/><path class="cls-1" d="M208.89,78h7.22v.83l-6,7.54h6.3v.94h-7.69V86.5l6-7.52h-5.81Z"/><path class="cls-1" d="M225.05,79.28A6.49,6.49,0,0,1,226.11,83h-7.56a4.37,4.37,0,0,0,.92,2.68,2.93,2.93,0,0,0,2.3,1,3.13,3.13,0,0,0,2.05-.67,3.5,3.5,0,0,0,1-1.64h1.1a4.37,4.37,0,0,1-1.24,2.21,4.16,4.16,0,0,1-2.9,1,4,4,0,0,1-3.13-1.33,5.14,5.14,0,0,1-1.21-3.58,5.2,5.2,0,0,1,1.15-3.44,4.27,4.27,0,0,1,6.46,0Zm-5.51.4a4.09,4.09,0,0,0-1,2.45H225q-.27-3.4-3.22-3.4A2.78,2.78,0,0,0,219.54,79.68Z"/><path class="cls-1" d="M234.86,74.24h1.08v13.1h-1V85.51a3.34,3.34,0,0,1-3.26,2.09,3.78,3.78,0,0,1-3.15-1.48,6.21,6.21,0,0,1,0-6.84,3.65,3.65,0,0,1,3.1-1.49A3.4,3.4,0,0,1,234.86,80Zm-5.51,5.65a4.49,4.49,0,0,0-.77,2.79,4.75,4.75,0,0,0,.76,2.81,2.8,2.8,0,0,0,2.43,1.19,2.76,2.76,0,0,0,2.36-1.15,4.52,4.52,0,0,0,.77-2.7v-.22a4.5,4.5,0,0,0-.83-2.79,2.7,2.7,0,0,0-2.27-1.12A2.85,2.85,0,0,0,229.35,79.89Z"/><path class="cls-1" d="M245.93,75a.76.76,0,0,1,.27.63.9.9,0,0,1-.29.65.94.94,0,0,1-.63.25.89.89,0,0,1-.92-.9.76.76,0,0,1,.27-.63.85.85,0,0,1,.65-.27A.88.88,0,0,1,245.93,75ZM244.74,78h1.08v9.31h-1.08Z"/><path class="cls-1" d="M256.19,81.62v5.72h-1.08V81.69q0-3-2.65-3a2.46,2.46,0,0,0-1.87.81,3.28,3.28,0,0,0-.88,2.2v5.62h-1.08V78h1.08v1.53A3.78,3.78,0,0,1,251,78.25a3.28,3.28,0,0,1,1.76-.47Q256.19,77.79,256.19,81.62Z"/><path class="cls-1" d="M265.33,80.65h-1.06a2.21,2.21,0,0,0-.78-1.42,3.7,3.7,0,0,0-3.56-.09,1.3,1.3,0,0,0-.65,1.12,1.28,1.28,0,0,0,.83,1.13,12.5,12.5,0,0,0,2,.65,9.35,9.35,0,0,1,2.41.87,2.1,2.1,0,0,1,1.12,1.87q0,2.83-3.78,2.83-3.58,0-3.91-3.19H259a2.53,2.53,0,0,0,.86,1.76,3.22,3.22,0,0,0,1.94.49q2.7,0,2.7-1.84a1.41,1.41,0,0,0-.92-1.3,12.39,12.39,0,0,0-2.07-.65,9,9,0,0,1-2.27-.83,2,2,0,0,1-1.06-1.78,2.1,2.1,0,0,1,1-1.82,4.19,4.19,0,0,1,2.45-.67Q264.94,77.79,265.33,80.65Z"/><path class="cls-1" d="M267.33,78h1.08v5.69A3.3,3.3,0,0,0,269,85.9a2.49,2.49,0,0,0,2,.76,2.6,2.6,0,0,0,1.89-.83,3.28,3.28,0,0,0,.92-2.14V78h1.08v9.31h-1.08V85.78a3.41,3.41,0,0,1-3.1,1.82q-3.4,0-3.4-3.82Z"/><path class="cls-1" d="M282.43,78v1.1a5,5,0,0,0-1.42-.2A2.3,2.3,0,0,0,279,80a4,4,0,0,0-.74,2.43v4.91h-1.08V78h1.08v1.78a3.42,3.42,0,0,1,1-1.39,2.68,2.68,0,0,1,1.8-.65A3.67,3.67,0,0,1,282.43,78Z"/><path class="cls-1" d="M290.5,78.85a3.59,3.59,0,0,1,.83,2.5v6h-1V85.56a4.82,4.82,0,0,1-1.51,1.39,4.69,4.69,0,0,1-2.43.65,3.36,3.36,0,0,1-2.21-.7A2.4,2.4,0,0,1,283.3,85a2.75,2.75,0,0,1,1.46-2.59,6.28,6.28,0,0,1,3.12-.67l2.38,0v-.34a2.36,2.36,0,0,0-2.7-2.65,3.2,3.2,0,0,0-1.94.52,2.21,2.21,0,0,0-1,1.62h-1.06a3.25,3.25,0,0,1,1.31-2.34,4.55,4.55,0,0,1,2.7-.72A3.66,3.66,0,0,1,290.5,78.85Zm-.25,3.73-2.32,0q-3.53,0-3.53,2.36a1.55,1.55,0,0,0,.59,1.26,2.39,2.39,0,0,0,1.58.49,3.87,3.87,0,0,0,2.59-1,2.75,2.75,0,0,0,1.08-2.07Z"/><path class="cls-1" d="M301.15,81.62v5.72h-1.08V81.69q0-3-2.65-3a2.46,2.46,0,0,0-1.87.81,3.29,3.29,0,0,0-.88,2.2v5.62h-1.08V78h1.08v1.53a3.78,3.78,0,0,1,1.26-1.31,3.28,3.28,0,0,1,1.76-.47Q301.15,77.79,301.15,81.62Z"/><path class="cls-1" d="M310.06,78.6a3.53,3.53,0,0,1,1.28,2.48h-1.08a2.64,2.64,0,0,0-.94-1.76,3.11,3.11,0,0,0-2-.59A2.79,2.79,0,0,0,305,79.86a5.39,5.39,0,0,0,0,5.74,2.78,2.78,0,0,0,2.36,1.06,2.75,2.75,0,0,0,3-2.65h1.06A4.24,4.24,0,0,1,310,86.7a4,4,0,0,1-2.72.9,3.88,3.88,0,0,1-3.2-1.4,5.21,5.21,0,0,1-1.06-3.44,5.4,5.4,0,0,1,1.1-3.49,3.82,3.82,0,0,1,3.19-1.48A4.31,4.31,0,0,1,310.06,78.6Z"/><path class="cls-1" d="M320.18,79.28A6.49,6.49,0,0,1,321.24,83h-7.56a4.38,4.38,0,0,0,.92,2.68,2.93,2.93,0,0,0,2.3,1A3.13,3.13,0,0,0,319,86a3.48,3.48,0,0,0,1-1.64H321a4.36,4.36,0,0,1-1.24,2.21,4.16,4.16,0,0,1-2.9,1,4,4,0,0,1-3.13-1.33,5.14,5.14,0,0,1-1.21-3.58,5.2,5.2,0,0,1,1.15-3.44,4.27,4.27,0,0,1,6.46,0Zm-5.51.4a4.09,4.09,0,0,0-1,2.45h6.41q-.27-3.4-3.22-3.4A2.79,2.79,0,0,0,314.67,79.68Z"/><path class="cls-1" d="M325.24,87a3.31,3.31,0,0,1-1.8,3.12l-.38-.63a2.76,2.76,0,0,0,1.37-2.2l-.27,0a1,1,0,0,1-.67-.23.84.84,0,0,1-.25-.65.8.8,0,0,1,.25-.67.86.86,0,0,1,.67-.25Q325.24,85.54,325.24,87Zm-.43-7.83a.81.81,0,0,1,.27.65.89.89,0,0,1-.29.65.94.94,0,0,1-.63.25.85.85,0,0,1-.65-.27.87.87,0,0,1-.27-.63.81.81,0,0,1,.27-.65.85.85,0,0,1,.65-.25A.88.88,0,0,1,324.81,79.21Z"/><path class="cls-1" d="M141.95,106.49v12.85h-1.08v-11.9h-3.26a1.28,1.28,0,0,0-1,.36,1.65,1.65,0,0,0-.32,1.15V110H139V111h-2.79v8.37h-1.08V111h-2.48V110h2.48v-1.1a2.46,2.46,0,0,1,.58-1.78,2.24,2.24,0,0,1,1.76-.67Z"/><path class="cls-1" d="M151.92,111.26a5.76,5.76,0,0,1,0,6.86,4.41,4.41,0,0,1-6.59,0,5.22,5.22,0,0,1-1.13-3.42,5.15,5.15,0,0,1,1.15-3.44,4,4,0,0,1,3.28-1.48A4.09,4.09,0,0,1,151.92,111.26Zm-5.8.68a5,5,0,0,0,0,5.49,3.19,3.19,0,0,0,5,0,4.51,4.51,0,0,0,.83-2.74,4.45,4.45,0,0,0-.83-2.75,3.19,3.19,0,0,0-5,0Z"/><path class="cls-1" d="M153.92,110h1.21l2.52,7.92L160,110h1l2.34,7.92L165.9,110h1.19l-3.19,9.31h-1l-2.34-7.9-2.38,7.9h-1Z"/><path class="cls-1" d="M175.19,112.65h-1.06a2.2,2.2,0,0,0-.77-1.42,3.7,3.7,0,0,0-3.56-.09,1.23,1.23,0,0,0,.18,2.25,12.54,12.54,0,0,0,2,.65,9.38,9.38,0,0,1,2.41.87,2.1,2.1,0,0,1,1.12,1.87q0,2.83-3.78,2.83-3.58,0-3.91-3.19h1.06a2.53,2.53,0,0,0,.86,1.76,3.22,3.22,0,0,0,1.94.49q2.7,0,2.7-1.84a1.41,1.41,0,0,0-.92-1.3,12.45,12.45,0,0,0-2.07-.65,9,9,0,0,1-2.27-.83,2,2,0,0,1-1.06-1.78,2.1,2.1,0,0,1,1-1.82,4.18,4.18,0,0,1,2.45-.67Q174.8,109.79,175.19,112.65Z"/><path class="cls-1" d="M190.55,111.26a5.75,5.75,0,0,1,0,6.86,4.41,4.41,0,0,1-6.59,0,5.22,5.22,0,0,1-1.13-3.42,5.16,5.16,0,0,1,1.15-3.44,4,4,0,0,1,3.28-1.48A4.09,4.09,0,0,1,190.55,111.26Zm-5.8.68a5,5,0,0,0,0,5.49,3.19,3.19,0,0,0,5,0,4.52,4.52,0,0,0,.83-2.74,4.45,4.45,0,0,0-.83-2.75,3.19,3.19,0,0,0-5,0Z"/><path class="cls-1" d="M201.15,113.62v5.72h-1.08v-5.65q0-3-2.65-3a2.46,2.46,0,0,0-1.87.81,3.29,3.29,0,0,0-.88,2.2v5.62h-1.08V110h1.08v1.53a3.78,3.78,0,0,1,1.26-1.31,3.28,3.28,0,0,1,1.76-.47Q201.15,109.79,201.15,113.62Z"/><path class="cls-1" d="M216.25,110.85a3.59,3.59,0,0,1,.83,2.5v6h-1v-1.78a4.82,4.82,0,0,1-1.51,1.39,4.69,4.69,0,0,1-2.43.65,3.36,3.36,0,0,1-2.21-.7A2.4,2.4,0,0,1,209,117a2.75,2.75,0,0,1,1.46-2.59,6.28,6.28,0,0,1,3.12-.67l2.38,0v-.34a2.36,2.36,0,0,0-2.7-2.65,3.2,3.2,0,0,0-1.94.52,2.21,2.21,0,0,0-1,1.62h-1.06a3.25,3.25,0,0,1,1.31-2.34,4.55,4.55,0,0,1,2.7-.72A3.66,3.66,0,0,1,216.25,110.85Zm-.25,3.73-2.32,0q-3.53,0-3.53,2.36a1.55,1.55,0,0,0,.59,1.26,2.39,2.39,0,0,0,1.58.49,3.87,3.87,0,0,0,2.59-1,2.75,2.75,0,0,0,1.08-2.07Z"/><path class="cls-1" d="M226.22,112.65h-1.06a2.2,2.2,0,0,0-.77-1.42,3.7,3.7,0,0,0-3.56-.09,1.3,1.3,0,0,0-.65,1.12,1.28,1.28,0,0,0,.83,1.13,12.48,12.48,0,0,0,2,.65,9.36,9.36,0,0,1,2.41.87,2.1,2.1,0,0,1,1.12,1.87q0,2.83-3.78,2.83-3.58,0-3.91-3.19h1.06a2.53,2.53,0,0,0,.87,1.76,3.22,3.22,0,0,0,1.94.49q2.7,0,2.7-1.84a1.41,1.41,0,0,0-.92-1.3,12.45,12.45,0,0,0-2.07-.65,9,9,0,0,1-2.27-.83,2,2,0,0,1-1.06-1.78,2.1,2.1,0,0,1,1-1.82,4.18,4.18,0,0,1,2.45-.67Q225.82,109.79,226.22,112.65Z"/><path class="cls-1" d="M235.09,112.65H234a2.2,2.2,0,0,0-.77-1.42,3.7,3.7,0,0,0-3.56-.09,1.23,1.23,0,0,0,.18,2.25,12.55,12.55,0,0,0,2,.65,9.36,9.36,0,0,1,2.41.87,2.1,2.1,0,0,1,1.12,1.87q0,2.83-3.78,2.83-3.58,0-3.91-3.19h1.06a2.53,2.53,0,0,0,.86,1.76,3.22,3.22,0,0,0,1.94.49q2.7,0,2.7-1.84a1.41,1.41,0,0,0-.92-1.3,12.39,12.39,0,0,0-2.07-.65,9,9,0,0,1-2.27-.83,2,2,0,0,1-1.06-1.78,2.1,2.1,0,0,1,1-1.82,4.19,4.19,0,0,1,2.45-.67Q234.7,109.79,235.09,112.65Z"/><path class="cls-1" d="M244.17,111.28a6.49,6.49,0,0,1,1.06,3.73h-7.56a4.37,4.37,0,0,0,.92,2.68,2.93,2.93,0,0,0,2.3,1,3.12,3.12,0,0,0,2.05-.67,3.48,3.48,0,0,0,1-1.64H245a4.34,4.34,0,0,1-1.24,2.21,4.15,4.15,0,0,1-2.9,1,4,4,0,0,1-3.13-1.33,5.14,5.14,0,0,1-1.21-3.58,5.19,5.19,0,0,1,1.15-3.44,4.27,4.27,0,0,1,6.46,0Zm-5.51.4a4.09,4.09,0,0,0-1,2.45h6.41q-.27-3.4-3.22-3.4A2.78,2.78,0,0,0,238.66,111.68Z"/><path class="cls-1" d="M249.21,107v3h2.43V111h-2.43v6.3a1.42,1.42,0,0,0,.22.88,1,1,0,0,0,.81.25h1.17v.94h-1.31a1.92,1.92,0,0,1-1.55-.56,2.26,2.26,0,0,1-.41-1.51V111h-2V110h2v-2.55Z"/><path class="cls-1" d="M265.91,110.6a3.53,3.53,0,0,1,1.28,2.48h-1.08a2.64,2.64,0,0,0-.94-1.76,3.11,3.11,0,0,0-2-.59,2.79,2.79,0,0,0-2.34,1.13,5.39,5.39,0,0,0,0,5.74,2.78,2.78,0,0,0,2.36,1.06,2.75,2.75,0,0,0,3-2.65h1.06a4.24,4.24,0,0,1-1.33,2.68,4,4,0,0,1-2.72.9,3.88,3.88,0,0,1-3.2-1.4,5.21,5.21,0,0,1-1.06-3.44,5.4,5.4,0,0,1,1.1-3.49,3.82,3.82,0,0,1,3.19-1.48A4.31,4.31,0,0,1,265.91,110.6Z"/><path class="cls-1" d="M269,106.24H270v5.49a3.57,3.57,0,0,1,1.3-1.46,3.3,3.3,0,0,1,1.76-.49,3.25,3.25,0,0,1,2.48.94,3.76,3.76,0,0,1,.9,2.68v5.94h-1.08v-5.8a3.07,3.07,0,0,0-.68-2.11,2.57,2.57,0,0,0-1.93-.72,2.5,2.5,0,0,0-2,.94A3.35,3.35,0,0,0,270,114v5.38H269Z"/><path class="cls-1" d="M285.6,110.85a3.6,3.6,0,0,1,.83,2.5v6h-1v-1.78a4.8,4.8,0,0,1-1.51,1.39,4.69,4.69,0,0,1-2.43.65,3.35,3.35,0,0,1-2.21-.7,2.4,2.4,0,0,1-.85-1.93,2.75,2.75,0,0,1,1.46-2.59,6.28,6.28,0,0,1,3.11-.67l2.38,0v-.34a2.36,2.36,0,0,0-2.7-2.65,3.2,3.2,0,0,0-1.94.52,2.22,2.22,0,0,0-1,1.62h-1.06a3.25,3.25,0,0,1,1.31-2.34,4.55,4.55,0,0,1,2.7-.72A3.67,3.67,0,0,1,285.6,110.85Zm-.25,3.73-2.32,0q-3.53,0-3.53,2.36a1.55,1.55,0,0,0,.59,1.26,2.38,2.38,0,0,0,1.58.49,3.87,3.87,0,0,0,2.59-1,2.75,2.75,0,0,0,1.08-2.07Z"/><path class="cls-1" d="M290.43,107a.76.76,0,0,1,.27.63.9.9,0,0,1-.29.65.94.94,0,0,1-.63.25.88.88,0,0,1-.65-.25.89.89,0,0,1-.27-.65.76.76,0,0,1,.27-.63.84.84,0,0,1,.65-.27A.88.88,0,0,1,290.43,107ZM289.24,110h1.08v9.31h-1.08Z"/><path class="cls-1" d="M300.69,113.62v5.72h-1.08v-5.65q0-3-2.65-3a2.46,2.46,0,0,0-1.87.81,3.28,3.28,0,0,0-.88,2.2v5.62h-1.08V110h1.08v1.53a3.78,3.78,0,0,1,1.26-1.31,3.28,3.28,0,0,1,1.76-.47Q300.69,109.79,300.69,113.62Z"/><path class="cls-1" d="M309.83,112.65h-1.06a2.21,2.21,0,0,0-.78-1.42,3.7,3.7,0,0,0-3.56-.09,1.3,1.3,0,0,0-.65,1.12,1.28,1.28,0,0,0,.83,1.13,12.5,12.5,0,0,0,2,.65,9.35,9.35,0,0,1,2.41.87,2.1,2.1,0,0,1,1.12,1.87q0,2.83-3.78,2.83-3.58,0-3.91-3.19h1.06a2.53,2.53,0,0,0,.86,1.76,3.22,3.22,0,0,0,1.94.49q2.7,0,2.7-1.84a1.41,1.41,0,0,0-.92-1.3,12.39,12.39,0,0,0-2.07-.65,9,9,0,0,1-2.27-.83,2,2,0,0,1-1.06-1.78,2.1,2.1,0,0,1,1-1.82,4.19,4.19,0,0,1,2.45-.67Q309.43,109.79,309.83,112.65Z"/><path class="cls-1" d="M314.1,119a3.31,3.31,0,0,1-1.8,3.12l-.38-.63a2.76,2.76,0,0,0,1.37-2.2l-.27,0a1,1,0,0,1-.67-.23.84.84,0,0,1-.25-.65.8.8,0,0,1,.25-.67.86.86,0,0,1,.67-.25Q314.09,117.54,314.1,119Zm-.43-7.83a.82.82,0,0,1,.27.65.89.89,0,0,1-.29.65.94.94,0,0,1-.63.25.85.85,0,0,1-.65-.27.87.87,0,0,1-.27-.63.82.82,0,0,1,.27-.65A.84.84,0,0,1,313,111,.88.88,0,0,1,313.66,111.21Z"/><path class="cls-1" d="M156.41,143.26a5.75,5.75,0,0,1,0,6.86,4.41,4.41,0,0,1-6.59,0,5.22,5.22,0,0,1-1.13-3.42,5.16,5.16,0,0,1,1.15-3.44,4,4,0,0,1,3.28-1.48A4.09,4.09,0,0,1,156.41,143.26Zm-5.8.68a5,5,0,0,0,0,5.49,3.19,3.19,0,0,0,5,0,4.52,4.52,0,0,0,.83-2.74,4.45,4.45,0,0,0-.83-2.75,3.19,3.19,0,0,0-5,0Z"/><path class="cls-1" d="M164.71,142v1.1a4.94,4.94,0,0,0-1.42-.2,2.3,2.3,0,0,0-2,1.12,4,4,0,0,0-.74,2.43v4.91h-1.08V142h1.08v1.78a3.41,3.41,0,0,1,1-1.39,2.68,2.68,0,0,1,1.8-.65A3.67,3.67,0,0,1,164.71,142Z"/><path class="cls-1" d="M167.66,139a.76.76,0,0,1,.27.63.9.9,0,0,1-.29.65.94.94,0,0,1-.63.25.88.88,0,0,1-.65-.25.89.89,0,0,1-.27-.65.76.76,0,0,1,.27-.63.84.84,0,0,1,.65-.27A.88.88,0,0,1,167.66,139ZM166.47,142h1.08v9.31h-1.08Z"/><path class="cls-1" d="M177.52,143.91V142h1.08v8.62q0,4.5-4.18,4.5a4.47,4.47,0,0,1-2.83-.79,3.39,3.39,0,0,1-1.19-2.23h1.08a2.41,2.41,0,0,0,.86,1.55,3.24,3.24,0,0,0,2.07.58q3.09,0,3.1-3.47V149a3.46,3.46,0,0,1-3.33,2.12,3.87,3.87,0,0,1-3.11-1.39,5.51,5.51,0,0,1,0-6.55,3.85,3.85,0,0,1,3.11-1.4A3.46,3.46,0,0,1,177.52,143.91Zm-5.6-.09a4,4,0,0,0-.83,2.65,4.14,4.14,0,0,0,.77,2.59,2.85,2.85,0,0,0,2.43,1.13,2.91,2.91,0,0,0,2.41-1.08,4.72,4.72,0,0,0,0-5.29,3.12,3.12,0,0,0-4.79,0Z"/><path class="cls-1" d="M182.6,139a.76.76,0,0,1,.27.63.9.9,0,0,1-.29.65.94.94,0,0,1-.63.25.89.89,0,0,1-.92-.9.76.76,0,0,1,.27-.63.85.85,0,0,1,.65-.27A.88.88,0,0,1,182.6,139ZM181.41,142h1.08v9.31h-1.08Z"/><path class="cls-1" d="M192.86,145.62v5.72h-1.08v-5.65q0-3-2.65-3a2.46,2.46,0,0,0-1.87.81,3.28,3.28,0,0,0-.88,2.2v5.62H185.3V142h1.08v1.53a3.78,3.78,0,0,1,1.26-1.31,3.28,3.28,0,0,1,1.76-.47Q192.86,141.79,192.86,145.62Z"/><path class="cls-1" d="M208.48,143.26a5.75,5.75,0,0,1,0,6.86,4.41,4.41,0,0,1-6.59,0,5.22,5.22,0,0,1-1.13-3.42,5.16,5.16,0,0,1,1.15-3.44,4,4,0,0,1,3.28-1.48A4.09,4.09,0,0,1,208.48,143.26Zm-5.79.68a5,5,0,0,0,0,5.49,3.19,3.19,0,0,0,5,0,4.51,4.51,0,0,0,.83-2.74,4.45,4.45,0,0,0-.83-2.75,3.19,3.19,0,0,0-5,0Z"/><path class="cls-1" d="M217,138.49v1h-1.57a1.28,1.28,0,0,0-1,.36A1.65,1.65,0,0,0,214,141V142h2.79V143H214v8.37H213V143h-2.48V142H213v-1.1a2.46,2.46,0,0,1,.58-1.78,2.24,2.24,0,0,1,1.76-.67Z"/><path class="cls-1" d="M231.61,143.28a6.26,6.26,0,0,1,0,6.84,3.74,3.74,0,0,1-3.11,1.48,3.41,3.41,0,0,1-3.26-2.2v5.51h-1.08V142h1v1.84a3.42,3.42,0,0,1,3.28-2.09A3.74,3.74,0,0,1,231.61,143.28Zm-5.62.61a4.52,4.52,0,0,0-.77,2.75v.2a4.35,4.35,0,0,0,.83,2.75,2.73,2.73,0,0,0,2.27,1.08,2.91,2.91,0,0,0,2.45-1.15,4.74,4.74,0,0,0,.76-2.81,4.83,4.83,0,0,0-.74-2.81,2.82,2.82,0,0,0-2.43-1.21A2.73,2.73,0,0,0,226,143.89Z"/><path class="cls-1" d="M239.8,142v1.1a5,5,0,0,0-1.42-.2,2.3,2.3,0,0,0-2,1.12,4,4,0,0,0-.74,2.43v4.91h-1.08V142h1.08v1.78a3.42,3.42,0,0,1,1-1.39,2.68,2.68,0,0,1,1.8-.65A3.67,3.67,0,0,1,239.8,142Z"/><path class="cls-1" d="M248.39,143.26a5.76,5.76,0,0,1,0,6.86,4.41,4.41,0,0,1-6.59,0,5.22,5.22,0,0,1-1.13-3.42,5.15,5.15,0,0,1,1.15-3.44,4,4,0,0,1,3.28-1.48A4.09,4.09,0,0,1,248.39,143.26Zm-5.8.68a5,5,0,0,0,0,5.49,3.19,3.19,0,0,0,5,0,4.51,4.51,0,0,0,.83-2.74,4.45,4.45,0,0,0-.83-2.75,3.19,3.19,0,0,0-5,0Z"/><path class="cls-1" d="M258.45,138.24h1.08v13.1h-1v-1.84a3.34,3.34,0,0,1-3.26,2.09,3.78,3.78,0,0,1-3.15-1.48,6.21,6.21,0,0,1,0-6.84,3.65,3.65,0,0,1,3.1-1.49,3.4,3.4,0,0,1,3.26,2.21Zm-5.51,5.65a4.49,4.49,0,0,0-.77,2.79,4.75,4.75,0,0,0,.76,2.81,2.8,2.8,0,0,0,2.43,1.19,2.76,2.76,0,0,0,2.36-1.15,4.52,4.52,0,0,0,.77-2.7v-.22a4.5,4.5,0,0,0-.83-2.79,2.7,2.7,0,0,0-2.27-1.12A2.85,2.85,0,0,0,252.94,143.89Z"/><path class="cls-1" d="M261.8,142h1.08v5.69a3.3,3.3,0,0,0,.61,2.18,2.49,2.49,0,0,0,2,.76,2.6,2.6,0,0,0,1.89-.83,3.28,3.28,0,0,0,.92-2.14V142h1.08v9.31h-1.08v-1.57a3.41,3.41,0,0,1-3.1,1.82q-3.4,0-3.4-3.82Z"/><path class="cls-1" d="M278.28,142.6a3.53,3.53,0,0,1,1.28,2.48h-1.08a2.65,2.65,0,0,0-.94-1.76,3.11,3.11,0,0,0-2-.59,2.79,2.79,0,0,0-2.34,1.13,5.39,5.39,0,0,0,0,5.74,2.78,2.78,0,0,0,2.36,1.06,2.75,2.75,0,0,0,3-2.65h1.06a4.25,4.25,0,0,1-1.33,2.68,4,4,0,0,1-2.72.9,3.88,3.88,0,0,1-3.2-1.4,5.2,5.2,0,0,1-1.06-3.44,5.41,5.41,0,0,1,1.1-3.49,3.82,3.82,0,0,1,3.19-1.48A4.31,4.31,0,0,1,278.28,142.6Z"/><path class="cls-1" d="M283.58,139v3H286V143h-2.43v6.3a1.43,1.43,0,0,0,.22.88,1,1,0,0,0,.81.25h1.17v.94h-1.31a1.91,1.91,0,0,1-1.55-.56,2.25,2.25,0,0,1-.41-1.51V143h-2V142h2v-2.55Z"/><path class="cls-1" d="M294.52,144.65h-1.06a2.2,2.2,0,0,0-.77-1.42,3.7,3.7,0,0,0-3.56-.09,1.23,1.23,0,0,0,.18,2.25,12.54,12.54,0,0,0,2,.65,9.38,9.38,0,0,1,2.41.87,2.1,2.1,0,0,1,1.12,1.87q0,2.83-3.78,2.83-3.58,0-3.91-3.19h1.06a2.53,2.53,0,0,0,.86,1.76,3.22,3.22,0,0,0,1.94.49q2.7,0,2.7-1.84a1.41,1.41,0,0,0-.92-1.3,12.45,12.45,0,0,0-2.07-.65,9,9,0,0,1-2.27-.83,2,2,0,0,1-1.06-1.78,2.1,2.1,0,0,1,1-1.82,4.18,4.18,0,0,1,2.45-.67Q294.12,141.79,294.52,144.65Z"/><path class="cls-1" d="M298.79,151a3.31,3.31,0,0,1-1.8,3.12l-.38-.63a2.75,2.75,0,0,0,1.37-2.2l-.27,0a1,1,0,0,1-.67-.23.84.84,0,0,1-.25-.65.8.8,0,0,1,.25-.67.87.87,0,0,1,.67-.25Q298.79,149.54,298.79,151Zm-.43-7.83a.81.81,0,0,1,.27.65.9.9,0,0,1-.29.65.94.94,0,0,1-.63.25.85.85,0,0,1-.65-.27.87.87,0,0,1-.27-.63.81.81,0,0,1,.27-.65.85.85,0,0,1,.65-.25A.88.88,0,0,1,298.35,143.21Z"/><path class="cls-1" d="M177.53,174.6a3.53,3.53,0,0,1,1.28,2.48h-1.08a2.64,2.64,0,0,0-.94-1.76,3.11,3.11,0,0,0-2-.59,2.79,2.79,0,0,0-2.34,1.13,5.39,5.39,0,0,0,0,5.74,2.78,2.78,0,0,0,2.36,1.06,2.75,2.75,0,0,0,3-2.65h1.06a4.24,4.24,0,0,1-1.33,2.68,4,4,0,0,1-2.72.9,3.88,3.88,0,0,1-3.2-1.4,5.21,5.21,0,0,1-1.06-3.44,5.4,5.4,0,0,1,1.1-3.49,3.82,3.82,0,0,1,3.19-1.48A4.31,4.31,0,0,1,177.53,174.6Z"/><path class="cls-1" d="M180.57,170.24h1.1v5.49a3.58,3.58,0,0,1,1.3-1.46,3.3,3.3,0,0,1,1.76-.49,3.25,3.25,0,0,1,2.48.94,3.76,3.76,0,0,1,.9,2.68v5.94H187v-5.8a3.07,3.07,0,0,0-.68-2.11,2.57,2.57,0,0,0-1.93-.72,2.5,2.5,0,0,0-2,.94,3.36,3.36,0,0,0-.79,2.3v5.38h-1.1Z"/><path class="cls-1" d="M197.22,174.85a3.6,3.6,0,0,1,.83,2.5v6h-1v-1.78a4.8,4.8,0,0,1-1.51,1.39,4.69,4.69,0,0,1-2.43.65,3.35,3.35,0,0,1-2.21-.7A2.4,2.4,0,0,1,190,181a2.75,2.75,0,0,1,1.46-2.59,6.28,6.28,0,0,1,3.11-.67l2.38,0v-.34a2.36,2.36,0,0,0-2.7-2.65,3.2,3.2,0,0,0-1.94.52,2.22,2.22,0,0,0-1,1.62h-1.06a3.25,3.25,0,0,1,1.31-2.34,4.55,4.55,0,0,1,2.7-.72A3.67,3.67,0,0,1,197.22,174.85Zm-.25,3.73-2.32,0q-3.53,0-3.53,2.36a1.55,1.55,0,0,0,.59,1.26,2.38,2.38,0,0,0,1.58.49,3.87,3.87,0,0,0,2.59-1,2.75,2.75,0,0,0,1.08-2.07Z"/><path class="cls-1" d="M205.57,174v1.1a4.93,4.93,0,0,0-1.42-.2,2.3,2.3,0,0,0-2,1.12,4,4,0,0,0-.74,2.43v4.91h-1.08V174h1.08v1.78a3.41,3.41,0,0,1,1-1.39,2.68,2.68,0,0,1,1.8-.65A3.66,3.66,0,0,1,205.57,174Z"/><path class="cls-1" d="M208.53,171a.76.76,0,0,1,.27.63.9.9,0,0,1-.29.65.94.94,0,0,1-.63.25.87.87,0,0,1-.65-.25.89.89,0,0,1-.27-.65.76.76,0,0,1,.27-.63.84.84,0,0,1,.65-.27A.88.88,0,0,1,208.53,171ZM207.34,174h1.08v9.31h-1.08Z"/><path class="cls-1" d="M213.48,171v3h2.43V175h-2.43v6.3a1.43,1.43,0,0,0,.22.88,1,1,0,0,0,.81.25h1.17v.94h-1.31a1.91,1.91,0,0,1-1.55-.56,2.25,2.25,0,0,1-.41-1.51V175h-2V174h2v-2.55Z"/><path class="cls-1" d="M216.5,174h1.19l3,7.76,3-7.76h1.19l-5.13,12.87h-1.17l1.57-3.8Z"/><path class="cls-1" d="M239.22,175.28a6.49,6.49,0,0,1,1.06,3.73h-7.56a4.37,4.37,0,0,0,.92,2.68,2.93,2.93,0,0,0,2.3,1A3.13,3.13,0,0,0,238,182a3.5,3.5,0,0,0,1-1.64h1.1a4.37,4.37,0,0,1-1.24,2.21,4.16,4.16,0,0,1-2.9,1,4,4,0,0,1-3.13-1.33,5.14,5.14,0,0,1-1.21-3.58,5.2,5.2,0,0,1,1.15-3.44,4.27,4.27,0,0,1,6.46,0Zm-5.51.4a4.09,4.09,0,0,0-1,2.45h6.41q-.27-3.4-3.22-3.4A2.78,2.78,0,0,0,233.71,175.68Z"/><path class="cls-1" d="M241,174h1.19l2.93,7.94L248,174h1.21l-3.56,9.31h-1.12Z"/><path class="cls-1" d="M257.5,175.28a6.49,6.49,0,0,1,1.06,3.73H251a4.37,4.37,0,0,0,.92,2.68,2.93,2.93,0,0,0,2.3,1,3.13,3.13,0,0,0,2.05-.67,3.5,3.5,0,0,0,1-1.64h1.1a4.35,4.35,0,0,1-1.24,2.21,4.15,4.15,0,0,1-2.9,1,4,4,0,0,1-3.13-1.33,5.13,5.13,0,0,1-1.21-3.58,5.2,5.2,0,0,1,1.15-3.44,4.27,4.27,0,0,1,6.46,0Zm-5.51.4a4.09,4.09,0,0,0-1,2.45h6.41q-.27-3.4-3.22-3.4A2.78,2.78,0,0,0,252,175.68Z"/><path class="cls-1" d="M267.85,177.62v5.72h-1.08v-5.65q0-3-2.65-3a2.46,2.46,0,0,0-1.87.81,3.28,3.28,0,0,0-.88,2.2v5.62h-1.08V174h1.08v1.53a3.78,3.78,0,0,1,1.26-1.31,3.28,3.28,0,0,1,1.76-.47Q267.85,173.79,267.85,177.62Z"/><path class="cls-1" d="M272.37,171v3h2.43V175h-2.43v6.3a1.43,1.43,0,0,0,.22.88,1,1,0,0,0,.81.25h1.17v.94h-1.31a1.91,1.91,0,0,1-1.55-.56,2.25,2.25,0,0,1-.41-1.51V175h-2V174h2v-2.55Z"/><path class="cls-1" d="M283.32,176.65h-1.06a2.21,2.21,0,0,0-.78-1.42,3.7,3.7,0,0,0-3.56-.09,1.3,1.3,0,0,0-.65,1.12,1.28,1.28,0,0,0,.83,1.13,12.5,12.5,0,0,0,2,.65,9.35,9.35,0,0,1,2.41.87,2.1,2.1,0,0,1,1.12,1.87q0,2.83-3.78,2.83-3.58,0-3.91-3.19H277a2.53,2.53,0,0,0,.86,1.76,3.22,3.22,0,0,0,1.94.49q2.7,0,2.7-1.84a1.41,1.41,0,0,0-.92-1.3,12.39,12.39,0,0,0-2.07-.65,9,9,0,0,1-2.27-.83,2,2,0,0,1-1.06-1.78,2.1,2.1,0,0,1,1-1.82,4.19,4.19,0,0,1,2.45-.67Q282.92,173.79,283.32,176.65Z"/><path class="cls-1" d="M212.62,213.8a.81.81,0,0,1,.27.65.89.89,0,0,1-.27.65,1,1,0,0,1-.65.25.85.85,0,0,1-.65-.27.87.87,0,0,1-.27-.63.81.81,0,0,1,.27-.65.84.84,0,0,1,.65-.25A.88.88,0,0,1,212.62,213.8Zm6,0a.88.88,0,0,1,.25.65,1,1,0,0,1-.25.65,1,1,0,0,1-.67.25.89.89,0,0,1-.65-.27.87.87,0,0,1-.27-.63.81.81,0,0,1,.27-.65.88.88,0,0,1,.65-.25A.9.9,0,0,1,218.63,213.8Zm6,0a.81.81,0,0,1,.27.65.89.89,0,0,1-.27.65,1,1,0,0,1-.65.25.89.89,0,0,1-.65-.27.87.87,0,0,1-.27-.63.81.81,0,0,1,.27-.65,1,1,0,0,1,1.3,0Z"/><path class="cls-1" d="M230.62,213.8a.81.81,0,0,1,.27.65.89.89,0,0,1-.27.65,1,1,0,0,1-.65.25.85.85,0,0,1-.65-.27.87.87,0,0,1-.27-.63.81.81,0,0,1,.27-.65.84.84,0,0,1,.65-.25A.88.88,0,0,1,230.62,213.8Zm6,0a.88.88,0,0,1,.25.65,1,1,0,0,1-.25.65,1,1,0,0,1-.67.25.89.89,0,0,1-.65-.27.87.87,0,0,1-.27-.63.81.81,0,0,1,.27-.65.88.88,0,0,1,.65-.25A.9.9,0,0,1,236.63,213.8Zm6,0a.81.81,0,0,1,.27.65.89.89,0,0,1-.27.65,1,1,0,0,1-.65.25.89.89,0,0,1-.65-.27.87.87,0,0,1-.27-.63.81.81,0,0,1,.27-.65,1,1,0,0,1,1.3,0Z"/></svg>