<svg id="图层_1" data-name="图层 1" xmlns="http://www.w3.org/2000/svg" viewBox="0 0 440 275"><defs><style>.cls-1{fill:#33353c;}</style></defs><title>币网站中英文</title><path class="cls-1" d="M189.14,19.43A45.53,45.53,0,0,1,192.9,25l-.74.51c-.22-.44-.5-.94-.84-1.49-3.5.38-7,.7-10.64.94l-.15-.73c1.4-.76,2.84-2.67,4.34-5.73H179.4v-.86H186v-3.3h-5.65v-.85H186V10.84h.86v2.65h5.62v.85H186.9v3.3h6.62v.86h-7.69a18.58,18.58,0,0,1-3.73,5.62q6.47-.53,8.75-.82-1-1.61-2.4-3.42Z"/><path class="cls-1" d="M202,10.74h.9v3h5.79v7.36h-.88V20h-4.91v5.53H202V20h-4.9v1.07h-.88V13.7H202Zm-4.9,8.4H202V14.56h-4.9Zm5.8,0h4.91V14.56h-4.91Z"/><path class="cls-1" d="M213.89,16.12a29.85,29.85,0,0,1-2,6.91l-.75-.48A28.18,28.18,0,0,0,213,15.94Zm3,8.76c-1,0-1.52-.48-1.52-1.44V14.16h.88v9.09c0,.51.3.77.9.77h3.17a1,1,0,0,0,.93-.46A11.09,11.09,0,0,0,221.7,20l.82.27a10.08,10.08,0,0,1-.66,4,1.59,1.59,0,0,1-1.38.6Zm.31-13.95a33.61,33.61,0,0,1,3.52,4l-.74.49a29.49,29.49,0,0,0-3.5-4ZM223,15.4a46.15,46.15,0,0,1,2.85,6.51l-.8.35a41.23,41.23,0,0,0-2.9-6.58Z"/><path class="cls-1" d="M232.93,11.14a17.62,17.62,0,0,1-2.13,3.71V25.44h-.86V15.92a22.56,22.56,0,0,1-2.53,2.44l-.27-.9a17.48,17.48,0,0,0,5-6.69Zm3.39,14a1.34,1.34,0,0,1-1.53-1.5V18.45c-.78.45-1.54.85-2.27,1.2l-.42-.83a22.81,22.81,0,0,0,2.69-1.38V10.88h.86v6a22.65,22.65,0,0,0,4.63-4l.59.67a23.41,23.41,0,0,1-5.22,4.35v5.59c0,.53.29.8.88.8h2.72a1.2,1.2,0,0,0,1-.4,7.77,7.77,0,0,0,.4-2.95l.8.26a8.61,8.61,0,0,1-.54,3.36,1.8,1.8,0,0,1-1.5.56Z"/><path class="cls-1" d="M254.1,17.65a14.57,14.57,0,0,1-2.93,3.91,18.31,18.31,0,0,0,6.48,3l-.51.8a18.75,18.75,0,0,1-6.62-3.2,16.56,16.56,0,0,1-6.63,3.26l-.53-.77a17,17,0,0,0,6.48-3.05,13.69,13.69,0,0,1-3-3.73l.75-.43A12.36,12.36,0,0,0,250.5,21a12.57,12.57,0,0,0,2.8-3.71Zm-10.66-4.83h6.79a12.7,12.7,0,0,0-1-2l.94-.16a12.37,12.37,0,0,1,1,2.11h6.36v.82H243.44Zm5.12,2.1a18.54,18.54,0,0,1-4.51,4.14l-.56-.72a17.43,17.43,0,0,0,4.43-4Zm4.36-.58a31.23,31.23,0,0,1,4.46,4.29l-.64.62a30.6,30.6,0,0,0-4.43-4.33Z"/><path class="cls-1" d="M261.7,16.88V11.46h9.62v5.42H265a8.07,8.07,0,0,1-1.18,1.48h8.61c-.05,1.63-.14,3-.27,4.09a4.73,4.73,0,0,1-.76,2.16,2.11,2.11,0,0,1-1.63.66h-2l-.2-.83c.6,0,1.19,0,1.76,0a1.62,1.62,0,0,0,1.66-1,15.78,15.78,0,0,0,.54-4.33h-1.79a10.64,10.64,0,0,1-6.64,6.2l-.48-.72A10.06,10.06,0,0,0,269,19.16h-2.39a10.8,10.8,0,0,1-5.5,4.27l-.56-.67a10.47,10.47,0,0,0,5.15-3.6H263a13,13,0,0,1-2.85,1.66l-.48-.75a10,10,0,0,0,4.48-3.19Zm.85-3.08h7.9V12.21h-7.9Zm7.9,2.32V14.53h-7.9v1.59Z"/><path class="cls-1" d="M189.14,47.43A45.53,45.53,0,0,1,192.9,53l-.74.51c-.22-.44-.5-.94-.84-1.49-3.5.38-7,.7-10.64.94l-.15-.73c1.4-.76,2.84-2.67,4.34-5.73H179.4v-.86H186v-3.3h-5.65v-.85H186V38.84h.86v2.65h5.62v.85H186.9v3.3h6.62v.86h-7.69a18.58,18.58,0,0,1-3.73,5.62q6.47-.52,8.75-.82-1-1.61-2.4-3.42Z"/><path class="cls-1" d="M202,38.74h.9v3h5.79v7.36h-.88V48h-4.91v5.53H202V48h-4.9v1.07h-.88V41.7H202Zm-4.9,8.4H202V42.56h-4.9Zm5.8,0h4.91V42.56h-4.91Z"/><path class="cls-1" d="M213.89,44.12a29.85,29.85,0,0,1-2,6.91l-.75-.48A28.18,28.18,0,0,0,213,43.94Zm3,8.76c-1,0-1.52-.48-1.52-1.44V42.16h.88v9.09c0,.51.3.77.9.77h3.17a1,1,0,0,0,.93-.46A11.09,11.09,0,0,0,221.7,48l.82.27a10.08,10.08,0,0,1-.66,4,1.59,1.59,0,0,1-1.38.6Zm.31-14a33.61,33.61,0,0,1,3.52,4l-.74.49a29.49,29.49,0,0,0-3.5-4ZM223,43.4a46.15,46.15,0,0,1,2.85,6.51l-.8.35a41.23,41.23,0,0,0-2.9-6.58Z"/><path class="cls-1" d="M232.93,39.14a17.62,17.62,0,0,1-2.13,3.71V53.44h-.86V43.92a22.56,22.56,0,0,1-2.53,2.44l-.27-.9a17.48,17.48,0,0,0,5-6.69Zm3.39,14a1.34,1.34,0,0,1-1.53-1.5V46.45c-.78.45-1.54.85-2.27,1.2l-.42-.83a22.81,22.81,0,0,0,2.69-1.38V38.88h.86v6a22.65,22.65,0,0,0,4.63-4l.59.67a23.41,23.41,0,0,1-5.22,4.35v5.59c0,.53.29.8.88.8h2.72a1.2,1.2,0,0,0,1-.4,7.77,7.77,0,0,0,.4-2.95l.8.26a8.61,8.61,0,0,1-.54,3.36,1.8,1.8,0,0,1-1.5.56Z"/><path class="cls-1" d="M247.57,39.12a19.59,19.59,0,0,1-1.47,3.41V53.44h-.88V44a17.3,17.3,0,0,1-1.95,2.43l-.28-.91a18.43,18.43,0,0,0,3.77-6.77Zm1.12.45h7.43v4.85h-3.28v2h4.68v.87h-3.74a14.18,14.18,0,0,0,4,4.48l-.55.73a16.16,16.16,0,0,1-4.16-5.21h-.25v6.14H252V47.27h-.27a14.1,14.1,0,0,1-4.24,5.25l-.48-.77a12.86,12.86,0,0,0,4-4.48h-3.58V46.4H252v-2h-3.28Zm6.56,4V40.4h-5.69v3.17Z"/><path class="cls-1" d="M260,39.59h4.49v.67q-.75,2.35-1.69,4.66a7.5,7.5,0,0,1,1.61,3.87,1.79,1.79,0,0,1-.49,1.33,3.61,3.61,0,0,1-2.2.51l-.27-.87a2.28,2.28,0,0,0,.47.05,2.68,2.68,0,0,0,1.31-.29.82.82,0,0,0,.32-.73A6.36,6.36,0,0,0,261.88,45a45,45,0,0,0,1.71-4.65h-2.77v13H260Zm9.36-.69a13.34,13.34,0,0,0,4.62,5.5l-.48.72a13.35,13.35,0,0,1-4.54-5.36,14.22,14.22,0,0,1-4.48,5.35l-.45-.69a14.18,14.18,0,0,0,4.53-5.52ZM264.2,52h5.58a34.62,34.62,0,0,0,2.13-6.48l.85.22A35.81,35.81,0,0,1,270.64,52h3v.83h-9.4Zm1.68-5.86a31.77,31.77,0,0,1,1.55,4.61l-.75.19a30.26,30.26,0,0,0-1.54-4.54Zm.62-2.56h4.91v.8H266.5Zm1.92,1.9a36.19,36.19,0,0,1,1.28,4.48l-.75.2a34.2,34.2,0,0,0-1.27-4.42Z"/><path class="cls-1" d="M202.34,66.66a11.2,11.2,0,0,1,.67,1.58h6.5v.84H206a13.68,13.68,0,0,1-1,2.16h3.64v8.54c0,1-.44,1.55-1.3,1.55h-1.62l-.22-.8,1.57,0q.72,0,.72-1V72h-10.6v9.26h-.84v-10h3.45a10.11,10.11,0,0,0-1-2.16h-3.37v-.84h6.65c-.22-.53-.44-1-.67-1.44Zm-.78,6.42A14.26,14.26,0,0,1,198.08,76l-.54-.7a13.84,13.84,0,0,0,3.39-2.75Zm-2,2.59h5.72V79.4H199.6ZM204,71.24a19.46,19.46,0,0,0,1-2.16h-5.28a13.41,13.41,0,0,1,.88,2.16Zm.43,7.37V76.45h-4v2.16Zm-.58-6.13a22.91,22.91,0,0,1,3.38,2.88l-.64.63a20.46,20.46,0,0,0-3.31-2.93Z"/><path class="cls-1" d="M217.44,74.44v6.72h-.84v-.85h-3.7v.85h-.85V74.44Zm-4.54,5h3.7V75.25h-3.7Zm1.23-11.92h8.64v5h-8.64Zm7.76,4.15V68.4H215v3.32Zm3,2.72v6.72H224v-.85h-3.86v.85h-.84V74.44Zm-4.72,5H224V75.25h-3.86Z"/><path class="cls-1" d="M227.67,70.92A19.52,19.52,0,0,1,230,73.28l-.61.6a16.46,16.46,0,0,0-2.37-2.4Zm.19-3.86a16.11,16.11,0,0,1,2.42,2.38l-.6.6a14.36,14.36,0,0,0-2.41-2.4Zm2.27,8.61q-.91,2.92-2,5.52l-.77-.34a45.43,45.43,0,0,0,2-5.47Zm.45-5.81h3.31a20.25,20.25,0,0,0,1.25-3.1l.78.28a17.77,17.77,0,0,1-1.24,2.82h1.8v.82H234v3.69c0,.32,0,.78-.08,1.38h1.47V71.83h.7v4.72H233.8a7.69,7.69,0,0,1-2.68,4.89l-.64-.57A6.79,6.79,0,0,0,233,76.55h-1.88V71.86h.73v3.89h1.28a11.51,11.51,0,0,0,.08-1.38V70.68h-2.62Zm1.25-3a24.23,24.23,0,0,1,1.31,2.48l-.69.33a21.09,21.09,0,0,0-1.31-2.49ZM238,76.18a9.83,9.83,0,0,1-2.05,5.28l-.61-.58A9.31,9.31,0,0,0,237.25,75V67.54h3.89V80.18c0,.75-.36,1.12-1.07,1.12h-1.2l-.21-.8c.41,0,.8,0,1.15,0s.53-.22.53-.66V76.18Zm.08-3.94v2.9l0,.27h2.29V72.24Zm2.27-.76V68.31h-2.27v3.17Z"/><path class="cls-1" d="M243.92,71.11a16.6,16.6,0,0,1,2.69,2.37l-.59.59a16.18,16.18,0,0,0-2.69-2.4Zm2.93,4.54a51.27,51.27,0,0,1-2.53,5.7l-.81-.35a44.43,44.43,0,0,0,2.59-5.64Zm-2.64-8.46a18.39,18.39,0,0,1,2.88,2.46l-.59.59a17.67,17.67,0,0,0-2.88-2.49Zm6,2.85h2.37a7.34,7.34,0,0,0,.49-1.72h-4.19v5a16.79,16.79,0,0,1-1.81,8l-.65-.58A15.5,15.5,0,0,0,248,73.35V67.54h9.46v.78h-3.62a9.59,9.59,0,0,1-.51,1.72h3.25v5.44h-2.76v4.73a1,1,0,0,1-1.12,1.15h-1.34l-.18-.8c.56,0,1,.07,1.24.07A.53.53,0,0,0,253,80V75.48h-2.85Zm1.31,6.86a11.3,11.3,0,0,1-1.81,3.68l-.7-.45a9.86,9.86,0,0,0,1.71-3.39ZM251,72.42h4.85V70.74H251Zm4.85,2.34V73.11H251v1.65Zm.05,1.92a23.69,23.69,0,0,1,1.79,3.56l-.73.32a24.19,24.19,0,0,0-1.8-3.64Z"/><path class="cls-1" d="M200.76,95.3a18.65,18.65,0,0,1-4.84,7.7l-.67-.6A16.78,16.78,0,0,0,199.94,95Zm4.25,8.13A34.79,34.79,0,0,1,208.1,109l-.82.35c-.26-.63-.54-1.22-.81-1.77q-4.29.7-9.25,1l-.16-.81q2.12-1.3,4.91-7.51l.85.29a28.88,28.88,0,0,1-4.34,7.15q4-.28,7.6-.89a24.9,24.9,0,0,0-1.85-3.14Zm-.25-8.56a15,15,0,0,0,5,7.45l-.6.71a15.66,15.66,0,0,1-5.1-7.75Z"/><path class="cls-1" d="M216.87,99.89a16.94,16.94,0,0,1-5.22,3.35l-.38-.8a15.06,15.06,0,0,0,5-3.17Zm6.57,2.93V108h2.07v.83H211.44V108h2.18v-5.17Zm-11.68-5.09h8.37a17.46,17.46,0,0,0,1.84-3l.85.3a13.53,13.53,0,0,1-1.75,2.67h4.12v.83H211.76Zm2.87-2.94a17.35,17.35,0,0,1,2.09,2.38l-.7.48a18.24,18.24,0,0,0-2.1-2.41Zm-.16,13.2h2.13v-4.35h-2.13Zm3,0h2.19v-4.35h-2.19Zm3.17-8.61a25.82,25.82,0,0,1,5,3.12l-.5.74a22,22,0,0,0-5-3.17Zm-.16,8.61h2.14v-4.35h-2.14Z"/><path class="cls-1" d="M230.07,105.35a10.72,10.72,0,0,1-1.86,3.55l-.75-.48a9.48,9.48,0,0,0,1.78-3.25Zm9.71-4.32a18,18,0,0,1,1.39,3.1l-.73.19c-.13-.4-.28-.78-.44-1.15a39.41,39.41,0,0,1-5,.87l-.16-.76.33-.09a11.65,11.65,0,0,0,2.6-2.45c-.8.13-1.83.26-3.07.38l-.12-.73a2.49,2.49,0,0,0,1-.82,11.74,11.74,0,0,0,1.29-2.08h-5.5a14.6,14.6,0,0,1-1.92,2.75c.91-.12,1.76-.27,2.56-.43L233,98.6l.79.33a27.07,27.07,0,0,1-4.19,4.4c1.37-.22,2.53-.44,3.48-.65-.23-.54-.43-1-.59-1.28l.69-.23a17.14,17.14,0,0,1,1.2,2.93l-.7.18c-.11-.35-.22-.67-.34-1a37.87,37.87,0,0,1-5,.81l-.18-.75.34-.08a12.52,12.52,0,0,0,2.88-2.62c-.67.09-1.69.21-3.08.35l-.11-.72a2.08,2.08,0,0,0,1-.79,12.66,12.66,0,0,0,1.29-2h-2.69v-.81h3.89a11.74,11.74,0,0,0-1-1.89l.89-.16a18.61,18.61,0,0,1,1,2.05h3.75a8.08,8.08,0,0,0,1-2l.93.13a6.45,6.45,0,0,1-1,1.86h4v.81H237.8a16.15,16.15,0,0,1-1.92,2.83c.82-.11,1.66-.25,2.54-.41l.93-1.25.77.34a26.66,26.66,0,0,1-3.86,4.22c1.26-.2,2.41-.43,3.46-.69-.18-.39-.39-.82-.65-1.28Zm-6.85,8.13c-.91,0-1.36-.44-1.36-1.3v-3h.88v2.77c0,.46.25.69.74.69h3.12a1.43,1.43,0,0,0,1-.24,3,3,0,0,0,.49-1.81l.82.25a3.7,3.7,0,0,1-.69,2.26,2.35,2.35,0,0,1-1.41.34Zm1.65-4.42a22.93,22.93,0,0,1,1.73,2.22l-.74.37a17.33,17.33,0,0,0-1.68-2.25Zm4.69,0a20.52,20.52,0,0,1,2.37,3.33l-.77.35a19.85,19.85,0,0,0-2.4-3.42Z"/><path class="cls-1" d="M244.07,96.31h3.73A9.8,9.8,0,0,0,247,94.9l.94-.16c.25.44.5,1,.77,1.57h3.59a6.19,6.19,0,0,0,.87-1.6l.92.13a6.12,6.12,0,0,1-.87,1.47h3.67v.77h-6v1.31h5.25v.7H250.9v1.3h6.3v.77h-2.48a7.91,7.91,0,0,1-.88,1.74h3.6v.78H243.49v-.78h3.57a10.12,10.12,0,0,0-.88-1.74h-2.45v-.77H250v-1.3h-5.25v-.7H250V97.08h-6Zm11.6,8.75v4.35h-.87v-.69h-8.67v.69h-.88v-4.35Zm-9.54,2.85h8.67v-2h-8.67Zm1-6.75a11,11,0,0,1,.77,1.74H250v-1.74ZM253,102.9a8.16,8.16,0,0,0,.89-1.74h-3v1.74Z"/><path class="cls-1" d="M213.72,134.47a.72.72,0,0,1,.24.57.78.78,0,0,1-.24.58.88.88,0,0,1-.58.22.82.82,0,0,1-.82-.8.72.72,0,0,1,.24-.57.75.75,0,0,1,.58-.23A.8.8,0,0,1,213.72,134.47Zm5.34,0a.77.77,0,0,1,.22.57.84.84,0,0,1-.22.58.87.87,0,0,1-.59.22.78.78,0,0,1-.58-.24.76.76,0,0,1-.24-.56.72.72,0,0,1,.24-.57.78.78,0,0,1,.58-.23A.81.81,0,0,1,219.06,134.47Zm5.31,0a.72.72,0,0,1,.24.57.78.78,0,0,1-.24.58.83.83,0,0,1-.57.22.78.78,0,0,1-.58-.24A.76.76,0,0,1,223,135a.72.72,0,0,1,.24-.57.83.83,0,0,1,1.15,0Z"/><path class="cls-1" d="M229.72,134.47a.72.72,0,0,1,.24.57.78.78,0,0,1-.24.58.88.88,0,0,1-.58.22.82.82,0,0,1-.82-.8.72.72,0,0,1,.24-.57.75.75,0,0,1,.58-.23A.8.8,0,0,1,229.72,134.47Zm5.34,0a.77.77,0,0,1,.22.57.84.84,0,0,1-.22.58.87.87,0,0,1-.59.22.78.78,0,0,1-.58-.24.76.76,0,0,1-.24-.56.72.72,0,0,1,.24-.57.78.78,0,0,1,.58-.23A.81.81,0,0,1,235.06,134.47Zm5.31,0a.72.72,0,0,1,.24.57.78.78,0,0,1-.24.58.83.83,0,0,1-.57.22.78.78,0,0,1-.58-.24A.76.76,0,0,1,239,135a.72.72,0,0,1,.24-.57.83.83,0,0,1,1.15,0Z"/></svg>