<svg id="图层_1" data-name="图层 1" xmlns="http://www.w3.org/2000/svg" viewBox="0 0 440 275"><defs><style>.cls-1{fill:#33353c;}</style></defs><title>币网站中英文</title><path class="cls-1" d="M118,11.42H122a5,5,0,0,1,4,1.6,6.19,6.19,0,0,1,1.23,4.11,5.91,5.91,0,0,1-1.38,4.13,5.22,5.22,0,0,1-4.08,1.58H118Zm1,.86V22h2.74a4.51,4.51,0,0,0,3.49-1.3,5.07,5.07,0,0,0,1.15-3.55,5.37,5.37,0,0,0-1-3.57,4.27,4.27,0,0,0-3.42-1.28Z"/><path class="cls-1" d="M135.26,15.68a5.76,5.76,0,0,1,1,3.31h-6.72a3.85,3.85,0,0,0,.81,2.38,2.6,2.6,0,0,0,2,.87,2.73,2.73,0,0,0,1.82-.6,3,3,0,0,0,.88-1.45h1a3.92,3.92,0,0,1-1.1,2,3.74,3.74,0,0,1-2.58.91,3.51,3.51,0,0,1-2.78-1.19,4.54,4.54,0,0,1-1.08-3.18,4.59,4.59,0,0,1,1-3.06,3.8,3.8,0,0,1,5.74,0Zm-4.89.35a3.61,3.61,0,0,0-.87,2.17h5.7c-.16-2-1.12-3-2.87-3A2.45,2.45,0,0,0,130.37,16Z"/><path class="cls-1" d="M143.65,15.07a3.16,3.16,0,0,1,1.13,2.21h-1a2.3,2.3,0,0,0-.83-1.57,2.79,2.79,0,0,0-1.76-.53,2.47,2.47,0,0,0-2.08,1,4,4,0,0,0-.75,2.57,4.07,4.07,0,0,0,.72,2.53,2.48,2.48,0,0,0,2.09.95,2.45,2.45,0,0,0,2.66-2.36h.94a3.79,3.79,0,0,1-1.18,2.39,3.58,3.58,0,0,1-2.42.8,3.45,3.45,0,0,1-2.84-1.25,4.65,4.65,0,0,1-1-3.06,4.81,4.81,0,0,1,1-3.1,3.39,3.39,0,0,1,2.83-1.31A3.85,3.85,0,0,1,143.65,15.07Z"/><path class="cls-1" d="M152.64,15.68a5.76,5.76,0,0,1,.94,3.31h-6.72a3.86,3.86,0,0,0,.82,2.38,2.59,2.59,0,0,0,2,.87,2.75,2.75,0,0,0,1.82-.6,3.09,3.09,0,0,0,.88-1.45h1a3.92,3.92,0,0,1-1.1,2,3.72,3.72,0,0,1-2.57.91,3.52,3.52,0,0,1-2.79-1.19,4.58,4.58,0,0,1-1.07-3.18,4.63,4.63,0,0,1,1-3.06,3.81,3.81,0,0,1,5.75,0Zm-4.9.35a3.6,3.6,0,0,0-.86,2.17h5.69c-.16-2-1.11-3-2.86-3A2.47,2.47,0,0,0,147.74,16Z"/><path class="cls-1" d="M161.84,17.76v5.08h-1v-5c0-1.76-.79-2.64-2.35-2.64a2.19,2.19,0,0,0-1.67.72,2.9,2.9,0,0,0-.78,2v5h-1V14.57h1v1.36a3.31,3.31,0,0,1,1.12-1.17,3,3,0,0,1,1.56-.41C160.81,14.35,161.84,15.48,161.84,17.76Z"/><path class="cls-1" d="M165.85,11.9v2.67H168v.83h-2.16V21a1.25,1.25,0,0,0,.2.79.89.89,0,0,0,.71.22h1.05v.83h-1.17a1.72,1.72,0,0,1-1.38-.49,2.05,2.05,0,0,1-.37-1.35V15.4h-1.76v-.83h1.76V12.3Z"/><path class="cls-1" d="M174.14,14.52v1a4.31,4.31,0,0,0-1.26-.18,2,2,0,0,0-1.8,1,3.57,3.57,0,0,0-.65,2.16v4.36h-1V14.57h1v1.59a3,3,0,0,1,.91-1.24,2.39,2.39,0,0,1,1.6-.57A3.48,3.48,0,0,1,174.14,14.52Z"/><path class="cls-1" d="M181.31,15.29a3.23,3.23,0,0,1,.74,2.23v5.32h-.92V21.26a4.29,4.29,0,0,1-1.34,1.23,4.11,4.11,0,0,1-2.16.58,3,3,0,0,1-2-.63,2.12,2.12,0,0,1-.75-1.71,2.44,2.44,0,0,1,1.29-2.3,5.56,5.56,0,0,1,2.77-.59l2.11,0v-.3a2.11,2.11,0,0,0-2.4-2.36,2.81,2.81,0,0,0-1.72.47,2,2,0,0,0-.85,1.44h-1A2.9,2.9,0,0,1,176.33,15a4,4,0,0,1,2.4-.64A3.26,3.26,0,0,1,181.31,15.29Zm-.23,3.31-2.06,0c-2.09,0-3.13.71-3.13,2.1a1.39,1.39,0,0,0,.52,1.12,2.16,2.16,0,0,0,1.41.43,3.42,3.42,0,0,0,2.3-.87,2.44,2.44,0,0,0,1-1.84Z"/><path class="cls-1" d="M184.36,11.2h1V22.84h-1Z"/><path class="cls-1" d="M189.18,11.84a.66.66,0,0,1,.24.56.79.79,0,0,1-.26.57.82.82,0,0,1-.56.23.8.8,0,0,1-.81-.8.66.66,0,0,1,.24-.56.75.75,0,0,1,.57-.24A.78.78,0,0,1,189.18,11.84Zm-1.06,2.73h1v8.27h-1Z"/><path class="cls-1" d="M191.13,14.57h6.42v.74L192.2,22h5.6v.83H191v-.75l5.33-6.69h-5.17Z"/><path class="cls-1" d="M205.5,15.68a5.68,5.68,0,0,1,.94,3.31h-6.72a3.92,3.92,0,0,0,.82,2.38,2.6,2.6,0,0,0,2.05.87,2.75,2.75,0,0,0,1.82-.6,3,3,0,0,0,.88-1.45h1a3.86,3.86,0,0,1-1.11,2,3.72,3.72,0,0,1-2.57.91,3.55,3.55,0,0,1-2.79-1.19,4.58,4.58,0,0,1-1.07-3.18,4.59,4.59,0,0,1,1-3.06,3.8,3.8,0,0,1,5.74,0Zm-4.9.35a3.66,3.66,0,0,0-.86,2.17h5.7c-.16-2-1.12-3-2.87-3A2.47,2.47,0,0,0,200.6,16Z"/><path class="cls-1" d="M214.22,11.2h1V22.84h-.91V21.21a3,3,0,0,1-2.9,1.86,3.37,3.37,0,0,1-2.8-1.31,4.9,4.9,0,0,1-.91-3.06,4.82,4.82,0,0,1,.91-3,3.23,3.23,0,0,1,2.75-1.33,3,3,0,0,1,2.9,2Zm-4.9,5a4,4,0,0,0-.68,2.48,4.23,4.23,0,0,0,.67,2.5,2.49,2.49,0,0,0,2.16,1.05,2.45,2.45,0,0,0,2.09-1,4,4,0,0,0,.69-2.4v-.19a4,4,0,0,0-.73-2.48,2.41,2.41,0,0,0-2-1A2.56,2.56,0,0,0,209.32,16.22Z"/><path class="cls-1" d="M228.43,15.07a3.09,3.09,0,0,1,1.13,2.21h-1a2.3,2.3,0,0,0-.83-1.57,2.77,2.77,0,0,0-1.76-.53,2.49,2.49,0,0,0-2.08,1,4,4,0,0,0-.75,2.57,4.07,4.07,0,0,0,.72,2.53,2.48,2.48,0,0,0,2.1.95,2.44,2.44,0,0,0,2.65-2.36h.95a3.8,3.8,0,0,1-1.19,2.39,3.58,3.58,0,0,1-2.41.8,3.46,3.46,0,0,1-2.85-1.25,4.65,4.65,0,0,1-1-3.06,4.81,4.81,0,0,1,1-3.1A3.4,3.4,0,0,1,226,14.35,3.85,3.85,0,0,1,228.43,15.07Z"/><path class="cls-1" d="M237.21,15.29a3.23,3.23,0,0,1,.74,2.23v5.32H237V21.26a4.33,4.33,0,0,1-1.35,1.23,4.11,4.11,0,0,1-2.16.58,3,3,0,0,1-2-.63,2.12,2.12,0,0,1-.75-1.71,2.44,2.44,0,0,1,1.3-2.3,5.51,5.51,0,0,1,2.77-.59l2.11,0v-.3a2.11,2.11,0,0,0-2.4-2.36,2.84,2.84,0,0,0-1.73.47,2,2,0,0,0-.85,1.44h-.94A2.87,2.87,0,0,1,232.24,15a4,4,0,0,1,2.4-.64A3.24,3.24,0,0,1,237.21,15.29ZM237,18.6l-2.07,0c-2.09,0-3.13.71-3.13,2.1a1.37,1.37,0,0,0,.53,1.12,2.15,2.15,0,0,0,1.4.43A3.43,3.43,0,0,0,236,21.4a2.44,2.44,0,0,0,1-1.84Z"/><path class="cls-1" d="M246.57,15.68a4.87,4.87,0,0,1,.91,3.05,5,5,0,0,1-.89,3,3.35,3.35,0,0,1-2.77,1.31,3,3,0,0,1-2.9-1.95V26h-1V14.57h.92V16.2a3,3,0,0,1,2.91-1.85A3.31,3.31,0,0,1,246.57,15.68Zm-5,.54a4,4,0,0,0-.69,2.45v.17a3.86,3.86,0,0,0,.74,2.45,2.42,2.42,0,0,0,2,1,2.59,2.59,0,0,0,2.18-1,4.2,4.2,0,0,0,.67-2.5,4.26,4.26,0,0,0-.66-2.49,2.49,2.49,0,0,0-2.15-1.08A2.44,2.44,0,0,0,241.58,16.22Z"/><path class="cls-1" d="M250.72,11.84a.66.66,0,0,1,.24.56.79.79,0,0,1-.26.57.84.84,0,0,1-.56.23.8.8,0,0,1-.82-.8.66.66,0,0,1,.24-.56.75.75,0,0,1,.58-.24A.8.8,0,0,1,250.72,11.84Zm-1.06,2.73h1v8.27h-1Z"/><path class="cls-1" d="M255.11,11.9v2.67h2.16v.83h-2.16V21a1.25,1.25,0,0,0,.2.79A.9.9,0,0,0,256,22h1v.83H255.9a1.72,1.72,0,0,1-1.38-.49,2.05,2.05,0,0,1-.37-1.35V15.4H252.4v-.83h1.75V12.3Z"/><path class="cls-1" d="M264.81,15.29a3.23,3.23,0,0,1,.74,2.23v5.32h-.91V21.26a4.33,4.33,0,0,1-1.35,1.23,4.11,4.11,0,0,1-2.16.58,3,3,0,0,1-2-.63,2.12,2.12,0,0,1-.75-1.71,2.44,2.44,0,0,1,1.3-2.3,5.51,5.51,0,0,1,2.77-.59l2.11,0v-.3a2.11,2.11,0,0,0-2.4-2.36,2.82,2.82,0,0,0-1.73.47,2,2,0,0,0-.85,1.44h-.94A2.86,2.86,0,0,1,259.83,15a4,4,0,0,1,2.41-.64A3.24,3.24,0,0,1,264.81,15.29Zm-.22,3.31-2.07,0c-2.09,0-3.13.71-3.13,2.1a1.39,1.39,0,0,0,.52,1.12,2.2,2.2,0,0,0,1.41.43,3.45,3.45,0,0,0,2.31-.87,2.44,2.44,0,0,0,1-1.84Z"/><path class="cls-1" d="M267.87,11.2h1V22.84h-1Z"/><path class="cls-1" d="M282.59,16.89h-.95a1.89,1.89,0,0,0-.69-1.26,3.26,3.26,0,0,0-3.16-.08,1.13,1.13,0,0,0-.58,1,1.15,1.15,0,0,0,.74,1,10.89,10.89,0,0,0,1.74.57,8.63,8.63,0,0,1,2.14.77,1.87,1.87,0,0,1,1,1.67c0,1.67-1.12,2.51-3.36,2.51s-3.28-.95-3.48-2.83h.95a2.21,2.21,0,0,0,.77,1.56,2.83,2.83,0,0,0,1.72.44c1.6,0,2.4-.55,2.4-1.64a1.25,1.25,0,0,0-.81-1.15,10.6,10.6,0,0,0-1.84-.57,8.09,8.09,0,0,1-2-.74,1.74,1.74,0,0,1-.94-1.58,1.88,1.88,0,0,1,.89-1.62,3.69,3.69,0,0,1,2.18-.59C281.25,14.35,282.35,15.2,282.59,16.89Z"/><path class="cls-1" d="M290.65,15.68a5.68,5.68,0,0,1,.94,3.31h-6.72a3.92,3.92,0,0,0,.82,2.38,2.6,2.6,0,0,0,2.05.87,2.73,2.73,0,0,0,1.82-.6,3,3,0,0,0,.88-1.45h1a3.92,3.92,0,0,1-1.1,2,3.76,3.76,0,0,1-2.58.91A3.55,3.55,0,0,1,285,21.88a4.58,4.58,0,0,1-1.07-3.18,4.59,4.59,0,0,1,1-3.06,3.8,3.8,0,0,1,5.74,0Zm-4.9.35a3.66,3.66,0,0,0-.86,2.17h5.7c-.16-2-1.12-3-2.87-3A2.47,2.47,0,0,0,285.75,16Z"/><path class="cls-1" d="M297.8,14.52v1a4.26,4.26,0,0,0-1.26-.18,2,2,0,0,0-1.79,1,3.51,3.51,0,0,0-.66,2.16v4.36h-1V14.57h1v1.59a3,3,0,0,1,.91-1.24,2.39,2.39,0,0,1,1.6-.57A3.48,3.48,0,0,1,297.8,14.52Z"/><path class="cls-1" d="M298,14.57H299l2.61,7.06,2.59-7.06h1.07l-3.17,8.27h-1Z"/><path class="cls-1" d="M307.91,11.84a.66.66,0,0,1,.24.56.78.78,0,0,1-.25.57.84.84,0,0,1-.56.23.8.8,0,0,1-.82-.8.66.66,0,0,1,.24-.56.75.75,0,0,1,.58-.24A.78.78,0,0,1,307.91,11.84Zm-1.05,2.73h1v8.27h-1Z"/><path class="cls-1" d="M316.22,15.07a3.09,3.09,0,0,1,1.13,2.21h-1a2.3,2.3,0,0,0-.83-1.57,2.77,2.77,0,0,0-1.76-.53,2.49,2.49,0,0,0-2.08,1,4,4,0,0,0-.75,2.57,4.07,4.07,0,0,0,.72,2.53,2.48,2.48,0,0,0,2.1.95,2.44,2.44,0,0,0,2.65-2.36h.95a3.8,3.8,0,0,1-1.19,2.39,3.58,3.58,0,0,1-2.41.8,3.46,3.46,0,0,1-2.85-1.25,4.65,4.65,0,0,1-.95-3.06,4.81,4.81,0,0,1,1-3.1,3.4,3.4,0,0,1,2.83-1.31A3.85,3.85,0,0,1,316.22,15.07Z"/><path class="cls-1" d="M325.21,15.68a5.68,5.68,0,0,1,.94,3.31h-6.72a3.92,3.92,0,0,0,.82,2.38,2.59,2.59,0,0,0,2.05.87,2.75,2.75,0,0,0,1.82-.6,3.09,3.09,0,0,0,.88-1.45h1a3.86,3.86,0,0,1-1.11,2,3.72,3.72,0,0,1-2.57.91,3.53,3.53,0,0,1-2.79-1.19,4.58,4.58,0,0,1-1.07-3.18,4.59,4.59,0,0,1,1-3.06,3.8,3.8,0,0,1,5.74,0Zm-4.9.35a3.6,3.6,0,0,0-.86,2.17h5.7c-.16-2-1.12-3-2.87-3A2.47,2.47,0,0,0,320.31,16Z"/><path class="cls-1" d="M329.71,22.57a3,3,0,0,1-1.6,2.77l-.34-.56a2.46,2.46,0,0,0,1.22-2h-.25a.92.92,0,0,1-.59-.2.76.76,0,0,1-.22-.58.7.7,0,0,1,.22-.59.78.78,0,0,1,.59-.23C329.39,21.24,329.71,21.69,329.71,22.57Zm-.39-7a.73.73,0,0,1,.24.58.78.78,0,0,1-.25.57.86.86,0,0,1-.57.23.75.75,0,0,1-.57-.24.77.77,0,0,1-.24-.56.73.73,0,0,1,.24-.58.74.74,0,0,1,.57-.22A.78.78,0,0,1,329.32,15.61Z"/><path class="cls-1" d="M136.7,39.2h1V50.84h-.91V49.21a3,3,0,0,1-2.9,1.86,3.38,3.38,0,0,1-2.8-1.31,5,5,0,0,1-.91-3.06,4.88,4.88,0,0,1,.91-3,3.24,3.24,0,0,1,2.76-1.33,3,3,0,0,1,2.89,2Zm-4.89,5a4,4,0,0,0-.69,2.48,4.23,4.23,0,0,0,.67,2.5,2.71,2.71,0,0,0,4.26,0,4.07,4.07,0,0,0,.68-2.4v-.19a4,4,0,0,0-.73-2.48,2.39,2.39,0,0,0-2-1A2.53,2.53,0,0,0,131.81,44.22Z"/><path class="cls-1" d="M146,43.68a5.76,5.76,0,0,1,.94,3.31h-6.72a3.85,3.85,0,0,0,.81,2.38,2.62,2.62,0,0,0,2.05.87,2.76,2.76,0,0,0,1.83-.6,3.17,3.17,0,0,0,.88-1.45h1a3.92,3.92,0,0,1-1.1,2,3.73,3.73,0,0,1-2.58.91,3.51,3.51,0,0,1-2.78-1.19,4.53,4.53,0,0,1-1.07-3.18,4.63,4.63,0,0,1,1-3.06,3.81,3.81,0,0,1,5.75,0Zm-4.9.35a3.6,3.6,0,0,0-.86,2.17h5.69c-.16-2-1.11-3-2.86-3A2.47,2.47,0,0,0,141.07,44Z"/><path class="cls-1" d="M154.35,43.07a3.13,3.13,0,0,1,1.14,2.21h-1a2.3,2.3,0,0,0-.83-1.57,2.77,2.77,0,0,0-1.76-.53,2.49,2.49,0,0,0-2.08,1,4.79,4.79,0,0,0,0,5.1,2.48,2.48,0,0,0,2.1,1,2.44,2.44,0,0,0,2.65-2.36h1a3.8,3.8,0,0,1-1.19,2.39,3.58,3.58,0,0,1-2.41.8,3.46,3.46,0,0,1-2.85-1.25,4.65,4.65,0,0,1-.95-3.06,4.81,4.81,0,0,1,1-3.1,3.4,3.4,0,0,1,2.83-1.31A3.85,3.85,0,0,1,154.35,43.07Z"/><path class="cls-1" d="M163.34,43.68a5.76,5.76,0,0,1,.95,3.31h-6.72a3.85,3.85,0,0,0,.81,2.38,2.59,2.59,0,0,0,2.05.87,2.75,2.75,0,0,0,1.82-.6,3,3,0,0,0,.88-1.45h1a3.86,3.86,0,0,1-1.11,2,3.72,3.72,0,0,1-2.57.91,3.51,3.51,0,0,1-2.78-1.19,4.54,4.54,0,0,1-1.08-3.18,4.59,4.59,0,0,1,1-3.06,3.44,3.44,0,0,1,2.8-1.29A3.4,3.4,0,0,1,163.34,43.68Zm-4.89.35a3.55,3.55,0,0,0-.87,2.17h5.7c-.16-2-1.12-3-2.87-3A2.45,2.45,0,0,0,158.45,44Z"/><path class="cls-1" d="M172.54,45.76v5.08h-1v-5c0-1.76-.78-2.64-2.35-2.64a2.17,2.17,0,0,0-1.66.72,2.9,2.9,0,0,0-.79,2v5h-1V42.57h1v1.36a3.4,3.4,0,0,1,1.12-1.17,3,3,0,0,1,1.57-.41C171.52,42.35,172.54,43.48,172.54,45.76Z"/><path class="cls-1" d="M176.56,39.9v2.67h2.16v.83h-2.16V49a1.26,1.26,0,0,0,.19.79.93.93,0,0,0,.72.22h1v.83h-1.17a1.72,1.72,0,0,1-1.38-.49A2.06,2.06,0,0,1,175.6,49V43.4h-1.76v-.83h1.76V40.3Z"/><path class="cls-1" d="M184.84,42.52v1a4.26,4.26,0,0,0-1.26-.18,2,2,0,0,0-1.79,1,3.51,3.51,0,0,0-.66,2.16v4.36h-1V42.57h1v1.59a3.11,3.11,0,0,1,.91-1.24,2.41,2.41,0,0,1,1.6-.57A3.4,3.4,0,0,1,184.84,42.52Z"/><path class="cls-1" d="M192,43.29a3.23,3.23,0,0,1,.74,2.23v5.32h-.91V49.26a4.33,4.33,0,0,1-1.35,1.23,4.11,4.11,0,0,1-2.16.58,3,3,0,0,1-2-.63,2.12,2.12,0,0,1-.75-1.71,2.44,2.44,0,0,1,1.3-2.3,5.51,5.51,0,0,1,2.77-.59l2.11,0v-.3a2.11,2.11,0,0,0-2.4-2.36,2.84,2.84,0,0,0-1.73.47,2,2,0,0,0-.85,1.44h-.94A2.9,2.9,0,0,1,187,43a4,4,0,0,1,2.4-.64A3.24,3.24,0,0,1,192,43.29Zm-.22,3.31-2.07,0c-2.09,0-3.13.71-3.13,2.1a1.37,1.37,0,0,0,.53,1.12,2.15,2.15,0,0,0,1.4.43,3.43,3.43,0,0,0,2.31-.87,2.44,2.44,0,0,0,1-1.84Z"/><path class="cls-1" d="M195.07,39.2h1V50.84h-1Z"/><path class="cls-1" d="M199.88,39.84a.66.66,0,0,1,.24.56.78.78,0,0,1-.25.57.84.84,0,0,1-.56.23.8.8,0,0,1-.82-.8.66.66,0,0,1,.24-.56.75.75,0,0,1,.58-.24A.78.78,0,0,1,199.88,39.84Zm-1,2.73h1v8.27h-1Z"/><path class="cls-1" d="M201.84,42.57h6.41v.74L202.91,50h5.6v.83h-6.83v-.75L207,43.4h-5.16Z"/><path class="cls-1" d="M216.2,43.68a5.76,5.76,0,0,1,1,3.31h-6.72a3.85,3.85,0,0,0,.81,2.38,2.62,2.62,0,0,0,2,.87,2.76,2.76,0,0,0,1.83-.6,3.08,3.08,0,0,0,.87-1.45h1a3.92,3.92,0,0,1-1.1,2,3.73,3.73,0,0,1-2.58.91,3.51,3.51,0,0,1-2.78-1.19,4.53,4.53,0,0,1-1.07-3.18,4.63,4.63,0,0,1,1-3.06,3.44,3.44,0,0,1,2.8-1.29A3.4,3.4,0,0,1,216.2,43.68Zm-4.89.35a3.67,3.67,0,0,0-.87,2.17h5.7c-.16-2-1.12-3-2.86-3A2.45,2.45,0,0,0,211.31,44Z"/><path class="cls-1" d="M224.92,39.2h1V50.84H225V49.21a3,3,0,0,1-2.9,1.86,3.35,3.35,0,0,1-2.79-1.31,4.91,4.91,0,0,1-.92-3.06,4.83,4.83,0,0,1,.92-3A3.22,3.22,0,0,1,222,42.35a3,3,0,0,1,2.89,2Zm-4.89,5a4,4,0,0,0-.69,2.48,4.23,4.23,0,0,0,.67,2.5,2.49,2.49,0,0,0,2.16,1,2.46,2.46,0,0,0,2.1-1,4,4,0,0,0,.69-2.4v-.19a4,4,0,0,0-.74-2.48,2.38,2.38,0,0,0-2-1A2.53,2.53,0,0,0,220,44.22Z"/><path class="cls-1" d="M235.23,39.9v2.67h2.16v.83h-2.16V49a1.26,1.26,0,0,0,.19.79.93.93,0,0,0,.72.22h1v.83H236a1.68,1.68,0,0,1-1.37-.49,2,2,0,0,1-.37-1.35V43.4h-1.76v-.83h1.76V40.3Z"/><path class="cls-1" d="M243.52,42.52v1a4.38,4.38,0,0,0-1.27-.18,2,2,0,0,0-1.79,1,3.51,3.51,0,0,0-.66,2.16v4.36h-1V42.57h1v1.59a3,3,0,0,1,.92-1.24,2.38,2.38,0,0,1,1.6-.57A3.48,3.48,0,0,1,243.52,42.52Z"/><path class="cls-1" d="M250.68,43.29a3.23,3.23,0,0,1,.74,2.23v5.32h-.91V49.26a4.33,4.33,0,0,1-1.35,1.23,4.11,4.11,0,0,1-2.16.58,3,3,0,0,1-2-.63,2.12,2.12,0,0,1-.75-1.71,2.45,2.45,0,0,1,1.3-2.3,5.53,5.53,0,0,1,2.77-.59l2.11,0v-.3a2.11,2.11,0,0,0-2.4-2.36,2.84,2.84,0,0,0-1.73.47,2,2,0,0,0-.85,1.44h-.94A2.9,2.9,0,0,1,245.71,43a4,4,0,0,1,2.4-.64A3.24,3.24,0,0,1,250.68,43.29Zm-.22,3.31-2.06,0c-2.1,0-3.14.71-3.14,2.1a1.37,1.37,0,0,0,.53,1.12,2.16,2.16,0,0,0,1.41.43,3.42,3.42,0,0,0,2.3-.87,2.44,2.44,0,0,0,1-1.84Z"/><path class="cls-1" d="M260.15,45.76v5.08h-.95v-5c0-1.76-.79-2.64-2.36-2.64a2.18,2.18,0,0,0-1.66.72,2.9,2.9,0,0,0-.78,2v5h-1V42.57h1v1.36a3.37,3.37,0,0,1,1.11-1.17,3,3,0,0,1,1.57-.41C259.13,42.35,260.15,43.48,260.15,45.76Z"/><path class="cls-1" d="M268.28,44.89h-.94a2,2,0,0,0-.69-1.26,3.28,3.28,0,0,0-3.17-.08,1.1,1.1,0,0,0,.16,2,10.74,10.74,0,0,0,1.75.57,8.79,8.79,0,0,1,2.14.77,1.88,1.88,0,0,1,1,1.67c0,1.67-1.12,2.51-3.36,2.51s-3.28-1-3.47-2.83h.94a2.28,2.28,0,0,0,.77,1.56,2.86,2.86,0,0,0,1.73.44c1.6,0,2.4-.55,2.4-1.64a1.25,1.25,0,0,0-.82-1.15,10.3,10.3,0,0,0-1.84-.57,7.83,7.83,0,0,1-2-.74,1.75,1.75,0,0,1-.95-1.58,1.87,1.87,0,0,1,.9-1.62,3.69,3.69,0,0,1,2.18-.59C267,42.35,268.05,43.2,268.28,44.89Z"/><path class="cls-1" d="M276.14,43.29a3.22,3.22,0,0,1,.73,2.23v5.32H276V49.26a4.29,4.29,0,0,1-1.34,1.23,4.11,4.11,0,0,1-2.16.58,3,3,0,0,1-2-.63,2.12,2.12,0,0,1-.75-1.71,2.44,2.44,0,0,1,1.29-2.3,5.56,5.56,0,0,1,2.77-.59l2.11,0v-.3a2.11,2.11,0,0,0-2.4-2.36,2.81,2.81,0,0,0-1.72.47,2,2,0,0,0-.85,1.44H270A2.9,2.9,0,0,1,271.16,43a4,4,0,0,1,2.4-.64A3.26,3.26,0,0,1,276.14,43.29Zm-.23,3.31-2.06,0c-2.09,0-3.14.71-3.14,2.1a1.4,1.4,0,0,0,.53,1.12,2.16,2.16,0,0,0,1.41.43,3.42,3.42,0,0,0,2.3-.87,2.44,2.44,0,0,0,1-1.84Z"/><path class="cls-1" d="M284.79,43.07a3.13,3.13,0,0,1,1.14,2.21h-1a2.34,2.34,0,0,0-.83-1.57,2.79,2.79,0,0,0-1.76-.53,2.47,2.47,0,0,0-2.08,1,4.79,4.79,0,0,0,0,5.1A2.71,2.71,0,0,0,285,47.88H286a3.79,3.79,0,0,1-1.18,2.39,3.6,3.6,0,0,1-2.42.8,3.48,3.48,0,0,1-2.85-1.25,4.64,4.64,0,0,1-.94-3.06,4.81,4.81,0,0,1,1-3.1,3.39,3.39,0,0,1,2.83-1.31A3.8,3.8,0,0,1,284.79,43.07Z"/><path class="cls-1" d="M289.5,39.9v2.67h2.16v.83H289.5V49a1.26,1.26,0,0,0,.19.79.93.93,0,0,0,.72.22h1v.83h-1.17a1.68,1.68,0,0,1-1.37-.49,2,2,0,0,1-.37-1.35V43.4h-1.76v-.83h1.76V40.3Z"/><path class="cls-1" d="M294.65,39.84a.66.66,0,0,1,.24.56.76.76,0,0,1-.26.57.82.82,0,0,1-.56.23.8.8,0,0,1-.81-.8.66.66,0,0,1,.24-.56.75.75,0,0,1,.57-.24A.78.78,0,0,1,294.65,39.84Zm-1.06,2.73h1v8.27h-1Z"/><path class="cls-1" d="M303.59,43.66a5.11,5.11,0,0,1,0,6.1,3.92,3.92,0,0,1-5.85,0,4.68,4.68,0,0,1-1-3,4.6,4.6,0,0,1,1-3.06,3.59,3.59,0,0,1,2.92-1.31A3.63,3.63,0,0,1,303.59,43.66Zm-5.15.61a4.44,4.44,0,0,0,0,4.88,2.84,2.84,0,0,0,4.47,0,4,4,0,0,0,.73-2.43,3.94,3.94,0,0,0-.73-2.45,2.84,2.84,0,0,0-4.47,0Z"/><path class="cls-1" d="M313,45.76v5.08h-1v-5c0-1.76-.79-2.64-2.35-2.64a2.19,2.19,0,0,0-1.67.72,2.9,2.9,0,0,0-.78,2v5h-1V42.57h1v1.36a3.4,3.4,0,0,1,1.12-1.17,3,3,0,0,1,1.57-.41C312,42.35,313,43.48,313,45.76Z"/><path class="cls-1" d="M317.05,50.57a2.94,2.94,0,0,1-1.6,2.77l-.34-.56a2.44,2.44,0,0,0,1.22-2h-.24a.9.9,0,0,1-.59-.2.77.77,0,0,1-.23-.58.71.71,0,0,1,.23-.59.76.76,0,0,1,.59-.23C316.73,49.24,317.05,49.69,317.05,50.57Zm-.38-7a.75.75,0,0,1,.23.58.78.78,0,0,1-.25.57.84.84,0,0,1-.56.23.75.75,0,0,1-.58-.24.77.77,0,0,1-.24-.56.73.73,0,0,1,.24-.58.75.75,0,0,1,.58-.22A.79.79,0,0,1,316.67,43.61Z"/><path class="cls-1" d="M145.26,67.2h1V78.84h-.91V77.21a3,3,0,0,1-2.9,1.86,3.38,3.38,0,0,1-2.8-1.31,4.9,4.9,0,0,1-.91-3.06,4.82,4.82,0,0,1,.91-3,3.23,3.23,0,0,1,2.75-1.33,3,3,0,0,1,2.9,2Zm-4.9,5a4,4,0,0,0-.68,2.48,4.23,4.23,0,0,0,.67,2.5,2.49,2.49,0,0,0,2.16,1,2.45,2.45,0,0,0,2.09-1,4,4,0,0,0,.69-2.4v-.19a4,4,0,0,0-.73-2.48,2.39,2.39,0,0,0-2-1A2.56,2.56,0,0,0,140.36,72.22Z"/><path class="cls-1" d="M154.52,71.68a5.68,5.68,0,0,1,.95,3.31h-6.72a3.8,3.8,0,0,0,.82,2.38,2.58,2.58,0,0,0,2,.87,2.76,2.76,0,0,0,1.83-.6,3.17,3.17,0,0,0,.88-1.45h1a3.92,3.92,0,0,1-1.1,2,3.73,3.73,0,0,1-2.58.91,3.51,3.51,0,0,1-2.78-1.19,4.53,4.53,0,0,1-1.07-3.18,4.63,4.63,0,0,1,1-3.06,3.45,3.45,0,0,1,2.8-1.29A3.4,3.4,0,0,1,154.52,71.68Zm-4.89.35a3.67,3.67,0,0,0-.87,2.17h5.7c-.16-2-1.11-3-2.86-3A2.47,2.47,0,0,0,149.63,72Z"/><path class="cls-1" d="M162.91,71.07A3.09,3.09,0,0,1,164,73.28h-1a2.3,2.3,0,0,0-.83-1.57,2.75,2.75,0,0,0-1.76-.53,2.49,2.49,0,0,0-2.08,1,4.79,4.79,0,0,0,0,5.1,2.48,2.48,0,0,0,2.1.95,2.44,2.44,0,0,0,2.65-2.36h1a3.8,3.8,0,0,1-1.19,2.39,3.58,3.58,0,0,1-2.41.8,3.46,3.46,0,0,1-2.85-1.25,4.65,4.65,0,0,1-.95-3.06,4.81,4.81,0,0,1,1-3.1,3.4,3.4,0,0,1,2.83-1.31A3.83,3.83,0,0,1,162.91,71.07Z"/><path class="cls-1" d="M171.9,71.68a5.68,5.68,0,0,1,.94,3.31h-6.72a3.92,3.92,0,0,0,.82,2.38,2.6,2.6,0,0,0,2.05.87,2.73,2.73,0,0,0,1.82-.6,3,3,0,0,0,.88-1.45h1a3.92,3.92,0,0,1-1.1,2,3.76,3.76,0,0,1-2.58.91,3.55,3.55,0,0,1-2.79-1.19,5.16,5.16,0,0,1,0-6.24,3.8,3.8,0,0,1,5.74,0ZM167,72a3.66,3.66,0,0,0-.86,2.17h5.7c-.16-2-1.12-3-2.87-3A2.47,2.47,0,0,0,167,72Z"/><path class="cls-1" d="M181.1,73.76v5.08h-1v-5c0-1.76-.78-2.64-2.35-2.64a2.2,2.2,0,0,0-1.67.72,2.9,2.9,0,0,0-.78,1.95v5h-1V70.57h1v1.36a3.4,3.4,0,0,1,1.12-1.17,3,3,0,0,1,1.57-.41C180.08,70.35,181.1,71.48,181.1,73.76Z"/><path class="cls-1" d="M185.12,67.9v2.67h2.16v.83h-2.16V77a1.26,1.26,0,0,0,.19.79A.93.93,0,0,0,186,78h1v.83H185.9a1.72,1.72,0,0,1-1.38-.49,2.06,2.06,0,0,1-.36-1.35V71.4H182.4v-.83h1.76V68.3Z"/><path class="cls-1" d="M193.4,70.52v1a4.26,4.26,0,0,0-1.26-.18,2,2,0,0,0-1.79,1,3.51,3.51,0,0,0-.66,2.16v4.36h-1V70.57h1v1.59a3.11,3.11,0,0,1,.91-1.24,2.41,2.41,0,0,1,1.6-.57A3.4,3.4,0,0,1,193.4,70.52Z"/><path class="cls-1" d="M200.57,71.29a3.23,3.23,0,0,1,.74,2.23v5.32h-.91V77.26a4.33,4.33,0,0,1-1.35,1.23,4.11,4.11,0,0,1-2.16.58,3,3,0,0,1-2-.63,2.12,2.12,0,0,1-.75-1.71,2.44,2.44,0,0,1,1.3-2.3,5.51,5.51,0,0,1,2.77-.59l2.11,0v-.3a2.11,2.11,0,0,0-2.4-2.36,2.84,2.84,0,0,0-1.73.47,2,2,0,0,0-.85,1.44h-.94A2.9,2.9,0,0,1,195.6,71a4,4,0,0,1,2.4-.64A3.24,3.24,0,0,1,200.57,71.29Zm-.22,3.31-2.07,0c-2.09,0-3.13.71-3.13,2.1a1.37,1.37,0,0,0,.53,1.12,2.15,2.15,0,0,0,1.4.43,3.43,3.43,0,0,0,2.31-.87,2.44,2.44,0,0,0,1-1.84Z"/><path class="cls-1" d="M203.63,67.2h1V78.84h-1Z"/><path class="cls-1" d="M208.44,67.84a.66.66,0,0,1,.24.56.78.78,0,0,1-.25.57.84.84,0,0,1-.56.23.8.8,0,0,1-.82-.8.66.66,0,0,1,.24-.56.75.75,0,0,1,.58-.24A.78.78,0,0,1,208.44,67.84Zm-1.05,2.73h1v8.27h-1Z"/><path class="cls-1" d="M210.4,70.57h6.41v.74L211.47,78h5.6v.83h-6.83v-.75l5.32-6.69H210.4Z"/><path class="cls-1" d="M224.76,71.68a5.76,5.76,0,0,1,1,3.31H219a3.85,3.85,0,0,0,.81,2.38,2.62,2.62,0,0,0,2,.87,2.76,2.76,0,0,0,1.83-.6,3.17,3.17,0,0,0,.88-1.45h1a3.92,3.92,0,0,1-1.1,2,3.73,3.73,0,0,1-2.58.91,3.51,3.51,0,0,1-2.78-1.19A4.54,4.54,0,0,1,218,74.7a4.64,4.64,0,0,1,1-3.06,3.44,3.44,0,0,1,2.8-1.29A3.4,3.4,0,0,1,224.76,71.68Zm-4.89.35A3.67,3.67,0,0,0,219,74.2h5.7c-.16-2-1.12-3-2.86-3A2.45,2.45,0,0,0,219.87,72Z"/><path class="cls-1" d="M233.48,67.2h1V78.84h-.91V77.21a3,3,0,0,1-2.89,1.86,3.36,3.36,0,0,1-2.8-1.31,4.91,4.91,0,0,1-.92-3.06,4.83,4.83,0,0,1,.92-3,3.22,3.22,0,0,1,2.75-1.33,3,3,0,0,1,2.89,2Zm-4.89,5a4,4,0,0,0-.69,2.48,4.23,4.23,0,0,0,.67,2.5,2.49,2.49,0,0,0,2.16,1,2.46,2.46,0,0,0,2.1-1,4,4,0,0,0,.69-2.4v-.19a4,4,0,0,0-.74-2.48,2.38,2.38,0,0,0-2-1A2.53,2.53,0,0,0,228.59,72.22Z"/><path class="cls-1" d="M243.32,67.84a.66.66,0,0,1,.24.56.78.78,0,0,1-.25.57.84.84,0,0,1-.56.23.8.8,0,0,1-.82-.8.66.66,0,0,1,.24-.56.75.75,0,0,1,.58-.24A.78.78,0,0,1,243.32,67.84Zm-1,2.73h1v8.27h-1Z"/><path class="cls-1" d="M252.44,73.76v5.08h-1v-5c0-1.76-.78-2.64-2.35-2.64a2.17,2.17,0,0,0-1.66.72,3,3,0,0,0-.79,1.95v5h-1V70.57h1v1.36a3.4,3.4,0,0,1,1.12-1.17,3,3,0,0,1,1.57-.41C251.42,70.35,252.44,71.48,252.44,73.76Z"/><path class="cls-1" d="M260.57,72.89h-.94a2,2,0,0,0-.69-1.26,3.28,3.28,0,0,0-3.17-.08,1.09,1.09,0,0,0,.16,2,10.89,10.89,0,0,0,1.74.57,8.74,8.74,0,0,1,2.15.77,1.88,1.88,0,0,1,1,1.67c0,1.67-1.12,2.51-3.36,2.51s-3.28-.95-3.47-2.83h.94a2.24,2.24,0,0,0,.77,1.56,2.84,2.84,0,0,0,1.73.44c1.6,0,2.4-.55,2.4-1.64a1.25,1.25,0,0,0-.82-1.15,10.6,10.6,0,0,0-1.84-.57,7.83,7.83,0,0,1-2-.74,1.75,1.75,0,0,1-1-1.58,1.87,1.87,0,0,1,.9-1.62,3.66,3.66,0,0,1,2.17-.59C259.24,70.35,260.34,71.2,260.57,72.89Z"/><path class="cls-1" d="M262.35,70.57h1v5.06a2.92,2.92,0,0,0,.54,1.93,2.23,2.23,0,0,0,1.78.68,2.32,2.32,0,0,0,1.68-.74,2.91,2.91,0,0,0,.81-1.9v-5h1v8.27h-1V77.45a3,3,0,0,1-2.75,1.62c-2,0-3-1.13-3-3.39Z"/><path class="cls-1" d="M275.77,70.52v1a4.31,4.31,0,0,0-1.26-.18,2,2,0,0,0-1.8,1,3.57,3.57,0,0,0-.65,2.16v4.36h-1V70.57h1v1.59a3,3,0,0,1,.91-1.24,2.39,2.39,0,0,1,1.6-.57A3.48,3.48,0,0,1,275.77,70.52Z"/><path class="cls-1" d="M282.94,71.29a3.22,3.22,0,0,1,.73,2.23v5.32h-.91V77.26a4.29,4.29,0,0,1-1.34,1.23,4.11,4.11,0,0,1-2.16.58,3,3,0,0,1-2-.63,2.12,2.12,0,0,1-.75-1.71,2.44,2.44,0,0,1,1.29-2.3,5.56,5.56,0,0,1,2.77-.59l2.11,0v-.3a2.11,2.11,0,0,0-2.4-2.36,2.81,2.81,0,0,0-1.72.47,2,2,0,0,0-.85,1.44h-.95A2.9,2.9,0,0,1,278,71a4,4,0,0,1,2.4-.64A3.28,3.28,0,0,1,282.94,71.29Zm-.23,3.31-2.06,0c-2.09,0-3.14.71-3.14,2.1a1.4,1.4,0,0,0,.53,1.12,2.16,2.16,0,0,0,1.41.43,3.42,3.42,0,0,0,2.3-.87,2.44,2.44,0,0,0,1-1.84Z"/><path class="cls-1" d="M292.41,73.76v5.08h-1v-5c0-1.76-.78-2.64-2.35-2.64a2.2,2.2,0,0,0-1.67.72,2.9,2.9,0,0,0-.78,1.95v5h-1V70.57h1v1.36a3.4,3.4,0,0,1,1.12-1.17,3,3,0,0,1,1.57-.41C291.39,70.35,292.41,71.48,292.41,73.76Z"/><path class="cls-1" d="M300.33,71.07a3.13,3.13,0,0,1,1.14,2.21h-1a2.35,2.35,0,0,0-.84-1.57,2.75,2.75,0,0,0-1.76-.53,2.5,2.5,0,0,0-2.08,1,4.79,4.79,0,0,0,0,5.1,2.48,2.48,0,0,0,2.1.95,2.44,2.44,0,0,0,2.65-2.36h.95a3.8,3.8,0,0,1-1.19,2.39,3.56,3.56,0,0,1-2.41.8,3.46,3.46,0,0,1-2.85-1.25,4.64,4.64,0,0,1-.94-3.06,4.81,4.81,0,0,1,1-3.1,3.4,3.4,0,0,1,2.83-1.31A3.83,3.83,0,0,1,300.33,71.07Z"/><path class="cls-1" d="M309.32,71.68a5.76,5.76,0,0,1,.95,3.31h-6.72a3.85,3.85,0,0,0,.81,2.38,2.6,2.6,0,0,0,2.05.87,2.73,2.73,0,0,0,1.82-.6,3,3,0,0,0,.88-1.45h1a3.92,3.92,0,0,1-1.1,2,3.76,3.76,0,0,1-2.58.91,3.51,3.51,0,0,1-2.78-1.19,4.54,4.54,0,0,1-1.08-3.18,4.64,4.64,0,0,1,1-3.06,3.44,3.44,0,0,1,2.8-1.29A3.4,3.4,0,0,1,309.32,71.68Zm-4.89.35a3.61,3.61,0,0,0-.87,2.17h5.7c-.16-2-1.12-3-2.87-3A2.45,2.45,0,0,0,304.43,72Z"/><path class="cls-1" d="M313.82,78.57a3,3,0,0,1-1.6,2.77l-.34-.56a2.44,2.44,0,0,0,1.22-2h-.24a.9.9,0,0,1-.59-.2.77.77,0,0,1-.23-.58.71.71,0,0,1,.23-.59.75.75,0,0,1,.59-.23C313.5,77.24,313.82,77.69,313.82,78.57Zm-.39-7a.73.73,0,0,1,.24.58.78.78,0,0,1-.25.57.84.84,0,0,1-.56.23.75.75,0,0,1-.58-.24.77.77,0,0,1-.24-.56.73.73,0,0,1,.24-.58.75.75,0,0,1,.58-.22A.77.77,0,0,1,313.43,71.61Z"/><path class="cls-1" d="M150.89,95.42v11.42h-1V96.27H147a1.14,1.14,0,0,0-.91.32,1.41,1.41,0,0,0-.29,1v1h2.48v.83h-2.48v7.44h-1V99.4h-2.21v-.83h2.21v-1a2.2,2.2,0,0,1,.51-1.59,2,2,0,0,1,1.57-.59Z"/><path class="cls-1" d="M159.76,99.66a5.11,5.11,0,0,1,0,6.1,3.93,3.93,0,0,1-5.86,0,4.68,4.68,0,0,1-1-3,4.6,4.6,0,0,1,1-3.06,3.56,3.56,0,0,1,2.91-1.31A3.65,3.65,0,0,1,159.76,99.66Zm-5.15.61a4.39,4.39,0,0,0,0,4.88,2.83,2.83,0,0,0,4.46,0,4,4,0,0,0,.74-2.43,3.94,3.94,0,0,0-.74-2.45,2.83,2.83,0,0,0-4.46,0Z"/><path class="cls-1" d="M161.53,98.57h1.07l2.24,7,2.08-7h.93l2.08,7,2.26-7h1.05l-2.83,8.27h-.92l-2.09-7-2.11,7h-.91Z"/><path class="cls-1" d="M180.44,100.89h-.94a2,2,0,0,0-.69-1.26,3.28,3.28,0,0,0-3.17-.08,1.1,1.1,0,0,0,.16,2,11.48,11.48,0,0,0,1.75.57,8.63,8.63,0,0,1,2.14.77,1.88,1.88,0,0,1,1,1.67c0,1.67-1.11,2.51-3.36,2.51s-3.28-.95-3.47-2.83h1a2.21,2.21,0,0,0,.77,1.56,2.81,2.81,0,0,0,1.72.44c1.6,0,2.4-.55,2.4-1.64a1.25,1.25,0,0,0-.81-1.15,10.91,10.91,0,0,0-1.84-.57,7.94,7.94,0,0,1-2-.74,1.74,1.74,0,0,1-.94-1.58,1.86,1.86,0,0,1,.89-1.62,3.69,3.69,0,0,1,2.18-.59C179.11,98.35,180.21,99.2,180.44,100.89Z"/><path class="cls-1" d="M194.09,99.66a5.11,5.11,0,0,1,0,6.1,3.92,3.92,0,0,1-5.85,0,5.09,5.09,0,0,1,0-6.1,3.59,3.59,0,0,1,2.91-1.31A3.64,3.64,0,0,1,194.09,99.66Zm-5.15.61a4.39,4.39,0,0,0,0,4.88,2.83,2.83,0,0,0,4.46,0,3.94,3.94,0,0,0,.74-2.43,3.88,3.88,0,0,0-.74-2.45,2.83,2.83,0,0,0-4.46,0Z"/><path class="cls-1" d="M203.52,101.76v5.08h-1v-5c0-1.76-.79-2.64-2.36-2.64a2.18,2.18,0,0,0-1.66.72,2.9,2.9,0,0,0-.78,1.95v5h-1V98.57h1v1.36a3.31,3.31,0,0,1,1.12-1.17,3,3,0,0,1,1.56-.41C202.49,98.35,203.52,99.48,203.52,101.76Z"/><path class="cls-1" d="M216.94,99.29a3.23,3.23,0,0,1,.74,2.23v5.32h-.92v-1.58a4.29,4.29,0,0,1-1.34,1.23,4.11,4.11,0,0,1-2.16.58,3,3,0,0,1-2-.63,2.12,2.12,0,0,1-.75-1.71,2.44,2.44,0,0,1,1.3-2.3,5.49,5.49,0,0,1,2.76-.59l2.12,0v-.3a2.11,2.11,0,0,0-2.4-2.36,2.82,2.82,0,0,0-1.73.47,2,2,0,0,0-.85,1.44h-.94A2.86,2.86,0,0,1,212,99a4,4,0,0,1,2.4-.64A3.25,3.25,0,0,1,216.94,99.29Zm-.22,3.31-2.07,0c-2.09,0-3.13.71-3.13,2.1a1.39,1.39,0,0,0,.52,1.12,2.18,2.18,0,0,0,1.41.43,3.45,3.45,0,0,0,2.31-.87,2.44,2.44,0,0,0,1-1.84Z"/><path class="cls-1" d="M225.8,100.89h-.94a2,2,0,0,0-.69-1.26,3.28,3.28,0,0,0-3.17-.08,1.1,1.1,0,0,0,.16,2,11.1,11.1,0,0,0,1.75.57,8.63,8.63,0,0,1,2.14.77,1.88,1.88,0,0,1,1,1.67c0,1.67-1.12,2.51-3.36,2.51s-3.28-.95-3.47-2.83h.95a2.24,2.24,0,0,0,.76,1.56,2.86,2.86,0,0,0,1.73.44c1.6,0,2.4-.55,2.4-1.64a1.25,1.25,0,0,0-.81-1.15,10.91,10.91,0,0,0-1.84-.57,7.78,7.78,0,0,1-2-.74,1.74,1.74,0,0,1-.94-1.58,1.86,1.86,0,0,1,.89-1.62,3.69,3.69,0,0,1,2.18-.59C224.47,98.35,225.57,99.2,225.8,100.89Z"/><path class="cls-1" d="M233.69,100.89h-.94a2,2,0,0,0-.69-1.26,3.28,3.28,0,0,0-3.17-.08,1.1,1.1,0,0,0,.16,2,10.74,10.74,0,0,0,1.75.57,8.79,8.79,0,0,1,2.14.77,1.88,1.88,0,0,1,1,1.67c0,1.67-1.12,2.51-3.36,2.51s-3.28-.95-3.47-2.83H228a2.28,2.28,0,0,0,.77,1.56,2.86,2.86,0,0,0,1.73.44c1.6,0,2.4-.55,2.4-1.64a1.25,1.25,0,0,0-.82-1.15,10.6,10.6,0,0,0-1.84-.57,7.83,7.83,0,0,1-2-.74,1.75,1.75,0,0,1-1-1.58,1.87,1.87,0,0,1,.9-1.62,3.67,3.67,0,0,1,2.18-.59C232.36,98.35,233.46,99.2,233.69,100.89Z"/><path class="cls-1" d="M241.76,99.68a5.76,5.76,0,0,1,.94,3.31H236a3.86,3.86,0,0,0,.82,2.38,2.58,2.58,0,0,0,2,.87,2.76,2.76,0,0,0,1.83-.6,3.17,3.17,0,0,0,.88-1.45h1a3.92,3.92,0,0,1-1.1,2,3.73,3.73,0,0,1-2.58.91,3.51,3.51,0,0,1-2.78-1.19A4.53,4.53,0,0,1,235,102.7a4.63,4.63,0,0,1,1-3.06,3.81,3.81,0,0,1,5.75,0Zm-4.9.35a3.6,3.6,0,0,0-.86,2.17h5.69c-.16-2-1.11-3-2.86-3A2.47,2.47,0,0,0,236.86,100Z"/><path class="cls-1" d="M246.24,95.9v2.67h2.16v.83h-2.16V105a1.26,1.26,0,0,0,.19.79.93.93,0,0,0,.72.22h1v.83H247a1.72,1.72,0,0,1-1.38-.49,2.06,2.06,0,0,1-.36-1.35V99.4h-1.76v-.83h1.76V96.3Z"/><path class="cls-1" d="M261.08,99.07a3.13,3.13,0,0,1,1.14,2.21h-1a2.34,2.34,0,0,0-.83-1.57,2.79,2.79,0,0,0-1.76-.53,2.47,2.47,0,0,0-2.08,1,4.74,4.74,0,0,0,0,5.1,2.71,2.71,0,0,0,4.75-1.41h.94a3.79,3.79,0,0,1-1.18,2.39,3.6,3.6,0,0,1-2.42.8,3.47,3.47,0,0,1-2.85-1.25,4.64,4.64,0,0,1-.94-3.06,4.81,4.81,0,0,1,1-3.1,3.42,3.42,0,0,1,2.84-1.31A3.82,3.82,0,0,1,261.08,99.07Z"/><path class="cls-1" d="M263.79,95.2h1v4.88a3.2,3.2,0,0,1,1.16-1.3,3.23,3.23,0,0,1,3.77.4,3.31,3.31,0,0,1,.8,2.38v5.28h-1v-5.15a2.7,2.7,0,0,0-.61-1.87,2.4,2.4,0,0,0-3.45.19,3,3,0,0,0-.71,2v4.78h-1Z"/><path class="cls-1" d="M278.59,99.29a3.22,3.22,0,0,1,.73,2.23v5.32h-.91v-1.58a4.29,4.29,0,0,1-1.34,1.23,4.11,4.11,0,0,1-2.16.58,3,3,0,0,1-2-.63,2.12,2.12,0,0,1-.75-1.71,2.44,2.44,0,0,1,1.29-2.3,5.56,5.56,0,0,1,2.77-.59l2.11,0v-.3a2.11,2.11,0,0,0-2.4-2.36,2.81,2.81,0,0,0-1.72.47,2,2,0,0,0-.85,1.44h-.95A2.9,2.9,0,0,1,273.61,99a4,4,0,0,1,2.4-.64A3.28,3.28,0,0,1,278.59,99.29Zm-.23,3.31-2.06,0c-2.09,0-3.14.71-3.14,2.1a1.4,1.4,0,0,0,.53,1.12,2.16,2.16,0,0,0,1.41.43,3.42,3.42,0,0,0,2.3-.87,2.44,2.44,0,0,0,1-1.84Z"/><path class="cls-1" d="M282.88,95.84a.66.66,0,0,1,.24.56.79.79,0,0,1-.26.57.84.84,0,0,1-.56.23.8.8,0,0,1-.58-.23.78.78,0,0,1-.24-.57.66.66,0,0,1,.24-.56.77.77,0,0,1,.58-.24A.8.8,0,0,1,282.88,95.84Zm-1.06,2.73h1v8.27h-1Z"/><path class="cls-1" d="M292,101.76v5.08h-1v-5c0-1.76-.78-2.64-2.35-2.64a2.18,2.18,0,0,0-1.66.72,2.9,2.9,0,0,0-.78,1.95v5h-1V98.57h1v1.36a3.37,3.37,0,0,1,1.11-1.17,3,3,0,0,1,1.57-.41C291,98.35,292,99.48,292,101.76Z"/><path class="cls-1" d="M300.12,100.89h-.94a2,2,0,0,0-.69-1.26,3.28,3.28,0,0,0-3.17-.08,1.1,1.1,0,0,0,.16,2,11.1,11.1,0,0,0,1.75.57,8.79,8.79,0,0,1,2.14.77,1.88,1.88,0,0,1,1,1.67c0,1.67-1.12,2.51-3.36,2.51s-3.28-.95-3.47-2.83h1a2.24,2.24,0,0,0,.76,1.56,2.86,2.86,0,0,0,1.73.44c1.6,0,2.4-.55,2.4-1.64a1.25,1.25,0,0,0-.82-1.15,10.3,10.3,0,0,0-1.84-.57,7.83,7.83,0,0,1-2-.74,1.75,1.75,0,0,1-.95-1.58,1.87,1.87,0,0,1,.9-1.62,3.69,3.69,0,0,1,2.18-.59C298.79,98.35,299.89,99.2,300.12,100.89Z"/><path class="cls-1" d="M303.91,106.57a3,3,0,0,1-1.59,2.77l-.34-.56a2.46,2.46,0,0,0,1.22-2H303a.92.92,0,0,1-.59-.2.76.76,0,0,1-.22-.58.7.7,0,0,1,.22-.59.78.78,0,0,1,.59-.23C303.59,105.24,303.91,105.69,303.91,106.57Zm-.38-7a.73.73,0,0,1,.24.58.76.76,0,0,1-.26.57.82.82,0,0,1-.56.23.75.75,0,0,1-.57-.24.77.77,0,0,1-.24-.56.73.73,0,0,1,.24-.58.74.74,0,0,1,.57-.22A.78.78,0,0,1,303.53,99.61Z"/><path class="cls-1" d="M163.75,127.66a5.11,5.11,0,0,1,0,6.1,3.93,3.93,0,0,1-5.86,0,4.68,4.68,0,0,1-1-3,4.6,4.6,0,0,1,1-3.06,3.56,3.56,0,0,1,2.91-1.31A3.65,3.65,0,0,1,163.75,127.66Zm-5.15.61a4.39,4.39,0,0,0,0,4.88,2.83,2.83,0,0,0,4.46,0,4,4,0,0,0,.74-2.43,3.94,3.94,0,0,0-.74-2.45,2.83,2.83,0,0,0-4.46,0Z"/><path class="cls-1" d="M171.12,126.52v1a4.26,4.26,0,0,0-1.26-.18,2,2,0,0,0-1.79,1,3.51,3.51,0,0,0-.66,2.16v4.36h-1v-8.27h1v1.59a3.11,3.11,0,0,1,.91-1.24,2.41,2.41,0,0,1,1.6-.57A3.4,3.4,0,0,1,171.12,126.52Z"/><path class="cls-1" d="M173.75,123.84a.66.66,0,0,1,.24.56.79.79,0,0,1-.26.57.84.84,0,0,1-.56.23.76.76,0,0,1-.57-.23.78.78,0,0,1-.24-.57.66.66,0,0,1,.24-.56.73.73,0,0,1,.57-.24A.78.78,0,0,1,173.75,123.84Zm-1.06,2.73h1v8.27h-1Z"/><path class="cls-1" d="M182.52,128.24v-1.67h1v7.67c0,2.66-1.24,4-3.72,4a4,4,0,0,1-2.51-.71,3,3,0,0,1-1.05-2h1a2.09,2.09,0,0,0,.76,1.37,2.84,2.84,0,0,0,1.84.52q2.76,0,2.76-3.09v-1.59a3.08,3.08,0,0,1-3,1.89,3.43,3.43,0,0,1-2.77-1.23,4.89,4.89,0,0,1,0-5.82,3.39,3.39,0,0,1,2.77-1.25A3.08,3.08,0,0,1,182.52,128.24Zm-5-.08a3.57,3.57,0,0,0-.74,2.35,3.66,3.66,0,0,0,.69,2.3,2.54,2.54,0,0,0,2.16,1,2.61,2.61,0,0,0,2.15-1,4.2,4.2,0,0,0,0-4.7,2.77,2.77,0,0,0-4.26,0Z"/><path class="cls-1" d="M187,123.84a.66.66,0,0,1,.24.56.79.79,0,0,1-.26.57.84.84,0,0,1-.56.23.8.8,0,0,1-.81-.8.66.66,0,0,1,.24-.56.75.75,0,0,1,.57-.24A.78.78,0,0,1,187,123.84ZM186,126.57h1v8.27h-1Z"/><path class="cls-1" d="M196.15,129.76v5.08h-1v-5c0-1.76-.79-2.64-2.35-2.64a2.19,2.19,0,0,0-1.67.72,2.9,2.9,0,0,0-.78,1.95v5h-1v-8.27h1v1.36a3.4,3.4,0,0,1,1.12-1.17,3,3,0,0,1,1.57-.41C195.12,126.35,196.15,127.48,196.15,129.76Z"/><path class="cls-1" d="M210,127.66a5.15,5.15,0,0,1,0,6.1,3.93,3.93,0,0,1-5.86,0,4.68,4.68,0,0,1-1-3,4.55,4.55,0,0,1,1-3.06,3.56,3.56,0,0,1,2.91-1.31A3.67,3.67,0,0,1,210,127.66Zm-5.16.61a4.44,4.44,0,0,0,0,4.88,2.84,2.84,0,0,0,4.47,0,4,4,0,0,0,.73-2.43,3.94,3.94,0,0,0-.73-2.45,2.84,2.84,0,0,0-4.47,0Z"/><path class="cls-1" d="M217.57,123.42v.85h-1.39a1.14,1.14,0,0,0-.91.32,1.46,1.46,0,0,0-.29,1v1h2.48v.83H215v7.44h-1V127.4h-2.21v-.83H214v-1a2.2,2.2,0,0,1,.51-1.59,2,2,0,0,1,1.57-.59Z"/><path class="cls-1" d="M230.6,127.68a5.56,5.56,0,0,1,0,6.08,3.33,3.33,0,0,1-2.77,1.31,3,3,0,0,1-2.89-1.95V138h-1V126.57h.91v1.63a3,3,0,0,1,2.91-1.85A3.33,3.33,0,0,1,230.6,127.68Zm-5,.54a4.06,4.06,0,0,0-.68,2.45v.17a3.86,3.86,0,0,0,.73,2.45,2.43,2.43,0,0,0,2,1,2.57,2.57,0,0,0,2.17-1,4.21,4.21,0,0,0,.68-2.5,4.26,4.26,0,0,0-.66-2.49,2.49,2.49,0,0,0-2.16-1.08A2.45,2.45,0,0,0,225.6,128.22Z"/><path class="cls-1" d="M237.88,126.52v1a4.38,4.38,0,0,0-1.27-.18,2,2,0,0,0-1.79,1,3.51,3.51,0,0,0-.66,2.16v4.36h-1v-8.27h1v1.59a3.11,3.11,0,0,1,.91-1.24,2.42,2.42,0,0,1,1.61-.57A3.48,3.48,0,0,1,237.88,126.52Z"/><path class="cls-1" d="M245.51,127.66a5.11,5.11,0,0,1,0,6.1,3.93,3.93,0,0,1-5.86,0,4.68,4.68,0,0,1-1-3,4.6,4.6,0,0,1,1-3.06,3.56,3.56,0,0,1,2.91-1.31A3.65,3.65,0,0,1,245.51,127.66Zm-5.15.61a4.39,4.39,0,0,0,0,4.88,2.83,2.83,0,0,0,4.46,0,4,4,0,0,0,.74-2.43,3.94,3.94,0,0,0-.74-2.45,2.83,2.83,0,0,0-4.46,0Z"/><path class="cls-1" d="M254.45,123.2h1v11.64h-.91v-1.63a3,3,0,0,1-2.9,1.86,3.38,3.38,0,0,1-2.8-1.31,5,5,0,0,1-.91-3.06,4.88,4.88,0,0,1,.91-3,3.24,3.24,0,0,1,2.76-1.33,3,3,0,0,1,2.89,2Zm-4.89,5a4,4,0,0,0-.69,2.48,4.23,4.23,0,0,0,.67,2.5,2.49,2.49,0,0,0,2.16,1.05,2.45,2.45,0,0,0,2.09-1,4,4,0,0,0,.69-2.4v-.19a4,4,0,0,0-.73-2.48,2.41,2.41,0,0,0-2-1A2.53,2.53,0,0,0,249.56,128.22Z"/><path class="cls-1" d="M257.43,126.57h1v5.06a2.92,2.92,0,0,0,.54,1.93,2.23,2.23,0,0,0,1.78.68,2.32,2.32,0,0,0,1.68-.74,2.91,2.91,0,0,0,.81-1.9v-5h1v8.27h-1v-1.39a3,3,0,0,1-2.75,1.62c-2,0-3-1.13-3-3.39Z"/><path class="cls-1" d="M272.08,127.07a3.13,3.13,0,0,1,1.14,2.21h-1a2.39,2.39,0,0,0-.83-1.57,2.79,2.79,0,0,0-1.76-.53,2.47,2.47,0,0,0-2.08,1,4,4,0,0,0-.76,2.57,4.07,4.07,0,0,0,.72,2.53,2.48,2.48,0,0,0,2.1,1,2.45,2.45,0,0,0,2.66-2.36h.94a3.79,3.79,0,0,1-1.18,2.39,3.6,3.6,0,0,1-2.42.8,3.47,3.47,0,0,1-2.85-1.25,4.64,4.64,0,0,1-.94-3.06,4.81,4.81,0,0,1,1-3.1,3.42,3.42,0,0,1,2.84-1.31A3.82,3.82,0,0,1,272.08,127.07Z"/><path class="cls-1" d="M276.79,123.9v2.67H279v.83h-2.16V133a1.26,1.26,0,0,0,.19.79.93.93,0,0,0,.72.22h1v.83h-1.17a1.72,1.72,0,0,1-1.38-.49,2.06,2.06,0,0,1-.36-1.35v-5.6h-1.76v-.83h1.76V124.3Z"/><path class="cls-1" d="M286.51,128.89h-.94a1.93,1.93,0,0,0-.69-1.26,3.28,3.28,0,0,0-3.17-.08,1.1,1.1,0,0,0,.16,2,11.48,11.48,0,0,0,1.75.57,8.63,8.63,0,0,1,2.14.77,1.88,1.88,0,0,1,1,1.67c0,1.67-1.11,2.51-3.35,2.51s-3.29-.95-3.48-2.83h.95a2.21,2.21,0,0,0,.77,1.56,2.81,2.81,0,0,0,1.72.44c1.6,0,2.4-.55,2.4-1.64a1.25,1.25,0,0,0-.81-1.15,10.91,10.91,0,0,0-1.84-.57,7.94,7.94,0,0,1-2-.74,1.74,1.74,0,0,1-.94-1.58,1.88,1.88,0,0,1,.89-1.62,3.69,3.69,0,0,1,2.18-.59C285.18,126.35,286.28,127.2,286.51,128.89Z"/><path class="cls-1" d="M290.31,134.57a3,3,0,0,1-1.6,2.77l-.34-.56a2.46,2.46,0,0,0,1.22-1.95h-.24a.92.92,0,0,1-.6-.2.76.76,0,0,1-.22-.58.7.7,0,0,1,.22-.59.78.78,0,0,1,.6-.23C290,133.24,290.31,133.69,290.31,134.57Zm-.39-7a.73.73,0,0,1,.24.58.78.78,0,0,1-.25.57.84.84,0,0,1-.56.23.75.75,0,0,1-.58-.24.77.77,0,0,1-.24-.56.73.73,0,0,1,.24-.58.75.75,0,0,1,.58-.22A.77.77,0,0,1,289.92,127.61Z"/><path class="cls-1" d="M182.52,155.07a3.13,3.13,0,0,1,1.14,2.21h-1a2.34,2.34,0,0,0-.83-1.57,2.79,2.79,0,0,0-1.76-.53,2.47,2.47,0,0,0-2.08,1,4.79,4.79,0,0,0,0,5.1,2.71,2.71,0,0,0,4.75-1.41h.94a3.79,3.79,0,0,1-1.18,2.39,3.6,3.6,0,0,1-2.42.8,3.48,3.48,0,0,1-2.85-1.25,4.64,4.64,0,0,1-.94-3.06,4.81,4.81,0,0,1,1-3.1,3.39,3.39,0,0,1,2.83-1.31A3.8,3.8,0,0,1,182.52,155.07Z"/><path class="cls-1" d="M185.23,151.2h1v4.88a3.2,3.2,0,0,1,1.16-1.3,3.23,3.23,0,0,1,3.77.4,3.31,3.31,0,0,1,.8,2.38v5.28h-1v-5.15a2.7,2.7,0,0,0-.61-1.87,2.4,2.4,0,0,0-3.45.19,3,3,0,0,0-.71,2.05v4.78h-1Z"/><path class="cls-1" d="M200,155.29a3.22,3.22,0,0,1,.73,2.23v5.32h-.91v-1.58a4.29,4.29,0,0,1-1.34,1.23,4.11,4.11,0,0,1-2.16.58,3,3,0,0,1-2-.63,2.12,2.12,0,0,1-.75-1.71,2.44,2.44,0,0,1,1.29-2.3,5.56,5.56,0,0,1,2.77-.59l2.11,0v-.3a2.11,2.11,0,0,0-2.4-2.36,2.81,2.81,0,0,0-1.72.47,2,2,0,0,0-.85,1.44h-1a2.9,2.9,0,0,1,1.17-2.08,4,4,0,0,1,2.4-.64A3.28,3.28,0,0,1,200,155.29Zm-.23,3.31-2.06,0c-2.09,0-3.14.71-3.14,2.1a1.4,1.4,0,0,0,.53,1.12,2.16,2.16,0,0,0,1.41.43,3.42,3.42,0,0,0,2.3-.87,2.41,2.41,0,0,0,1-1.84Z"/><path class="cls-1" d="M207.45,154.52v1a4.26,4.26,0,0,0-1.26-.18,2,2,0,0,0-1.79,1,3.51,3.51,0,0,0-.66,2.16v4.36h-1v-8.27h1v1.59a3,3,0,0,1,.91-1.24,2.39,2.39,0,0,1,1.6-.57A3.48,3.48,0,0,1,207.45,154.52Z"/><path class="cls-1" d="M210.08,151.84a.66.66,0,0,1,.24.56.79.79,0,0,1-.26.57.84.84,0,0,1-.56.23.8.8,0,0,1-.58-.23.78.78,0,0,1-.24-.57.66.66,0,0,1,.24-.56.77.77,0,0,1,.58-.24A.8.8,0,0,1,210.08,151.84ZM209,154.57h1v8.27h-1Z"/><path class="cls-1" d="M214.48,151.9v2.67h2.16v.83h-2.16V161a1.26,1.26,0,0,0,.19.79.93.93,0,0,0,.72.22h1v.83h-1.17a1.72,1.72,0,0,1-1.38-.49,2.06,2.06,0,0,1-.36-1.35v-5.6h-1.76v-.83h1.76V152.3Z"/><path class="cls-1" d="M217.16,154.57h1.06l2.7,6.9,2.68-6.9h1.05L220.09,166h-1l1.39-3.37Z"/><path class="cls-1" d="M237.36,155.68a5.76,5.76,0,0,1,.94,3.31h-6.72a3.8,3.8,0,0,0,.82,2.38,2.58,2.58,0,0,0,2,.87,2.76,2.76,0,0,0,1.83-.6,3.09,3.09,0,0,0,.88-1.45h1a3.92,3.92,0,0,1-1.1,2,3.73,3.73,0,0,1-2.58.91,3.51,3.51,0,0,1-2.78-1.19,4.58,4.58,0,0,1-1.07-3.18,4.63,4.63,0,0,1,1-3.06,3.81,3.81,0,0,1,5.75,0Zm-4.9.35a3.6,3.6,0,0,0-.86,2.17h5.69c-.16-2-1.11-3-2.86-3A2.47,2.47,0,0,0,232.46,156Z"/><path class="cls-1" d="M238.91,154.57H240l2.61,7.06,2.59-7.06h1.08l-3.17,8.27h-1Z"/><path class="cls-1" d="M253.61,155.68a5.76,5.76,0,0,1,.95,3.31h-6.73a3.92,3.92,0,0,0,.82,2.38,2.6,2.6,0,0,0,2,.87,2.73,2.73,0,0,0,1.82-.6,3,3,0,0,0,.88-1.45h1a3.92,3.92,0,0,1-1.1,2,3.76,3.76,0,0,1-2.58.91,3.55,3.55,0,0,1-2.79-1.19,5.16,5.16,0,0,1,0-6.24,3.8,3.8,0,0,1,5.74,0Zm-4.89.35a3.61,3.61,0,0,0-.87,2.17h5.7c-.16-2-1.12-3-2.87-3A2.45,2.45,0,0,0,248.72,156Z"/><path class="cls-1" d="M262.81,157.76v5.08h-1v-5c0-1.76-.78-2.64-2.35-2.64a2.2,2.2,0,0,0-1.67.72,2.94,2.94,0,0,0-.78,1.95v5h-1v-8.27h1v1.36a3.4,3.4,0,0,1,1.12-1.17,3,3,0,0,1,1.57-.41C261.79,154.35,262.81,155.48,262.81,157.76Z"/><path class="cls-1" d="M266.83,151.9v2.67H269v.83h-2.16V161a1.26,1.26,0,0,0,.19.79.93.93,0,0,0,.72.22h1v.83h-1.17a1.68,1.68,0,0,1-1.37-.49,2,2,0,0,1-.37-1.35v-5.6h-1.76v-.83h1.76V152.3Z"/><path class="cls-1" d="M276.56,156.89h-.95a2,2,0,0,0-.69-1.26,3.28,3.28,0,0,0-3.17-.08,1.1,1.1,0,0,0,.16,2,11.1,11.1,0,0,0,1.75.57,8.63,8.63,0,0,1,2.14.77,1.88,1.88,0,0,1,1,1.67c0,1.67-1.12,2.51-3.36,2.51s-3.28-.95-3.47-2.83h1a2.24,2.24,0,0,0,.76,1.56,2.88,2.88,0,0,0,1.73.44c1.6,0,2.4-.55,2.4-1.64a1.25,1.25,0,0,0-.81-1.15,10.91,10.91,0,0,0-1.84-.57,7.94,7.94,0,0,1-2-.74,1.74,1.74,0,0,1-.94-1.58,1.88,1.88,0,0,1,.89-1.62,3.69,3.69,0,0,1,2.18-.59C275.22,154.35,276.32,155.2,276.56,156.89Z"/><path class="cls-1" d="M213.72,189.47a.72.72,0,0,1,.24.57.78.78,0,0,1-.24.58.88.88,0,0,1-.58.22.82.82,0,0,1-.82-.8.72.72,0,0,1,.24-.57.75.75,0,0,1,.58-.23A.8.8,0,0,1,213.72,189.47Zm5.34,0a.77.77,0,0,1,.22.57.84.84,0,0,1-.22.58.87.87,0,0,1-.59.22.78.78,0,0,1-.58-.24.76.76,0,0,1-.24-.56.72.72,0,0,1,.24-.57.78.78,0,0,1,.58-.23A.81.81,0,0,1,219.06,189.47Zm5.31,0a.72.72,0,0,1,.24.57.78.78,0,0,1-.24.58.83.83,0,0,1-.57.22.78.78,0,0,1-.58-.24A.76.76,0,0,1,223,190a.72.72,0,0,1,.24-.57.83.83,0,0,1,1.15,0Z"/><path class="cls-1" d="M229.72,189.47a.72.72,0,0,1,.24.57.78.78,0,0,1-.24.58.88.88,0,0,1-.58.22.82.82,0,0,1-.82-.8.72.72,0,0,1,.24-.57.75.75,0,0,1,.58-.23A.8.8,0,0,1,229.72,189.47Zm5.34,0a.77.77,0,0,1,.22.57.84.84,0,0,1-.22.58.87.87,0,0,1-.59.22.78.78,0,0,1-.58-.24.76.76,0,0,1-.24-.56.72.72,0,0,1,.24-.57.78.78,0,0,1,.58-.23A.81.81,0,0,1,235.06,189.47Zm5.31,0a.72.72,0,0,1,.24.57.78.78,0,0,1-.24.58.83.83,0,0,1-.57.22.78.78,0,0,1-.58-.24A.76.76,0,0,1,239,190a.72.72,0,0,1,.24-.57.83.83,0,0,1,1.15,0Z"/></svg>