<svg id="图层_1" data-name="图层 1" xmlns="http://www.w3.org/2000/svg" viewBox="0 0 400 275"><defs><style>.cls-1{fill:#33353c;}</style></defs><title>团队介绍</title><path class="cls-1" d="M169.81,4h3.09l6,13.73H179L184.9,4H188V21.18h-2.62V8.94h-.09L180,21.18h-2.25L172.52,8.94h-.1V21.18h-2.61Z"/><path class="cls-1" d="M200.74,9.8a4.83,4.83,0,0,1,1.13,3.46v7.92h-2.35V19.43a5.56,5.56,0,0,1-1.82,1.51,6.73,6.73,0,0,1-2.86.57,4.46,4.46,0,0,1-3.05-1,3.35,3.35,0,0,1-1.15-2.66,3.79,3.79,0,0,1,1.85-3.48,7.7,7.7,0,0,1,4.08-1l2.78,0v-.31c0-1.73-.93-2.59-2.81-2.59a3.51,3.51,0,0,0-2,.48,2.22,2.22,0,0,0-1,1.63H191a4.38,4.38,0,0,1,1.88-3.26,6.7,6.7,0,0,1,3.81-.92A5.31,5.31,0,0,1,200.74,9.8Zm-1.39,5.55-2.61,0c-2.32,0-3.48.81-3.48,2.42a1.55,1.55,0,0,0,.55,1.23,2.38,2.38,0,0,0,1.61.48,4.31,4.31,0,0,0,2.85-1A3.3,3.3,0,0,0,199.35,16Z"/><path class="cls-1" d="M208.54,4.76v4h2.84v2.11h-2.84v7.2a1.2,1.2,0,0,0,.22.75.9.9,0,0,0,.67.24h1.63v2.11h-2a2.88,2.88,0,0,1-2.32-.84,3.24,3.24,0,0,1-.7-2.26v-7.2h-2.3V8.77H206V5.82Z"/><path class="cls-1" d="M223.3,10.5a8.31,8.31,0,0,1,1.49,5.18h-9.41a4.68,4.68,0,0,0,1,2.79,3.07,3.07,0,0,0,2.37,1,3.5,3.5,0,0,0,2.16-.63A4.13,4.13,0,0,0,222,17.19h2.55a5.78,5.78,0,0,1-1.71,2.91,6,6,0,0,1-4.1,1.41,5.64,5.64,0,0,1-4.35-1.7A6.72,6.72,0,0,1,212.7,15a6.73,6.73,0,0,1,1.63-4.63,5.36,5.36,0,0,1,4.34-1.9A5.43,5.43,0,0,1,223.3,10.5Zm-6.84.86a4.35,4.35,0,0,0-1,2.4h6.7q-.36-3.24-3.39-3.24A3.08,3.08,0,0,0,216.46,11.36Z"/><path class="cls-1" d="M237.17,10.31A6.72,6.72,0,0,1,238.85,15a6.6,6.6,0,0,1-1.65,4.63,6.39,6.39,0,0,1-9.07,0A6.56,6.56,0,0,1,226.47,15a6.62,6.62,0,0,1,1.68-4.68,6.35,6.35,0,0,1,9,0Zm-7.24,1.6a5.13,5.13,0,0,0-.84,3.08,5,5,0,0,0,.84,3,3.15,3.15,0,0,0,2.73,1.4,3.27,3.27,0,0,0,2.76-1.4,5.1,5.1,0,0,0,.87-3,5.06,5.06,0,0,0-.87-3.08,3.24,3.24,0,0,0-2.76-1.39A3.14,3.14,0,0,0,229.93,11.91Z"/><path class="cls-1" d="M46.77,43.33h5.32q4.59,0,4.59,3.9t-4.62,3.94H48.73v5h-2Zm2,1.67v4.5h3.2A3.4,3.4,0,0,0,54.06,49a2.14,2.14,0,0,0,.66-1.73A1.94,1.94,0,0,0,54,45.54,3.36,3.36,0,0,0,51.93,45Z"/><path class="cls-1" d="M66,48a5.07,5.07,0,0,1,1.26,3.51A4.93,4.93,0,0,1,66,55a4.79,4.79,0,0,1-6.81,0,5.51,5.51,0,0,1,0-7A4.79,4.79,0,0,1,66,48Zm-5.44,1.21a4.5,4.5,0,0,0,0,4.59,2.38,2.38,0,0,0,2.06,1,2.44,2.44,0,0,0,2.07-1,3.87,3.87,0,0,0,.64-2.29,3.82,3.82,0,0,0-.64-2.3,2.42,2.42,0,0,0-2.07-1A2.34,2.34,0,0,0,60.55,49.23Z"/><path class="cls-1" d="M71.37,43.51a1.16,1.16,0,0,1,.38.91,1.26,1.26,0,0,1-.4.94,1.32,1.32,0,0,1-.93.36,1.37,1.37,0,0,1-.94-.36,1.27,1.27,0,0,1-.38-.94,1.16,1.16,0,0,1,.38-.91,1.27,1.27,0,0,1,.94-.36A1.29,1.29,0,0,1,71.37,43.51Zm-1.91,3.36h1.91v9.31H69.46Z"/><path class="cls-1" d="M82.13,50.44v5.74h-1.9V50.6c0-1.59-.73-2.38-2.18-2.38a1.91,1.91,0,0,0-1.42.58,2.77,2.77,0,0,0-.78,1.78v5.6H74V46.87h1.9V48a3.65,3.65,0,0,1,1.25-1,3.21,3.21,0,0,1,1.56-.36C81,46.62,82.13,47.89,82.13,50.44Z"/><path class="cls-1" d="M87.14,43.87v3h2.12v1.59H87.14v5.4a.82.82,0,0,0,.16.55.69.69,0,0,0,.51.18H89v1.59H87.5a2.2,2.2,0,0,1-1.75-.63,2.49,2.49,0,0,1-.52-1.69v-5.4H83.5V46.87h1.73V44.66Z"/><path class="cls-1" d="M98.23,49.55H96.37a1.72,1.72,0,0,0-.66-1,2.69,2.69,0,0,0-1.48-.32,2.52,2.52,0,0,0-1.3.25.88.88,0,0,0-.5.83c0,.31.25.58.76.82a14.09,14.09,0,0,0,1.87.56,8.25,8.25,0,0,1,2.36.88,2.2,2.2,0,0,1,1.11,1.95q0,3-4.14,3-3.81,0-4.14-3.26h1.88a2,2,0,0,0,.66,1.33,2.69,2.69,0,0,0,1.55.36c1.49,0,2.23-.42,2.23-1.26a1.18,1.18,0,0,0-.83-1.06A10.55,10.55,0,0,0,93.87,52a7.39,7.39,0,0,1-2.3-.81,2.11,2.11,0,0,1-1.08-1.87,2.24,2.24,0,0,1,1-2,4.75,4.75,0,0,1,2.74-.72Q97.9,46.62,98.23,49.55Z"/><path class="cls-1" d="M107.57,48.17a6.29,6.29,0,0,1,1.11,3.89h-7.05a3.41,3.41,0,0,0,.74,2.08,2.29,2.29,0,0,0,1.78.72,2.66,2.66,0,0,0,1.62-.46,3.1,3.1,0,0,0,.84-1.21h1.91a4.3,4.3,0,0,1-1.28,2.18,4.5,4.5,0,0,1-3.07,1.06,4.24,4.24,0,0,1-3.26-1.28,5,5,0,0,1-1.3-3.63A5.05,5.05,0,0,1,100.84,48a4,4,0,0,1,3.25-1.42A4.09,4.09,0,0,1,107.57,48.17Zm-5.13.65a3.19,3.19,0,0,0-.78,1.8h5a2.36,2.36,0,0,0-2.54-2.43A2.31,2.31,0,0,0,102.44,48.82Z"/><path class="cls-1" d="M113.13,43.87v3h2.12v1.59h-2.12v5.4a.82.82,0,0,0,.16.55.69.69,0,0,0,.51.18H115v1.59h-1.53a2.2,2.2,0,0,1-1.75-.63,2.49,2.49,0,0,1-.52-1.69v-5.4h-1.73V46.87h1.73V44.66Z"/><path class="cls-1" d="M138.26,41.29A16.67,16.67,0,0,0,136.53,45a14,14,0,0,0-.79,4.68,14.29,14.29,0,0,0,.79,4.68,17.46,17.46,0,0,0,1.73,3.72h-1.6a15.49,15.49,0,0,1-1.95-3.67,13.86,13.86,0,0,1,0-9.45,14.26,14.26,0,0,1,1.95-3.69Z"/><path class="cls-1" d="M149,44a4,4,0,0,1,1.53,3.09h-1.95a2.82,2.82,0,0,0-1-1.8,3.66,3.66,0,0,0-2.2-.55,4.08,4.08,0,0,0-1.94.37,1.47,1.47,0,0,0-.83,1.41,1.54,1.54,0,0,0,.95,1.37,13.61,13.61,0,0,0,2.23.79A18.58,18.58,0,0,1,149.13,50a3.11,3.11,0,0,1,1.66,2.77,3.22,3.22,0,0,1-1.35,2.72,7.76,7.76,0,0,1-7.46,0,4.48,4.48,0,0,1-1.74-3.56h1.94a3.18,3.18,0,0,0,1.08,2.18,4,4,0,0,0,2.4.59,4.8,4.8,0,0,0,2.32-.5,1.51,1.51,0,0,0,.86-1.35,1.9,1.9,0,0,0-1.22-1.69,23.84,23.84,0,0,0-2.56-.87,24.43,24.43,0,0,1-2.95-1.06,2.84,2.84,0,0,1-1.48-2.57A3.07,3.07,0,0,1,142.06,44a5.92,5.92,0,0,1,3.4-.92A5.64,5.64,0,0,1,149,44Z"/><path class="cls-1" d="M154.73,43.51a1.16,1.16,0,0,1,.38.91,1.3,1.3,0,0,1-.4.94,1.35,1.35,0,0,1-.94.36,1.32,1.32,0,0,1-.93-.36,1.27,1.27,0,0,1-.38-.94,1.16,1.16,0,0,1,.38-.91,1.26,1.26,0,0,1,.93-.36A1.3,1.3,0,0,1,154.73,43.51Zm-1.91,3.36h1.91v9.31h-1.91Z"/><path class="cls-1" d="M165.49,50.44v5.74h-1.91V50.6c0-1.59-.72-2.38-2.17-2.38a1.93,1.93,0,0,0-1.43.58,2.81,2.81,0,0,0-.77,1.78v5.6H157.3V46.87h1.91V48a3.62,3.62,0,0,1,1.24-1,3.28,3.28,0,0,1,1.57-.36Q165.49,46.62,165.49,50.44Z"/><path class="cls-1" d="M174.38,48.11V46.87h1.91v8.7c0,3-1.44,4.42-4.34,4.42a5.13,5.13,0,0,1-3-.73A3.45,3.45,0,0,1,167.71,57h1.9a1.72,1.72,0,0,0,.69,1.17,3.13,3.13,0,0,0,1.65.34c1.62,0,2.43-.87,2.43-2.63V54.41A3.21,3.21,0,0,1,171.54,56a3.93,3.93,0,0,1-3.06-1.28,4.69,4.69,0,0,1-1.17-3.36,4.83,4.83,0,0,1,1.17-3.39,3.89,3.89,0,0,1,3.06-1.31A3.24,3.24,0,0,1,174.38,48.11ZM170,49a3.43,3.43,0,0,0-.69,2.31,3.75,3.75,0,0,0,.54,2.14,2.27,2.27,0,0,0,2,.94,2.41,2.41,0,0,0,1.91-.81,3.66,3.66,0,0,0,.66-2.27,3.73,3.73,0,0,0-.66-2.31,2.34,2.34,0,0,0-1.91-.84A2.19,2.19,0,0,0,170,49Z"/><path class="cls-1" d="M185.67,47.65a3.66,3.66,0,0,1,.85,2.59v5.94h-1.77V54.86A4.06,4.06,0,0,1,183.38,56a4.93,4.93,0,0,1-2.14.43,3.34,3.34,0,0,1-2.28-.74,2.51,2.51,0,0,1-.87-2,2.85,2.85,0,0,1,1.39-2.61,5.78,5.78,0,0,1,3.06-.72h2.09v-.24c0-1.29-.71-1.94-2.11-1.94a2.65,2.65,0,0,0-1.51.36,1.63,1.63,0,0,0-.74,1.22h-1.89a3.29,3.29,0,0,1,1.4-2.45,5.16,5.16,0,0,1,2.87-.68A4,4,0,0,1,185.67,47.65Zm-1,4.15-2,0c-1.74,0-2.61.61-2.61,1.82a1.16,1.16,0,0,0,.42.92,1.77,1.77,0,0,0,1.2.36,3.25,3.25,0,0,0,2.15-.72,2.46,2.46,0,0,0,.81-1.91Z"/><path class="cls-1" d="M196.58,48.08a6.08,6.08,0,0,1,0,6.89,3.78,3.78,0,0,1-3.15,1.46,3.37,3.37,0,0,1-2.85-1.62v4.93h-1.91V46.87h1.79V48a3.29,3.29,0,0,1,2.88-1.37A4,4,0,0,1,196.58,48.08Zm-5.44,1.08a4,4,0,0,0-.59,2.3v.16a3.66,3.66,0,0,0,.74,2.42,2.06,2.06,0,0,0,1.72.84,2.36,2.36,0,0,0,2.07-.92,4.09,4.09,0,0,0,.62-2.39,4.5,4.5,0,0,0-.56-2.39,2.3,2.3,0,0,0-2.07-1A2.18,2.18,0,0,0,191.14,49.16Z"/><path class="cls-1" d="M207.13,48a5.11,5.11,0,0,1,1.25,3.51A4.93,4.93,0,0,1,207.14,55a4.78,4.78,0,0,1-6.8,0,4.93,4.93,0,0,1-1.24-3.48A5,5,0,0,1,200.36,48a4.79,4.79,0,0,1,6.77,0Zm-5.44,1.21a4.5,4.5,0,0,0,0,4.59,2.36,2.36,0,0,0,2.05,1,2.44,2.44,0,0,0,2.07-1,3.87,3.87,0,0,0,.65-2.29,3.82,3.82,0,0,0-.65-2.3,2.4,2.4,0,0,0-2.07-1A2.33,2.33,0,0,0,201.69,49.23Z"/><path class="cls-1" d="M215.73,46.85v1.91a4.64,4.64,0,0,0-1.35-.2,2.12,2.12,0,0,0-1.55.71,2.71,2.71,0,0,0-.72,2v4.93H210.2V46.87h1.91v1.41a2.83,2.83,0,0,1,.9-1.14,2.27,2.27,0,0,1,1.51-.52A2.81,2.81,0,0,1,215.73,46.85Z"/><path class="cls-1" d="M224.32,48.17a6.29,6.29,0,0,1,1.11,3.89h-7.05a3.41,3.41,0,0,0,.73,2.08,2.33,2.33,0,0,0,1.79.72,2.7,2.7,0,0,0,1.62-.46,3.1,3.1,0,0,0,.84-1.21h1.91A4.3,4.3,0,0,1,224,55.37a4.52,4.52,0,0,1-3.08,1.06,4.22,4.22,0,0,1-3.25-1.28,5,5,0,0,1-1.3-3.63A5.09,5.09,0,0,1,217.58,48a4,4,0,0,1,3.26-1.42A4.09,4.09,0,0,1,224.32,48.17Zm-5.13.65a3.19,3.19,0,0,0-.78,1.8h5a2.35,2.35,0,0,0-2.53-2.43A2.31,2.31,0,0,0,219.19,48.82Z"/><path class="cls-1" d="M229,41.29A16,16,0,0,1,231,45a13.86,13.86,0,0,1,0,9.45,16.26,16.26,0,0,1-2,3.67h-1.6a19.06,19.06,0,0,0,1.73-3.72,14.74,14.74,0,0,0,.79-4.68,14.46,14.46,0,0,0-.79-4.68,18.11,18.11,0,0,0-1.73-3.73Z"/><path class="cls-1" d="M245.23,43.33h5.33q4.59,0,4.59,3.9t-4.63,3.94h-3.33v5h-2Zm2,1.67v4.5h3.21a3.35,3.35,0,0,0,2.12-.54,2.14,2.14,0,0,0,.67-1.73,1.92,1.92,0,0,0-.69-1.69,3.3,3.3,0,0,0-2.1-.54Z"/><path class="cls-1" d="M256,43.33h10.53V45h-4.29V56.18h-1.94V45H256Z"/><path class="cls-1" d="M268.05,43.33h9.24V45H270v3.74h6.84v1.68H270V54.5h7.57v1.68h-9.54Z"/><path class="cls-1" d="M281.73,54a1.16,1.16,0,0,1,.38.92,1.31,1.31,0,0,1-.39.94,1.37,1.37,0,0,1-.94.36,1.31,1.31,0,0,1-.94-.38,1.25,1.25,0,0,1-.37-.92,1.19,1.19,0,0,1,.37-.92,1.42,1.42,0,0,1,1.89,0Z"/><path class="cls-1" d="M284.49,43.33h1.94V54.5h7.08v1.68h-9Z"/><path class="cls-1" d="M294.14,43.33h10.53V45h-4.29V56.18h-1.94V45h-4.3Z"/><path class="cls-1" d="M306.21,43.33h4.68a6.13,6.13,0,0,1,4.72,1.74,6.6,6.6,0,0,1,1.51,4.68,6.66,6.66,0,0,1-1.55,4.7,6.15,6.15,0,0,1-4.71,1.73h-4.65Zm2,1.67v9.5h2.32a4.81,4.81,0,0,0,3.58-1.17,5,5,0,0,0,1.12-3.58,5.08,5.08,0,0,0-1.1-3.6A4.83,4.83,0,0,0,310.53,45Z"/><path class="cls-1" d="M334.4,44.24a4.74,4.74,0,0,1,1.71,3.1H334.2A3.07,3.07,0,0,0,333,45.41a4.08,4.08,0,0,0-2.3-.61,3.64,3.64,0,0,0-3.13,1.42,5.69,5.69,0,0,0-1,3.55,5.77,5.77,0,0,0,1,3.58A4.35,4.35,0,0,0,333,54a3.94,3.94,0,0,0,1.35-2.27h1.91a5.7,5.7,0,0,1-2,3.51,5.55,5.55,0,0,1-3.57,1.19,5.69,5.69,0,0,1-4.75-2,7.17,7.17,0,0,1-1.39-4.64A7.19,7.19,0,0,1,326,45.11a5.6,5.6,0,0,1,4.68-2A5.68,5.68,0,0,1,334.4,44.24Z"/><path class="cls-1" d="M338.27,43.33h9.24V45h-7.28v3.74h6.84v1.68h-6.84V54.5h7.58v1.68h-9.54Z"/><path class="cls-1" d="M360.12,45a6.9,6.9,0,0,1,1.62,4.79,6.93,6.93,0,0,1-1.62,4.77,6.58,6.58,0,0,1-9.25,0,6.9,6.9,0,0,1-1.6-4.75,6.93,6.93,0,0,1,1.6-4.77,6.53,6.53,0,0,1,9.25,0Zm-7.81,1.21a5.46,5.46,0,0,0-1.08,3.58,5.46,5.46,0,0,0,1.08,3.56,4.42,4.42,0,0,0,6.36,0,5.47,5.47,0,0,0,1.09-3.6,5.62,5.62,0,0,0-1.09-3.64,3.91,3.91,0,0,0-3.17-1.33A3.86,3.86,0,0,0,352.31,46.19Z"/><path class="cls-1" d="M120.93,75.41h7.57v.87h-6.6v4.24h6.26v.86H121.9v5.46h-1Z"/><path class="cls-1" d="M136.5,79.65a5.15,5.15,0,0,1,0,6.1,3.93,3.93,0,0,1-5.86,0,4.66,4.66,0,0,1-1-3,4.55,4.55,0,0,1,1-3.06,3.56,3.56,0,0,1,2.91-1.31A3.67,3.67,0,0,1,136.5,79.65Zm-5.16.61a3.88,3.88,0,0,0-.73,2.45,3.84,3.84,0,0,0,.73,2.43,2.84,2.84,0,0,0,4.47,0,4,4,0,0,0,.73-2.43,4,4,0,0,0-.73-2.45,2.84,2.84,0,0,0-4.47,0Z"/><path class="cls-1" d="M139.2,78.56h1v5.06a3,3,0,0,0,.54,1.94,2.26,2.26,0,0,0,1.78.67,2.32,2.32,0,0,0,1.68-.74,3,3,0,0,0,.82-1.9v-5h1v8.28h-1v-1.4a3,3,0,0,1-2.76,1.62q-3,0-3-3.39Z"/><path class="cls-1" d="M154.67,81.75v5.09h-1v-5c0-1.76-.78-2.64-2.35-2.64a2.17,2.17,0,0,0-1.66.72,3,3,0,0,0-.79,2v5h-1V78.56h1v1.36A3.28,3.28,0,0,1,150,78.76a2.9,2.9,0,0,1,1.57-.42Q154.68,78.34,154.67,81.75Z"/><path class="cls-1" d="M162.93,75.19h1V86.84H163V85.2a3,3,0,0,1-2.9,1.86,3.37,3.37,0,0,1-2.8-1.31,4.9,4.9,0,0,1-.91-3.06,4.84,4.84,0,0,1,.91-3A3.23,3.23,0,0,1,160,78.34a3,3,0,0,1,2.9,2Zm-4.9,5a4,4,0,0,0-.69,2.48,4.21,4.21,0,0,0,.68,2.5,2.49,2.49,0,0,0,2.16,1,2.45,2.45,0,0,0,2.09-1,4,4,0,0,0,.69-2.4v-.19a4,4,0,0,0-.74-2.48,2.39,2.39,0,0,0-2-1A2.54,2.54,0,0,0,158,80.21Z"/><path class="cls-1" d="M172.19,79.67a5.78,5.78,0,0,1,.95,3.31h-6.72a3.85,3.85,0,0,0,.81,2.38,2.6,2.6,0,0,0,2.05.87,2.78,2.78,0,0,0,1.82-.59,3,3,0,0,0,.88-1.46h1a3.88,3.88,0,0,1-1.1,2,3.7,3.7,0,0,1-2.58.91,3.51,3.51,0,0,1-2.78-1.18,4.55,4.55,0,0,1-1.08-3.19,4.63,4.63,0,0,1,1-3,3.79,3.79,0,0,1,5.74,0ZM167.3,80a3.64,3.64,0,0,0-.87,2.18h5.7c-.16-2-1.12-3-2.87-3A2.45,2.45,0,0,0,167.3,80Z"/><path class="cls-1" d="M179.34,78.52v1a4.27,4.27,0,0,0-1.26-.17,2,2,0,0,0-1.79,1,3.55,3.55,0,0,0-.66,2.16v4.37h-1V78.56h1v1.59a3.07,3.07,0,0,1,.91-1.23,2.37,2.37,0,0,1,1.6-.58A3.15,3.15,0,0,1,179.34,78.52Z"/><path class="cls-1" d="M192.3,79.65a5.11,5.11,0,0,1,0,6.1,3.92,3.92,0,0,1-5.85,0,4.66,4.66,0,0,1-1-3,4.6,4.6,0,0,1,1-3.06,3.59,3.59,0,0,1,2.92-1.31A3.63,3.63,0,0,1,192.3,79.65Zm-5.15.61a3.88,3.88,0,0,0-.73,2.45,3.84,3.84,0,0,0,.73,2.43,2.84,2.84,0,0,0,4.47,0,4,4,0,0,0,.73-2.43,4,4,0,0,0-.73-2.45,2.84,2.84,0,0,0-4.47,0Z"/><path class="cls-1" d="M199.84,75.41v.85h-1.39a1.14,1.14,0,0,0-.91.32,1.41,1.41,0,0,0-.29,1v1h2.48v.84h-2.48v7.44h-1V79.4h-2.21v-.84h2.21v-1A2.22,2.22,0,0,1,196.8,76a2,2,0,0,1,1.57-.59Z"/><path class="cls-1" d="M214.62,76.26a4.64,4.64,0,0,1,1.49,2.85h-1a3.61,3.61,0,0,0-1.22-2.19,4,4,0,0,0-2.65-.84,3.91,3.91,0,0,0-3.19,1.44,5.56,5.56,0,0,0-1.15,3.67,5.23,5.23,0,0,0,1.15,3.55,4.38,4.38,0,0,0,3.52,1.44,6.89,6.89,0,0,0,2-.29,5.94,5.94,0,0,0,1.55-.7V81.94h-3.91v-.86h4.88v4.57a6.24,6.24,0,0,1-2,1,8.92,8.92,0,0,1-2.59.38,5.24,5.24,0,0,1-4.19-1.74,6.08,6.08,0,0,1-1.37-4.13A6.37,6.37,0,0,1,207.29,77a4.81,4.81,0,0,1,4-1.81A5,5,0,0,1,214.62,76.26Z"/><path class="cls-1" d="M224.69,79.65a5.15,5.15,0,0,1,0,6.1,3.93,3.93,0,0,1-5.86,0,4.66,4.66,0,0,1-1-3,4.55,4.55,0,0,1,1-3.06,3.56,3.56,0,0,1,2.91-1.31A3.67,3.67,0,0,1,224.69,79.65Zm-5.15.61a3.82,3.82,0,0,0-.74,2.45,3.79,3.79,0,0,0,.74,2.43,2.83,2.83,0,0,0,4.46,0,4,4,0,0,0,.73-2.43,4,4,0,0,0-.73-2.45,2.62,2.62,0,0,0-2.24-1.09A2.58,2.58,0,0,0,219.54,80.26Z"/><path class="cls-1" d="M229.39,75.89v2.67h2.16v.84h-2.16V85a1.31,1.31,0,0,0,.19.78.93.93,0,0,0,.72.22h1v.84h-1.17a1.71,1.71,0,0,1-1.37-.5,2,2,0,0,1-.37-1.34V79.4h-1.76v-.84h1.76V76.29Z"/><path class="cls-1" d="M239.55,79.65a5.11,5.11,0,0,1,0,6.1,3.92,3.92,0,0,1-5.85,0,5.09,5.09,0,0,1,0-6.1,3.59,3.59,0,0,1,2.91-1.31A3.64,3.64,0,0,1,239.55,79.65Zm-5.15.61a3.88,3.88,0,0,0-.74,2.45,3.84,3.84,0,0,0,.74,2.43,2.83,2.83,0,0,0,4.46,0,4,4,0,0,0,.74-2.43,4,4,0,0,0-.74-2.45,2.83,2.83,0,0,0-4.46,0Z"/><path class="cls-1" d="M248.86,79.67a4.89,4.89,0,0,1,.91,3,5,5,0,0,1-.89,3,3.34,3.34,0,0,1-2.77,1.31,3,3,0,0,1-2.9-2V90h-1V78.56h.92V80.2a3,3,0,0,1,2.91-1.86A3.31,3.31,0,0,1,248.86,79.67Zm-5,.54a4,4,0,0,0-.69,2.45v.18a3.85,3.85,0,0,0,.74,2.44,2.42,2.42,0,0,0,2,1,2.59,2.59,0,0,0,2.18-1,4.2,4.2,0,0,0,.67-2.5,4.34,4.34,0,0,0-.65-2.49A2.51,2.51,0,0,0,246,79.16,2.43,2.43,0,0,0,243.87,80.21Z"/><path class="cls-1" d="M253.1,85.46a.73.73,0,0,1,.24.58.78.78,0,0,1-.25.57.84.84,0,0,1-.56.23.75.75,0,0,1-.58-.24.77.77,0,0,1-.24-.56.73.73,0,0,1,.24-.58.75.75,0,0,1,.58-.22A.77.77,0,0,1,253.1,85.46Z"/><path class="cls-1" d="M254.67,78.56h1.06l2.6,7.06,2.6-7.06H262l-3.17,8.28h-1Z"/><path class="cls-1" d="M269,79.06a3.15,3.15,0,0,1,1.14,2.21h-1a2.35,2.35,0,0,0-.84-1.57,2.75,2.75,0,0,0-1.76-.53,2.5,2.5,0,0,0-2.08,1,4.79,4.79,0,0,0,0,5.1,2.48,2.48,0,0,0,2.1,1,2.44,2.44,0,0,0,2.65-2.35h1A3.77,3.77,0,0,1,269,86.26a3.56,3.56,0,0,1-2.41.8,3.46,3.46,0,0,1-2.85-1.25,4.61,4.61,0,0,1-.94-3,4.82,4.82,0,0,1,1-3.11,3.4,3.4,0,0,1,2.83-1.31A3.83,3.83,0,0,1,269,79.06Z"/><path class="cls-1" d="M14.37,99.41h5a3.73,3.73,0,0,1,2.46.75,2.87,2.87,0,0,1,.35,3.8,3,3,0,0,1-1.42.92,3.12,3.12,0,0,1,1.79.92,2.75,2.75,0,0,1,.66,1.88,2.81,2.81,0,0,1-1.17,2.45,4.73,4.73,0,0,1-2.72.71h-5Zm1,.85v4.26h3.84a3,3,0,0,0,1.9-.55,2.2,2.2,0,0,0,0-3.2,3.12,3.12,0,0,0-1.91-.51Zm0,5.09V110h4a3.67,3.67,0,0,0,2-.51,2.07,2.07,0,0,0,.9-1.81,2,2,0,0,0-.83-1.76,3.5,3.5,0,0,0-2.13-.56Z"/><path class="cls-1" d="M31,103.28a3.23,3.23,0,0,1,.74,2.23v5.33h-.92v-1.59a4.29,4.29,0,0,1-1.34,1.23,4.11,4.11,0,0,1-2.16.58,3,3,0,0,1-2-.62,2.15,2.15,0,0,1-.75-1.72,2.44,2.44,0,0,1,1.3-2.3,5.6,5.6,0,0,1,2.76-.59l2.12,0v-.3a2.1,2.1,0,0,0-2.4-2.35,2.84,2.84,0,0,0-1.73.46,2,2,0,0,0-.85,1.44h-.94A2.87,2.87,0,0,1,26,103a4,4,0,0,1,2.39-.64A3.25,3.25,0,0,1,31,103.28Zm-.22,3.32H28.72c-2.09,0-3.13.71-3.13,2.1a1.36,1.36,0,0,0,.53,1.12,2.09,2.09,0,0,0,1.4.43,3.47,3.47,0,0,0,2.31-.86,2.46,2.46,0,0,0,1-1.84Z"/><path class="cls-1" d="M39.67,103.06a3.15,3.15,0,0,1,1.13,2.21h-1A2.3,2.3,0,0,0,39,103.7a2.77,2.77,0,0,0-1.76-.53,2.49,2.49,0,0,0-2.08,1,4.79,4.79,0,0,0,0,5.1,2.48,2.48,0,0,0,2.1,1,2.44,2.44,0,0,0,2.65-2.35h.94a3.76,3.76,0,0,1-1.18,2.38,3.58,3.58,0,0,1-2.41.8,3.46,3.46,0,0,1-2.85-1.25,4.62,4.62,0,0,1-1-3,4.82,4.82,0,0,1,1-3.11,3.39,3.39,0,0,1,2.83-1.31A3.85,3.85,0,0,1,39.67,103.06Z"/><path class="cls-1" d="M42.37,99.19h1v4.88a3.18,3.18,0,0,1,1.15-1.3,3.24,3.24,0,0,1,3.78.4,3.37,3.37,0,0,1,.8,2.39v5.28h-1v-5.16a2.75,2.75,0,0,0-.61-1.87,2.32,2.32,0,0,0-1.72-.64,2.23,2.23,0,0,0-1.74.83,3,3,0,0,0-.7,2v4.79h-1Z"/><path class="cls-1" d="M57.38,103.67a5.71,5.71,0,0,1,.94,3.31H51.6a3.92,3.92,0,0,0,.82,2.38,2.59,2.59,0,0,0,2,.87,2.8,2.8,0,0,0,1.82-.59,3.12,3.12,0,0,0,.88-1.46h1a3.82,3.82,0,0,1-1.11,2,3.67,3.67,0,0,1-2.57.91,3.53,3.53,0,0,1-2.79-1.18,5.18,5.18,0,0,1,0-6.24,3.8,3.8,0,0,1,5.75,0Zm-4.9.35a3.63,3.63,0,0,0-.86,2.18h5.7c-.16-2-1.12-3-2.87-3A2.47,2.47,0,0,0,52.48,104Z"/><path class="cls-1" d="M60.16,99.19h1v11.65h-1Z"/><path class="cls-1" d="M70,103.65a5.15,5.15,0,0,1,0,6.1,3.93,3.93,0,0,1-5.86,0,4.66,4.66,0,0,1-1-3,4.55,4.55,0,0,1,1-3.06,3.56,3.56,0,0,1,2.91-1.31A3.67,3.67,0,0,1,70,103.65Zm-5.16.61a3.88,3.88,0,0,0-.73,2.45,3.84,3.84,0,0,0,.73,2.43,2.84,2.84,0,0,0,4.47,0,4,4,0,0,0,.73-2.43,4,4,0,0,0-.73-2.45,2.84,2.84,0,0,0-4.47,0Z"/><path class="cls-1" d="M77.36,102.52v1a4.27,4.27,0,0,0-1.26-.17,2,2,0,0,0-1.79,1,3.55,3.55,0,0,0-.66,2.16v4.37h-1v-8.28h1v1.59a3.07,3.07,0,0,1,.91-1.23,2.35,2.35,0,0,1,1.6-.58A3.22,3.22,0,0,1,77.36,102.52Z"/><path class="cls-1" d="M90.32,103.65a5.11,5.11,0,0,1,0,6.1,3.92,3.92,0,0,1-5.85,0,5.09,5.09,0,0,1,0-6.1,3.59,3.59,0,0,1,2.91-1.31A3.64,3.64,0,0,1,90.32,103.65Zm-5.15.61a3.88,3.88,0,0,0-.74,2.45,3.84,3.84,0,0,0,.74,2.43,2.83,2.83,0,0,0,4.46,0,4,4,0,0,0,.74-2.43,4,4,0,0,0-.74-2.45,2.83,2.83,0,0,0-4.46,0Z"/><path class="cls-1" d="M97.86,99.41v.85H96.47a1.16,1.16,0,0,0-.92.32,1.46,1.46,0,0,0-.28,1v1h2.48v.84H95.27v7.44h-1V103.4H92.1v-.84h2.21v-1a2.22,2.22,0,0,1,.51-1.59,2,2,0,0,1,1.57-.59Z"/><path class="cls-1" d="M104.43,99.41h8v.87h-7v4.2h6.66v.88h-6.66V110h7.31v.87h-8.29Z"/><path class="cls-1" d="M120.32,103.06a3.15,3.15,0,0,1,1.14,2.21h-1a2.39,2.39,0,0,0-.83-1.57,2.79,2.79,0,0,0-1.76-.53,2.47,2.47,0,0,0-2.08,1,4,4,0,0,0-.76,2.58,4.05,4.05,0,0,0,.72,2.52,2.48,2.48,0,0,0,2.1,1,2.44,2.44,0,0,0,2.65-2.35h.95a3.81,3.81,0,0,1-1.18,2.38,3.6,3.6,0,0,1-2.42.8,3.46,3.46,0,0,1-2.85-1.25,4.61,4.61,0,0,1-.94-3,4.82,4.82,0,0,1,1-3.11,3.42,3.42,0,0,1,2.84-1.31A3.82,3.82,0,0,1,120.32,103.06Z"/><path class="cls-1" d="M129.57,103.65a5.11,5.11,0,0,1,0,6.1,3.93,3.93,0,0,1-5.86,0,4.66,4.66,0,0,1-1-3,4.6,4.6,0,0,1,1-3.06,3.57,3.57,0,0,1,2.91-1.31A3.65,3.65,0,0,1,129.57,103.65Zm-5.15.61a3.88,3.88,0,0,0-.74,2.45,3.84,3.84,0,0,0,.74,2.43,2.83,2.83,0,0,0,4.46,0,4,4,0,0,0,.74-2.43,4,4,0,0,0-.74-2.45,2.83,2.83,0,0,0-4.46,0Z"/><path class="cls-1" d="M139,105.75v5.09h-1v-5c0-1.76-.78-2.64-2.35-2.64a2.18,2.18,0,0,0-1.66.72,3,3,0,0,0-.79,2v5h-1v-8.28h1v1.36a3.28,3.28,0,0,1,1.12-1.16,2.9,2.9,0,0,1,1.57-.42Q139,102.34,139,105.75Z"/><path class="cls-1" d="M147.55,103.65a5.11,5.11,0,0,1,0,6.1,3.92,3.92,0,0,1-5.85,0,4.66,4.66,0,0,1-1-3,4.6,4.6,0,0,1,1-3.06,3.59,3.59,0,0,1,2.92-1.31A3.63,3.63,0,0,1,147.55,103.65Zm-5.15.61a3.88,3.88,0,0,0-.73,2.45,3.84,3.84,0,0,0,.73,2.43,2.84,2.84,0,0,0,4.47,0,4,4,0,0,0,.73-2.43,4,4,0,0,0-.73-2.45,2.63,2.63,0,0,0-2.24-1.09A2.6,2.6,0,0,0,142.4,104.26Z"/><path class="cls-1" d="M156.21,104a3.29,3.29,0,0,1,1.1-1.27,2.58,2.58,0,0,1,1.51-.43,2.72,2.72,0,0,1,2.08.82,3.25,3.25,0,0,1,.75,2.27v5.41h-1v-5.28a2.7,2.7,0,0,0-.48-1.76,2,2,0,0,0-1.65-.63,1.88,1.88,0,0,0-1.5.69,2.4,2.4,0,0,0-.61,1.71v5.27h-1v-5.28c0-1.59-.68-2.39-2.06-2.39a1.9,1.9,0,0,0-1.55.75,2.67,2.67,0,0,0-.64,1.83v5.09h-1v-8.28h1v1.25a2.67,2.67,0,0,1,2.4-1.47A2.5,2.5,0,0,1,156.21,104Z"/><path class="cls-1" d="M165.2,99.83a.67.67,0,0,1,.24.56.79.79,0,0,1-.26.57.82.82,0,0,1-.56.23.8.8,0,0,1-.81-.8.67.67,0,0,1,.24-.56.75.75,0,0,1,.57-.24A.78.78,0,0,1,165.2,99.83Zm-1.06,2.73h1v8.28h-1Z"/><path class="cls-1" d="M173.5,103.06a3.15,3.15,0,0,1,1.14,2.21h-1a2.34,2.34,0,0,0-.83-1.57,2.79,2.79,0,0,0-1.76-.53,2.47,2.47,0,0,0-2.08,1,4.79,4.79,0,0,0,0,5.1,2.48,2.48,0,0,0,2.09,1,2.45,2.45,0,0,0,2.66-2.35h.94a3.76,3.76,0,0,1-1.18,2.38,3.6,3.6,0,0,1-2.42.8,3.48,3.48,0,0,1-2.85-1.25,4.67,4.67,0,0,1-.94-3,4.82,4.82,0,0,1,1-3.11,3.39,3.39,0,0,1,2.83-1.31A3.8,3.8,0,0,1,173.5,103.06Z"/><path class="cls-1" d="M182.32,104.88h-.94a2,2,0,0,0-.69-1.26,2.67,2.67,0,0,0-1.68-.45,2.63,2.63,0,0,0-1.49.37,1.17,1.17,0,0,0-.58,1,1.15,1.15,0,0,0,.74,1,11.74,11.74,0,0,0,1.74.58,8.41,8.41,0,0,1,2.15.76,1.88,1.88,0,0,1,1,1.67c0,1.67-1.12,2.51-3.36,2.51s-3.28-.94-3.47-2.83h.94a2.27,2.27,0,0,0,.77,1.57,2.92,2.92,0,0,0,1.73.43c1.6,0,2.4-.55,2.4-1.63a1.25,1.25,0,0,0-.82-1.16,10.6,10.6,0,0,0-1.84-.57,7.83,7.83,0,0,1-2-.74,1.75,1.75,0,0,1-1-1.58,1.88,1.88,0,0,1,.9-1.62,3.73,3.73,0,0,1,2.17-.59C181,102.34,182.08,103.19,182.32,104.88Z"/><path class="cls-1" d="M186.08,110.56a2.93,2.93,0,0,1-1.6,2.77l-.35-.56a2.52,2.52,0,0,0,1.23-2l-.24,0a.85.85,0,0,1-.59-.21.75.75,0,0,1-.23-.58.77.77,0,0,1,.21-.59.8.8,0,0,1,.59-.22C185.75,109.24,186.08,109.68,186.08,110.56Z"/><path class="cls-1" d="M194.18,104a3.13,3.13,0,0,1,1.1-1.27,2.58,2.58,0,0,1,1.51-.43,2.72,2.72,0,0,1,2.08.82,3.25,3.25,0,0,1,.75,2.27v5.41h-1v-5.28a2.7,2.7,0,0,0-.48-1.76,2,2,0,0,0-1.65-.63,1.91,1.91,0,0,0-1.51.69,2.44,2.44,0,0,0-.6,1.71v5.27h-1v-5.28c0-1.59-.69-2.39-2.06-2.39a1.9,1.9,0,0,0-1.55.75,2.68,2.68,0,0,0-.65,1.83v5.09h-1v-8.28h1v1.25a2.7,2.7,0,0,1,2.4-1.47A2.5,2.5,0,0,1,194.18,104Z"/><path class="cls-1" d="M207.71,103.28a3.23,3.23,0,0,1,.74,2.23v5.33h-.91v-1.59a4.33,4.33,0,0,1-1.35,1.23,4.11,4.11,0,0,1-2.16.58,3,3,0,0,1-2-.62,2.15,2.15,0,0,1-.75-1.72,2.44,2.44,0,0,1,1.3-2.3,5.61,5.61,0,0,1,2.77-.59l2.11,0v-.3a2.1,2.1,0,0,0-2.4-2.35,2.84,2.84,0,0,0-1.73.46,2,2,0,0,0-.85,1.44h-.94a2.87,2.87,0,0,1,1.17-2.08,4,4,0,0,1,2.4-.64A3.24,3.24,0,0,1,207.71,103.28Zm-.22,3.32h-2.07c-2.09,0-3.13.71-3.13,2.1a1.36,1.36,0,0,0,.53,1.12,2.09,2.09,0,0,0,1.4.43,3.47,3.47,0,0,0,2.31-.86,2.46,2.46,0,0,0,1-1.84Z"/><path class="cls-1" d="M217.18,105.75v5.09h-1v-5c0-1.76-.78-2.64-2.35-2.64a2.18,2.18,0,0,0-1.66.72,3,3,0,0,0-.79,2v5h-1v-8.28h1v1.36a3.28,3.28,0,0,1,1.12-1.16,2.9,2.9,0,0,1,1.57-.42Q217.19,102.34,217.18,105.75Z"/><path class="cls-1" d="M218.27,102.56h1.06l2.7,6.9,2.67-6.9h1.06L221.2,114h-1l1.39-3.37Z"/><path class="cls-1" d="M231.25,102.56h1.05l2.71,6.9,2.67-6.9h1.06L234.18,114h-1l1.39-3.37Z"/><path class="cls-1" d="M246.11,103.67a5.78,5.78,0,0,1,.95,3.31h-6.73a3.92,3.92,0,0,0,.82,2.38,2.6,2.6,0,0,0,2,.87,2.78,2.78,0,0,0,1.82-.59,3,3,0,0,0,.88-1.46h1a3.88,3.88,0,0,1-1.1,2,3.7,3.7,0,0,1-2.58.91,3.51,3.51,0,0,1-2.78-1.18,5.14,5.14,0,0,1,0-6.24,3.79,3.79,0,0,1,5.74,0Zm-4.89.35a3.64,3.64,0,0,0-.87,2.18h5.7c-.16-2-1.12-3-2.87-3A2.45,2.45,0,0,0,241.22,104Z"/><path class="cls-1" d="M254.67,103.28a3.23,3.23,0,0,1,.74,2.23v5.33h-.91v-1.59a4.33,4.33,0,0,1-1.35,1.23,4.11,4.11,0,0,1-2.16.58,3,3,0,0,1-2-.62,2.15,2.15,0,0,1-.75-1.72,2.44,2.44,0,0,1,1.3-2.3,5.61,5.61,0,0,1,2.77-.59l2.11,0v-.3a2.1,2.1,0,0,0-2.4-2.35,2.84,2.84,0,0,0-1.73.46,2,2,0,0,0-.85,1.44h-.94A2.87,2.87,0,0,1,249.7,103a4,4,0,0,1,2.4-.64A3.24,3.24,0,0,1,254.67,103.28Zm-.22,3.32h-2.07c-2.09,0-3.13.71-3.13,2.1a1.36,1.36,0,0,0,.53,1.12,2.09,2.09,0,0,0,1.4.43,3.47,3.47,0,0,0,2.31-.86,2.46,2.46,0,0,0,1-1.84Z"/><path class="cls-1" d="M262.09,102.52v1a4.27,4.27,0,0,0-1.26-.17,2,2,0,0,0-1.79,1,3.55,3.55,0,0,0-.66,2.16v4.37h-1v-8.28h1v1.59a3.07,3.07,0,0,1,.91-1.23,2.38,2.38,0,0,1,1.61-.58A3.13,3.13,0,0,1,262.09,102.52Z"/><path class="cls-1" d="M269.29,104.88h-.94a2,2,0,0,0-.69-1.26,2.63,2.63,0,0,0-1.68-.45,2.6,2.6,0,0,0-1.48.37,1.15,1.15,0,0,0-.58,1,1.13,1.13,0,0,0,.74,1,11.74,11.74,0,0,0,1.74.58,8.3,8.3,0,0,1,2.14.76,1.89,1.89,0,0,1,1,1.67c0,1.67-1.12,2.51-3.37,2.51s-3.28-.94-3.47-2.83h.95a2.23,2.23,0,0,0,.77,1.57,2.9,2.9,0,0,0,1.72.43c1.6,0,2.4-.55,2.4-1.63a1.26,1.26,0,0,0-.81-1.16,10.91,10.91,0,0,0-1.84-.57,7.94,7.94,0,0,1-2-.74,1.74,1.74,0,0,1-.94-1.58,1.89,1.89,0,0,1,.89-1.62,3.77,3.77,0,0,1,2.18-.59C268,102.34,269.06,103.19,269.29,104.88Z"/><path class="cls-1" d="M282.94,103.65a5.11,5.11,0,0,1,0,6.1,3.92,3.92,0,0,1-5.85,0,4.66,4.66,0,0,1-1-3,4.6,4.6,0,0,1,1-3.06,3.59,3.59,0,0,1,2.91-1.31A3.64,3.64,0,0,1,282.94,103.65Zm-5.15.61a3.88,3.88,0,0,0-.74,2.45,3.84,3.84,0,0,0,.74,2.43,2.83,2.83,0,0,0,4.46,0,3.94,3.94,0,0,0,.74-2.43,3.9,3.9,0,0,0-.74-2.45,2.83,2.83,0,0,0-4.46,0Z"/><path class="cls-1" d="M290.48,99.41v.85h-1.39a1.18,1.18,0,0,0-.92.32,1.46,1.46,0,0,0-.28,1v1h2.48v.84h-2.48v7.44h-1V103.4h-2.21v-.84h2.21v-1a2.22,2.22,0,0,1,.51-1.59,2,2,0,0,1,1.57-.59Z"/><path class="cls-1" d="M303.5,103.67a4.9,4.9,0,0,1,.92,3,5,5,0,0,1-.9,3,3.34,3.34,0,0,1-2.77,1.31,3,3,0,0,1-2.9-2V114h-1V102.56h.92v1.64a3,3,0,0,1,2.91-1.86A3.31,3.31,0,0,1,303.5,103.67Zm-5,.54a4,4,0,0,0-.69,2.45v.18a3.85,3.85,0,0,0,.74,2.44,2.43,2.43,0,0,0,2,1,2.59,2.59,0,0,0,2.17-1,4.2,4.2,0,0,0,.67-2.5,4.34,4.34,0,0,0-.65-2.49,2.5,2.5,0,0,0-2.16-1.07A2.43,2.43,0,0,0,298.51,104.21Z"/><path class="cls-1" d="M310.78,102.52v1a4.27,4.27,0,0,0-1.26-.17,2,2,0,0,0-1.79,1,3.55,3.55,0,0,0-.66,2.16v4.37h-1v-8.28h1v1.59a3,3,0,0,1,.91-1.23,2.35,2.35,0,0,1,1.6-.58A3.22,3.22,0,0,1,310.78,102.52Z"/><path class="cls-1" d="M313.41,99.83a.67.67,0,0,1,.24.56.79.79,0,0,1-.26.57.84.84,0,0,1-.56.23.8.8,0,0,1-.58-.23.78.78,0,0,1-.24-.57.67.67,0,0,1,.24-.56.77.77,0,0,1,.58-.24A.8.8,0,0,1,313.41,99.83Zm-1.06,2.73h1v8.28h-1Z"/><path class="cls-1" d="M314.88,102.56h1.05l2.61,7.06,2.59-7.06h1.08L319,110.84h-1Z"/><path class="cls-1" d="M329.37,103.28a3.23,3.23,0,0,1,.74,2.23v5.33h-.91v-1.59a4.22,4.22,0,0,1-1.35,1.23,4.11,4.11,0,0,1-2.16.58,3,3,0,0,1-2-.62,2.13,2.13,0,0,1-.76-1.72,2.45,2.45,0,0,1,1.3-2.3,5.61,5.61,0,0,1,2.77-.59l2.11,0v-.3a2.1,2.1,0,0,0-2.4-2.35,2.84,2.84,0,0,0-1.73.46,2,2,0,0,0-.85,1.44h-.94A2.9,2.9,0,0,1,324.4,103a4,4,0,0,1,2.4-.64A3.24,3.24,0,0,1,329.37,103.28Zm-.22,3.32h-2.07c-2.09,0-3.13.71-3.13,2.1a1.39,1.39,0,0,0,.53,1.12,2.09,2.09,0,0,0,1.4.43,3.47,3.47,0,0,0,2.31-.86,2.46,2.46,0,0,0,1-1.84Z"/><path class="cls-1" d="M334.13,99.89v2.67h2.16v.84h-2.16V109a1.24,1.24,0,0,0,.19.78.93.93,0,0,0,.72.22h1v.84h-1.17a1.72,1.72,0,0,1-1.38-.5,2,2,0,0,1-.36-1.34v-5.6h-1.76v-.84h1.76v-2.27Z"/><path class="cls-1" d="M344,103.67A5.71,5.71,0,0,1,345,107h-6.72a3.92,3.92,0,0,0,.82,2.38,2.59,2.59,0,0,0,2.05.87,2.8,2.8,0,0,0,1.82-.59,3,3,0,0,0,.88-1.46h1a3.82,3.82,0,0,1-1.11,2,3.67,3.67,0,0,1-2.57.91,3.54,3.54,0,0,1-2.79-1.18,5.16,5.16,0,0,1,0-6.24,3.79,3.79,0,0,1,5.74,0Zm-4.9.35a3.63,3.63,0,0,0-.86,2.18H344c-.16-2-1.12-3-2.87-3A2.47,2.47,0,0,0,339.13,104Z"/><path class="cls-1" d="M358.13,103.67a5.78,5.78,0,0,1,.94,3.31h-6.72a3.8,3.8,0,0,0,.82,2.38,2.58,2.58,0,0,0,2,.87,2.81,2.81,0,0,0,1.83-.59,3.21,3.21,0,0,0,.88-1.46h1a3.88,3.88,0,0,1-1.1,2,3.68,3.68,0,0,1-2.58.91,3.51,3.51,0,0,1-2.78-1.18,4.54,4.54,0,0,1-1.07-3.19,4.62,4.62,0,0,1,1-3,3.8,3.8,0,0,1,5.75,0Zm-4.9.35a3.63,3.63,0,0,0-.86,2.18h5.69c-.16-2-1.11-3-2.86-3A2.47,2.47,0,0,0,353.23,104Z"/><path class="cls-1" d="M366.89,104.2v-1.64h.91V114h-1v-4.89a3,3,0,0,1-2.89,2,3.23,3.23,0,0,1-2.75-1.31,4.85,4.85,0,0,1-.91-3,4.8,4.8,0,0,1,.92-3,3.27,3.27,0,0,1,2.79-1.33A3,3,0,0,1,366.89,104.2Zm-5,0a4.25,4.25,0,0,0-.65,2.49,4.16,4.16,0,0,0,.68,2.5,2.51,2.51,0,0,0,2.17,1,2.39,2.39,0,0,0,2-1,3.93,3.93,0,0,0,.74-2.44v-.18a4.1,4.1,0,0,0-.69-2.45,2.67,2.67,0,0,0-4.26,0Z"/><path class="cls-1" d="M369.82,102.56h1v5.06a3,3,0,0,0,.54,1.94,2.26,2.26,0,0,0,1.78.67,2.32,2.32,0,0,0,1.68-.74,3,3,0,0,0,.82-1.9v-5h1v8.28h-1v-1.4a3,3,0,0,1-2.76,1.62q-3,0-3-3.39Z"/><path class="cls-1" d="M380.11,99.83a.67.67,0,0,1,.24.56.79.79,0,0,1-.26.57.82.82,0,0,1-.56.23.8.8,0,0,1-.81-.8.67.67,0,0,1,.24-.56.75.75,0,0,1,.57-.24A.78.78,0,0,1,380.11,99.83Zm-1.06,2.73h1v8.28h-1Z"/><path class="cls-1" d="M384.51,99.89v2.67h2.16v.84h-2.16V109a1.24,1.24,0,0,0,.19.78.93.93,0,0,0,.72.22h1v.84h-1.17a1.68,1.68,0,0,1-1.37-.5,2,2,0,0,1-.37-1.34v-5.6h-1.76v-.84h1.76v-2.27Z"/><path class="cls-1" d="M387.2,102.56h1.05l2.71,6.9,2.67-6.9h1.05L390.12,114h-1l1.4-3.37Z"/><path class="cls-1" d="M83.78,123.41h1v11.43h-1Z"/><path class="cls-1" d="M93.79,129.75v5.09h-1v-5c0-1.76-.78-2.64-2.35-2.64a2.18,2.18,0,0,0-1.66.72,3,3,0,0,0-.79,2v5h-1v-8.28h1v1.36a3.28,3.28,0,0,1,1.12-1.16,2.9,2.9,0,0,1,1.57-.42Q93.79,126.34,93.79,129.75Z"/><path class="cls-1" d="M94.88,126.56h1.06l2.6,7.06,2.6-7.06h1.07L99,134.84h-1Z"/><path class="cls-1" d="M109.58,127.67a5.71,5.71,0,0,1,1,3.31h-6.72a3.8,3.8,0,0,0,.82,2.38,2.58,2.58,0,0,0,2,.87,2.81,2.81,0,0,0,1.83-.59,3.21,3.21,0,0,0,.88-1.46h1a3.88,3.88,0,0,1-1.1,2,3.68,3.68,0,0,1-2.58.91,3.51,3.51,0,0,1-2.78-1.18,4.54,4.54,0,0,1-1.07-3.19,4.62,4.62,0,0,1,1-3,3.79,3.79,0,0,1,5.74,0Zm-4.89.35a3.63,3.63,0,0,0-.86,2.18h5.69c-.16-2-1.11-3-2.86-3A2.47,2.47,0,0,0,104.69,128Z"/><path class="cls-1" d="M118.18,128.88h-1a1.91,1.91,0,0,0-.69-1.26,3.26,3.26,0,0,0-3.16-.08,1.09,1.09,0,0,0,.16,2,11.74,11.74,0,0,0,1.74.58,8.3,8.3,0,0,1,2.14.76,1.87,1.87,0,0,1,1,1.67c0,1.67-1.12,2.51-3.36,2.51s-3.28-.94-3.48-2.83h1a2.27,2.27,0,0,0,.77,1.57,2.9,2.9,0,0,0,1.72.43c1.61,0,2.4-.55,2.4-1.63a1.26,1.26,0,0,0-.81-1.16,10.6,10.6,0,0,0-1.84-.57,8.09,8.09,0,0,1-2-.74,1.74,1.74,0,0,1-.94-1.58,1.88,1.88,0,0,1,.9-1.62,3.73,3.73,0,0,1,2.17-.59C116.84,126.34,117.94,127.19,118.18,128.88Z"/><path class="cls-1" d="M122,123.89v2.67h2.16v.84H122V133a1.24,1.24,0,0,0,.2.78.9.9,0,0,0,.72.22h1v.84h-1.17a1.72,1.72,0,0,1-1.38-.5A2,2,0,0,1,121,133v-5.6h-1.76v-.84H121v-2.27Z"/><path class="cls-1" d="M131.52,128a3.23,3.23,0,0,1,1.11-1.27,2.53,2.53,0,0,1,1.5-.43,2.7,2.7,0,0,1,2.08.82,3.25,3.25,0,0,1,.75,2.27v5.41h-1v-5.28a2.7,2.7,0,0,0-.48-1.76,2,2,0,0,0-1.65-.63,1.88,1.88,0,0,0-1.5.69,2.4,2.4,0,0,0-.61,1.71v5.27h-1v-5.28c0-1.59-.68-2.39-2.06-2.39a1.9,1.9,0,0,0-1.55.75,2.67,2.67,0,0,0-.64,1.83v5.09h-1v-8.28h1v1.25a2.7,2.7,0,0,1,2.4-1.47A2.5,2.5,0,0,1,131.52,128Z"/><path class="cls-1" d="M145.26,127.67a5.71,5.71,0,0,1,1,3.31h-6.72a3.85,3.85,0,0,0,.81,2.38,2.62,2.62,0,0,0,2,.87,2.81,2.81,0,0,0,1.83-.59,3.21,3.21,0,0,0,.88-1.46h1a3.88,3.88,0,0,1-1.1,2,3.68,3.68,0,0,1-2.58.91,3.51,3.51,0,0,1-2.78-1.18,4.54,4.54,0,0,1-1.07-3.19,4.62,4.62,0,0,1,1-3,3.79,3.79,0,0,1,5.74,0Zm-4.89.35a3.7,3.7,0,0,0-.87,2.18h5.7c-.16-2-1.11-3-2.86-3A2.47,2.47,0,0,0,140.37,128Z"/><path class="cls-1" d="M154.46,129.75v5.09h-1v-5c0-1.76-.78-2.64-2.35-2.64a2.18,2.18,0,0,0-1.66.72,3,3,0,0,0-.79,2v5h-1v-8.28h1v1.36a3.37,3.37,0,0,1,1.12-1.16,2.9,2.9,0,0,1,1.57-.42Q154.47,126.34,154.46,129.75Z"/><path class="cls-1" d="M158.48,123.89v2.67h2.16v.84h-2.16V133a1.24,1.24,0,0,0,.19.78.93.93,0,0,0,.72.22h1v.84h-1.17a1.71,1.71,0,0,1-1.37-.5,2,2,0,0,1-.37-1.34v-5.6h-1.76v-.84h1.76v-2.27Z"/><path class="cls-1" d="M167.42,123.19h1v5.12a3,3,0,0,1,2.9-2,3.23,3.23,0,0,1,2.75,1.33,4.84,4.84,0,0,1,.91,3,4.9,4.9,0,0,1-.91,3.06,3.35,3.35,0,0,1-2.78,1.31,3,3,0,0,1-2.91-1.86v1.64h-.92Zm1.67,5a3.92,3.92,0,0,0-.74,2.48v.19a3.92,3.92,0,0,0,.69,2.4,2.43,2.43,0,0,0,2.1,1,2.54,2.54,0,0,0,2.16-1.05,4.28,4.28,0,0,0,.67-2.5,4.07,4.07,0,0,0-.69-2.48,2.54,2.54,0,0,0-2.18-1.05A2.37,2.37,0,0,0,169.09,128.15Z"/><path class="cls-1" d="M182.72,127.28a3.23,3.23,0,0,1,.74,2.23v5.33h-.92v-1.59a4.29,4.29,0,0,1-1.34,1.23,4.11,4.11,0,0,1-2.16.58,3,3,0,0,1-2-.62,2.15,2.15,0,0,1-.75-1.72,2.44,2.44,0,0,1,1.3-2.3,5.6,5.6,0,0,1,2.76-.59l2.12,0v-.3a2.1,2.1,0,0,0-2.4-2.35,2.82,2.82,0,0,0-1.73.46,2,2,0,0,0-.85,1.44h-.94a2.86,2.86,0,0,1,1.16-2.08,4,4,0,0,1,2.4-.64A3.25,3.25,0,0,1,182.72,127.28Zm-.22,3.32h-2.07c-2.09,0-3.13.71-3.13,2.1a1.38,1.38,0,0,0,.52,1.12,2.12,2.12,0,0,0,1.41.43,3.49,3.49,0,0,0,2.31-.86,2.46,2.46,0,0,0,1-1.84Z"/><path class="cls-1" d="M192.19,129.75v5.09h-1v-5c0-1.76-.78-2.64-2.35-2.64a2.17,2.17,0,0,0-1.66.72,3,3,0,0,0-.79,2v5h-1v-8.28h1v1.36a3.28,3.28,0,0,1,1.12-1.16,2.9,2.9,0,0,1,1.57-.42Q192.2,126.34,192.19,129.75Z"/><path class="cls-1" d="M194.21,123.19h1v7.55l4.59-4.18h1.31l-3.63,3.28,4,5h-1.27l-3.42-4.37-1.58,1.44v2.93h-1Z"/><path class="cls-1" d="M204,123.83a.67.67,0,0,1,.24.56.78.78,0,0,1-.25.57.84.84,0,0,1-.56.23.8.8,0,0,1-.82-.8.67.67,0,0,1,.24-.56.75.75,0,0,1,.58-.24A.78.78,0,0,1,204,123.83Zm-1,2.73h1v8.28h-1Z"/><path class="cls-1" d="M213.1,129.75v5.09h-1v-5c0-1.76-.78-2.64-2.35-2.64a2.18,2.18,0,0,0-1.66.72,3,3,0,0,0-.79,2v5h-1v-8.28h1v1.36a3.28,3.28,0,0,1,1.12-1.16,2.9,2.9,0,0,1,1.57-.42Q213.11,126.34,213.1,129.75Z"/><path class="cls-1" d="M221.49,128.23v-1.67h1v7.67c0,2.66-1.24,4-3.71,4a4,4,0,0,1-2.52-.71,3,3,0,0,1-1.05-2h1a2.1,2.1,0,0,0,.77,1.38,2.88,2.88,0,0,0,1.84.51c1.83,0,2.75-1,2.75-3.09v-1.58a3.09,3.09,0,0,1-3,1.88,3.45,3.45,0,0,1-2.77-1.23,4.89,4.89,0,0,1,0-5.82,3.43,3.43,0,0,1,2.77-1.25A3.08,3.08,0,0,1,221.49,128.23Zm-5-.08a3.59,3.59,0,0,0-.73,2.35,3.64,3.64,0,0,0,.68,2.3,2.51,2.51,0,0,0,2.16,1,2.61,2.61,0,0,0,2.15-1,4.2,4.2,0,0,0,0-4.7,2.79,2.79,0,0,0-4.26,0Z"/><path class="cls-1" d="M236.08,127.67A5.71,5.71,0,0,1,237,131H230.3a3.92,3.92,0,0,0,.82,2.38,2.59,2.59,0,0,0,2,.87,2.8,2.8,0,0,0,1.82-.59,3,3,0,0,0,.88-1.46h1a3.82,3.82,0,0,1-1.11,2,3.67,3.67,0,0,1-2.57.91,3.53,3.53,0,0,1-2.79-1.18,5.18,5.18,0,0,1,0-6.24,3.8,3.8,0,0,1,5.75,0Zm-4.9.35a3.63,3.63,0,0,0-.86,2.18H236c-.16-2-1.12-3-2.87-3A2.47,2.47,0,0,0,231.18,128Z"/><path class="cls-1" d="M238,126.56h1.15l2.37,3.19,2.37-3.19H245l-3,3.91,3.31,4.37h-1.15l-2.71-3.65-2.72,3.65h-1.15l3.33-4.37Z"/><path class="cls-1" d="M253.06,127.67a5.56,5.56,0,0,1,0,6.08,3.33,3.33,0,0,1-2.77,1.31,3,3,0,0,1-2.89-1.95V138h-1V126.56h.91v1.64a3,3,0,0,1,2.91-1.86A3.34,3.34,0,0,1,253.06,127.67Zm-5,.54a4,4,0,0,0-.68,2.45v.18a3.85,3.85,0,0,0,.73,2.44,2.44,2.44,0,0,0,2,1,2.57,2.57,0,0,0,2.17-1,4.21,4.21,0,0,0,.68-2.5,4.26,4.26,0,0,0-.66-2.49,2.48,2.48,0,0,0-2.16-1.07A2.43,2.43,0,0,0,248.06,128.21Z"/><path class="cls-1" d="M262,127.67a5.71,5.71,0,0,1,.94,3.31h-6.72a3.92,3.92,0,0,0,.82,2.38,2.59,2.59,0,0,0,2.05.87,2.8,2.8,0,0,0,1.82-.59,3,3,0,0,0,.88-1.46h1a3.82,3.82,0,0,1-1.11,2,3.67,3.67,0,0,1-2.57.91,3.54,3.54,0,0,1-2.79-1.18,5.16,5.16,0,0,1,0-6.24,3.79,3.79,0,0,1,5.74,0Zm-4.9.35a3.63,3.63,0,0,0-.86,2.18h5.7c-.16-2-1.12-3-2.87-3A2.47,2.47,0,0,0,257.05,128Z"/><path class="cls-1" d="M269.1,126.52v1a4.27,4.27,0,0,0-1.26-.17,2,2,0,0,0-1.79,1,3.55,3.55,0,0,0-.66,2.16v4.37h-1v-8.28h1v1.59a3.07,3.07,0,0,1,.91-1.23,2.35,2.35,0,0,1,1.6-.58A3.19,3.19,0,0,1,269.1,126.52Z"/><path class="cls-1" d="M271.73,123.83a.67.67,0,0,1,.24.56.79.79,0,0,1-.26.57.84.84,0,0,1-.56.23.8.8,0,0,1-.58-.23.82.82,0,0,1-.24-.57.7.7,0,0,1,.24-.56.77.77,0,0,1,.58-.24A.78.78,0,0,1,271.73,123.83Zm-1.06,2.73h1v8.28h-1Z"/><path class="cls-1" d="M280.41,127.67a5.71,5.71,0,0,1,.95,3.31h-6.72a3.85,3.85,0,0,0,.81,2.38,2.62,2.62,0,0,0,2.05.87,2.81,2.81,0,0,0,1.83-.59,3.21,3.21,0,0,0,.88-1.46h1a3.88,3.88,0,0,1-1.1,2,3.68,3.68,0,0,1-2.58.91,3.51,3.51,0,0,1-2.78-1.18,4.54,4.54,0,0,1-1.07-3.19,4.62,4.62,0,0,1,1-3,3.79,3.79,0,0,1,5.74,0Zm-4.89.35a3.7,3.7,0,0,0-.87,2.18h5.7c-.16-2-1.11-3-2.86-3A2.47,2.47,0,0,0,275.52,128Z"/><path class="cls-1" d="M289.61,129.75v5.09h-1v-5c0-1.76-.78-2.64-2.35-2.64a2.18,2.18,0,0,0-1.66.72,3,3,0,0,0-.79,2v5h-1v-8.28h1v1.36a3.28,3.28,0,0,1,1.12-1.16,2.9,2.9,0,0,1,1.57-.42Q289.61,126.34,289.61,129.75Z"/><path class="cls-1" d="M297.53,127.06a3.15,3.15,0,0,1,1.14,2.21h-1a2.34,2.34,0,0,0-.83-1.57,2.79,2.79,0,0,0-1.76-.53,2.47,2.47,0,0,0-2.08,1,4.79,4.79,0,0,0,0,5.1,2.71,2.71,0,0,0,4.75-1.4h.94a3.76,3.76,0,0,1-1.18,2.38,3.6,3.6,0,0,1-2.42.8,3.48,3.48,0,0,1-2.85-1.25,4.67,4.67,0,0,1-.94-3.05,4.82,4.82,0,0,1,1-3.11,3.39,3.39,0,0,1,2.83-1.31A3.8,3.8,0,0,1,297.53,127.06Z"/><path class="cls-1" d="M306.53,127.67a5.78,5.78,0,0,1,.94,3.31h-6.72a3.86,3.86,0,0,0,.82,2.38,2.58,2.58,0,0,0,2,.87,2.81,2.81,0,0,0,1.83-.59,3.21,3.21,0,0,0,.88-1.46h1a3.88,3.88,0,0,1-1.1,2,3.68,3.68,0,0,1-2.58.91,3.51,3.51,0,0,1-2.78-1.18,4.54,4.54,0,0,1-1.07-3.19,4.62,4.62,0,0,1,1-3,3.8,3.8,0,0,1,5.75,0Zm-4.9.35a3.63,3.63,0,0,0-.86,2.18h5.69c-.16-2-1.11-3-2.86-3A2.47,2.47,0,0,0,301.63,128Z"/><path class="cls-1" d="M84.26,152.88h-1a1.94,1.94,0,0,0-.68-1.26,2.67,2.67,0,0,0-1.68-.45,2.63,2.63,0,0,0-1.49.37,1.09,1.09,0,0,0,.16,2,11.74,11.74,0,0,0,1.74.58,8.41,8.41,0,0,1,2.15.76,1.88,1.88,0,0,1,1,1.67c0,1.67-1.12,2.51-3.36,2.51s-3.28-.94-3.47-2.83h.94a2.27,2.27,0,0,0,.77,1.57,2.92,2.92,0,0,0,1.73.43c1.6,0,2.4-.55,2.4-1.63a1.27,1.27,0,0,0-.82-1.16,10.6,10.6,0,0,0-1.84-.57,8.09,8.09,0,0,1-2-.74,1.74,1.74,0,0,1-.94-1.58,1.88,1.88,0,0,1,.9-1.62,3.73,3.73,0,0,1,2.17-.59C82.92,150.34,84,151.19,84.26,152.88Z"/><path class="cls-1" d="M92.32,151.67a5.78,5.78,0,0,1,1,3.31H86.54a3.92,3.92,0,0,0,.82,2.38,2.6,2.6,0,0,0,2,.87,2.78,2.78,0,0,0,1.82-.59,3,3,0,0,0,.88-1.46h1a3.88,3.88,0,0,1-1.1,2,3.7,3.7,0,0,1-2.58.91,3.51,3.51,0,0,1-2.78-1.18,5.14,5.14,0,0,1,0-6.24,3.79,3.79,0,0,1,5.74,0Zm-4.89.35a3.64,3.64,0,0,0-.87,2.18h5.7c-.16-2-1.12-3-2.87-3A2.45,2.45,0,0,0,87.43,152Z"/><path class="cls-1" d="M101.52,153.75v5.09h-1v-5c0-1.76-.78-2.64-2.35-2.64a2.2,2.2,0,0,0-1.67.72,2.94,2.94,0,0,0-.78,2v5h-1v-8.28h1v1.36a3.28,3.28,0,0,1,1.12-1.16,2.9,2.9,0,0,1,1.57-.42Q101.53,150.34,101.52,153.75Z"/><path class="cls-1" d="M105.07,147.83a.67.67,0,0,1,.24.56.78.78,0,0,1-.25.57.84.84,0,0,1-.56.23.8.8,0,0,1-.82-.8.67.67,0,0,1,.24-.56.75.75,0,0,1,.58-.24A.78.78,0,0,1,105.07,147.83Zm-1,2.73h1v8.28h-1Z"/><path class="cls-1" d="M114,151.65a5.15,5.15,0,0,1,0,6.1,3.93,3.93,0,0,1-5.86,0,4.66,4.66,0,0,1-1-3,4.55,4.55,0,0,1,1-3.06,3.56,3.56,0,0,1,2.91-1.31A3.67,3.67,0,0,1,114,151.65Zm-5.15.61a3.82,3.82,0,0,0-.74,2.45,3.79,3.79,0,0,0,.74,2.43,2.83,2.83,0,0,0,4.46,0,4,4,0,0,0,.73-2.43,4,4,0,0,0-.73-2.45,2.62,2.62,0,0,0-2.24-1.09A2.58,2.58,0,0,0,108.87,152.26Z"/><path class="cls-1" d="M121.39,150.52v1a4.27,4.27,0,0,0-1.26-.17,2,2,0,0,0-1.79,1,3.55,3.55,0,0,0-.66,2.16v4.37h-1v-8.28h1v1.59a3.07,3.07,0,0,1,.91-1.23,2.35,2.35,0,0,1,1.6-.58A3.19,3.19,0,0,1,121.39,150.52Z"/><path class="cls-1" d="M134.05,147.19h1v11.65h-.91V157.2a3,3,0,0,1-2.9,1.86,3.37,3.37,0,0,1-2.8-1.31,4.9,4.9,0,0,1-.91-3.06,4.84,4.84,0,0,1,.91-3,3.23,3.23,0,0,1,2.75-1.33,3,3,0,0,1,2.9,2Zm-4.9,5a4,4,0,0,0-.69,2.48,4.21,4.21,0,0,0,.68,2.5,2.49,2.49,0,0,0,2.16,1.05,2.45,2.45,0,0,0,2.09-1,4,4,0,0,0,.69-2.4v-.19a4,4,0,0,0-.74-2.48,2.39,2.39,0,0,0-2-1A2.55,2.55,0,0,0,129.15,152.21Z"/><path class="cls-1" d="M138.56,147.83a.67.67,0,0,1,.24.56.79.79,0,0,1-.26.57.82.82,0,0,1-.56.23.8.8,0,0,1-.81-.8.67.67,0,0,1,.24-.56.75.75,0,0,1,.57-.24A.78.78,0,0,1,138.56,147.83Zm-1.06,2.73h1v8.28h-1Z"/><path class="cls-1" d="M147.33,152.23v-1.67h1v7.67c0,2.66-1.24,4-3.71,4a4,4,0,0,1-2.52-.71,3,3,0,0,1-1.05-2h1a2.1,2.1,0,0,0,.77,1.38,2.88,2.88,0,0,0,1.84.51c1.83,0,2.75-1,2.75-3.09v-1.58a3.09,3.09,0,0,1-3,1.88,3.45,3.45,0,0,1-2.77-1.23,4.89,4.89,0,0,1,0-5.82,3.43,3.43,0,0,1,2.77-1.25A3.08,3.08,0,0,1,147.33,152.23Zm-5-.08a3.59,3.59,0,0,0-.73,2.35,3.7,3.7,0,0,0,.68,2.3,2.53,2.53,0,0,0,2.16,1,2.6,2.6,0,0,0,2.15-1,4.2,4.2,0,0,0,0-4.7,2.79,2.79,0,0,0-4.26,0Z"/><path class="cls-1" d="M151.84,147.83a.67.67,0,0,1,.24.56.79.79,0,0,1-.26.57.82.82,0,0,1-.56.23.8.8,0,0,1-.81-.8.67.67,0,0,1,.24-.56.75.75,0,0,1,.57-.24A.78.78,0,0,1,151.84,147.83Zm-1.06,2.73h1v8.28h-1Z"/><path class="cls-1" d="M156.24,147.89v2.67h2.16v.84h-2.16V157a1.24,1.24,0,0,0,.19.78.93.93,0,0,0,.72.22h1v.84H157a1.7,1.7,0,0,1-1.37-.5,2,2,0,0,1-.37-1.34v-5.6h-1.76v-.84h1.76v-2.27Z"/><path class="cls-1" d="M165.94,151.28a3.22,3.22,0,0,1,.73,2.23v5.33h-.91v-1.59a4.29,4.29,0,0,1-1.34,1.23,4.17,4.17,0,0,1-2.16.58,3,3,0,0,1-2-.62,2.15,2.15,0,0,1-.75-1.72,2.44,2.44,0,0,1,1.29-2.3,5.67,5.67,0,0,1,2.77-.59l2.11,0v-.3a2.1,2.1,0,0,0-2.4-2.35,2.86,2.86,0,0,0-1.73.46,1.94,1.94,0,0,0-.84,1.44h-1A2.9,2.9,0,0,1,161,151a4,4,0,0,1,2.4-.64A3.28,3.28,0,0,1,165.94,151.28Zm-.23,3.32h-2.06c-2.09,0-3.14.71-3.14,2.1a1.39,1.39,0,0,0,.53,1.12,2.1,2.1,0,0,0,1.41.43,3.46,3.46,0,0,0,2.3-.86,2.46,2.46,0,0,0,1-1.84Z"/><path class="cls-1" d="M169,147.19h1v11.65h-1Z"/><path class="cls-1" d="M183.5,151.06a3.15,3.15,0,0,1,1.14,2.21h-1a2.34,2.34,0,0,0-.83-1.57,2.79,2.79,0,0,0-1.76-.53,2.47,2.47,0,0,0-2.08,1,4.79,4.79,0,0,0,0,5.1,2.71,2.71,0,0,0,4.75-1.4h.94a3.76,3.76,0,0,1-1.18,2.38,3.6,3.6,0,0,1-2.42.8,3.47,3.47,0,0,1-2.85-1.25,4.61,4.61,0,0,1-.94-3.05,4.82,4.82,0,0,1,1-3.11,3.39,3.39,0,0,1,2.83-1.31A3.82,3.82,0,0,1,183.5,151.06Z"/><path class="cls-1" d="M186.21,150.56h1v5.06a3,3,0,0,0,.54,1.94,2.26,2.26,0,0,0,1.78.67,2.32,2.32,0,0,0,1.68-.74,2.89,2.89,0,0,0,.81-1.9v-5h1v8.28h-1v-1.4a3,3,0,0,1-2.75,1.62c-2,0-3-1.13-3-3.39Z"/><path class="cls-1" d="M199.63,150.52v1a4.27,4.27,0,0,0-1.26-.17,2,2,0,0,0-1.79,1,3.55,3.55,0,0,0-.66,2.16v4.37h-1v-8.28h1v1.59a3,3,0,0,1,.91-1.23,2.35,2.35,0,0,1,1.6-.58A3.22,3.22,0,0,1,199.63,150.52Z"/><path class="cls-1" d="M205.39,150.52v1a4.27,4.27,0,0,0-1.26-.17,2.06,2.06,0,0,0-1.8,1,3.61,3.61,0,0,0-.65,2.16v4.37h-1v-8.28h1v1.59a3,3,0,0,1,.91-1.23,2.35,2.35,0,0,1,1.6-.58A3.22,3.22,0,0,1,205.39,150.52Z"/><path class="cls-1" d="M212.77,151.67a5.78,5.78,0,0,1,.94,3.31H207a3.86,3.86,0,0,0,.82,2.38,2.58,2.58,0,0,0,2,.87,2.81,2.81,0,0,0,1.83-.59,3.12,3.12,0,0,0,.88-1.46h1a4,4,0,0,1-1.11,2,3.68,3.68,0,0,1-2.58.91,3.51,3.51,0,0,1-2.78-1.18,5.18,5.18,0,0,1,0-6.24,3.8,3.8,0,0,1,5.75,0Zm-4.9.35a3.63,3.63,0,0,0-.86,2.18h5.69c-.16-2-1.11-3-2.86-3A2.47,2.47,0,0,0,207.87,152Z"/><path class="cls-1" d="M222,153.75v5.09h-1v-5c0-1.76-.79-2.64-2.36-2.64a2.18,2.18,0,0,0-1.66.72,2.9,2.9,0,0,0-.78,2v5h-1v-8.28h1v1.36a3.2,3.2,0,0,1,1.12-1.16,2.87,2.87,0,0,1,1.56-.42Q222,150.34,222,153.75Z"/><path class="cls-1" d="M229.89,151.06a3.15,3.15,0,0,1,1.13,2.21h-1a2.3,2.3,0,0,0-.83-1.57,2.77,2.77,0,0,0-1.76-.53,2.49,2.49,0,0,0-2.08,1,4.79,4.79,0,0,0,0,5.1,2.48,2.48,0,0,0,2.1.95,2.44,2.44,0,0,0,2.65-2.35h.94a3.76,3.76,0,0,1-1.18,2.38,3.58,3.58,0,0,1-2.41.8,3.46,3.46,0,0,1-2.85-1.25,4.62,4.62,0,0,1-1-3.05,4.82,4.82,0,0,1,1-3.11,3.39,3.39,0,0,1,2.83-1.31A3.85,3.85,0,0,1,229.89,151.06Z"/><path class="cls-1" d="M231.66,150.56h1.06l2.7,6.9,2.67-6.9h1.06L234.59,162h-1l1.39-3.37Z"/><path class="cls-1" d="M247.1,147.83a.67.67,0,0,1,.24.56.78.78,0,0,1-.25.57.84.84,0,0,1-.56.23.8.8,0,0,1-.82-.8.67.67,0,0,1,.24-.56.75.75,0,0,1,.58-.24A.78.78,0,0,1,247.1,147.83Zm-1,2.73h1v8.28h-1Z"/><path class="cls-1" d="M256.22,153.75v5.09h-1v-5c0-1.76-.78-2.64-2.35-2.64a2.17,2.17,0,0,0-1.66.72,3,3,0,0,0-.79,2v5h-1v-8.28h1v1.36a3.28,3.28,0,0,1,1.12-1.16,2.9,2.9,0,0,1,1.57-.42Q256.22,150.34,256.22,153.75Z"/><path class="cls-1" d="M257.31,150.56h1.06l2.6,7.06,2.6-7.06h1.07l-3.17,8.28h-1Z"/><path class="cls-1" d="M272,151.67A5.71,5.71,0,0,1,273,155h-6.72a3.85,3.85,0,0,0,.81,2.38,2.62,2.62,0,0,0,2.05.87,2.81,2.81,0,0,0,1.83-.59,3.21,3.21,0,0,0,.88-1.46h1a3.88,3.88,0,0,1-1.1,2,3.68,3.68,0,0,1-2.58.91,3.51,3.51,0,0,1-2.78-1.18,4.54,4.54,0,0,1-1.07-3.19,4.62,4.62,0,0,1,1-3.05,3.79,3.79,0,0,1,5.74,0Zm-4.89.35a3.7,3.7,0,0,0-.87,2.18H272c-.16-2-1.12-3-2.86-3A2.45,2.45,0,0,0,267.12,152Z"/><path class="cls-1" d="M280.61,152.88h-.95a2,2,0,0,0-.69-1.26,2.63,2.63,0,0,0-1.68-.45,2.6,2.6,0,0,0-1.48.37,1.15,1.15,0,0,0-.58,1,1.13,1.13,0,0,0,.74,1,11.74,11.74,0,0,0,1.74.58,8.3,8.3,0,0,1,2.14.76,1.89,1.89,0,0,1,1,1.67c0,1.67-1.12,2.51-3.36,2.51s-3.28-.94-3.48-2.83H275a2.23,2.23,0,0,0,.77,1.57,2.9,2.9,0,0,0,1.72.43c1.6,0,2.4-.55,2.4-1.63a1.26,1.26,0,0,0-.81-1.16,10.6,10.6,0,0,0-1.84-.57,7.94,7.94,0,0,1-2-.74,1.74,1.74,0,0,1-.94-1.58,1.89,1.89,0,0,1,.89-1.62,3.77,3.77,0,0,1,2.18-.59C279.27,150.34,280.37,151.19,280.61,152.88Z"/><path class="cls-1" d="M284.38,147.89v2.67h2.16v.84h-2.16V157a1.31,1.31,0,0,0,.19.78.93.93,0,0,0,.72.22h1v.84h-1.16a1.72,1.72,0,0,1-1.38-.5,2,2,0,0,1-.37-1.34v-5.6h-1.76v-.84h1.76v-2.27Z"/><path class="cls-1" d="M294.54,151.65a5.11,5.11,0,0,1,0,6.1,3.92,3.92,0,0,1-5.85,0,5.09,5.09,0,0,1,0-6.1,3.59,3.59,0,0,1,2.91-1.31A3.64,3.64,0,0,1,294.54,151.65Zm-5.15.61a3.88,3.88,0,0,0-.74,2.45,3.84,3.84,0,0,0,.74,2.43,2.83,2.83,0,0,0,4.46,0,4,4,0,0,0,.74-2.43,4,4,0,0,0-.74-2.45,2.83,2.83,0,0,0-4.46,0Z"/><path class="cls-1" d="M301.92,150.52v1a4.38,4.38,0,0,0-1.27-.17,2.05,2.05,0,0,0-1.79,1,3.55,3.55,0,0,0-.65,2.16v4.37h-1v-8.28h1v1.59a2.9,2.9,0,0,1,.91-1.23,2.35,2.35,0,0,1,1.6-.58A3.22,3.22,0,0,1,301.92,150.52Z"/><path class="cls-1" d="M309.12,152.88h-.95a1.94,1.94,0,0,0-.68-1.26,2.68,2.68,0,0,0-1.69-.45,2.62,2.62,0,0,0-1.48.37,1.09,1.09,0,0,0,.16,2,11.74,11.74,0,0,0,1.74.58,8.56,8.56,0,0,1,2.15.76,1.88,1.88,0,0,1,1,1.67c0,1.67-1.12,2.51-3.36,2.51s-3.28-.94-3.47-2.83h.94a2.27,2.27,0,0,0,.77,1.57,2.9,2.9,0,0,0,1.72.43c1.61,0,2.41-.55,2.41-1.63a1.27,1.27,0,0,0-.82-1.16,10.6,10.6,0,0,0-1.84-.57,8.09,8.09,0,0,1-2-.74,1.74,1.74,0,0,1-.94-1.58,1.88,1.88,0,0,1,.9-1.62,3.73,3.73,0,0,1,2.17-.59C307.78,150.34,308.88,151.19,309.12,152.88Z"/><path class="cls-1" d="M20.58,176.23v-1.67h1v7.67c0,2.66-1.24,4-3.71,4a4,4,0,0,1-2.51-.71,3,3,0,0,1-1.06-2h1a2.15,2.15,0,0,0,.77,1.38,2.88,2.88,0,0,0,1.84.51c1.83,0,2.75-1,2.75-3.09v-1.58a3.09,3.09,0,0,1-3,1.88,3.45,3.45,0,0,1-2.77-1.23,4.89,4.89,0,0,1,0-5.82,3.43,3.43,0,0,1,2.77-1.25A3.08,3.08,0,0,1,20.58,176.23Zm-5-.08a3.59,3.59,0,0,0-.73,2.35,3.7,3.7,0,0,0,.68,2.3,2.53,2.53,0,0,0,2.16,1,2.6,2.6,0,0,0,2.15-1,4.2,4.2,0,0,0,0-4.7,2.51,2.51,0,0,0-2.13-1A2.51,2.51,0,0,0,15.6,176.15Z"/><path class="cls-1" d="M30.1,175.65a5.11,5.11,0,0,1,0,6.1,3.93,3.93,0,0,1-5.86,0,4.66,4.66,0,0,1-1-3,4.6,4.6,0,0,1,1-3.06,3.56,3.56,0,0,1,2.91-1.31A3.65,3.65,0,0,1,30.1,175.65Zm-5.15.61a3.88,3.88,0,0,0-.74,2.45,3.84,3.84,0,0,0,.74,2.43,2.83,2.83,0,0,0,4.46,0,4,4,0,0,0,.74-2.43,4,4,0,0,0-.74-2.45,2.83,2.83,0,0,0-4.46,0Z"/><path class="cls-1" d="M39.35,175.65a5.15,5.15,0,0,1,0,6.1,3.93,3.93,0,0,1-5.86,0,4.66,4.66,0,0,1-1-3,4.55,4.55,0,0,1,1-3.06,3.56,3.56,0,0,1,2.91-1.31A3.67,3.67,0,0,1,39.35,175.65Zm-5.15.61a3.82,3.82,0,0,0-.74,2.45,3.79,3.79,0,0,0,.74,2.43,2.83,2.83,0,0,0,4.46,0,4,4,0,0,0,.73-2.43,4,4,0,0,0-.73-2.45,2.83,2.83,0,0,0-4.46,0Z"/><path class="cls-1" d="M48.29,171.19h1v11.65h-.91V181.2a3,3,0,0,1-2.9,1.86,3.38,3.38,0,0,1-2.8-1.31,5,5,0,0,1-.91-3.06,4.9,4.9,0,0,1,.91-3,3.23,3.23,0,0,1,2.75-1.33,3,3,0,0,1,2.9,2Zm-4.9,5a4.06,4.06,0,0,0-.68,2.48,4.2,4.2,0,0,0,.67,2.5,2.49,2.49,0,0,0,2.16,1.05,2.45,2.45,0,0,0,2.09-1,4,4,0,0,0,.69-2.4v-.19a4,4,0,0,0-.73-2.48,2.41,2.41,0,0,0-2-1A2.55,2.55,0,0,0,43.39,176.21Z"/><path class="cls-1" d="M62.67,175.28a3.23,3.23,0,0,1,.74,2.23v5.33H62.5v-1.59a4.22,4.22,0,0,1-1.35,1.23,4.11,4.11,0,0,1-2.16.58,3,3,0,0,1-2-.62,2.13,2.13,0,0,1-.76-1.72,2.45,2.45,0,0,1,1.3-2.3,5.64,5.64,0,0,1,2.77-.59l2.11,0v-.3a2.1,2.1,0,0,0-2.4-2.35,2.84,2.84,0,0,0-1.73.46,2,2,0,0,0-.85,1.44h-.94A2.9,2.9,0,0,1,57.7,175a4,4,0,0,1,2.4-.64A3.24,3.24,0,0,1,62.67,175.28Zm-.22,3.32H60.39c-2.1,0-3.14.71-3.14,2.1a1.39,1.39,0,0,0,.53,1.12,2.1,2.1,0,0,0,1.41.43,3.46,3.46,0,0,0,2.3-.86,2.46,2.46,0,0,0,1-1.84Z"/><path class="cls-1" d="M67.43,171.89v2.67h2.16v.84H67.43V181a1.24,1.24,0,0,0,.19.78.93.93,0,0,0,.72.22h1v.84H68.21a1.72,1.72,0,0,1-1.38-.5,2,2,0,0,1-.36-1.34v-5.6H64.71v-.84h1.76v-2.27Z"/><path class="cls-1" d="M78.37,171.89v2.67h2.16v.84H78.37V181a1.24,1.24,0,0,0,.19.78.93.93,0,0,0,.72.22h1v.84H79.15a1.7,1.7,0,0,1-1.37-.5,2,2,0,0,1-.37-1.34v-5.6H75.65v-.84h1.76v-2.27Z"/><path class="cls-1" d="M88.27,175.67a5.71,5.71,0,0,1,1,3.31H82.5a3.85,3.85,0,0,0,.81,2.38,2.62,2.62,0,0,0,2,.87,2.81,2.81,0,0,0,1.83-.59,3.21,3.21,0,0,0,.88-1.46h1a3.88,3.88,0,0,1-1.1,2,3.68,3.68,0,0,1-2.58.91,3.51,3.51,0,0,1-2.78-1.18,4.54,4.54,0,0,1-1.07-3.19,4.62,4.62,0,0,1,1-3.05,3.79,3.79,0,0,1,5.74,0Zm-4.89.35a3.7,3.7,0,0,0-.87,2.18h5.7c-.16-2-1.11-3-2.86-3A2.47,2.47,0,0,0,83.38,176Z"/><path class="cls-1" d="M96.83,175.28a3.23,3.23,0,0,1,.74,2.23v5.33h-.91v-1.59a4.22,4.22,0,0,1-1.35,1.23,4.11,4.11,0,0,1-2.16.58,3,3,0,0,1-2-.62,2.13,2.13,0,0,1-.76-1.72,2.45,2.45,0,0,1,1.3-2.3,5.64,5.64,0,0,1,2.77-.59l2.11,0v-.3a2.1,2.1,0,0,0-2.4-2.35,2.84,2.84,0,0,0-1.73.46,2,2,0,0,0-.85,1.44h-.94A2.9,2.9,0,0,1,91.86,175a4,4,0,0,1,2.4-.64A3.24,3.24,0,0,1,96.83,175.28Zm-.22,3.32H94.55c-2.09,0-3.14.71-3.14,2.1a1.39,1.39,0,0,0,.53,1.12,2.1,2.1,0,0,0,1.41.43,3.46,3.46,0,0,0,2.3-.86,2.46,2.46,0,0,0,1-1.84Z"/><path class="cls-1" d="M105.54,176a3.21,3.21,0,0,1,1.1-1.27,2.58,2.58,0,0,1,1.51-.43,2.72,2.72,0,0,1,2.08.82,3.25,3.25,0,0,1,.75,2.27v5.41h-1v-5.28a2.7,2.7,0,0,0-.48-1.76,2,2,0,0,0-1.65-.63,1.88,1.88,0,0,0-1.5.69,2.4,2.4,0,0,0-.61,1.71v5.27h-1v-5.28c0-1.59-.69-2.39-2.06-2.39a1.9,1.9,0,0,0-1.55.75,2.67,2.67,0,0,0-.64,1.83v5.09h-1v-8.28h1v1.25a2.67,2.67,0,0,1,2.4-1.47A2.5,2.5,0,0,1,105.54,176Z"/><path class="cls-1" d="M115,182.56a3,3,0,0,1-1.6,2.77l-.35-.56a2.55,2.55,0,0,0,1.23-2l-.24,0a.84.84,0,0,1-.59-.21.75.75,0,0,1-.23-.58.77.77,0,0,1,.21-.59.8.8,0,0,1,.59-.22C114.65,181.24,115,181.68,115,182.56Z"/><path class="cls-1" d="M129.06,175.67a4.89,4.89,0,0,1,.91,3.05,5,5,0,0,1-.9,3,3.32,3.32,0,0,1-2.76,1.31,3,3,0,0,1-2.9-1.95V186h-1V174.56h.91v1.64a3,3,0,0,1,2.91-1.86A3.32,3.32,0,0,1,129.06,175.67Zm-5,.54a4,4,0,0,0-.69,2.45v.18a3.85,3.85,0,0,0,.73,2.44,2.44,2.44,0,0,0,2,1,2.6,2.6,0,0,0,2.18-1,5,5,0,0,0,0-5,2.48,2.48,0,0,0-2.16-1.07A2.43,2.43,0,0,0,124.07,176.21Z"/><path class="cls-1" d="M136.34,174.52v1a4.38,4.38,0,0,0-1.27-.17,2.05,2.05,0,0,0-1.79,1,3.55,3.55,0,0,0-.65,2.16v4.37h-1v-8.28h1v1.59a2.9,2.9,0,0,1,.91-1.23,2.35,2.35,0,0,1,1.6-.58A3.22,3.22,0,0,1,136.34,174.52Z"/><path class="cls-1" d="M144,175.65a5.11,5.11,0,0,1,0,6.1,3.93,3.93,0,0,1-5.86,0,4.66,4.66,0,0,1-1-3,4.6,4.6,0,0,1,1-3.06,3.56,3.56,0,0,1,2.91-1.31A3.65,3.65,0,0,1,144,175.65Zm-5.15.61a3.88,3.88,0,0,0-.74,2.45,3.84,3.84,0,0,0,.74,2.43,2.83,2.83,0,0,0,4.46,0,4,4,0,0,0,.74-2.43,4,4,0,0,0-.74-2.45,2.83,2.83,0,0,0-4.46,0Z"/><path class="cls-1" d="M147.39,174.56h1v9.35c0,1.4-.72,2.09-2.16,2.09h-.77v-.83h.71a1.13,1.13,0,0,0,1.26-1.29Zm1.07-2.73a.69.69,0,0,1,.23.56.85.85,0,0,1-.23.57.86.86,0,0,1-.59.23.85.85,0,0,1-.57-.23.78.78,0,0,1-.24-.57.67.67,0,0,1,.24-.56.78.78,0,0,1,.57-.24A.79.79,0,0,1,148.46,171.83Z"/><path class="cls-1" d="M157.14,175.67a5.78,5.78,0,0,1,.94,3.31h-6.72a3.86,3.86,0,0,0,.82,2.38,2.58,2.58,0,0,0,2,.87,2.81,2.81,0,0,0,1.83-.59,3.12,3.12,0,0,0,.88-1.46h1a4,4,0,0,1-1.11,2,3.68,3.68,0,0,1-2.58.91,3.51,3.51,0,0,1-2.78-1.18,5.18,5.18,0,0,1-.05-6.24,3.8,3.8,0,0,1,5.75,0Zm-4.9.35a3.63,3.63,0,0,0-.86,2.18h5.69c-.16-2-1.11-3-2.86-3A2.47,2.47,0,0,0,152.24,176Z"/><path class="cls-1" d="M165.52,175.06a3.15,3.15,0,0,1,1.14,2.21h-1a2.35,2.35,0,0,0-.84-1.57,2.75,2.75,0,0,0-1.76-.53,2.5,2.5,0,0,0-2.08,1,4.79,4.79,0,0,0,0,5.1,2.48,2.48,0,0,0,2.1.95,2.44,2.44,0,0,0,2.65-2.35h.95a3.77,3.77,0,0,1-1.19,2.38,3.56,3.56,0,0,1-2.41.8,3.46,3.46,0,0,1-2.85-1.25,4.61,4.61,0,0,1-.94-3.05,4.82,4.82,0,0,1,1-3.11,3.42,3.42,0,0,1,2.83-1.31A3.83,3.83,0,0,1,165.52,175.06Z"/><path class="cls-1" d="M170.22,171.89v2.67h2.16v.84h-2.16V181a1.24,1.24,0,0,0,.2.78.91.91,0,0,0,.72.22h1v.84H171a1.72,1.72,0,0,1-1.38-.5,2,2,0,0,1-.37-1.34v-5.6H167.5v-.84h1.76v-2.27Z"/><path class="cls-1" d="M185.12,176a3.29,3.29,0,0,1,1.1-1.27,2.58,2.58,0,0,1,1.51-.43,2.7,2.7,0,0,1,2.08.82,3.25,3.25,0,0,1,.75,2.27v5.41h-1v-5.28a2.7,2.7,0,0,0-.48-1.76,2,2,0,0,0-1.65-.63,1.88,1.88,0,0,0-1.5.69,2.4,2.4,0,0,0-.61,1.71v5.27h-1v-5.28c0-1.59-.68-2.39-2.06-2.39a1.9,1.9,0,0,0-1.55.75,2.67,2.67,0,0,0-.64,1.83v5.09h-1v-8.28h1v1.25a2.67,2.67,0,0,1,2.4-1.47A2.5,2.5,0,0,1,185.12,176Z"/><path class="cls-1" d="M198.66,175.28a3.22,3.22,0,0,1,.73,2.23v5.33h-.91v-1.59a4.29,4.29,0,0,1-1.34,1.23,4.11,4.11,0,0,1-2.16.58,3,3,0,0,1-2-.62,2.15,2.15,0,0,1-.75-1.72,2.44,2.44,0,0,1,1.29-2.3,5.67,5.67,0,0,1,2.77-.59l2.11,0v-.3a2.1,2.1,0,0,0-2.4-2.35,2.86,2.86,0,0,0-1.73.46,1.94,1.94,0,0,0-.84,1.44h-1a2.9,2.9,0,0,1,1.17-2.08,4,4,0,0,1,2.4-.64A3.28,3.28,0,0,1,198.66,175.28Zm-.23,3.32h-2.06c-2.09,0-3.14.71-3.14,2.1a1.39,1.39,0,0,0,.53,1.12,2.1,2.1,0,0,0,1.41.43,3.46,3.46,0,0,0,2.3-.86,2.46,2.46,0,0,0,1-1.84Z"/><path class="cls-1" d="M208.13,177.75v5.09h-1v-5c0-1.76-.79-2.64-2.35-2.64a2.2,2.2,0,0,0-1.67.72,2.9,2.9,0,0,0-.78,2v5h-1v-8.28h1v1.36a3.28,3.28,0,0,1,1.12-1.16,2.9,2.9,0,0,1,1.57-.42C207.1,174.34,208.13,175.48,208.13,177.75Z"/><path class="cls-1" d="M216.22,175.28a3.23,3.23,0,0,1,.74,2.23v5.33h-.91v-1.59a4.22,4.22,0,0,1-1.35,1.23,4.11,4.11,0,0,1-2.16.58,3,3,0,0,1-2-.62,2.13,2.13,0,0,1-.76-1.72,2.45,2.45,0,0,1,1.3-2.3,5.64,5.64,0,0,1,2.77-.59l2.11,0v-.3a2.1,2.1,0,0,0-2.4-2.35,2.84,2.84,0,0,0-1.73.46,2,2,0,0,0-.85,1.44h-.94a2.9,2.9,0,0,1,1.17-2.08,4,4,0,0,1,2.4-.64A3.24,3.24,0,0,1,216.22,175.28ZM216,178.6h-2.06c-2.1,0-3.14.71-3.14,2.1a1.39,1.39,0,0,0,.53,1.12,2.1,2.1,0,0,0,1.41.43,3.46,3.46,0,0,0,2.3-.86,2.46,2.46,0,0,0,1-1.84Z"/><path class="cls-1" d="M225.34,176.23v-1.67h1v7.67c0,2.66-1.23,4-3.71,4a4,4,0,0,1-2.51-.71,3,3,0,0,1-1.06-2h1a2.19,2.19,0,0,0,.77,1.38,2.9,2.9,0,0,0,1.84.51c1.84,0,2.75-1,2.75-3.09v-1.58a3.07,3.07,0,0,1-3,1.88,3.42,3.42,0,0,1-2.76-1.23,4.89,4.89,0,0,1,0-5.82,3.41,3.41,0,0,1,2.76-1.25A3.06,3.06,0,0,1,225.34,176.23Zm-5-.08a3.59,3.59,0,0,0-.74,2.35,3.64,3.64,0,0,0,.69,2.3,2.51,2.51,0,0,0,2.16,1,2.58,2.58,0,0,0,2.14-1,4.2,4.2,0,0,0,0-4.7,2.78,2.78,0,0,0-4.25,0Z"/><path class="cls-1" d="M234.61,175.67a5.78,5.78,0,0,1,.94,3.31h-6.72a3.86,3.86,0,0,0,.82,2.38,2.59,2.59,0,0,0,2,.87,2.8,2.8,0,0,0,1.82-.59,3.12,3.12,0,0,0,.88-1.46h1a3.89,3.89,0,0,1-1.11,2,3.67,3.67,0,0,1-2.57.91,3.51,3.51,0,0,1-2.79-1.18,5.18,5.18,0,0,1,0-6.24,3.8,3.8,0,0,1,5.75,0Zm-4.9.35a3.63,3.63,0,0,0-.86,2.18h5.69c-.16-2-1.11-3-2.86-3A2.47,2.47,0,0,0,229.71,176Z"/><path class="cls-1" d="M243,176a3.29,3.29,0,0,1,1.1-1.27,2.58,2.58,0,0,1,1.51-.43,2.72,2.72,0,0,1,2.08.82,3.25,3.25,0,0,1,.75,2.27v5.41h-1v-5.28a2.7,2.7,0,0,0-.48-1.76,2,2,0,0,0-1.65-.63,1.88,1.88,0,0,0-1.5.69,2.4,2.4,0,0,0-.61,1.71v5.27h-1v-5.28c0-1.59-.68-2.39-2.06-2.39a1.9,1.9,0,0,0-1.55.75,2.67,2.67,0,0,0-.64,1.83v5.09h-1v-8.28h1v1.25a2.67,2.67,0,0,1,2.4-1.47A2.5,2.5,0,0,1,243,176Z"/><path class="cls-1" d="M256.78,175.67a5.78,5.78,0,0,1,1,3.31H251a3.85,3.85,0,0,0,.81,2.38,2.6,2.6,0,0,0,2.05.87,2.83,2.83,0,0,0,1.83-.59,3.21,3.21,0,0,0,.88-1.46h1a3.88,3.88,0,0,1-1.1,2,3.68,3.68,0,0,1-2.58.91,3.51,3.51,0,0,1-2.78-1.18,4.54,4.54,0,0,1-1.07-3.19,4.62,4.62,0,0,1,1-3.05,3.79,3.79,0,0,1,5.74,0Zm-4.89.35a3.7,3.7,0,0,0-.87,2.18h5.7c-.16-2-1.12-3-2.86-3A2.45,2.45,0,0,0,251.89,176Z"/><path class="cls-1" d="M266,177.75v5.09h-1v-5c0-1.76-.78-2.64-2.35-2.64a2.18,2.18,0,0,0-1.66.72,3,3,0,0,0-.79,2v5h-1v-8.28h1v1.36a3.28,3.28,0,0,1,1.12-1.16,2.9,2.9,0,0,1,1.57-.42Q266,174.34,266,177.75Z"/><path class="cls-1" d="M270,171.89v2.67h2.16v.84H270V181a1.24,1.24,0,0,0,.19.78.93.93,0,0,0,.72.22h1v.84h-1.17a1.68,1.68,0,0,1-1.37-.5A2,2,0,0,1,269,181v-5.6h-1.76v-.84H269v-2.27Z"/><path class="cls-1" d="M278.29,174.52v1a4.38,4.38,0,0,0-1.27-.17,2.05,2.05,0,0,0-1.79,1,3.55,3.55,0,0,0-.65,2.16v4.37h-1v-8.28h1v1.59a2.9,2.9,0,0,1,.91-1.23,2.35,2.35,0,0,1,1.6-.58A3.22,3.22,0,0,1,278.29,174.52Z"/><path class="cls-1" d="M280.91,171.83a.67.67,0,0,1,.24.56.78.78,0,0,1-.25.57.86.86,0,0,1-.57.23.8.8,0,0,1-.81-.8.67.67,0,0,1,.24-.56.75.75,0,0,1,.57-.24A.78.78,0,0,1,280.91,171.83Zm-1.05,2.73h1v8.28h-1Z"/><path class="cls-1" d="M289.21,175.06a3.15,3.15,0,0,1,1.14,2.21h-1a2.34,2.34,0,0,0-.83-1.57,2.79,2.79,0,0,0-1.76-.53,2.47,2.47,0,0,0-2.08,1,4.79,4.79,0,0,0,0,5.1,2.48,2.48,0,0,0,2.09.95,2.45,2.45,0,0,0,2.66-2.35h.94a3.76,3.76,0,0,1-1.18,2.38,3.6,3.6,0,0,1-2.42.8,3.48,3.48,0,0,1-2.85-1.25,4.67,4.67,0,0,1-.94-3.05,4.82,4.82,0,0,1,1-3.11,3.39,3.39,0,0,1,2.83-1.31A3.8,3.8,0,0,1,289.21,175.06Z"/><path class="cls-1" d="M291.92,171.19h1v4.88a3.2,3.2,0,0,1,1.16-1.3,3.23,3.23,0,0,1,3.77.4,3.32,3.32,0,0,1,.8,2.39v5.28h-1v-5.16a2.7,2.7,0,0,0-.61-1.87,2.29,2.29,0,0,0-1.71-.64,2.23,2.23,0,0,0-1.74.83,3,3,0,0,0-.71,2.05v4.79h-1Z"/><path class="cls-1" d="M306,171.19h1v5.12a3,3,0,0,1,2.89-2,3.22,3.22,0,0,1,2.75,1.33,4.85,4.85,0,0,1,.92,3,4.91,4.91,0,0,1-.92,3.06,3.35,3.35,0,0,1-2.78,1.31,3,3,0,0,1-2.91-1.86v1.64H306Zm1.66,5a3.92,3.92,0,0,0-.74,2.48v.19a3.92,3.92,0,0,0,.69,2.4,2.43,2.43,0,0,0,2.1,1,2.52,2.52,0,0,0,2.16-1.05,4.2,4.2,0,0,0,.67-2.5,4.07,4.07,0,0,0-.69-2.48,2.53,2.53,0,0,0-2.17-1.05A2.37,2.37,0,0,0,307.63,176.15Z"/><path class="cls-1" d="M315.49,171.19h1v11.65h-1Z"/><path class="cls-1" d="M325.31,175.65a5.11,5.11,0,0,1,0,6.1,3.93,3.93,0,0,1-5.86,0,4.66,4.66,0,0,1-1-3,4.6,4.6,0,0,1,1-3.06,3.57,3.57,0,0,1,2.91-1.31A3.65,3.65,0,0,1,325.31,175.65Zm-5.15.61a3.88,3.88,0,0,0-.74,2.45,3.84,3.84,0,0,0,.74,2.43,2.83,2.83,0,0,0,4.46,0,4,4,0,0,0,.74-2.43,4,4,0,0,0-.74-2.45,2.83,2.83,0,0,0-4.46,0Z"/><path class="cls-1" d="M333.92,175.06a3.11,3.11,0,0,1,1.13,2.21h-1a2.3,2.3,0,0,0-.83-1.57,2.77,2.77,0,0,0-1.76-.53,2.49,2.49,0,0,0-2.08,1,4.79,4.79,0,0,0,0,5.1,2.48,2.48,0,0,0,2.1.95,2.44,2.44,0,0,0,2.65-2.35h.95a3.77,3.77,0,0,1-1.19,2.38,3.58,3.58,0,0,1-2.41.8,3.46,3.46,0,0,1-2.85-1.25,4.62,4.62,0,0,1-.95-3.05,4.82,4.82,0,0,1,1-3.11,3.4,3.4,0,0,1,2.83-1.31A3.85,3.85,0,0,1,333.92,175.06Z"/><path class="cls-1" d="M336.62,171.19h1v7.55l4.59-4.18h1.32l-3.64,3.28,4,5h-1.26l-3.42-4.37-1.59,1.44v2.93h-1Z"/><path class="cls-1" d="M350.77,175.06a3.18,3.18,0,0,1,1.13,2.21h-1a2.34,2.34,0,0,0-.83-1.57,2.77,2.77,0,0,0-1.76-.53,2.47,2.47,0,0,0-2.08,1,4.79,4.79,0,0,0,0,5.1,2.48,2.48,0,0,0,2.09.95,2.45,2.45,0,0,0,2.66-2.35h.94a3.76,3.76,0,0,1-1.18,2.38,3.58,3.58,0,0,1-2.42.8,3.45,3.45,0,0,1-2.84-1.25,4.62,4.62,0,0,1-.95-3.05,4.82,4.82,0,0,1,1-3.11,3.39,3.39,0,0,1,2.83-1.31A3.85,3.85,0,0,1,350.77,175.06Z"/><path class="cls-1" d="M353.47,171.19h1v4.88a3.11,3.11,0,0,1,1.15-1.3,2.92,2.92,0,0,1,1.57-.43,2.88,2.88,0,0,1,2.2.83,3.32,3.32,0,0,1,.8,2.39v5.28h-1v-5.16a2.75,2.75,0,0,0-.6-1.87,2.32,2.32,0,0,0-1.72-.64,2.23,2.23,0,0,0-1.74.83,3,3,0,0,0-.7,2.05v4.79h-1Z"/><path class="cls-1" d="M368.27,175.28a3.23,3.23,0,0,1,.74,2.23v5.33h-.92v-1.59a4.29,4.29,0,0,1-1.34,1.23,4.11,4.11,0,0,1-2.16.58,3,3,0,0,1-2-.62,2.15,2.15,0,0,1-.75-1.72,2.44,2.44,0,0,1,1.3-2.3,5.6,5.6,0,0,1,2.76-.59l2.12,0v-.3a2.1,2.1,0,0,0-2.4-2.35,2.82,2.82,0,0,0-1.73.46,2,2,0,0,0-.85,1.44h-.94a2.86,2.86,0,0,1,1.16-2.08,4,4,0,0,1,2.4-.64A3.26,3.26,0,0,1,368.27,175.28Zm-.22,3.32H366c-2.09,0-3.13.71-3.13,2.1a1.38,1.38,0,0,0,.52,1.12,2.1,2.1,0,0,0,1.41.43,3.49,3.49,0,0,0,2.31-.86,2.46,2.46,0,0,0,1-1.84Z"/><path class="cls-1" d="M372.56,171.83a.67.67,0,0,1,.24.56.79.79,0,0,1-.26.57.84.84,0,0,1-.56.23.76.76,0,0,1-.57-.23.78.78,0,0,1-.24-.57.67.67,0,0,1,.24-.56.73.73,0,0,1,.57-.24A.78.78,0,0,1,372.56,171.83Zm-1.06,2.73h1v8.28h-1Z"/><path class="cls-1" d="M381.68,177.75v5.09h-1v-5c0-1.76-.79-2.64-2.35-2.64a2.19,2.19,0,0,0-1.67.72,2.9,2.9,0,0,0-.78,2v5h-1v-8.28h1v1.36a3.28,3.28,0,0,1,1.12-1.16,2.9,2.9,0,0,1,1.57-.42C380.65,174.34,381.68,175.48,381.68,177.75Z"/><path class="cls-1" d="M47,200.88H46a2,2,0,0,0-.69-1.26,3.28,3.28,0,0,0-3.17-.08,1.16,1.16,0,0,0-.57,1,1.14,1.14,0,0,0,.73,1,11.56,11.56,0,0,0,1.75.58,8.45,8.45,0,0,1,2.14.76,1.88,1.88,0,0,1,1,1.67c0,1.67-1.12,2.51-3.36,2.51s-3.28-.94-3.47-2.83h.94a2.31,2.31,0,0,0,.77,1.57,2.94,2.94,0,0,0,1.73.43c1.6,0,2.4-.55,2.4-1.63a1.25,1.25,0,0,0-.82-1.16,10.3,10.3,0,0,0-1.84-.57,7.83,7.83,0,0,1-2-.74,1.75,1.75,0,0,1-.95-1.58,1.88,1.88,0,0,1,.9-1.62,3.77,3.77,0,0,1,2.18-.59C45.63,198.34,46.73,199.19,47,200.88Z"/><path class="cls-1" d="M55.28,199.65a5.11,5.11,0,0,1,0,6.1,3.92,3.92,0,0,1-5.85,0,5.09,5.09,0,0,1,0-6.1,3.59,3.59,0,0,1,2.91-1.31A3.64,3.64,0,0,1,55.28,199.65Zm-5.15.61a3.88,3.88,0,0,0-.74,2.45,3.84,3.84,0,0,0,.74,2.43,2.83,2.83,0,0,0,4.46,0,4,4,0,0,0,.74-2.43,4,4,0,0,0-.74-2.45,2.83,2.83,0,0,0-4.46,0Z"/><path class="cls-1" d="M58.29,195.19h1v11.65h-1Z"/><path class="cls-1" d="M61.57,198.56h1v5.06a3,3,0,0,0,.54,1.94,2.26,2.26,0,0,0,1.78.67,2.32,2.32,0,0,0,1.68-.74,3,3,0,0,0,.82-1.9v-5h1v8.28h-1v-1.4a3,3,0,0,1-2.76,1.62q-3,0-3-3.39Z"/><path class="cls-1" d="M72.32,195.89v2.67h2.16v.84H72.32V205a1.31,1.31,0,0,0,.19.78.93.93,0,0,0,.72.22h1v.84H73.11a1.72,1.72,0,0,1-1.38-.5,2,2,0,0,1-.37-1.34v-5.6H69.6v-.84h1.76v-2.27Z"/><path class="cls-1" d="M77.47,195.83a.67.67,0,0,1,.24.56.78.78,0,0,1-.25.57.84.84,0,0,1-.56.23.8.8,0,0,1-.82-.8.67.67,0,0,1,.24-.56.75.75,0,0,1,.58-.24A.78.78,0,0,1,77.47,195.83Zm-1,2.73h1v8.28h-1Z"/><path class="cls-1" d="M86.42,199.65a5.11,5.11,0,0,1,0,6.1,3.93,3.93,0,0,1-5.86,0,4.66,4.66,0,0,1-1-3,4.6,4.6,0,0,1,1-3.06,3.56,3.56,0,0,1,2.91-1.31A3.65,3.65,0,0,1,86.42,199.65Zm-5.15.61a3.88,3.88,0,0,0-.74,2.45,3.84,3.84,0,0,0,.74,2.43,2.83,2.83,0,0,0,4.46,0,4,4,0,0,0,.74-2.43,4,4,0,0,0-.74-2.45,2.83,2.83,0,0,0-4.46,0Z"/><path class="cls-1" d="M95.84,201.75v5.09h-1v-5c0-1.76-.78-2.64-2.35-2.64a2.17,2.17,0,0,0-1.66.72,2.9,2.9,0,0,0-.79,2v5h-1v-8.28h1v1.36a3.28,3.28,0,0,1,1.12-1.16,2.9,2.9,0,0,1,1.57-.42Q95.85,198.34,95.84,201.75Z"/><path class="cls-1" d="M104,200.88H103a2,2,0,0,0-.69-1.26,2.67,2.67,0,0,0-1.68-.45,2.63,2.63,0,0,0-1.49.37,1.17,1.17,0,0,0-.58,1,1.15,1.15,0,0,0,.74,1,11.74,11.74,0,0,0,1.74.58,8.41,8.41,0,0,1,2.15.76,1.88,1.88,0,0,1,1,1.67c0,1.67-1.12,2.51-3.36,2.51s-3.28-.94-3.47-2.83h.94a2.27,2.27,0,0,0,.77,1.57,2.92,2.92,0,0,0,1.73.43c1.6,0,2.4-.55,2.4-1.63a1.25,1.25,0,0,0-.82-1.16,10.6,10.6,0,0,0-1.84-.57,7.83,7.83,0,0,1-2-.74,1.75,1.75,0,0,1-1-1.58,1.88,1.88,0,0,1,.9-1.62,3.73,3.73,0,0,1,2.17-.59C102.64,198.34,103.73,199.19,104,200.88Z"/><path class="cls-1" d="M117.15,199.28a3.23,3.23,0,0,1,.74,2.23v5.33H117v-1.59a4.22,4.22,0,0,1-1.35,1.23,4.11,4.11,0,0,1-2.16.58,3,3,0,0,1-2-.62,2.13,2.13,0,0,1-.76-1.72,2.45,2.45,0,0,1,1.3-2.3,5.64,5.64,0,0,1,2.77-.59l2.11,0v-.3a2.1,2.1,0,0,0-2.4-2.35,2.84,2.84,0,0,0-1.73.46,2,2,0,0,0-.85,1.44H111a2.9,2.9,0,0,1,1.17-2.08,4,4,0,0,1,2.4-.64A3.24,3.24,0,0,1,117.15,199.28Zm-.22,3.32h-2.06c-2.1,0-3.14.71-3.14,2.1a1.39,1.39,0,0,0,.53,1.12,2.1,2.1,0,0,0,1.41.43,3.46,3.46,0,0,0,2.3-.86,2.46,2.46,0,0,0,1-1.84Z"/><path class="cls-1" d="M126.63,201.75v5.09h-1v-5c0-1.76-.79-2.64-2.36-2.64a2.18,2.18,0,0,0-1.66.72,2.9,2.9,0,0,0-.78,2v5h-1v-8.28h1v1.36a3.2,3.2,0,0,1,1.12-1.16,2.87,2.87,0,0,1,1.56-.42Q126.63,198.34,126.63,201.75Z"/><path class="cls-1" d="M134.88,195.19h1v11.65h-.91V205.2a3,3,0,0,1-2.9,1.86,3.38,3.38,0,0,1-2.8-1.31,5,5,0,0,1-.91-3.06,4.9,4.9,0,0,1,.91-3,3.23,3.23,0,0,1,2.75-1.33,3,3,0,0,1,2.9,2Zm-4.9,5a4.06,4.06,0,0,0-.68,2.48,4.2,4.2,0,0,0,.67,2.5,2.49,2.49,0,0,0,2.16,1.05,2.45,2.45,0,0,0,2.09-1,4,4,0,0,0,.69-2.4v-.19a4,4,0,0,0-.73-2.48,2.41,2.41,0,0,0-2-1A2.55,2.55,0,0,0,130,200.21Z"/><path class="cls-1" d="M143.18,195.19h1v5.12a3,3,0,0,1,2.9-2,3.23,3.23,0,0,1,2.75,1.33,4.85,4.85,0,0,1,.92,3,4.91,4.91,0,0,1-.92,3.06,3.35,3.35,0,0,1-2.78,1.31,3,3,0,0,1-2.91-1.86v1.64h-.92Zm1.67,5a3.92,3.92,0,0,0-.74,2.48v.19a3.92,3.92,0,0,0,.69,2.4,2.43,2.43,0,0,0,2.1,1,2.53,2.53,0,0,0,2.16-1.05,4.28,4.28,0,0,0,.67-2.5,4.07,4.07,0,0,0-.69-2.48,2.53,2.53,0,0,0-2.17-1.05A2.37,2.37,0,0,0,144.85,200.15Z"/><path class="cls-1" d="M152.7,195.19h1v11.65h-1Z"/><path class="cls-1" d="M162.53,199.65a5.11,5.11,0,0,1,0,6.1,3.93,3.93,0,0,1-5.86,0,4.66,4.66,0,0,1-1-3,4.6,4.6,0,0,1,1-3.06,3.56,3.56,0,0,1,2.91-1.31A3.65,3.65,0,0,1,162.53,199.65Zm-5.15.61a3.88,3.88,0,0,0-.74,2.45,3.84,3.84,0,0,0,.74,2.43,2.83,2.83,0,0,0,4.46,0,4,4,0,0,0,.74-2.43,4,4,0,0,0-.74-2.45,2.83,2.83,0,0,0-4.46,0Z"/><path class="cls-1" d="M171.14,199.06a3.15,3.15,0,0,1,1.13,2.21h-1a2.3,2.3,0,0,0-.83-1.57,2.77,2.77,0,0,0-1.76-.53,2.49,2.49,0,0,0-2.08,1,4.79,4.79,0,0,0,0,5.1,2.48,2.48,0,0,0,2.1.95,2.44,2.44,0,0,0,2.65-2.35h.94a3.76,3.76,0,0,1-1.18,2.38,3.58,3.58,0,0,1-2.41.8,3.46,3.46,0,0,1-2.85-1.25,4.62,4.62,0,0,1-1-3.05,4.82,4.82,0,0,1,1-3.11,3.39,3.39,0,0,1,2.83-1.31A3.85,3.85,0,0,1,171.14,199.06Z"/><path class="cls-1" d="M173.84,195.19h1v7.55l4.59-4.18h1.31l-3.63,3.28,4,5h-1.26l-3.43-4.37-1.58,1.44v2.93h-1Z"/><path class="cls-1" d="M188,199.06a3.15,3.15,0,0,1,1.14,2.21h-1a2.34,2.34,0,0,0-.83-1.57,2.79,2.79,0,0,0-1.76-.53,2.47,2.47,0,0,0-2.08,1,4.79,4.79,0,0,0,0,5.1,2.71,2.71,0,0,0,4.75-1.4h.94a3.76,3.76,0,0,1-1.18,2.38,3.6,3.6,0,0,1-2.42.8,3.48,3.48,0,0,1-2.85-1.25,4.67,4.67,0,0,1-.94-3.05,4.82,4.82,0,0,1,1-3.11,3.39,3.39,0,0,1,2.83-1.31A3.8,3.8,0,0,1,188,199.06Z"/><path class="cls-1" d="M190.69,195.19h1v4.88a3.2,3.2,0,0,1,1.16-1.3,3.23,3.23,0,0,1,3.77.4,3.32,3.32,0,0,1,.8,2.39v5.28h-1v-5.16a2.7,2.7,0,0,0-.61-1.87,2.29,2.29,0,0,0-1.71-.64,2.23,2.23,0,0,0-1.74.83,3,3,0,0,0-.71,2.05v4.79h-1Z"/><path class="cls-1" d="M205.49,199.28a3.22,3.22,0,0,1,.73,2.23v5.33h-.91v-1.59a4.29,4.29,0,0,1-1.34,1.23,4.11,4.11,0,0,1-2.16.58,3,3,0,0,1-2-.62,2.15,2.15,0,0,1-.75-1.72,2.44,2.44,0,0,1,1.29-2.3,5.67,5.67,0,0,1,2.77-.59l2.11,0v-.3a2.1,2.1,0,0,0-2.4-2.35,2.81,2.81,0,0,0-1.72.46,2,2,0,0,0-.85,1.44h-.95a2.9,2.9,0,0,1,1.17-2.08,4,4,0,0,1,2.4-.64A3.26,3.26,0,0,1,205.49,199.28Zm-.23,3.32H203.2c-2.09,0-3.14.71-3.14,2.1a1.39,1.39,0,0,0,.53,1.12,2.1,2.1,0,0,0,1.41.43,3.46,3.46,0,0,0,2.3-.86,2.46,2.46,0,0,0,1-1.84Z"/><path class="cls-1" d="M209.78,195.83a.67.67,0,0,1,.24.56.79.79,0,0,1-.26.57.84.84,0,0,1-.56.23.8.8,0,0,1-.58-.23.78.78,0,0,1-.24-.57.67.67,0,0,1,.24-.56.77.77,0,0,1,.58-.24A.8.8,0,0,1,209.78,195.83Zm-1.06,2.73h1v8.28h-1Z"/><path class="cls-1" d="M218.9,201.75v5.09h-1v-5c0-1.76-.79-2.64-2.36-2.64a2.18,2.18,0,0,0-1.66.72,2.9,2.9,0,0,0-.78,2v5h-1v-8.28h1v1.36a3.2,3.2,0,0,1,1.12-1.16,2.87,2.87,0,0,1,1.56-.42Q218.9,198.34,218.9,201.75Z"/><path class="cls-1" d="M232.85,199.67a4.89,4.89,0,0,1,.91,3.05,5,5,0,0,1-.9,3,3.32,3.32,0,0,1-2.76,1.31,3,3,0,0,1-2.9-1.95V210h-1V198.56h.91v1.64a3,3,0,0,1,2.91-1.86A3.32,3.32,0,0,1,232.85,199.67Zm-5,.54a4,4,0,0,0-.69,2.45v.18a3.85,3.85,0,0,0,.73,2.44,2.44,2.44,0,0,0,2,1,2.6,2.6,0,0,0,2.18-1,5,5,0,0,0,0-5,2.48,2.48,0,0,0-2.16-1.07A2.43,2.43,0,0,0,227.86,200.21Z"/><path class="cls-1" d="M240.13,198.52v1a4.38,4.38,0,0,0-1.27-.17,2.05,2.05,0,0,0-1.79,1,3.55,3.55,0,0,0-.65,2.16v4.37h-1v-8.28h1v1.59a2.9,2.9,0,0,1,.91-1.23,2.35,2.35,0,0,1,1.6-.58A3.22,3.22,0,0,1,240.13,198.52Z"/><path class="cls-1" d="M247.76,199.65a5.11,5.11,0,0,1,0,6.1,3.93,3.93,0,0,1-5.86,0,4.66,4.66,0,0,1-1-3,4.6,4.6,0,0,1,1-3.06,3.56,3.56,0,0,1,2.91-1.31A3.65,3.65,0,0,1,247.76,199.65Zm-5.15.61a3.88,3.88,0,0,0-.74,2.45,3.84,3.84,0,0,0,.74,2.43,2.83,2.83,0,0,0,4.46,0,4,4,0,0,0,.74-2.43,4,4,0,0,0-.74-2.45,2.83,2.83,0,0,0-4.46,0Z"/><path class="cls-1" d="M251.18,198.56h1v9.35c0,1.4-.72,2.09-2.16,2.09h-.77v-.83h.71a1.13,1.13,0,0,0,1.26-1.29Zm1.07-2.73a.69.69,0,0,1,.23.56.85.85,0,0,1-.23.57.86.86,0,0,1-.59.23.85.85,0,0,1-.57-.23.78.78,0,0,1-.24-.57.67.67,0,0,1,.24-.56.78.78,0,0,1,.57-.24A.79.79,0,0,1,252.25,195.83Z"/><path class="cls-1" d="M260.93,199.67a5.78,5.78,0,0,1,.94,3.31h-6.72a3.86,3.86,0,0,0,.82,2.38,2.58,2.58,0,0,0,2,.87,2.81,2.81,0,0,0,1.83-.59,3.12,3.12,0,0,0,.88-1.46h1a4,4,0,0,1-1.11,2,3.68,3.68,0,0,1-2.58.91,3.51,3.51,0,0,1-2.78-1.18,5.18,5.18,0,0,1,0-6.24,3.8,3.8,0,0,1,5.75,0ZM256,200a3.63,3.63,0,0,0-.86,2.18h5.69c-.16-2-1.11-3-2.86-3A2.47,2.47,0,0,0,256,200Z"/><path class="cls-1" d="M269.31,199.06a3.15,3.15,0,0,1,1.14,2.21h-1a2.35,2.35,0,0,0-.84-1.57,2.75,2.75,0,0,0-1.76-.53,2.5,2.5,0,0,0-2.08,1,4.79,4.79,0,0,0,0,5.1,2.48,2.48,0,0,0,2.1.95,2.44,2.44,0,0,0,2.65-2.35h1a3.77,3.77,0,0,1-1.19,2.38,3.56,3.56,0,0,1-2.41.8,3.46,3.46,0,0,1-2.85-1.25,4.61,4.61,0,0,1-.94-3.05,4.82,4.82,0,0,1,1-3.11,3.42,3.42,0,0,1,2.83-1.31A3.83,3.83,0,0,1,269.31,199.06Z"/><path class="cls-1" d="M274,195.89v2.67h2.16v.84H274V205a1.24,1.24,0,0,0,.2.78.9.9,0,0,0,.72.22h1v.84H274.8a1.72,1.72,0,0,1-1.38-.5,2,2,0,0,1-.37-1.34v-5.6h-1.76v-.84h1.76v-2.27Z"/><path class="cls-1" d="M289.25,199.67a5.78,5.78,0,0,1,.94,3.31h-6.72a3.86,3.86,0,0,0,.82,2.38,2.58,2.58,0,0,0,2,.87,2.81,2.81,0,0,0,1.83-.59,3.21,3.21,0,0,0,.88-1.46h1a3.88,3.88,0,0,1-1.1,2,3.68,3.68,0,0,1-2.58.91,3.51,3.51,0,0,1-2.78-1.18,4.54,4.54,0,0,1-1.07-3.19,4.62,4.62,0,0,1,1-3.05,3.8,3.8,0,0,1,5.75,0Zm-4.9.35a3.63,3.63,0,0,0-.86,2.18h5.69c-.16-2-1.11-3-2.86-3A2.47,2.47,0,0,0,284.35,200Z"/><path class="cls-1" d="M291.15,198.56h1.15l2.37,3.19,2.37-3.19h1.13l-3,3.91,3.32,4.37h-1.16l-2.7-3.65L292,206.84H290.8l3.33-4.37Z"/><path class="cls-1" d="M306.22,199.67a4.89,4.89,0,0,1,.91,3.05,5,5,0,0,1-.89,3,3.35,3.35,0,0,1-2.77,1.31,3,3,0,0,1-2.9-1.95V210h-1V198.56h.92v1.64a3,3,0,0,1,2.91-1.86A3.31,3.31,0,0,1,306.22,199.67Zm-5,.54a4,4,0,0,0-.69,2.45v.18a3.85,3.85,0,0,0,.74,2.44,2.42,2.42,0,0,0,2,1,2.59,2.59,0,0,0,2.18-1,4.2,4.2,0,0,0,.67-2.5,4.34,4.34,0,0,0-.65-2.49,2.51,2.51,0,0,0-2.16-1.07A2.43,2.43,0,0,0,301.23,200.21Z"/><path class="cls-1" d="M315.12,199.67a5.71,5.71,0,0,1,.94,3.31h-6.72a3.92,3.92,0,0,0,.82,2.38,2.59,2.59,0,0,0,2,.87,2.8,2.8,0,0,0,1.82-.59,3.12,3.12,0,0,0,.88-1.46h1a3.89,3.89,0,0,1-1.11,2,3.67,3.67,0,0,1-2.57.91,3.53,3.53,0,0,1-2.79-1.18,5.18,5.18,0,0,1-.05-6.24,3.8,3.8,0,0,1,5.75,0Zm-4.9.35a3.63,3.63,0,0,0-.86,2.18h5.69c-.16-2-1.11-3-2.86-3A2.47,2.47,0,0,0,310.22,200Z"/><path class="cls-1" d="M322.27,198.52v1a4.31,4.31,0,0,0-1.26-.17,2.06,2.06,0,0,0-1.8,1,3.61,3.61,0,0,0-.65,2.16v4.37h-1v-8.28h1v1.59a3,3,0,0,1,.91-1.23,2.35,2.35,0,0,1,1.6-.58A3.22,3.22,0,0,1,322.27,198.52Z"/><path class="cls-1" d="M324.89,195.83a.67.67,0,0,1,.24.56.78.78,0,0,1-.25.57.84.84,0,0,1-.56.23.8.8,0,0,1-.82-.8.67.67,0,0,1,.24-.56.75.75,0,0,1,.58-.24A.78.78,0,0,1,324.89,195.83Zm-1.05,2.73h1v8.28h-1Z"/><path class="cls-1" d="M333.58,199.67a5.78,5.78,0,0,1,.95,3.31H327.8a3.92,3.92,0,0,0,.82,2.38,2.6,2.6,0,0,0,2.05.87,2.78,2.78,0,0,0,1.82-.59,3,3,0,0,0,.88-1.46h1a3.88,3.88,0,0,1-1.1,2,3.72,3.72,0,0,1-2.58.91,3.54,3.54,0,0,1-2.79-1.18,5.16,5.16,0,0,1,0-6.24,3.79,3.79,0,0,1,5.74,0Zm-4.89.35a3.64,3.64,0,0,0-.87,2.18h5.7c-.16-2-1.12-3-2.87-3A2.45,2.45,0,0,0,328.69,200Z"/><path class="cls-1" d="M342.78,201.75v5.09h-1v-5c0-1.76-.78-2.64-2.35-2.64a2.2,2.2,0,0,0-1.67.72,2.9,2.9,0,0,0-.78,2v5h-1v-8.28h1v1.36a3.28,3.28,0,0,1,1.12-1.16,2.9,2.9,0,0,1,1.57-.42Q342.79,198.34,342.78,201.75Z"/><path class="cls-1" d="M350.7,199.06a3.15,3.15,0,0,1,1.14,2.21h-1a2.35,2.35,0,0,0-.84-1.57,2.74,2.74,0,0,0-1.75-.53,2.47,2.47,0,0,0-2.08,1,4,4,0,0,0-.76,2.58,4.05,4.05,0,0,0,.72,2.52,2.48,2.48,0,0,0,2.1.95,2.44,2.44,0,0,0,2.65-2.35h.95a3.81,3.81,0,0,1-1.18,2.38,3.6,3.6,0,0,1-2.42.8,3.46,3.46,0,0,1-2.85-1.25,4.61,4.61,0,0,1-.94-3.05,4.82,4.82,0,0,1,1-3.11,3.42,3.42,0,0,1,2.84-1.31A3.82,3.82,0,0,1,350.7,199.06Z"/><path class="cls-1" d="M359.69,199.67a5.78,5.78,0,0,1,.95,3.31h-6.72a3.85,3.85,0,0,0,.81,2.38,2.6,2.6,0,0,0,2,.87,2.78,2.78,0,0,0,1.82-.59,3,3,0,0,0,.88-1.46h1a3.88,3.88,0,0,1-1.1,2,3.7,3.7,0,0,1-2.58.91,3.51,3.51,0,0,1-2.78-1.18,4.55,4.55,0,0,1-1.08-3.19,4.63,4.63,0,0,1,1-3.05,3.79,3.79,0,0,1,5.74,0Zm-4.89.35a3.64,3.64,0,0,0-.87,2.18h5.7c-.16-2-1.12-3-2.87-3A2.45,2.45,0,0,0,354.8,200Z"/></svg>