<svg id="图层_1" data-name="图层 1" xmlns="http://www.w3.org/2000/svg" viewBox="0 0 400 275"><defs><style>.cls-1{fill:#33353c;}</style></defs><title>团队介绍</title><path class="cls-1" d="M16.4,85.66a4.64,4.64,0,0,1,1.49,2.85h-1a3.61,3.61,0,0,0-1.22-2.19A4,4,0,0,0,13,85.49a3.91,3.91,0,0,0-3.19,1.44,5.57,5.57,0,0,0-1.15,3.66,5.26,5.26,0,0,0,1.15,3.55,4.4,4.4,0,0,0,3.52,1.44,6.6,6.6,0,0,0,2-.29,5.63,5.63,0,0,0,1.55-.7V91.34H13v-.86h4.88v4.57a6.24,6.24,0,0,1-2,1,8.92,8.92,0,0,1-2.59.38,5.24,5.24,0,0,1-4.19-1.74,6.06,6.06,0,0,1-1.37-4.13A6.34,6.34,0,0,1,9.08,86.4,4.78,4.78,0,0,1,13,84.59,5.06,5.06,0,0,1,16.4,85.66Z"/><path class="cls-1" d="M26.47,89.05a5.15,5.15,0,0,1,0,6.1,3.93,3.93,0,0,1-5.86,0,4.66,4.66,0,0,1-1-3,4.55,4.55,0,0,1,1-3.06,3.56,3.56,0,0,1,2.91-1.31A3.67,3.67,0,0,1,26.47,89.05Zm-5.15.61a3.82,3.82,0,0,0-.74,2.45,3.79,3.79,0,0,0,.74,2.43,2.83,2.83,0,0,0,4.46,0,4,4,0,0,0,.73-2.43,4,4,0,0,0-.73-2.45,2.83,2.83,0,0,0-4.46,0Z"/><path class="cls-1" d="M35.71,89.05a5.11,5.11,0,0,1,0,6.1,3.92,3.92,0,0,1-5.85,0,4.66,4.66,0,0,1-1-3,4.6,4.6,0,0,1,1-3.06,3.59,3.59,0,0,1,2.92-1.31A3.63,3.63,0,0,1,35.71,89.05Zm-5.15.61a3.88,3.88,0,0,0-.73,2.45,3.84,3.84,0,0,0,.73,2.43,2.84,2.84,0,0,0,4.47,0,4,4,0,0,0,.73-2.43A4,4,0,0,0,35,89.66a2.84,2.84,0,0,0-4.47,0Z"/><path class="cls-1" d="M44.66,84.59h1V96.24h-.91V94.61a3,3,0,0,1-2.9,1.85A3.37,3.37,0,0,1,39,95.15a4.9,4.9,0,0,1-.91-3.06,4.84,4.84,0,0,1,.91-3,3.23,3.23,0,0,1,2.75-1.33,3,3,0,0,1,2.9,2Zm-4.9,5a4,4,0,0,0-.68,2.48,4.2,4.2,0,0,0,.67,2.5,2.5,2.5,0,0,0,2.16,1.06,2.46,2.46,0,0,0,2.09-1,4,4,0,0,0,.69-2.4V92A4,4,0,0,0,44,89.55a2.39,2.39,0,0,0-2-1A2.54,2.54,0,0,0,39.76,89.61Z"/><path class="cls-1" d="M59,88.69a3.18,3.18,0,0,1,.74,2.22v5.33h-.91V94.65a4.48,4.48,0,0,1-1.35,1.24,4.2,4.2,0,0,1-2.16.57,3,3,0,0,1-2-.62,2.12,2.12,0,0,1-.76-1.71,2.46,2.46,0,0,1,1.3-2.31,5.61,5.61,0,0,1,2.77-.59l2.11,0v-.3a2.1,2.1,0,0,0-2.4-2.35,2.84,2.84,0,0,0-1.73.46,2,2,0,0,0-.85,1.44H52.9a2.9,2.9,0,0,1,1.17-2.08,4,4,0,0,1,2.4-.64A3.24,3.24,0,0,1,59,88.69ZM58.82,92H56.75c-2.09,0-3.13.71-3.13,2.1a1.36,1.36,0,0,0,.53,1.12,2.09,2.09,0,0,0,1.4.43,3.47,3.47,0,0,0,2.31-.86,2.46,2.46,0,0,0,1-1.84Z"/><path class="cls-1" d="M63.79,85.29V88H66v.83H63.79v5.6a1.24,1.24,0,0,0,.2.78.9.9,0,0,0,.72.23h1v.83H64.58a1.72,1.72,0,0,1-1.38-.5,2,2,0,0,1-.37-1.34V88.8H61.07V88h1.76V85.69Z"/><path class="cls-1" d="M78.69,89.44a3.29,3.29,0,0,1,1.1-1.27,2.66,2.66,0,0,1,1.51-.43,2.7,2.7,0,0,1,2.08.82,3.25,3.25,0,0,1,.75,2.27v5.41h-1V91a2.7,2.7,0,0,0-.48-1.76A2,2,0,0,0,81,88.57a1.88,1.88,0,0,0-1.5.69A2.4,2.4,0,0,0,78.93,91v5.27H78V91c0-1.59-.68-2.39-2.06-2.39a1.88,1.88,0,0,0-1.55.76,2.65,2.65,0,0,0-.64,1.82v5.09h-1V88h1v1.24a2.67,2.67,0,0,1,2.4-1.47A2.5,2.5,0,0,1,78.69,89.44Z"/><path class="cls-1" d="M92.69,89.05a5.11,5.11,0,0,1,0,6.1,3.93,3.93,0,0,1-5.86,0,4.66,4.66,0,0,1-1-3,4.6,4.6,0,0,1,1-3.06,3.59,3.59,0,0,1,2.91-1.31A3.65,3.65,0,0,1,92.69,89.05Zm-5.15.61a3.88,3.88,0,0,0-.74,2.45,3.84,3.84,0,0,0,.74,2.43,2.83,2.83,0,0,0,4.46,0,4,4,0,0,0,.74-2.43A4,4,0,0,0,92,89.66a2.83,2.83,0,0,0-4.46,0Z"/><path class="cls-1" d="M95.39,84.59h1v5.12a3,3,0,0,1,2.9-2A3.23,3.23,0,0,1,102,89.07a4.84,4.84,0,0,1,.91,3,4.9,4.9,0,0,1-.91,3.06,3.35,3.35,0,0,1-2.78,1.31,3,3,0,0,1-2.91-1.85v1.63h-.92Zm1.67,5A3.93,3.93,0,0,0,96.32,92v.19a3.92,3.92,0,0,0,.69,2.4,2.43,2.43,0,0,0,2.09,1,2.52,2.52,0,0,0,2.16-1.06,4.21,4.21,0,0,0,.68-2.5,4.07,4.07,0,0,0-.69-2.48,2.54,2.54,0,0,0-2.18-1A2.37,2.37,0,0,0,97.06,89.55Z"/><path class="cls-1" d="M106.15,85.23a.67.67,0,0,1,.24.56.83.83,0,0,1-.26.58.88.88,0,0,1-.56.22.82.82,0,0,1-.58-.22.8.8,0,0,1-.24-.58.67.67,0,0,1,.24-.56.75.75,0,0,1,.58-.24A.8.8,0,0,1,106.15,85.23ZM105.09,88h1v8.27h-1Z"/><path class="cls-1" d="M108.85,84.59h1V96.24h-1Z"/><path class="cls-1" d="M118.42,89.07a5.78,5.78,0,0,1,.94,3.31h-6.72a3.89,3.89,0,0,0,.82,2.39,2.61,2.61,0,0,0,2,.86,2.81,2.81,0,0,0,1.83-.59,3.21,3.21,0,0,0,.88-1.46h1a3.88,3.88,0,0,1-1.1,2,3.68,3.68,0,0,1-2.58.91,3.51,3.51,0,0,1-2.78-1.18,4.54,4.54,0,0,1-1.07-3.19,4.62,4.62,0,0,1,1-3,3.8,3.8,0,0,1,5.75,0Zm-4.9.35a3.63,3.63,0,0,0-.86,2.18h5.69c-.16-2-1.11-3-2.86-3A2.5,2.5,0,0,0,113.52,89.42Z"/><path class="cls-1" d="M127.76,85.23a.67.67,0,0,1,.24.56.82.82,0,0,1-.25.58.91.91,0,0,1-.57.22.81.81,0,0,1-.57-.22.8.8,0,0,1-.24-.58.67.67,0,0,1,.24-.56.75.75,0,0,1,.57-.24A.78.78,0,0,1,127.76,85.23ZM126.7,88h1v8.27h-1Z"/><path class="cls-1" d="M136.88,91.15v5.09h-1v-5c0-1.76-.78-2.64-2.35-2.64a2.17,2.17,0,0,0-1.66.72,2.86,2.86,0,0,0-.79,2v5h-1V88h1v1.36a3.31,3.31,0,0,1,1.12-1.17,2.9,2.9,0,0,1,1.57-.42Q136.89,87.74,136.88,91.15Z"/><path class="cls-1" d="M140.9,85.29V88h2.16v.83H140.9v5.6a1.24,1.24,0,0,0,.19.78.92.92,0,0,0,.72.23h1v.83h-1.17a1.72,1.72,0,0,1-1.38-.5,2,2,0,0,1-.36-1.34V88.8h-1.76V88h1.76V85.69Z"/><path class="cls-1" d="M150.8,89.07a5.78,5.78,0,0,1,.95,3.31H145a4,4,0,0,0,.82,2.39,2.61,2.61,0,0,0,2,.86,2.8,2.8,0,0,0,1.82-.59,3,3,0,0,0,.88-1.46h1a3.82,3.82,0,0,1-1.11,2,3.67,3.67,0,0,1-2.57.91,3.54,3.54,0,0,1-2.79-1.18,5.16,5.16,0,0,1,0-6.24,3.79,3.79,0,0,1,5.74,0Zm-4.89.35A3.58,3.58,0,0,0,145,91.6h5.7c-.16-2-1.12-3-2.87-3A2.48,2.48,0,0,0,145.91,89.42Z"/><path class="cls-1" d="M158,87.92v1a4.62,4.62,0,0,0-1.26-.17,2,2,0,0,0-1.79,1,3.55,3.55,0,0,0-.66,2.16v4.37h-1V88h1v1.58a3.05,3.05,0,0,1,.91-1.23,2.35,2.35,0,0,1,1.6-.58A3.22,3.22,0,0,1,158,87.92Z"/><path class="cls-1" d="M165.76,91.15v5.09h-1v-5c0-1.76-.78-2.64-2.35-2.64a2.2,2.2,0,0,0-1.67.72,2.9,2.9,0,0,0-.78,2v5h-1V88h1v1.36a3.31,3.31,0,0,1,1.12-1.17,2.9,2.9,0,0,1,1.57-.42Q165.77,87.74,165.76,91.15Z"/><path class="cls-1" d="M174.06,89.07a5.71,5.71,0,0,1,.95,3.31h-6.72a3.89,3.89,0,0,0,.81,2.39,2.64,2.64,0,0,0,2.05.86A2.81,2.81,0,0,0,173,95a3.21,3.21,0,0,0,.88-1.46h1a3.88,3.88,0,0,1-1.1,2,3.68,3.68,0,0,1-2.58.91,3.51,3.51,0,0,1-2.78-1.18,4.54,4.54,0,0,1-1.07-3.19,4.62,4.62,0,0,1,1-3,3.79,3.79,0,0,1,5.74,0Zm-4.89.35a3.7,3.7,0,0,0-.87,2.18H174c-.16-2-1.11-3-2.86-3A2.5,2.5,0,0,0,169.17,89.42Z"/><path class="cls-1" d="M178.54,85.29V88h2.16v.83h-2.16v5.6a1.24,1.24,0,0,0,.2.78.9.9,0,0,0,.72.23h1v.83h-1.17a1.72,1.72,0,0,1-1.38-.5,2,2,0,0,1-.37-1.34V88.8h-1.76V88h1.76V85.69Z"/><path class="cls-1" d="M194.1,89.07a5.56,5.56,0,0,1,0,6.08,3.33,3.33,0,0,1-2.77,1.31,3,3,0,0,1-2.89-1.95v4.9h-1V88h.91V89.6a3,3,0,0,1,2.91-1.86A3.33,3.33,0,0,1,194.1,89.07Zm-5,.54a4.09,4.09,0,0,0-.68,2.45v.18a3.88,3.88,0,0,0,.73,2.45,2.44,2.44,0,0,0,2,1,2.58,2.58,0,0,0,2.17-1,4.19,4.19,0,0,0,.68-2.49,4.28,4.28,0,0,0-.66-2.5,2.51,2.51,0,0,0-2.16-1.07A2.43,2.43,0,0,0,189.1,89.61Z"/><path class="cls-1" d="M201.37,87.92v1a4.62,4.62,0,0,0-1.26-.17,2,2,0,0,0-1.79,1,3.55,3.55,0,0,0-.66,2.16v4.37h-1V88h1v1.58a3.07,3.07,0,0,1,.92-1.23,2.33,2.33,0,0,1,1.59-.58A3.15,3.15,0,0,1,201.37,87.92Z"/><path class="cls-1" d="M209,89.05a5.15,5.15,0,0,1,0,6.1,3.93,3.93,0,0,1-5.86,0,4.66,4.66,0,0,1-1-3,4.55,4.55,0,0,1,1-3.06,3.56,3.56,0,0,1,2.91-1.31A3.67,3.67,0,0,1,209,89.05Zm-5.16.61a3.88,3.88,0,0,0-.73,2.45,3.84,3.84,0,0,0,.73,2.43,2.84,2.84,0,0,0,4.47,0,4,4,0,0,0,.73-2.43,4,4,0,0,0-.73-2.45,2.84,2.84,0,0,0-4.47,0Z"/><path class="cls-1" d="M218,84.59h1V96.24H218V94.61a3,3,0,0,1-2.9,1.85,3.38,3.38,0,0,1-2.8-1.31,4.9,4.9,0,0,1-.91-3.06,4.84,4.84,0,0,1,.91-3,3.23,3.23,0,0,1,2.75-1.33,3,3,0,0,1,2.9,2Zm-4.9,5a4.06,4.06,0,0,0-.68,2.48,4.2,4.2,0,0,0,.67,2.5,2.5,2.5,0,0,0,2.16,1.06,2.46,2.46,0,0,0,2.09-1,4,4,0,0,0,.69-2.4V92a4,4,0,0,0-.73-2.48,2.41,2.41,0,0,0-2-1A2.55,2.55,0,0,0,213.05,89.61Z"/><path class="cls-1" d="M220.93,88h1v5a3,3,0,0,0,.54,1.94,2.22,2.22,0,0,0,1.78.67,2.33,2.33,0,0,0,1.68-.74,2.89,2.89,0,0,0,.81-1.9V88h1v8.27h-1V94.85A3,3,0,0,1,224,96.46c-2,0-3-1.13-3-3.39Z"/><path class="cls-1" d="M235.58,88.46a3.15,3.15,0,0,1,1.14,2.21h-1a2.41,2.41,0,0,0-.83-1.57,2.79,2.79,0,0,0-1.76-.53,2.47,2.47,0,0,0-2.08,1,4,4,0,0,0-.76,2.58,4.15,4.15,0,0,0,.72,2.53,2.5,2.5,0,0,0,2.1.94,2.44,2.44,0,0,0,2.66-2.35h.94a3.76,3.76,0,0,1-1.18,2.38,3.6,3.6,0,0,1-2.42.8,3.43,3.43,0,0,1-2.85-1.25,4.6,4.6,0,0,1-.94-3,4.82,4.82,0,0,1,1-3.11,3.42,3.42,0,0,1,2.84-1.31A3.82,3.82,0,0,1,235.58,88.46Z"/><path class="cls-1" d="M240.29,85.29V88h2.16v.83h-2.16v5.6a1.24,1.24,0,0,0,.19.78.92.92,0,0,0,.72.23h1v.83h-1.17a1.72,1.72,0,0,1-1.38-.5,2,2,0,0,1-.36-1.34V88.8h-1.76V88h1.76V85.69Z"/><path class="cls-1" d="M255.47,84.59h1V96.24h-.91V94.61a3,3,0,0,1-2.9,1.85,3.37,3.37,0,0,1-2.8-1.31,4.9,4.9,0,0,1-.91-3.06,4.84,4.84,0,0,1,.91-3,3.23,3.23,0,0,1,2.75-1.33,3,3,0,0,1,2.9,2Zm-4.9,5a4.06,4.06,0,0,0-.68,2.48,4.2,4.2,0,0,0,.67,2.5,2.5,2.5,0,0,0,2.16,1.06,2.46,2.46,0,0,0,2.09-1,4,4,0,0,0,.69-2.4V92a4,4,0,0,0-.73-2.48,2.42,2.42,0,0,0-2-1A2.55,2.55,0,0,0,250.57,89.61Z"/><path class="cls-1" d="M264.73,89.07a5.71,5.71,0,0,1,.95,3.31H259a3.89,3.89,0,0,0,.81,2.39,2.64,2.64,0,0,0,2.05.86,2.81,2.81,0,0,0,1.83-.59,3.21,3.21,0,0,0,.88-1.46h1a3.88,3.88,0,0,1-1.1,2,3.68,3.68,0,0,1-2.58.91A3.51,3.51,0,0,1,259,95.28,4.54,4.54,0,0,1,258,92.09a4.62,4.62,0,0,1,1-3,3.79,3.79,0,0,1,5.74,0Zm-4.89.35A3.7,3.7,0,0,0,259,91.6h5.7c-.16-2-1.11-3-2.86-3A2.5,2.5,0,0,0,259.84,89.42Z"/><path class="cls-1" d="M273.33,90.29h-.95a1.91,1.91,0,0,0-.69-1.27,2.63,2.63,0,0,0-1.68-.45,2.7,2.7,0,0,0-1.48.37,1.15,1.15,0,0,0-.58,1,1.14,1.14,0,0,0,.74,1,11.74,11.74,0,0,0,1.74.58,8.11,8.11,0,0,1,2.15.77,1.86,1.86,0,0,1,1,1.66c0,1.67-1.12,2.51-3.36,2.51s-3.28-.94-3.47-2.83h.94a2.23,2.23,0,0,0,.77,1.57,2.83,2.83,0,0,0,1.72.43c1.6,0,2.41-.54,2.41-1.63a1.25,1.25,0,0,0-.82-1.15,10.35,10.35,0,0,0-1.84-.58,8.09,8.09,0,0,1-2-.74A1.74,1.74,0,0,1,267,90a1.89,1.89,0,0,1,.89-1.62,3.79,3.79,0,0,1,2.18-.59Q273,87.74,273.33,90.29Z"/><path class="cls-1" d="M276.64,85.23a.67.67,0,0,1,.24.56.83.83,0,0,1-.26.58.88.88,0,0,1-.56.22.81.81,0,0,1-.57-.22.8.8,0,0,1-.24-.58.67.67,0,0,1,.24-.56.75.75,0,0,1,.57-.24A.78.78,0,0,1,276.64,85.23ZM275.58,88h1v8.27h-1Z"/><path class="cls-1" d="M285.41,89.63V88h1v7.66q0,4-3.72,4a4,4,0,0,1-2.51-.7,3.06,3.06,0,0,1-1.06-2h1a2.14,2.14,0,0,0,.76,1.38,2.9,2.9,0,0,0,1.84.51q2.76,0,2.76-3.09V94.16a3.08,3.08,0,0,1-3,1.89,3.44,3.44,0,0,1-2.77-1.24,4.89,4.89,0,0,1,0-5.82,3.42,3.42,0,0,1,2.77-1.25A3.08,3.08,0,0,1,285.41,89.63Zm-5-.08a3.59,3.59,0,0,0-.74,2.35,3.69,3.69,0,0,0,.69,2.31,2.53,2.53,0,0,0,2.16,1,2.61,2.61,0,0,0,2.15-1,4.2,4.2,0,0,0,0-4.7,2.79,2.79,0,0,0-4.26,0Z"/><path class="cls-1" d="M295.1,91.15v5.09h-1v-5c0-1.76-.78-2.64-2.35-2.64a2.17,2.17,0,0,0-1.66.72,3,3,0,0,0-.79,2v5h-1V88h1v1.36a3.31,3.31,0,0,1,1.12-1.17,2.9,2.9,0,0,1,1.57-.42Q295.11,87.74,295.1,91.15Z"/><path class="cls-1" d="M299.1,96a2.93,2.93,0,0,1-1.6,2.76l-.35-.56a2.49,2.49,0,0,0,1.23-2l-.24,0a.87.87,0,0,1-.59-.21.75.75,0,0,1-.22-.58.73.73,0,0,1,.8-.81C298.78,94.64,299.1,95.08,299.1,96Z"/><path class="cls-1" d="M311.41,84.81v.85H310a1.15,1.15,0,0,0-.91.32,1.49,1.49,0,0,0-.29,1v1h2.48v.83h-2.48v7.44h-1V88.8h-2.2V88h2.2V87a2.15,2.15,0,0,1,.52-1.58,2,2,0,0,1,1.56-.6Z"/><path class="cls-1" d="M318.57,88.69a3.18,3.18,0,0,1,.74,2.22v5.33h-.91V94.65a4.37,4.37,0,0,1-1.35,1.24,4.2,4.2,0,0,1-2.16.57,3,3,0,0,1-2-.62,2.12,2.12,0,0,1-.76-1.71,2.46,2.46,0,0,1,1.3-2.31,5.61,5.61,0,0,1,2.77-.59l2.11,0v-.3a2.1,2.1,0,0,0-2.4-2.35,2.84,2.84,0,0,0-1.73.46,2,2,0,0,0-.85,1.44h-.94a2.9,2.9,0,0,1,1.17-2.08,4,4,0,0,1,2.4-.64A3.24,3.24,0,0,1,318.57,88.69ZM318.35,92h-2.06c-2.1,0-3.14.71-3.14,2.1a1.39,1.39,0,0,0,.53,1.12,2.09,2.09,0,0,0,1.4.43,3.47,3.47,0,0,0,2.31-.86,2.46,2.46,0,0,0,1-1.84Z"/><path class="cls-1" d="M327.28,89.44a3.21,3.21,0,0,1,1.1-1.27,2.66,2.66,0,0,1,1.51-.43,2.72,2.72,0,0,1,2.08.82,3.25,3.25,0,0,1,.75,2.27v5.41h-1V91a2.7,2.7,0,0,0-.48-1.76,2,2,0,0,0-1.65-.63,1.91,1.91,0,0,0-1.51.69,2.44,2.44,0,0,0-.6,1.71v5.27h-1V91c0-1.59-.69-2.39-2.06-2.39a1.91,1.91,0,0,0-1.56.76,2.69,2.69,0,0,0-.64,1.82v5.09h-.95V88h.95v1.24a2.7,2.7,0,0,1,2.4-1.47A2.5,2.5,0,0,1,327.28,89.44Z"/><path class="cls-1" d="M336.27,85.23a.67.67,0,0,1,.24.56.83.83,0,0,1-.26.58.86.86,0,0,1-.56.22.81.81,0,0,1-.57-.22.8.8,0,0,1-.24-.58.67.67,0,0,1,.24-.56.75.75,0,0,1,.57-.24A.78.78,0,0,1,336.27,85.23ZM335.21,88h1v8.27h-1Z"/><path class="cls-1" d="M339,84.59h1V96.24h-1Z"/><path class="cls-1" d="M343.79,85.23a.67.67,0,0,1,.24.56.83.83,0,0,1-.26.58.86.86,0,0,1-.56.22.81.81,0,0,1-.57-.22.8.8,0,0,1-.24-.58.67.67,0,0,1,.24-.56.75.75,0,0,1,.57-.24A.78.78,0,0,1,343.79,85.23ZM342.73,88h1v8.27h-1Z"/><path class="cls-1" d="M352.27,88.69a3.18,3.18,0,0,1,.73,2.22v5.33h-.91V94.65a4.44,4.44,0,0,1-1.34,1.24,4.2,4.2,0,0,1-2.16.57,3,3,0,0,1-2-.62,2.14,2.14,0,0,1-.75-1.71,2.44,2.44,0,0,1,1.3-2.31,5.6,5.6,0,0,1,2.76-.59l2.12,0v-.3a2.1,2.1,0,0,0-2.4-2.35,2.82,2.82,0,0,0-1.73.46,2,2,0,0,0-.85,1.44h-.94a2.86,2.86,0,0,1,1.16-2.08,4,4,0,0,1,2.4-.64A3.27,3.27,0,0,1,352.27,88.69ZM352.05,92H350c-2.09,0-3.14.71-3.14,2.1a1.39,1.39,0,0,0,.53,1.12,2.1,2.1,0,0,0,1.41.43,3.44,3.44,0,0,0,2.3-.86,2.44,2.44,0,0,0,1-1.84Z"/><path class="cls-1" d="M359.69,87.92v1a4.62,4.62,0,0,0-1.26-.17,2,2,0,0,0-1.79,1,3.55,3.55,0,0,0-.66,2.16v4.37h-1V88h1v1.58a3.05,3.05,0,0,1,.91-1.23,2.35,2.35,0,0,1,1.6-.58A3.22,3.22,0,0,1,359.69,87.92Z"/><path class="cls-1" d="M365.18,88h1.07l2.24,7,2.08-7h.93l2.08,7,2.26-7h1.05l-2.83,8.27h-.93l-2.08-7-2.11,7H368Z"/><path class="cls-1" d="M379.52,85.23a.67.67,0,0,1,.24.56.83.83,0,0,1-.26.58.88.88,0,0,1-.56.22.83.83,0,0,1-.58-.22.8.8,0,0,1-.24-.58.67.67,0,0,1,.24-.56.77.77,0,0,1,.58-.24A.78.78,0,0,1,379.52,85.23ZM378.46,88h1v8.27h-1Z"/><path class="cls-1" d="M383.92,85.29V88h2.16v.83h-2.16v5.6a1.24,1.24,0,0,0,.19.78.92.92,0,0,0,.72.23h1v.83H384.7a1.72,1.72,0,0,1-1.38-.5A2,2,0,0,1,383,94.4V88.8H381.2V88H383V85.69Z"/><path class="cls-1" d="M387.53,84.59h1v4.88a3.18,3.18,0,0,1,1.15-1.3,3,3,0,0,1,1.57-.43,2.92,2.92,0,0,1,2.21.83,3.37,3.37,0,0,1,.8,2.39v5.28h-1V91.09a2.78,2.78,0,0,0-.61-1.88,2.32,2.32,0,0,0-1.71-.64,2.22,2.22,0,0,0-1.75.84,3,3,0,0,0-.7,2v4.79h-1Z"/><path class="cls-1" d="M15.36,109.29V112h2.16v.83H15.36v5.6a1.24,1.24,0,0,0,.2.78.89.89,0,0,0,.71.23h1.05v.83H16.15a1.72,1.72,0,0,1-1.38-.5,2,2,0,0,1-.37-1.34v-5.6H12.64V112H14.4v-2.28Z"/><path class="cls-1" d="M19,108.59h1v4.88a3.2,3.2,0,0,1,1.16-1.3,3,3,0,0,1,1.56-.43,2.9,2.9,0,0,1,2.21.83,3.32,3.32,0,0,1,.8,2.39v5.28h-1v-5.15a2.73,2.73,0,0,0-.61-1.88,2.29,2.29,0,0,0-1.71-.64,2.21,2.21,0,0,0-1.74.84,3,3,0,0,0-.71,2v4.79H19Z"/><path class="cls-1" d="M34,113.07a5.78,5.78,0,0,1,.94,3.31H28.21a3.89,3.89,0,0,0,.82,2.39,2.61,2.61,0,0,0,2,.86A2.8,2.8,0,0,0,32.9,119a3.12,3.12,0,0,0,.88-1.46h1a3.88,3.88,0,0,1-1.1,2,3.67,3.67,0,0,1-2.57.91,3.51,3.51,0,0,1-2.79-1.18,5.18,5.18,0,0,1-.05-6.24,3.43,3.43,0,0,1,2.8-1.3A3.42,3.42,0,0,1,34,113.07Zm-4.9.35a3.63,3.63,0,0,0-.86,2.18h5.69c-.16-2-1.11-3-2.86-3A2.5,2.5,0,0,0,29.09,113.42Z"/><path class="cls-1" d="M42.1,108.59h1v11.65h-1Z"/><path class="cls-1" d="M51.92,113.05a5.11,5.11,0,0,1,0,6.1,3.92,3.92,0,0,1-5.85,0,4.66,4.66,0,0,1-1-3,4.6,4.6,0,0,1,1-3.06A3.59,3.59,0,0,1,49,111.74,3.63,3.63,0,0,1,51.92,113.05Zm-5.15.61a3.88,3.88,0,0,0-.74,2.45,3.84,3.84,0,0,0,.74,2.43,2.84,2.84,0,0,0,4.47,0,4,4,0,0,0,.73-2.43,4,4,0,0,0-.73-2.45A2.66,2.66,0,0,0,49,112.57,2.63,2.63,0,0,0,46.77,113.66Z"/><path class="cls-1" d="M61,113.63V112h1v7.66c0,2.67-1.23,4-3.71,4a4,4,0,0,1-2.51-.7,3.06,3.06,0,0,1-1.06-2h1a2.19,2.19,0,0,0,.77,1.38,2.9,2.9,0,0,0,1.84.51q2.76,0,2.76-3.09v-1.58a3.08,3.08,0,0,1-3,1.89,3.43,3.43,0,0,1-2.76-1.24,4.89,4.89,0,0,1,0-5.82A3.41,3.41,0,0,1,58,111.74,3.08,3.08,0,0,1,61,113.63Zm-5-.08a3.59,3.59,0,0,0-.74,2.35,3.69,3.69,0,0,0,.69,2.31,2.53,2.53,0,0,0,2.16,1,2.58,2.58,0,0,0,2.14-1,4.15,4.15,0,0,0,0-4.7,2.78,2.78,0,0,0-4.25,0Z"/><path class="cls-1" d="M65.51,109.23a.67.67,0,0,1,.24.56.83.83,0,0,1-.26.58.88.88,0,0,1-.56.22.83.83,0,0,1-.58-.22.8.8,0,0,1-.24-.58.67.67,0,0,1,.24-.56.77.77,0,0,1,.58-.24A.78.78,0,0,1,65.51,109.23ZM64.45,112h1v8.27h-1Z"/><path class="cls-1" d="M73.81,112.46A3.15,3.15,0,0,1,75,114.67H74a2.38,2.38,0,0,0-.84-1.57,2.75,2.75,0,0,0-1.76-.53,2.5,2.5,0,0,0-2.08,1,4,4,0,0,0-.75,2.58,4.09,4.09,0,0,0,.72,2.53,2.5,2.5,0,0,0,2.1.94A2.43,2.43,0,0,0,74,117.28h1a3.77,3.77,0,0,1-1.19,2.38,3.58,3.58,0,0,1-2.41.8,3.43,3.43,0,0,1-2.85-1.25,4.6,4.6,0,0,1-.94-3,4.82,4.82,0,0,1,1-3.11,3.42,3.42,0,0,1,2.83-1.31A3.83,3.83,0,0,1,73.81,112.46Z"/><path class="cls-1" d="M88.39,113.05a5.15,5.15,0,0,1,0,6.1,3.93,3.93,0,0,1-5.86,0,4.66,4.66,0,0,1-1-3,4.55,4.55,0,0,1,1-3.06,3.56,3.56,0,0,1,2.91-1.31A3.67,3.67,0,0,1,88.39,113.05Zm-5.16.61a3.88,3.88,0,0,0-.73,2.45,3.84,3.84,0,0,0,.73,2.43,2.84,2.84,0,0,0,4.47,0,4,4,0,0,0,.73-2.43,4,4,0,0,0-.73-2.45,2.84,2.84,0,0,0-4.47,0Z"/><path class="cls-1" d="M95.92,108.81v.85H94.53a1.14,1.14,0,0,0-.91.32,1.44,1.44,0,0,0-.29,1v1h2.48v.83H93.33v7.44h-1V112.8H90.16V112h2.21v-1a2.19,2.19,0,0,1,.51-1.58,2,2,0,0,1,1.57-.6Z"/><path class="cls-1" d="M108.29,113.44a3.29,3.29,0,0,1,1.1-1.27,2.66,2.66,0,0,1,1.51-.43,2.7,2.7,0,0,1,2.08.82,3.25,3.25,0,0,1,.75,2.27v5.41h-1V115a2.7,2.7,0,0,0-.48-1.76,2,2,0,0,0-1.65-.63,1.88,1.88,0,0,0-1.5.69,2.4,2.4,0,0,0-.61,1.71v5.27h-1V115c0-1.59-.68-2.39-2.06-2.39a1.88,1.88,0,0,0-1.55.76,2.65,2.65,0,0,0-.64,1.82v5.09h-1V112h1v1.24a2.67,2.67,0,0,1,2.4-1.47A2.5,2.5,0,0,1,108.29,113.44Z"/><path class="cls-1" d="M115.75,112h1v5a3,3,0,0,0,.54,1.94,2.21,2.21,0,0,0,1.78.67,2.32,2.32,0,0,0,1.68-.74,2.89,2.89,0,0,0,.81-1.9v-5h1v8.27h-1v-1.39a3,3,0,0,1-2.75,1.61c-2,0-3-1.13-3-3.39Z"/><path class="cls-1" d="M124.8,108.59h1v11.65h-1Z"/><path class="cls-1" d="M130.08,109.29V112h2.16v.83h-2.16v5.6a1.31,1.31,0,0,0,.19.78.92.92,0,0,0,.72.23h1v.83h-1.16a1.72,1.72,0,0,1-1.38-.5,2,2,0,0,1-.37-1.34v-5.6h-1.76V112h1.76v-2.28Z"/><path class="cls-1" d="M135.23,109.23a.67.67,0,0,1,.24.56.82.82,0,0,1-.25.58.88.88,0,0,1-.56.22.82.82,0,0,1-.58-.22.8.8,0,0,1-.24-.58.67.67,0,0,1,.24-.56.75.75,0,0,1,.58-.24A.78.78,0,0,1,135.23,109.23Zm-1,2.74h1v8.27h-1Z"/><path class="cls-1" d="M144.24,113.07a4.9,4.9,0,0,1,.91,3.06,5,5,0,0,1-.89,3,3.35,3.35,0,0,1-2.77,1.31,3,3,0,0,1-2.9-1.95v4.9h-1V112h.91v1.63a3,3,0,0,1,2.92-1.86A3.31,3.31,0,0,1,144.24,113.07Zm-5,.54a4,4,0,0,0-.69,2.45v.18a3.88,3.88,0,0,0,.74,2.45,2.42,2.42,0,0,0,2,1,2.6,2.6,0,0,0,2.18-1,4.19,4.19,0,0,0,.67-2.49,4.28,4.28,0,0,0-.66-2.5,2.51,2.51,0,0,0-2.16-1.07A2.43,2.43,0,0,0,139.25,113.61Z"/><path class="cls-1" d="M147.15,108.59h1v11.65h-1Z"/><path class="cls-1" d="M156.72,113.07a5.78,5.78,0,0,1,.95,3.31h-6.73a4,4,0,0,0,.82,2.39,2.63,2.63,0,0,0,2.05.86,2.78,2.78,0,0,0,1.82-.59,3,3,0,0,0,.88-1.46h1a3.88,3.88,0,0,1-1.1,2,3.72,3.72,0,0,1-2.58.91,3.54,3.54,0,0,1-2.79-1.18,5.16,5.16,0,0,1,0-6.24,3.79,3.79,0,0,1,5.74,0Zm-4.89.35a3.64,3.64,0,0,0-.87,2.18h5.7c-.16-2-1.12-3-2.87-3A2.48,2.48,0,0,0,151.83,113.42Z"/><path class="cls-1" d="M171.14,113.07a5.56,5.56,0,0,1,0,6.08,3.32,3.32,0,0,1-2.76,1.31,3,3,0,0,1-2.9-1.95v4.9h-1V112h.91v1.63a3,3,0,0,1,2.91-1.86A3.33,3.33,0,0,1,171.14,113.07Zm-5,.54a4,4,0,0,0-.69,2.45v.18a3.88,3.88,0,0,0,.73,2.45,2.44,2.44,0,0,0,2,1,2.61,2.61,0,0,0,2.18-1,5,5,0,0,0,0-5,2.51,2.51,0,0,0-2.16-1.07A2.42,2.42,0,0,0,166.15,113.61Z"/><path class="cls-1" d="M178.42,111.92v1a4.75,4.75,0,0,0-1.27-.17,2,2,0,0,0-1.79,1,3.55,3.55,0,0,0-.66,2.16v4.37h-1V112h1v1.58a3.07,3.07,0,0,1,.92-1.23,2.34,2.34,0,0,1,1.6-.58A3.22,3.22,0,0,1,178.42,111.92Z"/><path class="cls-1" d="M186.05,113.05a5.11,5.11,0,0,1,0,6.1,3.93,3.93,0,0,1-5.86,0,4.66,4.66,0,0,1-1-3,4.55,4.55,0,0,1,1-3.06,3.56,3.56,0,0,1,2.91-1.31A3.67,3.67,0,0,1,186.05,113.05Zm-5.15.61a3.88,3.88,0,0,0-.74,2.45,3.84,3.84,0,0,0,.74,2.43,2.83,2.83,0,0,0,4.46,0,4,4,0,0,0,.73-2.43,4,4,0,0,0-.73-2.45,2.83,2.83,0,0,0-4.46,0Z"/><path class="cls-1" d="M189.47,112h1v9.34a1.88,1.88,0,0,1-2.16,2.1h-.77v-.84h.71a1.13,1.13,0,0,0,1.26-1.29Zm1.07-2.74a.69.69,0,0,1,.23.56.89.89,0,0,1-.23.58.92.92,0,0,1-.59.22.89.89,0,0,1-.57-.22.8.8,0,0,1-.24-.58.67.67,0,0,1,.24-.56A.78.78,0,0,1,190,109,.79.79,0,0,1,190.54,109.23Z"/><path class="cls-1" d="M199.22,113.07a5.78,5.78,0,0,1,.94,3.31h-6.72a3.89,3.89,0,0,0,.81,2.39,2.64,2.64,0,0,0,2.05.86,2.81,2.81,0,0,0,1.83-.59,3.21,3.21,0,0,0,.88-1.46h1a3.88,3.88,0,0,1-1.1,2,3.68,3.68,0,0,1-2.58.91,3.51,3.51,0,0,1-2.78-1.18,4.54,4.54,0,0,1-1.07-3.19,4.62,4.62,0,0,1,1-3,3.8,3.8,0,0,1,5.75,0Zm-4.9.35a3.63,3.63,0,0,0-.86,2.18h5.69c-.16-2-1.11-3-2.86-3A2.5,2.5,0,0,0,194.32,113.42Z"/><path class="cls-1" d="M207.6,112.46a3.15,3.15,0,0,1,1.14,2.21h-1a2.33,2.33,0,0,0-.83-1.57,2.75,2.75,0,0,0-1.76-.53,2.49,2.49,0,0,0-2.08,1,4,4,0,0,0-.75,2.58,4.09,4.09,0,0,0,.72,2.53,2.5,2.5,0,0,0,2.1.94,2.43,2.43,0,0,0,2.65-2.35h1a3.77,3.77,0,0,1-1.19,2.38,3.58,3.58,0,0,1-2.41.8,3.43,3.43,0,0,1-2.85-1.25,4.6,4.6,0,0,1-.94-3,4.82,4.82,0,0,1,1-3.11,3.4,3.4,0,0,1,2.83-1.31A3.85,3.85,0,0,1,207.6,112.46Z"/><path class="cls-1" d="M212.3,109.29V112h2.16v.83H212.3v5.6a1.24,1.24,0,0,0,.2.78.9.9,0,0,0,.72.23h1v.83h-1.16a1.72,1.72,0,0,1-1.38-.5,2,2,0,0,1-.37-1.34v-5.6h-1.76V112h1.76v-2.28Z"/><path class="cls-1" d="M227.86,113.07a5.56,5.56,0,0,1,0,6.08,3.33,3.33,0,0,1-2.77,1.31,3,3,0,0,1-2.89-1.95v4.9h-1V112h.91v1.63a3,3,0,0,1,2.91-1.86A3.33,3.33,0,0,1,227.86,113.07Zm-5,.54a4.09,4.09,0,0,0-.69,2.45v.18a3.88,3.88,0,0,0,.74,2.45,2.43,2.43,0,0,0,2,1,2.58,2.58,0,0,0,2.17-1,4.19,4.19,0,0,0,.68-2.49,4.28,4.28,0,0,0-.66-2.5,2.51,2.51,0,0,0-2.16-1.07A2.43,2.43,0,0,0,222.86,113.61Z"/><path class="cls-1" d="M235.13,111.92v1a4.62,4.62,0,0,0-1.26-.17,2,2,0,0,0-1.79,1,3.55,3.55,0,0,0-.66,2.16v4.37h-1V112h1v1.58a3.15,3.15,0,0,1,.91-1.23,2.37,2.37,0,0,1,1.6-.58A3.15,3.15,0,0,1,235.13,111.92Z"/><path class="cls-1" d="M242.77,113.05a5.15,5.15,0,0,1,0,6.1,3.93,3.93,0,0,1-5.86,0,4.66,4.66,0,0,1-1-3,4.55,4.55,0,0,1,1-3.06,3.56,3.56,0,0,1,2.91-1.31A3.67,3.67,0,0,1,242.77,113.05Zm-5.16.61a3.88,3.88,0,0,0-.73,2.45,3.84,3.84,0,0,0,.73,2.43,2.84,2.84,0,0,0,4.47,0,4,4,0,0,0,.73-2.43,4,4,0,0,0-.73-2.45,2.84,2.84,0,0,0-4.47,0Z"/><path class="cls-1" d="M251.71,108.59h1v11.65h-.91v-1.63a3,3,0,0,1-2.9,1.85,3.38,3.38,0,0,1-2.8-1.31,4.9,4.9,0,0,1-.91-3.06,4.84,4.84,0,0,1,.91-3,3.23,3.23,0,0,1,2.75-1.33,3,3,0,0,1,2.9,2Zm-4.9,5a4.06,4.06,0,0,0-.68,2.48,4.2,4.2,0,0,0,.67,2.5,2.5,2.5,0,0,0,2.16,1.06,2.46,2.46,0,0,0,2.09-1,4,4,0,0,0,.69-2.4V116a4,4,0,0,0-.73-2.48,2.42,2.42,0,0,0-2-1A2.55,2.55,0,0,0,246.81,113.61Z"/><path class="cls-1" d="M254.69,112h1v5a3,3,0,0,0,.54,1.94,2.22,2.22,0,0,0,1.78.67,2.33,2.33,0,0,0,1.68-.74,2.89,2.89,0,0,0,.81-1.9v-5h1v8.27h-1v-1.39a3,3,0,0,1-2.75,1.61c-2,0-3-1.13-3-3.39Z"/><path class="cls-1" d="M269.34,112.46a3.15,3.15,0,0,1,1.14,2.21h-1a2.41,2.41,0,0,0-.83-1.57,2.79,2.79,0,0,0-1.76-.53,2.47,2.47,0,0,0-2.08,1,4,4,0,0,0-.76,2.58,4.09,4.09,0,0,0,.72,2.53,2.5,2.5,0,0,0,2.1.94,2.44,2.44,0,0,0,2.66-2.35h.94a3.76,3.76,0,0,1-1.18,2.38,3.6,3.6,0,0,1-2.42.8,3.43,3.43,0,0,1-2.85-1.25,4.6,4.6,0,0,1-.94-3,4.82,4.82,0,0,1,1-3.11,3.42,3.42,0,0,1,2.84-1.31A3.82,3.82,0,0,1,269.34,112.46Z"/><path class="cls-1" d="M274.05,109.29V112h2.16v.83h-2.16v5.6a1.24,1.24,0,0,0,.19.78.92.92,0,0,0,.72.23h1v.83h-1.17a1.72,1.72,0,0,1-1.38-.5,2,2,0,0,1-.36-1.34v-5.6h-1.76V112h1.76v-2.28Z"/><path class="cls-1" d="M283.77,114.29h-.94a2,2,0,0,0-.69-1.27,2.63,2.63,0,0,0-1.68-.45,2.74,2.74,0,0,0-1.49.37,1.16,1.16,0,0,0-.57,1,1.13,1.13,0,0,0,.73,1,12,12,0,0,0,1.75.58,7.88,7.88,0,0,1,2.14.77,1.86,1.86,0,0,1,1,1.66c0,1.67-1.12,2.51-3.36,2.51s-3.28-.94-3.47-2.83h.95a2.26,2.26,0,0,0,.76,1.57,2.87,2.87,0,0,0,1.73.43c1.6,0,2.4-.54,2.4-1.63a1.24,1.24,0,0,0-.81-1.15,10.65,10.65,0,0,0-1.84-.58,7.94,7.94,0,0,1-2-.74,1.74,1.74,0,0,1-.94-1.58,1.87,1.87,0,0,1,.89-1.62,3.77,3.77,0,0,1,2.18-.59C282.44,111.74,283.54,112.59,283.77,114.29Z"/><path class="cls-1" d="M297,112.69a3.18,3.18,0,0,1,.73,2.22v5.33h-.91v-1.59a4.44,4.44,0,0,1-1.34,1.24,4.2,4.2,0,0,1-2.16.57,3,3,0,0,1-2-.62,2.14,2.14,0,0,1-.75-1.71,2.45,2.45,0,0,1,1.29-2.31,5.67,5.67,0,0,1,2.77-.59l2.12,0v-.3a2.11,2.11,0,0,0-2.41-2.35,2.81,2.81,0,0,0-1.72.46,2,2,0,0,0-.85,1.44h-.94a2.86,2.86,0,0,1,1.16-2.08,4,4,0,0,1,2.4-.64A3.27,3.27,0,0,1,297,112.69Zm-.22,3.31h-2.07c-2.09,0-3.14.71-3.14,2.1a1.39,1.39,0,0,0,.53,1.12,2.1,2.1,0,0,0,1.41.43,3.46,3.46,0,0,0,2.3-.86,2.44,2.44,0,0,0,1-1.84Z"/><path class="cls-1" d="M301.71,109.29V112h2.16v.83h-2.16v5.6a1.24,1.24,0,0,0,.19.78.92.92,0,0,0,.72.23h1v.83h-1.17a1.7,1.7,0,0,1-1.37-.5,2,2,0,0,1-.37-1.34v-5.6H299V112h1.76v-2.28Z"/><path class="cls-1" d="M312.65,109.29V112h2.16v.83h-2.16v5.6a1.24,1.24,0,0,0,.2.78.9.9,0,0,0,.72.23h1v.83h-1.17a1.72,1.72,0,0,1-1.38-.5,2,2,0,0,1-.37-1.34v-5.6h-1.76V112h1.76v-2.28Z"/><path class="cls-1" d="M316.27,108.59h1v4.88a3.11,3.11,0,0,1,1.15-1.3,3,3,0,0,1,1.57-.43,2.88,2.88,0,0,1,2.2.83A3.32,3.32,0,0,1,323,115v5.28h-1v-5.15a2.77,2.77,0,0,0-.6-1.88,2.32,2.32,0,0,0-1.72-.64,2.21,2.21,0,0,0-1.74.84,3,3,0,0,0-.7,2v4.79h-1Z"/><path class="cls-1" d="M331.28,113.07a5.78,5.78,0,0,1,.94,3.31H325.5a4,4,0,0,0,.82,2.39,2.61,2.61,0,0,0,2.05.86,2.8,2.8,0,0,0,1.82-.59,3.12,3.12,0,0,0,.88-1.46h1a3.89,3.89,0,0,1-1.11,2,3.67,3.67,0,0,1-2.57.91,3.51,3.51,0,0,1-2.79-1.18,5.18,5.18,0,0,1-.05-6.24,3.8,3.8,0,0,1,5.75,0Zm-4.9.35a3.63,3.63,0,0,0-.86,2.18h5.69c-.16-2-1.11-3-2.86-3A2.5,2.5,0,0,0,326.38,113.42Z"/><path class="cls-1" d="M339.08,108.59h1v5.12a3,3,0,0,1,2.89-2,3.23,3.23,0,0,1,2.75,1.33,4.85,4.85,0,0,1,.92,3,4.91,4.91,0,0,1-.92,3.06,3.35,3.35,0,0,1-2.78,1.31,3,3,0,0,1-2.91-1.85v1.63h-.92Zm1.67,5A3.93,3.93,0,0,0,340,116v.19a3.92,3.92,0,0,0,.69,2.4,2.44,2.44,0,0,0,2.1,1,2.52,2.52,0,0,0,2.16-1.06,4.2,4.2,0,0,0,.67-2.5,4.07,4.07,0,0,0-.69-2.48,2.53,2.53,0,0,0-2.17-1A2.37,2.37,0,0,0,340.75,113.55Z"/><path class="cls-1" d="M354.84,113.05a5.11,5.11,0,0,1,0,6.1,3.92,3.92,0,0,1-5.85,0,4.66,4.66,0,0,1-1-3,4.6,4.6,0,0,1,1-3.06,3.59,3.59,0,0,1,2.92-1.31A3.63,3.63,0,0,1,354.84,113.05Zm-5.15.61a3.88,3.88,0,0,0-.73,2.45,3.84,3.84,0,0,0,.73,2.43,2.84,2.84,0,0,0,4.47,0,4,4,0,0,0,.73-2.43,4,4,0,0,0-.73-2.45,2.84,2.84,0,0,0-4.47,0Z"/><path class="cls-1" d="M359.55,109.29V112h2.16v.83h-2.16v5.6a1.24,1.24,0,0,0,.19.78.92.92,0,0,0,.72.23h1v.83h-1.17a1.68,1.68,0,0,1-1.37-.5,2,2,0,0,1-.37-1.34v-5.6h-1.76V112h1.76v-2.28Z"/><path class="cls-1" d="M365.17,109.29V112h2.16v.83h-2.16v5.6a1.24,1.24,0,0,0,.19.78.92.92,0,0,0,.72.23h1v.83H366a1.72,1.72,0,0,1-1.38-.5,2,2,0,0,1-.37-1.34v-5.6h-1.76V112h1.76v-2.28Z"/><path class="cls-1" d="M375.33,113.05a5.15,5.15,0,0,1,0,6.1,3.93,3.93,0,0,1-5.86,0,4.66,4.66,0,0,1-1-3,4.55,4.55,0,0,1,1-3.06,3.56,3.56,0,0,1,2.91-1.31A3.67,3.67,0,0,1,375.33,113.05Zm-5.16.61a3.88,3.88,0,0,0-.73,2.45,3.84,3.84,0,0,0,.73,2.43,2.84,2.84,0,0,0,4.47,0,4,4,0,0,0,.73-2.43,4,4,0,0,0-.73-2.45,2.84,2.84,0,0,0-4.47,0Z"/><path class="cls-1" d="M384,113.44a3.29,3.29,0,0,1,1.1-1.27,2.66,2.66,0,0,1,1.51-.43,2.7,2.7,0,0,1,2.08.82,3.25,3.25,0,0,1,.75,2.27v5.41h-1V115a2.7,2.7,0,0,0-.48-1.76,2,2,0,0,0-1.65-.63,1.89,1.89,0,0,0-1.5.69,2.4,2.4,0,0,0-.61,1.71v5.27h-1V115c0-1.59-.69-2.39-2.07-2.39a1.88,1.88,0,0,0-1.55.76,2.65,2.65,0,0,0-.64,1.82v5.09h-1V112h1v1.24a2.7,2.7,0,0,1,2.4-1.47A2.49,2.49,0,0,1,384,113.44Z"/><path class="cls-1" d="M19.91,137.05a5.11,5.11,0,0,1,0,6.1A3.69,3.69,0,0,1,17,144.46a3.68,3.68,0,0,1-2.93-1.31,4.66,4.66,0,0,1-1-3,4.55,4.55,0,0,1,1-3.06A3.56,3.56,0,0,1,17,135.74,3.67,3.67,0,0,1,19.91,137.05Zm-5.16.61a3.88,3.88,0,0,0-.73,2.45,3.84,3.84,0,0,0,.73,2.43A2.64,2.64,0,0,0,17,143.63a2.64,2.64,0,0,0,2.24-1.09,4,4,0,0,0,.73-2.43,4,4,0,0,0-.73-2.45A2.64,2.64,0,0,0,17,136.57,2.64,2.64,0,0,0,14.75,137.66Z"/><path class="cls-1" d="M27.44,132.81v.85H26.05a1.14,1.14,0,0,0-.91.32,1.49,1.49,0,0,0-.29,1v1h2.48v.83H24.85v7.44h-1V136.8H21.68V136h2.21v-1a2.19,2.19,0,0,1,.51-1.58,2,2,0,0,1,1.57-.6Z"/><path class="cls-1" d="M35.86,133.29V136H38v.83H35.86v5.6a1.24,1.24,0,0,0,.19.78.92.92,0,0,0,.72.23h1v.83H36.64a1.68,1.68,0,0,1-1.37-.5,2,2,0,0,1-.37-1.34v-5.6H33.14V136H34.9v-2.28Z"/><path class="cls-1" d="M39.47,132.59h1v4.88a3.18,3.18,0,0,1,1.15-1.3,3,3,0,0,1,1.57-.43,2.9,2.9,0,0,1,2.21.83,3.37,3.37,0,0,1,.8,2.39v5.28h-1v-5.15a2.78,2.78,0,0,0-.61-1.88,2.32,2.32,0,0,0-1.71-.64,2.2,2.2,0,0,0-1.74.84,2.92,2.92,0,0,0-.71,2v4.79h-1Z"/><path class="cls-1" d="M54.48,137.07a5.78,5.78,0,0,1,1,3.31H48.71a3.89,3.89,0,0,0,.81,2.39,2.63,2.63,0,0,0,2,.86,2.78,2.78,0,0,0,1.82-.59,3,3,0,0,0,.88-1.46h1a3.88,3.88,0,0,1-1.1,2,3.7,3.7,0,0,1-2.58.91,3.51,3.51,0,0,1-2.78-1.18,4.55,4.55,0,0,1-1.08-3.19,4.63,4.63,0,0,1,1-3.05,3.79,3.79,0,0,1,5.74,0Zm-4.89.35a3.64,3.64,0,0,0-.87,2.18h5.7c-.16-2-1.12-3-2.87-3A2.48,2.48,0,0,0,49.59,137.42Z"/><path class="cls-1" d="M62.29,132.59h1v5.12a3,3,0,0,1,2.9-2,3.23,3.23,0,0,1,2.75,1.33,4.9,4.9,0,0,1,.91,3,5,5,0,0,1-.91,3.06,3.35,3.35,0,0,1-2.79,1.31,3,3,0,0,1-2.91-1.85v1.63h-.91Zm1.66,5a3.93,3.93,0,0,0-.73,2.48v.19a3.92,3.92,0,0,0,.69,2.4,2.42,2.42,0,0,0,2.09,1,2.52,2.52,0,0,0,2.16-1.06,4.2,4.2,0,0,0,.67-2.5,4.14,4.14,0,0,0-.68-2.48A2.55,2.55,0,0,0,66,136.56,2.39,2.39,0,0,0,64,137.55Z"/><path class="cls-1" d="M71.81,132.59h1v11.65h-1Z"/><path class="cls-1" d="M81.63,137.05a5.11,5.11,0,0,1,0,6.1,3.92,3.92,0,0,1-5.85,0,4.66,4.66,0,0,1-1-3,4.6,4.6,0,0,1,1-3.06,3.59,3.59,0,0,1,2.92-1.31A3.63,3.63,0,0,1,81.63,137.05Zm-5.15.61a3.88,3.88,0,0,0-.73,2.45,3.84,3.84,0,0,0,.73,2.43,2.84,2.84,0,0,0,4.47,0,4,4,0,0,0,.73-2.43,4,4,0,0,0-.73-2.45,2.84,2.84,0,0,0-4.47,0Z"/><path class="cls-1" d="M90.24,136.46a3.15,3.15,0,0,1,1.14,2.21h-1a2.38,2.38,0,0,0-.84-1.57,2.74,2.74,0,0,0-1.75-.53,2.47,2.47,0,0,0-2.08,1,4,4,0,0,0-.76,2.58,4.09,4.09,0,0,0,.72,2.53,2.5,2.5,0,0,0,2.1.94,2.45,2.45,0,0,0,2.66-2.35h.94a3.81,3.81,0,0,1-1.18,2.38,3.6,3.6,0,0,1-2.42.8A3.43,3.43,0,0,1,85,143.21a4.6,4.6,0,0,1-.94-3.05,4.82,4.82,0,0,1,1-3.11,3.42,3.42,0,0,1,2.84-1.31A3.82,3.82,0,0,1,90.24,136.46Z"/><path class="cls-1" d="M92.94,132.59h1v7.55L98.5,136h1.31l-3.63,3.28,4,5H98.91l-3.42-4.37-1.58,1.44v2.93h-1Z"/><path class="cls-1" d="M107.09,136.46a3.15,3.15,0,0,1,1.14,2.21h-1a2.33,2.33,0,0,0-.83-1.57,2.75,2.75,0,0,0-1.76-.53,2.49,2.49,0,0,0-2.08,1,4,4,0,0,0-.75,2.58,4.09,4.09,0,0,0,.72,2.53,2.5,2.5,0,0,0,2.1.94,2.43,2.43,0,0,0,2.65-2.35h1a3.77,3.77,0,0,1-1.19,2.38,3.58,3.58,0,0,1-2.41.8,3.43,3.43,0,0,1-2.85-1.25,4.6,4.6,0,0,1-.94-3.05,4.82,4.82,0,0,1,1-3.11,3.4,3.4,0,0,1,2.83-1.31A3.83,3.83,0,0,1,107.09,136.46Z"/><path class="cls-1" d="M109.79,132.59h1v4.88a3.18,3.18,0,0,1,1.15-1.3,3,3,0,0,1,1.57-.43,2.92,2.92,0,0,1,2.21.83,3.37,3.37,0,0,1,.8,2.39v5.28h-1v-5.15a2.78,2.78,0,0,0-.61-1.88,2.32,2.32,0,0,0-1.71-.64,2.22,2.22,0,0,0-1.75.84,3,3,0,0,0-.7,2v4.79h-1Z"/><path class="cls-1" d="M124.59,136.69a3.18,3.18,0,0,1,.74,2.22v5.33h-.91v-1.59a4.37,4.37,0,0,1-1.35,1.24,4.2,4.2,0,0,1-2.16.57,3,3,0,0,1-2-.62,2.12,2.12,0,0,1-.76-1.71,2.46,2.46,0,0,1,1.3-2.31,5.61,5.61,0,0,1,2.77-.59l2.11,0v-.3a2.1,2.1,0,0,0-2.4-2.35,2.84,2.84,0,0,0-1.73.46,2,2,0,0,0-.85,1.44h-.94a2.9,2.9,0,0,1,1.17-2.08,4,4,0,0,1,2.4-.64A3.24,3.24,0,0,1,124.59,136.69Zm-.22,3.31h-2.06c-2.1,0-3.14.71-3.14,2.1a1.36,1.36,0,0,0,.53,1.12,2.09,2.09,0,0,0,1.4.43,3.47,3.47,0,0,0,2.31-.86,2.46,2.46,0,0,0,1-1.84Z"/><path class="cls-1" d="M128.88,133.23a.67.67,0,0,1,.24.56.82.82,0,0,1-.25.58.9.9,0,0,1-.56.22.82.82,0,0,1-.58-.22.8.8,0,0,1-.24-.58.67.67,0,0,1,.24-.56.75.75,0,0,1,.58-.24A.78.78,0,0,1,128.88,133.23Zm-1,2.74h1v8.27h-1Z"/><path class="cls-1" d="M138,139.15v5.09h-1v-5c0-1.76-.78-2.64-2.35-2.64a2.2,2.2,0,0,0-1.67.72,3,3,0,0,0-.78,2v5h-1V136h1v1.36a3.31,3.31,0,0,1,1.12-1.17,2.9,2.9,0,0,1,1.57-.42Q138,135.74,138,139.15Z"/><path class="cls-1" d="M142,144a2.93,2.93,0,0,1-1.6,2.76l-.35-.56a2.49,2.49,0,0,0,1.23-1.95l-.24,0a.87.87,0,0,1-.59-.21.75.75,0,0,1-.22-.58.77.77,0,0,1,.2-.59.8.8,0,0,1,.59-.22C141.67,142.64,142,143.08,142,144Z"/><path class="cls-1" d="M155.55,136.69a3.18,3.18,0,0,1,.74,2.22v5.33h-.91v-1.59a4.48,4.48,0,0,1-1.35,1.24,4.2,4.2,0,0,1-2.16.57,3,3,0,0,1-2-.62,2.12,2.12,0,0,1-.76-1.71,2.44,2.44,0,0,1,1.3-2.31,5.61,5.61,0,0,1,2.77-.59l2.11,0v-.3a2.1,2.1,0,0,0-2.4-2.35,2.84,2.84,0,0,0-1.73.46,2,2,0,0,0-.85,1.44h-.94a2.87,2.87,0,0,1,1.17-2.08,4,4,0,0,1,2.4-.64A3.24,3.24,0,0,1,155.55,136.69Zm-.22,3.31h-2.07c-2.09,0-3.13.71-3.13,2.1a1.36,1.36,0,0,0,.53,1.12,2.09,2.09,0,0,0,1.4.43,3.47,3.47,0,0,0,2.31-.86,2.46,2.46,0,0,0,1-1.84Z"/><path class="cls-1" d="M165,139.15v5.09h-1v-5c0-1.76-.78-2.64-2.35-2.64a2.18,2.18,0,0,0-1.66.72,3,3,0,0,0-.79,2v5h-1V136h1v1.36a3.31,3.31,0,0,1,1.12-1.17,2.9,2.9,0,0,1,1.57-.42Q165,135.74,165,139.15Z"/><path class="cls-1" d="M173.28,132.59h1v11.65h-.91v-1.63a3,3,0,0,1-2.9,1.85,3.38,3.38,0,0,1-2.8-1.31,4.9,4.9,0,0,1-.91-3.06,4.84,4.84,0,0,1,.91-3,3.23,3.23,0,0,1,2.75-1.33,3,3,0,0,1,2.9,2Zm-4.9,5a4.06,4.06,0,0,0-.68,2.48,4.2,4.2,0,0,0,.67,2.5,2.5,2.5,0,0,0,2.16,1.06,2.46,2.46,0,0,0,2.09-1,4,4,0,0,0,.69-2.4V140a4,4,0,0,0-.73-2.48,2.41,2.41,0,0,0-2-1A2.55,2.55,0,0,0,168.38,137.61Z"/><path class="cls-1" d="M181.58,132.59h1v4.88a3.18,3.18,0,0,1,1.15-1.3,3,3,0,0,1,1.57-.43,2.9,2.9,0,0,1,2.21.83,3.37,3.37,0,0,1,.8,2.39v5.28h-1v-5.15a2.78,2.78,0,0,0-.61-1.88,2.32,2.32,0,0,0-1.71-.64,2.23,2.23,0,0,0-1.75.84,3,3,0,0,0-.7,2v4.79h-1Z"/><path class="cls-1" d="M196.38,136.69a3.18,3.18,0,0,1,.74,2.22v5.33h-.91v-1.59a4.37,4.37,0,0,1-1.35,1.24,4.2,4.2,0,0,1-2.16.57,3,3,0,0,1-2-.62,2.14,2.14,0,0,1-.75-1.71,2.45,2.45,0,0,1,1.29-2.31,5.64,5.64,0,0,1,2.77-.59l2.11,0v-.3a2.1,2.1,0,0,0-2.4-2.35A2.84,2.84,0,0,0,192,137a2,2,0,0,0-.85,1.44h-.94a2.9,2.9,0,0,1,1.17-2.08,4,4,0,0,1,2.4-.64A3.24,3.24,0,0,1,196.38,136.69Zm-.22,3.31H194.1c-2.1,0-3.14.71-3.14,2.1a1.39,1.39,0,0,0,.53,1.12,2.1,2.1,0,0,0,1.41.43,3.46,3.46,0,0,0,2.3-.86,2.46,2.46,0,0,0,1-1.84Z"/><path class="cls-1" d="M205.25,138.29h-.95a1.94,1.94,0,0,0-.68-1.27,3.28,3.28,0,0,0-3.17-.08,1.15,1.15,0,0,0-.58,1,1.14,1.14,0,0,0,.74,1,11.74,11.74,0,0,0,1.74.58,8.11,8.11,0,0,1,2.15.77,1.86,1.86,0,0,1,1,1.66c0,1.67-1.12,2.51-3.36,2.51s-3.28-.94-3.47-2.83h.94a2.27,2.27,0,0,0,.77,1.57,2.83,2.83,0,0,0,1.72.43c1.61,0,2.41-.54,2.41-1.63a1.25,1.25,0,0,0-.82-1.15,10.35,10.35,0,0,0-1.84-.58,8.09,8.09,0,0,1-2-.74,1.74,1.74,0,0,1-.94-1.58,1.88,1.88,0,0,1,.9-1.62,3.73,3.73,0,0,1,2.17-.59Q204.89,135.74,205.25,138.29Z"/><path class="cls-1" d="M218.25,136.46a3.15,3.15,0,0,1,1.14,2.21h-1a2.33,2.33,0,0,0-.83-1.57,2.77,2.77,0,0,0-1.76-.53,2.47,2.47,0,0,0-2.08,1,4,4,0,0,0-.75,2.58,4.09,4.09,0,0,0,.72,2.53,2.49,2.49,0,0,0,2.09.94,2.44,2.44,0,0,0,2.66-2.35h.94a3.76,3.76,0,0,1-1.18,2.38,3.58,3.58,0,0,1-2.42.8,3.42,3.42,0,0,1-2.84-1.25,4.6,4.6,0,0,1-.95-3.05,4.82,4.82,0,0,1,1-3.11,3.39,3.39,0,0,1,2.83-1.31A3.8,3.8,0,0,1,218.25,136.46Z"/><path class="cls-1" d="M227.5,137.05a5.11,5.11,0,0,1,0,6.1,3.92,3.92,0,0,1-5.85,0,4.66,4.66,0,0,1-1-3,4.6,4.6,0,0,1,1-3.06,3.59,3.59,0,0,1,2.92-1.31A3.63,3.63,0,0,1,227.5,137.05Zm-5.15.61a3.88,3.88,0,0,0-.73,2.45,3.84,3.84,0,0,0,.73,2.43,2.84,2.84,0,0,0,4.47,0,4,4,0,0,0,.73-2.43,4,4,0,0,0-.73-2.45,2.84,2.84,0,0,0-4.47,0Z"/><path class="cls-1" d="M236.93,139.15v5.09h-1v-5c0-1.76-.79-2.64-2.36-2.64a2.18,2.18,0,0,0-1.66.72,2.9,2.9,0,0,0-.78,2v5h-1V136h1v1.36a3.23,3.23,0,0,1,1.12-1.17,2.89,2.89,0,0,1,1.56-.42Q236.93,135.74,236.93,139.15Z"/><path class="cls-1" d="M245.06,138.29h-.95a2,2,0,0,0-.69-1.27,2.63,2.63,0,0,0-1.68-.45,2.74,2.74,0,0,0-1.49.37,1.16,1.16,0,0,0-.57,1,1.12,1.12,0,0,0,.74,1,11.74,11.74,0,0,0,1.74.58,7.88,7.88,0,0,1,2.14.77,1.87,1.87,0,0,1,1,1.66c0,1.67-1.13,2.51-3.37,2.51s-3.27-.94-3.47-2.83h.95a2.26,2.26,0,0,0,.76,1.57,2.89,2.89,0,0,0,1.73.43c1.6,0,2.4-.54,2.4-1.63a1.24,1.24,0,0,0-.81-1.15,10.35,10.35,0,0,0-1.84-.58,7.94,7.94,0,0,1-2-.74,1.74,1.74,0,0,1-.94-1.58,1.89,1.89,0,0,1,.89-1.62,3.77,3.77,0,0,1,2.18-.59Q244.7,135.74,245.06,138.29Z"/><path class="cls-1" d="M248.37,133.23a.67.67,0,0,1,.24.56.83.83,0,0,1-.26.58.88.88,0,0,1-.56.22.77.77,0,0,1-.81-.8.69.69,0,0,1,.23-.56.77.77,0,0,1,.58-.24A.8.8,0,0,1,248.37,133.23ZM247.31,136h1v8.27h-1Z"/><path class="cls-1" d="M257,132.59h1v11.65h-.91v-1.63a3,3,0,0,1-2.9,1.85,3.37,3.37,0,0,1-2.8-1.31,4.9,4.9,0,0,1-.91-3.06,4.84,4.84,0,0,1,.91-3,3.23,3.23,0,0,1,2.75-1.33,3,3,0,0,1,2.9,2Zm-4.9,5a4,4,0,0,0-.69,2.48,4.28,4.28,0,0,0,.67,2.5,2.52,2.52,0,0,0,2.16,1.06,2.46,2.46,0,0,0,2.1-1,4,4,0,0,0,.69-2.4V140a4,4,0,0,0-.74-2.48,2.39,2.39,0,0,0-2-1A2.54,2.54,0,0,0,252.11,137.61Z"/><path class="cls-1" d="M266.27,137.07a5.71,5.71,0,0,1,.94,3.31h-6.72a4,4,0,0,0,.82,2.39,2.61,2.61,0,0,0,2.05.86,2.8,2.8,0,0,0,1.82-.59,3,3,0,0,0,.88-1.46h1a3.82,3.82,0,0,1-1.11,2,3.67,3.67,0,0,1-2.57.91,3.54,3.54,0,0,1-2.79-1.18,5.16,5.16,0,0,1,0-6.24,3.79,3.79,0,0,1,5.74,0Zm-4.9.35a3.63,3.63,0,0,0-.86,2.18h5.7c-.16-2-1.12-3-2.87-3A2.5,2.5,0,0,0,261.37,137.42Z"/><path class="cls-1" d="M273.42,135.92v1a4.62,4.62,0,0,0-1.26-.17,2,2,0,0,0-1.79,1,3.55,3.55,0,0,0-.66,2.16v4.37h-1V136h1v1.58a3.05,3.05,0,0,1,.91-1.23,2.35,2.35,0,0,1,1.6-.58A3.19,3.19,0,0,1,273.42,135.92Z"/><path class="cls-1" d="M280.59,136.69a3.18,3.18,0,0,1,.74,2.22v5.33h-.91v-1.59a4.6,4.6,0,0,1-1.35,1.24,4.2,4.2,0,0,1-2.16.57,3,3,0,0,1-2-.62,2.14,2.14,0,0,1-.75-1.71,2.44,2.44,0,0,1,1.3-2.31,5.6,5.6,0,0,1,2.76-.59l2.12,0v-.3a2.1,2.1,0,0,0-2.4-2.35,2.84,2.84,0,0,0-1.73.46,2,2,0,0,0-.85,1.44h-.94a2.89,2.89,0,0,1,1.16-2.08,4,4,0,0,1,2.4-.64A3.25,3.25,0,0,1,280.59,136.69Zm-.22,3.31H278.3c-2.09,0-3.13.71-3.13,2.1a1.38,1.38,0,0,0,.52,1.12,2.12,2.12,0,0,0,1.41.43,3.47,3.47,0,0,0,2.31-.86,2.46,2.46,0,0,0,1-1.84Z"/><path class="cls-1" d="M283.34,132.59h1v5.12a3,3,0,0,1,2.9-2,3.23,3.23,0,0,1,2.75,1.33,4.84,4.84,0,0,1,.91,3,4.9,4.9,0,0,1-.91,3.06,3.35,3.35,0,0,1-2.78,1.31,3,3,0,0,1-2.92-1.85v1.63h-.91Zm1.66,5a3.93,3.93,0,0,0-.73,2.48v.19a3.92,3.92,0,0,0,.69,2.4,2.43,2.43,0,0,0,2.09,1,2.52,2.52,0,0,0,2.16-1.06,4.21,4.21,0,0,0,.68-2.5,4.07,4.07,0,0,0-.69-2.48,2.55,2.55,0,0,0-2.18-1.05A2.4,2.4,0,0,0,285,137.55Z"/><path class="cls-1" d="M292.86,132.59h1v11.65h-1Z"/><path class="cls-1" d="M302.43,137.07a5.71,5.71,0,0,1,.94,3.31h-6.72a4,4,0,0,0,.82,2.39,2.63,2.63,0,0,0,2,.86,2.8,2.8,0,0,0,1.82-.59,3,3,0,0,0,.88-1.46h1a3.82,3.82,0,0,1-1.11,2,3.67,3.67,0,0,1-2.57.91,3.54,3.54,0,0,1-2.79-1.18,5.16,5.16,0,0,1,0-6.24,3.79,3.79,0,0,1,5.74,0Zm-4.9.35a3.69,3.69,0,0,0-.86,2.18h5.7c-.16-2-1.12-3-2.87-3A2.5,2.5,0,0,0,297.53,137.42Z"/><path class="cls-1" d="M314.91,135.92v1a4.73,4.73,0,0,0-1.26-.17,2.06,2.06,0,0,0-1.8,1,3.61,3.61,0,0,0-.65,2.16v4.37h-1V136h1v1.58a3.05,3.05,0,0,1,.91-1.23,2.35,2.35,0,0,1,1.6-.58A3.22,3.22,0,0,1,314.91,135.92Z"/><path class="cls-1" d="M322.29,137.07a5.78,5.78,0,0,1,.94,3.31h-6.72a3.83,3.83,0,0,0,.82,2.39,2.61,2.61,0,0,0,2,.86,2.81,2.81,0,0,0,1.83-.59,3.21,3.21,0,0,0,.88-1.46h1a3.88,3.88,0,0,1-1.1,2,3.68,3.68,0,0,1-2.58.91,3.51,3.51,0,0,1-2.78-1.18,4.54,4.54,0,0,1-1.07-3.19,4.62,4.62,0,0,1,1-3.05,3.8,3.8,0,0,1,5.75,0Zm-4.9.35a3.63,3.63,0,0,0-.86,2.18h5.69c-.16-2-1.11-3-2.86-3A2.5,2.5,0,0,0,317.39,137.42Z"/><path class="cls-1" d="M330.88,138.29h-.95a1.94,1.94,0,0,0-.68-1.27,2.67,2.67,0,0,0-1.68-.45,2.71,2.71,0,0,0-1.49.37,1.15,1.15,0,0,0-.58,1,1.14,1.14,0,0,0,.74,1,11.74,11.74,0,0,0,1.74.58,8,8,0,0,1,2.15.77,1.86,1.86,0,0,1,1,1.66c0,1.67-1.12,2.51-3.36,2.51s-3.28-.94-3.47-2.83h.94a2.27,2.27,0,0,0,.77,1.57,2.85,2.85,0,0,0,1.73.43c1.6,0,2.4-.54,2.4-1.63a1.25,1.25,0,0,0-.82-1.15,10.35,10.35,0,0,0-1.84-.58,8.09,8.09,0,0,1-2-.74,1.74,1.74,0,0,1-.94-1.58,1.88,1.88,0,0,1,.9-1.62,3.73,3.73,0,0,1,2.17-.59Q330.52,135.74,330.88,138.29Z"/><path class="cls-1" d="M338.94,137.07a5.78,5.78,0,0,1,.95,3.31h-6.72a3.89,3.89,0,0,0,.81,2.39,2.61,2.61,0,0,0,2,.86,2.8,2.8,0,0,0,1.82-.59,3,3,0,0,0,.88-1.46h1a3.82,3.82,0,0,1-1.11,2,3.66,3.66,0,0,1-2.57.91,3.51,3.51,0,0,1-2.78-1.18,5.14,5.14,0,0,1-.05-6.24,3.79,3.79,0,0,1,5.74,0Zm-4.89.35a3.58,3.58,0,0,0-.87,2.18h5.7c-.16-2-1.12-3-2.87-3A2.48,2.48,0,0,0,334.05,137.42Z"/><path class="cls-1" d="M347.5,136.69a3.18,3.18,0,0,1,.74,2.22v5.33h-.91v-1.59a4.6,4.6,0,0,1-1.35,1.24,4.2,4.2,0,0,1-2.16.57,3,3,0,0,1-2-.62,2.14,2.14,0,0,1-.75-1.71,2.44,2.44,0,0,1,1.3-2.31,5.61,5.61,0,0,1,2.77-.59l2.11,0v-.3a2.1,2.1,0,0,0-2.4-2.35,2.84,2.84,0,0,0-1.73.46,2,2,0,0,0-.85,1.44h-.94a2.89,2.89,0,0,1,1.16-2.08,4,4,0,0,1,2.4-.64A3.25,3.25,0,0,1,347.5,136.69Zm-.22,3.31h-2.07c-2.09,0-3.13.71-3.13,2.1a1.38,1.38,0,0,0,.52,1.12,2.14,2.14,0,0,0,1.41.43,3.47,3.47,0,0,0,2.31-.86,2.46,2.46,0,0,0,1-1.84Z"/><path class="cls-1" d="M354.92,135.92v1a4.62,4.62,0,0,0-1.26-.17,2,2,0,0,0-1.79,1,3.55,3.55,0,0,0-.66,2.16v4.37h-1V136h1v1.58a3.15,3.15,0,0,1,.91-1.23,2.38,2.38,0,0,1,1.61-.58A3.13,3.13,0,0,1,354.92,135.92Z"/><path class="cls-1" d="M361.92,136.46a3.15,3.15,0,0,1,1.13,2.21h-1a2.33,2.33,0,0,0-.83-1.57,2.77,2.77,0,0,0-1.76-.53,2.49,2.49,0,0,0-2.08,1,4,4,0,0,0-.75,2.58,4.09,4.09,0,0,0,.72,2.53,2.5,2.5,0,0,0,2.1.94,2.43,2.43,0,0,0,2.65-2.35h.94a3.76,3.76,0,0,1-1.18,2.38,3.58,3.58,0,0,1-2.41.8,3.43,3.43,0,0,1-2.85-1.25,4.6,4.6,0,0,1-.95-3.05,4.82,4.82,0,0,1,1-3.11,3.39,3.39,0,0,1,2.83-1.31A3.85,3.85,0,0,1,361.92,136.46Z"/><path class="cls-1" d="M364.62,132.59h1v4.88a3.18,3.18,0,0,1,1.15-1.3,3,3,0,0,1,1.57-.43,2.88,2.88,0,0,1,2.2.83,3.33,3.33,0,0,1,.81,2.39v5.28h-1v-5.15a2.77,2.77,0,0,0-.6-1.88,2.32,2.32,0,0,0-1.72-.64,2.21,2.21,0,0,0-1.74.84,3,3,0,0,0-.7,2v4.79h-1Z"/><path class="cls-1" d="M385.21,137.05a5.11,5.11,0,0,1,0,6.1,3.92,3.92,0,0,1-5.85,0,5.09,5.09,0,0,1,0-6.1,3.59,3.59,0,0,1,2.91-1.31A3.64,3.64,0,0,1,385.21,137.05Zm-5.15.61a3.88,3.88,0,0,0-.74,2.45,3.84,3.84,0,0,0,.74,2.43,2.83,2.83,0,0,0,4.46,0,4,4,0,0,0,.74-2.43,4,4,0,0,0-.74-2.45,2.83,2.83,0,0,0-4.46,0Z"/><path class="cls-1" d="M394.64,139.15v5.09h-1v-5c0-1.76-.78-2.64-2.35-2.64a2.18,2.18,0,0,0-1.66.72,2.9,2.9,0,0,0-.78,2v5h-1V136h1v1.36a3.23,3.23,0,0,1,1.12-1.17,2.87,2.87,0,0,1,1.56-.42Q394.64,135.74,394.64,139.15Z"/><path class="cls-1" d="M56.56,160.46a3.15,3.15,0,0,1,1.14,2.21h-1a2.41,2.41,0,0,0-.83-1.57,2.79,2.79,0,0,0-1.76-.53,2.47,2.47,0,0,0-2.08,1,4,4,0,0,0-.76,2.58,4.09,4.09,0,0,0,.72,2.53,2.5,2.5,0,0,0,2.1.94,2.44,2.44,0,0,0,2.66-2.35h.94a3.81,3.81,0,0,1-1.18,2.38,3.6,3.6,0,0,1-2.42.8,3.43,3.43,0,0,1-2.85-1.25,4.6,4.6,0,0,1-.94-3.05,4.82,4.82,0,0,1,1-3.11,3.42,3.42,0,0,1,2.84-1.31A3.82,3.82,0,0,1,56.56,160.46Z"/><path class="cls-1" d="M65.81,161.05a5.11,5.11,0,0,1,0,6.1,3.93,3.93,0,0,1-5.86,0,4.66,4.66,0,0,1-1-3,4.6,4.6,0,0,1,1-3.06,3.57,3.57,0,0,1,2.91-1.31A3.65,3.65,0,0,1,65.81,161.05Zm-5.15.61a3.88,3.88,0,0,0-.74,2.45,3.84,3.84,0,0,0,.74,2.43,2.83,2.83,0,0,0,4.46,0,4,4,0,0,0,.74-2.43,4,4,0,0,0-.74-2.45,2.83,2.83,0,0,0-4.46,0Z"/><path class="cls-1" d="M75.23,163.15v5.09h-1v-5c0-1.76-.78-2.64-2.35-2.64a2.18,2.18,0,0,0-1.66.72,3,3,0,0,0-.79,2v5h-1V160h1v1.36a3.31,3.31,0,0,1,1.12-1.17,2.9,2.9,0,0,1,1.57-.42Q75.23,159.74,75.23,163.15Z"/><path class="cls-1" d="M79.25,157.29V160h2.16v.83H79.25v5.6a1.24,1.24,0,0,0,.19.78.92.92,0,0,0,.72.23h1v.83H80a1.68,1.68,0,0,1-1.37-.5,2,2,0,0,1-.37-1.34v-5.6H76.53V160h1.76v-2.28Z"/><path class="cls-1" d="M89.15,161.07a5.78,5.78,0,0,1,.95,3.31H83.38a3.89,3.89,0,0,0,.81,2.39,2.63,2.63,0,0,0,2,.86,2.83,2.83,0,0,0,1.83-.59,3.11,3.11,0,0,0,.87-1.46h1a3.88,3.88,0,0,1-1.1,2,3.68,3.68,0,0,1-2.58.91,3.51,3.51,0,0,1-2.78-1.18,4.54,4.54,0,0,1-1.07-3.19,4.62,4.62,0,0,1,1-3.05,3.79,3.79,0,0,1,5.74,0Zm-4.89.35a3.64,3.64,0,0,0-.87,2.18h5.7c-.16-2-1.12-3-2.86-3A2.48,2.48,0,0,0,84.26,161.42Z"/><path class="cls-1" d="M98.35,163.15v5.09h-1v-5c0-1.76-.78-2.64-2.35-2.64a2.18,2.18,0,0,0-1.66.72,3,3,0,0,0-.79,2v5h-1V160h1v1.36a3.31,3.31,0,0,1,1.12-1.17,2.9,2.9,0,0,1,1.57-.42Q98.35,159.74,98.35,163.15Z"/><path class="cls-1" d="M102.37,157.29V160h2.16v.83h-2.16v5.6a1.24,1.24,0,0,0,.19.78.92.92,0,0,0,.72.23h1v.83h-1.17a1.68,1.68,0,0,1-1.37-.5,2,2,0,0,1-.37-1.34v-5.6H99.65V160h1.76v-2.28Z"/><path class="cls-1" d="M117.42,162.29h-.94a2,2,0,0,0-.69-1.27,2.63,2.63,0,0,0-1.68-.45,2.7,2.7,0,0,0-1.48.37,1.15,1.15,0,0,0-.58,1,1.12,1.12,0,0,0,.74,1,11.74,11.74,0,0,0,1.74.58,7.88,7.88,0,0,1,2.14.77,1.87,1.87,0,0,1,1,1.66c0,1.67-1.12,2.51-3.36,2.51s-3.29-.94-3.48-2.83h1a2.23,2.23,0,0,0,.77,1.57,2.81,2.81,0,0,0,1.72.43c1.6,0,2.4-.54,2.4-1.63a1.24,1.24,0,0,0-.81-1.15,10.65,10.65,0,0,0-1.84-.58,7.94,7.94,0,0,1-2-.74,1.74,1.74,0,0,1-.94-1.58,1.89,1.89,0,0,1,.89-1.62,3.77,3.77,0,0,1,2.18-.59C116.09,159.74,117.19,160.59,117.42,162.29Z"/><path class="cls-1" d="M121.2,157.29V160h2.16v.83H121.2v5.6a1.24,1.24,0,0,0,.19.78.92.92,0,0,0,.72.23h1v.83H122a1.71,1.71,0,0,1-1.38-.5,2,2,0,0,1-.37-1.34v-5.6h-1.76V160h1.76v-2.28Z"/><path class="cls-1" d="M131.36,161.05a5.11,5.11,0,0,1,0,6.1,3.93,3.93,0,0,1-5.86,0,4.66,4.66,0,0,1-1-3,4.6,4.6,0,0,1,1-3.06,3.59,3.59,0,0,1,2.91-1.31A3.64,3.64,0,0,1,131.36,161.05Zm-5.15.61a3.88,3.88,0,0,0-.74,2.45,3.84,3.84,0,0,0,.74,2.43,2.83,2.83,0,0,0,4.46,0,4,4,0,0,0,.74-2.43,4,4,0,0,0-.74-2.45,2.83,2.83,0,0,0-4.46,0Z"/><path class="cls-1" d="M138.74,159.92v1a4.75,4.75,0,0,0-1.27-.17,2,2,0,0,0-1.79,1,3.55,3.55,0,0,0-.66,2.16v4.37h-1V160h1v1.58a3.07,3.07,0,0,1,.92-1.23,2.34,2.34,0,0,1,1.6-.58A3.22,3.22,0,0,1,138.74,159.92Z"/><path class="cls-1" d="M145.9,160.69a3.18,3.18,0,0,1,.74,2.22v5.33h-.91v-1.59a4.37,4.37,0,0,1-1.35,1.24,4.2,4.2,0,0,1-2.16.57,3,3,0,0,1-2-.62,2.12,2.12,0,0,1-.76-1.71,2.46,2.46,0,0,1,1.3-2.31,5.64,5.64,0,0,1,2.77-.59l2.11,0v-.3a2.1,2.1,0,0,0-2.4-2.35,2.84,2.84,0,0,0-1.73.46,2,2,0,0,0-.85,1.44h-.94a2.9,2.9,0,0,1,1.17-2.08,4,4,0,0,1,2.4-.64A3.24,3.24,0,0,1,145.9,160.69Zm-.22,3.31h-2.06c-2.1,0-3.14.71-3.14,2.1a1.39,1.39,0,0,0,.53,1.12,2.1,2.1,0,0,0,1.41.43,3.46,3.46,0,0,0,2.3-.86,2.46,2.46,0,0,0,1-1.84Z"/><path class="cls-1" d="M155,161.63V160h1v7.66c0,2.67-1.23,4-3.71,4a4,4,0,0,1-2.51-.7,3,3,0,0,1-1.06-2h1a2.19,2.19,0,0,0,.77,1.38,2.9,2.9,0,0,0,1.84.51c1.84,0,2.75-1,2.75-3.09v-1.58a3.06,3.06,0,0,1-3,1.89,3.43,3.43,0,0,1-2.76-1.24,4.89,4.89,0,0,1,0-5.82,3.41,3.41,0,0,1,2.76-1.25A3.06,3.06,0,0,1,155,161.63Zm-5-.08a3.59,3.59,0,0,0-.74,2.35,3.69,3.69,0,0,0,.69,2.31,2.53,2.53,0,0,0,2.16,1,2.58,2.58,0,0,0,2.14-1,4.2,4.2,0,0,0,0-4.7,2.78,2.78,0,0,0-4.25,0Z"/><path class="cls-1" d="M164.29,161.07a5.78,5.78,0,0,1,.94,3.31h-6.72a4,4,0,0,0,.82,2.39,2.61,2.61,0,0,0,2,.86,2.8,2.8,0,0,0,1.82-.59,3.12,3.12,0,0,0,.88-1.46h1a3.89,3.89,0,0,1-1.11,2,3.67,3.67,0,0,1-2.57.91,3.51,3.51,0,0,1-2.79-1.18,5.18,5.18,0,0,1-.05-6.24,3.8,3.8,0,0,1,5.75,0Zm-4.9.35a3.63,3.63,0,0,0-.86,2.18h5.69c-.16-2-1.11-3-2.86-3A2.5,2.5,0,0,0,159.39,161.42Z"/><path class="cls-1" d="M178.17,160.69a3.14,3.14,0,0,1,.74,2.22v5.33H178v-1.59a4.44,4.44,0,0,1-1.34,1.24,4.25,4.25,0,0,1-2.16.57,3,3,0,0,1-2-.62,2.14,2.14,0,0,1-.75-1.71,2.45,2.45,0,0,1,1.29-2.31,5.64,5.64,0,0,1,2.77-.59l2.11,0v-.3a2.1,2.1,0,0,0-2.4-2.35,2.86,2.86,0,0,0-1.73.46,1.94,1.94,0,0,0-.84,1.44H172a2.9,2.9,0,0,1,1.17-2.08,4,4,0,0,1,2.4-.64A3.24,3.24,0,0,1,178.17,160.69ZM178,164h-2.06c-2.09,0-3.14.71-3.14,2.1a1.39,1.39,0,0,0,.53,1.12,2.1,2.1,0,0,0,1.41.43,3.46,3.46,0,0,0,2.3-.86,2.46,2.46,0,0,0,1-1.84Z"/><path class="cls-1" d="M187.65,163.15v5.09h-1v-5c0-1.76-.79-2.64-2.36-2.64a2.18,2.18,0,0,0-1.66.72,2.9,2.9,0,0,0-.78,2v5h-1V160h1v1.36a3.23,3.23,0,0,1,1.12-1.17,2.9,2.9,0,0,1,1.57-.42C186.62,159.74,187.65,160.88,187.65,163.15Z"/><path class="cls-1" d="M195.9,156.59h1v11.65H196v-1.63a3,3,0,0,1-2.89,1.85,3.39,3.39,0,0,1-2.81-1.31,5,5,0,0,1-.91-3.06,4.9,4.9,0,0,1,.91-3,3.25,3.25,0,0,1,2.76-1.33,3,3,0,0,1,2.89,2Zm-4.89,5a4,4,0,0,0-.69,2.48,4.2,4.2,0,0,0,.67,2.5,2.5,2.5,0,0,0,2.16,1.06,2.46,2.46,0,0,0,2.1-1,4,4,0,0,0,.69-2.4V164a4,4,0,0,0-.74-2.48,2.4,2.4,0,0,0-2-1A2.53,2.53,0,0,0,191,161.61Z"/><path class="cls-1" d="M210.11,160.46a3.15,3.15,0,0,1,1.14,2.21h-1a2.38,2.38,0,0,0-.84-1.57,2.75,2.75,0,0,0-1.76-.53,2.5,2.5,0,0,0-2.08,1,4,4,0,0,0-.75,2.58,4.09,4.09,0,0,0,.72,2.53,2.5,2.5,0,0,0,2.1.94,2.43,2.43,0,0,0,2.65-2.35h.95a3.77,3.77,0,0,1-1.19,2.38,3.56,3.56,0,0,1-2.41.8,3.43,3.43,0,0,1-2.85-1.25,4.6,4.6,0,0,1-.94-3.05,4.82,4.82,0,0,1,1-3.11,3.42,3.42,0,0,1,2.83-1.31A3.83,3.83,0,0,1,210.11,160.46Z"/><path class="cls-1" d="M219.36,161.05a5.11,5.11,0,0,1,0,6.1,3.93,3.93,0,0,1-5.86,0,4.66,4.66,0,0,1-1-3,4.6,4.6,0,0,1,1-3.06,3.56,3.56,0,0,1,2.91-1.31A3.65,3.65,0,0,1,219.36,161.05Zm-5.15.61a3.88,3.88,0,0,0-.74,2.45,3.84,3.84,0,0,0,.74,2.43,2.83,2.83,0,0,0,4.46,0,4,4,0,0,0,.74-2.43,4,4,0,0,0-.74-2.45,2.83,2.83,0,0,0-4.46,0Z"/><path class="cls-1" d="M228.67,161.07a4.9,4.9,0,0,1,.91,3.06,5,5,0,0,1-.89,3,3.35,3.35,0,0,1-2.77,1.31,3,3,0,0,1-2.9-2v4.9h-1V160H223v1.63a3,3,0,0,1,2.91-1.86A3.31,3.31,0,0,1,228.67,161.07Zm-5,.54a4,4,0,0,0-.69,2.45v.18a3.88,3.88,0,0,0,.74,2.45,2.42,2.42,0,0,0,2,1,2.6,2.6,0,0,0,2.18-1,4.19,4.19,0,0,0,.67-2.49,4.28,4.28,0,0,0-.66-2.5,2.51,2.51,0,0,0-2.16-1.07A2.43,2.43,0,0,0,223.68,161.61Z"/><path class="cls-1" d="M230.35,160h1.06l2.7,6.89,2.67-6.89h1.06l-4.56,11.44h-1l1.39-3.38Z"/><path class="cls-1" d="M243.6,159.92v1a4.75,4.75,0,0,0-1.27-.17,2.05,2.05,0,0,0-1.79,1,3.55,3.55,0,0,0-.65,2.16v4.37h-1V160h1v1.58a3.05,3.05,0,0,1,.91-1.23,2.35,2.35,0,0,1,1.6-.58A3.22,3.22,0,0,1,243.6,159.92Z"/><path class="cls-1" d="M246.22,157.23a.67.67,0,0,1,.24.56.82.82,0,0,1-.25.58.88.88,0,0,1-.56.22.82.82,0,0,1-.58-.22.8.8,0,0,1-.24-.58.67.67,0,0,1,.24-.56.75.75,0,0,1,.58-.24A.78.78,0,0,1,246.22,157.23ZM245.17,160h1v8.27h-1Z"/><path class="cls-1" d="M255,161.63V160h1v7.66q0,4-3.71,4a4,4,0,0,1-2.51-.7,3,3,0,0,1-1.06-2h1a2.15,2.15,0,0,0,.77,1.38,2.9,2.9,0,0,0,1.84.51c1.83,0,2.75-1,2.75-3.09v-1.58a3.07,3.07,0,0,1-3,1.89,3.47,3.47,0,0,1-2.77-1.24,4.89,4.89,0,0,1,0-5.82,3.45,3.45,0,0,1,2.77-1.25A3.07,3.07,0,0,1,255,161.63Zm-5-.08a3.59,3.59,0,0,0-.73,2.35,3.69,3.69,0,0,0,.69,2.31,2.53,2.53,0,0,0,2.16,1,2.59,2.59,0,0,0,2.14-1,4.2,4.2,0,0,0,0-4.7,2.79,2.79,0,0,0-4.26,0Z"/><path class="cls-1" d="M258,156.59h1v4.88a3.18,3.18,0,0,1,1.15-1.3,3,3,0,0,1,1.57-.43,2.9,2.9,0,0,1,2.21.83,3.37,3.37,0,0,1,.8,2.39v5.28h-1v-5.15a2.73,2.73,0,0,0-.61-1.88,2.29,2.29,0,0,0-1.71-.64,2.21,2.21,0,0,0-1.74.84,3,3,0,0,0-.71,2v4.79h-1Z"/><path class="cls-1" d="M268.69,157.29V160h2.16v.83h-2.16v5.6a1.24,1.24,0,0,0,.19.78.92.92,0,0,0,.72.23h1v.83h-1.17a1.72,1.72,0,0,1-1.38-.5,2,2,0,0,1-.36-1.34v-5.6H266V160h1.76v-2.28Z"/><path class="cls-1" d="M284.24,161.07a5.56,5.56,0,0,1,0,6.08,3.32,3.32,0,0,1-2.76,1.31,3,3,0,0,1-2.9-2v4.9h-1V160h.91v1.63a3,3,0,0,1,2.91-1.86A3.32,3.32,0,0,1,284.24,161.07Zm-5,.54a4,4,0,0,0-.69,2.45v.18a3.88,3.88,0,0,0,.73,2.45,2.45,2.45,0,0,0,2,1,2.61,2.61,0,0,0,2.18-1,5,5,0,0,0,0-5,2.51,2.51,0,0,0-2.16-1.07A2.43,2.43,0,0,0,279.25,161.61Z"/><path class="cls-1" d="M291.52,159.92v1a4.75,4.75,0,0,0-1.27-.17,2.05,2.05,0,0,0-1.79,1,3.55,3.55,0,0,0-.65,2.16v4.37h-1V160h1v1.58a3,3,0,0,1,.91-1.23,2.35,2.35,0,0,1,1.6-.58A3.22,3.22,0,0,1,291.52,159.92Z"/><path class="cls-1" d="M299.15,161.05a5.11,5.11,0,0,1,0,6.1,3.93,3.93,0,0,1-5.86,0,4.66,4.66,0,0,1-1-3,4.6,4.6,0,0,1,1-3.06,3.57,3.57,0,0,1,2.91-1.31A3.65,3.65,0,0,1,299.15,161.05Zm-5.15.61a3.88,3.88,0,0,0-.74,2.45,3.84,3.84,0,0,0,.74,2.43,2.83,2.83,0,0,0,4.46,0,4,4,0,0,0,.74-2.43,4,4,0,0,0-.74-2.45,2.83,2.83,0,0,0-4.46,0Z"/><path class="cls-1" d="M303.85,157.29V160H306v.83h-2.16v5.6a1.24,1.24,0,0,0,.2.78.89.89,0,0,0,.71.23h1.05v.83h-1.17a1.72,1.72,0,0,1-1.38-.5,2,2,0,0,1-.37-1.34v-5.6h-1.76V160h1.76v-2.28Z"/><path class="cls-1" d="M313.76,161.07a5.78,5.78,0,0,1,.94,3.31H308a3.89,3.89,0,0,0,.82,2.39,2.61,2.61,0,0,0,2,.86,2.81,2.81,0,0,0,1.83-.59,3.12,3.12,0,0,0,.88-1.46h1a3.89,3.89,0,0,1-1.11,2,3.68,3.68,0,0,1-2.58.91,3.51,3.51,0,0,1-2.78-1.18A5.18,5.18,0,0,1,308,161a3.8,3.8,0,0,1,5.75,0Zm-4.9.35a3.63,3.63,0,0,0-.86,2.18h5.69c-.16-2-1.11-3-2.86-3A2.5,2.5,0,0,0,308.86,161.42Z"/><path class="cls-1" d="M322.14,160.46a3.15,3.15,0,0,1,1.14,2.21h-1a2.41,2.41,0,0,0-.83-1.57,2.79,2.79,0,0,0-1.76-.53,2.47,2.47,0,0,0-2.08,1,4,4,0,0,0-.76,2.58,4.09,4.09,0,0,0,.72,2.53,2.5,2.5,0,0,0,2.1.94,2.43,2.43,0,0,0,2.65-2.35h.95a3.81,3.81,0,0,1-1.18,2.38,3.6,3.6,0,0,1-2.42.8,3.43,3.43,0,0,1-2.85-1.25,4.6,4.6,0,0,1-.94-3.05,4.82,4.82,0,0,1,1-3.11,3.42,3.42,0,0,1,2.84-1.31A3.82,3.82,0,0,1,322.14,160.46Z"/><path class="cls-1" d="M326.84,157.29V160H329v.83h-2.16v5.6a1.24,1.24,0,0,0,.2.78.92.92,0,0,0,.72.23h1v.83h-1.17a1.72,1.72,0,0,1-1.38-.5,2,2,0,0,1-.36-1.34v-5.6h-1.76V160h1.76v-2.28Z"/><path class="cls-1" d="M332,157.23a.67.67,0,0,1,.24.56.83.83,0,0,1-.26.58.88.88,0,0,1-.56.22.83.83,0,0,1-.58-.22.8.8,0,0,1-.24-.58.67.67,0,0,1,.24-.56.77.77,0,0,1,.58-.24A.78.78,0,0,1,332,157.23ZM330.94,160h1v8.27h-1Z"/><path class="cls-1" d="M340.94,161.05a5.11,5.11,0,0,1,0,6.1,3.93,3.93,0,0,1-5.86,0,4.66,4.66,0,0,1-1-3,4.6,4.6,0,0,1,1-3.06,3.59,3.59,0,0,1,2.91-1.31A3.64,3.64,0,0,1,340.94,161.05Zm-5.15.61a3.88,3.88,0,0,0-.74,2.45,3.84,3.84,0,0,0,.74,2.43,2.83,2.83,0,0,0,4.46,0,4,4,0,0,0,.74-2.43,4,4,0,0,0-.74-2.45,2.83,2.83,0,0,0-4.46,0Z"/><path class="cls-1" d="M350.36,163.15v5.09h-1v-5c0-1.76-.78-2.64-2.35-2.64a2.18,2.18,0,0,0-1.66.72,3,3,0,0,0-.79,2v5h-1V160h1v1.36a3.31,3.31,0,0,1,1.12-1.17,2.9,2.9,0,0,1,1.57-.42Q350.36,159.74,350.36,163.15Z"/><path class="cls-1" d="M354,166.86a.73.73,0,0,1,.24.58.78.78,0,0,1-.25.57.84.84,0,0,1-.56.23.75.75,0,0,1-.58-.24.77.77,0,0,1-.24-.56.73.73,0,0,1,.24-.58.75.75,0,0,1,.58-.22A.77.77,0,0,1,354,166.86Z"/><path class="cls-1" d="M17.76,180.81H19l3.89,5.81,3.87-5.81h1.2l-4.59,6.72v4.71h-1v-4.71Z"/><path class="cls-1" d="M35.3,185.07a5.71,5.71,0,0,1,.94,3.31H29.52a4,4,0,0,0,.82,2.39,2.61,2.61,0,0,0,2.05.86,2.8,2.8,0,0,0,1.82-.59,3.12,3.12,0,0,0,.88-1.46h1a3.89,3.89,0,0,1-1.11,2,3.67,3.67,0,0,1-2.57.91,3.53,3.53,0,0,1-2.79-1.18,5.18,5.18,0,0,1-.05-6.24,3.43,3.43,0,0,1,2.8-1.3A3.41,3.41,0,0,1,35.3,185.07Zm-4.9.35a3.63,3.63,0,0,0-.86,2.18h5.7c-.16-2-1.12-3-2.87-3A2.5,2.5,0,0,0,30.4,185.42Z"/><path class="cls-1" d="M43.86,184.69a3.18,3.18,0,0,1,.73,2.22v5.33h-.91v-1.59a4.44,4.44,0,0,1-1.34,1.24,4.2,4.2,0,0,1-2.16.57,3,3,0,0,1-2-.62,2.14,2.14,0,0,1-.75-1.71,2.45,2.45,0,0,1,1.29-2.31,5.67,5.67,0,0,1,2.77-.59l2.11,0v-.3a2.1,2.1,0,0,0-2.4-2.35,2.81,2.81,0,0,0-1.72.46,2,2,0,0,0-.85,1.44h-.95a2.9,2.9,0,0,1,1.17-2.08,4,4,0,0,1,2.4-.64A3.28,3.28,0,0,1,43.86,184.69ZM43.63,188H41.57c-2.09,0-3.14.71-3.14,2.1a1.39,1.39,0,0,0,.53,1.12,2.1,2.1,0,0,0,1.41.43,3.46,3.46,0,0,0,2.3-.86,2.46,2.46,0,0,0,1-1.84Z"/><path class="cls-1" d="M51.28,183.92v1a4.62,4.62,0,0,0-1.26-.17,2,2,0,0,0-1.79,1,3.55,3.55,0,0,0-.66,2.16v4.37h-1V184h1v1.58a3.05,3.05,0,0,1,.91-1.23,2.35,2.35,0,0,1,1.6-.58A3.22,3.22,0,0,1,51.28,183.92Z"/><path class="cls-1" d="M58.48,186.29h-.94a2,2,0,0,0-.69-1.27,2.63,2.63,0,0,0-1.68-.45,2.74,2.74,0,0,0-1.49.37,1.16,1.16,0,0,0-.57,1,1.13,1.13,0,0,0,.73,1,11.74,11.74,0,0,0,1.74.58,8,8,0,0,1,2.15.77,1.86,1.86,0,0,1,1,1.66c0,1.67-1.12,2.51-3.36,2.51s-3.28-.94-3.47-2.83h.94a2.31,2.31,0,0,0,.77,1.57,2.87,2.87,0,0,0,1.73.43c1.6,0,2.4-.54,2.4-1.63a1.24,1.24,0,0,0-.82-1.15,10.35,10.35,0,0,0-1.84-.58,7.83,7.83,0,0,1-2-.74,1.75,1.75,0,0,1-1-1.58,1.88,1.88,0,0,1,.9-1.62,3.77,3.77,0,0,1,2.18-.59C57.15,183.74,58.25,184.59,58.48,186.29Z"/><path class="cls-1" d="M72.13,185.05a5.11,5.11,0,0,1,0,6.1,3.93,3.93,0,0,1-5.86,0,4.66,4.66,0,0,1-1-3,4.6,4.6,0,0,1,1-3.06,3.57,3.57,0,0,1,2.91-1.31A3.65,3.65,0,0,1,72.13,185.05Zm-5.15.61a3.88,3.88,0,0,0-.74,2.45,3.84,3.84,0,0,0,.74,2.43,2.83,2.83,0,0,0,4.46,0,4,4,0,0,0,.74-2.43,4,4,0,0,0-.74-2.45,2.83,2.83,0,0,0-4.46,0Z"/><path class="cls-1" d="M79.67,180.81v.85h-1.4a1.15,1.15,0,0,0-.91.32,1.49,1.49,0,0,0-.29,1v1h2.48v.83H77.07v7.44h-1V184.8h-2.2V184h2.2v-1a2.15,2.15,0,0,1,.52-1.58,2,2,0,0,1,1.56-.6Z"/><path class="cls-1" d="M92.37,185.07a5.71,5.71,0,0,1,.94,3.31H86.59a4,4,0,0,0,.82,2.39,2.61,2.61,0,0,0,2,.86,2.8,2.8,0,0,0,1.82-.59,3,3,0,0,0,.88-1.46h1a3.82,3.82,0,0,1-1.11,2,3.67,3.67,0,0,1-2.57.91,3.54,3.54,0,0,1-2.79-1.18,5.16,5.16,0,0,1,0-6.24,3.79,3.79,0,0,1,5.74,0Zm-4.9.35a3.63,3.63,0,0,0-.86,2.18h5.7c-.16-2-1.12-3-2.87-3A2.5,2.5,0,0,0,87.47,185.42Z"/><path class="cls-1" d="M94.27,184h1.15l2.37,3.18,2.37-3.18h1.14l-3,3.9,3.31,4.37H100.5l-2.71-3.65-2.72,3.65H93.92l3.33-4.37Z"/><path class="cls-1" d="M109.34,185.07a5.53,5.53,0,0,1,0,6.08,3.34,3.34,0,0,1-2.77,1.31,3,3,0,0,1-2.89-2v4.9h-1V184h.91v1.63a3,3,0,0,1,2.91-1.86A3.31,3.31,0,0,1,109.34,185.07Zm-5,.54a4,4,0,0,0-.68,2.45v.18a3.88,3.88,0,0,0,.73,2.45,2.44,2.44,0,0,0,2,1,2.59,2.59,0,0,0,2.17-1,4.19,4.19,0,0,0,.67-2.49,4.28,4.28,0,0,0-.65-2.5,2.51,2.51,0,0,0-2.16-1.07A2.43,2.43,0,0,0,104.35,185.61Z"/><path class="cls-1" d="M118.24,185.07a5.71,5.71,0,0,1,.94,3.31h-6.72a4,4,0,0,0,.82,2.39,2.63,2.63,0,0,0,2,.86,2.78,2.78,0,0,0,1.82-.59,3,3,0,0,0,.88-1.46h1a3.88,3.88,0,0,1-1.1,2,3.72,3.72,0,0,1-2.58.91,3.54,3.54,0,0,1-2.79-1.18,5.16,5.16,0,0,1,0-6.24,3.79,3.79,0,0,1,5.74,0Zm-4.9.35a3.69,3.69,0,0,0-.86,2.18h5.7c-.16-2-1.12-3-2.87-3A2.5,2.5,0,0,0,113.34,185.42Z"/><path class="cls-1" d="M125.39,183.92v1a4.62,4.62,0,0,0-1.26-.17,2,2,0,0,0-1.79,1,3.55,3.55,0,0,0-.66,2.16v4.37h-1V184h1v1.58a3.15,3.15,0,0,1,.91-1.23,2.35,2.35,0,0,1,1.6-.58A3.22,3.22,0,0,1,125.39,183.92Z"/><path class="cls-1" d="M128,181.23a.67.67,0,0,1,.24.56.83.83,0,0,1-.26.58.88.88,0,0,1-.56.22.83.83,0,0,1-.58-.22.8.8,0,0,1-.24-.58.67.67,0,0,1,.24-.56.77.77,0,0,1,.58-.24A.78.78,0,0,1,128,181.23ZM127,184h1v8.27h-1Z"/><path class="cls-1" d="M136.7,185.07a5.78,5.78,0,0,1,1,3.31h-6.72a3.89,3.89,0,0,0,.81,2.39,2.63,2.63,0,0,0,2,.86,2.81,2.81,0,0,0,1.83-.59,3.21,3.21,0,0,0,.88-1.46h1a3.88,3.88,0,0,1-1.1,2,3.68,3.68,0,0,1-2.58.91,3.51,3.51,0,0,1-2.78-1.18,4.54,4.54,0,0,1-1.07-3.19,4.62,4.62,0,0,1,1-3.05,3.79,3.79,0,0,1,5.74,0Zm-4.89.35a3.7,3.7,0,0,0-.87,2.18h5.7c-.16-2-1.12-3-2.86-3A2.48,2.48,0,0,0,131.81,185.42Z"/><path class="cls-1" d="M145.9,187.15v5.09h-1v-5c0-1.76-.78-2.64-2.35-2.64a2.18,2.18,0,0,0-1.66.72,3,3,0,0,0-.79,2v5h-1V184h1v1.36a3.4,3.4,0,0,1,1.12-1.17,2.93,2.93,0,0,1,1.57-.42Q145.9,183.74,145.9,187.15Z"/><path class="cls-1" d="M153.82,184.46a3.15,3.15,0,0,1,1.14,2.21h-1a2.37,2.37,0,0,0-.83-1.57,2.79,2.79,0,0,0-1.76-.53,2.47,2.47,0,0,0-2.08,1,4,4,0,0,0-.75,2.58,4.09,4.09,0,0,0,.72,2.53,2.48,2.48,0,0,0,2.09.94,2.44,2.44,0,0,0,2.66-2.35H155a3.76,3.76,0,0,1-1.18,2.38,3.6,3.6,0,0,1-2.42.8,3.45,3.45,0,0,1-2.85-1.25,4.65,4.65,0,0,1-.94-3.05,4.77,4.77,0,0,1,1-3.11,3.39,3.39,0,0,1,2.83-1.31A3.82,3.82,0,0,1,153.82,184.46Z"/><path class="cls-1" d="M162.82,185.07a5.78,5.78,0,0,1,.94,3.31H157a3.89,3.89,0,0,0,.82,2.39,2.61,2.61,0,0,0,2,.86,2.81,2.81,0,0,0,1.83-.59,3.12,3.12,0,0,0,.88-1.46h1a3.88,3.88,0,0,1-1.1,2,3.68,3.68,0,0,1-2.58.91,3.51,3.51,0,0,1-2.78-1.18,5.18,5.18,0,0,1-.05-6.24,3.8,3.8,0,0,1,5.75,0Zm-4.9.35a3.63,3.63,0,0,0-.86,2.18h5.69c-.16-2-1.11-3-2.86-3A2.5,2.5,0,0,0,157.92,185.42Z"/><path class="cls-1" d="M172.16,181.23a.67.67,0,0,1,.24.56.83.83,0,0,1-.26.58.86.86,0,0,1-.56.22.81.81,0,0,1-.57-.22.8.8,0,0,1-.24-.58.67.67,0,0,1,.24-.56.75.75,0,0,1,.57-.24A.78.78,0,0,1,172.16,181.23ZM171.1,184h1v8.27h-1Z"/><path class="cls-1" d="M181.28,187.15v5.09h-1v-5c0-1.76-.78-2.64-2.35-2.64a2.2,2.2,0,0,0-1.67.72,2.9,2.9,0,0,0-.78,2v5h-1V184h1v1.36a3.31,3.31,0,0,1,1.12-1.17,2.9,2.9,0,0,1,1.57-.42C180.25,183.74,181.28,184.88,181.28,187.15Z"/><path class="cls-1" d="M188.93,180.81h1v11.43h-1Z"/><path class="cls-1" d="M198.94,187.15v5.09h-1v-5c0-1.76-.78-2.64-2.35-2.64a2.18,2.18,0,0,0-1.66.72,3,3,0,0,0-.79,2v5h-1V184h1v1.36a3.31,3.31,0,0,1,1.12-1.17,2.9,2.9,0,0,1,1.57-.42Q198.95,183.74,198.94,187.15Z"/><path class="cls-1" d="M203,181.29V184h2.16v.83H203v5.6a1.24,1.24,0,0,0,.19.78.92.92,0,0,0,.72.23h1v.83h-1.17a1.68,1.68,0,0,1-1.37-.5,2,2,0,0,1-.37-1.34v-5.6h-1.76V184H202v-2.28Z"/><path class="cls-1" d="M212.86,185.07a5.78,5.78,0,0,1,.95,3.31h-6.72a3.89,3.89,0,0,0,.81,2.39,2.64,2.64,0,0,0,2,.86,2.78,2.78,0,0,0,1.82-.59,3.14,3.14,0,0,0,.89-1.46h1a3.88,3.88,0,0,1-1.1,2,3.7,3.7,0,0,1-2.58.91,3.51,3.51,0,0,1-2.78-1.18,4.55,4.55,0,0,1-1.08-3.19,4.63,4.63,0,0,1,1-3.05,3.79,3.79,0,0,1,5.74,0Zm-4.89.35a3.7,3.7,0,0,0-.87,2.18h5.7c-.16-2-1.12-3-2.87-3A2.48,2.48,0,0,0,208,185.42Z"/><path class="cls-1" d="M220,183.92v1a4.62,4.62,0,0,0-1.26-.17,2,2,0,0,0-1.79,1,3.55,3.55,0,0,0-.66,2.16v4.37h-1V184h1v1.58a3.15,3.15,0,0,1,.91-1.23,2.38,2.38,0,0,1,1.61-.58A3.13,3.13,0,0,1,220,183.92Z"/><path class="cls-1" d="M227.82,187.15v5.09h-1v-5c0-1.76-.78-2.64-2.35-2.64a2.17,2.17,0,0,0-1.66.72,3,3,0,0,0-.79,2v5h-1V184h1v1.36a3.31,3.31,0,0,1,1.12-1.17,2.9,2.9,0,0,1,1.57-.42Q227.83,183.74,227.82,187.15Z"/><path class="cls-1" d="M236.13,185.07a5.78,5.78,0,0,1,.94,3.31h-6.72a3.83,3.83,0,0,0,.82,2.39,2.61,2.61,0,0,0,2,.86A2.81,2.81,0,0,0,235,191a3.21,3.21,0,0,0,.88-1.46h1a3.88,3.88,0,0,1-1.1,2,3.68,3.68,0,0,1-2.58.91,3.51,3.51,0,0,1-2.78-1.18,4.54,4.54,0,0,1-1.07-3.19,4.62,4.62,0,0,1,1-3.05,3.8,3.8,0,0,1,5.75,0Zm-4.9.35a3.63,3.63,0,0,0-.86,2.18h5.69c-.16-2-1.11-3-2.86-3A2.5,2.5,0,0,0,231.23,185.42Z"/><path class="cls-1" d="M240.61,181.29V184h2.16v.83h-2.16v5.6a1.24,1.24,0,0,0,.19.78.92.92,0,0,0,.72.23h1v.83h-1.17a1.72,1.72,0,0,1-1.38-.5,2,2,0,0,1-.36-1.34v-5.6h-1.76V184h1.76v-2.28Z"/><path class="cls-1" d="M256.16,185.07a5.56,5.56,0,0,1,0,6.08,3.32,3.32,0,0,1-2.76,1.31,3,3,0,0,1-2.9-2v4.9h-1V184h.91v1.63a3,3,0,0,1,2.91-1.86A3.32,3.32,0,0,1,256.16,185.07Zm-5,.54a4,4,0,0,0-.69,2.45v.18a3.88,3.88,0,0,0,.73,2.45,2.44,2.44,0,0,0,2,1,2.61,2.61,0,0,0,2.18-1,5,5,0,0,0,0-5,2.51,2.51,0,0,0-2.16-1.07A2.43,2.43,0,0,0,251.17,185.61Z"/><path class="cls-1" d="M263.44,183.92v1a4.75,4.75,0,0,0-1.27-.17,2.05,2.05,0,0,0-1.79,1,3.55,3.55,0,0,0-.65,2.16v4.37h-1V184h1v1.58a3,3,0,0,1,.91-1.23,2.34,2.34,0,0,1,1.6-.58A3.22,3.22,0,0,1,263.44,183.92Z"/><path class="cls-1" d="M271.07,185.05a5.11,5.11,0,0,1,0,6.1,3.93,3.93,0,0,1-5.86,0,4.66,4.66,0,0,1-1-3,4.6,4.6,0,0,1,1-3.06,3.57,3.57,0,0,1,2.91-1.31A3.65,3.65,0,0,1,271.07,185.05Zm-5.15.61a3.88,3.88,0,0,0-.74,2.45,3.84,3.84,0,0,0,.74,2.43,2.83,2.83,0,0,0,4.46,0,4,4,0,0,0,.74-2.43,4,4,0,0,0-.74-2.45,2.83,2.83,0,0,0-4.46,0Z"/><path class="cls-1" d="M280,180.59h1v11.65h-.91v-1.63a3,3,0,0,1-2.89,1.85,3.39,3.39,0,0,1-2.81-1.31,5,5,0,0,1-.91-3.06,4.9,4.9,0,0,1,.91-3,3.25,3.25,0,0,1,2.76-1.33,3,3,0,0,1,2.89,2Zm-4.89,5a4,4,0,0,0-.69,2.48,4.2,4.2,0,0,0,.67,2.5,2.5,2.5,0,0,0,2.16,1.06,2.46,2.46,0,0,0,2.1-1,4,4,0,0,0,.69-2.4V188a4,4,0,0,0-.74-2.48,2.4,2.4,0,0,0-2-1A2.52,2.52,0,0,0,275.12,185.61Z"/><path class="cls-1" d="M283,184h1V189a3,3,0,0,0,.54,1.94,2.22,2.22,0,0,0,1.78.67,2.32,2.32,0,0,0,1.68-.74,2.89,2.89,0,0,0,.81-1.9v-5h1v8.27h-1v-1.39a3,3,0,0,1-2.75,1.61q-3,0-3-3.39Z"/><path class="cls-1" d="M297.65,184.46a3.18,3.18,0,0,1,1.13,2.21h-1a2.37,2.37,0,0,0-.83-1.57,2.79,2.79,0,0,0-1.76-.53,2.47,2.47,0,0,0-2.08,1,4,4,0,0,0-.75,2.58,4.09,4.09,0,0,0,.72,2.53,2.49,2.49,0,0,0,2.09.94,2.44,2.44,0,0,0,2.66-2.35h.94a3.76,3.76,0,0,1-1.18,2.38,3.6,3.6,0,0,1-2.42.8,3.45,3.45,0,0,1-2.85-1.25,4.65,4.65,0,0,1-.94-3.05,4.82,4.82,0,0,1,1-3.11,3.39,3.39,0,0,1,2.83-1.31A3.85,3.85,0,0,1,297.65,184.46Z"/><path class="cls-1" d="M302.35,181.29V184h2.16v.83h-2.16v5.6a1.24,1.24,0,0,0,.19.78.92.92,0,0,0,.72.23h1v.83h-1.17a1.68,1.68,0,0,1-1.37-.5,2,2,0,0,1-.37-1.34v-5.6h-1.76V184h1.76v-2.28Z"/><path class="cls-1" d="M317.84,185.05a5.15,5.15,0,0,1,0,6.1,3.93,3.93,0,0,1-5.86,0,4.66,4.66,0,0,1-1-3,4.55,4.55,0,0,1,1-3.06,3.56,3.56,0,0,1,2.91-1.31A3.67,3.67,0,0,1,317.84,185.05Zm-5.16.61a3.88,3.88,0,0,0-.73,2.45,3.84,3.84,0,0,0,.73,2.43,2.84,2.84,0,0,0,4.47,0,4,4,0,0,0,.73-2.43,4,4,0,0,0-.73-2.45,2.84,2.84,0,0,0-4.47,0Z"/><path class="cls-1" d="M327.15,185.07a4.9,4.9,0,0,1,.91,3.06,5,5,0,0,1-.89,3,3.35,3.35,0,0,1-2.77,1.31,3,3,0,0,1-2.9-2v4.9h-1V184h.91v1.63a3,3,0,0,1,2.91-1.86A3.32,3.32,0,0,1,327.15,185.07Zm-5,.54a4,4,0,0,0-.69,2.45v.18a3.88,3.88,0,0,0,.73,2.45,2.45,2.45,0,0,0,2,1,2.61,2.61,0,0,0,2.18-1,5,5,0,0,0,0-5,2.51,2.51,0,0,0-2.16-1.07A2.43,2.43,0,0,0,322.16,185.61Z"/><path class="cls-1" d="M336,185.07a5.71,5.71,0,0,1,.95,3.31h-6.72a3.89,3.89,0,0,0,.81,2.39,2.64,2.64,0,0,0,2.05.86A2.81,2.81,0,0,0,335,191a3.21,3.21,0,0,0,.88-1.46h1a3.88,3.88,0,0,1-1.1,2,3.68,3.68,0,0,1-2.58.91,3.51,3.51,0,0,1-2.78-1.18,4.54,4.54,0,0,1-1.07-3.19,4.62,4.62,0,0,1,1-3.05,3.79,3.79,0,0,1,5.74,0Zm-4.89.35a3.7,3.7,0,0,0-.87,2.18H336c-.16-2-1.11-3-2.86-3A2.5,2.5,0,0,0,331.15,185.42Z"/><path class="cls-1" d="M343.2,183.92v1a4.75,4.75,0,0,0-1.27-.17,2,2,0,0,0-1.79,1,3.55,3.55,0,0,0-.66,2.16v4.37h-1V184h1v1.58a3.07,3.07,0,0,1,.92-1.23,2.34,2.34,0,0,1,1.6-.58A3.22,3.22,0,0,1,343.2,183.92Z"/><path class="cls-1" d="M350.36,184.69a3.18,3.18,0,0,1,.74,2.22v5.33h-.91v-1.59a4.37,4.37,0,0,1-1.35,1.24,4.2,4.2,0,0,1-2.16.57,3,3,0,0,1-2-.62,2.12,2.12,0,0,1-.76-1.71,2.46,2.46,0,0,1,1.3-2.31,5.64,5.64,0,0,1,2.77-.59l2.11,0v-.3a2.1,2.1,0,0,0-2.4-2.35A2.84,2.84,0,0,0,346,185a2,2,0,0,0-.85,1.44h-.94a2.9,2.9,0,0,1,1.17-2.08,4,4,0,0,1,2.4-.64A3.24,3.24,0,0,1,350.36,184.69Zm-.22,3.31h-2.06c-2.09,0-3.14.71-3.14,2.1a1.39,1.39,0,0,0,.53,1.12,2.1,2.1,0,0,0,1.41.43,3.46,3.46,0,0,0,2.3-.86,2.46,2.46,0,0,0,1-1.84Z"/><path class="cls-1" d="M355.12,181.29V184h2.16v.83h-2.16v5.6a1.24,1.24,0,0,0,.19.78.92.92,0,0,0,.72.23h1v.83H355.9a1.72,1.72,0,0,1-1.38-.5,2,2,0,0,1-.36-1.34v-5.6H352.4V184h1.76v-2.28Z"/><path class="cls-1" d="M360.27,181.23a.67.67,0,0,1,.24.56.83.83,0,0,1-.26.58.86.86,0,0,1-.56.22.79.79,0,0,1-.57-.22.8.8,0,0,1-.24-.58.67.67,0,0,1,.24-.56.73.73,0,0,1,.57-.24A.78.78,0,0,1,360.27,181.23ZM359.21,184h1v8.27h-1Z"/><path class="cls-1" d="M369.21,185.05a5.11,5.11,0,0,1,0,6.1,3.92,3.92,0,0,1-5.85,0,5.09,5.09,0,0,1,0-6.1,3.59,3.59,0,0,1,2.91-1.31A3.64,3.64,0,0,1,369.21,185.05Zm-5.15.61a3.88,3.88,0,0,0-.74,2.45,3.84,3.84,0,0,0,.74,2.43,2.83,2.83,0,0,0,4.46,0,4,4,0,0,0,.74-2.43,4,4,0,0,0-.74-2.45,2.83,2.83,0,0,0-4.46,0Z"/><path class="cls-1" d="M378.64,187.15v5.09h-1v-5c0-1.76-.78-2.64-2.35-2.64a2.18,2.18,0,0,0-1.66.72,2.9,2.9,0,0,0-.78,2v5h-1V184h1v1.36a3.23,3.23,0,0,1,1.12-1.17,2.87,2.87,0,0,1,1.56-.42Q378.64,183.74,378.64,187.15Z"/><path class="cls-1" d="M386.76,186.29h-.94a2,2,0,0,0-.69-1.27,2.63,2.63,0,0,0-1.68-.45,2.74,2.74,0,0,0-1.49.37,1.16,1.16,0,0,0-.57,1,1.13,1.13,0,0,0,.73,1,11.56,11.56,0,0,0,1.75.58,8,8,0,0,1,2.14.77,1.86,1.86,0,0,1,1,1.66c0,1.67-1.12,2.51-3.36,2.51s-3.28-.94-3.47-2.83h.94a2.31,2.31,0,0,0,.77,1.57,2.87,2.87,0,0,0,1.73.43c1.6,0,2.4-.54,2.4-1.63a1.24,1.24,0,0,0-.82-1.15,10.06,10.06,0,0,0-1.84-.58,7.83,7.83,0,0,1-2-.74,1.74,1.74,0,0,1-.94-1.58,1.87,1.87,0,0,1,.89-1.62,3.77,3.77,0,0,1,2.18-.59C385.43,183.74,386.53,184.59,386.76,186.29Z"/><path class="cls-1" d="M390.52,192a2.93,2.93,0,0,1-1.6,2.76l-.35-.56a2.49,2.49,0,0,0,1.23-1.95l-.24,0A.87.87,0,0,1,389,192a.75.75,0,0,1-.22-.58.73.73,0,0,1,.8-.81C390.2,190.64,390.52,191.08,390.52,192Z"/><path class="cls-1" d="M56.61,209.44a3.29,3.29,0,0,1,1.1-1.27,2.66,2.66,0,0,1,1.51-.43,2.7,2.7,0,0,1,2.08.82,3.25,3.25,0,0,1,.75,2.27v5.41h-1V211a2.7,2.7,0,0,0-.48-1.76,2,2,0,0,0-1.65-.63,1.88,1.88,0,0,0-1.5.69,2.4,2.4,0,0,0-.61,1.71v5.27h-1V211c0-1.59-.68-2.39-2.06-2.39a1.88,1.88,0,0,0-1.55.76,2.65,2.65,0,0,0-.64,1.82v5.09h-1V208h1v1.24a2.67,2.67,0,0,1,2.4-1.47A2.5,2.5,0,0,1,56.61,209.44Z"/><path class="cls-1" d="M64.07,208h1V213a3,3,0,0,0,.54,1.94,2.21,2.21,0,0,0,1.78.67,2.32,2.32,0,0,0,1.68-.74,2.89,2.89,0,0,0,.81-1.9v-5h1v8.27h-1v-1.39a3,3,0,0,1-2.75,1.61c-2,0-3-1.13-3-3.39Z"/><path class="cls-1" d="M73.12,204.59h1v11.65h-1Z"/><path class="cls-1" d="M78.4,205.29V208h2.16v.83H78.4v5.6a1.31,1.31,0,0,0,.19.78.92.92,0,0,0,.72.23h1v.83H79.19a1.72,1.72,0,0,1-1.38-.5,2,2,0,0,1-.37-1.34v-5.6H75.68V208h1.76v-2.28Z"/><path class="cls-1" d="M83.55,205.23a.67.67,0,0,1,.24.56.82.82,0,0,1-.25.58.88.88,0,0,1-.56.22.82.82,0,0,1-.58-.22.8.8,0,0,1-.24-.58.67.67,0,0,1,.24-.56A.75.75,0,0,1,83,205,.78.78,0,0,1,83.55,205.23Zm-1,2.74h1v8.27h-1Z"/><path class="cls-1" d="M86.26,204.59h1v11.65h-1Z"/><path class="cls-1" d="M91.07,205.23a.67.67,0,0,1,.24.56.82.82,0,0,1-.25.58.88.88,0,0,1-.56.22.82.82,0,0,1-.58-.22.8.8,0,0,1-.24-.58.67.67,0,0,1,.24-.56.75.75,0,0,1,.58-.24A.78.78,0,0,1,91.07,205.23ZM90,208h1v8.27H90Z"/><path class="cls-1" d="M100.19,211.15v5.09h-1v-5c0-1.76-.78-2.64-2.35-2.64a2.18,2.18,0,0,0-1.66.72,3,3,0,0,0-.79,2v5h-1V208h1v1.36a3.31,3.31,0,0,1,1.12-1.17,2.9,2.9,0,0,1,1.57-.42Q100.2,207.74,100.19,211.15Z"/><path class="cls-1" d="M108.58,209.63V208h1v7.66q0,4-3.71,4a4.06,4.06,0,0,1-2.52-.7,3,3,0,0,1-1-2h1a2.1,2.1,0,0,0,.77,1.38,2.86,2.86,0,0,0,1.84.51c1.83,0,2.75-1,2.75-3.09v-1.58a3.08,3.08,0,0,1-3,1.89,3.44,3.44,0,0,1-2.77-1.24,4.89,4.89,0,0,1,0-5.82,3.42,3.42,0,0,1,2.77-1.25A3.08,3.08,0,0,1,108.58,209.63Zm-5-.08a3.59,3.59,0,0,0-.74,2.35,3.69,3.69,0,0,0,.69,2.31,2.53,2.53,0,0,0,2.16,1,2.61,2.61,0,0,0,2.15-1,4.2,4.2,0,0,0,0-4.7,2.79,2.79,0,0,0-4.26,0Z"/><path class="cls-1" d="M111.55,208h1V213a2.9,2.9,0,0,0,.55,1.94,2.19,2.19,0,0,0,1.77.67,2.32,2.32,0,0,0,1.68-.74,3,3,0,0,0,.82-1.9v-5h1v8.27h-1v-1.39a3,3,0,0,1-2.75,1.61q-3,0-3-3.39Z"/><path class="cls-1" d="M126.39,208.69a3.18,3.18,0,0,1,.73,2.22v5.33h-.91v-1.59a4.44,4.44,0,0,1-1.34,1.24,4.23,4.23,0,0,1-2.16.57,3,3,0,0,1-2-.62,2.14,2.14,0,0,1-.75-1.71,2.45,2.45,0,0,1,1.29-2.31,5.67,5.67,0,0,1,2.77-.59l2.11,0v-.3a2.1,2.1,0,0,0-2.4-2.35A2.84,2.84,0,0,0,122,209a2,2,0,0,0-.85,1.44h-.94a2.9,2.9,0,0,1,1.17-2.08,4,4,0,0,1,2.4-.64A3.28,3.28,0,0,1,126.39,208.69Zm-.23,3.31H124.1c-2.09,0-3.14.71-3.14,2.1a1.39,1.39,0,0,0,.53,1.12,2.1,2.1,0,0,0,1.41.43,3.46,3.46,0,0,0,2.3-.86,2.46,2.46,0,0,0,1-1.84Z"/><path class="cls-1" d="M129.44,204.59h1v11.65h-1Z"/><path class="cls-1" d="M134.26,205.23a.67.67,0,0,1,.24.56.83.83,0,0,1-.26.58.88.88,0,0,1-.56.22.83.83,0,0,1-.58-.22.8.8,0,0,1-.24-.58.67.67,0,0,1,.24-.56.77.77,0,0,1,.58-.24A.78.78,0,0,1,134.26,205.23ZM133.2,208h1v8.27h-1Z"/><path class="cls-1" d="M142.77,210.29h-.94a2,2,0,0,0-.69-1.27,2.67,2.67,0,0,0-1.68-.45,2.71,2.71,0,0,0-1.49.37,1.15,1.15,0,0,0-.58,1,1.14,1.14,0,0,0,.74,1,11.74,11.74,0,0,0,1.74.58,8,8,0,0,1,2.15.77,1.86,1.86,0,0,1,1,1.66c0,1.67-1.12,2.51-3.36,2.51s-3.28-.94-3.47-2.83h.94a2.27,2.27,0,0,0,.77,1.57,2.85,2.85,0,0,0,1.73.43c1.6,0,2.4-.54,2.4-1.63a1.24,1.24,0,0,0-.82-1.15,10.35,10.35,0,0,0-1.84-.58,8.09,8.09,0,0,1-2-.74,1.76,1.76,0,0,1-.94-1.58,1.88,1.88,0,0,1,.9-1.62,3.73,3.73,0,0,1,2.17-.59Q142.41,207.74,142.77,210.29Z"/><path class="cls-1" d="M150.5,209.44a3.13,3.13,0,0,1,1.1-1.27,2.65,2.65,0,0,1,1.5-.43,2.69,2.69,0,0,1,2.08.82,3.21,3.21,0,0,1,.76,2.27v5.41h-1V211a2.7,2.7,0,0,0-.48-1.76,2,2,0,0,0-1.65-.63,1.91,1.91,0,0,0-1.51.69,2.44,2.44,0,0,0-.6,1.71v5.27h-1V211c0-1.59-.69-2.39-2.06-2.39a1.88,1.88,0,0,0-1.55.76,2.65,2.65,0,0,0-.65,1.82v5.09h-1V208h1v1.24a2.7,2.7,0,0,1,2.41-1.47A2.5,2.5,0,0,1,150.5,209.44Z"/><path class="cls-1" d="M159.94,216a2.94,2.94,0,0,1-1.6,2.76l-.35-.56a2.55,2.55,0,0,0,1.23-1.95l-.24,0a.84.84,0,0,1-.59-.21.75.75,0,0,1-.23-.58.77.77,0,0,1,.21-.59.8.8,0,0,1,.59-.22C159.61,214.64,159.94,215.08,159.94,216Z"/><path class="cls-1" d="M173.7,209.07a5.78,5.78,0,0,1,.94,3.31h-6.72a3.89,3.89,0,0,0,.82,2.39,2.61,2.61,0,0,0,2,.86,2.81,2.81,0,0,0,1.83-.59,3.21,3.21,0,0,0,.88-1.46h1a3.88,3.88,0,0,1-1.1,2,3.68,3.68,0,0,1-2.58.91,3.51,3.51,0,0,1-2.78-1.18,4.54,4.54,0,0,1-1.07-3.19,4.62,4.62,0,0,1,1-3.05,3.8,3.8,0,0,1,5.75,0Zm-4.9.35a3.63,3.63,0,0,0-.86,2.18h5.69c-.16-2-1.11-3-2.86-3A2.5,2.5,0,0,0,168.8,209.42Z"/><path class="cls-1" d="M175.6,208h1.15l2.37,3.18,2.37-3.18h1.13l-3,3.9,3.31,4.37h-1.15l-2.71-3.65-2.72,3.65h-1.15l3.33-4.37Z"/><path class="cls-1" d="M186.06,205.29V208h2.16v.83h-2.16v5.6a1.24,1.24,0,0,0,.2.78.9.9,0,0,0,.72.23h1v.83h-1.17a1.72,1.72,0,0,1-1.38-.5,2,2,0,0,1-.37-1.34v-5.6h-1.76V208h1.76v-2.28Z"/><path class="cls-1" d="M196,209.07a5.71,5.71,0,0,1,.94,3.31h-6.72a4,4,0,0,0,.82,2.39,2.61,2.61,0,0,0,2.05.86,2.8,2.8,0,0,0,1.82-.59,3.12,3.12,0,0,0,.88-1.46h1a3.89,3.89,0,0,1-1.11,2,3.67,3.67,0,0,1-2.57.91,3.53,3.53,0,0,1-2.79-1.18,5.18,5.18,0,0,1-.05-6.24,3.8,3.8,0,0,1,5.75,0Zm-4.9.35a3.63,3.63,0,0,0-.86,2.18h5.7c-.16-2-1.12-3-2.87-3A2.5,2.5,0,0,0,191.07,209.42Z"/><path class="cls-1" d="M205.17,211.15v5.09h-1v-5c0-1.76-.79-2.64-2.35-2.64a2.19,2.19,0,0,0-1.67.72,2.9,2.9,0,0,0-.78,2v5h-1V208h1v1.36a3.31,3.31,0,0,1,1.12-1.17,2.9,2.9,0,0,1,1.57-.42C204.14,207.74,205.17,208.88,205.17,211.15Z"/><path class="cls-1" d="M213.3,210.29h-1a2,2,0,0,0-.69-1.27,2.63,2.63,0,0,0-1.68-.45,2.68,2.68,0,0,0-1.48.37,1.15,1.15,0,0,0-.58,1,1.14,1.14,0,0,0,.74,1,11.74,11.74,0,0,0,1.74.58,7.88,7.88,0,0,1,2.14.77,1.87,1.87,0,0,1,1,1.66c0,1.67-1.12,2.51-3.37,2.51s-3.27-.94-3.47-2.83h1a2.23,2.23,0,0,0,.77,1.57,2.83,2.83,0,0,0,1.72.43c1.6,0,2.4-.54,2.4-1.63a1.24,1.24,0,0,0-.81-1.15,10.35,10.35,0,0,0-1.84-.58,8.09,8.09,0,0,1-2-.74,1.74,1.74,0,0,1-.94-1.58,1.89,1.89,0,0,1,.89-1.62,3.77,3.77,0,0,1,2.18-.59Q212.94,207.74,213.3,210.29Z"/><path class="cls-1" d="M216.61,205.23a.67.67,0,0,1,.24.56.83.83,0,0,1-.26.58.86.86,0,0,1-.56.22.79.79,0,0,1-.57-.22.8.8,0,0,1-.24-.58.67.67,0,0,1,.24-.56A.73.73,0,0,1,216,205,.78.78,0,0,1,216.61,205.23ZM215.55,208h1v8.27h-1Z"/><path class="cls-1" d="M218.08,208h1.06l2.6,7.05,2.59-7.05h1.08l-3.17,8.27h-1Z"/><path class="cls-1" d="M232.78,209.07a5.78,5.78,0,0,1,.95,3.31H227a3.89,3.89,0,0,0,.81,2.39,2.63,2.63,0,0,0,2.05.86,2.81,2.81,0,0,0,1.83-.59,3.21,3.21,0,0,0,.88-1.46h1a3.88,3.88,0,0,1-1.1,2,3.68,3.68,0,0,1-2.58.91,3.51,3.51,0,0,1-2.78-1.18,4.54,4.54,0,0,1-1.07-3.19,4.62,4.62,0,0,1,1-3.05,3.79,3.79,0,0,1,5.74,0Zm-4.89.35a3.7,3.7,0,0,0-.87,2.18h5.7c-.16-2-1.12-3-2.86-3A2.48,2.48,0,0,0,227.89,209.42Z"/><path class="cls-1" d="M246.54,209.44a3.23,3.23,0,0,1,1.11-1.27,2.62,2.62,0,0,1,1.5-.43,2.69,2.69,0,0,1,2.08.82,3.25,3.25,0,0,1,.75,2.27v5.41h-1V211a2.7,2.7,0,0,0-.48-1.76,2,2,0,0,0-1.64-.63,1.91,1.91,0,0,0-1.51.69,2.45,2.45,0,0,0-.61,1.71v5.27h-1V211c0-1.59-.69-2.39-2.07-2.39a1.89,1.89,0,0,0-1.55.76,2.65,2.65,0,0,0-.64,1.82v5.09h-1V208h1v1.24a2.7,2.7,0,0,1,2.4-1.47A2.49,2.49,0,0,1,246.54,209.44Z"/><path class="cls-1" d="M260.08,208.69a3.18,3.18,0,0,1,.74,2.22v5.33h-.92v-1.59a4.44,4.44,0,0,1-1.34,1.24,4.2,4.2,0,0,1-2.16.57,3,3,0,0,1-2-.62,2.14,2.14,0,0,1-.75-1.71,2.44,2.44,0,0,1,1.3-2.31,5.6,5.6,0,0,1,2.76-.59l2.11,0v-.3a2.09,2.09,0,0,0-2.4-2.35,2.81,2.81,0,0,0-1.72.46,2,2,0,0,0-.85,1.44h-.95a2.9,2.9,0,0,1,1.17-2.08,4,4,0,0,1,2.4-.64A3.27,3.27,0,0,1,260.08,208.69Zm-.23,3.31h-2.06c-2.09,0-3.13.71-3.13,2.1a1.38,1.38,0,0,0,.52,1.12,2.1,2.1,0,0,0,1.41.43,3.5,3.5,0,0,0,2.31-.86,2.48,2.48,0,0,0,1-1.84Z"/><path class="cls-1" d="M267.5,207.92v1a4.62,4.62,0,0,0-1.26-.17,2,2,0,0,0-1.79,1,3.55,3.55,0,0,0-.66,2.16v4.37h-1V208h1v1.58a3.05,3.05,0,0,1,.91-1.23,2.35,2.35,0,0,1,1.6-.58A3.19,3.19,0,0,1,267.5,207.92Z"/><path class="cls-1" d="M268.59,204.59h1v7.55l4.59-4.17h1.31l-3.63,3.28,4,5h-1.26l-3.43-4.37-1.58,1.44v2.93h-1Z"/><path class="cls-1" d="M283.12,209.07a5.71,5.71,0,0,1,.94,3.31h-6.72a4,4,0,0,0,.82,2.39,2.61,2.61,0,0,0,2,.86A2.8,2.8,0,0,0,282,215a3,3,0,0,0,.88-1.46h1a3.89,3.89,0,0,1-1.11,2,3.67,3.67,0,0,1-2.57.91,3.53,3.53,0,0,1-2.79-1.18,5.18,5.18,0,0,1-.05-6.24,3.8,3.8,0,0,1,5.75,0Zm-4.9.35a3.63,3.63,0,0,0-.86,2.18h5.7c-.16-2-1.12-3-2.87-3A2.5,2.5,0,0,0,278.22,209.42Z"/><path class="cls-1" d="M287.6,205.29V208h2.16v.83H287.6v5.6a1.24,1.24,0,0,0,.19.78.92.92,0,0,0,.72.23h1v.83h-1.17a1.68,1.68,0,0,1-1.37-.5,2,2,0,0,1-.37-1.34v-5.6h-1.76V208h1.76v-2.28Z"/><path class="cls-1" d="M292.75,205.23a.67.67,0,0,1,.24.56.82.82,0,0,1-.25.58.91.91,0,0,1-.57.22.81.81,0,0,1-.57-.22.8.8,0,0,1-.24-.58.67.67,0,0,1,.24-.56.75.75,0,0,1,.57-.24A.78.78,0,0,1,292.75,205.23ZM291.69,208h1v8.27h-1Z"/><path class="cls-1" d="M301.87,211.15v5.09h-1v-5c0-1.76-.78-2.64-2.35-2.64a2.2,2.2,0,0,0-1.67.72,2.9,2.9,0,0,0-.78,2v5h-1V208h1v1.36a3.31,3.31,0,0,1,1.12-1.17,2.9,2.9,0,0,1,1.57-.42Q301.88,207.74,301.87,211.15Z"/><path class="cls-1" d="M310.25,209.63V208h1v7.66c0,2.67-1.23,4-3.71,4a4,4,0,0,1-2.51-.7,3,3,0,0,1-1.06-2h1a2.19,2.19,0,0,0,.77,1.38,2.9,2.9,0,0,0,1.84.51c1.84,0,2.75-1,2.75-3.09v-1.58a3.06,3.06,0,0,1-3,1.89,3.43,3.43,0,0,1-2.76-1.24,4.89,4.89,0,0,1,0-5.82,3.41,3.41,0,0,1,2.76-1.25A3.06,3.06,0,0,1,310.25,209.63Zm-5-.08a3.59,3.59,0,0,0-.74,2.35,3.69,3.69,0,0,0,.69,2.31,2.53,2.53,0,0,0,2.16,1,2.58,2.58,0,0,0,2.14-1,4.2,4.2,0,0,0,0-4.7,2.78,2.78,0,0,0-4.25,0Z"/><path class="cls-1" d="M324.64,208.69a3.18,3.18,0,0,1,.73,2.22v5.33h-.91v-1.59a4.44,4.44,0,0,1-1.34,1.24,4.2,4.2,0,0,1-2.16.57,3,3,0,0,1-2-.62,2.14,2.14,0,0,1-.75-1.71,2.45,2.45,0,0,1,1.29-2.31,5.67,5.67,0,0,1,2.77-.59l2.12,0v-.3a2.11,2.11,0,0,0-2.41-2.35,2.81,2.81,0,0,0-1.72.46,2,2,0,0,0-.85,1.44h-.94a2.86,2.86,0,0,1,1.16-2.08,4,4,0,0,1,2.4-.64A3.27,3.27,0,0,1,324.64,208.69Zm-.22,3.31h-2.07c-2.09,0-3.14.71-3.14,2.1a1.39,1.39,0,0,0,.53,1.12,2.1,2.1,0,0,0,1.41.43,3.46,3.46,0,0,0,2.3-.86,2.47,2.47,0,0,0,1-1.84Z"/><path class="cls-1" d="M334.11,211.15v5.09h-1v-5c0-1.76-.78-2.64-2.35-2.64a2.2,2.2,0,0,0-1.67.72,2.9,2.9,0,0,0-.78,2v5h-1V208h1v1.36a3.31,3.31,0,0,1,1.12-1.17,2.9,2.9,0,0,1,1.57-.42C333.08,207.74,334.11,208.88,334.11,211.15Z"/><path class="cls-1" d="M342.37,204.59h1v11.65h-.92v-1.63a3,3,0,0,1-2.89,1.85,3.36,3.36,0,0,1-2.8-1.31,4.9,4.9,0,0,1-.91-3.06,4.84,4.84,0,0,1,.91-3,3.23,3.23,0,0,1,2.75-1.33,3,3,0,0,1,2.9,2Zm-4.9,5a4,4,0,0,0-.69,2.48,4.2,4.2,0,0,0,.67,2.5,2.5,2.5,0,0,0,2.16,1.06,2.46,2.46,0,0,0,2.1-1,4,4,0,0,0,.69-2.4V212a4,4,0,0,0-.74-2.48,2.39,2.39,0,0,0-2-1A2.54,2.54,0,0,0,337.47,209.61Z"/><path class="cls-1" d="M109.89,233.44a3.29,3.29,0,0,1,1.1-1.27,2.66,2.66,0,0,1,1.51-.43,2.7,2.7,0,0,1,2.08.82,3.25,3.25,0,0,1,.75,2.27v5.41h-1V235a2.7,2.7,0,0,0-.48-1.76,2,2,0,0,0-1.65-.63,1.88,1.88,0,0,0-1.5.69,2.4,2.4,0,0,0-.61,1.71v5.27h-1V235c0-1.59-.68-2.39-2.06-2.39a1.88,1.88,0,0,0-1.55.76,2.65,2.65,0,0,0-.64,1.82v5.09h-1V232h1v1.24a2.67,2.67,0,0,1,2.4-1.47A2.5,2.5,0,0,1,109.89,233.44Z"/><path class="cls-1" d="M123.42,232.69a3.14,3.14,0,0,1,.74,2.22v5.33h-.91v-1.59a4.44,4.44,0,0,1-1.34,1.24,4.25,4.25,0,0,1-2.16.57,3,3,0,0,1-2-.62,2.12,2.12,0,0,1-.76-1.71,2.46,2.46,0,0,1,1.3-2.31,5.64,5.64,0,0,1,2.77-.59l2.11,0v-.3a2.1,2.1,0,0,0-2.4-2.35,2.84,2.84,0,0,0-1.73.46,2,2,0,0,0-.85,1.44h-.94a2.9,2.9,0,0,1,1.17-2.08,4,4,0,0,1,2.4-.64A3.24,3.24,0,0,1,123.42,232.69ZM123.2,236h-2.06c-2.09,0-3.14.71-3.14,2.1a1.39,1.39,0,0,0,.53,1.12,2.1,2.1,0,0,0,1.41.43,3.46,3.46,0,0,0,2.3-.86,2.46,2.46,0,0,0,1-1.84Z"/><path class="cls-1" d="M132.9,235.15v5.09h-1v-5c0-1.76-.79-2.64-2.36-2.64a2.18,2.18,0,0,0-1.66.72,2.9,2.9,0,0,0-.78,2v5h-1V232h1v1.36a3.23,3.23,0,0,1,1.12-1.17,2.88,2.88,0,0,1,1.57-.42C131.87,231.74,132.9,232.88,132.9,235.15Z"/><path class="cls-1" d="M141,232.69a3.18,3.18,0,0,1,.74,2.22v5.33h-.91v-1.59a4.48,4.48,0,0,1-1.35,1.24,4.2,4.2,0,0,1-2.16.57,3,3,0,0,1-2-.62,2.14,2.14,0,0,1-.75-1.71,2.44,2.44,0,0,1,1.3-2.31,5.61,5.61,0,0,1,2.77-.59l2.11,0v-.3a2.1,2.1,0,0,0-2.4-2.35,2.84,2.84,0,0,0-1.73.46,2,2,0,0,0-.85,1.44h-.94a2.87,2.87,0,0,1,1.17-2.08,4,4,0,0,1,2.4-.64A3.24,3.24,0,0,1,141,232.69Zm-.22,3.31H138.7c-2.09,0-3.13.71-3.13,2.1a1.36,1.36,0,0,0,.53,1.12,2.09,2.09,0,0,0,1.4.43,3.47,3.47,0,0,0,2.31-.86,2.46,2.46,0,0,0,1-1.84Z"/><path class="cls-1" d="M150.11,233.63V232h1v7.66q0,4-3.71,4a4,4,0,0,1-2.51-.7,3,3,0,0,1-1.06-2h1a2.19,2.19,0,0,0,.77,1.38,2.9,2.9,0,0,0,1.84.51c1.83,0,2.75-1,2.75-3.09v-1.58a3.07,3.07,0,0,1-3,1.89,3.47,3.47,0,0,1-2.77-1.24,4.89,4.89,0,0,1,0-5.82,3.45,3.45,0,0,1,2.77-1.25A3.07,3.07,0,0,1,150.11,233.63Zm-5-.08a3.59,3.59,0,0,0-.74,2.35,3.69,3.69,0,0,0,.69,2.31,2.53,2.53,0,0,0,2.16,1,2.58,2.58,0,0,0,2.14-1,4.2,4.2,0,0,0,0-4.7,2.78,2.78,0,0,0-4.25,0Z"/><path class="cls-1" d="M159.38,233.07a5.78,5.78,0,0,1,.94,3.31H153.6a3.83,3.83,0,0,0,.82,2.39,2.61,2.61,0,0,0,2,.86,2.81,2.81,0,0,0,1.83-.59,3.21,3.21,0,0,0,.88-1.46h1a3.88,3.88,0,0,1-1.1,2,3.68,3.68,0,0,1-2.58.91,3.51,3.51,0,0,1-2.78-1.18,4.54,4.54,0,0,1-1.07-3.19,4.62,4.62,0,0,1,1-3.05,3.8,3.8,0,0,1,5.75,0Zm-4.9.35a3.63,3.63,0,0,0-.86,2.18h5.69c-.16-2-1.11-3-2.86-3A2.5,2.5,0,0,0,154.48,233.42Z"/><path class="cls-1" d="M167.81,233.44a3.21,3.21,0,0,1,1.1-1.27,2.66,2.66,0,0,1,1.51-.43,2.72,2.72,0,0,1,2.08.82,3.25,3.25,0,0,1,.75,2.27v5.41h-1V235a2.7,2.7,0,0,0-.48-1.76,2,2,0,0,0-1.65-.63,1.88,1.88,0,0,0-1.5.69,2.4,2.4,0,0,0-.61,1.71v5.27h-1V235c0-1.59-.69-2.39-2.06-2.39a1.88,1.88,0,0,0-1.55.76,2.65,2.65,0,0,0-.64,1.82v5.09h-1V232h1v1.24a2.67,2.67,0,0,1,2.4-1.47A2.5,2.5,0,0,1,167.81,233.44Z"/><path class="cls-1" d="M181.55,233.07a5.78,5.78,0,0,1,.95,3.31h-6.73a4,4,0,0,0,.82,2.39,2.63,2.63,0,0,0,2,.86,2.78,2.78,0,0,0,1.82-.59,3,3,0,0,0,.88-1.46h1a3.88,3.88,0,0,1-1.1,2,3.72,3.72,0,0,1-2.58.91,3.54,3.54,0,0,1-2.79-1.18,5.16,5.16,0,0,1,0-6.24,3.79,3.79,0,0,1,5.74,0Zm-4.89.35a3.64,3.64,0,0,0-.87,2.18h5.7c-.16-2-1.12-3-2.87-3A2.48,2.48,0,0,0,176.66,233.42Z"/><path class="cls-1" d="M190.75,235.15v5.09h-1v-5c0-1.76-.78-2.64-2.35-2.64a2.17,2.17,0,0,0-1.66.72,3,3,0,0,0-.79,2v5h-1V232h1v1.36a3.31,3.31,0,0,1,1.12-1.17,2.9,2.9,0,0,1,1.57-.42Q190.76,231.74,190.75,235.15Z"/><path class="cls-1" d="M194.77,229.29V232h2.16v.83h-2.16v5.6a1.24,1.24,0,0,0,.19.78.92.92,0,0,0,.72.23h1v.83h-1.17a1.72,1.72,0,0,1-1.38-.5,2,2,0,0,1-.36-1.34v-5.6h-1.76V232h1.76v-2.28Z"/><path class="cls-1" d="M210,233.07a5.71,5.71,0,0,1,.94,3.31h-6.72a4,4,0,0,0,.82,2.39,2.61,2.61,0,0,0,2.05.86,2.8,2.8,0,0,0,1.82-.59,3,3,0,0,0,.88-1.46h1a3.82,3.82,0,0,1-1.11,2,3.67,3.67,0,0,1-2.57.91,3.53,3.53,0,0,1-2.79-1.18,5.18,5.18,0,0,1-.05-6.24,3.44,3.44,0,0,1,2.81-1.3A3.4,3.4,0,0,1,210,233.07Zm-4.9.35a3.63,3.63,0,0,0-.86,2.18h5.7c-.16-2-1.12-3-2.87-3A2.5,2.5,0,0,0,205.1,233.42Z"/><path class="cls-1" d="M211.9,232h1.16l2.36,3.18,2.37-3.18h1.14l-3,3.9,3.31,4.37h-1.15l-2.71-3.65-2.72,3.65h-1.15l3.33-4.37Z"/><path class="cls-1" d="M227,233.07a5.56,5.56,0,0,1,0,6.08,3.33,3.33,0,0,1-2.77,1.31,3,3,0,0,1-2.89-2v4.9h-1V232h.91v1.63a3,3,0,0,1,2.91-1.86A3.34,3.34,0,0,1,227,233.07Zm-5,.54a4,4,0,0,0-.69,2.45v.18a3.88,3.88,0,0,0,.74,2.45,2.43,2.43,0,0,0,2,1,2.58,2.58,0,0,0,2.17-1,4.19,4.19,0,0,0,.68-2.49,4.28,4.28,0,0,0-.66-2.5,2.51,2.51,0,0,0-2.16-1.07A2.43,2.43,0,0,0,222,233.61Z"/><path class="cls-1" d="M235.87,233.07a5.78,5.78,0,0,1,.95,3.31h-6.73a4,4,0,0,0,.82,2.39,2.61,2.61,0,0,0,2.05.86,2.8,2.8,0,0,0,1.82-.59,3,3,0,0,0,.88-1.46h1a3.82,3.82,0,0,1-1.11,2,3.67,3.67,0,0,1-2.57.91,3.54,3.54,0,0,1-2.79-1.18,5.16,5.16,0,0,1,0-6.24,3.79,3.79,0,0,1,5.74,0Zm-4.89.35a3.58,3.58,0,0,0-.87,2.18h5.7c-.16-2-1.12-3-2.87-3A2.48,2.48,0,0,0,231,233.42Z"/><path class="cls-1" d="M243,231.92v1a4.62,4.62,0,0,0-1.26-.17,2,2,0,0,0-1.79,1,3.55,3.55,0,0,0-.66,2.16v4.37h-1V232h1v1.58a3.15,3.15,0,0,1,.91-1.23,2.35,2.35,0,0,1,1.6-.58A3.19,3.19,0,0,1,243,231.92Z"/><path class="cls-1" d="M245.65,229.23a.67.67,0,0,1,.24.56.83.83,0,0,1-.26.58.88.88,0,0,1-.56.22.79.79,0,0,1-.57-.22.77.77,0,0,1-.25-.58.65.65,0,0,1,.25-.56.73.73,0,0,1,.57-.24A.78.78,0,0,1,245.65,229.23ZM244.59,232h1v8.27h-1Z"/><path class="cls-1" d="M254.33,233.07a5.71,5.71,0,0,1,.95,3.31h-6.72a3.89,3.89,0,0,0,.81,2.39,2.64,2.64,0,0,0,2,.86,2.81,2.81,0,0,0,1.83-.59,3.21,3.21,0,0,0,.88-1.46h1a3.88,3.88,0,0,1-1.1,2,3.68,3.68,0,0,1-2.58.91,3.51,3.51,0,0,1-2.78-1.18,4.54,4.54,0,0,1-1.07-3.19,4.62,4.62,0,0,1,1-3.05,3.79,3.79,0,0,1,5.74,0Zm-4.89.35a3.63,3.63,0,0,0-.86,2.18h5.69c-.16-2-1.11-3-2.86-3A2.48,2.48,0,0,0,249.44,233.42Z"/><path class="cls-1" d="M263.53,235.15v5.09h-1v-5c0-1.76-.78-2.64-2.35-2.64a2.18,2.18,0,0,0-1.66.72,3,3,0,0,0-.79,2v5h-1V232h1v1.36a3.31,3.31,0,0,1,1.12-1.17,2.9,2.9,0,0,1,1.57-.42Q263.53,231.74,263.53,235.15Z"/><path class="cls-1" d="M271.45,232.46a3.15,3.15,0,0,1,1.14,2.21h-1a2.37,2.37,0,0,0-.83-1.57,2.79,2.79,0,0,0-1.76-.53,2.47,2.47,0,0,0-2.08,1,4,4,0,0,0-.75,2.58,4.09,4.09,0,0,0,.72,2.53,2.48,2.48,0,0,0,2.09.94,2.44,2.44,0,0,0,2.66-2.35h.94a3.76,3.76,0,0,1-1.18,2.38,3.6,3.6,0,0,1-2.42.8,3.45,3.45,0,0,1-2.85-1.25,4.65,4.65,0,0,1-.94-3.05,4.82,4.82,0,0,1,1-3.11,3.39,3.39,0,0,1,2.83-1.31A3.82,3.82,0,0,1,271.45,232.46Z"/><path class="cls-1" d="M280.45,233.07a5.78,5.78,0,0,1,.94,3.31h-6.72a3.89,3.89,0,0,0,.82,2.39,2.61,2.61,0,0,0,2,.86,2.81,2.81,0,0,0,1.83-.59,3.21,3.21,0,0,0,.88-1.46h1a3.88,3.88,0,0,1-1.1,2,3.68,3.68,0,0,1-2.58.91,3.51,3.51,0,0,1-2.78-1.18,4.54,4.54,0,0,1-1.07-3.19,4.62,4.62,0,0,1,1-3.05,3.8,3.8,0,0,1,5.75,0Zm-4.9.35a3.63,3.63,0,0,0-.86,2.18h5.69c-.16-2-1.11-3-2.86-3A2.5,2.5,0,0,0,275.55,233.42Z"/><path class="cls-1" d="M284.56,238.86a.73.73,0,0,1,.24.58.79.79,0,0,1-.26.57.84.84,0,0,1-.56.23.75.75,0,0,1-.57-.24.77.77,0,0,1-.24-.56.79.79,0,0,1,.81-.8A.78.78,0,0,1,284.56,238.86Z"/><path class="cls-1" d="M171.9,7h2.59v14.9h9.43v2.23h-12Z"/><path class="cls-1" d="M185.84,11.68h2.55v7.56a3.23,3.23,0,0,0,.67,2.3,2.9,2.9,0,0,0,4-.07,4.44,4.44,0,0,0,1.2-2.21V11.68h2.55v12.4h-2.55V22.4a4.78,4.78,0,0,1-3.91,2q-4.49,0-4.49-5Z"/><path class="cls-1" d="M209,12.42a5.34,5.34,0,0,1,1.82,3.46h-2.52a2.84,2.84,0,0,0-1-1.85,3.31,3.31,0,0,0-2.09-.6,2.93,2.93,0,0,0-2.47,1.17,5.11,5.11,0,0,0-.91,3.27,5.32,5.32,0,0,0,.89,3.29,2.84,2.84,0,0,0,2.47,1.17,2.89,2.89,0,0,0,3.19-2.83h2.52a6,6,0,0,1-1.9,3.72,5.84,5.84,0,0,1-3.84,1.2,5.45,5.45,0,0,1-4.41-1.87,6.84,6.84,0,0,1-1.54-4.66,6.92,6.92,0,0,1,1.51-4.6,5.55,5.55,0,0,1,4.49-1.95A6.21,6.21,0,0,1,209,12.42Z"/><path class="cls-1" d="M222.71,12.71a4.87,4.87,0,0,1,1.13,3.46v7.91h-2.36V22.33a5.32,5.32,0,0,1-1.82,1.51,6.58,6.58,0,0,1-2.86.58,4.48,4.48,0,0,1-3-1,3.37,3.37,0,0,1-1.16-2.67,3.81,3.81,0,0,1,1.85-3.48,7.7,7.7,0,0,1,4.08-1l2.79,0V16c0-1.73-.94-2.6-2.81-2.6a3.57,3.57,0,0,0-2,.48,2.2,2.2,0,0,0-1,1.64H213a4.36,4.36,0,0,1,1.87-3.27,6.85,6.85,0,0,1,3.82-.91A5.34,5.34,0,0,1,222.71,12.71Zm-1.39,5.54-2.62,0c-2.32,0-3.48.8-3.48,2.42a1.53,1.53,0,0,0,.55,1.22,2.35,2.35,0,0,0,1.61.48,4.32,4.32,0,0,0,2.86-1,3.27,3.27,0,0,0,1.08-2.54Z"/><path class="cls-1" d="M236.65,15.25h-2.47a2.33,2.33,0,0,0-.89-1.39,3.58,3.58,0,0,0-2-.43,3.24,3.24,0,0,0-1.72.34,1.16,1.16,0,0,0-.68,1.1c0,.42.34.78,1,1.1a20.52,20.52,0,0,0,2.5.75,10.75,10.75,0,0,1,3.14,1.17,2.93,2.93,0,0,1,1.49,2.59q0,3.94-5.52,3.94-5.08,0-5.52-4.34h2.5a2.76,2.76,0,0,0,.88,1.77,3.59,3.59,0,0,0,2.07.48q3,0,3-1.68a1.54,1.54,0,0,0-1.1-1.41,13,13,0,0,0-2.5-.72,10.28,10.28,0,0,1-3.07-1.08,2.82,2.82,0,0,1-1.44-2.5,3,3,0,0,1,1.39-2.64,6.32,6.32,0,0,1,3.65-1C234.6,11.34,236.36,12.65,236.65,15.25Z"/><path class="cls-1" d="M85.53,46.23h5.33c3.06,0,4.59,1.31,4.59,3.91s-1.54,3.94-4.62,3.94H87.5v5h-2Zm2,1.68v4.5h3.2a3.4,3.4,0,0,0,2.13-.54,2.14,2.14,0,0,0,.66-1.73,1.93,1.93,0,0,0-.68-1.69,3.36,3.36,0,0,0-2.11-.54Z"/><path class="cls-1" d="M104.76,50.93A5.07,5.07,0,0,1,106,54.44a5,5,0,0,1-1.24,3.48,4.79,4.79,0,0,1-6.81,0,5.51,5.51,0,0,1,0-7,4.79,4.79,0,0,1,6.77,0Zm-5.44,1.21a4.5,4.5,0,0,0,0,4.59,2.4,2.4,0,0,0,2.06,1,2.44,2.44,0,0,0,2.06-1,3.84,3.84,0,0,0,.65-2.29,3.73,3.73,0,0,0-.65-2.3,2.4,2.4,0,0,0-2.06-1A2.35,2.35,0,0,0,99.32,52.14Z"/><path class="cls-1" d="M110.14,46.41a1.2,1.2,0,0,1,.38.92,1.28,1.28,0,0,1-.4.94,1.32,1.32,0,0,1-.93.36,1.35,1.35,0,0,1-.94-.36,1.29,1.29,0,0,1-.38-.94,1.2,1.2,0,0,1,.38-.92,1.27,1.27,0,0,1,.94-.36A1.29,1.29,0,0,1,110.14,46.41Zm-1.91,3.37h1.91v9.3h-1.91Z"/><path class="cls-1" d="M120.9,53.34v5.74H119V53.5c0-1.58-.73-2.37-2.18-2.37a1.89,1.89,0,0,0-1.42.58,2.75,2.75,0,0,0-.78,1.78v5.59h-1.91v-9.3h1.91v1.15a3.62,3.62,0,0,1,1.24-1,3.28,3.28,0,0,1,1.57-.36C119.75,49.53,120.9,50.8,120.9,53.34Z"/><path class="cls-1" d="M125.91,46.77v3H128v1.58h-2.12v5.4a.85.85,0,0,0,.16.56.69.69,0,0,0,.51.18h1.22v1.58h-1.53a2.18,2.18,0,0,1-1.75-.62,2.45,2.45,0,0,1-.52-1.7v-5.4h-1.73V49.78H124V47.56Z"/><path class="cls-1" d="M137,52.46h-1.86a1.72,1.72,0,0,0-.66-1,2.68,2.68,0,0,0-1.48-.33,2.63,2.63,0,0,0-1.3.25.89.89,0,0,0-.5.83c0,.32.25.59.76.83a15.87,15.87,0,0,0,1.87.56,8,8,0,0,1,2.36.88,2.19,2.19,0,0,1,1.11,1.94q0,3-4.14,3-3.81,0-4.14-3.26h1.87a2.06,2.06,0,0,0,.67,1.33,2.69,2.69,0,0,0,1.55.36c1.49,0,2.23-.42,2.23-1.26a1.18,1.18,0,0,0-.83-1.06,10.84,10.84,0,0,0-1.87-.54,7.58,7.58,0,0,1-2.31-.81,2.13,2.13,0,0,1-1.07-1.87,2.23,2.23,0,0,1,1-2,4.75,4.75,0,0,1,2.74-.72Q136.67,49.53,137,52.46Z"/><path class="cls-1" d="M146.34,51.08A6.26,6.26,0,0,1,147.45,55h-7a3.44,3.44,0,0,0,.74,2.09,2.29,2.29,0,0,0,1.78.72,2.6,2.6,0,0,0,1.62-.47,3.05,3.05,0,0,0,.84-1.2h1.91A4.22,4.22,0,0,1,146,58.27a4.51,4.51,0,0,1-3.08,1.07,4.23,4.23,0,0,1-3.25-1.28,5,5,0,0,1-1.3-3.64A5.07,5.07,0,0,1,139.6,51a4,4,0,0,1,3.26-1.42A4.07,4.07,0,0,1,146.34,51.08Zm-5.13.64a3.22,3.22,0,0,0-.78,1.8h5a2.37,2.37,0,0,0-2.54-2.43A2.31,2.31,0,0,0,141.21,51.72Z"/><path class="cls-1" d="M151.9,46.77v3H154v1.58H151.9v5.4a.85.85,0,0,0,.16.56.69.69,0,0,0,.51.18h1.22v1.58h-1.53a2.19,2.19,0,0,1-1.75-.62,2.5,2.5,0,0,1-.52-1.7v-5.4h-1.73V49.78H150V47.56Z"/><path class="cls-1" d="M177,44.2a16.17,16.17,0,0,0-1.73,3.72,14.11,14.11,0,0,0-.79,4.68,14.3,14.3,0,0,0,.79,4.69A17.2,17.2,0,0,0,177,61h-1.61a15.64,15.64,0,0,1-1.94-3.67,13.86,13.86,0,0,1,0-9.45,14.06,14.06,0,0,1,1.94-3.69Z"/><path class="cls-1" d="M187.74,46.94A4,4,0,0,1,189.27,50h-2a2.82,2.82,0,0,0-1-1.8,3.66,3.66,0,0,0-2.2-.56,4.14,4.14,0,0,0-2,.38,1.47,1.47,0,0,0-.82,1.41,1.52,1.52,0,0,0,1,1.36,12.69,12.69,0,0,0,2.23.79,19.14,19.14,0,0,1,3.37,1.27,3.11,3.11,0,0,1,1.66,2.77,3.23,3.23,0,0,1-1.35,2.71,7.73,7.73,0,0,1-7.46,0A4.48,4.48,0,0,1,179,54.84H181A3.16,3.16,0,0,0,182,57a4,4,0,0,0,2.39.59,4.7,4.7,0,0,0,2.33-.51,1.49,1.49,0,0,0,.86-1.35,1.91,1.91,0,0,0-1.22-1.69c-.3-.14-1.15-.43-2.56-.86a26.46,26.46,0,0,1-3-1.06,2.85,2.85,0,0,1-1.48-2.58,3.07,3.07,0,0,1,1.43-2.66,5.92,5.92,0,0,1,3.4-.92A5.64,5.64,0,0,1,187.74,46.94Z"/><path class="cls-1" d="M193.5,46.41a1.19,1.19,0,0,1,.37.92,1.31,1.31,0,0,1-.39.94,1.37,1.37,0,0,1-.94.36,1.32,1.32,0,0,1-.93-.36,1.25,1.25,0,0,1-.38-.94,1.16,1.16,0,0,1,.38-.92,1.26,1.26,0,0,1,.93-.36A1.3,1.3,0,0,1,193.5,46.41Zm-1.91,3.37h1.91v9.3h-1.91Z"/><path class="cls-1" d="M204.26,53.34v5.74h-1.91V53.5c0-1.58-.72-2.37-2.18-2.37a1.92,1.92,0,0,0-1.42.58,2.79,2.79,0,0,0-.77,1.78v5.59h-1.91v-9.3H198v1.15a3.62,3.62,0,0,1,1.24-1,3.28,3.28,0,0,1,1.57-.36Q204.26,49.53,204.26,53.34Z"/><path class="cls-1" d="M213.15,51V49.78h1.91v8.69q0,4.43-4.34,4.43a5.13,5.13,0,0,1-3-.74,3.4,3.4,0,0,1-1.27-2.28h1.9a1.72,1.72,0,0,0,.69,1.17,3.23,3.23,0,0,0,1.65.34c1.62,0,2.43-.88,2.43-2.63V57.32a3.23,3.23,0,0,1-2.84,1.55,4,4,0,0,1-3.06-1.28,4.71,4.71,0,0,1-1.17-3.36,4.82,4.82,0,0,1,1.17-3.39,3.89,3.89,0,0,1,3.06-1.31A3.22,3.22,0,0,1,213.15,51Zm-4.42.9a3.43,3.43,0,0,0-.69,2.31,3.75,3.75,0,0,0,.54,2.14,2.26,2.26,0,0,0,2,.93,2.37,2.37,0,0,0,1.9-.81,3.55,3.55,0,0,0,.67-2.26,3.67,3.67,0,0,0-.67-2.31,2.31,2.31,0,0,0-1.9-.84A2.19,2.19,0,0,0,208.73,51.92Z"/><path class="cls-1" d="M224.44,50.55a3.68,3.68,0,0,1,.84,2.6v5.93h-1.76V57.77a4,4,0,0,1-1.37,1.13,4.92,4.92,0,0,1-2.14.44,3.34,3.34,0,0,1-2.28-.74,2.53,2.53,0,0,1-.87-2A2.85,2.85,0,0,1,218.25,54a5.78,5.78,0,0,1,3.06-.72l2.09,0V53c0-1.3-.71-1.94-2.11-1.94a2.57,2.57,0,0,0-1.51.36,1.63,1.63,0,0,0-.74,1.22h-1.89a3.29,3.29,0,0,1,1.4-2.45,5.08,5.08,0,0,1,2.87-.68A4,4,0,0,1,224.44,50.55Zm-1,4.16-2,0c-1.74,0-2.61.6-2.61,1.82a1.13,1.13,0,0,0,.42.91,1.73,1.73,0,0,0,1.2.37,3.21,3.21,0,0,0,2.14-.73,2.42,2.42,0,0,0,.82-1.9Z"/><path class="cls-1" d="M235.35,51a5.44,5.44,0,0,1,1.08,3.5,5.38,5.38,0,0,1-1.07,3.4,3.76,3.76,0,0,1-3.15,1.46,3.37,3.37,0,0,1-2.84-1.62v4.93h-1.91V49.78h1.79V50.9a3.26,3.26,0,0,1,2.87-1.37A4,4,0,0,1,235.35,51Zm-5.44,1.08a4,4,0,0,0-.59,2.31v.16a3.69,3.69,0,0,0,.73,2.41,2.07,2.07,0,0,0,1.73.85,2.38,2.38,0,0,0,2.07-.92,4.13,4.13,0,0,0,.61-2.39,4.54,4.54,0,0,0-.55-2.4,2.32,2.32,0,0,0-2.07-1A2.19,2.19,0,0,0,229.91,52.06Z"/><path class="cls-1" d="M245.89,50.93a5.07,5.07,0,0,1,1.26,3.51,4.93,4.93,0,0,1-1.24,3.48,4.78,4.78,0,0,1-6.8,0,5.51,5.51,0,0,1,0-7,4.37,4.37,0,0,1,3.38-1.4A4.32,4.32,0,0,1,245.89,50.93Zm-5.43,1.21a4.5,4.5,0,0,0,0,4.59,2.37,2.37,0,0,0,2,1,2.47,2.47,0,0,0,2.07-1,3.92,3.92,0,0,0,.65-2.29,3.8,3.8,0,0,0-.65-2.3,2.4,2.4,0,0,0-2.07-1A2.33,2.33,0,0,0,240.46,52.14Z"/><path class="cls-1" d="M254.5,49.76v1.91a4.64,4.64,0,0,0-1.35-.2,2.14,2.14,0,0,0-1.55.7,2.74,2.74,0,0,0-.72,2v4.93H249v-9.3h1.91v1.4a2.79,2.79,0,0,1,.9-1.13,2.27,2.27,0,0,1,1.51-.52A2.67,2.67,0,0,1,254.5,49.76Z"/><path class="cls-1" d="M263.08,51.08A6.19,6.19,0,0,1,264.2,55h-7.06a3.51,3.51,0,0,0,.74,2.09,2.33,2.33,0,0,0,1.79.72,2.58,2.58,0,0,0,1.61-.47,3.06,3.06,0,0,0,.85-1.2H264a4.29,4.29,0,0,1-1.28,2.17,4.53,4.53,0,0,1-3.08,1.07,4.25,4.25,0,0,1-3.26-1.28,5.66,5.66,0,0,1-.07-7.11,4.56,4.56,0,0,1,6.73.13Zm-5.13.64a3.28,3.28,0,0,0-.77,1.8h5a2.35,2.35,0,0,0-2.53-2.43A2.32,2.32,0,0,0,258,51.72Z"/><path class="cls-1" d="M267.78,44.2a15.77,15.77,0,0,1,2,3.69,14,14,0,0,1,0,9.45,16.47,16.47,0,0,1-2,3.67h-1.6a19.33,19.33,0,0,0,1.73-3.72,14.75,14.75,0,0,0,.79-4.69,14.46,14.46,0,0,0-.79-4.68,18,18,0,0,0-1.73-3.72Z"/><path class="cls-1" d="M293.29,47.15a4.83,4.83,0,0,1,1.71,3.1h-1.91a3.11,3.11,0,0,0-1.24-1.93,4,4,0,0,0-2.31-.61,3.63,3.63,0,0,0-3.13,1.42,5.68,5.68,0,0,0-1,3.55,5.86,5.86,0,0,0,1,3.58,3.76,3.76,0,0,0,3.19,1.35,3.72,3.72,0,0,0,2.34-.7,4,4,0,0,0,1.35-2.27h1.91a5.67,5.67,0,0,1-2,3.51,5.5,5.5,0,0,1-3.56,1.19,5.68,5.68,0,0,1-4.75-2,7.13,7.13,0,0,1-1.39-4.64A7.17,7.17,0,0,1,284.9,48a5.6,5.6,0,0,1,4.68-2A5.7,5.7,0,0,1,293.29,47.15Z"/><path class="cls-1" d="M307.47,47.89a6.9,6.9,0,0,1,1.62,4.79,7,7,0,0,1-1.62,4.77,6.58,6.58,0,0,1-9.25,0,6.91,6.91,0,0,1-1.6-4.75,6.93,6.93,0,0,1,1.6-4.77A5.76,5.76,0,0,1,302.85,46,5.87,5.87,0,0,1,307.47,47.89Zm-7.81,1.2a5.51,5.51,0,0,0-1.08,3.59,5.48,5.48,0,0,0,1.08,3.56,4,4,0,0,0,3.19,1.37A3.88,3.88,0,0,0,306,56.28a5.42,5.42,0,0,0,1.1-3.6A5.55,5.55,0,0,0,306,49a4.4,4.4,0,0,0-6.35.05Z"/><path class="cls-1" d="M321.39,47.89A6.9,6.9,0,0,1,323,52.68a7,7,0,0,1-1.62,4.77,6.59,6.59,0,0,1-9.26,0,7,7,0,0,1-1.6-4.75,7,7,0,0,1,1.6-4.77A5.77,5.77,0,0,1,316.76,46,5.88,5.88,0,0,1,321.39,47.89Zm-7.82,1.2a5.51,5.51,0,0,0-1.08,3.59,5.48,5.48,0,0,0,1.08,3.56,4,4,0,0,0,3.19,1.37,3.9,3.9,0,0,0,3.17-1.33,5.47,5.47,0,0,0,1.1-3.6,5.61,5.61,0,0,0-1.1-3.64,4.41,4.41,0,0,0-6.36.05Z"/></svg>