<svg id="图层_1" data-name="图层 1" xmlns="http://www.w3.org/2000/svg" viewBox="0 0 400 275"><defs><style>.cls-1{fill:#33353c;}</style></defs><title>团队介绍</title><path class="cls-1" d="M12,84.81h7.57v.87H13v4.24h6.26v.86H13v5.46H12Z"/><path class="cls-1" d="M21,88h1v5A2.9,2.9,0,0,0,22.55,95a2.19,2.19,0,0,0,1.77.67A2.32,2.32,0,0,0,26,94.89a3,3,0,0,0,.82-1.9V88h1v8.27h-1V94.85a3,3,0,0,1-2.75,1.61q-3,0-3-3.39Z"/><path class="cls-1" d="M30.1,84.59h1V96.24h-1Z"/><path class="cls-1" d="M33.68,84.59h1V96.24h-1Z"/><path class="cls-1" d="M36.75,91.68h8.08v.83H36.75Z"/><path class="cls-1" d="M52.75,90.29h-.94A2,2,0,0,0,51.12,89a2.63,2.63,0,0,0-1.68-.45,2.74,2.74,0,0,0-1.49.37,1.16,1.16,0,0,0-.57,1,1.13,1.13,0,0,0,.73,1,12,12,0,0,0,1.75.58,7.88,7.88,0,0,1,2.14.77A1.86,1.86,0,0,1,53,94c0,1.67-1.12,2.51-3.36,2.51s-3.28-.94-3.47-2.83h1a2.26,2.26,0,0,0,.76,1.57,2.87,2.87,0,0,0,1.73.43c1.6,0,2.4-.54,2.4-1.63a1.24,1.24,0,0,0-.81-1.15,10.65,10.65,0,0,0-1.84-.58,7.94,7.94,0,0,1-2-.74A1.74,1.74,0,0,1,46.39,90a1.87,1.87,0,0,1,.89-1.62,3.77,3.77,0,0,1,2.18-.59C51.42,87.74,52.52,88.59,52.75,90.29Z"/><path class="cls-1" d="M56.53,85.29V88h2.16v.83H56.53v5.6a1.24,1.24,0,0,0,.19.78.92.92,0,0,0,.72.23h1v.83H57.31a1.7,1.7,0,0,1-1.37-.5,2,2,0,0,1-.37-1.34V88.8H53.81V88h1.76V85.69Z"/><path class="cls-1" d="M66.23,88.69A3.18,3.18,0,0,1,67,90.91v5.33h-.91V94.65a4.44,4.44,0,0,1-1.34,1.24,4.25,4.25,0,0,1-2.16.57,3,3,0,0,1-2-.62,2.14,2.14,0,0,1-.75-1.71,2.45,2.45,0,0,1,1.29-2.31,5.67,5.67,0,0,1,2.77-.59l2.11,0v-.3a2.1,2.1,0,0,0-2.4-2.35,2.86,2.86,0,0,0-1.73.46A1.94,1.94,0,0,0,61,90.46h-1a2.9,2.9,0,0,1,1.17-2.08,4,4,0,0,1,2.4-.64A3.28,3.28,0,0,1,66.23,88.69ZM66,92H63.94c-2.09,0-3.14.71-3.14,2.1a1.39,1.39,0,0,0,.53,1.12,2.1,2.1,0,0,0,1.41.43A3.46,3.46,0,0,0,65,94.8,2.46,2.46,0,0,0,66,93Z"/><path class="cls-1" d="M74.88,88.46A3.15,3.15,0,0,1,76,90.67h-1a2.41,2.41,0,0,0-.83-1.57,2.79,2.79,0,0,0-1.76-.53,2.47,2.47,0,0,0-2.08,1,4,4,0,0,0-.76,2.58,4.09,4.09,0,0,0,.72,2.53,2.5,2.5,0,0,0,2.1.94,2.44,2.44,0,0,0,2.66-2.35h.94a3.76,3.76,0,0,1-1.18,2.38,3.6,3.6,0,0,1-2.42.8,3.43,3.43,0,0,1-2.85-1.25,4.6,4.6,0,0,1-.94-3,4.82,4.82,0,0,1,1-3.11,3.42,3.42,0,0,1,2.84-1.31A3.82,3.82,0,0,1,74.88,88.46Z"/><path class="cls-1" d="M77.59,84.59h1v7.55L83.14,88h1.31l-3.63,3.28,4,5H83.55l-3.42-4.37-1.58,1.44v2.93h-1Z"/><path class="cls-1" d="M97.44,89.07a5.78,5.78,0,0,1,1,3.31H91.67a3.89,3.89,0,0,0,.81,2.39,2.63,2.63,0,0,0,2,.86A2.78,2.78,0,0,0,96.35,95a3,3,0,0,0,.88-1.46h1a3.88,3.88,0,0,1-1.1,2,3.7,3.7,0,0,1-2.58.91,3.51,3.51,0,0,1-2.78-1.18,5.14,5.14,0,0,1,0-6.24,3.79,3.79,0,0,1,5.74,0Zm-4.89.35a3.64,3.64,0,0,0-.87,2.18h5.7c-.16-2-1.12-3-2.87-3A2.48,2.48,0,0,0,92.55,89.42Z"/><path class="cls-1" d="M106.64,91.15v5.09h-1v-5c0-1.76-.78-2.64-2.35-2.64a2.17,2.17,0,0,0-1.66.72,2.91,2.91,0,0,0-.79,2v5h-1V88h1v1.36A3.31,3.31,0,0,1,102,88.16a2.9,2.9,0,0,1,1.57-.42Q106.65,87.74,106.64,91.15Z"/><path class="cls-1" d="M115,89.63V88h1v7.66q0,4-3.72,4a4,4,0,0,1-2.51-.7,3,3,0,0,1-1.05-2h1a2.14,2.14,0,0,0,.76,1.38,2.9,2.9,0,0,0,1.84.51q2.76,0,2.76-3.09V94.16a3.08,3.08,0,0,1-3,1.89,3.44,3.44,0,0,1-2.77-1.24,4.89,4.89,0,0,1,0-5.82,3.42,3.42,0,0,1,2.77-1.25A3.08,3.08,0,0,1,115,89.63Zm-5-.08a3.59,3.59,0,0,0-.74,2.35,3.69,3.69,0,0,0,.69,2.31,2.53,2.53,0,0,0,2.16,1,2.61,2.61,0,0,0,2.15-1,4.2,4.2,0,0,0,0-4.7,2.79,2.79,0,0,0-4.26,0Z"/><path class="cls-1" d="M119.54,85.23a.67.67,0,0,1,.24.56.83.83,0,0,1-.26.58.88.88,0,0,1-.56.22.77.77,0,0,1-.81-.8.69.69,0,0,1,.23-.56A.77.77,0,0,1,119,85,.78.78,0,0,1,119.54,85.23ZM118.48,88h1v8.27h-1Z"/><path class="cls-1" d="M128.66,91.15v5.09h-1v-5c0-1.76-.79-2.64-2.36-2.64a2.18,2.18,0,0,0-1.66.72,2.9,2.9,0,0,0-.78,2v5h-1V88h1v1.36A3.23,3.23,0,0,1,124,88.16a2.87,2.87,0,0,1,1.56-.42Q128.66,87.74,128.66,91.15Z"/><path class="cls-1" d="M137,89.07a5.78,5.78,0,0,1,.95,3.31h-6.73a4,4,0,0,0,.82,2.39,2.63,2.63,0,0,0,2.05.86,2.78,2.78,0,0,0,1.82-.59,3,3,0,0,0,.88-1.46h1a3.88,3.88,0,0,1-1.1,2,3.72,3.72,0,0,1-2.58.91,3.54,3.54,0,0,1-2.79-1.18,5.16,5.16,0,0,1,0-6.24,3.79,3.79,0,0,1,5.74,0Zm-4.89.35a3.64,3.64,0,0,0-.87,2.18h5.7c-.16-2-1.12-3-2.87-3A2.48,2.48,0,0,0,132.07,89.42Z"/><path class="cls-1" d="M145.73,89.07a5.71,5.71,0,0,1,.94,3.31H140a4,4,0,0,0,.82,2.39,2.61,2.61,0,0,0,2,.86,2.8,2.8,0,0,0,1.82-.59,3.12,3.12,0,0,0,.88-1.46h1a3.89,3.89,0,0,1-1.11,2,3.67,3.67,0,0,1-2.57.91A3.53,3.53,0,0,1,140,95.28,5.18,5.18,0,0,1,140,89a3.8,3.8,0,0,1,5.75,0Zm-4.9.35A3.63,3.63,0,0,0,140,91.6h5.7c-.17-2-1.12-3-2.87-3A2.5,2.5,0,0,0,140.83,89.42Z"/><path class="cls-1" d="M152.88,87.92v1a4.68,4.68,0,0,0-1.26-.17,2.06,2.06,0,0,0-1.8,1,3.61,3.61,0,0,0-.65,2.16v4.37h-1V88h1v1.58a3.05,3.05,0,0,1,.91-1.23,2.35,2.35,0,0,1,1.6-.58A3.22,3.22,0,0,1,152.88,87.92Z"/><path class="cls-1" d="M156,96a2.93,2.93,0,0,1-1.6,2.76l-.35-.56a2.49,2.49,0,0,0,1.23-2l-.24,0a.87.87,0,0,1-.59-.21.75.75,0,0,1-.22-.58.73.73,0,0,1,.8-.81C155.63,94.64,156,95.08,156,96Z"/><path class="cls-1" d="M169.79,89.63V88h1v7.66q0,4-3.71,4a4,4,0,0,1-2.51-.7,3,3,0,0,1-1.06-2h1a2.19,2.19,0,0,0,.77,1.38,2.9,2.9,0,0,0,1.84.51c1.84,0,2.75-1,2.75-3.09V94.16a3.07,3.07,0,0,1-3,1.89,3.47,3.47,0,0,1-2.77-1.24,4.89,4.89,0,0,1,0-5.82,3.45,3.45,0,0,1,2.77-1.25A3.07,3.07,0,0,1,169.79,89.63Zm-5-.08a3.59,3.59,0,0,0-.74,2.35,3.69,3.69,0,0,0,.69,2.31,2.53,2.53,0,0,0,2.16,1,2.58,2.58,0,0,0,2.14-1,4.2,4.2,0,0,0,0-4.7,2.78,2.78,0,0,0-4.25,0Z"/><path class="cls-1" d="M179.31,89.05a5.11,5.11,0,0,1,0,6.1,3.92,3.92,0,0,1-5.85,0,4.66,4.66,0,0,1-1-3,4.6,4.6,0,0,1,1-3.06,3.59,3.59,0,0,1,2.91-1.31A3.64,3.64,0,0,1,179.31,89.05Zm-5.15.61a3.88,3.88,0,0,0-.74,2.45,3.84,3.84,0,0,0,.74,2.43,2.63,2.63,0,0,0,2.22,1.09,2.66,2.66,0,0,0,2.25-1.09,4,4,0,0,0,.73-2.43,4,4,0,0,0-.73-2.45,2.66,2.66,0,0,0-2.25-1.09A2.62,2.62,0,0,0,174.16,89.66Z"/><path class="cls-1" d="M188.56,89.05a5.11,5.11,0,0,1,0,6.1,3.93,3.93,0,0,1-5.86,0,4.66,4.66,0,0,1-1-3,4.6,4.6,0,0,1,1-3.06,3.57,3.57,0,0,1,2.91-1.31A3.65,3.65,0,0,1,188.56,89.05Zm-5.15.61a3.88,3.88,0,0,0-.74,2.45,3.84,3.84,0,0,0,.74,2.43,2.83,2.83,0,0,0,4.46,0,4,4,0,0,0,.74-2.43,4,4,0,0,0-.74-2.45,2.83,2.83,0,0,0-4.46,0Z"/><path class="cls-1" d="M197.5,84.59h1V96.24h-.91V94.61a3,3,0,0,1-2.89,1.85,3.36,3.36,0,0,1-2.8-1.31,4.91,4.91,0,0,1-.92-3.06,4.85,4.85,0,0,1,.92-3,3.22,3.22,0,0,1,2.75-1.33,3,3,0,0,1,2.89,2Zm-4.89,5a4,4,0,0,0-.69,2.48,4.2,4.2,0,0,0,.67,2.5,2.5,2.5,0,0,0,2.16,1.06,2.46,2.46,0,0,0,2.1-1,4,4,0,0,0,.69-2.4V92a4,4,0,0,0-.74-2.48,2.4,2.4,0,0,0-2-1A2.52,2.52,0,0,0,192.61,89.61Z"/><path class="cls-1" d="M211.89,88.69a3.18,3.18,0,0,1,.73,2.22v5.33h-.91V94.65a4.44,4.44,0,0,1-1.34,1.24,4.2,4.2,0,0,1-2.16.57,3,3,0,0,1-2-.62,2.14,2.14,0,0,1-.75-1.71,2.45,2.45,0,0,1,1.29-2.31,5.67,5.67,0,0,1,2.77-.59l2.11,0v-.3a2.1,2.1,0,0,0-2.4-2.35,2.81,2.81,0,0,0-1.72.46,2,2,0,0,0-.85,1.44h-.95a2.9,2.9,0,0,1,1.17-2.08,4,4,0,0,1,2.4-.64A3.28,3.28,0,0,1,211.89,88.69ZM211.66,92H209.6c-2.09,0-3.14.71-3.14,2.1a1.39,1.39,0,0,0,.53,1.12,2.1,2.1,0,0,0,1.41.43,3.46,3.46,0,0,0,2.3-.86,2.46,2.46,0,0,0,1-1.84Z"/><path class="cls-1" d="M216.64,85.29V88h2.16v.83h-2.16v5.6a1.24,1.24,0,0,0,.19.78.92.92,0,0,0,.72.23h1v.83h-1.17a1.7,1.7,0,0,1-1.37-.5,2,2,0,0,1-.37-1.34V88.8h-1.76V88h1.76V85.69Z"/><path class="cls-1" d="M227.58,85.29V88h2.16v.83h-2.16v5.6a1.24,1.24,0,0,0,.2.78.9.9,0,0,0,.72.23h1v.83h-1.17a1.72,1.72,0,0,1-1.38-.5,2,2,0,0,1-.37-1.34V88.8h-1.76V88h1.76V85.69Z"/><path class="cls-1" d="M237.49,89.07a5.78,5.78,0,0,1,.94,3.31h-6.72a3.89,3.89,0,0,0,.82,2.39,2.61,2.61,0,0,0,2.05.86A2.8,2.8,0,0,0,236.4,95a3.12,3.12,0,0,0,.88-1.46h1a3.89,3.89,0,0,1-1.11,2,3.67,3.67,0,0,1-2.57.91,3.51,3.51,0,0,1-2.79-1.18,5.18,5.18,0,0,1,0-6.24,3.8,3.8,0,0,1,5.75,0Zm-4.9.35a3.63,3.63,0,0,0-.86,2.18h5.69c-.16-2-1.11-3-2.86-3A2.5,2.5,0,0,0,232.59,89.42Z"/><path class="cls-1" d="M245.87,88.46A3.15,3.15,0,0,1,247,90.67h-1a2.38,2.38,0,0,0-.84-1.57,2.74,2.74,0,0,0-1.75-.53,2.47,2.47,0,0,0-2.08,1,4,4,0,0,0-.76,2.58,4.09,4.09,0,0,0,.72,2.53,2.5,2.5,0,0,0,2.1.94,2.43,2.43,0,0,0,2.65-2.35H247a3.81,3.81,0,0,1-1.18,2.38,3.6,3.6,0,0,1-2.42.8,3.43,3.43,0,0,1-2.85-1.25,4.6,4.6,0,0,1-.94-3,4.82,4.82,0,0,1,1-3.11,3.42,3.42,0,0,1,2.84-1.31A3.82,3.82,0,0,1,245.87,88.46Z"/><path class="cls-1" d="M248.58,84.59h1v4.88a3.18,3.18,0,0,1,1.15-1.3,3,3,0,0,1,1.57-.43,2.9,2.9,0,0,1,2.21.83,3.37,3.37,0,0,1,.8,2.39v5.28h-1V91.09a2.73,2.73,0,0,0-.61-1.88,2.32,2.32,0,0,0-1.71-.64,2.21,2.21,0,0,0-1.74.84,3,3,0,0,0-.71,2v4.79h-1Z"/><path class="cls-1" d="M264,91.15v5.09h-1v-5c0-1.76-.78-2.64-2.35-2.64a2.18,2.18,0,0,0-1.66.72,3,3,0,0,0-.79,2v5h-1V88h1v1.36a3.34,3.34,0,0,1,1.13-1.17,2.87,2.87,0,0,1,1.56-.42Q264,87.74,264,91.15Z"/><path class="cls-1" d="M267.57,85.23a.67.67,0,0,1,.24.56.83.83,0,0,1-.26.58.88.88,0,0,1-.56.22.83.83,0,0,1-.58-.22.8.8,0,0,1-.24-.58.67.67,0,0,1,.24-.56A.77.77,0,0,1,267,85,.8.8,0,0,1,267.57,85.23ZM266.51,88h1v8.27h-1Z"/><path class="cls-1" d="M275.87,88.46A3.15,3.15,0,0,1,277,90.67h-1a2.38,2.38,0,0,0-.84-1.57,2.75,2.75,0,0,0-1.76-.53,2.5,2.5,0,0,0-2.08,1,4,4,0,0,0-.75,2.58,4.09,4.09,0,0,0,.72,2.53,2.5,2.5,0,0,0,2.1.94,2.43,2.43,0,0,0,2.65-2.35h1a3.77,3.77,0,0,1-1.19,2.38,3.56,3.56,0,0,1-2.41.8,3.43,3.43,0,0,1-2.85-1.25,4.6,4.6,0,0,1-.94-3,4.82,4.82,0,0,1,1-3.11,3.4,3.4,0,0,1,2.83-1.31A3.83,3.83,0,0,1,275.87,88.46Z"/><path class="cls-1" d="M284.65,88.69a3.18,3.18,0,0,1,.74,2.22v5.33h-.91V94.65a4.37,4.37,0,0,1-1.35,1.24,4.2,4.2,0,0,1-2.16.57,3,3,0,0,1-2-.62,2.12,2.12,0,0,1-.76-1.71,2.46,2.46,0,0,1,1.3-2.31,5.64,5.64,0,0,1,2.77-.59l2.11,0v-.3a2.1,2.1,0,0,0-2.4-2.35,2.84,2.84,0,0,0-1.73.46,2,2,0,0,0-.85,1.44h-.94a2.9,2.9,0,0,1,1.17-2.08,4,4,0,0,1,2.4-.64A3.24,3.24,0,0,1,284.65,88.69ZM284.43,92h-2.06c-2.09,0-3.14.71-3.14,2.1a1.39,1.39,0,0,0,.53,1.12,2.1,2.1,0,0,0,1.41.43,3.46,3.46,0,0,0,2.3-.86,2.46,2.46,0,0,0,1-1.84Z"/><path class="cls-1" d="M287.71,84.59h1V96.24h-1Z"/><path class="cls-1" d="M302.4,88.69a3.18,3.18,0,0,1,.73,2.22v5.33h-.91V94.65a4.44,4.44,0,0,1-1.34,1.24,4.2,4.2,0,0,1-2.16.57,3,3,0,0,1-2-.62,2.14,2.14,0,0,1-.75-1.71,2.45,2.45,0,0,1,1.29-2.31,5.67,5.67,0,0,1,2.77-.59l2.11,0v-.3a2.1,2.1,0,0,0-2.4-2.35,2.81,2.81,0,0,0-1.72.46,2,2,0,0,0-.85,1.44h-.95a2.9,2.9,0,0,1,1.17-2.08,4,4,0,0,1,2.4-.64A3.28,3.28,0,0,1,302.4,88.69ZM302.17,92h-2.06c-2.09,0-3.14.71-3.14,2.1a1.39,1.39,0,0,0,.53,1.12,2.1,2.1,0,0,0,1.41.43,3.46,3.46,0,0,0,2.3-.86,2.46,2.46,0,0,0,1-1.84Z"/><path class="cls-1" d="M309.82,87.92v1a4.62,4.62,0,0,0-1.26-.17,2,2,0,0,0-1.79,1,3.55,3.55,0,0,0-.66,2.16v4.37h-1V88h1v1.58a3.05,3.05,0,0,1,.91-1.23,2.35,2.35,0,0,1,1.6-.58A3.22,3.22,0,0,1,309.82,87.92Z"/><path class="cls-1" d="M316.81,88.46A3.15,3.15,0,0,1,318,90.67h-1a2.37,2.37,0,0,0-.83-1.57,2.79,2.79,0,0,0-1.76-.53,2.47,2.47,0,0,0-2.08,1,4,4,0,0,0-.75,2.58,4.09,4.09,0,0,0,.72,2.53,2.48,2.48,0,0,0,2.09.94A2.44,2.44,0,0,0,317,93.28H318a3.76,3.76,0,0,1-1.18,2.38,3.6,3.6,0,0,1-2.42.8,3.44,3.44,0,0,1-2.85-1.25,4.6,4.6,0,0,1-.94-3,4.82,4.82,0,0,1,1-3.11,3.39,3.39,0,0,1,2.83-1.31A3.82,3.82,0,0,1,316.81,88.46Z"/><path class="cls-1" d="M319.52,84.59h1v4.88a3.2,3.2,0,0,1,1.16-1.3,3,3,0,0,1,1.56-.43,2.9,2.9,0,0,1,2.21.83,3.32,3.32,0,0,1,.8,2.39v5.28h-1V91.09a2.73,2.73,0,0,0-.61-1.88,2.29,2.29,0,0,0-1.71-.64,2.21,2.21,0,0,0-1.74.84,3,3,0,0,0-.71,2v4.79h-1Z"/><path class="cls-1" d="M329.77,85.23a.67.67,0,0,1,.24.56.82.82,0,0,1-.25.58.88.88,0,0,1-.56.22.82.82,0,0,1-.58-.22.8.8,0,0,1-.24-.58.67.67,0,0,1,.24-.56.75.75,0,0,1,.58-.24A.78.78,0,0,1,329.77,85.23Zm-1,2.74h1v8.27h-1Z"/><path class="cls-1" d="M334.17,85.29V88h2.16v.83h-2.16v5.6a1.24,1.24,0,0,0,.2.78.89.89,0,0,0,.71.23h1.05v.83H335a1.72,1.72,0,0,1-1.38-.5,2,2,0,0,1-.37-1.34V88.8h-1.76V88h1.76V85.69Z"/><path class="cls-1" d="M344.08,89.07a5.78,5.78,0,0,1,.94,3.31H338.3a3.89,3.89,0,0,0,.82,2.39,2.61,2.61,0,0,0,2.05.86A2.8,2.8,0,0,0,343,95a3.12,3.12,0,0,0,.88-1.46h1a3.89,3.89,0,0,1-1.11,2,3.67,3.67,0,0,1-2.57.91,3.51,3.51,0,0,1-2.79-1.18,5.18,5.18,0,0,1-.05-6.24,3.8,3.8,0,0,1,5.75,0Zm-4.9.35a3.63,3.63,0,0,0-.86,2.18H344c-.16-2-1.11-3-2.86-3A2.5,2.5,0,0,0,339.18,89.42Z"/><path class="cls-1" d="M352.46,88.46a3.15,3.15,0,0,1,1.14,2.21h-1a2.38,2.38,0,0,0-.84-1.57,2.75,2.75,0,0,0-1.76-.53,2.5,2.5,0,0,0-2.08,1,4,4,0,0,0-.75,2.58,4.09,4.09,0,0,0,.72,2.53,2.5,2.5,0,0,0,2.1.94,2.43,2.43,0,0,0,2.65-2.35h.95a3.81,3.81,0,0,1-1.18,2.38,3.6,3.6,0,0,1-2.42.8,3.43,3.43,0,0,1-2.85-1.25,4.6,4.6,0,0,1-.94-3,4.82,4.82,0,0,1,1-3.11A3.42,3.42,0,0,1,350,87.74,3.83,3.83,0,0,1,352.46,88.46Z"/><path class="cls-1" d="M357.17,85.29V88h2.16v.83h-2.16v5.6a1.24,1.24,0,0,0,.19.78.92.92,0,0,0,.72.23h1v.83H358a1.72,1.72,0,0,1-1.38-.5,2,2,0,0,1-.36-1.34V88.8h-1.76V88h1.76V85.69Z"/><path class="cls-1" d="M360.78,88h1v5a3,3,0,0,0,.54,1.94,2.22,2.22,0,0,0,1.78.67,2.32,2.32,0,0,0,1.68-.74,3,3,0,0,0,.82-1.9V88h1v8.27h-1V94.85a3,3,0,0,1-2.76,1.61q-3,0-3-3.39Z"/><path class="cls-1" d="M374.2,87.92v1a4.62,4.62,0,0,0-1.26-.17,2,2,0,0,0-1.79,1,3.55,3.55,0,0,0-.66,2.16v4.37h-1V88h1v1.58a3.15,3.15,0,0,1,.91-1.23,2.37,2.37,0,0,1,1.6-.58A3.15,3.15,0,0,1,374.2,87.92Z"/><path class="cls-1" d="M381.58,89.07a5.71,5.71,0,0,1,.94,3.31H375.8a4,4,0,0,0,.82,2.39,2.61,2.61,0,0,0,2.05.86,2.8,2.8,0,0,0,1.82-.59,3,3,0,0,0,.88-1.46h1a3.82,3.82,0,0,1-1.11,2,3.67,3.67,0,0,1-2.57.91,3.54,3.54,0,0,1-2.79-1.18,5.16,5.16,0,0,1,0-6.24,3.79,3.79,0,0,1,5.74,0Zm-4.9.35a3.63,3.63,0,0,0-.86,2.18h5.7c-.16-2-1.12-3-2.87-3A2.5,2.5,0,0,0,376.68,89.42Z"/><path class="cls-1" d="M28.75,108.59h1v11.65H28.8v-1.63a3,3,0,0,1-2.89,1.85,3.36,3.36,0,0,1-2.8-1.31,4.9,4.9,0,0,1-.91-3.06,4.84,4.84,0,0,1,.91-3,3.23,3.23,0,0,1,2.75-1.33,3,3,0,0,1,2.89,2Zm-4.89,5a4,4,0,0,0-.69,2.48,4.2,4.2,0,0,0,.67,2.5A2.5,2.5,0,0,0,26,119.65a2.46,2.46,0,0,0,2.1-1,4,4,0,0,0,.69-2.4V116a4,4,0,0,0-.74-2.48,2.39,2.39,0,0,0-2-1A2.54,2.54,0,0,0,23.86,113.61Z"/><path class="cls-1" d="M38,113.07a5.78,5.78,0,0,1,.94,3.31H32.24a3.89,3.89,0,0,0,.82,2.39,2.61,2.61,0,0,0,2,.86,2.8,2.8,0,0,0,1.82-.59,3.12,3.12,0,0,0,.88-1.46h1a3.89,3.89,0,0,1-1.11,2,3.67,3.67,0,0,1-2.57.91,3.51,3.51,0,0,1-2.79-1.18,5.18,5.18,0,0,1,0-6.24,3.43,3.43,0,0,1,2.8-1.3A3.41,3.41,0,0,1,38,113.07Zm-4.9.35a3.63,3.63,0,0,0-.86,2.18H38c-.16-2-1.11-3-2.86-3A2.5,2.5,0,0,0,33.12,113.42Z"/><path class="cls-1" d="M46.61,114.29h-.94A2,2,0,0,0,45,113a2.67,2.67,0,0,0-1.68-.45,2.71,2.71,0,0,0-1.49.37,1.17,1.17,0,0,0-.58,1,1.14,1.14,0,0,0,.74,1,11.74,11.74,0,0,0,1.74.58,8,8,0,0,1,2.15.77,1.86,1.86,0,0,1,1,1.66c0,1.67-1.12,2.51-3.36,2.51s-3.28-.94-3.47-2.83H41a2.27,2.27,0,0,0,.77,1.57,2.85,2.85,0,0,0,1.73.43c1.6,0,2.4-.54,2.4-1.63a1.24,1.24,0,0,0-.82-1.15,10.35,10.35,0,0,0-1.84-.58,7.83,7.83,0,0,1-2-.74,1.75,1.75,0,0,1-.95-1.58,1.88,1.88,0,0,1,.9-1.62,3.73,3.73,0,0,1,2.17-.59Q46.27,111.74,46.61,114.29Z"/><path class="cls-1" d="M49.92,109.23a.67.67,0,0,1,.24.56.82.82,0,0,1-.25.58.88.88,0,0,1-.56.22.82.82,0,0,1-.58-.22.8.8,0,0,1-.24-.58.67.67,0,0,1,.24-.56.75.75,0,0,1,.58-.24A.78.78,0,0,1,49.92,109.23ZM48.87,112h1v8.27h-1Z"/><path class="cls-1" d="M58.69,113.63V112h1v7.66q0,4-3.71,4a4,4,0,0,1-2.51-.7,3,3,0,0,1-1.06-2h1a2.15,2.15,0,0,0,.77,1.38,2.88,2.88,0,0,0,1.84.51c1.83,0,2.75-1,2.75-3.09v-1.58a3.08,3.08,0,0,1-3,1.89A3.45,3.45,0,0,1,53,118.81,4.89,4.89,0,0,1,53,113a3.43,3.43,0,0,1,2.77-1.25A3.08,3.08,0,0,1,58.69,113.63Zm-5-.08A3.59,3.59,0,0,0,53,115.9a3.69,3.69,0,0,0,.69,2.31,2.53,2.53,0,0,0,2.16,1,2.59,2.59,0,0,0,2.14-1,4.2,4.2,0,0,0,0-4.7,2.79,2.79,0,0,0-4.26,0Z"/><path class="cls-1" d="M68.38,115.15v5.09h-1v-5c0-1.76-.78-2.64-2.35-2.64a2.18,2.18,0,0,0-1.66.72,2.9,2.9,0,0,0-.78,2v5h-1V112h1v1.36a3.23,3.23,0,0,1,1.12-1.17,2.87,2.87,0,0,1,1.56-.42Q68.38,111.74,68.38,115.15Z"/><path class="cls-1" d="M72.39,120a2.94,2.94,0,0,1-1.6,2.76l-.36-.56a2.53,2.53,0,0,0,1.24-2l-.24,0a.88.88,0,0,1-.6-.21.75.75,0,0,1-.22-.58.77.77,0,0,1,.21-.59.78.78,0,0,1,.59-.22C72.06,118.64,72.39,119.08,72.39,120Z"/><path class="cls-1" d="M85.81,113.44a3.29,3.29,0,0,1,1.1-1.27,2.66,2.66,0,0,1,1.51-.43,2.7,2.7,0,0,1,2.08.82,3.25,3.25,0,0,1,.75,2.27v5.41h-1V115a2.7,2.7,0,0,0-.48-1.76,2,2,0,0,0-1.65-.63,1.88,1.88,0,0,0-1.5.69,2.4,2.4,0,0,0-.61,1.71v5.27h-1V115c0-1.59-.68-2.39-2.06-2.39a1.88,1.88,0,0,0-1.55.76,2.65,2.65,0,0,0-.64,1.82v5.09h-1V112h1v1.24a2.67,2.67,0,0,1,2.4-1.47A2.5,2.5,0,0,1,85.81,113.44Z"/><path class="cls-1" d="M99.34,112.69a3.18,3.18,0,0,1,.74,2.22v5.33h-.91v-1.59a4.44,4.44,0,0,1-1.34,1.24,4.25,4.25,0,0,1-2.16.57,3,3,0,0,1-2-.62,2.14,2.14,0,0,1-.75-1.71,2.45,2.45,0,0,1,1.29-2.31,5.64,5.64,0,0,1,2.77-.59l2.11,0v-.3a2.1,2.1,0,0,0-2.4-2.35A2.84,2.84,0,0,0,95,113a2,2,0,0,0-.85,1.44H93.2a2.9,2.9,0,0,1,1.17-2.08,4,4,0,0,1,2.4-.64A3.24,3.24,0,0,1,99.34,112.69ZM99.12,116H97.06c-2.09,0-3.14.71-3.14,2.1a1.39,1.39,0,0,0,.53,1.12,2.1,2.1,0,0,0,1.41.43,3.46,3.46,0,0,0,2.3-.86,2.46,2.46,0,0,0,1-1.84Z"/><path class="cls-1" d="M108.82,115.15v5.09h-1v-5c0-1.76-.79-2.64-2.36-2.64a2.18,2.18,0,0,0-1.66.72,2.9,2.9,0,0,0-.78,2v5h-1V112h1v1.36a3.23,3.23,0,0,1,1.12-1.17,2.9,2.9,0,0,1,1.57-.42C107.79,111.74,108.82,112.88,108.82,115.15Z"/><path class="cls-1" d="M109.91,112h1l2.71,6.89,2.67-6.89h1l-4.56,11.44h-1l1.4-3.38Z"/><path class="cls-1" d="M122.88,112h1.06l2.7,6.89,2.67-6.89h1.06l-4.56,11.44h-1l1.39-3.38Z"/><path class="cls-1" d="M137.74,113.07a5.71,5.71,0,0,1,.95,3.31H132a3.89,3.89,0,0,0,.81,2.39,2.64,2.64,0,0,0,2.05.86,2.81,2.81,0,0,0,1.83-.59,3.21,3.21,0,0,0,.88-1.46h1a3.88,3.88,0,0,1-1.1,2,3.68,3.68,0,0,1-2.58.91,3.51,3.51,0,0,1-2.78-1.18,4.54,4.54,0,0,1-1.07-3.19,4.62,4.62,0,0,1,1-3,3.79,3.79,0,0,1,5.74,0Zm-4.89.35a3.7,3.7,0,0,0-.87,2.18h5.7c-.16-2-1.11-3-2.86-3A2.5,2.5,0,0,0,132.85,113.42Z"/><path class="cls-1" d="M146.3,112.69a3.18,3.18,0,0,1,.74,2.22v5.33h-.91v-1.59a4.44,4.44,0,0,1-1.34,1.24,4.25,4.25,0,0,1-2.16.57,3,3,0,0,1-2-.62,2.14,2.14,0,0,1-.75-1.71,2.45,2.45,0,0,1,1.29-2.31,5.64,5.64,0,0,1,2.77-.59l2.11,0v-.3a2.1,2.1,0,0,0-2.4-2.35A2.84,2.84,0,0,0,142,113a2,2,0,0,0-.85,1.44h-.94a2.9,2.9,0,0,1,1.17-2.08,4,4,0,0,1,2.4-.64A3.24,3.24,0,0,1,146.3,112.69Zm-.22,3.31H144c-2.09,0-3.14.71-3.14,2.1a1.39,1.39,0,0,0,.53,1.12,2.1,2.1,0,0,0,1.41.43,3.46,3.46,0,0,0,2.3-.86,2.46,2.46,0,0,0,1-1.84Z"/><path class="cls-1" d="M153.73,111.92v1a4.75,4.75,0,0,0-1.27-.17,2.05,2.05,0,0,0-1.79,1,3.55,3.55,0,0,0-.65,2.16v4.37h-1V112h1v1.58a3,3,0,0,1,.91-1.23,2.35,2.35,0,0,1,1.6-.58A3.22,3.22,0,0,1,153.73,111.92Z"/><path class="cls-1" d="M160.93,114.29h-1a1.94,1.94,0,0,0-.68-1.27,2.67,2.67,0,0,0-1.68-.45,2.71,2.71,0,0,0-1.49.37,1.15,1.15,0,0,0-.58,1,1.14,1.14,0,0,0,.74,1,11.74,11.74,0,0,0,1.74.58,8.11,8.11,0,0,1,2.15.77,1.86,1.86,0,0,1,1,1.66c0,1.67-1.12,2.51-3.36,2.51s-3.28-.94-3.47-2.83h.94a2.27,2.27,0,0,0,.77,1.57,2.85,2.85,0,0,0,1.73.43c1.6,0,2.4-.54,2.4-1.63a1.25,1.25,0,0,0-.82-1.15,10.35,10.35,0,0,0-1.84-.58,8.09,8.09,0,0,1-2-.74,1.74,1.74,0,0,1-.94-1.58,1.88,1.88,0,0,1,.9-1.62,3.73,3.73,0,0,1,2.17-.59Q160.57,111.74,160.93,114.29Z"/><path class="cls-1" d="M174.58,113.05a5.15,5.15,0,0,1,0,6.1,3.93,3.93,0,0,1-5.86,0,4.66,4.66,0,0,1-1-3,4.55,4.55,0,0,1,1-3.06,3.56,3.56,0,0,1,2.91-1.31A3.67,3.67,0,0,1,174.58,113.05Zm-5.16.61a3.88,3.88,0,0,0-.73,2.45,3.84,3.84,0,0,0,.73,2.43,2.84,2.84,0,0,0,4.47,0,4,4,0,0,0,.73-2.43,4,4,0,0,0-.73-2.45,2.84,2.84,0,0,0-4.47,0Z"/><path class="cls-1" d="M182.11,108.81v.85h-1.39a1.14,1.14,0,0,0-.91.32,1.49,1.49,0,0,0-.29,1v1H182v.83h-2.48v7.44h-1V112.8h-2.21V112h2.21v-1a2.19,2.19,0,0,1,.51-1.58,2,2,0,0,1,1.57-.6Z"/><path class="cls-1" d="M194.82,113.07a5.78,5.78,0,0,1,.94,3.31H189a3.89,3.89,0,0,0,.82,2.39,2.61,2.61,0,0,0,2,.86,2.81,2.81,0,0,0,1.83-.59,3.21,3.21,0,0,0,.88-1.46h1a3.88,3.88,0,0,1-1.1,2,3.68,3.68,0,0,1-2.58.91,3.51,3.51,0,0,1-2.78-1.18,4.54,4.54,0,0,1-1.07-3.19,4.62,4.62,0,0,1,1-3,3.8,3.8,0,0,1,5.75,0Zm-4.9.35a3.63,3.63,0,0,0-.86,2.18h5.69c-.16-2-1.11-3-2.86-3A2.5,2.5,0,0,0,189.92,113.42Z"/><path class="cls-1" d="M196.72,112h1.15l2.37,3.18,2.37-3.18h1.13l-3,3.9,3.31,4.37h-1.15l-2.7-3.65-2.72,3.65h-1.15l3.33-4.37Z"/><path class="cls-1" d="M211.79,113.07a4.9,4.9,0,0,1,.91,3.06,5,5,0,0,1-.89,3,3.35,3.35,0,0,1-2.77,1.31,3,3,0,0,1-2.9-1.95v4.9h-1V112h.91v1.63a3,3,0,0,1,2.92-1.86A3.31,3.31,0,0,1,211.79,113.07Zm-5,.54a4,4,0,0,0-.69,2.45v.18a3.88,3.88,0,0,0,.74,2.45,2.42,2.42,0,0,0,2,1,2.6,2.6,0,0,0,2.18-1,4.19,4.19,0,0,0,.67-2.49,4.28,4.28,0,0,0-.66-2.5,2.51,2.51,0,0,0-2.16-1.07A2.43,2.43,0,0,0,206.8,113.61Z"/><path class="cls-1" d="M220.69,113.07a5.78,5.78,0,0,1,.94,3.31h-6.72a3.89,3.89,0,0,0,.82,2.39,2.61,2.61,0,0,0,2.05.86,2.8,2.8,0,0,0,1.82-.59,3.12,3.12,0,0,0,.88-1.46h1a3.89,3.89,0,0,1-1.11,2,3.67,3.67,0,0,1-2.57.91,3.51,3.51,0,0,1-2.79-1.18,5.18,5.18,0,0,1-.05-6.24,3.8,3.8,0,0,1,5.75,0Zm-4.9.35a3.63,3.63,0,0,0-.86,2.18h5.69c-.16-2-1.11-3-2.86-3A2.5,2.5,0,0,0,215.79,113.42Z"/><path class="cls-1" d="M227.84,111.92v1a4.73,4.73,0,0,0-1.26-.17,2.06,2.06,0,0,0-1.8,1,3.61,3.61,0,0,0-.65,2.16v4.37h-1V112h1v1.58a3.05,3.05,0,0,1,.91-1.23,2.35,2.35,0,0,1,1.6-.58A3.22,3.22,0,0,1,227.84,111.92Z"/><path class="cls-1" d="M230.46,109.23a.67.67,0,0,1,.24.56.82.82,0,0,1-.25.58.88.88,0,0,1-.56.22.82.82,0,0,1-.58-.22.8.8,0,0,1-.24-.58.67.67,0,0,1,.24-.56.75.75,0,0,1,.58-.24A.78.78,0,0,1,230.46,109.23ZM229.41,112h1v8.27h-1Z"/><path class="cls-1" d="M239.15,113.07a5.71,5.71,0,0,1,.94,3.31h-6.72a4,4,0,0,0,.82,2.39,2.61,2.61,0,0,0,2.05.86,2.8,2.8,0,0,0,1.82-.59,3,3,0,0,0,.88-1.46h1a3.82,3.82,0,0,1-1.11,2,3.67,3.67,0,0,1-2.57.91,3.54,3.54,0,0,1-2.79-1.18,5.16,5.16,0,0,1,0-6.24,3.79,3.79,0,0,1,5.74,0Zm-4.9.35a3.63,3.63,0,0,0-.86,2.18h5.7c-.16-2-1.12-3-2.87-3A2.51,2.51,0,0,0,234.25,113.42Z"/><path class="cls-1" d="M248.35,115.15v5.09h-1v-5c0-1.76-.78-2.64-2.35-2.64a2.2,2.2,0,0,0-1.67.72,2.9,2.9,0,0,0-.78,2v5h-1V112h1v1.36a3.31,3.31,0,0,1,1.12-1.17,2.9,2.9,0,0,1,1.57-.42Q248.36,111.74,248.35,115.15Z"/><path class="cls-1" d="M256.27,112.46a3.15,3.15,0,0,1,1.14,2.21h-1a2.38,2.38,0,0,0-.84-1.57,2.75,2.75,0,0,0-1.76-.53,2.5,2.5,0,0,0-2.08,1,4,4,0,0,0-.75,2.58,4.09,4.09,0,0,0,.72,2.53,2.5,2.5,0,0,0,2.1.94,2.43,2.43,0,0,0,2.65-2.35h.95a3.77,3.77,0,0,1-1.19,2.38,3.56,3.56,0,0,1-2.41.8,3.43,3.43,0,0,1-2.85-1.25,4.6,4.6,0,0,1-.94-3,4.82,4.82,0,0,1,1-3.11,3.42,3.42,0,0,1,2.83-1.31A3.83,3.83,0,0,1,256.27,112.46Z"/><path class="cls-1" d="M265.26,113.07a5.78,5.78,0,0,1,.95,3.31h-6.72a3.89,3.89,0,0,0,.81,2.39,2.63,2.63,0,0,0,2.05.86,2.78,2.78,0,0,0,1.82-.59,3,3,0,0,0,.88-1.46h1a3.88,3.88,0,0,1-1.1,2,3.7,3.7,0,0,1-2.58.91,3.51,3.51,0,0,1-2.78-1.18,5.14,5.14,0,0,1-.05-6.24,3.79,3.79,0,0,1,5.74,0Zm-4.89.35a3.64,3.64,0,0,0-.87,2.18h5.7c-.16-2-1.12-3-2.87-3A2.48,2.48,0,0,0,260.37,113.42Z"/><path class="cls-1" d="M274.61,109.23a.67.67,0,0,1,.24.56.83.83,0,0,1-.26.58.88.88,0,0,1-.56.22.82.82,0,0,1-.58-.22.8.8,0,0,1-.24-.58.67.67,0,0,1,.24-.56A.75.75,0,0,1,274,109,.8.8,0,0,1,274.61,109.23ZM273.55,112h1v8.27h-1Z"/><path class="cls-1" d="M283.72,115.15v5.09h-1v-5c0-1.76-.78-2.64-2.35-2.64a2.18,2.18,0,0,0-1.66.72,3,3,0,0,0-.79,2v5h-1V112h1v1.36a3.4,3.4,0,0,1,1.12-1.17,2.93,2.93,0,0,1,1.57-.42Q283.73,111.74,283.72,115.15Z"/><path class="cls-1" d="M290.14,112h1.07l2.24,7,2.08-7h.93l2.08,7,2.26-7h1.05L299,120.24h-.93l-2.08-7-2.11,7H293Z"/><path class="cls-1" d="M309.23,113.07a5.71,5.71,0,0,1,.94,3.31h-6.72a4,4,0,0,0,.82,2.39,2.61,2.61,0,0,0,2.05.86,2.8,2.8,0,0,0,1.82-.59,3.12,3.12,0,0,0,.88-1.46h1a3.89,3.89,0,0,1-1.11,2,3.67,3.67,0,0,1-2.57.91,3.53,3.53,0,0,1-2.79-1.18,5.18,5.18,0,0,1,0-6.24,3.8,3.8,0,0,1,5.75,0Zm-4.9.35a3.63,3.63,0,0,0-.86,2.18h5.7c-.17-2-1.12-3-2.87-3A2.5,2.5,0,0,0,304.33,113.42Z"/><path class="cls-1" d="M312,108.59h1v11.65h-1Z"/><path class="cls-1" d="M315.6,108.59h1v11.65h-1Z"/><path class="cls-1" d="M318.67,115.68h8.08v.83h-8.08Z"/><path class="cls-1" d="M328.56,108.59h1v7.55l4.59-4.17h1.31l-3.63,3.28,4,5h-1.27l-3.42-4.37-1.58,1.44v2.93h-1Z"/><path class="cls-1" d="M343.52,115.15v5.09h-1v-5c0-1.76-.79-2.64-2.35-2.64a2.19,2.19,0,0,0-1.67.72,2.9,2.9,0,0,0-.78,2v5h-1V112h1v1.36a3.23,3.23,0,0,1,1.12-1.17,2.9,2.9,0,0,1,1.57-.42C342.49,111.74,343.52,112.88,343.52,115.15Z"/><path class="cls-1" d="M352.08,113.05a5.15,5.15,0,0,1,0,6.1,3.93,3.93,0,0,1-5.86,0,4.66,4.66,0,0,1-1-3,4.55,4.55,0,0,1,1-3.06,3.56,3.56,0,0,1,2.91-1.31A3.67,3.67,0,0,1,352.08,113.05Zm-5.16.61a3.88,3.88,0,0,0-.73,2.45,3.84,3.84,0,0,0,.73,2.43,2.84,2.84,0,0,0,4.47,0,4,4,0,0,0,.73-2.43,4,4,0,0,0-.73-2.45,2.84,2.84,0,0,0-4.47,0Z"/><path class="cls-1" d="M353.85,112h1.07l2.24,7,2.08-7h.93l2.08,7,2.26-7h1.05l-2.83,8.27h-.93l-2.08-7-2.11,7h-.91Z"/><path class="cls-1" d="M373.37,115.15v5.09h-1v-5c0-1.76-.78-2.64-2.35-2.64a2.17,2.17,0,0,0-1.66.72,3,3,0,0,0-.79,2v5h-1V112h1v1.36a3.31,3.31,0,0,1,1.12-1.17,2.9,2.9,0,0,1,1.57-.42Q373.38,111.74,373.37,115.15Z"/><path class="cls-1" d="M17.49,132.81h1v11.43h-1Z"/><path class="cls-1" d="M27.51,139.15v5.09h-1v-5c0-1.76-.79-2.64-2.36-2.64a2.18,2.18,0,0,0-1.66.72,2.9,2.9,0,0,0-.78,2v5h-1V136h1v1.36a3.23,3.23,0,0,1,1.12-1.17,2.87,2.87,0,0,1,1.56-.42Q27.51,135.74,27.51,139.15Z"/><path class="cls-1" d="M31.52,133.29V136h2.16v.83H31.52v5.6a1.31,1.31,0,0,0,.19.78.92.92,0,0,0,.72.23h1v.83H32.31a1.72,1.72,0,0,1-1.38-.5,2,2,0,0,1-.37-1.34v-5.6H28.8V136h1.76v-2.28Z"/><path class="cls-1" d="M41.43,137.07a5.78,5.78,0,0,1,.94,3.31H35.65a3.89,3.89,0,0,0,.82,2.39,2.61,2.61,0,0,0,2,.86,2.81,2.81,0,0,0,1.83-.59,3.21,3.21,0,0,0,.88-1.46h1a3.88,3.88,0,0,1-1.1,2,3.68,3.68,0,0,1-2.58.91,3.51,3.51,0,0,1-2.78-1.18,4.54,4.54,0,0,1-1.07-3.19,4.62,4.62,0,0,1,1-3.05,3.8,3.8,0,0,1,5.75,0Zm-4.9.35a3.63,3.63,0,0,0-.86,2.18h5.69c-.16-2-1.11-3-2.86-3A2.5,2.5,0,0,0,36.53,137.42Z"/><path class="cls-1" d="M48.58,135.92v1a4.75,4.75,0,0,0-1.27-.17,2.05,2.05,0,0,0-1.79,1,3.55,3.55,0,0,0-.65,2.16v4.37h-1V136h1v1.58a3,3,0,0,1,.91-1.23,2.35,2.35,0,0,1,1.6-.58A3.22,3.22,0,0,1,48.58,135.92Z"/><path class="cls-1" d="M56.38,139.15v5.09h-1v-5c0-1.76-.78-2.64-2.35-2.64a2.18,2.18,0,0,0-1.66.72,2.9,2.9,0,0,0-.78,2v5h-1V136h1v1.36a3.23,3.23,0,0,1,1.12-1.17,2.87,2.87,0,0,1,1.56-.42Q56.39,135.74,56.38,139.15Z"/><path class="cls-1" d="M64.69,137.07a5.71,5.71,0,0,1,.94,3.31H58.91a4,4,0,0,0,.82,2.39,2.61,2.61,0,0,0,2.05.86A2.8,2.8,0,0,0,63.6,143a3,3,0,0,0,.88-1.46h1a3.82,3.82,0,0,1-1.11,2,3.67,3.67,0,0,1-2.57.91A3.54,3.54,0,0,1,59,143.28,5.16,5.16,0,0,1,59,137a3.79,3.79,0,0,1,5.74,0Zm-4.9.35a3.63,3.63,0,0,0-.86,2.18h5.7c-.16-2-1.12-3-2.87-3A2.5,2.5,0,0,0,59.79,137.42Z"/><path class="cls-1" d="M69.17,133.29V136h2.16v.83H69.17v5.6a1.24,1.24,0,0,0,.19.78.92.92,0,0,0,.72.23h1v.83H70a1.68,1.68,0,0,1-1.37-.5,2,2,0,0,1-.37-1.34v-5.6H66.45V136h1.76v-2.28Z"/><path class="cls-1" d="M84,136.46a3.11,3.11,0,0,1,1.13,2.21h-1a2.33,2.33,0,0,0-.83-1.57,2.77,2.77,0,0,0-1.76-.53,2.49,2.49,0,0,0-2.08,1,4,4,0,0,0-.75,2.58,4.09,4.09,0,0,0,.72,2.53,2.5,2.5,0,0,0,2.1.94,2.43,2.43,0,0,0,2.65-2.35h1A3.77,3.77,0,0,1,84,143.66a3.58,3.58,0,0,1-2.41.8,3.43,3.43,0,0,1-2.85-1.25,4.6,4.6,0,0,1-.95-3.05,4.82,4.82,0,0,1,1-3.11,3.4,3.4,0,0,1,2.83-1.31A3.85,3.85,0,0,1,84,136.46Z"/><path class="cls-1" d="M93.26,137.05a5.11,5.11,0,0,1,0,6.1,3.92,3.92,0,0,1-5.85,0,4.66,4.66,0,0,1-1-3,4.6,4.6,0,0,1,1-3.06,3.59,3.59,0,0,1,2.92-1.31A3.63,3.63,0,0,1,93.26,137.05Zm-5.15.61a3.88,3.88,0,0,0-.73,2.45,3.84,3.84,0,0,0,.73,2.43,2.84,2.84,0,0,0,4.47,0,4,4,0,0,0,.73-2.43,4,4,0,0,0-.73-2.45,2.84,2.84,0,0,0-4.47,0Z"/><path class="cls-1" d="M101.92,137.44a3.23,3.23,0,0,1,1.11-1.27,2.6,2.6,0,0,1,1.5-.43,2.7,2.7,0,0,1,2.08.82,3.25,3.25,0,0,1,.75,2.27v5.41h-1V139a2.7,2.7,0,0,0-.48-1.76,2,2,0,0,0-1.65-.63,1.89,1.89,0,0,0-1.5.69,2.4,2.4,0,0,0-.61,1.71v5.27h-1V139c0-1.59-.68-2.39-2.06-2.39a1.88,1.88,0,0,0-1.55.76,2.65,2.65,0,0,0-.64,1.82v5.09H96V136h1v1.24a2.7,2.7,0,0,1,2.4-1.47A2.5,2.5,0,0,1,101.92,137.44Z"/><path class="cls-1" d="M116,137.07a5.56,5.56,0,0,1,0,6.08,3.33,3.33,0,0,1-2.77,1.31,3,3,0,0,1-2.89-2v4.9h-1V136h.91v1.63a3,3,0,0,1,2.91-1.86A3.34,3.34,0,0,1,116,137.07Zm-5,.54a4,4,0,0,0-.69,2.45v.18a3.88,3.88,0,0,0,.74,2.45,2.43,2.43,0,0,0,2,1,2.58,2.58,0,0,0,2.17-1,4.19,4.19,0,0,0,.68-2.49,4.28,4.28,0,0,0-.66-2.5,2.51,2.51,0,0,0-2.16-1.07A2.43,2.43,0,0,0,111,137.61Z"/><path class="cls-1" d="M124.67,136.69a3.18,3.18,0,0,1,.74,2.22v5.33h-.91v-1.59a4.37,4.37,0,0,1-1.35,1.24,4.2,4.2,0,0,1-2.16.57,3,3,0,0,1-2-.62,2.12,2.12,0,0,1-.76-1.71,2.46,2.46,0,0,1,1.3-2.31,5.61,5.61,0,0,1,2.77-.59l2.11,0v-.3a2.1,2.1,0,0,0-2.4-2.35,2.84,2.84,0,0,0-1.73.46,2,2,0,0,0-.85,1.44h-.94a2.9,2.9,0,0,1,1.17-2.08,4,4,0,0,1,2.4-.64A3.24,3.24,0,0,1,124.67,136.69Zm-.22,3.31h-2.07c-2.09,0-3.13.71-3.13,2.1a1.36,1.36,0,0,0,.53,1.12,2.09,2.09,0,0,0,1.4.43,3.47,3.47,0,0,0,2.31-.86,2.46,2.46,0,0,0,1-1.84Z"/><path class="cls-1" d="M134.14,139.15v5.09h-1v-5c0-1.76-.78-2.64-2.35-2.64a2.18,2.18,0,0,0-1.66.72,3,3,0,0,0-.79,2v5h-1V136h1v1.36a3.4,3.4,0,0,1,1.12-1.17,2.93,2.93,0,0,1,1.57-.42Q134.15,135.74,134.14,139.15Z"/><path class="cls-1" d="M137.7,133.23a.67.67,0,0,1,.24.56.83.83,0,0,1-.26.58.88.88,0,0,1-.56.22.83.83,0,0,1-.58-.22.8.8,0,0,1-.24-.58.67.67,0,0,1,.24-.56.77.77,0,0,1,.58-.24A.8.8,0,0,1,137.7,133.23ZM136.64,136h1v8.27h-1Z"/><path class="cls-1" d="M146.38,137.07a5.71,5.71,0,0,1,1,3.31h-6.72a3.89,3.89,0,0,0,.81,2.39,2.64,2.64,0,0,0,2.05.86,2.81,2.81,0,0,0,1.83-.59,3.21,3.21,0,0,0,.88-1.46h1a3.88,3.88,0,0,1-1.1,2,3.68,3.68,0,0,1-2.58.91,3.51,3.51,0,0,1-2.78-1.18,4.54,4.54,0,0,1-1.07-3.19,4.62,4.62,0,0,1,1-3.05,3.79,3.79,0,0,1,5.74,0Zm-4.89.35a3.7,3.7,0,0,0-.87,2.18h5.7c-.16-2-1.11-3-2.86-3A2.48,2.48,0,0,0,141.49,137.42Z"/><path class="cls-1" d="M155,138.29H154a1.91,1.91,0,0,0-.69-1.27,2.63,2.63,0,0,0-1.68-.45,2.7,2.7,0,0,0-1.48.37,1.15,1.15,0,0,0-.58,1,1.14,1.14,0,0,0,.74,1,11.74,11.74,0,0,0,1.74.58,7.88,7.88,0,0,1,2.14.77,1.85,1.85,0,0,1,1,1.66c0,1.67-1.12,2.51-3.36,2.51s-3.28-.94-3.48-2.83h1a2.23,2.23,0,0,0,.77,1.57,2.83,2.83,0,0,0,1.72.43c1.6,0,2.4-.54,2.4-1.63a1.24,1.24,0,0,0-.81-1.15,10.35,10.35,0,0,0-1.84-.58,8.09,8.09,0,0,1-2-.74,1.74,1.74,0,0,1-.94-1.58,1.89,1.89,0,0,1,.89-1.62,3.77,3.77,0,0,1,2.18-.59Q154.62,135.74,155,138.29Z"/><path class="cls-1" d="M158.74,144a2.94,2.94,0,0,1-1.6,2.76l-.36-.56a2.53,2.53,0,0,0,1.24-1.95l-.24,0a.88.88,0,0,1-.6-.21.75.75,0,0,1-.22-.58.77.77,0,0,1,.21-.59.78.78,0,0,1,.59-.22C158.41,142.64,158.74,143.08,158.74,144Z"/><path class="cls-1" d="M172.29,136.69a3.18,3.18,0,0,1,.73,2.22v5.33h-.91v-1.59a4.44,4.44,0,0,1-1.34,1.24,4.2,4.2,0,0,1-2.16.57,3,3,0,0,1-2-.62,2.14,2.14,0,0,1-.75-1.71,2.45,2.45,0,0,1,1.29-2.31,5.67,5.67,0,0,1,2.77-.59l2.11,0v-.3a2.1,2.1,0,0,0-2.4-2.35,2.81,2.81,0,0,0-1.72.46,2,2,0,0,0-.85,1.44h-1a2.9,2.9,0,0,1,1.17-2.08,4,4,0,0,1,2.4-.64A3.27,3.27,0,0,1,172.29,136.69Zm-.23,3.31H170c-2.09,0-3.14.71-3.14,2.1a1.39,1.39,0,0,0,.53,1.12,2.1,2.1,0,0,0,1.41.43,3.46,3.46,0,0,0,2.3-.86,2.46,2.46,0,0,0,1-1.84Z"/><path class="cls-1" d="M181.76,139.15v5.09h-1v-5c0-1.76-.78-2.64-2.35-2.64a2.2,2.2,0,0,0-1.67.72,2.9,2.9,0,0,0-.78,2v5h-1V136h1v1.36a3.31,3.31,0,0,1,1.12-1.17,2.9,2.9,0,0,1,1.57-.42Q181.77,135.74,181.76,139.15Z"/><path class="cls-1" d="M190,132.59h1v11.65h-.92v-1.63a3,3,0,0,1-2.89,1.85,3.36,3.36,0,0,1-2.8-1.31,4.9,4.9,0,0,1-.91-3.06,4.84,4.84,0,0,1,.91-3,3.23,3.23,0,0,1,2.75-1.33,3,3,0,0,1,2.9,2Zm-4.9,5a4,4,0,0,0-.69,2.48,4.28,4.28,0,0,0,.67,2.5,2.51,2.51,0,0,0,2.16,1.06,2.46,2.46,0,0,0,2.1-1,4,4,0,0,0,.69-2.4V140a4,4,0,0,0-.74-2.48,2.39,2.39,0,0,0-2-1A2.54,2.54,0,0,0,185.12,137.61Z"/><path class="cls-1" d="M204.4,136.69a3.18,3.18,0,0,1,.74,2.22v5.33h-.92v-1.59a4.44,4.44,0,0,1-1.34,1.24,4.2,4.2,0,0,1-2.16.57,3,3,0,0,1-2-.62,2.14,2.14,0,0,1-.75-1.71,2.44,2.44,0,0,1,1.3-2.31,5.6,5.6,0,0,1,2.76-.59l2.12,0v-.3a2.1,2.1,0,0,0-2.4-2.35,2.82,2.82,0,0,0-1.73.46,2,2,0,0,0-.85,1.44h-.94a2.86,2.86,0,0,1,1.16-2.08,4,4,0,0,1,2.4-.64A3.27,3.27,0,0,1,204.4,136.69Zm-.22,3.31h-2.07c-2.09,0-3.13.71-3.13,2.1a1.38,1.38,0,0,0,.52,1.12,2.1,2.1,0,0,0,1.41.43,3.49,3.49,0,0,0,2.31-.86,2.46,2.46,0,0,0,1-1.84Z"/><path class="cls-1" d="M212.78,132.59h1v11.65h-1Z"/><path class="cls-1" d="M222.61,137.05a5.15,5.15,0,0,1,0,6.1,3.93,3.93,0,0,1-5.86,0,4.66,4.66,0,0,1-1-3,4.55,4.55,0,0,1,1-3.06,3.56,3.56,0,0,1,2.91-1.31A3.67,3.67,0,0,1,222.61,137.05Zm-5.15.61a3.82,3.82,0,0,0-.74,2.45,3.79,3.79,0,0,0,.74,2.43,2.83,2.83,0,0,0,4.46,0,4,4,0,0,0,.73-2.43,4,4,0,0,0-.73-2.45,2.64,2.64,0,0,0-2.24-1.09A2.61,2.61,0,0,0,217.46,137.66Z"/><path class="cls-1" d="M227.31,133.29V136h2.16v.83h-2.16v5.6a1.31,1.31,0,0,0,.19.78.92.92,0,0,0,.72.23h1v.83h-1.17a1.71,1.71,0,0,1-1.37-.5,2,2,0,0,1-.37-1.34v-5.6h-1.76V136h1.76v-2.28Z"/><path class="cls-1" d="M242.8,137.05a5.11,5.11,0,0,1,0,6.1,3.93,3.93,0,0,1-5.86,0,4.66,4.66,0,0,1-1-3,4.6,4.6,0,0,1,1-3.06,3.56,3.56,0,0,1,2.91-1.31A3.65,3.65,0,0,1,242.8,137.05Zm-5.15.61a3.88,3.88,0,0,0-.74,2.45,3.84,3.84,0,0,0,.74,2.43,2.83,2.83,0,0,0,4.46,0,4,4,0,0,0,.74-2.43,4,4,0,0,0-.74-2.45,2.83,2.83,0,0,0-4.46,0Z"/><path class="cls-1" d="M250.33,132.81v.85h-1.39a1.15,1.15,0,0,0-.91.32,1.49,1.49,0,0,0-.29,1v1h2.48v.83h-2.48v7.44h-1V136.8h-2.21V136h2.21v-1a2.19,2.19,0,0,1,.51-1.58,2,2,0,0,1,1.57-.6Z"/><path class="cls-1" d="M262.83,136.69a3.18,3.18,0,0,1,.74,2.22v5.33h-.92v-1.59a4.44,4.44,0,0,1-1.34,1.24,4.2,4.2,0,0,1-2.16.57,3,3,0,0,1-2-.62,2.14,2.14,0,0,1-.75-1.71,2.44,2.44,0,0,1,1.3-2.31,5.6,5.6,0,0,1,2.76-.59l2.12,0v-.3a2.1,2.1,0,0,0-2.4-2.35,2.82,2.82,0,0,0-1.73.46,2,2,0,0,0-.85,1.44h-.94a2.86,2.86,0,0,1,1.16-2.08,4,4,0,0,1,2.4-.64A3.25,3.25,0,0,1,262.83,136.69Zm-.22,3.31h-2.07c-2.09,0-3.13.71-3.13,2.1a1.38,1.38,0,0,0,.52,1.12,2.14,2.14,0,0,0,1.41.43,3.49,3.49,0,0,0,2.31-.86,2.46,2.46,0,0,0,1-1.84Z"/><path class="cls-1" d="M271.49,136.46a3.18,3.18,0,0,1,1.13,2.21h-1a2.37,2.37,0,0,0-.83-1.57,2.79,2.79,0,0,0-1.76-.53,2.47,2.47,0,0,0-2.08,1,4,4,0,0,0-.75,2.58,4.09,4.09,0,0,0,.72,2.53,2.49,2.49,0,0,0,2.09.94,2.44,2.44,0,0,0,2.66-2.35h.94a3.76,3.76,0,0,1-1.18,2.38,3.6,3.6,0,0,1-2.42.8,3.42,3.42,0,0,1-2.84-1.25,4.6,4.6,0,0,1-.95-3.05,4.82,4.82,0,0,1,1-3.11,3.39,3.39,0,0,1,2.83-1.31A3.85,3.85,0,0,1,271.49,136.46Z"/><path class="cls-1" d="M274.19,132.59h1v4.88a3.11,3.11,0,0,1,1.15-1.3,3,3,0,0,1,1.57-.43,2.89,2.89,0,0,1,2.2.83,3.32,3.32,0,0,1,.8,2.39v5.28h-1v-5.15a2.77,2.77,0,0,0-.6-1.88,2.32,2.32,0,0,0-1.72-.64,2.21,2.21,0,0,0-1.74.84,3,3,0,0,0-.7,2v4.79h-1Z"/><path class="cls-1" d="M284.45,133.23a.67.67,0,0,1,.24.56.83.83,0,0,1-.26.58.88.88,0,0,1-.56.22.82.82,0,0,1-.58-.22.8.8,0,0,1-.24-.58.67.67,0,0,1,.24-.56.75.75,0,0,1,.58-.24A.8.8,0,0,1,284.45,133.23ZM283.39,136h1v8.27h-1Z"/><path class="cls-1" d="M293.13,137.07a5.78,5.78,0,0,1,.95,3.31h-6.72a3.89,3.89,0,0,0,.81,2.39,2.63,2.63,0,0,0,2.05.86A2.78,2.78,0,0,0,292,143a3,3,0,0,0,.88-1.46h1a3.88,3.88,0,0,1-1.1,2,3.68,3.68,0,0,1-2.58.91,3.51,3.51,0,0,1-2.78-1.18,4.54,4.54,0,0,1-1.07-3.19,4.62,4.62,0,0,1,1-3.05,3.79,3.79,0,0,1,5.74,0Zm-4.89.35a3.7,3.7,0,0,0-.87,2.18h5.7c-.16-2-1.12-3-2.86-3A2.48,2.48,0,0,0,288.24,137.42Z"/><path class="cls-1" d="M294.69,136h1.05l2.61,7.05,2.59-7.05H302l-3.16,8.27h-1Z"/><path class="cls-1" d="M309.39,137.07a5.71,5.71,0,0,1,.94,3.31h-6.72a4,4,0,0,0,.82,2.39,2.61,2.61,0,0,0,2.05.86,2.8,2.8,0,0,0,1.82-.59,3.12,3.12,0,0,0,.88-1.46h1a3.89,3.89,0,0,1-1.11,2,3.67,3.67,0,0,1-2.57.91,3.53,3.53,0,0,1-2.79-1.18,5.18,5.18,0,0,1-.05-6.24,3.8,3.8,0,0,1,5.75,0Zm-4.9.35a3.63,3.63,0,0,0-.86,2.18h5.7c-.16-2-1.12-3-2.87-3A2.5,2.5,0,0,0,304.49,137.42Z"/><path class="cls-1" d="M317.82,137.44a3.29,3.29,0,0,1,1.1-1.27,2.66,2.66,0,0,1,1.51-.43,2.7,2.7,0,0,1,2.08.82,3.25,3.25,0,0,1,.75,2.27v5.41h-1V139a2.7,2.7,0,0,0-.48-1.76,2,2,0,0,0-1.65-.63,1.88,1.88,0,0,0-1.5.69,2.4,2.4,0,0,0-.61,1.71v5.27h-1V139c0-1.59-.68-2.39-2.06-2.39a1.88,1.88,0,0,0-1.55.76,2.65,2.65,0,0,0-.64,1.82v5.09h-1V136h1v1.24a2.69,2.69,0,0,1,2.4-1.47A2.5,2.5,0,0,1,317.82,137.44Z"/><path class="cls-1" d="M331.56,137.07a5.71,5.71,0,0,1,.95,3.31h-6.72a3.89,3.89,0,0,0,.81,2.39,2.64,2.64,0,0,0,2,.86,2.81,2.81,0,0,0,1.83-.59,3.21,3.21,0,0,0,.88-1.46h1a3.88,3.88,0,0,1-1.1,2,3.68,3.68,0,0,1-2.58.91,3.51,3.51,0,0,1-2.78-1.18,4.54,4.54,0,0,1-1.07-3.19,4.62,4.62,0,0,1,1-3.05,3.79,3.79,0,0,1,5.74,0Zm-4.89.35a3.7,3.7,0,0,0-.87,2.18h5.7c-.16-2-1.11-3-2.86-3A2.5,2.5,0,0,0,326.67,137.42Z"/><path class="cls-1" d="M340.76,139.15v5.09h-1v-5c0-1.76-.78-2.64-2.35-2.64a2.18,2.18,0,0,0-1.66.72,3,3,0,0,0-.79,2v5h-1V136h1v1.36a3.4,3.4,0,0,1,1.12-1.17,2.9,2.9,0,0,1,1.57-.42Q340.77,135.74,340.76,139.15Z"/><path class="cls-1" d="M344.78,133.29V136h2.16v.83h-2.16v5.6a1.24,1.24,0,0,0,.19.78.92.92,0,0,0,.72.23h1v.83h-1.17a1.7,1.7,0,0,1-1.37-.5,2,2,0,0,1-.37-1.34v-5.6h-1.76V136h1.76v-2.28Z"/><path class="cls-1" d="M354.51,138.29h-.95a1.94,1.94,0,0,0-.68-1.27,2.67,2.67,0,0,0-1.68-.45,2.71,2.71,0,0,0-1.49.37,1.15,1.15,0,0,0-.58,1,1.14,1.14,0,0,0,.74,1,11.74,11.74,0,0,0,1.74.58,8,8,0,0,1,2.15.77,1.86,1.86,0,0,1,1,1.66c0,1.67-1.12,2.51-3.36,2.51s-3.28-.94-3.47-2.83h.94a2.27,2.27,0,0,0,.77,1.57,2.85,2.85,0,0,0,1.73.43c1.6,0,2.4-.54,2.4-1.63a1.25,1.25,0,0,0-.82-1.15,10.35,10.35,0,0,0-1.84-.58,8.09,8.09,0,0,1-2-.74,1.76,1.76,0,0,1-.94-1.58,1.88,1.88,0,0,1,.9-1.62,3.73,3.73,0,0,1,2.17-.59Q354.15,135.74,354.51,138.29Z"/><path class="cls-1" d="M363.15,133.23a.67.67,0,0,1,.24.56.83.83,0,0,1-.26.58.86.86,0,0,1-.56.22.81.81,0,0,1-.57-.22.8.8,0,0,1-.24-.58.67.67,0,0,1,.24-.56.75.75,0,0,1,.57-.24A.78.78,0,0,1,363.15,133.23ZM362.09,136h1v8.27h-1Z"/><path class="cls-1" d="M372.27,139.15v5.09h-1v-5c0-1.76-.79-2.64-2.35-2.64a2.19,2.19,0,0,0-1.67.72,2.9,2.9,0,0,0-.78,2v5h-1V136h1v1.36a3.31,3.31,0,0,1,1.12-1.17,2.9,2.9,0,0,1,1.57-.42C371.24,135.74,372.27,136.88,372.27,139.15Z"/><path class="cls-1" d="M125.74,157.29V160h2.16v.83h-2.16v5.6a1.24,1.24,0,0,0,.2.78.9.9,0,0,0,.72.23h1v.83h-1.17a1.72,1.72,0,0,1-1.38-.5,2,2,0,0,1-.37-1.34v-5.6H123V160h1.76v-2.28Z"/><path class="cls-1" d="M129.36,156.59h1v4.88a3.18,3.18,0,0,1,1.15-1.3,3,3,0,0,1,1.57-.43,2.88,2.88,0,0,1,2.2.83,3.32,3.32,0,0,1,.8,2.39v5.28h-1v-5.15a2.77,2.77,0,0,0-.6-1.88,2.32,2.32,0,0,0-1.72-.64,2.21,2.21,0,0,0-1.74.84,3,3,0,0,0-.7,2v4.79h-1Z"/><path class="cls-1" d="M144.37,161.07a5.71,5.71,0,0,1,.94,3.31h-6.72a4,4,0,0,0,.82,2.39,2.61,2.61,0,0,0,2.05.86,2.8,2.8,0,0,0,1.82-.59,3.12,3.12,0,0,0,.88-1.46h1a3.89,3.89,0,0,1-1.11,2,3.67,3.67,0,0,1-2.57.91,3.53,3.53,0,0,1-2.79-1.18,5.18,5.18,0,0,1,0-6.24,3.8,3.8,0,0,1,5.75,0Zm-4.9.35a3.63,3.63,0,0,0-.86,2.18h5.69c-.16-2-1.11-3-2.86-3A2.5,2.5,0,0,0,139.47,161.42Z"/><path class="cls-1" d="M152.18,156.59h1v5.12a3,3,0,0,1,2.89-2,3.22,3.22,0,0,1,2.75,1.33,4.85,4.85,0,0,1,.92,3,4.91,4.91,0,0,1-.92,3.06,3.35,3.35,0,0,1-2.78,1.31,3,3,0,0,1-2.91-1.85v1.63h-.91Zm1.66,5a3.93,3.93,0,0,0-.74,2.48v.19a3.92,3.92,0,0,0,.69,2.4,2.44,2.44,0,0,0,2.1,1,2.52,2.52,0,0,0,2.16-1.06,4.2,4.2,0,0,0,.67-2.5,4.07,4.07,0,0,0-.69-2.48,2.53,2.53,0,0,0-2.17-1.05A2.37,2.37,0,0,0,153.84,161.55Z"/><path class="cls-1" d="M161.7,156.59h1v11.65h-1Z"/><path class="cls-1" d="M171.52,161.05a5.11,5.11,0,0,1,0,6.1,3.93,3.93,0,0,1-5.86,0,4.66,4.66,0,0,1-1-3,4.6,4.6,0,0,1,1-3.06,3.57,3.57,0,0,1,2.91-1.31A3.65,3.65,0,0,1,171.52,161.05Zm-5.15.61a3.88,3.88,0,0,0-.74,2.45,3.84,3.84,0,0,0,.74,2.43,2.83,2.83,0,0,0,4.46,0,4,4,0,0,0,.74-2.43,4,4,0,0,0-.74-2.45,2.83,2.83,0,0,0-4.46,0Z"/><path class="cls-1" d="M180.13,160.46a3.11,3.11,0,0,1,1.13,2.21h-1a2.33,2.33,0,0,0-.83-1.57,2.77,2.77,0,0,0-1.76-.53,2.49,2.49,0,0,0-2.08,1,4,4,0,0,0-.75,2.58,4.09,4.09,0,0,0,.72,2.53,2.5,2.5,0,0,0,2.1.94,2.43,2.43,0,0,0,2.65-2.35h1a3.77,3.77,0,0,1-1.19,2.38,3.58,3.58,0,0,1-2.41.8,3.43,3.43,0,0,1-2.85-1.25,4.6,4.6,0,0,1-.95-3.05,4.82,4.82,0,0,1,1-3.11,3.4,3.4,0,0,1,2.83-1.31A3.85,3.85,0,0,1,180.13,160.46Z"/><path class="cls-1" d="M182.83,156.59h1v7.55l4.59-4.17h1.32l-3.64,3.28,4,5H188.8l-3.42-4.37-1.59,1.44v2.93h-1Z"/><path class="cls-1" d="M197,160.46a3.18,3.18,0,0,1,1.13,2.21h-1a2.37,2.37,0,0,0-.83-1.57,2.77,2.77,0,0,0-1.76-.53,2.47,2.47,0,0,0-2.08,1,4,4,0,0,0-.75,2.58,4.09,4.09,0,0,0,.72,2.53,2.49,2.49,0,0,0,2.09.94,2.44,2.44,0,0,0,2.66-2.35h.94a3.76,3.76,0,0,1-1.18,2.38,3.58,3.58,0,0,1-2.42.8,3.42,3.42,0,0,1-2.84-1.25,4.6,4.6,0,0,1-.95-3.05,4.82,4.82,0,0,1,1-3.11,3.39,3.39,0,0,1,2.83-1.31A3.85,3.85,0,0,1,197,160.46Z"/><path class="cls-1" d="M199.68,156.59h1v4.88a3.11,3.11,0,0,1,1.15-1.3,3,3,0,0,1,1.57-.43,2.89,2.89,0,0,1,2.2.83,3.32,3.32,0,0,1,.8,2.39v5.28h-1v-5.15a2.73,2.73,0,0,0-.61-1.88,2.29,2.29,0,0,0-1.71-.64,2.21,2.21,0,0,0-1.74.84,3,3,0,0,0-.7,2v4.79h-1Z"/><path class="cls-1" d="M214.48,160.69a3.18,3.18,0,0,1,.74,2.22v5.33h-.92v-1.59a4.44,4.44,0,0,1-1.34,1.24,4.2,4.2,0,0,1-2.16.57,3,3,0,0,1-2-.62,2.14,2.14,0,0,1-.75-1.71,2.44,2.44,0,0,1,1.3-2.31,5.6,5.6,0,0,1,2.76-.59l2.12,0v-.3a2.1,2.1,0,0,0-2.4-2.35,2.82,2.82,0,0,0-1.73.46,2,2,0,0,0-.85,1.44h-.94a2.86,2.86,0,0,1,1.16-2.08,4,4,0,0,1,2.4-.64A3.27,3.27,0,0,1,214.48,160.69Zm-.22,3.31h-2.07c-2.09,0-3.13.71-3.13,2.1a1.38,1.38,0,0,0,.52,1.12,2.1,2.1,0,0,0,1.41.43,3.49,3.49,0,0,0,2.31-.86,2.46,2.46,0,0,0,1-1.84Z"/><path class="cls-1" d="M218.77,157.23a.67.67,0,0,1,.24.56.83.83,0,0,1-.26.58.88.88,0,0,1-.56.22.77.77,0,0,1-.81-.8.69.69,0,0,1,.23-.56.77.77,0,0,1,.58-.24A.78.78,0,0,1,218.77,157.23ZM217.71,160h1v8.27h-1Z"/><path class="cls-1" d="M227.89,163.15v5.09h-1v-5c0-1.76-.79-2.64-2.35-2.64a2.19,2.19,0,0,0-1.67.72,2.9,2.9,0,0,0-.78,2v5h-1V160h1v1.36a3.31,3.31,0,0,1,1.12-1.17,2.9,2.9,0,0,1,1.57-.42C226.86,159.74,227.89,160.88,227.89,163.15Z"/><path class="cls-1" d="M240.06,156.81v.85h-1.39a1.14,1.14,0,0,0-.91.32,1.49,1.49,0,0,0-.29,1v1h5.06v8.27h-1V160.8h-4.1v7.44h-1V160.8H234.3V160h2.21v-1a2.19,2.19,0,0,1,.51-1.58,2,2,0,0,1,1.57-.6Z"/><path class="cls-1" d="M251.13,161.07a5.71,5.71,0,0,1,1,3.31h-6.72a3.89,3.89,0,0,0,.81,2.39,2.64,2.64,0,0,0,2.05.86,2.81,2.81,0,0,0,1.83-.59,3.21,3.21,0,0,0,.88-1.46h1a3.88,3.88,0,0,1-1.1,2,3.68,3.68,0,0,1-2.58.91,3.51,3.51,0,0,1-2.78-1.18,4.54,4.54,0,0,1-1.07-3.19,4.62,4.62,0,0,1,1-3.05,3.79,3.79,0,0,1,5.74,0Zm-4.89.35a3.63,3.63,0,0,0-.86,2.18h5.69c-.16-2-1.11-3-2.86-3A2.5,2.5,0,0,0,246.24,161.42Z"/><path class="cls-1" d="M253.92,156.59h1v11.65h-1Z"/><path class="cls-1" d="M263.44,156.59h1v11.65h-.91v-1.63a3,3,0,0,1-2.9,1.85,3.37,3.37,0,0,1-2.8-1.31,4.9,4.9,0,0,1-.91-3.06,4.84,4.84,0,0,1,.91-3,3.23,3.23,0,0,1,2.75-1.33,3,3,0,0,1,2.9,2Zm-4.9,5a4,4,0,0,0-.69,2.48,4.21,4.21,0,0,0,.68,2.5,2.5,2.5,0,0,0,2.16,1.06,2.46,2.46,0,0,0,2.09-1,4,4,0,0,0,.69-2.4V164a4,4,0,0,0-.74-2.48,2.39,2.39,0,0,0-2-1A2.54,2.54,0,0,0,258.54,161.61Z"/><path class="cls-1" d="M268.05,166.86a.73.73,0,0,1,.24.58.79.79,0,0,1-.26.57.84.84,0,0,1-.56.23.82.82,0,0,1-.82-.8.73.73,0,0,1,.24-.58.75.75,0,0,1,.58-.22A.78.78,0,0,1,268.05,166.86Z"/><path class="cls-1" d="M163.39,7h3.09l6,13.73h.07L178.48,7h3.1V24.09H179V11.85h-.09l-5.26,12.24h-2.25L166.1,11.85H166V24.09h-2.61Z"/><path class="cls-1" d="M187.77,7.19a1.54,1.54,0,0,1,.5,1.22,1.71,1.71,0,0,1-.52,1.25,1.87,1.87,0,0,1-2.5,0,1.7,1.7,0,0,1-.5-1.25,1.58,1.58,0,0,1,.5-1.22,1.89,1.89,0,0,1,2.52,0Zm-2.54,4.49h2.54V24.09h-2.54Z"/><path class="cls-1" d="M200.15,13.33V11.68h2.55V23.27c0,3.94-1.93,5.9-5.78,5.9a6.73,6.73,0,0,1-4-1,4.55,4.55,0,0,1-1.71-3.05h2.54a2.27,2.27,0,0,0,.92,1.56,4.14,4.14,0,0,0,2.21.46q3.22,0,3.23-3.51V21.73a4.3,4.3,0,0,1-3.79,2.07,5.26,5.26,0,0,1-4.08-1.71,6.27,6.27,0,0,1-1.56-4.48,6.44,6.44,0,0,1,1.56-4.52,5.2,5.2,0,0,1,4.08-1.75A4.31,4.31,0,0,1,200.15,13.33Zm-5.9,1.2a4.59,4.59,0,0,0-.91,3.08,5,5,0,0,0,.72,2.85,3,3,0,0,0,2.69,1.25,3.18,3.18,0,0,0,2.54-1.08,4.84,4.84,0,0,0,.89-3,4.94,4.94,0,0,0-.89-3.08,3.09,3.09,0,0,0-2.54-1.12A2.91,2.91,0,0,0,194.25,14.53Z"/><path class="cls-1" d="M205.58,11.68h2.54v7.56a3.27,3.27,0,0,0,.67,2.3,2.91,2.91,0,0,0,4-.07,4.6,4.6,0,0,0,1.2-2.21V11.68h2.54V24.09H214V22.41a4.81,4.81,0,0,1-3.91,2c-3,0-4.49-1.67-4.49-5Z"/><path class="cls-1" d="M229.31,13.41a8.31,8.31,0,0,1,1.49,5.18h-9.41a4.62,4.62,0,0,0,1,2.78,3.07,3.07,0,0,0,2.37,1,3.5,3.5,0,0,0,2.16-.62A4.13,4.13,0,0,0,228,20.1h2.55A5.82,5.82,0,0,1,228.88,23a6,6,0,0,1-4.1,1.41,5.68,5.68,0,0,1-4.35-1.7,6.72,6.72,0,0,1-1.72-4.85,6.72,6.72,0,0,1,1.63-4.63,5.33,5.33,0,0,1,4.34-1.9A5.43,5.43,0,0,1,229.31,13.41Zm-6.84.86a4.35,4.35,0,0,0-1,2.4h6.7q-.36-3.24-3.39-3.24A3.08,3.08,0,0,0,222.47,14.27Z"/><path class="cls-1" d="M233.25,6.61h2.54V24.09h-2.54Z"/><path class="cls-1" d="M105.05,46.23h4.68A6.1,6.1,0,0,1,114.45,48,6.6,6.6,0,0,1,116,52.66a6.68,6.68,0,0,1-1.55,4.7,6.15,6.15,0,0,1-4.71,1.72h-4.65Zm2,1.68v9.5h2.33a4.81,4.81,0,0,0,3.58-1.17A5,5,0,0,0,114,52.66a5.08,5.08,0,0,0-1.1-3.6,4.83,4.83,0,0,0-3.57-1.15Z"/><path class="cls-1" d="M125.2,51.08A6.26,6.26,0,0,1,126.31,55h-7.06a3.51,3.51,0,0,0,.74,2.09,2.33,2.33,0,0,0,1.79.72,2.63,2.63,0,0,0,1.62-.47,3.05,3.05,0,0,0,.84-1.2h1.91a4.22,4.22,0,0,1-1.28,2.17,4.53,4.53,0,0,1-3.08,1.07,4.22,4.22,0,0,1-3.25-1.28,5,5,0,0,1-1.3-3.64A5.07,5.07,0,0,1,118.46,51a4,4,0,0,1,3.26-1.42A4.07,4.07,0,0,1,125.2,51.08Zm-5.13.64a3.22,3.22,0,0,0-.78,1.8h5a2.35,2.35,0,0,0-2.53-2.43A2.31,2.31,0,0,0,120.07,51.72Z"/><path class="cls-1" d="M126.94,49.78H129l2.34,6.93,2.34-6.93h2.07l-3.46,9.3h-1.9Z"/><path class="cls-1" d="M144.35,51.08A6.26,6.26,0,0,1,145.46,55h-7.05a3.44,3.44,0,0,0,.73,2.09,2.33,2.33,0,0,0,1.79.72,2.6,2.6,0,0,0,1.62-.47,3.05,3.05,0,0,0,.84-1.2h1.91A4.22,4.22,0,0,1,144,58.27a4.51,4.51,0,0,1-3.08,1.07,4.22,4.22,0,0,1-3.25-1.28,5,5,0,0,1-1.3-3.64A5.07,5.07,0,0,1,137.61,51a4,4,0,0,1,3.26-1.42A4.07,4.07,0,0,1,144.35,51.08Zm-5.13.64a3.22,3.22,0,0,0-.78,1.8h5a2.35,2.35,0,0,0-2.53-2.43A2.31,2.31,0,0,0,139.22,51.72Z"/><path class="cls-1" d="M147.3,46h1.91v13.1H147.3Z"/><path class="cls-1" d="M159.25,50.93a5.07,5.07,0,0,1,1.26,3.51,4.93,4.93,0,0,1-1.24,3.48,4.79,4.79,0,0,1-6.81,0,5.51,5.51,0,0,1,0-7,4.79,4.79,0,0,1,6.77,0Zm-5.44,1.21a4.5,4.5,0,0,0,0,4.59,2.4,2.4,0,0,0,2.06,1,2.47,2.47,0,0,0,2.07-1,3.91,3.91,0,0,0,.64-2.29,3.8,3.8,0,0,0-.64-2.3,2.43,2.43,0,0,0-2.07-1A2.35,2.35,0,0,0,153.81,52.14Z"/><path class="cls-1" d="M170.21,51a5.44,5.44,0,0,1,1.08,3.5,5.37,5.37,0,0,1-1.06,3.4,3.78,3.78,0,0,1-3.15,1.46,3.36,3.36,0,0,1-2.84-1.62v4.93h-1.91V49.78h1.78V50.9A3.29,3.29,0,0,1,167,49.53,3.92,3.92,0,0,1,170.21,51Zm-5.43,1.08a4,4,0,0,0-.6,2.31v.16a3.69,3.69,0,0,0,.74,2.41,2.06,2.06,0,0,0,1.73.85,2.41,2.41,0,0,0,2.07-.92,4.13,4.13,0,0,0,.61-2.39,4.53,4.53,0,0,0-.56-2.4,2.3,2.3,0,0,0-2.07-1A2.18,2.18,0,0,0,164.78,52.06Z"/><path class="cls-1" d="M180.49,51.09a4,4,0,0,1,1.33-1.22,3.28,3.28,0,0,1,1.59-.34,3.19,3.19,0,0,1,2.37.95,3.43,3.43,0,0,1,.94,2.5v6.1h-1.91V53.31a2.32,2.32,0,0,0-.49-1.66,2,2,0,0,0-1.58-.52,1.74,1.74,0,0,0-1.33.59,2.37,2.37,0,0,0-.54,1.64v5.72H179V53.33c0-1.47-.64-2.2-1.91-2.2a1.75,1.75,0,0,0-1.47.7,2.37,2.37,0,0,0-.58,1.66v5.59h-1.91v-9.3H175v1a3.3,3.3,0,0,1,2.56-1.28A3.07,3.07,0,0,1,180.49,51.09Z"/><path class="cls-1" d="M196.29,51.08A6.19,6.19,0,0,1,197.41,55h-7.06a3.51,3.51,0,0,0,.74,2.09,2.32,2.32,0,0,0,1.78.72,2.6,2.6,0,0,0,1.62-.47,3.06,3.06,0,0,0,.85-1.2h1.91A4.29,4.29,0,0,1,196,58.27a4.53,4.53,0,0,1-3.08,1.07,4.25,4.25,0,0,1-3.26-1.28,5.66,5.66,0,0,1-.07-7.11,4.56,4.56,0,0,1,6.73.13Zm-5.13.64a3.28,3.28,0,0,0-.77,1.8h5a2.36,2.36,0,0,0-2.54-2.43A2.31,2.31,0,0,0,191.16,51.72Z"/><path class="cls-1" d="M207.22,53.34v5.74h-1.91V53.5c0-1.58-.72-2.37-2.18-2.37a1.92,1.92,0,0,0-1.42.58,2.79,2.79,0,0,0-.77,1.78v5.59H199v-9.3h1.91v1.15a3.62,3.62,0,0,1,1.24-1,3.25,3.25,0,0,1,1.57-.36Q207.22,49.53,207.22,53.34Z"/><path class="cls-1" d="M212.22,46.77v3h2.13v1.58h-2.13v5.4a.85.85,0,0,0,.17.56.67.67,0,0,0,.5.18h1.22v1.58h-1.53a2.17,2.17,0,0,1-1.74-.62,2.45,2.45,0,0,1-.52-1.7v-5.4h-1.73V49.78h1.73V47.56Z"/><path class="cls-1" d="M222.05,46.23h2.32l4.49,10.3h0l4.46-10.3h2.33V59.08h-2V49.9h-.07l-3.94,9.18H228l-3.94-9.18H224v9.18h-2Z"/><path class="cls-1" d="M245.25,50.55a3.64,3.64,0,0,1,.85,2.6v5.93h-1.77V57.77A4,4,0,0,1,243,58.9a5,5,0,0,1-2.14.44,3.37,3.37,0,0,1-2.29-.74,2.53,2.53,0,0,1-.87-2A2.87,2.87,0,0,1,239.06,54a5.78,5.78,0,0,1,3.06-.72l2.09,0V53c0-1.3-.7-1.94-2.11-1.94a2.57,2.57,0,0,0-1.51.36,1.63,1.63,0,0,0-.74,1.22H238a3.33,3.33,0,0,1,1.41-2.45,5,5,0,0,1,2.86-.68A4,4,0,0,1,245.25,50.55Zm-1,4.16-2,0c-1.74,0-2.61.6-2.61,1.82a1.12,1.12,0,0,0,.41.91,1.75,1.75,0,0,0,1.21.37,3.25,3.25,0,0,0,2.14-.73,2.44,2.44,0,0,0,.81-1.9Z"/><path class="cls-1" d="M256.47,53.34v5.74h-1.91V53.5c0-1.58-.73-2.37-2.18-2.37a1.91,1.91,0,0,0-1.42.58,2.79,2.79,0,0,0-.77,1.78v5.59h-1.91v-9.3h1.91v1.15a3.53,3.53,0,0,1,1.24-1,3.21,3.21,0,0,1,1.56-.36Q256.47,49.53,256.47,53.34Z"/><path class="cls-1" d="M265.86,50.55a3.64,3.64,0,0,1,.85,2.6v5.93H265V57.77a4.14,4.14,0,0,1-1.37,1.13,5,5,0,0,1-2.14.44,3.37,3.37,0,0,1-2.29-.74,2.52,2.52,0,0,1-.86-2A2.86,2.86,0,0,1,259.67,54a5.78,5.78,0,0,1,3.06-.72l2.09,0V53c0-1.3-.7-1.94-2.11-1.94a2.57,2.57,0,0,0-1.51.36,1.66,1.66,0,0,0-.74,1.22h-1.89A3.33,3.33,0,0,1,260,50.21a5,5,0,0,1,2.86-.68A4,4,0,0,1,265.86,50.55Zm-1,4.16-2,0c-1.74,0-2.61.6-2.61,1.82a1.12,1.12,0,0,0,.41.91,1.75,1.75,0,0,0,1.21.37A3.25,3.25,0,0,0,264,57.1a2.44,2.44,0,0,0,.81-1.9Z"/><path class="cls-1" d="M275.6,51V49.78h1.91v8.69q0,4.43-4.34,4.43a5.13,5.13,0,0,1-3-.74,3.41,3.41,0,0,1-1.28-2.28h1.91a1.75,1.75,0,0,0,.68,1.17,3.29,3.29,0,0,0,1.66.34c1.62,0,2.43-.88,2.43-2.63V57.32a3.23,3.23,0,0,1-2.84,1.55,4,4,0,0,1-3.06-1.28,4.71,4.71,0,0,1-1.17-3.36,4.82,4.82,0,0,1,1.17-3.39,3.86,3.86,0,0,1,3.06-1.31A3.22,3.22,0,0,1,275.6,51Zm-4.43.9a3.48,3.48,0,0,0-.68,2.31,3.75,3.75,0,0,0,.54,2.14,2.25,2.25,0,0,0,2,.93,2.39,2.39,0,0,0,1.91-.81,3.55,3.55,0,0,0,.67-2.26,3.67,3.67,0,0,0-.67-2.31,2.31,2.31,0,0,0-1.91-.84A2.2,2.2,0,0,0,271.17,51.92Z"/><path class="cls-1" d="M287.08,51.08A6.19,6.19,0,0,1,288.2,55h-7.06a3.51,3.51,0,0,0,.74,2.09,2.33,2.33,0,0,0,1.79.72,2.63,2.63,0,0,0,1.62-.47,3.16,3.16,0,0,0,.84-1.2H288a4.29,4.29,0,0,1-1.28,2.17,4.53,4.53,0,0,1-3.08,1.07,4.25,4.25,0,0,1-3.26-1.28,5.66,5.66,0,0,1-.07-7.11,4.56,4.56,0,0,1,6.73.13Zm-5.12.64a3.22,3.22,0,0,0-.78,1.8h5a2.35,2.35,0,0,0-2.53-2.43A2.31,2.31,0,0,0,282,51.72Z"/><path class="cls-1" d="M295.35,49.76v1.91a4.74,4.74,0,0,0-1.35-.2,2.13,2.13,0,0,0-1.55.7,2.74,2.74,0,0,0-.72,2v4.93h-1.91v-9.3h1.91v1.4a2.79,2.79,0,0,1,.9-1.13,2.27,2.27,0,0,1,1.51-.52A2.69,2.69,0,0,1,295.35,49.76Z"/></svg>