<svg id="图层_1" data-name="图层 1" xmlns="http://www.w3.org/2000/svg" viewBox="0 0 400 275"><defs><style>.cls-1{fill:#33353c;}</style></defs><title>团队介绍</title><path class="cls-1" d="M167.75,4h7.11Q181,4,181,9.25c0,3.5-2.06,5.26-6.17,5.26h-4.44v6.67h-2.62Zm2.62,2.23v6h4.27a4.52,4.52,0,0,0,2.84-.72,2.82,2.82,0,0,0,.88-2.3A2.59,2.59,0,0,0,177.45,7a4.44,4.44,0,0,0-2.81-.72Z"/><path class="cls-1" d="M193.05,10.5a8.37,8.37,0,0,1,1.49,5.18h-9.41a4.68,4.68,0,0,0,1,2.79,3.1,3.1,0,0,0,2.38,1,3.5,3.5,0,0,0,2.16-.63,4.13,4.13,0,0,0,1.13-1.61h2.54a5.7,5.7,0,0,1-1.7,2.91,6.07,6.07,0,0,1-4.11,1.41,5.62,5.62,0,0,1-4.34-1.7A6.72,6.72,0,0,1,182.44,15a6.78,6.78,0,0,1,1.63-4.63,6.07,6.07,0,0,1,9,.17Zm-6.84.86a4.28,4.28,0,0,0-1,2.4h6.7c-.25-2.16-1.37-3.24-3.39-3.24A3.08,3.08,0,0,0,186.21,11.36Z"/><path class="cls-1" d="M200.47,4.76v4h2.83v2.11h-2.83v7.2a1.19,1.19,0,0,0,.21.75.92.92,0,0,0,.67.24H203v2.11h-2a2.92,2.92,0,0,1-2.33-.84,3.24,3.24,0,0,1-.7-2.26v-7.2h-2.3V8.77h2.3V5.82Z"/><path class="cls-1" d="M212.71,8.75v2.54a6,6,0,0,0-1.8-.26,2.84,2.84,0,0,0-2.07.93,3.63,3.63,0,0,0-1,2.64v6.58h-2.54V8.77h2.54v1.87a3.84,3.84,0,0,1,1.2-1.51,3.08,3.08,0,0,1,2-.7A3.6,3.6,0,0,1,212.71,8.75Z"/><path class="cls-1" d="M224.49,10.31A6.72,6.72,0,0,1,226.17,15a6.56,6.56,0,0,1-1.66,4.63,6.39,6.39,0,0,1-9.07,0A6.6,6.6,0,0,1,213.79,15a6.62,6.62,0,0,1,1.68-4.68,6.35,6.35,0,0,1,9,0Zm-7.25,1.6A5.13,5.13,0,0,0,216.4,15a5,5,0,0,0,.84,3,3.18,3.18,0,0,0,2.74,1.4,3.27,3.27,0,0,0,2.76-1.4,5.17,5.17,0,0,0,.86-3,5.13,5.13,0,0,0-.86-3.08A3.24,3.24,0,0,0,220,10.52,3.14,3.14,0,0,0,217.24,11.91Z"/><path class="cls-1" d="M78.65,43.33H84q4.59,0,4.59,3.9T84,51.17H80.62v5h-2Zm2,1.67v4.5h3.2A3.35,3.35,0,0,0,85.94,49a2.11,2.11,0,0,0,.67-1.73,1.94,1.94,0,0,0-.68-1.69A3.36,3.36,0,0,0,83.82,45Z"/><path class="cls-1" d="M97.88,48a5.07,5.07,0,0,1,1.26,3.51A5,5,0,0,1,97.9,55a4.79,4.79,0,0,1-6.81,0,4.93,4.93,0,0,1-1.24-3.48A5,5,0,0,1,91.11,48a4.79,4.79,0,0,1,6.77,0Zm-5.44,1.21a4.5,4.5,0,0,0,0,4.59,2.36,2.36,0,0,0,2,1,2.42,2.42,0,0,0,2.07-1,3.8,3.8,0,0,0,.65-2.29,3.75,3.75,0,0,0-.65-2.3,2.4,2.4,0,0,0-2.07-1A2.34,2.34,0,0,0,92.44,49.23Z"/><path class="cls-1" d="M103.26,43.51a1.16,1.16,0,0,1,.38.91,1.3,1.3,0,0,1-.4.94,1.39,1.39,0,0,1-1.87,0,1.27,1.27,0,0,1-.38-.94,1.16,1.16,0,0,1,.38-.91,1.26,1.26,0,0,1,.93-.36A1.3,1.3,0,0,1,103.26,43.51Zm-1.91,3.36h1.91v9.31h-1.91Z"/><path class="cls-1" d="M114,50.44v5.74h-1.9V50.6c0-1.59-.73-2.38-2.18-2.38a1.93,1.93,0,0,0-1.43.58,2.81,2.81,0,0,0-.77,1.78v5.6h-1.91V46.87h1.91V48A3.62,3.62,0,0,1,109,47a3.28,3.28,0,0,1,1.57-.36Q114,46.62,114,50.44Z"/><path class="cls-1" d="M119,43.87v3h2.12v1.59H119v5.4a.82.82,0,0,0,.16.55.68.68,0,0,0,.5.18h1.23v1.59h-1.53a2.18,2.18,0,0,1-1.75-.63,2.44,2.44,0,0,1-.52-1.69v-5.4h-1.73V46.87h1.73V44.66Z"/><path class="cls-1" d="M130.11,49.55h-1.85a1.73,1.73,0,0,0-.67-1,2.63,2.63,0,0,0-1.47-.32,2.52,2.52,0,0,0-1.3.25.88.88,0,0,0-.5.83c0,.31.25.58.75.82a14.93,14.93,0,0,0,1.88.56,8.05,8.05,0,0,1,2.35.88,2.19,2.19,0,0,1,1.12,1.95q0,3-4.14,3-3.81,0-4.14-3.26H124a2,2,0,0,0,.67,1.33,2.67,2.67,0,0,0,1.55.36c1.48,0,2.23-.42,2.23-1.26a1.18,1.18,0,0,0-.83-1.06,10.84,10.84,0,0,0-1.87-.54,7.47,7.47,0,0,1-2.31-.81,2.1,2.1,0,0,1-1.07-1.87,2.24,2.24,0,0,1,1-2,4.71,4.71,0,0,1,2.73-.72Q129.8,46.62,130.11,49.55Z"/><path class="cls-1" d="M139.46,48.17a6.29,6.29,0,0,1,1.11,3.89h-7a3.41,3.41,0,0,0,.73,2.08,2.33,2.33,0,0,0,1.79.72,2.66,2.66,0,0,0,1.62-.46,3.1,3.1,0,0,0,.84-1.21h1.91a4.3,4.3,0,0,1-1.28,2.18,4.5,4.5,0,0,1-3.08,1.06,4.22,4.22,0,0,1-3.25-1.28,5,5,0,0,1-1.3-3.63A5.09,5.09,0,0,1,132.72,48,4,4,0,0,1,136,46.62,4.09,4.09,0,0,1,139.46,48.17Zm-5.13.65a3.19,3.19,0,0,0-.78,1.8h5A2.35,2.35,0,0,0,136,48.19,2.31,2.31,0,0,0,134.33,48.82Z"/><path class="cls-1" d="M145,43.87v3h2.12v1.59H145v5.4a.82.82,0,0,0,.16.55.68.68,0,0,0,.5.18h1.23v1.59h-1.53a2.18,2.18,0,0,1-1.75-.63,2.44,2.44,0,0,1-.52-1.69v-5.4h-1.73V46.87h1.73V44.66Z"/><path class="cls-1" d="M170.15,41.29A16.24,16.24,0,0,0,168.42,45a14,14,0,0,0-.79,4.68,14.29,14.29,0,0,0,.79,4.68,17,17,0,0,0,1.73,3.72h-1.61a15.45,15.45,0,0,1-1.94-3.67,13.86,13.86,0,0,1,0-9.45,14.22,14.22,0,0,1,1.94-3.69Z"/><path class="cls-1" d="M180.86,44a4,4,0,0,1,1.53,3.09h-1.95a2.78,2.78,0,0,0-1-1.8,3.61,3.61,0,0,0-2.19-.55,4.15,4.15,0,0,0-2,.37,1.47,1.47,0,0,0-.82,1.41,1.53,1.53,0,0,0,.95,1.37,13.61,13.61,0,0,0,2.23.79A18.58,18.58,0,0,1,181,50a3.1,3.1,0,0,1,1.65,2.77,3.22,3.22,0,0,1-1.35,2.72,7.74,7.74,0,0,1-7.45,0,4.45,4.45,0,0,1-1.74-3.56h1.94a3.1,3.1,0,0,0,1.08,2.18,4,4,0,0,0,2.39.59,4.82,4.82,0,0,0,2.33-.5,1.51,1.51,0,0,0,.86-1.35,1.9,1.9,0,0,0-1.22-1.69,24.75,24.75,0,0,0-2.56-.87A24.43,24.43,0,0,1,174,49.23a2.82,2.82,0,0,1-1.48-2.57A3.09,3.09,0,0,1,173.94,44a6,6,0,0,1,3.41-.92A5.64,5.64,0,0,1,180.86,44Z"/><path class="cls-1" d="M186.62,43.51a1.16,1.16,0,0,1,.37.91,1.29,1.29,0,0,1-.39.94,1.37,1.37,0,0,1-.94.36,1.32,1.32,0,0,1-.93-.36,1.24,1.24,0,0,1-.38-.94,1.13,1.13,0,0,1,.38-.91,1.26,1.26,0,0,1,.93-.36A1.3,1.3,0,0,1,186.62,43.51Zm-1.91,3.36h1.91v9.31h-1.91Z"/><path class="cls-1" d="M197.38,50.44v5.74h-1.91V50.6c0-1.59-.72-2.38-2.18-2.38a1.91,1.91,0,0,0-1.42.58,2.81,2.81,0,0,0-.77,1.78v5.6h-1.91V46.87h1.91V48a3.62,3.62,0,0,1,1.24-1,3.25,3.25,0,0,1,1.57-.36Q197.38,46.62,197.38,50.44Z"/><path class="cls-1" d="M206.27,48.11V46.87h1.91v8.7q0,4.43-4.34,4.42a5.13,5.13,0,0,1-3-.73A3.46,3.46,0,0,1,199.59,57h1.91a1.72,1.72,0,0,0,.69,1.17,3.13,3.13,0,0,0,1.65.34c1.62,0,2.43-.87,2.43-2.63V54.41A3.21,3.21,0,0,1,203.43,56a3.93,3.93,0,0,1-3.06-1.28,4.69,4.69,0,0,1-1.17-3.36,4.83,4.83,0,0,1,1.17-3.39,3.89,3.89,0,0,1,3.06-1.31A3.24,3.24,0,0,1,206.27,48.11Zm-4.43.9a3.48,3.48,0,0,0-.68,2.31,3.75,3.75,0,0,0,.54,2.14,2.27,2.27,0,0,0,2,.94,2.37,2.37,0,0,0,1.9-.81,3.6,3.6,0,0,0,.67-2.27,3.67,3.67,0,0,0-.67-2.31,2.31,2.31,0,0,0-1.9-.84A2.2,2.2,0,0,0,201.84,49Z"/><path class="cls-1" d="M217.56,47.65a3.65,3.65,0,0,1,.84,2.59v5.94h-1.76V54.86A4.06,4.06,0,0,1,215.27,56a4.93,4.93,0,0,1-2.14.43,3.39,3.39,0,0,1-2.29-.74,2.54,2.54,0,0,1-.86-2,2.85,2.85,0,0,1,1.39-2.61,5.78,5.78,0,0,1,3.06-.72h2.08v-.24c0-1.29-.7-1.94-2.1-1.94a2.63,2.63,0,0,0-1.51.36,1.63,1.63,0,0,0-.74,1.22h-1.89a3.29,3.29,0,0,1,1.4-2.45,5.12,5.12,0,0,1,2.86-.68A4,4,0,0,1,217.56,47.65Zm-1.05,4.15-2,0c-1.74,0-2.61.61-2.61,1.82a1.16,1.16,0,0,0,.42.92,1.76,1.76,0,0,0,1.2.36,3.22,3.22,0,0,0,2.14-.72,2.46,2.46,0,0,0,.81-1.91Z"/><path class="cls-1" d="M228.46,48.08a5.41,5.41,0,0,1,1.08,3.49,5.35,5.35,0,0,1-1.06,3.4,3.76,3.76,0,0,1-3.15,1.46,3.37,3.37,0,0,1-2.84-1.62v4.93h-1.91V46.87h1.78V48a3.32,3.32,0,0,1,2.88-1.37A3.93,3.93,0,0,1,228.46,48.08ZM223,49.16a3.94,3.94,0,0,0-.6,2.3v.16a3.72,3.72,0,0,0,.74,2.42,2.07,2.07,0,0,0,1.73.84A2.36,2.36,0,0,0,227,54a4.09,4.09,0,0,0,.61-2.39,4.5,4.5,0,0,0-.55-2.39,2.3,2.3,0,0,0-2.07-1A2.18,2.18,0,0,0,223,49.16Z"/><path class="cls-1" d="M239,48a5.07,5.07,0,0,1,1.26,3.51A4.93,4.93,0,0,1,239,55a4.78,4.78,0,0,1-6.8,0,5.48,5.48,0,0,1,0-7A4.78,4.78,0,0,1,239,48Zm-5.43,1.21a4.5,4.5,0,0,0,0,4.59,2.35,2.35,0,0,0,2,1,2.44,2.44,0,0,0,2.07-1,3.87,3.87,0,0,0,.65-2.29,3.82,3.82,0,0,0-.65-2.3,2.42,2.42,0,0,0-2.07-1A2.33,2.33,0,0,0,233.58,49.23Z"/><path class="cls-1" d="M247.62,46.85v1.91a4.74,4.74,0,0,0-1.35-.2,2.1,2.1,0,0,0-1.55.71,2.71,2.71,0,0,0-.72,2v4.93h-1.91V46.87H244v1.41a2.83,2.83,0,0,1,.9-1.14,2.27,2.27,0,0,1,1.51-.52A2.84,2.84,0,0,1,247.62,46.85Z"/><path class="cls-1" d="M256.2,48.17a6.29,6.29,0,0,1,1.12,3.89h-7.06a3.41,3.41,0,0,0,.74,2.08,2.32,2.32,0,0,0,1.78.72,2.66,2.66,0,0,0,1.62-.46,3.11,3.11,0,0,0,.85-1.21h1.91a4.37,4.37,0,0,1-1.28,2.18,4.52,4.52,0,0,1-3.08,1.06,4.24,4.24,0,0,1-3.26-1.28,5,5,0,0,1-1.29-3.63A5.09,5.09,0,0,1,249.47,48a4,4,0,0,1,3.26-1.42A4.09,4.09,0,0,1,256.2,48.17Zm-5.13.65a3.25,3.25,0,0,0-.77,1.8h5a2.36,2.36,0,0,0-2.54-2.43A2.31,2.31,0,0,0,251.07,48.82Z"/><path class="cls-1" d="M260.9,41.29A15.56,15.56,0,0,1,262.84,45a13.86,13.86,0,0,1,0,9.45,15.82,15.82,0,0,1-1.94,3.67h-1.6A19.06,19.06,0,0,0,261,54.38a15,15,0,0,0,.79-4.68A14.74,14.74,0,0,0,261,45a18.11,18.11,0,0,0-1.73-3.73Z"/><path class="cls-1" d="M286.41,44.24a4.83,4.83,0,0,1,1.71,3.1h-1.91A3.11,3.11,0,0,0,285,45.41a4.09,4.09,0,0,0-2.31-.61,3.66,3.66,0,0,0-3.13,1.42,5.69,5.69,0,0,0-1,3.55,5.77,5.77,0,0,0,1,3.58,3.76,3.76,0,0,0,3.19,1.35A3.72,3.72,0,0,0,285,54a3.94,3.94,0,0,0,1.35-2.27h1.91a5.67,5.67,0,0,1-2,3.51,5.5,5.5,0,0,1-3.56,1.19,5.71,5.71,0,0,1-4.76-2,7.17,7.17,0,0,1-1.38-4.64A7.19,7.19,0,0,1,278,45.11a5.6,5.6,0,0,1,4.68-2A5.7,5.7,0,0,1,286.41,44.24Z"/><path class="cls-1" d="M290.28,43.33H295a6.12,6.12,0,0,1,4.71,1.74,6.6,6.6,0,0,1,1.51,4.68,6.71,6.71,0,0,1-1.54,4.7,6.18,6.18,0,0,1-4.72,1.73h-4.64Zm2,1.67v9.5h2.32a4.79,4.79,0,0,0,3.58-1.17,5,5,0,0,0,1.12-3.58,5.08,5.08,0,0,0-1.1-3.6A4.81,4.81,0,0,0,294.6,45Z"/><path class="cls-1" d="M313.5,45a6.9,6.9,0,0,1,1.62,4.79,6.93,6.93,0,0,1-1.62,4.77,6.59,6.59,0,0,1-9.26,0,7,7,0,0,1-1.6-4.75,7,7,0,0,1,1.6-4.77,5.81,5.81,0,0,1,4.63-1.93A5.88,5.88,0,0,1,313.5,45Zm-7.82,1.21a5.46,5.46,0,0,0-1.08,3.58,5.46,5.46,0,0,0,1.08,3.56,4.42,4.42,0,0,0,6.36,0,5.47,5.47,0,0,0,1.1-3.6,5.62,5.62,0,0,0-1.1-3.64,3.89,3.89,0,0,0-3.17-1.33A3.86,3.86,0,0,0,305.68,46.19Z"/><path class="cls-1" d="M35.58,75.41h1.15L41.3,86.84H40.23l-1.32-3.41H33.4l-1.33,3.41H31ZM33.72,82.6h4.86l-2.4-6.13h0Z"/><path class="cls-1" d="M46.71,78.56h1.08l2.23,7,2.08-7H53l2.08,7,2.26-7h1.05l-2.83,8.28h-.92l-2.09-7-2.11,7h-.91Z"/><path class="cls-1" d="M65.8,79.67a5.78,5.78,0,0,1,1,3.31H60a3.92,3.92,0,0,0,.82,2.38,2.6,2.6,0,0,0,2,.87,2.78,2.78,0,0,0,1.82-.59,3,3,0,0,0,.88-1.46h1a3.82,3.82,0,0,1-1.11,2,3.67,3.67,0,0,1-2.57.91,3.54,3.54,0,0,1-2.79-1.18,5.16,5.16,0,0,1,0-6.24,3.79,3.79,0,0,1,5.74,0ZM60.91,80A3.64,3.64,0,0,0,60,82.2h5.7c-.16-2-1.12-3-2.87-3A2.45,2.45,0,0,0,60.91,80Z"/><path class="cls-1" d="M68.58,75.19h1V86.84h-1Z"/><path class="cls-1" d="M72.17,75.19h1V86.84h-1Z"/><path class="cls-1" d="M75.24,82.28h8.08v.83H75.24Z"/><path class="cls-1" d="M85.13,75.19h1v7.55l4.59-4.18H92l-3.63,3.28,4,5H91.1l-3.43-4.37-1.58,1.44v2.93h-1Z"/><path class="cls-1" d="M100.09,81.75v5.09h-1v-5c0-1.76-.79-2.64-2.35-2.64a2.2,2.2,0,0,0-1.67.72,2.9,2.9,0,0,0-.78,2v5h-1V78.56h1v1.36a3.28,3.28,0,0,1,1.12-1.16A2.9,2.9,0,0,1,97,78.34C99.06,78.34,100.09,79.48,100.09,81.75Z"/><path class="cls-1" d="M108.65,79.65a5.11,5.11,0,0,1,0,6.1,3.93,3.93,0,0,1-5.86,0,4.66,4.66,0,0,1-1-3,4.6,4.6,0,0,1,1-3.06,3.56,3.56,0,0,1,2.91-1.31A3.65,3.65,0,0,1,108.65,79.65Zm-5.15.61a3.88,3.88,0,0,0-.74,2.45,3.84,3.84,0,0,0,.74,2.43,2.83,2.83,0,0,0,4.46,0,4,4,0,0,0,.74-2.43,4,4,0,0,0-.74-2.45,2.83,2.83,0,0,0-4.46,0Z"/><path class="cls-1" d="M110.42,78.56h1.08l2.24,7,2.08-7h.92l2.08,7,2.26-7h1.06l-2.84,8.28h-.92l-2.08-7-2.12,7h-.91Z"/><path class="cls-1" d="M129.94,81.75v5.09h-1v-5c0-1.76-.78-2.64-2.35-2.64a2.18,2.18,0,0,0-1.66.72,3,3,0,0,0-.79,2v5h-1V78.56h1v1.36a3.28,3.28,0,0,1,1.12-1.16,2.9,2.9,0,0,1,1.57-.42Q129.95,78.34,129.94,81.75Z"/><path class="cls-1" d="M137.59,75.41h1V86.84h-1Z"/><path class="cls-1" d="M147.61,81.75v5.09h-1v-5c0-1.76-.79-2.64-2.35-2.64a2.19,2.19,0,0,0-1.67.72,2.9,2.9,0,0,0-.78,2v5h-1V78.56h1v1.36A3.28,3.28,0,0,1,143,78.76a2.9,2.9,0,0,1,1.57-.42C146.58,78.34,147.61,79.48,147.61,81.75Z"/><path class="cls-1" d="M151.62,75.89v2.67h2.16v.84h-2.16V85a1.24,1.24,0,0,0,.2.78.9.9,0,0,0,.72.22h1v.84h-1.17a1.72,1.72,0,0,1-1.38-.5,2,2,0,0,1-.37-1.34V79.4H148.9v-.84h1.76V76.29Z"/><path class="cls-1" d="M161.53,79.67a5.78,5.78,0,0,1,.94,3.31h-6.72a3.86,3.86,0,0,0,.82,2.38,2.59,2.59,0,0,0,2.05.87,2.8,2.8,0,0,0,1.82-.59,3.12,3.12,0,0,0,.88-1.46h1a3.89,3.89,0,0,1-1.11,2,3.67,3.67,0,0,1-2.57.91,3.51,3.51,0,0,1-2.79-1.18,5.18,5.18,0,0,1-.05-6.24,3.8,3.8,0,0,1,5.75,0Zm-4.9.35a3.63,3.63,0,0,0-.86,2.18h5.69c-.16-2-1.11-3-2.86-3A2.47,2.47,0,0,0,156.63,80Z"/><path class="cls-1" d="M168.68,78.52v1a4.36,4.36,0,0,0-1.26-.17,2.06,2.06,0,0,0-1.8,1,3.61,3.61,0,0,0-.65,2.16v4.37h-1V78.56h1v1.59a3,3,0,0,1,.91-1.23,2.35,2.35,0,0,1,1.6-.58A3.22,3.22,0,0,1,168.68,78.52Z"/><path class="cls-1" d="M176.49,81.75v5.09h-1v-5c0-1.76-.79-2.64-2.36-2.64a2.18,2.18,0,0,0-1.66.72,2.9,2.9,0,0,0-.78,2v5h-1V78.56h1v1.36a3.2,3.2,0,0,1,1.12-1.16,2.88,2.88,0,0,1,1.57-.42C175.46,78.34,176.49,79.48,176.49,81.75Z"/><path class="cls-1" d="M184.79,79.67a5.78,5.78,0,0,1,1,3.31H179a3.92,3.92,0,0,0,.82,2.38,2.6,2.6,0,0,0,2,.87,2.78,2.78,0,0,0,1.82-.59,3,3,0,0,0,.88-1.46h1a3.88,3.88,0,0,1-1.1,2,3.72,3.72,0,0,1-2.58.91,3.54,3.54,0,0,1-2.79-1.18,5.16,5.16,0,0,1,0-6.24,3.79,3.79,0,0,1,5.74,0ZM179.9,80A3.64,3.64,0,0,0,179,82.2h5.7c-.16-2-1.12-3-2.87-3A2.45,2.45,0,0,0,179.9,80Z"/><path class="cls-1" d="M189.27,75.89v2.67h2.16v.84h-2.16V85a1.24,1.24,0,0,0,.19.78.93.93,0,0,0,.72.22h1v.84h-1.17a1.71,1.71,0,0,1-1.37-.5,2,2,0,0,1-.37-1.34V79.4h-1.76v-.84h1.76V76.29Z"/><path class="cls-1" d="M204.12,79.06a3.11,3.11,0,0,1,1.13,2.21h-1a2.3,2.3,0,0,0-.83-1.57,2.77,2.77,0,0,0-1.76-.53,2.49,2.49,0,0,0-2.08,1,4.79,4.79,0,0,0,0,5.1,2.48,2.48,0,0,0,2.1,1,2.44,2.44,0,0,0,2.65-2.35h.95a3.77,3.77,0,0,1-1.19,2.38,3.58,3.58,0,0,1-2.41.8,3.46,3.46,0,0,1-2.85-1.25,4.62,4.62,0,0,1-1-3,4.82,4.82,0,0,1,1-3.11,3.4,3.4,0,0,1,2.83-1.31A3.85,3.85,0,0,1,204.12,79.06Z"/><path class="cls-1" d="M213.37,79.65a5.15,5.15,0,0,1,0,6.1,3.93,3.93,0,0,1-5.86,0,4.66,4.66,0,0,1-1-3,4.55,4.55,0,0,1,1-3.06,3.56,3.56,0,0,1,2.91-1.31A3.67,3.67,0,0,1,213.37,79.65Zm-5.16.61a3.88,3.88,0,0,0-.73,2.45,3.84,3.84,0,0,0,.73,2.43,2.84,2.84,0,0,0,4.47,0,4,4,0,0,0,.73-2.43,4,4,0,0,0-.73-2.45,2.84,2.84,0,0,0-4.47,0Z"/><path class="cls-1" d="M222,80a3.23,3.23,0,0,1,1.11-1.27,2.53,2.53,0,0,1,1.5-.43,2.7,2.7,0,0,1,2.08.82,3.25,3.25,0,0,1,.75,2.27v5.41h-1V81.56A2.7,2.7,0,0,0,226,79.8a2,2,0,0,0-1.65-.63,1.89,1.89,0,0,0-1.5.69,2.4,2.4,0,0,0-.61,1.71v5.27h-1V81.56c0-1.59-.69-2.39-2.07-2.39a1.91,1.91,0,0,0-1.55.75,2.67,2.67,0,0,0-.64,1.83v5.09h-1V78.56h1v1.25a2.7,2.7,0,0,1,2.4-1.47A2.49,2.49,0,0,1,222,80Z"/><path class="cls-1" d="M236.09,79.67a5.56,5.56,0,0,1,0,6.08,3.33,3.33,0,0,1-2.77,1.31,3,3,0,0,1-2.89-2V90h-1V78.56h.91V80.2a3,3,0,0,1,2.91-1.86A3.34,3.34,0,0,1,236.09,79.67Zm-5,.54a4,4,0,0,0-.68,2.45v.18a3.85,3.85,0,0,0,.73,2.44,2.44,2.44,0,0,0,2,1,2.57,2.57,0,0,0,2.17-1,4.21,4.21,0,0,0,.68-2.5,4.26,4.26,0,0,0-.66-2.49,2.48,2.48,0,0,0-2.16-1.07A2.43,2.43,0,0,0,231.09,80.21Z"/><path class="cls-1" d="M244.77,79.28a3.23,3.23,0,0,1,.74,2.23v5.33h-.91V85.25a4.22,4.22,0,0,1-1.35,1.23,4.11,4.11,0,0,1-2.16.58,3,3,0,0,1-2-.62,2.13,2.13,0,0,1-.76-1.72,2.45,2.45,0,0,1,1.3-2.3,5.64,5.64,0,0,1,2.77-.59l2.11,0v-.3a2.1,2.1,0,0,0-2.4-2.35,2.84,2.84,0,0,0-1.73.46,2,2,0,0,0-.85,1.44h-.94A2.9,2.9,0,0,1,239.8,79a4,4,0,0,1,2.4-.64A3.24,3.24,0,0,1,244.77,79.28Zm-.22,3.32h-2.06c-2.1,0-3.14.71-3.14,2.1a1.39,1.39,0,0,0,.53,1.12,2.1,2.1,0,0,0,1.41.43,3.46,3.46,0,0,0,2.3-.86,2.46,2.46,0,0,0,1-1.84Z"/><path class="cls-1" d="M254.25,81.75v5.09h-1v-5c0-1.76-.79-2.64-2.36-2.64a2.18,2.18,0,0,0-1.66.72,2.9,2.9,0,0,0-.78,2v5h-1V78.56h1v1.36a3.2,3.2,0,0,1,1.12-1.16,2.87,2.87,0,0,1,1.56-.42Q254.25,78.34,254.25,81.75Z"/><path class="cls-1" d="M255.33,78.56h1.06l2.7,6.9,2.67-6.9h1.06L258.26,90h-1l1.39-3.37Z"/><path class="cls-1" d="M275.48,75.19h1V86.84h-.91V85.2a3,3,0,0,1-2.9,1.86,3.37,3.37,0,0,1-2.8-1.31,4.9,4.9,0,0,1-.91-3.06,4.84,4.84,0,0,1,.91-3,3.23,3.23,0,0,1,2.75-1.33,3,3,0,0,1,2.9,2Zm-4.9,5a4,4,0,0,0-.69,2.48,4.21,4.21,0,0,0,.68,2.5,2.49,2.49,0,0,0,2.16,1,2.45,2.45,0,0,0,2.09-1,4,4,0,0,0,.69-2.4v-.19a4,4,0,0,0-.74-2.48,2.39,2.39,0,0,0-2-1A2.54,2.54,0,0,0,270.58,80.21Z"/><path class="cls-1" d="M284.74,79.67a5.78,5.78,0,0,1,.95,3.31H279a3.92,3.92,0,0,0,.82,2.38,2.6,2.6,0,0,0,2.05.87,2.78,2.78,0,0,0,1.82-.59,3,3,0,0,0,.88-1.46h1a3.88,3.88,0,0,1-1.1,2,3.7,3.7,0,0,1-2.58.91A3.54,3.54,0,0,1,279,85.88a5.16,5.16,0,0,1,0-6.24,3.79,3.79,0,0,1,5.74,0Zm-4.89.35A3.64,3.64,0,0,0,279,82.2h5.7c-.16-2-1.12-3-2.87-3A2.45,2.45,0,0,0,279.85,80Z"/><path class="cls-1" d="M293.33,80.88h-.94a2,2,0,0,0-.69-1.26,3.28,3.28,0,0,0-3.17-.08,1.16,1.16,0,0,0-.57,1,1.14,1.14,0,0,0,.73,1,11.56,11.56,0,0,0,1.75.58,8.3,8.3,0,0,1,2.14.76,1.88,1.88,0,0,1,1,1.67c0,1.67-1.12,2.51-3.36,2.51s-3.28-.94-3.47-2.83h.94a2.31,2.31,0,0,0,.77,1.57,2.94,2.94,0,0,0,1.73.43c1.6,0,2.4-.55,2.4-1.63a1.25,1.25,0,0,0-.82-1.16,10.3,10.3,0,0,0-1.84-.57,7.83,7.83,0,0,1-2-.74,1.75,1.75,0,0,1-1-1.58,1.88,1.88,0,0,1,.9-1.62,3.77,3.77,0,0,1,2.18-.59C292,78.34,293.1,79.19,293.33,80.88Z"/><path class="cls-1" d="M296.64,75.83a.67.67,0,0,1,.24.56.78.78,0,0,1-.25.57.84.84,0,0,1-.56.23.8.8,0,0,1-.82-.8.67.67,0,0,1,.24-.56.75.75,0,0,1,.58-.24A.78.78,0,0,1,296.64,75.83Zm-1.05,2.73h1v8.28h-1Z"/><path class="cls-1" d="M305.41,80.23V78.56h1v7.67c0,2.66-1.24,4-3.71,4a4,4,0,0,1-2.51-.71,3,3,0,0,1-1.06-2h1a2.19,2.19,0,0,0,.77,1.38,2.9,2.9,0,0,0,1.84.51c1.84,0,2.75-1,2.75-3.09V84.76a3.08,3.08,0,0,1-3,1.88,3.46,3.46,0,0,1-2.77-1.23,4.89,4.89,0,0,1,0-5.82,3.45,3.45,0,0,1,2.77-1.25A3.07,3.07,0,0,1,305.41,80.23Zm-5-.08a3.59,3.59,0,0,0-.74,2.35,3.64,3.64,0,0,0,.69,2.3,2.51,2.51,0,0,0,2.16,1,2.58,2.58,0,0,0,2.14-1,4.2,4.2,0,0,0,0-4.7,2.78,2.78,0,0,0-4.25,0Z"/><path class="cls-1" d="M315.11,81.75v5.09h-1v-5c0-1.76-.78-2.64-2.35-2.64a2.2,2.2,0,0,0-1.67.72,2.9,2.9,0,0,0-.78,2v5h-1V78.56h1v1.36a3.28,3.28,0,0,1,1.12-1.16,2.9,2.9,0,0,1,1.57-.42C314.08,78.34,315.11,79.48,315.11,81.75Z"/><path class="cls-1" d="M323.41,79.67a5.78,5.78,0,0,1,.95,3.31h-6.72a3.85,3.85,0,0,0,.81,2.38,2.6,2.6,0,0,0,2.05.87,2.78,2.78,0,0,0,1.82-.59,3,3,0,0,0,.88-1.46h1a3.88,3.88,0,0,1-1.1,2,3.7,3.7,0,0,1-2.58.91,3.51,3.51,0,0,1-2.78-1.18,4.55,4.55,0,0,1-1.08-3.19,4.63,4.63,0,0,1,1-3,3.79,3.79,0,0,1,5.74,0Zm-4.89.35a3.64,3.64,0,0,0-.87,2.18h5.7c-.16-2-1.12-3-2.87-3A2.45,2.45,0,0,0,318.52,80Z"/><path class="cls-1" d="M330.56,78.52v1a4.27,4.27,0,0,0-1.26-.17,2,2,0,0,0-1.79,1,3.55,3.55,0,0,0-.66,2.16v4.37h-1V78.56h1v1.59a3.07,3.07,0,0,1,.91-1.23,2.37,2.37,0,0,1,1.6-.58A3.15,3.15,0,0,1,330.56,78.52Z"/><path class="cls-1" d="M341.81,75.41v.85h-1.39a1.14,1.14,0,0,0-.91.32,1.46,1.46,0,0,0-.29,1v1h2.48v.84h-2.48v7.44h-1V79.4h-2.21v-.84h2.21v-1a2.22,2.22,0,0,1,.51-1.59,2,2,0,0,1,1.57-.59Z"/><path class="cls-1" d="M349.44,79.65a5.11,5.11,0,0,1,0,6.1,3.92,3.92,0,0,1-5.85,0,4.66,4.66,0,0,1-1-3,4.6,4.6,0,0,1,1-3.06,3.59,3.59,0,0,1,2.92-1.31A3.63,3.63,0,0,1,349.44,79.65Zm-5.15.61a3.88,3.88,0,0,0-.73,2.45,3.84,3.84,0,0,0,.73,2.43,2.84,2.84,0,0,0,4.47,0,4,4,0,0,0,.73-2.43,4,4,0,0,0-.73-2.45,2.84,2.84,0,0,0-4.47,0Z"/><path class="cls-1" d="M356.82,78.52v1a4.36,4.36,0,0,0-1.26-.17,2.06,2.06,0,0,0-1.8,1,3.61,3.61,0,0,0-.65,2.16v4.37h-1V78.56h1v1.59a3,3,0,0,1,.91-1.23,2.35,2.35,0,0,1,1.6-.58A3.22,3.22,0,0,1,356.82,78.52Z"/><path class="cls-1" d="M155.17,104a3.23,3.23,0,0,1,1.11-1.27,2.55,2.55,0,0,1,1.5-.43,2.69,2.69,0,0,1,2.08.82,3.25,3.25,0,0,1,.75,2.27v5.41h-1v-5.28a2.7,2.7,0,0,0-.48-1.76,2,2,0,0,0-1.64-.63,1.91,1.91,0,0,0-1.51.69,2.45,2.45,0,0,0-.61,1.71v5.27h-1v-5.28c0-1.59-.69-2.39-2.07-2.39a1.91,1.91,0,0,0-1.55.75,2.72,2.72,0,0,0-.64,1.83v5.09h-1v-8.28h1v1.25a2.7,2.7,0,0,1,2.4-1.47A2.49,2.49,0,0,1,155.17,104Z"/><path class="cls-1" d="M168.71,103.28a3.23,3.23,0,0,1,.74,2.23v5.33h-.92v-1.59a4.29,4.29,0,0,1-1.34,1.23,4.11,4.11,0,0,1-2.16.58,3,3,0,0,1-2-.62,2.15,2.15,0,0,1-.75-1.72,2.44,2.44,0,0,1,1.3-2.3,5.6,5.6,0,0,1,2.76-.59l2.12,0v-.3a2.1,2.1,0,0,0-2.4-2.35,2.82,2.82,0,0,0-1.73.46,2,2,0,0,0-.85,1.44h-.94a2.86,2.86,0,0,1,1.16-2.08,4,4,0,0,1,2.4-.64A3.25,3.25,0,0,1,168.71,103.28Zm-.22,3.32h-2.07c-2.09,0-3.13.71-3.13,2.1a1.38,1.38,0,0,0,.52,1.12,2.14,2.14,0,0,0,1.41.43,3.49,3.49,0,0,0,2.31-.86,2.46,2.46,0,0,0,1-1.84Z"/><path class="cls-1" d="M178.18,105.75v5.09h-1v-5c0-1.76-.78-2.64-2.35-2.64a2.17,2.17,0,0,0-1.66.72,3,3,0,0,0-.79,2v5h-1v-8.28h1v1.36a3.28,3.28,0,0,1,1.12-1.16,2.9,2.9,0,0,1,1.57-.42Q178.19,102.34,178.18,105.75Z"/><path class="cls-1" d="M179.27,102.56h1.06l2.7,6.9,2.67-6.9h1.06L182.2,114h-1l1.39-3.37Z"/><path class="cls-1" d="M192.25,102.56h1.05l2.71,6.9,2.67-6.9h1L195.17,114h-1l1.4-3.37Z"/><path class="cls-1" d="M207.11,103.67a5.71,5.71,0,0,1,.94,3.31h-6.72a3.92,3.92,0,0,0,.82,2.38,2.59,2.59,0,0,0,2,.87,2.8,2.8,0,0,0,1.82-.59,3,3,0,0,0,.88-1.46h1a3.82,3.82,0,0,1-1.11,2,3.67,3.67,0,0,1-2.57.91,3.54,3.54,0,0,1-2.79-1.18,5.16,5.16,0,0,1,0-6.24,3.79,3.79,0,0,1,5.74,0Zm-4.9.35a3.63,3.63,0,0,0-.86,2.18h5.7c-.16-2-1.12-3-2.87-3A2.47,2.47,0,0,0,202.21,104Z"/><path class="cls-1" d="M215.67,103.28a3.23,3.23,0,0,1,.74,2.23v5.33h-.92v-1.59a4.29,4.29,0,0,1-1.34,1.23,4.11,4.11,0,0,1-2.16.58,3,3,0,0,1-2-.62,2.15,2.15,0,0,1-.75-1.72,2.44,2.44,0,0,1,1.3-2.3,5.6,5.6,0,0,1,2.76-.59l2.12,0v-.3a2.1,2.1,0,0,0-2.41-2.35,2.81,2.81,0,0,0-1.72.46,2,2,0,0,0-.85,1.44h-.94a2.86,2.86,0,0,1,1.16-2.08,4,4,0,0,1,2.4-.64A3.26,3.26,0,0,1,215.67,103.28Zm-.22,3.32h-2.07c-2.09,0-3.13.71-3.13,2.1a1.38,1.38,0,0,0,.52,1.12,2.1,2.1,0,0,0,1.41.43,3.5,3.5,0,0,0,2.31-.86,2.46,2.46,0,0,0,1-1.84Z"/><path class="cls-1" d="M223.09,102.52v1a4.27,4.27,0,0,0-1.26-.17,2,2,0,0,0-1.79,1,3.55,3.55,0,0,0-.66,2.16v4.37h-1v-8.28h1v1.59a3.07,3.07,0,0,1,.91-1.23,2.35,2.35,0,0,1,1.6-.58A3.19,3.19,0,0,1,223.09,102.52Z"/><path class="cls-1" d="M230.29,104.88h-.94a2,2,0,0,0-.69-1.26,3.28,3.28,0,0,0-3.17-.08,1.16,1.16,0,0,0-.57,1,1.14,1.14,0,0,0,.73,1,11.56,11.56,0,0,0,1.75.58,8.3,8.3,0,0,1,2.14.76,1.88,1.88,0,0,1,1,1.67c0,1.67-1.12,2.51-3.36,2.51s-3.28-.94-3.47-2.83h.94a2.31,2.31,0,0,0,.77,1.57,2.94,2.94,0,0,0,1.73.43c1.6,0,2.4-.55,2.4-1.63a1.25,1.25,0,0,0-.82-1.16,10.3,10.3,0,0,0-1.84-.57,7.83,7.83,0,0,1-2-.74,1.75,1.75,0,0,1-1-1.58,1.88,1.88,0,0,1,.9-1.62,3.77,3.77,0,0,1,2.18-.59C229,102.34,230.06,103.19,230.29,104.88Z"/><path class="cls-1" d="M233.7,109.46a.73.73,0,0,1,.24.58.78.78,0,0,1-.25.57.86.86,0,0,1-.56.23.75.75,0,0,1-.58-.24.77.77,0,0,1-.24-.56.73.73,0,0,1,.24-.58.75.75,0,0,1,.58-.22A.77.77,0,0,1,233.7,109.46Z"/><path class="cls-1" d="M40.38,124.26a4.69,4.69,0,0,1,1.49,2.85h-1a3.6,3.6,0,0,0-1.21-2.19,4,4,0,0,0-2.66-.84,3.91,3.91,0,0,0-3.18,1.44,5.56,5.56,0,0,0-1.15,3.67,5.23,5.23,0,0,0,1.15,3.55,4.37,4.37,0,0,0,3.52,1.44,6.82,6.82,0,0,0,1.95-.29,5.79,5.79,0,0,0,1.55-.7v-3.25h-3.9v-.86h4.88v4.57a6.35,6.35,0,0,1-2,1,9,9,0,0,1-2.59.38,5.23,5.23,0,0,1-4.19-1.74,6.08,6.08,0,0,1-1.38-4.13A6.32,6.32,0,0,1,33.05,125a4.79,4.79,0,0,1,4-1.81A5.09,5.09,0,0,1,40.38,124.26Z"/><path class="cls-1" d="M50.44,127.65a5.11,5.11,0,0,1,0,6.1,3.93,3.93,0,0,1-5.86,0,4.66,4.66,0,0,1-1-3,4.6,4.6,0,0,1,1-3.06,3.59,3.59,0,0,1,2.91-1.31A3.64,3.64,0,0,1,50.44,127.65Zm-5.15.61a3.88,3.88,0,0,0-.74,2.45,3.84,3.84,0,0,0,.74,2.43,2.83,2.83,0,0,0,4.46,0,4,4,0,0,0,.74-2.43,4,4,0,0,0-.74-2.45,2.83,2.83,0,0,0-4.46,0Z"/><path class="cls-1" d="M59.69,127.65a5.11,5.11,0,0,1,0,6.1,3.93,3.93,0,0,1-5.86,0,4.66,4.66,0,0,1-1-3,4.6,4.6,0,0,1,1-3.06,3.56,3.56,0,0,1,2.91-1.31A3.65,3.65,0,0,1,59.69,127.65Zm-5.15.61a3.88,3.88,0,0,0-.74,2.45,3.84,3.84,0,0,0,.74,2.43,2.83,2.83,0,0,0,4.46,0,4,4,0,0,0,.74-2.43,4,4,0,0,0-.74-2.45,2.83,2.83,0,0,0-4.46,0Z"/><path class="cls-1" d="M68.63,123.19h1v11.65h-.91V133.2a3,3,0,0,1-2.89,1.86A3.39,3.39,0,0,1,63,133.75a5,5,0,0,1-.91-3.06,4.9,4.9,0,0,1,.91-3,3.25,3.25,0,0,1,2.76-1.33,3,3,0,0,1,2.89,2Zm-4.89,5a4,4,0,0,0-.69,2.48,4.2,4.2,0,0,0,.67,2.5,2.49,2.49,0,0,0,2.16,1.05,2.46,2.46,0,0,0,2.1-1,4,4,0,0,0,.69-2.4v-.19a4,4,0,0,0-.74-2.48,2.41,2.41,0,0,0-2-1A2.52,2.52,0,0,0,63.74,128.21Z"/><path class="cls-1" d="M83,127.28a3.22,3.22,0,0,1,.73,2.23v5.33h-.91v-1.59a4.29,4.29,0,0,1-1.34,1.23,4.11,4.11,0,0,1-2.16.58,3,3,0,0,1-2-.62,2.15,2.15,0,0,1-.75-1.72,2.44,2.44,0,0,1,1.29-2.3,5.67,5.67,0,0,1,2.77-.59l2.11,0v-.3a2.1,2.1,0,0,0-2.4-2.35,2.81,2.81,0,0,0-1.72.46,2,2,0,0,0-.85,1.44h-.95A2.9,2.9,0,0,1,78,127a4,4,0,0,1,2.4-.64A3.28,3.28,0,0,1,83,127.28Zm-.23,3.32H80.73c-2.09,0-3.14.71-3.14,2.1a1.39,1.39,0,0,0,.53,1.12,2.1,2.1,0,0,0,1.41.43,3.46,3.46,0,0,0,2.3-.86,2.46,2.46,0,0,0,1-1.84Z"/><path class="cls-1" d="M87.77,123.89v2.67h2.16v.84H87.77V133a1.24,1.24,0,0,0,.19.78.93.93,0,0,0,.72.22h1v.84H88.55a1.68,1.68,0,0,1-1.37-.5,2,2,0,0,1-.37-1.34v-5.6H85.05v-.84h1.76v-2.27Z"/><path class="cls-1" d="M96.71,126.56h1v5.06a2.92,2.92,0,0,0,.55,1.94,2.22,2.22,0,0,0,1.77.67,2.32,2.32,0,0,0,1.68-.74,3,3,0,0,0,.82-1.9v-5h1v8.28h-1v-1.4a3,3,0,0,1-2.75,1.62q-3,0-3-3.39Z"/><path class="cls-1" d="M111.58,128.88h-1a1.91,1.91,0,0,0-.69-1.26,3.26,3.26,0,0,0-3.16-.08,1.09,1.09,0,0,0,.16,2,11.74,11.74,0,0,0,1.74.58,8.3,8.3,0,0,1,2.14.76,1.87,1.87,0,0,1,1,1.67c0,1.67-1.12,2.51-3.36,2.51s-3.28-.94-3.48-2.83h1a2.23,2.23,0,0,0,.77,1.57,2.9,2.9,0,0,0,1.72.43c1.6,0,2.4-.55,2.4-1.63a1.26,1.26,0,0,0-.81-1.16,10.6,10.6,0,0,0-1.84-.57,8.09,8.09,0,0,1-2-.74,1.74,1.74,0,0,1-.94-1.58,1.89,1.89,0,0,1,.89-1.62,3.77,3.77,0,0,1,2.18-.59C110.24,126.34,111.34,127.19,111.58,128.88Z"/><path class="cls-1" d="M119.64,127.67a5.71,5.71,0,0,1,.94,3.31h-6.72a3.92,3.92,0,0,0,.82,2.38,2.59,2.59,0,0,0,2,.87,2.8,2.8,0,0,0,1.82-.59,3,3,0,0,0,.88-1.46h1a3.82,3.82,0,0,1-1.11,2,3.67,3.67,0,0,1-2.57.91,3.54,3.54,0,0,1-2.79-1.18,5.16,5.16,0,0,1,0-6.24,3.79,3.79,0,0,1,5.74,0Zm-4.9.35a3.63,3.63,0,0,0-.86,2.18h5.7c-.16-2-1.12-3-2.87-3A2.47,2.47,0,0,0,114.74,128Z"/><path class="cls-1" d="M126.79,126.52v1a4.27,4.27,0,0,0-1.26-.17,2,2,0,0,0-1.79,1,3.55,3.55,0,0,0-.66,2.16v4.37h-1v-8.28h1v1.59a3,3,0,0,1,.91-1.23,2.35,2.35,0,0,1,1.6-.58A3.22,3.22,0,0,1,126.79,126.52Z"/><path class="cls-1" d="M139.5,127.67a5.78,5.78,0,0,1,.94,3.31h-6.72a3.8,3.8,0,0,0,.82,2.38,2.58,2.58,0,0,0,2,.87,2.81,2.81,0,0,0,1.83-.59,3.21,3.21,0,0,0,.88-1.46h1a3.88,3.88,0,0,1-1.1,2,3.68,3.68,0,0,1-2.58.91,3.51,3.51,0,0,1-2.78-1.18,4.54,4.54,0,0,1-1.07-3.19,4.62,4.62,0,0,1,1-3,3.8,3.8,0,0,1,5.75,0Zm-4.9.35a3.63,3.63,0,0,0-.86,2.18h5.69c-.16-2-1.11-3-2.86-3A2.47,2.47,0,0,0,134.6,128Z"/><path class="cls-1" d="M141.4,126.56h1.15l2.37,3.19,2.37-3.19h1.13l-3,3.91,3.31,4.37h-1.15l-2.7-3.65-2.72,3.65h-1.15l3.33-4.37Z"/><path class="cls-1" d="M156.47,127.67a4.89,4.89,0,0,1,.91,3,5,5,0,0,1-.89,3,3.35,3.35,0,0,1-2.77,1.31,3,3,0,0,1-2.9-1.95V138h-1V126.56h.91v1.64a3,3,0,0,1,2.92-1.86A3.31,3.31,0,0,1,156.47,127.67Zm-5,.54a4,4,0,0,0-.69,2.45v.18a3.85,3.85,0,0,0,.74,2.44,2.42,2.42,0,0,0,2,1,2.59,2.59,0,0,0,2.18-1,4.2,4.2,0,0,0,.67-2.5,4.26,4.26,0,0,0-.66-2.49,2.48,2.48,0,0,0-2.16-1.07A2.43,2.43,0,0,0,151.48,128.21Z"/><path class="cls-1" d="M165.37,127.67a5.78,5.78,0,0,1,.94,3.31h-6.72a3.86,3.86,0,0,0,.82,2.38,2.59,2.59,0,0,0,2.05.87,2.8,2.8,0,0,0,1.82-.59,3.12,3.12,0,0,0,.88-1.46h1a3.89,3.89,0,0,1-1.11,2,3.67,3.67,0,0,1-2.57.91,3.51,3.51,0,0,1-2.79-1.18,5.18,5.18,0,0,1,0-6.24,3.8,3.8,0,0,1,5.75,0Zm-4.9.35a3.63,3.63,0,0,0-.86,2.18h5.69c-.16-2-1.11-3-2.86-3A2.47,2.47,0,0,0,160.47,128Z"/><path class="cls-1" d="M172.52,126.52v1a4.38,4.38,0,0,0-1.27-.17,2.05,2.05,0,0,0-1.79,1,3.61,3.61,0,0,0-.65,2.16v4.37h-1v-8.28h1v1.59a2.9,2.9,0,0,1,.91-1.23,2.35,2.35,0,0,1,1.6-.58A3.22,3.22,0,0,1,172.52,126.52Z"/><path class="cls-1" d="M175.14,123.83a.67.67,0,0,1,.24.56.78.78,0,0,1-.25.57.84.84,0,0,1-.56.23.8.8,0,0,1-.82-.8.67.67,0,0,1,.24-.56.75.75,0,0,1,.58-.24A.78.78,0,0,1,175.14,123.83Zm-1,2.73h1v8.28h-1Z"/><path class="cls-1" d="M183.83,127.67a5.71,5.71,0,0,1,.94,3.31h-6.72a3.92,3.92,0,0,0,.82,2.38,2.59,2.59,0,0,0,2,.87,2.8,2.8,0,0,0,1.82-.59,3,3,0,0,0,.88-1.46h1a3.82,3.82,0,0,1-1.11,2,3.67,3.67,0,0,1-2.57.91,3.54,3.54,0,0,1-2.79-1.18,5.16,5.16,0,0,1,0-6.24,3.79,3.79,0,0,1,5.74,0Zm-4.9.35a3.63,3.63,0,0,0-.86,2.18h5.7c-.16-2-1.12-3-2.87-3A2.47,2.47,0,0,0,178.93,128Z"/><path class="cls-1" d="M193,129.75v5.09h-1v-5c0-1.76-.78-2.64-2.35-2.64a2.2,2.2,0,0,0-1.67.72,2.9,2.9,0,0,0-.78,2v5h-1v-8.28h1v1.36a3.28,3.28,0,0,1,1.12-1.16,2.9,2.9,0,0,1,1.57-.42Q193,126.34,193,129.75Z"/><path class="cls-1" d="M201,127.06a3.15,3.15,0,0,1,1.14,2.21h-1a2.35,2.35,0,0,0-.84-1.57,2.75,2.75,0,0,0-1.76-.53,2.5,2.5,0,0,0-2.08,1,4.79,4.79,0,0,0,0,5.1,2.48,2.48,0,0,0,2.1.95,2.44,2.44,0,0,0,2.65-2.35h1a3.77,3.77,0,0,1-1.19,2.38,3.56,3.56,0,0,1-2.41.8,3.46,3.46,0,0,1-2.85-1.25,4.61,4.61,0,0,1-.94-3.05,4.82,4.82,0,0,1,1-3.11,3.4,3.4,0,0,1,2.83-1.31A3.83,3.83,0,0,1,201,127.06Z"/><path class="cls-1" d="M209.94,127.67a5.78,5.78,0,0,1,.95,3.31h-6.72a3.85,3.85,0,0,0,.81,2.38,2.6,2.6,0,0,0,2.05.87,2.78,2.78,0,0,0,1.82-.59,3,3,0,0,0,.88-1.46h1a3.88,3.88,0,0,1-1.1,2,3.7,3.7,0,0,1-2.58.91,3.51,3.51,0,0,1-2.78-1.18,5.14,5.14,0,0,1-.05-6.24,3.79,3.79,0,0,1,5.74,0Zm-4.89.35a3.64,3.64,0,0,0-.87,2.18h5.7c-.16-2-1.12-3-2.87-3A2.45,2.45,0,0,0,205.05,128Z"/><path class="cls-1" d="M214.41,134.56a2.94,2.94,0,0,1-1.61,2.77l-.35-.56a2.53,2.53,0,0,0,1.24-2l-.24,0a.88.88,0,0,1-.6-.21.75.75,0,0,1-.22-.58.77.77,0,0,1,.21-.59.78.78,0,0,1,.59-.22C214.08,133.24,214.41,133.68,214.41,134.56Z"/><path class="cls-1" d="M223.41,123.83a.67.67,0,0,1,.24.56.78.78,0,0,1-.25.57.84.84,0,0,1-.56.23.8.8,0,0,1-.82-.8.67.67,0,0,1,.24-.56.75.75,0,0,1,.58-.24A.78.78,0,0,1,223.41,123.83Zm-1,2.73h1v8.28h-1Z"/><path class="cls-1" d="M232.53,129.75v5.09h-1v-5c0-1.76-.78-2.64-2.35-2.64a2.18,2.18,0,0,0-1.66.72,3,3,0,0,0-.79,2v5h-1v-8.28h1v1.36a3.28,3.28,0,0,1,1.12-1.16,2.9,2.9,0,0,1,1.57-.42Q232.53,126.34,232.53,129.75Z"/><path class="cls-1" d="M236.55,123.89v2.67h2.16v.84h-2.16V133a1.24,1.24,0,0,0,.19.78.93.93,0,0,0,.72.22h1v.84h-1.17a1.68,1.68,0,0,1-1.37-.5,2,2,0,0,1-.37-1.34v-5.6h-1.76v-.84h1.76v-2.27Z"/><path class="cls-1" d="M246.45,127.67a5.78,5.78,0,0,1,1,3.31h-6.72a3.85,3.85,0,0,0,.81,2.38,2.6,2.6,0,0,0,2,.87,2.83,2.83,0,0,0,1.83-.59,3.21,3.21,0,0,0,.88-1.46h1a3.88,3.88,0,0,1-1.1,2,3.68,3.68,0,0,1-2.58.91,3.51,3.51,0,0,1-2.78-1.18,4.54,4.54,0,0,1-1.07-3.19,4.62,4.62,0,0,1,1-3,3.79,3.79,0,0,1,5.74,0Zm-4.89.35a3.7,3.7,0,0,0-.87,2.18h5.7c-.16-2-1.12-3-2.86-3A2.45,2.45,0,0,0,241.56,128Z"/><path class="cls-1" d="M253.6,126.52v1a4.27,4.27,0,0,0-1.26-.17,2,2,0,0,0-1.79,1,3.55,3.55,0,0,0-.66,2.16v4.37h-1v-8.28h1v1.59a3.07,3.07,0,0,1,.91-1.23,2.38,2.38,0,0,1,1.61-.58A3.13,3.13,0,0,1,253.6,126.52Z"/><path class="cls-1" d="M260.77,127.28a3.23,3.23,0,0,1,.74,2.23v5.33h-.91v-1.59a4.33,4.33,0,0,1-1.35,1.23,4.11,4.11,0,0,1-2.16.58,3,3,0,0,1-2-.62,2.13,2.13,0,0,1-.76-1.72,2.44,2.44,0,0,1,1.3-2.3,5.61,5.61,0,0,1,2.77-.59l2.11,0v-.3a2.1,2.1,0,0,0-2.4-2.35,2.84,2.84,0,0,0-1.73.46,2,2,0,0,0-.85,1.44h-.94A2.9,2.9,0,0,1,255.8,127a4,4,0,0,1,2.4-.64A3.24,3.24,0,0,1,260.77,127.28Zm-.22,3.32h-2.07c-2.09,0-3.13.71-3.13,2.1a1.36,1.36,0,0,0,.53,1.12,2.09,2.09,0,0,0,1.4.43,3.47,3.47,0,0,0,2.31-.86,2.46,2.46,0,0,0,1-1.84Z"/><path class="cls-1" d="M269.43,127.06a3.11,3.11,0,0,1,1.13,2.21h-1a2.3,2.3,0,0,0-.83-1.57,2.77,2.77,0,0,0-1.76-.53,2.49,2.49,0,0,0-2.08,1,4.79,4.79,0,0,0,0,5.1,2.48,2.48,0,0,0,2.1.95,2.44,2.44,0,0,0,2.65-2.35h1a3.77,3.77,0,0,1-1.19,2.38,3.58,3.58,0,0,1-2.41.8,3.46,3.46,0,0,1-2.85-1.25,4.61,4.61,0,0,1-.94-3.05,4.82,4.82,0,0,1,1-3.11,3.4,3.4,0,0,1,2.83-1.31A3.85,3.85,0,0,1,269.43,127.06Z"/><path class="cls-1" d="M274.13,123.89v2.67h2.16v.84h-2.16V133a1.31,1.31,0,0,0,.19.78.93.93,0,0,0,.72.22h1v.84h-1.16a1.72,1.72,0,0,1-1.38-.5,2,2,0,0,1-.37-1.34v-5.6h-1.76v-.84h1.76v-2.27Z"/><path class="cls-1" d="M279.28,123.83a.67.67,0,0,1,.24.56.78.78,0,0,1-.25.57.84.84,0,0,1-.56.23.8.8,0,0,1-.82-.8.67.67,0,0,1,.24-.56.75.75,0,0,1,.58-.24A.78.78,0,0,1,279.28,123.83Zm-1,2.73h1v8.28h-1Z"/><path class="cls-1" d="M280.76,126.56h1.05l2.61,7.06,2.59-7.06h1.07l-3.16,8.28h-1Z"/><path class="cls-1" d="M295.46,127.67a5.71,5.71,0,0,1,.94,3.31h-6.72a3.92,3.92,0,0,0,.82,2.38,2.59,2.59,0,0,0,2.05.87,2.8,2.8,0,0,0,1.82-.59,3,3,0,0,0,.88-1.46h1a3.82,3.82,0,0,1-1.11,2,3.67,3.67,0,0,1-2.57.91,3.54,3.54,0,0,1-2.79-1.18,5.16,5.16,0,0,1,0-6.24,3.79,3.79,0,0,1,5.74,0Zm-4.9.35a3.63,3.63,0,0,0-.86,2.18h5.7c-.16-2-1.12-3-2.87-3A2.47,2.47,0,0,0,290.56,128Z"/><path class="cls-1" d="M309.51,123.19h1v11.65h-.91V133.2a3,3,0,0,1-2.9,1.86,3.37,3.37,0,0,1-2.8-1.31,4.9,4.9,0,0,1-.91-3.06,4.84,4.84,0,0,1,.91-3,3.23,3.23,0,0,1,2.75-1.33,3,3,0,0,1,2.9,2Zm-4.9,5a4,4,0,0,0-.69,2.48,4.21,4.21,0,0,0,.68,2.5,2.49,2.49,0,0,0,2.16,1.05,2.45,2.45,0,0,0,2.09-1,4,4,0,0,0,.69-2.4v-.19a4,4,0,0,0-.74-2.48,2.39,2.39,0,0,0-2-1A2.54,2.54,0,0,0,304.61,128.21Z"/><path class="cls-1" d="M318.77,127.67a5.78,5.78,0,0,1,1,3.31H313a3.85,3.85,0,0,0,.81,2.38,2.6,2.6,0,0,0,2.05.87,2.78,2.78,0,0,0,1.82-.59,3,3,0,0,0,.88-1.46h1a3.88,3.88,0,0,1-1.1,2,3.7,3.7,0,0,1-2.58.91,3.51,3.51,0,0,1-2.78-1.18,5.14,5.14,0,0,1-.05-6.24,3.79,3.79,0,0,1,5.74,0Zm-4.89.35a3.64,3.64,0,0,0-.87,2.18h5.7c-.16-2-1.12-3-2.87-3A2.45,2.45,0,0,0,313.88,128Z"/><path class="cls-1" d="M327.36,128.88h-.94a2,2,0,0,0-.69-1.26,3.28,3.28,0,0,0-3.17-.08,1.16,1.16,0,0,0-.57,1,1.14,1.14,0,0,0,.73,1,11.56,11.56,0,0,0,1.75.58,8.3,8.3,0,0,1,2.14.76,1.88,1.88,0,0,1,1,1.67c0,1.67-1.12,2.51-3.36,2.51s-3.28-.94-3.47-2.83h.94a2.31,2.31,0,0,0,.77,1.57,2.94,2.94,0,0,0,1.73.43c1.6,0,2.4-.55,2.4-1.63a1.25,1.25,0,0,0-.82-1.16,10.4,10.4,0,0,0-1.83-.57,7.78,7.78,0,0,1-2-.74,1.74,1.74,0,0,1-.94-1.58,1.87,1.87,0,0,1,.89-1.62,3.77,3.77,0,0,1,2.18-.59C326,126.34,327.13,127.19,327.36,128.88Z"/><path class="cls-1" d="M330.67,123.83a.68.68,0,0,1,.25.56.79.79,0,0,1-.26.57.84.84,0,0,1-.56.23.8.8,0,0,1-.82-.8.67.67,0,0,1,.24-.56.75.75,0,0,1,.58-.24A.78.78,0,0,1,330.67,123.83Zm-1.05,2.73h1v8.28h-1Z"/><path class="cls-1" d="M339.44,128.23v-1.67h1v7.67c0,2.66-1.23,4-3.71,4a4,4,0,0,1-2.51-.71,3,3,0,0,1-1.06-2h1a2.19,2.19,0,0,0,.77,1.38,2.9,2.9,0,0,0,1.84.51c1.84,0,2.75-1,2.75-3.09v-1.58a3.08,3.08,0,0,1-3,1.88,3.42,3.42,0,0,1-2.76-1.23,4.89,4.89,0,0,1,0-5.82,3.41,3.41,0,0,1,2.76-1.25A3.07,3.07,0,0,1,339.44,128.23Zm-5-.08a3.59,3.59,0,0,0-.74,2.35,3.64,3.64,0,0,0,.69,2.3,2.51,2.51,0,0,0,2.16,1,2.58,2.58,0,0,0,2.14-1,4.2,4.2,0,0,0,0-4.7,2.78,2.78,0,0,0-4.25,0Z"/><path class="cls-1" d="M349.14,129.75v5.09h-1v-5c0-1.76-.78-2.64-2.35-2.64a2.2,2.2,0,0,0-1.67.72,2.9,2.9,0,0,0-.78,2v5h-1v-8.28h1v1.36a3.28,3.28,0,0,1,1.12-1.16,2.9,2.9,0,0,1,1.57-.42Q349.15,126.34,349.14,129.75Z"/><path class="cls-1" d="M353.14,134.56a2.93,2.93,0,0,1-1.6,2.77l-.35-.56a2.55,2.55,0,0,0,1.23-2l-.24,0a.85.85,0,0,1-.59-.21.75.75,0,0,1-.23-.58.77.77,0,0,1,.21-.59.8.8,0,0,1,.59-.22C352.81,133.24,353.14,133.68,353.14,134.56Z"/><path class="cls-1" d="M59.4,151.28a3.23,3.23,0,0,1,.74,2.23v5.33h-.92v-1.59a4.29,4.29,0,0,1-1.34,1.23,4.11,4.11,0,0,1-2.16.58,3,3,0,0,1-2-.62,2.15,2.15,0,0,1-.75-1.72,2.44,2.44,0,0,1,1.3-2.3,5.6,5.6,0,0,1,2.76-.59l2.12,0v-.3a2.1,2.1,0,0,0-2.4-2.35,2.82,2.82,0,0,0-1.73.46,2,2,0,0,0-.85,1.44h-.94A2.86,2.86,0,0,1,54.42,151a4,4,0,0,1,2.4-.64A3.25,3.25,0,0,1,59.4,151.28Zm-.22,3.32H57.11c-2.09,0-3.13.71-3.13,2.1a1.38,1.38,0,0,0,.52,1.12,2.14,2.14,0,0,0,1.41.43,3.49,3.49,0,0,0,2.31-.86,2.46,2.46,0,0,0,1-1.84Z"/><path class="cls-1" d="M68.87,153.75v5.09h-1v-5c0-1.76-.78-2.64-2.35-2.64a2.17,2.17,0,0,0-1.66.72,3,3,0,0,0-.79,2v5h-1v-8.28h1v1.36a3.28,3.28,0,0,1,1.12-1.16,2.9,2.9,0,0,1,1.57-.42Q68.88,150.34,68.87,153.75Z"/><path class="cls-1" d="M77.13,147.19h1v11.65h-.91V157.2a3,3,0,0,1-2.9,1.86,3.37,3.37,0,0,1-2.8-1.31,4.9,4.9,0,0,1-.91-3.06,4.84,4.84,0,0,1,.91-3,3.23,3.23,0,0,1,2.75-1.33,3,3,0,0,1,2.9,2Zm-4.9,5a4,4,0,0,0-.69,2.48,4.21,4.21,0,0,0,.68,2.5,2.49,2.49,0,0,0,2.16,1.05,2.45,2.45,0,0,0,2.09-1,4,4,0,0,0,.69-2.4v-.19a4,4,0,0,0-.74-2.48,2.39,2.39,0,0,0-2-1A2.54,2.54,0,0,0,72.23,152.21Z"/><path class="cls-1" d="M91.38,152a3.23,3.23,0,0,1,1.11-1.27,2.55,2.55,0,0,1,1.5-.43,2.69,2.69,0,0,1,2.08.82,3.25,3.25,0,0,1,.75,2.27v5.41h-1v-5.28a2.7,2.7,0,0,0-.48-1.76,2,2,0,0,0-1.64-.63,1.91,1.91,0,0,0-1.51.69,2.45,2.45,0,0,0-.61,1.71v5.27h-1v-5.28c0-1.59-.69-2.39-2.07-2.39a1.91,1.91,0,0,0-1.55.75,2.72,2.72,0,0,0-.64,1.83v5.09h-1v-8.28h1v1.25a2.7,2.7,0,0,1,2.4-1.47A2.49,2.49,0,0,1,91.38,152Z"/><path class="cls-1" d="M104.92,151.28a3.23,3.23,0,0,1,.74,2.23v5.33h-.92v-1.59a4.29,4.29,0,0,1-1.34,1.23,4.11,4.11,0,0,1-2.16.58,3,3,0,0,1-2-.62,2.15,2.15,0,0,1-.75-1.72,2.44,2.44,0,0,1,1.3-2.3,5.6,5.6,0,0,1,2.76-.59l2.12,0v-.3a2.1,2.1,0,0,0-2.4-2.35,2.82,2.82,0,0,0-1.73.46,2,2,0,0,0-.85,1.44h-.94A2.86,2.86,0,0,1,99.94,151a4,4,0,0,1,2.4-.64A3.25,3.25,0,0,1,104.92,151.28Zm-.22,3.32h-2.07c-2.09,0-3.13.71-3.13,2.1a1.38,1.38,0,0,0,.52,1.12,2.12,2.12,0,0,0,1.41.43,3.49,3.49,0,0,0,2.31-.86,2.46,2.46,0,0,0,1-1.84Z"/><path class="cls-1" d="M114.39,153.75v5.09h-1v-5c0-1.76-.78-2.64-2.35-2.64a2.17,2.17,0,0,0-1.66.72,2.9,2.9,0,0,0-.79,2v5h-1v-8.28h1v1.36a3.28,3.28,0,0,1,1.12-1.16,2.9,2.9,0,0,1,1.57-.42Q114.4,150.34,114.39,153.75Z"/><path class="cls-1" d="M115.48,150.56h1.06l2.7,6.9,2.67-6.9H123L118.41,162h-1l1.39-3.37Z"/><path class="cls-1" d="M128.46,150.56h1.07l2.24,7,2.08-7h.93l2.08,7,2.25-7h1.06l-2.84,8.28h-.92l-2.08-7-2.12,7h-.91Z"/><path class="cls-1" d="M147.54,151.67a5.78,5.78,0,0,1,1,3.31h-6.72a3.85,3.85,0,0,0,.81,2.38,2.6,2.6,0,0,0,2,.87,2.83,2.83,0,0,0,1.83-.59,3.11,3.11,0,0,0,.87-1.46h1a3.88,3.88,0,0,1-1.1,2,3.68,3.68,0,0,1-2.58.91,3.51,3.51,0,0,1-2.78-1.18,4.54,4.54,0,0,1-1.07-3.19,4.62,4.62,0,0,1,1-3.05,3.79,3.79,0,0,1,5.74,0Zm-4.89.35a3.7,3.7,0,0,0-.87,2.18h5.7c-.16-2-1.12-3-2.86-3A2.45,2.45,0,0,0,142.65,152Z"/><path class="cls-1" d="M150.33,147.19h1v11.65h-1Z"/><path class="cls-1" d="M153.91,147.19h1v11.65h-1Z"/><path class="cls-1" d="M157,154.28h8.08v.83H157Z"/><path class="cls-1" d="M166.87,147.19h1v7.55l4.59-4.18h1.31l-3.63,3.28,4,5h-1.26l-3.43-4.37-1.58,1.44v2.93h-1Z"/><path class="cls-1" d="M181.83,153.75v5.09h-1v-5c0-1.76-.78-2.64-2.35-2.64a2.2,2.2,0,0,0-1.67.72,2.9,2.9,0,0,0-.78,2v5h-1v-8.28h1v1.36a3.28,3.28,0,0,1,1.12-1.16,2.9,2.9,0,0,1,1.57-.42Q181.84,150.34,181.83,153.75Z"/><path class="cls-1" d="M190.39,151.65a5.11,5.11,0,0,1,0,6.1,3.92,3.92,0,0,1-5.85,0,5.09,5.09,0,0,1,0-6.1,3.59,3.59,0,0,1,2.91-1.31A3.64,3.64,0,0,1,190.39,151.65Zm-5.15.61a3.88,3.88,0,0,0-.74,2.45,3.84,3.84,0,0,0,.74,2.43,2.83,2.83,0,0,0,4.46,0,4,4,0,0,0,.74-2.43,4,4,0,0,0-.74-2.45,2.83,2.83,0,0,0-4.46,0Z"/><path class="cls-1" d="M192.17,150.56h1.07l2.24,7,2.08-7h.93l2.08,7,2.25-7h1.06l-2.83,8.28h-.93l-2.08-7-2.11,7H195Z"/><path class="cls-1" d="M211.69,153.75v5.09h-1v-5c0-1.76-.79-2.64-2.36-2.64a2.18,2.18,0,0,0-1.66.72,2.9,2.9,0,0,0-.78,2v5h-1v-8.28h1v1.36a3.2,3.2,0,0,1,1.12-1.16,2.87,2.87,0,0,1,1.56-.42Q211.69,150.34,211.69,153.75Z"/><path class="cls-1" d="M225.64,151.67a4.89,4.89,0,0,1,.91,3.05,5,5,0,0,1-.9,3,3.32,3.32,0,0,1-2.76,1.31,3,3,0,0,1-2.9-1.95V162h-1V150.56h.91v1.64a3,3,0,0,1,2.91-1.86A3.32,3.32,0,0,1,225.64,151.67Zm-5,.54a4,4,0,0,0-.69,2.45v.18a3.85,3.85,0,0,0,.73,2.44,2.45,2.45,0,0,0,2,1,2.6,2.6,0,0,0,2.18-1,5,5,0,0,0,0-5,2.48,2.48,0,0,0-2.16-1.07A2.43,2.43,0,0,0,220.65,152.21Z"/><path class="cls-1" d="M232.92,150.52v1a4.38,4.38,0,0,0-1.27-.17,2.05,2.05,0,0,0-1.79,1,3.55,3.55,0,0,0-.65,2.16v4.37h-1v-8.28h1v1.59a2.9,2.9,0,0,1,.91-1.23,2.35,2.35,0,0,1,1.6-.58A3.22,3.22,0,0,1,232.92,150.52Z"/><path class="cls-1" d="M240.55,151.65a5.11,5.11,0,0,1,0,6.1,3.93,3.93,0,0,1-5.86,0,4.66,4.66,0,0,1-1-3,4.6,4.6,0,0,1,1-3.06,3.56,3.56,0,0,1,2.91-1.31A3.65,3.65,0,0,1,240.55,151.65Zm-5.15.61a3.88,3.88,0,0,0-.74,2.45,3.84,3.84,0,0,0,.74,2.43,2.83,2.83,0,0,0,4.46,0,4,4,0,0,0,.74-2.43,4,4,0,0,0-.74-2.45,2.83,2.83,0,0,0-4.46,0Z"/><path class="cls-1" d="M249.49,147.19h1v11.65h-.91V157.2a3,3,0,0,1-2.89,1.86,3.39,3.39,0,0,1-2.81-1.31,5,5,0,0,1-.91-3.06,4.9,4.9,0,0,1,.91-3,3.25,3.25,0,0,1,2.76-1.33,3,3,0,0,1,2.89,2Zm-4.89,5a4,4,0,0,0-.69,2.48,4.2,4.2,0,0,0,.67,2.5,2.49,2.49,0,0,0,2.16,1.05,2.46,2.46,0,0,0,2.1-1,4,4,0,0,0,.69-2.4v-.19a4,4,0,0,0-.74-2.48,2.4,2.4,0,0,0-2-1A2.52,2.52,0,0,0,244.6,152.21Z"/><path class="cls-1" d="M252.47,150.56h1v5.06a3,3,0,0,0,.54,1.94,2.26,2.26,0,0,0,1.78.67,2.32,2.32,0,0,0,1.68-.74,3,3,0,0,0,.82-1.9v-5h1v8.28h-1v-1.4a3,3,0,0,1-2.76,1.62q-3,0-3-3.39Z"/><path class="cls-1" d="M267.13,151.06a3.18,3.18,0,0,1,1.13,2.21h-1a2.34,2.34,0,0,0-.83-1.57,2.79,2.79,0,0,0-1.76-.53,2.47,2.47,0,0,0-2.08,1,4.79,4.79,0,0,0,0,5.1,2.48,2.48,0,0,0,2.09.95,2.45,2.45,0,0,0,2.66-2.35h.94a3.76,3.76,0,0,1-1.18,2.38,3.6,3.6,0,0,1-2.42.8,3.48,3.48,0,0,1-2.85-1.25,4.67,4.67,0,0,1-.94-3.05,4.82,4.82,0,0,1,1-3.11,3.39,3.39,0,0,1,2.83-1.31A3.85,3.85,0,0,1,267.13,151.06Z"/><path class="cls-1" d="M271.83,147.89v2.67H274v.84h-2.16V157a1.24,1.24,0,0,0,.19.78.93.93,0,0,0,.72.22h1v.84h-1.17a1.68,1.68,0,0,1-1.37-.5,2,2,0,0,1-.37-1.34v-5.6h-1.76v-.84h1.76v-2.27Z"/><path class="cls-1" d="M281.56,152.88h-.95a1.91,1.91,0,0,0-.69-1.26,3.26,3.26,0,0,0-3.16-.08,1.09,1.09,0,0,0,.16,2,11.74,11.74,0,0,0,1.74.58,8.3,8.3,0,0,1,2.14.76,1.87,1.87,0,0,1,1,1.67c0,1.67-1.12,2.51-3.36,2.51s-3.28-.94-3.48-2.83h1a2.23,2.23,0,0,0,.77,1.57,2.9,2.9,0,0,0,1.72.43c1.6,0,2.4-.55,2.4-1.63a1.26,1.26,0,0,0-.81-1.16,10.6,10.6,0,0,0-1.84-.57,8.09,8.09,0,0,1-2-.74,1.74,1.74,0,0,1-.94-1.58,1.89,1.89,0,0,1,.89-1.62,3.79,3.79,0,0,1,2.18-.59C280.22,150.34,281.32,151.19,281.56,152.88Z"/><path class="cls-1" d="M295.21,151.65a5.15,5.15,0,0,1,0,6.1,3.93,3.93,0,0,1-5.86,0,4.66,4.66,0,0,1-1-3,4.55,4.55,0,0,1,1-3.06,3.56,3.56,0,0,1,2.91-1.31A3.67,3.67,0,0,1,295.21,151.65Zm-5.16.61a3.88,3.88,0,0,0-.73,2.45,3.84,3.84,0,0,0,.73,2.43,2.84,2.84,0,0,0,4.47,0,4,4,0,0,0,.73-2.43,4,4,0,0,0-.73-2.45,2.84,2.84,0,0,0-4.47,0Z"/><path class="cls-1" d="M304.63,153.75v5.09h-1v-5c0-1.76-.79-2.64-2.35-2.64a2.2,2.2,0,0,0-1.67.72,2.9,2.9,0,0,0-.78,2v5h-1v-8.28h1v1.36a3.28,3.28,0,0,1,1.12-1.16,2.9,2.9,0,0,1,1.57-.42C303.6,150.34,304.63,151.48,304.63,153.75Z"/><path class="cls-1" d="M307,147.19h1v11.65h-1Z"/><path class="cls-1" d="M311.76,147.83a.67.67,0,0,1,.24.56.78.78,0,0,1-.25.57.84.84,0,0,1-.56.23.8.8,0,0,1-.82-.8.67.67,0,0,1,.24-.56.75.75,0,0,1,.58-.24A.78.78,0,0,1,311.76,147.83Zm-1.05,2.73h1v8.28h-1Z"/><path class="cls-1" d="M320.88,153.75v5.09h-1v-5c0-1.76-.78-2.64-2.35-2.64a2.18,2.18,0,0,0-1.66.72,3,3,0,0,0-.79,2v5h-1v-8.28h1v1.36a3.37,3.37,0,0,1,1.12-1.16,2.9,2.9,0,0,1,1.57-.42Q320.89,150.34,320.88,153.75Z"/><path class="cls-1" d="M329.19,151.67a5.78,5.78,0,0,1,.94,3.31h-6.72a3.86,3.86,0,0,0,.82,2.38,2.59,2.59,0,0,0,2,.87,2.8,2.8,0,0,0,1.82-.59,3.12,3.12,0,0,0,.88-1.46h1a3.89,3.89,0,0,1-1.11,2,3.67,3.67,0,0,1-2.57.91,3.51,3.51,0,0,1-2.79-1.18,5.18,5.18,0,0,1-.05-6.24,3.8,3.8,0,0,1,5.75,0Zm-4.9.35a3.63,3.63,0,0,0-.86,2.18h5.69c-.16-2-1.11-3-2.86-3A2.47,2.47,0,0,0,324.29,152Z"/><path class="cls-1" d="M333.3,157.46a.73.73,0,0,1,.24.58.76.76,0,0,1-.26.57.82.82,0,0,1-.56.23.75.75,0,0,1-.57-.24.77.77,0,0,1-.24-.56.73.73,0,0,1,.24-.58.74.74,0,0,1,.57-.22A.78.78,0,0,1,333.3,157.46Z"/></svg>