<svg id="图层_1" data-name="图层 1" xmlns="http://www.w3.org/2000/svg" viewBox="0 0 400 275"><defs><style>.cls-1{fill:#33353c;}</style></defs><title>团队介绍</title><path class="cls-1" d="M10.63,84.81H20v.87H15.8V96.24h-1V85.68h-4.2Z"/><path class="cls-1" d="M21.29,84.59h1v4.88a3.11,3.11,0,0,1,1.15-1.3A3,3,0,0,1,25,87.74a2.88,2.88,0,0,1,2.2.83A3.32,3.32,0,0,1,28,91v5.28H27V91.09a2.77,2.77,0,0,0-.6-1.88,2.32,2.32,0,0,0-1.72-.64,2.21,2.21,0,0,0-1.74.84,3,3,0,0,0-.7,2v4.79h-1Z"/><path class="cls-1" d="M36.3,89.07a5.71,5.71,0,0,1,.94,3.31H30.52a4,4,0,0,0,.82,2.39,2.61,2.61,0,0,0,2.05.86A2.8,2.8,0,0,0,35.21,95a3.12,3.12,0,0,0,.88-1.46h1a3.82,3.82,0,0,1-1.11,2,3.67,3.67,0,0,1-2.57.91,3.53,3.53,0,0,1-2.79-1.18A5.18,5.18,0,0,1,30.55,89a3.43,3.43,0,0,1,2.8-1.3A3.41,3.41,0,0,1,36.3,89.07Zm-4.9.35a3.63,3.63,0,0,0-.86,2.18h5.7c-.16-2-1.12-3-2.87-3A2.5,2.5,0,0,0,31.4,89.42Z"/><path class="cls-1" d="M50.39,89.07a5.71,5.71,0,0,1,1,3.31H44.62a3.89,3.89,0,0,0,.81,2.39,2.64,2.64,0,0,0,2,.86A2.81,2.81,0,0,0,49.31,95a3.21,3.21,0,0,0,.88-1.46h1a3.88,3.88,0,0,1-1.1,2,3.68,3.68,0,0,1-2.58.91,3.51,3.51,0,0,1-2.78-1.18,4.54,4.54,0,0,1-1.07-3.19,4.62,4.62,0,0,1,1-3,3.79,3.79,0,0,1,5.74,0Zm-4.89.35a3.7,3.7,0,0,0-.87,2.18h5.7c-.16-2-1.11-3-2.86-3A2.5,2.5,0,0,0,45.5,89.42Z"/><path class="cls-1" d="M59,88.69a3.18,3.18,0,0,1,.74,2.22v5.33h-.91V94.65a4.37,4.37,0,0,1-1.35,1.24,4.2,4.2,0,0,1-2.16.57,3,3,0,0,1-2-.62,2.12,2.12,0,0,1-.76-1.71,2.46,2.46,0,0,1,1.3-2.31,5.64,5.64,0,0,1,2.77-.59l2.11,0v-.3a2.1,2.1,0,0,0-2.4-2.35A2.84,2.84,0,0,0,54.6,89a2,2,0,0,0-.85,1.44h-.94A2.9,2.9,0,0,1,54,88.38a4,4,0,0,1,2.4-.64A3.24,3.24,0,0,1,59,88.69ZM58.73,92H56.67c-2.09,0-3.14.71-3.14,2.1a1.39,1.39,0,0,0,.53,1.12,2.1,2.1,0,0,0,1.41.43,3.46,3.46,0,0,0,2.3-.86,2.46,2.46,0,0,0,1-1.84Z"/><path class="cls-1" d="M66.38,87.92v1a4.75,4.75,0,0,0-1.27-.17,2.05,2.05,0,0,0-1.79,1,3.55,3.55,0,0,0-.65,2.16v4.37h-1V88h1v1.58a3,3,0,0,1,.91-1.23,2.35,2.35,0,0,1,1.6-.58A3.22,3.22,0,0,1,66.38,87.92Z"/><path class="cls-1" d="M67.77,84.59h1V96.24h-1Z"/><path class="cls-1" d="M70.12,88h1.06l2.7,6.89L76.55,88h1.06L73.05,99.41H72L73.4,96Z"/><path class="cls-1" d="M90.63,89.07a5.53,5.53,0,0,1,0,6.08,3.34,3.34,0,0,1-2.77,1.31A3,3,0,0,1,85,94.51v4.9H84V88h.91V89.6a3,3,0,0,1,2.91-1.86A3.31,3.31,0,0,1,90.63,89.07Zm-5,.54A4,4,0,0,0,85,92.06v.18a3.88,3.88,0,0,0,.74,2.45,2.43,2.43,0,0,0,2,1,2.59,2.59,0,0,0,2.17-1,4.19,4.19,0,0,0,.67-2.49,4.35,4.35,0,0,0-.65-2.5,2.51,2.51,0,0,0-2.16-1.07A2.43,2.43,0,0,0,85.64,89.61Z"/><path class="cls-1" d="M99.32,88.69a3.18,3.18,0,0,1,.74,2.22v5.33h-.91V94.65a4.48,4.48,0,0,1-1.35,1.24,4.2,4.2,0,0,1-2.16.57,3,3,0,0,1-2-.62,2.14,2.14,0,0,1-.75-1.71,2.44,2.44,0,0,1,1.3-2.31A5.61,5.61,0,0,1,97,91.23l2.11,0v-.3a2.1,2.1,0,0,0-2.4-2.35A2.84,2.84,0,0,0,95,89a2,2,0,0,0-.85,1.44h-.94a2.87,2.87,0,0,1,1.17-2.08,4,4,0,0,1,2.4-.64A3.24,3.24,0,0,1,99.32,88.69ZM99.1,92H97c-2.09,0-3.13.71-3.13,2.1a1.36,1.36,0,0,0,.53,1.12,2.09,2.09,0,0,0,1.4.43,3.47,3.47,0,0,0,2.31-.86,2.46,2.46,0,0,0,1-1.84Z"/><path class="cls-1" d="M106.75,87.92v1a4.75,4.75,0,0,0-1.27-.17,2,2,0,0,0-1.79,1,3.55,3.55,0,0,0-.66,2.16v4.37h-1V88h1v1.58a3.07,3.07,0,0,1,.92-1.23,2.34,2.34,0,0,1,1.6-.58A3.22,3.22,0,0,1,106.75,87.92Z"/><path class="cls-1" d="M109.83,85.29V88H112v.83h-2.16v5.6a1.24,1.24,0,0,0,.2.78.9.9,0,0,0,.72.23h1v.83h-1.17a1.72,1.72,0,0,1-1.38-.5,2,2,0,0,1-.37-1.34V88.8h-1.76V88h1.76V85.69Z"/><path class="cls-1" d="M115,85.23a.67.67,0,0,1,.24.56.82.82,0,0,1-.25.58.88.88,0,0,1-.56.22.82.82,0,0,1-.58-.22.8.8,0,0,1-.24-.58.67.67,0,0,1,.24-.56.75.75,0,0,1,.58-.24A.78.78,0,0,1,115,85.23Zm-1,2.74h1v8.27h-1Z"/><path class="cls-1" d="M123.29,88.46a3.11,3.11,0,0,1,1.13,2.21h-1a2.33,2.33,0,0,0-.83-1.57,2.77,2.77,0,0,0-1.76-.53,2.49,2.49,0,0,0-2.08,1,4,4,0,0,0-.75,2.58,4.09,4.09,0,0,0,.72,2.53,2.5,2.5,0,0,0,2.1.94,2.43,2.43,0,0,0,2.65-2.35h.95a3.77,3.77,0,0,1-1.19,2.38,3.58,3.58,0,0,1-2.41.8A3.43,3.43,0,0,1,118,95.21a4.6,4.6,0,0,1-1-3,4.82,4.82,0,0,1,1-3.11,3.4,3.4,0,0,1,2.83-1.31A3.85,3.85,0,0,1,123.29,88.46Z"/><path class="cls-1" d="M127.53,85.23a.67.67,0,0,1,.24.56.83.83,0,0,1-.26.58.86.86,0,0,1-.56.22.81.81,0,0,1-.57-.22.8.8,0,0,1-.24-.58.67.67,0,0,1,.24-.56A.75.75,0,0,1,127,85,.78.78,0,0,1,127.53,85.23ZM126.47,88h1v8.27h-1Z"/><path class="cls-1" d="M136.54,89.07a5.56,5.56,0,0,1,0,6.08,3.33,3.33,0,0,1-2.77,1.31,3,3,0,0,1-2.89-1.95v4.9h-1V88h.91V89.6a3,3,0,0,1,2.91-1.86A3.34,3.34,0,0,1,136.54,89.07Zm-5,.54a4,4,0,0,0-.68,2.45v.18a3.88,3.88,0,0,0,.73,2.45,2.44,2.44,0,0,0,2,1,2.58,2.58,0,0,0,2.17-1,4.19,4.19,0,0,0,.68-2.49,4.28,4.28,0,0,0-.66-2.5,2.51,2.51,0,0,0-2.16-1.07A2.43,2.43,0,0,0,131.54,89.61Z"/><path class="cls-1" d="M145.22,88.69a3.18,3.18,0,0,1,.74,2.22v5.33h-.91V94.65a4.37,4.37,0,0,1-1.35,1.24,4.2,4.2,0,0,1-2.16.57,3,3,0,0,1-2-.62,2.12,2.12,0,0,1-.76-1.71,2.46,2.46,0,0,1,1.3-2.31,5.64,5.64,0,0,1,2.77-.59l2.11,0v-.3a2.1,2.1,0,0,0-2.4-2.35,2.84,2.84,0,0,0-1.73.46,2,2,0,0,0-.85,1.44h-.94a2.9,2.9,0,0,1,1.17-2.08,4,4,0,0,1,2.4-.64A3.24,3.24,0,0,1,145.22,88.69ZM145,92h-2.06c-2.1,0-3.14.71-3.14,2.1a1.39,1.39,0,0,0,.53,1.12,2.1,2.1,0,0,0,1.41.43,3.46,3.46,0,0,0,2.3-.86A2.46,2.46,0,0,0,145,93Z"/><path class="cls-1" d="M154.7,91.15v5.09h-1v-5c0-1.76-.79-2.64-2.36-2.64a2.18,2.18,0,0,0-1.66.72,2.9,2.9,0,0,0-.78,2v5h-1V88h1v1.36a3.23,3.23,0,0,1,1.12-1.17,2.87,2.87,0,0,1,1.56-.42Q154.7,87.74,154.7,91.15Z"/><path class="cls-1" d="M158.71,85.29V88h2.16v.83h-2.16v5.6a1.31,1.31,0,0,0,.19.78.92.92,0,0,0,.72.23h1v.83H159.5a1.72,1.72,0,0,1-1.38-.5,2,2,0,0,1-.37-1.34V88.8H156V88h1.76V85.69Z"/><path class="cls-1" d="M168.44,90.29h-.94a2,2,0,0,0-.69-1.27,2.67,2.67,0,0,0-1.68-.45,2.71,2.71,0,0,0-1.49.37,1.15,1.15,0,0,0-.58,1,1.14,1.14,0,0,0,.74,1,11.74,11.74,0,0,0,1.74.58,8,8,0,0,1,2.15.77,1.86,1.86,0,0,1,1,1.66c0,1.67-1.12,2.51-3.36,2.51s-3.28-.94-3.47-2.83h.94a2.27,2.27,0,0,0,.77,1.57,2.85,2.85,0,0,0,1.73.43c1.6,0,2.4-.54,2.4-1.63a1.24,1.24,0,0,0-.82-1.15,10.35,10.35,0,0,0-1.84-.58,7.83,7.83,0,0,1-2-.74,1.75,1.75,0,0,1-1-1.58,1.88,1.88,0,0,1,.9-1.62,3.73,3.73,0,0,1,2.17-.59C167.11,87.74,168.2,88.59,168.44,90.29Z"/><path class="cls-1" d="M177.08,85.23a.67.67,0,0,1,.24.56.83.83,0,0,1-.26.58.86.86,0,0,1-.56.22.81.81,0,0,1-.57-.22.8.8,0,0,1-.24-.58.67.67,0,0,1,.24-.56.75.75,0,0,1,.57-.24A.78.78,0,0,1,177.08,85.23ZM176,88h1v8.27h-1Z"/><path class="cls-1" d="M186.2,91.15v5.09h-1v-5c0-1.76-.78-2.64-2.35-2.64a2.2,2.2,0,0,0-1.67.72,2.9,2.9,0,0,0-.78,2v5h-1V88h1v1.36a3.31,3.31,0,0,1,1.12-1.17,2.9,2.9,0,0,1,1.57-.42Q186.21,87.74,186.2,91.15Z"/><path class="cls-1" d="M195.54,85.29V88h2.16v.83h-2.16v5.6a1.24,1.24,0,0,0,.2.78.9.9,0,0,0,.72.23h1v.83h-1.17a1.72,1.72,0,0,1-1.38-.5,2,2,0,0,1-.37-1.34V88.8h-1.76V88h1.76V85.69Z"/><path class="cls-1" d="M199.16,84.59h1v4.88a3.11,3.11,0,0,1,1.15-1.3,3,3,0,0,1,1.57-.43,2.89,2.89,0,0,1,2.2.83,3.32,3.32,0,0,1,.8,2.39v5.28h-1V91.09a2.73,2.73,0,0,0-.61-1.88,2.29,2.29,0,0,0-1.71-.64,2.21,2.21,0,0,0-1.74.84,3,3,0,0,0-.7,2v4.79h-1Z"/><path class="cls-1" d="M214.17,89.07a5.78,5.78,0,0,1,.94,3.31h-6.72a3.89,3.89,0,0,0,.82,2.39,2.61,2.61,0,0,0,2,.86,2.81,2.81,0,0,0,1.83-.59,3.12,3.12,0,0,0,.88-1.46h1a3.89,3.89,0,0,1-1.11,2,3.68,3.68,0,0,1-2.58.91,3.51,3.51,0,0,1-2.78-1.18,5.18,5.18,0,0,1-.05-6.24,3.8,3.8,0,0,1,5.75,0Zm-4.9.35a3.63,3.63,0,0,0-.86,2.18h5.69c-.16-2-1.11-3-2.86-3A2.5,2.5,0,0,0,209.27,89.42Z"/><path class="cls-1" d="M222,84.59h1v5.12a3,3,0,0,1,2.9-2,3.23,3.23,0,0,1,2.75,1.33,4.85,4.85,0,0,1,.92,3,4.91,4.91,0,0,1-.92,3.06,3.35,3.35,0,0,1-2.78,1.31,3,3,0,0,1-2.91-1.85v1.63H222Zm1.67,5A3.93,3.93,0,0,0,222.9,92v.19a3.92,3.92,0,0,0,.69,2.4,2.44,2.44,0,0,0,2.1,1,2.54,2.54,0,0,0,2.16-1.06,4.28,4.28,0,0,0,.67-2.5,4.07,4.07,0,0,0-.69-2.48,2.53,2.53,0,0,0-2.17-1A2.37,2.37,0,0,0,223.64,89.55Z"/><path class="cls-1" d="M231.49,84.59h1V96.24h-1Z"/><path class="cls-1" d="M241.32,89.05a5.11,5.11,0,0,1,0,6.1,3.93,3.93,0,0,1-5.86,0,4.66,4.66,0,0,1-1-3,4.6,4.6,0,0,1,1-3.06,3.56,3.56,0,0,1,2.91-1.31A3.65,3.65,0,0,1,241.32,89.05Zm-5.15.61a3.88,3.88,0,0,0-.74,2.45,3.84,3.84,0,0,0,.74,2.43,2.83,2.83,0,0,0,4.46,0,4,4,0,0,0,.74-2.43,4,4,0,0,0-.74-2.45,2.83,2.83,0,0,0-4.46,0Z"/><path class="cls-1" d="M249.93,88.46a3.15,3.15,0,0,1,1.13,2.21h-1a2.33,2.33,0,0,0-.83-1.57,2.77,2.77,0,0,0-1.76-.53,2.49,2.49,0,0,0-2.08,1,4,4,0,0,0-.75,2.58,4.09,4.09,0,0,0,.72,2.53,2.5,2.5,0,0,0,2.1.94,2.43,2.43,0,0,0,2.65-2.35h.94a3.76,3.76,0,0,1-1.18,2.38,3.58,3.58,0,0,1-2.41.8,3.43,3.43,0,0,1-2.85-1.25,4.6,4.6,0,0,1-1-3,4.82,4.82,0,0,1,1-3.11,3.39,3.39,0,0,1,2.83-1.31A3.85,3.85,0,0,1,249.93,88.46Z"/><path class="cls-1" d="M252.63,84.59h1v7.55L258.18,88h1.31l-3.63,3.28,4,5H258.6l-3.43-4.37-1.58,1.44v2.93h-1Z"/><path class="cls-1" d="M266.77,88.46a3.15,3.15,0,0,1,1.14,2.21h-1a2.37,2.37,0,0,0-.83-1.57,2.79,2.79,0,0,0-1.76-.53,2.47,2.47,0,0,0-2.08,1,4,4,0,0,0-.75,2.58,4.09,4.09,0,0,0,.72,2.53,2.48,2.48,0,0,0,2.09.94A2.44,2.44,0,0,0,267,93.28h.94a3.76,3.76,0,0,1-1.18,2.38,3.6,3.6,0,0,1-2.42.8,3.45,3.45,0,0,1-2.85-1.25,4.65,4.65,0,0,1-.94-3,4.82,4.82,0,0,1,1-3.11,3.39,3.39,0,0,1,2.83-1.31A3.8,3.8,0,0,1,266.77,88.46Z"/><path class="cls-1" d="M269.48,84.59h1v4.88a3.2,3.2,0,0,1,1.16-1.3,3,3,0,0,1,1.56-.43,2.9,2.9,0,0,1,2.21.83,3.32,3.32,0,0,1,.8,2.39v5.28h-1V91.09a2.73,2.73,0,0,0-.61-1.88,2.29,2.29,0,0,0-1.71-.64,2.21,2.21,0,0,0-1.74.84,3,3,0,0,0-.71,2v4.79h-1Z"/><path class="cls-1" d="M284.28,88.69a3.18,3.18,0,0,1,.73,2.22v5.33h-.91V94.65a4.44,4.44,0,0,1-1.34,1.24,4.2,4.2,0,0,1-2.16.57,3,3,0,0,1-2-.62,2.14,2.14,0,0,1-.75-1.71,2.45,2.45,0,0,1,1.29-2.31,5.67,5.67,0,0,1,2.77-.59l2.11,0v-.3a2.1,2.1,0,0,0-2.4-2.35,2.81,2.81,0,0,0-1.72.46,2,2,0,0,0-.85,1.44h-.95a2.9,2.9,0,0,1,1.17-2.08,4,4,0,0,1,2.4-.64A3.27,3.27,0,0,1,284.28,88.69ZM284.05,92H282c-2.09,0-3.14.71-3.14,2.1a1.39,1.39,0,0,0,.53,1.12,2.1,2.1,0,0,0,1.41.43,3.46,3.46,0,0,0,2.3-.86,2.46,2.46,0,0,0,1-1.84Z"/><path class="cls-1" d="M288.57,85.23a.67.67,0,0,1,.24.56.83.83,0,0,1-.26.58.88.88,0,0,1-.56.22.82.82,0,0,1-.58-.22.8.8,0,0,1-.24-.58.67.67,0,0,1,.24-.56A.75.75,0,0,1,288,85,.8.8,0,0,1,288.57,85.23ZM287.51,88h1v8.27h-1Z"/><path class="cls-1" d="M297.69,91.15v5.09h-1v-5c0-1.76-.79-2.64-2.36-2.64a2.18,2.18,0,0,0-1.66.72,2.9,2.9,0,0,0-.78,2v5h-1V88h1v1.36a3.23,3.23,0,0,1,1.12-1.17,2.87,2.87,0,0,1,1.56-.42Q297.69,87.74,297.69,91.15Z"/><path class="cls-1" d="M306.57,85.23a.67.67,0,0,1,.24.56.83.83,0,0,1-.26.58.88.88,0,0,1-.56.22.82.82,0,0,1-.58-.22.8.8,0,0,1-.24-.58.67.67,0,0,1,.24-.56A.75.75,0,0,1,306,85,.8.8,0,0,1,306.57,85.23ZM305.51,88h1v8.27h-1Z"/><path class="cls-1" d="M315.68,91.15v5.09h-1v-5c0-1.76-.78-2.64-2.35-2.64a2.18,2.18,0,0,0-1.66.72,3,3,0,0,0-.79,2v5h-1V88h1v1.36A3.4,3.4,0,0,1,311,88.16a2.93,2.93,0,0,1,1.57-.42Q315.69,87.74,315.68,91.15Z"/><path class="cls-1" d="M316.77,88h1.06l2.61,7L323,88h1.07l-3.17,8.27h-1Z"/><path class="cls-1" d="M331.48,89.07a5.78,5.78,0,0,1,.94,3.31H325.7a3.89,3.89,0,0,0,.82,2.39,2.61,2.61,0,0,0,2,.86,2.81,2.81,0,0,0,1.83-.59,3.12,3.12,0,0,0,.88-1.46h1a4,4,0,0,1-1.11,2,3.68,3.68,0,0,1-2.58.91,3.51,3.51,0,0,1-2.78-1.18,5.18,5.18,0,0,1,0-6.24,3.8,3.8,0,0,1,5.75,0Zm-4.9.35a3.63,3.63,0,0,0-.86,2.18h5.69c-.16-2-1.11-3-2.86-3A2.5,2.5,0,0,0,326.58,89.42Z"/><path class="cls-1" d="M340.07,90.29h-.95a1.94,1.94,0,0,0-.68-1.27,2.67,2.67,0,0,0-1.68-.45,2.71,2.71,0,0,0-1.49.37,1.15,1.15,0,0,0-.58,1,1.14,1.14,0,0,0,.74,1,11.74,11.74,0,0,0,1.74.58,8,8,0,0,1,2.15.77,1.86,1.86,0,0,1,1,1.66c0,1.67-1.12,2.51-3.36,2.51s-3.28-.94-3.47-2.83h.94a2.27,2.27,0,0,0,.77,1.57,2.85,2.85,0,0,0,1.73.43c1.6,0,2.4-.54,2.4-1.63a1.25,1.25,0,0,0-.82-1.15,10.35,10.35,0,0,0-1.84-.58,8.09,8.09,0,0,1-2-.74A1.74,1.74,0,0,1,333.7,90a1.88,1.88,0,0,1,.9-1.62,3.73,3.73,0,0,1,2.17-.59Q339.71,87.74,340.07,90.29Z"/><path class="cls-1" d="M343.84,85.29V88H346v.83h-2.16v5.6a1.24,1.24,0,0,0,.2.78.92.92,0,0,0,.72.23h1v.83h-1.17a1.72,1.72,0,0,1-1.38-.5,2,2,0,0,1-.37-1.34V88.8h-1.75V88h1.75V85.69Z"/><path class="cls-1" d="M353.41,89.44a3.23,3.23,0,0,1,1.11-1.27,2.6,2.6,0,0,1,1.5-.43,2.7,2.7,0,0,1,2.08.82,3.25,3.25,0,0,1,.75,2.27v5.41h-1V91a2.7,2.7,0,0,0-.48-1.76,2,2,0,0,0-1.65-.63,1.89,1.89,0,0,0-1.5.69,2.4,2.4,0,0,0-.61,1.71v5.27h-1V91c0-1.59-.69-2.39-2.07-2.39a1.89,1.89,0,0,0-1.55.76,2.65,2.65,0,0,0-.64,1.82v5.09h-1V88h1v1.24a2.7,2.7,0,0,1,2.4-1.47A2.49,2.49,0,0,1,353.41,89.44Z"/><path class="cls-1" d="M367.16,89.07a5.78,5.78,0,0,1,.94,3.31h-6.72a3.89,3.89,0,0,0,.82,2.39,2.61,2.61,0,0,0,2,.86,2.81,2.81,0,0,0,1.83-.59,3.12,3.12,0,0,0,.88-1.46h1a3.88,3.88,0,0,1-1.1,2,3.68,3.68,0,0,1-2.58.91,3.51,3.51,0,0,1-2.78-1.18,5.18,5.18,0,0,1,0-6.24,3.8,3.8,0,0,1,5.75,0Zm-4.9.35a3.63,3.63,0,0,0-.86,2.18h5.69c-.16-2-1.11-3-2.86-3A2.5,2.5,0,0,0,362.26,89.42Z"/><path class="cls-1" d="M376.36,91.15v5.09h-1v-5c0-1.76-.79-2.64-2.36-2.64a2.18,2.18,0,0,0-1.66.72,2.9,2.9,0,0,0-.78,2v5h-1V88h1v1.36a3.23,3.23,0,0,1,1.12-1.17,2.87,2.87,0,0,1,1.56-.42Q376.36,87.74,376.36,91.15Z"/><path class="cls-1" d="M380.37,85.29V88h2.16v.83h-2.16v5.6a1.31,1.31,0,0,0,.19.78.92.92,0,0,0,.72.23h1v.83h-1.16a1.72,1.72,0,0,1-1.38-.5,2,2,0,0,1-.37-1.34V88.8h-1.76V88h1.76V85.69Z"/><path class="cls-1" d="M38,108.59h1v4.88a3.18,3.18,0,0,1,1.15-1.3,3,3,0,0,1,1.57-.43,2.9,2.9,0,0,1,2.21.83,3.37,3.37,0,0,1,.8,2.39v5.28h-1v-5.15a2.73,2.73,0,0,0-.61-1.88,2.32,2.32,0,0,0-1.71-.64,2.23,2.23,0,0,0-1.75.84,3,3,0,0,0-.7,2v4.79H38Z"/><path class="cls-1" d="M52.79,112.69a3.18,3.18,0,0,1,.74,2.22v5.33h-.91v-1.59a4.37,4.37,0,0,1-1.35,1.24,4.2,4.2,0,0,1-2.16.57,3,3,0,0,1-2-.62,2.12,2.12,0,0,1-.76-1.71,2.46,2.46,0,0,1,1.3-2.31,5.64,5.64,0,0,1,2.77-.59l2.11,0v-.3a2.1,2.1,0,0,0-2.4-2.35,2.84,2.84,0,0,0-1.73.46,2,2,0,0,0-.85,1.44h-.94a2.9,2.9,0,0,1,1.17-2.08,4,4,0,0,1,2.4-.64A3.24,3.24,0,0,1,52.79,112.69ZM52.57,116H50.51c-2.09,0-3.14.71-3.14,2.1a1.39,1.39,0,0,0,.53,1.12,2.1,2.1,0,0,0,1.41.43,3.46,3.46,0,0,0,2.3-.86,2.46,2.46,0,0,0,1-1.84Z"/><path class="cls-1" d="M54.62,112h1.05l2.61,7,2.59-7H62l-3.17,8.27h-1Z"/><path class="cls-1" d="M69.32,113.07a5.78,5.78,0,0,1,1,3.31H63.54a4,4,0,0,0,.82,2.39,2.63,2.63,0,0,0,2,.86,2.78,2.78,0,0,0,1.82-.59,3,3,0,0,0,.88-1.46h1a3.88,3.88,0,0,1-1.1,2,3.7,3.7,0,0,1-2.58.91,3.51,3.51,0,0,1-2.78-1.18,5.14,5.14,0,0,1-.05-6.24,3.79,3.79,0,0,1,5.74,0Zm-4.89.35a3.64,3.64,0,0,0-.87,2.18h5.7c-.16-2-1.12-3-2.87-3A2.48,2.48,0,0,0,64.43,113.42Z"/><path class="cls-1" d="M83.42,113.07a5.78,5.78,0,0,1,.94,3.31H77.64a3.89,3.89,0,0,0,.82,2.39,2.61,2.61,0,0,0,2,.86,2.81,2.81,0,0,0,1.83-.59,3.12,3.12,0,0,0,.88-1.46h1a3.89,3.89,0,0,1-1.11,2,3.68,3.68,0,0,1-2.58.91,3.51,3.51,0,0,1-2.78-1.18,5.18,5.18,0,0,1,0-6.24,3.8,3.8,0,0,1,5.75,0Zm-4.9.35a3.63,3.63,0,0,0-.86,2.18h5.69c-.16-2-1.11-3-2.86-3A2.5,2.5,0,0,0,78.52,113.42Z"/><path class="cls-1" d="M85.32,112h1.15l2.37,3.18L91.21,112h1.14l-3,3.9,3.31,4.37H91.55l-2.71-3.65-2.72,3.65H85l3.33-4.37Z"/><path class="cls-1" d="M95.79,109.29V112H98v.83H95.79v5.6a1.24,1.24,0,0,0,.19.78.92.92,0,0,0,.72.23h1v.83H96.57a1.72,1.72,0,0,1-1.38-.5,2,2,0,0,1-.36-1.34v-5.6H93.07V112h1.76v-2.28Z"/><path class="cls-1" d="M105.69,113.07a5.71,5.71,0,0,1,.94,3.31H99.91a4,4,0,0,0,.82,2.39,2.61,2.61,0,0,0,2,.86,2.8,2.8,0,0,0,1.82-.59,3,3,0,0,0,.88-1.46h1a3.82,3.82,0,0,1-1.11,2,3.67,3.67,0,0,1-2.57.91,3.54,3.54,0,0,1-2.79-1.18,5.16,5.16,0,0,1,0-6.24,3.79,3.79,0,0,1,5.74,0Zm-4.9.35a3.63,3.63,0,0,0-.86,2.18h5.7c-.16-2-1.12-3-2.87-3A2.5,2.5,0,0,0,100.79,113.42Z"/><path class="cls-1" d="M114.89,115.15v5.09h-1v-5c0-1.76-.78-2.64-2.35-2.64a2.2,2.2,0,0,0-1.67.72,2.9,2.9,0,0,0-.78,2v5h-1V112h1v1.36a3.31,3.31,0,0,1,1.12-1.17,2.9,2.9,0,0,1,1.57-.42Q114.9,111.74,114.89,115.15Z"/><path class="cls-1" d="M123,114.29h-1a1.91,1.91,0,0,0-.69-1.27,2.63,2.63,0,0,0-1.68-.45,2.7,2.7,0,0,0-1.48.37,1.15,1.15,0,0,0-.58,1,1.14,1.14,0,0,0,.74,1,11.74,11.74,0,0,0,1.74.58,7.88,7.88,0,0,1,2.14.77,1.85,1.85,0,0,1,1,1.66c0,1.67-1.12,2.51-3.36,2.51s-3.28-.94-3.48-2.83h1a2.23,2.23,0,0,0,.77,1.57,2.83,2.83,0,0,0,1.72.43c1.6,0,2.4-.54,2.4-1.63a1.24,1.24,0,0,0-.81-1.15,10.35,10.35,0,0,0-1.84-.58,8.09,8.09,0,0,1-2-.74,1.74,1.74,0,0,1-.94-1.58,1.89,1.89,0,0,1,.89-1.62,3.77,3.77,0,0,1,2.18-.59Q122.66,111.74,123,114.29Z"/><path class="cls-1" d="M126.33,109.23a.67.67,0,0,1,.24.56.83.83,0,0,1-.26.58.86.86,0,0,1-.56.22.81.81,0,0,1-.57-.22.8.8,0,0,1-.24-.58.67.67,0,0,1,.24-.56.75.75,0,0,1,.57-.24A.78.78,0,0,1,126.33,109.23ZM125.27,112h1v8.27h-1Z"/><path class="cls-1" d="M127.8,112h1.06l2.6,7,2.6-7h1.07L132,120.24h-1Z"/><path class="cls-1" d="M142.5,113.07a5.71,5.71,0,0,1,.95,3.31h-6.72a3.89,3.89,0,0,0,.81,2.39,2.64,2.64,0,0,0,2.05.86,2.81,2.81,0,0,0,1.83-.59,3.21,3.21,0,0,0,.88-1.46h1a3.88,3.88,0,0,1-1.1,2,3.68,3.68,0,0,1-2.58.91,3.51,3.51,0,0,1-2.78-1.18,4.54,4.54,0,0,1-1.07-3.19,4.62,4.62,0,0,1,1-3,3.79,3.79,0,0,1,5.74,0Zm-4.89.35a3.7,3.7,0,0,0-.87,2.18h5.7c-.16-2-1.11-3-2.86-3A2.48,2.48,0,0,0,137.61,113.42Z"/><path class="cls-1" d="M157,115.15v5.09h-1v-5c0-1.76-.78-2.64-2.35-2.64a2.17,2.17,0,0,0-1.66.72,3,3,0,0,0-.79,2v5h-1V112h1v1.36a3.31,3.31,0,0,1,1.12-1.17,2.9,2.9,0,0,1,1.57-.42Q157,111.74,157,115.15Z"/><path class="cls-1" d="M165.34,113.07a5.78,5.78,0,0,1,.94,3.31h-6.72a3.89,3.89,0,0,0,.82,2.39,2.61,2.61,0,0,0,2,.86,2.81,2.81,0,0,0,1.83-.59,3.21,3.21,0,0,0,.88-1.46h1a3.88,3.88,0,0,1-1.1,2,3.68,3.68,0,0,1-2.58.91,3.51,3.51,0,0,1-2.78-1.18,4.54,4.54,0,0,1-1.07-3.19,4.62,4.62,0,0,1,1-3,3.8,3.8,0,0,1,5.75,0Zm-4.9.35a3.63,3.63,0,0,0-.86,2.18h5.69c-.16-2-1.11-3-2.86-3A2.5,2.5,0,0,0,160.44,113.42Z"/><path class="cls-1" d="M169.82,109.29V112H172v.83h-2.16v5.6a1.24,1.24,0,0,0,.19.78.92.92,0,0,0,.72.23h1v.83H170.6a1.72,1.72,0,0,1-1.38-.5,2,2,0,0,1-.36-1.34v-5.6H167.1V112h1.76v-2.28Z"/><path class="cls-1" d="M172.5,112h1.08l2.24,7,2.08-7h.92l2.08,7,2.26-7h1.06l-2.84,8.27h-.92l-2.08-7-2.12,7h-.91Z"/><path class="cls-1" d="M191.85,113.05a5.11,5.11,0,0,1,0,6.1,3.93,3.93,0,0,1-5.86,0,4.66,4.66,0,0,1-1-3,4.6,4.6,0,0,1,1-3.06,3.56,3.56,0,0,1,2.91-1.31A3.65,3.65,0,0,1,191.85,113.05Zm-5.15.61a3.88,3.88,0,0,0-.74,2.45,3.84,3.84,0,0,0,.74,2.43,2.83,2.83,0,0,0,4.46,0,4,4,0,0,0,.74-2.43,4,4,0,0,0-.74-2.45,2.83,2.83,0,0,0-4.46,0Z"/><path class="cls-1" d="M199.22,111.92v1a4.62,4.62,0,0,0-1.26-.17,2,2,0,0,0-1.79,1,3.55,3.55,0,0,0-.66,2.16v4.37h-1V112h1v1.58a3.15,3.15,0,0,1,.91-1.23,2.35,2.35,0,0,1,1.6-.58A3.19,3.19,0,0,1,199.22,111.92Z"/><path class="cls-1" d="M200.31,108.59h1v7.55l4.59-4.17h1.31l-3.63,3.28,4,5h-1.26l-3.43-4.37-1.58,1.44v2.93h-1Z"/><path class="cls-1" d="M220.42,113.05a5.11,5.11,0,0,1,0,6.1,3.92,3.92,0,0,1-5.85,0,4.66,4.66,0,0,1-1-3,4.6,4.6,0,0,1,1-3.06,3.59,3.59,0,0,1,2.92-1.31A3.63,3.63,0,0,1,220.42,113.05Zm-5.15.61a3.88,3.88,0,0,0-.73,2.45,3.84,3.84,0,0,0,.73,2.43,2.84,2.84,0,0,0,4.47,0,4,4,0,0,0,.73-2.43,4,4,0,0,0-.73-2.45,2.84,2.84,0,0,0-4.47,0Z"/><path class="cls-1" d="M228,108.81v.85h-1.39a1.16,1.16,0,0,0-.92.32,1.49,1.49,0,0,0-.28,1v1h2.48v.83h-2.48v7.44h-1V112.8H222.2V112h2.21v-1a2.19,2.19,0,0,1,.51-1.58,2,2,0,0,1,1.57-.6Z"/><path class="cls-1" d="M240.28,112.46a3.11,3.11,0,0,1,1.13,2.21h-1a2.33,2.33,0,0,0-.83-1.57,2.77,2.77,0,0,0-1.76-.53,2.49,2.49,0,0,0-2.08,1,4,4,0,0,0-.75,2.58,4.09,4.09,0,0,0,.72,2.53,2.5,2.5,0,0,0,2.1.94,2.43,2.43,0,0,0,2.65-2.35h.95a3.77,3.77,0,0,1-1.19,2.38,3.58,3.58,0,0,1-2.41.8,3.43,3.43,0,0,1-2.85-1.25,4.6,4.6,0,0,1-.95-3,4.82,4.82,0,0,1,1-3.11,3.4,3.4,0,0,1,2.83-1.31A3.85,3.85,0,0,1,240.28,112.46Z"/><path class="cls-1" d="M249.53,113.05a5.15,5.15,0,0,1,0,6.1,3.93,3.93,0,0,1-5.86,0,4.66,4.66,0,0,1-1-3,4.55,4.55,0,0,1,1-3.06,3.56,3.56,0,0,1,2.91-1.31A3.67,3.67,0,0,1,249.53,113.05Zm-5.15.61a3.82,3.82,0,0,0-.74,2.45,3.79,3.79,0,0,0,.74,2.43,2.61,2.61,0,0,0,2.22,1.09,2.64,2.64,0,0,0,2.24-1.09,4,4,0,0,0,.73-2.43,4,4,0,0,0-.73-2.45,2.64,2.64,0,0,0-2.24-1.09A2.61,2.61,0,0,0,244.38,113.66Z"/><path class="cls-1" d="M259,115.15v5.09h-1v-5c0-1.76-.78-2.64-2.35-2.64a2.2,2.2,0,0,0-1.67.72,2.9,2.9,0,0,0-.78,2v5h-1V112h1v1.36a3.31,3.31,0,0,1,1.12-1.17,2.9,2.9,0,0,1,1.57-.42Q259,111.74,259,115.15Z"/><path class="cls-1" d="M263,109.29V112h2.16v.83H263v5.6a1.24,1.24,0,0,0,.19.78.92.92,0,0,0,.72.23h1v.83h-1.17a1.72,1.72,0,0,1-1.38-.5,2,2,0,0,1-.36-1.34v-5.6h-1.76V112H262v-2.28Z"/><path class="cls-1" d="M272.66,112.69a3.18,3.18,0,0,1,.74,2.22v5.33h-.91v-1.59a4.48,4.48,0,0,1-1.35,1.24,4.2,4.2,0,0,1-2.16.57,3,3,0,0,1-2-.62,2.14,2.14,0,0,1-.75-1.71,2.44,2.44,0,0,1,1.3-2.31,5.61,5.61,0,0,1,2.77-.59l2.11,0v-.3a2.1,2.1,0,0,0-2.4-2.35,2.84,2.84,0,0,0-1.73.46,2,2,0,0,0-.85,1.44h-.94a2.9,2.9,0,0,1,1.17-2.08,4,4,0,0,1,2.4-.64A3.24,3.24,0,0,1,272.66,112.69Zm-.22,3.31h-2.07c-2.09,0-3.13.71-3.13,2.1a1.36,1.36,0,0,0,.53,1.12,2.09,2.09,0,0,0,1.4.43,3.47,3.47,0,0,0,2.31-.86,2.46,2.46,0,0,0,1-1.84Z"/><path class="cls-1" d="M281.32,112.46a3.11,3.11,0,0,1,1.13,2.21h-1a2.33,2.33,0,0,0-.83-1.57,2.77,2.77,0,0,0-1.76-.53,2.49,2.49,0,0,0-2.08,1,4,4,0,0,0-.75,2.58,4.09,4.09,0,0,0,.72,2.53,2.5,2.5,0,0,0,2.1.94,2.43,2.43,0,0,0,2.65-2.35h.95a3.77,3.77,0,0,1-1.19,2.38,3.58,3.58,0,0,1-2.41.8,3.43,3.43,0,0,1-2.85-1.25,4.6,4.6,0,0,1-1-3,4.82,4.82,0,0,1,1-3.11,3.4,3.4,0,0,1,2.83-1.31A3.85,3.85,0,0,1,281.32,112.46Z"/><path class="cls-1" d="M286,109.29V112h2.16v.83H286v5.6a1.31,1.31,0,0,0,.19.78.92.92,0,0,0,.72.23h1v.83h-1.16a1.72,1.72,0,0,1-1.38-.5,2,2,0,0,1-.37-1.34v-5.6H283.3V112h1.76v-2.28Z"/><path class="cls-1" d="M295.75,114.29h-.94a2,2,0,0,0-.69-1.27,2.67,2.67,0,0,0-1.68-.45,2.71,2.71,0,0,0-1.49.37,1.17,1.17,0,0,0-.58,1,1.14,1.14,0,0,0,.74,1,11.74,11.74,0,0,0,1.74.58,8,8,0,0,1,2.15.77,1.86,1.86,0,0,1,1,1.66c0,1.67-1.12,2.51-3.36,2.51s-3.28-.94-3.47-2.83h.94a2.27,2.27,0,0,0,.77,1.57,2.85,2.85,0,0,0,1.73.43c1.6,0,2.4-.54,2.4-1.63a1.24,1.24,0,0,0-.82-1.15,10.35,10.35,0,0,0-1.84-.58,7.83,7.83,0,0,1-2-.74,1.75,1.75,0,0,1-.95-1.58,1.88,1.88,0,0,1,.9-1.62,3.73,3.73,0,0,1,2.17-.59C294.42,111.74,295.51,112.59,295.75,114.29Z"/><path class="cls-1" d="M308.93,112.69a3.18,3.18,0,0,1,.74,2.22v5.33h-.91v-1.59a4.37,4.37,0,0,1-1.35,1.24,4.2,4.2,0,0,1-2.16.57,3,3,0,0,1-2-.62,2.12,2.12,0,0,1-.76-1.71,2.46,2.46,0,0,1,1.3-2.31,5.64,5.64,0,0,1,2.77-.59l2.11,0v-.3a2.1,2.1,0,0,0-2.4-2.35,2.84,2.84,0,0,0-1.73.46,2,2,0,0,0-.85,1.44h-.94a2.9,2.9,0,0,1,1.17-2.08,4,4,0,0,1,2.4-.64A3.24,3.24,0,0,1,308.93,112.69Zm-.22,3.31h-2.06c-2.1,0-3.14.71-3.14,2.1a1.39,1.39,0,0,0,.53,1.12,2.1,2.1,0,0,0,1.41.43,3.46,3.46,0,0,0,2.3-.86,2.46,2.46,0,0,0,1-1.84Z"/><path class="cls-1" d="M318.4,115.15v5.09h-1v-5c0-1.76-.78-2.64-2.35-2.64a2.18,2.18,0,0,0-1.66.72,3,3,0,0,0-.79,2v5h-1V112h1v1.36a3.4,3.4,0,0,1,1.12-1.17,2.93,2.93,0,0,1,1.57-.42Q318.4,111.74,318.4,115.15Z"/><path class="cls-1" d="M326.66,108.59h1v11.65h-.91v-1.63a3,3,0,0,1-2.9,1.85,3.38,3.38,0,0,1-2.8-1.31,5,5,0,0,1-.91-3.06,4.9,4.9,0,0,1,.91-3,3.23,3.23,0,0,1,2.75-1.33,3,3,0,0,1,2.9,2Zm-4.9,5a4.06,4.06,0,0,0-.68,2.48,4.2,4.2,0,0,0,.67,2.5,2.5,2.5,0,0,0,2.16,1.06,2.46,2.46,0,0,0,2.09-1,4,4,0,0,0,.69-2.4V116a4,4,0,0,0-.73-2.48,2.41,2.41,0,0,0-2-1A2.55,2.55,0,0,0,321.76,113.61Z"/><path class="cls-1" d="M339.64,111.92v1a4.75,4.75,0,0,0-1.27-.17,2.05,2.05,0,0,0-1.79,1,3.55,3.55,0,0,0-.66,2.16v4.37h-1V112h1v1.58a3.07,3.07,0,0,1,.92-1.23,2.35,2.35,0,0,1,1.6-.58A3.22,3.22,0,0,1,339.64,111.92Z"/><path class="cls-1" d="M342.26,109.23a.67.67,0,0,1,.24.56.82.82,0,0,1-.25.58.91.91,0,0,1-.57.22.81.81,0,0,1-.57-.22.8.8,0,0,1-.24-.58.67.67,0,0,1,.24-.56.75.75,0,0,1,.57-.24A.78.78,0,0,1,342.26,109.23ZM341.21,112h1v8.27h-1Z"/><path class="cls-1" d="M350.56,112.46a3.15,3.15,0,0,1,1.14,2.21h-1a2.37,2.37,0,0,0-.83-1.57,2.79,2.79,0,0,0-1.76-.53,2.47,2.47,0,0,0-2.08,1,4,4,0,0,0-.75,2.58,4.09,4.09,0,0,0,.72,2.53,2.48,2.48,0,0,0,2.09.94,2.44,2.44,0,0,0,2.66-2.35h.94a3.76,3.76,0,0,1-1.18,2.38,3.6,3.6,0,0,1-2.42.8,3.45,3.45,0,0,1-2.85-1.25,4.65,4.65,0,0,1-.94-3,4.82,4.82,0,0,1,1-3.11,3.39,3.39,0,0,1,2.83-1.31A3.8,3.8,0,0,1,350.56,112.46Z"/><path class="cls-1" d="M353.27,108.59h1v4.88a3.11,3.11,0,0,1,1.15-1.3,3,3,0,0,1,1.56-.43,2.9,2.9,0,0,1,2.21.83A3.32,3.32,0,0,1,360,115v5.28h-1v-5.15a2.73,2.73,0,0,0-.61-1.88,2.29,2.29,0,0,0-1.71-.64,2.21,2.21,0,0,0-1.74.84,3,3,0,0,0-.7,2v4.79h-1Z"/><path class="cls-1" d="M118.87,137.07a5.78,5.78,0,0,1,.95,3.31H113.1a3.89,3.89,0,0,0,.81,2.39,2.63,2.63,0,0,0,2,.86,2.78,2.78,0,0,0,1.82-.59,3,3,0,0,0,.88-1.46h1a3.88,3.88,0,0,1-1.1,2,3.7,3.7,0,0,1-2.58.91,3.51,3.51,0,0,1-2.78-1.18,4.55,4.55,0,0,1-1.08-3.19,4.63,4.63,0,0,1,1-3.05,3.79,3.79,0,0,1,5.74,0Zm-4.89.35a3.64,3.64,0,0,0-.87,2.18h5.7c-.16-2-1.12-3-2.87-3A2.48,2.48,0,0,0,114,137.42Z"/><path class="cls-1" d="M120.78,136h1.15l2.37,3.18,2.37-3.18h1.13l-3,3.9,3.31,4.37H127l-2.7-3.65-2.72,3.65h-1.16l3.33-4.37Z"/><path class="cls-1" d="M135.85,137.07a5.56,5.56,0,0,1,0,6.08,3.32,3.32,0,0,1-2.76,1.31,3,3,0,0,1-2.9-2v4.9h-1V136h.91v1.63a3,3,0,0,1,2.91-1.86A3.32,3.32,0,0,1,135.85,137.07Zm-5,.54a4,4,0,0,0-.69,2.45v.18a3.88,3.88,0,0,0,.73,2.45,2.45,2.45,0,0,0,2,1,2.61,2.61,0,0,0,2.18-1,5,5,0,0,0,0-5,2.51,2.51,0,0,0-2.16-1.07A2.43,2.43,0,0,0,130.86,137.61Z"/><path class="cls-1" d="M144.74,137.07a5.71,5.71,0,0,1,.95,3.31H139a3.89,3.89,0,0,0,.81,2.39,2.64,2.64,0,0,0,2.05.86,2.81,2.81,0,0,0,1.83-.59,3.21,3.21,0,0,0,.88-1.46h1a3.88,3.88,0,0,1-1.1,2,3.68,3.68,0,0,1-2.58.91,3.51,3.51,0,0,1-2.78-1.18,4.54,4.54,0,0,1-1.07-3.19,4.62,4.62,0,0,1,1-3.05,3.79,3.79,0,0,1,5.74,0Zm-4.89.35a3.7,3.7,0,0,0-.87,2.18h5.7c-.16-2-1.11-3-2.86-3A2.5,2.5,0,0,0,139.85,137.42Z"/><path class="cls-1" d="M151.9,135.92v1a4.75,4.75,0,0,0-1.27-.17,2,2,0,0,0-1.79,1,3.55,3.55,0,0,0-.66,2.16v4.37h-1V136h1v1.58a3.07,3.07,0,0,1,.92-1.23,2.34,2.34,0,0,1,1.6-.58A3.22,3.22,0,0,1,151.9,135.92Z"/><path class="cls-1" d="M154.52,133.23a.67.67,0,0,1,.24.56.83.83,0,0,1-.26.58.86.86,0,0,1-.56.22.81.81,0,0,1-.57-.22.8.8,0,0,1-.24-.58.67.67,0,0,1,.24-.56.75.75,0,0,1,.57-.24A.78.78,0,0,1,154.52,133.23ZM153.46,136h1v8.27h-1Z"/><path class="cls-1" d="M163.21,137.07a5.78,5.78,0,0,1,.94,3.31h-6.72a3.89,3.89,0,0,0,.82,2.39,2.61,2.61,0,0,0,2,.86,2.81,2.81,0,0,0,1.83-.59,3.12,3.12,0,0,0,.88-1.46h1a3.89,3.89,0,0,1-1.11,2,3.68,3.68,0,0,1-2.58.91,3.51,3.51,0,0,1-2.78-1.18,5.18,5.18,0,0,1,0-6.24,3.8,3.8,0,0,1,5.75,0Zm-4.9.35a3.63,3.63,0,0,0-.86,2.18h5.69c-.16-2-1.11-3-2.86-3A2.5,2.5,0,0,0,158.31,137.42Z"/><path class="cls-1" d="M172.41,139.15v5.09h-1v-5c0-1.76-.79-2.64-2.36-2.64a2.18,2.18,0,0,0-1.66.72,2.9,2.9,0,0,0-.78,2v5h-1V136h1v1.36a3.23,3.23,0,0,1,1.12-1.17,2.87,2.87,0,0,1,1.56-.42Q172.4,135.74,172.41,139.15Z"/><path class="cls-1" d="M180.33,136.46a3.15,3.15,0,0,1,1.13,2.21h-1a2.33,2.33,0,0,0-.83-1.57,2.77,2.77,0,0,0-1.76-.53,2.49,2.49,0,0,0-2.08,1,4,4,0,0,0-.75,2.58,4.09,4.09,0,0,0,.72,2.53,2.5,2.5,0,0,0,2.1.94,2.43,2.43,0,0,0,2.65-2.35h.95a3.82,3.82,0,0,1-1.19,2.38,3.58,3.58,0,0,1-2.41.8,3.43,3.43,0,0,1-2.85-1.25,4.6,4.6,0,0,1-1-3.05,4.82,4.82,0,0,1,1-3.11,3.4,3.4,0,0,1,2.83-1.31A3.85,3.85,0,0,1,180.33,136.46Z"/><path class="cls-1" d="M189.32,137.07a5.71,5.71,0,0,1,.94,3.31h-6.72a4,4,0,0,0,.82,2.39,2.61,2.61,0,0,0,2,.86,2.8,2.8,0,0,0,1.82-.59,3.12,3.12,0,0,0,.88-1.46h1a3.89,3.89,0,0,1-1.11,2,3.67,3.67,0,0,1-2.57.91,3.53,3.53,0,0,1-2.79-1.18,5.18,5.18,0,0,1-.05-6.24,3.8,3.8,0,0,1,5.75,0Zm-4.9.35a3.63,3.63,0,0,0-.86,2.18h5.69c-.16-2-1.11-3-2.86-3A2.5,2.5,0,0,0,184.42,137.42Z"/><path class="cls-1" d="M198.66,133.23a.67.67,0,0,1,.24.56.82.82,0,0,1-.25.58.88.88,0,0,1-.56.22.82.82,0,0,1-.58-.22.8.8,0,0,1-.24-.58.67.67,0,0,1,.24-.56.75.75,0,0,1,.58-.24A.78.78,0,0,1,198.66,133.23Zm-1,2.74h1v8.27h-1Z"/><path class="cls-1" d="M207.78,139.15v5.09h-1v-5c0-1.76-.78-2.64-2.35-2.64a2.17,2.17,0,0,0-1.66.72,3,3,0,0,0-.79,2v5h-1V136h1v1.36a3.31,3.31,0,0,1,1.12-1.17,2.9,2.9,0,0,1,1.57-.42Q207.78,135.74,207.78,139.15Z"/><path class="cls-1" d="M220,132.81v.85h-1.39a1.16,1.16,0,0,0-.92.32,1.49,1.49,0,0,0-.28,1v1h5v8.27h-1V136.8h-4.09v7.44h-1V136.8H214.2V136h2.21v-1a2.19,2.19,0,0,1,.51-1.58,2,2,0,0,1,1.57-.6Z"/><path class="cls-1" d="M231.46,139.15v5.09h-1v-5c0-1.76-.78-2.64-2.35-2.64a2.17,2.17,0,0,0-1.66.72,3,3,0,0,0-.79,2v5h-1V136h1v1.36a3.31,3.31,0,0,1,1.12-1.17,2.9,2.9,0,0,1,1.57-.42Q231.47,135.74,231.46,139.15Z"/><path class="cls-1" d="M239.56,136.69a3.18,3.18,0,0,1,.73,2.22v5.33h-.91v-1.59a4.44,4.44,0,0,1-1.34,1.24,4.2,4.2,0,0,1-2.16.57,3,3,0,0,1-2-.62,2.14,2.14,0,0,1-.75-1.71,2.45,2.45,0,0,1,1.29-2.31,5.67,5.67,0,0,1,2.77-.59l2.11,0v-.3a2.1,2.1,0,0,0-2.4-2.35,2.81,2.81,0,0,0-1.72.46,2,2,0,0,0-.85,1.44h-1a2.9,2.9,0,0,1,1.17-2.08,4,4,0,0,1,2.4-.64A3.28,3.28,0,0,1,239.56,136.69Zm-.23,3.31h-2.06c-2.09,0-3.14.71-3.14,2.1a1.39,1.39,0,0,0,.53,1.12,2.1,2.1,0,0,0,1.41.43,3.46,3.46,0,0,0,2.3-.86,2.46,2.46,0,0,0,1-1.84Z"/><path class="cls-1" d="M249,139.15v5.09h-1v-5c0-1.76-.78-2.64-2.35-2.64a2.2,2.2,0,0,0-1.67.72,2.9,2.9,0,0,0-.78,2v5h-1V136h1v1.36a3.31,3.31,0,0,1,1.12-1.17,2.9,2.9,0,0,1,1.57-.42Q249,135.74,249,139.15Z"/><path class="cls-1" d="M257,136.46a3.15,3.15,0,0,1,1.14,2.21h-1a2.38,2.38,0,0,0-.84-1.57,2.75,2.75,0,0,0-1.76-.53,2.5,2.5,0,0,0-2.08,1,4,4,0,0,0-.75,2.58,4.09,4.09,0,0,0,.72,2.53,2.5,2.5,0,0,0,2.1.94,2.43,2.43,0,0,0,2.65-2.35h.95a3.77,3.77,0,0,1-1.19,2.38,3.56,3.56,0,0,1-2.41.8,3.43,3.43,0,0,1-2.85-1.25,4.6,4.6,0,0,1-.94-3.05,4.82,4.82,0,0,1,1-3.11,3.4,3.4,0,0,1,2.83-1.31A3.83,3.83,0,0,1,257,136.46Z"/><path class="cls-1" d="M261.19,133.23a.67.67,0,0,1,.24.56.83.83,0,0,1-.26.58.86.86,0,0,1-.56.22.81.81,0,0,1-.57-.22.8.8,0,0,1-.24-.58.67.67,0,0,1,.24-.56.75.75,0,0,1,.57-.24A.78.78,0,0,1,261.19,133.23ZM260.13,136h1v8.27h-1Z"/><path class="cls-1" d="M270.31,139.15v5.09h-1v-5c0-1.76-.78-2.64-2.35-2.64a2.2,2.2,0,0,0-1.67.72,2.9,2.9,0,0,0-.78,2v5h-1V136h1v1.36a3.31,3.31,0,0,1,1.12-1.17,2.9,2.9,0,0,1,1.57-.42Q270.32,135.74,270.31,139.15Z"/><path class="cls-1" d="M278.69,137.63V136h1v7.66c0,2.67-1.23,4-3.71,4a4,4,0,0,1-2.51-.7,3,3,0,0,1-1.06-2h1a2.19,2.19,0,0,0,.77,1.38,2.9,2.9,0,0,0,1.84.51c1.84,0,2.75-1,2.75-3.09v-1.58a3.07,3.07,0,0,1-3,1.89,3.43,3.43,0,0,1-2.76-1.24,4.89,4.89,0,0,1,0-5.82,3.41,3.41,0,0,1,2.76-1.25A3.07,3.07,0,0,1,278.69,137.63Zm-5-.08a3.59,3.59,0,0,0-.74,2.35,3.69,3.69,0,0,0,.69,2.31,2.53,2.53,0,0,0,2.16,1,2.58,2.58,0,0,0,2.14-1,4.2,4.2,0,0,0,0-4.7,2.78,2.78,0,0,0-4.25,0Z"/><path class="cls-1" d="M283.3,142.86a.73.73,0,0,1,.24.58.78.78,0,0,1-.25.57.86.86,0,0,1-.56.23.75.75,0,0,1-.58-.24.77.77,0,0,1-.24-.56.73.73,0,0,1,.24-.58.75.75,0,0,1,.58-.22A.77.77,0,0,1,283.3,142.86Z"/><path class="cls-1" d="M10.63,156.81H20v.87H15.8v10.56h-1V157.68h-4.2Z"/><path class="cls-1" d="M21.29,156.59h1v4.88a3.11,3.11,0,0,1,1.15-1.3,3,3,0,0,1,1.57-.43,2.88,2.88,0,0,1,2.2.83A3.32,3.32,0,0,1,28,163v5.28H27v-5.15a2.77,2.77,0,0,0-.6-1.88,2.32,2.32,0,0,0-1.72-.64,2.21,2.21,0,0,0-1.74.84,3,3,0,0,0-.7,2v4.79h-1Z"/><path class="cls-1" d="M36.3,161.07a5.71,5.71,0,0,1,.94,3.31H30.52a4,4,0,0,0,.82,2.39,2.61,2.61,0,0,0,2.05.86,2.8,2.8,0,0,0,1.82-.59,3.12,3.12,0,0,0,.88-1.46h1a3.82,3.82,0,0,1-1.11,2,3.67,3.67,0,0,1-2.57.91,3.53,3.53,0,0,1-2.79-1.18,5.18,5.18,0,0,1-.05-6.24,3.43,3.43,0,0,1,2.8-1.3A3.41,3.41,0,0,1,36.3,161.07Zm-4.9.35a3.63,3.63,0,0,0-.86,2.18h5.7c-.16-2-1.12-3-2.87-3A2.5,2.5,0,0,0,31.4,161.42Z"/><path class="cls-1" d="M37.85,160h1.06l2.7,6.89L44.28,160h1.06l-4.56,11.44h-1L41.13,168Z"/><path class="cls-1" d="M57.83,160.69a3.18,3.18,0,0,1,.74,2.22v5.33h-.91v-1.59a4.37,4.37,0,0,1-1.35,1.24,4.2,4.2,0,0,1-2.16.57,3,3,0,0,1-2-.62,2.12,2.12,0,0,1-.76-1.71,2.46,2.46,0,0,1,1.3-2.31,5.64,5.64,0,0,1,2.77-.59l2.11,0v-.3a2.1,2.1,0,0,0-2.4-2.35,2.84,2.84,0,0,0-1.73.46,2,2,0,0,0-.85,1.44h-.94a2.9,2.9,0,0,1,1.17-2.08,4,4,0,0,1,2.4-.64A3.24,3.24,0,0,1,57.83,160.69ZM57.61,164H55.55c-2.09,0-3.14.71-3.14,2.1a1.39,1.39,0,0,0,.53,1.12,2.1,2.1,0,0,0,1.41.43,3.46,3.46,0,0,0,2.3-.86,2.46,2.46,0,0,0,1-1.84Z"/><path class="cls-1" d="M65.26,159.92v1a4.75,4.75,0,0,0-1.27-.17,2.05,2.05,0,0,0-1.79,1,3.55,3.55,0,0,0-.65,2.16v4.37h-1V160h1v1.58a3,3,0,0,1,.91-1.23,2.35,2.35,0,0,1,1.6-.58A3.22,3.22,0,0,1,65.26,159.92Z"/><path class="cls-1" d="M72.63,161.07a5.71,5.71,0,0,1,1,3.31H66.86a3.89,3.89,0,0,0,.81,2.39,2.64,2.64,0,0,0,2,.86,2.81,2.81,0,0,0,1.83-.59,3.21,3.21,0,0,0,.88-1.46h1a3.88,3.88,0,0,1-1.1,2,3.68,3.68,0,0,1-2.58.91,3.51,3.51,0,0,1-2.78-1.18,4.54,4.54,0,0,1-1.07-3.19,4.62,4.62,0,0,1,1-3.05,3.79,3.79,0,0,1,5.74,0Zm-4.89.35a3.7,3.7,0,0,0-.87,2.18h5.7c-.16-2-1.11-3-2.86-3A2.48,2.48,0,0,0,67.74,161.42Z"/><path class="cls-1" d="M85.11,159.92v1a4.62,4.62,0,0,0-1.26-.17,2,2,0,0,0-1.79,1,3.55,3.55,0,0,0-.66,2.16v4.37h-1V160h1v1.58a3.15,3.15,0,0,1,.91-1.23,2.35,2.35,0,0,1,1.6-.58A3.15,3.15,0,0,1,85.11,159.92Z"/><path class="cls-1" d="M92.49,161.07a5.71,5.71,0,0,1,.94,3.31H86.71a4,4,0,0,0,.82,2.39,2.61,2.61,0,0,0,2,.86A2.8,2.8,0,0,0,91.4,167a3,3,0,0,0,.88-1.46h1a3.82,3.82,0,0,1-1.11,2,3.67,3.67,0,0,1-2.57.91,3.54,3.54,0,0,1-2.79-1.18,5.16,5.16,0,0,1,0-6.24,3.79,3.79,0,0,1,5.74,0Zm-4.9.35a3.63,3.63,0,0,0-.86,2.18h5.7c-.16-2-1.12-3-2.87-3A2.5,2.5,0,0,0,87.59,161.42Z"/><path class="cls-1" d="M101.08,162.29h-.94a2,2,0,0,0-.69-1.27,2.63,2.63,0,0,0-1.68-.45,2.71,2.71,0,0,0-1.49.37,1.16,1.16,0,0,0-.57,1,1.13,1.13,0,0,0,.73,1,11.74,11.74,0,0,0,1.74.58,8,8,0,0,1,2.15.77,1.86,1.86,0,0,1,1,1.66c0,1.67-1.12,2.51-3.36,2.51s-3.28-.94-3.47-2.83h.94a2.31,2.31,0,0,0,.77,1.57,2.85,2.85,0,0,0,1.73.43c1.6,0,2.4-.54,2.4-1.63a1.24,1.24,0,0,0-.82-1.15,10.35,10.35,0,0,0-1.84-.58,7.83,7.83,0,0,1-2-.74,1.75,1.75,0,0,1-1-1.58,1.88,1.88,0,0,1,.9-1.62,3.74,3.74,0,0,1,2.18-.59C99.75,159.74,100.85,160.59,101.08,162.29Z"/><path class="cls-1" d="M109.46,161.07a5.53,5.53,0,0,1,0,6.08,3.33,3.33,0,0,1-2.77,1.31,3,3,0,0,1-2.89-2v4.9h-1V160h.91v1.63a3,3,0,0,1,2.91-1.86A3.31,3.31,0,0,1,109.46,161.07Zm-5,.54a4,4,0,0,0-.69,2.45v.18a3.88,3.88,0,0,0,.74,2.45,2.43,2.43,0,0,0,2,1,2.59,2.59,0,0,0,2.17-1,4.19,4.19,0,0,0,.67-2.49,4.28,4.28,0,0,0-.65-2.5,2.51,2.51,0,0,0-2.16-1.07A2.43,2.43,0,0,0,104.47,161.61Z"/><path class="cls-1" d="M118.62,161.05a5.15,5.15,0,0,1,0,6.1,3.93,3.93,0,0,1-5.86,0,4.66,4.66,0,0,1-1-3,4.55,4.55,0,0,1,1-3.06,3.56,3.56,0,0,1,2.91-1.31A3.67,3.67,0,0,1,118.62,161.05Zm-5.16.61a3.88,3.88,0,0,0-.73,2.45,3.84,3.84,0,0,0,.73,2.43,2.84,2.84,0,0,0,4.47,0,4,4,0,0,0,.73-2.43,4,4,0,0,0-.73-2.45,2.84,2.84,0,0,0-4.47,0Z"/><path class="cls-1" d="M128,163.15v5.09h-1v-5c0-1.76-.78-2.64-2.35-2.64a2.2,2.2,0,0,0-1.67.72,2.9,2.9,0,0,0-.78,2v5h-1V160h1v1.36a3.31,3.31,0,0,1,1.12-1.17,2.9,2.9,0,0,1,1.57-.42Q128,159.74,128,163.15Z"/><path class="cls-1" d="M136.17,162.29h-.95a1.94,1.94,0,0,0-.68-1.27,2.67,2.67,0,0,0-1.68-.45,2.71,2.71,0,0,0-1.49.37,1.15,1.15,0,0,0-.58,1,1.14,1.14,0,0,0,.74,1,11.74,11.74,0,0,0,1.74.58,8,8,0,0,1,2.15.77,1.86,1.86,0,0,1,1,1.66c0,1.67-1.12,2.51-3.36,2.51s-3.28-.94-3.47-2.83h.94a2.27,2.27,0,0,0,.77,1.57,2.85,2.85,0,0,0,1.73.43c1.6,0,2.4-.54,2.4-1.63a1.25,1.25,0,0,0-.82-1.15,10.35,10.35,0,0,0-1.84-.58,8.09,8.09,0,0,1-2-.74,1.74,1.74,0,0,1-.94-1.58,1.88,1.88,0,0,1,.9-1.62,3.73,3.73,0,0,1,2.17-.59Q135.81,159.74,136.17,162.29Z"/><path class="cls-1" d="M139.48,157.23a.67.67,0,0,1,.24.56.83.83,0,0,1-.26.58.86.86,0,0,1-.56.22.81.81,0,0,1-.57-.22.8.8,0,0,1-.24-.58.67.67,0,0,1,.24-.56.75.75,0,0,1,.57-.24A.78.78,0,0,1,139.48,157.23ZM138.42,160h1v8.27h-1Z"/><path class="cls-1" d="M141.88,156.59h1v5.12a3,3,0,0,1,2.9-2,3.23,3.23,0,0,1,2.75,1.33,4.84,4.84,0,0,1,.91,3,4.9,4.9,0,0,1-.91,3.06,3.35,3.35,0,0,1-2.79,1.31,3,3,0,0,1-2.91-1.85v1.63h-.91Zm1.66,5a3.93,3.93,0,0,0-.73,2.48v.19a3.92,3.92,0,0,0,.69,2.4,2.43,2.43,0,0,0,2.09,1,2.52,2.52,0,0,0,2.16-1.06,4.2,4.2,0,0,0,.67-2.5,4.14,4.14,0,0,0-.68-2.48,2.55,2.55,0,0,0-2.18-1.05A2.39,2.39,0,0,0,143.54,161.55Z"/><path class="cls-1" d="M151.4,156.59h1v11.65h-1Z"/><path class="cls-1" d="M161,161.07a5.78,5.78,0,0,1,.94,3.31h-6.72a4,4,0,0,0,.82,2.39,2.61,2.61,0,0,0,2.05.86,2.8,2.8,0,0,0,1.82-.59,3.12,3.12,0,0,0,.88-1.46h1a3.89,3.89,0,0,1-1.11,2,3.67,3.67,0,0,1-2.57.91,3.51,3.51,0,0,1-2.79-1.18,5.18,5.18,0,0,1-.05-6.24,3.8,3.8,0,0,1,5.75,0Zm-4.9.35a3.63,3.63,0,0,0-.86,2.18h5.69c-.16-2-1.11-3-2.86-3A2.5,2.5,0,0,0,156.07,161.42Z"/><path class="cls-1" d="M173.61,156.81v.85h-1.39a1.16,1.16,0,0,0-.92.32,1.49,1.49,0,0,0-.28,1v1h2.48v.83H171v7.44h-1V160.8h-2.21V160h2.21v-1a2.19,2.19,0,0,1,.51-1.58,2,2,0,0,1,1.57-.6Z"/><path class="cls-1" d="M181.24,161.05a5.11,5.11,0,0,1,0,6.1,3.93,3.93,0,0,1-5.86,0,4.66,4.66,0,0,1-1-3,4.6,4.6,0,0,1,1-3.06,3.56,3.56,0,0,1,2.91-1.31A3.65,3.65,0,0,1,181.24,161.05Zm-5.15.61a3.88,3.88,0,0,0-.74,2.45,3.84,3.84,0,0,0,.74,2.43,2.83,2.83,0,0,0,4.46,0,4,4,0,0,0,.74-2.43,4,4,0,0,0-.74-2.45,2.83,2.83,0,0,0-4.46,0Z"/><path class="cls-1" d="M188.62,159.92v1a4.75,4.75,0,0,0-1.27-.17,2,2,0,0,0-1.79,1,3.55,3.55,0,0,0-.66,2.16v4.37h-1V160h1v1.58a3.07,3.07,0,0,1,.92-1.23,2.34,2.34,0,0,1,1.6-.58A3.22,3.22,0,0,1,188.62,159.92Z"/><path class="cls-1" d="M197,157.29V160h2.16v.83H197v5.6a1.24,1.24,0,0,0,.19.78.92.92,0,0,0,.72.23h1v.83h-1.17a1.7,1.7,0,0,1-1.37-.5,2,2,0,0,1-.37-1.34v-5.6h-1.76V160h1.76v-2.28Z"/><path class="cls-1" d="M200.65,156.59h1v4.88a3.18,3.18,0,0,1,1.15-1.3,3,3,0,0,1,1.57-.43,2.9,2.9,0,0,1,2.21.83,3.37,3.37,0,0,1,.8,2.39v5.28h-1v-5.15a2.73,2.73,0,0,0-.61-1.88,2.29,2.29,0,0,0-1.71-.64,2.21,2.21,0,0,0-1.74.84,3,3,0,0,0-.71,2v4.79h-1Z"/><path class="cls-1" d="M215.65,161.07a5.71,5.71,0,0,1,.95,3.31h-6.72a3.89,3.89,0,0,0,.81,2.39,2.64,2.64,0,0,0,2.05.86,2.81,2.81,0,0,0,1.83-.59,3.21,3.21,0,0,0,.88-1.46h1a3.88,3.88,0,0,1-1.1,2,3.68,3.68,0,0,1-2.58.91,3.51,3.51,0,0,1-2.78-1.18,4.54,4.54,0,0,1-1.07-3.19,4.62,4.62,0,0,1,1-3.05,3.79,3.79,0,0,1,5.74,0Zm-4.89.35a3.7,3.7,0,0,0-.87,2.18h5.7c-.16-2-1.11-3-2.86-3A2.5,2.5,0,0,0,210.76,161.42Z"/><path class="cls-1" d="M229.75,161.07a5.71,5.71,0,0,1,.94,3.31H224a4,4,0,0,0,.82,2.39,2.61,2.61,0,0,0,2.05.86,2.8,2.8,0,0,0,1.82-.59,3,3,0,0,0,.88-1.46h1a3.82,3.82,0,0,1-1.11,2,3.67,3.67,0,0,1-2.57.91,3.54,3.54,0,0,1-2.79-1.18,5.16,5.16,0,0,1,0-6.24,3.79,3.79,0,0,1,5.74,0Zm-4.9.35a3.63,3.63,0,0,0-.86,2.18h5.7c-.16-2-1.12-3-2.87-3A2.5,2.5,0,0,0,224.85,161.42Z"/><path class="cls-1" d="M238.13,160.46a3.15,3.15,0,0,1,1.14,2.21h-1a2.37,2.37,0,0,0-.83-1.57,2.79,2.79,0,0,0-1.76-.53,2.47,2.47,0,0,0-2.08,1,4,4,0,0,0-.75,2.58,4.09,4.09,0,0,0,.72,2.53,2.49,2.49,0,0,0,2.09.94,2.44,2.44,0,0,0,2.66-2.35h.94a3.76,3.76,0,0,1-1.18,2.38,3.6,3.6,0,0,1-2.42.8,3.45,3.45,0,0,1-2.85-1.25,4.65,4.65,0,0,1-.94-3.05,4.82,4.82,0,0,1,1-3.11,3.39,3.39,0,0,1,2.83-1.31A3.8,3.8,0,0,1,238.13,160.46Z"/><path class="cls-1" d="M247.38,161.05a5.11,5.11,0,0,1,0,6.1,3.92,3.92,0,0,1-5.85,0,5.09,5.09,0,0,1,0-6.1,3.59,3.59,0,0,1,2.91-1.31A3.64,3.64,0,0,1,247.38,161.05Zm-5.15.61a3.88,3.88,0,0,0-.74,2.45,3.84,3.84,0,0,0,.74,2.43,2.83,2.83,0,0,0,4.46,0,4,4,0,0,0,.74-2.43,4,4,0,0,0-.74-2.45,2.83,2.83,0,0,0-4.46,0Z"/><path class="cls-1" d="M250.39,156.59h1v11.65h-1Z"/><path class="cls-1" d="M260.21,161.05a5.11,5.11,0,0,1,0,6.1,3.92,3.92,0,0,1-5.85,0,4.66,4.66,0,0,1-1-3,4.6,4.6,0,0,1,1-3.06,3.59,3.59,0,0,1,2.92-1.31A3.63,3.63,0,0,1,260.21,161.05Zm-5.15.61a3.88,3.88,0,0,0-.73,2.45,3.84,3.84,0,0,0,.73,2.43,2.84,2.84,0,0,0,4.47,0,4,4,0,0,0,.73-2.43,4,4,0,0,0-.73-2.45,2.84,2.84,0,0,0-4.47,0Z"/><path class="cls-1" d="M269.29,161.63V160h1v7.66q0,4-3.72,4a4,4,0,0,1-2.51-.7,3,3,0,0,1-1-2h1a2.14,2.14,0,0,0,.76,1.38,2.9,2.9,0,0,0,1.84.51q2.76,0,2.76-3.09v-1.58a3.08,3.08,0,0,1-3,1.89,3.44,3.44,0,0,1-2.77-1.24,4.89,4.89,0,0,1,0-5.82,3.42,3.42,0,0,1,2.77-1.25A3.08,3.08,0,0,1,269.29,161.63Zm-5-.08a3.59,3.59,0,0,0-.74,2.35,3.69,3.69,0,0,0,.69,2.31,2.53,2.53,0,0,0,2.16,1,2.61,2.61,0,0,0,2.15-1,4.2,4.2,0,0,0,0-4.7,2.79,2.79,0,0,0-4.26,0Z"/><path class="cls-1" d="M273.8,157.23a.67.67,0,0,1,.24.56.83.83,0,0,1-.26.58.88.88,0,0,1-.56.22.79.79,0,0,1-.57-.22.8.8,0,0,1-.24-.58.67.67,0,0,1,.24-.56.73.73,0,0,1,.57-.24A.78.78,0,0,1,273.8,157.23ZM272.74,160h1v8.27h-1Z"/><path class="cls-1" d="M282.1,160.46a3.15,3.15,0,0,1,1.14,2.21h-1a2.41,2.41,0,0,0-.83-1.57,2.79,2.79,0,0,0-1.76-.53,2.47,2.47,0,0,0-2.08,1,4,4,0,0,0-.76,2.58,4.09,4.09,0,0,0,.72,2.53,2.5,2.5,0,0,0,2.1.94,2.44,2.44,0,0,0,2.66-2.35h.94a3.81,3.81,0,0,1-1.18,2.38,3.6,3.6,0,0,1-2.42.8,3.43,3.43,0,0,1-2.85-1.25,4.6,4.6,0,0,1-.94-3.05,4.82,4.82,0,0,1,1-3.11,3.42,3.42,0,0,1,2.84-1.31A3.82,3.82,0,0,1,282.1,160.46Z"/><path class="cls-1" d="M290.89,160.69a3.18,3.18,0,0,1,.73,2.22v5.33h-.91v-1.59a4.44,4.44,0,0,1-1.34,1.24,4.23,4.23,0,0,1-2.16.57,3,3,0,0,1-2-.62,2.14,2.14,0,0,1-.75-1.71,2.45,2.45,0,0,1,1.29-2.31,5.67,5.67,0,0,1,2.77-.59l2.11,0v-.3a2.1,2.1,0,0,0-2.4-2.35,2.86,2.86,0,0,0-1.73.46,1.94,1.94,0,0,0-.84,1.44h-.95a2.9,2.9,0,0,1,1.17-2.08,4,4,0,0,1,2.4-.64A3.28,3.28,0,0,1,290.89,160.69Zm-.23,3.31H288.6c-2.09,0-3.14.71-3.14,2.1a1.39,1.39,0,0,0,.53,1.12,2.1,2.1,0,0,0,1.41.43,3.46,3.46,0,0,0,2.3-.86,2.46,2.46,0,0,0,1-1.84Z"/><path class="cls-1" d="M293.94,156.59h1v11.65h-1Z"/><path class="cls-1" d="M308.45,160.46a3.15,3.15,0,0,1,1.14,2.21h-1a2.37,2.37,0,0,0-.83-1.57,2.79,2.79,0,0,0-1.76-.53,2.47,2.47,0,0,0-2.08,1,4,4,0,0,0-.75,2.58,4.15,4.15,0,0,0,.71,2.53,2.51,2.51,0,0,0,2.1.94,2.44,2.44,0,0,0,2.66-2.35h.94a3.76,3.76,0,0,1-1.18,2.38,3.6,3.6,0,0,1-2.42.8,3.43,3.43,0,0,1-2.85-1.25,4.6,4.6,0,0,1-.94-3.05,4.77,4.77,0,0,1,1-3.11,3.39,3.39,0,0,1,2.83-1.31A3.82,3.82,0,0,1,308.45,160.46Z"/><path class="cls-1" d="M317.7,161.05a5.11,5.11,0,0,1,0,6.1,3.92,3.92,0,0,1-5.85,0,5.09,5.09,0,0,1,0-6.1,3.59,3.59,0,0,1,2.91-1.31A3.64,3.64,0,0,1,317.7,161.05Zm-5.15.61a3.88,3.88,0,0,0-.74,2.45,3.84,3.84,0,0,0,.74,2.43,2.83,2.83,0,0,0,4.46,0,4,4,0,0,0,.74-2.43,4,4,0,0,0-.74-2.45,2.83,2.83,0,0,0-4.46,0Z"/><path class="cls-1" d="M327.13,163.15v5.09h-1v-5c0-1.76-.79-2.64-2.36-2.64a2.18,2.18,0,0,0-1.66.72,2.9,2.9,0,0,0-.78,2v5h-1V160h1v1.36a3.23,3.23,0,0,1,1.12-1.17,2.87,2.87,0,0,1,1.56-.42Q327.13,159.74,327.13,163.15Z"/><path class="cls-1" d="M335.25,162.29h-.94a2,2,0,0,0-.69-1.27,2.63,2.63,0,0,0-1.68-.45,2.74,2.74,0,0,0-1.49.37,1.16,1.16,0,0,0-.57,1,1.13,1.13,0,0,0,.73,1,11.56,11.56,0,0,0,1.75.58,8,8,0,0,1,2.14.77,1.86,1.86,0,0,1,1,1.66c0,1.67-1.12,2.51-3.36,2.51s-3.28-.94-3.47-2.83h.94a2.31,2.31,0,0,0,.77,1.57,2.87,2.87,0,0,0,1.73.43c1.6,0,2.4-.54,2.4-1.63a1.24,1.24,0,0,0-.82-1.15,10.06,10.06,0,0,0-1.84-.58,7.83,7.83,0,0,1-2-.74,1.75,1.75,0,0,1-.95-1.58,1.88,1.88,0,0,1,.9-1.62,3.77,3.77,0,0,1,2.18-.59C333.92,159.74,335,160.59,335.25,162.29Z"/><path class="cls-1" d="M339,157.29V160h2.16v.83H339v5.6a1.24,1.24,0,0,0,.19.78.92.92,0,0,0,.72.23h1v.83h-1.17a1.68,1.68,0,0,1-1.37-.5,2,2,0,0,1-.37-1.34v-5.6h-1.76V160h1.76v-2.28Z"/><path class="cls-1" d="M347.32,159.92v1a4.75,4.75,0,0,0-1.27-.17,2,2,0,0,0-1.79,1,3.55,3.55,0,0,0-.66,2.16v4.37h-1V160h1v1.58a3.07,3.07,0,0,1,.92-1.23,2.34,2.34,0,0,1,1.6-.58A3.22,3.22,0,0,1,347.32,159.92Z"/><path class="cls-1" d="M348.4,160h1V165a3,3,0,0,0,.55,1.94,2.19,2.19,0,0,0,1.77.67,2.32,2.32,0,0,0,1.68-.74,2.9,2.9,0,0,0,.82-1.9v-5h1v8.27h-1v-1.39a3,3,0,0,1-2.75,1.61q-3,0-3-3.39Z"/><path class="cls-1" d="M363.06,160.46a3.15,3.15,0,0,1,1.14,2.21h-1a2.38,2.38,0,0,0-.84-1.57,2.75,2.75,0,0,0-1.76-.53,2.5,2.5,0,0,0-2.08,1,4,4,0,0,0-.75,2.58,4.09,4.09,0,0,0,.72,2.53,2.5,2.5,0,0,0,2.1.94,2.43,2.43,0,0,0,2.65-2.35h1a3.77,3.77,0,0,1-1.19,2.38,3.56,3.56,0,0,1-2.41.8,3.43,3.43,0,0,1-2.85-1.25,4.6,4.6,0,0,1-.94-3.05,4.82,4.82,0,0,1,1-3.11,3.42,3.42,0,0,1,2.83-1.31A3.83,3.83,0,0,1,363.06,160.46Z"/><path class="cls-1" d="M367.76,157.29V160h2.16v.83h-2.16v5.6a1.24,1.24,0,0,0,.2.78.91.91,0,0,0,.72.23h1v.83h-1.17a1.72,1.72,0,0,1-1.38-.5,2,2,0,0,1-.37-1.34v-5.6H365V160h1.76v-2.28Z"/><path class="cls-1" d="M372.92,157.23a.67.67,0,0,1,.24.56.83.83,0,0,1-.26.58.88.88,0,0,1-.56.22.83.83,0,0,1-.58-.22.8.8,0,0,1-.24-.58.67.67,0,0,1,.24-.56.77.77,0,0,1,.58-.24A.8.8,0,0,1,372.92,157.23ZM371.86,160h1v8.27h-1Z"/><path class="cls-1" d="M381.86,161.05a5.11,5.11,0,0,1,0,6.1,3.93,3.93,0,0,1-5.86,0,4.66,4.66,0,0,1-1-3,4.6,4.6,0,0,1,1-3.06,3.57,3.57,0,0,1,2.91-1.31A3.65,3.65,0,0,1,381.86,161.05Zm-5.15.61a3.88,3.88,0,0,0-.74,2.45,3.84,3.84,0,0,0,.74,2.43,2.83,2.83,0,0,0,4.46,0,4,4,0,0,0,.74-2.43,4,4,0,0,0-.74-2.45,2.83,2.83,0,0,0-4.46,0Z"/><path class="cls-1" d="M391.28,163.15v5.09h-1v-5c0-1.76-.78-2.64-2.35-2.64a2.18,2.18,0,0,0-1.66.72,3,3,0,0,0-.79,2v5h-1V160h1v1.36a3.31,3.31,0,0,1,1.12-1.17,2.9,2.9,0,0,1,1.57-.42Q391.29,159.74,391.28,163.15Z"/><path class="cls-1" d="M92,184.69a3.18,3.18,0,0,1,.74,2.22v5.33h-.91v-1.59a4.37,4.37,0,0,1-1.35,1.24,4.2,4.2,0,0,1-2.16.57,3,3,0,0,1-2-.62,2.14,2.14,0,0,1-.75-1.71,2.45,2.45,0,0,1,1.29-2.31,5.64,5.64,0,0,1,2.77-.59l2.11,0v-.3a2.1,2.1,0,0,0-2.4-2.35,2.84,2.84,0,0,0-1.73.46,2,2,0,0,0-.85,1.44h-.94a2.9,2.9,0,0,1,1.17-2.08,4,4,0,0,1,2.4-.64A3.24,3.24,0,0,1,92,184.69ZM91.8,188H89.74c-2.09,0-3.14.71-3.14,2.1a1.39,1.39,0,0,0,.53,1.12,2.1,2.1,0,0,0,1.41.43,3.46,3.46,0,0,0,2.3-.86,2.46,2.46,0,0,0,1-1.84Z"/><path class="cls-1" d="M101.5,187.15v5.09h-1v-5c0-1.76-.79-2.64-2.36-2.64a2.18,2.18,0,0,0-1.66.72,2.9,2.9,0,0,0-.78,2v5h-1V184h1v1.36a3.23,3.23,0,0,1,1.12-1.17,2.87,2.87,0,0,1,1.56-.42Q101.5,183.74,101.5,187.15Z"/><path class="cls-1" d="M109.75,180.59h1v11.65h-.91v-1.63a3,3,0,0,1-2.89,1.85,3.39,3.39,0,0,1-2.81-1.31,5,5,0,0,1-.91-3.06,4.9,4.9,0,0,1,.91-3,3.25,3.25,0,0,1,2.76-1.33,3,3,0,0,1,2.89,2Zm-4.89,5a4,4,0,0,0-.69,2.48,4.2,4.2,0,0,0,.67,2.5,2.5,2.5,0,0,0,2.16,1.06,2.46,2.46,0,0,0,2.1-1,4,4,0,0,0,.69-2.4V188a4,4,0,0,0-.74-2.48,2.4,2.4,0,0,0-2-1A2.52,2.52,0,0,0,104.86,185.61Z"/><path class="cls-1" d="M118.06,180.59h1v5.12a3,3,0,0,1,2.89-2,3.23,3.23,0,0,1,2.75,1.33,4.85,4.85,0,0,1,.92,3,4.91,4.91,0,0,1-.92,3.06,3.35,3.35,0,0,1-2.78,1.31,3,3,0,0,1-2.91-1.85v1.63h-.91Zm1.66,5A3.93,3.93,0,0,0,119,188v.19a3.92,3.92,0,0,0,.69,2.4,2.44,2.44,0,0,0,2.1,1,2.52,2.52,0,0,0,2.16-1.06,4.2,4.2,0,0,0,.67-2.5,4.07,4.07,0,0,0-.69-2.48,2.53,2.53,0,0,0-2.17-1.05A2.37,2.37,0,0,0,119.72,185.55Z"/><path class="cls-1" d="M127.27,184h1V189a2.9,2.9,0,0,0,.55,1.94,2.19,2.19,0,0,0,1.77.67,2.32,2.32,0,0,0,1.68-.74,3,3,0,0,0,.82-1.9v-5h1v8.27h-1v-1.39a3,3,0,0,1-2.75,1.61q-3,0-3-3.39Z"/><path class="cls-1" d="M142.14,186.29h-.95a1.91,1.91,0,0,0-.69-1.27,2.63,2.63,0,0,0-1.68-.45,2.7,2.7,0,0,0-1.48.37,1.15,1.15,0,0,0-.58,1,1.14,1.14,0,0,0,.74,1,11.74,11.74,0,0,0,1.74.58,7.88,7.88,0,0,1,2.14.77,1.85,1.85,0,0,1,1,1.66c0,1.67-1.12,2.51-3.36,2.51s-3.28-.94-3.48-2.83h1a2.23,2.23,0,0,0,.77,1.57,2.83,2.83,0,0,0,1.72.43c1.6,0,2.4-.54,2.4-1.63a1.24,1.24,0,0,0-.81-1.15,10.35,10.35,0,0,0-1.84-.58,8.09,8.09,0,0,1-2-.74,1.74,1.74,0,0,1-.94-1.58,1.88,1.88,0,0,1,.9-1.62,3.73,3.73,0,0,1,2.17-.59Q141.78,183.74,142.14,186.29Z"/><path class="cls-1" d="M145.45,181.23a.67.67,0,0,1,.24.56.83.83,0,0,1-.26.58.86.86,0,0,1-.56.22.81.81,0,0,1-.57-.22.8.8,0,0,1-.24-.58.67.67,0,0,1,.24-.56.75.75,0,0,1,.57-.24A.78.78,0,0,1,145.45,181.23ZM144.39,184h1v8.27h-1Z"/><path class="cls-1" d="M154.57,187.15v5.09h-1v-5c0-1.76-.79-2.64-2.35-2.64a2.19,2.19,0,0,0-1.67.72,2.9,2.9,0,0,0-.78,2v5h-1V184h1v1.36a3.31,3.31,0,0,1,1.12-1.17,2.9,2.9,0,0,1,1.57-.42C153.54,183.74,154.57,184.88,154.57,187.15Z"/><path class="cls-1" d="M162.87,185.07a5.78,5.78,0,0,1,.95,3.31h-6.73a4,4,0,0,0,.82,2.39,2.63,2.63,0,0,0,2.05.86,2.78,2.78,0,0,0,1.82-.59,3,3,0,0,0,.88-1.46h1a3.88,3.88,0,0,1-1.1,2,3.72,3.72,0,0,1-2.58.91,3.54,3.54,0,0,1-2.79-1.18,5.16,5.16,0,0,1,0-6.24,3.79,3.79,0,0,1,5.74,0Zm-4.89.35a3.64,3.64,0,0,0-.87,2.18h5.7c-.16-2-1.12-3-2.87-3A2.48,2.48,0,0,0,158,185.42Z"/><path class="cls-1" d="M171.46,186.29h-.94a2,2,0,0,0-.69-1.27,2.63,2.63,0,0,0-1.68-.45,2.74,2.74,0,0,0-1.49.37,1.16,1.16,0,0,0-.57,1,1.13,1.13,0,0,0,.73,1,12,12,0,0,0,1.75.58,7.88,7.88,0,0,1,2.14.77,1.86,1.86,0,0,1,1,1.66c0,1.67-1.12,2.51-3.36,2.51s-3.28-.94-3.47-2.83h.95a2.26,2.26,0,0,0,.76,1.57,2.87,2.87,0,0,0,1.73.43c1.6,0,2.4-.54,2.4-1.63a1.24,1.24,0,0,0-.81-1.15,10.65,10.65,0,0,0-1.84-.58,7.78,7.78,0,0,1-2-.74,1.74,1.74,0,0,1-.94-1.58,1.87,1.87,0,0,1,.89-1.62,3.77,3.77,0,0,1,2.18-.59C170.13,183.74,171.23,184.59,171.46,186.29Z"/><path class="cls-1" d="M179.35,186.29h-.94a2,2,0,0,0-.69-1.27,2.63,2.63,0,0,0-1.68-.45,2.71,2.71,0,0,0-1.49.37,1.16,1.16,0,0,0-.57,1,1.13,1.13,0,0,0,.73,1,11.56,11.56,0,0,0,1.75.58,8,8,0,0,1,2.14.77,1.86,1.86,0,0,1,1,1.66c0,1.67-1.12,2.51-3.36,2.51s-3.28-.94-3.47-2.83h.94a2.31,2.31,0,0,0,.77,1.57,2.87,2.87,0,0,0,1.73.43c1.6,0,2.4-.54,2.4-1.63a1.24,1.24,0,0,0-.82-1.15,10.35,10.35,0,0,0-1.84-.58,7.83,7.83,0,0,1-2-.74,1.75,1.75,0,0,1-1-1.58,1.88,1.88,0,0,1,.9-1.62,3.74,3.74,0,0,1,2.18-.59C178,183.74,179.12,184.59,179.35,186.29Z"/><path class="cls-1" d="M192.41,185.44a3.21,3.21,0,0,1,1.1-1.27,2.66,2.66,0,0,1,1.51-.43,2.72,2.72,0,0,1,2.08.82,3.25,3.25,0,0,1,.75,2.27v5.41h-1V187a2.7,2.7,0,0,0-.48-1.76,2,2,0,0,0-1.65-.63,1.91,1.91,0,0,0-1.51.69,2.44,2.44,0,0,0-.6,1.71v5.27h-1V187c0-1.59-.69-2.39-2.06-2.39a1.88,1.88,0,0,0-1.55.76,2.65,2.65,0,0,0-.64,1.82v5.09h-1V184h1v1.24a2.67,2.67,0,0,1,2.4-1.47A2.5,2.5,0,0,1,192.41,185.44Z"/><path class="cls-1" d="M205.94,184.69a3.18,3.18,0,0,1,.74,2.22v5.33h-.91v-1.59a4.37,4.37,0,0,1-1.35,1.24,4.2,4.2,0,0,1-2.16.57,3,3,0,0,1-2-.62,2.12,2.12,0,0,1-.76-1.71,2.46,2.46,0,0,1,1.3-2.31,5.64,5.64,0,0,1,2.77-.59l2.11,0v-.3a2.1,2.1,0,0,0-2.4-2.35,2.84,2.84,0,0,0-1.73.46,2,2,0,0,0-.85,1.44h-.94a2.9,2.9,0,0,1,1.17-2.08,4,4,0,0,1,2.4-.64A3.24,3.24,0,0,1,205.94,184.69Zm-.22,3.31h-2.06c-2.1,0-3.14.71-3.14,2.1a1.39,1.39,0,0,0,.53,1.12,2.1,2.1,0,0,0,1.41.43,3.46,3.46,0,0,0,2.3-.86,2.46,2.46,0,0,0,1-1.84Z"/><path class="cls-1" d="M213.37,183.92v1a4.75,4.75,0,0,0-1.27-.17,2,2,0,0,0-1.79,1,3.55,3.55,0,0,0-.66,2.16v4.37h-1V184h1v1.58a3.07,3.07,0,0,1,.92-1.23,2.34,2.34,0,0,1,1.6-.58A3.22,3.22,0,0,1,213.37,183.92Z"/><path class="cls-1" d="M214.45,180.59h1v7.55L220,184h1.31l-3.63,3.28,4,5h-1.27L217,187.87l-1.59,1.44v2.93h-1Z"/><path class="cls-1" d="M229,185.07a5.78,5.78,0,0,1,1,3.31h-6.72a3.89,3.89,0,0,0,.81,2.39,2.63,2.63,0,0,0,2,.86,2.78,2.78,0,0,0,1.82-.59,3,3,0,0,0,.88-1.46h1a3.88,3.88,0,0,1-1.1,2,3.7,3.7,0,0,1-2.58.91,3.51,3.51,0,0,1-2.78-1.18,4.55,4.55,0,0,1-1.08-3.19,4.63,4.63,0,0,1,1-3.05,3.79,3.79,0,0,1,5.74,0Zm-4.89.35a3.64,3.64,0,0,0-.87,2.18h5.7c-.16-2-1.12-3-2.87-3A2.48,2.48,0,0,0,224.09,185.42Z"/><path class="cls-1" d="M233.46,181.29V184h2.16v.83h-2.16v5.6a1.31,1.31,0,0,0,.19.78.92.92,0,0,0,.72.23h1v.83h-1.16a1.72,1.72,0,0,1-1.38-.5,2,2,0,0,1-.37-1.34v-5.6h-1.76V184h1.76v-2.28Z"/><path class="cls-1" d="M248.69,185.07a5.71,5.71,0,0,1,.95,3.31h-6.72a3.89,3.89,0,0,0,.81,2.39,2.64,2.64,0,0,0,2.05.86,2.81,2.81,0,0,0,1.83-.59,3.21,3.21,0,0,0,.88-1.46h1a3.88,3.88,0,0,1-1.1,2,3.68,3.68,0,0,1-2.58.91,3.51,3.51,0,0,1-2.78-1.18,4.54,4.54,0,0,1-1.07-3.19,4.62,4.62,0,0,1,1-3.05,3.79,3.79,0,0,1,5.74,0Zm-4.89.35a3.7,3.7,0,0,0-.87,2.18h5.7c-.16-2-1.11-3-2.86-3A2.5,2.5,0,0,0,243.8,185.42Z"/><path class="cls-1" d="M250.6,184h1.15l2.37,3.18,2.37-3.18h1.13l-3,3.9,3.31,4.37h-1.15l-2.7-3.65-2.72,3.65h-1.15l3.32-4.37Z"/><path class="cls-1" d="M265.67,185.07a4.9,4.9,0,0,1,.91,3.06,5,5,0,0,1-.89,3,3.35,3.35,0,0,1-2.77,1.31,3,3,0,0,1-2.9-2v4.9h-1V184H260v1.63a3,3,0,0,1,2.92-1.86A3.31,3.31,0,0,1,265.67,185.07Zm-5,.54a4,4,0,0,0-.69,2.45v.18a3.88,3.88,0,0,0,.74,2.45,2.42,2.42,0,0,0,2,1,2.61,2.61,0,0,0,2.18-1,4.19,4.19,0,0,0,.67-2.49,4.28,4.28,0,0,0-.66-2.5,2.51,2.51,0,0,0-2.16-1.07A2.43,2.43,0,0,0,260.68,185.61Z"/><path class="cls-1" d="M274.36,184.69a3.18,3.18,0,0,1,.73,2.22v5.33h-.91v-1.59a4.44,4.44,0,0,1-1.34,1.24,4.2,4.2,0,0,1-2.16.57,3,3,0,0,1-2-.62,2.14,2.14,0,0,1-.75-1.71,2.45,2.45,0,0,1,1.29-2.31,5.67,5.67,0,0,1,2.77-.59l2.11,0v-.3a2.1,2.1,0,0,0-2.4-2.35A2.81,2.81,0,0,0,270,185a2,2,0,0,0-.85,1.44h-1a2.9,2.9,0,0,1,1.17-2.08,4,4,0,0,1,2.4-.64A3.27,3.27,0,0,1,274.36,184.69Zm-.23,3.31h-2.06c-2.09,0-3.14.71-3.14,2.1a1.39,1.39,0,0,0,.53,1.12,2.1,2.1,0,0,0,1.41.43,3.46,3.46,0,0,0,2.3-.86,2.46,2.46,0,0,0,1-1.84Z"/><path class="cls-1" d="M283.83,187.15v5.09h-1v-5c0-1.76-.78-2.64-2.35-2.64a2.2,2.2,0,0,0-1.67.72,2.9,2.9,0,0,0-.78,2v5h-1V184h1v1.36a3.31,3.31,0,0,1,1.12-1.17,2.9,2.9,0,0,1,1.57-.42Q283.84,183.74,283.83,187.15Z"/><path class="cls-1" d="M292,186.29H291a1.94,1.94,0,0,0-.68-1.27,2.67,2.67,0,0,0-1.68-.45,2.71,2.71,0,0,0-1.49.37,1.15,1.15,0,0,0-.58,1,1.14,1.14,0,0,0,.74,1,11.74,11.74,0,0,0,1.74.58,8,8,0,0,1,2.15.77,1.86,1.86,0,0,1,1,1.66c0,1.67-1.12,2.51-3.36,2.51s-3.28-.94-3.47-2.83h.94a2.27,2.27,0,0,0,.77,1.57,2.85,2.85,0,0,0,1.73.43c1.6,0,2.4-.54,2.4-1.63a1.25,1.25,0,0,0-.82-1.15,10.35,10.35,0,0,0-1.84-.58,8.09,8.09,0,0,1-2-.74,1.74,1.74,0,0,1-.94-1.58,1.88,1.88,0,0,1,.9-1.62,3.73,3.73,0,0,1,2.17-.59Q291.6,183.74,292,186.29Z"/><path class="cls-1" d="M295.27,181.23a.67.67,0,0,1,.24.56.83.83,0,0,1-.26.58.86.86,0,0,1-.56.22.81.81,0,0,1-.57-.22.8.8,0,0,1-.24-.58.67.67,0,0,1,.24-.56.75.75,0,0,1,.57-.24A.78.78,0,0,1,295.27,181.23ZM294.21,184h1v8.27h-1Z"/><path class="cls-1" d="M304.21,185.05a5.11,5.11,0,0,1,0,6.1,3.92,3.92,0,0,1-5.85,0,4.66,4.66,0,0,1-1-3,4.6,4.6,0,0,1,1-3.06,3.59,3.59,0,0,1,2.92-1.31A3.63,3.63,0,0,1,304.21,185.05Zm-5.15.61a3.88,3.88,0,0,0-.73,2.45,3.84,3.84,0,0,0,.73,2.43,2.84,2.84,0,0,0,4.47,0,4,4,0,0,0,.73-2.43,4,4,0,0,0-.73-2.45,2.84,2.84,0,0,0-4.47,0Z"/><path class="cls-1" d="M313.64,187.15v5.09h-1v-5c0-1.76-.79-2.64-2.35-2.64a2.19,2.19,0,0,0-1.67.72,2.9,2.9,0,0,0-.78,2v5h-1V184h1v1.36a3.31,3.31,0,0,1,1.12-1.17,2.9,2.9,0,0,1,1.57-.42C312.61,183.74,313.64,184.88,313.64,187.15Z"/><path class="cls-1" d="M317.29,190.86a.73.73,0,0,1,.24.58.79.79,0,0,1-.26.57.84.84,0,0,1-.56.23.75.75,0,0,1-.58-.24.77.77,0,0,1-.24-.56.73.73,0,0,1,.24-.58.75.75,0,0,1,.58-.22A.79.79,0,0,1,317.29,190.86Z"/><path class="cls-1" d="M158.86,7H166q6.12,0,6.12,5.21t-6.17,5.25h-4.44v6.67h-2.62Zm2.62,2.23v6h4.27a4.47,4.47,0,0,0,2.83-.72,2.8,2.8,0,0,0,.89-2.3,2.58,2.58,0,0,0-.91-2.26,4.44,4.44,0,0,0-2.81-.72Z"/><path class="cls-1" d="M183.9,12.71A4.87,4.87,0,0,1,185,16.17v7.91h-2.35V22.33a5.32,5.32,0,0,1-1.82,1.51,6.58,6.58,0,0,1-2.86.58,4.52,4.52,0,0,1-3.05-1,3.39,3.39,0,0,1-1.15-2.67,3.81,3.81,0,0,1,1.85-3.48,7.7,7.7,0,0,1,4.08-1l2.78,0V16c0-1.73-.93-2.6-2.8-2.6a3.55,3.55,0,0,0-2,.48,2.2,2.2,0,0,0-1,1.64h-2.52a4.36,4.36,0,0,1,1.87-3.27,6.81,6.81,0,0,1,3.81-.91A5.35,5.35,0,0,1,183.9,12.71Zm-1.4,5.54-2.61,0c-2.32,0-3.48.8-3.48,2.42a1.53,1.53,0,0,0,.55,1.22,2.33,2.33,0,0,0,1.61.48,4.29,4.29,0,0,0,2.85-1,3.27,3.27,0,0,0,1.08-2.54Z"/><path class="cls-1" d="M198.85,16.43v7.65H196.3V16.65c0-2.12-1-3.17-2.9-3.17a2.57,2.57,0,0,0-1.9.77,3.76,3.76,0,0,0-1,2.37v7.46h-2.54V11.68h2.54v1.53a4.77,4.77,0,0,1,1.66-1.39,4.33,4.33,0,0,1,2.09-.48C197.3,11.34,198.85,13,198.85,16.43Z"/><path class="cls-1" d="M210.68,6.61h2.54V24.08h-2.37V22.6A4.46,4.46,0,0,1,207,24.42a5.22,5.22,0,0,1-4.3-1.94,7.22,7.22,0,0,1-1.44-4.66,7,7,0,0,1,1.42-4.53,5,5,0,0,1,4.2-1.95,4.49,4.49,0,0,1,3.79,2.18Zm-6,8.07a5.26,5.26,0,0,0-.79,3.14,5.81,5.81,0,0,0,.74,3.19A3.33,3.33,0,0,0,210,21a5.42,5.42,0,0,0,.79-3.05v-.22a5.2,5.2,0,0,0-1-3.24,2.87,2.87,0,0,0-2.33-1.13A3.15,3.15,0,0,0,204.68,14.68Z"/><path class="cls-1" d="M223.47,11.65V14.2a6,6,0,0,0-1.8-.27,2.81,2.81,0,0,0-2.06.94,3.61,3.61,0,0,0-1,2.64v6.57H216.1V11.68h2.55v1.87a3.61,3.61,0,0,1,1.2-1.51,3,3,0,0,1,2-.7A3.72,3.72,0,0,1,223.47,11.65Z"/><path class="cls-1" d="M234.92,13.4a8.42,8.42,0,0,1,1.49,5.19H227a4.62,4.62,0,0,0,1,2.78,3.1,3.1,0,0,0,2.38,1,3.5,3.5,0,0,0,2.16-.62,4.13,4.13,0,0,0,1.13-1.61h2.54a5.67,5.67,0,0,1-1.7,2.9,6,6,0,0,1-4.11,1.42,5.66,5.66,0,0,1-4.34-1.7,6.72,6.72,0,0,1-1.73-4.85,6.76,6.76,0,0,1,1.63-4.63,5.36,5.36,0,0,1,4.35-1.9A5.45,5.45,0,0,1,234.92,13.4Zm-6.84.87a4.25,4.25,0,0,0-1,2.4h6.69c-.24-2.16-1.36-3.24-3.38-3.24A3.08,3.08,0,0,0,228.08,14.27Z"/><path class="cls-1" d="M248.19,12.71a4.87,4.87,0,0,1,1.13,3.46v7.91H247V22.33a5.46,5.46,0,0,1-1.83,1.51,6.5,6.5,0,0,1-2.85.58,4.51,4.51,0,0,1-3-1,3.36,3.36,0,0,1-1.15-2.67,3.81,3.81,0,0,1,1.84-3.48,7.7,7.7,0,0,1,4.08-1l2.79,0V16c0-1.73-.94-2.6-2.81-2.6a3.57,3.57,0,0,0-2,.48,2.25,2.25,0,0,0-1,1.64h-2.52a4.39,4.39,0,0,1,1.87-3.27,6.85,6.85,0,0,1,3.82-.91A5.32,5.32,0,0,1,248.19,12.71Zm-1.39,5.54-2.62,0c-2.32,0-3.48.8-3.48,2.42a1.56,1.56,0,0,0,.55,1.22,2.35,2.35,0,0,0,1.61.48,4.32,4.32,0,0,0,2.86-1,3.27,3.27,0,0,0,1.08-2.54Z"/><path class="cls-1" d="M126.81,46.23h5.87a4.43,4.43,0,0,1,2.95.9,2.93,2.93,0,0,1,1,2.34,3.08,3.08,0,0,1-.54,1.84,3.29,3.29,0,0,1-1.5,1.06,3.23,3.23,0,0,1,1.93,1,3.14,3.14,0,0,1,.65,2.08,3.22,3.22,0,0,1-1.34,2.85,5.71,5.71,0,0,1-3.18.75h-5.87Zm2,1.62v3.84h3.39a3.24,3.24,0,0,0,1.94-.47,1.82,1.82,0,0,0,.59-1.51,1.62,1.62,0,0,0-.59-1.41,3.14,3.14,0,0,0-1.91-.45Zm0,5.44v4.17h3.64a4.15,4.15,0,0,0,1.94-.39,1.75,1.75,0,0,0,.88-1.62,1.94,1.94,0,0,0-.68-1.66,3.51,3.51,0,0,0-2.09-.5Z"/><path class="cls-1" d="M139,49.78h1.9v5.67a2.43,2.43,0,0,0,.51,1.73,2.21,2.21,0,0,0,3-.06,3.4,3.4,0,0,0,.9-1.65V49.78h1.9v9.3h-1.9V57.83a3.64,3.64,0,0,1-2.94,1.51c-2.24,0-3.36-1.26-3.36-3.76Z"/><path class="cls-1" d="M156.82,52.46H155a1.72,1.72,0,0,0-.66-1,2.68,2.68,0,0,0-1.48-.33,2.63,2.63,0,0,0-1.3.25.89.89,0,0,0-.5.83c0,.32.25.59.76.83a15.87,15.87,0,0,0,1.87.56,8,8,0,0,1,2.36.88,2.19,2.19,0,0,1,1.11,1.94q0,3-4.14,3-3.81,0-4.14-3.26h1.87a2.06,2.06,0,0,0,.67,1.33,2.69,2.69,0,0,0,1.55.36c1.49,0,2.23-.42,2.23-1.26a1.18,1.18,0,0,0-.83-1.06,10.84,10.84,0,0,0-1.87-.54,7.39,7.39,0,0,1-2.3-.81,2.12,2.12,0,0,1-1.08-1.87,2.23,2.23,0,0,1,1-2,4.75,4.75,0,0,1,2.74-.72Q156.49,49.53,156.82,52.46Z"/><path class="cls-1" d="M161,46.41a1.16,1.16,0,0,1,.38.92,1.31,1.31,0,0,1-.39.94,1.37,1.37,0,0,1-.94.36,1.32,1.32,0,0,1-.93-.36,1.25,1.25,0,0,1-.38-.94,1.16,1.16,0,0,1,.38-.92,1.26,1.26,0,0,1,.93-.36A1.27,1.27,0,0,1,161,46.41Zm-1.9,3.37H161v9.3h-1.9Z"/><path class="cls-1" d="M171.81,53.34v5.74H169.9V53.5c0-1.58-.73-2.37-2.18-2.37a1.91,1.91,0,0,0-1.42.58,2.79,2.79,0,0,0-.77,1.78v5.59h-1.91v-9.3h1.91v1.15a3.62,3.62,0,0,1,1.24-1,3.24,3.24,0,0,1,1.56-.36Q171.81,49.53,171.81,53.34Z"/><path class="cls-1" d="M181.4,51.08A6.26,6.26,0,0,1,182.52,55h-7.06a3.51,3.51,0,0,0,.74,2.09,2.32,2.32,0,0,0,1.78.72,2.6,2.6,0,0,0,1.62-.47,3.06,3.06,0,0,0,.85-1.2h1.91a4.29,4.29,0,0,1-1.28,2.17A4.53,4.53,0,0,1,178,59.34a4.25,4.25,0,0,1-3.26-1.28,5.66,5.66,0,0,1-.07-7.11,4,4,0,0,1,3.26-1.42A4.06,4.06,0,0,1,181.4,51.08Zm-5.13.64a3.28,3.28,0,0,0-.77,1.8h5A2.36,2.36,0,0,0,178,51.09,2.31,2.31,0,0,0,176.27,51.72Z"/><path class="cls-1" d="M191.57,52.46h-1.85a1.73,1.73,0,0,0-.67-1,3.47,3.47,0,0,0-2.77-.08.89.89,0,0,0-.5.83c0,.32.25.59.75.83a16.91,16.91,0,0,0,1.88.56,7.78,7.78,0,0,1,2.35.88,2.18,2.18,0,0,1,1.12,1.94q0,3-4.14,3-3.81,0-4.14-3.26h1.87a2.06,2.06,0,0,0,.67,1.33,2.67,2.67,0,0,0,1.55.36c1.48,0,2.23-.42,2.23-1.26a1.18,1.18,0,0,0-.83-1.06,10.84,10.84,0,0,0-1.87-.54,7.47,7.47,0,0,1-2.31-.81,2.12,2.12,0,0,1-1.08-1.87,2.24,2.24,0,0,1,1-2,4.71,4.71,0,0,1,2.73-.72Q191.26,49.53,191.57,52.46Z"/><path class="cls-1" d="M200.93,52.46h-1.85a1.77,1.77,0,0,0-.67-1,3.47,3.47,0,0,0-2.77-.08.88.88,0,0,0-.5.83c0,.32.25.59.75.83a17.24,17.24,0,0,0,1.87.56,7.85,7.85,0,0,1,2.36.88,2.18,2.18,0,0,1,1.12,1.94q0,3-4.14,3-3.82,0-4.14-3.26h1.87a2.06,2.06,0,0,0,.67,1.33,2.65,2.65,0,0,0,1.54.36c1.49,0,2.24-.42,2.24-1.26a1.18,1.18,0,0,0-.83-1.06,10.84,10.84,0,0,0-1.87-.54,7.47,7.47,0,0,1-2.31-.81,2.12,2.12,0,0,1-1.08-1.87,2.24,2.24,0,0,1,1.05-2,4.69,4.69,0,0,1,2.73-.72Q200.62,49.53,200.93,52.46Z"/><path class="cls-1" d="M209,46.23h2.32l4.49,10.3h0l4.46-10.3h2.33V59.08h-2V49.9h-.07l-3.94,9.18H215l-3.94-9.18H211v9.18h-2Z"/><path class="cls-1" d="M232.23,50.55a3.64,3.64,0,0,1,.85,2.6v5.93h-1.76V57.77A4.14,4.14,0,0,1,230,58.9a5,5,0,0,1-2.14.44,3.37,3.37,0,0,1-2.29-.74,2.52,2.52,0,0,1-.86-2A2.86,2.86,0,0,1,226,54a5.78,5.78,0,0,1,3.06-.72l2.09,0V53c0-1.3-.7-1.94-2.11-1.94a2.57,2.57,0,0,0-1.51.36,1.66,1.66,0,0,0-.74,1.22h-1.89a3.33,3.33,0,0,1,1.41-2.45,5,5,0,0,1,2.86-.68A4,4,0,0,1,232.23,50.55Zm-1,4.16-2,0c-1.74,0-2.61.6-2.61,1.82a1.15,1.15,0,0,0,.41.91,1.75,1.75,0,0,0,1.21.37,3.25,3.25,0,0,0,2.14-.73,2.44,2.44,0,0,0,.81-1.9Z"/><path class="cls-1" d="M243.45,53.34v5.74h-1.91V53.5c0-1.58-.73-2.37-2.18-2.37a1.91,1.91,0,0,0-1.42.58,2.79,2.79,0,0,0-.77,1.78v5.59h-1.91v-9.3h1.91v1.15a3.53,3.53,0,0,1,1.24-1,3.24,3.24,0,0,1,1.56-.36Q243.45,49.53,243.45,53.34Z"/><path class="cls-1" d="M252.84,50.55a3.64,3.64,0,0,1,.85,2.6v5.93h-1.76V57.77a4.14,4.14,0,0,1-1.37,1.13,5,5,0,0,1-2.14.44,3.37,3.37,0,0,1-2.29-.74,2.52,2.52,0,0,1-.86-2A2.86,2.86,0,0,1,246.65,54a5.78,5.78,0,0,1,3.06-.72l2.09,0V53c0-1.3-.7-1.94-2.11-1.94a2.57,2.57,0,0,0-1.51.36,1.66,1.66,0,0,0-.74,1.22h-1.89A3.33,3.33,0,0,1,247,50.21a5,5,0,0,1,2.86-.68A4,4,0,0,1,252.84,50.55Zm-1,4.16-2,0c-1.74,0-2.61.6-2.61,1.82a1.15,1.15,0,0,0,.41.91,1.75,1.75,0,0,0,1.21.37A3.25,3.25,0,0,0,251,57.1a2.44,2.44,0,0,0,.81-1.9Z"/><path class="cls-1" d="M262.58,51V49.78h1.91v8.69q0,4.43-4.34,4.43a5.13,5.13,0,0,1-3-.74,3.41,3.41,0,0,1-1.28-2.28h1.91a1.72,1.72,0,0,0,.69,1.17,3.23,3.23,0,0,0,1.65.34c1.62,0,2.43-.88,2.43-2.63V57.32a3.23,3.23,0,0,1-2.84,1.55,4,4,0,0,1-3.06-1.28,4.71,4.71,0,0,1-1.17-3.36,4.82,4.82,0,0,1,1.17-3.39,3.89,3.89,0,0,1,3.06-1.31A3.22,3.22,0,0,1,262.58,51Zm-4.43.9a3.48,3.48,0,0,0-.68,2.31,3.75,3.75,0,0,0,.54,2.14,2.26,2.26,0,0,0,2,.93,2.37,2.37,0,0,0,1.9-.81,3.55,3.55,0,0,0,.67-2.26,3.67,3.67,0,0,0-.67-2.31,2.31,2.31,0,0,0-1.9-.84A2.2,2.2,0,0,0,258.15,51.92Z"/><path class="cls-1" d="M274.07,51.08A6.26,6.26,0,0,1,275.18,55h-7.05a3.44,3.44,0,0,0,.73,2.09,2.33,2.33,0,0,0,1.79.72,2.63,2.63,0,0,0,1.62-.47,3.05,3.05,0,0,0,.84-1.2H275a4.22,4.22,0,0,1-1.28,2.17,4.53,4.53,0,0,1-3.08,1.07,4.22,4.22,0,0,1-3.25-1.28,5,5,0,0,1-1.3-3.64A5.07,5.07,0,0,1,267.33,51a4,4,0,0,1,3.26-1.42A4.07,4.07,0,0,1,274.07,51.08Zm-5.13.64a3.22,3.22,0,0,0-.78,1.8h5a2.35,2.35,0,0,0-2.53-2.43A2.31,2.31,0,0,0,268.94,51.72Z"/><path class="cls-1" d="M282.33,49.76v1.91a4.64,4.64,0,0,0-1.35-.2,2.14,2.14,0,0,0-1.55.7,2.74,2.74,0,0,0-.72,2v4.93H276.8v-9.3h1.91v1.4a2.79,2.79,0,0,1,.9-1.13,2.27,2.27,0,0,1,1.51-.52A2.67,2.67,0,0,1,282.33,49.76Z"/></svg>