<svg id="图层_1" data-name="图层 1" xmlns="http://www.w3.org/2000/svg" viewBox="0 0 440 275"><defs><style>.cls-1{fill:#33353c;}</style></defs><title>币网站中英文</title><path class="cls-1" d="M96.85,21.54a24.28,24.28,0,0,1-2.16,2.05l-.56-.71a19.07,19.07,0,0,0,4.91-6H94.69V16h4.75c.31-.74.59-1.53.86-2.37l.88.1a19.43,19.43,0,0,1-.8,2.27h8.21v.85H100a20.08,20.08,0,0,1-2.29,3.64v7.86h-.86Zm2.46-.26h3.81V18.19H104v3.09h3.89v.87H104v4.78h4.64v.85h-10v-.85h4.51V22.15H99.31Z"/><path class="cls-1" d="M113.16,24.61A16.08,16.08,0,0,1,111,28.26l-.71-.5a14.34,14.34,0,0,0,2.1-3.52Zm3.69-10.9h.84v1.68H124v.82h-6.31v2.3h5.11v4.92H112.48V18.51h4.37Zm5.1,8.9V19.33h-8.61v3.28Zm-6.29,2.08c.35,1.17.65,2.34.88,3.49l-.88.21a20.63,20.63,0,0,0-.81-3.52Zm3.36-.14a29.94,29.94,0,0,1,1.28,3.6l-.86.2a20,20,0,0,0-1.22-3.63Zm3.36-.29a26.81,26.81,0,0,1,2.34,3.57l-.71.49a29.88,29.88,0,0,0-2.33-3.61Z"/><path class="cls-1" d="M128.32,17.41A15.24,15.24,0,0,1,126.73,19l-.44-.69a12.4,12.4,0,0,0,3.29-4.63l.8.21a11.16,11.16,0,0,1-.61,1.35h3.75c-.24-.57-.47-1-.69-1.46l.86-.16a17.1,17.1,0,0,1,.66,1.62h5.28V16h-5.2v1.28h4.64V18h-4.64v1.25h4.64V20h-4.64v1.36h5.49v.75h-11.6Zm-1.63,7v-.82h6.46v-1H134v1h6.37v.82h-5.12a11.4,11.4,0,0,0,5.3,2.77l-.37.77a11.8,11.8,0,0,1-5.78-3.54H134v4h-.86v-4h-.43c-1,1.4-2.9,2.6-5.75,3.62l-.46-.76q4-1.25,5.39-2.86Zm6.89-7.06V16h-4.26l-.19.31v1Zm0,2V18h-4.45v1.25Zm0,2.06V20h-4.45v1.36Z"/><path class="cls-1" d="M152.88,28.23l-.23-.85,1.59.05a.63.63,0,0,0,.7-.72V15.3H144.13v13h-.87V14.45h12.55V26.9a1.17,1.17,0,0,1-1.3,1.33Zm-3.68-3.49c-.57-.88-1.14-1.73-1.73-2.56a17.16,17.16,0,0,1-2.23,4.24l-.55-.67a16.86,16.86,0,0,0,2.2-4.39c-.86-1.15-1.65-2.11-2.35-2.89l.54-.55a27.89,27.89,0,0,1,2.1,2.53,32.52,32.52,0,0,0,.85-3.94l.82.15a31.71,31.71,0,0,1-1.06,4.61c.58.77,1.24,1.75,2,2.91Zm4.75.73c-.57-.94-1.17-1.92-1.81-2.92a17.14,17.14,0,0,1-2.4,4.25l-.54-.67a16.88,16.88,0,0,0,2.37-4.43c-.8-1.17-1.58-2.2-2.33-3.09l.57-.54a32.87,32.87,0,0,1,2.08,2.7,27.57,27.57,0,0,0,1-4.21l.82.15a31.65,31.65,0,0,1-1.2,4.92c.68,1,1.36,2.13,2.05,3.27Z"/><path class="cls-1" d="M164,26.15a31.82,31.82,0,0,1-5.36,1.48l-.11-.83A28.53,28.53,0,0,0,164,25.31Zm-1.89-12.1a24.9,24.9,0,0,1-2.52,5.1,23.4,23.4,0,0,0,2.44-.44l.87-1.72.75.29a34.34,34.34,0,0,1-3.58,6,27.41,27.41,0,0,0,3.63-1v.79A27.61,27.61,0,0,1,159,24.23l-.24-.82a1.47,1.47,0,0,0,.4-.24,19.34,19.34,0,0,0,2.4-3.63c-1.11.22-2.06.39-2.85.49l-.2-.8a.92.92,0,0,0,.36-.32,24.58,24.58,0,0,0,2.39-5.18Zm5.38-.21c-.15.47-.33.94-.53,1.41h4.48v.66a11.08,11.08,0,0,1-2.67,3.61A12.5,12.5,0,0,0,173,21.57l-.5.7A12.22,12.22,0,0,1,168.13,20a17.31,17.31,0,0,1-4.2,2.34l-.54-.7a16.59,16.59,0,0,0,4.1-2.2,10,10,0,0,1-1.76-2.22,14.32,14.32,0,0,1-1.54,1.57l-.51-.67a8.94,8.94,0,0,0,3-4.45Zm4,8.63v5.77h-.83v-.75h-4.76v.75H165V22.47Zm-5.59,4.22h4.76V23.25h-4.76Zm.36-10.1A9.7,9.7,0,0,0,168.09,19a10.28,10.28,0,0,0,2.39-2.93h-3.94Z"/><path class="cls-1" d="M181.08,13.67h.9v3h5.79V24h-.88V22.91H182v5.54h-.9V22.91h-4.89V24h-.88V16.63h5.77Zm-4.89,8.4h4.89V17.49h-4.89Zm5.79,0h4.91V17.49H182Z"/><path class="cls-1" d="M197.93,13.75a16.91,16.91,0,0,0,7,5.95l-.51.77a17.32,17.32,0,0,1-6.87-5.89,18.79,18.79,0,0,1-6.86,6l-.51-.78a17.92,17.92,0,0,0,7-6Zm-.83,4.68H198v9.89h-.87Z"/><path class="cls-1" d="M214,13.76c0,1.2,0,2.37-.11,3.51a15,15,0,0,0,7,10.17l-.57.74a15.36,15.36,0,0,1-6.75-9,14.81,14.81,0,0,1-6.88,9l-.53-.76q6.69-4.18,6.92-11.08l0-2.59Z"/><path class="cls-1" d="M227.15,13.92q2.07,2.21,4,4.71l-.57.59q-2.1-2.74-3.72-4.48a28.73,28.73,0,0,1-4.22,4.94l-.51-.69a28.29,28.29,0,0,0,4.32-5.07Zm1.41,5.78h-3.75v7c0,.35.2.53.59.53h3.27c.61,0,1-.14,1.12-.43a6.24,6.24,0,0,0,.35-1.92l.82.29a5.12,5.12,0,0,1-.59,2.48,2.19,2.19,0,0,1-1.51.4h-3.74Q224,28.07,224,27v-8h5.45V23a1.15,1.15,0,0,1-1.24,1.31c-.43,0-1,0-1.76-.06l-.23-.8c.81,0,1.39.06,1.72.06s.67-.24.67-.72Zm3.81,8.48-.2-.82c.89,0,1.73.05,2.52.05.35,0,.52-.21.52-.62v-13h.87V27c0,.78-.37,1.17-1.09,1.17Zm-.08-13h.84v10h-.84Z"/><path class="cls-1" d="M252.75,27.09l-.16.83h-4.77q-4.26,0-6.09-1.26a4.57,4.57,0,0,1-.66-.61,9.42,9.42,0,0,1-2,2.1l-.55-.72a7.47,7.47,0,0,0,2-2.07A11.12,11.12,0,0,1,239,21.87l.72-.27a13.38,13.38,0,0,0,1.25,3,11.35,11.35,0,0,0,1-4.4h-3v-.68a35.76,35.76,0,0,0,2.7-4.06h-2.81v-.83h3.79v.72a39.32,39.32,0,0,1-2.54,4h2.67V20a11.94,11.94,0,0,1-1.33,5.42,4.15,4.15,0,0,0,.93.79,11,11,0,0,0,5,1Q249.11,27.15,252.75,27.09Zm-1.36-6.91H248v1.47h3.85v.75H248V24h4.3v.75H248v1.79h-.87V24.74h-3.73V24h3.73V22.4h-3.25v-.75h3.25V20.18h-2.91v-.77h2.91V17.92h-3.7v-.73h3.7V15.68h-2.91v-.75h2.91V13.71H248v1.22h3.42v2.26h1.17v.73h-1.17ZM248,15.68v1.51h2.59V15.68Zm0,2.24v1.49h2.59V17.92Z"/><path class="cls-1" d="M266.81,15.71V28.32H266V27.23h-8.83v1.09h-.87V15.71h3.38a7.7,7.7,0,0,0,.85-2l.88.13a8.08,8.08,0,0,1-.82,1.9Zm-9.69,3.49H266V16.55h-8.83Zm0,3.51H266V20h-8.83Zm0,3.69H266V23.54h-8.83Z"/><path class="cls-1" d="M284.57,23.73a9.62,9.62,0,0,1-.6,3.33,1.73,1.73,0,0,1-1.64.75h-8.78c-1.1,0-1.65-.51-1.65-1.52V20h10V15.51H271v-.84h11.79v6.16h-10V26c0,.63.36.95,1.09,1h8.3a1.15,1.15,0,0,0,1.2-.72,11.78,11.78,0,0,0,.36-2.8Z"/><path class="cls-1" d="M291.87,16.59V27.35H291v-1h-3.23v1.42H287V16.59h1.44a14.61,14.61,0,0,0,.72-2.86l.88.11a13.08,13.08,0,0,1-.77,2.75ZM287.81,21H291V17.43h-3.23Zm0,4.58H291V21.78h-3.23Zm12.35-9c0,5.13-.08,8.33-.23,9.58a2,2,0,0,1-2.22,1.92l-1.57,0-.21-.8c.64,0,1.2,0,1.68,0,.87,0,1.36-.47,1.49-1.42s.19-3.69.22-8.44h-4.71a13.26,13.26,0,0,1-1.62,2.8l-.51-.67a14.28,14.28,0,0,0,2.35-5.89l.85.1a19.15,19.15,0,0,1-.74,2.8Zm-5.57,3.6a27.47,27.47,0,0,1,2.78,3.52l-.68.5a25.11,25.11,0,0,0-2.8-3.57Z"/><path class="cls-1" d="M302.86,22.71h2V15.17h3.22a7.58,7.58,0,0,0,.49-1.55l.92.13a7.06,7.06,0,0,1-.53,1.42h4.78v7.2a9.94,9.94,0,0,0,2.05-3.14l.75.45a14.47,14.47,0,0,1-2.8,3.81V27a1.13,1.13,0,0,1-1.28,1.27h-1.6l-.22-.85,1.53.05c.47,0,.71-.22.71-.64V24.24c-.39.31-.79.6-1.22.88A24.49,24.49,0,0,1,303.39,28l-.38-.78q6.27-1.14,9.05-3.26l.45-.37h-9.65Zm10-5V16h-7.15V17.7Zm-7.15.75v1.66h7.15V18.45Zm0,2.43v1.83h7.15V20.88Z"/><path class="cls-1" d="M322.83,14a21.39,21.39,0,0,1-1.65,3.76V28.37h-.86V19.19a19.85,19.85,0,0,1-1.94,2.38l-.27-.93a18.57,18.57,0,0,0,3.94-7Zm3.68.2a15.38,15.38,0,0,1-3.92,6.27l-.67-.59a14,14,0,0,0,3.77-6ZM323.76,21v-.87h6.91a40.78,40.78,0,0,1-.26,6c-.12,1.32-.74,2-1.85,2-.32,0-.88,0-1.68,0l-.21-.83c.92.05,1.51.07,1.79.07.65,0,1-.48,1.12-1.44a38.48,38.48,0,0,0,.23-4.88h-3a15.36,15.36,0,0,1-1.15,4.27,9.1,9.1,0,0,1-2.56,3l-.56-.71a8.09,8.09,0,0,0,2.34-2.67A13.54,13.54,0,0,0,326,21Zm5.09-7.24a12,12,0,0,0,4,5.86l-.59.69a12.46,12.46,0,0,1-4.2-6.11Z"/><path class="cls-1" d="M70.62,49.52H84.46v.85H79.82v4.14a.65.65,0,0,0,.74.72h2.22a.87.87,0,0,0,.74-.3,6.17,6.17,0,0,0,.37-2.3l.81.25a5.94,5.94,0,0,1-.57,2.77,1.49,1.49,0,0,1-1.17.42H80.3A1.2,1.2,0,0,1,79,54.69V50.37h-2.9v.18a5.75,5.75,0,0,1-1.28,3.77,8.24,8.24,0,0,1-3.92,2.08l-.49-.77a7.65,7.65,0,0,0,3.77-1.88,5.23,5.23,0,0,0,1.06-3.2v-.18H70.62Zm13.6-6V47h-.86v-2.6H71.68V47h-.87V43.55h6.31a17.71,17.71,0,0,0-.67-1.64l1-.16a15.54,15.54,0,0,1,.65,1.8Zm-11.17,3H82v.84h-8.9Z"/><path class="cls-1" d="M93.84,41.83a22.83,22.83,0,0,0,7,5.07l-.44.75a23.22,23.22,0,0,1-6.88-5,22.76,22.76,0,0,1-6.94,5.13L86.17,47a23.32,23.32,0,0,0,7.06-5.16Zm-4.76,5.1H98v.85H94v3h4.75v.85H94V55h6.2v.85H86.91V55H93.1v-3.3H88.33v-.85H93.1v-3h-4Z"/><path class="cls-1" d="M114.78,49.73c-1.3.21-2.85.38-4.64.5v1.26h4.93v.69h-4.93v1.26h6.19v.74h-6.19v1A1,1,0,0,1,109,56.37h-2.06l-.18-.75c.7,0,1.35.05,2,.05.4,0,.59-.23.59-.68v-.81h-6.64v-.74h6.64V52.18h-5.42v-.69h5.42V50.27q-2.73.12-5.13.12l-.24-.68A70.6,70.6,0,0,0,114.38,49ZM109.1,41.6H110v2.1h2.16a12.34,12.34,0,0,0,1.07-1.89l.85.29a10,10,0,0,1-1,1.6h3v2.86h-.87V44.45h-11.2v2.14h-.86V43.7h3a9,9,0,0,0-1-1.57l.83-.3a7.8,7.8,0,0,1,1.09,1.87h2.16Zm-3.47,4.07h7.81v2.72h-7.81Zm6.94,2.06V46.32h-6.08v1.41Z"/><path class="cls-1" d="M118.73,56.18l-.19-.83c.6,0,1,.06,1.3.06q.69,0,.69-.78V50.4c-.71.28-1.4.52-2.08.72l-.23-.86a17.24,17.24,0,0,0,2.31-.72V45.75h-2.08V44.9h2.08V41.76h.86V44.9h1.46v.85h-1.46v3.44c.42-.19.92-.43,1.52-.74v.88c-.47.25-1,.49-1.52.72v4.8c0,.89-.42,1.33-1.25,1.33Zm8.82-5.07h-3.84v-.82h8.51v.82h-3.81V54.9h4.42v.83h-9.78V54.9h4.5Zm.14-9.56a21.83,21.83,0,0,1,.85,2h3.83v2.84h-.84V44.37h-7.12v2.06h-.81V43.59h4.08a11.76,11.76,0,0,0-.87-1.88Zm-.41,4.26a9,9,0,0,1-3,3.66l-.63-.54a8,8,0,0,0,2.85-3.42Zm2-.34A19.9,19.9,0,0,1,132.05,49l-.76.4a21,21,0,0,0-2.72-3.55Z"/><path class="cls-1" d="M143.89,50.56H139.2a11.89,11.89,0,0,1-.8,2.61,7.12,7.12,0,0,1-3.32,3.2l-.51-.8a6.55,6.55,0,0,0,3.14-3.07,9.49,9.49,0,0,0,.59-1.94h-3.85v-.85h4c.08-.7.13-1.5.16-2.4V45.7H135.1v-.85h8.11a19.5,19.5,0,0,0,1.68-3.28l.93.32a17.53,17.53,0,0,1-1.61,3H148v.85h-3.26v4h3.89v.85h-3.89v5.7h-.86Zm-5.68-9a23.87,23.87,0,0,1,1.6,2.7l-.79.39a20.63,20.63,0,0,0-1.6-2.71Zm5.68,4.13h-4.42v1.61a21.74,21.74,0,0,1-.15,2.4h4.57Z"/><path class="cls-1" d="M154.64,42.05a20.78,20.78,0,0,1-1.48,3.41V56.37h-.87V46.91a18.22,18.22,0,0,1-2,2.44l-.27-.92a18.36,18.36,0,0,0,3.76-6.76Zm1.12.45h7.42v4.85H159.9v2h4.69v.86h-3.74a14.16,14.16,0,0,0,4,4.48l-.54.74a16,16,0,0,1-4.16-5.22h-.26v6.15H159V50.19h-.27a14.2,14.2,0,0,1-4.24,5.25l-.48-.77a12.78,12.78,0,0,0,4-4.48h-3.58v-.86H159v-2h-3.28Zm6.56,4V43.33h-5.7V46.5Z"/><path class="cls-1" d="M166.27,46.72h3.25v7.2c.64-.53,1.26-1.1,1.87-1.71l.22.91a19.79,19.79,0,0,1-2.86,2.4l-.34-.8a.74.74,0,0,0,.29-.54V47.57h-2.43Zm1.78-4.8a19.42,19.42,0,0,1,2.7,2.53l-.59.61a17.85,17.85,0,0,0-2.72-2.56Zm8.24,1.52h-4.6v-.85h8.9v.85h-3.43v4.79h3.22V49h-3.22v5.89h3.77v.85h-9.72v-.85h1.7V46.27h.85v8.66h2.53Z"/><path class="cls-1" d="M182.24,46.72h3.29v7.39a22.8,22.8,0,0,0,2-1.76l.23.93a22.12,22.12,0,0,1-3,2.43l-.33-.78a.79.79,0,0,0,.29-.56v-6.8h-2.45ZM184.05,42a19.8,19.8,0,0,1,2.7,2.45l-.59.61a17.32,17.32,0,0,0-2.74-2.46Zm3.61,14.26-.5-.74a14.94,14.94,0,0,0,8.77-7.29l.76.38a17.83,17.83,0,0,1-2.93,3.92,23.58,23.58,0,0,1,3.07,3.12l-.62.63a22.84,22.84,0,0,0-3-3.22A16.12,16.12,0,0,1,187.66,56.21Zm0-12.64h4.43a12,12,0,0,0-.87-1.9l.88-.16a21.2,21.2,0,0,1,.84,2.06h3.92v.82h-4.68a16.66,16.66,0,0,1-2.83,3.5c1.28-.06,2.57-.14,3.86-.24a14.21,14.21,0,0,0,1.17-1.82l.73.36a12.07,12.07,0,0,1-6.81,6l-.47-.72a11.31,11.31,0,0,0,4.71-3l-4.34.21-.18-.75c.15-.08.21-.11.18-.08a11.9,11.9,0,0,0,3-3.44h-3.58Z"/><path class="cls-1" d="M198.86,50.71h2V43.17h3.22a7.58,7.58,0,0,0,.49-1.55l.92.13a7.06,7.06,0,0,1-.53,1.42h4.78v7.2a9.94,9.94,0,0,0,2-3.14l.75.45a14.47,14.47,0,0,1-2.8,3.81V55a1.13,1.13,0,0,1-1.28,1.27h-1.6l-.22-.85,1.53,0c.47,0,.71-.22.71-.64V52.24c-.39.31-.79.6-1.22.88A24.49,24.49,0,0,1,199.39,56l-.38-.78q6.27-1.14,9.05-3.26l.45-.37h-9.65Zm10-5V44h-7.15V45.7Zm-7.15.75v1.66h7.15V46.45Zm0,2.43v1.83h7.15V48.88Z"/><path class="cls-1" d="M218.83,42a21.39,21.39,0,0,1-1.65,3.76V56.37h-.86V47.19a19.85,19.85,0,0,1-1.94,2.38l-.27-.93a18.57,18.57,0,0,0,3.94-7Zm3.68.2a15.38,15.38,0,0,1-3.92,6.27l-.67-.59a14,14,0,0,0,3.77-6ZM219.76,49v-.87h6.91a40.78,40.78,0,0,1-.26,6c-.12,1.32-.74,2-1.85,2-.32,0-.88,0-1.68,0l-.21-.83c.92,0,1.51.07,1.79.07.65,0,1-.48,1.12-1.44a38.48,38.48,0,0,0,.23-4.88h-3a15.36,15.36,0,0,1-1.15,4.27,9.1,9.1,0,0,1-2.56,3l-.56-.71a8.09,8.09,0,0,0,2.34-2.67A13.54,13.54,0,0,0,222,49Zm5.09-7.24a12,12,0,0,0,4,5.86l-.59.69a12.46,12.46,0,0,1-4.2-6.11Z"/><path class="cls-1" d="M235.87,44.59V55.35H235v-1h-3.23v1.42H231V44.59h1.44a14.61,14.61,0,0,0,.72-2.86l.88.11a13.08,13.08,0,0,1-.77,2.75ZM231.81,49H235V45.43h-3.23Zm0,4.58H235V49.78h-3.23Zm12.35-9c0,5.13-.08,8.33-.23,9.58a2,2,0,0,1-2.22,1.92l-1.57,0-.21-.8c.64,0,1.2,0,1.68,0,.87,0,1.36-.47,1.49-1.42s.19-3.69.22-8.44h-4.71a13.26,13.26,0,0,1-1.62,2.8l-.51-.67a14.28,14.28,0,0,0,2.35-5.89l.85.1a19.15,19.15,0,0,1-.74,2.8Zm-5.57,3.6a27.47,27.47,0,0,1,2.78,3.52l-.68.5a25.11,25.11,0,0,0-2.8-3.57Z"/><path class="cls-1" d="M247.08,43h6.2c0-.3.09-.74.16-1.31l.86.13L254.16,43H260v.75h-5.93L253.79,45h4.59v7.58h2.19v.78H246.49v-.78h2.44V45h4c.06-.29.15-.71.25-1.27h-6.08Zm4.74,11.17a15.72,15.72,0,0,1-4.54,2.17l-.35-.75a14.11,14.11,0,0,0,4.36-2ZM249.76,47h7.79V45.75h-7.79Zm0,1.87h7.79V47.65h-7.79Zm0,1.86h7.79V49.52h-7.79Zm0,1.92h7.79V51.38h-7.79Zm6,.94a25,25,0,0,1,4.56,2.13l-.45.69a22.74,22.74,0,0,0-4.52-2.21Z"/><path class="cls-1" d="M270.93,45.3h.86v1.61a11,11,0,0,1-.72,3.92h5.38v.82h-5.76a6.17,6.17,0,0,1-.63.94,36.25,36.25,0,0,1,6.31,3.08l-.5.75a32.36,32.36,0,0,0-6.32-3.2,13.74,13.74,0,0,1-6.1,3.1l-.48-.73q4.41-1.19,6.21-3.24c.12-.14.28-.38.5-.7h-7.11v-.82h7.54a10,10,0,0,0,.82-3.92Zm5-1.81v3h-.88V44.31H264v2.28h-.88v-3.1h6.14a16,16,0,0,0-.72-1.76l.91-.16a18,18,0,0,1,.66,1.92ZM264.86,47.6a17.91,17.91,0,0,1,3.36,1.75l-.46.7a15.88,15.88,0,0,0-3.33-1.81Zm1-2.45a16.6,16.6,0,0,1,3.25,1.72l-.47.68a13,13,0,0,0-3.21-1.77Z"/><path class="cls-1" d="M279.53,44.85a22.22,22.22,0,0,1-.57,4.56l-.72-.19a21.53,21.53,0,0,0,.59-4.43Zm1.08-3.07h.86V56.27h-.86Zm2,2.72a21,21,0,0,1,1,2.81l-.7.18a21.18,21.18,0,0,0-1-2.78Zm2.56,1.23a12.55,12.55,0,0,1-1.31,3.34l-.66-.57a13.13,13.13,0,0,0,1.56-5.81l.8.1a15.87,15.87,0,0,1-.21,2.09h2.59V41.79h.88v3.09h3.6v.85h-3.6v4.11h3.31v.85h-3.31V55h4v.85h-9.59V55h4.69V50.69h-3.76v-.85h3.76V45.73Z"/><path class="cls-1" d="M294.72,46.23h2.89V43.65c-.89.15-1.77.26-2.62.32l-.29-.8a20.19,20.19,0,0,0,6-1.23l.41.73a18.43,18.43,0,0,1-2.65.8v2.76h2.83V47h-2.83V48a36.41,36.41,0,0,1,2.86,2.95l-.51.73c-.91-1.21-1.69-2.17-2.35-2.88v7.51h-.84V48.58a15.22,15.22,0,0,1-2.94,4.56l-.37-.91A13,13,0,0,0,297.61,47h-2.89ZM308,42.91V55.7h-.87V54.37h-4.19v1.47h-.85V42.91Zm-5.06,10.64h4.19V43.73h-4.19Z"/><path class="cls-1" d="M310.54,47.86h4.51c.41-.73.89-1.63,1.46-2.72l.88.27-1.31,2.45h8.48v.83h-3.2A13.55,13.55,0,0,1,319,52.9q2.36,1,5.16,2.61l-.58.73a53.85,53.85,0,0,0-5.22-2.69,10.71,10.71,0,0,1-7.17,2.56l-.51-.81a10.7,10.7,0,0,0,6.8-2.11s0,0,0,0a45,45,0,0,0-4.6-1.73c.63-1,1.19-1.9,1.68-2.75h-4ZM324,43.38v3.29h-.86V44.23H311.9v2.43H311V43.38h6.12a14,14,0,0,0-.76-1.6l1-.16c.26.53.51,1.12.75,1.76Zm-8.41,5.31q-1.1,1.79-1.47,2.37a35.8,35.8,0,0,1,4,1.49,10.9,10.9,0,0,0,2.29-3.86Z"/><path class="cls-1" d="M333.84,41.83a22.83,22.83,0,0,0,7,5.07l-.44.75a23.22,23.22,0,0,1-6.88-5,22.76,22.76,0,0,1-6.94,5.13l-.42-.77a23.32,23.32,0,0,0,7.06-5.16Zm-4.76,5.1H338v.85h-4v3h4.75v.85H334V55h6.2v.85H326.91V55h6.19v-3.3h-4.77v-.85h4.77v-3h-4Z"/><path class="cls-1" d="M343.53,44.85a22.22,22.22,0,0,1-.57,4.56l-.72-.19a21.53,21.53,0,0,0,.59-4.43Zm1.08-3.07h.86V56.27h-.86Zm2,2.72a21,21,0,0,1,1,2.81l-.7.18a21.18,21.18,0,0,0-1-2.78Zm2.56,1.23a12.55,12.55,0,0,1-1.31,3.34l-.66-.57a13.13,13.13,0,0,0,1.56-5.81l.8.1a15.87,15.87,0,0,1-.21,2.09h2.59V41.79h.88v3.09h3.6v.85h-3.6v4.11h3.31v.85h-3.31V55h4v.85h-9.59V55h4.69V50.69h-3.76v-.85h3.76V45.73Z"/></svg>