<svg id="图层_1" data-name="图层 1" xmlns="http://www.w3.org/2000/svg" viewBox="0 0 441 276"><defs><style>.cls-1{fill:#33353c;}</style></defs><title>121212</title><path class="cls-1" d="M43,14.42h1.1V27.27H43Z"/><path class="cls-1" d="M54.25,21.55v5.72H53.17V21.62q0-3-2.65-3a2.46,2.46,0,0,0-1.87.81,3.28,3.28,0,0,0-.88,2.2v5.62H46.69V18h1.08v1.53A3.78,3.78,0,0,1,49,18.18a3.28,3.28,0,0,1,1.76-.47Q54.25,17.71,54.25,21.55Z"/><path class="cls-1" d="M64.76,15v3h2.43v.94H64.76v6.3a1.42,1.42,0,0,0,.22.88,1,1,0,0,0,.81.25H67v.94H65.64a1.92,1.92,0,0,1-1.55-.56,2.25,2.25,0,0,1-.41-1.51V18.9h-2V18h2V15.41Z"/><path class="cls-1" d="M68.83,14.17h1.1v5.49a3.58,3.58,0,0,1,1.3-1.46A3.3,3.3,0,0,1,73,17.71a3.25,3.25,0,0,1,2.48.94,3.76,3.76,0,0,1,.9,2.68v5.94H75.29v-5.8a3.07,3.07,0,0,0-.68-2.11,2.57,2.57,0,0,0-1.93-.72,2.51,2.51,0,0,0-2,.94,3.36,3.36,0,0,0-.79,2.3v5.38h-1.1Z"/><path class="cls-1" d="M85.71,19.21a6.49,6.49,0,0,1,1.06,3.73H79.22a4.38,4.38,0,0,0,.92,2.68,2.93,2.93,0,0,0,2.3,1,3.12,3.12,0,0,0,2.05-.67,3.49,3.49,0,0,0,1-1.64h1.1a4.35,4.35,0,0,1-1.24,2.21,4.15,4.15,0,0,1-2.9,1,4,4,0,0,1-3.13-1.33,5.14,5.14,0,0,1-1.21-3.58,5.2,5.2,0,0,1,1.15-3.44,4.27,4.27,0,0,1,6.46,0Zm-5.51.4a4.09,4.09,0,0,0-1,2.45h6.41q-.27-3.4-3.22-3.4A2.78,2.78,0,0,0,80.21,19.6Z"/><path class="cls-1" d="M94.68,14.42H99.9q4.28,0,4.28,3.69t-4.3,3.71h-4.1v5.45h-1.1Zm1.1,1v5.45h4a3.8,3.8,0,0,0,2.47-.68,2.6,2.6,0,0,0,.77-2.05,2.52,2.52,0,0,0-.77-2,3.69,3.69,0,0,0-2.47-.7Z"/><path class="cls-1" d="M113.27,19.19a5.21,5.21,0,0,1,1.13,3.44A5.22,5.22,0,0,1,113.27,26a4.41,4.41,0,0,1-6.59,0,5.22,5.22,0,0,1-1.13-3.42,5.15,5.15,0,0,1,1.15-3.44A4,4,0,0,1,110,17.71,4.09,4.09,0,0,1,113.27,19.19Zm-5.8.68a4.35,4.35,0,0,0-.83,2.75,4.32,4.32,0,0,0,.83,2.74,3.19,3.19,0,0,0,5,0,4.51,4.51,0,0,0,.83-2.74,4.45,4.45,0,0,0-.83-2.75,3.19,3.19,0,0,0-5,0Z"/><path class="cls-1" d="M118,14.89a.76.76,0,0,1,.27.63.89.89,0,0,1-.29.65.94.94,0,0,1-.63.25.89.89,0,0,1-.92-.9.76.76,0,0,1,.27-.63.84.84,0,0,1,.65-.27A.88.88,0,0,1,118,14.89ZM116.85,18h1.08v9.31h-1.08Z"/><path class="cls-1" d="M128.3,21.55v5.72h-1.08V21.62q0-3-2.65-3a2.46,2.46,0,0,0-1.87.81,3.28,3.28,0,0,0-.88,2.2v5.62h-1.08V18h1.08v1.53a3.78,3.78,0,0,1,1.26-1.31,3.28,3.28,0,0,1,1.76-.47Q128.3,17.71,128.3,21.55Z"/><path class="cls-1" d="M132.82,15v3h2.43v.94h-2.43v6.3a1.42,1.42,0,0,0,.22.88,1,1,0,0,0,.81.25H135v.94H133.7a1.92,1.92,0,0,1-1.55-.56,2.25,2.25,0,0,1-.41-1.51V18.9h-2V18h2V15.41Z"/><path class="cls-1" d="M144.61,15.19a4.1,4.1,0,0,1,1.44,3H145a3.57,3.57,0,0,0-1.13-2.29,3.86,3.86,0,0,0-2.59-.77,4.74,4.74,0,0,0-2.45.54,2,2,0,0,0,.2,3.53,19.2,19.2,0,0,0,2.47.83,15.37,15.37,0,0,1,3.31,1.22,3,3,0,0,1,1.6,2.7A3.05,3.05,0,0,1,145,26.6a6,6,0,0,1-3.51.92,5.5,5.5,0,0,1-3.49-1A4.61,4.61,0,0,1,136.35,23h1.08a3.89,3.89,0,0,0,1.26,2.7,4.3,4.3,0,0,0,2.75.79,5.18,5.18,0,0,0,2.75-.67,2.09,2.09,0,0,0,1-1.82A2.27,2.27,0,0,0,143.92,22a13.92,13.92,0,0,0-2.83-1,15.73,15.73,0,0,1-3-1,2.62,2.62,0,0,1-1.48-2.41A2.85,2.85,0,0,1,138.06,15a5.62,5.62,0,0,1,3.2-.83A5.09,5.09,0,0,1,144.61,15.19Z"/><path class="cls-1" d="M155.16,19.21a6.49,6.49,0,0,1,1.06,3.73h-7.56a4.38,4.38,0,0,0,.92,2.68,2.93,2.93,0,0,0,2.3,1,3.12,3.12,0,0,0,2.05-.67,3.49,3.49,0,0,0,1-1.64H156a4.35,4.35,0,0,1-1.24,2.21,4.15,4.15,0,0,1-2.9,1,4,4,0,0,1-3.13-1.33,5.14,5.14,0,0,1-1.21-3.58,5.2,5.2,0,0,1,1.15-3.44,4.27,4.27,0,0,1,6.46,0Zm-5.51.4a4.09,4.09,0,0,0-1,2.45h6.41q-.27-3.4-3.22-3.4A2.78,2.78,0,0,0,149.65,19.6Z"/><path class="cls-1" d="M160.2,15v3h2.43v.94H160.2v6.3a1.42,1.42,0,0,0,.22.88,1,1,0,0,0,.81.25h1.17v.94h-1.31a1.92,1.92,0,0,1-1.55-.56,2.25,2.25,0,0,1-.41-1.51V18.9h-2V18h2V15.41Z"/><path class="cls-1" d="M177.82,21.55v5.72h-1.08V21.62q0-3-2.65-3a2.46,2.46,0,0,0-1.87.81,3.28,3.28,0,0,0-.88,2.2v5.62h-1.08V18h1.08v1.53a3.78,3.78,0,0,1,1.26-1.31,3.28,3.28,0,0,1,1.76-.47Q177.82,17.71,177.82,21.55Z"/><path class="cls-1" d="M187.16,19.21a6.49,6.49,0,0,1,1.06,3.73h-7.56a4.38,4.38,0,0,0,.92,2.68,2.93,2.93,0,0,0,2.3,1,3.12,3.12,0,0,0,2.05-.67,3.49,3.49,0,0,0,1-1.64H188a4.35,4.35,0,0,1-1.24,2.21,4.15,4.15,0,0,1-2.9,1,4,4,0,0,1-3.13-1.33,5.14,5.14,0,0,1-1.21-3.58,5.2,5.2,0,0,1,1.15-3.44,4.27,4.27,0,0,1,6.46,0Zm-5.51.4a4.09,4.09,0,0,0-1,2.45h6.41q-.27-3.4-3.22-3.4A2.78,2.78,0,0,0,181.65,19.6Z"/><path class="cls-1" d="M192.2,15v3h2.43v.94H192.2v6.3a1.42,1.42,0,0,0,.22.88,1,1,0,0,0,.81.25h1.17v.94h-1.31a1.92,1.92,0,0,1-1.55-.56,2.25,2.25,0,0,1-.41-1.51V18.9h-2V18h2V15.41Z"/><path class="cls-1" d="M195.22,18h1.21l2.52,7.92L201.29,18h1l2.34,7.92L207.21,18h1.19l-3.19,9.31h-1l-2.34-7.9-2.38,7.9h-1Z"/><path class="cls-1" d="M217,19.19a5.21,5.21,0,0,1,1.13,3.44A5.22,5.22,0,0,1,217,26a4.41,4.41,0,0,1-6.59,0,5.22,5.22,0,0,1-1.13-3.42,5.15,5.15,0,0,1,1.15-3.44,4,4,0,0,1,3.28-1.48A4.09,4.09,0,0,1,217,19.19Zm-5.8.68a4.35,4.35,0,0,0-.83,2.75,4.32,4.32,0,0,0,.83,2.74,3.19,3.19,0,0,0,5,0,4.51,4.51,0,0,0,.83-2.74,4.45,4.45,0,0,0-.83-2.75,3.19,3.19,0,0,0-5,0Z"/><path class="cls-1" d="M225.28,17.91V19a5,5,0,0,0-1.42-.2,2.3,2.3,0,0,0-2,1.12,4,4,0,0,0-.74,2.43v4.91H220V18h1.08v1.78a3.41,3.41,0,0,1,1-1.39,2.68,2.68,0,0,1,1.8-.65A3.69,3.69,0,0,1,225.28,17.91Z"/><path class="cls-1" d="M226.51,14.17h1.08v8.5l5.17-4.7h1.48l-4.09,3.69,4.5,5.62h-1.42l-3.85-4.91L227.59,24v3.29h-1.08Z"/><path class="cls-1" d="M238,27a3.31,3.31,0,0,1-1.8,3.11l-.4-.63a2.83,2.83,0,0,0,1.39-2.2l-.27,0a1,1,0,0,1-.67-.23.84.84,0,0,1-.25-.65.86.86,0,0,1,.23-.67.9.9,0,0,1,.67-.25Q238,25.47,238,27Z"/><path class="cls-1" d="M248.14,14.89a.76.76,0,0,1,.27.63.89.89,0,0,1-.29.65.94.94,0,0,1-.63.25.89.89,0,0,1-.92-.9.76.76,0,0,1,.27-.63.84.84,0,0,1,.65-.27A.88.88,0,0,1,248.14,14.89ZM247,18H248v9.31H247Z"/><path class="cls-1" d="M258.4,21.55v5.72h-1.08V21.62q0-3-2.65-3a2.46,2.46,0,0,0-1.87.81,3.28,3.28,0,0,0-.88,2.2v5.62h-1.08V18h1.08v1.53a3.78,3.78,0,0,1,1.26-1.31,3.28,3.28,0,0,1,1.76-.47Q258.4,17.71,258.4,21.55Z"/><path class="cls-1" d="M267.69,14.17h1.08v13.1h-1V25.43a3.34,3.34,0,0,1-3.26,2.09A3.78,3.78,0,0,1,261.34,26a5.52,5.52,0,0,1-1-3.44,5.47,5.47,0,0,1,1-3.4,3.65,3.65,0,0,1,3.1-1.49,3.4,3.4,0,0,1,3.26,2.21Zm-5.51,5.65a4.48,4.48,0,0,0-.77,2.79,4.74,4.74,0,0,0,.76,2.81,2.8,2.8,0,0,0,2.43,1.19A2.76,2.76,0,0,0,267,25.45a4.52,4.52,0,0,0,.77-2.7v-.22a4.51,4.51,0,0,0-.83-2.79,2.7,2.7,0,0,0-2.27-1.12A2.85,2.85,0,0,0,262.18,19.82Z"/><path class="cls-1" d="M272.77,14.89a.76.76,0,0,1,.27.63.89.89,0,0,1-.29.65.94.94,0,0,1-.63.25.89.89,0,0,1-.92-.9.76.76,0,0,1,.27-.63.84.84,0,0,1,.65-.27A.88.88,0,0,1,272.77,14.89ZM271.58,18h1.08v9.31h-1.08Z"/><path class="cls-1" d="M274.42,18h1.19l2.93,7.94L281.46,18h1.21l-3.56,9.31H278Z"/><path class="cls-1" d="M285.62,14.89a.76.76,0,0,1,.27.63.89.89,0,0,1-.29.65.94.94,0,0,1-.63.25.89.89,0,0,1-.92-.9.76.76,0,0,1,.27-.63.84.84,0,0,1,.65-.27A.88.88,0,0,1,285.62,14.89ZM284.43,18h1.08v9.31h-1.08Z"/><path class="cls-1" d="M295.34,14.17h1.08v13.1h-1V25.43a3.34,3.34,0,0,1-3.26,2.09A3.78,3.78,0,0,1,289,26a5.52,5.52,0,0,1-1-3.44,5.47,5.47,0,0,1,1-3.4,3.65,3.65,0,0,1,3.1-1.49,3.4,3.4,0,0,1,3.26,2.21Zm-5.51,5.65a4.48,4.48,0,0,0-.77,2.79,4.74,4.74,0,0,0,.76,2.81,2.8,2.8,0,0,0,2.43,1.19,2.76,2.76,0,0,0,2.36-1.15,4.52,4.52,0,0,0,.77-2.7v-.22a4.51,4.51,0,0,0-.83-2.79,2.7,2.7,0,0,0-2.27-1.12A2.85,2.85,0,0,0,289.83,19.82Z"/><path class="cls-1" d="M298.69,18h1.08v5.69a3.3,3.3,0,0,0,.61,2.18,2.49,2.49,0,0,0,2,.76,2.6,2.6,0,0,0,1.89-.83,3.29,3.29,0,0,0,.92-2.14V18h1.08v9.31h-1.08V25.7a3.41,3.41,0,0,1-3.1,1.82q-3.4,0-3.4-3.82Z"/><path class="cls-1" d="M315.37,18.77a3.6,3.6,0,0,1,.83,2.5v6h-1V25.49a4.81,4.81,0,0,1-1.51,1.39,4.69,4.69,0,0,1-2.43.65,3.35,3.35,0,0,1-2.21-.7,2.4,2.4,0,0,1-.85-1.93,2.75,2.75,0,0,1,1.46-2.59,6.28,6.28,0,0,1,3.11-.67l2.38,0v-.34a2.36,2.36,0,0,0-2.7-2.65,3.2,3.2,0,0,0-1.94.52,2.21,2.21,0,0,0-1,1.62h-1.06a3.25,3.25,0,0,1,1.31-2.34,4.55,4.55,0,0,1,2.7-.72A3.67,3.67,0,0,1,315.37,18.77Zm-.25,3.73-2.32,0q-3.53,0-3.53,2.36a1.55,1.55,0,0,0,.59,1.26,2.39,2.39,0,0,0,1.58.49,3.87,3.87,0,0,0,2.59-1,2.76,2.76,0,0,0,1.08-2.07Z"/><path class="cls-1" d="M318.81,14.17h1.08v13.1h-1.08Z"/><path class="cls-1" d="M329.37,20.57h-1.06a2.2,2.2,0,0,0-.77-1.42,3.7,3.7,0,0,0-3.56-.09,1.23,1.23,0,0,0,.18,2.25,12.62,12.62,0,0,0,2,.65,9.37,9.37,0,0,1,2.41.86,2.1,2.1,0,0,1,1.12,1.87q0,2.83-3.78,2.83-3.58,0-3.91-3.19H323a2.53,2.53,0,0,0,.86,1.76,3.23,3.23,0,0,0,1.94.49q2.7,0,2.7-1.84a1.41,1.41,0,0,0-.92-1.3,12.32,12.32,0,0,0-2.07-.65,9,9,0,0,1-2.27-.83,2,2,0,0,1-1.06-1.78,2.1,2.1,0,0,1,1-1.82,4.19,4.19,0,0,1,2.45-.67Q329,17.71,329.37,20.57Z"/><path class="cls-1" d="M344,18.52A3.53,3.53,0,0,1,345.29,21h-1.08a2.65,2.65,0,0,0-.94-1.76,3.12,3.12,0,0,0-2-.59A2.79,2.79,0,0,0,339,19.78a4.53,4.53,0,0,0-.85,2.9,4.57,4.57,0,0,0,.81,2.84,2.78,2.78,0,0,0,2.36,1.06,2.75,2.75,0,0,0,3-2.65h1.06A4.24,4.24,0,0,1,344,26.62a4,4,0,0,1-2.72.9,3.88,3.88,0,0,1-3.2-1.4A5.21,5.21,0,0,1,337,22.68a5.4,5.4,0,0,1,1.1-3.49,3.82,3.82,0,0,1,3.19-1.48A4.31,4.31,0,0,1,344,18.52Z"/><path class="cls-1" d="M354.41,19.19a5.21,5.21,0,0,1,1.13,3.44A5.22,5.22,0,0,1,354.41,26a4.41,4.41,0,0,1-6.59,0,5.22,5.22,0,0,1-1.13-3.42,5.15,5.15,0,0,1,1.15-3.44,4,4,0,0,1,3.28-1.48A4.09,4.09,0,0,1,354.41,19.19Zm-5.8.68a4.35,4.35,0,0,0-.83,2.75,4.32,4.32,0,0,0,.83,2.74,3.19,3.19,0,0,0,5,0,4.51,4.51,0,0,0,.83-2.74,4.45,4.45,0,0,0-.83-2.75,3.19,3.19,0,0,0-5,0Z"/><path class="cls-1" d="M357.45,18h1.08v5.69a3.3,3.3,0,0,0,.61,2.18,2.49,2.49,0,0,0,2,.76,2.6,2.6,0,0,0,1.89-.83,3.29,3.29,0,0,0,.92-2.14V18H365v9.31H364V25.7a3.41,3.41,0,0,1-3.1,1.82q-3.4,0-3.4-3.82Z"/><path class="cls-1" d="M367.64,14.17h1.08v13.1h-1.08Z"/><path class="cls-1" d="M378.35,14.17h1.08v13.1h-1V25.43a3.34,3.34,0,0,1-3.26,2.09A3.78,3.78,0,0,1,372,26a5.52,5.52,0,0,1-1-3.44,5.47,5.47,0,0,1,1-3.4,3.65,3.65,0,0,1,3.1-1.49,3.4,3.4,0,0,1,3.26,2.21Zm-5.51,5.65a4.48,4.48,0,0,0-.77,2.79,4.74,4.74,0,0,0,.76,2.81,2.8,2.8,0,0,0,2.43,1.19,2.76,2.76,0,0,0,2.36-1.15,4.52,4.52,0,0,0,.77-2.7v-.22a4.51,4.51,0,0,0-.83-2.79,2.7,2.7,0,0,0-2.27-1.12A2.85,2.85,0,0,0,372.84,19.82Z"/><path class="cls-1" d="M57.09,50.52A3.53,3.53,0,0,1,58.37,53H57.29a2.65,2.65,0,0,0-.94-1.76,3.12,3.12,0,0,0-2-.59A2.79,2.79,0,0,0,52,51.78a4.53,4.53,0,0,0-.85,2.9A4.57,4.57,0,0,0,52,57.52a2.78,2.78,0,0,0,2.36,1.06,2.75,2.75,0,0,0,3-2.65h1.06a4.24,4.24,0,0,1-1.33,2.68,4,4,0,0,1-2.72.9,3.88,3.88,0,0,1-3.2-1.4,5.21,5.21,0,0,1-1.06-3.44,5.4,5.4,0,0,1,1.1-3.49,3.82,3.82,0,0,1,3.19-1.48A4.31,4.31,0,0,1,57.09,50.52Z"/><path class="cls-1" d="M65.39,49.91V51a5,5,0,0,0-1.42-.2,2.3,2.3,0,0,0-2,1.12,4,4,0,0,0-.74,2.43v4.91H60.14V50h1.08v1.78a3.41,3.41,0,0,1,1-1.39,2.68,2.68,0,0,1,1.8-.65A3.69,3.69,0,0,1,65.39,49.91Z"/><path class="cls-1" d="M73.69,51.21a6.49,6.49,0,0,1,1.06,3.73H67.19a4.38,4.38,0,0,0,.92,2.68,2.93,2.93,0,0,0,2.3,1,3.12,3.12,0,0,0,2.05-.67,3.49,3.49,0,0,0,1-1.64h1.1a4.35,4.35,0,0,1-1.24,2.21,4.15,4.15,0,0,1-2.9,1,4,4,0,0,1-3.13-1.33,5.14,5.14,0,0,1-1.21-3.58,5.2,5.2,0,0,1,1.15-3.44,4.27,4.27,0,0,1,6.46,0Zm-5.51.4a4.09,4.09,0,0,0-1,2.45h6.41q-.27-3.4-3.22-3.4A2.78,2.78,0,0,0,68.18,51.6Z"/><path class="cls-1" d="M83.32,50.77a3.6,3.6,0,0,1,.83,2.5v6h-1V57.49a4.81,4.81,0,0,1-1.51,1.39,4.69,4.69,0,0,1-2.43.65,3.35,3.35,0,0,1-2.21-.7,2.4,2.4,0,0,1-.85-1.93,2.75,2.75,0,0,1,1.46-2.59,6.28,6.28,0,0,1,3.11-.67l2.38,0v-.34a2.36,2.36,0,0,0-2.7-2.65,3.2,3.2,0,0,0-1.94.52,2.21,2.21,0,0,0-1,1.62H76.41a3.25,3.25,0,0,1,1.31-2.34,4.55,4.55,0,0,1,2.7-.72A3.67,3.67,0,0,1,83.32,50.77Zm-.25,3.73-2.32,0q-3.53,0-3.53,2.36a1.55,1.55,0,0,0,.59,1.26,2.39,2.39,0,0,0,1.58.49,3.87,3.87,0,0,0,2.59-1,2.76,2.76,0,0,0,1.08-2.07Z"/><path class="cls-1" d="M88.67,47v3H91.1v.94H88.67v6.3a1.42,1.42,0,0,0,.22.88,1,1,0,0,0,.81.25h1.17v.94H89.55A1.92,1.92,0,0,1,88,58.71a2.25,2.25,0,0,1-.41-1.51V50.9h-2V50h2V47.41Z"/><path class="cls-1" d="M99.81,51.21a6.49,6.49,0,0,1,1.06,3.73H93.31a4.38,4.38,0,0,0,.92,2.68,2.93,2.93,0,0,0,2.3,1,3.12,3.12,0,0,0,2.05-.67,3.49,3.49,0,0,0,1-1.64h1.1a4.35,4.35,0,0,1-1.24,2.21,4.15,4.15,0,0,1-2.9,1,4,4,0,0,1-3.13-1.33,5.14,5.14,0,0,1-1.21-3.58,5.2,5.2,0,0,1,1.15-3.44,4.27,4.27,0,0,1,6.46,0Zm-5.51.4a4.09,4.09,0,0,0-1,2.45h6.41q-.27-3.4-3.22-3.4A2.78,2.78,0,0,0,94.3,51.6Z"/><path class="cls-1" d="M110.84,47v3h2.43v.94h-2.43v6.3a1.42,1.42,0,0,0,.22.88,1,1,0,0,0,.81.25H113v.94h-1.31a1.92,1.92,0,0,1-1.55-.56,2.25,2.25,0,0,1-.41-1.51V50.9h-2V50h2V47.41Z"/><path class="cls-1" d="M114.91,46.17H116v5.49a3.58,3.58,0,0,1,1.3-1.46,3.3,3.3,0,0,1,1.76-.49,3.25,3.25,0,0,1,2.48.94,3.76,3.76,0,0,1,.9,2.68v5.94h-1.08v-5.8a3.07,3.07,0,0,0-.68-2.11,2.57,2.57,0,0,0-1.93-.72,2.51,2.51,0,0,0-2,.94,3.36,3.36,0,0,0-.79,2.3v5.38h-1.1Z"/><path class="cls-1" d="M131.79,51.21a6.49,6.49,0,0,1,1.06,3.73H125.3a4.38,4.38,0,0,0,.92,2.68,2.93,2.93,0,0,0,2.3,1,3.12,3.12,0,0,0,2.05-.67,3.49,3.49,0,0,0,1-1.64h1.1a4.35,4.35,0,0,1-1.24,2.21,4.15,4.15,0,0,1-2.9,1,4,4,0,0,1-3.13-1.33,5.14,5.14,0,0,1-1.21-3.58,5.2,5.2,0,0,1,1.15-3.44,4.27,4.27,0,0,1,6.46,0Zm-5.51.4a4.09,4.09,0,0,0-1,2.45h6.41q-.27-3.4-3.22-3.4A2.78,2.78,0,0,0,126.29,51.6Z"/><path class="cls-1" d="M136.31,46.89a.76.76,0,0,1,.27.63.89.89,0,0,1-.29.65.94.94,0,0,1-.63.25.89.89,0,0,1-.92-.9.76.76,0,0,1,.27-.63.84.84,0,0,1,.65-.27A.88.88,0,0,1,136.31,46.89ZM135.12,50h1.08v9.31h-1.08Z"/><path class="cls-1" d="M144.27,49.91V51a5,5,0,0,0-1.42-.2,2.3,2.3,0,0,0-2,1.12,4,4,0,0,0-.74,2.43v4.91H139V50h1.08v1.78a3.41,3.41,0,0,1,1-1.39,2.68,2.68,0,0,1,1.8-.65A3.69,3.69,0,0,1,144.27,49.91Z"/><path class="cls-1" d="M151.83,46.42h1.1V59.27h-1.1Z"/><path class="cls-1" d="M155.71,46.42h4.57a5.57,5.57,0,0,1,4.52,1.8,7,7,0,0,1,1.39,4.63,6.66,6.66,0,0,1-1.55,4.64,5.89,5.89,0,0,1-4.59,1.78h-4.34Zm1.1,1V58.3h3.08a5.08,5.08,0,0,0,3.92-1.46,5.68,5.68,0,0,0,1.3-4,6,6,0,0,0-1.13-4,4.78,4.78,0,0,0-3.85-1.44Z"/><path class="cls-1" d="M175,52.57h-1.06a2.2,2.2,0,0,0-.77-1.42,3.7,3.7,0,0,0-3.56-.09,1.23,1.23,0,0,0,.18,2.25,12.62,12.62,0,0,0,2,.65,9.37,9.37,0,0,1,2.41.86,2.1,2.1,0,0,1,1.12,1.87q0,2.83-3.78,2.83-3.58,0-3.91-3.19h1.06a2.53,2.53,0,0,0,.86,1.76,3.23,3.23,0,0,0,1.94.49q2.7,0,2.7-1.84a1.41,1.41,0,0,0-.92-1.3,12.32,12.32,0,0,0-2.07-.65,9,9,0,0,1-2.27-.83,2,2,0,0,1-1.06-1.78,2.1,2.1,0,0,1,1-1.82,4.19,4.19,0,0,1,2.45-.67Q174.58,49.71,175,52.57Z"/><path class="cls-1" d="M189.81,50.77a3.6,3.6,0,0,1,.83,2.5v6h-1V57.49a4.81,4.81,0,0,1-1.51,1.39,4.69,4.69,0,0,1-2.43.65,3.35,3.35,0,0,1-2.21-.7,2.4,2.4,0,0,1-.85-1.93,2.75,2.75,0,0,1,1.46-2.59,6.28,6.28,0,0,1,3.11-.67l2.38,0v-.34a2.36,2.36,0,0,0-2.7-2.65,3.2,3.2,0,0,0-1.94.52,2.21,2.21,0,0,0-1,1.62h-1.06a3.25,3.25,0,0,1,1.31-2.34,4.55,4.55,0,0,1,2.7-.72A3.67,3.67,0,0,1,189.81,50.77Zm-.25,3.73-2.32,0q-3.53,0-3.53,2.36a1.55,1.55,0,0,0,.59,1.26,2.39,2.39,0,0,0,1.58.49,3.87,3.87,0,0,0,2.59-1,2.76,2.76,0,0,0,1.08-2.07Z"/><path class="cls-1" d="M200.46,53.55v5.72h-1.08V53.62q0-3-2.65-3a2.46,2.46,0,0,0-1.87.81,3.28,3.28,0,0,0-.88,2.2v5.62H192.9V50H194v1.53a3.78,3.78,0,0,1,1.26-1.31,3.28,3.28,0,0,1,1.76-.47Q200.46,49.71,200.46,53.55Z"/><path class="cls-1" d="M209.75,46.17h1.08v13.1h-1V57.43a3.34,3.34,0,0,1-3.26,2.09A3.78,3.78,0,0,1,203.4,58a5.52,5.52,0,0,1-1-3.44,5.47,5.47,0,0,1,1-3.4,3.65,3.65,0,0,1,3.1-1.49,3.4,3.4,0,0,1,3.26,2.21Zm-5.51,5.65a4.48,4.48,0,0,0-.77,2.79,4.74,4.74,0,0,0,.76,2.81,2.8,2.8,0,0,0,2.43,1.19A2.76,2.76,0,0,0,209,57.45a4.52,4.52,0,0,0,.77-2.7v-.22a4.51,4.51,0,0,0-.83-2.79,2.7,2.7,0,0,0-2.27-1.12A2.85,2.85,0,0,0,204.24,51.82Z"/><path class="cls-1" d="M219.09,46.17h1.1v5.49a3.58,3.58,0,0,1,1.3-1.46,3.3,3.3,0,0,1,1.76-.49,3.25,3.25,0,0,1,2.48.94,3.76,3.76,0,0,1,.9,2.68v5.94h-1.08v-5.8a3.07,3.07,0,0,0-.68-2.11,2.57,2.57,0,0,0-1.93-.72,2.51,2.51,0,0,0-2,.94,3.36,3.36,0,0,0-.79,2.3v5.38h-1.1Z"/><path class="cls-1" d="M235.74,50.77a3.6,3.6,0,0,1,.83,2.5v6h-1V57.49A4.81,4.81,0,0,1,234,58.87a4.69,4.69,0,0,1-2.43.65,3.35,3.35,0,0,1-2.21-.7,2.4,2.4,0,0,1-.85-1.93A2.75,2.75,0,0,1,230,54.3a6.28,6.28,0,0,1,3.11-.67l2.38,0v-.34a2.36,2.36,0,0,0-2.7-2.65,3.2,3.2,0,0,0-1.94.52,2.21,2.21,0,0,0-1,1.62h-1.06a3.25,3.25,0,0,1,1.31-2.34,4.55,4.55,0,0,1,2.7-.72A3.67,3.67,0,0,1,235.74,50.77Zm-.25,3.73-2.32,0q-3.53,0-3.53,2.36a1.55,1.55,0,0,0,.59,1.26,2.39,2.39,0,0,0,1.58.49,3.87,3.87,0,0,0,2.59-1,2.76,2.76,0,0,0,1.08-2.07Z"/><path class="cls-1" d="M237.79,50H239l2.93,7.94L244.83,50H246l-3.56,9.31h-1.12Z"/><path class="cls-1" d="M254.33,51.21a6.49,6.49,0,0,1,1.06,3.73h-7.56a4.38,4.38,0,0,0,.92,2.68,2.93,2.93,0,0,0,2.3,1,3.12,3.12,0,0,0,2.05-.67,3.49,3.49,0,0,0,1-1.64h1.1A4.35,4.35,0,0,1,254,58.5a4.15,4.15,0,0,1-2.9,1,4,4,0,0,1-3.13-1.33,5.14,5.14,0,0,1-1.21-3.58,5.2,5.2,0,0,1,1.15-3.44,4.27,4.27,0,0,1,6.46,0Zm-5.51.4a4.09,4.09,0,0,0-1,2.45h6.41q-.27-3.4-3.22-3.4A2.78,2.78,0,0,0,248.83,51.6Z"/><path class="cls-1" d="M268.55,46.42v1H267a1.28,1.28,0,0,0-1,.36,1.65,1.65,0,0,0-.32,1.15V50h2.79v.94h-2.79v8.37h-1.08V50.9h-2.48V50h2.48v-1.1a2.47,2.47,0,0,1,.58-1.78,2.24,2.24,0,0,1,1.76-.67Z"/><path class="cls-1" d="M269.78,50h1.08v5.69a3.3,3.3,0,0,0,.61,2.18,2.49,2.49,0,0,0,2,.76,2.6,2.6,0,0,0,1.89-.83,3.29,3.29,0,0,0,.92-2.14V50h1.08v9.31h-1.08V57.7a3.41,3.41,0,0,1-3.1,1.82q-3.4,0-3.4-3.82Z"/><path class="cls-1" d="M280,46.17H281v13.1H280Z"/><path class="cls-1" d="M284,46.17h1.08v13.1H284Z"/><path class="cls-1" d="M300.32,50.52A3.53,3.53,0,0,1,301.6,53h-1.08a2.65,2.65,0,0,0-.94-1.76,3.12,3.12,0,0,0-2-.59,2.79,2.79,0,0,0-2.34,1.13,4.53,4.53,0,0,0-.85,2.9,4.57,4.57,0,0,0,.81,2.84,2.78,2.78,0,0,0,2.36,1.06,2.75,2.75,0,0,0,3-2.65h1.06a4.24,4.24,0,0,1-1.33,2.68,4,4,0,0,1-2.72.9,3.88,3.88,0,0,1-3.2-1.4,5.21,5.21,0,0,1-1.06-3.44,5.4,5.4,0,0,1,1.1-3.49,3.82,3.82,0,0,1,3.19-1.48A4.31,4.31,0,0,1,300.32,50.52Z"/><path class="cls-1" d="M310.73,51.19a5.75,5.75,0,0,1,0,6.86,4.41,4.41,0,0,1-6.59,0A5.22,5.22,0,0,1,303,54.63a5.15,5.15,0,0,1,1.15-3.44,4,4,0,0,1,3.28-1.48A4.09,4.09,0,0,1,310.73,51.19Zm-5.8.68a5,5,0,0,0,0,5.49,3.19,3.19,0,0,0,5,0,4.51,4.51,0,0,0,.83-2.74,4.45,4.45,0,0,0-.83-2.75,3.19,3.19,0,0,0-5,0Z"/><path class="cls-1" d="M321.33,53.55v5.72h-1.08V53.62q0-3-2.65-3a2.46,2.46,0,0,0-1.87.81,3.28,3.28,0,0,0-.88,2.2v5.62h-1.08V50h1.08v1.53a3.78,3.78,0,0,1,1.26-1.31,3.28,3.28,0,0,1,1.76-.47Q321.33,49.71,321.33,53.55Z"/><path class="cls-1" d="M325.85,47v3h2.43v.94h-2.43v6.3a1.42,1.42,0,0,0,.22.88,1,1,0,0,0,.81.25H328v.94h-1.31a1.92,1.92,0,0,1-1.55-.56,2.25,2.25,0,0,1-.41-1.51V50.9h-2V50h2V47.41Z"/><path class="cls-1" d="M335.17,49.91V51a5,5,0,0,0-1.42-.2,2.3,2.3,0,0,0-2,1.12,4,4,0,0,0-.74,2.43v4.91h-1.08V50H331v1.78a3.41,3.41,0,0,1,1-1.39,2.68,2.68,0,0,1,1.8-.65A3.69,3.69,0,0,1,335.17,49.91Z"/><path class="cls-1" d="M343.76,51.19a5.75,5.75,0,0,1,0,6.86,4.41,4.41,0,0,1-6.59,0A5.22,5.22,0,0,1,336,54.63a5.15,5.15,0,0,1,1.15-3.44,4,4,0,0,1,3.28-1.48A4.09,4.09,0,0,1,343.76,51.19Zm-5.8.68a5,5,0,0,0,0,5.49,3.19,3.19,0,0,0,5,0,4.51,4.51,0,0,0,.83-2.74,4.45,4.45,0,0,0-.83-2.75,3.19,3.19,0,0,0-5,0Z"/><path class="cls-1" d="M347.14,46.17h1.08v13.1h-1.08Z"/><path class="cls-1" d="M364.19,51.19a5.75,5.75,0,0,1,0,6.86,4.41,4.41,0,0,1-6.59,0,5.22,5.22,0,0,1-1.13-3.42,5.15,5.15,0,0,1,1.15-3.44,4,4,0,0,1,3.28-1.48A4.09,4.09,0,0,1,364.19,51.19Zm-5.8.68a5,5,0,0,0,0,5.49,3.19,3.19,0,0,0,5,0,4.51,4.51,0,0,0,.83-2.74,4.45,4.45,0,0,0-.83-2.75,3.19,3.19,0,0,0-5,0Z"/><path class="cls-1" d="M372.66,46.42v1H371.1a1.28,1.28,0,0,0-1,.36,1.65,1.65,0,0,0-.32,1.15V50h2.79v.94h-2.79v8.37h-1.08V50.9h-2.48V50h2.48v-1.1a2.47,2.47,0,0,1,.58-1.78,2.24,2.24,0,0,1,1.76-.67Z"/><path class="cls-1" d="M38.44,79v3h2.43v.94H38.44v6.3a1.42,1.42,0,0,0,.22.88,1,1,0,0,0,.81.25h1.17v.94H39.32a1.92,1.92,0,0,1-1.55-.56,2.25,2.25,0,0,1-.41-1.51V82.9h-2V82h2V79.41Z"/><path class="cls-1" d="M42.51,78.17h1.1v5.49a3.58,3.58,0,0,1,1.3-1.46,3.3,3.3,0,0,1,1.76-.49,3.25,3.25,0,0,1,2.48.94,3.76,3.76,0,0,1,.9,2.68v5.94H49v-5.8a3.07,3.07,0,0,0-.68-2.11,2.57,2.57,0,0,0-1.93-.72,2.51,2.51,0,0,0-2,.94,3.36,3.36,0,0,0-.79,2.3v5.38h-1.1Z"/><path class="cls-1" d="M59.39,83.21a6.49,6.49,0,0,1,1.06,3.73H52.89a4.38,4.38,0,0,0,.92,2.68,2.93,2.93,0,0,0,2.3,1,3.12,3.12,0,0,0,2.05-.67,3.49,3.49,0,0,0,1-1.64h1.1A4.35,4.35,0,0,1,59,90.5a4.15,4.15,0,0,1-2.9,1A4,4,0,0,1,53,90.19a5.14,5.14,0,0,1-1.21-3.58,5.2,5.2,0,0,1,1.15-3.44,4.27,4.27,0,0,1,6.46,0Zm-5.51.4a4.09,4.09,0,0,0-1,2.45h6.41q-.27-3.4-3.22-3.4A2.78,2.78,0,0,0,53.88,83.6Z"/><path class="cls-1" d="M75,84.57H74a2.2,2.2,0,0,0-.77-1.42,3.7,3.7,0,0,0-3.56-.09,1.23,1.23,0,0,0,.18,2.25,12.62,12.62,0,0,0,2,.65,9.37,9.37,0,0,1,2.41.86,2.1,2.1,0,0,1,1.12,1.87q0,2.83-3.78,2.83-3.58,0-3.91-3.19h1.06a2.53,2.53,0,0,0,.86,1.76,3.23,3.23,0,0,0,1.94.49q2.7,0,2.7-1.84a1.41,1.41,0,0,0-.92-1.3,12.32,12.32,0,0,0-2.07-.65A9,9,0,0,1,68.95,86a2,2,0,0,1-1.06-1.78,2.1,2.1,0,0,1,1-1.82,4.19,4.19,0,0,1,2.45-.67Q74.65,81.71,75,84.57Z"/><path class="cls-1" d="M83.89,82.77a3.6,3.6,0,0,1,.83,2.5v6h-1V89.49a4.81,4.81,0,0,1-1.51,1.39,4.69,4.69,0,0,1-2.43.65,3.35,3.35,0,0,1-2.21-.7,2.4,2.4,0,0,1-.85-1.93,2.75,2.75,0,0,1,1.46-2.59,6.28,6.28,0,0,1,3.11-.67l2.38,0v-.34a2.36,2.36,0,0,0-2.7-2.65,3.2,3.2,0,0,0-1.94.52,2.21,2.21,0,0,0-1,1.62H77a3.25,3.25,0,0,1,1.31-2.34,4.55,4.55,0,0,1,2.7-.72A3.67,3.67,0,0,1,83.89,82.77Zm-.25,3.73-2.32,0q-3.53,0-3.53,2.36a1.55,1.55,0,0,0,.59,1.26,2.39,2.39,0,0,0,1.58.49,3.87,3.87,0,0,0,2.59-1,2.76,2.76,0,0,0,1.08-2.07Z"/><path class="cls-1" d="M92.42,78.42v1H90.85a1.28,1.28,0,0,0-1,.36,1.65,1.65,0,0,0-.32,1.15V82h2.79v.94H89.5v8.37H88.42V82.9H85.94V82h2.48v-1.1A2.47,2.47,0,0,1,89,79.08a2.24,2.24,0,0,1,1.76-.67Z"/><path class="cls-1" d="M100.72,83.21a6.49,6.49,0,0,1,1.06,3.73H94.22a4.38,4.38,0,0,0,.92,2.68,2.93,2.93,0,0,0,2.3,1,3.12,3.12,0,0,0,2.05-.67,3.49,3.49,0,0,0,1-1.64h1.1a4.35,4.35,0,0,1-1.24,2.21,4.15,4.15,0,0,1-2.9,1,4,4,0,0,1-3.13-1.33,5.14,5.14,0,0,1-1.21-3.58,5.2,5.2,0,0,1,1.15-3.44,4.27,4.27,0,0,1,6.46,0Zm-5.51.4a4.09,4.09,0,0,0-1,2.45h6.41q-.27-3.4-3.22-3.4A2.78,2.78,0,0,0,95.21,83.6Z"/><path class="cls-1" d="M105.76,79v3h2.43v.94h-2.43v6.3a1.42,1.42,0,0,0,.22.88,1,1,0,0,0,.81.25H108v.94h-1.31a1.92,1.92,0,0,1-1.55-.56,2.25,2.25,0,0,1-.41-1.51V82.9h-2V82h2V79.41Z"/><path class="cls-1" d="M108.78,82H110l3,7.76L116,82h1.19l-5.13,12.87H110.9l1.57-3.8Z"/><path class="cls-1" d="M131.26,82.77a3.6,3.6,0,0,1,.83,2.5v6h-1V89.49a4.81,4.81,0,0,1-1.51,1.39,4.69,4.69,0,0,1-2.43.65,3.35,3.35,0,0,1-2.21-.7,2.4,2.4,0,0,1-.85-1.93,2.75,2.75,0,0,1,1.46-2.59,6.28,6.28,0,0,1,3.11-.67l2.38,0v-.34a2.36,2.36,0,0,0-2.7-2.65,3.2,3.2,0,0,0-1.94.52,2.21,2.21,0,0,0-1,1.62h-1.06a3.25,3.25,0,0,1,1.31-2.34,4.55,4.55,0,0,1,2.7-.72A3.67,3.67,0,0,1,131.26,82.77ZM131,86.5l-2.32,0q-3.53,0-3.53,2.36a1.55,1.55,0,0,0,.59,1.26,2.39,2.39,0,0,0,1.58.49,3.87,3.87,0,0,0,2.59-1A2.76,2.76,0,0,0,131,87.58Z"/><path class="cls-1" d="M141.92,85.55v5.72h-1.08V85.62q0-3-2.65-3a2.46,2.46,0,0,0-1.87.81,3.28,3.28,0,0,0-.88,2.2v5.62h-1.08V82h1.08v1.53a3.78,3.78,0,0,1,1.26-1.31,3.28,3.28,0,0,1,1.76-.47Q141.92,81.71,141.92,85.55Z"/><path class="cls-1" d="M151.21,78.17h1.08v13.1h-1V89.43A3.34,3.34,0,0,1,148,91.52,3.78,3.78,0,0,1,144.85,90a5.52,5.52,0,0,1-1-3.44,5.47,5.47,0,0,1,1-3.4,3.65,3.65,0,0,1,3.1-1.49,3.4,3.4,0,0,1,3.26,2.21Zm-5.51,5.65a4.48,4.48,0,0,0-.77,2.79,4.74,4.74,0,0,0,.76,2.81,2.8,2.8,0,0,0,2.43,1.19,2.76,2.76,0,0,0,2.36-1.15,4.52,4.52,0,0,0,.77-2.7v-.22a4.51,4.51,0,0,0-.83-2.79,2.7,2.7,0,0,0-2.27-1.12A2.85,2.85,0,0,0,145.7,83.82Z"/><path class="cls-1" d="M167.42,84.57h-1.06a2.2,2.2,0,0,0-.77-1.42,3.7,3.7,0,0,0-3.56-.09,1.23,1.23,0,0,0,.18,2.25,12.62,12.62,0,0,0,2,.65,9.37,9.37,0,0,1,2.41.86,2.1,2.1,0,0,1,1.12,1.87q0,2.83-3.78,2.83-3.58,0-3.91-3.19h1.06a2.53,2.53,0,0,0,.86,1.76,3.23,3.23,0,0,0,1.94.49q2.7,0,2.7-1.84a1.41,1.41,0,0,0-.92-1.3,12.32,12.32,0,0,0-2.07-.65,9,9,0,0,1-2.27-.83,2,2,0,0,1-1.06-1.78,2.1,2.1,0,0,1,1-1.82,4.19,4.19,0,0,1,2.45-.67Q167,81.71,167.42,84.57Z"/><path class="cls-1" d="M176.5,83.21a6.49,6.49,0,0,1,1.06,3.73H170a4.38,4.38,0,0,0,.92,2.68,2.93,2.93,0,0,0,2.3,1,3.12,3.12,0,0,0,2.05-.67,3.49,3.49,0,0,0,1-1.64h1.1a4.35,4.35,0,0,1-1.24,2.21,4.15,4.15,0,0,1-2.9,1,4,4,0,0,1-3.13-1.33,5.14,5.14,0,0,1-1.21-3.58A5.2,5.2,0,0,1,170,83.17a4.27,4.27,0,0,1,6.46,0Zm-5.51.4A4.09,4.09,0,0,0,170,86h6.41q-.27-3.4-3.22-3.4A2.78,2.78,0,0,0,171,83.6Z"/><path class="cls-1" d="M185.93,82.52A3.53,3.53,0,0,1,187.21,85h-1.08a2.65,2.65,0,0,0-.94-1.76,3.12,3.12,0,0,0-2-.59,2.79,2.79,0,0,0-2.34,1.13,4.53,4.53,0,0,0-.85,2.9,4.57,4.57,0,0,0,.81,2.84,2.78,2.78,0,0,0,2.36,1.06,2.75,2.75,0,0,0,3-2.65h1.06a4.24,4.24,0,0,1-1.33,2.68,4,4,0,0,1-2.72.9,3.88,3.88,0,0,1-3.2-1.4,5.21,5.21,0,0,1-1.06-3.44,5.4,5.4,0,0,1,1.1-3.49,3.82,3.82,0,0,1,3.19-1.48A4.31,4.31,0,0,1,185.93,82.52Z"/><path class="cls-1" d="M189,82H190v5.69a3.3,3.3,0,0,0,.61,2.18,2.49,2.49,0,0,0,2,.76,2.6,2.6,0,0,0,1.89-.83,3.29,3.29,0,0,0,.92-2.14V82h1.08v9.31h-1.08V89.7a3.41,3.41,0,0,1-3.1,1.82q-3.4,0-3.4-3.82Z"/><path class="cls-1" d="M204.07,81.91V83a5,5,0,0,0-1.42-.2,2.3,2.3,0,0,0-2,1.12,4,4,0,0,0-.74,2.43v4.91h-1.08V82h1.08v1.78a3.41,3.41,0,0,1,1-1.39,2.68,2.68,0,0,1,1.8-.65A3.69,3.69,0,0,1,204.07,81.91Z"/><path class="cls-1" d="M207,78.89a.76.76,0,0,1,.27.63.89.89,0,0,1-.29.65.94.94,0,0,1-.63.25.89.89,0,0,1-.92-.9.76.76,0,0,1,.27-.63.84.84,0,0,1,.65-.27A.88.88,0,0,1,207,78.89ZM205.83,82h1.08v9.31h-1.08Z"/><path class="cls-1" d="M212,79v3h2.43v.94H212v6.3a1.42,1.42,0,0,0,.22.88,1,1,0,0,0,.81.25h1.17v.94h-1.31a1.92,1.92,0,0,1-1.55-.56,2.25,2.25,0,0,1-.41-1.51V82.9h-2V82h2V79.41Z"/><path class="cls-1" d="M215,82h1.19l3,7.76,3-7.76h1.19l-5.13,12.87h-1.17l1.57-3.8Z"/><path class="cls-1" d="M238,83.19A5.75,5.75,0,0,1,238,90a4.41,4.41,0,0,1-6.59,0,5.22,5.22,0,0,1-1.13-3.42,5.15,5.15,0,0,1,1.15-3.44,4,4,0,0,1,3.28-1.48A4.09,4.09,0,0,1,238,83.19Zm-5.8.68a5,5,0,0,0,0,5.49,3.19,3.19,0,0,0,5,0,4.51,4.51,0,0,0,.83-2.74,4.45,4.45,0,0,0-.83-2.75,3.19,3.19,0,0,0-5,0Z"/><path class="cls-1" d="M246.48,78.42v1h-1.57a1.28,1.28,0,0,0-1,.36,1.65,1.65,0,0,0-.32,1.15V82h2.79v.94h-2.79v8.37h-1.08V82.9H240V82h2.48v-1.1a2.47,2.47,0,0,1,.58-1.78,2.24,2.24,0,0,1,1.76-.67Z"/><path class="cls-1" d="M250,79v3h2.43v.94H250v6.3a1.42,1.42,0,0,0,.22.88,1,1,0,0,0,.81.25h1.17v.94h-1.31a1.92,1.92,0,0,1-1.55-.56,2.25,2.25,0,0,1-.41-1.51V82.9h-2V82h2V79.41Z"/><path class="cls-1" d="M254,78.17h1.1v5.49a3.58,3.58,0,0,1,1.3-1.46,3.3,3.3,0,0,1,1.76-.49,3.25,3.25,0,0,1,2.48.94,3.76,3.76,0,0,1,.9,2.68v5.94h-1.08v-5.8a3.07,3.07,0,0,0-.68-2.11,2.57,2.57,0,0,0-1.93-.72,2.51,2.51,0,0,0-2,.94,3.36,3.36,0,0,0-.79,2.3v5.38H254Z"/><path class="cls-1" d="M270.67,82.77a3.6,3.6,0,0,1,.83,2.5v6h-1V89.49A4.81,4.81,0,0,1,269,90.87a4.69,4.69,0,0,1-2.43.65,3.35,3.35,0,0,1-2.21-.7,2.4,2.4,0,0,1-.85-1.93,2.75,2.75,0,0,1,1.46-2.59,6.28,6.28,0,0,1,3.11-.67l2.38,0v-.34a2.36,2.36,0,0,0-2.7-2.65,3.2,3.2,0,0,0-1.94.52,2.21,2.21,0,0,0-1,1.62h-1.06a3.25,3.25,0,0,1,1.31-2.34,4.55,4.55,0,0,1,2.7-.72A3.67,3.67,0,0,1,270.67,82.77Zm-.25,3.73-2.32,0q-3.53,0-3.53,2.36a1.55,1.55,0,0,0,.59,1.26,2.39,2.39,0,0,0,1.58.49,3.87,3.87,0,0,0,2.59-1,2.76,2.76,0,0,0,1.08-2.07Z"/><path class="cls-1" d="M276,79v3h2.43v.94H276v6.3a1.42,1.42,0,0,0,.22.88,1,1,0,0,0,.81.25h1.17v.94H276.9a1.92,1.92,0,0,1-1.55-.56,2.25,2.25,0,0,1-.41-1.51V82.9h-2V82h2V79.41Z"/><path class="cls-1" d="M286.42,78.42h1.1V91.27h-1.1Z"/><path class="cls-1" d="M290.31,78.42h4.57a5.57,5.57,0,0,1,4.52,1.8,7,7,0,0,1,1.39,4.63,6.66,6.66,0,0,1-1.55,4.64,5.89,5.89,0,0,1-4.59,1.78h-4.34Zm1.1,1V90.3h3.08a5.08,5.08,0,0,0,3.92-1.46,5.68,5.68,0,0,0,1.3-4,6,6,0,0,0-1.13-4,4.78,4.78,0,0,0-3.85-1.44Z"/><path class="cls-1" d="M304.53,89.72a.81.81,0,0,1,.27.65.9.9,0,0,1-.29.65.94.94,0,0,1-.63.25.85.85,0,0,1-.65-.27.86.86,0,0,1-.27-.63.81.81,0,0,1,.27-.65.84.84,0,0,1,.65-.25A.88.88,0,0,1,304.53,89.72Z"/><path class="cls-1" d="M313.51,78.42h4.57a5.57,5.57,0,0,1,4.52,1.8A7,7,0,0,1,324,84.84a6.66,6.66,0,0,1-1.55,4.64,5.89,5.89,0,0,1-4.59,1.78h-4.34Zm1.1,1V90.3h3.08a5.08,5.08,0,0,0,3.92-1.46,5.68,5.68,0,0,0,1.3-4,6,6,0,0,0-1.13-4,4.78,4.78,0,0,0-3.85-1.44Z"/><path class="cls-1" d="M327.62,78.89a.76.76,0,0,1,.27.63.89.89,0,0,1-.29.65.94.94,0,0,1-.63.25.89.89,0,0,1-.92-.9.76.76,0,0,1,.27-.63.84.84,0,0,1,.65-.27A.88.88,0,0,1,327.62,78.89ZM326.43,82h1.08v9.31h-1.08Z"/><path class="cls-1" d="M337.48,83.84V82h1.08v8.62q0,4.5-4.18,4.5a4.47,4.47,0,0,1-2.83-.79,3.39,3.39,0,0,1-1.19-2.23h1.08a2.41,2.41,0,0,0,.86,1.55,3.25,3.25,0,0,0,2.07.58q3.1,0,3.1-3.47V88.93a3.46,3.46,0,0,1-3.33,2.12A3.87,3.87,0,0,1,331,89.67a5.51,5.51,0,0,1,0-6.55,3.85,3.85,0,0,1,3.11-1.4A3.46,3.46,0,0,1,337.48,83.84Zm-5.6-.09a4,4,0,0,0-.83,2.65,4.13,4.13,0,0,0,.77,2.59,2.85,2.85,0,0,0,2.43,1.13A2.92,2.92,0,0,0,336.67,89a4.73,4.73,0,0,0,0-5.29,3.12,3.12,0,0,0-4.79,0Z"/><path class="cls-1" d="M342.56,78.89a.76.76,0,0,1,.27.63.89.89,0,0,1-.29.65.94.94,0,0,1-.63.25.89.89,0,0,1-.92-.9.76.76,0,0,1,.27-.63.84.84,0,0,1,.65-.27A.88.88,0,0,1,342.56,78.89ZM341.37,82h1.08v9.31h-1.08Z"/><path class="cls-1" d="M347.51,79v3h2.43v.94h-2.43v6.3a1.42,1.42,0,0,0,.22.88,1,1,0,0,0,.81.25h1.17v.94h-1.31a1.92,1.92,0,0,1-1.55-.56,2.25,2.25,0,0,1-.41-1.51V82.9h-2V82h2V79.41Z"/><path class="cls-1" d="M358.42,82.77a3.6,3.6,0,0,1,.83,2.5v6h-1V89.49a4.81,4.81,0,0,1-1.51,1.39,4.69,4.69,0,0,1-2.43.65,3.35,3.35,0,0,1-2.21-.7,2.4,2.4,0,0,1-.85-1.93,2.75,2.75,0,0,1,1.46-2.59,6.28,6.28,0,0,1,3.11-.67l2.38,0v-.34a2.36,2.36,0,0,0-2.7-2.65,3.2,3.2,0,0,0-1.94.52,2.21,2.21,0,0,0-1,1.62h-1.06a3.25,3.25,0,0,1,1.31-2.34,4.55,4.55,0,0,1,2.7-.72A3.67,3.67,0,0,1,358.42,82.77Zm-.25,3.73-2.32,0q-3.53,0-3.53,2.36a1.55,1.55,0,0,0,.59,1.26,2.39,2.39,0,0,0,1.58.49,3.87,3.87,0,0,0,2.59-1,2.76,2.76,0,0,0,1.08-2.07Z"/><path class="cls-1" d="M361.86,78.17h1.08v13.1h-1.08Z"/><path class="cls-1" d="M371.88,78.42H373V91.27h-1.1Z"/><path class="cls-1" d="M375.77,78.42h4.57a5.57,5.57,0,0,1,4.52,1.8,7,7,0,0,1,1.39,4.63,6.66,6.66,0,0,1-1.55,4.64,5.89,5.89,0,0,1-4.59,1.78h-4.34Zm1.1,1V90.3h3.08a5.08,5.08,0,0,0,3.92-1.46,5.68,5.68,0,0,0,1.3-4,6,6,0,0,0-1.13-4,4.78,4.78,0,0,0-3.85-1.44Z"/><path class="cls-1" d="M47,110.89a.76.76,0,0,1,.27.63.89.89,0,0,1-.29.65.94.94,0,0,1-.63.25.89.89,0,0,1-.92-.9.76.76,0,0,1,.27-.63.84.84,0,0,1,.65-.27A.88.88,0,0,1,47,110.89ZM45.77,114h1.08v9.31H45.77Z"/><path class="cls-1" d="M56.54,116.57H55.47a2.2,2.2,0,0,0-.77-1.42,3.7,3.7,0,0,0-3.56-.09,1.23,1.23,0,0,0,.18,2.25,12.62,12.62,0,0,0,2,.65,9.37,9.37,0,0,1,2.41.86,2.1,2.1,0,0,1,1.12,1.87q0,2.83-3.78,2.83-3.58,0-3.91-3.19h1.06A2.53,2.53,0,0,0,51,122.1a3.23,3.23,0,0,0,1.94.49q2.7,0,2.7-1.84a1.41,1.41,0,0,0-.92-1.3,12.32,12.32,0,0,0-2.07-.65,9,9,0,0,1-2.27-.83,2,2,0,0,1-1.06-1.78,2.1,2.1,0,0,1,1-1.82,4.19,4.19,0,0,1,2.45-.67Q56.14,113.71,56.54,116.57Z"/><path class="cls-1" d="M64.87,110.17h1.08v13.1H64.87Z"/><path class="cls-1" d="M70.29,110.89a.76.76,0,0,1,.27.63.89.89,0,0,1-.29.65.94.94,0,0,1-.63.25.89.89,0,0,1-.92-.9.76.76,0,0,1,.27-.63.84.84,0,0,1,.65-.27A.88.88,0,0,1,70.29,110.89ZM69.1,114h1.08v9.31H69.1Z"/><path class="cls-1" d="M73,110.17h1.08v8.5l5.17-4.7h1.48l-4.09,3.69,4.5,5.62H79.7l-3.85-4.91L74.07,120v3.29H73Z"/><path class="cls-1" d="M89.33,115.21a6.49,6.49,0,0,1,1.06,3.73H82.83a4.38,4.38,0,0,0,.92,2.68,2.93,2.93,0,0,0,2.3,1,3.12,3.12,0,0,0,2.05-.67,3.49,3.49,0,0,0,1-1.64h1.1A4.35,4.35,0,0,1,89,122.5a4.15,4.15,0,0,1-2.9,1,4,4,0,0,1-3.13-1.33,5.14,5.14,0,0,1-1.21-3.58,5.2,5.2,0,0,1,1.15-3.44,4.27,4.27,0,0,1,6.46,0Zm-5.51.4a4.09,4.09,0,0,0-1,2.45h6.41q-.27-3.4-3.22-3.4A2.78,2.78,0,0,0,83.82,115.6Z"/><path class="cls-1" d="M105,114.77a3.6,3.6,0,0,1,.83,2.5v6h-1v-1.78a4.81,4.81,0,0,1-1.51,1.39,4.69,4.69,0,0,1-2.43.65,3.35,3.35,0,0,1-2.21-.7,2.4,2.4,0,0,1-.85-1.93,2.75,2.75,0,0,1,1.46-2.59,6.28,6.28,0,0,1,3.11-.67l2.38,0v-.34a2.36,2.36,0,0,0-2.7-2.65,3.2,3.2,0,0,0-1.94.52,2.21,2.21,0,0,0-1,1.62H98a3.25,3.25,0,0,1,1.31-2.34,4.55,4.55,0,0,1,2.7-.72A3.67,3.67,0,0,1,105,114.77Zm-.25,3.73-2.32,0q-3.53,0-3.53,2.36a1.55,1.55,0,0,0,.59,1.26,2.39,2.39,0,0,0,1.58.49,3.87,3.87,0,0,0,2.59-1,2.76,2.76,0,0,0,1.08-2.07Z"/><path class="cls-1" d="M114,110.17h1.08v8.5l5.17-4.7h1.48l-4.09,3.69,4.5,5.62h-1.42l-3.85-4.91L115.12,120v3.29H114Z"/><path class="cls-1" d="M130.39,115.21a6.49,6.49,0,0,1,1.06,3.73h-7.56a4.38,4.38,0,0,0,.92,2.68,2.93,2.93,0,0,0,2.3,1,3.12,3.12,0,0,0,2.05-.67,3.49,3.49,0,0,0,1-1.64h1.1A4.35,4.35,0,0,1,130,122.5a4.15,4.15,0,0,1-2.9,1,4,4,0,0,1-3.13-1.33,5.14,5.14,0,0,1-1.21-3.58,5.2,5.2,0,0,1,1.15-3.44,4.27,4.27,0,0,1,6.46,0Zm-5.51.4a4.09,4.09,0,0,0-1,2.45h6.41q-.27-3.4-3.22-3.4A2.78,2.78,0,0,0,124.88,115.6Z"/><path class="cls-1" d="M132.13,114h1.19l3,7.76,3-7.76h1.19l-5.13,12.87h-1.17l1.57-3.8Z"/><path class="cls-1" d="M150,111v3h2.43v.94H150v6.3a1.42,1.42,0,0,0,.22.88,1,1,0,0,0,.81.25h1.17v.94h-1.31a1.92,1.92,0,0,1-1.55-.56,2.25,2.25,0,0,1-.41-1.51v-6.3h-2V114h2v-2.56Z"/><path class="cls-1" d="M161.46,115.19a5.75,5.75,0,0,1,0,6.86,4.41,4.41,0,0,1-6.59,0,5.22,5.22,0,0,1-1.13-3.42,5.15,5.15,0,0,1,1.15-3.44,4,4,0,0,1,3.28-1.48A4.09,4.09,0,0,1,161.46,115.19Zm-5.8.68a5,5,0,0,0,0,5.49,3.19,3.19,0,0,0,5,0,4.51,4.51,0,0,0,.83-2.74,4.45,4.45,0,0,0-.83-2.75,3.19,3.19,0,0,0-5,0Z"/><path class="cls-1" d="M172.74,111v3h2.43v.94h-2.43v6.3a1.42,1.42,0,0,0,.22.88,1,1,0,0,0,.81.25h1.17v.94h-1.31a1.92,1.92,0,0,1-1.55-.56,2.25,2.25,0,0,1-.41-1.51v-6.3h-2V114h2v-2.56Z"/><path class="cls-1" d="M176.81,110.17h1.1v5.49a3.58,3.58,0,0,1,1.3-1.46,3.3,3.3,0,0,1,1.76-.49,3.25,3.25,0,0,1,2.48.94,3.76,3.76,0,0,1,.9,2.68v5.94h-1.08v-5.8a3.07,3.07,0,0,0-.68-2.11,2.57,2.57,0,0,0-1.93-.72,2.51,2.51,0,0,0-2,.94,3.36,3.36,0,0,0-.79,2.3v5.38h-1.1Z"/><path class="cls-1" d="M193.69,115.21a6.49,6.49,0,0,1,1.06,3.73H187.2a4.38,4.38,0,0,0,.92,2.68,2.93,2.93,0,0,0,2.3,1,3.12,3.12,0,0,0,2.05-.67,3.49,3.49,0,0,0,1-1.64h1.1a4.35,4.35,0,0,1-1.24,2.21,4.15,4.15,0,0,1-2.9,1,4,4,0,0,1-3.13-1.33,5.14,5.14,0,0,1-1.21-3.58,5.2,5.2,0,0,1,1.15-3.44,4.27,4.27,0,0,1,6.46,0Zm-5.51.4a4.09,4.09,0,0,0-1,2.45h6.41q-.27-3.4-3.22-3.4A2.78,2.78,0,0,0,188.19,115.6Z"/><path class="cls-1" d="M196.48,110.17h1.08v5.76a3.4,3.4,0,0,1,3.26-2.21,3.65,3.65,0,0,1,3.1,1.49,5.46,5.46,0,0,1,1,3.4,5.52,5.52,0,0,1-1,3.44,3.76,3.76,0,0,1-3.13,1.48,3.34,3.34,0,0,1-3.28-2.09v1.84h-1Zm1.87,5.58a4.41,4.41,0,0,0-.83,2.79v.22a4.42,4.42,0,0,0,.77,2.7,2.73,2.73,0,0,0,2.36,1.15,2.83,2.83,0,0,0,2.43-1.19,4.74,4.74,0,0,0,.76-2.81,4.58,4.58,0,0,0-.77-2.79,2.85,2.85,0,0,0-2.45-1.19A2.67,2.67,0,0,0,198.36,115.75Z"/><path class="cls-1" d="M207.19,110.17h1.08v13.1h-1.08Z"/><path class="cls-1" d="M218.25,115.19a5.75,5.75,0,0,1,0,6.86,4.41,4.41,0,0,1-6.59,0,5.22,5.22,0,0,1-1.13-3.42,5.15,5.15,0,0,1,1.15-3.44,4,4,0,0,1,3.28-1.48A4.09,4.09,0,0,1,218.25,115.19Zm-5.8.68a5,5,0,0,0,0,5.49,3.19,3.19,0,0,0,5,0,4.51,4.51,0,0,0,.83-2.74,4.45,4.45,0,0,0-.83-2.75,3.19,3.19,0,0,0-5,0Z"/><path class="cls-1" d="M227.93,114.52a3.53,3.53,0,0,1,1.28,2.48h-1.08a2.65,2.65,0,0,0-.94-1.76,3.12,3.12,0,0,0-2-.59,2.79,2.79,0,0,0-2.34,1.13,4.53,4.53,0,0,0-.85,2.9,4.57,4.57,0,0,0,.81,2.84,2.78,2.78,0,0,0,2.36,1.06,2.75,2.75,0,0,0,3-2.65h1.06a4.24,4.24,0,0,1-1.33,2.68,4,4,0,0,1-2.72.9,3.88,3.88,0,0,1-3.2-1.4,5.21,5.21,0,0,1-1.06-3.44,5.4,5.4,0,0,1,1.1-3.49,3.82,3.82,0,0,1,3.19-1.48A4.31,4.31,0,0,1,227.93,114.52Z"/><path class="cls-1" d="M231,110.17h1.08v8.5l5.17-4.7h1.48l-4.09,3.69,4.5,5.62h-1.42l-3.85-4.91L232.05,120v3.29H231Z"/><path class="cls-1" d="M246.88,114.52a3.53,3.53,0,0,1,1.28,2.48h-1.08a2.65,2.65,0,0,0-.94-1.76,3.12,3.12,0,0,0-2-.59,2.79,2.79,0,0,0-2.34,1.13,4.53,4.53,0,0,0-.85,2.9,4.57,4.57,0,0,0,.81,2.84,2.78,2.78,0,0,0,2.36,1.06,2.75,2.75,0,0,0,3-2.65h1.06a4.24,4.24,0,0,1-1.33,2.68,4,4,0,0,1-2.72.9,3.88,3.88,0,0,1-3.2-1.4,5.21,5.21,0,0,1-1.06-3.44,5.4,5.4,0,0,1,1.1-3.49,3.82,3.82,0,0,1,3.19-1.48A4.31,4.31,0,0,1,246.88,114.52Z"/><path class="cls-1" d="M249.92,110.17H251v5.49a3.58,3.58,0,0,1,1.3-1.46,3.3,3.3,0,0,1,1.76-.49,3.25,3.25,0,0,1,2.48.94,3.76,3.76,0,0,1,.9,2.68v5.94h-1.08v-5.8a3.07,3.07,0,0,0-.68-2.11,2.57,2.57,0,0,0-1.93-.72,2.51,2.51,0,0,0-2,.94,3.36,3.36,0,0,0-.79,2.3v5.38h-1.1Z"/><path class="cls-1" d="M266.58,114.77a3.6,3.6,0,0,1,.83,2.5v6h-1v-1.78a4.81,4.81,0,0,1-1.51,1.39,4.69,4.69,0,0,1-2.43.65,3.35,3.35,0,0,1-2.21-.7,2.4,2.4,0,0,1-.85-1.93,2.75,2.75,0,0,1,1.46-2.59,6.28,6.28,0,0,1,3.11-.67l2.38,0v-.34a2.36,2.36,0,0,0-2.7-2.65,3.2,3.2,0,0,0-1.94.52,2.21,2.21,0,0,0-1,1.62h-1.06a3.25,3.25,0,0,1,1.31-2.34,4.55,4.55,0,0,1,2.7-.72A3.67,3.67,0,0,1,266.58,114.77Zm-.25,3.73-2.32,0q-3.53,0-3.53,2.36a1.55,1.55,0,0,0,.59,1.26,2.39,2.39,0,0,0,1.58.49,3.87,3.87,0,0,0,2.59-1,2.76,2.76,0,0,0,1.08-2.07Z"/><path class="cls-1" d="M271.4,110.89a.76.76,0,0,1,.27.63.89.89,0,0,1-.29.65.94.94,0,0,1-.63.25.89.89,0,0,1-.92-.9.76.76,0,0,1,.27-.63.84.84,0,0,1,.65-.27A.88.88,0,0,1,271.4,110.89ZM270.21,114h1.08v9.31h-1.08Z"/><path class="cls-1" d="M281.66,117.55v5.72h-1.08v-5.65q0-3-2.65-3a2.46,2.46,0,0,0-1.87.81,3.28,3.28,0,0,0-.88,2.2v5.62H274.1V114h1.08v1.53a3.78,3.78,0,0,1,1.26-1.31,3.28,3.28,0,0,1,1.76-.47Q281.66,113.71,281.66,117.55Z"/><path class="cls-1" d="M288.88,114h1.21l2.52,7.92,2.34-7.92h1l2.34,7.92,2.54-7.92h1.19l-3.19,9.31h-1l-2.34-7.9-2.38,7.9h-1Z"/><path class="cls-1" d="M310.64,115.19a5.75,5.75,0,0,1,0,6.86,4.41,4.41,0,0,1-6.59,0,5.22,5.22,0,0,1-1.13-3.42,5.15,5.15,0,0,1,1.15-3.44,4,4,0,0,1,3.28-1.48A4.09,4.09,0,0,1,310.64,115.19Zm-5.8.68a5,5,0,0,0,0,5.49,3.19,3.19,0,0,0,5,0,4.51,4.51,0,0,0,.83-2.74,4.45,4.45,0,0,0-.83-2.75,3.19,3.19,0,0,0-5,0Z"/><path class="cls-1" d="M318.94,113.91V115a5,5,0,0,0-1.42-.2,2.3,2.3,0,0,0-2,1.12,4,4,0,0,0-.74,2.43v4.91h-1.08V114h1.08v1.78a3.41,3.41,0,0,1,1-1.39,2.68,2.68,0,0,1,1.8-.65A3.69,3.69,0,0,1,318.94,113.91Z"/><path class="cls-1" d="M320.5,110.17h1.08v13.1H320.5Z"/><path class="cls-1" d="M331.21,110.17h1.08v13.1h-1v-1.84a3.34,3.34,0,0,1-3.26,2.09,3.78,3.78,0,0,1-3.15-1.48,5.52,5.52,0,0,1-1-3.44,5.47,5.47,0,0,1,1-3.4,3.65,3.65,0,0,1,3.1-1.49,3.4,3.4,0,0,1,3.26,2.21Zm-5.51,5.65a4.48,4.48,0,0,0-.77,2.79,4.74,4.74,0,0,0,.76,2.81,2.8,2.8,0,0,0,2.43,1.19,2.76,2.76,0,0,0,2.36-1.15,4.52,4.52,0,0,0,.77-2.7v-.22a4.51,4.51,0,0,0-.83-2.79,2.7,2.7,0,0,0-2.27-1.12A2.85,2.85,0,0,0,325.7,115.82Z"/><path class="cls-1" d="M336.79,123a3.31,3.31,0,0,1-1.8,3.11l-.4-.63a2.83,2.83,0,0,0,1.39-2.2l-.27,0A1,1,0,0,1,335,123a.84.84,0,0,1-.25-.65.86.86,0,0,1,.23-.67.9.9,0,0,1,.67-.25Q336.79,121.47,336.79,123Z"/><path class="cls-1" d="M344.15,114h1.21l2.52,7.92,2.34-7.92h1l2.34,7.92,2.54-7.92h1.19l-3.19,9.31h-1l-2.34-7.9-2.38,7.9h-1Z"/><path class="cls-1" d="M360.28,110.89a.76.76,0,0,1,.27.63.89.89,0,0,1-.29.65.94.94,0,0,1-.63.25.89.89,0,0,1-.92-.9.76.76,0,0,1,.27-.63.84.84,0,0,1,.65-.27A.88.88,0,0,1,360.28,110.89ZM359.09,114h1.08v9.31h-1.08Z"/><path class="cls-1" d="M365.23,111v3h2.43v.94h-2.43v6.3a1.42,1.42,0,0,0,.22.88,1,1,0,0,0,.81.25h1.17v.94h-1.31a1.92,1.92,0,0,1-1.55-.56,2.25,2.25,0,0,1-.41-1.51v-6.3h-2V114h2v-2.56Z"/><path class="cls-1" d="M369.3,110.17h1.1v5.49a3.58,3.58,0,0,1,1.3-1.46,3.3,3.3,0,0,1,1.76-.49,3.25,3.25,0,0,1,2.48.94,3.76,3.76,0,0,1,.9,2.68v5.94h-1.08v-5.8a3.07,3.07,0,0,0-.68-2.11,2.57,2.57,0,0,0-1.93-.72,2.51,2.51,0,0,0-2,.94,3.36,3.36,0,0,0-.79,2.3v5.38h-1.1Z"/><path class="cls-1" d="M44.74,146h1.21l2.52,7.92L50.8,146h1l2.34,7.92L56.73,146h1.19l-3.19,9.31h-1l-2.34-7.9L49,155.27h-1Z"/><path class="cls-1" d="M59.14,142.17h1.1v5.49a3.58,3.58,0,0,1,1.3-1.46,3.3,3.3,0,0,1,1.76-.49,3.25,3.25,0,0,1,2.48.94,3.76,3.76,0,0,1,.9,2.68v5.94H65.6v-5.8a3.07,3.07,0,0,0-.68-2.11,2.57,2.57,0,0,0-1.93-.72,2.51,2.51,0,0,0-2,.94,3.36,3.36,0,0,0-.79,2.3v5.38h-1.1Z"/><path class="cls-1" d="M70.67,142.89a.76.76,0,0,1,.27.63.89.89,0,0,1-.29.65.94.94,0,0,1-.63.25.89.89,0,0,1-.92-.9.76.76,0,0,1,.27-.63.84.84,0,0,1,.65-.27A.88.88,0,0,1,70.67,142.89ZM69.49,146h1.08v9.31H69.49Z"/><path class="cls-1" d="M80,146.52A3.53,3.53,0,0,1,81.3,149H80.22a2.65,2.65,0,0,0-.94-1.76,3.12,3.12,0,0,0-2-.59A2.79,2.79,0,0,0,75,147.78a4.53,4.53,0,0,0-.85,2.9,4.57,4.57,0,0,0,.81,2.84,2.78,2.78,0,0,0,2.36,1.06,2.75,2.75,0,0,0,3-2.65h1.06A4.24,4.24,0,0,1,80,154.62a4,4,0,0,1-2.72.9,3.88,3.88,0,0,1-3.2-1.4A5.21,5.21,0,0,1,73,150.68a5.4,5.4,0,0,1,1.1-3.49,3.82,3.82,0,0,1,3.19-1.48A4.31,4.31,0,0,1,80,146.52Z"/><path class="cls-1" d="M83.06,142.17h1.1v5.49a3.58,3.58,0,0,1,1.3-1.46,3.3,3.3,0,0,1,1.76-.49,3.25,3.25,0,0,1,2.48.94,3.76,3.76,0,0,1,.9,2.68v5.94H89.52v-5.8a3.07,3.07,0,0,0-.68-2.11,2.57,2.57,0,0,0-1.93-.72,2.51,2.51,0,0,0-2,.94,3.36,3.36,0,0,0-.79,2.3v5.38h-1.1Z"/><path class="cls-1" d="M98.86,146h1.08v5.69a3.3,3.3,0,0,0,.61,2.18,2.49,2.49,0,0,0,2,.76,2.6,2.6,0,0,0,1.89-.83,3.29,3.29,0,0,0,.92-2.14V146h1.08v9.31h-1.08V153.7a3.41,3.41,0,0,1-3.1,1.82q-3.4,0-3.4-3.82Z"/><path class="cls-1" d="M115.58,148.57h-1.06a2.2,2.2,0,0,0-.77-1.42,3.7,3.7,0,0,0-3.56-.09,1.23,1.23,0,0,0,.18,2.25,12.62,12.62,0,0,0,2,.65,9.37,9.37,0,0,1,2.41.86,2.1,2.1,0,0,1,1.12,1.87q0,2.83-3.78,2.83-3.58,0-3.91-3.19h1.06a2.53,2.53,0,0,0,.86,1.76,3.23,3.23,0,0,0,1.94.49q2.7,0,2.7-1.84a1.41,1.41,0,0,0-.92-1.3,12.32,12.32,0,0,0-2.07-.65,9,9,0,0,1-2.27-.83,2,2,0,0,1-1.06-1.78,2.1,2.1,0,0,1,1-1.82,4.19,4.19,0,0,1,2.45-.67Q115.19,145.71,115.58,148.57Z"/><path class="cls-1" d="M124.66,147.21a6.49,6.49,0,0,1,1.06,3.73h-7.56a4.38,4.38,0,0,0,.92,2.68,2.93,2.93,0,0,0,2.3,1,3.12,3.12,0,0,0,2.05-.67,3.49,3.49,0,0,0,1-1.64h1.1a4.35,4.35,0,0,1-1.24,2.21,4.15,4.15,0,0,1-2.9,1,4,4,0,0,1-3.13-1.33,5.14,5.14,0,0,1-1.21-3.58,5.2,5.2,0,0,1,1.15-3.44,4.27,4.27,0,0,1,6.46,0Zm-5.51.4a4.09,4.09,0,0,0-1,2.45h6.41q-.27-3.4-3.22-3.4A2.78,2.78,0,0,0,119.15,147.6Z"/><path class="cls-1" d="M132.7,145.91V147a5,5,0,0,0-1.42-.2,2.3,2.3,0,0,0-2,1.12,4,4,0,0,0-.74,2.43v4.91h-1.08V146h1.08v1.78a3.41,3.41,0,0,1,1-1.39,2.68,2.68,0,0,1,1.8-.65A3.69,3.69,0,0,1,132.7,145.91Z"/><path class="cls-1" d="M140.8,148.57h-1.06a2.2,2.2,0,0,0-.77-1.42,3.7,3.7,0,0,0-3.56-.09,1.23,1.23,0,0,0,.18,2.25,12.62,12.62,0,0,0,2,.65,9.37,9.37,0,0,1,2.41.86,2.1,2.1,0,0,1,1.12,1.87q0,2.83-3.78,2.83-3.58,0-3.91-3.19h1.06a2.53,2.53,0,0,0,.86,1.76,3.23,3.23,0,0,0,1.94.49q2.7,0,2.7-1.84a1.41,1.41,0,0,0-.92-1.3,12.32,12.32,0,0,0-2.07-.65,9,9,0,0,1-2.27-.83,2,2,0,0,1-1.06-1.78,2.1,2.1,0,0,1,1-1.82,4.19,4.19,0,0,1,2.45-.67Q140.41,145.71,140.8,148.57Z"/><path class="cls-1" d="M155.44,146.52a3.53,3.53,0,0,1,1.28,2.48h-1.08a2.65,2.65,0,0,0-.94-1.76,3.12,3.12,0,0,0-2-.59,2.79,2.79,0,0,0-2.34,1.13,4.53,4.53,0,0,0-.85,2.9,4.57,4.57,0,0,0,.81,2.84,2.78,2.78,0,0,0,2.36,1.06,2.75,2.75,0,0,0,3-2.65h1.06a4.24,4.24,0,0,1-1.33,2.68,4,4,0,0,1-2.72.9,3.88,3.88,0,0,1-3.2-1.4,5.21,5.21,0,0,1-1.06-3.44,5.4,5.4,0,0,1,1.1-3.49,3.82,3.82,0,0,1,3.19-1.48A4.31,4.31,0,0,1,155.44,146.52Z"/><path class="cls-1" d="M165.84,147.19a5.75,5.75,0,0,1,0,6.86,4.41,4.41,0,0,1-6.59,0,5.22,5.22,0,0,1-1.13-3.42,5.15,5.15,0,0,1,1.15-3.44,4,4,0,0,1,3.28-1.48A4.09,4.09,0,0,1,165.84,147.19Zm-5.8.68a5,5,0,0,0,0,5.49,3.19,3.19,0,0,0,5,0,4.51,4.51,0,0,0,.83-2.74,4.45,4.45,0,0,0-.83-2.75,3.19,3.19,0,0,0-5,0Z"/><path class="cls-1" d="M168.88,146H170v5.69a3.3,3.3,0,0,0,.61,2.18,2.49,2.49,0,0,0,2,.76,2.6,2.6,0,0,0,1.89-.83,3.29,3.29,0,0,0,.92-2.14V146h1.08v9.31h-1.08V153.7a3.41,3.41,0,0,1-3.1,1.82q-3.4,0-3.4-3.82Z"/><path class="cls-1" d="M179.07,142.17h1.08v13.1h-1.08Z"/><path class="cls-1" d="M189.78,142.17h1.08v13.1h-1v-1.84a3.34,3.34,0,0,1-3.26,2.09,3.78,3.78,0,0,1-3.15-1.48,5.52,5.52,0,0,1-1-3.44,5.47,5.47,0,0,1,1-3.4,3.65,3.65,0,0,1,3.1-1.49,3.4,3.4,0,0,1,3.26,2.21Zm-5.51,5.65a4.48,4.48,0,0,0-.77,2.79,4.74,4.74,0,0,0,.76,2.81,2.8,2.8,0,0,0,2.43,1.19,2.76,2.76,0,0,0,2.36-1.15,4.52,4.52,0,0,0,.77-2.7v-.22a4.51,4.51,0,0,0-.83-2.79,2.7,2.7,0,0,0-2.27-1.12A2.85,2.85,0,0,0,184.27,147.82Z"/><path class="cls-1" d="M206,148.57h-1.06a2.2,2.2,0,0,0-.77-1.42,3.7,3.7,0,0,0-3.56-.09,1.23,1.23,0,0,0,.18,2.25,12.62,12.62,0,0,0,2,.65,9.37,9.37,0,0,1,2.41.86,2.1,2.1,0,0,1,1.12,1.87q0,2.83-3.78,2.83-3.58,0-3.91-3.19h1.06a2.53,2.53,0,0,0,.86,1.76,3.23,3.23,0,0,0,1.94.49q2.7,0,2.7-1.84a1.41,1.41,0,0,0-.92-1.3,12.32,12.32,0,0,0-2.07-.65,9,9,0,0,1-2.27-.83,2,2,0,0,1-1.06-1.78,2.1,2.1,0,0,1,1-1.82,4.19,4.19,0,0,1,2.45-.67Q205.6,145.71,206,148.57Z"/><path class="cls-1" d="M209.72,142.89a.76.76,0,0,1,.27.63.89.89,0,0,1-.29.65.94.94,0,0,1-.63.25.89.89,0,0,1-.92-.9.76.76,0,0,1,.27-.63.84.84,0,0,1,.65-.27A.88.88,0,0,1,209.72,142.89ZM208.53,146h1.08v9.31h-1.08Z"/><path class="cls-1" d="M219.59,147.84V146h1.08v8.62q0,4.5-4.18,4.5a4.47,4.47,0,0,1-2.83-.79,3.39,3.39,0,0,1-1.19-2.23h1.08a2.41,2.41,0,0,0,.86,1.55,3.25,3.25,0,0,0,2.07.58q3.1,0,3.1-3.47v-1.78a3.46,3.46,0,0,1-3.33,2.12,3.87,3.87,0,0,1-3.11-1.39,5.51,5.51,0,0,1,0-6.55,3.85,3.85,0,0,1,3.11-1.4A3.46,3.46,0,0,1,219.59,147.84Zm-5.6-.09a4,4,0,0,0-.83,2.65,4.13,4.13,0,0,0,.77,2.59,2.85,2.85,0,0,0,2.43,1.13,2.92,2.92,0,0,0,2.41-1.08,4.73,4.73,0,0,0,0-5.29,3.12,3.12,0,0,0-4.79,0Z"/><path class="cls-1" d="M230.49,149.55v5.72h-1.08v-5.65q0-3-2.65-3a2.46,2.46,0,0,0-1.87.81,3.28,3.28,0,0,0-.88,2.2v5.62h-1.08V146H224v1.53a3.78,3.78,0,0,1,1.26-1.31,3.28,3.28,0,0,1,1.76-.47Q230.49,145.71,230.49,149.55Z"/><path class="cls-1" d="M238.76,146h1.08v5.69a3.3,3.3,0,0,0,.61,2.18,2.49,2.49,0,0,0,2,.76,2.6,2.6,0,0,0,1.89-.83,3.29,3.29,0,0,0,.92-2.14V146h1.08v9.31h-1.08V153.7a3.41,3.41,0,0,1-3.1,1.82q-3.4,0-3.4-3.82Z"/><path class="cls-1" d="M256,147.21a6.26,6.26,0,0,1,0,6.84,3.74,3.74,0,0,1-3.11,1.48,3.4,3.4,0,0,1-3.26-2.2v5.51H248.6V146h1v1.84a3.42,3.42,0,0,1,3.28-2.09A3.74,3.74,0,0,1,256,147.21Zm-5.62.61a4.51,4.51,0,0,0-.77,2.75v.2a4.35,4.35,0,0,0,.83,2.75,2.73,2.73,0,0,0,2.27,1.08,2.91,2.91,0,0,0,2.45-1.15,4.74,4.74,0,0,0,.76-2.81,4.84,4.84,0,0,0-.74-2.81,2.82,2.82,0,0,0-2.43-1.21A2.73,2.73,0,0,0,250.42,147.82Z"/><path class="cls-1" d="M267.21,143v3h2.43v.94h-2.43v6.3a1.42,1.42,0,0,0,.22.88,1,1,0,0,0,.81.25h1.17v.94H268.1a1.92,1.92,0,0,1-1.55-.56,2.25,2.25,0,0,1-.41-1.51v-6.3h-2V146h2v-2.56Z"/><path class="cls-1" d="M271.28,142.17h1.1v5.49a3.58,3.58,0,0,1,1.3-1.46,3.3,3.3,0,0,1,1.76-.49,3.25,3.25,0,0,1,2.48.94,3.76,3.76,0,0,1,.9,2.68v5.94h-1.08v-5.8a3.07,3.07,0,0,0-.68-2.11,2.57,2.57,0,0,0-1.93-.72,2.51,2.51,0,0,0-2,.94,3.36,3.36,0,0,0-.79,2.3v5.38h-1.1Z"/><path class="cls-1" d="M288.17,147.21a6.49,6.49,0,0,1,1.06,3.73h-7.56a4.38,4.38,0,0,0,.92,2.68,2.93,2.93,0,0,0,2.3,1,3.12,3.12,0,0,0,2.05-.67,3.49,3.49,0,0,0,1-1.64H289a4.35,4.35,0,0,1-1.24,2.21,4.15,4.15,0,0,1-2.9,1,4,4,0,0,1-3.13-1.33,5.14,5.14,0,0,1-1.21-3.58,5.2,5.2,0,0,1,1.15-3.44,4.27,4.27,0,0,1,6.46,0Zm-5.51.4a4.09,4.09,0,0,0-1,2.45h6.41q-.27-3.4-3.22-3.4A2.78,2.78,0,0,0,282.66,147.6Z"/><path class="cls-1" d="M304.38,147.21a6.26,6.26,0,0,1,0,6.84,3.74,3.74,0,0,1-3.11,1.48,3.4,3.4,0,0,1-3.26-2.2v5.51h-1.08V146h1v1.84a3.42,3.42,0,0,1,3.28-2.09A3.74,3.74,0,0,1,304.38,147.21Zm-5.62.61a4.51,4.51,0,0,0-.77,2.75v.2a4.35,4.35,0,0,0,.83,2.75,2.73,2.73,0,0,0,2.27,1.08,2.91,2.91,0,0,0,2.45-1.15,4.74,4.74,0,0,0,.76-2.81,4.84,4.84,0,0,0-.74-2.81,2.82,2.82,0,0,0-2.43-1.21A2.73,2.73,0,0,0,298.77,147.82Z"/><path class="cls-1" d="M312.57,145.91V147a5,5,0,0,0-1.42-.2,2.3,2.3,0,0,0-2,1.12,4,4,0,0,0-.74,2.43v4.91h-1.08V146h1.08v1.78a3.41,3.41,0,0,1,1-1.39,2.68,2.68,0,0,1,1.8-.65A3.69,3.69,0,0,1,312.57,145.91Z"/><path class="cls-1" d="M321.16,147.19a5.75,5.75,0,0,1,0,6.86,4.41,4.41,0,0,1-6.59,0,5.22,5.22,0,0,1-1.13-3.42,5.15,5.15,0,0,1,1.15-3.44,4,4,0,0,1,3.28-1.48A4.09,4.09,0,0,1,321.16,147.19Zm-5.8.68a5,5,0,0,0,0,5.49,3.19,3.19,0,0,0,5,0,4.51,4.51,0,0,0,.83-2.74,4.45,4.45,0,0,0-.83-2.75,3.19,3.19,0,0,0-5,0Z"/><path class="cls-1" d="M326.45,143v3h2.43v.94h-2.43v6.3a1.42,1.42,0,0,0,.22.88,1,1,0,0,0,.81.25h1.17v.94h-1.31a1.92,1.92,0,0,1-1.55-.56,2.25,2.25,0,0,1-.41-1.51v-6.3h-2V146h2v-2.56Z"/><path class="cls-1" d="M337.88,147.19a5.75,5.75,0,0,1,0,6.86,4.41,4.41,0,0,1-6.59,0,5.22,5.22,0,0,1-1.13-3.42,5.15,5.15,0,0,1,1.15-3.44,4,4,0,0,1,3.28-1.48A4.09,4.09,0,0,1,337.88,147.19Zm-5.8.68a5,5,0,0,0,0,5.49,3.19,3.19,0,0,0,5,0,4.51,4.51,0,0,0,.83-2.74,4.45,4.45,0,0,0-.83-2.75,3.19,3.19,0,0,0-5,0Z"/><path class="cls-1" d="M347.56,146.52a3.53,3.53,0,0,1,1.28,2.48h-1.08a2.65,2.65,0,0,0-.94-1.76,3.12,3.12,0,0,0-2-.59,2.79,2.79,0,0,0-2.34,1.13,4.53,4.53,0,0,0-.85,2.9,4.57,4.57,0,0,0,.81,2.84,2.78,2.78,0,0,0,2.36,1.06,2.75,2.75,0,0,0,3-2.65h1.06a4.24,4.24,0,0,1-1.33,2.68,4,4,0,0,1-2.72.9,3.88,3.88,0,0,1-3.2-1.4,5.21,5.21,0,0,1-1.06-3.44,5.4,5.4,0,0,1,1.1-3.49,3.82,3.82,0,0,1,3.19-1.48A4.31,4.31,0,0,1,347.56,146.52Z"/><path class="cls-1" d="M358,147.19a5.75,5.75,0,0,1,0,6.86,4.41,4.41,0,0,1-6.59,0,5.22,5.22,0,0,1-1.13-3.42,5.15,5.15,0,0,1,1.15-3.44,4,4,0,0,1,3.28-1.48A4.09,4.09,0,0,1,358,147.19Zm-5.8.68a5,5,0,0,0,0,5.49,3.19,3.19,0,0,0,5,0,4.51,4.51,0,0,0,.83-2.74,4.45,4.45,0,0,0-.83-2.75,3.19,3.19,0,0,0-5,0Z"/><path class="cls-1" d="M361.35,142.17h1.08v13.1h-1.08Z"/><path class="cls-1" d="M371.92,148.57h-1.06a2.2,2.2,0,0,0-.77-1.42,3.7,3.7,0,0,0-3.56-.09,1.23,1.23,0,0,0,.18,2.25,12.62,12.62,0,0,0,2,.65,9.37,9.37,0,0,1,2.41.86,2.1,2.1,0,0,1,1.12,1.87q0,2.83-3.78,2.83-3.58,0-3.91-3.19h1.06a2.53,2.53,0,0,0,.86,1.76,3.23,3.23,0,0,0,1.94.49q2.7,0,2.7-1.84a1.41,1.41,0,0,0-.92-1.3,12.32,12.32,0,0,0-2.07-.65,9,9,0,0,1-2.27-.83,2,2,0,0,1-1.06-1.78,2.1,2.1,0,0,1,1-1.82,4.19,4.19,0,0,1,2.45-.67Q371.52,145.71,371.92,148.57Z"/><path class="cls-1" d="M376.15,155a3.31,3.31,0,0,1-1.8,3.11l-.4-.63a2.83,2.83,0,0,0,1.39-2.2l-.27,0a1,1,0,0,1-.67-.23.84.84,0,0,1-.25-.65.86.86,0,0,1,.23-.67.9.9,0,0,1,.67-.25Q376.15,153.47,376.15,155Z"/><path class="cls-1" d="M43.06,179.21a6.26,6.26,0,0,1,0,6.84A3.74,3.74,0,0,1,40,187.52a3.4,3.4,0,0,1-3.26-2.2v5.51H35.63V178h1v1.84a3.42,3.42,0,0,1,3.28-2.09A3.74,3.74,0,0,1,43.06,179.21Zm-5.62.61a4.51,4.51,0,0,0-.77,2.75v.2a4.35,4.35,0,0,0,.83,2.75,2.73,2.73,0,0,0,2.27,1.08,2.91,2.91,0,0,0,2.45-1.15,4.74,4.74,0,0,0,.76-2.81,4.84,4.84,0,0,0-.74-2.81,2.82,2.82,0,0,0-2.43-1.21A2.73,2.73,0,0,0,37.45,179.82Z"/><path class="cls-1" d="M51.25,177.91V179a5,5,0,0,0-1.42-.2,2.3,2.3,0,0,0-2,1.12,4,4,0,0,0-.74,2.43v4.91H46V178h1.08v1.78a3.41,3.41,0,0,1,1-1.39,2.68,2.68,0,0,1,1.8-.65A3.69,3.69,0,0,1,51.25,177.91Z"/><path class="cls-1" d="M59.84,179.19a5.75,5.75,0,0,1,0,6.86,4.41,4.41,0,0,1-6.59,0,5.22,5.22,0,0,1-1.13-3.42,5.15,5.15,0,0,1,1.15-3.44,4,4,0,0,1,3.28-1.48A4.09,4.09,0,0,1,59.84,179.19Zm-5.8.68a5,5,0,0,0,0,5.49,3.19,3.19,0,0,0,5,0,4.51,4.51,0,0,0,.83-2.74,4.45,4.45,0,0,0-.83-2.75,3.19,3.19,0,0,0-5,0Z"/><path class="cls-1" d="M65.13,175v3h2.43v.94H65.13v6.3a1.42,1.42,0,0,0,.22.88,1,1,0,0,0,.81.25h1.17v.94H66a1.92,1.92,0,0,1-1.55-.56,2.25,2.25,0,0,1-.41-1.51v-6.3h-2V178h2v-2.56Z"/><path class="cls-1" d="M76.27,179.21a6.49,6.49,0,0,1,1.06,3.73H69.78a4.38,4.38,0,0,0,.92,2.68,2.93,2.93,0,0,0,2.3,1,3.12,3.12,0,0,0,2.05-.67,3.49,3.49,0,0,0,1-1.64h1.1a4.35,4.35,0,0,1-1.24,2.21,4.15,4.15,0,0,1-2.9,1,4,4,0,0,1-3.13-1.33,5.14,5.14,0,0,1-1.21-3.58,5.2,5.2,0,0,1,1.15-3.44,4.27,4.27,0,0,1,6.46,0Zm-5.51.4a4.09,4.09,0,0,0-1,2.45H76.2q-.27-3.4-3.22-3.4A2.78,2.78,0,0,0,70.77,179.6Z"/><path class="cls-1" d="M85.7,178.52A3.53,3.53,0,0,1,87,181H85.9a2.65,2.65,0,0,0-.94-1.76,3.12,3.12,0,0,0-2-.59,2.79,2.79,0,0,0-2.34,1.13,4.53,4.53,0,0,0-.85,2.9,4.57,4.57,0,0,0,.81,2.84A2.78,2.78,0,0,0,83,186.59a2.75,2.75,0,0,0,3-2.65H87a4.24,4.24,0,0,1-1.33,2.68,4,4,0,0,1-2.72.9,3.88,3.88,0,0,1-3.2-1.4,5.21,5.21,0,0,1-1.06-3.44,5.4,5.4,0,0,1,1.1-3.49A3.82,3.82,0,0,1,83,177.71,4.31,4.31,0,0,1,85.7,178.52Z"/><path class="cls-1" d="M91,175v3h2.43v.94H91v6.3a1.42,1.42,0,0,0,.22.88,1,1,0,0,0,.81.25h1.17v.94H91.88a1.92,1.92,0,0,1-1.55-.56,2.25,2.25,0,0,1-.41-1.51v-6.3h-2V178h2v-2.56Z"/><path class="cls-1" d="M107.7,178.52A3.53,3.53,0,0,1,109,181H107.9a2.65,2.65,0,0,0-.94-1.76,3.12,3.12,0,0,0-2-.59,2.79,2.79,0,0,0-2.34,1.13,4.53,4.53,0,0,0-.85,2.9,4.57,4.57,0,0,0,.81,2.84,2.78,2.78,0,0,0,2.36,1.06,2.75,2.75,0,0,0,3-2.65H109a4.24,4.24,0,0,1-1.33,2.68,4,4,0,0,1-2.72.9,3.88,3.88,0,0,1-3.2-1.4,5.21,5.21,0,0,1-1.06-3.44,5.4,5.4,0,0,1,1.1-3.49,3.82,3.82,0,0,1,3.19-1.48A4.31,4.31,0,0,1,107.7,178.52Z"/><path class="cls-1" d="M118.1,179.19a5.75,5.75,0,0,1,0,6.86,4.41,4.41,0,0,1-6.59,0,5.22,5.22,0,0,1-1.13-3.42,5.15,5.15,0,0,1,1.15-3.44,4,4,0,0,1,3.28-1.48A4.09,4.09,0,0,1,118.1,179.19Zm-5.8.68a5,5,0,0,0,0,5.49,3.19,3.19,0,0,0,5,0,4.51,4.51,0,0,0,.83-2.74,4.45,4.45,0,0,0-.83-2.75,3.19,3.19,0,0,0-5,0Z"/><path class="cls-1" d="M128.58,179.21a6.26,6.26,0,0,1,0,6.84,3.74,3.74,0,0,1-3.11,1.48,3.4,3.4,0,0,1-3.26-2.2v5.51h-1.08V178h1v1.84a3.42,3.42,0,0,1,3.28-2.09A3.74,3.74,0,0,1,128.58,179.21Zm-5.62.61a4.51,4.51,0,0,0-.77,2.75v.2a4.35,4.35,0,0,0,.83,2.75,2.73,2.73,0,0,0,2.27,1.08,2.91,2.91,0,0,0,2.45-1.15,4.74,4.74,0,0,0,.76-2.81,4.84,4.84,0,0,0-.74-2.81,2.82,2.82,0,0,0-2.43-1.21A2.73,2.73,0,0,0,123,179.82Z"/><path class="cls-1" d="M130.47,178h1.19l3,7.76,3-7.76h1.19l-5.13,12.87h-1.17l1.57-3.8Z"/><path class="cls-1" d="M145.37,177.91V179a5,5,0,0,0-1.42-.2,2.3,2.3,0,0,0-2,1.12,4,4,0,0,0-.74,2.43v4.91h-1.08V178h1.08v1.78a3.41,3.41,0,0,1,1-1.39,2.68,2.68,0,0,1,1.8-.65A3.69,3.69,0,0,1,145.37,177.91Z"/><path class="cls-1" d="M148.33,174.89a.76.76,0,0,1,.27.63.89.89,0,0,1-.29.65.94.94,0,0,1-.63.25.89.89,0,0,1-.92-.9.76.76,0,0,1,.27-.63.84.84,0,0,1,.65-.27A.88.88,0,0,1,148.33,174.89ZM147.14,178h1.08v9.31h-1.08Z"/><path class="cls-1" d="M158.19,179.84V178h1.08v8.62q0,4.5-4.18,4.5a4.47,4.47,0,0,1-2.83-.79,3.39,3.39,0,0,1-1.19-2.23h1.08a2.41,2.41,0,0,0,.86,1.55,3.25,3.25,0,0,0,2.07.58q3.1,0,3.1-3.47v-1.78a3.46,3.46,0,0,1-3.33,2.12,3.87,3.87,0,0,1-3.11-1.39,5.51,5.51,0,0,1,0-6.55,3.85,3.85,0,0,1,3.11-1.4A3.46,3.46,0,0,1,158.19,179.84Zm-5.6-.09a4,4,0,0,0-.83,2.65,4.13,4.13,0,0,0,.77,2.59,2.85,2.85,0,0,0,2.43,1.13,2.92,2.92,0,0,0,2.41-1.08,4.73,4.73,0,0,0,0-5.29,3.12,3.12,0,0,0-4.79,0Z"/><path class="cls-1" d="M161.54,174.17h1.1v5.49a3.58,3.58,0,0,1,1.3-1.46,3.3,3.3,0,0,1,1.76-.49,3.25,3.25,0,0,1,2.48.94,3.76,3.76,0,0,1,.9,2.68v5.94H168v-5.8a3.07,3.07,0,0,0-.68-2.11,2.57,2.57,0,0,0-1.93-.72,2.51,2.51,0,0,0-2,.94,3.36,3.36,0,0,0-.79,2.3v5.38h-1.1Z"/><path class="cls-1" d="M173.6,175v3H176v.94H173.6v6.3a1.42,1.42,0,0,0,.22.88,1,1,0,0,0,.81.25h1.17v.94h-1.31a1.92,1.92,0,0,1-1.55-.56,2.25,2.25,0,0,1-.41-1.51v-6.3h-2V178h2v-2.56Z"/><path class="cls-1" d="M179.9,187a3.31,3.31,0,0,1-1.8,3.11l-.4-.63a2.83,2.83,0,0,0,1.39-2.2l-.27,0a1,1,0,0,1-.67-.23.84.84,0,0,1-.25-.65.86.86,0,0,1,.23-.67.9.9,0,0,1,.67-.25Q179.9,185.47,179.9,187Z"/><path class="cls-1" d="M195.74,179.21a6.26,6.26,0,0,1,0,6.84,3.74,3.74,0,0,1-3.11,1.48,3.4,3.4,0,0,1-3.26-2.2v5.51H188.3V178h1v1.84a3.42,3.42,0,0,1,3.28-2.09A3.74,3.74,0,0,1,195.74,179.21Zm-5.62.61a4.51,4.51,0,0,0-.77,2.75v.2a4.35,4.35,0,0,0,.83,2.75,2.73,2.73,0,0,0,2.27,1.08,2.91,2.91,0,0,0,2.45-1.15,4.74,4.74,0,0,0,.76-2.81,4.84,4.84,0,0,0-.74-2.81,2.82,2.82,0,0,0-2.43-1.21A2.73,2.73,0,0,0,190.12,179.82Z"/><path class="cls-1" d="M205.51,178.77a3.6,3.6,0,0,1,.83,2.5v6h-1v-1.78a4.81,4.81,0,0,1-1.51,1.39,4.69,4.69,0,0,1-2.43.65,3.35,3.35,0,0,1-2.21-.7,2.4,2.4,0,0,1-.85-1.93,2.75,2.75,0,0,1,1.46-2.59,6.28,6.28,0,0,1,3.11-.67l2.38,0v-.34a2.36,2.36,0,0,0-2.7-2.65,3.2,3.2,0,0,0-1.94.52,2.21,2.21,0,0,0-1,1.62H198.6a3.25,3.25,0,0,1,1.31-2.34,4.55,4.55,0,0,1,2.7-.72A3.67,3.67,0,0,1,205.51,178.77Zm-.25,3.73-2.32,0q-3.53,0-3.53,2.36a1.55,1.55,0,0,0,.59,1.26,2.39,2.39,0,0,0,1.58.49,3.87,3.87,0,0,0,2.59-1,2.76,2.76,0,0,0,1.08-2.07Z"/><path class="cls-1" d="M213.86,177.91V179a5,5,0,0,0-1.42-.2,2.3,2.3,0,0,0-2,1.12,4,4,0,0,0-.74,2.43v4.91h-1.08V178h1.08v1.78a3.41,3.41,0,0,1,1-1.39,2.68,2.68,0,0,1,1.8-.65A3.69,3.69,0,0,1,213.86,177.91Z"/><path class="cls-1" d="M217.34,175v3h2.43v.94h-2.43v6.3a1.42,1.42,0,0,0,.22.88,1,1,0,0,0,.81.25h1.17v.94h-1.31a1.92,1.92,0,0,1-1.55-.56,2.25,2.25,0,0,1-.41-1.51v-6.3h-2V178h2v-2.56Z"/><path class="cls-1" d="M223.13,174.89a.76.76,0,0,1,.27.63.89.89,0,0,1-.29.65.94.94,0,0,1-.63.25.89.89,0,0,1-.92-.9.76.76,0,0,1,.27-.63.84.84,0,0,1,.65-.27A.88.88,0,0,1,223.13,174.89ZM221.94,178H223v9.31h-1.08Z"/><path class="cls-1" d="M232.47,178.52a3.53,3.53,0,0,1,1.28,2.48h-1.08a2.65,2.65,0,0,0-.94-1.76,3.12,3.12,0,0,0-2-.59,2.79,2.79,0,0,0-2.34,1.13,4.53,4.53,0,0,0-.85,2.9,4.57,4.57,0,0,0,.81,2.84,2.78,2.78,0,0,0,2.36,1.06,2.75,2.75,0,0,0,3-2.65h1.06a4.24,4.24,0,0,1-1.33,2.68,4,4,0,0,1-2.72.9,3.88,3.88,0,0,1-3.2-1.4,5.21,5.21,0,0,1-1.06-3.44,5.4,5.4,0,0,1,1.1-3.49,3.82,3.82,0,0,1,3.19-1.48A4.31,4.31,0,0,1,232.47,178.52Z"/><path class="cls-1" d="M237.24,174.89a.76.76,0,0,1,.27.63.89.89,0,0,1-.29.65.94.94,0,0,1-.63.25.89.89,0,0,1-.92-.9.76.76,0,0,1,.27-.63.84.84,0,0,1,.65-.27A.88.88,0,0,1,237.24,174.89ZM236.06,178h1.08v9.31h-1.08Z"/><path class="cls-1" d="M247.38,179.21a6.26,6.26,0,0,1,0,6.84,3.74,3.74,0,0,1-3.11,1.48,3.4,3.4,0,0,1-3.26-2.2v5.51h-1.08V178h1v1.84a3.42,3.42,0,0,1,3.28-2.09A3.74,3.74,0,0,1,247.38,179.21Zm-5.62.61a4.51,4.51,0,0,0-.77,2.75v.2a4.35,4.35,0,0,0,.83,2.75,2.73,2.73,0,0,0,2.27,1.08,2.91,2.91,0,0,0,2.45-1.15,4.74,4.74,0,0,0,.76-2.81,4.84,4.84,0,0,0-.74-2.81,2.82,2.82,0,0,0-2.43-1.21A2.73,2.73,0,0,0,241.76,179.82Z"/><path class="cls-1" d="M257.15,178.77a3.6,3.6,0,0,1,.83,2.5v6h-1v-1.78a4.81,4.81,0,0,1-1.51,1.39,4.69,4.69,0,0,1-2.43.65,3.35,3.35,0,0,1-2.21-.7,2.4,2.4,0,0,1-.85-1.93,2.75,2.75,0,0,1,1.46-2.59,6.28,6.28,0,0,1,3.11-.67l2.38,0v-.34a2.36,2.36,0,0,0-2.7-2.65,3.2,3.2,0,0,0-1.94.52,2.21,2.21,0,0,0-1,1.62h-1.06a3.25,3.25,0,0,1,1.31-2.34,4.55,4.55,0,0,1,2.7-.72A3.67,3.67,0,0,1,257.15,178.77Zm-.25,3.73-2.32,0q-3.53,0-3.53,2.36a1.55,1.55,0,0,0,.59,1.26,2.39,2.39,0,0,0,1.58.49,3.87,3.87,0,0,0,2.59-1,2.76,2.76,0,0,0,1.08-2.07Z"/><path class="cls-1" d="M262.5,175v3h2.43v.94H262.5v6.3a1.42,1.42,0,0,0,.22.88,1,1,0,0,0,.81.25h1.17v.94h-1.31a1.92,1.92,0,0,1-1.55-.56,2.25,2.25,0,0,1-.41-1.51v-6.3h-2V178h2v-2.56Z"/><path class="cls-1" d="M273.64,179.21a6.49,6.49,0,0,1,1.06,3.73h-7.56a4.38,4.38,0,0,0,.92,2.68,2.93,2.93,0,0,0,2.3,1,3.12,3.12,0,0,0,2.05-.67,3.49,3.49,0,0,0,1-1.64h1.1a4.35,4.35,0,0,1-1.24,2.21,4.15,4.15,0,0,1-2.9,1,4,4,0,0,1-3.13-1.33,5.14,5.14,0,0,1-1.21-3.58,5.2,5.2,0,0,1,1.15-3.44,4.27,4.27,0,0,1,6.46,0Zm-5.51.4a4.09,4.09,0,0,0-1,2.45h6.41q-.27-3.4-3.22-3.4A2.78,2.78,0,0,0,268.13,179.6Z"/><path class="cls-1" d="M284.15,174.89a.76.76,0,0,1,.27.63.89.89,0,0,1-.29.65.94.94,0,0,1-.63.25.89.89,0,0,1-.92-.9.76.76,0,0,1,.27-.63.84.84,0,0,1,.65-.27A.88.88,0,0,1,284.15,174.89ZM283,178H284v9.31H283Z"/><path class="cls-1" d="M294.41,181.55v5.72h-1.08v-5.65q0-3-2.65-3a2.46,2.46,0,0,0-1.87.81,3.28,3.28,0,0,0-.88,2.2v5.62h-1.08V178h1.08v1.53a3.78,3.78,0,0,1,1.26-1.31,3.28,3.28,0,0,1,1.76-.47Q294.41,177.71,294.41,181.55Z"/><path class="cls-1" d="M301.63,178h1.19l2.93,7.94,2.92-7.94h1.21l-3.56,9.31h-1.12Z"/><path class="cls-1" d="M318.46,179.19a5.75,5.75,0,0,1,0,6.86,4.41,4.41,0,0,1-6.59,0,5.22,5.22,0,0,1-1.13-3.42,5.15,5.15,0,0,1,1.15-3.44,4,4,0,0,1,3.28-1.48A4.09,4.09,0,0,1,318.46,179.19Zm-5.8.68a5,5,0,0,0,0,5.49,3.19,3.19,0,0,0,5,0,4.51,4.51,0,0,0,.83-2.74,4.45,4.45,0,0,0-.83-2.75,3.19,3.19,0,0,0-5,0Z"/><path class="cls-1" d="M323.75,175v3h2.43v.94h-2.43v6.3a1.42,1.42,0,0,0,.22.88,1,1,0,0,0,.81.25h1.17v.94h-1.31a1.92,1.92,0,0,1-1.55-.56,2.25,2.25,0,0,1-.41-1.51v-6.3h-2V178h2v-2.56Z"/><path class="cls-1" d="M329.55,174.89a.76.76,0,0,1,.27.63.89.89,0,0,1-.29.65.94.94,0,0,1-.63.25.89.89,0,0,1-.92-.9.76.76,0,0,1,.27-.63.84.84,0,0,1,.65-.27A.88.88,0,0,1,329.55,174.89ZM328.36,178h1.08v9.31h-1.08Z"/><path class="cls-1" d="M339.81,181.55v5.72h-1.08v-5.65q0-3-2.65-3a2.46,2.46,0,0,0-1.87.81,3.28,3.28,0,0,0-.88,2.2v5.62h-1.08V178h1.08v1.53a3.78,3.78,0,0,1,1.26-1.31,3.28,3.28,0,0,1,1.76-.47Q339.81,177.71,339.81,181.55Z"/><path class="cls-1" d="M349.24,179.84V178h1.08v8.62q0,4.5-4.18,4.5a4.47,4.47,0,0,1-2.83-.79,3.39,3.39,0,0,1-1.19-2.23h1.08a2.41,2.41,0,0,0,.86,1.55,3.25,3.25,0,0,0,2.07.58q3.1,0,3.1-3.47v-1.78a3.46,3.46,0,0,1-3.33,2.12,3.87,3.87,0,0,1-3.11-1.39,5.51,5.51,0,0,1,0-6.55,3.85,3.85,0,0,1,3.11-1.4A3.46,3.46,0,0,1,349.24,179.84Zm-5.6-.09a4,4,0,0,0-.83,2.65,4.13,4.13,0,0,0,.77,2.59,2.85,2.85,0,0,0,2.43,1.13,2.92,2.92,0,0,0,2.41-1.08,4.73,4.73,0,0,0,0-5.29,3.12,3.12,0,0,0-4.79,0Z"/><path class="cls-1" d="M365.42,178.77a3.6,3.6,0,0,1,.83,2.5v6h-1v-1.78a4.81,4.81,0,0,1-1.51,1.39,4.69,4.69,0,0,1-2.43.65,3.35,3.35,0,0,1-2.21-.7,2.4,2.4,0,0,1-.85-1.93,2.75,2.75,0,0,1,1.46-2.59,6.28,6.28,0,0,1,3.11-.67l2.38,0v-.34a2.36,2.36,0,0,0-2.7-2.65,3.2,3.2,0,0,0-1.94.52,2.21,2.21,0,0,0-1,1.62h-1.06a3.25,3.25,0,0,1,1.31-2.34,4.55,4.55,0,0,1,2.7-.72A3.67,3.67,0,0,1,365.42,178.77Zm-.25,3.73-2.32,0q-3.53,0-3.53,2.36a1.55,1.55,0,0,0,.59,1.26,2.39,2.39,0,0,0,1.58.49,3.87,3.87,0,0,0,2.59-1,2.76,2.76,0,0,0,1.08-2.07Z"/><path class="cls-1" d="M376.07,181.55v5.72H375v-5.65q0-3-2.65-3a2.46,2.46,0,0,0-1.87.81,3.28,3.28,0,0,0-.88,2.2v5.62h-1.08V178h1.08v1.53a3.78,3.78,0,0,1,1.26-1.31,3.28,3.28,0,0,1,1.76-.47Q376.08,177.71,376.07,181.55Z"/><path class="cls-1" d="M385.36,174.17h1.08v13.1h-1v-1.84a3.34,3.34,0,0,1-3.26,2.09A3.78,3.78,0,0,1,379,186a5.52,5.52,0,0,1-1-3.44,5.47,5.47,0,0,1,1-3.4,3.65,3.65,0,0,1,3.1-1.49,3.4,3.4,0,0,1,3.26,2.21Zm-5.51,5.65a4.48,4.48,0,0,0-.77,2.79,4.74,4.74,0,0,0,.76,2.81,2.8,2.8,0,0,0,2.43,1.19,2.76,2.76,0,0,0,2.36-1.15,4.52,4.52,0,0,0,.77-2.7v-.22a4.51,4.51,0,0,0-.83-2.79,2.7,2.7,0,0,0-2.27-1.12A2.85,2.85,0,0,0,379.86,179.82Z"/><path class="cls-1" d="M149,207v3h2.43v.94H149v6.3a1.42,1.42,0,0,0,.22.88,1,1,0,0,0,.81.25h1.17v.94h-1.31a1.92,1.92,0,0,1-1.55-.56,2.25,2.25,0,0,1-.41-1.51v-6.3h-2V210h2v-2.56Z"/><path class="cls-1" d="M158.37,209.91V211a5,5,0,0,0-1.42-.2,2.3,2.3,0,0,0-2,1.12,4,4,0,0,0-.74,2.43v4.91h-1.08V210h1.08v1.78a3.41,3.41,0,0,1,1-1.39,2.68,2.68,0,0,1,1.8-.65A3.69,3.69,0,0,1,158.37,209.91Z"/><path class="cls-1" d="M166.43,210.77a3.6,3.6,0,0,1,.83,2.5v6h-1v-1.78a4.81,4.81,0,0,1-1.51,1.39,4.69,4.69,0,0,1-2.43.65,3.35,3.35,0,0,1-2.21-.7,2.4,2.4,0,0,1-.85-1.93,2.75,2.75,0,0,1,1.46-2.59,6.28,6.28,0,0,1,3.11-.67l2.38,0v-.34a2.36,2.36,0,0,0-2.7-2.65,3.2,3.2,0,0,0-1.94.52,2.21,2.21,0,0,0-1,1.62h-1.06a3.25,3.25,0,0,1,1.31-2.34,4.55,4.55,0,0,1,2.7-.72A3.67,3.67,0,0,1,166.43,210.77Zm-.25,3.73-2.32,0q-3.53,0-3.53,2.36a1.55,1.55,0,0,0,.59,1.26,2.39,2.39,0,0,0,1.58.49,3.87,3.87,0,0,0,2.59-1,2.76,2.76,0,0,0,1.08-2.07Z"/><path class="cls-1" d="M177.09,213.55v5.72H176v-5.65q0-3-2.65-3a2.46,2.46,0,0,0-1.87.81,3.28,3.28,0,0,0-.88,2.2v5.62h-1.08V210h1.08v1.53a3.78,3.78,0,0,1,1.26-1.31,3.28,3.28,0,0,1,1.76-.47Q177.09,209.71,177.09,213.55Z"/><path class="cls-1" d="M186.23,212.57h-1.06a2.2,2.2,0,0,0-.77-1.42,3.7,3.7,0,0,0-3.56-.09,1.23,1.23,0,0,0,.18,2.25,12.62,12.62,0,0,0,2,.65,9.37,9.37,0,0,1,2.41.86,2.1,2.1,0,0,1,1.12,1.87q0,2.83-3.78,2.83-3.58,0-3.91-3.19h1.06a2.53,2.53,0,0,0,.86,1.76,3.23,3.23,0,0,0,1.94.49q2.7,0,2.7-1.84a1.41,1.41,0,0,0-.92-1.3,12.32,12.32,0,0,0-2.07-.65,9,9,0,0,1-2.27-.83,2,2,0,0,1-1.06-1.78,2.1,2.1,0,0,1,1-1.82,4.19,4.19,0,0,1,2.45-.67Q185.84,209.71,186.23,212.57Z"/><path class="cls-1" d="M195.07,210.77a3.6,3.6,0,0,1,.83,2.5v6h-1v-1.78a4.81,4.81,0,0,1-1.51,1.39,4.69,4.69,0,0,1-2.43.65,3.35,3.35,0,0,1-2.21-.7,2.4,2.4,0,0,1-.85-1.93,2.75,2.75,0,0,1,1.46-2.59,6.28,6.28,0,0,1,3.11-.67l2.38,0v-.34a2.36,2.36,0,0,0-2.7-2.65,3.2,3.2,0,0,0-1.94.52,2.21,2.21,0,0,0-1,1.62h-1.06a3.25,3.25,0,0,1,1.31-2.34,4.55,4.55,0,0,1,2.7-.72A3.67,3.67,0,0,1,195.07,210.77Zm-.25,3.73-2.32,0q-3.53,0-3.53,2.36a1.55,1.55,0,0,0,.59,1.26,2.39,2.39,0,0,0,1.58.49,3.87,3.87,0,0,0,2.59-1,2.76,2.76,0,0,0,1.08-2.07Z"/><path class="cls-1" d="M204.81,210.52a3.53,3.53,0,0,1,1.28,2.48H205a2.65,2.65,0,0,0-.94-1.76,3.12,3.12,0,0,0-2-.59,2.79,2.79,0,0,0-2.34,1.13,4.53,4.53,0,0,0-.85,2.9,4.57,4.57,0,0,0,.81,2.84,2.78,2.78,0,0,0,2.36,1.06,2.75,2.75,0,0,0,3-2.65h1.06a4.24,4.24,0,0,1-1.33,2.68,4,4,0,0,1-2.72.9,3.88,3.88,0,0,1-3.2-1.4,5.21,5.21,0,0,1-1.06-3.44,5.4,5.4,0,0,1,1.1-3.49,3.82,3.82,0,0,1,3.19-1.48A4.31,4.31,0,0,1,204.81,210.52Z"/><path class="cls-1" d="M210.1,207v3h2.43v.94H210.1v6.3a1.42,1.42,0,0,0,.22.88,1,1,0,0,0,.81.25h1.17v.94H211a1.92,1.92,0,0,1-1.55-.56,2.25,2.25,0,0,1-.41-1.51v-6.3h-2V210h2v-2.56Z"/><path class="cls-1" d="M227,210.77a3.6,3.6,0,0,1,.83,2.5v6h-1v-1.78a4.81,4.81,0,0,1-1.51,1.39,4.69,4.69,0,0,1-2.43.65,3.35,3.35,0,0,1-2.21-.7,2.4,2.4,0,0,1-.85-1.93,2.75,2.75,0,0,1,1.46-2.59,6.28,6.28,0,0,1,3.11-.67l2.38,0v-.34a2.36,2.36,0,0,0-2.7-2.65,3.2,3.2,0,0,0-1.94.52,2.21,2.21,0,0,0-1,1.62h-1.06a3.25,3.25,0,0,1,1.31-2.34,4.55,4.55,0,0,1,2.7-.72A3.67,3.67,0,0,1,227,210.77Zm-.25,3.73-2.32,0q-3.53,0-3.53,2.36a1.55,1.55,0,0,0,.59,1.26,2.39,2.39,0,0,0,1.58.49,3.87,3.87,0,0,0,2.59-1,2.76,2.76,0,0,0,1.08-2.07Z"/><path class="cls-1" d="M237,212.57h-1.06a2.2,2.2,0,0,0-.77-1.42,3.7,3.7,0,0,0-3.56-.09,1.23,1.23,0,0,0,.18,2.25,12.62,12.62,0,0,0,2,.65,9.37,9.37,0,0,1,2.41.86,2.1,2.1,0,0,1,1.12,1.87q0,2.83-3.78,2.83-3.58,0-3.91-3.19h1.06a2.53,2.53,0,0,0,.86,1.76,3.23,3.23,0,0,0,1.94.49q2.7,0,2.7-1.84a1.41,1.41,0,0,0-.92-1.3,12.32,12.32,0,0,0-2.07-.65,9,9,0,0,1-2.27-.83,2,2,0,0,1-1.06-1.78,2.1,2.1,0,0,1,1-1.82,4.19,4.19,0,0,1,2.45-.67Q236.58,209.71,237,212.57Z"/><path class="cls-1" d="M245.85,212.57h-1.06a2.2,2.2,0,0,0-.77-1.42,3.7,3.7,0,0,0-3.56-.09,1.23,1.23,0,0,0,.18,2.25,12.62,12.62,0,0,0,2,.65,9.37,9.37,0,0,1,2.41.86,2.1,2.1,0,0,1,1.12,1.87q0,2.83-3.78,2.83-3.58,0-3.91-3.19h1.06a2.53,2.53,0,0,0,.86,1.76,3.23,3.23,0,0,0,1.94.49q2.7,0,2.7-1.84a1.41,1.41,0,0,0-.92-1.3,12.32,12.32,0,0,0-2.07-.65,9,9,0,0,1-2.27-.83,2,2,0,0,1-1.06-1.78,2.1,2.1,0,0,1,1-1.82,4.19,4.19,0,0,1,2.45-.67Q245.45,209.71,245.85,212.57Z"/><path class="cls-1" d="M254.92,211.21a6.49,6.49,0,0,1,1.06,3.73h-7.56a4.38,4.38,0,0,0,.92,2.68,2.93,2.93,0,0,0,2.3,1,3.12,3.12,0,0,0,2.05-.67,3.49,3.49,0,0,0,1-1.64h1.1a4.35,4.35,0,0,1-1.24,2.21,4.15,4.15,0,0,1-2.9,1,4,4,0,0,1-3.13-1.33,5.14,5.14,0,0,1-1.21-3.58,5.2,5.2,0,0,1,1.15-3.44,4.27,4.27,0,0,1,6.46,0Zm-5.51.4a4.09,4.09,0,0,0-1,2.45h6.41q-.27-3.4-3.22-3.4A2.78,2.78,0,0,0,249.41,211.6Z"/><path class="cls-1" d="M260,207v3h2.43v.94H260v6.3a1.42,1.42,0,0,0,.22.88,1,1,0,0,0,.81.25h1.17v.94h-1.31a1.92,1.92,0,0,1-1.55-.56,2.25,2.25,0,0,1-.41-1.51v-6.3h-2V210h2v-2.56Z"/><path class="cls-1" d="M270.9,212.57h-1.06a2.2,2.2,0,0,0-.77-1.42,3.7,3.7,0,0,0-3.56-.09,1.23,1.23,0,0,0,.18,2.25,12.62,12.62,0,0,0,2,.65,9.37,9.37,0,0,1,2.41.86,2.1,2.1,0,0,1,1.12,1.87q0,2.83-3.78,2.83-3.58,0-3.91-3.19h1.06a2.53,2.53,0,0,0,.86,1.76,3.23,3.23,0,0,0,1.94.49q2.7,0,2.7-1.84a1.41,1.41,0,0,0-.92-1.3,12.32,12.32,0,0,0-2.07-.65,9,9,0,0,1-2.27-.83,2,2,0,0,1-1.06-1.78,2.1,2.1,0,0,1,1-1.82,4.19,4.19,0,0,1,2.45-.67Q270.51,209.71,270.9,212.57Z"/><path class="cls-1" d="M274.74,217.72a.81.81,0,0,1,.27.65.9.9,0,0,1-.29.65.94.94,0,0,1-.63.25.85.85,0,0,1-.65-.27.86.86,0,0,1-.27-.63.81.81,0,0,1,.27-.65.84.84,0,0,1,.65-.25A.88.88,0,0,1,274.74,217.72Z"/></svg>