<svg id="图层_1" data-name="图层 1" xmlns="http://www.w3.org/2000/svg" viewBox="0 0 441 276"><defs><style>.cls-1{fill:#33353c;}</style></defs><title>121212</title><path class="cls-1" d="M82.76,21.38a25.54,25.54,0,0,1-2.43,2.3l-.63-.79a21.31,21.31,0,0,0,5.53-6.77h-4.9v-1h5.35q.52-1.24,1-2.66l1,.11a22.09,22.09,0,0,1-.9,2.56H96v1H86.31a22.68,22.68,0,0,1-2.57,4.1v8.84h-1Zm2.77-.29h4.28V17.62h1V21.1h4.37v1H90.81v5.38H96v1H84.74v-1h5.08V22.07H85.53Z"/><path class="cls-1" d="M101.12,24.84a18.61,18.61,0,0,1-2.39,4.1l-.79-.56a16.07,16.07,0,0,0,2.36-4Zm4.14-12.26h1v1.89h7.09v.92h-7.09V18H112v5.53H100.34V18h4.91Zm5.74,10V18.9h-9.68v3.69Zm-7.07,2.34q.59,2,1,3.92l-1,.23a23.47,23.47,0,0,0-.92-4Zm3.78-.16a34.35,34.35,0,0,1,1.44,4l-1,.23A22.32,22.32,0,0,0,106.81,25Zm3.78-.32a29.72,29.72,0,0,1,2.63,4l-.79.56a34,34,0,0,0-2.63-4.07Z"/><path class="cls-1" d="M118.17,16.74a18.37,18.37,0,0,1-1.78,1.82l-.5-.77a14.1,14.1,0,0,0,3.71-5.2l.9.23a13.59,13.59,0,0,1-.68,1.51H124a16.47,16.47,0,0,0-.77-1.64l1-.18q.4.86.74,1.82h5.94v.86H125v1.44h5.22v.79H125v1.4h5.22v.79H125v1.53h6.17V22H118.17Zm-1.84,7.83v-.92h7.27V22.57h1v1.08h7.16v.92H126a12.78,12.78,0,0,0,6,3.11l-.41.86q-4.59-1.51-6.5-4h-.45v4.48h-1V24.57h-.49q-1.66,2.36-6.46,4.07l-.52-.85q4.46-1.4,6.07-3.22Zm7.76-7.94V15.19H119.3l-.22.34v1.1Zm0,2.2v-1.4h-5v1.4Zm0,2.32V19.62h-5v1.53Z"/><path class="cls-1" d="M145.8,28.91l-.25-1,1.78.05a.71.71,0,0,0,.79-.81V14.36H135.95V29h-1V13.41h14.11v14a1.3,1.3,0,0,1-1.46,1.49ZM141.66,25q-1-1.48-1.94-2.88a19.26,19.26,0,0,1-2.5,4.77l-.63-.76a19,19,0,0,0,2.48-4.93q-1.46-1.94-2.65-3.26l.61-.61a31.07,31.07,0,0,1,2.36,2.84,35.71,35.71,0,0,0,1-4.43l.92.16a35.16,35.16,0,0,1-1.19,5.18q1,1.31,2.23,3.28Zm5.35.83q-1-1.6-2-3.29a19.45,19.45,0,0,1-2.7,4.79l-.61-.76a19,19,0,0,0,2.66-5,43.11,43.11,0,0,0-2.61-3.47l.63-.61a34,34,0,0,1,2.34,3,30.91,30.91,0,0,0,1.1-4.73l.92.16a35.43,35.43,0,0,1-1.35,5.54q1.15,1.75,2.3,3.67Z"/><path class="cls-1" d="M158.29,26.57a35.48,35.48,0,0,1-6,1.67l-.12-.94a32.43,32.43,0,0,0,6.16-1.67ZM156.16,13a28,28,0,0,1-2.84,5.74,26.86,26.86,0,0,0,2.75-.5l1-1.93.85.32a38.27,38.27,0,0,1-4,6.73,30,30,0,0,0,4.09-1.12v.88a29.64,29.64,0,0,1-5.24,1.31l-.27-.92a1.92,1.92,0,0,0,.45-.27,21.94,21.94,0,0,0,2.7-4.09q-1.87.38-3.2.56l-.23-.9a1.1,1.1,0,0,0,.41-.36,27.92,27.92,0,0,0,2.68-5.83Zm6-.23q-.25.79-.59,1.58h5V15a12.45,12.45,0,0,1-3,4.07,14.13,14.13,0,0,0,4.77,2.3l-.56.79a13.87,13.87,0,0,1-4.91-2.52,19.39,19.39,0,0,1-4.72,2.63l-.61-.79a18.62,18.62,0,0,0,4.61-2.47,11.52,11.52,0,0,1-2-2.5,15,15,0,0,1-1.73,1.76l-.58-.76a10,10,0,0,0,3.33-5Zm4.46,9.7v6.5h-.94v-.85h-5.35v.85h-.94v-6.5Zm-6.28,4.75h5.35V23.31h-5.35Zm.4-11.36a10.9,10.9,0,0,0,2.12,2.68,11.5,11.5,0,0,0,2.68-3.29h-4.43Z"/><path class="cls-1" d="M177.53,12.53h1v3.33h6.52v8.28h-1V22.93h-5.53v6.23h-1V22.93H172v1.21h-1V15.86h6.5ZM172,22h5.51V16.83H172Zm6.52,0h5.53V16.83h-5.53Z"/><path class="cls-1" d="M196.48,12.62q2.27,3.8,7.85,6.7l-.58.86A19.41,19.41,0,0,1,196,13.55a21.16,21.16,0,0,1-7.72,6.73l-.58-.88a20.14,20.14,0,0,0,7.85-6.79Zm-.94,5.27h1V29h-1Z"/><path class="cls-1" d="M214.54,12.64q0,2-.13,3.94A16.83,16.83,0,0,0,222.31,28l-.65.83a17.33,17.33,0,0,1-7.6-10.13q-1.49,6.14-7.74,10.15l-.59-.86q7.52-4.7,7.79-12.46l0-2.92Z"/><path class="cls-1" d="M229.35,12.82q2.32,2.48,4.54,5.29l-.65.67q-2.36-3.08-4.18-5a32.73,32.73,0,0,1-4.75,5.56l-.58-.77a32,32,0,0,0,4.86-5.71Zm1.58,6.5h-4.21v7.9q0,.59.67.59h3.67q1,0,1.26-.49a7.06,7.06,0,0,0,.4-2.16l.92.32a5.56,5.56,0,0,1-.67,2.79,2.41,2.41,0,0,1-1.69.45h-4.21q-1.32,0-1.31-1.24V18.43h6.14v4.64a1.3,1.3,0,0,1-1.4,1.48q-.72,0-2-.07l-.25-.9q1.37.07,1.93.07.76,0,.76-.81Zm4.29,9.54-.22-.92q1.49.05,2.83.05.59,0,.59-.7V12.67h1V27.54q0,1.31-1.22,1.31Zm-.09-14.65h1V25.49h-1Z"/><path class="cls-1" d="M258.15,27.63l-.18.94h-5.36q-4.79,0-6.86-1.42a4.71,4.71,0,0,1-.74-.68,10.63,10.63,0,0,1-2.23,2.36l-.63-.81a8.36,8.36,0,0,0,2.23-2.32,12.68,12.68,0,0,1-1.75-3.92l.81-.31a15.26,15.26,0,0,0,1.4,3.4,12.68,12.68,0,0,0,1.19-5h-3.37v-.76a41.38,41.38,0,0,0,3-4.57h-3.17v-.94h4.27v.81A42.64,42.64,0,0,1,243.95,19h3v.61a13.35,13.35,0,0,1-1.49,6.1,4.33,4.33,0,0,0,1,.88,12.38,12.38,0,0,0,5.67,1.1Q254,27.7,258.15,27.63Zm-1.53-7.78h-3.85v1.66h4.34v.85h-4.34v1.78h4.84V25h-4.84v2h-1V25h-4.2v-.85h4.2V22.36h-3.65v-.85h3.65V19.85h-3.28V19h3.28V17.32h-4.16v-.83h4.16V14.8h-3.28V14h3.28V12.58h1V14h3.85v2.54h1.31v.83h-1.31Zm-3.85-5.06v1.69h2.92V14.8Zm0,2.52V19h2.92V17.32Z"/><path class="cls-1" d="M274,14.83V29h-1V27.79h-9.94V29h-1V14.83h3.8a8.65,8.65,0,0,0,1-2.29l1,.14a8.71,8.71,0,0,1-.92,2.14Zm-10.91,3.92H273v-3h-9.94Zm0,3.94H273v-3h-9.94Zm0,4.16H273V23.63h-9.94Z"/><path class="cls-1" d="M294,23.85a10.74,10.74,0,0,1-.68,3.74,1.93,1.93,0,0,1-1.84.85h-9.88q-1.85,0-1.85-1.71V19.64h11.21v-5H278.64v-.94H291.9v6.93H280.69v5.83q0,1.06,1.22,1.08h9.34a1.3,1.3,0,0,0,1.35-.81,12.92,12.92,0,0,0,.4-3.15Z"/><path class="cls-1" d="M302.16,15.82v12.1h-.94v-1.1h-3.64v1.6h-.94V15.82h1.62a16.43,16.43,0,0,0,.81-3.22l1,.13a15.42,15.42,0,0,1-.86,3.1Zm-4.57,5h3.64v-4h-3.64Zm0,5.15h3.64V21.65h-3.64Zm13.9-10.08q0,8.66-.25,10.78a2.24,2.24,0,0,1-2.5,2.16l-1.76,0-.23-.9q1.08.05,1.89.05,1.46,0,1.67-1.6t.25-9.49h-5.31A15,15,0,0,1,303.42,20l-.58-.76a16,16,0,0,0,2.65-6.62l1,.11a22.41,22.41,0,0,1-.83,3.15Zm-6.26,4.05a30.63,30.63,0,0,1,3.13,4l-.77.56a28.19,28.19,0,0,0-3.15-4Z"/><path class="cls-1" d="M314.53,22.7h2.25V14.22h3.62a8.72,8.72,0,0,0,.56-1.75l1,.14a7.52,7.52,0,0,1-.59,1.6h5.38v8.1a11.15,11.15,0,0,0,2.3-3.53l.85.5a16.51,16.51,0,0,1-3.15,4.28v4A1.26,1.26,0,0,1,325.33,29h-1.8l-.25-1,1.73.05q.79,0,.79-.72v-3a16.39,16.39,0,0,1-1.37,1,27.79,27.79,0,0,1-9.31,3.19l-.43-.88q7.06-1.28,10.19-3.67l.5-.41H314.53Zm11.27-5.63V15.12h-8v1.94Zm-8,.85v1.87h8V17.91Zm0,2.74V22.7h8V20.65Z"/><path class="cls-1" d="M337,12.94a24.18,24.18,0,0,1-1.85,4.23v11.9h-1V18.74A21.9,21.9,0,0,1,332,21.42l-.31-1a20.72,20.72,0,0,0,4.43-7.85Zm4.14.22a17.34,17.34,0,0,1-4.41,7.06l-.76-.67a15.68,15.68,0,0,0,4.25-6.75ZM338,20.72v-1h7.78a46.15,46.15,0,0,1-.29,6.79q-.22,2.21-2.09,2.21-.54,0-1.89-.05l-.23-.94q1.55.07,2,.07,1.1,0,1.26-1.62a42.22,42.22,0,0,0,.25-5.49h-3.37a17.45,17.45,0,0,1-1.3,4.81,10.25,10.25,0,0,1-2.88,3.38l-.63-.79a9.17,9.17,0,0,0,2.63-3,15.12,15.12,0,0,0,1.22-4.39Zm5.72-8.14a13.53,13.53,0,0,0,4.54,6.59l-.67.77a14,14,0,0,1-4.72-6.88Z"/><path class="cls-1" d="M53.26,53.37H68.83v1H63.61V59a.72.72,0,0,0,.83.81h2.5a1,1,0,0,0,.83-.34,6.75,6.75,0,0,0,.41-2.59l.92.29a6.65,6.65,0,0,1-.65,3.11,1.67,1.67,0,0,1-1.31.47h-3a1.35,1.35,0,0,1-1.51-1.55V54.32H59.38v.2a6.48,6.48,0,0,1-1.44,4.25,9.32,9.32,0,0,1-4.41,2.34L53,60.24a8.74,8.74,0,0,0,4.25-2.12,5.78,5.78,0,0,0,1.19-3.6v-.2H53.26Zm15.3-6.71v3.87h-1V47.59H54.45v2.93h-1V46.65h7.09a17.36,17.36,0,0,0-.76-1.85l1.08-.18a16.67,16.67,0,0,1,.72,2ZM56,50H66v.94H56Z"/><path class="cls-1" d="M79.38,44.71a25.68,25.68,0,0,0,7.88,5.71l-.49.85A25.87,25.87,0,0,1,79,45.61a25.59,25.59,0,0,1-7.81,5.78l-.47-.86a26.4,26.4,0,0,0,7.94-5.81ZM74,50.45h10v1H79.52v3.44h5.35v1H79.52V59.5h7v1H71.58v-1h7V55.8H73.18v-1h5.37V51.4H74Z"/><path class="cls-1" d="M102.94,53.6q-2.19.36-5.22.56v1.42h5.54v.77H97.72v1.42h7v.83h-7v1.13a1.17,1.17,0,0,1-1.31,1.33H94.08l-.2-.85q1.17.05,2.21.05.67,0,.67-.76V58.6H89.29v-.83h7.47V56.35h-6.1v-.77h6.1V54.21q-3.08.13-5.78.13l-.27-.76a78.31,78.31,0,0,0,11.77-.77Zm-6.39-9.14h1v2.36h2.43a13,13,0,0,0,1.21-2.12l1,.32a11.37,11.37,0,0,1-1.12,1.8h3.31V50h-1V47.66H90.73v2.41h-1V46.81h3.35A10.09,10.09,0,0,0,92,45l.94-.34a9.11,9.11,0,0,1,1.22,2.11h2.43ZM92.64,49h8.78v3.06H92.64Zm7.81,2.32V49.77H93.61v1.58Z"/><path class="cls-1" d="M107.38,60.85l-.22-.94q1,.07,1.46.07.77,0,.77-.88V54.36q-1.19.47-2.34.81l-.25-1a19.73,19.73,0,0,0,2.59-.81V49.12h-2.34v-1h2.34V44.64h1v3.53H112v1h-1.64V53q.7-.31,1.71-.83v1q-.79.41-1.71.81v5.4q0,1.49-1.4,1.49Zm9.92-5.71H113v-.92h9.58v.92h-4.28v4.27h5v.94h-11v-.94h5.06Zm.16-10.75q.52,1.1,1,2.29h4.3v3.2h-.94V47.57h-8v2.32h-.92v-3.2h4.59a12.82,12.82,0,0,0-1-2.11ZM117,49.19a10.09,10.09,0,0,1-3.37,4.12l-.7-.61a9,9,0,0,0,3.21-3.85Zm2.29-.38a21.89,21.89,0,0,1,3.08,3.92l-.85.45a23.58,23.58,0,0,0-3.06-4Z"/><path class="cls-1" d="M135.68,54.54h-5.27a13.11,13.11,0,0,1-.9,2.93,8,8,0,0,1-3.73,3.6l-.58-.9a7.36,7.36,0,0,0,3.53-3.46,10.19,10.19,0,0,0,.67-2.18h-4.34v-1h4.5q.14-1.19.18-2.7V49.06H125.8v-1h9.13a21.87,21.87,0,0,0,1.89-3.69l1,.36A19.36,19.36,0,0,1,136,48.11h4.28v1h-3.67v4.52H141v1h-4.37v6.41h-1Zm-6.39-10.12a24.37,24.37,0,0,1,1.8,3l-.88.43a24.37,24.37,0,0,0-1.8-3Zm6.39,4.64h-5v1.82a26.63,26.63,0,0,1-.16,2.7h5.13Z"/><path class="cls-1" d="M147.78,45a23.31,23.31,0,0,1-1.66,3.83V61.07h-1V50.43a19.92,19.92,0,0,1-2.2,2.74l-.3-1a20.69,20.69,0,0,0,4.23-7.61Zm1.26.5h8.35v5.45H153.7v2.23H159v1h-4.21a16,16,0,0,0,4.52,5l-.61.83A18.14,18.14,0,0,1,154,54.12h-.29V61h-1V54.12h-.31a15.87,15.87,0,0,1-4.77,5.9l-.54-.86a14.44,14.44,0,0,0,4.52-5h-4v-1h5.13V50.92H149Zm7.38,4.5V46.4H150V50Z"/><path class="cls-1" d="M160.86,50.22h3.65v8.1q1.08-.9,2.11-1.93l.25,1a23,23,0,0,1-3.22,2.7l-.38-.9a.86.86,0,0,0,.32-.61V51.17h-2.74Zm2-5.4a21.21,21.21,0,0,1,3,2.84l-.67.68a20,20,0,0,0-3.06-2.88Zm9.27,1.71H167v-1h10v1h-3.85v5.38h3.62v.92h-3.62v6.62h4.23v1H166.42v-1h1.91V49.71h1v9.74h2.84Z"/><path class="cls-1" d="M178.83,50.22h3.71v8.32q1-.77,2.21-2l.25,1a25.84,25.84,0,0,1-3.37,2.74l-.38-.88a.87.87,0,0,0,.32-.63V51.17h-2.75Zm2-5.36a21.47,21.47,0,0,1,3,2.75l-.67.68a19.72,19.72,0,0,0-3.08-2.77Zm4.07,16-.56-.83a16.83,16.83,0,0,0,9.86-8.21l.85.43a19.64,19.64,0,0,1-3.29,4.41,25.56,25.56,0,0,1,3.46,3.51l-.7.7a26.12,26.12,0,0,0-3.38-3.62A18.15,18.15,0,0,1,184.93,60.89Zm0-14.22h5a13.17,13.17,0,0,0-1-2.14l1-.18a22.22,22.22,0,0,1,.94,2.32h4.41v.92H190a18.64,18.64,0,0,1-3.19,3.94q2.16-.11,4.34-.27a14.64,14.64,0,0,0,1.31-2.05l.83.41a13.61,13.61,0,0,1-7.67,6.71l-.52-.81a12.65,12.65,0,0,0,5.29-3.37l-4.88.23-.2-.85.2-.09a13.24,13.24,0,0,0,3.42-3.87h-4Z"/><path class="cls-1" d="M197.53,54.7h2.25V46.22h3.62a8.72,8.72,0,0,0,.56-1.75l1,.14a7.52,7.52,0,0,1-.59,1.6h5.38v8.1a11.15,11.15,0,0,0,2.3-3.53l.85.5a16.51,16.51,0,0,1-3.15,4.28v4A1.26,1.26,0,0,1,208.33,61h-1.8l-.25-1,1.73.05q.79,0,.79-.72v-3a16.39,16.39,0,0,1-1.37,1,27.79,27.79,0,0,1-9.31,3.19l-.43-.88q7.06-1.28,10.19-3.67l.5-.41H197.53Zm11.27-5.63V47.12h-8v1.94Zm-8,.85v1.87h8V49.91Zm0,2.74V54.7h8V52.65Z"/><path class="cls-1" d="M220,44.94a24.18,24.18,0,0,1-1.85,4.23v11.9h-1V50.74A21.9,21.9,0,0,1,215,53.42l-.31-1a20.72,20.72,0,0,0,4.43-7.85Zm4.14.22a17.34,17.34,0,0,1-4.41,7.06l-.76-.67a15.68,15.68,0,0,0,4.25-6.75ZM221,52.72v-1h7.78a46.15,46.15,0,0,1-.29,6.79q-.22,2.21-2.09,2.21-.54,0-1.89-.05l-.23-.94q1.55.07,2,.07,1.1,0,1.26-1.62a42.22,42.22,0,0,0,.25-5.49h-3.37a17.45,17.45,0,0,1-1.3,4.81,10.25,10.25,0,0,1-2.88,3.38l-.63-.79a9.17,9.17,0,0,0,2.63-3,15.12,15.12,0,0,0,1.22-4.39Zm5.72-8.14a13.53,13.53,0,0,0,4.54,6.59l-.67.77a14,14,0,0,1-4.72-6.88Z"/><path class="cls-1" d="M239.16,47.82v12.1h-.94v-1.1h-3.64v1.6h-.94V47.82h1.62a16.43,16.43,0,0,0,.81-3.22l1,.13a15.42,15.42,0,0,1-.86,3.1Zm-4.57,5h3.64v-4h-3.64Zm0,5.15h3.64V53.65h-3.64Zm13.9-10.08q0,8.66-.25,10.78a2.24,2.24,0,0,1-2.5,2.16l-1.76,0-.23-.9q1.08.05,1.89.05,1.46,0,1.67-1.6t.25-9.49h-5.31A15,15,0,0,1,240.42,52l-.58-.76a16,16,0,0,0,2.65-6.62l1,.11a22.41,22.41,0,0,1-.83,3.15Zm-6.26,4.05a30.63,30.63,0,0,1,3.13,4l-.77.56a28.19,28.19,0,0,0-3.15-4Z"/><path class="cls-1" d="M251.78,46h7q.07-.5.18-1.48l1,.14L259.74,46h6.55v.85h-6.68l-.29,1.42h5.17v8.53H267v.88H251.11v-.88h2.74V48.31h4.48q.11-.49.29-1.42h-6.84Zm5.33,12.56A17.81,17.81,0,0,1,252,61.05l-.4-.85a16,16,0,0,0,4.91-2.27Zm-2.32-8.12h8.77V49.12h-8.77Zm0,2.11h8.77V51.26h-8.77Zm0,2.09h8.77V53.37h-8.77Zm0,2.16h8.77V55.45h-8.77Zm6.71,1.06a27.47,27.47,0,0,1,5.13,2.39l-.5.77a25.45,25.45,0,0,0-5.08-2.48Z"/><path class="cls-1" d="M278.6,48.61h1v1.82a12.56,12.56,0,0,1-.81,4.41h6v.92h-6.48a7.06,7.06,0,0,1-.7,1.06,40.55,40.55,0,0,1,7.09,3.46l-.56.85a36.35,36.35,0,0,0-7.11-3.6A15.47,15.47,0,0,1,270.19,61l-.54-.83q4.95-1.33,7-3.64.2-.25.56-.79h-8v-.92h8.48a11.08,11.08,0,0,0,.92-4.41Zm5.65-2V50h-1V47.5H270.81v2.57h-1V46.58h6.91a20.58,20.58,0,0,0-.81-2l1-.18a21.38,21.38,0,0,1,.74,2.16Zm-12.47,4.63a20.29,20.29,0,0,1,3.78,2L275,54a17.82,17.82,0,0,0-3.74-2Zm1.13-2.75a18.7,18.7,0,0,1,3.65,1.93l-.52.77a14.75,14.75,0,0,0-3.62-2Z"/><path class="cls-1" d="M288.28,48.11a25.17,25.17,0,0,1-.65,5.13l-.81-.22a24.32,24.32,0,0,0,.67-5Zm1.21-3.46h1V61h-1Zm2.21,3.06a24.64,24.64,0,0,1,1.13,3.17l-.79.2A23.13,23.13,0,0,0,291,47.95Zm2.88,1.39a14.63,14.63,0,0,1-1.48,3.76l-.74-.65a14.72,14.72,0,0,0,1.75-6.53l.9.11a18.71,18.71,0,0,1-.23,2.36h2.92V44.67h1v3.47h4.05v1h-4.05v4.63h3.73v1h-3.73V59.5h4.52v1H292.42v-1h5.27V54.68h-4.23v-1h4.23V49.1Z"/><path class="cls-1" d="M305.37,49.66h3.26v-2.9q-1.51.25-3,.36l-.32-.9a22.62,22.62,0,0,0,6.73-1.39l.47.83a22,22,0,0,1-3,.9v3.1h3.19v.92h-3.19v1a40.31,40.31,0,0,1,3.22,3.31l-.58.83a38.35,38.35,0,0,0-2.65-3.24v8.44h-.94V52.3a17.1,17.1,0,0,1-3.31,5.13l-.41-1a14.55,14.55,0,0,0,3.73-5.83h-3.26Zm14.9-3.73V60.31h-1V58.82h-4.72v1.66h-1V45.93Zm-5.69,12h4.72V46.85h-4.72Z"/><path class="cls-1" d="M323.17,51.49h5.08q.68-1.22,1.64-3.06l1,.31-1.48,2.75h9.54v.94h-3.6a15.26,15.26,0,0,1-2.68,4.73q2.65,1.17,5.8,2.93l-.65.83a59.2,59.2,0,0,0-5.87-3,12.14,12.14,0,0,1-8.06,2.88l-.58-.92a12,12,0,0,0,7.65-2.38s0,0,0,0a49.92,49.92,0,0,0-5.17-1.94q1.06-1.66,1.89-3.1h-4.54Zm15.16-5v3.71h-1V47.41H324.7v2.74h-1V46.45h6.89a15.72,15.72,0,0,0-.86-1.8l1.08-.18a19,19,0,0,1,.85,2Zm-9.47,6q-1.22,2-1.66,2.66a40.43,40.43,0,0,1,4.52,1.67,12.11,12.11,0,0,0,2.57-4.34Z"/><path class="cls-1" d="M349.38,44.71a25.68,25.68,0,0,0,7.88,5.71l-.49.85A25.87,25.87,0,0,1,349,45.61a25.59,25.59,0,0,1-7.81,5.78l-.47-.86a26.4,26.4,0,0,0,7.94-5.81ZM344,50.45h10v1h-4.55v3.44h5.35v1h-5.35V59.5h7v1H341.58v-1h7V55.8h-5.37v-1h5.37V51.4H344Z"/><path class="cls-1" d="M360.28,48.11a25.17,25.17,0,0,1-.65,5.13l-.81-.22a24.32,24.32,0,0,0,.67-5Zm1.21-3.46h1V61h-1Zm2.21,3.06a24.64,24.64,0,0,1,1.13,3.17l-.79.2A23.13,23.13,0,0,0,363,47.95Zm2.88,1.39a14.63,14.63,0,0,1-1.48,3.76l-.74-.65a14.72,14.72,0,0,0,1.75-6.53l.9.11a18.71,18.71,0,0,1-.23,2.36h2.92V44.67h1v3.47h4.05v1h-4.05v4.63h3.73v1h-3.73V59.5h4.52v1H364.42v-1h5.27V54.68h-4.23v-1h4.23V49.1Z"/></svg>