<svg id="图层_1" data-name="图层 1" xmlns="http://www.w3.org/2000/svg" viewBox="0 0 440 275"><defs><style>.cls-1{fill:#33353c;}</style></defs><title>币网站中英文</title><path class="cls-1" d="M61.49,15.35h1V26.77h-1Z"/><path class="cls-1" d="M71.5,21.68v5.09h-1v-5c0-1.76-.78-2.64-2.35-2.64a2.18,2.18,0,0,0-1.66.72,3,3,0,0,0-.79,2v5h-1V18.5h1v1.36a3.4,3.4,0,0,1,1.12-1.17,2.9,2.9,0,0,1,1.57-.42Q71.51,18.27,71.5,21.68Z"/><path class="cls-1" d="M80.85,15.83V18.5H83v.83H80.85v5.6a1.24,1.24,0,0,0,.19.78.92.92,0,0,0,.72.23h1v.83H81.63a1.65,1.65,0,0,1-1.37-.5,2,2,0,0,1-.37-1.34v-5.6H78.13V18.5h1.76V16.23Z"/><path class="cls-1" d="M84.46,15.12h1V20a3.15,3.15,0,0,1,1.15-1.29,2.93,2.93,0,0,1,1.57-.44,2.89,2.89,0,0,1,2.21.84,3.34,3.34,0,0,1,.8,2.38v5.28h-1V21.62a2.75,2.75,0,0,0-.61-1.87,2.28,2.28,0,0,0-1.71-.64,2.21,2.21,0,0,0-1.75.83,3,3,0,0,0-.7,2v4.78h-1Z"/><path class="cls-1" d="M99.47,19.6a5.81,5.81,0,0,1,1,3.31H93.7a3.89,3.89,0,0,0,.81,2.39,2.63,2.63,0,0,0,2,.86,2.78,2.78,0,0,0,1.82-.59,3,3,0,0,0,.88-1.46h1a3.88,3.88,0,0,1-1.1,2,3.7,3.7,0,0,1-2.58.91,3.51,3.51,0,0,1-2.78-1.18,4.54,4.54,0,0,1-1.08-3.18,4.64,4.64,0,0,1,1-3.06,3.79,3.79,0,0,1,5.74,0ZM94.58,20a3.66,3.66,0,0,0-.87,2.18h5.7c-.16-2-1.12-3-2.87-3A2.47,2.47,0,0,0,94.58,20Z"/><path class="cls-1" d="M107.44,15.35h4.64q3.81,0,3.81,3.28t-3.83,3.29h-3.64v4.85h-1Zm1,.86v4.85H112a3.35,3.35,0,0,0,2.19-.61,2.3,2.3,0,0,0,.69-1.82,2.26,2.26,0,0,0-.69-1.8,3.31,3.31,0,0,0-2.19-.62Z"/><path class="cls-1" d="M124,19.59a4.63,4.63,0,0,1,1,3.05,4.64,4.64,0,0,1-1,3,3.93,3.93,0,0,1-5.86,0,4.64,4.64,0,0,1-1-3,4.59,4.59,0,0,1,1-3.05A3.54,3.54,0,0,1,121,18.27,3.63,3.63,0,0,1,124,19.59Zm-5.15.6a3.82,3.82,0,0,0-.74,2.45,3.77,3.77,0,0,0,.74,2.43,2.83,2.83,0,0,0,4.46,0,4,4,0,0,0,.74-2.43,4,4,0,0,0-.74-2.45,2.84,2.84,0,0,0-4.46,0Z"/><path class="cls-1" d="M128.21,15.76a.68.68,0,0,1,.24.56.8.8,0,0,1-.26.58.83.83,0,0,1-.56.22.75.75,0,0,1-.57-.22.78.78,0,0,1-.24-.58.68.68,0,0,1,.24-.56.73.73,0,0,1,.57-.24A.78.78,0,0,1,128.21,15.76Zm-1.06,2.74h1v8.27h-1Z"/><path class="cls-1" d="M137.33,21.68v5.09h-1v-5c0-1.76-.79-2.64-2.35-2.64a2.19,2.19,0,0,0-1.67.72,2.9,2.9,0,0,0-.78,2v5h-1V18.5h1v1.36a3.4,3.4,0,0,1,1.12-1.17,2.89,2.89,0,0,1,1.56-.42Q137.33,18.27,137.33,21.68Z"/><path class="cls-1" d="M141.34,15.83V18.5h2.16v.83h-2.16v5.6a1.31,1.31,0,0,0,.19.78.92.92,0,0,0,.72.23h1v.83h-1.16a1.69,1.69,0,0,1-1.38-.5,2,2,0,0,1-.37-1.34v-5.6h-1.76V18.5h1.76V16.23Z"/><path class="cls-1" d="M151.82,16a3.63,3.63,0,0,1,1.28,2.69h-1a3.21,3.21,0,0,0-1-2,3.43,3.43,0,0,0-2.3-.69,4.22,4.22,0,0,0-2.18.48,1.74,1.74,0,0,0,.18,3.14,17.19,17.19,0,0,0,2.19.73A13.76,13.76,0,0,1,152,21.44a2.66,2.66,0,0,1,1.42,2.4,2.73,2.73,0,0,1-1.23,2.34A5.39,5.39,0,0,1,149,27a4.86,4.86,0,0,1-3.1-.89A4.1,4.1,0,0,1,144.48,23h1a3.46,3.46,0,0,0,1.12,2.4,3.82,3.82,0,0,0,2.45.71,4.59,4.59,0,0,0,2.44-.59,1.87,1.87,0,0,0,.93-1.62,2,2,0,0,0-1.16-1.82,12.2,12.2,0,0,0-2.52-.88,13.8,13.8,0,0,1-2.62-.92,2.31,2.31,0,0,1-1.31-2.14A2.53,2.53,0,0,1,146,15.86a5,5,0,0,1,2.85-.74A4.56,4.56,0,0,1,151.82,16Z"/><path class="cls-1" d="M161.2,19.6a5.73,5.73,0,0,1,.94,3.31h-6.72a4,4,0,0,0,.82,2.39,2.61,2.61,0,0,0,2,.86,2.8,2.8,0,0,0,1.82-.59,3.12,3.12,0,0,0,.88-1.46h1a3.82,3.82,0,0,1-1.11,2,3.67,3.67,0,0,1-2.57.91,3.53,3.53,0,0,1-2.79-1.18,4.58,4.58,0,0,1-1.07-3.18,4.63,4.63,0,0,1,1-3.06,3.8,3.8,0,0,1,5.75,0Zm-4.9.35a3.65,3.65,0,0,0-.86,2.18h5.7c-.16-2-1.12-3-2.87-3A2.49,2.49,0,0,0,156.3,20Z"/><path class="cls-1" d="M165.68,15.83V18.5h2.16v.83h-2.16v5.6a1.24,1.24,0,0,0,.19.78.92.92,0,0,0,.72.23h1v.83h-1.17a1.65,1.65,0,0,1-1.37-.5,2,2,0,0,1-.37-1.34v-5.6H163V18.5h1.76V16.23Z"/><path class="cls-1" d="M181.34,21.68v5.09h-1v-5c0-1.76-.78-2.64-2.35-2.64a2.18,2.18,0,0,0-1.66.72,3,3,0,0,0-.79,2v5h-1V18.5h1v1.36a3.4,3.4,0,0,1,1.12-1.17,2.9,2.9,0,0,1,1.57-.42Q181.34,18.27,181.34,21.68Z"/><path class="cls-1" d="M189.65,19.6a5.81,5.81,0,0,1,.94,3.31h-6.72a3.89,3.89,0,0,0,.82,2.39,2.61,2.61,0,0,0,2,.86,2.81,2.81,0,0,0,1.83-.59,3.12,3.12,0,0,0,.88-1.46h1a3.88,3.88,0,0,1-1.1,2,3.68,3.68,0,0,1-2.58.91A3.51,3.51,0,0,1,184,25.81a4.58,4.58,0,0,1-1.07-3.18,4.63,4.63,0,0,1,1-3.06,3.8,3.8,0,0,1,5.75,0Zm-4.9.35a3.65,3.65,0,0,0-.86,2.18h5.69c-.16-2-1.11-3-2.86-3A2.49,2.49,0,0,0,184.75,20Z"/><path class="cls-1" d="M194.13,15.83V18.5h2.16v.83h-2.16v5.6a1.24,1.24,0,0,0,.19.78.92.92,0,0,0,.72.23h1v.83h-1.17a1.69,1.69,0,0,1-1.38-.5,2,2,0,0,1-.36-1.34v-5.6h-1.76V18.5h1.76V16.23Z"/><path class="cls-1" d="M196.81,18.5h1.08l2.24,7,2.08-7h.92l2.08,7,2.26-7h1.06l-2.84,8.27h-.92l-2.08-7-2.12,7h-.91Z"/><path class="cls-1" d="M216.16,19.59a4.63,4.63,0,0,1,1,3.05,4.64,4.64,0,0,1-1,3,3.93,3.93,0,0,1-5.86,0,4.64,4.64,0,0,1-1-3,4.59,4.59,0,0,1,1-3.05,3.54,3.54,0,0,1,2.91-1.32A3.63,3.63,0,0,1,216.16,19.59Zm-5.15.6a3.88,3.88,0,0,0-.74,2.45,3.83,3.83,0,0,0,.74,2.43,2.83,2.83,0,0,0,4.46,0,4,4,0,0,0,.74-2.43,4,4,0,0,0-.74-2.45,2.84,2.84,0,0,0-4.46,0Z"/><path class="cls-1" d="M223.53,18.45v1a4.26,4.26,0,0,0-1.26-.18,2,2,0,0,0-1.79,1,3.55,3.55,0,0,0-.66,2.16v4.37h-1V18.5h1v1.58a3.15,3.15,0,0,1,.91-1.23,2.42,2.42,0,0,1,1.6-.58A3.15,3.15,0,0,1,223.53,18.45Z"/><path class="cls-1" d="M224.62,15.12h1v7.55l4.59-4.17h1.32l-3.64,3.28,4,5h-1.26l-3.43-4.37-1.58,1.44v2.93h-1Z"/><path class="cls-1" d="M234.85,26.5a3,3,0,0,1-1.61,2.77l-.35-.56a2.55,2.55,0,0,0,1.24-2l-.24,0a.88.88,0,0,1-.6-.21.74.74,0,0,1-.22-.57.78.78,0,0,1,.21-.6.82.82,0,0,1,.59-.22C234.52,25.17,234.85,25.61,234.85,26.5Z"/><path class="cls-1" d="M243.85,15.76a.68.68,0,0,1,.24.56.79.79,0,0,1-.25.58.83.83,0,0,1-.56.22.78.78,0,0,1-.58-.22.78.78,0,0,1-.24-.58.68.68,0,0,1,.24-.56.75.75,0,0,1,.58-.24A.78.78,0,0,1,243.85,15.76Zm-1,2.74h1v8.27h-1Z"/><path class="cls-1" d="M253,21.68v5.09h-1v-5c0-1.76-.78-2.64-2.35-2.64a2.18,2.18,0,0,0-1.66.72,3,3,0,0,0-.79,2v5h-1V18.5h1v1.36a3.4,3.4,0,0,1,1.12-1.17,2.9,2.9,0,0,1,1.57-.42Q253,18.27,253,21.68Z"/><path class="cls-1" d="M261.23,15.12h1V26.77h-.91V25.14a3,3,0,0,1-2.9,1.85,3.35,3.35,0,0,1-2.8-1.31,4.89,4.89,0,0,1-.91-3.05,4.85,4.85,0,0,1,.91-3,3.26,3.26,0,0,1,2.75-1.33,3,3,0,0,1,2.9,2Zm-4.9,5a4,4,0,0,0-.68,2.48,4.19,4.19,0,0,0,.67,2.49,2.48,2.48,0,0,0,2.16,1.06,2.43,2.43,0,0,0,2.09-1,4,4,0,0,0,.69-2.4v-.19a4,4,0,0,0-.73-2.48,2.42,2.42,0,0,0-2-1A2.52,2.52,0,0,0,256.33,20.15Z"/><path class="cls-1" d="M265.74,15.76a.68.68,0,0,1,.24.56.79.79,0,0,1-.25.58.85.85,0,0,1-.57.22.77.77,0,0,1-.57-.22.78.78,0,0,1-.24-.58.68.68,0,0,1,.24-.56.75.75,0,0,1,.57-.24A.78.78,0,0,1,265.74,15.76Zm-1.06,2.74h1v8.27h-1Z"/><path class="cls-1" d="M267.21,18.5h1.06l2.61,7.05,2.59-7h1.07l-3.17,8.27h-1Z"/><path class="cls-1" d="M277.16,15.76a.68.68,0,0,1,.24.56.79.79,0,0,1-.25.58.83.83,0,0,1-.56.22.78.78,0,0,1-.58-.22.78.78,0,0,1-.24-.58.68.68,0,0,1,.24-.56.75.75,0,0,1,.58-.24A.78.78,0,0,1,277.16,15.76Zm-1.05,2.74h1v8.27h-1Z"/><path class="cls-1" d="M285.8,15.12h1V26.77h-.91V25.14A3,3,0,0,1,283,27a3.33,3.33,0,0,1-2.8-1.31,4.9,4.9,0,0,1-.92-3.05,4.86,4.86,0,0,1,.92-3,3.26,3.26,0,0,1,2.75-1.33,3,3,0,0,1,2.89,2Zm-4.89,5a4,4,0,0,0-.69,2.48,4.19,4.19,0,0,0,.67,2.49,2.48,2.48,0,0,0,2.16,1.06,2.44,2.44,0,0,0,2.1-1,4,4,0,0,0,.69-2.4v-.19a4,4,0,0,0-.74-2.48,2.4,2.4,0,0,0-2-1A2.52,2.52,0,0,0,280.91,20.15Z"/><path class="cls-1" d="M288.78,18.5h1v5.05a3,3,0,0,0,.54,1.94,2.22,2.22,0,0,0,1.78.67,2.31,2.31,0,0,0,1.68-.73,3,3,0,0,0,.82-1.91v-5h1v8.27h-1V25.38A3,3,0,0,1,291.8,27q-3,0-3-3.39Z"/><path class="cls-1" d="M303.61,19.22a3.18,3.18,0,0,1,.74,2.22v5.33h-.91V25.19a4.33,4.33,0,0,1-1.35,1.23,4.2,4.2,0,0,1-2.16.57,3,3,0,0,1-2-.62,2.14,2.14,0,0,1-.75-1.71,2.44,2.44,0,0,1,1.3-2.31,5.61,5.61,0,0,1,2.77-.59h2.11v-.31a2.1,2.1,0,0,0-2.4-2.35,2.91,2.91,0,0,0-1.73.46,2,2,0,0,0-.85,1.44h-.94a2.92,2.92,0,0,1,1.17-2.08,4.07,4.07,0,0,1,2.4-.64A3.24,3.24,0,0,1,303.61,19.22Zm-.22,3.31-2.07,0c-2.09,0-3.13.71-3.13,2.09a1.36,1.36,0,0,0,.53,1.12,2.09,2.09,0,0,0,1.4.43,3.42,3.42,0,0,0,2.31-.86,2.46,2.46,0,0,0,1-1.84Z"/><path class="cls-1" d="M306.67,15.12h1V26.77h-1Z"/><path class="cls-1" d="M316.06,20.82h-.94a2,2,0,0,0-.69-1.27,3.35,3.35,0,0,0-3.17-.08,1.18,1.18,0,0,0-.58,1,1.14,1.14,0,0,0,.74,1,10.65,10.65,0,0,0,1.74.58,8.34,8.34,0,0,1,2.15.77,1.86,1.86,0,0,1,1,1.66c0,1.68-1.12,2.51-3.36,2.51s-3.28-.94-3.47-2.83h.94a2.25,2.25,0,0,0,.77,1.57,2.85,2.85,0,0,0,1.73.43c1.6,0,2.4-.54,2.4-1.63a1.24,1.24,0,0,0-.82-1.15,11.29,11.29,0,0,0-1.84-.58,7.9,7.9,0,0,1-2-.73,1.76,1.76,0,0,1-.95-1.59,1.85,1.85,0,0,1,.9-1.61,3.66,3.66,0,0,1,2.17-.6C314.73,18.27,315.82,19.12,316.06,20.82Z"/><path class="cls-1" d="M329.07,19a3.15,3.15,0,0,1,1.13,2.21h-1a2.35,2.35,0,0,0-.83-1.57,2.77,2.77,0,0,0-1.76-.52,2.48,2.48,0,0,0-2.08,1,4,4,0,0,0-.75,2.58,4.07,4.07,0,0,0,.72,2.53,2.47,2.47,0,0,0,2.1.94,2.43,2.43,0,0,0,2.65-2.35h.95a3.79,3.79,0,0,1-1.19,2.38,3.53,3.53,0,0,1-2.41.8,3.45,3.45,0,0,1-2.85-1.24,4.65,4.65,0,0,1-1-3.06,4.79,4.79,0,0,1,1-3.1,3.38,3.38,0,0,1,2.83-1.32A3.85,3.85,0,0,1,329.07,19Z"/><path class="cls-1" d="M338.32,19.59a4.63,4.63,0,0,1,1,3.05,4.64,4.64,0,0,1-1,3,3.93,3.93,0,0,1-5.86,0,4.64,4.64,0,0,1-1-3,4.54,4.54,0,0,1,1-3.05,3.54,3.54,0,0,1,2.91-1.32A3.64,3.64,0,0,1,338.32,19.59Zm-5.16.6a3.88,3.88,0,0,0-.73,2.45,3.82,3.82,0,0,0,.73,2.43,2.84,2.84,0,0,0,4.47,0,4,4,0,0,0,.73-2.43,4,4,0,0,0-.73-2.45,2.85,2.85,0,0,0-4.47,0Z"/><path class="cls-1" d="M341,18.5h1v5.05a3,3,0,0,0,.54,1.94,2.22,2.22,0,0,0,1.78.67,2.31,2.31,0,0,0,1.68-.73,3,3,0,0,0,.82-1.91v-5h1v8.27h-1V25.38A3,3,0,0,1,344,27q-3,0-3-3.39Z"/><path class="cls-1" d="M350.07,15.12h1V26.77h-1Z"/><path class="cls-1" d="M359.6,15.12h1V26.77h-.92V25.14A3,3,0,0,1,356.75,27a3.33,3.33,0,0,1-2.8-1.31,4.89,4.89,0,0,1-.91-3.05,4.85,4.85,0,0,1,.91-3,3.26,3.26,0,0,1,2.75-1.33,3,3,0,0,1,2.9,2Zm-4.9,5a4,4,0,0,0-.69,2.48,4.27,4.27,0,0,0,.67,2.49,2.48,2.48,0,0,0,2.16,1.06,2.44,2.44,0,0,0,2.1-1,4,4,0,0,0,.69-2.4v-.19a4,4,0,0,0-.74-2.48,2.39,2.39,0,0,0-2-1A2.52,2.52,0,0,0,354.7,20.15Z"/><path class="cls-1" d="M74,47a3.15,3.15,0,0,1,1.14,2.21h-1a2.43,2.43,0,0,0-.83-1.57,2.79,2.79,0,0,0-1.76-.52,2.47,2.47,0,0,0-2.08,1,4,4,0,0,0-.76,2.58,4.07,4.07,0,0,0,.72,2.53,2.47,2.47,0,0,0,2.1.94,2.44,2.44,0,0,0,2.66-2.35h.94A3.74,3.74,0,0,1,74,54.19a3.55,3.55,0,0,1-2.42.8,3.45,3.45,0,0,1-2.85-1.24,4.64,4.64,0,0,1-.94-3.06,4.79,4.79,0,0,1,1-3.1,3.4,3.4,0,0,1,2.84-1.32A3.82,3.82,0,0,1,74,47Z"/><path class="cls-1" d="M81.41,46.45v1a4.38,4.38,0,0,0-1.27-.18,2.05,2.05,0,0,0-1.79,1,3.55,3.55,0,0,0-.65,2.16v4.37h-1V46.5h1v1.58a3,3,0,0,1,.91-1.23,2.4,2.4,0,0,1,1.6-.58A3.22,3.22,0,0,1,81.41,46.45Z"/><path class="cls-1" d="M88.78,47.6a5.81,5.81,0,0,1,1,3.31H83a3.89,3.89,0,0,0,.81,2.39,2.64,2.64,0,0,0,2.05.86,2.81,2.81,0,0,0,1.83-.59,3.11,3.11,0,0,0,.87-1.46h1a3.88,3.88,0,0,1-1.1,2,3.68,3.68,0,0,1-2.58.91,3.51,3.51,0,0,1-2.78-1.18A4.53,4.53,0,0,1,82,50.63a4.63,4.63,0,0,1,1-3.06,3.79,3.79,0,0,1,5.74,0ZM83.89,48A3.73,3.73,0,0,0,83,50.13h5.7c-.16-2-1.12-3-2.86-3A2.48,2.48,0,0,0,83.89,48Z"/><path class="cls-1" d="M97.34,47.22a3.18,3.18,0,0,1,.74,2.22v5.33h-.91V53.19A4.26,4.26,0,0,1,93.66,55a2.93,2.93,0,0,1-2-.62,2.12,2.12,0,0,1-.76-1.71,2.46,2.46,0,0,1,1.3-2.31A5.64,5.64,0,0,1,95,49.76h2.11v-.31a2.1,2.1,0,0,0-2.4-2.35,2.91,2.91,0,0,0-1.73.46A2,2,0,0,0,92.14,49H91.2a2.92,2.92,0,0,1,1.17-2.08,4.09,4.09,0,0,1,2.4-.64A3.24,3.24,0,0,1,97.34,47.22Zm-.22,3.31-2.06,0c-2.09,0-3.14.71-3.14,2.09a1.39,1.39,0,0,0,.53,1.12,2.1,2.1,0,0,0,1.41.43,3.41,3.41,0,0,0,2.3-.86,2.46,2.46,0,0,0,1-1.84Z"/><path class="cls-1" d="M102.09,43.83V46.5h2.16v.83h-2.16v5.6a1.24,1.24,0,0,0,.2.78.9.9,0,0,0,.72.23h1v.83h-1.17a1.69,1.69,0,0,1-1.38-.5,2,2,0,0,1-.36-1.34v-5.6H99.38V46.5h1.76V44.23Z"/><path class="cls-1" d="M112,47.6a5.81,5.81,0,0,1,.94,3.31h-6.72A4,4,0,0,0,107,53.3a2.61,2.61,0,0,0,2,.86,2.8,2.8,0,0,0,1.82-.59,3.12,3.12,0,0,0,.88-1.46h1a3.89,3.89,0,0,1-1.11,2,3.67,3.67,0,0,1-2.57.91,3.53,3.53,0,0,1-2.79-1.18,4.58,4.58,0,0,1-1.07-3.18,4.63,4.63,0,0,1,1-3.06,3.46,3.46,0,0,1,2.81-1.3A3.42,3.42,0,0,1,112,47.6Zm-4.9.35a3.65,3.65,0,0,0-.86,2.18h5.69c-.16-2-1.11-3-2.86-3A2.49,2.49,0,0,0,107.1,48Z"/><path class="cls-1" d="M121.81,43.83V46.5H124v.83h-2.16v5.6a1.24,1.24,0,0,0,.19.78.92.92,0,0,0,.72.23h1v.83h-1.17a1.69,1.69,0,0,1-1.38-.5,2,2,0,0,1-.36-1.34v-5.6h-1.76V46.5h1.76V44.23Z"/><path class="cls-1" d="M125.42,43.12h1V48a3.15,3.15,0,0,1,1.15-1.29,2.93,2.93,0,0,1,1.57-.44,2.89,2.89,0,0,1,2.21.84,3.34,3.34,0,0,1,.8,2.38v5.28h-1V49.62a2.75,2.75,0,0,0-.61-1.87,2.28,2.28,0,0,0-1.71-.64,2.21,2.21,0,0,0-1.75.83,3,3,0,0,0-.7,2.05v4.78h-1Z"/><path class="cls-1" d="M140.43,47.6a5.73,5.73,0,0,1,.94,3.31h-6.72a4,4,0,0,0,.82,2.39,2.61,2.61,0,0,0,2.05.86,2.8,2.8,0,0,0,1.82-.59,3,3,0,0,0,.88-1.46h1a3.82,3.82,0,0,1-1.11,2,3.67,3.67,0,0,1-2.57.91,3.51,3.51,0,0,1-2.78-1.18,4.54,4.54,0,0,1-1.08-3.18,4.59,4.59,0,0,1,1-3.06,3.79,3.79,0,0,1,5.74,0Zm-4.9.35a3.65,3.65,0,0,0-.86,2.18h5.7c-.16-2-1.12-3-2.87-3A2.51,2.51,0,0,0,135.53,48Z"/><path class="cls-1" d="M144.45,43.76a.68.68,0,0,1,.24.56.8.8,0,0,1-.26.58.83.83,0,0,1-.56.22.79.79,0,0,1-.82-.8.68.68,0,0,1,.24-.56.77.77,0,0,1,.58-.24A.8.8,0,0,1,144.45,43.76Zm-1.06,2.74h1v8.27h-1Z"/><path class="cls-1" d="M151.52,46.45v1a4.38,4.38,0,0,0-1.27-.18,2.05,2.05,0,0,0-1.79,1,3.61,3.61,0,0,0-.65,2.16v4.37h-1V46.5h1v1.58a3,3,0,0,1,.91-1.23,2.4,2.4,0,0,1,1.6-.58A3.22,3.22,0,0,1,151.52,46.45Z"/><path class="cls-1" d="M158.24,43.35h1V54.77h-1Z"/><path class="cls-1" d="M161.69,43.35h4.07a4.92,4.92,0,0,1,4,1.6A6.13,6.13,0,0,1,171,49.06a5.92,5.92,0,0,1-1.38,4.13,5.25,5.25,0,0,1-4.08,1.58h-3.86Zm1,.86v9.7h2.74a4.53,4.53,0,0,0,3.48-1.3,5,5,0,0,0,1.16-3.55,5.37,5.37,0,0,0-1-3.57,4.28,4.28,0,0,0-3.43-1.28Z"/><path class="cls-1" d="M178.81,48.82h-.94a2,2,0,0,0-.69-1.27,2.7,2.7,0,0,0-1.68-.44,2.74,2.74,0,0,0-1.49.36,1.17,1.17,0,0,0-.57,1,1.13,1.13,0,0,0,.73,1,10.86,10.86,0,0,0,1.75.58,8.23,8.23,0,0,1,2.14.77,1.86,1.86,0,0,1,1,1.66c0,1.68-1.12,2.51-3.36,2.51s-3.28-.94-3.47-2.83h.95a2.24,2.24,0,0,0,.76,1.57,2.87,2.87,0,0,0,1.73.43c1.6,0,2.4-.54,2.4-1.63a1.24,1.24,0,0,0-.81-1.15,11.65,11.65,0,0,0-1.84-.58,8,8,0,0,1-2-.73,1.76,1.76,0,0,1-.94-1.59,1.84,1.84,0,0,1,.89-1.61,3.69,3.69,0,0,1,2.18-.6C177.48,46.27,178.58,47.12,178.81,48.82Z"/><path class="cls-1" d="M192,47.22a3.18,3.18,0,0,1,.73,2.22v5.33h-.91V53.19a4.29,4.29,0,0,1-1.34,1.23,4.2,4.2,0,0,1-2.16.57,3,3,0,0,1-2-.62,2.14,2.14,0,0,1-.75-1.71,2.45,2.45,0,0,1,1.29-2.31,5.67,5.67,0,0,1,2.77-.59h2.11v-.31a2.1,2.1,0,0,0-2.4-2.35,2.88,2.88,0,0,0-1.72.46A2,2,0,0,0,186.8,49h-1A2.92,2.92,0,0,1,187,46.91a4.11,4.11,0,0,1,2.4-.64A3.28,3.28,0,0,1,192,47.22Zm-.23,3.31-2.06,0c-2.09,0-3.14.71-3.14,2.09a1.39,1.39,0,0,0,.53,1.12,2.1,2.1,0,0,0,1.41.43,3.41,3.41,0,0,0,2.3-.86,2.46,2.46,0,0,0,1-1.84Z"/><path class="cls-1" d="M201.47,49.68v5.09h-1v-5c0-1.76-.78-2.64-2.35-2.64a2.2,2.2,0,0,0-1.67.72,2.9,2.9,0,0,0-.78,2v5h-1V46.5h1v1.36a3.4,3.4,0,0,1,1.12-1.17,2.9,2.9,0,0,1,1.57-.42Q201.47,46.27,201.47,49.68Z"/><path class="cls-1" d="M209.73,43.12h1V54.77h-.92V53.14A3,3,0,0,1,206.88,55a3.33,3.33,0,0,1-2.8-1.31,5.48,5.48,0,0,1,0-6.08,3.26,3.26,0,0,1,2.75-1.33,3,3,0,0,1,2.9,2Zm-4.9,5a4,4,0,0,0-.69,2.48,4.27,4.27,0,0,0,.67,2.49A2.49,2.49,0,0,0,207,54.18a2.44,2.44,0,0,0,2.1-1,4,4,0,0,0,.69-2.4v-.19a4,4,0,0,0-.74-2.48,2.4,2.4,0,0,0-2-1A2.52,2.52,0,0,0,204.83,48.15Z"/><path class="cls-1" d="M218,43.12h1V48a3.17,3.17,0,0,1,1.16-1.29,2.93,2.93,0,0,1,1.57-.44,2.86,2.86,0,0,1,2.2.84,3.3,3.3,0,0,1,.8,2.38v5.28h-1V49.62a2.7,2.7,0,0,0-.61-1.87,2.25,2.25,0,0,0-1.71-.64,2.2,2.2,0,0,0-1.74.83A3,3,0,0,0,219,50v4.78h-1Z"/><path class="cls-1" d="M232.83,47.22a3.18,3.18,0,0,1,.74,2.22v5.33h-.92V53.19a4.29,4.29,0,0,1-1.34,1.23,4.2,4.2,0,0,1-2.16.57,3,3,0,0,1-2-.62,2.14,2.14,0,0,1-.75-1.71,2.44,2.44,0,0,1,1.3-2.31,5.6,5.6,0,0,1,2.76-.59h2.11v-.31a2.09,2.09,0,0,0-2.4-2.35,2.88,2.88,0,0,0-1.72.46,2,2,0,0,0-.85,1.44h-.95a2.92,2.92,0,0,1,1.17-2.08,4.11,4.11,0,0,1,2.4-.64A3.28,3.28,0,0,1,232.83,47.22Zm-.23,3.31-2.06,0c-2.09,0-3.14.71-3.14,2.09a1.39,1.39,0,0,0,.53,1.12,2.1,2.1,0,0,0,1.41.43,3.45,3.45,0,0,0,2.31-.86,2.48,2.48,0,0,0,.95-1.84Z"/><path class="cls-1" d="M234.65,46.5h1.06l2.61,7,2.59-7H242l-3.17,8.27h-1Z"/><path class="cls-1" d="M249.36,47.6a5.81,5.81,0,0,1,.94,3.31h-6.72a3.83,3.83,0,0,0,.82,2.39,2.61,2.61,0,0,0,2,.86,2.81,2.81,0,0,0,1.83-.59,3.12,3.12,0,0,0,.88-1.46h1a3.88,3.88,0,0,1-1.1,2,3.68,3.68,0,0,1-2.58.91,3.51,3.51,0,0,1-2.78-1.18,4.58,4.58,0,0,1-1.07-3.18,4.63,4.63,0,0,1,1-3.06,3.8,3.8,0,0,1,5.75,0Zm-4.9.35a3.65,3.65,0,0,0-.86,2.18h5.69c-.16-2-1.11-3-2.86-3A2.49,2.49,0,0,0,244.46,48Z"/><path class="cls-1" d="M262,43.35v.84h-1.4a1.15,1.15,0,0,0-.91.32,1.51,1.51,0,0,0-.29,1v1h2.48v.83H259.4v7.44h-1V47.33h-2.2V46.5h2.2v-1a2.15,2.15,0,0,1,.52-1.58,2,2,0,0,1,1.56-.59Z"/><path class="cls-1" d="M263.08,46.5h1v5a3,3,0,0,0,.55,1.94,2.19,2.19,0,0,0,1.77.67,2.31,2.31,0,0,0,1.68-.73,2.92,2.92,0,0,0,.82-1.91v-5h1v8.27h-1V53.38A3,3,0,0,1,266.11,55q-3,0-3-3.39Z"/><path class="cls-1" d="M272.14,43.12h1V54.77h-1Z"/><path class="cls-1" d="M275.72,43.12h1V54.77h-1Z"/><path class="cls-1" d="M290.24,47a3.18,3.18,0,0,1,1.13,2.21h-1a2.35,2.35,0,0,0-.83-1.57,2.77,2.77,0,0,0-1.76-.52,2.48,2.48,0,0,0-2.08,1,4.81,4.81,0,0,0,0,5.11,2.47,2.47,0,0,0,2.09.94,2.44,2.44,0,0,0,2.66-2.35h.94a3.74,3.74,0,0,1-1.18,2.38,3.53,3.53,0,0,1-2.42.8A3.44,3.44,0,0,1,285,53.75a4.65,4.65,0,0,1-.95-3.06,4.79,4.79,0,0,1,1-3.1,3.37,3.37,0,0,1,2.83-1.32A3.85,3.85,0,0,1,290.24,47Z"/><path class="cls-1" d="M299.48,47.59a5.1,5.1,0,0,1,0,6.09,3.92,3.92,0,0,1-5.85,0,4.64,4.64,0,0,1-1-3,4.59,4.59,0,0,1,1-3,3.57,3.57,0,0,1,2.92-1.32A3.61,3.61,0,0,1,299.48,47.59Zm-5.15.6a3.88,3.88,0,0,0-.73,2.45,3.82,3.82,0,0,0,.73,2.43,2.84,2.84,0,0,0,4.47,0,4,4,0,0,0,.73-2.43,4,4,0,0,0-.73-2.45,2.85,2.85,0,0,0-4.47,0Z"/><path class="cls-1" d="M308.91,49.68v5.09h-1v-5c0-1.76-.79-2.64-2.35-2.64a2.19,2.19,0,0,0-1.67.72,2.9,2.9,0,0,0-.78,2v5h-1V46.5h1v1.36a3.4,3.4,0,0,1,1.12-1.17,2.89,2.89,0,0,1,1.56-.42Q308.9,46.27,308.91,49.68Z"/><path class="cls-1" d="M312.92,43.83V46.5h2.16v.83h-2.16v5.6a1.24,1.24,0,0,0,.2.78.9.9,0,0,0,.72.23h1v.83h-1.17a1.69,1.69,0,0,1-1.38-.5,2,2,0,0,1-.37-1.34v-5.6H310.2V46.5H312V44.23Z"/><path class="cls-1" d="M321.21,46.45v1a4.26,4.26,0,0,0-1.26-.18,2.06,2.06,0,0,0-1.8,1,3.61,3.61,0,0,0-.65,2.16v4.37h-1V46.5h1v1.58a3.05,3.05,0,0,1,.91-1.23,2.4,2.4,0,0,1,1.6-.58A3.22,3.22,0,0,1,321.21,46.45Z"/><path class="cls-1" d="M328.84,47.59a5.1,5.1,0,0,1,0,6.09,3.92,3.92,0,0,1-5.85,0,4.64,4.64,0,0,1-1-3,4.59,4.59,0,0,1,1-3,3.56,3.56,0,0,1,2.91-1.32A3.62,3.62,0,0,1,328.84,47.59Zm-5.15.6a3.88,3.88,0,0,0-.73,2.45,3.82,3.82,0,0,0,.73,2.43,2.83,2.83,0,0,0,4.46,0,3.94,3.94,0,0,0,.74-2.43,3.9,3.9,0,0,0-.74-2.45,2.84,2.84,0,0,0-4.46,0Z"/><path class="cls-1" d="M331.85,43.12h1V54.77h-1Z"/><path class="cls-1" d="M347,47.59a5.1,5.1,0,0,1,0,6.09,3.92,3.92,0,0,1-5.85,0,4.64,4.64,0,0,1-1-3,4.59,4.59,0,0,1,1-3,3.56,3.56,0,0,1,2.91-1.32A3.62,3.62,0,0,1,347,47.59Zm-5.15.6a3.88,3.88,0,0,0-.74,2.45,3.83,3.83,0,0,0,.74,2.43,2.63,2.63,0,0,0,2.22,1.09,2.66,2.66,0,0,0,2.25-1.09,4,4,0,0,0,.73-2.43,4,4,0,0,0-.73-2.45,2.65,2.65,0,0,0-2.25-1.08A2.61,2.61,0,0,0,341.85,48.19Z"/><path class="cls-1" d="M354.54,43.35v.84h-1.39a1.14,1.14,0,0,0-.91.32,1.46,1.46,0,0,0-.29,1v1h2.48v.83H352v7.44h-1V47.33h-2.21V46.5H351v-1a2.19,2.19,0,0,1,.51-1.58,2,2,0,0,1,1.57-.59Z"/><path class="cls-1" d="M57.45,71.83V74.5h2.16v.83H57.45v5.6a1.24,1.24,0,0,0,.19.78.92.92,0,0,0,.72.23h1v.83H58.23a1.65,1.65,0,0,1-1.37-.5,2,2,0,0,1-.37-1.34v-5.6H54.73V74.5h1.76V72.23Z"/><path class="cls-1" d="M61.06,71.12h1V76a3.15,3.15,0,0,1,1.15-1.29,2.93,2.93,0,0,1,1.57-.44,2.87,2.87,0,0,1,2.21.84,3.34,3.34,0,0,1,.8,2.38v5.28h-1V77.62a2.7,2.7,0,0,0-.61-1.87,2.28,2.28,0,0,0-1.71-.64,2.22,2.22,0,0,0-1.75.83,3,3,0,0,0-.7,2v4.78h-1Z"/><path class="cls-1" d="M76.07,75.6a5.81,5.81,0,0,1,1,3.31H70.3a3.89,3.89,0,0,0,.81,2.39,2.63,2.63,0,0,0,2,.86A2.78,2.78,0,0,0,75,81.57a3,3,0,0,0,.88-1.46h1a3.88,3.88,0,0,1-1.1,2,3.7,3.7,0,0,1-2.58.91,3.51,3.51,0,0,1-2.78-1.18,4.54,4.54,0,0,1-1.08-3.18,4.64,4.64,0,0,1,1-3.06,3.79,3.79,0,0,1,5.74,0ZM71.18,76a3.66,3.66,0,0,0-.87,2.18H76c-.16-2-1.12-3-2.87-3A2.47,2.47,0,0,0,71.18,76Z"/><path class="cls-1" d="M90,76.82h-.94a2,2,0,0,0-.69-1.27,2.7,2.7,0,0,0-1.68-.44,2.74,2.74,0,0,0-1.49.36,1.17,1.17,0,0,0-.57,1,1.13,1.13,0,0,0,.73,1,10.51,10.51,0,0,0,1.75.58,8.38,8.38,0,0,1,2.14.77,1.86,1.86,0,0,1,1,1.66c0,1.68-1.12,2.51-3.36,2.51s-3.28-.94-3.47-2.83h.94a2.29,2.29,0,0,0,.77,1.57,2.87,2.87,0,0,0,1.73.43c1.6,0,2.4-.54,2.4-1.63a1.24,1.24,0,0,0-.82-1.15,11,11,0,0,0-1.84-.58,7.9,7.9,0,0,1-2-.73,1.76,1.76,0,0,1-.95-1.59,1.85,1.85,0,0,1,.9-1.61,3.67,3.67,0,0,1,2.18-.6C88.66,74.27,89.76,75.12,90,76.82Z"/><path class="cls-1" d="M97.85,75.22a3.18,3.18,0,0,1,.73,2.22v5.33h-.91V81.19a4.29,4.29,0,0,1-1.34,1.23,4.2,4.2,0,0,1-2.16.57,3,3,0,0,1-2-.62,2.14,2.14,0,0,1-.75-1.71,2.45,2.45,0,0,1,1.29-2.31,5.67,5.67,0,0,1,2.77-.59h2.11v-.31a2.1,2.1,0,0,0-2.4-2.35,2.94,2.94,0,0,0-1.73.46A2,2,0,0,0,92.65,77h-1a2.92,2.92,0,0,1,1.17-2.08,4.11,4.11,0,0,1,2.4-.64A3.28,3.28,0,0,1,97.85,75.22Zm-.23,3.31-2.06,0c-2.09,0-3.14.71-3.14,2.09A1.39,1.39,0,0,0,93,81.76a2.1,2.1,0,0,0,1.41.43,3.41,3.41,0,0,0,2.3-.86,2.46,2.46,0,0,0,1-1.84Z"/><path class="cls-1" d="M105.43,71.35v.84H104a1.14,1.14,0,0,0-.91.32,1.51,1.51,0,0,0-.29,1v1h2.48v.83h-2.48v7.44h-1V75.33H99.67V74.5h2.21v-1a2.19,2.19,0,0,1,.51-1.58,2,2,0,0,1,1.57-.59Z"/><path class="cls-1" d="M112.81,75.6a5.81,5.81,0,0,1,.94,3.31H107a3.89,3.89,0,0,0,.82,2.39,2.61,2.61,0,0,0,2.05.86,2.8,2.8,0,0,0,1.82-.59,3.12,3.12,0,0,0,.88-1.46h1a3.81,3.81,0,0,1-1.1,2,3.67,3.67,0,0,1-2.57.91,3.53,3.53,0,0,1-2.79-1.18A4.58,4.58,0,0,1,106,78.63a4.63,4.63,0,0,1,1-3.06,3.8,3.8,0,0,1,5.75,0Zm-4.9.35a3.65,3.65,0,0,0-.86,2.18h5.69c-.16-2-1.11-3-2.86-3A2.49,2.49,0,0,0,107.91,76Z"/><path class="cls-1" d="M117.29,71.83V74.5h2.16v.83h-2.16v5.6a1.24,1.24,0,0,0,.19.78.92.92,0,0,0,.72.23h1v.83h-1.17a1.65,1.65,0,0,1-1.37-.5,2,2,0,0,1-.37-1.34v-5.6h-1.76V74.5h1.76V72.23Z"/><path class="cls-1" d="M120,74.5h1l2.71,6.89,2.67-6.89h1L122.9,85.94h-1l1.39-3.38Z"/><path class="cls-1" d="M140,75.22a3.18,3.18,0,0,1,.74,2.22v5.33h-.92V81.19a4.29,4.29,0,0,1-1.34,1.23,4.2,4.2,0,0,1-2.16.57,3,3,0,0,1-2-.62,2.14,2.14,0,0,1-.75-1.71,2.45,2.45,0,0,1,1.29-2.31,5.67,5.67,0,0,1,2.77-.59h2.12v-.31a2.11,2.11,0,0,0-2.41-2.35,2.88,2.88,0,0,0-1.72.46,2,2,0,0,0-.85,1.44h-.94A2.88,2.88,0,0,1,135,74.91a4.11,4.11,0,0,1,2.4-.64A3.27,3.27,0,0,1,140,75.22Zm-.22,3.31-2.07,0c-2.09,0-3.14.71-3.14,2.09a1.39,1.39,0,0,0,.53,1.12,2.1,2.1,0,0,0,1.41.43,3.41,3.41,0,0,0,2.3-.86,2.47,2.47,0,0,0,1-1.84Z"/><path class="cls-1" d="M149.43,77.68v5.09h-1v-5c0-1.76-.78-2.64-2.35-2.64a2.2,2.2,0,0,0-1.67.72,2.94,2.94,0,0,0-.78,2v5h-1V74.5h1v1.36a3.4,3.4,0,0,1,1.12-1.17,2.9,2.9,0,0,1,1.57-.42Q149.44,74.27,149.43,77.68Z"/><path class="cls-1" d="M157.69,71.12h1V82.77h-.91V81.14a3,3,0,0,1-2.9,1.85,3.33,3.33,0,0,1-2.8-1.31,5.53,5.53,0,0,1,0-6.08,3.26,3.26,0,0,1,2.75-1.33,3,3,0,0,1,2.9,2Zm-4.9,5a4,4,0,0,0-.69,2.48,4.27,4.27,0,0,0,.67,2.49,2.5,2.5,0,0,0,2.16,1.06,2.44,2.44,0,0,0,2.1-1,4,4,0,0,0,.69-2.4v-.19a4,4,0,0,0-.74-2.48,2.39,2.39,0,0,0-2-1A2.52,2.52,0,0,0,152.79,76.15Z"/><path class="cls-1" d="M172.1,76.82h-.94a2,2,0,0,0-.69-1.27,2.7,2.7,0,0,0-1.68-.44,2.74,2.74,0,0,0-1.49.36,1.17,1.17,0,0,0-.57,1,1.13,1.13,0,0,0,.73,1,10.51,10.51,0,0,0,1.75.58,8.38,8.38,0,0,1,2.14.77,1.86,1.86,0,0,1,1,1.66c0,1.68-1.12,2.51-3.36,2.51s-3.28-.94-3.47-2.83h.94a2.29,2.29,0,0,0,.77,1.57,2.87,2.87,0,0,0,1.73.43c1.6,0,2.4-.54,2.4-1.63a1.24,1.24,0,0,0-.82-1.15,11,11,0,0,0-1.84-.58,7.9,7.9,0,0,1-2-.73,1.76,1.76,0,0,1-1-1.59,1.85,1.85,0,0,1,.9-1.61,3.69,3.69,0,0,1,2.18-.6C170.77,74.27,171.87,75.12,172.1,76.82Z"/><path class="cls-1" d="M180.17,75.6a5.81,5.81,0,0,1,.94,3.31h-6.72a3.89,3.89,0,0,0,.82,2.39,2.61,2.61,0,0,0,2,.86,2.81,2.81,0,0,0,1.83-.59,3.12,3.12,0,0,0,.88-1.46h1a3.88,3.88,0,0,1-1.1,2,3.68,3.68,0,0,1-2.58.91,3.51,3.51,0,0,1-2.78-1.18,4.58,4.58,0,0,1-1.07-3.18,4.63,4.63,0,0,1,1-3.06,3.8,3.8,0,0,1,5.75,0Zm-4.9.35a3.65,3.65,0,0,0-.86,2.18h5.69c-.16-2-1.11-3-2.86-3A2.49,2.49,0,0,0,175.27,76Z"/><path class="cls-1" d="M188.55,75a3.15,3.15,0,0,1,1.14,2.21h-1a2.4,2.4,0,0,0-.84-1.57,2.75,2.75,0,0,0-1.76-.52,2.49,2.49,0,0,0-2.08,1,4.81,4.81,0,0,0,0,5.11,2.47,2.47,0,0,0,2.1.94,2.43,2.43,0,0,0,2.65-2.35h.95a3.74,3.74,0,0,1-1.19,2.38,3.51,3.51,0,0,1-2.41.8,3.45,3.45,0,0,1-2.85-1.24,4.64,4.64,0,0,1-.94-3.06,4.79,4.79,0,0,1,1-3.1,3.4,3.4,0,0,1,2.83-1.32A3.83,3.83,0,0,1,188.55,75Z"/><path class="cls-1" d="M191.25,74.5h1v5a3,3,0,0,0,.55,1.94,2.19,2.19,0,0,0,1.77.67,2.31,2.31,0,0,0,1.68-.73,2.92,2.92,0,0,0,.82-1.91v-5h1v8.27h-1V81.38A3,3,0,0,1,194.28,83q-3,0-3-3.39Z"/><path class="cls-1" d="M204.68,74.45v1a4.38,4.38,0,0,0-1.27-.18,2.05,2.05,0,0,0-1.79,1A3.55,3.55,0,0,0,201,78.4v4.37h-1V74.5h1v1.58a3,3,0,0,1,.91-1.23,2.4,2.4,0,0,1,1.6-.58A3.22,3.22,0,0,1,204.68,74.45Z"/><path class="cls-1" d="M207.3,71.76a.68.68,0,0,1,.24.56.79.79,0,0,1-.25.58.85.85,0,0,1-.56.22.78.78,0,0,1-.58-.22.78.78,0,0,1-.24-.58.68.68,0,0,1,.24-.56.75.75,0,0,1,.58-.24A.78.78,0,0,1,207.3,71.76Zm-1.06,2.74h1v8.27h-1Z"/><path class="cls-1" d="M211.7,71.83V74.5h2.16v.83H211.7v5.6a1.31,1.31,0,0,0,.19.78.92.92,0,0,0,.72.23h1v.83h-1.16a1.69,1.69,0,0,1-1.38-.5,2,2,0,0,1-.37-1.34v-5.6H209V74.5h1.76V72.23Z"/><path class="cls-1" d="M214.39,74.5h1.06l2.7,6.89,2.67-6.89h1.06l-4.56,11.44h-1l1.39-3.38Z"/><path class="cls-1" d="M234.84,75.59a5.1,5.1,0,0,1,0,6.09,3.93,3.93,0,0,1-5.86,0,4.64,4.64,0,0,1-1-3,4.59,4.59,0,0,1,1-3,3.54,3.54,0,0,1,2.91-1.32A3.63,3.63,0,0,1,234.84,75.59Zm-5.15.6a3.82,3.82,0,0,0-.74,2.45,3.77,3.77,0,0,0,.74,2.43,2.83,2.83,0,0,0,4.46,0,4,4,0,0,0,.74-2.43,4,4,0,0,0-.74-2.45,2.84,2.84,0,0,0-4.46,0Z"/><path class="cls-1" d="M242.37,71.35v.84H241a1.14,1.14,0,0,0-.91.32,1.51,1.51,0,0,0-.29,1v1h2.48v.83h-2.48v7.44h-1V75.33h-2.21V74.5h2.21v-1a2.19,2.19,0,0,1,.51-1.58,2,2,0,0,1,1.57-.59Z"/><path class="cls-1" d="M245.46,71.83V74.5h2.16v.83h-2.16v5.6a1.24,1.24,0,0,0,.19.78.92.92,0,0,0,.72.23h1v.83h-1.17a1.67,1.67,0,0,1-1.37-.5,2,2,0,0,1-.37-1.34v-5.6h-1.76V74.5h1.76V72.23Z"/><path class="cls-1" d="M249.08,71.12h1V76a3.17,3.17,0,0,1,1.16-1.29,3.18,3.18,0,0,1,3.77.4,3.34,3.34,0,0,1,.8,2.38v5.28h-1V77.62a2.7,2.7,0,0,0-.61-1.87,2.25,2.25,0,0,0-1.71-.64,2.2,2.2,0,0,0-1.74.83,3,3,0,0,0-.71,2v4.78h-1Z"/><path class="cls-1" d="M263.88,75.22a3.18,3.18,0,0,1,.73,2.22v5.33h-.91V81.19a4.29,4.29,0,0,1-1.34,1.23,4.2,4.2,0,0,1-2.16.57,3,3,0,0,1-2-.62,2.14,2.14,0,0,1-.75-1.71,2.45,2.45,0,0,1,1.29-2.31,5.67,5.67,0,0,1,2.77-.59h2.11v-.31a2.1,2.1,0,0,0-2.4-2.35,2.94,2.94,0,0,0-1.73.46,2,2,0,0,0-.84,1.44h-.95a2.92,2.92,0,0,1,1.17-2.08,4.11,4.11,0,0,1,2.4-.64A3.28,3.28,0,0,1,263.88,75.22Zm-.23,3.31-2.06,0c-2.09,0-3.14.71-3.14,2.09a1.39,1.39,0,0,0,.53,1.12,2.1,2.1,0,0,0,1.41.43,3.41,3.41,0,0,0,2.3-.86,2.46,2.46,0,0,0,1-1.84Z"/><path class="cls-1" d="M268.63,71.83V74.5h2.16v.83h-2.16v5.6a1.24,1.24,0,0,0,.19.78.92.92,0,0,0,.72.23h1v.83h-1.17a1.65,1.65,0,0,1-1.37-.5,2,2,0,0,1-.37-1.34v-5.6h-1.76V74.5h1.76V72.23Z"/><path class="cls-1" d="M277.88,71.35h1V82.77h-1Z"/><path class="cls-1" d="M281.33,71.35h4.07a4.92,4.92,0,0,1,4,1.6,6.19,6.19,0,0,1,1.24,4.11,5.92,5.92,0,0,1-1.38,4.13,5.25,5.25,0,0,1-4.08,1.58h-3.86Zm1,.86v9.7H285a4.53,4.53,0,0,0,3.49-1.3,5,5,0,0,0,1.15-3.55,5.38,5.38,0,0,0-1-3.57,4.28,4.28,0,0,0-3.43-1.28Z"/><path class="cls-1" d="M294,81.39a.73.73,0,0,1,.24.58.8.8,0,0,1-.25.58.83.83,0,0,1-.56.22.75.75,0,0,1-.58-.24.77.77,0,0,1-.24-.56.73.73,0,0,1,.24-.58.78.78,0,0,1,.58-.22A.81.81,0,0,1,294,81.39Z"/><path class="cls-1" d="M302,71.35H306a5,5,0,0,1,4,1.6,6.19,6.19,0,0,1,1.23,4.11,5.92,5.92,0,0,1-1.38,4.13,5.25,5.25,0,0,1-4.08,1.58H302Zm1,.86v9.7h2.74a4.55,4.55,0,0,0,3.49-1.3,5.09,5.09,0,0,0,1.15-3.55,5.37,5.37,0,0,0-1-3.57,4.27,4.27,0,0,0-3.42-1.28Z"/><path class="cls-1" d="M314.5,71.76a.68.68,0,0,1,.24.56.8.8,0,0,1-.26.58.81.81,0,0,1-.56.22.77.77,0,0,1-.57-.22.78.78,0,0,1-.24-.58.68.68,0,0,1,.24-.56.75.75,0,0,1,.57-.24A.78.78,0,0,1,314.5,71.76Zm-1.06,2.74h1v8.27h-1Z"/><path class="cls-1" d="M323.27,76.16V74.5h1v7.66q0,4-3.71,4a4,4,0,0,1-2.52-.7,3,3,0,0,1-1.05-2h1a2.15,2.15,0,0,0,.77,1.38,2.88,2.88,0,0,0,1.84.51c1.83,0,2.75-1,2.75-3.09V80.69a3.08,3.08,0,0,1-3,1.89,3.45,3.45,0,0,1-2.77-1.23,4.91,4.91,0,0,1,0-5.83,3.43,3.43,0,0,1,2.77-1.25A3.08,3.08,0,0,1,323.27,76.16Zm-5-.08a3.59,3.59,0,0,0-.73,2.35,3.75,3.75,0,0,0,.68,2.31,2.55,2.55,0,0,0,2.16,1,2.6,2.6,0,0,0,2.15-1,4.21,4.21,0,0,0,0-4.71,2.79,2.79,0,0,0-4.26,0Z"/><path class="cls-1" d="M327.78,71.76a.68.68,0,0,1,.24.56.8.8,0,0,1-.26.58.81.81,0,0,1-.56.22.77.77,0,0,1-.57-.22.78.78,0,0,1-.24-.58.68.68,0,0,1,.24-.56.75.75,0,0,1,.57-.24A.78.78,0,0,1,327.78,71.76Zm-1.06,2.74h1v8.27h-1Z"/><path class="cls-1" d="M332.18,71.83V74.5h2.16v.83h-2.16v5.6a1.24,1.24,0,0,0,.19.78.92.92,0,0,0,.72.23h1v.83H333a1.65,1.65,0,0,1-1.37-.5,2,2,0,0,1-.37-1.34v-5.6h-1.76V74.5h1.76V72.23Z"/><path class="cls-1" d="M341.88,75.22a3.18,3.18,0,0,1,.73,2.22v5.33h-.91V81.19a4.29,4.29,0,0,1-1.34,1.23,4.2,4.2,0,0,1-2.16.57,3,3,0,0,1-2-.62,2.14,2.14,0,0,1-.75-1.71,2.45,2.45,0,0,1,1.29-2.31,5.67,5.67,0,0,1,2.77-.59h2.11v-.31a2.1,2.1,0,0,0-2.4-2.35,2.94,2.94,0,0,0-1.73.46,1.94,1.94,0,0,0-.84,1.44h-.95a2.92,2.92,0,0,1,1.17-2.08,4.11,4.11,0,0,1,2.4-.64A3.28,3.28,0,0,1,341.88,75.22Zm-.23,3.31-2.06,0c-2.09,0-3.14.71-3.14,2.09a1.39,1.39,0,0,0,.53,1.12,2.1,2.1,0,0,0,1.41.43,3.41,3.41,0,0,0,2.3-.86,2.46,2.46,0,0,0,1-1.84Z"/><path class="cls-1" d="M344.93,71.12h1V82.77h-1Z"/><path class="cls-1" d="M353.84,71.35h1V82.77h-1Z"/><path class="cls-1" d="M357.3,71.35h4.06a4.94,4.94,0,0,1,4,1.6,6.19,6.19,0,0,1,1.23,4.11,6,6,0,0,1-1.37,4.13,5.26,5.26,0,0,1-4.09,1.58H357.3Zm1,.86v9.7H361a4.53,4.53,0,0,0,3.49-1.3,5,5,0,0,0,1.15-3.55,5.32,5.32,0,0,0-1-3.57,4.24,4.24,0,0,0-3.42-1.28Z"/><path class="cls-1" d="M65,99.76a.68.68,0,0,1,.24.56.79.79,0,0,1-.25.58.83.83,0,0,1-.56.22.78.78,0,0,1-.58-.22.78.78,0,0,1-.24-.58.68.68,0,0,1,.24-.56.75.75,0,0,1,.58-.24A.78.78,0,0,1,65,99.76Zm-1,2.74h1v8.27H64Z"/><path class="cls-1" d="M73.54,104.82h-1a1.91,1.91,0,0,0-.69-1.27,3.33,3.33,0,0,0-3.16-.08,1.16,1.16,0,0,0-.58,1,1.12,1.12,0,0,0,.74,1,10.65,10.65,0,0,0,1.74.58,8.23,8.23,0,0,1,2.14.77,1.85,1.85,0,0,1,1,1.66c0,1.68-1.12,2.51-3.36,2.51s-3.28-.94-3.48-2.83h1a2.21,2.21,0,0,0,.77,1.57,2.83,2.83,0,0,0,1.72.43c1.6,0,2.4-.54,2.4-1.63a1.24,1.24,0,0,0-.81-1.15,11.29,11.29,0,0,0-1.84-.58,8.17,8.17,0,0,1-2-.73,1.76,1.76,0,0,1-.94-1.59,1.86,1.86,0,0,1,.89-1.61,3.69,3.69,0,0,1,2.18-.6Q73.18,102.27,73.54,104.82Z"/><path class="cls-1" d="M80.94,99.12h1v11.65h-1Z"/><path class="cls-1" d="M85.76,99.76a.68.68,0,0,1,.24.56.8.8,0,0,1-.26.58.81.81,0,0,1-.56.22.77.77,0,0,1-.57-.22.78.78,0,0,1-.24-.58.68.68,0,0,1,.24-.56.75.75,0,0,1,.57-.24A.78.78,0,0,1,85.76,99.76ZM84.7,102.5h1v8.27h-1Z"/><path class="cls-1" d="M88.16,99.12h1v7.55l4.59-4.17H95l-3.63,3.28,4,5H94.13L90.7,106.4l-1.58,1.44v2.93h-1Z"/><path class="cls-1" d="M102.69,103.6a5.81,5.81,0,0,1,.94,3.31H96.91a3.89,3.89,0,0,0,.82,2.39,2.61,2.61,0,0,0,2,.86,2.8,2.8,0,0,0,1.82-.59,3.12,3.12,0,0,0,.88-1.46h1a3.89,3.89,0,0,1-1.11,2,3.67,3.67,0,0,1-2.57.91A3.51,3.51,0,0,1,97,109.81a4.58,4.58,0,0,1-1.07-3.18,4.63,4.63,0,0,1,1-3.06,3.8,3.8,0,0,1,5.75,0Zm-4.9.35a3.65,3.65,0,0,0-.86,2.18h5.69c-.16-2-1.11-3-2.86-3A2.49,2.49,0,0,0,97.79,104Z"/><path class="cls-1" d="M116.57,103.22a3.14,3.14,0,0,1,.74,2.22v5.33h-.91v-1.58a4.22,4.22,0,0,1-3.5,1.8,2.94,2.94,0,0,1-2-.62,2.15,2.15,0,0,1-.76-1.71,2.46,2.46,0,0,1,1.3-2.31,5.64,5.64,0,0,1,2.77-.59h2.11v-.31a2.1,2.1,0,0,0-2.4-2.35,2.94,2.94,0,0,0-1.73.46,1.94,1.94,0,0,0-.84,1.44h-.95a2.92,2.92,0,0,1,1.17-2.08,4.11,4.11,0,0,1,2.4-.64A3.24,3.24,0,0,1,116.57,103.22Zm-.22,3.31-2.06,0c-2.09,0-3.14.71-3.14,2.09a1.39,1.39,0,0,0,.53,1.12,2.1,2.1,0,0,0,1.41.43,3.41,3.41,0,0,0,2.3-.86,2.46,2.46,0,0,0,1-1.84Z"/><path class="cls-1" d="M124.65,99.12h1v7.55l4.6-4.17h1.31l-3.63,3.28,4,5h-1.27l-3.42-4.37-1.59,1.44v2.93h-1Z"/><path class="cls-1" d="M139.18,103.6a5.81,5.81,0,0,1,.95,3.31h-6.72a3.89,3.89,0,0,0,.81,2.39,2.64,2.64,0,0,0,2.05.86,2.78,2.78,0,0,0,1.82-.59,3.14,3.14,0,0,0,.89-1.46h1a3.88,3.88,0,0,1-1.1,2,3.7,3.7,0,0,1-2.58.91,3.51,3.51,0,0,1-2.78-1.18,4.54,4.54,0,0,1-1.08-3.18,4.64,4.64,0,0,1,1-3.06,3.79,3.79,0,0,1,5.74,0Zm-4.89.35a3.73,3.73,0,0,0-.87,2.18h5.7c-.16-2-1.12-3-2.87-3A2.47,2.47,0,0,0,134.29,104Z"/><path class="cls-1" d="M140.74,102.5h1l2.7,6.89,2.68-6.89h1.05l-4.56,11.44h-1l1.39-3.38Z"/><path class="cls-1" d="M156.64,99.83v2.67h2.16v.83h-2.16v5.6a1.24,1.24,0,0,0,.19.78.92.92,0,0,0,.72.23h1v.83h-1.17a1.65,1.65,0,0,1-1.37-.5,2,2,0,0,1-.37-1.34v-5.6h-1.76v-.83h1.76v-2.27Z"/><path class="cls-1" d="M166.8,103.59a5.1,5.1,0,0,1,0,6.09,3.93,3.93,0,0,1-5.86,0,4.64,4.64,0,0,1-1-3,4.59,4.59,0,0,1,1-3,3.54,3.54,0,0,1,2.91-1.32A3.63,3.63,0,0,1,166.8,103.59Zm-5.15.6a3.88,3.88,0,0,0-.74,2.45,3.83,3.83,0,0,0,.74,2.43,2.83,2.83,0,0,0,4.46,0,4,4,0,0,0,.74-2.43,4,4,0,0,0-.74-2.45,2.84,2.84,0,0,0-4.46,0Z"/><path class="cls-1" d="M176.83,99.83v2.67H179v.83h-2.16v5.6a1.24,1.24,0,0,0,.19.78.92.92,0,0,0,.72.23h1v.83h-1.17a1.67,1.67,0,0,1-1.37-.5,2,2,0,0,1-.37-1.34v-5.6h-1.76v-.83h1.76v-2.27Z"/><path class="cls-1" d="M180.45,99.12h1V104a3.15,3.15,0,0,1,1.15-1.29,3,3,0,0,1,1.57-.44,2.87,2.87,0,0,1,2.21.84,3.34,3.34,0,0,1,.8,2.38v5.28h-1v-5.15a2.7,2.7,0,0,0-.61-1.87,2.25,2.25,0,0,0-1.71-.64,2.2,2.2,0,0,0-1.74.83,3,3,0,0,0-.71,2v4.78h-1Z"/><path class="cls-1" d="M195.45,103.6a5.73,5.73,0,0,1,1,3.31h-6.72a3.89,3.89,0,0,0,.81,2.39,2.64,2.64,0,0,0,2,.86,2.81,2.81,0,0,0,1.83-.59,3.21,3.21,0,0,0,.88-1.46h1a3.88,3.88,0,0,1-1.1,2,3.68,3.68,0,0,1-2.58.91,3.51,3.51,0,0,1-2.78-1.18,4.53,4.53,0,0,1-1.07-3.18,4.63,4.63,0,0,1,1-3.06,3.79,3.79,0,0,1,5.74,0Zm-4.89.35a3.73,3.73,0,0,0-.87,2.18h5.7c-.16-2-1.11-3-2.86-3A2.48,2.48,0,0,0,190.56,104Z"/><path class="cls-1" d="M197.93,99.12h1v5.12a3,3,0,0,1,2.9-2,3.26,3.26,0,0,1,2.75,1.33,5.53,5.53,0,0,1,0,6.08,3.32,3.32,0,0,1-2.78,1.31,3,3,0,0,1-2.91-1.85v1.63h-.92Zm1.67,5a3.93,3.93,0,0,0-.74,2.48v.19a3.88,3.88,0,0,0,.69,2.4,2.42,2.42,0,0,0,2.1,1,2.52,2.52,0,0,0,2.16-1.06,4.27,4.27,0,0,0,.67-2.49,4,4,0,0,0-.69-2.48,2.52,2.52,0,0,0-2.18-1.06A2.37,2.37,0,0,0,199.6,104.08Z"/><path class="cls-1" d="M207.45,99.12h1v11.65h-1Z"/><path class="cls-1" d="M217.28,103.59a5.1,5.1,0,0,1,0,6.09,3.93,3.93,0,0,1-5.86,0,4.64,4.64,0,0,1-1-3,4.54,4.54,0,0,1,1-3,3.54,3.54,0,0,1,2.91-1.32A3.63,3.63,0,0,1,217.28,103.59Zm-5.15.6a3.88,3.88,0,0,0-.74,2.45,3.83,3.83,0,0,0,.74,2.43,2.83,2.83,0,0,0,4.46,0,4,4,0,0,0,.74-2.43,4,4,0,0,0-.74-2.45,2.84,2.84,0,0,0-4.46,0Z"/><path class="cls-1" d="M225.89,103A3.18,3.18,0,0,1,227,105.2h-1a2.39,2.39,0,0,0-.83-1.57,2.79,2.79,0,0,0-1.76-.52,2.47,2.47,0,0,0-2.08,1,4.81,4.81,0,0,0,0,5.11,2.47,2.47,0,0,0,2.09.94,2.44,2.44,0,0,0,2.66-2.35h.94a3.74,3.74,0,0,1-1.18,2.38,3.53,3.53,0,0,1-2.42.8,3.44,3.44,0,0,1-2.84-1.24,4.65,4.65,0,0,1-1-3.06,4.79,4.79,0,0,1,1-3.1,3.37,3.37,0,0,1,2.83-1.32A3.85,3.85,0,0,1,225.89,103Z"/><path class="cls-1" d="M228.59,99.12h1v7.55l4.59-4.17h1.31l-3.63,3.28,4,5h-1.26l-3.43-4.37-1.58,1.44v2.93h-1Z"/><path class="cls-1" d="M242.73,103a3.15,3.15,0,0,1,1.14,2.21h-1a2.39,2.39,0,0,0-.83-1.57,2.79,2.79,0,0,0-1.76-.52,2.47,2.47,0,0,0-2.08,1,4.81,4.81,0,0,0,0,5.11,2.72,2.72,0,0,0,4.75-1.41h.94a3.74,3.74,0,0,1-1.18,2.38,3.55,3.55,0,0,1-2.42.8,3.46,3.46,0,0,1-2.85-1.24,4.64,4.64,0,0,1-.94-3.06,4.74,4.74,0,0,1,1-3.1,3.37,3.37,0,0,1,2.83-1.32A3.82,3.82,0,0,1,242.73,103Z"/><path class="cls-1" d="M245.44,99.12h1V104a3.11,3.11,0,0,1,1.16-1.29,3.18,3.18,0,0,1,3.77.4,3.34,3.34,0,0,1,.8,2.38v5.28h-1v-5.15a2.7,2.7,0,0,0-.61-1.87,2.25,2.25,0,0,0-1.71-.64,2.2,2.2,0,0,0-1.74.83,3,3,0,0,0-.71,2v4.78h-1Z"/><path class="cls-1" d="M260.24,103.22a3.18,3.18,0,0,1,.73,2.22v5.33h-.91v-1.58a4.29,4.29,0,0,1-1.34,1.23,4.2,4.2,0,0,1-2.16.57,3,3,0,0,1-2-.62,2.14,2.14,0,0,1-.75-1.71,2.45,2.45,0,0,1,1.29-2.31,5.67,5.67,0,0,1,2.77-.59H260v-.31a2.1,2.1,0,0,0-2.4-2.35,2.88,2.88,0,0,0-1.72.46A2,2,0,0,0,255,105h-.95a2.92,2.92,0,0,1,1.17-2.08,4.11,4.11,0,0,1,2.4-.64A3.28,3.28,0,0,1,260.24,103.22Zm-.23,3.31-2.06,0c-2.09,0-3.14.71-3.14,2.09a1.39,1.39,0,0,0,.53,1.12,2.1,2.1,0,0,0,1.41.43,3.41,3.41,0,0,0,2.3-.86,2.46,2.46,0,0,0,1-1.84Z"/><path class="cls-1" d="M264.53,99.76a.68.68,0,0,1,.24.56.8.8,0,0,1-.26.58.83.83,0,0,1-.56.22.78.78,0,0,1-.58-.22.78.78,0,0,1-.24-.58.68.68,0,0,1,.24-.56.75.75,0,0,1,.58-.24A.82.82,0,0,1,264.53,99.76Zm-1.06,2.74h1v8.27h-1Z"/><path class="cls-1" d="M273.65,105.68v5.09h-1v-5c0-1.76-.78-2.64-2.35-2.64a2.18,2.18,0,0,0-1.66.72,3,3,0,0,0-.79,2v5h-1V102.5h1v1.36a3.49,3.49,0,0,1,1.12-1.17,2.93,2.93,0,0,1,1.57-.42Q273.65,102.27,273.65,105.68Z"/><path class="cls-1" d="M280.06,102.5h1.07l2.24,7,2.08-7h.93l2.08,7,2.26-7h1l-2.83,8.27H288l-2.08-7-2.11,7h-.91Z"/><path class="cls-1" d="M299.4,103.59a5.1,5.1,0,0,1,0,6.09,3.92,3.92,0,0,1-5.85,0,4.64,4.64,0,0,1-1-3,4.59,4.59,0,0,1,1-3,3.57,3.57,0,0,1,2.92-1.32A3.61,3.61,0,0,1,299.4,103.59Zm-5.15.6a3.88,3.88,0,0,0-.73,2.45,3.82,3.82,0,0,0,.73,2.43,2.84,2.84,0,0,0,4.47,0,4,4,0,0,0,.73-2.43,4,4,0,0,0-.73-2.45,2.85,2.85,0,0,0-4.47,0Z"/><path class="cls-1" d="M306.78,102.45v1a4.31,4.31,0,0,0-1.26-.18,2.06,2.06,0,0,0-1.8,1,3.61,3.61,0,0,0-.65,2.16v4.37h-1V102.5h1v1.58a3.05,3.05,0,0,1,.91-1.23,2.4,2.4,0,0,1,1.6-.58A3.22,3.22,0,0,1,306.78,102.45Z"/><path class="cls-1" d="M308.17,99.12h1v11.65h-1Z"/><path class="cls-1" d="M317.69,99.12h1v11.65h-.91v-1.63a3,3,0,0,1-2.9,1.85,3.36,3.36,0,0,1-2.8-1.31,5.53,5.53,0,0,1,0-6.08,3.27,3.27,0,0,1,2.76-1.33,3,3,0,0,1,2.89,2Zm-4.89,5a4,4,0,0,0-.69,2.48,4.19,4.19,0,0,0,.67,2.49,2.69,2.69,0,0,0,4.26,0,4.07,4.07,0,0,0,.68-2.4v-.19a4,4,0,0,0-.73-2.48,2.4,2.4,0,0,0-2-1A2.51,2.51,0,0,0,312.8,104.15Z"/><path class="cls-1" d="M322.65,110.5a2.94,2.94,0,0,1-1.6,2.77l-.35-.56a2.51,2.51,0,0,0,1.23-2l-.24,0a.87.87,0,0,1-.59-.21.74.74,0,0,1-.22-.57.82.82,0,0,1,.2-.6.85.85,0,0,1,.6-.22C322.33,109.17,322.65,109.61,322.65,110.5Z"/><path class="cls-1" d="M329.2,102.5h1.07l2.24,7,2.08-7h.93l2.08,7,2.25-7h1.06l-2.83,8.27h-.93l-2.08-7-2.11,7H332Z"/><path class="cls-1" d="M343.53,99.76a.68.68,0,0,1,.24.56.79.79,0,0,1-.25.58.85.85,0,0,1-.56.22.78.78,0,0,1-.58-.22.78.78,0,0,1-.24-.58.68.68,0,0,1,.24-.56.75.75,0,0,1,.58-.24A.78.78,0,0,1,343.53,99.76Zm-1,2.74h1v8.27h-1Z"/><path class="cls-1" d="M347.93,99.83v2.67h2.16v.83h-2.16v5.6a1.24,1.24,0,0,0,.19.78.92.92,0,0,0,.72.23h1v.83h-1.16a1.67,1.67,0,0,1-1.38-.5,2,2,0,0,1-.37-1.34v-5.6h-1.76v-.83H347v-2.27Z"/><path class="cls-1" d="M351.55,99.12h1V104a3.17,3.17,0,0,1,1.16-1.29,2.92,2.92,0,0,1,1.56-.44,2.87,2.87,0,0,1,2.21.84,3.3,3.3,0,0,1,.8,2.38v5.28h-1v-5.15a2.7,2.7,0,0,0-.61-1.87,2.25,2.25,0,0,0-1.71-.64,2.2,2.2,0,0,0-1.74.83,3,3,0,0,0-.71,2v4.78h-1Z"/><path class="cls-1" d="M63.05,130.5h1.07l2.24,7,2.08-7h.93l2.08,7,2.25-7h1.06l-2.83,8.27H71l-2.08-7-2.11,7H65.9Z"/><path class="cls-1" d="M75.85,127.12h1V132A3.11,3.11,0,0,1,78,130.71a2.92,2.92,0,0,1,1.56-.44,2.87,2.87,0,0,1,2.21.84,3.34,3.34,0,0,1,.8,2.38v5.28h-1v-5.15a2.7,2.7,0,0,0-.61-1.87,2.25,2.25,0,0,0-1.71-.64,2.2,2.2,0,0,0-1.74.83,3,3,0,0,0-.71,2.05v4.78h-1Z"/><path class="cls-1" d="M86.1,127.76a.68.68,0,0,1,.24.56.79.79,0,0,1-.25.58.83.83,0,0,1-.56.22.78.78,0,0,1-.58-.22.78.78,0,0,1-.24-.58.68.68,0,0,1,.24-.56.75.75,0,0,1,.58-.24A.78.78,0,0,1,86.1,127.76Zm-1,2.74h1v8.27h-1Z"/><path class="cls-1" d="M94.41,131a3.15,3.15,0,0,1,1.13,2.21h-1a2.35,2.35,0,0,0-.83-1.57,2.77,2.77,0,0,0-1.76-.52,2.48,2.48,0,0,0-2.08,1,4.81,4.81,0,0,0,0,5.11,2.47,2.47,0,0,0,2.1.94,2.43,2.43,0,0,0,2.65-2.35h.94a3.74,3.74,0,0,1-1.18,2.38A3.53,3.53,0,0,1,92,139a3.45,3.45,0,0,1-2.85-1.24,4.65,4.65,0,0,1-.95-3.06,4.79,4.79,0,0,1,1-3.1A3.38,3.38,0,0,1,92,130.27,3.85,3.85,0,0,1,94.41,131Z"/><path class="cls-1" d="M97.11,127.12h1V132a3.15,3.15,0,0,1,1.15-1.29,2.93,2.93,0,0,1,1.57-.44,2.89,2.89,0,0,1,2.21.84,3.34,3.34,0,0,1,.8,2.38v5.28h-1v-5.15a2.75,2.75,0,0,0-.61-1.87,2.28,2.28,0,0,0-1.71-.64,2.21,2.21,0,0,0-1.75.83,3,3,0,0,0-.7,2.05v4.78h-1Z"/><path class="cls-1" d="M111.16,130.5h1v5.05a3,3,0,0,0,.54,1.94,2.22,2.22,0,0,0,1.78.67,2.31,2.31,0,0,0,1.68-.73,3,3,0,0,0,.82-1.91v-5h1v8.27h-1v-1.39a3,3,0,0,1-2.76,1.61q-3,0-3-3.39Z"/><path class="cls-1" d="M126,132.82h-.94a2,2,0,0,0-.69-1.27,2.7,2.7,0,0,0-1.68-.44,2.74,2.74,0,0,0-1.49.36,1.17,1.17,0,0,0-.57,1,1.13,1.13,0,0,0,.73,1,10.86,10.86,0,0,0,1.75.58,8.23,8.23,0,0,1,2.14.77,1.86,1.86,0,0,1,1,1.66c0,1.68-1.12,2.51-3.36,2.51s-3.28-.94-3.47-2.83h.95a2.24,2.24,0,0,0,.76,1.57,2.87,2.87,0,0,0,1.73.43c1.6,0,2.4-.54,2.4-1.63a1.24,1.24,0,0,0-.82-1.15,11,11,0,0,0-1.84-.58,7.9,7.9,0,0,1-2-.73,1.76,1.76,0,0,1-.95-1.59,1.85,1.85,0,0,1,.9-1.61,3.69,3.69,0,0,1,2.18-.6C124.69,130.27,125.79,131.12,126,132.82Z"/><path class="cls-1" d="M134.09,131.6a5.81,5.81,0,0,1,.94,3.31h-6.72a3.89,3.89,0,0,0,.82,2.39,2.61,2.61,0,0,0,2,.86,2.81,2.81,0,0,0,1.83-.59,3.12,3.12,0,0,0,.88-1.46h1a3.88,3.88,0,0,1-1.1,2,3.68,3.68,0,0,1-2.58.91,3.51,3.51,0,0,1-2.78-1.18,4.58,4.58,0,0,1-1.07-3.18,4.63,4.63,0,0,1,1-3.06,3.8,3.8,0,0,1,5.75,0Zm-4.9.35a3.65,3.65,0,0,0-.86,2.18H134c-.16-2-1.11-3-2.86-3A2.49,2.49,0,0,0,129.19,132Z"/><path class="cls-1" d="M141.24,130.45v1a4.38,4.38,0,0,0-1.27-.18,2.05,2.05,0,0,0-1.79,1,3.55,3.55,0,0,0-.65,2.16v4.37h-1V130.5h1v1.58a3,3,0,0,1,.91-1.23,2.4,2.4,0,0,1,1.6-.58A3.22,3.22,0,0,1,141.24,130.45Z"/><path class="cls-1" d="M148.44,132.82h-.95a1.94,1.94,0,0,0-.68-1.27,3.35,3.35,0,0,0-3.17-.08,1.16,1.16,0,0,0-.58,1,1.14,1.14,0,0,0,.74,1,10.65,10.65,0,0,0,1.74.58,8.34,8.34,0,0,1,2.15.77,1.86,1.86,0,0,1,1,1.66c0,1.68-1.12,2.51-3.36,2.51s-3.28-.94-3.47-2.83h.94a2.25,2.25,0,0,0,.77,1.57,2.85,2.85,0,0,0,1.73.43c1.6,0,2.4-.54,2.4-1.63a1.25,1.25,0,0,0-.82-1.15,11.29,11.29,0,0,0-1.84-.58,8.17,8.17,0,0,1-2-.73,1.76,1.76,0,0,1-.94-1.59,1.85,1.85,0,0,1,.9-1.61,3.66,3.66,0,0,1,2.17-.6Q148.08,130.27,148.44,132.82Z"/><path class="cls-1" d="M161.45,131a3.18,3.18,0,0,1,1.13,2.21h-1a2.35,2.35,0,0,0-.83-1.57,2.79,2.79,0,0,0-1.76-.52,2.47,2.47,0,0,0-2.08,1,4.81,4.81,0,0,0,0,5.11,2.47,2.47,0,0,0,2.09.94,2.44,2.44,0,0,0,2.66-2.35h.94a3.74,3.74,0,0,1-1.18,2.38,3.53,3.53,0,0,1-2.42.8,3.44,3.44,0,0,1-2.84-1.24,4.65,4.65,0,0,1-.95-3.06,4.79,4.79,0,0,1,1-3.1,3.37,3.37,0,0,1,2.83-1.32A3.85,3.85,0,0,1,161.45,131Z"/><path class="cls-1" d="M170.69,131.59a5.1,5.1,0,0,1,0,6.09,3.92,3.92,0,0,1-5.85,0,4.64,4.64,0,0,1-1-3,4.59,4.59,0,0,1,1-3,3.57,3.57,0,0,1,2.92-1.32A3.61,3.61,0,0,1,170.69,131.59Zm-5.15.6a3.88,3.88,0,0,0-.73,2.45,3.82,3.82,0,0,0,.73,2.43,2.84,2.84,0,0,0,4.47,0,4,4,0,0,0,.73-2.43,4,4,0,0,0-.73-2.45,2.85,2.85,0,0,0-4.47,0Z"/><path class="cls-1" d="M173.4,130.5h1v5.05a3,3,0,0,0,.54,1.94,2.22,2.22,0,0,0,1.78.67,2.31,2.31,0,0,0,1.68-.73,2.92,2.92,0,0,0,.81-1.91v-5h1v8.27h-1v-1.39a3,3,0,0,1-2.75,1.61q-3,0-3-3.39Z"/><path class="cls-1" d="M182.45,127.12h1v11.65h-1Z"/><path class="cls-1" d="M192,127.12h1v11.65H192v-1.63a3,3,0,0,1-2.89,1.85,3.33,3.33,0,0,1-2.8-1.31,5.48,5.48,0,0,1,0-6.08,3.24,3.24,0,0,1,2.75-1.33,3,3,0,0,1,2.89,2Zm-4.89,5a4,4,0,0,0-.69,2.48,4.19,4.19,0,0,0,.67,2.49,2.48,2.48,0,0,0,2.16,1.06,2.44,2.44,0,0,0,2.1-1,4,4,0,0,0,.69-2.4v-.19a4,4,0,0,0-.74-2.48,2.4,2.4,0,0,0-2-1A2.52,2.52,0,0,0,187.08,132.15Z"/><path class="cls-1" d="M206.39,132.82h-.94a2,2,0,0,0-.69-1.27,3.35,3.35,0,0,0-3.17-.08,1.18,1.18,0,0,0-.58,1,1.14,1.14,0,0,0,.74,1,10.65,10.65,0,0,0,1.74.58,8.34,8.34,0,0,1,2.15.77,1.86,1.86,0,0,1,1,1.66c0,1.68-1.12,2.51-3.36,2.51s-3.28-.94-3.47-2.83h.94a2.25,2.25,0,0,0,.77,1.57,2.85,2.85,0,0,0,1.73.43c1.6,0,2.4-.54,2.4-1.63a1.24,1.24,0,0,0-.82-1.15,11.29,11.29,0,0,0-1.84-.58,7.9,7.9,0,0,1-2-.73,1.76,1.76,0,0,1-.95-1.59,1.85,1.85,0,0,1,.9-1.61,3.66,3.66,0,0,1,2.17-.6C205.06,130.27,206.15,131.12,206.39,132.82Z"/><path class="cls-1" d="M209.7,127.76a.68.68,0,0,1,.24.56.79.79,0,0,1-.25.58.85.85,0,0,1-.56.22.78.78,0,0,1-.58-.22.78.78,0,0,1-.24-.58.68.68,0,0,1,.24-.56.75.75,0,0,1,.58-.24A.78.78,0,0,1,209.7,127.76Zm-1,2.74h1v8.27h-1Z"/><path class="cls-1" d="M218.47,132.16V130.5h1v7.66q0,4-3.71,4a4,4,0,0,1-2.51-.7,3,3,0,0,1-1.06-2h1a2.15,2.15,0,0,0,.77,1.38,2.88,2.88,0,0,0,1.84.51c1.83,0,2.75-1,2.75-3.09v-1.58a3.08,3.08,0,0,1-3,1.89,3.45,3.45,0,0,1-2.77-1.23,4.91,4.91,0,0,1,0-5.83,3.43,3.43,0,0,1,2.77-1.25A3.08,3.08,0,0,1,218.47,132.16Zm-5-.08a3.59,3.59,0,0,0-.73,2.35,3.69,3.69,0,0,0,.69,2.31,2.54,2.54,0,0,0,2.16,1,2.59,2.59,0,0,0,2.14-1,4.21,4.21,0,0,0,0-4.71,2.79,2.79,0,0,0-4.26,0Z"/><path class="cls-1" d="M228.16,133.68v5.09h-.95v-5c0-1.76-.79-2.64-2.36-2.64a2.18,2.18,0,0,0-1.66.72,3,3,0,0,0-.79,1.95v5h-1V130.5h1v1.36a3.42,3.42,0,0,1,1.13-1.17,2.87,2.87,0,0,1,1.56-.42Q228.16,130.27,228.16,133.68Z"/><path class="cls-1" d="M235.51,130.5h1v5.05a3,3,0,0,0,.54,1.94,2.22,2.22,0,0,0,1.78.67,2.31,2.31,0,0,0,1.68-.73,2.92,2.92,0,0,0,.81-1.91v-5h1v8.27h-1v-1.39a3,3,0,0,1-2.75,1.61q-3,0-3-3.39Z"/><path class="cls-1" d="M250.87,131.6a5.56,5.56,0,0,1,0,6.08,3.3,3.3,0,0,1-2.76,1.31,3,3,0,0,1-2.9-2v4.9h-1V130.5h.91v1.63a3,3,0,0,1,2.91-1.86A3.34,3.34,0,0,1,250.87,131.6Zm-5,.55a4,4,0,0,0-.69,2.44v.18a3.88,3.88,0,0,0,.73,2.45,2.45,2.45,0,0,0,2,1,2.59,2.59,0,0,0,2.18-1,4.17,4.17,0,0,0,.67-2.49,4.28,4.28,0,0,0-.66-2.5,2.51,2.51,0,0,0-2.16-1.07A2.41,2.41,0,0,0,245.88,132.15Z"/><path class="cls-1" d="M260.8,127.83v2.67H263v.83H260.8v5.6a1.24,1.24,0,0,0,.2.78.9.9,0,0,0,.72.23h1v.83h-1.17a1.69,1.69,0,0,1-1.38-.5,2,2,0,0,1-.37-1.34v-5.6h-1.76v-.83h1.76v-2.27Z"/><path class="cls-1" d="M264.42,127.12h1V132a3.09,3.09,0,0,1,1.15-1.29,2.93,2.93,0,0,1,1.57-.44,2.85,2.85,0,0,1,2.2.84,3.3,3.3,0,0,1,.8,2.38v5.28h-1v-5.15a2.75,2.75,0,0,0-.6-1.87,2.29,2.29,0,0,0-1.72-.64,2.2,2.2,0,0,0-1.74.83,3,3,0,0,0-.7,2.05v4.78h-1Z"/><path class="cls-1" d="M279.43,131.6a5.81,5.81,0,0,1,.94,3.31h-6.72a4,4,0,0,0,.82,2.39,2.61,2.61,0,0,0,2,.86,2.8,2.8,0,0,0,1.82-.59,3.12,3.12,0,0,0,.88-1.46h1a3.89,3.89,0,0,1-1.11,2,3.67,3.67,0,0,1-2.57.91,3.53,3.53,0,0,1-2.79-1.18,4.58,4.58,0,0,1-1.07-3.18,4.63,4.63,0,0,1,1-3.06,3.46,3.46,0,0,1,2.81-1.3A3.42,3.42,0,0,1,279.43,131.6Zm-4.9.35a3.65,3.65,0,0,0-.86,2.18h5.69c-.16-2-1.11-3-2.86-3A2.49,2.49,0,0,0,274.53,132Z"/><path class="cls-1" d="M293.84,131.6a5.53,5.53,0,0,1,0,6.08,3.31,3.31,0,0,1-2.77,1.31,3,3,0,0,1-2.89-2v4.9h-1V130.5h.91v1.63a3,3,0,0,1,2.91-1.86A3.34,3.34,0,0,1,293.84,131.6Zm-5,.55a4,4,0,0,0-.69,2.44v.18a3.88,3.88,0,0,0,.74,2.45,2.43,2.43,0,0,0,2,1,2.57,2.57,0,0,0,2.17-1,4.17,4.17,0,0,0,.67-2.49,4.28,4.28,0,0,0-.65-2.5,2.51,2.51,0,0,0-2.16-1.07A2.42,2.42,0,0,0,288.85,132.15Z"/><path class="cls-1" d="M301.12,130.45v1a4.26,4.26,0,0,0-1.26-.18,2,2,0,0,0-1.79,1,3.55,3.55,0,0,0-.66,2.16v4.37h-1V130.5h1v1.58a3.15,3.15,0,0,1,.91-1.23,2.42,2.42,0,0,1,1.6-.58A3.15,3.15,0,0,1,301.12,130.45Z"/><path class="cls-1" d="M308.76,131.59a5.14,5.14,0,0,1,0,6.09,3.93,3.93,0,0,1-5.86,0,4.64,4.64,0,0,1-1-3,4.54,4.54,0,0,1,1-3,3.54,3.54,0,0,1,2.91-1.32A3.64,3.64,0,0,1,308.76,131.59Zm-5.16.6a3.88,3.88,0,0,0-.73,2.45,3.82,3.82,0,0,0,.73,2.43,2.84,2.84,0,0,0,4.47,0,4,4,0,0,0,.73-2.43,4,4,0,0,0-.73-2.45,2.85,2.85,0,0,0-4.47,0Z"/><path class="cls-1" d="M313.46,127.83v2.67h2.16v.83h-2.16v5.6a1.24,1.24,0,0,0,.19.78.92.92,0,0,0,.72.23h1v.83h-1.17a1.67,1.67,0,0,1-1.37-.5,2,2,0,0,1-.37-1.34v-5.6h-1.76v-.83h1.76v-2.27Z"/><path class="cls-1" d="M323.62,131.59a5.1,5.1,0,0,1,0,6.09,3.93,3.93,0,0,1-5.86,0,4.64,4.64,0,0,1-1-3,4.59,4.59,0,0,1,1-3,3.55,3.55,0,0,1,2.91-1.32A3.63,3.63,0,0,1,323.62,131.59Zm-5.15.6a3.88,3.88,0,0,0-.74,2.45,3.83,3.83,0,0,0,.74,2.43,2.83,2.83,0,0,0,4.46,0,4,4,0,0,0,.74-2.43,4,4,0,0,0-.74-2.45,2.84,2.84,0,0,0-4.46,0Z"/><path class="cls-1" d="M332.23,131a3.11,3.11,0,0,1,1.13,2.21h-1a2.35,2.35,0,0,0-.83-1.57,2.77,2.77,0,0,0-1.76-.52,2.48,2.48,0,0,0-2.08,1,4.81,4.81,0,0,0,0,5.11,2.47,2.47,0,0,0,2.1.94,2.43,2.43,0,0,0,2.65-2.35h.95a3.74,3.74,0,0,1-1.19,2.38,3.53,3.53,0,0,1-2.41.8,3.45,3.45,0,0,1-2.85-1.24,4.65,4.65,0,0,1-.95-3.06,4.79,4.79,0,0,1,1-3.1,3.38,3.38,0,0,1,2.83-1.32A3.85,3.85,0,0,1,332.23,131Z"/><path class="cls-1" d="M341.48,131.59a5.14,5.14,0,0,1,0,6.09,3.93,3.93,0,0,1-5.86,0,4.64,4.64,0,0,1-1-3,4.54,4.54,0,0,1,1-3,3.54,3.54,0,0,1,2.91-1.32A3.64,3.64,0,0,1,341.48,131.59Zm-5.16.6a3.88,3.88,0,0,0-.73,2.45,3.82,3.82,0,0,0,.73,2.43,2.84,2.84,0,0,0,4.47,0,4,4,0,0,0,.73-2.43,4,4,0,0,0-.73-2.45,2.85,2.85,0,0,0-4.47,0Z"/><path class="cls-1" d="M344.48,127.12h1v11.65h-1Z"/><path class="cls-1" d="M353.88,132.82h-.95a2,2,0,0,0-.69-1.27,2.7,2.7,0,0,0-1.68-.44,2.74,2.74,0,0,0-1.49.36,1.17,1.17,0,0,0-.57,1,1.12,1.12,0,0,0,.74,1,10.65,10.65,0,0,0,1.74.58,8.23,8.23,0,0,1,2.14.77,1.86,1.86,0,0,1,1,1.66c0,1.68-1.12,2.51-3.36,2.51s-3.27-.94-3.47-2.83h1a2.24,2.24,0,0,0,.76,1.57,2.89,2.89,0,0,0,1.73.43c1.6,0,2.4-.54,2.4-1.63a1.24,1.24,0,0,0-.81-1.15,11.29,11.29,0,0,0-1.84-.58,8,8,0,0,1-2-.73,1.76,1.76,0,0,1-.94-1.59,1.86,1.86,0,0,1,.89-1.61,3.69,3.69,0,0,1,2.18-.6Q353.52,130.27,353.88,132.82Z"/><path class="cls-1" d="M357.64,138.5a3,3,0,0,1-1.6,2.77l-.36-.56a2.51,2.51,0,0,0,1.23-2l-.23,0a.88.88,0,0,1-.6-.21.74.74,0,0,1-.22-.57.78.78,0,0,1,.21-.6.82.82,0,0,1,.59-.22C357.31,137.17,357.64,137.61,357.64,138.5Z"/><path class="cls-1" d="M61.56,159.6a4.9,4.9,0,0,1,.91,3.06,5,5,0,0,1-.89,3A3.33,3.33,0,0,1,58.81,167a3,3,0,0,1-2.9-2v4.9H55V158.5h.91v1.63a3,3,0,0,1,2.92-1.86A3.34,3.34,0,0,1,61.56,159.6Zm-5,.55a4,4,0,0,0-.69,2.44v.18a3.88,3.88,0,0,0,.74,2.45,2.42,2.42,0,0,0,2,1,2.57,2.57,0,0,0,2.18-1,4.17,4.17,0,0,0,.67-2.49,4.28,4.28,0,0,0-.66-2.5,2.51,2.51,0,0,0-2.16-1.07A2.41,2.41,0,0,0,56.57,160.15Z"/><path class="cls-1" d="M68.84,158.45v1a4.31,4.31,0,0,0-1.26-.18,2.06,2.06,0,0,0-1.8,1,3.61,3.61,0,0,0-.65,2.16v4.37h-1V158.5h1v1.58a3.05,3.05,0,0,1,.91-1.23,2.4,2.4,0,0,1,1.6-.58A3.22,3.22,0,0,1,68.84,158.45Z"/><path class="cls-1" d="M76.47,159.59a5.1,5.1,0,0,1,0,6.09,3.92,3.92,0,0,1-5.85,0,5.08,5.08,0,0,1,0-6.09,3.56,3.56,0,0,1,2.91-1.32A3.62,3.62,0,0,1,76.47,159.59Zm-5.15.6a3.88,3.88,0,0,0-.74,2.45,3.83,3.83,0,0,0,.74,2.43,2.83,2.83,0,0,0,4.46,0,4,4,0,0,0,.74-2.43,4,4,0,0,0-.74-2.45,2.84,2.84,0,0,0-4.46,0Z"/><path class="cls-1" d="M81.18,155.83v2.67h2.16v.83H81.18v5.6a1.24,1.24,0,0,0,.19.78.92.92,0,0,0,.72.23h1v.83H82a1.69,1.69,0,0,1-1.38-.5,2,2,0,0,1-.36-1.34v-5.6H78.46v-.83h1.76v-2.27Z"/><path class="cls-1" d="M91.08,159.6a5.73,5.73,0,0,1,.94,3.31H85.3a4,4,0,0,0,.82,2.39,2.61,2.61,0,0,0,2,.86,2.8,2.8,0,0,0,1.82-.59,3,3,0,0,0,.88-1.46h1a3.82,3.82,0,0,1-1.11,2,3.67,3.67,0,0,1-2.57.91,3.53,3.53,0,0,1-2.79-1.18,5.16,5.16,0,0,1,0-6.24,3.79,3.79,0,0,1,5.74,0Zm-4.9.35a3.65,3.65,0,0,0-.86,2.18H91c-.16-2-1.12-3-2.87-3A2.49,2.49,0,0,0,86.18,160Z"/><path class="cls-1" d="M99.46,159a3.15,3.15,0,0,1,1.14,2.21h-1a2.39,2.39,0,0,0-.83-1.57,2.79,2.79,0,0,0-1.76-.52,2.47,2.47,0,0,0-2.08,1,4.81,4.81,0,0,0,0,5.11,2.72,2.72,0,0,0,4.75-1.41h.94a3.74,3.74,0,0,1-1.18,2.38A3.55,3.55,0,0,1,97,167a3.48,3.48,0,0,1-2.85-1.24,4.64,4.64,0,0,1-.94-3.06,4.79,4.79,0,0,1,1-3.1,3.37,3.37,0,0,1,2.83-1.32A3.82,3.82,0,0,1,99.46,159Z"/><path class="cls-1" d="M104.17,155.83v2.67h2.16v.83h-2.16v5.6a1.24,1.24,0,0,0,.19.78.92.92,0,0,0,.72.23h1v.83H105a1.65,1.65,0,0,1-1.37-.5,2,2,0,0,1-.37-1.34v-5.6h-1.76v-.83h1.76v-2.27Z"/><path class="cls-1" d="M119,159a3.18,3.18,0,0,1,1.13,2.21h-1a2.39,2.39,0,0,0-.83-1.57,2.79,2.79,0,0,0-1.76-.52,2.47,2.47,0,0,0-2.08,1,4.81,4.81,0,0,0,0,5.11,2.47,2.47,0,0,0,2.09.94,2.44,2.44,0,0,0,2.66-2.35h.94a3.74,3.74,0,0,1-1.18,2.38,3.55,3.55,0,0,1-2.42.8,3.44,3.44,0,0,1-2.84-1.24,4.65,4.65,0,0,1-.95-3.06,4.79,4.79,0,0,1,1-3.1,3.37,3.37,0,0,1,2.83-1.32A3.85,3.85,0,0,1,119,159Z"/><path class="cls-1" d="M128.26,159.59a5.1,5.1,0,0,1,0,6.09,3.92,3.92,0,0,1-5.85,0,4.64,4.64,0,0,1-1-3,4.59,4.59,0,0,1,1-3,3.57,3.57,0,0,1,2.92-1.32A3.61,3.61,0,0,1,128.26,159.59Zm-5.15.6a3.88,3.88,0,0,0-.73,2.45,3.82,3.82,0,0,0,.73,2.43,2.83,2.83,0,0,0,4.46,0,3.94,3.94,0,0,0,.74-2.43,3.9,3.9,0,0,0-.74-2.45,2.84,2.84,0,0,0-4.46,0Z"/><path class="cls-1" d="M137.57,159.6a5.53,5.53,0,0,1,0,6.08,3.3,3.3,0,0,1-2.77,1.31,3,3,0,0,1-2.89-2v4.9h-1V158.5h.91v1.63a3,3,0,0,1,2.91-1.86A3.34,3.34,0,0,1,137.57,159.6Zm-5,.55a4,4,0,0,0-.68,2.44v.18a3.88,3.88,0,0,0,.73,2.45,2.43,2.43,0,0,0,2,1,2.57,2.57,0,0,0,2.17-1,4.17,4.17,0,0,0,.67-2.49,4.28,4.28,0,0,0-.65-2.5,2.51,2.51,0,0,0-2.16-1.07A2.42,2.42,0,0,0,132.58,160.15Z"/><path class="cls-1" d="M139.25,158.5h1.06l2.7,6.89,2.68-6.89h1.05l-4.56,11.44h-1l1.39-3.38Z"/><path class="cls-1" d="M152.5,158.45v1a4.26,4.26,0,0,0-1.26-.18,2,2,0,0,0-1.79,1,3.55,3.55,0,0,0-.66,2.16v4.37h-1V158.5h1v1.58a3.05,3.05,0,0,1,.91-1.23,2.4,2.4,0,0,1,1.6-.58A3.15,3.15,0,0,1,152.5,158.45Z"/><path class="cls-1" d="M155.13,155.76a.68.68,0,0,1,.24.56.8.8,0,0,1-.26.58.83.83,0,0,1-.56.22.75.75,0,0,1-.57-.22.78.78,0,0,1-.24-.58.68.68,0,0,1,.24-.56.73.73,0,0,1,.57-.24A.8.8,0,0,1,155.13,155.76Zm-1.06,2.74h1v8.27h-1Z"/><path class="cls-1" d="M163.89,160.16V158.5h1v7.66c0,2.67-1.23,4-3.71,4a4,4,0,0,1-2.51-.7,3.06,3.06,0,0,1-1.06-2h1a2.19,2.19,0,0,0,.77,1.38,2.9,2.9,0,0,0,1.84.51c1.84,0,2.75-1,2.75-3.09v-1.58a3.06,3.06,0,0,1-3,1.89,3.42,3.42,0,0,1-2.76-1.23,4.91,4.91,0,0,1,0-5.83,3.41,3.41,0,0,1,2.76-1.25A3.06,3.06,0,0,1,163.89,160.16Zm-5-.08a3.59,3.59,0,0,0-.74,2.35,3.69,3.69,0,0,0,.69,2.31,2.54,2.54,0,0,0,2.16,1,2.58,2.58,0,0,0,2.14-1,4.21,4.21,0,0,0,0-4.71,2.78,2.78,0,0,0-4.25,0Z"/><path class="cls-1" d="M166.87,155.12h1V160a3.09,3.09,0,0,1,1.15-1.29,2.93,2.93,0,0,1,1.57-.44,2.85,2.85,0,0,1,2.2.84,3.3,3.3,0,0,1,.8,2.38v5.28h-1v-5.15a2.75,2.75,0,0,0-.6-1.87,2.29,2.29,0,0,0-1.72-.64,2.2,2.2,0,0,0-1.74.83,3,3,0,0,0-.7,2.05v4.78h-1Z"/><path class="cls-1" d="M177.59,155.83v2.67h2.16v.83h-2.16v5.6a1.24,1.24,0,0,0,.19.78.92.92,0,0,0,.72.23h1v.83h-1.17a1.68,1.68,0,0,1-1.37-.5,2,2,0,0,1-.37-1.34v-5.6h-1.76v-.83h1.76v-2.27Z"/><path class="cls-1" d="M183.19,166.5a2.94,2.94,0,0,1-1.6,2.77l-.35-.56a2.51,2.51,0,0,0,1.23-2l-.24,0a.87.87,0,0,1-.59-.21.75.75,0,0,1-.23-.57.78.78,0,0,1,.21-.6.84.84,0,0,1,.59-.22C182.86,165.17,183.19,165.61,183.19,166.5Z"/><path class="cls-1" d="M197.27,159.6a4.9,4.9,0,0,1,.91,3.06,5,5,0,0,1-.89,3,3.33,3.33,0,0,1-2.77,1.31,3,3,0,0,1-2.9-2v4.9h-1V158.5h.91v1.63a3,3,0,0,1,2.92-1.86A3.34,3.34,0,0,1,197.27,159.6Zm-5,.55a4,4,0,0,0-.69,2.44v.18a3.82,3.82,0,0,0,.74,2.45,2.42,2.42,0,0,0,2,1,2.59,2.59,0,0,0,2.18-1,4.17,4.17,0,0,0,.67-2.49,4.28,4.28,0,0,0-.66-2.5,2.51,2.51,0,0,0-2.16-1.07A2.41,2.41,0,0,0,192.28,160.15Z"/><path class="cls-1" d="M206,159.22a3.18,3.18,0,0,1,.73,2.22v5.33h-.91v-1.58a4.29,4.29,0,0,1-1.34,1.23,4.2,4.2,0,0,1-2.16.57,3,3,0,0,1-2-.62,2.14,2.14,0,0,1-.75-1.71,2.45,2.45,0,0,1,1.29-2.31,5.67,5.67,0,0,1,2.77-.59h2.11v-.31a2.1,2.1,0,0,0-2.4-2.35,2.88,2.88,0,0,0-1.72.46,2,2,0,0,0-.85,1.44h-.95a2.92,2.92,0,0,1,1.17-2.08,4.11,4.11,0,0,1,2.4-.64A3.28,3.28,0,0,1,206,159.22Zm-.23,3.31-2.06,0c-2.09,0-3.14.71-3.14,2.09a1.39,1.39,0,0,0,.53,1.12,2.1,2.1,0,0,0,1.41.43,3.41,3.41,0,0,0,2.3-.86,2.46,2.46,0,0,0,1-1.84Z"/><path class="cls-1" d="M213.38,158.45v1a4.26,4.26,0,0,0-1.26-.18,2,2,0,0,0-1.79,1,3.55,3.55,0,0,0-.66,2.16v4.37h-1V158.5h1v1.58a3.05,3.05,0,0,1,.91-1.23,2.4,2.4,0,0,1,1.6-.58A3.22,3.22,0,0,1,213.38,158.45Z"/><path class="cls-1" d="M216.47,155.83v2.67h2.16v.83h-2.16v5.6a1.24,1.24,0,0,0,.19.78.92.92,0,0,0,.72.23h1v.83h-1.17a1.65,1.65,0,0,1-1.37-.5,2,2,0,0,1-.37-1.34v-5.6h-1.76v-.83h1.76v-2.27Z"/><path class="cls-1" d="M221.62,155.76a.68.68,0,0,1,.24.56.79.79,0,0,1-.25.58.83.83,0,0,1-.56.22.78.78,0,0,1-.58-.22.78.78,0,0,1-.24-.58.68.68,0,0,1,.24-.56.75.75,0,0,1,.58-.24A.78.78,0,0,1,221.62,155.76Zm-1.05,2.74h1v8.27h-1Z"/><path class="cls-1" d="M229.93,159a3.18,3.18,0,0,1,1.13,2.21h-1a2.39,2.39,0,0,0-.83-1.57,2.77,2.77,0,0,0-1.76-.52,2.47,2.47,0,0,0-2.08,1,4.81,4.81,0,0,0,0,5.11,2.47,2.47,0,0,0,2.09.94,2.44,2.44,0,0,0,2.66-2.35h.94a3.74,3.74,0,0,1-1.18,2.38,3.53,3.53,0,0,1-2.42.8,3.44,3.44,0,0,1-2.84-1.24,4.65,4.65,0,0,1-1-3.06,4.79,4.79,0,0,1,1-3.1,3.37,3.37,0,0,1,2.83-1.32A3.85,3.85,0,0,1,229.93,159Z"/><path class="cls-1" d="M234.16,155.76a.68.68,0,0,1,.24.56.79.79,0,0,1-.25.58.83.83,0,0,1-.56.22.78.78,0,0,1-.58-.22.78.78,0,0,1-.24-.58.68.68,0,0,1,.24-.56.75.75,0,0,1,.58-.24A.78.78,0,0,1,234.16,155.76Zm-1,2.74h1v8.27h-1Z"/><path class="cls-1" d="M243.17,159.6a5.58,5.58,0,0,1,0,6.08,3.31,3.31,0,0,1-2.77,1.31,3,3,0,0,1-2.89-2v4.9h-1V158.5h.91v1.63a3,3,0,0,1,2.91-1.86A3.34,3.34,0,0,1,243.17,159.6Zm-5,.55a4,4,0,0,0-.69,2.44v.18a3.88,3.88,0,0,0,.74,2.45,2.42,2.42,0,0,0,2,1,2.57,2.57,0,0,0,2.18-1,4.17,4.17,0,0,0,.67-2.49,4.35,4.35,0,0,0-.65-2.5,2.51,2.51,0,0,0-2.16-1.07A2.42,2.42,0,0,0,238.18,160.15Z"/><path class="cls-1" d="M251.86,159.22a3.18,3.18,0,0,1,.74,2.22v5.33h-.91v-1.58a4.33,4.33,0,0,1-1.35,1.23,4.2,4.2,0,0,1-2.16.57,3,3,0,0,1-2-.62,2.14,2.14,0,0,1-.75-1.71,2.44,2.44,0,0,1,1.3-2.31,5.61,5.61,0,0,1,2.77-.59h2.11v-.31a2.1,2.1,0,0,0-2.4-2.35,2.89,2.89,0,0,0-1.73.46,2,2,0,0,0-.85,1.44h-.94a2.89,2.89,0,0,1,1.17-2.08,4.07,4.07,0,0,1,2.4-.64A3.24,3.24,0,0,1,251.86,159.22Zm-.22,3.31-2.07,0c-2.09,0-3.13.71-3.13,2.09a1.36,1.36,0,0,0,.53,1.12,2.09,2.09,0,0,0,1.4.43,3.44,3.44,0,0,0,2.31-.86,2.46,2.46,0,0,0,1-1.84Z"/><path class="cls-1" d="M256.61,155.83v2.67h2.16v.83h-2.16v5.6a1.24,1.24,0,0,0,.2.78.89.89,0,0,0,.71.23h1.05v.83H257.4a1.69,1.69,0,0,1-1.38-.5,2,2,0,0,1-.37-1.34v-5.6h-1.76v-.83h1.76v-2.27Z"/><path class="cls-1" d="M266.52,159.6a5.81,5.81,0,0,1,.94,3.31h-6.72a3.89,3.89,0,0,0,.82,2.39,2.61,2.61,0,0,0,2,.86,2.81,2.81,0,0,0,1.83-.59,3.12,3.12,0,0,0,.88-1.46h1a3.88,3.88,0,0,1-1.1,2,3.68,3.68,0,0,1-2.58.91,3.51,3.51,0,0,1-2.78-1.18,4.58,4.58,0,0,1-1.07-3.18,4.63,4.63,0,0,1,1-3.06,3.8,3.8,0,0,1,5.75,0Zm-4.9.35a3.65,3.65,0,0,0-.86,2.18h5.69c-.16-2-1.11-3-2.86-3A2.49,2.49,0,0,0,261.62,160Z"/><path class="cls-1" d="M275.86,155.76a.68.68,0,0,1,.24.56.8.8,0,0,1-.26.58.81.81,0,0,1-.56.22.77.77,0,0,1-.57-.22.78.78,0,0,1-.24-.58.68.68,0,0,1,.24-.56.75.75,0,0,1,.57-.24A.78.78,0,0,1,275.86,155.76Zm-1.06,2.74h1v8.27h-1Z"/><path class="cls-1" d="M285,161.68v5.09h-1v-5c0-1.76-.78-2.64-2.35-2.64a2.2,2.2,0,0,0-1.67.72,2.9,2.9,0,0,0-.78,1.95v5h-1V158.5h1v1.36a3.4,3.4,0,0,1,1.12-1.17,2.9,2.9,0,0,1,1.57-.42Q285,158.27,285,161.68Z"/><path class="cls-1" d="M291.4,158.5h1.05l2.61,7.05,2.59-7.05h1.07l-3.16,8.27h-1Z"/><path class="cls-1" d="M306.36,159.59a5.14,5.14,0,0,1,0,6.09,3.93,3.93,0,0,1-5.86,0,4.64,4.64,0,0,1-1-3,4.54,4.54,0,0,1,1-3,3.54,3.54,0,0,1,2.91-1.32A3.64,3.64,0,0,1,306.36,159.59Zm-5.16.6a3.88,3.88,0,0,0-.73,2.45,3.82,3.82,0,0,0,.73,2.43,2.84,2.84,0,0,0,4.47,0,4,4,0,0,0,.73-2.43,4,4,0,0,0-.73-2.45,2.85,2.85,0,0,0-4.47,0Z"/><path class="cls-1" d="M311.06,155.83v2.67h2.16v.83h-2.16v5.6a1.24,1.24,0,0,0,.19.78.92.92,0,0,0,.72.23h1v.83h-1.17a1.65,1.65,0,0,1-1.37-.5,2,2,0,0,1-.37-1.34v-5.6h-1.76v-.83h1.76v-2.27Z"/><path class="cls-1" d="M316.21,155.76a.68.68,0,0,1,.24.56.79.79,0,0,1-.25.58.83.83,0,0,1-.56.22.78.78,0,0,1-.58-.22.78.78,0,0,1-.24-.58.68.68,0,0,1,.24-.56.75.75,0,0,1,.58-.24A.78.78,0,0,1,316.21,155.76Zm-1.06,2.74h1v8.27h-1Z"/><path class="cls-1" d="M325.33,161.68v5.09h-1v-5c0-1.76-.78-2.64-2.35-2.64a2.17,2.17,0,0,0-1.66.72,2.9,2.9,0,0,0-.79,1.95v5h-1V158.5h1v1.36a3.4,3.4,0,0,1,1.12-1.17,2.9,2.9,0,0,1,1.57-.42Q325.34,158.27,325.33,161.68Z"/><path class="cls-1" d="M333.72,160.16V158.5h.95v7.66c0,2.67-1.23,4-3.71,4a4,4,0,0,1-2.51-.7,3,3,0,0,1-1.05-2h1a2.14,2.14,0,0,0,.76,1.38,2.9,2.9,0,0,0,1.84.51q2.76,0,2.76-3.09v-1.58a3.08,3.08,0,0,1-3,1.89,3.42,3.42,0,0,1-2.76-1.23,4.91,4.91,0,0,1,0-5.83,3.41,3.41,0,0,1,2.76-1.25A3.08,3.08,0,0,1,333.72,160.16Zm-5-.08a3.59,3.59,0,0,0-.74,2.35,3.69,3.69,0,0,0,.69,2.31,2.54,2.54,0,0,0,2.16,1,2.58,2.58,0,0,0,2.14-1,4.16,4.16,0,0,0,0-4.71,2.78,2.78,0,0,0-4.25,0Z"/><path class="cls-1" d="M348.1,159.22a3.18,3.18,0,0,1,.73,2.22v5.33h-.91v-1.58a4.29,4.29,0,0,1-1.34,1.23,4.2,4.2,0,0,1-2.16.57,3,3,0,0,1-2-.62,2.14,2.14,0,0,1-.75-1.71,2.45,2.45,0,0,1,1.29-2.31,5.67,5.67,0,0,1,2.77-.59h2.11v-.31a2.09,2.09,0,0,0-2.39-2.35,2.89,2.89,0,0,0-1.73.46,2,2,0,0,0-.85,1.44H342a2.92,2.92,0,0,1,1.17-2.08,4.11,4.11,0,0,1,2.4-.64A3.27,3.27,0,0,1,348.1,159.22Zm-.23,3.31-2.06,0c-2.09,0-3.14.71-3.14,2.09a1.39,1.39,0,0,0,.53,1.12,2.1,2.1,0,0,0,1.41.43,3.39,3.39,0,0,0,2.3-.86,2.43,2.43,0,0,0,1-1.84Z"/><path class="cls-1" d="M357.57,161.68v5.09h-1v-5c0-1.76-.78-2.64-2.35-2.64a2.2,2.2,0,0,0-1.67.72,2.94,2.94,0,0,0-.78,1.95v5h-1V158.5h1v1.36a3.4,3.4,0,0,1,1.12-1.17,2.9,2.9,0,0,1,1.57-.42Q357.58,158.27,357.57,161.68Z"/><path class="cls-1" d="M365.83,155.12h1v11.65h-.92v-1.63A3,3,0,0,1,363,167a3.33,3.33,0,0,1-2.8-1.31,5.53,5.53,0,0,1,0-6.08,3.26,3.26,0,0,1,2.75-1.33,3,3,0,0,1,2.9,2Zm-4.9,5a4,4,0,0,0-.69,2.48,4.27,4.27,0,0,0,.67,2.49,2.5,2.5,0,0,0,2.16,1.06,2.44,2.44,0,0,0,2.1-1,4,4,0,0,0,.69-2.4v-.19a4,4,0,0,0-.74-2.48,2.39,2.39,0,0,0-2-1A2.52,2.52,0,0,0,360.93,160.15Z"/><path class="cls-1" d="M155.77,183.83v2.67h2.16v.83h-2.16v5.6a1.24,1.24,0,0,0,.19.78.92.92,0,0,0,.72.23h1v.83h-1.17a1.69,1.69,0,0,1-1.38-.5,2,2,0,0,1-.36-1.34v-5.6h-1.76v-.83h1.76v-2.27Z"/><path class="cls-1" d="M164.06,186.45v1a4.38,4.38,0,0,0-1.27-.18,2,2,0,0,0-1.79,1,3.55,3.55,0,0,0-.66,2.16v4.37h-1V186.5h1v1.58a3.15,3.15,0,0,1,.91-1.23,2.42,2.42,0,0,1,1.6-.58A3.25,3.25,0,0,1,164.06,186.45Z"/><path class="cls-1" d="M171.22,187.22a3.18,3.18,0,0,1,.74,2.22v5.33h-.91v-1.58a4.33,4.33,0,0,1-1.35,1.23,4.2,4.2,0,0,1-2.16.57,3,3,0,0,1-2-.62,2.14,2.14,0,0,1-.75-1.71,2.44,2.44,0,0,1,1.3-2.31,5.64,5.64,0,0,1,2.77-.59H171v-.31a2.1,2.1,0,0,0-2.4-2.35,2.91,2.91,0,0,0-1.73.46A2,2,0,0,0,166,189h-.94a2.92,2.92,0,0,1,1.17-2.08,4.07,4.07,0,0,1,2.4-.64A3.24,3.24,0,0,1,171.22,187.22Zm-.22,3.31-2.07,0c-2.09,0-3.13.71-3.13,2.09a1.36,1.36,0,0,0,.53,1.12,2.1,2.1,0,0,0,1.41.43,3.41,3.41,0,0,0,2.3-.86,2.46,2.46,0,0,0,1-1.84Z"/><path class="cls-1" d="M180.69,189.68v5.09h-1v-5c0-1.76-.78-2.64-2.35-2.64a2.18,2.18,0,0,0-1.66.72,3,3,0,0,0-.79,1.95v5h-1V186.5h1v1.36a3.49,3.49,0,0,1,1.12-1.17,2.9,2.9,0,0,1,1.57-.42Q180.7,186.27,180.69,189.68Z"/><path class="cls-1" d="M188.82,188.82h-.94a2,2,0,0,0-.69-1.27,2.7,2.7,0,0,0-1.68-.44,2.74,2.74,0,0,0-1.49.36,1.17,1.17,0,0,0-.57,1,1.13,1.13,0,0,0,.73,1,10.51,10.51,0,0,0,1.75.58,8.38,8.38,0,0,1,2.14.77,1.86,1.86,0,0,1,1,1.66c0,1.68-1.12,2.51-3.36,2.51s-3.28-.94-3.47-2.83h.94a2.29,2.29,0,0,0,.77,1.57,2.87,2.87,0,0,0,1.73.43c1.6,0,2.4-.54,2.4-1.63a1.24,1.24,0,0,0-.82-1.15,11,11,0,0,0-1.84-.58,7.9,7.9,0,0,1-2-.73,1.76,1.76,0,0,1-1-1.59,1.85,1.85,0,0,1,.9-1.61,3.67,3.67,0,0,1,2.18-.6C187.49,186.27,188.59,187.12,188.82,188.82Z"/><path class="cls-1" d="M196.68,187.22a3.18,3.18,0,0,1,.73,2.22v5.33h-.91v-1.58a4.29,4.29,0,0,1-1.34,1.23A4.2,4.2,0,0,1,193,195a3,3,0,0,1-2-.62,2.14,2.14,0,0,1-.75-1.71,2.45,2.45,0,0,1,1.29-2.31,5.67,5.67,0,0,1,2.77-.59h2.11v-.31a2.1,2.1,0,0,0-2.4-2.35,2.94,2.94,0,0,0-1.73.46,2,2,0,0,0-.84,1.44h-.95a2.92,2.92,0,0,1,1.17-2.08,4.11,4.11,0,0,1,2.4-.64A3.28,3.28,0,0,1,196.68,187.22Zm-.23,3.31-2.06,0c-2.09,0-3.14.71-3.14,2.09a1.39,1.39,0,0,0,.53,1.12,2.1,2.1,0,0,0,1.41.43,3.41,3.41,0,0,0,2.3-.86,2.46,2.46,0,0,0,1-1.84Z"/><path class="cls-1" d="M205.33,187a3.15,3.15,0,0,1,1.14,2.21h-1a2.39,2.39,0,0,0-.83-1.57,2.79,2.79,0,0,0-1.76-.52,2.47,2.47,0,0,0-2.08,1,4.81,4.81,0,0,0,0,5.11,2.72,2.72,0,0,0,4.75-1.41h.94a3.74,3.74,0,0,1-1.18,2.38,3.55,3.55,0,0,1-2.42.8,3.46,3.46,0,0,1-2.85-1.24,4.64,4.64,0,0,1-.94-3.06,4.74,4.74,0,0,1,1-3.1,3.37,3.37,0,0,1,2.83-1.32A3.8,3.8,0,0,1,205.33,187Z"/><path class="cls-1" d="M210,183.83v2.67h2.16v.83H210v5.6a1.24,1.24,0,0,0,.19.78.92.92,0,0,0,.72.23h1v.83h-1.17a1.65,1.65,0,0,1-1.37-.5,2,2,0,0,1-.37-1.34v-5.6h-1.76v-.83h1.76v-2.27Z"/><path class="cls-1" d="M225.06,187.22a3.18,3.18,0,0,1,.74,2.22v5.33h-.91v-1.58a4.33,4.33,0,0,1-1.35,1.23,4.2,4.2,0,0,1-2.16.57,3,3,0,0,1-2-.62,2.14,2.14,0,0,1-.75-1.71,2.44,2.44,0,0,1,1.3-2.31,5.61,5.61,0,0,1,2.77-.59h2.11v-.31a2.1,2.1,0,0,0-2.4-2.35,2.91,2.91,0,0,0-1.73.46,2,2,0,0,0-.85,1.44h-.94a2.91,2.91,0,0,1,1.16-2.08,4.12,4.12,0,0,1,2.41-.64A3.24,3.24,0,0,1,225.06,187.22Zm-.22,3.31-2.07,0c-2.09,0-3.13.71-3.13,2.09a1.38,1.38,0,0,0,.52,1.12,2.14,2.14,0,0,0,1.41.43,3.42,3.42,0,0,0,2.31-.86,2.46,2.46,0,0,0,1-1.84Z"/><path class="cls-1" d="M233.93,188.82h-1a2,2,0,0,0-.69-1.27,3.33,3.33,0,0,0-3.16-.08,1.16,1.16,0,0,0-.58,1,1.12,1.12,0,0,0,.74,1,10.65,10.65,0,0,0,1.74.58,8.23,8.23,0,0,1,2.14.77,1.86,1.86,0,0,1,1,1.66c0,1.68-1.11,2.51-3.35,2.51s-3.28-.94-3.48-2.83h.95a2.21,2.21,0,0,0,.77,1.57,2.83,2.83,0,0,0,1.72.43c1.6,0,2.4-.54,2.4-1.63a1.24,1.24,0,0,0-.81-1.15,11.29,11.29,0,0,0-1.84-.58,8,8,0,0,1-2-.73,1.76,1.76,0,0,1-.94-1.59,1.86,1.86,0,0,1,.89-1.61,3.69,3.69,0,0,1,2.18-.6Q233.57,186.27,233.93,188.82Z"/><path class="cls-1" d="M241.81,188.82h-.94a2,2,0,0,0-.69-1.27,2.7,2.7,0,0,0-1.68-.44,2.74,2.74,0,0,0-1.49.36,1.17,1.17,0,0,0-.57,1,1.13,1.13,0,0,0,.73,1,10.51,10.51,0,0,0,1.75.58,8.23,8.23,0,0,1,2.14.77,1.86,1.86,0,0,1,1,1.66c0,1.68-1.12,2.51-3.36,2.51s-3.28-.94-3.47-2.83h.94a2.29,2.29,0,0,0,.77,1.57,2.87,2.87,0,0,0,1.73.43c1.6,0,2.4-.54,2.4-1.63a1.24,1.24,0,0,0-.82-1.15,11,11,0,0,0-1.84-.58,7.9,7.9,0,0,1-2-.73,1.76,1.76,0,0,1-.94-1.59,1.84,1.84,0,0,1,.89-1.61,3.69,3.69,0,0,1,2.18-.6C240.48,186.27,241.58,187.12,241.81,188.82Z"/><path class="cls-1" d="M249.88,187.6a5.81,5.81,0,0,1,.94,3.31H244.1a3.89,3.89,0,0,0,.82,2.39,2.61,2.61,0,0,0,2,.86,2.81,2.81,0,0,0,1.83-.59,3.12,3.12,0,0,0,.88-1.46h1a4,4,0,0,1-1.11,2A3.68,3.68,0,0,1,247,195a3.51,3.51,0,0,1-2.78-1.18,4.58,4.58,0,0,1-1.07-3.18,4.63,4.63,0,0,1,1-3.06,3.8,3.8,0,0,1,5.75,0ZM245,188a3.65,3.65,0,0,0-.86,2.18h5.69c-.16-2-1.11-3-2.86-3A2.49,2.49,0,0,0,245,188Z"/><path class="cls-1" d="M254.36,183.83v2.67h2.16v.83h-2.16v5.6a1.24,1.24,0,0,0,.19.78.92.92,0,0,0,.72.23h1v.83h-1.17a1.69,1.69,0,0,1-1.38-.5,2,2,0,0,1-.36-1.34v-5.6h-1.76v-.83h1.76v-2.27Z"/><path class="cls-1" d="M264.08,188.82h-.94a2,2,0,0,0-.69-1.27,2.7,2.7,0,0,0-1.68-.44,2.74,2.74,0,0,0-1.49.36,1.17,1.17,0,0,0-.57,1,1.13,1.13,0,0,0,.73,1,11.22,11.22,0,0,0,1.75.58,8.23,8.23,0,0,1,2.14.77,1.86,1.86,0,0,1,1,1.66c0,1.68-1.12,2.51-3.36,2.51s-3.28-.94-3.47-2.83h.95a2.24,2.24,0,0,0,.76,1.57,2.87,2.87,0,0,0,1.73.43c1.6,0,2.4-.54,2.4-1.63a1.24,1.24,0,0,0-.81-1.15,11.65,11.65,0,0,0-1.84-.58,8,8,0,0,1-2-.73,1.76,1.76,0,0,1-.94-1.59,1.84,1.84,0,0,1,.89-1.61,3.69,3.69,0,0,1,2.18-.6C262.75,186.27,263.85,187.12,264.08,188.82Z"/><path class="cls-1" d="M267.49,193.39a.73.73,0,0,1,.24.58.8.8,0,0,1-.25.58.83.83,0,0,1-.56.22.75.75,0,0,1-.58-.24.77.77,0,0,1-.24-.56.73.73,0,0,1,.24-.58.78.78,0,0,1,.58-.22A.81.81,0,0,1,267.49,193.39Z"/></svg>