<svg id="图层_1" data-name="图层 1" xmlns="http://www.w3.org/2000/svg" viewBox="0 0 440 275"><defs><style>.cls-1{fill:#33353c;}</style></defs><title>币网站中英文</title><path class="cls-1" d="M64.34,11.42H69q3.8,0,3.8,3.28T69,18H65.31v4.84h-1Zm1,.86v4.85h3.6a3.35,3.35,0,0,0,2.19-.61,2.29,2.29,0,0,0,.69-1.82,2.22,2.22,0,0,0-.69-1.79,3.25,3.25,0,0,0-2.19-.63Z"/><path class="cls-1" d="M80.86,15.66a4.59,4.59,0,0,1,1,3.06,4.63,4.63,0,0,1-1,3,3.92,3.92,0,0,1-5.85,0,4.68,4.68,0,0,1-1-3,4.6,4.6,0,0,1,1-3.06,3.59,3.59,0,0,1,2.92-1.31A3.63,3.63,0,0,1,80.86,15.66Zm-5.15.61A3.86,3.86,0,0,0,75,18.72a3.84,3.84,0,0,0,.73,2.43,2.84,2.84,0,0,0,4.47,0,4,4,0,0,0,.73-2.43,3.94,3.94,0,0,0-.73-2.45,2.84,2.84,0,0,0-4.47,0Z"/><path class="cls-1" d="M85.1,11.84a.66.66,0,0,1,.24.56.78.78,0,0,1-.25.57.84.84,0,0,1-.56.23.8.8,0,0,1-.82-.8.66.66,0,0,1,.24-.56.75.75,0,0,1,.58-.24A.78.78,0,0,1,85.1,11.84Zm-1,2.73h1v8.27h-1Z"/><path class="cls-1" d="M94.22,17.76v5.08h-1v-5c0-1.76-.78-2.64-2.35-2.64a2.18,2.18,0,0,0-1.66.72,3,3,0,0,0-.79,2v5h-1V14.57h1v1.36a3.4,3.4,0,0,1,1.12-1.17,3,3,0,0,1,1.57-.41C93.2,14.35,94.22,15.48,94.22,17.76Z"/><path class="cls-1" d="M98.24,11.9v2.67h2.16v.83H98.24V21a1.26,1.26,0,0,0,.19.79.93.93,0,0,0,.72.22h1v.83H99a1.68,1.68,0,0,1-1.37-.49A2,2,0,0,1,97.28,21V15.4H95.52v-.83h1.76V12.3Z"/><path class="cls-1" d="M108.72,12.11A3.65,3.65,0,0,1,110,14.8h-1a3.12,3.12,0,0,0-1-2,3.41,3.41,0,0,0-2.3-.68,4.25,4.25,0,0,0-2.18.48,1.74,1.74,0,0,0,.18,3.13,16.75,16.75,0,0,0,2.19.74,13.16,13.16,0,0,1,2.95,1.09,2.64,2.64,0,0,1,1.42,2.4A2.7,2.7,0,0,1,109,22.25a5.31,5.31,0,0,1-3.12.82,4.85,4.85,0,0,1-3.1-.9,4.08,4.08,0,0,1-1.45-3.1h1a3.48,3.48,0,0,0,1.12,2.4,3.84,3.84,0,0,0,2.45.7,4.63,4.63,0,0,0,2.45-.59,1.86,1.86,0,0,0,.93-1.62,2,2,0,0,0-1.17-1.82,12,12,0,0,0-2.51-.88,13.75,13.75,0,0,1-2.62-.91,2.34,2.34,0,0,1-1.32-2.15,2.53,2.53,0,0,1,1.24-2.27,5,5,0,0,1,2.84-.73A4.53,4.53,0,0,1,108.72,12.11Z"/><path class="cls-1" d="M118.09,15.68A5.68,5.68,0,0,1,119,19h-6.72a3.8,3.8,0,0,0,.82,2.38,2.58,2.58,0,0,0,2,.87,2.76,2.76,0,0,0,1.83-.6,3.17,3.17,0,0,0,.88-1.45h1a3.92,3.92,0,0,1-1.1,2,3.73,3.73,0,0,1-2.58.91,3.51,3.51,0,0,1-2.78-1.19,4.53,4.53,0,0,1-1.07-3.18,4.63,4.63,0,0,1,1-3.06,3.45,3.45,0,0,1,2.8-1.29A3.4,3.4,0,0,1,118.09,15.68ZM113.2,16a3.67,3.67,0,0,0-.87,2.17H118c-.16-2-1.11-3-2.86-3A2.47,2.47,0,0,0,113.2,16Z"/><path class="cls-1" d="M122.57,11.9v2.67h2.17v.83h-2.17V21a1.25,1.25,0,0,0,.2.79.91.91,0,0,0,.72.22h1v.83h-1.17a1.72,1.72,0,0,1-1.38-.49,2.05,2.05,0,0,1-.37-1.35V15.4h-1.76v-.83h1.76V12.3Z"/><path class="cls-1" d="M130.59,14.57h1.07l2.24,7,2.08-7h.93l2.08,7,2.26-7h1.05l-2.83,8.27h-.93l-2.08-7-2.11,7h-.91Z"/><path class="cls-1" d="M149.68,15.68a5.76,5.76,0,0,1,.94,3.31H143.9a3.92,3.92,0,0,0,.82,2.38,2.59,2.59,0,0,0,2.05.87,2.75,2.75,0,0,0,1.82-.6,3.09,3.09,0,0,0,.88-1.45h1a3.93,3.93,0,0,1-1.11,2,3.72,3.72,0,0,1-2.57.91A3.53,3.53,0,0,1,144,21.88a4.58,4.58,0,0,1-1.07-3.18,4.63,4.63,0,0,1,1-3.06,3.45,3.45,0,0,1,2.8-1.29A3.41,3.41,0,0,1,149.68,15.68Zm-4.9.35a3.6,3.6,0,0,0-.86,2.17h5.69c-.16-2-1.11-3-2.86-3A2.47,2.47,0,0,0,144.78,16Z"/><path class="cls-1" d="M158.24,15.29a3.22,3.22,0,0,1,.73,2.23v5.32h-.91V21.26a4.29,4.29,0,0,1-1.34,1.23,4.11,4.11,0,0,1-2.16.58,3,3,0,0,1-2-.63,2.12,2.12,0,0,1-.75-1.71,2.44,2.44,0,0,1,1.29-2.3,5.56,5.56,0,0,1,2.77-.59l2.11,0v-.3a2.11,2.11,0,0,0-2.4-2.36,2.81,2.81,0,0,0-1.72.47,2,2,0,0,0-.85,1.44h-.95A2.9,2.9,0,0,1,153.26,15a4,4,0,0,1,2.4-.64A3.28,3.28,0,0,1,158.24,15.29ZM158,18.6l-2.06,0c-2.09,0-3.14.71-3.14,2.1a1.4,1.4,0,0,0,.53,1.12,2.16,2.16,0,0,0,1.41.43,3.42,3.42,0,0,0,2.3-.87,2.44,2.44,0,0,0,1-1.84Z"/><path class="cls-1" d="M161,11.2h1v7.55l4.59-4.18h1.31l-3.63,3.28,4,5H167l-3.43-4.36L162,19.92v2.92h-1Z"/><path class="cls-1" d="M175.52,15.68a5.76,5.76,0,0,1,.94,3.31h-6.72a3.92,3.92,0,0,0,.82,2.38,2.59,2.59,0,0,0,2.05.87,2.75,2.75,0,0,0,1.82-.6,3.09,3.09,0,0,0,.88-1.45h1a3.93,3.93,0,0,1-1.11,2,3.72,3.72,0,0,1-2.57.91,3.53,3.53,0,0,1-2.79-1.19,4.58,4.58,0,0,1-1.07-3.18,4.63,4.63,0,0,1,1-3.06,3.45,3.45,0,0,1,2.8-1.29A3.41,3.41,0,0,1,175.52,15.68Zm-4.9.35a3.6,3.6,0,0,0-.86,2.17h5.69c-.16-2-1.11-3-2.86-3A2.47,2.47,0,0,0,170.62,16Z"/><path class="cls-1" d="M184.72,17.76v5.08h-1v-5c0-1.76-.79-2.64-2.36-2.64a2.18,2.18,0,0,0-1.66.72,2.9,2.9,0,0,0-.78,2v5h-1V14.57h1v1.36a3.31,3.31,0,0,1,1.12-1.17,3,3,0,0,1,1.57-.41C183.69,14.35,184.72,15.48,184.72,17.76Z"/><path class="cls-1" d="M192.85,16.89h-.95a1.89,1.89,0,0,0-.69-1.26,2.63,2.63,0,0,0-1.68-.45,2.6,2.6,0,0,0-1.48.37,1.13,1.13,0,0,0-.58,1,1.15,1.15,0,0,0,.74,1,10.89,10.89,0,0,0,1.74.57,8.63,8.63,0,0,1,2.14.77,1.89,1.89,0,0,1,1,1.67c0,1.67-1.12,2.51-3.36,2.51s-3.28-.95-3.48-2.83h.95A2.21,2.21,0,0,0,188,21.8a2.83,2.83,0,0,0,1.72.44c1.6,0,2.4-.55,2.4-1.64a1.25,1.25,0,0,0-.81-1.15,10.6,10.6,0,0,0-1.84-.57,8.09,8.09,0,0,1-2-.74,1.74,1.74,0,0,1-.94-1.58,1.88,1.88,0,0,1,.89-1.62,3.69,3.69,0,0,1,2.18-.59C191.51,14.35,192.61,15.2,192.85,16.89Z"/><path class="cls-1" d="M202,11.9v2.67h2.16v.83H202V21a1.26,1.26,0,0,0,.19.79.93.93,0,0,0,.72.22h1v.83h-1.17a1.69,1.69,0,0,1-1.37-.49A2,2,0,0,1,201,21V15.4h-1.76v-.83H201V12.3Z"/><path class="cls-1" d="M205.57,11.2h1v4.88a3.18,3.18,0,0,1,1.15-1.3,2.94,2.94,0,0,1,1.57-.43,2.9,2.9,0,0,1,2.21.83,3.36,3.36,0,0,1,.8,2.38v5.28h-1V17.69a2.7,2.7,0,0,0-.61-1.87,2.41,2.41,0,0,0-3.46.19,3,3,0,0,0-.7,2v4.78h-1Z"/><path class="cls-1" d="M220.57,15.68a5.68,5.68,0,0,1,1,3.31H214.8a3.85,3.85,0,0,0,.81,2.38,2.62,2.62,0,0,0,2,.87,2.76,2.76,0,0,0,1.83-.6,3.17,3.17,0,0,0,.88-1.45h1a3.92,3.92,0,0,1-1.1,2,3.73,3.73,0,0,1-2.58.91,3.51,3.51,0,0,1-2.78-1.19,4.53,4.53,0,0,1-1.07-3.18,4.63,4.63,0,0,1,1-3.06,3.44,3.44,0,0,1,2.8-1.29A3.4,3.4,0,0,1,220.57,15.68Zm-4.89.35a3.67,3.67,0,0,0-.87,2.17h5.7c-.16-2-1.11-3-2.86-3A2.45,2.45,0,0,0,215.68,16Z"/><path class="cls-1" d="M234.29,15.07a3.16,3.16,0,0,1,1.13,2.21h-1a2.34,2.34,0,0,0-.83-1.57,2.79,2.79,0,0,0-1.76-.53,2.47,2.47,0,0,0-2.08,1,4,4,0,0,0-.75,2.57,4.07,4.07,0,0,0,.72,2.53,2.71,2.71,0,0,0,4.75-1.41h.94a3.79,3.79,0,0,1-1.18,2.39,3.58,3.58,0,0,1-2.42.8A3.48,3.48,0,0,1,229,21.82a4.7,4.7,0,0,1-.94-3.06,4.81,4.81,0,0,1,1-3.1,3.39,3.39,0,0,1,2.83-1.31A3.85,3.85,0,0,1,234.29,15.07Z"/><path class="cls-1" d="M243.53,15.66a4.64,4.64,0,0,1,1,3.06,4.68,4.68,0,0,1-1,3,3.92,3.92,0,0,1-5.85,0,4.63,4.63,0,0,1-1-3,4.6,4.6,0,0,1,1-3.06,3.59,3.59,0,0,1,2.91-1.31A3.64,3.64,0,0,1,243.53,15.66Zm-5.15.61a3.86,3.86,0,0,0-.73,2.45,3.84,3.84,0,0,0,.73,2.43,2.83,2.83,0,0,0,4.46,0,4,4,0,0,0,.74-2.43,3.94,3.94,0,0,0-.74-2.45,2.83,2.83,0,0,0-4.46,0Z"/><path class="cls-1" d="M253,17.76v5.08h-1v-5c0-1.76-.79-2.64-2.35-2.64a2.19,2.19,0,0,0-1.67.72,2.9,2.9,0,0,0-.78,2v5h-1V14.57h1v1.36a3.4,3.4,0,0,1,1.12-1.17,3,3,0,0,1,1.56-.41C251.93,14.35,253,15.48,253,17.76Z"/><path class="cls-1" d="M260.88,15.07A3.13,3.13,0,0,1,262,17.28h-1a2.3,2.3,0,0,0-.83-1.57,2.77,2.77,0,0,0-1.76-.53,2.49,2.49,0,0,0-2.08,1,4,4,0,0,0-.75,2.57,4.07,4.07,0,0,0,.72,2.53,2.48,2.48,0,0,0,2.09.95,2.45,2.45,0,0,0,2.66-2.36H262a3.79,3.79,0,0,1-1.18,2.39,3.58,3.58,0,0,1-2.42.8,3.45,3.45,0,0,1-2.84-1.25,4.65,4.65,0,0,1-.95-3.06,4.81,4.81,0,0,1,1-3.1,3.39,3.39,0,0,1,2.83-1.31A3.85,3.85,0,0,1,260.88,15.07Z"/><path class="cls-1" d="M269.87,15.68a5.76,5.76,0,0,1,.94,3.31h-6.72a3.92,3.92,0,0,0,.82,2.38,2.59,2.59,0,0,0,2,.87,2.75,2.75,0,0,0,1.82-.6,3.09,3.09,0,0,0,.88-1.45h1a3.93,3.93,0,0,1-1.11,2,3.72,3.72,0,0,1-2.57.91,3.53,3.53,0,0,1-2.79-1.19,4.58,4.58,0,0,1-1.07-3.18,4.63,4.63,0,0,1,1-3.06,3.45,3.45,0,0,1,2.8-1.29A3.41,3.41,0,0,1,269.87,15.68ZM265,16a3.6,3.6,0,0,0-.86,2.17h5.69c-.16-2-1.11-3-2.86-3A2.47,2.47,0,0,0,265,16Z"/><path class="cls-1" d="M279,15.68a4.93,4.93,0,0,1,.91,3.05,5,5,0,0,1-.9,3,3.33,3.33,0,0,1-2.77,1.31,3,3,0,0,1-2.89-1.95V26h-1V14.57h.91V16.2a3,3,0,0,1,2.91-1.85A3.33,3.33,0,0,1,279,15.68Zm-5,.54a4,4,0,0,0-.68,2.45v.17a3.86,3.86,0,0,0,.73,2.45,2.44,2.44,0,0,0,2,1,2.57,2.57,0,0,0,2.17-1,4.21,4.21,0,0,0,.68-2.5,4.26,4.26,0,0,0-.66-2.49,2.49,2.49,0,0,0-2.16-1.08A2.45,2.45,0,0,0,274,16.22Z"/><path class="cls-1" d="M283.56,11.9v2.67h2.16v.83h-2.16V21a1.25,1.25,0,0,0,.2.79.9.9,0,0,0,.72.22h1v.83h-1.17a1.72,1.72,0,0,1-1.38-.49A2.05,2.05,0,0,1,282.6,21V15.4h-1.76v-.83h1.76V12.3Z"/><path class="cls-1" d="M299.05,15.66a4.64,4.64,0,0,1,1,3.06,4.68,4.68,0,0,1-1,3,3.92,3.92,0,0,1-5.85,0,4.63,4.63,0,0,1-1-3,4.6,4.6,0,0,1,1-3.06,3.59,3.59,0,0,1,2.91-1.31A3.64,3.64,0,0,1,299.05,15.66Zm-5.15.61a3.86,3.86,0,0,0-.74,2.45,3.84,3.84,0,0,0,.74,2.43,2.83,2.83,0,0,0,4.46,0,4,4,0,0,0,.74-2.43,3.94,3.94,0,0,0-.74-2.45,2.83,2.83,0,0,0-4.46,0Z"/><path class="cls-1" d="M306.59,11.42v.85H305.2a1.18,1.18,0,0,0-.92.32,1.46,1.46,0,0,0-.28,1v1h2.48v.83H304v7.44h-1V15.4h-2.21v-.83H303v-1a2.2,2.2,0,0,1,.51-1.59,2,2,0,0,1,1.57-.59Z"/><path class="cls-1" d="M312.07,14.57h1.06l2.61,7.06,2.59-7.06h1.07l-3.16,8.27h-1Z"/><path class="cls-1" d="M326.57,15.29a3.23,3.23,0,0,1,.74,2.23v5.32h-.91V21.26a4.33,4.33,0,0,1-1.35,1.23,4.11,4.11,0,0,1-2.16.58,3,3,0,0,1-2-.63,2.12,2.12,0,0,1-.75-1.71,2.44,2.44,0,0,1,1.3-2.3,5.51,5.51,0,0,1,2.77-.59l2.11,0v-.3a2.11,2.11,0,0,0-2.4-2.36,2.84,2.84,0,0,0-1.73.47,2,2,0,0,0-.85,1.44h-.94A2.9,2.9,0,0,1,321.6,15a4,4,0,0,1,2.4-.64A3.24,3.24,0,0,1,326.57,15.29Zm-.22,3.31-2.07,0c-2.09,0-3.13.71-3.13,2.1a1.37,1.37,0,0,0,.53,1.12,2.15,2.15,0,0,0,1.4.43,3.43,3.43,0,0,0,2.31-.87,2.44,2.44,0,0,0,1-1.84Z"/><path class="cls-1" d="M334,14.52v1a4.26,4.26,0,0,0-1.26-.18,2,2,0,0,0-1.79,1,3.51,3.51,0,0,0-.66,2.16v4.36h-1V14.57h1v1.59a3,3,0,0,1,.92-1.24,2.38,2.38,0,0,1,1.6-.57A3.37,3.37,0,0,1,334,14.52Z"/><path class="cls-1" d="M336.62,11.84a.66.66,0,0,1,.24.56.79.79,0,0,1-.26.57.84.84,0,0,1-.56.23.8.8,0,0,1-.81-.8.66.66,0,0,1,.24-.56.75.75,0,0,1,.57-.24A.78.78,0,0,1,336.62,11.84Zm-1.06,2.73h1v8.27h-1Z"/><path class="cls-1" d="M345.56,15.66a4.59,4.59,0,0,1,1,3.06,4.63,4.63,0,0,1-1,3,3.92,3.92,0,0,1-5.85,0,4.63,4.63,0,0,1-1-3,4.6,4.6,0,0,1,1-3.06,3.59,3.59,0,0,1,2.92-1.31A3.63,3.63,0,0,1,345.56,15.66Zm-5.15.61a3.86,3.86,0,0,0-.74,2.45,3.84,3.84,0,0,0,.74,2.43,2.83,2.83,0,0,0,4.46,0,3.94,3.94,0,0,0,.74-2.43,3.88,3.88,0,0,0-.74-2.45,2.83,2.83,0,0,0-4.46,0Z"/><path class="cls-1" d="M348.27,14.57h1v5.06a2.92,2.92,0,0,0,.54,1.93,2.21,2.21,0,0,0,1.78.68,2.32,2.32,0,0,0,1.68-.74,2.91,2.91,0,0,0,.81-1.9v-5h1v8.27h-1V21.45a3,3,0,0,1-2.75,1.62c-2,0-3-1.13-3-3.39Z"/><path class="cls-1" d="M363.13,16.89h-.94a2,2,0,0,0-.69-1.26,3.28,3.28,0,0,0-3.17-.08,1.09,1.09,0,0,0,.16,2,10.74,10.74,0,0,0,1.75.57,8.79,8.79,0,0,1,2.14.77,1.88,1.88,0,0,1,1,1.67c0,1.67-1.12,2.51-3.36,2.51s-3.28-.95-3.47-2.83h.94a2.24,2.24,0,0,0,.77,1.56,2.84,2.84,0,0,0,1.73.44c1.6,0,2.4-.55,2.4-1.64a1.25,1.25,0,0,0-.82-1.15,10.6,10.6,0,0,0-1.84-.57,7.83,7.83,0,0,1-2-.74,1.75,1.75,0,0,1-.95-1.58,1.87,1.87,0,0,1,.9-1.62,3.66,3.66,0,0,1,2.17-.59C361.8,14.35,362.9,15.2,363.13,16.89Z"/><path class="cls-1" d="M63.67,43.68a4.87,4.87,0,0,1,.91,3,5,5,0,0,1-.89,3,3.35,3.35,0,0,1-2.77,1.31,3,3,0,0,1-2.9-2V54h-1V42.57H58V44.2a3,3,0,0,1,2.91-1.85A3.31,3.31,0,0,1,63.67,43.68Zm-5,.54A4,4,0,0,0,58,46.67v.17a3.86,3.86,0,0,0,.74,2.45,2.42,2.42,0,0,0,2,1,2.59,2.59,0,0,0,2.18-1,4.2,4.2,0,0,0,.67-2.5,4.34,4.34,0,0,0-.65-2.49,2.52,2.52,0,0,0-2.16-1.08A2.44,2.44,0,0,0,58.68,44.22Z"/><path class="cls-1" d="M72.36,43.29a3.23,3.23,0,0,1,.74,2.23v5.32h-.92V49.26a4.29,4.29,0,0,1-1.34,1.23,4.11,4.11,0,0,1-2.16.58,3,3,0,0,1-2-.63A2.12,2.12,0,0,1,66,48.73a2.44,2.44,0,0,1,1.3-2.3A5.49,5.49,0,0,1,70,45.84l2.12,0v-.3a2.11,2.11,0,0,0-2.4-2.36,2.82,2.82,0,0,0-1.73.47,2,2,0,0,0-.85,1.44h-.94A2.86,2.86,0,0,1,67.38,43a4,4,0,0,1,2.4-.64A3.25,3.25,0,0,1,72.36,43.29Zm-.22,3.31-2.07,0c-2.09,0-3.13.71-3.13,2.1a1.39,1.39,0,0,0,.52,1.12,2.18,2.18,0,0,0,1.41.43,3.45,3.45,0,0,0,2.31-.87,2.44,2.44,0,0,0,1-1.84Z"/><path class="cls-1" d="M79.78,42.52v1a4.26,4.26,0,0,0-1.26-.18,2,2,0,0,0-1.79,1,3.51,3.51,0,0,0-.66,2.16v4.36h-1V42.57h1v1.59A3.11,3.11,0,0,1,77,42.92a2.41,2.41,0,0,1,1.6-.57A3.4,3.4,0,0,1,79.78,42.52Z"/><path class="cls-1" d="M82.87,39.9v2.67H85v.83H82.87V49a1.33,1.33,0,0,0,.19.79.93.93,0,0,0,.72.22h1v.83H83.65a1.71,1.71,0,0,1-1.37-.49A2,2,0,0,1,81.91,49V43.4H80.15v-.83h1.76V40.3Z"/><path class="cls-1" d="M88,39.84a.66.66,0,0,1,.24.56A.78.78,0,0,1,88,41a.84.84,0,0,1-.56.23.8.8,0,0,1-.82-.8.66.66,0,0,1,.24-.56.75.75,0,0,1,.58-.24A.78.78,0,0,1,88,39.84Zm-1,2.73h1v8.27H87Z"/><path class="cls-1" d="M96.33,43.07a3.13,3.13,0,0,1,1.13,2.21h-1a2.3,2.3,0,0,0-.83-1.57,2.77,2.77,0,0,0-1.76-.53,2.49,2.49,0,0,0-2.08,1,4.79,4.79,0,0,0,0,5.1,2.48,2.48,0,0,0,2.1,1,2.44,2.44,0,0,0,2.65-2.36h.94a3.79,3.79,0,0,1-1.18,2.39,3.58,3.58,0,0,1-2.41.8,3.46,3.46,0,0,1-2.85-1.25,4.65,4.65,0,0,1-1-3.06,4.81,4.81,0,0,1,1-3.1,3.4,3.4,0,0,1,2.83-1.31A3.85,3.85,0,0,1,96.33,43.07Z"/><path class="cls-1" d="M100.57,39.84a.66.66,0,0,1,.24.56.79.79,0,0,1-.26.57.84.84,0,0,1-.56.23.8.8,0,0,1-.58-.23.78.78,0,0,1-.24-.57.66.66,0,0,1,.24-.56.77.77,0,0,1,.58-.24A.8.8,0,0,1,100.57,39.84Zm-1.06,2.73h1v8.27h-1Z"/><path class="cls-1" d="M109.57,43.68a4.88,4.88,0,0,1,.92,3,5,5,0,0,1-.9,3,3.33,3.33,0,0,1-2.77,1.31,3,3,0,0,1-2.89-2V54h-1V42.57h.91V44.2a3,3,0,0,1,2.91-1.85A3.31,3.31,0,0,1,109.57,43.68Zm-5,.54a4,4,0,0,0-.68,2.45v.17a3.86,3.86,0,0,0,.73,2.45,2.43,2.43,0,0,0,2,1,2.59,2.59,0,0,0,2.17-1,4.2,4.2,0,0,0,.67-2.5,4.26,4.26,0,0,0-.65-2.49,2.49,2.49,0,0,0-2.16-1.08A2.44,2.44,0,0,0,104.58,44.22Z"/><path class="cls-1" d="M118.26,43.29a3.23,3.23,0,0,1,.74,2.23v5.32h-.91V49.26a4.33,4.33,0,0,1-1.35,1.23,4.11,4.11,0,0,1-2.16.58,3,3,0,0,1-2-.63,2.12,2.12,0,0,1-.75-1.71,2.44,2.44,0,0,1,1.3-2.3,5.51,5.51,0,0,1,2.77-.59l2.11,0v-.3a2.11,2.11,0,0,0-2.4-2.36,2.84,2.84,0,0,0-1.73.47,2,2,0,0,0-.85,1.44h-.94A2.9,2.9,0,0,1,113.29,43a4,4,0,0,1,2.4-.64A3.24,3.24,0,0,1,118.26,43.29ZM118,46.6l-2.07,0c-2.09,0-3.13.71-3.13,2.1a1.37,1.37,0,0,0,.53,1.12,2.15,2.15,0,0,0,1.4.43,3.43,3.43,0,0,0,2.31-.87,2.44,2.44,0,0,0,1-1.84Z"/><path class="cls-1" d="M127.73,45.76v5.08h-1v-5c0-1.76-.78-2.64-2.35-2.64a2.18,2.18,0,0,0-1.66.72,3,3,0,0,0-.79,2v5h-1V42.57h1v1.36a3.49,3.49,0,0,1,1.12-1.17,3,3,0,0,1,1.57-.41C126.71,42.35,127.73,43.48,127.73,45.76Z"/><path class="cls-1" d="M131.75,39.9v2.67h2.16v.83h-2.16V49a1.26,1.26,0,0,0,.19.79.93.93,0,0,0,.72.22h1v.83h-1.17a1.69,1.69,0,0,1-1.37-.49,2,2,0,0,1-.37-1.35V43.4H129v-.83h1.76V40.3Z"/><path class="cls-1" d="M141.48,44.89h-.95a1.92,1.92,0,0,0-.68-1.26,2.67,2.67,0,0,0-1.68-.45,2.63,2.63,0,0,0-1.49.37,1.13,1.13,0,0,0-.58,1,1.15,1.15,0,0,0,.74,1,10.89,10.89,0,0,0,1.74.57,8.74,8.74,0,0,1,2.15.77,1.88,1.88,0,0,1,1,1.67c0,1.67-1.12,2.51-3.36,2.51s-3.28-1-3.47-2.83h.94a2.24,2.24,0,0,0,.77,1.56,2.84,2.84,0,0,0,1.73.44c1.6,0,2.4-.55,2.4-1.64a1.26,1.26,0,0,0-.82-1.15,10.6,10.6,0,0,0-1.84-.57,8.09,8.09,0,0,1-2-.74,1.74,1.74,0,0,1-.94-1.58,1.87,1.87,0,0,1,.9-1.62,3.66,3.66,0,0,1,2.17-.59C140.15,42.35,141.24,43.2,141.48,44.89Z"/><path class="cls-1" d="M144.89,49.47a.72.72,0,0,1,.24.57.8.8,0,0,1-.26.58.83.83,0,0,1-.56.22.82.82,0,0,1-.82-.8.72.72,0,0,1,.24-.57.77.77,0,0,1,.58-.23A.8.8,0,0,1,144.89,49.47Z"/><path class="cls-1" d="M161.81,40.92a6.26,6.26,0,0,1,1.4,4.21,6.29,6.29,0,0,1-1.4,4.23,5.55,5.55,0,0,1-8,0,6.25,6.25,0,0,1-1.39-4.21,6.25,6.25,0,0,1,1.39-4.21,5.55,5.55,0,0,1,8,0Zm-7.29.61a5.46,5.46,0,0,0-1.15,3.6,5.36,5.36,0,0,0,1.13,3.6,4.5,4.5,0,0,0,6.58,0,5.44,5.44,0,0,0,1.15-3.62,5.34,5.34,0,0,0-1.15-3.61,4.47,4.47,0,0,0-6.56,0Z"/><path class="cls-1" d="M171.62,45.76v5.08h-1v-5c0-1.76-.78-2.64-2.35-2.64a2.17,2.17,0,0,0-1.66.72,2.9,2.9,0,0,0-.79,2v5h-1V42.57h1v1.36A3.4,3.4,0,0,1,167,42.76a3,3,0,0,1,1.57-.41C170.6,42.35,171.62,43.48,171.62,45.76Z"/><path class="cls-1" d="M181,39.9v2.67h2.16v.83H181V49a1.26,1.26,0,0,0,.19.79.93.93,0,0,0,.72.22h1v.83h-1.17a1.72,1.72,0,0,1-1.38-.49A2.05,2.05,0,0,1,180,49V43.4h-1.76v-.83H180V40.3Z"/><path class="cls-1" d="M184.58,39.2h1v4.88a3.18,3.18,0,0,1,1.15-1.3,3.24,3.24,0,0,1,3.78.4,3.36,3.36,0,0,1,.8,2.38v5.28h-1V45.69a2.75,2.75,0,0,0-.6-1.87,2.28,2.28,0,0,0-1.71-.64,2.24,2.24,0,0,0-1.75.83,3,3,0,0,0-.7,2.05v4.78h-1Z"/><path class="cls-1" d="M199.59,43.68a5.68,5.68,0,0,1,.94,3.31h-6.72a3.92,3.92,0,0,0,.82,2.38,2.59,2.59,0,0,0,2.05.87,2.75,2.75,0,0,0,1.82-.6,3,3,0,0,0,.88-1.45h1a3.93,3.93,0,0,1-1.11,2,3.72,3.72,0,0,1-2.57.91,3.53,3.53,0,0,1-2.79-1.19,4.58,4.58,0,0,1-1.07-3.18,4.63,4.63,0,0,1,1-3.06,3.46,3.46,0,0,1,2.81-1.29A3.4,3.4,0,0,1,199.59,43.68Zm-4.9.35a3.6,3.6,0,0,0-.86,2.17h5.7c-.17-2-1.12-3-2.87-3A2.47,2.47,0,0,0,194.69,44Z"/><path class="cls-1" d="M214,43.68a4.88,4.88,0,0,1,.92,3,5,5,0,0,1-.9,3,3.34,3.34,0,0,1-2.77,1.31,3,3,0,0,1-2.89-2V54h-1V42.57h.91V44.2a3,3,0,0,1,2.91-1.85A3.31,3.31,0,0,1,214,43.68Zm-5,.54a4,4,0,0,0-.69,2.45v.17a3.86,3.86,0,0,0,.74,2.45,2.43,2.43,0,0,0,2,1,2.59,2.59,0,0,0,2.17-1,4.2,4.2,0,0,0,.67-2.5,4.26,4.26,0,0,0-.65-2.49,2.49,2.49,0,0,0-2.16-1.08A2.44,2.44,0,0,0,209,44.22Z"/><path class="cls-1" d="M221.28,42.52v1a4.26,4.26,0,0,0-1.26-.18,2,2,0,0,0-1.79,1,3.51,3.51,0,0,0-.66,2.16v4.36h-1V42.57h1v1.59a3,3,0,0,1,.92-1.24,2.37,2.37,0,0,1,1.59-.57A3.4,3.4,0,0,1,221.28,42.52Z"/><path class="cls-1" d="M228.66,43.68A5.68,5.68,0,0,1,229.6,47h-6.72a3.92,3.92,0,0,0,.82,2.38,2.6,2.6,0,0,0,2.05.87,2.73,2.73,0,0,0,1.82-.6,3,3,0,0,0,.88-1.45h1a3.86,3.86,0,0,1-1.11,2,3.72,3.72,0,0,1-2.57.91A3.55,3.55,0,0,1,223,49.88a5.16,5.16,0,0,1,0-6.24,3.8,3.8,0,0,1,5.74,0Zm-4.9.35a3.66,3.66,0,0,0-.86,2.17h5.7c-.16-2-1.12-3-2.87-3A2.47,2.47,0,0,0,223.76,44Z"/><path class="cls-1" d="M237.09,44a3.27,3.27,0,0,1,1.11-1.26,2.53,2.53,0,0,1,1.5-.43,2.73,2.73,0,0,1,2.08.81,3.3,3.3,0,0,1,.75,2.28v5.4h-1V45.56a2.72,2.72,0,0,0-.48-1.76,2.06,2.06,0,0,0-1.65-.62,1.89,1.89,0,0,0-1.5.69,2.39,2.39,0,0,0-.61,1.71v5.26h-1V45.56c0-1.59-.69-2.38-2.07-2.38a1.91,1.91,0,0,0-1.55.75,2.67,2.67,0,0,0-.64,1.83v5.08h-1V42.57h1v1.25a2.7,2.7,0,0,1,2.4-1.47A2.48,2.48,0,0,1,237.09,44Z"/><path class="cls-1" d="M246.08,39.84a.66.66,0,0,1,.24.56.78.78,0,0,1-.25.57.84.84,0,0,1-.56.23.8.8,0,0,1-.82-.8.66.66,0,0,1,.24-.56.75.75,0,0,1,.58-.24A.78.78,0,0,1,246.08,39.84ZM245,42.57h1v8.27h-1Z"/><path class="cls-1" d="M254.6,44.89h-.95a1.89,1.89,0,0,0-.69-1.26,3.26,3.26,0,0,0-3.16-.08,1.13,1.13,0,0,0-.58,1,1.15,1.15,0,0,0,.74,1,10.89,10.89,0,0,0,1.74.57,8.63,8.63,0,0,1,2.14.77,1.87,1.87,0,0,1,1,1.67c0,1.67-1.12,2.51-3.36,2.51s-3.28-1-3.48-2.83H249a2.21,2.21,0,0,0,.77,1.56,2.83,2.83,0,0,0,1.72.44c1.6,0,2.4-.55,2.4-1.64a1.25,1.25,0,0,0-.81-1.15,10.6,10.6,0,0,0-1.84-.57,8.09,8.09,0,0,1-2-.74,1.74,1.74,0,0,1-.94-1.58,1.88,1.88,0,0,1,.89-1.62,3.69,3.69,0,0,1,2.18-.59C253.26,42.35,254.36,43.2,254.6,44.89Z"/><path class="cls-1" d="M262.66,43.68A5.68,5.68,0,0,1,263.6,47h-6.72a3.92,3.92,0,0,0,.82,2.38,2.6,2.6,0,0,0,2.05.87,2.73,2.73,0,0,0,1.82-.6,3,3,0,0,0,.88-1.45h1a3.86,3.86,0,0,1-1.11,2,3.72,3.72,0,0,1-2.57.91A3.55,3.55,0,0,1,257,49.88a5.16,5.16,0,0,1,0-6.24,3.8,3.8,0,0,1,5.74,0Zm-4.9.35a3.66,3.66,0,0,0-.86,2.17h5.7c-.16-2-1.12-3-2.87-3A2.47,2.47,0,0,0,257.76,44Z"/><path class="cls-1" d="M271.68,43.66a5.11,5.11,0,0,1,0,6.1,3.92,3.92,0,0,1-5.85,0,4.68,4.68,0,0,1-1-3,4.6,4.6,0,0,1,1-3.06,3.59,3.59,0,0,1,2.92-1.31A3.63,3.63,0,0,1,271.68,43.66Zm-5.15.61a4.44,4.44,0,0,0,0,4.88,2.84,2.84,0,0,0,4.47,0,4,4,0,0,0,.73-2.43,3.94,3.94,0,0,0-.73-2.45,2.84,2.84,0,0,0-4.47,0Z"/><path class="cls-1" d="M279.22,39.42v.85h-1.39a1.14,1.14,0,0,0-.91.32,1.41,1.41,0,0,0-.29,1v1h2.48v.83h-2.48v7.44h-1V43.4h-2.21v-.83h2.21v-1a2.2,2.2,0,0,1,.51-1.59,2,2,0,0,1,1.57-.59Z"/><path class="cls-1" d="M291.59,44a3.25,3.25,0,0,1,1.1-1.26,2.58,2.58,0,0,1,1.51-.43,2.75,2.75,0,0,1,2.08.81,3.3,3.3,0,0,1,.75,2.28v5.4h-1V45.56a2.72,2.72,0,0,0-.48-1.76,2.06,2.06,0,0,0-1.65-.62,1.88,1.88,0,0,0-1.5.69,2.39,2.39,0,0,0-.61,1.71v5.26h-1V45.56c0-1.59-.69-2.38-2.06-2.38a1.9,1.9,0,0,0-1.55.75,2.67,2.67,0,0,0-.64,1.83v5.08h-1V42.57h1v1.25a2.67,2.67,0,0,1,2.4-1.47A2.49,2.49,0,0,1,291.59,44Z"/><path class="cls-1" d="M305.12,43.29a3.23,3.23,0,0,1,.74,2.23v5.32H305V49.26a4.22,4.22,0,0,1-1.35,1.23,4.11,4.11,0,0,1-2.16.58,2.94,2.94,0,0,1-2-.63,2.09,2.09,0,0,1-.76-1.71,2.44,2.44,0,0,1,1.3-2.3,5.53,5.53,0,0,1,2.77-.59l2.11,0v-.3a2.11,2.11,0,0,0-2.4-2.36,2.84,2.84,0,0,0-1.73.47,2,2,0,0,0-.85,1.44H299A2.9,2.9,0,0,1,300.15,43a4,4,0,0,1,2.4-.64A3.24,3.24,0,0,1,305.12,43.29Zm-.22,3.31-2.07,0c-2.09,0-3.13.71-3.13,2.1a1.4,1.4,0,0,0,.53,1.12,2.16,2.16,0,0,0,1.41.43,3.42,3.42,0,0,0,2.3-.87,2.44,2.44,0,0,0,1-1.84Z"/><path class="cls-1" d="M307.3,42.57h1.15l2.37,3.19,2.37-3.19h1.13l-3,3.91,3.32,4.36h-1.16l-2.7-3.64-2.72,3.64H307l3.33-4.36Z"/><path class="cls-1" d="M317.3,39.84a.66.66,0,0,1,.24.56.79.79,0,0,1-.26.57.82.82,0,0,1-.56.23.8.8,0,0,1-.81-.8.66.66,0,0,1,.24-.56.75.75,0,0,1,.57-.24A.78.78,0,0,1,317.3,39.84Zm-1.06,2.73h1v8.27h-1Z"/><path class="cls-1" d="M325.65,44a3.33,3.33,0,0,1,1.1-1.26,2.58,2.58,0,0,1,1.51-.43,2.73,2.73,0,0,1,2.08.81,3.3,3.3,0,0,1,.75,2.28v5.4h-1V45.56a2.72,2.72,0,0,0-.48-1.76,2.06,2.06,0,0,0-1.65-.62,1.89,1.89,0,0,0-1.5.69,2.39,2.39,0,0,0-.61,1.71v5.26h-1V45.56c0-1.59-.68-2.38-2.06-2.38a1.9,1.9,0,0,0-1.55.75,2.67,2.67,0,0,0-.64,1.83v5.08h-1V42.57h1v1.25a2.7,2.7,0,0,1,2.4-1.47A2.48,2.48,0,0,1,325.65,44Z"/><path class="cls-1" d="M334.64,39.84a.66.66,0,0,1,.24.56.78.78,0,0,1-.25.57.84.84,0,0,1-.56.23.8.8,0,0,1-.82-.8.66.66,0,0,1,.24-.56.75.75,0,0,1,.58-.24A.78.78,0,0,1,334.64,39.84Zm-1.05,2.73h1v8.27h-1Z"/><path class="cls-1" d="M336.59,42.57H343v.74L337.67,50h5.6v.83h-6.84v-.75l5.33-6.69h-5.17Z"/><path class="cls-1" d="M346.21,39.84a.66.66,0,0,1,.24.56.76.76,0,0,1-.26.57.82.82,0,0,1-.56.23.8.8,0,0,1-.81-.8.66.66,0,0,1,.24-.56.75.75,0,0,1,.57-.24A.78.78,0,0,1,346.21,39.84Zm-1.06,2.73h1v8.27h-1Z"/><path class="cls-1" d="M355.33,45.76v5.08h-1v-5c0-1.76-.78-2.64-2.35-2.64a2.2,2.2,0,0,0-1.67.72,2.94,2.94,0,0,0-.78,2v5h-1V42.57h1v1.36a3.4,3.4,0,0,1,1.12-1.17,3,3,0,0,1,1.57-.41C354.31,42.35,355.33,43.48,355.33,45.76Z"/><path class="cls-1" d="M363.71,44.24V42.57h1v7.67c0,2.66-1.23,4-3.71,4a4,4,0,0,1-2.51-.71,3,3,0,0,1-1.06-2h1a2.14,2.14,0,0,0,.77,1.37,2.84,2.84,0,0,0,1.84.52c1.84,0,2.75-1,2.75-3.09V48.76a3.06,3.06,0,0,1-3,1.89A3.42,3.42,0,0,1,358,49.42a4.89,4.89,0,0,1,0-5.82,3.38,3.38,0,0,1,2.76-1.25A3.06,3.06,0,0,1,363.71,44.24Zm-5-.08a3.57,3.57,0,0,0-.74,2.35,3.66,3.66,0,0,0,.69,2.3,2.54,2.54,0,0,0,2.16,1,2.58,2.58,0,0,0,2.14-1,4.2,4.2,0,0,0,0-4.7,2.76,2.76,0,0,0-4.25,0Z"/><path class="cls-1" d="M96.05,71.68a5.56,5.56,0,0,1,0,6.08,3.32,3.32,0,0,1-2.76,1.31,3,3,0,0,1-2.9-1.95V82h-1V70.57h.91V72.2a3,3,0,0,1,2.91-1.85A3.33,3.33,0,0,1,96.05,71.68Zm-5,.54a4,4,0,0,0-.69,2.45v.17a3.86,3.86,0,0,0,.73,2.45,2.44,2.44,0,0,0,2,1,2.6,2.6,0,0,0,2.18-1,5,5,0,0,0,0-5,2.49,2.49,0,0,0-2.16-1.08A2.44,2.44,0,0,0,91.06,72.22Z"/><path class="cls-1" d="M104.74,71.29a3.22,3.22,0,0,1,.73,2.23v5.32h-.91V77.26a4.29,4.29,0,0,1-1.34,1.23,4.14,4.14,0,0,1-2.16.58,3,3,0,0,1-2-.63,2.12,2.12,0,0,1-.76-1.71,2.45,2.45,0,0,1,1.3-2.3,5.53,5.53,0,0,1,2.77-.59l2.11,0v-.3a2.11,2.11,0,0,0-2.4-2.36,2.87,2.87,0,0,0-1.73.47,1.94,1.94,0,0,0-.84,1.44h-1A2.9,2.9,0,0,1,99.76,71a4,4,0,0,1,2.4-.64A3.28,3.28,0,0,1,104.74,71.29Zm-.23,3.31-2.06,0c-2.09,0-3.14.71-3.14,2.1a1.4,1.4,0,0,0,.53,1.12,2.16,2.16,0,0,0,1.41.43,3.42,3.42,0,0,0,2.3-.87,2.44,2.44,0,0,0,1-1.84Z"/><path class="cls-1" d="M112.16,70.52v1a4.36,4.36,0,0,0-1.26-.18,2,2,0,0,0-1.8,1,3.51,3.51,0,0,0-.65,2.16v4.36h-1V70.57h1v1.59a3,3,0,0,1,.91-1.24,2.39,2.39,0,0,1,1.6-.57A3.48,3.48,0,0,1,112.16,70.52Z"/><path class="cls-1" d="M115.25,67.9v2.67h2.16v.83h-2.16V77a1.26,1.26,0,0,0,.19.79.93.93,0,0,0,.72.22h1v.83H116a1.72,1.72,0,0,1-1.38-.49,2.06,2.06,0,0,1-.36-1.35V71.4h-1.76v-.83h1.76V68.3Z"/><path class="cls-1" d="M120.4,67.84a.66.66,0,0,1,.24.56.79.79,0,0,1-.26.57.82.82,0,0,1-.56.23.8.8,0,0,1-.81-.8.66.66,0,0,1,.24-.56.75.75,0,0,1,.57-.24A.78.78,0,0,1,120.4,67.84Zm-1.06,2.73h1v8.27h-1Z"/><path class="cls-1" d="M128.7,71.07a3.13,3.13,0,0,1,1.14,2.21h-1a2.39,2.39,0,0,0-.83-1.57,2.79,2.79,0,0,0-1.76-.53,2.47,2.47,0,0,0-2.08,1,4,4,0,0,0-.76,2.57,4.07,4.07,0,0,0,.72,2.53,2.48,2.48,0,0,0,2.1.95,2.45,2.45,0,0,0,2.66-2.36h.94a3.79,3.79,0,0,1-1.18,2.39,3.6,3.6,0,0,1-2.42.8,3.46,3.46,0,0,1-2.85-1.25,4.64,4.64,0,0,1-.94-3.06,4.81,4.81,0,0,1,1-3.1,3.42,3.42,0,0,1,2.84-1.31A3.82,3.82,0,0,1,128.7,71.07Z"/><path class="cls-1" d="M132.94,67.84a.66.66,0,0,1,.24.56.78.78,0,0,1-.25.57.84.84,0,0,1-.56.23.8.8,0,0,1-.82-.8.66.66,0,0,1,.24-.56.75.75,0,0,1,.58-.24A.78.78,0,0,1,132.94,67.84Zm-1.05,2.73h1v8.27h-1Z"/><path class="cls-1" d="M142,71.68a4.87,4.87,0,0,1,.91,3,5,5,0,0,1-.89,3,3.35,3.35,0,0,1-2.77,1.31,3,3,0,0,1-2.9-1.95V82h-1V70.57h.91V72.2a3.05,3.05,0,0,1,2.92-1.85A3.31,3.31,0,0,1,142,71.68Zm-5,.54a4,4,0,0,0-.69,2.45v.17a3.86,3.86,0,0,0,.74,2.45,2.42,2.42,0,0,0,2,1,2.59,2.59,0,0,0,2.18-1,4.2,4.2,0,0,0,.67-2.5,4.26,4.26,0,0,0-.66-2.49,2.49,2.49,0,0,0-2.16-1.08A2.44,2.44,0,0,0,137,72.22Z"/><path class="cls-1" d="M150.64,71.29a3.22,3.22,0,0,1,.73,2.23v5.32h-.91V77.26a4.29,4.29,0,0,1-1.34,1.23,4.11,4.11,0,0,1-2.16.58,3,3,0,0,1-2-.63,2.12,2.12,0,0,1-.75-1.71,2.44,2.44,0,0,1,1.29-2.3,5.56,5.56,0,0,1,2.77-.59l2.11,0v-.3a2.11,2.11,0,0,0-2.4-2.36,2.81,2.81,0,0,0-1.72.47,2,2,0,0,0-.85,1.44h-.95A2.9,2.9,0,0,1,145.66,71a4,4,0,0,1,2.4-.64A3.28,3.28,0,0,1,150.64,71.29Zm-.23,3.31-2.06,0c-2.09,0-3.14.71-3.14,2.1a1.4,1.4,0,0,0,.53,1.12,2.16,2.16,0,0,0,1.41.43,3.42,3.42,0,0,0,2.3-.87,2.44,2.44,0,0,0,1-1.84Z"/><path class="cls-1" d="M160.11,73.76v5.08h-1v-5c0-1.76-.78-2.64-2.35-2.64a2.2,2.2,0,0,0-1.67.72,2.9,2.9,0,0,0-.78,1.95v5h-1V70.57h1v1.36a3.4,3.4,0,0,1,1.12-1.17,3,3,0,0,1,1.57-.41C159.09,70.35,160.11,71.48,160.11,73.76Z"/><path class="cls-1" d="M164.13,67.9v2.67h2.16v.83h-2.16V77a1.26,1.26,0,0,0,.19.79A.93.93,0,0,0,165,78h1v.83h-1.17a1.72,1.72,0,0,1-1.38-.49,2.05,2.05,0,0,1-.37-1.35V71.4H161.4v-.83h1.76V68.3Z"/><path class="cls-1" d="M173.85,72.89h-.94a2,2,0,0,0-.69-1.26,3.28,3.28,0,0,0-3.17-.08,1.1,1.1,0,0,0,.16,2,11.1,11.1,0,0,0,1.75.57,8.63,8.63,0,0,1,2.14.77,1.88,1.88,0,0,1,1,1.67c0,1.67-1.12,2.51-3.36,2.51s-3.28-.95-3.47-2.83h1A2.24,2.24,0,0,0,169,77.8a2.86,2.86,0,0,0,1.73.44c1.6,0,2.4-.55,2.4-1.64a1.25,1.25,0,0,0-.81-1.15,10.91,10.91,0,0,0-1.84-.57,7.94,7.94,0,0,1-2-.74,1.74,1.74,0,0,1-.94-1.58,1.86,1.86,0,0,1,.89-1.62,3.69,3.69,0,0,1,2.18-.59C172.52,70.35,173.62,71.2,173.85,72.89Z"/><path class="cls-1" d="M177.85,66.76a3,3,0,0,1-1.6,2.79L175.9,69a2.53,2.53,0,0,0,1.22-2l-.23,0a.8.8,0,0,1-.59-.22.74.74,0,0,1-.24-.56.69.69,0,0,1,.23-.59.75.75,0,0,1,.59-.23C177.53,65.45,177.85,65.89,177.85,66.76Z"/><path class="cls-1" d="M192.72,71.68a5.56,5.56,0,0,1,0,6.08A3.32,3.32,0,0,1,190,79.07a3,3,0,0,1-2.9-1.95V82h-1V70.57H187V72.2a3,3,0,0,1,2.91-1.85A3.33,3.33,0,0,1,192.72,71.68Zm-5,.54a4,4,0,0,0-.69,2.45v.17a3.86,3.86,0,0,0,.73,2.45,2.44,2.44,0,0,0,2,1,2.6,2.6,0,0,0,2.18-1,5,5,0,0,0,0-5,2.49,2.49,0,0,0-2.16-1.08A2.44,2.44,0,0,0,187.73,72.22Z"/><path class="cls-1" d="M200,70.52v1a4.38,4.38,0,0,0-1.27-.18,2,2,0,0,0-1.79,1,3.51,3.51,0,0,0-.66,2.16v4.36h-1V70.57h1v1.59a3,3,0,0,1,.92-1.24,2.39,2.39,0,0,1,1.6-.57A3.48,3.48,0,0,1,200,70.52Z"/><path class="cls-1" d="M207.63,71.66a5.11,5.11,0,0,1,0,6.1,3.93,3.93,0,0,1-5.86,0,4.68,4.68,0,0,1-1-3,4.6,4.6,0,0,1,1-3.06,3.56,3.56,0,0,1,2.91-1.31A3.65,3.65,0,0,1,207.63,71.66Zm-5.15.61a4.39,4.39,0,0,0,0,4.88,2.83,2.83,0,0,0,4.46,0,4,4,0,0,0,.74-2.43,3.94,3.94,0,0,0-.74-2.45,2.83,2.83,0,0,0-4.46,0Z"/><path class="cls-1" d="M215.16,67.42v.85h-1.39a1.15,1.15,0,0,0-.91.32,1.46,1.46,0,0,0-.29,1v1h5.06v8.27h-1V71.4h-4.1v7.44h-1V71.4H209.4v-.83h2.21v-1a2.2,2.2,0,0,1,.51-1.59,2,2,0,0,1,1.57-.59Z"/><path class="cls-1" d="M222,67.9v2.67h2.16v.83H222V77a1.26,1.26,0,0,0,.19.79.93.93,0,0,0,.72.22h1v.83h-1.17a1.68,1.68,0,0,1-1.37-.49A2,2,0,0,1,221,77V71.4h-1.76v-.83H221V68.3Z"/><path class="cls-1" d="M231.68,72.89h-1a1.89,1.89,0,0,0-.69-1.26,3.26,3.26,0,0,0-3.16-.08,1.13,1.13,0,0,0-.58,1,1.15,1.15,0,0,0,.74,1,10.89,10.89,0,0,0,1.74.57,8.63,8.63,0,0,1,2.14.77,1.87,1.87,0,0,1,1,1.67c0,1.67-1.12,2.51-3.36,2.51s-3.28-.95-3.48-2.83H226a2.21,2.21,0,0,0,.77,1.56,2.83,2.83,0,0,0,1.72.44c1.6,0,2.4-.55,2.4-1.64a1.25,1.25,0,0,0-.81-1.15,10.6,10.6,0,0,0-1.84-.57,8.09,8.09,0,0,1-2-.74,1.74,1.74,0,0,1-.94-1.58,1.88,1.88,0,0,1,.89-1.62,3.69,3.69,0,0,1,2.18-.59C230.34,70.35,231.44,71.2,231.68,72.89Z"/><path class="cls-1" d="M235.44,78.57a3,3,0,0,1-1.6,2.77l-.35-.56a2.55,2.55,0,0,0,1.23-2h-.24a.92.92,0,0,1-.6-.2.8.8,0,0,1-.22-.58.76.76,0,0,1,.21-.59.81.81,0,0,1,.59-.23C235.11,77.24,235.44,77.69,235.44,78.57Z"/><path class="cls-1" d="M239.58,67.9v2.67h2.16v.83h-2.16V77a1.26,1.26,0,0,0,.19.79.93.93,0,0,0,.72.22h1v.83h-1.17a1.69,1.69,0,0,1-1.37-.49,2,2,0,0,1-.37-1.35V71.4h-1.76v-.83h1.76V68.3Z"/><path class="cls-1" d="M243.2,67.2h1v4.88a3.18,3.18,0,0,1,1.15-1.3,2.94,2.94,0,0,1,1.57-.43,2.9,2.9,0,0,1,2.21.83,3.36,3.36,0,0,1,.8,2.38v5.28h-1V73.69a2.7,2.7,0,0,0-.61-1.87,2.4,2.4,0,0,0-3.45.19,3,3,0,0,0-.71,2v4.78h-1Z"/><path class="cls-1" d="M258.2,71.68a5.68,5.68,0,0,1,.95,3.31h-6.72a3.85,3.85,0,0,0,.81,2.38,2.62,2.62,0,0,0,2,.87,2.76,2.76,0,0,0,1.83-.6,3.17,3.17,0,0,0,.88-1.45h1a3.92,3.92,0,0,1-1.1,2,3.73,3.73,0,0,1-2.58.91,3.51,3.51,0,0,1-2.78-1.19,4.53,4.53,0,0,1-1.07-3.18,4.63,4.63,0,0,1,1-3.06,3.44,3.44,0,0,1,2.8-1.29A3.4,3.4,0,0,1,258.2,71.68Zm-4.89.35a3.67,3.67,0,0,0-.87,2.17h5.7c-.16-2-1.11-3-2.86-3A2.45,2.45,0,0,0,253.31,72Z"/><path class="cls-1" d="M262.22,67.84a.66.66,0,0,1,.24.56.79.79,0,0,1-.26.57.82.82,0,0,1-.56.23.8.8,0,0,1-.81-.8.66.66,0,0,1,.24-.56.75.75,0,0,1,.57-.24A.78.78,0,0,1,262.22,67.84Zm-1.06,2.73h1v8.27h-1Z"/><path class="cls-1" d="M269.29,70.52v1a4.26,4.26,0,0,0-1.26-.18,2,2,0,0,0-1.79,1,3.51,3.51,0,0,0-.66,2.16v4.36h-1V70.57h1v1.59a3,3,0,0,1,.91-1.24,2.39,2.39,0,0,1,1.6-.57A3.48,3.48,0,0,1,269.29,70.52Z"/><path class="cls-1" d="M280.38,70.52v1a4.31,4.31,0,0,0-1.26-.18,2,2,0,0,0-1.8,1,3.57,3.57,0,0,0-.65,2.16v4.36h-1V70.57h1v1.59a3,3,0,0,1,.91-1.24,2.39,2.39,0,0,1,1.6-.57A3.48,3.48,0,0,1,280.38,70.52Z"/><path class="cls-1" d="M288,71.66a5.11,5.11,0,0,1,0,6.1,3.93,3.93,0,0,1-5.86,0,4.68,4.68,0,0,1-1-3,4.6,4.6,0,0,1,1-3.06,3.59,3.59,0,0,1,2.91-1.31A3.64,3.64,0,0,1,288,71.66Zm-5.15.61a4.39,4.39,0,0,0,0,4.88,2.83,2.83,0,0,0,4.46,0,4,4,0,0,0,.74-2.43,3.94,3.94,0,0,0-.74-2.45,2.83,2.83,0,0,0-4.46,0Z"/><path class="cls-1" d="M291,67.2h1V78.84h-1Z"/><path class="cls-1" d="M300.59,71.68a5.76,5.76,0,0,1,.94,3.31h-6.72a3.86,3.86,0,0,0,.82,2.38,2.58,2.58,0,0,0,2,.87,2.76,2.76,0,0,0,1.83-.6,3.09,3.09,0,0,0,.88-1.45h1a3.93,3.93,0,0,1-1.11,2,3.73,3.73,0,0,1-2.58.91,3.51,3.51,0,0,1-2.78-1.19,4.58,4.58,0,0,1-1.07-3.18,4.63,4.63,0,0,1,1-3.06,3.45,3.45,0,0,1,2.8-1.29A3.41,3.41,0,0,1,300.59,71.68Zm-4.9.35a3.6,3.6,0,0,0-.86,2.17h5.69c-.16-2-1.11-3-2.86-3A2.47,2.47,0,0,0,295.69,72Z"/><path class="cls-1" d="M309.18,72.89h-.94a2,2,0,0,0-.69-1.26,2.67,2.67,0,0,0-1.68-.45,2.63,2.63,0,0,0-1.49.37,1.13,1.13,0,0,0-.58,1,1.15,1.15,0,0,0,.74,1,10.89,10.89,0,0,0,1.74.57,8.74,8.74,0,0,1,2.15.77,1.88,1.88,0,0,1,1,1.67c0,1.67-1.12,2.51-3.36,2.51s-3.28-.95-3.47-2.83h.94a2.24,2.24,0,0,0,.77,1.56,2.84,2.84,0,0,0,1.73.44c1.6,0,2.4-.55,2.4-1.64a1.26,1.26,0,0,0-.82-1.15,10.6,10.6,0,0,0-1.84-.57,8.09,8.09,0,0,1-2-.74,1.76,1.76,0,0,1-.94-1.58,1.87,1.87,0,0,1,.9-1.62,3.66,3.66,0,0,1,2.17-.59C307.85,70.35,308.94,71.2,309.18,72.89Z"/><path class="cls-1" d="M322.36,71.29a3.23,3.23,0,0,1,.74,2.23v5.32h-.91V77.26a4.33,4.33,0,0,1-1.35,1.23,4.11,4.11,0,0,1-2.16.58,3,3,0,0,1-2-.63,2.12,2.12,0,0,1-.75-1.71,2.45,2.45,0,0,1,1.3-2.3,5.51,5.51,0,0,1,2.77-.59l2.11,0v-.3a2.11,2.11,0,0,0-2.4-2.36,2.84,2.84,0,0,0-1.73.47,2,2,0,0,0-.85,1.44h-.94A2.9,2.9,0,0,1,317.39,71a4,4,0,0,1,2.4-.64A3.24,3.24,0,0,1,322.36,71.29Zm-.22,3.31-2.07,0c-2.09,0-3.13.71-3.13,2.1a1.37,1.37,0,0,0,.53,1.12,2.15,2.15,0,0,0,1.4.43,3.43,3.43,0,0,0,2.31-.87,2.44,2.44,0,0,0,1-1.84Z"/><path class="cls-1" d="M329.79,70.52v1a4.38,4.38,0,0,0-1.27-.18,2,2,0,0,0-1.79,1,3.51,3.51,0,0,0-.66,2.16v4.36h-1V70.57h1v1.59a3,3,0,0,1,.92-1.24,2.38,2.38,0,0,1,1.6-.57A3.48,3.48,0,0,1,329.79,70.52Z"/><path class="cls-1" d="M337.16,71.68a5.76,5.76,0,0,1,.95,3.31h-6.72a3.85,3.85,0,0,0,.81,2.38,2.6,2.6,0,0,0,2.05.87,2.73,2.73,0,0,0,1.82-.6,3,3,0,0,0,.88-1.45h1a3.92,3.92,0,0,1-1.1,2,3.74,3.74,0,0,1-2.58.91,3.51,3.51,0,0,1-2.78-1.19,4.54,4.54,0,0,1-1.08-3.18,4.64,4.64,0,0,1,1-3.06,3.44,3.44,0,0,1,2.8-1.29A3.4,3.4,0,0,1,337.16,71.68Zm-4.89.35a3.61,3.61,0,0,0-.87,2.17h5.7c-.16-2-1.12-3-2.86-3A2.45,2.45,0,0,0,332.27,72Z"/><path class="cls-1" d="M75.89,95.84a.66.66,0,0,1,.24.56.79.79,0,0,1-.26.57.84.84,0,0,1-.56.23.76.76,0,0,1-.57-.23.75.75,0,0,1-.25-.57.64.64,0,0,1,.25-.56.73.73,0,0,1,.57-.24A.78.78,0,0,1,75.89,95.84Zm-1.06,2.73h1v8.27h-1Z"/><path class="cls-1" d="M85,101.76v5.08h-1v-5c0-1.76-.79-2.64-2.35-2.64A2.19,2.19,0,0,0,80,99.9a2.9,2.9,0,0,0-.78,1.95v5h-1V98.57h1v1.36a3.4,3.4,0,0,1,1.12-1.17,3,3,0,0,1,1.57-.41C84,98.35,85,99.48,85,101.76Z"/><path class="cls-1" d="M89,95.9v2.67h2.16v.83H89V105a1.25,1.25,0,0,0,.2.79.89.89,0,0,0,.71.22h1v.83H89.81a1.72,1.72,0,0,1-1.38-.49,2.05,2.05,0,0,1-.37-1.35V99.4H86.3v-.83h1.76V96.3Z"/><path class="cls-1" d="M98.93,99.68a5.76,5.76,0,0,1,.94,3.31H93.15a3.86,3.86,0,0,0,.82,2.38,2.58,2.58,0,0,0,2,.87,2.76,2.76,0,0,0,1.83-.6,3.09,3.09,0,0,0,.88-1.45h1a3.93,3.93,0,0,1-1.11,2,3.73,3.73,0,0,1-2.58.91,3.51,3.51,0,0,1-2.78-1.19,4.58,4.58,0,0,1-1.07-3.18,4.63,4.63,0,0,1,1-3.06A3.45,3.45,0,0,1,96,98.35,3.41,3.41,0,0,1,98.93,99.68ZM94,100a3.6,3.6,0,0,0-.86,2.17h5.69c-.16-2-1.11-3-2.86-3A2.47,2.47,0,0,0,94,100Z"/><path class="cls-1" d="M106.08,98.52v1a4.36,4.36,0,0,0-1.26-.18,2,2,0,0,0-1.8,1,3.51,3.51,0,0,0-.65,2.16v4.36h-1V98.57h1v1.59a3,3,0,0,1,.91-1.24,2.39,2.39,0,0,1,1.6-.57A3.48,3.48,0,0,1,106.08,98.52Z"/><path class="cls-1" d="M113.07,99.07a3.13,3.13,0,0,1,1.14,2.21h-1a2.35,2.35,0,0,0-.84-1.57,2.75,2.75,0,0,0-1.76-.53,2.5,2.5,0,0,0-2.08,1,4.79,4.79,0,0,0,0,5.1,2.48,2.48,0,0,0,2.1.95,2.44,2.44,0,0,0,2.65-2.36h.95a3.8,3.8,0,0,1-1.19,2.39,3.56,3.56,0,0,1-2.41.8,3.46,3.46,0,0,1-2.85-1.25,4.64,4.64,0,0,1-.94-3.06,4.81,4.81,0,0,1,1-3.1,3.4,3.4,0,0,1,2.83-1.31A3.83,3.83,0,0,1,113.07,99.07Z"/><path class="cls-1" d="M115.77,95.2h1v4.88a3.18,3.18,0,0,1,1.15-1.3,2.94,2.94,0,0,1,1.57-.43,2.9,2.9,0,0,1,2.21.83,3.36,3.36,0,0,1,.8,2.38v5.28h-1v-5.15a2.7,2.7,0,0,0-.61-1.87,2.28,2.28,0,0,0-1.71-.64,2.25,2.25,0,0,0-1.75.83,3,3,0,0,0-.7,2v4.78h-1Z"/><path class="cls-1" d="M130.57,99.29a3.18,3.18,0,0,1,.74,2.23v5.32h-.91v-1.58a4.22,4.22,0,0,1-1.35,1.23,4.1,4.1,0,0,1-2.15.58,3,3,0,0,1-2-.63,2.09,2.09,0,0,1-.76-1.71,2.45,2.45,0,0,1,1.3-2.3,5.53,5.53,0,0,1,2.77-.59l2.11,0v-.3a2.11,2.11,0,0,0-2.4-2.36,2.84,2.84,0,0,0-1.73.47,2,2,0,0,0-.85,1.44h-.94A2.9,2.9,0,0,1,125.6,99a4,4,0,0,1,2.4-.64A3.24,3.24,0,0,1,130.57,99.29Zm-.22,3.31-2.06,0c-2.09,0-3.14.71-3.14,2.1a1.4,1.4,0,0,0,.53,1.12,2.16,2.16,0,0,0,1.41.43,3.42,3.42,0,0,0,2.3-.87,2.44,2.44,0,0,0,1-1.84Z"/><path class="cls-1" d="M140.05,101.76v5.08h-1v-5c0-1.76-.79-2.64-2.35-2.64a2.19,2.19,0,0,0-1.67.72,2.9,2.9,0,0,0-.78,1.95v5h-1V98.57h1v1.36a3.31,3.31,0,0,1,1.12-1.17,3,3,0,0,1,1.56-.41C139,98.35,140.05,99.48,140.05,101.76Z"/><path class="cls-1" d="M148.43,100.24V98.57h1v7.67c0,2.66-1.24,4-3.71,4a4,4,0,0,1-2.51-.71,3,3,0,0,1-1.06-2h1a2.1,2.1,0,0,0,.77,1.37,2.82,2.82,0,0,0,1.84.52c1.83,0,2.75-1,2.75-3.09v-1.59a3.08,3.08,0,0,1-3,1.89,3.46,3.46,0,0,1-2.77-1.23,4.89,4.89,0,0,1,0-5.82,3.42,3.42,0,0,1,2.77-1.25A3.08,3.08,0,0,1,148.43,100.24Zm-5-.08a3.57,3.57,0,0,0-.73,2.35,3.66,3.66,0,0,0,.69,2.3,2.54,2.54,0,0,0,2.16,1,2.59,2.59,0,0,0,2.14-1,4.2,4.2,0,0,0,0-4.7,2.77,2.77,0,0,0-4.26,0Z"/><path class="cls-1" d="M157.69,99.68a5.68,5.68,0,0,1,.95,3.31h-6.72a3.85,3.85,0,0,0,.81,2.38,2.62,2.62,0,0,0,2.05.87,2.76,2.76,0,0,0,1.83-.6,3.17,3.17,0,0,0,.88-1.45h1a3.92,3.92,0,0,1-1.1,2,3.73,3.73,0,0,1-2.58.91,3.51,3.51,0,0,1-2.78-1.19,4.53,4.53,0,0,1-1.07-3.18,4.63,4.63,0,0,1,1-3.06,3.44,3.44,0,0,1,2.8-1.29A3.4,3.4,0,0,1,157.69,99.68Zm-4.89.35a3.67,3.67,0,0,0-.87,2.17h5.7c-.16-2-1.11-3-2.86-3A2.45,2.45,0,0,0,152.8,100Z"/><path class="cls-1" d="M166.25,99.29a3.23,3.23,0,0,1,.74,2.23v5.32h-.91v-1.58a4.22,4.22,0,0,1-1.35,1.23,4.11,4.11,0,0,1-2.16.58,2.94,2.94,0,0,1-2-.63,2.09,2.09,0,0,1-.76-1.71,2.45,2.45,0,0,1,1.3-2.3,5.53,5.53,0,0,1,2.77-.59l2.11,0v-.3a2.11,2.11,0,0,0-2.4-2.36,2.84,2.84,0,0,0-1.73.47,2,2,0,0,0-.85,1.44h-.94A2.9,2.9,0,0,1,161.28,99a4,4,0,0,1,2.4-.64A3.24,3.24,0,0,1,166.25,99.29ZM166,102.6l-2.06,0c-2.09,0-3.14.71-3.14,2.1a1.4,1.4,0,0,0,.53,1.12,2.16,2.16,0,0,0,1.41.43,3.42,3.42,0,0,0,2.3-.87,2.44,2.44,0,0,0,1-1.84Z"/><path class="cls-1" d="M169,95.2h1v5.12a3,3,0,0,1,2.89-2,3.23,3.23,0,0,1,2.75,1.33,4.83,4.83,0,0,1,.92,3,4.91,4.91,0,0,1-.92,3.06,3.35,3.35,0,0,1-2.78,1.31,3,3,0,0,1-2.91-1.86v1.63H169Zm1.66,5a3.92,3.92,0,0,0-.74,2.48v.19a3.92,3.92,0,0,0,.69,2.4,2.43,2.43,0,0,0,2.1,1,2.52,2.52,0,0,0,2.16-1,4.23,4.23,0,0,0,.67-2.5,4.07,4.07,0,0,0-.69-2.48,2.54,2.54,0,0,0-2.17-1.06A2.36,2.36,0,0,0,170.67,100.16Z"/><path class="cls-1" d="M178.53,95.2h1v11.64h-1Z"/><path class="cls-1" d="M188.09,99.68A5.76,5.76,0,0,1,189,103h-6.72a3.85,3.85,0,0,0,.81,2.38,2.62,2.62,0,0,0,2.05.87,2.76,2.76,0,0,0,1.83-.6,3.17,3.17,0,0,0,.88-1.45h1a3.92,3.92,0,0,1-1.1,2,3.73,3.73,0,0,1-2.58.91,3.51,3.51,0,0,1-2.78-1.19,4.54,4.54,0,0,1-1.08-3.18,4.64,4.64,0,0,1,1-3.06,3.44,3.44,0,0,1,2.8-1.29A3.4,3.4,0,0,1,188.09,99.68Zm-4.89.35a3.67,3.67,0,0,0-.87,2.17H188c-.16-2-1.12-3-2.86-3A2.45,2.45,0,0,0,183.2,100Z"/><path class="cls-1" d="M192.21,105.47a.72.72,0,0,1,.24.57.8.8,0,0,1-.26.58.83.83,0,0,1-.56.22.77.77,0,0,1-.58-.24.76.76,0,0,1-.24-.56.72.72,0,0,1,.24-.57.75.75,0,0,1,.58-.23A.8.8,0,0,1,192.21,105.47Z"/><path class="cls-1" d="M194.86,95.42h4.07a4.92,4.92,0,0,1,4,1.6,6.19,6.19,0,0,1,1.23,4.11,5.9,5.9,0,0,1-1.37,4.13,5.22,5.22,0,0,1-4.08,1.58h-3.86Zm1,.86V106h2.73a4.5,4.5,0,0,0,3.49-1.3,5,5,0,0,0,1.15-3.55,5.38,5.38,0,0,0-1-3.57,4.28,4.28,0,0,0-3.43-1.28Z"/><path class="cls-1" d="M212.16,99.68a5.76,5.76,0,0,1,.94,3.31h-6.72a3.86,3.86,0,0,0,.82,2.38,2.58,2.58,0,0,0,2,.87,2.76,2.76,0,0,0,1.83-.6,3.09,3.09,0,0,0,.88-1.45h1a3.93,3.93,0,0,1-1.11,2,3.73,3.73,0,0,1-2.58.91,3.51,3.51,0,0,1-2.78-1.19,4.58,4.58,0,0,1-1.07-3.18,4.63,4.63,0,0,1,1-3.06,3.45,3.45,0,0,1,2.8-1.29A3.41,3.41,0,0,1,212.16,99.68Zm-4.9.35a3.6,3.6,0,0,0-.86,2.17h5.69c-.16-2-1.11-3-2.86-3A2.47,2.47,0,0,0,207.26,100Z"/><path class="cls-1" d="M213.71,98.57h1.06l2.6,7.06,2.6-7.06H221l-3.17,8.27h-1Z"/><path class="cls-1" d="M228.41,99.68a5.76,5.76,0,0,1,1,3.31h-6.72a3.85,3.85,0,0,0,.81,2.38,2.62,2.62,0,0,0,2.05.87,2.73,2.73,0,0,0,1.82-.6,3,3,0,0,0,.88-1.45h1a3.92,3.92,0,0,1-1.1,2,3.74,3.74,0,0,1-2.58.91,3.51,3.51,0,0,1-2.78-1.19,4.53,4.53,0,0,1-1.07-3.18,4.63,4.63,0,0,1,1-3.06,3.44,3.44,0,0,1,2.8-1.29A3.4,3.4,0,0,1,228.41,99.68Zm-4.89.35a3.67,3.67,0,0,0-.87,2.17h5.7c-.16-2-1.12-3-2.86-3A2.45,2.45,0,0,0,223.52,100Z"/><path class="cls-1" d="M231.2,95.2h1v11.64h-1Z"/><path class="cls-1" d="M241,99.66a5.11,5.11,0,0,1,0,6.1,3.93,3.93,0,0,1-5.86,0,4.68,4.68,0,0,1-1-3,4.6,4.6,0,0,1,1-3.06,3.59,3.59,0,0,1,2.91-1.31A3.65,3.65,0,0,1,241,99.66Zm-5.15.61a4.39,4.39,0,0,0,0,4.88,2.83,2.83,0,0,0,4.46,0,4,4,0,0,0,.74-2.43,3.94,3.94,0,0,0-.74-2.45,2.83,2.83,0,0,0-4.46,0Z"/><path class="cls-1" d="M250.33,99.68a4.87,4.87,0,0,1,.91,3,5,5,0,0,1-.89,3,3.34,3.34,0,0,1-2.77,1.31,3,3,0,0,1-2.9-1.95V110h-1V98.57h.92v1.63a3,3,0,0,1,2.91-1.85A3.31,3.31,0,0,1,250.33,99.68Zm-5,.54a4,4,0,0,0-.69,2.45v.17a3.86,3.86,0,0,0,.74,2.45,2.42,2.42,0,0,0,2,1,2.59,2.59,0,0,0,2.18-1,4.2,4.2,0,0,0,.67-2.5,4.34,4.34,0,0,0-.65-2.49,2.52,2.52,0,0,0-2.16-1.08A2.44,2.44,0,0,0,245.34,100.22Z"/><path class="cls-1" d="M259.23,99.68a5.68,5.68,0,0,1,.94,3.31h-6.72a3.92,3.92,0,0,0,.82,2.38,2.59,2.59,0,0,0,2,.87,2.75,2.75,0,0,0,1.82-.6,3.09,3.09,0,0,0,.88-1.45h1a3.93,3.93,0,0,1-1.11,2,3.72,3.72,0,0,1-2.57.91,3.53,3.53,0,0,1-2.79-1.19,4.58,4.58,0,0,1-1.07-3.18,4.63,4.63,0,0,1,1-3.06,3.45,3.45,0,0,1,2.8-1.29A3.41,3.41,0,0,1,259.23,99.68Zm-4.9.35a3.6,3.6,0,0,0-.86,2.17h5.69c-.16-2-1.11-3-2.86-3A2.47,2.47,0,0,0,254.33,100Z"/><path class="cls-1" d="M266.38,98.52v1a4.31,4.31,0,0,0-1.26-.18,2,2,0,0,0-1.8,1,3.57,3.57,0,0,0-.65,2.16v4.36h-1V98.57h1v1.59a3,3,0,0,1,.91-1.24,2.39,2.39,0,0,1,1.6-.57A3.48,3.48,0,0,1,266.38,98.52Z"/><path class="cls-1" d="M274.33,95.84a.66.66,0,0,1,.24.56.78.78,0,0,1-.25.57.84.84,0,0,1-.56.23.8.8,0,0,1-.82-.8.66.66,0,0,1,.24-.56.75.75,0,0,1,.58-.24A.78.78,0,0,1,274.33,95.84Zm-1.05,2.73h1v8.27h-1Z"/><path class="cls-1" d="M283.45,101.76v5.08h-1v-5c0-1.76-.78-2.64-2.35-2.64a2.17,2.17,0,0,0-1.66.72,2.9,2.9,0,0,0-.79,1.95v5h-1V98.57h1v1.36a3.4,3.4,0,0,1,1.12-1.17,3,3,0,0,1,1.57-.41C282.43,98.35,283.45,99.48,283.45,101.76Z"/><path class="cls-1" d="M291.37,99.07a3.13,3.13,0,0,1,1.14,2.21h-1a2.39,2.39,0,0,0-.83-1.57,2.79,2.79,0,0,0-1.76-.53,2.47,2.47,0,0,0-2.08,1,4,4,0,0,0-.76,2.57,4.07,4.07,0,0,0,.72,2.53,2.48,2.48,0,0,0,2.1.95,2.45,2.45,0,0,0,2.66-2.36h.94a3.79,3.79,0,0,1-1.18,2.39,3.6,3.6,0,0,1-2.42.8,3.46,3.46,0,0,1-2.85-1.25,4.64,4.64,0,0,1-.94-3.06,4.81,4.81,0,0,1,1-3.1A3.42,3.42,0,0,1,289,98.35,3.82,3.82,0,0,1,291.37,99.07Z"/><path class="cls-1" d="M300.36,99.68a5.76,5.76,0,0,1,.95,3.31h-6.72a3.85,3.85,0,0,0,.81,2.38,2.62,2.62,0,0,0,2.05.87,2.76,2.76,0,0,0,1.83-.6,3.08,3.08,0,0,0,.87-1.45h1a3.92,3.92,0,0,1-1.1,2,3.73,3.73,0,0,1-2.58.91,3.51,3.51,0,0,1-2.78-1.19,4.53,4.53,0,0,1-1.07-3.18,4.63,4.63,0,0,1,1-3.06,3.44,3.44,0,0,1,2.8-1.29A3.4,3.4,0,0,1,300.36,99.68Zm-4.89.35a3.67,3.67,0,0,0-.87,2.17h5.7c-.16-2-1.12-3-2.86-3A2.45,2.45,0,0,0,295.47,100Z"/><path class="cls-1" d="M309.56,101.76v5.08h-1v-5c0-1.76-.78-2.64-2.35-2.64a2.18,2.18,0,0,0-1.66.72,3,3,0,0,0-.79,1.95v5h-1V98.57h1v1.36a3.4,3.4,0,0,1,1.12-1.17,3,3,0,0,1,1.57-.41C308.54,98.35,309.56,99.48,309.56,101.76Z"/><path class="cls-1" d="M313.58,95.9v2.67h2.16v.83h-2.16V105a1.26,1.26,0,0,0,.19.79.93.93,0,0,0,.72.22h1v.83h-1.17a1.68,1.68,0,0,1-1.37-.49,2,2,0,0,1-.37-1.35V99.4h-1.76v-.83h1.76V96.3Z"/><path class="cls-1" d="M318.73,95.84a.66.66,0,0,1,.24.56.76.76,0,0,1-.26.57.82.82,0,0,1-.56.23.8.8,0,0,1-.81-.8.66.66,0,0,1,.24-.56.75.75,0,0,1,.57-.24A.78.78,0,0,1,318.73,95.84Zm-1.06,2.73h1v8.27h-1Z"/><path class="cls-1" d="M320.2,98.57h1.06l2.61,7.06,2.59-7.06h1.07l-3.17,8.27h-1Z"/><path class="cls-1" d="M334.91,99.68a5.76,5.76,0,0,1,.94,3.31h-6.72a3.86,3.86,0,0,0,.82,2.38,2.58,2.58,0,0,0,2,.87,2.76,2.76,0,0,0,1.83-.6,3.09,3.09,0,0,0,.88-1.45h1a3.92,3.92,0,0,1-1.1,2,3.73,3.73,0,0,1-2.58.91,3.51,3.51,0,0,1-2.78-1.19,4.58,4.58,0,0,1-1.07-3.18,4.63,4.63,0,0,1,1-3.06,3.81,3.81,0,0,1,5.75,0ZM330,100a3.6,3.6,0,0,0-.86,2.17h5.69c-.16-2-1.11-3-2.86-3A2.47,2.47,0,0,0,330,100Z"/><path class="cls-1" d="M343.5,100.89h-.95a1.92,1.92,0,0,0-.68-1.26,2.67,2.67,0,0,0-1.68-.45,2.63,2.63,0,0,0-1.49.37,1.13,1.13,0,0,0-.58,1,1.15,1.15,0,0,0,.74,1,10.89,10.89,0,0,0,1.74.57,8.74,8.74,0,0,1,2.15.77,1.88,1.88,0,0,1,1,1.67c0,1.67-1.12,2.51-3.36,2.51s-3.28-.95-3.47-2.83h.94a2.24,2.24,0,0,0,.77,1.56,2.84,2.84,0,0,0,1.73.44c1.6,0,2.4-.55,2.4-1.64a1.26,1.26,0,0,0-.82-1.15,10.6,10.6,0,0,0-1.84-.57,8.09,8.09,0,0,1-2-.74,1.74,1.74,0,0,1-.94-1.58,1.87,1.87,0,0,1,.9-1.62,3.66,3.66,0,0,1,2.17-.59C342.16,98.35,343.26,99.2,343.5,100.89Z"/><path class="cls-1" d="M347.26,106.57a2.94,2.94,0,0,1-1.6,2.77l-.35-.56a2.55,2.55,0,0,0,1.23-2h-.24a.9.9,0,0,1-.59-.2.77.77,0,0,1-.23-.58.76.76,0,0,1,.21-.59.81.81,0,0,1,.59-.23C346.93,105.24,347.26,105.69,347.26,106.57Z"/><path class="cls-1" d="M64.11,127.07a3.13,3.13,0,0,1,1.14,2.21h-1a2.39,2.39,0,0,0-.83-1.57,2.79,2.79,0,0,0-1.76-.53,2.47,2.47,0,0,0-2.08,1,4,4,0,0,0-.76,2.57,4.07,4.07,0,0,0,.72,2.53,2.48,2.48,0,0,0,2.1,1,2.45,2.45,0,0,0,2.66-2.36h.94a3.79,3.79,0,0,1-1.18,2.39,3.6,3.6,0,0,1-2.42.8,3.46,3.46,0,0,1-2.85-1.25,4.64,4.64,0,0,1-.94-3.06,4.81,4.81,0,0,1,1-3.1,3.42,3.42,0,0,1,2.84-1.31A3.82,3.82,0,0,1,64.11,127.07Z"/><path class="cls-1" d="M73.36,127.66a5.11,5.11,0,0,1,0,6.1,3.93,3.93,0,0,1-5.86,0,4.68,4.68,0,0,1-1-3,4.6,4.6,0,0,1,1-3.06,3.57,3.57,0,0,1,2.91-1.31A3.65,3.65,0,0,1,73.36,127.66Zm-5.15.61a4.39,4.39,0,0,0,0,4.88,2.83,2.83,0,0,0,4.46,0,4,4,0,0,0,.74-2.43,3.94,3.94,0,0,0-.74-2.45,2.83,2.83,0,0,0-4.46,0Z"/><path class="cls-1" d="M82.78,129.76v5.08h-1v-5c0-1.76-.78-2.64-2.35-2.64a2.18,2.18,0,0,0-1.66.72,3,3,0,0,0-.79,1.95v5h-1v-8.27h1v1.36a3.49,3.49,0,0,1,1.12-1.17,3,3,0,0,1,1.57-.41C81.76,126.35,82.78,127.48,82.78,129.76Z"/><path class="cls-1" d="M86.8,123.9v2.67H89v.83H86.8V133a1.26,1.26,0,0,0,.19.79.93.93,0,0,0,.72.22h1v.83H87.58a1.69,1.69,0,0,1-1.37-.49,2,2,0,0,1-.37-1.35v-5.6H84.08v-.83h1.76V124.3Z"/><path class="cls-1" d="M96.7,127.68a5.76,5.76,0,0,1,1,3.31H90.93a3.85,3.85,0,0,0,.81,2.38,2.62,2.62,0,0,0,2.05.87,2.76,2.76,0,0,0,1.83-.6,3.08,3.08,0,0,0,.87-1.45h1a3.92,3.92,0,0,1-1.1,2,3.73,3.73,0,0,1-2.58.91A3.51,3.51,0,0,1,91,133.88a4.53,4.53,0,0,1-1.07-3.18,4.63,4.63,0,0,1,1-3.06,3.44,3.44,0,0,1,2.8-1.29A3.4,3.4,0,0,1,96.7,127.68Zm-4.89.35a3.67,3.67,0,0,0-.87,2.17h5.7c-.16-2-1.12-3-2.86-3A2.45,2.45,0,0,0,91.81,128Z"/><path class="cls-1" d="M105.9,129.76v5.08h-1v-5c0-1.76-.78-2.64-2.35-2.64a2.18,2.18,0,0,0-1.66.72,3,3,0,0,0-.79,1.95v5h-1v-8.27h1v1.36a3.4,3.4,0,0,1,1.12-1.17,3,3,0,0,1,1.57-.41C104.88,126.35,105.9,127.48,105.9,129.76Z"/><path class="cls-1" d="M109.92,123.9v2.67h2.16v.83h-2.16V133a1.26,1.26,0,0,0,.19.79.93.93,0,0,0,.72.22h1v.83H110.7a1.68,1.68,0,0,1-1.37-.49A2,2,0,0,1,109,133v-5.6H107.2v-.83H109V124.3Z"/><path class="cls-1" d="M125,128.89h-1a2,2,0,0,0-.69-1.26,3.28,3.28,0,0,0-3.17-.08,1.1,1.1,0,0,0,.16,2,11.1,11.1,0,0,0,1.75.57,8.63,8.63,0,0,1,2.14.77,1.88,1.88,0,0,1,1,1.67c0,1.67-1.12,2.51-3.36,2.51s-3.28-.95-3.47-2.83h1a2.24,2.24,0,0,0,.76,1.56,2.88,2.88,0,0,0,1.73.44c1.6,0,2.4-.55,2.4-1.64a1.25,1.25,0,0,0-.81-1.15,10.91,10.91,0,0,0-1.84-.57,7.94,7.94,0,0,1-2-.74,1.74,1.74,0,0,1-.94-1.58,1.86,1.86,0,0,1,.89-1.62,3.69,3.69,0,0,1,2.18-.59C123.64,126.35,124.74,127.2,125,128.89Z"/><path class="cls-1" d="M126.75,126.57h1v5.06a2.92,2.92,0,0,0,.54,1.93,2.23,2.23,0,0,0,1.78.68,2.32,2.32,0,0,0,1.68-.74,3,3,0,0,0,.82-1.9v-5h1v8.27h-1v-1.39a3,3,0,0,1-2.75,1.62q-3,0-3-3.39Z"/><path class="cls-1" d="M142.11,127.68a4.87,4.87,0,0,1,.91,3,5,5,0,0,1-.89,3,3.35,3.35,0,0,1-2.77,1.31,3,3,0,0,1-2.9-1.95V138h-1V126.57h.91v1.63a3.05,3.05,0,0,1,2.92-1.85A3.31,3.31,0,0,1,142.11,127.68Zm-5,.54a4,4,0,0,0-.69,2.45v.17a3.86,3.86,0,0,0,.74,2.45,2.42,2.42,0,0,0,2,1,2.59,2.59,0,0,0,2.18-1,4.2,4.2,0,0,0,.67-2.5,4.26,4.26,0,0,0-.66-2.49,2.49,2.49,0,0,0-2.15-1.08A2.44,2.44,0,0,0,137.12,128.22Z"/><path class="cls-1" d="M151.33,127.68a5.56,5.56,0,0,1,0,6.08,3.33,3.33,0,0,1-2.77,1.31,3,3,0,0,1-2.89-1.95V138h-1V126.57h.91v1.63a3,3,0,0,1,2.91-1.85A3.33,3.33,0,0,1,151.33,127.68Zm-5,.54a4.06,4.06,0,0,0-.68,2.45v.17a3.86,3.86,0,0,0,.73,2.45,2.44,2.44,0,0,0,2,1,2.57,2.57,0,0,0,2.17-1,4.21,4.21,0,0,0,.68-2.5,4.26,4.26,0,0,0-.66-2.49,2.49,2.49,0,0,0-2.16-1.08A2.45,2.45,0,0,0,146.33,128.22Z"/><path class="cls-1" d="M160.48,127.66a5.11,5.11,0,0,1,0,6.1,3.93,3.93,0,0,1-5.86,0,4.68,4.68,0,0,1-1-3,4.6,4.6,0,0,1,1-3.06,3.56,3.56,0,0,1,2.91-1.31A3.65,3.65,0,0,1,160.48,127.66Zm-5.15.61a4.39,4.39,0,0,0,0,4.88,2.83,2.83,0,0,0,4.46,0,4,4,0,0,0,.74-2.43,3.94,3.94,0,0,0-.74-2.45,2.83,2.83,0,0,0-4.46,0Z"/><path class="cls-1" d="M167.85,126.52v1a4.26,4.26,0,0,0-1.26-.18,2,2,0,0,0-1.79,1,3.51,3.51,0,0,0-.66,2.16v4.36h-1v-8.27h1v1.59a3.11,3.11,0,0,1,.91-1.24,2.41,2.41,0,0,1,1.6-.57A3.4,3.4,0,0,1,167.85,126.52Z"/><path class="cls-1" d="M170.94,123.9v2.67h2.16v.83h-2.16V133a1.33,1.33,0,0,0,.19.79.93.93,0,0,0,.72.22h1v.83h-1.16a1.72,1.72,0,0,1-1.38-.49A2,2,0,0,1,170,133v-5.6h-1.76v-.83H170V124.3Z"/><path class="cls-1" d="M176.54,134.57a2.94,2.94,0,0,1-1.6,2.77l-.35-.56a2.49,2.49,0,0,0,1.23-1.95h-.24a.92.92,0,0,1-.59-.2.92.92,0,0,1,0-1.17.81.81,0,0,1,.6-.23C176.22,133.24,176.54,133.69,176.54,134.57Z"/><path class="cls-1" d="M190.09,127.29a3.23,3.23,0,0,1,.74,2.23v5.32h-.91v-1.58a4.22,4.22,0,0,1-1.35,1.23,4.11,4.11,0,0,1-2.16.58,2.94,2.94,0,0,1-2-.63,2.09,2.09,0,0,1-.76-1.71,2.45,2.45,0,0,1,1.3-2.3,5.53,5.53,0,0,1,2.77-.59l2.11,0v-.3a2.11,2.11,0,0,0-2.4-2.36,2.84,2.84,0,0,0-1.73.47,2,2,0,0,0-.85,1.44H184a2.9,2.9,0,0,1,1.17-2.08,4,4,0,0,1,2.4-.64A3.24,3.24,0,0,1,190.09,127.29Zm-.22,3.31-2.06,0c-2.09,0-3.14.71-3.14,2.1a1.4,1.4,0,0,0,.53,1.12,2.16,2.16,0,0,0,1.41.43,3.42,3.42,0,0,0,2.3-.87,2.44,2.44,0,0,0,1-1.84Z"/><path class="cls-1" d="M199.57,129.76v5.08h-1v-5c0-1.76-.79-2.64-2.36-2.64a2.18,2.18,0,0,0-1.66.72,2.9,2.9,0,0,0-.78,1.95v5h-1v-8.27h1v1.36a3.31,3.31,0,0,1,1.12-1.17,3,3,0,0,1,1.56-.41C198.54,126.35,199.57,127.48,199.57,129.76Z"/><path class="cls-1" d="M207.82,123.2h1v11.64h-.91v-1.63a3,3,0,0,1-2.9,1.86,3.38,3.38,0,0,1-2.8-1.31,5,5,0,0,1-.91-3.06,4.88,4.88,0,0,1,.91-3,3.24,3.24,0,0,1,2.76-1.33,3,3,0,0,1,2.89,2Zm-4.89,5a4,4,0,0,0-.69,2.48,4.23,4.23,0,0,0,.67,2.5,2.49,2.49,0,0,0,2.16,1.05,2.44,2.44,0,0,0,2.09-1,4,4,0,0,0,.69-2.4v-.19a4,4,0,0,0-.73-2.48,2.39,2.39,0,0,0-2-1A2.53,2.53,0,0,0,202.93,128.22Z"/><path class="cls-1" d="M216.13,126.57h1v5.06a2.92,2.92,0,0,0,.55,1.93,2.2,2.2,0,0,0,1.77.68,2.32,2.32,0,0,0,1.68-.74,2.87,2.87,0,0,0,.82-1.9v-5h1v8.27h-1v-1.39a3,3,0,0,1-2.75,1.62c-2,0-3-1.13-3-3.39Z"/><path class="cls-1" d="M231,128.89h-.94a2,2,0,0,0-.69-1.26,2.67,2.67,0,0,0-1.68-.45,2.63,2.63,0,0,0-1.49.37,1.09,1.09,0,0,0,.16,2,10.89,10.89,0,0,0,1.74.57,8.74,8.74,0,0,1,2.15.77,1.88,1.88,0,0,1,1,1.67c0,1.67-1.12,2.51-3.36,2.51s-3.28-.95-3.47-2.83h.94a2.24,2.24,0,0,0,.77,1.56,2.84,2.84,0,0,0,1.73.44c1.6,0,2.4-.55,2.4-1.64a1.25,1.25,0,0,0-.82-1.15,10.6,10.6,0,0,0-1.84-.57,7.83,7.83,0,0,1-2-.74,1.75,1.75,0,0,1-.95-1.58,1.87,1.87,0,0,1,.9-1.62,3.66,3.66,0,0,1,2.17-.59C229.66,126.35,230.75,127.2,231,128.89Z"/><path class="cls-1" d="M239.05,127.68A5.76,5.76,0,0,1,240,131h-6.72a3.85,3.85,0,0,0,.81,2.38,2.62,2.62,0,0,0,2,.87,2.76,2.76,0,0,0,1.83-.6,3.08,3.08,0,0,0,.87-1.45h1a3.92,3.92,0,0,1-1.1,2,3.73,3.73,0,0,1-2.58.91,3.51,3.51,0,0,1-2.78-1.19,4.54,4.54,0,0,1-1.08-3.18,4.64,4.64,0,0,1,1-3.06,3.44,3.44,0,0,1,2.8-1.29A3.4,3.4,0,0,1,239.05,127.68Zm-4.89.35a3.61,3.61,0,0,0-.87,2.17H239c-.16-2-1.12-3-2.86-3A2.45,2.45,0,0,0,234.16,128Z"/><path class="cls-1" d="M246.2,126.52v1a4.26,4.26,0,0,0-1.26-.18,2,2,0,0,0-1.79,1,3.51,3.51,0,0,0-.66,2.16v4.36h-1v-8.27h1v1.59a3.11,3.11,0,0,1,.91-1.24,2.41,2.41,0,0,1,1.6-.57A3.4,3.4,0,0,1,246.2,126.52Z"/><path class="cls-1" d="M254.16,123.84a.66.66,0,0,1,.24.56.79.79,0,0,1-.26.57.84.84,0,0,1-.56.23A.8.8,0,0,1,253,125a.78.78,0,0,1-.24-.57.66.66,0,0,1,.24-.56.77.77,0,0,1,.58-.24A.8.8,0,0,1,254.16,123.84Zm-1.06,2.73h1v8.27h-1Z"/><path class="cls-1" d="M263.28,129.76v5.08h-1v-5c0-1.76-.79-2.64-2.36-2.64a2.18,2.18,0,0,0-1.66.72,2.9,2.9,0,0,0-.78,1.95v5h-1v-8.27h1v1.36a3.31,3.31,0,0,1,1.12-1.17,3,3,0,0,1,1.56-.41C262.25,126.35,263.28,127.48,263.28,129.76Z"/><path class="cls-1" d="M271.2,127.07a3.16,3.16,0,0,1,1.13,2.21h-1a2.3,2.3,0,0,0-.83-1.57,2.77,2.77,0,0,0-1.76-.53,2.47,2.47,0,0,0-2.08,1,4.79,4.79,0,0,0,0,5.1,2.48,2.48,0,0,0,2.09,1,2.45,2.45,0,0,0,2.66-2.36h.94a3.79,3.79,0,0,1-1.18,2.39,3.58,3.58,0,0,1-2.42.8,3.45,3.45,0,0,1-2.84-1.25,4.65,4.65,0,0,1-.95-3.06,4.81,4.81,0,0,1,1-3.1,3.39,3.39,0,0,1,2.83-1.31A3.85,3.85,0,0,1,271.2,127.07Z"/><path class="cls-1" d="M280.19,127.68a5.76,5.76,0,0,1,.94,3.31h-6.72a3.92,3.92,0,0,0,.82,2.38,2.59,2.59,0,0,0,2,.87,2.75,2.75,0,0,0,1.82-.6,3.09,3.09,0,0,0,.88-1.45h1a3.93,3.93,0,0,1-1.11,2,3.72,3.72,0,0,1-2.57.91,3.53,3.53,0,0,1-2.79-1.19,4.58,4.58,0,0,1-1.07-3.18,4.63,4.63,0,0,1,1-3.06,3.45,3.45,0,0,1,2.8-1.29A3.41,3.41,0,0,1,280.19,127.68Zm-4.9.35a3.6,3.6,0,0,0-.86,2.17h5.69c-.16-2-1.11-3-2.86-3A2.47,2.47,0,0,0,275.29,128Z"/><path class="cls-1" d="M289.39,129.76v5.08h-1v-5c0-1.76-.79-2.64-2.35-2.64a2.19,2.19,0,0,0-1.67.72,2.9,2.9,0,0,0-.78,1.95v5h-1v-8.27h1v1.36a3.4,3.4,0,0,1,1.12-1.17,3,3,0,0,1,1.57-.41C288.36,126.35,289.39,127.48,289.39,129.76Z"/><path class="cls-1" d="M293.4,123.9v2.67h2.16v.83H293.4V133a1.25,1.25,0,0,0,.2.79.9.9,0,0,0,.72.22h1v.83h-1.17a1.72,1.72,0,0,1-1.38-.49,2.05,2.05,0,0,1-.37-1.35v-5.6h-1.76v-.83h1.76V124.3Z"/><path class="cls-1" d="M298.56,123.84a.66.66,0,0,1,.24.56.79.79,0,0,1-.26.57.84.84,0,0,1-.56.23.8.8,0,0,1-.82-.8.66.66,0,0,1,.24-.56.75.75,0,0,1,.58-.24A.8.8,0,0,1,298.56,123.84Zm-1.06,2.73h1v8.27h-1Z"/><path class="cls-1" d="M300,126.57h1.05l2.61,7.06,2.59-7.06h1.08l-3.17,8.27h-1Z"/><path class="cls-1" d="M314.73,127.68a5.76,5.76,0,0,1,.95,3.31H309a3.85,3.85,0,0,0,.81,2.38,2.6,2.6,0,0,0,2.05.87,2.73,2.73,0,0,0,1.82-.6,3,3,0,0,0,.88-1.45h1a3.92,3.92,0,0,1-1.1,2,3.76,3.76,0,0,1-2.58.91,3.51,3.51,0,0,1-2.78-1.19A4.54,4.54,0,0,1,308,130.7a4.59,4.59,0,0,1,1-3.06,3.8,3.8,0,0,1,5.74,0Zm-4.9.35a3.66,3.66,0,0,0-.86,2.17h5.7c-.16-2-1.12-3-2.87-3A2.48,2.48,0,0,0,309.83,128Z"/><path class="cls-1" d="M323.32,128.89h-.94a2,2,0,0,0-.69-1.26,3.28,3.28,0,0,0-3.17-.08,1.1,1.1,0,0,0,.16,2,11.1,11.1,0,0,0,1.75.57,8.79,8.79,0,0,1,2.14.77,1.88,1.88,0,0,1,1,1.67c0,1.67-1.12,2.51-3.36,2.51s-3.28-.95-3.47-2.83h.95a2.24,2.24,0,0,0,.76,1.56,2.86,2.86,0,0,0,1.73.44c1.6,0,2.4-.55,2.4-1.64a1.25,1.25,0,0,0-.82-1.15,10.3,10.3,0,0,0-1.84-.57,7.83,7.83,0,0,1-2-.74,1.74,1.74,0,0,1-.94-1.58,1.86,1.86,0,0,1,.89-1.62,3.69,3.69,0,0,1,2.18-.59C322,126.35,323.09,127.2,323.32,128.89Z"/><path class="cls-1" d="M329.5,126.57h1.07l2.24,7,2.08-7h.93l2.08,7,2.25-7h1.06l-2.83,8.27h-.93l-2.08-7-2.11,7h-.91Z"/><path class="cls-1" d="M348.84,127.66a5.11,5.11,0,0,1,0,6.1,3.92,3.92,0,0,1-5.85,0,4.68,4.68,0,0,1-1-3,4.6,4.6,0,0,1,1-3.06,3.59,3.59,0,0,1,2.91-1.31A3.64,3.64,0,0,1,348.84,127.66Zm-5.15.61a4.39,4.39,0,0,0,0,4.88,2.83,2.83,0,0,0,4.46,0,3.94,3.94,0,0,0,.74-2.43,3.88,3.88,0,0,0-.74-2.45,2.83,2.83,0,0,0-4.46,0Z"/><path class="cls-1" d="M356.22,126.52v1a4.38,4.38,0,0,0-1.27-.18,2,2,0,0,0-1.79,1,3.57,3.57,0,0,0-.65,2.16v4.36h-1v-8.27h1v1.59a2.93,2.93,0,0,1,.91-1.24,2.39,2.39,0,0,1,1.6-.57A3.48,3.48,0,0,1,356.22,126.52Z"/><path class="cls-1" d="M357.31,123.2h1v7.55l4.59-4.18h1.31l-3.63,3.28,4,5h-1.27l-3.42-4.36-1.58,1.44v2.92h-1Z"/><path class="cls-1" d="M61.53,151.9v2.67h2.16v.83H61.53V161a1.26,1.26,0,0,0,.19.79.93.93,0,0,0,.72.22h1v.83H62.31a1.68,1.68,0,0,1-1.37-.49,2,2,0,0,1-.37-1.35v-5.6H58.81v-.83h1.76V152.3Z"/><path class="cls-1" d="M71.69,155.66a5.11,5.11,0,0,1,0,6.1,3.93,3.93,0,0,1-5.86,0,4.68,4.68,0,0,1-1-3,4.55,4.55,0,0,1,1-3.06,3.56,3.56,0,0,1,2.91-1.31A3.65,3.65,0,0,1,71.69,155.66Zm-5.15.61a4.39,4.39,0,0,0,0,4.88,2.83,2.83,0,0,0,4.46,0,4,4,0,0,0,.74-2.43,3.94,3.94,0,0,0-.74-2.45,2.83,2.83,0,0,0-4.46,0Z"/><path class="cls-1" d="M80.76,156.24v-1.67h1v7.67c0,2.66-1.24,4-3.71,4a4,4,0,0,1-2.52-.71,3,3,0,0,1-1-2h1a2.1,2.1,0,0,0,.77,1.37,2.82,2.82,0,0,0,1.84.52c1.83,0,2.75-1,2.75-3.09v-1.59a3.08,3.08,0,0,1-3,1.89A3.46,3.46,0,0,1,75,161.42a4.89,4.89,0,0,1,0-5.82,3.42,3.42,0,0,1,2.77-1.25A3.08,3.08,0,0,1,80.76,156.24Zm-5-.08a3.57,3.57,0,0,0-.73,2.35,3.66,3.66,0,0,0,.69,2.3,2.54,2.54,0,0,0,2.16,1,2.59,2.59,0,0,0,2.14-1,4.2,4.2,0,0,0,0-4.7,2.77,2.77,0,0,0-4.26,0Z"/><path class="cls-1" d="M90,155.68A5.76,5.76,0,0,1,91,159H84.25a3.85,3.85,0,0,0,.81,2.38,2.62,2.62,0,0,0,2,.87,2.76,2.76,0,0,0,1.83-.6,3.17,3.17,0,0,0,.88-1.45h1a3.92,3.92,0,0,1-1.1,2,3.73,3.73,0,0,1-2.58.91,3.51,3.51,0,0,1-2.78-1.19,4.53,4.53,0,0,1-1.07-3.18,4.63,4.63,0,0,1,1-3.06,3.44,3.44,0,0,1,2.8-1.29A3.4,3.4,0,0,1,90,155.68Zm-4.89.35a3.67,3.67,0,0,0-.87,2.17H90c-.16-2-1.12-3-2.86-3A2.45,2.45,0,0,0,85.13,156Z"/><path class="cls-1" d="M94.5,151.9v2.67h2.16v.83H94.5V161a1.25,1.25,0,0,0,.2.79.89.89,0,0,0,.71.22h1v.83H95.29a1.72,1.72,0,0,1-1.38-.49,2.05,2.05,0,0,1-.37-1.35v-5.6H91.78v-.83h1.76V152.3Z"/><path class="cls-1" d="M98.12,151.2h1v4.88a3.11,3.11,0,0,1,1.15-1.3,3.23,3.23,0,0,1,3.77.4,3.31,3.31,0,0,1,.8,2.38v5.28h-1v-5.15a2.75,2.75,0,0,0-.6-1.87,2.29,2.29,0,0,0-1.72-.64,2.23,2.23,0,0,0-1.74.83,3,3,0,0,0-.7,2.05v4.78h-1Z"/><path class="cls-1" d="M113.13,155.68a5.76,5.76,0,0,1,.94,3.31h-6.72a3.86,3.86,0,0,0,.82,2.38,2.59,2.59,0,0,0,2,.87,2.75,2.75,0,0,0,1.82-.6,3.09,3.09,0,0,0,.88-1.45h1a4,4,0,0,1-1.11,2,3.72,3.72,0,0,1-2.57.91,3.52,3.52,0,0,1-2.79-1.19,4.58,4.58,0,0,1-1.07-3.18,4.63,4.63,0,0,1,1-3.06,3.81,3.81,0,0,1,5.75,0Zm-4.9.35a3.6,3.6,0,0,0-.86,2.17h5.69c-.16-2-1.11-3-2.86-3A2.47,2.47,0,0,0,108.23,156Z"/><path class="cls-1" d="M120.28,154.52v1a4.38,4.38,0,0,0-1.27-.18,2,2,0,0,0-1.79,1,3.57,3.57,0,0,0-.65,2.16v4.36h-1v-8.27h1v1.59a2.93,2.93,0,0,1,.91-1.24,2.39,2.39,0,0,1,1.6-.57A3.48,3.48,0,0,1,120.28,154.52Z"/><path class="cls-1" d="M128.69,151.9v2.67h2.16v.83h-2.16V161a1.25,1.25,0,0,0,.2.79.9.9,0,0,0,.72.22h1v.83h-1.17a1.72,1.72,0,0,1-1.38-.49,2.06,2.06,0,0,1-.36-1.35v-5.6H126v-.83h1.76V152.3Z"/><path class="cls-1" d="M138.85,155.66a5.11,5.11,0,0,1,0,6.1,3.92,3.92,0,0,1-5.85,0,4.68,4.68,0,0,1-1-3,4.6,4.6,0,0,1,1-3.06,3.59,3.59,0,0,1,2.92-1.31A3.63,3.63,0,0,1,138.85,155.66Zm-5.15.61a4.44,4.44,0,0,0,0,4.88,2.84,2.84,0,0,0,4.47,0,4,4,0,0,0,.73-2.43,3.94,3.94,0,0,0-.73-2.45,2.84,2.84,0,0,0-4.47,0Z"/><path class="cls-1" d="M146.89,151.2h1v5.12a3,3,0,0,1,2.89-2,3.23,3.23,0,0,1,2.75,1.33,4.83,4.83,0,0,1,.92,3,4.91,4.91,0,0,1-.92,3.06,3.35,3.35,0,0,1-2.78,1.31,3,3,0,0,1-2.91-1.86v1.63h-.91Zm1.66,5a3.92,3.92,0,0,0-.74,2.48v.19a3.92,3.92,0,0,0,.69,2.4,2.43,2.43,0,0,0,2.1,1,2.52,2.52,0,0,0,2.16-1.05,4.23,4.23,0,0,0,.67-2.5,4.07,4.07,0,0,0-.69-2.48,2.54,2.54,0,0,0-2.17-1.06A2.36,2.36,0,0,0,148.55,156.16Z"/><path class="cls-1" d="M156.1,154.57h1v5.06a2.87,2.87,0,0,0,.55,1.93,2.19,2.19,0,0,0,1.77.68,2.32,2.32,0,0,0,1.68-.74,3,3,0,0,0,.82-1.9v-5h1v8.27h-1v-1.39a3,3,0,0,1-2.75,1.62q-3,0-3-3.39Z"/><path class="cls-1" d="M166.39,151.84a.66.66,0,0,1,.24.56.79.79,0,0,1-.26.57.82.82,0,0,1-.56.23.8.8,0,0,1-.81-.8.66.66,0,0,1,.24-.56.75.75,0,0,1,.57-.24A.78.78,0,0,1,166.39,151.84Zm-1.06,2.73h1v8.27h-1Z"/><path class="cls-1" d="M169.09,151.2h1v11.64h-1Z"/><path class="cls-1" d="M178.61,151.2h1v11.64h-.91v-1.63a3,3,0,0,1-2.89,1.86,3.36,3.36,0,0,1-2.8-1.31,4.91,4.91,0,0,1-.92-3.06,4.83,4.83,0,0,1,.92-3,3.22,3.22,0,0,1,2.75-1.33,3,3,0,0,1,2.89,2Zm-4.89,5a4,4,0,0,0-.69,2.48,4.23,4.23,0,0,0,.67,2.5,2.49,2.49,0,0,0,2.16,1.05,2.46,2.46,0,0,0,2.1-1,4,4,0,0,0,.69-2.4v-.19a4,4,0,0,0-.74-2.48,2.38,2.38,0,0,0-2-1A2.54,2.54,0,0,0,173.72,156.22Z"/><path class="cls-1" d="M193,155.29a3.22,3.22,0,0,1,.73,2.23v5.32h-.91v-1.58a4.29,4.29,0,0,1-1.34,1.23,4.11,4.11,0,0,1-2.16.58,3,3,0,0,1-2-.63,2.12,2.12,0,0,1-.75-1.71,2.44,2.44,0,0,1,1.29-2.3,5.56,5.56,0,0,1,2.77-.59l2.11,0v-.3a2.11,2.11,0,0,0-2.4-2.36,2.81,2.81,0,0,0-1.72.47,2,2,0,0,0-.85,1.44h-1A2.9,2.9,0,0,1,188,155a4,4,0,0,1,2.4-.64A3.28,3.28,0,0,1,193,155.29Zm-.23,3.31-2.06,0c-2.09,0-3.14.71-3.14,2.1a1.4,1.4,0,0,0,.53,1.12,2.16,2.16,0,0,0,1.41.43,3.42,3.42,0,0,0,2.3-.87,2.44,2.44,0,0,0,1-1.84Z"/><path class="cls-1" d="M207.32,151.2h1v11.64h-.91v-1.63a3,3,0,0,1-2.9,1.86,3.37,3.37,0,0,1-2.8-1.31,4.9,4.9,0,0,1-.91-3.06,4.82,4.82,0,0,1,.91-3,3.23,3.23,0,0,1,2.75-1.33,3,3,0,0,1,2.9,2Zm-4.9,5a4,4,0,0,0-.69,2.48,4.3,4.3,0,0,0,.67,2.5,2.52,2.52,0,0,0,2.17,1.05,2.45,2.45,0,0,0,2.09-1,4,4,0,0,0,.69-2.4v-.19a4,4,0,0,0-.74-2.48,2.38,2.38,0,0,0-2-1A2.55,2.55,0,0,0,202.42,156.22Z"/><path class="cls-1" d="M216.58,155.68a5.76,5.76,0,0,1,.95,3.31h-6.72a3.85,3.85,0,0,0,.81,2.38,2.6,2.6,0,0,0,2,.87,2.75,2.75,0,0,0,1.82-.6,3,3,0,0,0,.88-1.45h1a3.86,3.86,0,0,1-1.11,2,3.72,3.72,0,0,1-2.57.91,3.51,3.51,0,0,1-2.78-1.19,4.54,4.54,0,0,1-1.08-3.18,4.59,4.59,0,0,1,1-3.06,3.44,3.44,0,0,1,2.8-1.29A3.4,3.4,0,0,1,216.58,155.68Zm-4.89.35a3.61,3.61,0,0,0-.87,2.17h5.7c-.16-2-1.12-3-2.87-3A2.45,2.45,0,0,0,211.69,156Z"/><path class="cls-1" d="M225,155.07a3.16,3.16,0,0,1,1.13,2.21h-1a2.34,2.34,0,0,0-.83-1.57,2.79,2.79,0,0,0-1.76-.53,2.47,2.47,0,0,0-2.08,1,4.79,4.79,0,0,0,0,5.1,2.71,2.71,0,0,0,4.75-1.41h.94a3.79,3.79,0,0,1-1.18,2.39,3.58,3.58,0,0,1-2.42.8,3.48,3.48,0,0,1-2.85-1.25,4.7,4.7,0,0,1-.94-3.06,4.81,4.81,0,0,1,1-3.1,3.39,3.39,0,0,1,2.83-1.31A3.85,3.85,0,0,1,225,155.07Z"/><path class="cls-1" d="M234,155.68a5.76,5.76,0,0,1,.94,3.31h-6.72a3.86,3.86,0,0,0,.82,2.38,2.58,2.58,0,0,0,2,.87,2.76,2.76,0,0,0,1.83-.6,3.09,3.09,0,0,0,.88-1.45h1a4,4,0,0,1-1.11,2,3.73,3.73,0,0,1-2.58.91,3.51,3.51,0,0,1-2.78-1.19,4.58,4.58,0,0,1-1.07-3.18,4.63,4.63,0,0,1,1-3.06,3.81,3.81,0,0,1,5.75,0Zm-4.9.35a3.6,3.6,0,0,0-.86,2.17h5.69c-.16-2-1.11-3-2.86-3A2.47,2.47,0,0,0,229.06,156Z"/><path class="cls-1" d="M243.16,157.76v5.08h-1v-5c0-1.76-.79-2.64-2.36-2.64a2.18,2.18,0,0,0-1.66.72,2.9,2.9,0,0,0-.78,1.95v5h-1v-8.27h1v1.36a3.31,3.31,0,0,1,1.12-1.17,3,3,0,0,1,1.56-.41C242.13,154.35,243.16,155.48,243.16,157.76Z"/><path class="cls-1" d="M247.17,151.9v2.67h2.16v.83h-2.16V161a1.33,1.33,0,0,0,.19.79.93.93,0,0,0,.72.22h1v.83H248a1.72,1.72,0,0,1-1.38-.49,2,2,0,0,1-.37-1.35v-5.6h-1.76v-.83h1.76V152.3Z"/><path class="cls-1" d="M255.46,154.52v1a4.31,4.31,0,0,0-1.26-.18,2,2,0,0,0-1.8,1,3.57,3.57,0,0,0-.65,2.16v4.36h-1v-8.27h1v1.59a3,3,0,0,1,.91-1.24,2.39,2.39,0,0,1,1.6-.57A3.48,3.48,0,0,1,255.46,154.52Z"/><path class="cls-1" d="M262.63,155.29a3.22,3.22,0,0,1,.73,2.23v5.32h-.91v-1.58a4.29,4.29,0,0,1-1.34,1.23,4.11,4.11,0,0,1-2.16.58,3,3,0,0,1-2-.63,2.12,2.12,0,0,1-.75-1.71,2.44,2.44,0,0,1,1.29-2.3,5.56,5.56,0,0,1,2.77-.59l2.11,0v-.3a2.11,2.11,0,0,0-2.4-2.36,2.81,2.81,0,0,0-1.72.47,2,2,0,0,0-.85,1.44h-.95a2.9,2.9,0,0,1,1.17-2.08,4,4,0,0,1,2.4-.64A3.28,3.28,0,0,1,262.63,155.29Zm-.23,3.31-2.06,0c-2.09,0-3.14.71-3.14,2.1a1.4,1.4,0,0,0,.53,1.12,2.16,2.16,0,0,0,1.41.43,3.42,3.42,0,0,0,2.3-.87,2.44,2.44,0,0,0,1-1.84Z"/><path class="cls-1" d="M265.68,151.2h1v11.64h-1Z"/><path class="cls-1" d="M270.5,151.84a.66.66,0,0,1,.24.56.79.79,0,0,1-.26.57.82.82,0,0,1-.56.23.8.8,0,0,1-.81-.8.66.66,0,0,1,.24-.56.75.75,0,0,1,.57-.24A.78.78,0,0,1,270.5,151.84Zm-1.06,2.73h1v8.27h-1Z"/><path class="cls-1" d="M272.45,154.57h6.42v.74l-5.35,6.7h5.6v.83h-6.83v-.75l5.33-6.69h-5.17Z"/><path class="cls-1" d="M286.82,155.68a5.68,5.68,0,0,1,.94,3.31H281a3.92,3.92,0,0,0,.82,2.38,2.59,2.59,0,0,0,2.05.87,2.75,2.75,0,0,0,1.82-.6,3,3,0,0,0,.88-1.45h1a3.86,3.86,0,0,1-1.11,2,3.72,3.72,0,0,1-2.57.91,3.53,3.53,0,0,1-2.79-1.19,4.58,4.58,0,0,1-1.07-3.18,4.63,4.63,0,0,1,1-3.06,3.46,3.46,0,0,1,2.81-1.29A3.4,3.4,0,0,1,286.82,155.68Zm-4.9.35a3.6,3.6,0,0,0-.86,2.17h5.7c-.16-2-1.12-3-2.87-3A2.47,2.47,0,0,0,281.92,156Z"/><path class="cls-1" d="M295.54,151.2h1v11.64h-.91v-1.63a3,3,0,0,1-2.9,1.86,3.37,3.37,0,0,1-2.8-1.31,4.9,4.9,0,0,1-.91-3.06,4.82,4.82,0,0,1,.91-3,3.23,3.23,0,0,1,2.75-1.33,3,3,0,0,1,2.9,2Zm-4.9,5a4,4,0,0,0-.68,2.48,4.23,4.23,0,0,0,.67,2.5,2.49,2.49,0,0,0,2.16,1.05,2.45,2.45,0,0,0,2.09-1,4,4,0,0,0,.69-2.4v-.19a3.93,3.93,0,0,0-.74-2.48,2.38,2.38,0,0,0-2-1A2.55,2.55,0,0,0,290.64,156.22Z"/><path class="cls-1" d="M310.45,155.68a4.87,4.87,0,0,1,.91,3,5,5,0,0,1-.89,3,3.35,3.35,0,0,1-2.77,1.31,3,3,0,0,1-2.9-1.95V166h-1V154.57h.91v1.63a3.05,3.05,0,0,1,2.92-1.85A3.31,3.31,0,0,1,310.45,155.68Zm-5,.54a4,4,0,0,0-.69,2.45v.17a3.86,3.86,0,0,0,.74,2.45,2.42,2.42,0,0,0,2,1,2.59,2.59,0,0,0,2.18-1,4.2,4.2,0,0,0,.67-2.5,4.34,4.34,0,0,0-.65-2.49,2.52,2.52,0,0,0-2.16-1.08A2.44,2.44,0,0,0,305.46,156.22Z"/><path class="cls-1" d="M313.36,151.2h1v11.64h-1Z"/><path class="cls-1" d="M322.72,155.29a3.23,3.23,0,0,1,.74,2.23v5.32h-.91v-1.58a4.22,4.22,0,0,1-1.35,1.23,4.11,4.11,0,0,1-2.16.58,3,3,0,0,1-2-.63,2.12,2.12,0,0,1-.75-1.71,2.44,2.44,0,0,1,1.3-2.3,5.53,5.53,0,0,1,2.77-.59l2.11,0v-.3a2.11,2.11,0,0,0-2.4-2.36,2.84,2.84,0,0,0-1.73.47,2,2,0,0,0-.85,1.44h-.94a2.9,2.9,0,0,1,1.17-2.08,4,4,0,0,1,2.4-.64A3.24,3.24,0,0,1,322.72,155.29Zm-.22,3.31-2.07,0c-2.09,0-3.13.71-3.13,2.1a1.4,1.4,0,0,0,.53,1.12,2.16,2.16,0,0,0,1.41.43,3.42,3.42,0,0,0,2.3-.87,2.44,2.44,0,0,0,1-1.84Z"/><path class="cls-1" d="M327.48,151.9v2.67h2.16v.83h-2.16V161a1.26,1.26,0,0,0,.19.79.91.91,0,0,0,.72.22h1v.83h-1.17a1.72,1.72,0,0,1-1.38-.49,2.05,2.05,0,0,1-.37-1.35v-5.6h-1.76v-.83h1.76V152.3Z"/><path class="cls-1" d="M335.92,151.42v.85h-1.39a1.14,1.14,0,0,0-.91.32,1.46,1.46,0,0,0-.29,1v1h2.48v.83h-2.48v7.44h-1V155.4h-2.21v-.83h2.21v-1a2.2,2.2,0,0,1,.51-1.59,2,2,0,0,1,1.57-.59Z"/><path class="cls-1" d="M343.55,155.66a5.11,5.11,0,0,1,0,6.1,3.92,3.92,0,0,1-5.85,0,4.68,4.68,0,0,1-1-3,4.6,4.6,0,0,1,1-3.06,3.59,3.59,0,0,1,2.92-1.31A3.63,3.63,0,0,1,343.55,155.66Zm-5.15.61a4.44,4.44,0,0,0,0,4.88,2.84,2.84,0,0,0,4.47,0,4,4,0,0,0,.73-2.43,3.94,3.94,0,0,0-.73-2.45,2.84,2.84,0,0,0-4.47,0Z"/><path class="cls-1" d="M350.93,154.52v1a4.31,4.31,0,0,0-1.26-.18,2,2,0,0,0-1.8,1,3.57,3.57,0,0,0-.65,2.16v4.36h-1v-8.27h1v1.59a3,3,0,0,1,.91-1.24,2.39,2.39,0,0,1,1.6-.57A3.48,3.48,0,0,1,350.93,154.52Z"/><path class="cls-1" d="M358,156a3.33,3.33,0,0,1,1.1-1.26,2.58,2.58,0,0,1,1.51-.43,2.73,2.73,0,0,1,2.08.81,3.3,3.3,0,0,1,.75,2.28v5.4h-1v-5.28a2.72,2.72,0,0,0-.48-1.76,2.06,2.06,0,0,0-1.65-.62,1.88,1.88,0,0,0-1.5.69,2.39,2.39,0,0,0-.61,1.71v5.26h-1v-5.28c0-1.59-.68-2.38-2.06-2.38a1.9,1.9,0,0,0-1.55.75,2.67,2.67,0,0,0-.64,1.83v5.08h-1v-8.27h1v1.25a2.69,2.69,0,0,1,2.4-1.47A2.49,2.49,0,0,1,358,156Z"/><path class="cls-1" d="M367.06,161.47a.72.72,0,0,1,.24.57.8.8,0,0,1-.26.58.83.83,0,0,1-.56.22.75.75,0,0,1-.57-.24.76.76,0,0,1-.24-.56.72.72,0,0,1,.24-.57.73.73,0,0,1,.57-.23A.78.78,0,0,1,367.06,161.47Z"/></svg>