<svg id="图层_1" data-name="图层 1" xmlns="http://www.w3.org/2000/svg" viewBox="0 0 440 275"><defs><style>.cls-1{fill:#33353c;}</style></defs><title>币网站中英文</title><path class="cls-1" d="M89.16,21.68A16.08,16.08,0,0,1,87,25.33l-.71-.49a14.72,14.72,0,0,0,2.1-3.52Zm3.68-10.89h.85v1.68H100v.81H93.69v2.31H98.8V20.5H88.48V15.59h4.36ZM98,19.68V16.4H89.34v3.28Zm-6.29,2.08c.35,1.18.65,2.34.88,3.49l-.88.21a19.89,19.89,0,0,0-.82-3.52ZM95,21.62a29.94,29.94,0,0,1,1.28,3.6l-.86.21a19.46,19.46,0,0,0-1.22-3.63Zm3.36-.29a26.81,26.81,0,0,1,2.34,3.57l-.71.5a29.15,29.15,0,0,0-2.33-3.62Z"/><path class="cls-1" d="M104.32,14.48a15.24,15.24,0,0,1-1.59,1.62l-.45-.69a12.47,12.47,0,0,0,3.3-4.62l.8.21a11.8,11.8,0,0,1-.61,1.34h3.75c-.24-.57-.47-1.05-.69-1.46l.86-.16c.24.52.46,1,.66,1.62h5.28v.77h-5.2v1.28h4.64v.7h-4.64v1.25h4.64V17h-4.64V18.4h5.49v.76h-11.6Zm-1.64,7v-.81h6.47v-1H110v1h6.37v.81h-5.12a11.31,11.31,0,0,0,5.3,2.77l-.37.77a11.73,11.73,0,0,1-5.78-3.54H110v4h-.86v-4h-.43q-1.47,2.1-5.75,3.62l-.46-.75q4-1.24,5.39-2.87Zm6.9-7V13.11h-4.26l-.19.3v1Zm0,1.95V15.09h-4.45v1.25Zm0,2.06V17h-4.45V18.4Z"/><path class="cls-1" d="M128.88,25.3l-.23-.85,1.59.05a.63.63,0,0,0,.7-.72V12.37H120.12v13h-.86V11.52h12.55V24a1.16,1.16,0,0,1-1.3,1.33Zm-3.68-3.49c-.57-.87-1.14-1.73-1.73-2.56a17,17,0,0,1-2.23,4.24l-.56-.67a16.65,16.65,0,0,0,2.21-4.38c-.86-1.16-1.65-2.12-2.35-2.9l.54-.54a26.33,26.33,0,0,1,2.1,2.52,32.75,32.75,0,0,0,.85-3.93l.81.14a30.21,30.21,0,0,1-1,4.61c.57.78,1.24,1.75,2,2.91Zm4.75.74c-.57-.95-1.17-1.93-1.81-2.93a17.39,17.39,0,0,1-2.4,4.26l-.54-.68a17,17,0,0,0,2.37-4.43c-.81-1.17-1.58-2.2-2.33-3.09l.57-.54a32.87,32.87,0,0,1,2.08,2.7,27.43,27.43,0,0,0,1-4.2l.82.14a32.07,32.07,0,0,1-1.2,4.93c.68,1,1.36,2.12,2.05,3.26Z"/><path class="cls-1" d="M140,23.22a31.79,31.79,0,0,1-5.36,1.49l-.11-.83A29.28,29.28,0,0,0,140,22.39Zm-1.89-12.1a25,25,0,0,1-2.52,5.11c.7-.09,1.51-.24,2.44-.45l.87-1.71.75.29a34.8,34.8,0,0,1-3.58,6,27.34,27.34,0,0,0,3.63-1v.78A25.82,25.82,0,0,1,135,21.3l-.24-.82a1.47,1.47,0,0,0,.4-.24,19.34,19.34,0,0,0,2.4-3.63c-1.11.23-2.06.39-2.85.5l-.2-.8a1,1,0,0,0,.36-.32,24.67,24.67,0,0,0,2.39-5.19Zm5.38-.2c-.15.46-.33.93-.53,1.4h4.48V13a11.23,11.23,0,0,1-2.67,3.62,12.58,12.58,0,0,0,4.24,2l-.5.71a12.35,12.35,0,0,1-4.37-2.24,17,17,0,0,1-4.19,2.33l-.54-.7a16.91,16.91,0,0,0,4.1-2.19,9.84,9.84,0,0,1-1.76-2.23,14.32,14.32,0,0,1-1.54,1.57l-.51-.67a8.94,8.94,0,0,0,3-4.45Zm4,8.62v5.78h-.84v-.76h-4.75v.76H141V19.54Zm-5.59,4.22h4.75V20.32h-4.75Zm.35-10.09a9.92,9.92,0,0,0,1.89,2.38,10.14,10.14,0,0,0,2.39-2.93h-3.94Z"/><path class="cls-1" d="M155.85,17.72h-4.78l.38-3.43h4V12.2h-4.39v-.77h5.25v3.63h-4.09L152,17h4.69a52.74,52.74,0,0,1-.25,6.54,2.17,2.17,0,0,1-2.37,1.81q-.42,0-1.38-.06l-.19-.79c.62,0,1.08.07,1.39.07a1.52,1.52,0,0,0,1.71-1.28,18.2,18.2,0,0,0,.2-2.48,25.5,25.5,0,0,1-5,2.81l-.35-.8a21.32,21.32,0,0,0,5.38-2.93ZM151.2,18.9a13.86,13.86,0,0,1,2.77.94l-.31.76a13.44,13.44,0,0,0-2.85-1ZM163,17.72h-4.89l.43-3.43h4.08V12.2h-4.37v-.77h5.24v3.63h-4.18L159,17h4.81a54,54,0,0,1-.24,6.54,2,2,0,0,1-2.22,1.81c-.34,0-.88,0-1.6-.06l-.21-.79c.73,0,1.27.07,1.63.07a1.44,1.44,0,0,0,1.59-1.28c.07-.6.13-1.43.17-2.5a25.94,25.94,0,0,1-5,2.78l-.34-.8A22.6,22.6,0,0,0,163,19.84Zm-4.57,1.13a11.9,11.9,0,0,1,2.7.9l-.3.75a13.3,13.3,0,0,0-2.78-.91Z"/><path class="cls-1" d="M172,11.14a18.54,18.54,0,0,1-2.13,3.71V25.44H169V15.92a22.45,22.45,0,0,1-2.52,2.44l-.28-.9a17.28,17.28,0,0,0,5-6.69Zm3.39,14a1.34,1.34,0,0,1-1.54-1.5V18.45c-.78.45-1.53.85-2.27,1.2l-.42-.83a22.06,22.06,0,0,0,2.69-1.38V10.88h.87v6a22.32,22.32,0,0,0,4.62-4l.59.67a23.58,23.58,0,0,1-5.21,4.35v5.59c0,.53.29.8.88.8h2.72a1.22,1.22,0,0,0,1-.4,8,8,0,0,0,.4-2.95l.8.26a9,9,0,0,1-.54,3.36,1.81,1.81,0,0,1-1.51.56Z"/><path class="cls-1" d="M189.36,16.16a32.64,32.64,0,0,0,4.76-3.47H183.4v-.83h11.91v.83a39.06,39.06,0,0,1-5.11,3.91V24c0,.86-.44,1.28-1.34,1.28s-1.59,0-2.53-.06l-.24-.85c.77.07,1.61.1,2.53.1.49,0,.74-.22.74-.64Z"/><path class="cls-1" d="M201.53,21.83l-.57-.69a8.6,8.6,0,0,0,3.68-4.53,14.37,14.37,0,0,0,.48-2.25h-4.93v11h-.87V13.51h5.89c.09-.92.13-1.83.13-2.74h.88c0,.86,0,1.77-.11,2.74h5.65V23.76a1.3,1.3,0,0,1-1.46,1.49h-2.49l-.24-.86,2.44,0c.59,0,.88-.28.88-.83V14.36H206q-.13,1-.33,1.8A37,37,0,0,1,210,21l-.66.66a30.52,30.52,0,0,0-3.9-4.6A9,9,0,0,1,201.53,21.83Z"/><path class="cls-1" d="M221.9,15.86q2,2.46,6.72,4.35l-.46.71a15.94,15.94,0,0,1-6.59-4.31,17.68,17.68,0,0,1-6.69,4.32l-.48-.7a17.11,17.11,0,0,0,6.81-4.37Zm-1.6-1.44a19.87,19.87,0,0,1-5,3.09l-.52-.67a19.9,19.9,0,0,0,5-2.95Zm1.27-3.68c.19.42.38.92.59,1.5H228v2.68h-.87V13.06H216V15h-.86V12.24h6.16a9.94,9.94,0,0,0-.63-1.36Zm4.6,9.52v5.15h-.85v-.73h-7.4v.73h-.87V20.26Zm-8.25,3.63h7.4V21.06h-7.4Zm5.39-10a31.32,31.32,0,0,1,4.85,3l-.59.59a30.19,30.19,0,0,0-4.84-3Z"/><path class="cls-1" d="M233.44,25.35h-.84V16.8a17.21,17.21,0,0,1-2.11,4.61l-.37-.93a15.18,15.18,0,0,0,2.47-5.61h-2.1v-.82h2.11V10.82h.84v3.23h1.66v.82h-1.66V16c.55.71,1.2,1.65,1.95,2.81l-.47.71c-.59-1.1-1.09-2-1.48-2.58Zm2.81-10.61h7.4V19.6h-3.33a9.29,9.29,0,0,1-.16,1.44h4.59v.8h-4.27a9.37,9.37,0,0,0,4.33,2.92l-.56.67a10,10,0,0,1-4.43-3.25l-.16.35c-.59,1.18-1.91,2.14-4,2.9l-.54-.69a7,7,0,0,0,3.69-2.42,2.69,2.69,0,0,0,.24-.48h-4V21h4.27a5.9,5.9,0,0,0,.19-1.44h-3.28Zm-1-2.5h2.47V10.82h.83v1.42h2.72V10.82h.83v1.42h2.56V13h-2.56v1.22h-.83V13h-2.72v1.22h-.83V13h-2.47Zm1.84,4.6h5.78v-1.4h-5.78Zm5.78,2.06V17.52h-5.78V18.9Z"/><path class="cls-1" d="M247.45,21.19h5.71V19.64H254v1.55h5.6V22H254v2.15h6.5V25h-14v-.81h6.62V22h-5.71Zm-.38-9.59h7.42v.8h-1.71V15h2.05v.83h-2.05v3.6H252v-3.6H249.6a5.24,5.24,0,0,1-1.89,3.81l-.64-.58a4.31,4.31,0,0,0,1.68-3.23h-2.1V15h2.15V12.4h-1.73Zm2.58.8V15H252V12.4Zm6.33-.49h.82V17.4H256Zm.43,7.66-.19-.81c.94,0,1.62.06,2,.06s.61-.22.61-.66V11h.85v7.36a1,1,0,0,1-1.17,1.2Z"/><path class="cls-1" d="M267.87,13.67V24.42H267v-1h-3.23v1.43H263V13.67h1.44a14.71,14.71,0,0,0,.72-2.87l.88.12a13.25,13.25,0,0,1-.77,2.75Zm-4.06,4.4H267V14.5h-3.23Zm0,4.57H267V18.85h-3.23Zm12.35-9q0,7.7-.23,9.59a2,2,0,0,1-2.22,1.92l-1.57,0-.21-.8c.64,0,1.2,0,1.68,0,.87,0,1.36-.47,1.49-1.42s.19-3.69.22-8.43H270.6a13.06,13.06,0,0,1-1.61,2.8l-.51-.67a14.33,14.33,0,0,0,2.35-5.89l.85.09a20.51,20.51,0,0,1-.74,2.8Zm-5.57,3.6a27.47,27.47,0,0,1,2.78,3.52l-.69.5a25.34,25.34,0,0,0-2.79-3.57Z"/><path class="cls-1" d="M281.05,21.7a8.92,8.92,0,0,1-1.68,3.76l-.67-.61a9.13,9.13,0,0,0,1.78-5.66V15.14c-.6.45-1.12.81-1.57,1.09l-.55-.67a15.15,15.15,0,0,0,5.11-4.88l.85.2c-.33.52-.63.95-.88,1.3h6.09v.66a15.78,15.78,0,0,1-2.43,2h4.4V24c0,.89-.47,1.33-1.42,1.33H288l-.21-.8,2,0c.55,0,.83-.28.83-.86v-2h-4.4v3.44h-.85V21.7Zm4.79-6.85a17.87,17.87,0,0,0,2.52-1.9h-5.55a17.56,17.56,0,0,1-2,1.9Zm-4.52,3.89v.38a13.88,13.88,0,0,1-.12,1.78h4.19V18.74Zm4.07-3.07h-4.07V18h4.07ZM290.64,18V15.67h-4.4V18Zm0,2.94V18.74h-4.4V20.9Z"/><path class="cls-1" d="M298.62,13.19a17.19,17.19,0,0,1-3.74,3.13l-.58-.7a15.76,15.76,0,0,0,5.12-4.91l.88.21a16.8,16.8,0,0,1-1,1.47h6v.67a14.7,14.7,0,0,1-2.05,2.37h4v4.85h-10v3.26c0,.49.28.75.82.77h8a1.38,1.38,0,0,0,1.2-.58,6,6,0,0,0,.43-2.16l.85.26a8.14,8.14,0,0,1-.46,2.29,1.85,1.85,0,0,1-1.8,1h-8.48q-1.41,0-1.41-1.35V15.43H302a16.91,16.91,0,0,0,2.11-2.24Zm2.78,3.07h-4.16v3.18h4.16Zm.85,3.18h4.1V16.26h-4.1Z"/><path class="cls-1" d="M313.05,25.44h-.8V17a20.39,20.39,0,0,1-1.79,4.52l-.35-.89a17.91,17.91,0,0,0,2.14-5.84v-.11h-1.79v-.82h1.79v-3h.8v3h1.3v.82h-1.3v1.44c.63.85,1.24,1.77,1.83,2.75l-.45.67c-.46-.89-.92-1.71-1.38-2.48Zm6.55-7.28c.15-1.6.26-3.15.35-4.67l.7.08c-.06,1-.16,2.27-.3,3.79h1.34a24,24,0,0,0,.34-4v-1h-2.59v-.8h4.81v.8h-1.47v1a29.55,29.55,0,0,1-.3,4h1.9v.8h-2.05a12.85,12.85,0,0,1-3.73,7.2L318,24.8a9.68,9.68,0,0,0,1.31-1.42l-.23.16c-.21-.51-.38-.9-.49-1.15a20.36,20.36,0,0,1-3.56,2l-.19-.72a.54.54,0,0,0,.29-.49V11.52h3.58V19h-2.79v4.18a15.73,15.73,0,0,0,2.35-1.43c-.26-.54-.55-1.09-.87-1.63l.61-.38a25.53,25.53,0,0,1,1.63,3.18,13.55,13.55,0,0,0,1.92-4.74Zm-1.68-3.31V12.28h-2v2.57Zm-2,.75v2.63h2V15.6Zm7.32,9.57c-.76,0-1.15-.31-1.15-.94V19.54h.75v4.59c0,.22.14.33.4.34h.45c.29,0,.45-.18.5-.5a18.93,18.93,0,0,0,.08-2l.64.25a7.41,7.41,0,0,1-.24,2.48,1,1,0,0,1-.93.48Z"/><path class="cls-1" d="M329.58,20.1a13.57,13.57,0,0,1-2.4,4.58l-.73-.48a12.53,12.53,0,0,0,2.28-4.28ZM333.92,11a17.33,17.33,0,0,0,6.65,3.84l-.49.7a18.19,18.19,0,0,1-6.55-3.76A21.47,21.47,0,0,1,327,15.57l-.49-.72a20,20,0,0,0,6.62-3.9Zm-4.58,4.91h8.47v.72c-1,1.57-3,2.74-6,3.5l-.32-.75a9.16,9.16,0,0,0,5.28-2.69h-7.44Zm2.5,9.28a1.26,1.26,0,0,1-1.44-1.41v-3h.88v2.8q0,.78.81.78h3.14a1.84,1.84,0,0,0,1.09-.26,3.35,3.35,0,0,0,.56-2l.8.26c-.13,1.31-.38,2.11-.76,2.41a2.54,2.54,0,0,1-1.53.37Zm1-11.82a12.42,12.42,0,0,1,1.93,1.55l-.57.57a11.38,11.38,0,0,0-1.91-1.58ZM334,20.21a14.17,14.17,0,0,1,1.31,2.23l-.8.36a12,12,0,0,0-1.3-2.33Zm3.76-.59a30.61,30.61,0,0,1,2.78,3.92l-.73.51a29.29,29.29,0,0,0-2.73-4Z"/><path class="cls-1" d="M96.84,46.61a21.82,21.82,0,0,1-2.16,2l-.56-.7a19,19,0,0,0,4.92-6H94.68v-.85h4.76c.31-.73.59-1.52.86-2.37l.88.1a19.43,19.43,0,0,1-.8,2.27h8.21v.85H100a20.52,20.52,0,0,1-2.29,3.65v7.85h-.87Zm2.47-.25h3.81V43.27H104v3.09h3.89v.86H104V52h4.64v.85h-10V52h4.52V47.22H99.31Z"/><path class="cls-1" d="M112.64,41.24a14.42,14.42,0,0,1-1.6,2.32l-.74-.48a12.62,12.62,0,0,0,2.54-4.42l.85.18c-.17.5-.39,1-.65,1.6h4.32v.8h-2.52A11,11,0,0,1,115.92,43l-.8.3a13,13,0,0,0-1.2-2Zm1.84,2.2a14.06,14.06,0,0,1-1,2v7.92h-.85V46.74A14.3,14.3,0,0,1,110.6,49l-.28-.91a12.89,12.89,0,0,0,3.41-5Zm.44,2.15h6.65V43.8h.84v1.79h2.16v.83h-2.16v5.44c0,1-.46,1.42-1.37,1.42h-2.42l-.17-.83c1.06,0,1.82.07,2.28.07s.84-.3.84-.88V46.42h-6.65Zm1.88,1.93a31.42,31.42,0,0,1,2.43,3l-.69.48A22.46,22.46,0,0,0,116.12,48Zm2.49-6.28A12.21,12.21,0,0,1,118,43.51l-.74-.48a13.32,13.32,0,0,0,2.13-4.4l.85.17a16.75,16.75,0,0,1-.56,1.64h4.85v.8h-2.67a16.26,16.26,0,0,1,1,1.77l-.8.31a16.49,16.49,0,0,0-1.18-2.08Z"/><path class="cls-1" d="M133.85,38.82a23.6,23.6,0,0,0,7.11,5.7l-.47.8a23,23,0,0,1-7-5.72,23.22,23.22,0,0,1-7,5.75l-.45-.82a23.79,23.79,0,0,0,7.15-5.71Zm4.63,8.27v6.29h-.85v-1h-8.19v1h-.85V47.09ZM129.4,44h8.26v.85H129.4Zm0,7.54h8.19V47.92h-8.19Z"/><path class="cls-1" d="M142.57,43.7H148a6.22,6.22,0,0,0,.81-1.49l-4.51.16-.15-.77a10.32,10.32,0,0,0,4-2.81l.85.29a14.7,14.7,0,0,1-3.09,2.52c2.6-.08,4.88-.2,6.87-.35-.76-.66-1.33-1.15-1.72-1.47l.68-.43a29.78,29.78,0,0,1,3.64,3.33l-.72.48c-.3-.36-.69-.76-1.15-1.22-1.48.1-2.74.17-3.77.22a7.59,7.59,0,0,1-.76,1.54h7.44v.8h-4.2a10,10,0,0,0,4.68,2.59l-.38.8a10.5,10.5,0,0,1-5.22-3.39h-2.91A13.06,13.06,0,0,1,142.65,48l-.38-.77a11.62,11.62,0,0,0,5-2.72h-4.71Zm12,4.37q-2.19,3.95-9.52,5.5l-.51-.69q7.29-1.58,9.28-5.16Zm-2.16-1a12,12,0,0,1-7.1,4l-.5-.69a10.84,10.84,0,0,0,6.92-3.73Zm-2-1.35a10.84,10.84,0,0,1-5,3.17l-.4-.7a10.15,10.15,0,0,0,4.68-2.88Z"/><path class="cls-1" d="M158.51,48.34h9.89v.83h-9.89Zm3.92-6.54-.29,2.81h8.93q0,6.59-.69,7.63c-.48.68-1.47,1-3,1-.7,0-1.43,0-2.2,0l-.24-.78,2.25.06c1.43,0,2.28-.33,2.55-1s.44-2.75.44-6h-9l.74-6.69.86.06L162.53,41h9.15v.84Z"/><path class="cls-1" d="M176,40.56h4.43V38.77h.87v1.79h4v.82h-4v2.16h2.14a21.58,21.58,0,0,0,4.07-3.71l.65.49a22.31,22.31,0,0,1-3.31,3.22h3.82v.83h-5l-.8.51a30.2,30.2,0,0,1-2.9,1.49h6.56v7.06h-.88v-.79h-7.31v.79h-.86v-6q-1.67.59-2.85.93l-.36-.8a27.57,27.57,0,0,0,7.61-3l.25-.16h-7.66v-.83h5.93V41.38H176Zm9.68,8.53V47.16h-7.31v1.93Zm-7.31.77v2h7.31v-2Z"/><path class="cls-1" d="M190.51,43.22h3.33v-2.5a24.36,24.36,0,0,1-3,.4l-.29-.8a22.06,22.06,0,0,0,6.62-1.39l.44.72a18.29,18.29,0,0,1-2.85.88v2.69h3v.85h-3V45a41.36,41.36,0,0,1,3.09,3.11l-.5.77a32.89,32.89,0,0,0-2.59-3v7.55h-.88V45.64a15.67,15.67,0,0,1-3.27,4.7l-.4-1a13,13,0,0,0,3.64-5.29h-3.3Zm8.73-2.91h.87v9.95h-.87Zm1,12.94-.19-.83c1,0,1.77.06,2.23.06s.81-.28.81-.86V38.87h.88v13a1.24,1.24,0,0,1-1.39,1.41Z"/><path class="cls-1" d="M211.93,43.89a16.77,16.77,0,0,1-5.21,3.35l-.39-.8a15,15,0,0,0,5.06-3.17Zm6.58,2.93V52h2.06v.83H206.51V52h2.17V46.82Zm-11.68-5.09h8.37a18.11,18.11,0,0,0,1.84-3l.85.3a14.49,14.49,0,0,1-1.75,2.67h4.11v.83H206.83Zm2.86-2.94a16.85,16.85,0,0,1,2.1,2.38l-.71.48A18.06,18.06,0,0,0,209,39.24ZM209.53,52h2.13V47.64h-2.13Zm3,0h2.19V47.64h-2.19Zm3.17-8.61a25.53,25.53,0,0,1,5,3.12l-.49.74a22.22,22.22,0,0,0-5-3.17ZM215.5,52h2.15V47.64H215.5Z"/><path class="cls-1" d="M222.53,45.11h14v.73h-7.26v5.3l1-.16v.7l-1,.16v1.59h-.83V51.94c-1.42.17-3.34.33-5.76.46l-.12-.76,1.54-.07V45.84h-1.61Zm2.14-5.65h9.84v4.42h-9.84Zm.29,7.78h3.52v-1.4H225Zm0,2.06h3.52V47.91H225Zm0,2.22c1.3-.08,2.47-.18,3.52-.28V50H225Zm.53-10.19h8.17v-1.2h-8.17Zm8.17,1.87V42h-8.17V43.2Zm-3.38,4.64v-.75h5.37v.71a8,8,0,0,1-1.76,3.32,13.13,13.13,0,0,0,2.68,1.56l-.45.7a13.23,13.23,0,0,1-2.78-1.71,10.25,10.25,0,0,1-2.77,1.73l-.45-.68a9.78,9.78,0,0,0,2.61-1.6,7.18,7.18,0,0,1-1.93-3.28Zm4.55,0h-3.26a6.36,6.36,0,0,0,1.71,2.76A7.54,7.54,0,0,0,234.83,47.84Z"/><path class="cls-1" d="M238.56,43.11h6.3a24.65,24.65,0,0,0,.24-3.06V38.84H246v1a21,21,0,0,1-.24,3.25h6.78V44h-6.42a14.62,14.62,0,0,0,6.71,8.66l-.53.7a15.19,15.19,0,0,1-6.8-8.85,12.59,12.59,0,0,1-6.69,9l-.54-.72A11.69,11.69,0,0,0,244.72,44h-6.16Z"/><path class="cls-1" d="M260,39.14a18.54,18.54,0,0,1-2.13,3.71V53.44H257V43.92a22.45,22.45,0,0,1-2.52,2.44l-.28-.9a17.28,17.28,0,0,0,5-6.69Zm3.39,14a1.34,1.34,0,0,1-1.54-1.5V46.45c-.78.45-1.53.85-2.27,1.2l-.42-.83a22.06,22.06,0,0,0,2.69-1.38V38.88h.87v6a22.32,22.32,0,0,0,4.62-4l.59.67a23.58,23.58,0,0,1-5.21,4.35v5.59c0,.53.29.8.88.8h2.72a1.22,1.22,0,0,0,1-.4,8,8,0,0,0,.4-2.95l.8.26a9,9,0,0,1-.54,3.36,1.81,1.81,0,0,1-1.51.56Z"/><path class="cls-1" d="M275.87,41.67V52.42H275v-1h-3.23v1.43H271V41.67h1.44a14.71,14.71,0,0,0,.72-2.87l.88.12a13.25,13.25,0,0,1-.77,2.75Zm-4.06,4.4H275V42.5h-3.23Zm0,4.57H275V46.85h-3.23Zm12.35-9q0,7.7-.23,9.59a2,2,0,0,1-2.22,1.92l-1.57,0-.21-.8c.64,0,1.2,0,1.68,0,.87,0,1.36-.47,1.49-1.42s.19-3.69.22-8.43H278.6a13.06,13.06,0,0,1-1.61,2.8l-.51-.67a14.33,14.33,0,0,0,2.35-5.89l.85.09a20.51,20.51,0,0,1-.74,2.8Zm-5.57,3.6a27.47,27.47,0,0,1,2.78,3.52l-.69.5a25.34,25.34,0,0,0-2.79-3.57Z"/><path class="cls-1" d="M297.28,39a10.75,10.75,0,0,1-1.14,1.9h4.51v.86H286.4V40.9H291a9.69,9.69,0,0,0-1.11-2l.9-.15a15.82,15.82,0,0,1,1.12,2.13h3.33a14.94,14.94,0,0,0,1.23-2.21Zm-6.63,14.3-.24-.85,1.22,0q.72,0,.72-.81V49.86h-3.9v3.57h-.85V43.28h5.6v8.56c0,1-.43,1.46-1.28,1.46Zm-2.2-7.09h3.9V44.1h-3.9Zm0,2.85h3.9V47h-3.9ZM295.21,44h.87V50.9h-.87Zm.82,9.28-.19-.81c.7,0,1.36,0,2,0s.75-.26.75-.8V42.77h.87v9.14a1.18,1.18,0,0,1-1.32,1.34Z"/><path class="cls-1" d="M302.73,53.25l-.19-.83q1,.06,1.38.06c.4,0,.61-.17.61-.51V47.52c-.66.27-1.33.51-2,.72l-.23-.86a19.4,19.4,0,0,0,2.25-.7V42.82h-2V42h2v-3.1h.86V42h1.73v.85h-1.73v3.49c.54-.26,1.05-.51,1.52-.77v.88l-1.52.74v5c0,.71-.39,1.07-1.17,1.07Zm4.58-7.13h9.1v.8h-4.09V49h3.47v.78h-3.47v2.37a16.61,16.61,0,0,0,2.43.16c.63,0,1.32,0,2.06-.06l-.24.86-1.76,0a10.17,10.17,0,0,1-4.3-.61,4.67,4.67,0,0,1-1.73-2.08,9.36,9.36,0,0,1-1.73,3l-.64-.58a8.43,8.43,0,0,0,2.08-5.08l.79.09a10.93,10.93,0,0,1-.24,1.65,4.44,4.44,0,0,0,1.88,2.3c.19.08.37.14.55.2v-5h-4.16Zm1.17-6.71h6.84V44.8h-6.84Zm.84,2.37h5.14V40.15h-5.14Zm5.14,2.29V42.48h-5.14v1.59Z"/><path class="cls-1" d="M318.46,39.75h14.13v.85h-7.06v2.67a64.35,64.35,0,0,1,6.15,3.6l-.52.77a63.37,63.37,0,0,0-5.63-3.48v9.28h-.85V40.6h-6.22Z"/><path class="cls-1" d="M137.05,77.7a8.92,8.92,0,0,1-1.68,3.76l-.67-.61a9.13,9.13,0,0,0,1.78-5.66v-4c-.6.45-1.12.81-1.57,1.09l-.55-.67a15.15,15.15,0,0,0,5.11-4.88l.85.2c-.33.52-.63,1-.88,1.3h6.09v.66a15.78,15.78,0,0,1-2.43,2h4.4V80c0,.89-.47,1.33-1.42,1.33H144l-.21-.8,2,0c.55,0,.83-.28.83-.86v-2h-4.4v3.44h-.85V77.7Zm4.79-6.85a17.87,17.87,0,0,0,2.52-1.9h-5.55a17.56,17.56,0,0,1-2,1.9Zm-4.52,3.89v.38a13.88,13.88,0,0,1-.12,1.78h4.19V74.74Zm4.07-3.07h-4.07V74h4.07ZM146.64,74V71.67h-4.4V74Zm0,2.94V74.74h-4.4V76.9Z"/><path class="cls-1" d="M154.62,69.19a17.19,17.19,0,0,1-3.74,3.13l-.58-.7a15.76,15.76,0,0,0,5.12-4.91l.88.21a16.8,16.8,0,0,1-1,1.47h5.95v.67a14.7,14.7,0,0,1-2,2.37h4v4.85h-10v3.26c0,.49.28.75.82.77h8a1.38,1.38,0,0,0,1.2-.58,6,6,0,0,0,.43-2.16l.85.26a8.14,8.14,0,0,1-.46,2.29,1.85,1.85,0,0,1-1.8,1h-8.48q-1.41,0-1.41-1.35V71.43H158a16.91,16.91,0,0,0,2.11-2.24Zm2.78,3.07h-4.16v3.18h4.16Zm.85,3.18h4.1V72.26h-4.1Z"/><path class="cls-1" d="M166.86,75.78h2V68.24h3.22a7.39,7.39,0,0,0,.49-1.55l.92.13a6.84,6.84,0,0,1-.53,1.42h4.78v7.2a9.9,9.9,0,0,0,2-3.13l.75.45a14.58,14.58,0,0,1-2.8,3.8v3.56a1.12,1.12,0,0,1-1.28,1.26h-1.6l-.22-.85,1.53,0c.47,0,.71-.21.71-.64V77.32c-.39.31-.79.6-1.22.88A24.71,24.71,0,0,1,167.39,81l-.39-.79c4.19-.75,7.2-1.84,9.06-3.26l.45-.37h-9.65Zm10-5V69h-7.15v1.73Zm-7.15.75v1.67h7.15V71.52Zm0,2.44v1.82h7.15V74Z"/><path class="cls-1" d="M186.83,67.11a21.39,21.39,0,0,1-1.65,3.76V81.44h-.86V72.26a19.09,19.09,0,0,1-1.94,2.38l-.27-.92a18.68,18.68,0,0,0,3.94-7Zm3.68.19a15.38,15.38,0,0,1-3.92,6.27l-.67-.59a13.89,13.89,0,0,0,3.77-6ZM187.76,74v-.86h6.91a40.78,40.78,0,0,1-.26,6c-.13,1.31-.74,2-1.85,2l-1.68,0-.21-.83,1.79.06c.65,0,1-.48,1.12-1.44a38.34,38.34,0,0,0,.23-4.88h-3a15.26,15.26,0,0,1-1.15,4.27,9.1,9.1,0,0,1-2.56,3l-.56-.7a8.13,8.13,0,0,0,2.34-2.68A13.54,13.54,0,0,0,190,74Zm5.08-7.23a12,12,0,0,0,4,5.85l-.6.69a12.46,12.46,0,0,1-4.19-6.11Z"/><path class="cls-1" d="M198.46,67.84h14.19v.85h-2.17V79.8A1.31,1.31,0,0,1,209,81.28h-2.64l-.19-.83c1.18,0,2,.07,2.53.07s.9-.32.9-1V68.69H198.46Zm7.92,3.57v5.67h-5.15v1.45h-.83V71.41Zm-5.15,4.87h4.32V72.2h-4.32Z"/><path class="cls-1" d="M215.4,78.76a.79.79,0,0,0,.39-.71V67.51h.89V78.29a25.13,25.13,0,0,0,3.89-1.93l.26.86a31.51,31.51,0,0,1-5.15,2.35Zm4-10.16A35.71,35.71,0,0,1,222.83,73l-.72.51a30.67,30.67,0,0,0-3.44-4.43ZM220,81.3l-.6-.72a11.5,11.5,0,0,0,5.38-5.92,25.09,25.09,0,0,0,1-7.7h.89a26.19,26.19,0,0,1-1,7.62c-.1.32-.19.55-.25.7a37.17,37.17,0,0,1,3.39,5.19l-.66.65a35.05,35.05,0,0,0-3.1-5A12.64,12.64,0,0,1,220,81.3Z"/><path class="cls-1" d="M230.75,67.57h13.53v.87h-8.52L235,71.35h7L240.68,80h4v.85H230.49V80h9.36l.5-3.13h-7.51l2-8.4h-4.13ZM240.48,76l.62-3.86h-6.26L233.9,76Z"/><path class="cls-1" d="M249.69,81.4h-.85V72.72a17.27,17.27,0,0,1-2.28,4.66l-.34-.85a15,15,0,0,0,2.59-5.66h-2.32v-.82h2.35V66.82h.85v3.23h2.16v.82h-2.16v.94c.79.87,1.55,1.78,2.28,2.74l-.48.7c-.76-1.13-1.36-2-1.8-2.53ZM260,67.81V81.4h-.86v-1h-5.58v1h-.84V67.81Zm-6.44,3.84h5.58v-3h-5.58Zm0,3.91h5.58V72.47h-5.58Zm0,4h5.58V76.37h-5.58Z"/><path class="cls-1" d="M265.53,71.19h.85v2.57h1.87v.79h-1.87V77c.83-.19,1.62-.39,2.35-.58v.83c-.82.23-1.6.41-2.35.56v3.54h-.85V78c-1,.19-2.13.37-3.23.53l-.13-.87c1.27-.16,2.39-.32,3.36-.49V74.55h-2.77l-.2-.79A24.81,24.81,0,0,0,264,69.84H262.2V69h2l.5-2.24.83.11q-.27,1.29-.48,2.13h3.17v.83h-3.38a29.27,29.27,0,0,1-1.34,3.92h2.06ZM269,69h2.59c.16-.77.31-1.53.43-2.3l.85.08-.4,2.22h4v.83H272.3q-.23,1.06-.48,2.13h5.06v.82h-5.27c-.15.54-.38,1.3-.69,2.29h5.19v.73a11.72,11.72,0,0,1-2.61,3.41,20.3,20.3,0,0,1,2,1.38l-.49.75a23.9,23.9,0,0,0-5.22-3.07l.48-.71a21.7,21.7,0,0,1,2.46,1.23,11.64,11.64,0,0,0,2.47-2.92h-5.41c.3-.94.6-2,.91-3.09h-2.19V72h2.4c.18-.75.34-1.45.48-2.13H269Z"/><path class="cls-1" d="M284,67.14a18.54,18.54,0,0,1-2.13,3.71V81.44H281V71.92a22.45,22.45,0,0,1-2.52,2.44l-.28-.9a17.28,17.28,0,0,0,5-6.69Zm3.39,14a1.34,1.34,0,0,1-1.54-1.5V74.45c-.78.45-1.53.85-2.27,1.2l-.42-.83a22.06,22.06,0,0,0,2.69-1.38V66.88h.87v6a22.32,22.32,0,0,0,4.62-4l.59.67a23.58,23.58,0,0,1-5.21,4.35v5.59c0,.53.29.8.88.8h2.72a1.22,1.22,0,0,0,1-.4,8,8,0,0,0,.4-3l.8.26a9,9,0,0,1-.54,3.36,1.81,1.81,0,0,1-1.51.56Z"/><path class="cls-1" d="M79.37,95.84H91.73v.85H89v4.55h3.6v.84H89v7.2h-.86v-7.2H83.2a13.15,13.15,0,0,1-.92,4.18,6.55,6.55,0,0,1-3,3.1l-.49-.73a6.28,6.28,0,0,0,2.81-3,12.61,12.61,0,0,0,.72-3.52H78.51v-.84h3.87l0-.71V96.69h-3Zm3.89.85v4.19l0,.36h4.87V96.69Z"/><path class="cls-1" d="M95.55,99.54l1.26-4.26.87.13-1,3.31h3.14a35.13,35.13,0,0,0,.81-4.06l.88.1c-.24,1.52-.51,2.84-.8,4h7.6v.82h-7.82c-.25.82-.48,1.52-.71,2.1h6.64v.75a8.35,8.35,0,0,1-2.78,3.89,24.33,24.33,0,0,0,5,2.3l-.43.8a24.24,24.24,0,0,1-5.25-2.56,22.79,22.79,0,0,1-5,2.61l-.45-.8a21.67,21.67,0,0,0,4.75-2.34,8.93,8.93,0,0,1-2.91-3.47,17,17,0,0,1-4.6,6.29l-.44-.8a18.25,18.25,0,0,0,5.34-8.77Zm4.42,2.9a8.39,8.39,0,0,0,2.92,3.34,8.11,8.11,0,0,0,2.64-3.34Zm4.22-7.56a19.92,19.92,0,0,1,2.91,2.71l-.62.62a18.34,18.34,0,0,0-2.88-2.77Z"/><path class="cls-1" d="M112,96.56h4.43V94.77h.87v1.79h4v.82h-4v2.16h2.14a21.58,21.58,0,0,0,4.07-3.71l.65.49a22.31,22.31,0,0,1-3.31,3.22h3.82v.83h-5l-.8.51a30.2,30.2,0,0,1-2.9,1.49h6.56v7.06h-.88v-.79h-7.31v.79h-.86v-6.05q-1.67.59-2.85.93l-.36-.8a27.57,27.57,0,0,0,7.61-3l.25-.16h-7.66v-.83h5.93V97.38H112Zm9.68,8.53v-1.93h-7.31v1.93Zm-7.31.77v2h7.31v-2Z"/><path class="cls-1" d="M126.75,99a18.46,18.46,0,0,1,2.35,2.32l-.59.58a17.06,17.06,0,0,0-2.34-2.34Zm.22-3.87a18.29,18.29,0,0,1,2.47,2.23l-.55.56a16.1,16.1,0,0,0-2.49-2.24Zm2.24,8.85a52.66,52.66,0,0,1-2.05,5.25l-.76-.32a47.17,47.17,0,0,0,2.06-5.22Zm1-7.76h1.56a8.48,8.48,0,0,0,.43-1.49l.83.11a8.44,8.44,0,0,1-.42,1.38h2.19v4.86h-2.35l.55,1.54h2.32v.74H132q0,.18-.21,1.44h3a10.35,10.35,0,0,1-.38,3.72,1.55,1.55,0,0,1-1.33.68h-1l-.19-.74h1a.9.9,0,0,0,.88-.54,12.5,12.5,0,0,0,.21-2.39h-2.28c-.12.51-.25,1-.38,1.35a7.28,7.28,0,0,1-1.68,2.48l-.53-.68a6.91,6.91,0,0,0,1.47-2.16,14.8,14.8,0,0,0,.67-3.16H129.5v-.74h2.64l-.53-1.54h-1.44Zm.77,2.13H134V96.93h-3.06Zm3.06,2V99.06h-3.06v1.38Zm1.95.25a9.78,9.78,0,0,1-.74,1.19l-.51-.63a15.26,15.26,0,0,0,2.14-6.45l.82.16a21.49,21.49,0,0,1-.61,2.85h3.63v.83h-1a17.89,17.89,0,0,1-1.31,6.8,9.3,9.3,0,0,0,2.53,3.08l-.5.73a9,9,0,0,1-2.44-3,10.08,10.08,0,0,1-2.52,3.06l-.46-.74a9.51,9.51,0,0,0,2.53-3.2A21.41,21.41,0,0,1,136,100.69Zm.85-2-.37,1a23.07,23.07,0,0,0,1.47,4.84,17.64,17.64,0,0,0,1-5.84Z"/><path class="cls-1" d="M145.85,99.3h-1.79v2.26a21.82,21.82,0,0,1-1.28,7.84l-.61-.55a21.62,21.62,0,0,0,1.06-7.29v-6h7v.8h-6.14V98.5h5.75v.8h-3.16v2.59h3a42.28,42.28,0,0,1-.27,5.81,1.63,1.63,0,0,1-1.65,1.5c-.28,0-.6,0-1,0l-.24-.74,1.14,0c.56,0,.91-.44,1-1.21s.14-2.26.16-4.56h-2.21q-.24,4.47-1.92,6.65l-.61-.51c1.17-1.52,1.75-3.91,1.76-7.2Zm6.53-4.42h.83v3.44h2.91a86.56,86.56,0,0,1-.27,9.12,2,2,0,0,1-2.2,1.76c-.22,0-.58,0-1.09,0l-.2-.74,1.16,0A1.37,1.37,0,0,0,155,107.3a72.44,72.44,0,0,0,.28-8.14H153.2q-.15,6.91-2.8,10.24l-.61-.55q2.43-3.06,2.57-9.69h-1.9v-.84h1.92Z"/><path class="cls-1" d="M160.28,105.72a11.43,11.43,0,0,1,1.78,1.55,12.33,12.33,0,0,1,1.34,1.6l-.62.53a14.17,14.17,0,0,0-1.33-1.59,14.35,14.35,0,0,0-1.72-1.57Z"/><path class="cls-1" d="M177.53,105.83l-.57-.69a8.6,8.6,0,0,0,3.68-4.53,14.37,14.37,0,0,0,.48-2.25h-4.93v11h-.87V97.51h5.89c.09-.92.13-1.83.13-2.74h.88c0,.86,0,1.77-.11,2.74h5.65v10.25a1.3,1.3,0,0,1-1.46,1.49h-2.49l-.24-.86,2.44,0c.59,0,.88-.28.88-.83V98.36H182q-.13,1-.33,1.8A37,37,0,0,1,186,105l-.66.66a30.52,30.52,0,0,0-3.9-4.6A9,9,0,0,1,177.53,105.83Z"/><path class="cls-1" d="M197.9,99.86q2,2.46,6.72,4.35l-.46.71a15.94,15.94,0,0,1-6.59-4.31,17.68,17.68,0,0,1-6.69,4.32l-.48-.7a17.11,17.11,0,0,0,6.81-4.37Zm-1.6-1.44a19.87,19.87,0,0,1-5,3.09l-.52-.67a19.9,19.9,0,0,0,5-3Zm1.27-3.68c.19.42.38.92.59,1.5H204v2.68h-.87V97.06H192v2h-.86V96.24h6.16a9.94,9.94,0,0,0-.63-1.36Zm4.6,9.52v5.15h-.85v-.73h-7.4v.73h-.87v-5.15Zm-8.25,3.63h7.4v-2.83h-7.4Zm5.39-10a31.32,31.32,0,0,1,4.85,3l-.59.59a30.19,30.19,0,0,0-4.84-3Z"/><path class="cls-1" d="M211.23,102.07c-.63.36-1.24.68-1.84,1v4.86a1.19,1.19,0,0,1-1.33,1.36h-1.23l-.19-.83c.51,0,.88.06,1.12.06.51,0,.77-.27.77-.81v-4.24a22.11,22.11,0,0,1-2.2.83l-.21-.83a21,21,0,0,0,2.41-.83V98.69h-2.21v-.85h2.21v-3h.86v3h1.85v.85h-1.85v3.52c.56-.26,1.18-.6,1.84-1Zm1.12-4.55h3.22V94.87h.84v2.65h3.46v.87h-3.46v2.37c0,.24,0,.6-.08,1.07l0,0v0h4.2v.85h-3.91a12.5,12.5,0,0,0,4.24,6l-.59.69a14,14,0,0,1-4.25-6,11.13,11.13,0,0,1-4.23,6l-.67-.56a10.11,10.11,0,0,0,4.22-6.08h-3.5v-.85h3.63c0-.49.07-.85.07-1.07V98.39h-3.22Z"/><path class="cls-1" d="M222.73,109.25l-.19-.83c.6,0,1,.06,1.3.06.46,0,.69-.24.69-.73v-4.23c-.63.22-1.34.44-2.13.68l-.23-.85c.85-.21,1.63-.43,2.36-.69V98.82h-2.08V98h2.08V94.87h.86V98h1.76v.83h-1.76v3.52c.71-.3,1.34-.59,1.89-.86v.88c-.7.33-1.33.6-1.89.83V108a1.12,1.12,0,0,1-1.25,1.28Zm5-6.67h5.85v-1.34h.88v1.34h2.27v.82h-2.27V108a1.15,1.15,0,0,1-1.29,1.31H231l-.19-.84c1,0,1.65.06,2.06.06s.72-.25.72-.75V103.4h-5.85Zm4-7.76h.86V96.6h3.25v.81h-3.25V99.6h3.95v.84h-8.69V99.6h3.88V97.41h-3.27V96.6h3.27Zm-2.6,9.44a19.53,19.53,0,0,1,2.24,2.61l-.67.48a19.46,19.46,0,0,0-2.25-2.67Z"/><path class="cls-1" d="M240.28,105.72a11.43,11.43,0,0,1,1.78,1.55,12.33,12.33,0,0,1,1.34,1.6l-.62.53a14.17,14.17,0,0,0-1.33-1.59,14.35,14.35,0,0,0-1.72-1.57Z"/><path class="cls-1" d="M256.72,104.1a9.46,9.46,0,0,1-1.81,5.14l-.64-.6a9.45,9.45,0,0,0,1.63-5.55V95.51h11.68v12A1.38,1.38,0,0,1,266,109h-1.84l-.22-.84c.64,0,1.23,0,1.78,0s1-.36,1-1.08V104.1H262v4.77h-.87V104.1Zm.06-3.89v3l0,.12h4.4v-3.07Zm4.38-3.85h-4.38v3h4.38Zm5.56,3v-3H262v3Zm0,3.87v-3.07H262v3.07Z"/><path class="cls-1" d="M273,102a13.31,13.31,0,0,1-2.29,7.46l-.66-.6a11.71,11.71,0,0,0,2.1-7.15V96.85h5.28a13.38,13.38,0,0,0-1-2l.91-.16a16.23,16.23,0,0,1,.91,2.13h5.06V102Zm9.47-4.3H273v3.45h9.47Z"/><path class="cls-1" d="M286.68,103.84h6.39c.05-.38.09-.87.11-1.47h.87a9.69,9.69,0,0,1-.12,1.47h6.45v.85h-6.26q1.5,2.82,6.61,3.81l-.37.82q-5.42-1.17-6.78-4.2c-.9,2-3.19,3.41-6.9,4.28l-.36-.82c3.61-.77,5.79-2.06,6.52-3.89h-6.16Zm4.39-9h.86v7.32h-.86V99.65a22.87,22.87,0,0,1-4.23,1.84l-.35-.8a20.82,20.82,0,0,0,4.58-1.92Zm-3.71.74a13.46,13.46,0,0,1,2.7,1.82l-.46.72a12.3,12.3,0,0,0-2.72-1.84Zm9.28-.72a10.19,10.19,0,0,1-.67,1.28H300v.75c-.88,2.43-3.09,4.15-6.66,5.14l-.43-.75a14.28,14.28,0,0,0,3.38-1.36,14.32,14.32,0,0,0-1.62-1.43l.61-.45a14.74,14.74,0,0,1,1.63,1.48A6.52,6.52,0,0,0,299.13,97h-3.79a10,10,0,0,1-2.18,1.78l-.52-.68a7.19,7.19,0,0,0,3.12-3.28Z"/><path class="cls-1" d="M305.85,99.3h-1.79v2.26a21.82,21.82,0,0,1-1.28,7.84l-.61-.55a21.62,21.62,0,0,0,1.06-7.29v-6h7v.8h-6.14V98.5h5.75v.8h-3.16v2.59h3a42.28,42.28,0,0,1-.27,5.81,1.63,1.63,0,0,1-1.65,1.5c-.28,0-.6,0-1,0l-.24-.74,1.14,0c.56,0,.91-.44,1-1.21s.14-2.26.16-4.56h-2.21q-.24,4.47-1.92,6.65l-.61-.51c1.17-1.52,1.75-3.91,1.76-7.2Zm6.53-4.42h.83v3.44h2.91a86.56,86.56,0,0,1-.27,9.12,2,2,0,0,1-2.2,1.76c-.22,0-.58,0-1.09,0l-.2-.74,1.16,0A1.37,1.37,0,0,0,315,107.3a72.44,72.44,0,0,0,.28-8.14H313.2q-.15,6.91-2.8,10.24l-.61-.55q2.43-3.06,2.57-9.69h-1.9v-.84h1.92Z"/><path class="cls-1" d="M318.73,109.22l-.17-.8c.43,0,.85,0,1.25,0s.68-.24.68-.72v-4.08c-.68.28-1.39.53-2.14.77l-.23-.85c.73-.21,1.52-.47,2.37-.79V98.69h-2.06v-.85h2.06v-3h.85v3h1.76v.85h-1.76v3.76c.66-.3,1.3-.62,1.9-1v.85c-.6.34-1.24.66-1.9,1V108a1.1,1.1,0,0,1-1.23,1.26Zm5.14-12.51h1.94V94.87h.86v1.84h2.94V94.87h.87v1.84h1.92v.78h-1.92v2.34h2.36v.81h-9.37v-.81h2.34V97.49h-1.94Zm7.73,5.42v7.2h-.85v-.78h-5.07v.77h-.85v-7.19ZM325.68,105h5.07v-2h-5.07Zm0,2.78h5.07v-2h-5.07Zm1-7.9h2.94V97.49h-2.94Z"/><path class="cls-1" d="M334.51,97.17h2.69a13.28,13.28,0,0,0-1.11-2.3l.88-.15a17,17,0,0,1,1.08,2.45h2V98h-3.34v2.48h2.86q0,6-.19,7.35a1.54,1.54,0,0,1-1.73,1.42,8.46,8.46,0,0,1-.85,0l-.2-.76c.35,0,.65,0,.91,0a1,1,0,0,0,1.07-.91,59.38,59.38,0,0,0,.21-6.25h-2.08c-.08,3.68-.7,6.37-1.89,8.09l-.66-.57c1.11-1.66,1.69-4.31,1.72-8V98h-1.33Zm7.73.31a16.66,16.66,0,0,1-1.84,3.15l-.56-.66a16,16,0,0,0,2.51-5.25l.83.2c-.24.76-.45,1.35-.61,1.74h5.84v.82Zm5.57,2.35a42.38,42.38,0,0,1-.18,5.26c-.13.61-.63.91-1.51.91h-.28l-.24-.75.67,0a.57.57,0,0,0,.62-.53,32.87,32.87,0,0,0,.11-3.82l-1.93.73V107h-.82V102l-1.77.67v4.89c0,.68.27,1,.81,1h3.25a1.54,1.54,0,0,0,1-.25,3.78,3.78,0,0,0,.51-2l.75.24a4,4,0,0,1-.69,2.43,2.27,2.27,0,0,1-1.39.35H343q-1.35,0-1.35-1.62v-4.75l-1.29.5v-.8l1.29-.5V99.84h.79v2l1.77-.67V98.56h.82v2.31Z"/><path class="cls-1" d="M119.24,126.16h3v-3.45h.87v3.45H128v-3.39h.86v3.39h3V127h-3v4.14h3.83V132H118.43v-.85h3.82V127h-3Zm4.82,7.19a20.27,20.27,0,0,1-5,4l-.59-.77a20.1,20.1,0,0,0,4.94-3.81Zm-.94-2.21H128V127h-4.83Zm4.65,1.66a33.48,33.48,0,0,1,4.82,3.86l-.69.66a29.66,29.66,0,0,0-4.75-3.92Z"/><path class="cls-1" d="M144.41,137.35l-.24-.88,2.11.05c.46,0,.69-.25.69-.76v-11.4H136.09v13h-.88V123.51h12.64V136c0,.92-.42,1.39-1.28,1.39Zm-7-10.91h8.28v.83H137.4Zm1,2.75h6.32v5h-6.32Zm5.49,4.21V130h-4.66v3.41Z"/><path class="cls-1" d="M153.76,137.35h-.85v-8.67a17.62,17.62,0,0,1-2.38,4.84l-.37-.92a14.93,14.93,0,0,0,2.68-5.72h-2.35V126h2.42v-3.22h.85V126h2.06v.84h-2.06V128c.77.81,1.55,1.72,2.35,2.74l-.5.72a28.88,28.88,0,0,0-1.85-2.53Zm5.15-14.47a19.48,19.48,0,0,1-.51,2.36h5.68c0,5.41-.09,8.77-.27,10.06a2,2,0,0,1-2.15,1.95c-.33,0-.91,0-1.73-.05l-.19-.76c.67,0,1.26,0,1.78,0a1.38,1.38,0,0,0,1.47-1.31q.22-1.48.25-9.12h-5.1a14.21,14.21,0,0,1-1.65,3.36l-.56-.72a14.9,14.9,0,0,0,2.13-5.9Zm-2.42,10.29q.67-.37,2.4-5.25l.79.29a33.59,33.59,0,0,1-2,4.69c1.35-.28,2.36-.5,3-.66-.18-.52-.45-1.18-.79-2l.75-.24a31.2,31.2,0,0,1,1.44,4l-.75.35c-.14-.53-.28-1-.43-1.48-1.25.33-2.67.65-4.27,1Z"/><path class="cls-1" d="M180.75,136.16l-.16.84h-4.77c-2.84,0-4.87-.43-6.09-1.27a4.07,4.07,0,0,1-.66-.61,9.42,9.42,0,0,1-2,2.1l-.55-.72a7.57,7.57,0,0,0,2-2.06A11.22,11.22,0,0,1,167,131l.72-.27a14,14,0,0,0,1.24,3,11.13,11.13,0,0,0,1.06-4.4h-3v-.67a35.92,35.92,0,0,0,2.7-4.07h-2.81v-.83h3.79v.72a35.76,35.76,0,0,1-2.55,4h2.68V129a12,12,0,0,1-1.33,5.43,3.86,3.86,0,0,0,.93.78,11,11,0,0,0,5,1C176.55,136.23,178.32,136.21,180.75,136.16Zm-1.36-6.91H176v1.47h3.85v.76H176v1.58h4.3v.75H176v1.79h-.87v-1.79h-3.73v-.75h3.73v-1.58h-3.25v-.76h3.25v-1.47h-2.91v-.77h2.91V127h-3.7v-.74h3.7v-1.5h-2.91V124h2.91v-1.21H176V124h3.42v2.26h1.17V127h-1.17ZM176,124.76v1.5h2.59v-1.5Zm0,2.24v1.48h2.59V127Z"/><path class="cls-1" d="M182.36,129.54h14.32v.86H182.36Z"/><path class="cls-1" d="M205.93,122.82a16.91,16.91,0,0,0,7,6l-.51.77a17.24,17.24,0,0,1-6.87-5.89,18.82,18.82,0,0,1-6.86,6l-.51-.79a17.92,17.92,0,0,0,7-6Zm-.83,4.69H206v9.89h-.87Z"/><path class="cls-1" d="M224.2,131.43A45.77,45.77,0,0,1,228,137l-.74.51c-.23-.44-.51-.94-.85-1.49-3.5.38-7,.7-10.64.94l-.14-.73c1.39-.76,2.84-2.67,4.33-5.73h-5.47v-.86h6.64v-3.3h-5.65v-.85h5.65v-2.65H222v2.65h5.61v.85H222v3.3h6.62v.86h-7.7a18.39,18.39,0,0,1-3.73,5.62q6.47-.52,8.76-.82-1-1.61-2.4-3.42Z"/><path class="cls-1" d="M237.08,122.74h.9v3h5.79v7.36h-.88V132H238v5.53h-.9V132h-4.89v1.07h-.88V125.7h5.77Zm-4.89,8.4h4.89v-4.58h-4.89Zm5.79,0h4.91v-4.58H238Z"/><path class="cls-1" d="M249,128.12a30.35,30.35,0,0,1-2,6.91l-.75-.48a28.66,28.66,0,0,0,1.87-6.61Zm3,8.76c-1,0-1.52-.48-1.52-1.44v-9.28h.88v9.09c0,.51.3.77.89.77h3.17a1,1,0,0,0,.93-.46,10.5,10.5,0,0,0,.46-3.52l.82.27a9.71,9.71,0,0,1-.66,4,1.56,1.56,0,0,1-1.37.6Zm.3-13.95a32.73,32.73,0,0,1,3.52,4l-.73.49a29.64,29.64,0,0,0-3.51-4Zm5.83,4.47a45,45,0,0,1,2.84,6.51l-.8.35a41.23,41.23,0,0,0-2.89-6.58Z"/><path class="cls-1" d="M268,123.14a18.54,18.54,0,0,1-2.13,3.71v10.59H265v-9.52a22.45,22.45,0,0,1-2.52,2.44l-.28-.9a17.28,17.28,0,0,0,5-6.69Zm3.39,14a1.34,1.34,0,0,1-1.54-1.5v-5.19c-.78.45-1.53.85-2.27,1.2l-.42-.83a22.06,22.06,0,0,0,2.69-1.38v-6.56h.87v6a22.32,22.32,0,0,0,4.62-4l.59.67a23.58,23.58,0,0,1-5.21,4.35v5.59c0,.53.29.8.88.8h2.72a1.22,1.22,0,0,0,1-.4,8,8,0,0,0,.4-2.95l.8.26a9,9,0,0,1-.54,3.36,1.81,1.81,0,0,1-1.51.56Z"/><path class="cls-1" d="M279.13,123.6H292v.87H285.9v6.32h6.67v.85H285.9v5.76H285v-5.76h-6.55v-.85H285v-6.32h-5.91Zm1.73,2.1a32.49,32.49,0,0,1,1.76,3.7l-.81.4a31.07,31.07,0,0,0-1.75-3.72Zm10.21.26a21,21,0,0,1-2,3.79l-.78-.4a20.32,20.32,0,0,0,2-3.76Z"/><path class="cls-1" d="M294.91,128.26c1.56-.64,3.34-2.46,5.36-5.47l.88.3a22.51,22.51,0,0,1-4.62,5.14q5.19-.22,9.39-.64c-.71-1-1.41-1.84-2.11-2.64l.79-.39a45,45,0,0,1,4,5.32l-.83.41c-.32-.51-.74-1.16-1.27-1.93q-5.08.48-11.39.72Zm11.87,2.61v6.56h-.86v-.91h-8.77v.91h-.87v-6.56Zm-9.63,4.8h8.77v-4h-8.77Z"/></svg>