<svg id="图层_1" data-name="图层 1" xmlns="http://www.w3.org/2000/svg" viewBox="0 0 441 276"><defs><style>.cls-1{fill:#33353c;}</style></defs><title>121212</title><path class="cls-1" d="M46.19,10.49h5.22q4.28,0,4.28,3.69t-4.3,3.71h-4.1v5.45h-1.1Zm1.1,1v5.45h4a3.81,3.81,0,0,0,2.47-.68,2.6,2.6,0,0,0,.77-2.05,2.51,2.51,0,0,0-.77-2,3.69,3.69,0,0,0-2.47-.7Z"/><path class="cls-1" d="M64.78,15.26a5.21,5.21,0,0,1,1.13,3.44,5.22,5.22,0,0,1-1.13,3.42,4.41,4.41,0,0,1-6.59,0,5.22,5.22,0,0,1-1.13-3.42,5.15,5.15,0,0,1,1.15-3.44,4,4,0,0,1,3.28-1.48A4.09,4.09,0,0,1,64.78,15.26Zm-5.8.68a4.35,4.35,0,0,0-.83,2.75A4.31,4.31,0,0,0,59,21.44a3.19,3.19,0,0,0,5,0,4.51,4.51,0,0,0,.83-2.74A4.45,4.45,0,0,0,64,15.95a3.19,3.19,0,0,0-5,0Z"/><path class="cls-1" d="M69.55,11a.76.76,0,0,1,.27.63.9.9,0,0,1-.29.65.94.94,0,0,1-.63.25.88.88,0,0,1-.65-.25.89.89,0,0,1-.27-.65.76.76,0,0,1,.27-.63.84.84,0,0,1,.65-.27A.88.88,0,0,1,69.55,11ZM68.36,14h1.08v9.31H68.36Z"/><path class="cls-1" d="M79.81,17.62v5.72H78.73V17.69q0-3-2.65-3a2.46,2.46,0,0,0-1.87.81,3.28,3.28,0,0,0-.88,2.2v5.62H72.25V14h1.08v1.53a3.78,3.78,0,0,1,1.26-1.31,3.28,3.28,0,0,1,1.76-.47Q79.81,13.79,79.81,17.62Z"/><path class="cls-1" d="M84.33,11v3h2.43V15H84.33v6.3a1.42,1.42,0,0,0,.22.88,1,1,0,0,0,.81.25h1.17v.94H85.21a1.91,1.91,0,0,1-1.55-.56,2.25,2.25,0,0,1-.41-1.51V15h-2V14h2V11.48Z"/><path class="cls-1" d="M96.12,11.27a4.1,4.1,0,0,1,1.44,3h-1.1A3.57,3.57,0,0,0,95.32,12a3.87,3.87,0,0,0-2.59-.77,4.75,4.75,0,0,0-2.45.54,2,2,0,0,0,.2,3.53,19.2,19.2,0,0,0,2.47.83,15.37,15.37,0,0,1,3.31,1.22,3,3,0,0,1,1.6,2.7,3,3,0,0,1-1.39,2.63A6,6,0,0,1,93,23.6a5.5,5.5,0,0,1-3.49-1,4.61,4.61,0,0,1-1.62-3.49h1.08a3.89,3.89,0,0,0,1.26,2.7,4.3,4.3,0,0,0,2.75.79,5.18,5.18,0,0,0,2.75-.67,2.09,2.09,0,0,0,1-1.82,2.27,2.27,0,0,0-1.31-2.05,13.92,13.92,0,0,0-2.83-1,15.73,15.73,0,0,1-3-1,2.62,2.62,0,0,1-1.48-2.41,2.85,2.85,0,0,1,1.39-2.55,5.61,5.61,0,0,1,3.2-.83A5.1,5.1,0,0,1,96.12,11.27Z"/><path class="cls-1" d="M106.66,15.28A6.49,6.49,0,0,1,107.73,19h-7.56a4.37,4.37,0,0,0,.92,2.68,2.93,2.93,0,0,0,2.3,1,3.13,3.13,0,0,0,2.05-.67,3.49,3.49,0,0,0,1-1.64h1.1a4.36,4.36,0,0,1-1.24,2.21,4.16,4.16,0,0,1-2.9,1,4,4,0,0,1-3.13-1.33,5.14,5.14,0,0,1-1.21-3.58,5.2,5.2,0,0,1,1.15-3.44,4.27,4.27,0,0,1,6.46,0Zm-5.51.4a4.09,4.09,0,0,0-1,2.45h6.41q-.27-3.4-3.22-3.4A2.78,2.78,0,0,0,101.16,15.68Z"/><path class="cls-1" d="M111.7,11v3h2.43V15H111.7v6.3a1.42,1.42,0,0,0,.22.88,1,1,0,0,0,.81.25h1.17v.94h-1.31a1.91,1.91,0,0,1-1.55-.56,2.25,2.25,0,0,1-.41-1.51V15h-2V14h2V11.48Z"/><path class="cls-1" d="M120.72,14h1.21L124.45,22,126.79,14h1L130.17,22,132.71,14h1.19l-3.19,9.31h-1l-2.34-7.9L125,23.34h-1Z"/><path class="cls-1" d="M142.2,15.28A6.49,6.49,0,0,1,143.26,19H135.7a4.37,4.37,0,0,0,.92,2.68,2.93,2.93,0,0,0,2.3,1A3.13,3.13,0,0,0,141,22a3.49,3.49,0,0,0,1-1.64h1.1a4.36,4.36,0,0,1-1.24,2.21,4.16,4.16,0,0,1-2.9,1,4,4,0,0,1-3.13-1.33,5.14,5.14,0,0,1-1.21-3.58,5.2,5.2,0,0,1,1.15-3.44,4.27,4.27,0,0,1,6.46,0Zm-5.51.4a4.09,4.09,0,0,0-1,2.45h6.41q-.27-3.4-3.22-3.4A2.78,2.78,0,0,0,136.69,15.68Z"/><path class="cls-1" d="M151.83,14.85a3.6,3.6,0,0,1,.83,2.5v6h-1V21.56a4.81,4.81,0,0,1-1.51,1.39,4.69,4.69,0,0,1-2.43.65,3.35,3.35,0,0,1-2.21-.7,2.4,2.4,0,0,1-.85-1.93,2.75,2.75,0,0,1,1.46-2.59,6.28,6.28,0,0,1,3.11-.67l2.38,0v-.34a2.36,2.36,0,0,0-2.7-2.65,3.2,3.2,0,0,0-1.94.52,2.22,2.22,0,0,0-1,1.62h-1.06a3.25,3.25,0,0,1,1.31-2.34,4.55,4.55,0,0,1,2.7-.72A3.67,3.67,0,0,1,151.83,14.85Zm-.25,3.73-2.32,0q-3.53,0-3.53,2.36a1.55,1.55,0,0,0,.59,1.26,2.39,2.39,0,0,0,1.58.49,3.87,3.87,0,0,0,2.59-1,2.75,2.75,0,0,0,1.08-2.07Z"/><path class="cls-1" d="M154.92,10.24H156v8.5l5.17-4.7h1.48l-4.09,3.69,4.5,5.62h-1.42l-3.85-4.91L156,20v3.29h-1.08Z"/><path class="cls-1" d="M171.27,15.28A6.49,6.49,0,0,1,172.33,19h-7.56a4.37,4.37,0,0,0,.92,2.68,2.93,2.93,0,0,0,2.3,1A3.13,3.13,0,0,0,170,22a3.49,3.49,0,0,0,1-1.64h1.1a4.36,4.36,0,0,1-1.24,2.21,4.16,4.16,0,0,1-2.9,1,4,4,0,0,1-3.13-1.33,5.14,5.14,0,0,1-1.21-3.58,5.2,5.2,0,0,1,1.15-3.44,4.27,4.27,0,0,1,6.46,0Zm-5.51.4a4.09,4.09,0,0,0-1,2.45h6.41q-.27-3.4-3.22-3.4A2.78,2.78,0,0,0,165.76,15.68Z"/><path class="cls-1" d="M181.62,17.62v5.72h-1.08V17.69q0-3-2.65-3a2.46,2.46,0,0,0-1.87.81,3.28,3.28,0,0,0-.88,2.2v5.62h-1.08V14h1.08v1.53a3.78,3.78,0,0,1,1.26-1.31,3.28,3.28,0,0,1,1.76-.47Q181.62,13.79,181.62,17.62Z"/><path class="cls-1" d="M190.76,16.65H189.7a2.2,2.2,0,0,0-.77-1.42,3.7,3.7,0,0,0-3.56-.09,1.23,1.23,0,0,0,.18,2.25,12.52,12.52,0,0,0,2,.65,9.36,9.36,0,0,1,2.41.87A2.1,2.1,0,0,1,191,20.77q0,2.83-3.78,2.83-3.58,0-3.91-3.19h1.06a2.53,2.53,0,0,0,.86,1.76,3.22,3.22,0,0,0,1.94.49q2.7,0,2.7-1.84a1.41,1.41,0,0,0-.92-1.3,12.42,12.42,0,0,0-2.07-.65,9,9,0,0,1-2.27-.83,2,2,0,0,1-1.06-1.78,2.1,2.1,0,0,1,1-1.82,4.19,4.19,0,0,1,2.45-.67Q190.36,13.79,190.76,16.65Z"/><path class="cls-1" d="M201,11v3h2.43V15H201v6.3a1.42,1.42,0,0,0,.22.88,1,1,0,0,0,.81.25h1.17v.94h-1.31a1.91,1.91,0,0,1-1.55-.56,2.25,2.25,0,0,1-.41-1.51V15h-2V14h2V11.48Z"/><path class="cls-1" d="M205.07,10.24h1.1v5.49a3.58,3.58,0,0,1,1.3-1.46,3.3,3.3,0,0,1,1.76-.49,3.25,3.25,0,0,1,2.48.94,3.76,3.76,0,0,1,.9,2.68v5.94h-1.08v-5.8a3.07,3.07,0,0,0-.68-2.11,2.57,2.57,0,0,0-1.93-.72,2.5,2.5,0,0,0-2,.94,3.36,3.36,0,0,0-.79,2.3v5.38h-1.1Z"/><path class="cls-1" d="M222,15.28A6.49,6.49,0,0,1,223,19h-7.56a4.37,4.37,0,0,0,.92,2.68,2.93,2.93,0,0,0,2.3,1,3.13,3.13,0,0,0,2.05-.67,3.49,3.49,0,0,0,1-1.64h1.1a4.36,4.36,0,0,1-1.24,2.21,4.16,4.16,0,0,1-2.9,1,4,4,0,0,1-3.13-1.33,5.14,5.14,0,0,1-1.21-3.58,5.2,5.2,0,0,1,1.15-3.44,4.27,4.27,0,0,1,6.46,0Zm-5.51.4a4.09,4.09,0,0,0-1,2.45h6.41q-.27-3.4-3.22-3.4A2.78,2.78,0,0,0,216.45,15.68Z"/><path class="cls-1" d="M237.38,14.6a3.53,3.53,0,0,1,1.28,2.48h-1.08a2.65,2.65,0,0,0-.94-1.76,3.11,3.11,0,0,0-2-.59,2.79,2.79,0,0,0-2.34,1.13,4.53,4.53,0,0,0-.85,2.9,4.57,4.57,0,0,0,.81,2.84,2.78,2.78,0,0,0,2.36,1.06,2.75,2.75,0,0,0,3-2.65h1.06a4.24,4.24,0,0,1-1.33,2.68,4,4,0,0,1-2.72.9,3.88,3.88,0,0,1-3.2-1.4,5.21,5.21,0,0,1-1.06-3.44,5.4,5.4,0,0,1,1.1-3.49,3.82,3.82,0,0,1,3.19-1.48A4.31,4.31,0,0,1,237.38,14.6Z"/><path class="cls-1" d="M247.78,15.26a5.21,5.21,0,0,1,1.13,3.44,5.22,5.22,0,0,1-1.13,3.42,4.41,4.41,0,0,1-6.59,0,5.22,5.22,0,0,1-1.13-3.42,5.15,5.15,0,0,1,1.15-3.44,4,4,0,0,1,3.28-1.48A4.09,4.09,0,0,1,247.78,15.26Zm-5.8.68a4.35,4.35,0,0,0-.83,2.75,4.31,4.31,0,0,0,.83,2.74,3.19,3.19,0,0,0,5,0,4.51,4.51,0,0,0,.83-2.74,4.45,4.45,0,0,0-.83-2.75,3.19,3.19,0,0,0-5,0Z"/><path class="cls-1" d="M258.38,17.62v5.72H257.3V17.69q0-3-2.65-3a2.46,2.46,0,0,0-1.87.81,3.28,3.28,0,0,0-.88,2.2v5.62h-1.08V14h1.08v1.53a3.78,3.78,0,0,1,1.26-1.31,3.28,3.28,0,0,1,1.76-.47Q258.38,13.79,258.38,17.62Z"/><path class="cls-1" d="M267.29,14.6a3.53,3.53,0,0,1,1.28,2.48h-1.08a2.65,2.65,0,0,0-.94-1.76,3.11,3.11,0,0,0-2-.59,2.79,2.79,0,0,0-2.34,1.13,4.53,4.53,0,0,0-.85,2.9,4.57,4.57,0,0,0,.81,2.84,2.78,2.78,0,0,0,2.36,1.06,2.75,2.75,0,0,0,3-2.65h1.06a4.24,4.24,0,0,1-1.33,2.68,4,4,0,0,1-2.72.9,3.88,3.88,0,0,1-3.2-1.4,5.21,5.21,0,0,1-1.06-3.44,5.4,5.4,0,0,1,1.1-3.49,3.82,3.82,0,0,1,3.19-1.48A4.31,4.31,0,0,1,267.29,14.6Z"/><path class="cls-1" d="M277.41,15.28A6.49,6.49,0,0,1,278.47,19h-7.56a4.37,4.37,0,0,0,.92,2.68,2.93,2.93,0,0,0,2.3,1,3.13,3.13,0,0,0,2.05-.67,3.49,3.49,0,0,0,1-1.64h1.1A4.36,4.36,0,0,1,277,22.57a4.16,4.16,0,0,1-2.9,1A4,4,0,0,1,271,22.26a5.14,5.14,0,0,1-1.21-3.58,5.2,5.2,0,0,1,1.15-3.44,4.27,4.27,0,0,1,6.46,0Zm-5.51.4a4.09,4.09,0,0,0-1,2.45h6.41q-.27-3.4-3.22-3.4A2.78,2.78,0,0,0,271.9,15.68Z"/><path class="cls-1" d="M287.63,15.28a5.52,5.52,0,0,1,1,3.44,5.57,5.57,0,0,1-1,3.4,3.74,3.74,0,0,1-3.11,1.48,3.4,3.4,0,0,1-3.26-2.2v5.51H280.2V14h1v1.84a3.42,3.42,0,0,1,3.28-2.09A3.74,3.74,0,0,1,287.63,15.28Zm-5.62.61a4.51,4.51,0,0,0-.77,2.75v.2a4.35,4.35,0,0,0,.83,2.75,2.73,2.73,0,0,0,2.27,1.08,2.91,2.91,0,0,0,2.45-1.15,4.74,4.74,0,0,0,.76-2.81,4.83,4.83,0,0,0-.74-2.81,2.82,2.82,0,0,0-2.43-1.21A2.73,2.73,0,0,0,282,15.89Z"/><path class="cls-1" d="M292.82,11v3h2.43V15h-2.43v6.3a1.42,1.42,0,0,0,.22.88,1,1,0,0,0,.81.25H295v.94H293.7a1.91,1.91,0,0,1-1.55-.56,2.25,2.25,0,0,1-.41-1.51V15h-2V14h2V11.48Z"/><path class="cls-1" d="M310.24,15.26a5.21,5.21,0,0,1,1.13,3.44,5.22,5.22,0,0,1-1.13,3.42,4.41,4.41,0,0,1-6.59,0,5.22,5.22,0,0,1-1.13-3.42,5.15,5.15,0,0,1,1.15-3.44,4,4,0,0,1,3.28-1.48A4.09,4.09,0,0,1,310.24,15.26Zm-5.8.68a4.35,4.35,0,0,0-.83,2.75,4.31,4.31,0,0,0,.83,2.74,3.19,3.19,0,0,0,5,0,4.51,4.51,0,0,0,.83-2.74,4.45,4.45,0,0,0-.83-2.75,3.19,3.19,0,0,0-5,0Z"/><path class="cls-1" d="M318.72,10.49v1h-1.57a1.28,1.28,0,0,0-1,.36A1.65,1.65,0,0,0,315.8,13V14h2.79V15H315.8v8.37h-1.08V15h-2.48V14h2.48v-1.1a2.46,2.46,0,0,1,.58-1.78,2.24,2.24,0,0,1,1.76-.67Z"/><path class="cls-1" d="M324.89,14h1.19L329,22,331.93,14h1.21l-3.56,9.31h-1.12Z"/><path class="cls-1" d="M341.2,14.85a3.6,3.6,0,0,1,.83,2.5v6h-1V21.56a4.81,4.81,0,0,1-1.51,1.39,4.69,4.69,0,0,1-2.43.65,3.35,3.35,0,0,1-2.21-.7A2.4,2.4,0,0,1,334,21a2.75,2.75,0,0,1,1.46-2.59,6.28,6.28,0,0,1,3.11-.67l2.38,0v-.34a2.36,2.36,0,0,0-2.7-2.65,3.2,3.2,0,0,0-1.94.52,2.22,2.22,0,0,0-1,1.62h-1.06a3.25,3.25,0,0,1,1.31-2.34,4.55,4.55,0,0,1,2.7-.72A3.67,3.67,0,0,1,341.2,14.85Zm-.25,3.73-2.32,0q-3.53,0-3.53,2.36a1.55,1.55,0,0,0,.59,1.26,2.39,2.39,0,0,0,1.58.49,3.87,3.87,0,0,0,2.59-1,2.75,2.75,0,0,0,1.08-2.07Z"/><path class="cls-1" d="M349.55,14v1.1a4.94,4.94,0,0,0-1.42-.2,2.3,2.3,0,0,0-2,1.12,4,4,0,0,0-.74,2.43v4.91H344.3V14h1.08v1.78a3.42,3.42,0,0,1,1-1.39,2.68,2.68,0,0,1,1.8-.65A3.67,3.67,0,0,1,349.55,14Z"/><path class="cls-1" d="M352.5,11a.76.76,0,0,1,.27.63.9.9,0,0,1-.29.65.94.94,0,0,1-.63.25.88.88,0,0,1-.65-.25.89.89,0,0,1-.27-.65.76.76,0,0,1,.27-.63.84.84,0,0,1,.65-.27A.88.88,0,0,1,352.5,11ZM351.32,14h1.08v9.31h-1.08Z"/><path class="cls-1" d="M362.57,15.26a5.21,5.21,0,0,1,1.13,3.44,5.22,5.22,0,0,1-1.13,3.42,4.41,4.41,0,0,1-6.59,0,5.22,5.22,0,0,1-1.13-3.42A5.15,5.15,0,0,1,356,15.26a4,4,0,0,1,3.28-1.48A4.09,4.09,0,0,1,362.57,15.26Zm-5.8.68a4.35,4.35,0,0,0-.83,2.75,4.31,4.31,0,0,0,.83,2.74,3.19,3.19,0,0,0,5,0,4.51,4.51,0,0,0,.83-2.74,4.45,4.45,0,0,0-.83-2.75,3.19,3.19,0,0,0-5,0Z"/><path class="cls-1" d="M365.61,14h1.08v5.69a3.3,3.3,0,0,0,.61,2.18,2.49,2.49,0,0,0,2,.76,2.6,2.6,0,0,0,1.89-.83,3.29,3.29,0,0,0,.92-2.14V14h1.08v9.31h-1.08V21.78A3.41,3.41,0,0,1,369,23.6q-3.4,0-3.4-3.82Z"/><path class="cls-1" d="M382.33,16.65h-1.06a2.2,2.2,0,0,0-.77-1.42,3.7,3.7,0,0,0-3.56-.09,1.23,1.23,0,0,0,.18,2.25,12.52,12.52,0,0,0,2,.65,9.36,9.36,0,0,1,2.41.87,2.1,2.1,0,0,1,1.12,1.87q0,2.83-3.78,2.83-3.58,0-3.91-3.19H376a2.53,2.53,0,0,0,.86,1.76,3.22,3.22,0,0,0,1.94.49q2.7,0,2.7-1.84a1.41,1.41,0,0,0-.92-1.3,12.42,12.42,0,0,0-2.07-.65,9,9,0,0,1-2.27-.83,2,2,0,0,1-1.06-1.78,2.1,2.1,0,0,1,1-1.82,4.19,4.19,0,0,1,2.45-.67Q381.93,13.79,382.33,16.65Z"/><path class="cls-1" d="M45.44,47.28a6.26,6.26,0,0,1,0,6.84,3.74,3.74,0,0,1-3.11,1.48,3.4,3.4,0,0,1-3.26-2.2v5.51H38V46h1v1.84a3.42,3.42,0,0,1,3.28-2.09A3.74,3.74,0,0,1,45.44,47.28Zm-5.62.61A4.51,4.51,0,0,0,39,50.65v.2a4.35,4.35,0,0,0,.83,2.75,2.73,2.73,0,0,0,2.27,1.08,2.91,2.91,0,0,0,2.45-1.15,4.74,4.74,0,0,0,.76-2.81,4.83,4.83,0,0,0-.74-2.81,2.82,2.82,0,0,0-2.43-1.21A2.73,2.73,0,0,0,39.82,47.89Z"/><path class="cls-1" d="M55.21,46.85a3.6,3.6,0,0,1,.83,2.5v6H55V53.56a4.81,4.81,0,0,1-1.51,1.39,4.69,4.69,0,0,1-2.43.65,3.35,3.35,0,0,1-2.21-.7A2.4,2.4,0,0,1,48,53a2.75,2.75,0,0,1,1.46-2.59,6.28,6.28,0,0,1,3.11-.67l2.38,0v-.34a2.36,2.36,0,0,0-2.7-2.65,3.2,3.2,0,0,0-1.94.52,2.22,2.22,0,0,0-1,1.62H48.3a3.25,3.25,0,0,1,1.31-2.34,4.55,4.55,0,0,1,2.7-.72A3.67,3.67,0,0,1,55.21,46.85ZM55,50.57l-2.32,0q-3.53,0-3.53,2.36a1.55,1.55,0,0,0,.59,1.26,2.39,2.39,0,0,0,1.58.49,3.87,3.87,0,0,0,2.59-1A2.75,2.75,0,0,0,55,51.65Z"/><path class="cls-1" d="M63.57,46v1.1a4.94,4.94,0,0,0-1.42-.2,2.3,2.3,0,0,0-2,1.12,4,4,0,0,0-.74,2.43v4.91H58.31V46h1.08v1.78a3.42,3.42,0,0,1,1-1.39,2.68,2.68,0,0,1,1.8-.65A3.67,3.67,0,0,1,63.57,46Z"/><path class="cls-1" d="M67,43v3h2.43V47H67v6.3a1.42,1.42,0,0,0,.22.88,1,1,0,0,0,.81.25h1.17v.94H67.92a1.91,1.91,0,0,1-1.55-.56A2.25,2.25,0,0,1,66,53.27V47H64V46h2V43.48Z"/><path class="cls-1" d="M72.83,43a.76.76,0,0,1,.27.63.9.9,0,0,1-.29.65.94.94,0,0,1-.63.25.88.88,0,0,1-.65-.25.89.89,0,0,1-.27-.65.76.76,0,0,1,.27-.63.84.84,0,0,1,.65-.27A.88.88,0,0,1,72.83,43ZM71.65,46h1.08v9.31H71.65Z"/><path class="cls-1" d="M82.18,46.6a3.53,3.53,0,0,1,1.28,2.48H82.37a2.65,2.65,0,0,0-.94-1.76,3.11,3.11,0,0,0-2-.59,2.79,2.79,0,0,0-2.34,1.13,5.39,5.39,0,0,0,0,5.74,2.78,2.78,0,0,0,2.36,1.06,2.75,2.75,0,0,0,3-2.65h1.06a4.24,4.24,0,0,1-1.33,2.68,4,4,0,0,1-2.72.9,3.88,3.88,0,0,1-3.2-1.4,5.21,5.21,0,0,1-1.06-3.44,5.4,5.4,0,0,1,1.1-3.49,3.82,3.82,0,0,1,3.19-1.48A4.31,4.31,0,0,1,82.18,46.6Z"/><path class="cls-1" d="M86.95,43a.76.76,0,0,1,.27.63.9.9,0,0,1-.29.65.94.94,0,0,1-.63.25.88.88,0,0,1-.65-.25.89.89,0,0,1-.27-.65.76.76,0,0,1,.27-.63.84.84,0,0,1,.65-.27A.88.88,0,0,1,86.95,43ZM85.76,46h1.08v9.31H85.76Z"/><path class="cls-1" d="M97.08,47.28a6.26,6.26,0,0,1,0,6.84A3.74,3.74,0,0,1,94,55.6a3.4,3.4,0,0,1-3.26-2.2v5.51H89.65V46h1v1.84a3.42,3.42,0,0,1,3.28-2.09A3.74,3.74,0,0,1,97.08,47.28Zm-5.62.61a4.51,4.51,0,0,0-.77,2.75v.2a4.35,4.35,0,0,0,.83,2.75,2.73,2.73,0,0,0,2.27,1.08,2.91,2.91,0,0,0,2.45-1.15A4.74,4.74,0,0,0,97,50.72a4.83,4.83,0,0,0-.74-2.81,2.82,2.82,0,0,0-2.43-1.21A2.73,2.73,0,0,0,91.46,47.89Z"/><path class="cls-1" d="M106.85,46.85a3.6,3.6,0,0,1,.83,2.5v6h-1V53.56a4.81,4.81,0,0,1-1.51,1.39,4.69,4.69,0,0,1-2.43.65,3.35,3.35,0,0,1-2.21-.7A2.4,2.4,0,0,1,99.65,53a2.75,2.75,0,0,1,1.46-2.59,6.28,6.28,0,0,1,3.11-.67l2.38,0v-.34a2.36,2.36,0,0,0-2.7-2.65,3.2,3.2,0,0,0-1.94.52,2.22,2.22,0,0,0-1,1.62H99.94a3.25,3.25,0,0,1,1.31-2.34,4.55,4.55,0,0,1,2.7-.72A3.67,3.67,0,0,1,106.85,46.85Zm-.25,3.73-2.32,0q-3.53,0-3.53,2.36a1.55,1.55,0,0,0,.59,1.26,2.39,2.39,0,0,0,1.58.49,3.87,3.87,0,0,0,2.59-1,2.75,2.75,0,0,0,1.08-2.07Z"/><path class="cls-1" d="M117.51,49.62v5.72h-1.08V49.69q0-3-2.65-3a2.46,2.46,0,0,0-1.87.81,3.28,3.28,0,0,0-.88,2.2v5.62h-1.08V46H111v1.53a3.78,3.78,0,0,1,1.26-1.31,3.28,3.28,0,0,1,1.76-.47Q117.51,45.79,117.51,49.62Z"/><path class="cls-1" d="M122,43v3h2.43V47H122v6.3a1.42,1.42,0,0,0,.22.88,1,1,0,0,0,.81.25h1.17v.94h-1.31a1.91,1.91,0,0,1-1.55-.56,2.25,2.25,0,0,1-.41-1.51V47h-2V46h2V43.48Z"/><path class="cls-1" d="M133,48.65h-1.06a2.2,2.2,0,0,0-.77-1.42,3.7,3.7,0,0,0-3.56-.09,1.23,1.23,0,0,0,.18,2.25,12.52,12.52,0,0,0,2,.65,9.36,9.36,0,0,1,2.41.87,2.1,2.1,0,0,1,1.12,1.87q0,2.83-3.78,2.83-3.58,0-3.91-3.19h1.06a2.53,2.53,0,0,0,.86,1.76,3.22,3.22,0,0,0,1.94.49q2.7,0,2.7-1.84a1.41,1.41,0,0,0-.92-1.3,12.42,12.42,0,0,0-2.07-.65,9,9,0,0,1-2.27-.83,2,2,0,0,1-1.06-1.78,2.1,2.1,0,0,1,1-1.82,4.19,4.19,0,0,1,2.45-.67Q132.57,45.79,133,48.65Z"/><path class="cls-1" d="M136.81,53.8a.81.81,0,0,1,.27.65.9.9,0,0,1-.29.65.94.94,0,0,1-.63.25.85.85,0,0,1-.65-.27.87.87,0,0,1-.27-.63.81.81,0,0,1,.27-.65.84.84,0,0,1,.65-.25A.88.88,0,0,1,136.81,53.8Z"/><path class="cls-1" d="M155.85,44.18a7,7,0,0,1,1.57,4.73,7.07,7.07,0,0,1-1.57,4.75,6.24,6.24,0,0,1-9,0,7,7,0,0,1-1.57-4.73,7,7,0,0,1,1.57-4.73,6.22,6.22,0,0,1,9,0Zm-8.21.68a6.15,6.15,0,0,0-1.3,4.05,6.07,6.07,0,0,0,1.28,4,5.05,5.05,0,0,0,7.4,0,6.13,6.13,0,0,0,1.3-4.07,6,6,0,0,0-1.3-4.07,4.52,4.52,0,0,0-3.67-1.6A4.57,4.57,0,0,0,147.64,44.87Z"/><path class="cls-1" d="M166.88,49.62v5.72H165.8V49.69q0-3-2.65-3a2.46,2.46,0,0,0-1.87.81,3.28,3.28,0,0,0-.88,2.2v5.62h-1.08V46h1.08v1.53a3.78,3.78,0,0,1,1.26-1.31,3.28,3.28,0,0,1,1.76-.47Q166.88,45.79,166.88,49.62Z"/><path class="cls-1" d="M177.39,43v3h2.43V47h-2.43v6.3a1.42,1.42,0,0,0,.22.88,1,1,0,0,0,.81.25h1.17v.94h-1.31a1.91,1.91,0,0,1-1.55-.56,2.25,2.25,0,0,1-.41-1.51V47h-2V46h2V43.48Z"/><path class="cls-1" d="M181.46,42.24h1.1v5.49a3.58,3.58,0,0,1,1.3-1.46,3.3,3.3,0,0,1,1.76-.49,3.25,3.25,0,0,1,2.48.94,3.76,3.76,0,0,1,.9,2.68v5.94h-1.08v-5.8a3.07,3.07,0,0,0-.68-2.11,2.57,2.57,0,0,0-1.93-.72,2.5,2.5,0,0,0-2,.94,3.36,3.36,0,0,0-.79,2.3v5.38h-1.1Z"/><path class="cls-1" d="M198.35,47.28A6.49,6.49,0,0,1,199.41,51h-7.56a4.37,4.37,0,0,0,.92,2.68,2.93,2.93,0,0,0,2.3,1,3.13,3.13,0,0,0,2.05-.67,3.49,3.49,0,0,0,1-1.64h1.1A4.36,4.36,0,0,1,198,54.57a4.16,4.16,0,0,1-2.9,1,4,4,0,0,1-3.13-1.33,5.14,5.14,0,0,1-1.21-3.58,5.2,5.2,0,0,1,1.15-3.44,4.27,4.27,0,0,1,6.46,0Zm-5.51.4a4.09,4.09,0,0,0-1,2.45h6.41q-.27-3.4-3.22-3.4A2.78,2.78,0,0,0,192.84,47.68Z"/><path class="cls-1" d="M214.56,47.28a6.26,6.26,0,0,1,0,6.84,3.74,3.74,0,0,1-3.11,1.48,3.4,3.4,0,0,1-3.26-2.2v5.51h-1.08V46h1v1.84a3.42,3.42,0,0,1,3.28-2.09A3.74,3.74,0,0,1,214.56,47.28Zm-5.62.61a4.51,4.51,0,0,0-.77,2.75v.2A4.35,4.35,0,0,0,209,53.6a2.73,2.73,0,0,0,2.27,1.08,2.91,2.91,0,0,0,2.45-1.15,4.74,4.74,0,0,0,.76-2.81,4.83,4.83,0,0,0-.74-2.81,2.82,2.82,0,0,0-2.43-1.21A2.73,2.73,0,0,0,208.95,47.89Z"/><path class="cls-1" d="M222.75,46v1.1a4.94,4.94,0,0,0-1.42-.2,2.3,2.3,0,0,0-2,1.12,4,4,0,0,0-.74,2.43v4.91H217.5V46h1.08v1.78a3.42,3.42,0,0,1,1-1.39,2.68,2.68,0,0,1,1.8-.65A3.67,3.67,0,0,1,222.75,46Z"/><path class="cls-1" d="M231.05,47.28A6.49,6.49,0,0,1,232.11,51h-7.56a4.37,4.37,0,0,0,.92,2.68,2.93,2.93,0,0,0,2.3,1,3.13,3.13,0,0,0,2.05-.67,3.49,3.49,0,0,0,1-1.64h1.1a4.36,4.36,0,0,1-1.24,2.21,4.16,4.16,0,0,1-2.9,1,4,4,0,0,1-3.13-1.33,5.14,5.14,0,0,1-1.21-3.58,5.2,5.2,0,0,1,1.15-3.44,4.27,4.27,0,0,1,6.46,0Zm-5.51.4a4.09,4.09,0,0,0-1,2.45H231q-.27-3.4-3.22-3.4A2.78,2.78,0,0,0,225.54,47.68Z"/><path class="cls-1" d="M240.54,47.69a3.63,3.63,0,0,1,1.24-1.42,2.9,2.9,0,0,1,1.69-.49,3.06,3.06,0,0,1,2.34.92,3.67,3.67,0,0,1,.85,2.56v6.08h-1.08V49.4a3,3,0,0,0-.54-2,2.29,2.29,0,0,0-1.85-.7,2.14,2.14,0,0,0-1.69.77,2.72,2.72,0,0,0-.68,1.93v5.92h-1.1V49.4q0-2.68-2.32-2.68a2.15,2.15,0,0,0-1.75.85,3,3,0,0,0-.72,2.05v5.72h-1.08V46h1.08v1.4a3,3,0,0,1,2.7-1.66A2.81,2.81,0,0,1,240.54,47.69Z"/><path class="cls-1" d="M250.65,43a.76.76,0,0,1,.27.63.9.9,0,0,1-.29.65.94.94,0,0,1-.63.25.88.88,0,0,1-.65-.25.89.89,0,0,1-.27-.65.76.76,0,0,1,.27-.63.84.84,0,0,1,.65-.27A.88.88,0,0,1,250.65,43ZM249.47,46h1.08v9.31h-1.08Z"/><path class="cls-1" d="M260.23,48.65h-1.06a2.2,2.2,0,0,0-.77-1.42,3.7,3.7,0,0,0-3.56-.09,1.23,1.23,0,0,0,.18,2.25,12.52,12.52,0,0,0,2,.65,9.36,9.36,0,0,1,2.41.87,2.1,2.1,0,0,1,1.12,1.87q0,2.83-3.78,2.83-3.58,0-3.91-3.19h1.06a2.53,2.53,0,0,0,.86,1.76,3.22,3.22,0,0,0,1.94.49q2.7,0,2.7-1.84a1.41,1.41,0,0,0-.92-1.3,12.42,12.42,0,0,0-2.07-.65,9,9,0,0,1-2.27-.83,2,2,0,0,1-1.06-1.78,2.1,2.1,0,0,1,1-1.82,4.19,4.19,0,0,1,2.45-.67Q259.83,45.79,260.23,48.65Z"/><path class="cls-1" d="M269.3,47.28A6.49,6.49,0,0,1,270.36,51H262.8a4.37,4.37,0,0,0,.92,2.68,2.93,2.93,0,0,0,2.3,1,3.13,3.13,0,0,0,2.05-.67,3.49,3.49,0,0,0,1-1.64h1.1a4.36,4.36,0,0,1-1.24,2.21,4.16,4.16,0,0,1-2.9,1,4,4,0,0,1-3.13-1.33,5.14,5.14,0,0,1-1.21-3.58,5.2,5.2,0,0,1,1.15-3.44,4.27,4.27,0,0,1,6.46,0Zm-5.51.4a4.09,4.09,0,0,0-1,2.45h6.41q-.27-3.4-3.22-3.4A2.78,2.78,0,0,0,263.79,47.68Z"/><path class="cls-1" d="M279.45,47.26a5.75,5.75,0,0,1,0,6.86,4.41,4.41,0,0,1-6.59,0,5.22,5.22,0,0,1-1.13-3.42,5.15,5.15,0,0,1,1.15-3.44,4,4,0,0,1,3.28-1.48A4.09,4.09,0,0,1,279.45,47.26Zm-5.8.68a5,5,0,0,0,0,5.49,3.19,3.19,0,0,0,5,0,4.51,4.51,0,0,0,.83-2.74,4.45,4.45,0,0,0-.83-2.75,3.19,3.19,0,0,0-5,0Z"/><path class="cls-1" d="M287.93,42.49v1h-1.57a1.28,1.28,0,0,0-1,.36A1.65,1.65,0,0,0,285,45V46h2.79V47H285v8.37h-1.08V47h-2.48V46h2.48v-1.1a2.46,2.46,0,0,1,.58-1.78,2.24,2.24,0,0,1,1.76-.67Z"/><path class="cls-1" d="M301.84,47.69a3.63,3.63,0,0,1,1.24-1.42,2.9,2.9,0,0,1,1.69-.49,3.06,3.06,0,0,1,2.34.92,3.67,3.67,0,0,1,.85,2.56v6.08h-1.08V49.4a3,3,0,0,0-.54-2,2.29,2.29,0,0,0-1.85-.7,2.14,2.14,0,0,0-1.69.77,2.72,2.72,0,0,0-.68,1.93v5.92H301V49.4q0-2.68-2.32-2.68a2.15,2.15,0,0,0-1.75.85,3,3,0,0,0-.72,2.05v5.72h-1.08V46h1.08v1.4a3,3,0,0,1,2.7-1.66A2.81,2.81,0,0,1,301.84,47.69Z"/><path class="cls-1" d="M317.07,46.85a3.6,3.6,0,0,1,.83,2.5v6h-1V53.56a4.81,4.81,0,0,1-1.51,1.39,4.69,4.69,0,0,1-2.43.65,3.35,3.35,0,0,1-2.21-.7,2.4,2.4,0,0,1-.85-1.93,2.75,2.75,0,0,1,1.46-2.59,6.28,6.28,0,0,1,3.11-.67l2.38,0v-.34a2.36,2.36,0,0,0-2.7-2.65,3.2,3.2,0,0,0-1.94.52,2.22,2.22,0,0,0-1,1.62h-1.06a3.25,3.25,0,0,1,1.31-2.34,4.55,4.55,0,0,1,2.7-.72A3.67,3.67,0,0,1,317.07,46.85Zm-.25,3.73-2.32,0q-3.53,0-3.53,2.36a1.55,1.55,0,0,0,.59,1.26,2.39,2.39,0,0,0,1.58.49,3.87,3.87,0,0,0,2.59-1,2.75,2.75,0,0,0,1.08-2.07Z"/><path class="cls-1" d="M319.52,46h1.3l2.66,3.58L326.14,46h1.28l-3.33,4.39,3.73,4.91h-1.3l-3-4.1-3.06,4.1h-1.3l3.74-4.91Z"/><path class="cls-1" d="M330.77,43a.76.76,0,0,1,.27.63.9.9,0,0,1-.29.65.94.94,0,0,1-.63.25.88.88,0,0,1-.65-.25.89.89,0,0,1-.27-.65.76.76,0,0,1,.27-.63.84.84,0,0,1,.65-.27A.88.88,0,0,1,330.77,43ZM329.58,46h1.08v9.31h-1.08Z"/><path class="cls-1" d="M340.17,47.69a3.63,3.63,0,0,1,1.24-1.42,2.9,2.9,0,0,1,1.69-.49,3.06,3.06,0,0,1,2.34.92,3.67,3.67,0,0,1,.85,2.56v6.08h-1.08V49.4a3,3,0,0,0-.54-2,2.29,2.29,0,0,0-1.85-.7,2.14,2.14,0,0,0-1.69.77,2.72,2.72,0,0,0-.68,1.93v5.92h-1.1V49.4q0-2.68-2.32-2.68a2.15,2.15,0,0,0-1.75.85,3,3,0,0,0-.72,2.05v5.72h-1.08V46h1.08v1.4a3,3,0,0,1,2.7-1.66A2.81,2.81,0,0,1,340.17,47.69Z"/><path class="cls-1" d="M350.28,43a.76.76,0,0,1,.27.63.9.9,0,0,1-.29.65.94.94,0,0,1-.63.25.88.88,0,0,1-.65-.25.89.89,0,0,1-.27-.65A.76.76,0,0,1,349,43a.84.84,0,0,1,.65-.27A.88.88,0,0,1,350.28,43ZM349.09,46h1.08v9.31h-1.08Z"/><path class="cls-1" d="M352.48,46h7.22v.83l-6,7.54H360v.94H352.3V54.5l6-7.52h-5.81Z"/><path class="cls-1" d="M363.3,43a.76.76,0,0,1,.27.63.9.9,0,0,1-.29.65.94.94,0,0,1-.63.25.88.88,0,0,1-.65-.25.89.89,0,0,1-.27-.65A.76.76,0,0,1,362,43a.84.84,0,0,1,.65-.27A.88.88,0,0,1,363.3,43ZM362.11,46h1.08v9.31h-1.08Z"/><path class="cls-1" d="M373.55,49.62v5.72h-1.08V49.69q0-3-2.65-3a2.46,2.46,0,0,0-1.87.81,3.28,3.28,0,0,0-.88,2.2v5.62H366V46h1.08v1.53a3.78,3.78,0,0,1,1.26-1.31,3.28,3.28,0,0,1,1.76-.47Q373.56,45.79,373.55,49.62Z"/><path class="cls-1" d="M383,47.91V46h1.08v8.62q0,4.5-4.18,4.5a4.47,4.47,0,0,1-2.83-.79,3.39,3.39,0,0,1-1.19-2.23H377a2.41,2.41,0,0,0,.86,1.55,3.24,3.24,0,0,0,2.07.58q3.1,0,3.1-3.47V53a3.46,3.46,0,0,1-3.33,2.12,3.87,3.87,0,0,1-3.11-1.39,5.51,5.51,0,0,1,0-6.55,3.85,3.85,0,0,1,3.11-1.4A3.46,3.46,0,0,1,383,47.91Zm-5.6-.09a4,4,0,0,0-.83,2.65,4.13,4.13,0,0,0,.77,2.59,2.85,2.85,0,0,0,2.43,1.13,2.91,2.91,0,0,0,2.41-1.08,4.72,4.72,0,0,0,0-5.29,3.12,3.12,0,0,0-4.79,0Z"/><path class="cls-1" d="M81.86,79.28a6.26,6.26,0,0,1,0,6.84,3.74,3.74,0,0,1-3.11,1.48,3.4,3.4,0,0,1-3.26-2.2v5.51H74.43V78h1v1.84a3.42,3.42,0,0,1,3.28-2.09A3.74,3.74,0,0,1,81.86,79.28Zm-5.62.61a4.51,4.51,0,0,0-.77,2.75v.2a4.35,4.35,0,0,0,.83,2.75,2.73,2.73,0,0,0,2.27,1.08A2.91,2.91,0,0,0,81,85.53a4.74,4.74,0,0,0,.76-2.81A4.83,4.83,0,0,0,81,79.91,2.82,2.82,0,0,0,78.6,78.7,2.73,2.73,0,0,0,76.25,79.89Z"/><path class="cls-1" d="M91.64,78.85a3.6,3.6,0,0,1,.83,2.5v6h-1V85.56a4.81,4.81,0,0,1-1.51,1.39,4.69,4.69,0,0,1-2.43.65,3.35,3.35,0,0,1-2.21-.7A2.4,2.4,0,0,1,84.44,85a2.75,2.75,0,0,1,1.46-2.59A6.28,6.28,0,0,1,89,81.71l2.38,0v-.34a2.36,2.36,0,0,0-2.7-2.65,3.2,3.2,0,0,0-1.94.52,2.22,2.22,0,0,0-1,1.62H84.72A3.25,3.25,0,0,1,86,78.51a4.55,4.55,0,0,1,2.7-.72A3.67,3.67,0,0,1,91.64,78.85Zm-.25,3.73-2.32,0q-3.53,0-3.53,2.36a1.55,1.55,0,0,0,.59,1.26,2.39,2.39,0,0,0,1.58.49,3.87,3.87,0,0,0,2.59-1,2.75,2.75,0,0,0,1.08-2.07Z"/><path class="cls-1" d="M100,78v1.1a4.94,4.94,0,0,0-1.42-.2,2.3,2.3,0,0,0-2,1.12,4,4,0,0,0-.74,2.43v4.91H94.73V78h1.08v1.78a3.42,3.42,0,0,1,1-1.39,2.68,2.68,0,0,1,1.8-.65A3.67,3.67,0,0,1,100,78Z"/><path class="cls-1" d="M103.46,75v3h2.43V79h-2.43v6.3a1.42,1.42,0,0,0,.22.88,1,1,0,0,0,.81.25h1.17v.94h-1.31a1.91,1.91,0,0,1-1.55-.56,2.25,2.25,0,0,1-.41-1.51V79h-2V78h2V75.48Z"/><path class="cls-1" d="M109.26,75a.76.76,0,0,1,.27.63.9.9,0,0,1-.29.65.94.94,0,0,1-.63.25.88.88,0,0,1-.65-.25.89.89,0,0,1-.27-.65A.76.76,0,0,1,108,75a.84.84,0,0,1,.65-.27A.88.88,0,0,1,109.26,75ZM108.07,78h1.08v9.31h-1.08Z"/><path class="cls-1" d="M118.6,78.6a3.53,3.53,0,0,1,1.28,2.48H118.8a2.65,2.65,0,0,0-.94-1.76,3.11,3.11,0,0,0-2-.59,2.79,2.79,0,0,0-2.34,1.13,5.39,5.39,0,0,0,0,5.74,2.78,2.78,0,0,0,2.36,1.06,2.75,2.75,0,0,0,3-2.65h1.06a4.24,4.24,0,0,1-1.33,2.68,4,4,0,0,1-2.72.9,3.88,3.88,0,0,1-3.2-1.4,5.21,5.21,0,0,1-1.06-3.44,5.4,5.4,0,0,1,1.1-3.49,3.82,3.82,0,0,1,3.19-1.48A4.31,4.31,0,0,1,118.6,78.6Z"/><path class="cls-1" d="M123.37,75a.76.76,0,0,1,.27.63.9.9,0,0,1-.29.65.94.94,0,0,1-.63.25.88.88,0,0,1-.65-.25.89.89,0,0,1-.27-.65.76.76,0,0,1,.27-.63.84.84,0,0,1,.65-.27A.88.88,0,0,1,123.37,75ZM122.18,78h1.08v9.31h-1.08Z"/><path class="cls-1" d="M133.5,79.28a6.26,6.26,0,0,1,0,6.84,3.74,3.74,0,0,1-3.11,1.48,3.4,3.4,0,0,1-3.26-2.2v5.51h-1.08V78h1v1.84a3.42,3.42,0,0,1,3.28-2.09A3.74,3.74,0,0,1,133.5,79.28Zm-5.62.61a4.51,4.51,0,0,0-.77,2.75v.2a4.35,4.35,0,0,0,.83,2.75,2.73,2.73,0,0,0,2.27,1.08,2.91,2.91,0,0,0,2.45-1.15,4.74,4.74,0,0,0,.76-2.81,4.83,4.83,0,0,0-.74-2.81,2.82,2.82,0,0,0-2.43-1.21A2.73,2.73,0,0,0,127.89,79.89Z"/><path class="cls-1" d="M143.28,78.85a3.6,3.6,0,0,1,.83,2.5v6h-1V85.56a4.81,4.81,0,0,1-1.51,1.39,4.69,4.69,0,0,1-2.43.65,3.35,3.35,0,0,1-2.21-.7,2.4,2.4,0,0,1-.85-1.93,2.75,2.75,0,0,1,1.46-2.59,6.28,6.28,0,0,1,3.11-.67l2.38,0v-.34a2.36,2.36,0,0,0-2.7-2.65,3.2,3.2,0,0,0-1.94.52,2.22,2.22,0,0,0-1,1.62h-1.06a3.25,3.25,0,0,1,1.31-2.34,4.55,4.55,0,0,1,2.7-.72A3.67,3.67,0,0,1,143.28,78.85ZM143,82.57l-2.32,0q-3.53,0-3.53,2.36a1.55,1.55,0,0,0,.59,1.26,2.39,2.39,0,0,0,1.58.49,3.87,3.87,0,0,0,2.59-1A2.75,2.75,0,0,0,143,83.65Z"/><path class="cls-1" d="M153.93,81.62v5.72h-1.08V81.69q0-3-2.65-3a2.46,2.46,0,0,0-1.87.81,3.28,3.28,0,0,0-.88,2.2v5.62h-1.08V78h1.08v1.53a3.78,3.78,0,0,1,1.26-1.31,3.28,3.28,0,0,1,1.76-.47Q153.93,77.79,153.93,81.62Z"/><path class="cls-1" d="M158.45,75v3h2.43V79h-2.43v6.3a1.42,1.42,0,0,0,.22.88,1,1,0,0,0,.81.25h1.17v.94h-1.31a1.91,1.91,0,0,1-1.55-.56,2.25,2.25,0,0,1-.41-1.51V79h-2V78h2V75.48Z"/><path class="cls-1" d="M169.39,80.65h-1.06a2.2,2.2,0,0,0-.77-1.42,3.7,3.7,0,0,0-3.56-.09,1.23,1.23,0,0,0,.18,2.25,12.52,12.52,0,0,0,2,.65,9.36,9.36,0,0,1,2.41.87,2.1,2.1,0,0,1,1.12,1.87q0,2.83-3.78,2.83-3.58,0-3.91-3.19H163a2.53,2.53,0,0,0,.86,1.76,3.22,3.22,0,0,0,1.94.49q2.7,0,2.7-1.84a1.41,1.41,0,0,0-.92-1.3,12.42,12.42,0,0,0-2.07-.65,9,9,0,0,1-2.27-.83,2,2,0,0,1-1.06-1.78,2.1,2.1,0,0,1,1-1.82,4.19,4.19,0,0,1,2.45-.67Q169,77.79,169.39,80.65Z"/><path class="cls-1" d="M173.89,73.75a3.32,3.32,0,0,1-1.8,3.13l-.4-.63A2.83,2.83,0,0,0,173.07,74a1,1,0,0,1-.25,0,.9.9,0,0,1-.67-.25.83.83,0,0,1-.27-.63.8.8,0,0,1,.25-.67.86.86,0,0,1,.67-.25Q173.89,72.28,173.89,73.75Z"/><path class="cls-1" d="M190.61,79.28a6.26,6.26,0,0,1,0,6.84,3.74,3.74,0,0,1-3.11,1.48,3.4,3.4,0,0,1-3.26-2.2v5.51h-1.08V78h1v1.84a3.42,3.42,0,0,1,3.28-2.09A3.74,3.74,0,0,1,190.61,79.28Zm-5.62.61a4.51,4.51,0,0,0-.77,2.75v.2a4.35,4.35,0,0,0,.83,2.75,2.73,2.73,0,0,0,2.27,1.08,2.91,2.91,0,0,0,2.45-1.15,4.74,4.74,0,0,0,.76-2.81,4.83,4.83,0,0,0-.74-2.81,2.82,2.82,0,0,0-2.43-1.21A2.73,2.73,0,0,0,185,79.89Z"/><path class="cls-1" d="M198.81,78v1.1a4.94,4.94,0,0,0-1.42-.2,2.3,2.3,0,0,0-2,1.12,4,4,0,0,0-.74,2.43v4.91h-1.08V78h1.08v1.78a3.42,3.42,0,0,1,1-1.39,2.68,2.68,0,0,1,1.8-.65A3.67,3.67,0,0,1,198.81,78Z"/><path class="cls-1" d="M207.39,79.26a5.75,5.75,0,0,1,0,6.86,4.41,4.41,0,0,1-6.59,0,5.22,5.22,0,0,1-1.13-3.42,5.15,5.15,0,0,1,1.15-3.44,4,4,0,0,1,3.28-1.48A4.09,4.09,0,0,1,207.39,79.26Zm-5.8.68a5,5,0,0,0,0,5.49,3.19,3.19,0,0,0,5,0,4.51,4.51,0,0,0,.83-2.74,4.45,4.45,0,0,0-.83-2.75,3.19,3.19,0,0,0-5,0Z"/><path class="cls-1" d="M215.87,74.49v1H214.3a1.28,1.28,0,0,0-1,.36A1.65,1.65,0,0,0,213,77V78h5.69v9.31h-1.08V79H213v8.37h-1.08V79h-2.48V78h2.48v-1.1a2.46,2.46,0,0,1,.58-1.78,2.24,2.24,0,0,1,1.76-.67Z"/><path class="cls-1" d="M223.5,75v3h2.43V79H223.5v6.3a1.42,1.42,0,0,0,.22.88,1,1,0,0,0,.81.25h1.17v.94h-1.31a1.91,1.91,0,0,1-1.55-.56,2.25,2.25,0,0,1-.41-1.51V79h-2V78h2V75.48Z"/><path class="cls-1" d="M234.44,80.65h-1.06a2.2,2.2,0,0,0-.77-1.42,3.7,3.7,0,0,0-3.56-.09,1.23,1.23,0,0,0,.18,2.25,12.52,12.52,0,0,0,2,.65,9.36,9.36,0,0,1,2.41.87,2.1,2.1,0,0,1,1.12,1.87q0,2.83-3.78,2.83-3.58,0-3.91-3.19h1.06a2.53,2.53,0,0,0,.86,1.76,3.22,3.22,0,0,0,1.94.49q2.7,0,2.7-1.84a1.41,1.41,0,0,0-.92-1.3,12.42,12.42,0,0,0-2.07-.65,9,9,0,0,1-2.27-.83,2,2,0,0,1-1.06-1.78,2.1,2.1,0,0,1,1-1.82,4.19,4.19,0,0,1,2.45-.67Q234,77.79,234.44,80.65Z"/><path class="cls-1" d="M238.67,87a3.31,3.31,0,0,1-1.8,3.12l-.4-.63a2.83,2.83,0,0,0,1.39-2.2l-.27,0a1,1,0,0,1-.67-.23.84.84,0,0,1-.25-.65.86.86,0,0,1,.23-.67.9.9,0,0,1,.67-.25Q238.67,85.54,238.67,87Z"/><path class="cls-1" d="M243.34,75v3h2.43V79h-2.43v6.3a1.42,1.42,0,0,0,.22.88,1,1,0,0,0,.81.25h1.17v.94h-1.31a1.91,1.91,0,0,1-1.55-.56,2.25,2.25,0,0,1-.41-1.51V79h-2V78h2V75.48Z"/><path class="cls-1" d="M247.4,74.24h1.1v5.49a3.58,3.58,0,0,1,1.3-1.46,3.3,3.3,0,0,1,1.76-.49,3.25,3.25,0,0,1,2.48.94,3.76,3.76,0,0,1,.9,2.68v5.94h-1.08v-5.8a3.07,3.07,0,0,0-.68-2.11,2.57,2.57,0,0,0-1.93-.72,2.5,2.5,0,0,0-2,.94,3.36,3.36,0,0,0-.79,2.3v5.38h-1.1Z"/><path class="cls-1" d="M264.29,79.28A6.49,6.49,0,0,1,265.35,83h-7.56a4.37,4.37,0,0,0,.92,2.68,2.93,2.93,0,0,0,2.3,1,3.13,3.13,0,0,0,2.05-.67,3.49,3.49,0,0,0,1-1.64h1.1a4.36,4.36,0,0,1-1.24,2.21,4.16,4.16,0,0,1-2.9,1,4,4,0,0,1-3.13-1.33,5.14,5.14,0,0,1-1.21-3.58,5.2,5.2,0,0,1,1.15-3.44,4.27,4.27,0,0,1,6.46,0Zm-5.51.4a4.09,4.09,0,0,0-1,2.45h6.41q-.27-3.4-3.22-3.4A2.78,2.78,0,0,0,258.78,79.68Z"/><path class="cls-1" d="M268.81,75a.76.76,0,0,1,.27.63.9.9,0,0,1-.29.65.94.94,0,0,1-.63.25.88.88,0,0,1-.65-.25.89.89,0,0,1-.27-.65.76.76,0,0,1,.27-.63.84.84,0,0,1,.65-.27A.88.88,0,0,1,268.81,75ZM267.62,78h1.08v9.31h-1.08Z"/><path class="cls-1" d="M276.76,78v1.1a4.94,4.94,0,0,0-1.42-.2,2.3,2.3,0,0,0-2,1.12,4,4,0,0,0-.74,2.43v4.91h-1.08V78h1.08v1.78a3.42,3.42,0,0,1,1-1.39,2.68,2.68,0,0,1,1.8-.65A3.67,3.67,0,0,1,276.76,78Z"/><path class="cls-1" d="M289.24,78v1.1a4.94,4.94,0,0,0-1.42-.2,2.3,2.3,0,0,0-2,1.12,4,4,0,0,0-.74,2.43v4.91H284V78h1.08v1.78a3.42,3.42,0,0,1,1-1.39,2.68,2.68,0,0,1,1.8-.65A3.67,3.67,0,0,1,289.24,78Z"/><path class="cls-1" d="M297.82,79.26a5.75,5.75,0,0,1,0,6.86,4.41,4.41,0,0,1-6.59,0,5.22,5.22,0,0,1-1.13-3.42,5.15,5.15,0,0,1,1.15-3.44,4,4,0,0,1,3.28-1.48A4.09,4.09,0,0,1,297.82,79.26Zm-5.8.68a5,5,0,0,0,0,5.49,3.19,3.19,0,0,0,5,0,4.51,4.51,0,0,0,.83-2.74,4.45,4.45,0,0,0-.83-2.75,3.19,3.19,0,0,0-5,0Z"/><path class="cls-1" d="M301.21,74.24h1.08v13.1h-1.08Z"/><path class="cls-1" d="M312,79.28A6.49,6.49,0,0,1,313,83h-7.56a4.37,4.37,0,0,0,.92,2.68,2.93,2.93,0,0,0,2.3,1,3.13,3.13,0,0,0,2.05-.67,3.49,3.49,0,0,0,1-1.64h1.1a4.36,4.36,0,0,1-1.24,2.21,4.16,4.16,0,0,1-2.9,1,4,4,0,0,1-3.13-1.33,5.14,5.14,0,0,1-1.21-3.58,5.2,5.2,0,0,1,1.15-3.44,4.27,4.27,0,0,1,6.46,0Zm-5.51.4a4.09,4.09,0,0,0-1,2.45h6.41q-.27-3.4-3.22-3.4A2.78,2.78,0,0,0,306.46,79.68Z"/><path class="cls-1" d="M321.63,80.65h-1.06a2.2,2.2,0,0,0-.77-1.42,3.7,3.7,0,0,0-3.56-.09,1.23,1.23,0,0,0,.18,2.25,12.52,12.52,0,0,0,2,.65,9.36,9.36,0,0,1,2.41.87,2.1,2.1,0,0,1,1.12,1.87q0,2.83-3.78,2.83-3.58,0-3.91-3.19h1.06a2.53,2.53,0,0,0,.86,1.76,3.22,3.22,0,0,0,1.94.49q2.7,0,2.7-1.84a1.41,1.41,0,0,0-.92-1.3,12.42,12.42,0,0,0-2.07-.65,9,9,0,0,1-2.27-.83,2,2,0,0,1-1.06-1.78,2.1,2.1,0,0,1,1-1.82,4.19,4.19,0,0,1,2.45-.67Q321.24,77.79,321.63,80.65Z"/><path class="cls-1" d="M336.47,78.85a3.6,3.6,0,0,1,.83,2.5v6h-1V85.56a4.81,4.81,0,0,1-1.51,1.39,4.69,4.69,0,0,1-2.43.65,3.35,3.35,0,0,1-2.21-.7,2.4,2.4,0,0,1-.85-1.93,2.75,2.75,0,0,1,1.46-2.59,6.28,6.28,0,0,1,3.11-.67l2.38,0v-.34a2.36,2.36,0,0,0-2.7-2.65,3.2,3.2,0,0,0-1.94.52,2.22,2.22,0,0,0-1,1.62h-1.06a3.25,3.25,0,0,1,1.31-2.34,4.55,4.55,0,0,1,2.7-.72A3.67,3.67,0,0,1,336.47,78.85Zm-.25,3.73-2.32,0q-3.53,0-3.53,2.36a1.55,1.55,0,0,0,.59,1.26,2.39,2.39,0,0,0,1.58.49,3.87,3.87,0,0,0,2.59-1,2.75,2.75,0,0,0,1.08-2.07Z"/><path class="cls-1" d="M344.82,78v1.1a4.94,4.94,0,0,0-1.42-.2,2.3,2.3,0,0,0-2,1.12,4,4,0,0,0-.74,2.43v4.91h-1.08V78h1.08v1.78a3.42,3.42,0,0,1,1-1.39,2.68,2.68,0,0,1,1.8-.65A3.67,3.67,0,0,1,344.82,78Z"/><path class="cls-1" d="M353.12,79.28A6.49,6.49,0,0,1,354.18,83h-7.56a4.37,4.37,0,0,0,.92,2.68,2.93,2.93,0,0,0,2.3,1,3.13,3.13,0,0,0,2.05-.67,3.49,3.49,0,0,0,1-1.64H354a4.36,4.36,0,0,1-1.24,2.21,4.16,4.16,0,0,1-2.9,1,4,4,0,0,1-3.13-1.33,5.14,5.14,0,0,1-1.21-3.58,5.2,5.2,0,0,1,1.15-3.44,4.27,4.27,0,0,1,6.46,0Zm-5.51.4a4.09,4.09,0,0,0-1,2.45H353q-.27-3.4-3.22-3.4A2.78,2.78,0,0,0,347.61,79.68Z"/><path class="cls-1" d="M59.18,107a.76.76,0,0,1,.27.63.9.9,0,0,1-.29.65.94.94,0,0,1-.63.25.88.88,0,0,1-.65-.25.89.89,0,0,1-.27-.65.76.76,0,0,1,.27-.63.84.84,0,0,1,.65-.27A.88.88,0,0,1,59.18,107ZM58,110h1.08v9.31H58Z"/><path class="cls-1" d="M69.44,113.62v5.72H68.36v-5.65q0-3-2.65-3a2.46,2.46,0,0,0-1.87.81,3.28,3.28,0,0,0-.88,2.2v5.62H61.88V110H63v1.53a3.78,3.78,0,0,1,1.26-1.31,3.28,3.28,0,0,1,1.76-.47Q69.44,109.79,69.44,113.62Z"/><path class="cls-1" d="M74,107v3h2.43V111H74v6.3a1.42,1.42,0,0,0,.22.88,1,1,0,0,0,.81.25h1.17v.94H74.84a1.91,1.91,0,0,1-1.55-.56,2.25,2.25,0,0,1-.41-1.51V111h-2V110h2v-2.55Z"/><path class="cls-1" d="M85.1,111.28A6.49,6.49,0,0,1,86.16,115H78.6a4.37,4.37,0,0,0,.92,2.68,2.93,2.93,0,0,0,2.3,1,3.13,3.13,0,0,0,2.05-.67,3.49,3.49,0,0,0,1-1.64H86a4.36,4.36,0,0,1-1.24,2.21,4.16,4.16,0,0,1-2.9,1,4,4,0,0,1-3.13-1.33,5.14,5.14,0,0,1-1.21-3.58,5.2,5.2,0,0,1,1.15-3.44,4.27,4.27,0,0,1,6.46,0Zm-5.51.4a4.09,4.09,0,0,0-1,2.45H85q-.27-3.4-3.22-3.4A2.78,2.78,0,0,0,79.59,111.68Z"/><path class="cls-1" d="M93.15,110v1.1a4.94,4.94,0,0,0-1.42-.2,2.3,2.3,0,0,0-2,1.12,4,4,0,0,0-.74,2.43v4.91H87.89V110H89v1.78a3.42,3.42,0,0,1,1-1.39,2.68,2.68,0,0,1,1.8-.65A3.67,3.67,0,0,1,93.15,110Z"/><path class="cls-1" d="M101,110.6a3.53,3.53,0,0,1,1.28,2.48h-1.08a2.65,2.65,0,0,0-.94-1.76,3.11,3.11,0,0,0-2-.59A2.79,2.79,0,0,0,96,111.86a5.39,5.39,0,0,0,0,5.74,2.78,2.78,0,0,0,2.36,1.06,2.75,2.75,0,0,0,3-2.65h1.06A4.24,4.24,0,0,1,101,118.7a4,4,0,0,1-2.72.9,3.88,3.88,0,0,1-3.2-1.4A5.21,5.21,0,0,1,94,114.75a5.4,5.4,0,0,1,1.1-3.49,3.82,3.82,0,0,1,3.19-1.48A4.31,4.31,0,0,1,101,110.6Z"/><path class="cls-1" d="M104.05,106.24h1.1v5.49a3.58,3.58,0,0,1,1.3-1.46,3.3,3.3,0,0,1,1.76-.49,3.25,3.25,0,0,1,2.48.94,3.76,3.76,0,0,1,.9,2.68v5.94h-1.08v-5.8a3.07,3.07,0,0,0-.68-2.11,2.57,2.57,0,0,0-1.93-.72,2.5,2.5,0,0,0-2,.94,3.36,3.36,0,0,0-.79,2.3v5.38h-1.1Z"/><path class="cls-1" d="M120.71,110.85a3.6,3.6,0,0,1,.83,2.5v6h-1v-1.78a4.81,4.81,0,0,1-1.51,1.39,4.69,4.69,0,0,1-2.43.65,3.35,3.35,0,0,1-2.21-.7,2.4,2.4,0,0,1-.85-1.93,2.75,2.75,0,0,1,1.46-2.59,6.28,6.28,0,0,1,3.11-.67l2.38,0v-.34a2.36,2.36,0,0,0-2.7-2.65,3.2,3.2,0,0,0-1.94.52,2.22,2.22,0,0,0-1,1.62h-1.06a3.25,3.25,0,0,1,1.31-2.34,4.55,4.55,0,0,1,2.7-.72A3.67,3.67,0,0,1,120.71,110.85Zm-.25,3.73-2.32,0q-3.53,0-3.53,2.36a1.55,1.55,0,0,0,.59,1.26,2.39,2.39,0,0,0,1.58.49,3.87,3.87,0,0,0,2.59-1,2.75,2.75,0,0,0,1.08-2.07Z"/><path class="cls-1" d="M131.36,113.62v5.72h-1.08v-5.65q0-3-2.65-3a2.46,2.46,0,0,0-1.87.81,3.28,3.28,0,0,0-.88,2.2v5.62H123.8V110h1.08v1.53a3.78,3.78,0,0,1,1.26-1.31,3.28,3.28,0,0,1,1.76-.47Q131.36,109.79,131.36,113.62Z"/><path class="cls-1" d="M140.79,111.91V110h1.08v8.62q0,4.5-4.18,4.5a4.47,4.47,0,0,1-2.83-.79,3.39,3.39,0,0,1-1.19-2.23h1.08a2.41,2.41,0,0,0,.86,1.55,3.24,3.24,0,0,0,2.07.58q3.1,0,3.1-3.47V117a3.46,3.46,0,0,1-3.33,2.12,3.87,3.87,0,0,1-3.11-1.39,5.51,5.51,0,0,1,0-6.55,3.85,3.85,0,0,1,3.11-1.4A3.46,3.46,0,0,1,140.79,111.91Zm-5.6-.09a4,4,0,0,0-.83,2.65,4.13,4.13,0,0,0,.77,2.59,2.85,2.85,0,0,0,2.43,1.13,2.91,2.91,0,0,0,2.41-1.08,4.72,4.72,0,0,0,0-5.29,3.12,3.12,0,0,0-4.79,0Z"/><path class="cls-1" d="M151.21,111.28a6.49,6.49,0,0,1,1.06,3.73h-7.56a4.37,4.37,0,0,0,.92,2.68,2.93,2.93,0,0,0,2.3,1A3.13,3.13,0,0,0,150,118a3.49,3.49,0,0,0,1-1.64h1.1a4.36,4.36,0,0,1-1.24,2.21,4.16,4.16,0,0,1-2.9,1,4,4,0,0,1-3.13-1.33,5.14,5.14,0,0,1-1.21-3.58,5.2,5.2,0,0,1,1.15-3.44,4.27,4.27,0,0,1,6.46,0Zm-5.51.4a4.09,4.09,0,0,0-1,2.45h6.41q-.27-3.4-3.22-3.4A2.78,2.78,0,0,0,145.71,111.68Z"/><path class="cls-1" d="M160.84,110.85a3.6,3.6,0,0,1,.83,2.5v6h-1v-1.78a4.81,4.81,0,0,1-1.51,1.39,4.69,4.69,0,0,1-2.43.65,3.35,3.35,0,0,1-2.21-.7,2.4,2.4,0,0,1-.85-1.93,2.75,2.75,0,0,1,1.46-2.59,6.28,6.28,0,0,1,3.11-.67l2.38,0v-.34a2.36,2.36,0,0,0-2.7-2.65,3.2,3.2,0,0,0-1.94.52,2.22,2.22,0,0,0-1,1.62h-1.06a3.25,3.25,0,0,1,1.31-2.34,4.55,4.55,0,0,1,2.7-.72A3.67,3.67,0,0,1,160.84,110.85Zm-.25,3.73-2.32,0q-3.53,0-3.53,2.36a1.55,1.55,0,0,0,.59,1.26,2.39,2.39,0,0,0,1.58.49,3.87,3.87,0,0,0,2.59-1,2.75,2.75,0,0,0,1.08-2.07Z"/><path class="cls-1" d="M163.94,106.24H165V112a3.4,3.4,0,0,1,3.26-2.21,3.65,3.65,0,0,1,3.1,1.49,6.21,6.21,0,0,1,0,6.84,3.76,3.76,0,0,1-3.13,1.48,3.33,3.33,0,0,1-3.28-2.09v1.84h-1Zm1.87,5.58a4.41,4.41,0,0,0-.83,2.79v.22a4.41,4.41,0,0,0,.77,2.7,2.73,2.73,0,0,0,2.36,1.15,2.83,2.83,0,0,0,2.43-1.19,4.75,4.75,0,0,0,.76-2.81,4.58,4.58,0,0,0-.77-2.79,2.85,2.85,0,0,0-2.45-1.19A2.67,2.67,0,0,0,165.81,111.82Z"/><path class="cls-1" d="M174.65,106.24h1.08v13.1h-1.08Z"/><path class="cls-1" d="M185.41,111.28a6.49,6.49,0,0,1,1.06,3.73h-7.56a4.37,4.37,0,0,0,.92,2.68,2.93,2.93,0,0,0,2.3,1,3.13,3.13,0,0,0,2.05-.67,3.49,3.49,0,0,0,1-1.64h1.1a4.36,4.36,0,0,1-1.24,2.21,4.16,4.16,0,0,1-2.9,1,4,4,0,0,1-3.13-1.33,5.14,5.14,0,0,1-1.21-3.58,5.2,5.2,0,0,1,1.15-3.44,4.27,4.27,0,0,1,6.46,0Zm-5.51.4a4.09,4.09,0,0,0-1,2.45h6.41q-.27-3.4-3.22-3.4A2.78,2.78,0,0,0,179.91,111.68Z"/><path class="cls-1" d="M190,117.8a.81.81,0,0,1,.27.65.9.9,0,0,1-.29.65.94.94,0,0,1-.63.25.85.85,0,0,1-.65-.27.87.87,0,0,1-.27-.63.81.81,0,0,1,.27-.65.84.84,0,0,1,.65-.25A.88.88,0,0,1,190,117.8Z"/><path class="cls-1" d="M193,106.49h4.57a5.56,5.56,0,0,1,4.52,1.8,7,7,0,0,1,1.39,4.63,6.66,6.66,0,0,1-1.55,4.64,5.89,5.89,0,0,1-4.59,1.78H193Zm1.1,1v10.91h3.08a5.09,5.09,0,0,0,3.92-1.46,5.68,5.68,0,0,0,1.3-4,6,6,0,0,0-1.13-4,4.78,4.78,0,0,0-3.85-1.44Z"/><path class="cls-1" d="M212.49,111.28a6.49,6.49,0,0,1,1.06,3.73H206a4.37,4.37,0,0,0,.92,2.68,2.93,2.93,0,0,0,2.3,1,3.13,3.13,0,0,0,2.05-.67,3.49,3.49,0,0,0,1-1.64h1.1a4.36,4.36,0,0,1-1.24,2.21,4.16,4.16,0,0,1-2.9,1,4,4,0,0,1-3.13-1.33,5.14,5.14,0,0,1-1.21-3.58,5.2,5.2,0,0,1,1.15-3.44,4.27,4.27,0,0,1,6.46,0Zm-5.51.4a4.09,4.09,0,0,0-1,2.45h6.41q-.27-3.4-3.22-3.4A2.78,2.78,0,0,0,207,111.68Z"/><path class="cls-1" d="M214.23,110h1.19l2.93,7.94,2.92-7.94h1.21l-3.56,9.31H217.8Z"/><path class="cls-1" d="M230.77,111.28a6.49,6.49,0,0,1,1.06,3.73h-7.56a4.37,4.37,0,0,0,.92,2.68,2.93,2.93,0,0,0,2.3,1,3.13,3.13,0,0,0,2.05-.67,3.49,3.49,0,0,0,1-1.64h1.1a4.36,4.36,0,0,1-1.24,2.21,4.16,4.16,0,0,1-2.9,1,4,4,0,0,1-3.13-1.33,5.14,5.14,0,0,1-1.21-3.58,5.2,5.2,0,0,1,1.15-3.44,4.27,4.27,0,0,1,6.46,0Zm-5.51.4a4.09,4.09,0,0,0-1,2.45h6.41q-.27-3.4-3.22-3.4A2.78,2.78,0,0,0,225.27,111.68Z"/><path class="cls-1" d="M233.9,106.24H235v13.1H233.9Z"/><path class="cls-1" d="M245,111.26a5.75,5.75,0,0,1,0,6.86,4.41,4.41,0,0,1-6.59,0,5.22,5.22,0,0,1-1.13-3.42,5.15,5.15,0,0,1,1.15-3.44,4,4,0,0,1,3.28-1.48A4.09,4.09,0,0,1,245,111.26Zm-5.8.68a5,5,0,0,0,0,5.49,3.19,3.19,0,0,0,5,0,4.51,4.51,0,0,0,.83-2.74,4.45,4.45,0,0,0-.83-2.75,3.19,3.19,0,0,0-5,0Z"/><path class="cls-1" d="M255.43,111.28a6.26,6.26,0,0,1,0,6.84,3.74,3.74,0,0,1-3.11,1.48,3.4,3.4,0,0,1-3.26-2.2v5.51H248V110h1v1.84a3.42,3.42,0,0,1,3.28-2.09A3.74,3.74,0,0,1,255.43,111.28Zm-5.62.61a4.51,4.51,0,0,0-.77,2.75v.2a4.35,4.35,0,0,0,.83,2.75,2.73,2.73,0,0,0,2.27,1.08,2.91,2.91,0,0,0,2.45-1.15,4.74,4.74,0,0,0,.76-2.81,4.83,4.83,0,0,0-.74-2.81,2.82,2.82,0,0,0-2.43-1.21A2.73,2.73,0,0,0,249.82,111.89Z"/><path class="cls-1" d="M265.44,111.28A6.49,6.49,0,0,1,266.5,115h-7.56a4.37,4.37,0,0,0,.92,2.68,2.93,2.93,0,0,0,2.3,1,3.13,3.13,0,0,0,2.05-.67,3.49,3.49,0,0,0,1-1.64h1.1a4.36,4.36,0,0,1-1.24,2.21,4.16,4.16,0,0,1-2.9,1,4,4,0,0,1-3.13-1.33,5.14,5.14,0,0,1-1.21-3.58,5.2,5.2,0,0,1,1.15-3.44,4.27,4.27,0,0,1,6.46,0Zm-5.51.4a4.09,4.09,0,0,0-1,2.45h6.41q-.27-3.4-3.22-3.4A2.78,2.78,0,0,0,259.93,111.68Z"/><path class="cls-1" d="M273.49,110v1.1a4.94,4.94,0,0,0-1.42-.2,2.3,2.3,0,0,0-2,1.12,4,4,0,0,0-.74,2.43v4.91h-1.08V110h1.08v1.78a3.42,3.42,0,0,1,1-1.39,2.68,2.68,0,0,1,1.8-.65A3.67,3.67,0,0,1,273.49,110Z"/><path class="cls-1" d="M282.43,107a.76.76,0,0,1,.27.63.9.9,0,0,1-.29.65.94.94,0,0,1-.63.25.88.88,0,0,1-.65-.25.89.89,0,0,1-.27-.65.76.76,0,0,1,.27-.63.84.84,0,0,1,.65-.27A.88.88,0,0,1,282.43,107ZM281.24,110h1.08v9.31h-1.08Z"/><path class="cls-1" d="M292.69,113.62v5.72h-1.08v-5.65q0-3-2.65-3a2.46,2.46,0,0,0-1.87.81,3.28,3.28,0,0,0-.88,2.2v5.62h-1.08V110h1.08v1.53a3.78,3.78,0,0,1,1.26-1.31,3.28,3.28,0,0,1,1.76-.47Q292.69,109.79,292.69,113.62Z"/><path class="cls-1" d="M301.6,110.6a3.53,3.53,0,0,1,1.28,2.48H301.8a2.65,2.65,0,0,0-.94-1.76,3.11,3.11,0,0,0-2-.59,2.79,2.79,0,0,0-2.34,1.13,5.39,5.39,0,0,0,0,5.74,2.78,2.78,0,0,0,2.36,1.06,2.75,2.75,0,0,0,3-2.65h1.06a4.24,4.24,0,0,1-1.33,2.68,4,4,0,0,1-2.72.9,3.88,3.88,0,0,1-3.2-1.4,5.21,5.21,0,0,1-1.06-3.44,5.4,5.4,0,0,1,1.1-3.49,3.82,3.82,0,0,1,3.19-1.48A4.31,4.31,0,0,1,301.6,110.6Z"/><path class="cls-1" d="M311.72,111.28a6.49,6.49,0,0,1,1.06,3.73h-7.56a4.37,4.37,0,0,0,.92,2.68,2.93,2.93,0,0,0,2.3,1,3.13,3.13,0,0,0,2.05-.67,3.49,3.49,0,0,0,1-1.64h1.1a4.36,4.36,0,0,1-1.24,2.21,4.16,4.16,0,0,1-2.9,1,4,4,0,0,1-3.13-1.33,5.14,5.14,0,0,1-1.21-3.58,5.2,5.2,0,0,1,1.15-3.44,4.27,4.27,0,0,1,6.46,0Zm-5.51.4a4.09,4.09,0,0,0-1,2.45h6.41q-.27-3.4-3.22-3.4A2.78,2.78,0,0,0,306.21,111.68Z"/><path class="cls-1" d="M322.07,113.62v5.72H321v-5.65q0-3-2.65-3a2.46,2.46,0,0,0-1.87.81,3.28,3.28,0,0,0-.88,2.2v5.62h-1.08V110h1.08v1.53a3.78,3.78,0,0,1,1.26-1.31,3.28,3.28,0,0,1,1.76-.47Q322.07,109.79,322.07,113.62Z"/><path class="cls-1" d="M326.58,107v3H329V111h-2.43v6.3a1.42,1.42,0,0,0,.22.88,1,1,0,0,0,.81.25h1.17v.94h-1.31a1.91,1.91,0,0,1-1.55-.56,2.25,2.25,0,0,1-.41-1.51V111h-2V110h2v-2.55Z"/><path class="cls-1" d="M332.38,107a.76.76,0,0,1,.27.63.9.9,0,0,1-.29.65.94.94,0,0,1-.63.25.88.88,0,0,1-.65-.25.89.89,0,0,1-.27-.65.76.76,0,0,1,.27-.63.84.84,0,0,1,.65-.27A.88.88,0,0,1,332.38,107ZM331.19,110h1.08v9.31h-1.08Z"/><path class="cls-1" d="M334,110h1.19l2.93,7.94,2.92-7.94h1.21l-3.56,9.31H337.6Z"/><path class="cls-1" d="M350.58,111.28a6.49,6.49,0,0,1,1.06,3.73h-7.56a4.37,4.37,0,0,0,.92,2.68,2.93,2.93,0,0,0,2.3,1,3.13,3.13,0,0,0,2.05-.67,3.49,3.49,0,0,0,1-1.64h1.1a4.36,4.36,0,0,1-1.24,2.21,4.16,4.16,0,0,1-2.9,1,4,4,0,0,1-3.13-1.33,5.14,5.14,0,0,1-1.21-3.58,5.2,5.2,0,0,1,1.15-3.44,4.27,4.27,0,0,1,6.46,0Zm-5.51.4a4.09,4.09,0,0,0-1,2.45h6.41q-.27-3.4-3.22-3.4A2.78,2.78,0,0,0,345.07,111.68Z"/><path class="cls-1" d="M360.24,112.65h-1.06a2.2,2.2,0,0,0-.77-1.42,3.7,3.7,0,0,0-3.56-.09,1.23,1.23,0,0,0,.18,2.25,12.52,12.52,0,0,0,2,.65,9.36,9.36,0,0,1,2.41.87,2.1,2.1,0,0,1,1.12,1.87q0,2.83-3.78,2.83-3.58,0-3.91-3.19h1.06a2.53,2.53,0,0,0,.86,1.76,3.22,3.22,0,0,0,1.94.49q2.7,0,2.7-1.84a1.41,1.41,0,0,0-.92-1.3,12.42,12.42,0,0,0-2.07-.65,9,9,0,0,1-2.27-.83,2,2,0,0,1-1.06-1.78,2.1,2.1,0,0,1,1-1.82,4.19,4.19,0,0,1,2.45-.67Q359.85,109.79,360.24,112.65Z"/><path class="cls-1" d="M364.47,119a3.31,3.31,0,0,1-1.8,3.12l-.4-.63a2.83,2.83,0,0,0,1.39-2.2l-.27,0a1,1,0,0,1-.67-.23.84.84,0,0,1-.25-.65.86.86,0,0,1,.23-.67.9.9,0,0,1,.67-.25Q364.47,117.54,364.47,119Z"/><path class="cls-1" d="M45.93,142.6a3.53,3.53,0,0,1,1.28,2.48H46.13a2.65,2.65,0,0,0-.94-1.76,3.11,3.11,0,0,0-2-.59,2.79,2.79,0,0,0-2.34,1.13,5.39,5.39,0,0,0,0,5.74,2.78,2.78,0,0,0,2.36,1.06,2.75,2.75,0,0,0,3-2.65h1.06a4.24,4.24,0,0,1-1.33,2.68,4,4,0,0,1-2.72.9,3.88,3.88,0,0,1-3.2-1.4,5.21,5.21,0,0,1-1.06-3.44,5.4,5.4,0,0,1,1.1-3.49,3.82,3.82,0,0,1,3.19-1.48A4.31,4.31,0,0,1,45.93,142.6Z"/><path class="cls-1" d="M56.34,143.26a5.75,5.75,0,0,1,0,6.86,4.41,4.41,0,0,1-6.59,0,5.22,5.22,0,0,1-1.13-3.42,5.15,5.15,0,0,1,1.15-3.44A4,4,0,0,1,53,141.79,4.09,4.09,0,0,1,56.34,143.26Zm-5.8.68a5,5,0,0,0,0,5.49,3.19,3.19,0,0,0,5,0,4.51,4.51,0,0,0,.83-2.74,4.45,4.45,0,0,0-.83-2.75,3.19,3.19,0,0,0-5,0Z"/><path class="cls-1" d="M66.94,145.62v5.72H65.86v-5.65q0-3-2.65-3a2.46,2.46,0,0,0-1.87.81,3.28,3.28,0,0,0-.88,2.2v5.62H59.38V142h1.08v1.53a3.78,3.78,0,0,1,1.26-1.31,3.28,3.28,0,0,1,1.76-.47Q66.94,141.79,66.94,145.62Z"/><path class="cls-1" d="M71.46,139v3h2.43V143H71.46v6.3a1.42,1.42,0,0,0,.22.88,1,1,0,0,0,.81.25h1.17v.94H72.34a1.91,1.91,0,0,1-1.55-.56,2.25,2.25,0,0,1-.41-1.51V143h-2V142h2v-2.55Z"/><path class="cls-1" d="M82.6,143.28A6.49,6.49,0,0,1,83.66,147H76.1a4.37,4.37,0,0,0,.92,2.68,2.93,2.93,0,0,0,2.3,1,3.13,3.13,0,0,0,2.05-.67,3.49,3.49,0,0,0,1-1.64h1.1a4.36,4.36,0,0,1-1.24,2.21,4.16,4.16,0,0,1-2.9,1,4,4,0,0,1-3.13-1.33A5.14,5.14,0,0,1,75,146.68a5.2,5.2,0,0,1,1.15-3.44,4.27,4.27,0,0,1,6.46,0Zm-5.51.4a4.09,4.09,0,0,0-1,2.45h6.41q-.27-3.4-3.22-3.4A2.78,2.78,0,0,0,77.09,143.68Z"/><path class="cls-1" d="M92.95,145.62v5.72H91.87v-5.65q0-3-2.65-3a2.46,2.46,0,0,0-1.87.81,3.28,3.28,0,0,0-.88,2.2v5.62H85.39V142h1.08v1.53a3.78,3.78,0,0,1,1.26-1.31,3.28,3.28,0,0,1,1.76-.47Q92.95,141.79,92.95,145.62Z"/><path class="cls-1" d="M97.47,139v3H99.9V143H97.47v6.3a1.42,1.42,0,0,0,.22.88,1,1,0,0,0,.81.25h1.17v.94H98.35a1.91,1.91,0,0,1-1.55-.56,2.25,2.25,0,0,1-.41-1.51V143h-2V142h2v-2.55Z"/><path class="cls-1" d="M114.4,144.65h-1.06a2.2,2.2,0,0,0-.77-1.42,3.7,3.7,0,0,0-3.56-.09,1.23,1.23,0,0,0,.18,2.25,12.52,12.52,0,0,0,2,.65,9.36,9.36,0,0,1,2.41.87,2.1,2.1,0,0,1,1.12,1.87q0,2.83-3.78,2.83-3.58,0-3.91-3.19h1.06a2.53,2.53,0,0,0,.86,1.76,3.22,3.22,0,0,0,1.94.49q2.7,0,2.7-1.84a1.41,1.41,0,0,0-.92-1.3,12.42,12.42,0,0,0-2.07-.65,9,9,0,0,1-2.27-.83,2,2,0,0,1-1.06-1.78,2.1,2.1,0,0,1,1-1.82,4.19,4.19,0,0,1,2.45-.67Q114,141.79,114.4,144.65Z"/><path class="cls-1" d="M116.4,142h1.08v5.69a3.3,3.3,0,0,0,.61,2.18,2.49,2.49,0,0,0,2,.76,2.6,2.6,0,0,0,1.89-.83,3.29,3.29,0,0,0,.92-2.14V142H124v9.31H122.9v-1.57a3.41,3.41,0,0,1-3.1,1.82q-3.4,0-3.4-3.82Z"/><path class="cls-1" d="M133.68,143.28a6.26,6.26,0,0,1,0,6.84,3.74,3.74,0,0,1-3.11,1.48,3.4,3.4,0,0,1-3.26-2.2v5.51h-1.08V142h1v1.84a3.42,3.42,0,0,1,3.28-2.09A3.74,3.74,0,0,1,133.68,143.28Zm-5.62.61a4.51,4.51,0,0,0-.77,2.75v.2a4.35,4.35,0,0,0,.83,2.75,2.73,2.73,0,0,0,2.27,1.08,2.91,2.91,0,0,0,2.45-1.15,4.74,4.74,0,0,0,.76-2.81,4.83,4.83,0,0,0-.74-2.81,2.82,2.82,0,0,0-2.43-1.21A2.73,2.73,0,0,0,128.07,143.89Z"/><path class="cls-1" d="M144.05,143.28a6.26,6.26,0,0,1,0,6.84A3.74,3.74,0,0,1,141,151.6a3.4,3.4,0,0,1-3.26-2.2v5.51h-1.08V142h1v1.84a3.42,3.42,0,0,1,3.28-2.09A3.74,3.74,0,0,1,144.05,143.28Zm-5.62.61a4.51,4.51,0,0,0-.77,2.75v.2a4.35,4.35,0,0,0,.83,2.75,2.73,2.73,0,0,0,2.27,1.08,2.91,2.91,0,0,0,2.45-1.15,4.74,4.74,0,0,0,.76-2.81,4.83,4.83,0,0,0-.74-2.81,2.82,2.82,0,0,0-2.43-1.21A2.73,2.73,0,0,0,138.43,143.89Z"/><path class="cls-1" d="M154.35,143.26a5.75,5.75,0,0,1,0,6.86,4.41,4.41,0,0,1-6.59,0,5.22,5.22,0,0,1-1.13-3.42,5.15,5.15,0,0,1,1.15-3.44,4,4,0,0,1,3.28-1.48A4.09,4.09,0,0,1,154.35,143.26Zm-5.8.68a5,5,0,0,0,0,5.49,3.19,3.19,0,0,0,5,0,4.51,4.51,0,0,0,.83-2.74,4.45,4.45,0,0,0-.83-2.75,3.19,3.19,0,0,0-5,0Z"/><path class="cls-1" d="M162.64,142v1.1a4.94,4.94,0,0,0-1.42-.2,2.3,2.3,0,0,0-2,1.12,4,4,0,0,0-.74,2.43v4.91h-1.08V142h1.08v1.78a3.42,3.42,0,0,1,1-1.39,2.68,2.68,0,0,1,1.8-.65A3.67,3.67,0,0,1,162.64,142Z"/><path class="cls-1" d="M166.12,139v3h2.43V143h-2.43v6.3a1.42,1.42,0,0,0,.22.88,1,1,0,0,0,.81.25h1.17v.94H167a1.91,1.91,0,0,1-1.55-.56,2.25,2.25,0,0,1-.41-1.51V143h-2V142h2v-2.55Z"/><path class="cls-1" d="M172.42,151a3.31,3.31,0,0,1-1.8,3.12l-.4-.63a2.83,2.83,0,0,0,1.39-2.2l-.27,0a1,1,0,0,1-.67-.23.84.84,0,0,1-.25-.65.86.86,0,0,1,.23-.67.9.9,0,0,1,.67-.25Q172.42,149.54,172.42,151Z"/><path class="cls-1" d="M187.66,142.85a3.6,3.6,0,0,1,.83,2.5v6h-1v-1.78a4.81,4.81,0,0,1-1.51,1.39,4.69,4.69,0,0,1-2.43.65,3.35,3.35,0,0,1-2.21-.7,2.4,2.4,0,0,1-.85-1.93,2.75,2.75,0,0,1,1.46-2.59,6.28,6.28,0,0,1,3.11-.67l2.38,0v-.34a2.36,2.36,0,0,0-2.7-2.65,3.2,3.2,0,0,0-1.94.52,2.22,2.22,0,0,0-1,1.62h-1.06a3.25,3.25,0,0,1,1.31-2.34,4.55,4.55,0,0,1,2.7-.72A3.67,3.67,0,0,1,187.66,142.85Zm-.25,3.73-2.32,0q-3.53,0-3.53,2.36a1.55,1.55,0,0,0,.59,1.26,2.39,2.39,0,0,0,1.58.49,3.87,3.87,0,0,0,2.59-1,2.75,2.75,0,0,0,1.08-2.07Z"/><path class="cls-1" d="M198.32,145.62v5.72h-1.08v-5.65q0-3-2.65-3a2.46,2.46,0,0,0-1.87.81,3.28,3.28,0,0,0-.88,2.2v5.62h-1.08V142h1.08v1.53a3.78,3.78,0,0,1,1.26-1.31,3.28,3.28,0,0,1,1.76-.47Q198.32,141.79,198.32,145.62Z"/><path class="cls-1" d="M207.61,138.24h1.08v13.1h-1v-1.84a3.34,3.34,0,0,1-3.26,2.09,3.78,3.78,0,0,1-3.15-1.48,6.21,6.21,0,0,1,0-6.84,3.65,3.65,0,0,1,3.1-1.49,3.4,3.4,0,0,1,3.26,2.21Zm-5.51,5.65a4.48,4.48,0,0,0-.77,2.79,4.75,4.75,0,0,0,.76,2.81,2.8,2.8,0,0,0,2.43,1.19,2.76,2.76,0,0,0,2.36-1.15,4.52,4.52,0,0,0,.77-2.7v-.22a4.5,4.5,0,0,0-.83-2.79,2.7,2.7,0,0,0-2.27-1.12A2.85,2.85,0,0,0,202.1,143.89Z"/><path class="cls-1" d="M216.95,142H218v5.69a3.3,3.3,0,0,0,.61,2.18,2.49,2.49,0,0,0,2,.76,2.6,2.6,0,0,0,1.89-.83,3.29,3.29,0,0,0,.92-2.14V142h1.08v9.31h-1.08v-1.57a3.41,3.41,0,0,1-3.1,1.82q-3.4,0-3.4-3.82Z"/><path class="cls-1" d="M233.67,144.65h-1.06a2.2,2.2,0,0,0-.77-1.42,3.7,3.7,0,0,0-3.56-.09,1.23,1.23,0,0,0,.18,2.25,12.52,12.52,0,0,0,2,.65,9.36,9.36,0,0,1,2.41.87,2.1,2.1,0,0,1,1.12,1.87q0,2.83-3.78,2.83-3.58,0-3.91-3.19h1.06a2.53,2.53,0,0,0,.86,1.76,3.22,3.22,0,0,0,1.94.49q2.7,0,2.7-1.84a1.41,1.41,0,0,0-.92-1.3,12.42,12.42,0,0,0-2.07-.65,9,9,0,0,1-2.27-.83,2,2,0,0,1-1.06-1.78,2.1,2.1,0,0,1,1-1.82,4.19,4.19,0,0,1,2.45-.67Q233.27,141.79,233.67,144.65Z"/><path class="cls-1" d="M242.74,143.28A6.49,6.49,0,0,1,243.8,147h-7.56a4.37,4.37,0,0,0,.92,2.68,2.93,2.93,0,0,0,2.3,1,3.13,3.13,0,0,0,2.05-.67,3.49,3.49,0,0,0,1-1.64h1.1a4.36,4.36,0,0,1-1.24,2.21,4.16,4.16,0,0,1-2.9,1,4,4,0,0,1-3.13-1.33,5.14,5.14,0,0,1-1.21-3.58,5.2,5.2,0,0,1,1.15-3.44,4.27,4.27,0,0,1,6.46,0Zm-5.51.4a4.09,4.09,0,0,0-1,2.45h6.41q-.27-3.4-3.22-3.4A2.78,2.78,0,0,0,237.24,143.68Z"/><path class="cls-1" d="M250.79,142v1.1a4.94,4.94,0,0,0-1.42-.2,2.3,2.3,0,0,0-2,1.12,4,4,0,0,0-.74,2.43v4.91h-1.08V142h1.08v1.78a3.42,3.42,0,0,1,1-1.39,2.68,2.68,0,0,1,1.8-.65A3.67,3.67,0,0,1,250.79,142Z"/><path class="cls-1" d="M259.73,139a.76.76,0,0,1,.27.63.9.9,0,0,1-.29.65.94.94,0,0,1-.63.25.88.88,0,0,1-.65-.25.89.89,0,0,1-.27-.65.76.76,0,0,1,.27-.63.84.84,0,0,1,.65-.27A.88.88,0,0,1,259.73,139ZM258.55,142h1.08v9.31h-1.08Z"/><path class="cls-1" d="M270,145.62v5.72h-1.08v-5.65q0-3-2.65-3a2.46,2.46,0,0,0-1.87.81,3.28,3.28,0,0,0-.88,2.2v5.62h-1.08V142h1.08v1.53a3.78,3.78,0,0,1,1.26-1.31,3.28,3.28,0,0,1,1.76-.47Q270,141.79,270,145.62Z"/><path class="cls-1" d="M278.9,142.6a3.53,3.53,0,0,1,1.28,2.48H279.1a2.65,2.65,0,0,0-.94-1.76,3.11,3.11,0,0,0-2-.59,2.79,2.79,0,0,0-2.34,1.13,5.39,5.39,0,0,0,0,5.74,2.78,2.78,0,0,0,2.36,1.06,2.75,2.75,0,0,0,3-2.65h1.06a4.24,4.24,0,0,1-1.33,2.68,4,4,0,0,1-2.72.9,3.88,3.88,0,0,1-3.2-1.4,5.21,5.21,0,0,1-1.06-3.44,5.4,5.4,0,0,1,1.1-3.49,3.82,3.82,0,0,1,3.19-1.48A4.31,4.31,0,0,1,278.9,142.6Z"/><path class="cls-1" d="M289,143.28a6.49,6.49,0,0,1,1.06,3.73h-7.56a4.37,4.37,0,0,0,.92,2.68,2.93,2.93,0,0,0,2.3,1,3.13,3.13,0,0,0,2.05-.67,3.49,3.49,0,0,0,1-1.64h1.1a4.36,4.36,0,0,1-1.24,2.21,4.16,4.16,0,0,1-2.9,1,4,4,0,0,1-3.13-1.33,5.14,5.14,0,0,1-1.21-3.58,5.2,5.2,0,0,1,1.15-3.44,4.27,4.27,0,0,1,6.46,0Zm-5.51.4a4.09,4.09,0,0,0-1,2.45h6.41q-.27-3.4-3.22-3.4A2.78,2.78,0,0,0,283.51,143.68Z"/><path class="cls-1" d="M299.37,145.62v5.72h-1.08v-5.65q0-3-2.65-3a2.46,2.46,0,0,0-1.87.81,3.28,3.28,0,0,0-.88,2.2v5.62h-1.08V142h1.08v1.53a3.78,3.78,0,0,1,1.26-1.31,3.28,3.28,0,0,1,1.76-.47Q299.37,141.79,299.37,145.62Z"/><path class="cls-1" d="M303.89,139v3h2.43V143h-2.43v6.3a1.42,1.42,0,0,0,.22.88,1,1,0,0,0,.81.25h1.17v.94h-1.31a1.91,1.91,0,0,1-1.55-.56,2.25,2.25,0,0,1-.41-1.51V143h-2V142h2v-2.55Z"/><path class="cls-1" d="M309.68,139a.76.76,0,0,1,.27.63.9.9,0,0,1-.29.65.94.94,0,0,1-.63.25.88.88,0,0,1-.65-.25.89.89,0,0,1-.27-.65.76.76,0,0,1,.27-.63.84.84,0,0,1,.65-.27A.88.88,0,0,1,309.68,139ZM308.49,142h1.08v9.31h-1.08Z"/><path class="cls-1" d="M311.34,142h1.19l2.93,7.94,2.92-7.94h1.21L316,151.34H314.9Z"/><path class="cls-1" d="M327.88,143.28a6.49,6.49,0,0,1,1.06,3.73h-7.56a4.37,4.37,0,0,0,.92,2.68,2.93,2.93,0,0,0,2.3,1,3.13,3.13,0,0,0,2.05-.67,3.49,3.49,0,0,0,1-1.64h1.1a4.36,4.36,0,0,1-1.24,2.21,4.16,4.16,0,0,1-2.9,1,4,4,0,0,1-3.13-1.33,5.14,5.14,0,0,1-1.21-3.58,5.2,5.2,0,0,1,1.15-3.44,4.27,4.27,0,0,1,6.46,0Zm-5.51.4a4.09,4.09,0,0,0-1,2.45h6.41q-.27-3.4-3.22-3.4A2.78,2.78,0,0,0,322.37,143.68Z"/><path class="cls-1" d="M337.55,144.65h-1.06a2.2,2.2,0,0,0-.77-1.42,3.7,3.7,0,0,0-3.56-.09,1.23,1.23,0,0,0,.18,2.25,12.52,12.52,0,0,0,2,.65,9.36,9.36,0,0,1,2.41.87,2.1,2.1,0,0,1,1.12,1.87q0,2.83-3.78,2.83-3.58,0-3.91-3.19h1.06a2.53,2.53,0,0,0,.86,1.76,3.22,3.22,0,0,0,1.94.49q2.7,0,2.7-1.84a1.41,1.41,0,0,0-.92-1.3,12.42,12.42,0,0,0-2.07-.65,9,9,0,0,1-2.27-.83,2,2,0,0,1-1.06-1.78,2.1,2.1,0,0,1,1-1.82,4.19,4.19,0,0,1,2.45-.67Q337.15,141.79,337.55,144.65Z"/><path class="cls-1" d="M344.49,142h1.21l2.52,7.92,2.34-7.92h1l2.34,7.92,2.54-7.92h1.19l-3.19,9.31h-1l-2.34-7.9-2.38,7.9h-1Z"/><path class="cls-1" d="M366.26,143.26a5.75,5.75,0,0,1,0,6.86,4.41,4.41,0,0,1-6.59,0,5.22,5.22,0,0,1-1.13-3.42,5.15,5.15,0,0,1,1.15-3.44,4,4,0,0,1,3.28-1.48A4.09,4.09,0,0,1,366.26,143.26Zm-5.8.68a5,5,0,0,0,0,5.49,3.19,3.19,0,0,0,5,0,4.51,4.51,0,0,0,.83-2.74,4.45,4.45,0,0,0-.83-2.75,3.19,3.19,0,0,0-5,0Z"/><path class="cls-1" d="M374.55,142v1.1a4.94,4.94,0,0,0-1.42-.2,2.3,2.3,0,0,0-2,1.12,4,4,0,0,0-.74,2.43v4.91H369.3V142h1.08v1.78a3.42,3.42,0,0,1,1-1.39,2.68,2.68,0,0,1,1.8-.65A3.67,3.67,0,0,1,374.55,142Z"/><path class="cls-1" d="M375.78,138.24h1.08v8.5L382,142h1.48l-4.09,3.69,4.5,5.62h-1.42l-3.85-4.91L376.86,148v3.29h-1.08Z"/><path class="cls-1" d="M43,171v3h2.43V175H43v6.3a1.42,1.42,0,0,0,.22.88,1,1,0,0,0,.81.25h1.17v.94H43.91a1.91,1.91,0,0,1-1.55-.56,2.25,2.25,0,0,1-.41-1.51V175H40V174h2v-2.55Z"/><path class="cls-1" d="M54.46,175.26a5.75,5.75,0,0,1,0,6.86,4.41,4.41,0,0,1-6.59,0,5.22,5.22,0,0,1-1.13-3.42,5.15,5.15,0,0,1,1.15-3.44,4,4,0,0,1,3.28-1.48A4.09,4.09,0,0,1,54.46,175.26Zm-5.8.68a5,5,0,0,0,0,5.49,3.19,3.19,0,0,0,5,0,4.51,4.51,0,0,0,.83-2.74,4.45,4.45,0,0,0-.83-2.75,3.19,3.19,0,0,0-5,0Z"/><path class="cls-1" d="M64.66,175.91V174h1.08v8.62q0,4.5-4.18,4.5a4.47,4.47,0,0,1-2.83-.79,3.39,3.39,0,0,1-1.19-2.23h1.08a2.41,2.41,0,0,0,.86,1.55,3.24,3.24,0,0,0,2.07.58q3.1,0,3.1-3.47V181a3.46,3.46,0,0,1-3.33,2.12,3.87,3.87,0,0,1-3.11-1.39,5.51,5.51,0,0,1,0-6.55,3.85,3.85,0,0,1,3.11-1.4A3.46,3.46,0,0,1,64.66,175.91Zm-5.6-.09a4,4,0,0,0-.83,2.65,4.13,4.13,0,0,0,.77,2.59,2.85,2.85,0,0,0,2.43,1.13,2.91,2.91,0,0,0,2.41-1.08,4.72,4.72,0,0,0,0-5.29,3.12,3.12,0,0,0-4.79,0Z"/><path class="cls-1" d="M75.09,175.28A6.49,6.49,0,0,1,76.15,179H68.59a4.37,4.37,0,0,0,.92,2.68,2.93,2.93,0,0,0,2.3,1,3.13,3.13,0,0,0,2.05-.67,3.49,3.49,0,0,0,1-1.64h1.1a4.36,4.36,0,0,1-1.24,2.21,4.16,4.16,0,0,1-2.9,1,4,4,0,0,1-3.13-1.33,5.14,5.14,0,0,1-1.21-3.58,5.2,5.2,0,0,1,1.15-3.44,4.27,4.27,0,0,1,6.46,0Zm-5.51.4a4.09,4.09,0,0,0-1,2.45H75q-.27-3.4-3.22-3.4A2.78,2.78,0,0,0,69.58,175.68Z"/><path class="cls-1" d="M80.12,171v3h2.43V175H80.12v6.3a1.42,1.42,0,0,0,.22.88,1,1,0,0,0,.81.25h1.17v.94H81a1.91,1.91,0,0,1-1.55-.56,2.25,2.25,0,0,1-.41-1.51V175h-2V174h2v-2.55Z"/><path class="cls-1" d="M84.19,170.24h1.1v5.49a3.58,3.58,0,0,1,1.3-1.46,3.3,3.3,0,0,1,1.76-.49,3.25,3.25,0,0,1,2.48.94,3.76,3.76,0,0,1,.9,2.68v5.94H90.65v-5.8a3.07,3.07,0,0,0-.68-2.11,2.57,2.57,0,0,0-1.93-.72,2.5,2.5,0,0,0-2,.94,3.36,3.36,0,0,0-.79,2.3v5.38h-1.1Z"/><path class="cls-1" d="M101.08,175.28a6.49,6.49,0,0,1,1.06,3.73H94.58a4.37,4.37,0,0,0,.92,2.68,2.93,2.93,0,0,0,2.3,1,3.13,3.13,0,0,0,2.05-.67,3.49,3.49,0,0,0,1-1.64h1.1a4.36,4.36,0,0,1-1.24,2.21,4.16,4.16,0,0,1-2.9,1,4,4,0,0,1-3.13-1.33,5.14,5.14,0,0,1-1.21-3.58,5.2,5.2,0,0,1,1.15-3.44,4.27,4.27,0,0,1,6.46,0Zm-5.51.4a4.09,4.09,0,0,0-1,2.45H101q-.27-3.4-3.22-3.4A2.78,2.78,0,0,0,95.57,175.68Z"/><path class="cls-1" d="M109.12,174v1.1a4.94,4.94,0,0,0-1.42-.2,2.3,2.3,0,0,0-2,1.12,4,4,0,0,0-.74,2.43v4.91h-1.08V174h1.08v1.78a3.42,3.42,0,0,1,1-1.39,2.68,2.68,0,0,1,1.8-.65A3.67,3.67,0,0,1,109.12,174Z"/><path class="cls-1" d="M118.59,171v3H121V175h-2.43v6.3a1.42,1.42,0,0,0,.22.88,1,1,0,0,0,.81.25h1.17v.94h-1.31a1.91,1.91,0,0,1-1.55-.56,2.25,2.25,0,0,1-.41-1.51V175h-2V174h2v-2.55Z"/><path class="cls-1" d="M130,175.26a5.75,5.75,0,0,1,0,6.86,4.41,4.41,0,0,1-6.59,0,5.22,5.22,0,0,1-1.13-3.42,5.15,5.15,0,0,1,1.15-3.44,4,4,0,0,1,3.28-1.48A4.09,4.09,0,0,1,130,175.26Zm-5.8.68a5,5,0,0,0,0,5.49,3.19,3.19,0,0,0,5,0,4.51,4.51,0,0,0,.83-2.74,4.45,4.45,0,0,0-.83-2.75,3.19,3.19,0,0,0-5,0Z"/><path class="cls-1" d="M139.06,170.24h1.08V176a3.4,3.4,0,0,1,3.26-2.21,3.65,3.65,0,0,1,3.1,1.49,6.21,6.21,0,0,1,0,6.84,3.76,3.76,0,0,1-3.13,1.48,3.33,3.33,0,0,1-3.28-2.09v1.84h-1Zm1.87,5.58a4.41,4.41,0,0,0-.83,2.79v.22a4.41,4.41,0,0,0,.77,2.7,2.73,2.73,0,0,0,2.36,1.15,2.83,2.83,0,0,0,2.43-1.19,4.75,4.75,0,0,0,.76-2.81,4.58,4.58,0,0,0-.77-2.79,2.85,2.85,0,0,0-2.45-1.19A2.67,2.67,0,0,0,140.93,175.82Z"/><path class="cls-1" d="M149.42,174h1.08v5.69a3.3,3.3,0,0,0,.61,2.18,2.49,2.49,0,0,0,2,.76,2.6,2.6,0,0,0,1.89-.83,3.29,3.29,0,0,0,.92-2.14V174H157v9.31h-1.08v-1.57a3.41,3.41,0,0,1-3.1,1.82q-3.4,0-3.4-3.82Z"/><path class="cls-1" d="M161,171a.76.76,0,0,1,.27.63.9.9,0,0,1-.29.65.94.94,0,0,1-.63.25.88.88,0,0,1-.65-.25.89.89,0,0,1-.27-.65.76.76,0,0,1,.27-.63.84.84,0,0,1,.65-.27A.88.88,0,0,1,161,171ZM159.81,174h1.08v9.31h-1.08Z"/><path class="cls-1" d="M164,170.24h1.08v13.1H164Z"/><path class="cls-1" d="M174.75,170.24h1.08v13.1h-1v-1.84a3.34,3.34,0,0,1-3.26,2.09,3.78,3.78,0,0,1-3.15-1.48,6.21,6.21,0,0,1,0-6.84,3.65,3.65,0,0,1,3.1-1.49,3.4,3.4,0,0,1,3.26,2.21Zm-5.51,5.65a4.48,4.48,0,0,0-.77,2.79,4.75,4.75,0,0,0,.76,2.81,2.8,2.8,0,0,0,2.43,1.19,2.76,2.76,0,0,0,2.36-1.15,4.52,4.52,0,0,0,.77-2.7v-.22a4.5,4.5,0,0,0-.83-2.79,2.7,2.7,0,0,0-2.27-1.12A2.85,2.85,0,0,0,169.24,175.89Z"/><path class="cls-1" d="M190.93,174.85a3.6,3.6,0,0,1,.83,2.5v6h-1v-1.78a4.81,4.81,0,0,1-1.51,1.39,4.69,4.69,0,0,1-2.43.65,3.35,3.35,0,0,1-2.21-.7,2.4,2.4,0,0,1-.85-1.93,2.75,2.75,0,0,1,1.46-2.59,6.28,6.28,0,0,1,3.11-.67l2.38,0v-.34a2.36,2.36,0,0,0-2.7-2.65,3.2,3.2,0,0,0-1.94.52,2.22,2.22,0,0,0-1,1.62H184a3.25,3.25,0,0,1,1.31-2.34,4.55,4.55,0,0,1,2.7-.72A3.67,3.67,0,0,1,190.93,174.85Zm-.25,3.73-2.32,0q-3.53,0-3.53,2.36a1.55,1.55,0,0,0,.59,1.26,2.39,2.39,0,0,0,1.58.49,3.87,3.87,0,0,0,2.59-1,2.75,2.75,0,0,0,1.08-2.07Z"/><path class="cls-1" d="M207,170.24h1.08v13.1h-1v-1.84a3.34,3.34,0,0,1-3.26,2.09,3.78,3.78,0,0,1-3.15-1.48,6.21,6.21,0,0,1,0-6.84,3.65,3.65,0,0,1,3.1-1.49A3.4,3.4,0,0,1,207,176Zm-5.51,5.65a4.48,4.48,0,0,0-.77,2.79,4.75,4.75,0,0,0,.76,2.81,2.8,2.8,0,0,0,2.43,1.19,2.76,2.76,0,0,0,2.36-1.15,4.52,4.52,0,0,0,.77-2.7v-.22a4.5,4.5,0,0,0-.83-2.79A2.7,2.7,0,0,0,204,174.7,2.85,2.85,0,0,0,201.53,175.89Z"/><path class="cls-1" d="M217.46,175.28a6.49,6.49,0,0,1,1.06,3.73H211a4.37,4.37,0,0,0,.92,2.68,2.93,2.93,0,0,0,2.3,1,3.13,3.13,0,0,0,2.05-.67,3.49,3.49,0,0,0,1-1.64h1.1a4.36,4.36,0,0,1-1.24,2.21,4.16,4.16,0,0,1-2.9,1,4,4,0,0,1-3.13-1.33,5.14,5.14,0,0,1-1.21-3.58,5.2,5.2,0,0,1,1.15-3.44,4.27,4.27,0,0,1,6.46,0Zm-5.51.4a4.09,4.09,0,0,0-1,2.45h6.41q-.27-3.4-3.22-3.4A2.78,2.78,0,0,0,212,175.68Z"/><path class="cls-1" d="M226.89,174.6a3.53,3.53,0,0,1,1.28,2.48h-1.08a2.65,2.65,0,0,0-.94-1.76,3.11,3.11,0,0,0-2-.59,2.79,2.79,0,0,0-2.34,1.13,5.39,5.39,0,0,0,0,5.74,2.78,2.78,0,0,0,2.36,1.06,2.75,2.75,0,0,0,3-2.65h1.06a4.24,4.24,0,0,1-1.33,2.68,4,4,0,0,1-2.72.9,3.88,3.88,0,0,1-3.2-1.4,5.21,5.21,0,0,1-1.06-3.44,5.4,5.4,0,0,1,1.1-3.49,3.82,3.82,0,0,1,3.19-1.48A4.31,4.31,0,0,1,226.89,174.6Z"/><path class="cls-1" d="M237,175.28a6.49,6.49,0,0,1,1.06,3.73h-7.56a4.37,4.37,0,0,0,.92,2.68,2.93,2.93,0,0,0,2.3,1,3.13,3.13,0,0,0,2.05-.67,3.49,3.49,0,0,0,1-1.64h1.1a4.36,4.36,0,0,1-1.24,2.21,4.16,4.16,0,0,1-2.9,1,4,4,0,0,1-3.13-1.33,5.14,5.14,0,0,1-1.21-3.58,5.2,5.2,0,0,1,1.15-3.44,4.27,4.27,0,0,1,6.46,0Zm-5.51.4a4.09,4.09,0,0,0-1,2.45h6.41q-.27-3.4-3.22-3.4A2.78,2.78,0,0,0,231.5,175.68Z"/><path class="cls-1" d="M247.36,177.62v5.72h-1.08v-5.65q0-3-2.65-3a2.46,2.46,0,0,0-1.87.81,3.28,3.28,0,0,0-.88,2.2v5.62H239.8V174h1.08v1.53a3.78,3.78,0,0,1,1.26-1.31,3.28,3.28,0,0,1,1.76-.47Q247.36,173.79,247.36,177.62Z"/><path class="cls-1" d="M251.88,171v3h2.43V175h-2.43v6.3a1.42,1.42,0,0,0,.22.88,1,1,0,0,0,.81.25h1.17v.94h-1.31a1.91,1.91,0,0,1-1.55-.56,2.25,2.25,0,0,1-.41-1.51V175h-2V174h2v-2.55Z"/><path class="cls-1" d="M261.2,174v1.1a4.94,4.94,0,0,0-1.42-.2,2.3,2.3,0,0,0-2,1.12,4,4,0,0,0-.74,2.43v4.91h-1.08V174H257v1.78a3.42,3.42,0,0,1,1-1.39,2.68,2.68,0,0,1,1.8-.65A3.67,3.67,0,0,1,261.2,174Z"/><path class="cls-1" d="M269.27,174.85a3.6,3.6,0,0,1,.83,2.5v6h-1v-1.78a4.81,4.81,0,0,1-1.51,1.39,4.69,4.69,0,0,1-2.43.65,3.35,3.35,0,0,1-2.21-.7,2.4,2.4,0,0,1-.85-1.93,2.75,2.75,0,0,1,1.46-2.59,6.28,6.28,0,0,1,3.11-.67l2.38,0v-.34a2.36,2.36,0,0,0-2.7-2.65,3.2,3.2,0,0,0-1.94.52,2.22,2.22,0,0,0-1,1.62h-1.06a3.25,3.25,0,0,1,1.31-2.34,4.55,4.55,0,0,1,2.7-.72A3.67,3.67,0,0,1,269.27,174.85Zm-.25,3.73-2.32,0q-3.53,0-3.53,2.36a1.55,1.55,0,0,0,.59,1.26,2.39,2.39,0,0,0,1.58.49,3.87,3.87,0,0,0,2.59-1,2.75,2.75,0,0,0,1.08-2.07Z"/><path class="cls-1" d="M272.7,170.24h1.08v13.1H272.7Z"/><path class="cls-1" d="M278.12,171a.76.76,0,0,1,.27.63.9.9,0,0,1-.29.65.94.94,0,0,1-.63.25.88.88,0,0,1-.65-.25.89.89,0,0,1-.27-.65.76.76,0,0,1,.27-.63.84.84,0,0,1,.65-.27A.88.88,0,0,1,278.12,171ZM276.93,174H278v9.31h-1.08Z"/><path class="cls-1" d="M280.32,174h7.22v.83l-6,7.54h6.3v.94h-7.69v-.85l6-7.52h-5.81Z"/><path class="cls-1" d="M296.48,175.28a6.49,6.49,0,0,1,1.06,3.73H290a4.37,4.37,0,0,0,.92,2.68,2.93,2.93,0,0,0,2.3,1,3.13,3.13,0,0,0,2.05-.67,3.49,3.49,0,0,0,1-1.64h1.1a4.36,4.36,0,0,1-1.24,2.21,4.16,4.16,0,0,1-2.9,1,4,4,0,0,1-3.13-1.33,5.14,5.14,0,0,1-1.21-3.58,5.2,5.2,0,0,1,1.15-3.44,4.27,4.27,0,0,1,6.46,0Zm-5.51.4a4.09,4.09,0,0,0-1,2.45h6.41q-.27-3.4-3.22-3.4A2.78,2.78,0,0,0,291,175.68Z"/><path class="cls-1" d="M306.29,170.24h1.08v13.1h-1v-1.84a3.34,3.34,0,0,1-3.26,2.09,3.78,3.78,0,0,1-3.15-1.48,6.21,6.21,0,0,1,0-6.84,3.65,3.65,0,0,1,3.1-1.49,3.4,3.4,0,0,1,3.26,2.21Zm-5.51,5.65a4.48,4.48,0,0,0-.77,2.79,4.75,4.75,0,0,0,.76,2.81,2.8,2.8,0,0,0,2.43,1.19,2.76,2.76,0,0,0,2.36-1.15,4.52,4.52,0,0,0,.77-2.7v-.22a4.5,4.5,0,0,0-.83-2.79,2.7,2.7,0,0,0-2.27-1.12A2.85,2.85,0,0,0,300.78,175.89Z"/><path class="cls-1" d="M323.07,175.28a6.26,6.26,0,0,1,0,6.84A3.74,3.74,0,0,1,320,183.6a3.4,3.4,0,0,1-3.26-2.2v5.51h-1.08V174h1v1.84a3.42,3.42,0,0,1,3.28-2.09A3.74,3.74,0,0,1,323.07,175.28Zm-5.62.61a4.51,4.51,0,0,0-.77,2.75v.2a4.35,4.35,0,0,0,.83,2.75,2.73,2.73,0,0,0,2.27,1.08,2.91,2.91,0,0,0,2.45-1.15,4.74,4.74,0,0,0,.76-2.81,4.83,4.83,0,0,0-.74-2.81,2.82,2.82,0,0,0-2.43-1.21A2.73,2.73,0,0,0,317.45,175.89Z"/><path class="cls-1" d="M326.34,170.24h1.08v13.1h-1.08Z"/><path class="cls-1" d="M336.87,174.85a3.6,3.6,0,0,1,.83,2.5v6h-1v-1.78a4.81,4.81,0,0,1-1.51,1.39,4.69,4.69,0,0,1-2.43.65,3.35,3.35,0,0,1-2.21-.7,2.4,2.4,0,0,1-.85-1.93,2.75,2.75,0,0,1,1.46-2.59,6.28,6.28,0,0,1,3.11-.67l2.38,0v-.34a2.36,2.36,0,0,0-2.7-2.65,3.2,3.2,0,0,0-1.94.52,2.22,2.22,0,0,0-1,1.62H330a3.25,3.25,0,0,1,1.31-2.34,4.55,4.55,0,0,1,2.7-.72A3.67,3.67,0,0,1,336.87,174.85Zm-.25,3.73-2.32,0q-3.53,0-3.53,2.36a1.55,1.55,0,0,0,.59,1.26,2.39,2.39,0,0,0,1.58.49,3.87,3.87,0,0,0,2.59-1,2.75,2.75,0,0,0,1.08-2.07Z"/><path class="cls-1" d="M342.22,171v3h2.43V175h-2.43v6.3a1.42,1.42,0,0,0,.22.88,1,1,0,0,0,.81.25h1.17v.94H343.1a1.91,1.91,0,0,1-1.55-.56,2.25,2.25,0,0,1-.41-1.51V175h-2V174h2v-2.55Z"/><path class="cls-1" d="M351.72,170.49v1h-1.57a1.28,1.28,0,0,0-1,.36,1.65,1.65,0,0,0-.32,1.15V174h2.79V175h-2.79v8.37h-1.08V175h-2.48V174h2.48v-1.1a2.46,2.46,0,0,1,.58-1.78,2.24,2.24,0,0,1,1.76-.67Z"/><path class="cls-1" d="M360.31,175.26a5.75,5.75,0,0,1,0,6.86,4.41,4.41,0,0,1-6.59,0,5.22,5.22,0,0,1-1.13-3.42,5.15,5.15,0,0,1,1.15-3.44,4,4,0,0,1,3.28-1.48A4.09,4.09,0,0,1,360.31,175.26Zm-5.8.68a5,5,0,0,0,0,5.49,3.19,3.19,0,0,0,5,0,4.51,4.51,0,0,0,.83-2.74,4.45,4.45,0,0,0-.83-2.75,3.19,3.19,0,0,0-5,0Z"/><path class="cls-1" d="M368.61,174v1.1a4.94,4.94,0,0,0-1.42-.2,2.3,2.3,0,0,0-2,1.12,4,4,0,0,0-.74,2.43v4.91h-1.08V174h1.08v1.78a3.42,3.42,0,0,1,1-1.39,2.68,2.68,0,0,1,1.8-.65A3.67,3.67,0,0,1,368.61,174Z"/><path class="cls-1" d="M376.53,175.69a3.63,3.63,0,0,1,1.24-1.42,2.9,2.9,0,0,1,1.69-.49,3.06,3.06,0,0,1,2.34.92,3.67,3.67,0,0,1,.85,2.56v6.08h-1.08V177.4a3,3,0,0,0-.54-2,2.29,2.29,0,0,0-1.85-.7,2.14,2.14,0,0,0-1.69.77,2.72,2.72,0,0,0-.68,1.93v5.92h-1.1V177.4q0-2.68-2.32-2.68a2.15,2.15,0,0,0-1.75.85,3,3,0,0,0-.72,2.05v5.72h-1.08V174h1.08v1.4a3,3,0,0,1,2.7-1.66A2.81,2.81,0,0,1,376.53,175.69Z"/><path class="cls-1" d="M386.75,181.8a.81.81,0,0,1,.27.65.9.9,0,0,1-.29.65.94.94,0,0,1-.63.25.85.85,0,0,1-.65-.27.87.87,0,0,1-.27-.63.81.81,0,0,1,.27-.65.84.84,0,0,1,.65-.25A.88.88,0,0,1,386.75,181.8Z"/></svg>