<svg id="图层_1" data-name="图层 1" xmlns="http://www.w3.org/2000/svg" viewBox="0 0 441 276"><defs><style>.cls-1{fill:#33353c;}</style></defs><title>121212</title><path class="cls-1" d="M74.12,22.35a18.58,18.58,0,0,1-2.39,4.1l-.79-.56a16.09,16.09,0,0,0,2.36-4Zm4.14-12.26h1V12H86.3v.92H79.21v2.59H85V21H73.34V15.49h4.91ZM84,20.1V16.41H74.32V20.1Zm-7.07,2.34q.59,2,1,3.92l-1,.23a23.68,23.68,0,0,0-.92-4Zm3.78-.16a34,34,0,0,1,1.44,4l-1,.23a22.32,22.32,0,0,0-1.37-4.09ZM84.49,22a29.7,29.7,0,0,1,2.63,4l-.79.56a34.2,34.2,0,0,0-2.63-4.07Z"/><path class="cls-1" d="M91.17,14.25a18.36,18.36,0,0,1-1.78,1.82l-.5-.77a14.09,14.09,0,0,0,3.71-5.2l.9.23a13.7,13.7,0,0,1-.68,1.51H97a16.39,16.39,0,0,0-.77-1.64l1-.18q.4.86.74,1.82h5.94v.86H98v1.44h5.22v.79H98v1.4h5.22v.79H98v1.53h6.17v.85h-13Zm-1.84,7.83v-.92H96.6V20.08h1v1.08h7.16v.92H99a12.78,12.78,0,0,0,6,3.11l-.41.86q-4.59-1.51-6.5-4h-.45v4.48h-1V22.08h-.49q-1.66,2.36-6.46,4.07l-.52-.85q4.46-1.4,6.07-3.22Zm7.76-7.94V12.7H92.3l-.22.34v1.1Zm0,2.2v-1.4h-5v1.4Zm0,2.32V17.13h-5v1.53Z"/><path class="cls-1" d="M118.8,26.42l-.25-1,1.78.05a.71.71,0,0,0,.79-.81V11.87H108.95V26.49h-1V10.92h14.11v14a1.31,1.31,0,0,1-1.46,1.49Zm-4.14-3.92q-1-1.48-1.94-2.88a19.26,19.26,0,0,1-2.5,4.77l-.63-.76a19,19,0,0,0,2.48-4.93q-1.46-1.94-2.65-3.26l.61-.61a30.93,30.93,0,0,1,2.36,2.84,35.54,35.54,0,0,0,1-4.43l.92.16a35.45,35.45,0,0,1-1.19,5.18q1,1.31,2.23,3.28Zm5.35.83q-1-1.6-2-3.29a19.45,19.45,0,0,1-2.7,4.79l-.61-.76a19,19,0,0,0,2.66-5,43.08,43.08,0,0,0-2.61-3.47l.63-.61a34.14,34.14,0,0,1,2.34,3,30.92,30.92,0,0,0,1.1-4.73l.92.16A35.34,35.34,0,0,1,118.34,19q1.15,1.75,2.3,3.67Z"/><path class="cls-1" d="M131.29,24.08a35.44,35.44,0,0,1-6,1.67l-.13-.94a32.36,32.36,0,0,0,6.16-1.67Zm-2.12-13.61a28.07,28.07,0,0,1-2.84,5.74,27,27,0,0,0,2.75-.5l1-1.93.85.32a38.27,38.27,0,0,1-4,6.73,30.14,30.14,0,0,0,4.09-1.12v.88a29.6,29.6,0,0,1-5.24,1.31l-.27-.92a1.86,1.86,0,0,0,.45-.27,22,22,0,0,0,2.7-4.09q-1.87.38-3.2.56l-.23-.9a1.09,1.09,0,0,0,.41-.36,27.9,27.9,0,0,0,2.68-5.83Zm6-.23q-.25.79-.59,1.58h5v.74a12.47,12.47,0,0,1-3,4.07,14.13,14.13,0,0,0,4.77,2.3l-.56.79a13.88,13.88,0,0,1-4.91-2.52,19.36,19.36,0,0,1-4.71,2.63l-.61-.79a18.61,18.61,0,0,0,4.61-2.47,11.44,11.44,0,0,1-2-2.5,15.25,15.25,0,0,1-1.73,1.76l-.58-.76a10,10,0,0,0,3.33-5Zm4.46,9.7v6.5h-.94v-.85h-5.35v.85h-.94v-6.5Zm-6.28,4.75h5.35V20.82h-5.35Zm.4-11.36A10.91,10.91,0,0,0,135.91,16a11.55,11.55,0,0,0,2.68-3.29h-4.43Z"/><path class="cls-1" d="M149.14,17.88h-5.38l.43-3.85h4.52V11.67h-4.93v-.86h5.9V14.9h-4.61L144.82,17h5.27a58.61,58.61,0,0,1-.29,7.36,2.43,2.43,0,0,1-2.66,2c-.31,0-.83,0-1.55-.07l-.22-.88q1,.07,1.57.07a1.7,1.7,0,0,0,1.93-1.44,19.72,19.72,0,0,0,.22-2.79,28.36,28.36,0,0,1-5.62,3.17l-.4-.9a24.09,24.09,0,0,0,6-3.29Zm-5.24,1.33A15.4,15.4,0,0,1,147,20.28l-.34.85a15.45,15.45,0,0,0-3.2-1.06Zm13.28-1.33h-5.51l.49-3.85h4.59V11.67h-4.91v-.86h5.89V14.9H153L152.72,17h5.42a60.7,60.7,0,0,1-.27,7.36,2.3,2.3,0,0,1-2.5,2c-.38,0-1,0-1.8-.07l-.23-.88q1.22.07,1.84.07A1.62,1.62,0,0,0,157,24.09q.13-1,.2-2.81a29.43,29.43,0,0,1-5.6,3.13l-.38-.9a25.56,25.56,0,0,0,6-3.24ZM152,19.16a13.86,13.86,0,0,1,3,1l-.34.85a15.16,15.16,0,0,0-3.13-1Z"/><path class="cls-1" d="M167.3,10.49a20.39,20.39,0,0,1-2.39,4.18V26.58h-1V15.87a25.6,25.6,0,0,1-2.84,2.74l-.31-1a19.58,19.58,0,0,0,5.6-7.52Zm3.82,15.75a1.51,1.51,0,0,1-1.73-1.69V18.71q-1.31.76-2.56,1.35l-.47-.94a27.38,27.38,0,0,0,3-1.55V10.2h1V17a25.07,25.07,0,0,0,5.2-4.5l.67.76a26.62,26.62,0,0,1-5.87,4.9V24.4q0,.9,1,.9h3.06a1.35,1.35,0,0,0,1.12-.45,9,9,0,0,0,.45-3.31l.9.29a9.93,9.93,0,0,1-.61,3.78,2,2,0,0,1-1.69.63Z"/><path class="cls-1" d="M186.84,16.14a36.78,36.78,0,0,0,5.36-3.91H180.14v-.94h13.39v.94a45.12,45.12,0,0,1-5.74,4.39V25q0,1.44-1.51,1.44-1.26,0-2.84-.07l-.27-1q1.29.11,2.84.11.83,0,.83-.72Z"/><path class="cls-1" d="M200.53,22.51l-.65-.77A9.68,9.68,0,0,0,204,16.64a15.57,15.57,0,0,0,.54-2.54H199V26.52h-1V13.15h6.62q.14-1.55.14-3.08h1q0,1.44-.13,3.08H212V24.69a1.46,1.46,0,0,1-1.64,1.67h-2.81l-.27-1,2.75,0q1,0,1-.94V14.1h-5.49q-.16,1.1-.38,2a39.92,39.92,0,0,1,4.86,5.42l-.74.74a35,35,0,0,0-4.39-5.17A10.18,10.18,0,0,1,200.53,22.51Z"/><path class="cls-1" d="M223.45,15.79q2.23,2.77,7.56,4.9l-.52.79a18,18,0,0,1-7.42-4.84,20,20,0,0,1-7.52,4.86l-.54-.79a19.21,19.21,0,0,0,7.67-4.91Zm-1.8-1.62A22.09,22.09,0,0,1,216,17.65l-.58-.76A22.16,22.16,0,0,0,221,13.58ZM223.07,10q.32.7.67,1.69h6.52v3h-1V12.65H216.79v2.2h-1V11.73h6.93a12,12,0,0,0-.7-1.53Zm5.18,10.71v5.8h-1v-.83H219v.83h-1v-5.8ZM219,24.83h8.33V21.65H219ZM225,13.62A35.56,35.56,0,0,1,230.49,17l-.67.67a33.49,33.49,0,0,0-5.44-3.42Z"/><path class="cls-1" d="M236.43,26.47h-.94V16.86A19.71,19.71,0,0,1,233.11,22l-.41-1a17.23,17.23,0,0,0,2.77-6.32h-2.36v-.92h2.38V10.13h.94v3.64h1.87v.92h-1.87V16q.93,1.21,2.2,3.17l-.52.79q-1-1.85-1.67-2.9Zm3.17-11.93h8.32V20h-3.74a10.18,10.18,0,0,1-.18,1.62h5.17v.9h-4.81a10.58,10.58,0,0,0,4.88,3.28l-.63.76a11.11,11.11,0,0,1-5-3.65l-.18.4q-1,2-4.46,3.26l-.61-.77a7.82,7.82,0,0,0,4.16-2.72,3.92,3.92,0,0,0,.27-.54h-4.52v-.9h4.81a7,7,0,0,0,.21-1.62h-3.69Zm-1.17-2.81h2.77v-1.6h.94v1.6h3.06v-1.6h.94v1.6H249v.9h-2.88V14h-.94V12.63h-3.06V14h-.94V12.63h-2.77Zm2.07,5.17H247V15.33h-6.5Zm6.5,2.32V17.67h-6.5v1.55Z"/><path class="cls-1" d="M252.19,21.79h6.43V20h1v1.75h6.3v.92h-6.3v2.41h7.31V26H251.17v-.92h7.45V22.71h-6.43ZM251.76,11h8.35v.9h-1.93v3h2.3v.94h-2.3v4.05h-.94V15.79H254.6a5.87,5.87,0,0,1-2.12,4.28l-.72-.65a4.86,4.86,0,0,0,1.89-3.64h-2.36v-.94h2.41v-3h-1.94Zm2.9.9v3h2.59v-3Zm7.13-.56h.92v6.17h-.92Zm.49,8.62-.22-.92q1.58.07,2.29.07t.68-.74v-8h1v8.28A1.18,1.18,0,0,1,264.67,20Z"/><path class="cls-1" d="M275.16,13.33v12.1h-.94v-1.1h-3.64v1.6h-.94V13.33h1.62a16.43,16.43,0,0,0,.81-3.22l1,.13a15.4,15.4,0,0,1-.87,3.1Zm-4.57,5h3.64v-4h-3.64Zm0,5.15h3.64V19.16h-3.64Zm13.9-10.08q0,8.66-.25,10.78a2.24,2.24,0,0,1-2.5,2.16l-1.76,0-.23-.9c.72,0,1.35.05,1.89.05q1.46,0,1.67-1.6t.25-9.49h-5.31a15.06,15.06,0,0,1-1.82,3.15l-.58-.76a16,16,0,0,0,2.65-6.62l1,.11a22.42,22.42,0,0,1-.83,3.15Zm-6.26,4a30.72,30.72,0,0,1,3.13,4l-.77.56a28.39,28.39,0,0,0-3.15-4Z"/><path class="cls-1" d="M290,22.37a10,10,0,0,1-1.89,4.23l-.76-.68a10.27,10.27,0,0,0,2-6.37V15q-1,.76-1.76,1.22l-.61-.76A17,17,0,0,0,292.71,10l1,.23q-.56.86-1,1.46h6.86v.74a18,18,0,0,1-2.74,2.27h5V25q0,1.49-1.6,1.49h-2.36l-.23-.9,2.29,0q.93,0,.94-1V22.37h-4.95v3.87h-1V22.37Zm5.38-7.7a20.46,20.46,0,0,0,2.84-2.14H292a20.6,20.6,0,0,1-2.21,2.14ZM290.3,19v.43a14.67,14.67,0,0,1-.14,2h4.71V19Zm4.57-3.46H290.3v2.57h4.57Zm5.9,2.57V15.58h-4.95v2.57Zm0,3.31V19h-4.95v2.43Z"/><path class="cls-1" d="M309.76,12.79a19.37,19.37,0,0,1-4.21,3.53l-.65-.79A17.8,17.8,0,0,0,310.66,10l1,.23a17.69,17.69,0,0,1-1.15,1.66h6.7v.76a17.08,17.08,0,0,1-2.3,2.66h4.54v5.45H308.21v3.67q0,.83.92.86h9a1.53,1.53,0,0,0,1.35-.65,6.79,6.79,0,0,0,.49-2.43l1,.29a8.79,8.79,0,0,1-.52,2.57,2.05,2.05,0,0,1-2,1.17H308.8q-1.58,0-1.58-1.51V15.31h6.34a18.5,18.5,0,0,0,2.38-2.52Zm3.13,3.46h-4.68v3.58h4.68Zm1,3.58h4.61V16.25h-4.61Z"/><path class="cls-1" d="M326,26.58h-.9v-9.5a23.74,23.74,0,0,1-2,5.09l-.4-1a20.12,20.12,0,0,0,2.41-6.57v-.13h-2v-.92h2V10.13h.9v3.42h1.46v.92H326v1.62q1.06,1.44,2.05,3.1l-.5.76q-.77-1.49-1.55-2.79Zm7.36-8.19q.25-2.7.4-5.26l.79.09q-.11,1.69-.34,4.27h1.51a28,28,0,0,0,.38-4.5V11.84h-2.92v-.9h5.42v.9h-1.66V13a33.27,33.27,0,0,1-.34,4.5h2.14v.9h-2.3a14.51,14.51,0,0,1-4.19,8.1l-.72-.63a10.81,10.81,0,0,0,1.48-1.6l-.25.18q-.36-.86-.56-1.3a22.45,22.45,0,0,1-4,2.23l-.22-.81a.62.62,0,0,0,.32-.56V10.92h4V19.3h-3.15V24a17,17,0,0,0,2.65-1.6q-.43-.92-1-1.84l.68-.43a31.1,31.1,0,0,1,1.84,3.58,15.49,15.49,0,0,0,2.16-5.33Zm-1.89-3.73v-2.9h-2.29v2.9Zm-2.29.85v3h2.29v-3Zm8.24,10.76q-1.3,0-1.3-1.06V19.94H337V25.1c0,.24.15.37.45.38h.5a.55.55,0,0,0,.56-.56,20.69,20.69,0,0,0,.09-2.27l.72.29a8.32,8.32,0,0,1-.27,2.79,1.16,1.16,0,0,1-1,.54Z"/><path class="cls-1" d="M344.59,20.57a15.47,15.47,0,0,1-2.7,5.15l-.83-.54a14,14,0,0,0,2.57-4.81Zm4.88-10.3A19.38,19.38,0,0,0,357,14.59l-.56.79A20.51,20.51,0,0,1,349,11.15a24.26,24.26,0,0,1-7.33,4.32l-.56-.81a22.43,22.43,0,0,0,7.45-4.39Zm-5.15,5.53h9.52v.81q-1.75,2.65-6.73,3.94l-.36-.85q4.16-.9,5.94-3h-8.37Zm2.81,10.44a1.42,1.42,0,0,1-1.62-1.58V21.3h1v3.15q0,.88.92.88h3.53a2,2,0,0,0,1.22-.29,3.72,3.72,0,0,0,.63-2.23l.9.29q-.22,2.21-.85,2.72a2.91,2.91,0,0,1-1.73.41Zm1.17-13.3a14.26,14.26,0,0,1,2.18,1.75l-.65.65a12.89,12.89,0,0,0-2.14-1.78Zm1.26,7.76a15.81,15.81,0,0,1,1.48,2.5l-.9.41A13.77,13.77,0,0,0,348.67,21Zm4.23-.67a34.14,34.14,0,0,1,3.13,4.41l-.83.58A33.53,33.53,0,0,0,353,20.49Z"/><path class="cls-1" d="M82.76,50.89a25.53,25.53,0,0,1-2.43,2.3l-.63-.79a21.29,21.29,0,0,0,5.53-6.77h-4.9v-1h5.35q.52-1.24,1-2.66l1,.11a22,22,0,0,1-.9,2.56H96v1H86.3a22.7,22.7,0,0,1-2.57,4.1v8.84h-1Zm2.77-.29h4.29V47.13h1V50.6h4.37v1H90.8V57H96v1H84.74V57h5.08V51.58H85.53Z"/><path class="cls-1" d="M100.52,44.84a15.16,15.16,0,0,1-1.8,2.61l-.83-.54a14.14,14.14,0,0,0,2.86-5l1,.2a17.51,17.51,0,0,1-.74,1.8h4.86v.9H103a12.93,12.93,0,0,1,1.21,1.93l-.9.34A14.73,14.73,0,0,0,102,44.84Zm2.07,2.48a15.36,15.36,0,0,1-1.08,2.25v8.91h-1V51a16.15,16.15,0,0,1-2.32,2.56l-.32-1a14.41,14.41,0,0,0,3.83-5.62Zm.5,2.41h7.47v-2h1v2H114v.94h-2.43v6.12A1.39,1.39,0,0,1,110,58.4h-2.72l-.2-.94q1.8.07,2.57.07.94,0,.94-1V50.68H103.1Zm2.11,2.18a32.43,32.43,0,0,1,2.74,3.42l-.77.54a26.47,26.47,0,0,0-2.72-3.47ZM108,44.84a13.54,13.54,0,0,1-1.51,2.56l-.83-.54a15,15,0,0,0,2.39-5l1,.2a17.57,17.57,0,0,1-.63,1.84h5.45v.9h-3a16.26,16.26,0,0,1,1.19,2l-.9.34a19.76,19.76,0,0,0-1.33-2.34Z"/><path class="cls-1" d="M124.39,42.13a26.43,26.43,0,0,0,8,6.41l-.52.9A25.78,25.78,0,0,1,124,43a26.13,26.13,0,0,1-7.9,6.46l-.5-.92a26.84,26.84,0,0,0,8-6.43Zm5.2,9.31v7.07h-1V57.34h-9.22v1.17h-1V51.43Zm-10.21-3.51h9.29v1h-9.29Zm0,8.48h9.22v-4h-9.22Z"/><path class="cls-1" d="M134.2,47.62h6.07a6.94,6.94,0,0,0,.92-1.67l-5.08.18-.16-.86a11.7,11.7,0,0,0,4.46-3.17l1,.32a16.94,16.94,0,0,1-3.47,2.84q4.37-.14,7.72-.4-1.28-1.12-1.93-1.66l.76-.49a34.14,34.14,0,0,1,4.1,3.74l-.81.54q-.52-.59-1.3-1.37-2.5.16-4.25.25a8.2,8.2,0,0,1-.85,1.73h8.37v.9H145a11.24,11.24,0,0,0,5.27,2.92l-.43.9q-4.2-1.48-5.87-3.82h-3.28a14.65,14.65,0,0,1-6.39,3.92l-.43-.86a13.09,13.09,0,0,0,5.63-3.06H134.2Zm13.5,4.91Q145.24,57,137,58.72l-.58-.77q8.21-1.78,10.44-5.81Zm-2.43-1.17a13.42,13.42,0,0,1-8,4.46l-.56-.77a12.19,12.19,0,0,0,7.78-4.19ZM143,49.85a12.22,12.22,0,0,1-5.6,3.56l-.45-.79a11.27,11.27,0,0,0,5.26-3.24Z"/><path class="cls-1" d="M152.13,52.84h11.12v.94H152.13Zm4.41-7.36-.32,3.17h10q0,7.4-.77,8.59t-3.35,1.13q-1.19,0-2.48-.05l-.27-.88,2.54.07q2.41,0,2.86-1.13t.5-6.8H155.1l.83-7.52,1,.07-.25,2.43h10.29v.94Z"/><path class="cls-1" d="M171.79,44.09h5v-2h1v2h4.48V45h-4.48v2.43h2.41a23.83,23.83,0,0,0,4.57-4.18l.74.56a25.19,25.19,0,0,1-3.73,3.62H186v.94h-5.6l-.9.58a35.85,35.85,0,0,1-3.26,1.67h7.38v7.94h-1v-.88h-8.23v.88h-1v-6.8q-1.87.67-3.2,1l-.4-.9a30.84,30.84,0,0,0,8.55-3.35l.29-.18h-8.62v-.94h6.68V45h-5Zm10.89,9.59V51.5h-8.23v2.18Zm-8.23.86v2.23h8.23V54.54Z"/><path class="cls-1" d="M188.13,47.08h3.74V44.27a30.59,30.59,0,0,1-3.42.45l-.32-.9a25.11,25.11,0,0,0,7.45-1.57l.49.81a21.75,21.75,0,0,1-3.21,1v3h3.4v1h-3.4v1a45.89,45.89,0,0,1,3.47,3.49l-.56.86A37,37,0,0,0,192.86,50v8.5h-1V49.79a17.61,17.61,0,0,1-3.67,5.29l-.45-1.1a14.65,14.65,0,0,0,4.09-6h-3.71ZM198,43.8h1V55h-1ZM199,58.36l-.21-.94q1.73.07,2.5.07t.92-1V42.18h1v14.6a1.39,1.39,0,0,1-1.57,1.58Z"/><path class="cls-1" d="M212.23,47.83a18.79,18.79,0,0,1-5.87,3.76l-.43-.9a16.91,16.91,0,0,0,5.69-3.56Zm7.4,3.29v5.81H222v.94H206.13v-.94h2.45V51.13ZM206.49,45.4h9.41A19.85,19.85,0,0,0,218,42.05l1,.34a15.69,15.69,0,0,1-2,3h4.63v.94h-15.1Zm3.22-3.31a19.28,19.28,0,0,1,2.36,2.68l-.79.54a21,21,0,0,0-2.36-2.72Zm-.18,14.85h2.39V52h-2.39Zm3.33,0h2.47V52h-2.47Zm3.56-9.68a29.27,29.27,0,0,1,5.65,3.51l-.56.83A25.06,25.06,0,0,0,215.91,48Zm-.18,9.68h2.41V52h-2.41Z"/><path class="cls-1" d="M224.15,49.2H240V50h-8.17v6l1.13-.18v.79l-1.13.18v1.78h-.94V56.88q-2.39.29-6.48.52l-.12-.86,1.73-.07V50h-1.82Zm2.41-6.35h11.07v5H226.56Zm.32,8.75h4V50h-4Zm0,2.32h4V52.35h-4Zm0,2.5q2.2-.15,4-.32V54.67h-4ZM227.48,45h9.2V43.6h-9.2Zm9.2,2.11V45.67h-9.2v1.38Zm-3.8,5.22v-.85h6v.79a8.94,8.94,0,0,1-2,3.74,15,15,0,0,0,3,1.75l-.5.79a14.72,14.72,0,0,1-3.13-1.93,11.43,11.43,0,0,1-3.12,1.94l-.5-.76a11.43,11.43,0,0,0,2.93-1.8,8.11,8.11,0,0,1-2.18-3.69Zm5.11,0h-3.67a7.13,7.13,0,0,0,1.93,3.1A8.46,8.46,0,0,0,238,52.28Z"/><path class="cls-1" d="M242.18,46.95h7.09a28.35,28.35,0,0,0,.27-3.44V42.14h1v1.15a23.48,23.48,0,0,1-.27,3.65h7.63v1h-7.22a16.42,16.42,0,0,0,7.54,9.74l-.59.79a17.08,17.08,0,0,1-7.65-10,14.13,14.13,0,0,1-7.52,10.06l-.61-.81a13.15,13.15,0,0,0,7.29-9.83h-6.93Z"/><path class="cls-1" d="M266.3,42.49a20.39,20.39,0,0,1-2.39,4.18V58.58h-1V47.87a25.6,25.6,0,0,1-2.84,2.74l-.31-1a19.58,19.58,0,0,0,5.6-7.52Zm3.82,15.75a1.51,1.51,0,0,1-1.73-1.69V50.71q-1.31.76-2.56,1.35l-.47-.94a27.38,27.38,0,0,0,3-1.55V42.2h1V49a25.07,25.07,0,0,0,5.2-4.5l.67.76a26.62,26.62,0,0,1-5.87,4.9V56.4q0,.9,1,.9h3.06a1.35,1.35,0,0,0,1.12-.45,9,9,0,0,0,.45-3.31l.9.29a9.93,9.93,0,0,1-.61,3.78,2,2,0,0,1-1.69.63Z"/><path class="cls-1" d="M284.16,45.33v12.1h-.94v-1.1h-3.64v1.6h-.94V45.33h1.62a16.43,16.43,0,0,0,.81-3.22l1,.13a15.4,15.4,0,0,1-.87,3.1Zm-4.57,5h3.64v-4h-3.64Zm0,5.15h3.64V51.16h-3.64Zm13.9-10.08q0,8.66-.25,10.78a2.24,2.24,0,0,1-2.5,2.16l-1.76,0-.23-.9c.72,0,1.35.05,1.89.05q1.46,0,1.67-1.6t.25-9.49h-5.31a15.06,15.06,0,0,1-1.82,3.15l-.58-.76a16,16,0,0,0,2.65-6.62l1,.11a22.42,22.42,0,0,1-.83,3.15Zm-6.26,4a30.72,30.72,0,0,1,3.13,4l-.77.56a28.39,28.39,0,0,0-3.15-4Z"/><path class="cls-1" d="M308.25,42.32A12.08,12.08,0,0,1,307,44.46H312v1H296v-1h5.13a11.47,11.47,0,0,0-1.24-2.23l1-.16a16.13,16.13,0,0,1,1.26,2.39h3.74A17.33,17.33,0,0,0,307.29,42Zm-7.45,16.09-.27-1,1.37,0q.81,0,.81-.92v-2h-4.39v4h-1V47.15h6.3v9.63q0,1.64-1.44,1.64Zm-2.48-8h4.39V48.07h-4.39Zm0,3.2h4.39V51.32h-4.39Zm7.61-5.72h1v7.79h-1Zm.92,10.44-.22-.92q1.19.05,2.23.05.85,0,.85-.9v-10h1V56.85a1.32,1.32,0,0,1-1.48,1.51Z"/><path class="cls-1" d="M314.38,58.36l-.22-.94c.72,0,1.24.07,1.55.07s.68-.19.68-.58v-5q-1.1.45-2.27.81l-.25-1A20.55,20.55,0,0,0,316.4,51V46.63h-2.3v-1h2.3V42.18h1v3.49h1.95v1h-1.95v3.92q.92-.43,1.71-.86v1l-1.71.83v5.65q0,1.21-1.31,1.21Zm5.15-8h10.24v.9h-4.61v2.32h3.91v.88h-3.91V57.1a19.53,19.53,0,0,0,2.74.18q1.06,0,2.32-.07l-.27,1-2,0a11.52,11.52,0,0,1-4.84-.68,5.31,5.31,0,0,1-1.94-2.34,10.63,10.63,0,0,1-1.94,3.38l-.72-.65a9.55,9.55,0,0,0,2.34-5.72l.88.11a10.61,10.61,0,0,1-.27,1.85,5,5,0,0,0,2.12,2.59,6.11,6.11,0,0,0,.61.22V51.23h-4.68Zm1.31-7.54h7.7v6.07h-7.7Zm1,2.66h5.78V43.62H321.8ZM327.58,48V46.25H321.8V48Z"/><path class="cls-1" d="M332.08,43.17H348v1H340v3a75.09,75.09,0,0,1,6.91,4.05l-.58.86A72.38,72.38,0,0,0,340,48.14V58.58h-1V44.12h-7Z"/><path class="cls-1" d="M128,86.37a10,10,0,0,1-1.89,4.23l-.76-.68a10.27,10.27,0,0,0,2-6.37V79q-1,.76-1.76,1.22l-.61-.76A17,17,0,0,0,130.71,74l1,.23q-.56.86-1,1.46h6.86v.74a18,18,0,0,1-2.74,2.27h5V89q0,1.49-1.6,1.49h-2.36l-.23-.9,2.29,0q.93,0,.94-1V86.37h-4.95v3.87h-1V86.37Zm5.38-7.7a20.46,20.46,0,0,0,2.84-2.14H130a20.6,20.6,0,0,1-2.21,2.14ZM128.3,83v.43a14.67,14.67,0,0,1-.14,2h4.71V83Zm4.57-3.46H128.3v2.57h4.57Zm5.9,2.57V79.58h-4.95v2.57Zm0,3.31V83h-4.95v2.43Z"/><path class="cls-1" d="M147.76,76.79a19.37,19.37,0,0,1-4.21,3.53l-.65-.79A17.8,17.8,0,0,0,148.66,74l1,.23a17.69,17.69,0,0,1-1.15,1.66h6.7v.76a17.08,17.08,0,0,1-2.3,2.66h4.54v5.45H146.21v3.67q0,.83.92.86h9a1.53,1.53,0,0,0,1.35-.65,6.79,6.79,0,0,0,.49-2.43l1,.29a8.79,8.79,0,0,1-.52,2.57,2.05,2.05,0,0,1-2,1.17H146.8q-1.58,0-1.58-1.51V79.31h6.34a18.5,18.5,0,0,0,2.38-2.52Zm3.13,3.46h-4.68v3.58h4.68Zm1,3.58h4.61V80.25h-4.61Z"/><path class="cls-1" d="M161.53,84.21h2.25V75.73h3.62A8.72,8.72,0,0,0,168,74l1,.14a7.46,7.46,0,0,1-.59,1.6h5.38v8.1a11.16,11.16,0,0,0,2.3-3.53l.85.5a16.53,16.53,0,0,1-3.15,4.29v4a1.27,1.27,0,0,1-1.44,1.42h-1.8l-.25-1,1.73.05q.79,0,.79-.72v-3a16.83,16.83,0,0,1-1.37,1,27.79,27.79,0,0,1-9.31,3.19l-.43-.88q7.06-1.28,10.19-3.67l.5-.41H161.53Zm11.27-5.63V76.63h-8v1.94Zm-8,.85v1.87h8V79.42Zm0,2.74v2.05h8V82.15Z"/><path class="cls-1" d="M184,74.45a24.23,24.23,0,0,1-1.85,4.23v11.9h-1V80.25A22.07,22.07,0,0,1,179,82.93l-.31-1A20.71,20.71,0,0,0,183.11,74Zm4.14.22a17.33,17.33,0,0,1-4.41,7.05l-.76-.67a15.66,15.66,0,0,0,4.25-6.75ZM185,82.23v-1h7.78a46.15,46.15,0,0,1-.29,6.79q-.22,2.21-2.09,2.21-.54,0-1.89-.05l-.23-.94c1,0,1.7.07,2,.07q1.1,0,1.26-1.62a42.61,42.61,0,0,0,.25-5.49h-3.37a17.41,17.41,0,0,1-1.3,4.81,10.26,10.26,0,0,1-2.88,3.38l-.63-.79a9.16,9.16,0,0,0,2.63-3,15.08,15.08,0,0,0,1.22-4.39Zm5.72-8.14a13.53,13.53,0,0,0,4.54,6.59l-.67.77a14,14,0,0,1-4.72-6.88Z"/><path class="cls-1" d="M197.08,75.28h16v1h-2.45V88.72a1.47,1.47,0,0,1-1.66,1.67h-3l-.22-.94q2,.07,2.84.07t1-1.06V76.23H197.08Zm8.91,4v6.37h-5.8V87.3h-.94v-8Zm-5.8,5.47h4.86V80.17h-4.86Z"/><path class="cls-1" d="M216.14,87.55a.88.88,0,0,0,.43-.79V74.9h1V87A28.07,28.07,0,0,0,222,84.85l.29,1a35.52,35.52,0,0,1-5.8,2.65Zm4.5-11.43a40.42,40.42,0,0,1,3.85,4.93l-.81.58a34.38,34.38,0,0,0-3.87-5Zm.63,14.29-.67-.81a12.9,12.9,0,0,0,6-6.66,28.16,28.16,0,0,0,1.13-8.66h1a29.45,29.45,0,0,1-1.08,8.57c-.12.36-.22.62-.29.79a41.11,41.11,0,0,1,3.82,5.83l-.74.74A39.43,39.43,0,0,0,227,84.6,14.2,14.2,0,0,1,221.27,90.42Z"/><path class="cls-1" d="M233.4,75h15.23v1H239l-.81,3.28h7.85l-1.49,9.7h4.54v1h-16v-1h10.53l.56-3.53h-8.44L238,75.94H233.4Zm10.94,9.5.7-4.34h-7l-1.06,4.34Z"/><path class="cls-1" d="M254.71,90.52h-1V80.77A19.57,19.57,0,0,1,251.18,86l-.38-1a17,17,0,0,0,2.92-6.37h-2.61v-.92h2.65V74.13h1v3.64h2.43v.92h-2.43v1.06q1.33,1.46,2.56,3.08l-.54.79q-1.28-1.91-2-2.84Zm11.61-15.28V90.52h-1V89.35h-6.28v1.19h-.94V75.24Zm-7.25,4.32h6.28v-3.4h-6.28Zm0,4.39h6.28V80.48h-6.28Zm0,4.48h6.28V84.87h-6.28Z"/><path class="cls-1" d="M272.53,79h1v2.9h2.11v.88h-2.11v2.79q1.4-.32,2.65-.65v.94q-1.39.38-2.65.63v4h-1V86.73q-1.78.32-3.64.59l-.14-1q2.14-.27,3.78-.56v-3h-3.11l-.23-.88a27.83,27.83,0,0,0,1.57-4.41h-2v-.94H271l.56-2.52.94.13q-.31,1.44-.54,2.39h3.56v.94h-3.8a34.26,34.26,0,0,1-1.51,4.41h2.32Zm3.89-2.45h2.92q.27-1.3.49-2.59l1,.09-.45,2.5h4.5v.94h-4.68q-.25,1.19-.54,2.39h5.69v.92h-5.92q-.25.92-.77,2.57h5.83v.83a13.14,13.14,0,0,1-2.93,3.83,25.61,25.61,0,0,1,2.29,1.55l-.56.85A27,27,0,0,0,277.36,87l.54-.79a25,25,0,0,1,2.77,1.39,13.2,13.2,0,0,0,2.77-3.29h-6.08q.5-1.58,1-3.47h-2.47v-.92h2.7q.31-1.26.54-2.39h-2.74Z"/><path class="cls-1" d="M293.3,74.49a20.39,20.39,0,0,1-2.39,4.18V90.58h-1V79.87a25.6,25.6,0,0,1-2.84,2.74l-.31-1a19.58,19.58,0,0,0,5.6-7.52Zm3.82,15.75a1.51,1.51,0,0,1-1.73-1.69V82.71q-1.31.76-2.56,1.35l-.47-.94a27.38,27.38,0,0,0,3-1.55V74.2h1V81a25.07,25.07,0,0,0,5.2-4.5l.67.76a26.62,26.62,0,0,1-5.87,4.9V88.4q0,.9,1,.9h3.06a1.35,1.35,0,0,0,1.12-.45,9,9,0,0,0,.45-3.31l.9.29a9.93,9.93,0,0,1-.61,3.78,2,2,0,0,1-1.69.63Z"/><path class="cls-1" d="M63.1,107.28H77v1H73.9v5.11h4v1h-4v8.1h-1v-8.1H67.41a14.75,14.75,0,0,1-1,4.7A7.46,7.46,0,0,1,63,122.49l-.56-.83a7,7,0,0,0,3.17-3.4,14.86,14.86,0,0,0,.81-4h-4.3v-1h4.36l0-.79v-4.32H63.1Zm4.37,1v4.72l0,.4h5.47v-5.11Z"/><path class="cls-1" d="M81.3,111.44l1.42-4.79,1,.14-1.13,3.73h3.53a40.19,40.19,0,0,0,.92-4.57l1,.11q-.41,2.58-.9,4.46h8.55v.92h-8.8q-.41,1.39-.79,2.36h7.47v.85A9.45,9.45,0,0,1,90.39,119a27.42,27.42,0,0,0,5.6,2.59l-.49.9a27.05,27.05,0,0,1-5.9-2.88,25.6,25.6,0,0,1-5.67,2.93l-.5-.9A24.36,24.36,0,0,0,88.77,119a10.1,10.1,0,0,1-3.28-3.91,19.12,19.12,0,0,1-5.17,7.07l-.5-.9a20.45,20.45,0,0,0,6-9.86Zm5,3.26a9.41,9.41,0,0,0,3.29,3.76,9.11,9.11,0,0,0,3-3.76ZM91,106.2a22.25,22.25,0,0,1,3.28,3l-.7.7a19.88,19.88,0,0,0-3.24-3.11Z"/><path class="cls-1" d="M99.79,108.09h5v-2h1v2h4.48V109h-4.48v2.43h2.41a23.83,23.83,0,0,0,4.57-4.18l.74.56a25.19,25.19,0,0,1-3.73,3.62H114v.94h-5.6l-.9.58a35.85,35.85,0,0,1-3.26,1.67h7.38v7.94h-1v-.88h-8.23v.88h-1v-6.8q-1.87.67-3.2,1l-.4-.9a30.84,30.84,0,0,0,8.55-3.35l.29-.18H98.09v-.94h6.68V109h-5Zm10.89,9.59V115.5h-8.23v2.18Zm-8.23.86v2.23h8.23v-2.23Z"/><path class="cls-1" d="M116.4,110.88a21.08,21.08,0,0,1,2.65,2.61l-.67.65a19.28,19.28,0,0,0-2.63-2.63Zm.25-4.36a19.87,19.87,0,0,1,2.77,2.5l-.61.63a18.79,18.79,0,0,0-2.81-2.52Zm2.52,10a60.57,60.57,0,0,1-2.3,5.9L116,122a52,52,0,0,0,2.32-5.87Zm1.08-8.73H122a9,9,0,0,0,.49-1.67l.94.13a8.77,8.77,0,0,1-.47,1.55h2.47v5.47h-2.65l.61,1.73H126v.83h-3.71q0,.22-.23,1.62h3.33q0,3.44-.43,4.19a1.73,1.73,0,0,1-1.49.76H122.3l-.22-.83h1.12a1,1,0,0,0,1-.61,12.74,12.74,0,0,0,.23-2.68h-2.56q-.22.86-.43,1.51a8.15,8.15,0,0,1-1.89,2.79l-.59-.76a7.81,7.81,0,0,0,1.66-2.43,16.81,16.81,0,0,0,.76-3.56H119.5v-.83h3l-.59-1.73h-1.62Zm.86,2.39h3.44V108.5h-3.44Zm3.44,2.3V110.9h-3.44v1.55Zm2.2.29a11.21,11.21,0,0,1-.83,1.33l-.58-.7a17.28,17.28,0,0,0,2.41-7.25l.92.18a25.27,25.27,0,0,1-.68,3.2h4.09v.94H131a20.24,20.24,0,0,1-1.48,7.65,10.36,10.36,0,0,0,2.84,3.46l-.56.83A10.31,10.31,0,0,1,129,119a11.33,11.33,0,0,1-2.83,3.44l-.52-.83a10.64,10.64,0,0,0,2.84-3.6A24.3,24.3,0,0,1,126.75,112.73Zm1-2.3-.41,1.12a26.66,26.66,0,0,0,1.66,5.46,20,20,0,0,0,1.13-6.57Z"/><path class="cls-1" d="M137.89,111.17h-2v2.54a24.56,24.56,0,0,1-1.44,8.82l-.68-.61a24.34,24.34,0,0,0,1.19-8.21V107h7.85v.9h-6.91v2.41h6.46v.9h-3.55v2.92h3.35a47.6,47.6,0,0,1-.31,6.53,1.83,1.83,0,0,1-1.85,1.69q-.47,0-1.1-.05l-.27-.83,1.28,0q1-.05,1.17-1.37t.18-5.13h-2.48q-.27,5-2.16,7.49l-.68-.58q2-2.55,2-8.1Zm7.34-5h.94v3.87h3.28a96.76,96.76,0,0,1-.31,10.26,2.21,2.21,0,0,1-2.48,2q-.36,0-1.22-.05l-.22-.83,1.3,0a1.54,1.54,0,0,0,1.71-1.29,80.73,80.73,0,0,0,.32-9.16h-2.39Q146,118.8,143,122.52l-.68-.61q2.73-3.44,2.9-10.91h-2.14v-.94h2.16Z"/><path class="cls-1" d="M154.13,118.38a13.38,13.38,0,0,1,2,1.75,15,15,0,0,1,1.51,1.8l-.7.59a17.57,17.57,0,0,0-1.49-1.78A15.23,15.23,0,0,0,153.5,119Z"/><path class="cls-1" d="M173.53,118.51l-.65-.77a9.68,9.68,0,0,0,4.14-5.09,15.57,15.57,0,0,0,.54-2.54H172v12.42h-1V109.15h6.62q.14-1.55.14-3.08h1q0,1.44-.13,3.08H185v11.54a1.46,1.46,0,0,1-1.64,1.67h-2.81l-.27-1,2.75,0q1,0,1-.94V110.1h-5.49q-.16,1.1-.38,2a39.92,39.92,0,0,1,4.86,5.42l-.74.74a35,35,0,0,0-4.39-5.17A10.18,10.18,0,0,1,173.53,118.51Z"/><path class="cls-1" d="M196.45,111.79q2.23,2.77,7.56,4.9l-.52.79a18,18,0,0,1-7.42-4.84,20,20,0,0,1-7.52,4.86l-.54-.79a19.21,19.21,0,0,0,7.67-4.91Zm-1.8-1.62a22.09,22.09,0,0,1-5.65,3.47l-.58-.76a22.16,22.16,0,0,0,5.56-3.31Zm1.42-4.14q.32.7.67,1.69h6.52v3h-1v-2.09H189.79v2.2h-1v-3.11h6.93a12,12,0,0,0-.7-1.53Zm5.18,10.71v5.8h-1v-.83H192v.83h-1v-5.8ZM192,120.83h8.33v-3.19H192ZM198,109.62a35.56,35.56,0,0,1,5.46,3.37l-.67.67a33.49,33.49,0,0,0-5.44-3.42Z"/><path class="cls-1" d="M211.44,114.28q-1.06.61-2.07,1.08v5.47a1.34,1.34,0,0,1-1.49,1.53h-1.39l-.22-.94c.58,0,1,.07,1.26.07q.86,0,.87-.92v-4.77a23.23,23.23,0,0,1-2.47.94l-.23-.94a21.29,21.29,0,0,0,2.7-.94v-4.39h-2.48v-1h2.48v-3.37h1v3.37h2.09v1h-2.09v4q1-.45,2.07-1.12Zm1.26-5.11h3.62v-3h1v3h3.89v1h-3.89v2.66c0,.28,0,.68-.09,1.21l0,0v0h4.72v1h-4.39a14,14,0,0,0,4.77,6.71l-.67.77a15.75,15.75,0,0,1-4.79-6.75,12.5,12.5,0,0,1-4.75,6.73l-.76-.63A11.37,11.37,0,0,0,216.1,115h-3.94v-1h4.09c0-.55.07-1,.07-1.21v-2.66H212.7Z"/><path class="cls-1" d="M224.38,122.36l-.22-.94c.67,0,1.16.07,1.46.07.52,0,.78-.28.78-.83v-4.75q-1.06.36-2.39.76l-.25-1a26.46,26.46,0,0,0,2.65-.77v-4.32h-2.34v-.94h2.34v-3.51h1v3.51h2v.94h-2v4q1.21-.5,2.13-1v1q-1.17.56-2.12.94v5.38a1.26,1.26,0,0,1-1.4,1.44Zm5.65-7.51h6.59v-1.51h1v1.51h2.56v.92h-2.56v5.15a1.3,1.3,0,0,1-1.46,1.48h-2.45l-.21-1q1.62.07,2.32.07t.81-.85v-4.9H230Zm4.46-8.73h1v2h3.65V109h-3.65v2.47h4.45v.94h-9.77v-.94h4.36V109h-3.67v-.92h3.67Zm-2.92,10.62a23.43,23.43,0,0,1,2.52,2.93l-.76.54a21.6,21.6,0,0,0-2.54-3Z"/><path class="cls-1" d="M244.13,118.38a13.38,13.38,0,0,1,2,1.75,15,15,0,0,1,1.51,1.8l-.7.59a17.57,17.57,0,0,0-1.49-1.78A15.23,15.23,0,0,0,243.5,119Z"/><path class="cls-1" d="M262.61,116.57a10.57,10.57,0,0,1-2,5.78l-.72-.67a10.61,10.61,0,0,0,1.84-6.25V106.9h13.14v13.46a1.56,1.56,0,0,1-1.76,1.76H271l-.25-1q1.08.05,2,.05,1.12,0,1.12-1.22v-3.44h-5.27v5.36h-1v-5.36Zm.07-4.37v3.31l0,.14h4.95v-3.46Zm4.93-4.34h-4.93v3.44h4.93Zm6.25,3.44v-3.44h-5.27v3.44Zm0,4.36v-3.46h-5.27v3.46Z"/><path class="cls-1" d="M281,114.23a14.87,14.87,0,0,1-2.57,8.39l-.74-.67a13.22,13.22,0,0,0,2.36-8v-5.49H286a14.21,14.21,0,0,0-1.08-2.21l1-.18a19.59,19.59,0,0,1,1,2.39h5.69v5.81Zm10.66-4.84H281v3.89h10.66Z"/><path class="cls-1" d="M296.33,116.28h7.18q.09-.65.13-1.66h1a11.89,11.89,0,0,1-.12,1.66h7.25v1h-7q1.68,3.17,7.43,4.28l-.41.92q-6.1-1.32-7.63-4.72-1.51,3.35-7.76,4.81l-.41-.92q6.1-1.3,7.34-4.37h-6.93Zm4.93-10.08h1v8.23h-1v-2.86a26.16,26.16,0,0,1-4.75,2.07l-.4-.9a23.7,23.7,0,0,0,5.15-2.16Zm-4.18.83a15.1,15.1,0,0,1,3,2.05l-.52.81a13.4,13.4,0,0,0-3.06-2.07Zm10.44-.81a10.21,10.21,0,0,1-.76,1.44h4.57v.85q-1.48,4.1-7.49,5.78l-.49-.85a15.44,15.44,0,0,0,3.8-1.53,16.29,16.29,0,0,0-1.82-1.6l.68-.5a16.69,16.69,0,0,1,1.84,1.66,7.22,7.22,0,0,0,2.47-2.9h-4.27a11,11,0,0,1-2.45,2l-.59-.76a8,8,0,0,0,3.51-3.69Z"/><path class="cls-1" d="M317.89,111.17h-2v2.54a24.56,24.56,0,0,1-1.44,8.82l-.68-.61a24.34,24.34,0,0,0,1.19-8.21V107h7.85v.9h-6.91v2.41h6.46v.9h-3.55v2.92h3.35a47.6,47.6,0,0,1-.31,6.53,1.83,1.83,0,0,1-1.85,1.69q-.47,0-1.1-.05l-.27-.83,1.28,0q1-.05,1.17-1.37t.18-5.13h-2.48q-.27,5-2.16,7.49l-.68-.58q2-2.55,2-8.1Zm7.34-5h.94v3.87h3.28a96.76,96.76,0,0,1-.31,10.26,2.21,2.21,0,0,1-2.48,2q-.36,0-1.22-.05l-.22-.83,1.3,0a1.54,1.54,0,0,0,1.71-1.29,80.73,80.73,0,0,0,.32-9.16h-2.39Q326,118.8,323,122.52l-.68-.61q2.73-3.44,2.9-10.91h-2.14v-.94h2.16Z"/><path class="cls-1" d="M332.38,122.33l-.2-.9q.74.05,1.4.05t.77-.81v-4.59q-1.15.47-2.41.86l-.25-1q1.22-.34,2.66-.88v-4.63H332v-1h2.32v-3.38h1v3.38h2v1h-2v4.23q1.11-.5,2.14-1.08v1q-1,.58-2.14,1.08v5.24a1.24,1.24,0,0,1-1.39,1.42Zm5.78-14.08h2.18v-2.07h1v2.07h3.31v-2.07h1v2.07h2.16v.88h-2.16v2.63h2.66v.92H337.71v-.92h2.63v-2.63h-2.18Zm8.69,6.1v8.1h-1v-.88h-5.71v.86h-1v-8.08Zm-6.66,3.17h5.71v-2.29h-5.71Zm0,3.13h5.71v-2.27h-5.71Zm1.12-8.89h3.31v-2.63h-3.31Z"/><path class="cls-1" d="M350.13,108.77h3a15.31,15.31,0,0,0-1.24-2.59l1-.16a18.41,18.41,0,0,1,1.21,2.75h2.21v.94h-3.76v2.79h3.22q0,6.71-.21,8.26a1.74,1.74,0,0,1-1.95,1.6c-.2,0-.52,0-1-.05l-.23-.86q.59.05,1,.05a1.11,1.11,0,0,0,1.21-1,69,69,0,0,0,.23-7h-2.34q-.13,6.21-2.12,9.11l-.74-.65q1.87-2.79,1.93-8.95v-3.24h-1.49Zm8.69.34a17.94,17.94,0,0,1-2.07,3.55l-.63-.74A17.76,17.76,0,0,0,359,106l.94.22q-.41,1.3-.68,2h6.57v.92Zm6.26,2.65a48.88,48.88,0,0,1-.2,5.92q-.22,1-1.69,1h-.32l-.27-.85.76,0a.65.65,0,0,0,.7-.59,38.37,38.37,0,0,0,.13-4.3l-2.18.83v6h-.92v-5.69l-2,.76v5.51q0,1.13.92,1.13h3.65a1.7,1.7,0,0,0,1.1-.29,4.09,4.09,0,0,0,.58-2.25l.85.27a4.56,4.56,0,0,1-.77,2.74,2.53,2.53,0,0,1-1.57.4h-4.12q-1.51,0-1.51-1.82v-5.35l-1.46.56v-.9l1.46-.56v-2.57h.88V114l2-.76v-2.93H362v2.59Z"/><path class="cls-1" d="M108,141.89h3.38V138h1v3.89h5.44v-3.82h1v3.82h3.4v.94h-3.4v4.66H123v1H107v-1h4.3v-4.66H108Zm5.42,8.08a22.68,22.68,0,0,1-5.63,4.5l-.67-.86a22.63,22.63,0,0,0,5.56-4.28Zm-1.06-2.48h5.44v-4.66h-5.44Zm5.24,1.87A37.15,37.15,0,0,1,123,153.7l-.77.74a33.82,33.82,0,0,0-5.35-4.41Z"/><path class="cls-1" d="M136.27,154.47l-.27-1,2.38.05q.77,0,.77-.85V139.85H126.91v14.67h-1V138.9h14.22v14q0,1.57-1.44,1.57Zm-7.88-12.28h9.31v.94h-9.31Zm1.1,3.1h7.11v5.63h-7.11Zm6.17,4.73v-3.83h-5.24V150Z"/><path class="cls-1" d="M146.78,154.47h-1v-9.76a19.79,19.79,0,0,1-2.68,5.46l-.41-1a16.81,16.81,0,0,0,3-6.43h-2.65v-1h2.72v-3.62h1v3.62h2.32v1h-2.32V144q1.3,1.37,2.65,3.08l-.56.81a31.19,31.19,0,0,0-2.09-2.84Zm5.8-16.27a20.55,20.55,0,0,1-.58,2.65h6.39q0,9.14-.31,11.32a2.23,2.23,0,0,1-2.41,2.2q-.56,0-1.94-.05l-.22-.86q1.13.05,2,.05a1.56,1.56,0,0,0,1.66-1.48q.25-1.67.29-10.26h-5.74a15.84,15.84,0,0,1-1.85,3.78l-.63-.81a16.91,16.91,0,0,0,2.39-6.64Zm-2.72,11.57q.76-.43,2.7-5.9l.88.32a38,38,0,0,1-2.21,5.27q2.29-.47,3.38-.74-.3-.88-.88-2.23l.85-.27a37,37,0,0,1,1.62,4.54l-.85.4q-.23-.9-.49-1.67-2.1.56-4.81,1.08Z"/><path class="cls-1" d="M177.15,153.14l-.18.94h-5.36q-4.79,0-6.86-1.42A4.66,4.66,0,0,1,164,152a10.63,10.63,0,0,1-2.23,2.36l-.63-.81a8.36,8.36,0,0,0,2.23-2.32,12.72,12.72,0,0,1-1.75-3.92l.81-.31a15.23,15.23,0,0,0,1.4,3.4,12.67,12.67,0,0,0,1.19-4.95h-3.37v-.76a41.45,41.45,0,0,0,3-4.57h-3.17v-.94h4.27V140a42.61,42.61,0,0,1-2.86,4.55h3v.61a13.35,13.35,0,0,1-1.49,6.1,4.31,4.31,0,0,0,1,.88,12.36,12.36,0,0,0,5.67,1.1Q173,153.21,177.15,153.14Zm-1.53-7.78h-3.85V147h4.34v.85h-4.34v1.78h4.84v.85h-4.84v2h-1v-2H166.6v-.85h4.19v-1.78h-3.65V147h3.65v-1.66h-3.28v-.86h3.28v-1.67h-4.16V142h4.16V140.3h-3.28v-.85h3.28v-1.37h1v1.37h3.85V142h1.31v.83h-1.31Zm-3.85-5.06V142h2.92V140.3Zm0,2.52v1.67h2.92v-1.67Z"/><path class="cls-1" d="M179,145.69h16.11v1H179Z"/><path class="cls-1" d="M205.48,138.13q2.27,3.8,7.85,6.7l-.58.86a19.4,19.4,0,0,1-7.72-6.62,21.14,21.14,0,0,1-7.72,6.73l-.58-.88a20.13,20.13,0,0,0,7.85-6.79Zm-.94,5.27h1v11.12h-1Z"/><path class="cls-1" d="M226,147.81a51.77,51.77,0,0,1,4.23,6.26l-.83.58q-.38-.74-1-1.67-5.9.65-12,1.06l-.16-.83q2.36-1.28,4.88-6.44h-6.16v-1h7.47v-3.71h-6.35v-1h6.35v-3h1v3h6.32v1h-6.32v3.71H231v1h-8.66a20.71,20.71,0,0,1-4.19,6.32q7.27-.58,9.85-.92-1.15-1.8-2.7-3.85Z"/><path class="cls-1" d="M240.53,138h1v3.33h6.52v8.28h-1v-1.21h-5.53v6.23h-1v-6.23H235v1.21h-1v-8.28h6.5ZM235,147.49h5.51v-5.15H235Zm6.52,0h5.53v-5.15h-5.53Z"/><path class="cls-1" d="M253.89,144.08a33.87,33.87,0,0,1-2.21,7.78l-.85-.54a31.84,31.84,0,0,0,2.11-7.43Zm3.37,9.86q-1.71,0-1.71-1.62V141.89h1v10.22q0,.86,1,.86h3.56a1.11,1.11,0,0,0,1-.52,12,12,0,0,0,.52-4l.92.31q-.16,3.58-.74,4.46a1.77,1.77,0,0,1-1.55.68Zm.34-15.7a37.81,37.81,0,0,1,4,4.48l-.83.56a33,33,0,0,0-3.94-4.54Zm6.55,5a51.93,51.93,0,0,1,3.2,7.33l-.9.4a46.22,46.22,0,0,0-3.26-7.4Z"/><path class="cls-1" d="M275.3,138.49a20.39,20.39,0,0,1-2.39,4.18v11.92h-1V143.87a25.6,25.6,0,0,1-2.84,2.74l-.31-1a19.58,19.58,0,0,0,5.6-7.52Zm3.82,15.75a1.51,1.51,0,0,1-1.73-1.69v-5.83q-1.31.76-2.56,1.35l-.47-.94a27.38,27.38,0,0,0,3-1.55V138.2h1V145a25.07,25.07,0,0,0,5.2-4.5l.67.76a26.62,26.62,0,0,1-5.87,4.9v6.28q0,.9,1,.9h3.06a1.35,1.35,0,0,0,1.12-.45,9,9,0,0,0,.45-3.31l.9.29a9.93,9.93,0,0,1-.61,3.78,2,2,0,0,1-1.69.63Z"/><path class="cls-1" d="M287.83,139h14.45v1h-6.84v7.11H303v1h-7.51v6.48h-1V148h-7.36v-1h7.36V140h-6.64Zm1.94,2.36a37.83,37.83,0,0,1,2,4.16l-.92.45a33.64,33.64,0,0,0-2-4.18Zm11.48.29a23.88,23.88,0,0,1-2.23,4.27l-.88-.45a22.69,22.69,0,0,0,2.21-4.23Z"/><path class="cls-1" d="M305.58,144.25q2.63-1.08,6-6.16l1,.34a25.13,25.13,0,0,1-5.2,5.78q5.85-.25,10.57-.72-1.19-1.62-2.38-3l.9-.43a50.88,50.88,0,0,1,4.45,6l-.94.47q-.52-.86-1.42-2.18-5.72.54-12.82.81Zm13.36,2.93v7.38h-1v-1H308.1v1h-1v-7.38Zm-10.84,5.4H318v-4.46H308.1Z"/></svg>