<svg id="图层_1" data-name="图层 1" xmlns="http://www.w3.org/2000/svg" viewBox="0 0 1200 646.29"><defs><style>.cls-1{fill:#fff;}.cls-2{fill:none;stroke:#92a5eb;stroke-miterlimit:10;}</style></defs><title>DOT官网2</title><path class="cls-1" d="M3.66,245.71V252c.55-.42,1.13-.92,1.75-1.48l.25,1.06a21.49,21.49,0,0,1-2.87,2.17l-.39-.91a.76.76,0,0,0,.29-.59v-5.59H.63v-1Zm1-2-.69.7a15.3,15.3,0,0,0-2.41-2.17l.7-.69A16,16,0,0,1,4.66,243.72Zm8.28,9.46a1.74,1.74,0,0,1-1.58.64H7.73a1.17,1.17,0,0,1-1.3-1.34v-6.12h5v-3.26H5.76v-1h6.63v5.21h-5v4.79a.66.66,0,0,0,.71.74h3.05a1,1,0,0,0,1.05-.57,9.44,9.44,0,0,0,.31-2.24l1,.34A7.58,7.58,0,0,1,12.94,253.18Z"/><path class="cls-1" d="M24.49,242v4.55H27v.91H21.42V249a11.52,11.52,0,0,0,1.08,1.11,7.92,7.92,0,0,0,2.59-2.39l.77.64a8.3,8.3,0,0,1-2.68,2.31,17.63,17.63,0,0,0,3.87,2.25l-.5.9a15.12,15.12,0,0,1-5.13-3.7V253c0,.84-.38,1.26-1.11,1.26H18.71l-.21-1c.52,0,1,.07,1.48.07.28,0,.43-.21.43-.62v-2.56a25.28,25.28,0,0,1-5.15,3.56l-.41-.94a22.14,22.14,0,0,0,5.56-3.67v-1.75H15v-.91h8.46v-1.36H16.89v-.88h6.58v-1.4H16.41V242Zm-5.83,7.77-.64.66a13.49,13.49,0,0,0-2.17-1.79l.67-.64A14.49,14.49,0,0,1,18.66,249.73Z"/><path class="cls-1" d="M32.23,248.05c-.1.27-.2.52-.28.77h2.93v.83a5.65,5.65,0,0,1-1.56,2.4c.67.31,1.32.62,1.93,1l-.55.79a20.53,20.53,0,0,0-2.16-1.11,11.49,11.49,0,0,1-3.49,1.56l-.48-.84a12.63,12.63,0,0,0,3-1.15c-.62-.27-1.26-.53-1.95-.78.36-.62.69-1.19,1-1.75H28.91v-.88h2c.13-.31.24-.6.34-.88Zm-.56-3.94v-2.67h.94v2.67h2.55V245H32.61v.15c.76.38,1.54.81,2.33,1.29l-.52.78q-1.05-.84-1.81-1.34v1.82h-.94V245a6.57,6.57,0,0,1-2.51,2.87l-.49-.81a5.8,5.8,0,0,0,2.26-2.1h-2v-.88Zm-.78-.67-.73.34a13,13,0,0,0-.94-1.82l.8-.27A12,12,0,0,1,30.89,243.44ZM34,249.71H31.56A10.48,10.48,0,0,1,30.8,251c.56.2,1.09.39,1.6.6A5.43,5.43,0,0,0,34,249.71ZM35,242a9.29,9.29,0,0,1-1.08,1.81l-.71-.36a8.92,8.92,0,0,0,1.06-1.78Zm1.54,4.8a12.33,12.33,0,0,1-.83,1.72l-.63-.77a17.77,17.77,0,0,0,1.67-6.35l1,.17c-.08.71-.2,1.39-.31,2h3.7v1h-.91a15,15,0,0,1-1.29,6,8.68,8.68,0,0,0,2.59,2.91l-.55.83a9.18,9.18,0,0,1-2.52-2.83,9.4,9.4,0,0,1-2.59,2.82l-.52-.84a8.25,8.25,0,0,0,2.59-2.91A19.45,19.45,0,0,1,36.54,246.79Zm.49-1.53a19.28,19.28,0,0,0,1.36,4.23,15,15,0,0,0,.9-5H37.22Z"/><path class="cls-1" d="M43.11,254.15l-.21-1a9.71,9.71,0,0,0,1.06.07c.35,0,.53-.21.53-.6v-3.43c-.56.21-1.11.41-1.65.57l-.25-1a17.52,17.52,0,0,0,1.9-.57v-3.17H42.81v-1h1.68v-2.65h1v2.65h1.34v1H45.47v2.76q.67-.29,1.3-.63v1c-.43.22-.87.42-1.3.62v4.09c0,.81-.39,1.23-1.18,1.23Zm3.74.13-.78-.7a15.34,15.34,0,0,0,1.51-7.2V242H55v3.4H52.32V247h3V248h-3v1.72h2.35v4.59h-.94v-.69h-3.8v.69H49v-4.59h2.34V248H48.49A16.34,16.34,0,0,1,46.85,254.27Zm1.71-8.88v1c0,.22,0,.45,0,.67h2.8v-1.65Zm0-2.46v1.55H54v-1.55Zm5.18,9.76v-2.12h-3.8v2.12Z"/><path class="cls-1" d="M61.06,249.3a9.61,9.61,0,0,1-.7,2.24,6.08,6.08,0,0,1-2.87,2.77l-.59-.92a5.59,5.59,0,0,0,2.66-2.61A8.39,8.39,0,0,0,60,249.3H56.77v-1h3.39a16.51,16.51,0,0,0,.14-1.93V245h-3v-1h7.07a18,18,0,0,0,1.37-2.8l1.08.39a15.05,15.05,0,0,1-1.3,2.41h3.14v1H66v3.29h3.29v1H66v4.9h-1v-4.9Zm.52-5.71-.91.45a16.28,16.28,0,0,0-1.34-2.31l.92-.45A22.26,22.26,0,0,1,61.58,243.58ZM61.32,245v1.36q0,1.05-.13,1.93h3.73V245Z"/><path class="cls-1" d="M77.45,254a9.24,9.24,0,0,1-2.21-.25,3.22,3.22,0,0,1-1.5-1,.77.77,0,0,0-.55-.35c-.34,0-.9.64-1.67,1.93l-.76-.69a5.5,5.5,0,0,1,2-2.14v-4.26h-2v-.92h2.93v5.24a2.4,2.4,0,0,1,.35.32,3.16,3.16,0,0,0,1.09.88,5.35,5.35,0,0,0,1.92.34c.74,0,1.67,0,2.77,0l2,0c.67,0,1.19,0,1.56-.06l-.24,1H80ZM74.2,243.84l-.71.7a15.38,15.38,0,0,0-2.41-2.23l.69-.66A17.35,17.35,0,0,1,74.2,243.84Zm4.86.21a13.26,13.26,0,0,0,2-1.27H74.86v-.86h7.58v.73a15.29,15.29,0,0,1-2.73,1.89l.22.18h2.77V251c0,.71-.39,1.08-1.18,1.08H80.37l-.22-.86,1.11,0c.34,0,.5-.17.5-.48v-1.05H79.4v2.41h-.94v-2.41H76.12v2.45h-1v-7.45h3.5a16.66,16.66,0,0,0-1.83-1.12l.62-.6C78,243.35,78.59,243.7,79.06,244Zm-.6,1.51H76.12v1.26h2.34Zm-2.34,3.33h2.34v-1.23H76.12Zm5.63-3.33H79.4v1.26h2.35Zm-2.35,3.33h2.35v-1.23H79.4Z"/><path class="cls-1" d="M91.63,254a9.84,9.84,0,0,1-2.3-.25,3.3,3.3,0,0,1-1.55-1,.79.79,0,0,0-.57-.35c-.34,0-.91.64-1.69,2l-.76-.67a5.51,5.51,0,0,1,2-2.18v-4.24h-2v-1h3v5.25a2.43,2.43,0,0,1,.36.32,3.87,3.87,0,0,0,1.15.88,6.16,6.16,0,0,0,2,.31c.77,0,1.74,0,2.89,0H96c.63,0,1.12,0,1.46-.06l-.25,1h-3Zm-3.52-10.16-.73.74a15.52,15.52,0,0,0-2.37-2.3l.7-.66A17.82,17.82,0,0,1,88.12,243.84Zm3.71,8.31-.22-1c.64,0,1.27.07,1.86.07a.53.53,0,0,0,.6-.57v-6H88.78v-1h5.29v-2.27h1v2.27h2.07v1H95.09v6.19a1.12,1.12,0,0,1-1.27,1.23Zm.53-3.45-.81.56a22.51,22.51,0,0,0-2-2.79l.78-.5A21.08,21.08,0,0,1,92.36,248.7Z"/><path class="cls-1" d="M103.94,242.25a16.78,16.78,0,0,1-2,2.86,14.11,14.11,0,0,1-2.8,2.4l-.55-.88a10.09,10.09,0,0,0,2.59-2.14,14.81,14.81,0,0,0,1.85-2.76ZM100.69,248v-1h8.36a42.51,42.51,0,0,1-.27,4.24,5,5,0,0,1-.69,2.24,1.93,1.93,0,0,1-1.51.67H104l-.28-1q1.22,0,2.31,0a1.42,1.42,0,0,0,1.48-1A16.56,16.56,0,0,0,108,248h-3.49a10.68,10.68,0,0,1-1.4,3.64,9.55,9.55,0,0,1-3.22,2.7l-.64-.84a9.3,9.3,0,0,0,2.93-2.31,8.61,8.61,0,0,0,1.32-3.19Zm10.66-1.32-.67.8a11.16,11.16,0,0,1-4.54-5.42l.87-.49A9.9,9.9,0,0,0,111.35,246.65Z"/><path class="cls-1" d="M115.61,245.71v6.13c.41-.38.84-.81,1.32-1.3l.27,1.08a17.58,17.58,0,0,1-2.47,2.13l-.39-.9a.82.82,0,0,0,.31-.6v-5.57h-2v-1Zm1.05-2-.69.7a15.3,15.3,0,0,0-2.41-2.17l.7-.69A16,16,0,0,1,116.66,243.72Zm5.1,10.49-.25-1,1.65,0c.46,0,.7-.25.7-.76V243h-6.7v-1h7.69v10.8c0,.92-.5,1.4-1.48,1.4Zm1.13-9.59v1h-5.41v-1Zm-.56,2.49v4.34H118v-4.34Zm-1,.88H119v2.58h2.41Z"/><path class="cls-1" d="M130,252.31a12.21,12.21,0,0,1,1.2,1.44l-.7.59a13.44,13.44,0,0,0-1.19-1.43,11.92,11.92,0,0,0-1.55-1.41l.63-.59A11,11,0,0,1,130,252.31Z"/><path class="cls-1" d="M143.66,245.71V252c.55-.42,1.13-.92,1.75-1.48l.25,1.06a21.49,21.49,0,0,1-2.87,2.17l-.39-.91a.76.76,0,0,0,.29-.59v-5.59h-2.06v-1Zm1-2-.69.7a15.3,15.3,0,0,0-2.41-2.17l.7-.69A16,16,0,0,1,144.66,243.72Zm8.28,9.46a1.74,1.74,0,0,1-1.58.64h-3.63a1.17,1.17,0,0,1-1.3-1.34v-6.12h5v-3.26h-5.66v-1h6.63v5.21h-5v4.79a.66.66,0,0,0,.71.74h3.05a1,1,0,0,0,1.05-.57,9.44,9.44,0,0,0,.31-2.24l1,.34A7.58,7.58,0,0,1,152.94,253.18Z"/><path class="cls-1" d="M164.49,242v4.55H167v.91h-5.59V249a11.52,11.52,0,0,0,1.08,1.11,7.92,7.92,0,0,0,2.59-2.39l.77.64a8.3,8.3,0,0,1-2.68,2.31,17.63,17.63,0,0,0,3.87,2.25l-.5.9a15.12,15.12,0,0,1-5.13-3.7V253c0,.84-.38,1.26-1.11,1.26h-1.61l-.21-1c.52,0,1,.07,1.48.07.28,0,.43-.21.43-.62v-2.56a25.28,25.28,0,0,1-5.15,3.56l-.41-.94a22.14,22.14,0,0,0,5.56-3.67v-1.75H155v-.91h8.46v-1.36h-6.58v-.88h6.58v-1.4h-7.06V242Zm-5.83,7.77-.64.66a13.49,13.49,0,0,0-2.17-1.79l.67-.64A14.49,14.49,0,0,1,158.66,249.73Z"/><path class="cls-1" d="M170,242.67v4.15a2.56,2.56,0,0,1,2.33-1.39,2.47,2.47,0,0,1,1.95.74,3.06,3.06,0,0,1,.67,2.13v4.57h-1.12v-4.4a2.34,2.34,0,0,0-.48-1.55,1.8,1.8,0,0,0-1.4-.55,1.71,1.71,0,0,0-1.39.67,2.56,2.56,0,0,0-.56,1.7v4.13h-1.12v-10.2Z"/><path class="cls-1" d="M182.1,246.25a2.88,2.88,0,0,1,.64,2v4.65H181.7v-1.22a3.39,3.39,0,0,1-1.11,1,3.69,3.69,0,0,1-1.81.45,2.61,2.61,0,0,1-1.74-.55,1.83,1.83,0,0,1-.67-1.46,2,2,0,0,1,1-1.86,4.64,4.64,0,0,1,2.52-.62l1.74,0v-.38c0-1.22-.63-1.82-1.89-1.82a2.3,2.3,0,0,0-1.3.32,1.57,1.57,0,0,0-.73,1l-1.11-.08a2.48,2.48,0,0,1,1.12-1.69,3.83,3.83,0,0,1,2.09-.5A3,3,0,0,1,182.1,246.25ZM180,249.42c-1.62,0-2.44.56-2.44,1.61a1,1,0,0,0,.41.83,1.77,1.77,0,0,0,1.09.32,2.74,2.74,0,0,0,1.82-.67,1.93,1.93,0,0,0,.78-1.5v-.62Z"/><path class="cls-1" d="M190,247.69h-1.09a1.55,1.55,0,0,0-.56-1,2.25,2.25,0,0,0-1.33-.34,2,2,0,0,0-1.18.28.84.84,0,0,0-.46.76c0,.31.2.57.62.78a10.47,10.47,0,0,0,1.5.48,6.64,6.64,0,0,1,1.86.67,1.68,1.68,0,0,1,.87,1.49c0,1.48-1,2.24-3.07,2.24s-2.94-.84-3.11-2.51h1.09a1.87,1.87,0,0,0,.6,1.23,2.36,2.36,0,0,0,1.39.34c1.29,0,1.95-.42,1.95-1.23a1,1,0,0,0-.69-.94,10.79,10.79,0,0,0-1.54-.46,6.22,6.22,0,0,1-1.79-.64,1.55,1.55,0,0,1-.83-1.42,1.66,1.66,0,0,1,.81-1.46,3.35,3.35,0,0,1,2-.55C188.83,245.43,189.82,246.17,190,247.69Z"/><path class="cls-1" d="M192.67,242.67v4.15a2.56,2.56,0,0,1,2.33-1.39,2.47,2.47,0,0,1,1.95.74,3.06,3.06,0,0,1,.67,2.13v4.57h-1.12v-4.4a2.34,2.34,0,0,0-.48-1.55,1.8,1.8,0,0,0-1.4-.55,1.71,1.71,0,0,0-1.39.67,2.56,2.56,0,0,0-.56,1.7v4.13h-1.12v-10.2Z"/><path class="cls-1" d="M202.5,252.31a12.21,12.21,0,0,1,1.2,1.44l-.7.59a13.44,13.44,0,0,0-1.19-1.43,11.92,11.92,0,0,0-1.55-1.41l.63-.59A11,11,0,0,1,202.5,252.31Z"/><path class="cls-1" d="M216.5,241.47v2.83h2.86q0,6.56-.21,8.11a1.83,1.83,0,0,1-2.06,1.74c-.21,0-.56,0-1.06-.06l-.25-.93c.45,0,.84.06,1.18.06.71,0,1.13-.41,1.25-1.21s.14-3,.17-6.74H216.5q-.08,6.2-2.77,9l-.74-.66q2.44-2.63,2.51-8.39h-2.24v-1h2.24v-2.83Zm8.73,12.59h-1v-.94h-2.63v.94h-1V243.51h4.58Zm-1-1.9v-7.68h-2.63v7.68Z"/><path class="cls-1" d="M230.48,254.21h-1v-7.27a15.22,15.22,0,0,1-2,4l-.45-1.13a12.42,12.42,0,0,0,2.47-4.68h-2.17v-1h2.2v-2.73h1v2.73h1.85v1h-1.85v.8a30.67,30.67,0,0,1,2.13,2.28l-.57.85q-.9-1.3-1.56-2.1Zm2.75-11h-.56v-1H239v1a17.69,17.69,0,0,1-2.38,6.75,15.39,15.39,0,0,0,3.39,3.43l-.69.81a16.65,16.65,0,0,1-3.29-3.39,13.79,13.79,0,0,1-3.6,3.38l-.64-.81a13.89,13.89,0,0,0,3.64-3.46A14.78,14.78,0,0,1,233.23,243.25Zm1,0A13.1,13.1,0,0,0,236,249a15.83,15.83,0,0,0,2-5.8Z"/><path class="cls-1" d="M244.5,252.31a12.21,12.21,0,0,1,1.2,1.44l-.7.59a13.44,13.44,0,0,0-1.19-1.43,11.92,11.92,0,0,0-1.55-1.41l.63-.59A11,11,0,0,1,244.5,252.31Z"/><path class="cls-1" d="M261.83,241.41a20.12,20.12,0,0,0,6.16,4.86l-.55,1a19.79,19.79,0,0,1-6-4.92,20.38,20.38,0,0,1-6,4.95l-.53-1a20.65,20.65,0,0,0,6.21-4.89Zm4.06,12.85h-1v-.84H258v.84h-1v-5.65h8.85Zm-.78-8.39v1h-7.28v-1Zm-.2,6.58v-2.89H258v2.89Z"/><path class="cls-1" d="M273.52,249.3a9.61,9.61,0,0,1-.7,2.24,6.08,6.08,0,0,1-2.87,2.77l-.59-.92a5.59,5.59,0,0,0,2.66-2.61,8.39,8.39,0,0,0,.45-1.48h-3.24v-1h3.39a16.51,16.51,0,0,0,.14-1.93V245h-3v-1h7.07a18,18,0,0,0,1.37-2.8l1.08.39a15.05,15.05,0,0,1-1.3,2.41h3.14v1h-2.75v3.29h3.29v1h-3.29v4.9h-1v-4.9Zm.52-5.71-.91.45a16.28,16.28,0,0,0-1.34-2.31l.92-.45A22.26,22.26,0,0,1,274,243.58Zm-.25,1.46v1.36q0,1.05-.13,1.93h3.73V245Z"/><path class="cls-1" d="M286.5,252.31a12.21,12.21,0,0,1,1.2,1.44l-.7.59a13.44,13.44,0,0,0-1.19-1.43,11.92,11.92,0,0,0-1.55-1.41l.63-.59A11,11,0,0,1,286.5,252.31Z"/><path class="cls-1" d="M301.76,242v.8q-.63,1.89-1.47,4a6.68,6.68,0,0,1,1.39,3.36,1.63,1.63,0,0,1-.42,1.26,3.18,3.18,0,0,1-2,.5l-.32-1a4.67,4.67,0,0,0,.55.06,2.18,2.18,0,0,0,1-.2.68.68,0,0,0,.24-.59,5.45,5.45,0,0,0-1.4-3.21,35.74,35.74,0,0,0,1.47-4h-2.21v11.3h-1V242Zm3.5-.41c-.18.34-.36.64-.55.94h4.09v.8a6.07,6.07,0,0,1-2.13,2.37,15.51,15.51,0,0,0,3.21.9l-.35.9a13.91,13.91,0,0,1-3.84-1.22A16.8,16.8,0,0,1,302,247.6l-.48-.88a16,16,0,0,0,3.28-1,6,6,0,0,1-1.48-1.4,12.45,12.45,0,0,1-1.11,1l-.63-.76a9.35,9.35,0,0,0,2.77-3.17Zm-2.48,8,.91.14-.39,1.4h2.23v-2h-3.38v-.91h3.38v-1h1v1H309v.91h-2.52v2h3V252h-3v2.21h-1V252h-3.4Zm4.93-6.18h-3.63a3.15,3.15,0,0,0-.2.25,5.28,5.28,0,0,0,1.83,1.58A5.76,5.76,0,0,0,307.71,243.42Z"/><path class="cls-1" d="M316,252.44a27.84,27.84,0,0,1-4.73,1.3l-.13-1a25.25,25.25,0,0,0,4.86-1.26Zm-1.57-10.67a23.91,23.91,0,0,1-2,4.31c.57-.08,1.16-.18,1.75-.31l.77-1.65.88.34a35.57,35.57,0,0,1-2.91,5.17,16.5,16.5,0,0,0,2.76-.94v.93a18.64,18.64,0,0,1-4,1.16l-.28-.92a1.51,1.51,0,0,0,.46-.28,15.69,15.69,0,0,0,1.79-2.87c-.73.14-1.47.28-2.23.41l-.25-.92a1.05,1.05,0,0,0,.42-.38,24.76,24.76,0,0,0,1.82-4.41ZM318,254.24h-1V246a19.9,19.9,0,0,1-1.27,1.92l-.31-1a16.37,16.37,0,0,0,2.35-5.41l1,.2a18.05,18.05,0,0,1-.7,2.17h2.55a19.05,19.05,0,0,0-.8-2.17l1-.27c.31.84.56,1.6.74,2.3l-.38.14h2.54v1h-2.23v1.91h2v.94h-2v1.91h2v.92h-2v2.13h2.51v.94h-6Zm0-9.47v1.91h2.48v-1.91Zm0,4.75h2.48v-1.91H318Zm0,3.05h2.48v-2.13H318Z"/><path class="cls-1" d="M328.5,252.31a12.21,12.21,0,0,1,1.2,1.44l-.7.59a13.44,13.44,0,0,0-1.19-1.43,11.92,11.92,0,0,0-1.55-1.41l.63-.59A11,11,0,0,1,328.5,252.31Z"/><path class="cls-1" d="M339.86,253.12a.67.67,0,0,0,.34-.6V241.66h1v3.91h3.6v1h-3.6v6.28c1.23-.28,2.45-.63,3.67-1l.27,1c-1.54.49-3.21.92-5,1.32Zm7-.83a.54.54,0,0,0,.62.62h2.1a.9.9,0,0,0,.66-.25,5.2,5.2,0,0,0,.43-2.49l1,.31a6.49,6.49,0,0,1-.63,3,1.67,1.67,0,0,1-1.18.45H347.2a1.22,1.22,0,0,1-1.34-1.4V241.59h1V246a19.4,19.4,0,0,0,4-1.65l.6.83a25.14,25.14,0,0,1-4.61,1.78Z"/><path class="cls-1" d="M356.72,245.28v2.13H358v.91h-1.3v1.9l1.71-.43v1c-.55.15-1.12.29-1.71.43v3.08h-1v-2.87c-.83.17-1.7.31-2.59.43l-.13-1c1-.13,1.86-.27,2.72-.42v-2.1H353.5l-.21-.88a20.55,20.55,0,0,0,1.08-3.19h-1.29v-1h1.53c.13-.59.25-1.22.38-1.86l.94.15c-.11.6-.24,1.18-.36,1.71H358v1h-2.7a25.72,25.72,0,0,1-1,3.17h1.44v-2.13Zm7.41,2.3a9.53,9.53,0,0,1-1.37,3.66,10.07,10.07,0,0,0,3.24,2.11l-.52.9a10.17,10.17,0,0,1-3.33-2.2,7.56,7.56,0,0,1-3.73,2.27l-.56-.88a7.11,7.11,0,0,0,3.61-2.16,8,8,0,0,1-1.51-3.63l.88-.27a6.73,6.73,0,0,0,1.23,3.07,9,9,0,0,0,1.11-3.07Zm-3-2.44a16.35,16.35,0,0,1-2.1,3.63l-.8-.58a14.45,14.45,0,0,0,2-3.46Zm.45-1.91a14,14,0,0,0-.73-1.65l1-.17a15.47,15.47,0,0,1,.71,1.82h3.11v1h-7.13v-1Zm4.29,4.86-.81.57a30.16,30.16,0,0,0-2.24-3.5l.77-.49A31.27,31.27,0,0,1,365.87,248.09Z"/><path class="cls-1" d="M370,246.85l-.71.71a13.43,13.43,0,0,0-2.16-1.79l.73-.7A16.06,16.06,0,0,1,370,246.85Zm.17,2.66a40.41,40.41,0,0,1-2,4.58l-.94-.41a39.5,39.5,0,0,0,2.06-4.51Zm.06-6.12-.71.73a12,12,0,0,0-2.16-1.76l.73-.69A14,14,0,0,1,370.23,243.39Zm1.48,1.23h7.12c0,1.23-.08,2.33-.11,3.28h1.19v.94h-1.23c-.06,1-.1,1.85-.14,2.49h1.15v.87h-1.22a6.28,6.28,0,0,1-.11.74,1.7,1.7,0,0,1-.8,1,3.9,3.9,0,0,1-1.71.29h-1.22l-.29-.92c.5,0,1,.06,1.39.06a4.62,4.62,0,0,0,1-.11,1.07,1.07,0,0,0,.67-.63,2.35,2.35,0,0,0,.08-.45h-6.67c.22-1.12.42-2.24.56-3.36H370v-.94h1.5c.11-1.08.18-2.17.21-3.26a11.25,11.25,0,0,1-.92,1l-.64-.77a10.13,10.13,0,0,0,2.33-3.59l1,.21c-.14.35-.29.69-.45,1h6.47v.94h-7A13.7,13.7,0,0,1,371.72,244.62Zm.24,6.71h5.63c0-.63.08-1.46.14-2.49h-5.38C372.23,249.73,372.11,250.57,372,251.33Zm5.9-5.81h-5.24c0,.84-.1,1.64-.17,2.38h5.32C377.8,247.17,377.82,246.37,377.85,245.52Zm-1.74,5-.66.64a11.49,11.49,0,0,0-1.72-1.54l.63-.62A12.26,12.26,0,0,1,376.12,250.52Zm.14-3.39-.64.64a10,10,0,0,0-1.75-1.4l.63-.62A11.25,11.25,0,0,1,376.26,247.13Z"/><path class="cls-1" d="M385.83,251.89h-3.15V253h-1V242.22h4.16Zm-1-5.39v-3.28h-2.19v3.28Zm0,4.4v-3.43h-2.19v3.43Zm1.79,3.43-.8-.73a8.63,8.63,0,0,0,1.5-5.1v-6.61h5.74v11a1.14,1.14,0,0,1-1.29,1.27H390l-.27-1c.64,0,1.23.06,1.78.06.39,0,.59-.24.59-.7v-2.88h-3.77A9.14,9.14,0,0,1,386.66,254.33Zm5.42-11.47h-3.71v2.46h3.71Zm-3.71,5.83h3.71v-2.42h-3.71Z"/><path class="cls-1" d="M400.11,242v4.43h-1.39v2.18h1.55v1h-1.55v2.58l1.85-.55v1a54.16,54.16,0,0,1-5.32,1.39l-.28-1,.77-.15v-5h.9v4.82l1.15-.27v-6h-2V242Zm-1,.94h-2.38v2.55h2.38Zm3.08,7.12v2.72h5.46v1h-6.43V241.95h6.22v1h-5.25v2.38H407v4.76Zm0-.94H406v-2.9h-3.81Z"/><path class="cls-1" d="M416.13,242.49h5.35v.94h-12v-.94h5.66a11,11,0,0,0-.49-1l1-.17A8.31,8.31,0,0,1,416.13,242.49Zm2.84,1.58h1V248h-4.5c-.11.35-.22.67-.34,1h5.7v4.17a1,1,0,0,1-1.18,1.15h-1.18l-.25-1,1.11,0c.35,0,.53-.15.53-.45v-3.05h-2.56a27.17,27.17,0,0,1,1.58,2.76L418,253c-.13-.28-.25-.53-.36-.77-1.08.2-2.79.43-5.13.7l-.24-.91a.66.66,0,0,0,.43-.17,13.41,13.41,0,0,0,1-2h-2.66v4.41h-1v-5.32h4c.11-.31.21-.64.32-1H411v-3.88h1v3h7Zm-3.22.8a10.4,10.4,0,0,0,1.57-1.2l.71.43a14.76,14.76,0,0,1-1.46,1.18c.6.31,1.18.64,1.74,1l-.46.7a22.59,22.59,0,0,0-2.06-1.21A17.73,17.73,0,0,1,413,247l-.45-.73a12.69,12.69,0,0,0,2.34-.91,23.23,23.23,0,0,0-2.14-.9l.43-.64C414.09,244.12,414.94,244.48,415.75,244.87Zm-1,5a18.21,18.21,0,0,1-1,2.09c1.23-.12,2.41-.28,3.53-.48-.28-.49-.55-.94-.81-1.36l.52-.25Z"/><path class="cls-1" d="M429,245.56v-.88h1v.88h4.12v.88H430v1.36h5.72v.88H433V250h2.1v.88H433v2.2c0,.77-.42,1.16-1.25,1.16h-2l-.21-1c.67,0,1.3.07,1.89.07.39,0,.59-.18.59-.52v-2h-7.91V250H432v-1.35h-8.74v-.88H429v-1.36h-4.17v-.88Zm-4.83-.48-.87-.55a9.57,9.57,0,0,0,1.79-3.18l1,.21c-.11.31-.21.6-.32.88h3.59v.85H426.9a11,11,0,0,1,.88,1.36l-.91.34a11.16,11.16,0,0,0-1-1.7h-.56A10.5,10.5,0,0,1,424.13,245.08Zm4,8.17-.78.55a17.07,17.07,0,0,0-1.75-2l.81-.5A13.82,13.82,0,0,1,428.15,253.25Zm2-8.7-.84-.53a8,8,0,0,0,1.33-2.68l1,.2c-.08.29-.18.59-.28.87h4v.86h-2.54a8.5,8.5,0,0,1,.88,1.37l-.87.32a10.37,10.37,0,0,0-1.06-1.7H431A9.6,9.6,0,0,1,430.2,244.55Z"/><path class="cls-1" d="M439.22,244.14v-2.69h1v2.69h1.46v1h-1.46v1.15q.71.86,1.43,1.85a13.3,13.3,0,0,0,2.17-3.33l.84.42a15.07,15.07,0,0,1-2.27,3.54l-.6-.43.32.46-.55.8q-.78-1.47-1.34-2.39v7h-1v-7.12a15.38,15.38,0,0,1-1.83,3.73l-.42-1.09a12.62,12.62,0,0,0,2.24-4.61h-1.89v-1Zm8.75,3.39a9.46,9.46,0,0,1-1.5,3.81,11,11,0,0,0,3.45,2l-.5.9a11.59,11.59,0,0,1-3.56-2.13,8.08,8.08,0,0,1-3.77,2.21l-.57-.91a7.38,7.38,0,0,0,3.61-2,7.61,7.61,0,0,1-1.72-3.67l.88-.27a6.27,6.27,0,0,0,1.46,3.17,8.38,8.38,0,0,0,1.27-3.26Zm-2.48-4.3a13,13,0,0,0-.83-1.78l1-.17a16.31,16.31,0,0,1,.81,1.95h3.1v1h-7.54v-1Zm4.36,4.83-.84.57a27.23,27.23,0,0,0-2.34-3.43l.78-.49A27.84,27.84,0,0,1,449.85,248.07Z"/><path class="cls-1" d="M454.12,250.9a19,19,0,0,1-3.12.85l-.13-1a18.78,18.78,0,0,0,3.25-.81Zm-2.87-7.9v-.92h4.4l-.67,5.77h.87c0,3.19-.14,5-.41,5.52a1.85,1.85,0,0,1-1.74.73c-.32,0-.66,0-1,0l-.27-.9c.49.06.84.08,1,.08.67,0,1.08-.22,1.22-.64a18.77,18.77,0,0,0,.22-3.85h-3.57l.66-4.8.92.06-.56,3.85H454l.62-4.85Zm5.08,4-.53-.81a11.84,11.84,0,0,0,3.63-4.75h.92a11,11,0,0,0,3.67,4.69l-.55.84a12.64,12.64,0,0,1-1.61-1.47v.87h-3.94v-.87A12.19,12.19,0,0,1,456.33,247Zm4.43,5.77a37.64,37.64,0,0,0,1.43-5.53l1,.24a35.91,35.91,0,0,1-1.42,5.29h2.12v1h-7.65v-1Zm-2.06-1.11-.87.21a27.27,27.27,0,0,0-1.21-3.94l.87-.29A32.41,32.41,0,0,1,458.7,251.71Zm1.19-9.25a13.31,13.31,0,0,1-1.92,3h3.85A11.54,11.54,0,0,1,459.89,242.46Zm.78,8.64-.88.21a27,27,0,0,0-1-3.77l.87-.27A33.74,33.74,0,0,1,460.68,251.11Z"/><path class="cls-1" d="M468.23,254.26h-1v-7.1a15.3,15.3,0,0,1-1.83,3.64l-.39-1a13,13,0,0,0,2.2-4.66h-1.95v-1h2v-2.73h1v2.73H470v1h-1.81v.74a29.11,29.11,0,0,1,1.93,2.26l-.55.81c-.53-.81-1-1.49-1.39-2Zm9,0h-1v-.87h-4.59v.88h-1v-12h6.54Zm-1-8.66v-2.41h-4.59v2.41Zm0,3.42v-2.48h-4.59V249Zm0,3.42V250h-4.59v2.48Z"/><path class="cls-1" d="M479.23,248.3l-.34-1.06a16.08,16.08,0,0,0,3.22-5.88l.94.45a16.87,16.87,0,0,1-1.23,2.9v9.5h-1v-7.9A19.7,19.7,0,0,1,479.23,248.3Zm3.82,3c.42-.15.64-.36.64-.63v-8.94h1v9.06a16.63,16.63,0,0,0,2-1l.25.88a23.73,23.73,0,0,1-3.6,1.51Zm7.37-9.86a30.49,30.49,0,0,1-.66,6.82,12.47,12.47,0,0,1-.46,1.5,31,31,0,0,1,2.69,3.77l-.8.55a32.91,32.91,0,0,0-2.28-3.4,10.5,10.5,0,0,1-3,3.59l-.64-.8a9.7,9.7,0,0,0,3.49-5.24,28.3,28.3,0,0,0,.67-6.78Zm-2.37,5.17-.83.38a23,23,0,0,0-1.64-3.67l.81-.27A25,25,0,0,1,488.06,246.65Z"/><path class="cls-1" d="M495.31,247.09a15.92,15.92,0,0,1-1.51,7.14l-.76-.67a14.47,14.47,0,0,0,1.26-6.47v-4.57h5.39a8.28,8.28,0,0,0-.53-1l1.06-.17c.17.35.34.74.49,1.16h4.8v1H495.31v1.6h2.35v-1.13h1v1.13h3.71v-1.15h1v1.15h2.16V246h-2.16v2.19h-5.67V246h-2.35Zm9,2v.74a10.84,10.84,0,0,1-2.87,2.45,17.14,17.14,0,0,0,4.38,1.13l-.43.87a17.16,17.16,0,0,1-4.9-1.49,18.49,18.49,0,0,1-4.9,1.49l-.43-.88a17.91,17.91,0,0,0,4.34-1.15A9,9,0,0,1,497,250h-.85v-.87Zm-3.88,2.72A10.91,10.91,0,0,0,503,250h-5A8.27,8.27,0,0,0,500.45,251.85Zm-1.81-4.52h3.71V246h-3.71Z"/><line class="cls-2" y1="412.54" x2="595.02" y2="412.54"/><line class="cls-2" y1="101.88" x2="904.75" y2="101.88"/><line class="cls-2" y1="235.22" x2="808.36" y2="235.22"/><line class="cls-2" y1="321.84" x2="690.04" y2="321.84"/><line class="cls-2" y1="506.22" x2="470.96" y2="506.22"/><path class="cls-1" d="M6.59,79.52c3.1,0,4.66,1.31,4.66,3.94s-1.57,4-4.7,4H3.37v4.93H1.26V79.52ZM3.37,85.64H6.43a3.43,3.43,0,0,0,2.05-.5,2,2,0,0,0,.65-1.67,1.92,1.92,0,0,0-.67-1.64,3.28,3.28,0,0,0-2-.5H3.37Z"/><path class="cls-1" d="M20.59,84.2a5.49,5.49,0,0,1,0,7,4.45,4.45,0,0,1-3.42,1.4,4.43,4.43,0,0,1-3.42-1.4,5.49,5.49,0,0,1,0-7,4.35,4.35,0,0,1,3.4-1.39A4.4,4.4,0,0,1,20.59,84.2Zm-5.38,1.3a3.89,3.89,0,0,0-.59,2.23,3.83,3.83,0,0,0,.59,2.21,2.45,2.45,0,0,0,4,0,4.34,4.34,0,0,0,0-4.45,2.25,2.25,0,0,0-2-1A2.23,2.23,0,0,0,15.21,85.49Z"/><path class="cls-1" d="M26.07,79.64a1.33,1.33,0,0,1,.4,1,1.31,1.31,0,0,1-.41,1,1.48,1.48,0,0,1-2,0,1.33,1.33,0,0,1-.4-1,1.26,1.26,0,0,1,.4-1,1.39,1.39,0,0,1,1-.38A1.43,1.43,0,0,1,26.07,79.64Zm0,3.42v9.31H24V83.06Z"/><path class="cls-1" d="M36.92,86.63v5.74H34.87V86.81c0-1.53-.7-2.29-2.11-2.29a1.88,1.88,0,0,0-1.33.54,2.58,2.58,0,0,0-.76,1.71v5.6H28.62V83.06h2.05v1.08a3.72,3.72,0,0,1,1.22-1,3.34,3.34,0,0,1,1.53-.34C35.75,82.81,36.92,84.07,36.92,86.63Z"/><path class="cls-1" d="M42,83.06h2.07v1.69H42V90a.73.73,0,0,0,.14.5.62.62,0,0,0,.47.16h1.22v1.69H42.26a2.25,2.25,0,0,1-1.78-.65A2.43,2.43,0,0,1,39.94,90V84.75H38.27V83.06h1.67V80.9L42,80.06Z"/><path class="cls-1" d="M53.86,80.2a4.12,4.12,0,0,1,1.55,3.12H53.32a2.81,2.81,0,0,0-1-1.71,3.5,3.5,0,0,0-2.12-.52,4,4,0,0,0-1.86.34,1.37,1.37,0,0,0-.79,1.33,1.46,1.46,0,0,0,.9,1.31,18.17,18.17,0,0,0,2.2.79A20.15,20.15,0,0,1,54,86.12,3.08,3.08,0,0,1,55.7,88.9a3.23,3.23,0,0,1-1.35,2.74,6.46,6.46,0,0,1-3.82,1,6.46,6.46,0,0,1-3.71-.92,4.39,4.39,0,0,1-1.76-3.58h2.09a3,3,0,0,0,1,2.09,4,4,0,0,0,2.34.56,4.58,4.58,0,0,0,2.23-.47A1.46,1.46,0,0,0,53.59,89a1.83,1.83,0,0,0-1.21-1.62,24.15,24.15,0,0,0-2.5-.85,20.89,20.89,0,0,1-3-1.08,2.84,2.84,0,0,1-1.48-2.59,3,3,0,0,1,1.44-2.68,5.81,5.81,0,0,1,3.42-.94A5.85,5.85,0,0,1,53.86,80.2Z"/><path class="cls-1" d="M64.78,84.36a6.21,6.21,0,0,1,1.12,3.93h-7a3.37,3.37,0,0,0,.7,2,2.17,2.17,0,0,0,1.71.68,2.53,2.53,0,0,0,1.53-.43,3.09,3.09,0,0,0,.83-1.13h2.05a4.23,4.23,0,0,1-1.3,2.18,4.62,4.62,0,0,1-3.1,1.06,4.35,4.35,0,0,1-3.29-1.28,5,5,0,0,1-1.3-3.64A5,5,0,0,1,58,84.23a4,4,0,0,1,3.28-1.42A4.17,4.17,0,0,1,64.78,84.36Zm-5.06.7A3,3,0,0,0,59,86.74h4.79a2.23,2.23,0,0,0-2.43-2.25A2.14,2.14,0,0,0,59.72,85.06Z"/><path class="cls-1" d="M70.43,83.06H72.5v1.69H70.43V90a.73.73,0,0,0,.14.5.62.62,0,0,0,.47.16h1.22v1.69H70.7a2.25,2.25,0,0,1-1.78-.65A2.43,2.43,0,0,1,68.38,90V84.75H66.71V83.06h1.67V80.9l2.05-.85Z"/><path class="cls-1" d="M89.53,80.45a4.75,4.75,0,0,1,1.69,3.1H89.17A3,3,0,0,0,88,81.69a3.82,3.82,0,0,0-2.21-.58,3.51,3.51,0,0,0-3,1.39A5.6,5.6,0,0,0,81.77,86a5.72,5.72,0,0,0,.92,3.49,4.26,4.26,0,0,0,5.37.65,4,4,0,0,0,1.3-2.2h2.05a5.68,5.68,0,0,1-2,3.53,5.53,5.53,0,0,1-3.57,1.19,5.73,5.73,0,0,1-4.79-2,8.46,8.46,0,0,1,.05-9.31,5.62,5.62,0,0,1,4.7-2A5.76,5.76,0,0,1,89.53,80.45Z"/><path class="cls-1" d="M95.26,79.26v5a3.25,3.25,0,0,1,1.28-1.15,3.34,3.34,0,0,1,1.57-.34,3.12,3.12,0,0,1,2.54,1,4.32,4.32,0,0,1,.79,2.81v5.76H99.38V87a3,3,0,0,0-.47-1.82,1.89,1.89,0,0,0-1.58-.67,1.75,1.75,0,0,0-1.51.76,3.1,3.1,0,0,0-.56,1.93v5.2H93.2V79.26Z"/><path class="cls-1" d="M110.86,83.84a3.58,3.58,0,0,1,.86,2.59v5.94h-1.91V91.15a3.64,3.64,0,0,1-1.33,1.06,5.05,5.05,0,0,1-2.11.41,3.35,3.35,0,0,1-2.29-.74,2.42,2.42,0,0,1-.86-1.91,2.72,2.72,0,0,1,1.22-2.41,5.68,5.68,0,0,1,3.19-.86l2-.05v-.36c0-1.22-.67-1.82-2-1.82a2.53,2.53,0,0,0-1.37.31,1.62,1.62,0,0,0-.77,1.08l-2-.16A3.14,3.14,0,0,1,105,83.44a5.24,5.24,0,0,1,2.81-.63A4,4,0,0,1,110.86,83.84Zm-3.08,4.34c-1.64,0-2.45.61-2.45,1.73a1,1,0,0,0,.41.81,1.78,1.78,0,0,0,1.1.34,3,3,0,0,0,2-.68,2.27,2.27,0,0,0,.83-1.78v-.47Z"/><path class="cls-1" d="M116.28,79.64a1.33,1.33,0,0,1,.4,1,1.31,1.31,0,0,1-.41,1,1.48,1.48,0,0,1-2,0,1.33,1.33,0,0,1-.4-1,1.26,1.26,0,0,1,.4-1,1.39,1.39,0,0,1,1-.38A1.43,1.43,0,0,1,116.28,79.64Zm0,3.42v9.31h-2.05V83.06Z"/><path class="cls-1" d="M127.14,86.63v5.74h-2.05V86.81c0-1.53-.7-2.29-2.11-2.29a1.88,1.88,0,0,0-1.33.54,2.58,2.58,0,0,0-.76,1.71v5.6h-2.05V83.06h2.05v1.08a3.72,3.72,0,0,1,1.22-1,3.34,3.34,0,0,1,1.53-.34C126,82.81,127.14,84.07,127.14,86.63Z"/><path class="cls-1" d="M6.59,212.5c3.1,0,4.66,1.31,4.66,3.94s-1.57,4-4.7,4H3.37v4.93H1.26V212.5Zm-3.22,6.12H6.43a3.43,3.43,0,0,0,2.05-.5,2,2,0,0,0,.65-1.67,1.92,1.92,0,0,0-.67-1.64,3.28,3.28,0,0,0-2-.5H3.37Z"/><path class="cls-1" d="M20.59,217.19a5.49,5.49,0,0,1,0,7,4.45,4.45,0,0,1-3.42,1.4,4.43,4.43,0,0,1-3.42-1.4,5.49,5.49,0,0,1,0-7,4.35,4.35,0,0,1,3.4-1.39A4.4,4.4,0,0,1,20.59,217.19Zm-5.38,1.3a3.89,3.89,0,0,0-.59,2.23,3.83,3.83,0,0,0,.59,2.21,2.45,2.45,0,0,0,4,0,4.34,4.34,0,0,0,0-4.45,2.25,2.25,0,0,0-2-1A2.23,2.23,0,0,0,15.21,218.48Z"/><path class="cls-1" d="M32,219.62v5.74H29.92V219.8c0-1.53-.7-2.29-2.11-2.29a1.88,1.88,0,0,0-1.33.54,2.57,2.57,0,0,0-.76,1.71v5.6H23.67v-9.31h2.05v1.08a3.72,3.72,0,0,1,1.22-1,3.35,3.35,0,0,1,1.53-.34C30.8,215.8,32,217.06,32,219.62Z"/><path class="cls-1" d="M36.52,212.63a1.33,1.33,0,0,1,.4,1,1.31,1.31,0,0,1-.41,1,1.48,1.48,0,0,1-2,0,1.33,1.33,0,0,1-.4-1,1.26,1.26,0,0,1,.4-1,1.39,1.39,0,0,1,1-.38A1.43,1.43,0,0,1,36.52,212.63Zm0,3.42v9.31H34.49v-9.31Z"/><path class="cls-1" d="M42,216.05h2.07v1.69H42V223a.73.73,0,0,0,.14.5.62.62,0,0,0,.47.16h1.22v1.69H42.26a2.25,2.25,0,0,1-1.78-.65,2.43,2.43,0,0,1-.54-1.71v-5.26H38.27v-1.69h1.67v-2.16L42,213Z"/><path class="cls-1" d="M61.09,213.44a4.75,4.75,0,0,1,1.69,3.1H60.73a3,3,0,0,0-1.21-1.85,3.82,3.82,0,0,0-2.21-.58,3.51,3.51,0,0,0-3,1.39,5.6,5.6,0,0,0-.94,3.46,5.72,5.72,0,0,0,.92,3.49,4.26,4.26,0,0,0,5.37.65,4,4,0,0,0,1.3-2.2H63a5.68,5.68,0,0,1-2,3.53,5.53,5.53,0,0,1-3.57,1.19,5.73,5.73,0,0,1-4.79-2,8.46,8.46,0,0,1,.05-9.31,5.62,5.62,0,0,1,4.7-2A5.76,5.76,0,0,1,61.09,213.44Z"/><path class="cls-1" d="M66.82,212.25v5a3.25,3.25,0,0,1,1.28-1.15,3.34,3.34,0,0,1,1.57-.34,3.12,3.12,0,0,1,2.54,1A4.32,4.32,0,0,1,73,219.6v5.76H70.94V220a3,3,0,0,0-.47-1.82,1.9,1.9,0,0,0-1.58-.67,1.75,1.75,0,0,0-1.51.76,3.1,3.1,0,0,0-.56,1.93v5.2H64.76V212.25Z"/><path class="cls-1" d="M82.62,217.35a6.21,6.21,0,0,1,1.12,3.93h-7a3.37,3.37,0,0,0,.7,2,2.17,2.17,0,0,0,1.71.68,2.53,2.53,0,0,0,1.53-.43,3.09,3.09,0,0,0,.83-1.13h2.05a4.23,4.23,0,0,1-1.3,2.18,4.62,4.62,0,0,1-3.1,1.06,4.35,4.35,0,0,1-3.29-1.28,5,5,0,0,1-1.3-3.64,5,5,0,0,1,1.22-3.48,4,4,0,0,1,3.28-1.42A4.17,4.17,0,0,1,82.62,217.35Zm-5.06.7a3,3,0,0,0-.76,1.67H81.6a2.23,2.23,0,0,0-2.43-2.25A2.14,2.14,0,0,0,77.56,218Z"/><path class="cls-1" d="M92.41,216.61a3.91,3.91,0,0,1,1.39,2.61h-2a2.19,2.19,0,0,0-.74-1.31,2.41,2.41,0,0,0-1.49-.43,2.09,2.09,0,0,0-1.78.85,3.79,3.79,0,0,0-.65,2.36,4,4,0,0,0,.63,2.41,2.3,2.3,0,0,0,4.07-1.19h2a4.48,4.48,0,0,1-1.44,2.81,4.42,4.42,0,0,1-2.9.9,4.15,4.15,0,0,1-3.35-1.4A5.19,5.19,0,0,1,85,220.7a5.11,5.11,0,0,1,1.13-3.44,4.18,4.18,0,0,1,3.4-1.46A4.68,4.68,0,0,1,92.41,216.61Z"/><path class="cls-1" d="M97.51,212.25v7.49l3.82-3.69H104l-4.12,3.85,4.48,5.46H101.7l-3.26-4.14-.94.88v3.26H95.45V212.25Z"/><path class="cls-1" d="M6.59,303.09c3.1,0,4.66,1.31,4.66,3.94s-1.57,4-4.7,4H3.37v4.93H1.26V303.09Zm-3.22,6.12H6.43a3.43,3.43,0,0,0,2.05-.5A2,2,0,0,0,9.13,307a1.92,1.92,0,0,0-.67-1.64,3.29,3.29,0,0,0-2-.5H3.37Z"/><path class="cls-1" d="M20.59,307.77a5.49,5.49,0,0,1,0,7,4.45,4.45,0,0,1-3.42,1.4,4.42,4.42,0,0,1-3.42-1.4,5.49,5.49,0,0,1,0-7,4.35,4.35,0,0,1,3.4-1.39A4.4,4.4,0,0,1,20.59,307.77Zm-5.38,1.3a3.89,3.89,0,0,0-.59,2.23,3.83,3.83,0,0,0,.59,2.21,2.45,2.45,0,0,0,4,0,4.34,4.34,0,0,0,0-4.45,2.25,2.25,0,0,0-2-1A2.23,2.23,0,0,0,15.21,309.07Z"/><path class="cls-1" d="M32,310.2v5.74H29.92v-5.56c0-1.53-.7-2.29-2.11-2.29a1.88,1.88,0,0,0-1.33.54,2.57,2.57,0,0,0-.76,1.71v5.6H23.67v-9.31h2.05v1.08a3.74,3.74,0,0,1,1.22-1,3.35,3.35,0,0,1,1.53-.34C30.8,306.38,32,307.64,32,310.2Z"/><path class="cls-1" d="M36.52,303.22a1.33,1.33,0,0,1,.4,1,1.31,1.31,0,0,1-.41,1,1.48,1.48,0,0,1-2,0,1.33,1.33,0,0,1-.4-1,1.26,1.26,0,0,1,.4-1,1.39,1.39,0,0,1,1-.38A1.43,1.43,0,0,1,36.52,303.22Zm0,3.42v9.31H34.49v-9.31Z"/><path class="cls-1" d="M42,306.64h2.07v1.69H42v5.26a.74.74,0,0,0,.14.5.62.62,0,0,0,.47.16h1.22v1.69H42.26a2.24,2.24,0,0,1-1.78-.65,2.43,2.43,0,0,1-.54-1.71v-5.26H38.27v-1.69h1.67v-2.16l2.05-.85Z"/><path class="cls-1" d="M56.47,303.09a6.16,6.16,0,0,1,4.74,1.73,7.91,7.91,0,0,1,0,9.4,6.16,6.16,0,0,1-4.74,1.73h-4.7V303.09Zm-2.59,11.05h2.2A4.8,4.8,0,0,0,59.58,313a4.94,4.94,0,0,0,1.08-3.51A4.87,4.87,0,0,0,59.58,306a4.8,4.8,0,0,0-3.51-1.1h-2.2Z"/><path class="cls-1" d="M72.27,307.77a5.49,5.49,0,0,1,0,7,4.87,4.87,0,0,1-6.84,0,5.49,5.49,0,0,1,0-7,4.35,4.35,0,0,1,3.4-1.39A4.4,4.4,0,0,1,72.27,307.77Zm-5.38,1.3a3.88,3.88,0,0,0-.59,2.23,3.82,3.82,0,0,0,.59,2.21,2.45,2.45,0,0,0,4,0,4.34,4.34,0,0,0,0-4.45,2.45,2.45,0,0,0-4,0Z"/><path class="cls-1" d="M82.41,307.2a3.9,3.9,0,0,1,1.39,2.61h-2a2.19,2.19,0,0,0-.74-1.31,2.41,2.41,0,0,0-1.49-.43,2.09,2.09,0,0,0-1.78.85,3.79,3.79,0,0,0-.65,2.36,4,4,0,0,0,.63,2.41,2.3,2.3,0,0,0,4.07-1.19h2a4.48,4.48,0,0,1-1.44,2.81,4.42,4.42,0,0,1-2.9.9,4.14,4.14,0,0,1-3.35-1.4A5.19,5.19,0,0,1,75,311.28a5.11,5.11,0,0,1,1.13-3.44,4.19,4.19,0,0,1,3.4-1.46A4.67,4.67,0,0,1,82.41,307.2Z"/><path class="cls-1" d="M87.5,302.84v7.49l3.82-3.69H94l-4.12,3.85,4.48,5.46H91.69l-3.26-4.14-.94.88v3.26H85.45V302.84Z"/><path class="cls-1" d="M6.59,394.13c3.1,0,4.66,1.31,4.66,3.94s-1.57,4-4.7,4H3.37V407H1.26V394.13Zm-3.22,6.12H6.43a3.43,3.43,0,0,0,2.05-.5,2,2,0,0,0,.65-1.68,1.91,1.91,0,0,0-.67-1.64,3.28,3.28,0,0,0-2-.51H3.37Z"/><path class="cls-1" d="M20.59,398.81a5.49,5.49,0,0,1,0,7,4.46,4.46,0,0,1-3.42,1.4,4.43,4.43,0,0,1-3.42-1.4,5.49,5.49,0,0,1,0-7,4.35,4.35,0,0,1,3.4-1.38A4.4,4.4,0,0,1,20.59,398.81Zm-5.38,1.3a3.89,3.89,0,0,0-.59,2.23,3.83,3.83,0,0,0,.59,2.21,2.45,2.45,0,0,0,4,0,4.34,4.34,0,0,0,0-4.45,2.26,2.26,0,0,0-2-1A2.24,2.24,0,0,0,15.21,400.11Z"/><path class="cls-1" d="M32,401.24V407H29.92v-5.56c0-1.53-.7-2.29-2.11-2.29a1.88,1.88,0,0,0-1.33.54,2.57,2.57,0,0,0-.76,1.71V407H23.67v-9.31h2.05v1.08a3.71,3.71,0,0,1,1.22-1,3.35,3.35,0,0,1,1.53-.34C30.8,397.43,32,398.69,32,401.24Z"/><path class="cls-1" d="M36.52,394.26a1.33,1.33,0,0,1,.4,1,1.31,1.31,0,0,1-.41,1,1.48,1.48,0,0,1-2,0,1.33,1.33,0,0,1-.4-1,1.26,1.26,0,0,1,.4-1,1.39,1.39,0,0,1,1-.38A1.43,1.43,0,0,1,36.52,394.26Zm0,3.42V407H34.49v-9.31Z"/><path class="cls-1" d="M42,397.68h2.07v1.69H42v5.26a.73.73,0,0,0,.14.5.61.61,0,0,0,.47.16h1.22V407H42.26a2.25,2.25,0,0,1-1.78-.65,2.44,2.44,0,0,1-.54-1.71v-5.26H38.27v-1.69h1.67v-2.16l2.05-.85Z"/><path class="cls-1" d="M57.1,394.13c3.1,0,4.66,1.31,4.66,3.94s-1.57,4-4.7,4H53.87V407H51.77V394.13Zm-3.22,6.12h3.06a3.44,3.44,0,0,0,2.05-.5,2,2,0,0,0,.65-1.68,1.91,1.91,0,0,0-.67-1.64,3.27,3.27,0,0,0-2-.51H53.87Z"/><path class="cls-1" d="M69.61,394.13,74.52,407H72.27l-1.17-3.22H65.72L64.55,407H62.3l4.92-12.86Zm.86,7.9-2-5.64h-.07l-2,5.64Z"/><path class="cls-1" d="M77.47,394.13l3,4.54,3-4.54H86.1l-4.34,6.21L86.38,407H83.81l-3.31-5-3.31,5H74.61l4.59-6.64-4.3-6.21Z"/><path class="cls-1" d="M98.08,395.79a7.86,7.86,0,0,1,0,9.56,6.63,6.63,0,0,1-9.29,0,7.88,7.88,0,0,1,0-9.53,5.79,5.79,0,0,1,4.65-1.93A5.88,5.88,0,0,1,98.08,395.79Zm-7.74,1.29a6.34,6.34,0,0,0,0,7,4.31,4.31,0,0,0,6.18.05,5.37,5.37,0,0,0,1.06-3.53A5.49,5.49,0,0,0,96.52,397a4.28,4.28,0,0,0-6.18.07Z"/><path class="cls-1" d="M109.77,394.81a4.12,4.12,0,0,1,1.55,3.12h-2.09a2.8,2.8,0,0,0-1-1.71,3.5,3.5,0,0,0-2.12-.52,4,4,0,0,0-1.86.34,1.37,1.37,0,0,0-.79,1.33,1.46,1.46,0,0,0,.9,1.31,18.17,18.17,0,0,0,2.2.79,20,20,0,0,1,3.37,1.26,3.08,3.08,0,0,1,1.67,2.77,3.23,3.23,0,0,1-1.35,2.74,7.9,7.9,0,0,1-7.53.07,4.39,4.39,0,0,1-1.76-3.58H103a3,3,0,0,0,1,2.09,4,4,0,0,0,2.34.56,4.59,4.59,0,0,0,2.23-.47,1.46,1.46,0,0,0,.83-1.28,1.83,1.83,0,0,0-1.21-1.62,24.41,24.41,0,0,0-2.5-.85,20.8,20.8,0,0,1-3-1.08,2.84,2.84,0,0,1-1.48-2.59,3,3,0,0,1,1.44-2.68,6.94,6.94,0,0,1,7,0Z"/><path class="cls-1" d="M3.29,117.73a14.58,14.58,0,0,1-1.83,3.17l-.83-.6a12,12,0,0,0,1.81-3Zm4-9.61v1.36h5.43v1H7.27v1.78h4.47v4.5H2.47v-4.5H6.28v-4.09Zm3.46,5H3.47v2.61h7.26Zm-4.48,7.58-1,.22a25.6,25.6,0,0,0-.69-3l.94-.2C5.77,118.65,6,119.66,6.25,120.74Zm3.26,0-1,.22a16.57,16.57,0,0,0-1.05-3.15l1-.2A22.71,22.71,0,0,1,9.51,120.71Zm3.82-.34-.84.59a23,23,0,0,0-2-3.14l.81-.52A25.09,25.09,0,0,1,13.33,120.38Z"/><path class="cls-1" d="M15.16,112.79l-.57-.78a10.66,10.66,0,0,0,2.79-4l.94.24c-.14.38-.31.74-.48,1.09h3a10.84,10.84,0,0,0-.62-1.21l1-.17a14.66,14.66,0,0,1,.56,1.37h4.52v.84H21.91v1h3.94V112H21.91v.92h3.94v.79H21.91v1h4.72v.85H16.34v-3.94A16,16,0,0,1,15.16,112.79Zm-.2,4.75v-.91h5.58v-.73h1v.73H27v.91H22.8a10.3,10.3,0,0,0,4.4,2.14l-.43.9a10.3,10.3,0,0,1-4.94-3h-.27V121h-1v-3.42h-.27a10.43,10.43,0,0,1-4.92,3.1l-.53-.87a10.84,10.84,0,0,0,4.45-2.23Zm6-7.31H17.35l-.07.11v.84h3.64Zm0,1.74H17.28v.92h3.64Zm0,1.71H17.28v1h3.64Z"/><path class="cls-1" d="M33.53,108.6a16,16,0,0,1-4.1,6.72l-.78-.69a14.81,14.81,0,0,0,4-6.4Zm6.65,11.92-.94.42q-.31-.71-.63-1.34c-2.47.39-5.22.67-8.28.87l-.18-1q1.68-.88,4.22-6.64l1,.34a30.13,30.13,0,0,1-3.61,6.26c2.28-.14,4.43-.38,6.43-.7a28.53,28.53,0,0,0-1.7-2.77l.91-.31A28.31,28.31,0,0,1,40.19,120.52Zm1.21-6-.71.83a13.57,13.57,0,0,1-4.36-6.74l.85-.48A13.15,13.15,0,0,0,41.39,114.52Z"/><path class="cls-1" d="M45,108.33c-.1.48-.21.92-.32,1.37h2.11v1H44.41a16.82,16.82,0,0,1-1.08,2.63l-.8-.5a17.29,17.29,0,0,0,1.53-4.65Zm1.56,4.16v.91H45.43v1.75H47v.94H45.43v3.26a6.94,6.94,0,0,0,1.22-.8l.17.87a9.32,9.32,0,0,1-2.3,1.19l-.38-.84a.49.49,0,0,0,.32-.45v-3.24H42.91v-.94h1.55V113.4h-.71v-.91Zm8.87,7.26-.27,1H53.29l-1.27,0a6.2,6.2,0,0,1-1.71-.25,2.8,2.8,0,0,1-1.23-.85c-.18-.21-.34-.31-.46-.31s-.67.55-1.29,1.65l-.6-.76a5.68,5.68,0,0,1,1.47-1.74V113.7H47.06v-.9h2.06v5.66a1.77,1.77,0,0,1,.15.15,3,3,0,0,0,1.08.85,4.53,4.53,0,0,0,1.42.28l1.6,0ZM49.3,110.6l-.76.53a17.08,17.08,0,0,0-1.47-2.28l.74-.46A16.92,16.92,0,0,1,49.3,110.6Zm3.1,5.39v-1.72H50.1l-.2-.84a14.2,14.2,0,0,0,1.3-2.87H49.8v-.88h1.67c.14-.5.28-1,.42-1.58l.9.21c-.11.48-.24.94-.36,1.37H55.1v.88h-3A19.27,19.27,0,0,1,51,113.39h1.44V111.5h.94v1.89H55v.88H53.33V116h2v.9h-2v2.33h-.94v-2.33H49.77V116Z"/><path class="cls-1" d="M59.38,118.26a1.63,1.63,0,0,1,.28,1,2.63,2.63,0,0,1-.55,1.64,2.7,2.7,0,0,1-1.44.91v-.69a1.91,1.91,0,0,0,.88-.62,1.57,1.57,0,0,0,.31-.94.74.74,0,0,1-.31.06.81.81,0,0,1-.6-.25.85.85,0,0,1-.25-.62.81.81,0,0,1,.25-.63.87.87,0,0,1,.66-.24A.92.92,0,0,1,59.38,118.26Z"/><path class="cls-1" d="M72.83,115.6H70.56v-1h2.37c.1-1.06.15-2.14.18-3.22h8.7l-.1,3.22h1.76v1H81.67c0,1-.08,1.78-.11,2.4H83.1v.94H81.49a4.89,4.89,0,0,1-.1.71,1.63,1.63,0,0,1-.73,1,3.14,3.14,0,0,1-1.53.29H77.48l-.31-.94c.67,0,1.28.06,1.81.06a3.32,3.32,0,0,0,.88-.11,1,1,0,0,0,.57-.62,2,2,0,0,0,.07-.39H72.33C72.54,117.84,72.7,116.72,72.83,115.6Zm-1.47-2.55-.64-.79a12.28,12.28,0,0,0,3-4.27l1,.24c-.17.36-.34.73-.5,1.06h8.63v1H73.64A12.84,12.84,0,0,1,71.36,113.05Zm9.34,2.55H73.84c-.1.87-.21,1.67-.35,2.4h7.1C80.62,117.38,80.66,116.58,80.7,115.6Zm-2.41-1a14.59,14.59,0,0,0-2.75-1.34l.46-.67a14.72,14.72,0,0,1,2.8,1.32l-.46.7h2.38c0-.7,0-1.46.07-2.28H74.06c0,.81-.07,1.57-.13,2.28Zm.43,2.55-.48.73a13.83,13.83,0,0,0-2.82-1.39l.46-.66A15.08,15.08,0,0,1,78.73,117.2Z"/><path class="cls-1" d="M91.45,108.11a14.67,14.67,0,0,0,6.05,5.1l-.6.91A15,15,0,0,1,91,109a15.85,15.85,0,0,1-5.9,5.13l-.6-.91a15.64,15.64,0,0,0,6.05-5.16Zm.07,4.13v8.68h-1v-8.68Z"/><path class="cls-1" d="M102.23,114.72c-.1.27-.2.52-.28.77h2.93v.83a5.64,5.64,0,0,1-1.55,2.39c.67.31,1.32.62,1.93,1l-.55.78a20.4,20.4,0,0,0-2.16-1.11,11.49,11.49,0,0,1-3.49,1.55l-.48-.84a12.58,12.58,0,0,0,3-1.15c-.62-.27-1.26-.53-1.95-.78.36-.62.69-1.19,1-1.75H98.91v-.88h2q.19-.46.34-.88Zm-.56-3.94v-2.68h.94v2.68h2.55v.88h-2.55v.15c.76.38,1.54.81,2.33,1.29l-.52.78q-1.05-.84-1.81-1.34v1.82h-.94v-2.66a6.56,6.56,0,0,1-2.51,2.87l-.49-.81a5.8,5.8,0,0,0,2.25-2.1h-2v-.88Zm-.78-.67-.73.34a13,13,0,0,0-.94-1.82l.8-.27A12,12,0,0,1,100.89,110.11Zm3.08,6.26h-2.41a10.42,10.42,0,0,1-.76,1.34c.56.2,1.09.39,1.6.6A5.44,5.44,0,0,0,104,116.37Zm1-7.72a9.32,9.32,0,0,1-1.08,1.81l-.71-.36a8.89,8.89,0,0,0,1.06-1.78Zm1.54,4.8a12.43,12.43,0,0,1-.83,1.72l-.63-.77a17.77,17.77,0,0,0,1.67-6.35l1,.17c-.08.71-.2,1.39-.31,2h3.7v1h-.91a15,15,0,0,1-1.29,6,8.67,8.67,0,0,0,2.59,2.91l-.55.83a9.17,9.17,0,0,1-2.52-2.83,9.41,9.41,0,0,1-2.59,2.82l-.52-.84a8.24,8.24,0,0,0,2.59-2.91A19.41,19.41,0,0,1,106.54,113.46Zm.49-1.53a19.33,19.33,0,0,0,1.36,4.23,15,15,0,0,0,.9-5h-2.07Z"/><path class="cls-1" d="M113.11,120.81l-.21-1a9.47,9.47,0,0,0,1.06.07c.35,0,.53-.21.53-.6v-3.43c-.56.21-1.11.41-1.65.57l-.25-1a17.33,17.33,0,0,0,1.9-.57v-3.17h-1.68v-1h1.68v-2.65h1v2.65h1.34v1h-1.34v2.76q.67-.29,1.3-.63v1c-.43.22-.87.42-1.3.62v4.09c0,.81-.39,1.23-1.18,1.23Zm3.74.13-.78-.7a15.34,15.34,0,0,0,1.51-7.2v-4.38H125v3.4h-2.63v1.65h3v.91h-3v1.72h2.35v4.59h-.94v-.69h-3.8v.69H119v-4.59h2.34v-1.72h-2.86A16.33,16.33,0,0,1,116.85,120.94Zm1.71-8.88v1c0,.22,0,.45,0,.67h2.8v-1.65Zm0-2.46v1.55H124v-1.55Zm5.18,9.76v-2.12h-3.8v2.12Z"/><path class="cls-1" d="M129.56,109.73v-1.61h1v1.61H132v.9h-1.5v1.79H131a12.57,12.57,0,0,0,2.09-3.54l.85.38a13.19,13.19,0,0,1-1.71,3.17h1.54v.92h-2.31A15.07,15.07,0,0,1,130,114.7h3.12v6.22h-1v-.6h-3v.62h-1v-5.06l-1.18.57-.53-.78a12.51,12.51,0,0,0,3.63-2.33H126.9v-.92h2.66v-1.79h-2v-.9Zm2.6,5.84h-3v1.5h3Zm-3,3.85h3v-1.48h-3Zm9.79-10.7v.76a43.12,43.12,0,0,1-1.43,4.08,6.52,6.52,0,0,1,1.57,3.43,2,2,0,0,1-.55,1.61,3.86,3.86,0,0,1-2.28.48l-.29-1a8.53,8.53,0,0,0,.92.07,1.68,1.68,0,0,0,1-.25,1.34,1.34,0,0,0,.22-.88,6.4,6.4,0,0,0-1.62-3.43,37.6,37.6,0,0,0,1.4-3.89h-2.48v11.26h-1v-12.2Z"/><path class="cls-1" d="M140.81,115.39v-.92h12.4v.92h-5.53V117h4v.9h-4v1.86c.67.06,1.48.1,2.41.1,1.2,0,2.23,0,3.05,0l-.28,1c-1,0-1.91,0-2.7,0a13.9,13.9,0,0,1-4.71-.53,4.49,4.49,0,0,1-1.92-1.86,8.27,8.27,0,0,1-2.09,2.58l-.66-.83a7.75,7.75,0,0,0,2.63-4.19l1,.17a13.88,13.88,0,0,1-.48,1.47,4.09,4.09,0,0,0,2,1.86,6.81,6.81,0,0,0,.77.2v-4.19Zm10.51-6.82v4.86H142.8v-4.86Zm-1,2v-1.16H143.8v1.16Zm0,.83H143.8v1.15h6.53Z"/><path class="cls-1" d="M167.29,113.89v1H154.7v-1Z"/><path class="cls-1" d="M175.45,108.11a14.67,14.67,0,0,0,6.05,5.1l-.6.91A15,15,0,0,1,175,109a15.85,15.85,0,0,1-5.9,5.13l-.6-.91a15.64,15.64,0,0,0,6.05-5.16Zm.07,4.13v8.68h-1v-8.68Z"/><path class="cls-1" d="M187.1,109.54q3.45,0,3.45,2.94c0,2-1.16,3-3.46,3h-2.93v4.09H183v-10Zm-2.94,4.92H187a2.77,2.77,0,0,0,1.79-.49,1.84,1.84,0,0,0,.57-1.48,1.71,1.71,0,0,0-.59-1.46,2.67,2.67,0,0,0-1.78-.49h-2.87Z"/><path class="cls-1" d="M197.68,113.22a4.4,4.4,0,0,1,0,5.38,3.29,3.29,0,0,1-2.61,1.13,3.22,3.22,0,0,1-2.59-1.13,3.91,3.91,0,0,1-.92-2.68,4,4,0,0,1,.92-2.7,3.56,3.56,0,0,1,5.18,0Zm-4.38.7a3.76,3.76,0,0,0,0,4,2.08,2.08,0,0,0,1.79.88,2.16,2.16,0,0,0,1.81-.88,3.76,3.76,0,0,0,0-4,2.15,2.15,0,0,0-1.81-.88A2.08,2.08,0,0,0,193.3,113.92Z"/><path class="cls-1" d="M201.59,109.8a.72.72,0,0,1,.25.59.81.81,0,0,1-.25.6.88.88,0,0,1-1.21,0,.8.8,0,0,1-.24-.6.71.71,0,0,1,.24-.59.88.88,0,0,1,1.21,0Zm0,2.49v7.24h-1.12v-7.24Z"/><path class="cls-1" d="M209.74,115.08v4.46h-1.12v-4.37c0-1.42-.64-2.12-1.91-2.12a1.78,1.78,0,0,0-1.3.55,2.33,2.33,0,0,0-.64,1.57v4.37h-1.12v-7.24h1.12v1.06a2.55,2.55,0,0,1,1-.92,2.59,2.59,0,0,1,1.3-.34C208.83,112.1,209.74,113.09,209.74,115.08Z"/><path class="cls-1" d="M213.4,112.29h1.79v.94H213.4v4.61a.8.8,0,0,0,.15.57.69.69,0,0,0,.53.18H215v.94h-1.09a1.57,1.57,0,0,1-1.28-.46,1.85,1.85,0,0,1-.35-1.23v-4.61h-1.46v-.94h1.46v-1.88l1.11-.46Z"/><path class="cls-1" d="M218.95,118.26a1.63,1.63,0,0,1,.28,1,2.62,2.62,0,0,1-.55,1.64,2.7,2.7,0,0,1-1.44.91v-.69a1.9,1.9,0,0,0,.88-.62,1.57,1.57,0,0,0,.31-.94.75.75,0,0,1-.31.06.81.81,0,0,1-.6-.25.84.84,0,0,1-.25-.62.81.81,0,0,1,.25-.63.87.87,0,0,1,.66-.24A.92.92,0,0,1,218.95,118.26Z"/><path class="cls-1" d="M241.49,108.85v1h-5v.94c0,.87-.08,1.69-.18,2.45h6.33v1h-4.34v4.89a.6.6,0,0,0,.67.69h1.78a.93.93,0,0,0,.74-.28,4.16,4.16,0,0,0,.39-2l1,.31a4.64,4.64,0,0,1-.63,2.51,1.79,1.79,0,0,1-1.27.38h-2.27c-.92,0-1.37-.48-1.37-1.43v-5.1h-1.13a10.93,10.93,0,0,1-1.05,3.17,8.57,8.57,0,0,1-4.22,3.54l-.56-.9a8,8,0,0,0,4-3.43,10.36,10.36,0,0,0,.77-2.38H230.5v-1h4.78a19.07,19.07,0,0,0,.18-2.45v-.94h-4v-1Z"/><path class="cls-1" d="M247.8,114.72c-.1.27-.2.52-.28.77h2.93v.83a5.65,5.65,0,0,1-1.56,2.39c.67.31,1.32.62,1.93,1l-.55.78a20.3,20.3,0,0,0-2.16-1.11,11.49,11.49,0,0,1-3.49,1.55l-.48-.84a12.59,12.59,0,0,0,3-1.15c-.62-.27-1.26-.53-1.95-.78.36-.62.69-1.19,1-1.75h-1.65v-.88h2q.19-.46.34-.88Zm-.56-3.94v-2.68h.94v2.68h2.55v.88h-2.55v.15c.76.38,1.54.81,2.33,1.29l-.52.78q-1.05-.84-1.81-1.34v1.82h-.94v-2.66a6.56,6.56,0,0,1-2.51,2.87l-.49-.81a5.8,5.8,0,0,0,2.26-2.1h-2v-.88Zm-.78-.67-.73.34a13.06,13.06,0,0,0-.94-1.82l.8-.27A12.13,12.13,0,0,1,246.46,110.11Zm3.08,6.26h-2.41a10.3,10.3,0,0,1-.76,1.34c.56.2,1.09.39,1.6.6A5.42,5.42,0,0,0,249.54,116.37Zm1-7.72a9.33,9.33,0,0,1-1.08,1.81l-.71-.36a8.89,8.89,0,0,0,1.06-1.78Zm1.54,4.8a12.43,12.43,0,0,1-.83,1.72l-.63-.77a17.77,17.77,0,0,0,1.67-6.35l1,.17c-.08.71-.2,1.39-.31,2h3.7v1h-.91a15,15,0,0,1-1.29,6,8.68,8.68,0,0,0,2.59,2.91l-.55.83a9.18,9.18,0,0,1-2.52-2.83,9.41,9.41,0,0,1-2.59,2.82l-.52-.84a8.23,8.23,0,0,0,2.59-2.91A19.48,19.48,0,0,1,252.12,113.46Zm.49-1.53a19.28,19.28,0,0,0,1.36,4.23,15,15,0,0,0,.9-5h-2.07Z"/><path class="cls-1" d="M265,108.11a14.66,14.66,0,0,0,6.05,5.1l-.6.91a15,15,0,0,1-5.9-5.07,15.86,15.86,0,0,1-5.9,5.13l-.6-.91a15.64,15.64,0,0,0,6.05-5.16Zm.07,4.13v8.68h-1v-8.68Z"/><path class="cls-1" d="M276.67,109.54q3.45,0,3.45,2.94c0,2-1.16,3-3.46,3h-2.93v4.09h-1.15v-10Zm-2.94,4.92h2.87a2.77,2.77,0,0,0,1.79-.49,1.84,1.84,0,0,0,.57-1.48,1.71,1.71,0,0,0-.59-1.46,2.67,2.67,0,0,0-1.78-.49h-2.87Z"/><path class="cls-1" d="M287.26,113.22a4.4,4.4,0,0,1,0,5.38,3.29,3.29,0,0,1-2.61,1.13,3.22,3.22,0,0,1-2.59-1.13,3.91,3.91,0,0,1-.92-2.68,4,4,0,0,1,.92-2.7,3.56,3.56,0,0,1,5.18,0Zm-4.38.7a3.76,3.76,0,0,0,0,4,2.08,2.08,0,0,0,1.79.88,2.16,2.16,0,0,0,1.81-.88,3.76,3.76,0,0,0,0-4,2.15,2.15,0,0,0-1.81-.88A2.08,2.08,0,0,0,282.87,113.92Z"/><path class="cls-1" d="M291.16,109.8a.72.72,0,0,1,.25.59.81.81,0,0,1-.25.6.88.88,0,0,1-1.21,0,.8.8,0,0,1-.24-.6.71.71,0,0,1,.24-.59.88.88,0,0,1,1.21,0Zm0,2.49v7.24H290v-7.24Z"/><path class="cls-1" d="M299.31,115.08v4.46h-1.12v-4.37c0-1.42-.64-2.12-1.91-2.12a1.78,1.78,0,0,0-1.3.55,2.33,2.33,0,0,0-.64,1.57v4.37h-1.12v-7.24h1.12v1.06a2.55,2.55,0,0,1,1-.92,2.58,2.58,0,0,1,1.3-.34C298.4,112.1,299.31,113.09,299.31,115.08Z"/><path class="cls-1" d="M303,112.29h1.79v.94H303v4.61a.81.81,0,0,0,.15.57.69.69,0,0,0,.53.18h.92v.94h-1.09a1.57,1.57,0,0,1-1.27-.46,1.84,1.84,0,0,1-.35-1.23v-4.61h-1.46v-.94h1.46v-1.88L303,110Z"/><path class="cls-1" d="M309,120.88h-1v-7.13a15.84,15.84,0,0,1-1.88,3.88l-.43-1.09a13.08,13.08,0,0,0,2.24-4.73h-2v-1h2v-2.73h1v2.73h1.72v1H309v.88c.64.67,1.3,1.41,2,2.24l-.56.85c-.55-.81-1-1.49-1.42-2Zm4.52-12.68a19.7,19.7,0,0,1-.42,1.93H318c0,4.85-.08,7.84-.22,9a1.8,1.8,0,0,1-2,1.71l-1.51,0-.22-.91c.62,0,1.13.06,1.58.06a1.15,1.15,0,0,0,1.21-1.11q.19-1.22.21-7.73h-4.26a13.57,13.57,0,0,1-1.43,2.89l-.64-.84a13.34,13.34,0,0,0,1.79-5Zm-2.33,8.88c.39-.21,1.08-1.71,2.07-4.51l.88.32a32.8,32.8,0,0,1-1.64,3.91c.84-.17,1.61-.34,2.28-.5-.2-.59-.41-1.12-.6-1.6l.84-.29a29.54,29.54,0,0,1,1.26,3.52l-.88.39-.36-1.26c-1.07.29-2.3.57-3.67.85Z"/><path class="cls-1" d="M331.29,109.59l-.64.64h1.71v1H328a22.9,22.9,0,0,0,.53,4.12c.08.35.18.67.28,1a15.55,15.55,0,0,0,1.7-3.94l.91.39a16.08,16.08,0,0,1-2.18,4.68,6.93,6.93,0,0,0,.63,1.16c.46.67.84,1,1.12,1s.49-.74.7-2.18l.91.5c-.34,1.86-.81,2.8-1.44,2.8a2.69,2.69,0,0,1-1.89-1.26,7.11,7.11,0,0,1-.7-1.16,9.65,9.65,0,0,1-3.45,2.59l-.56-.84a9.41,9.41,0,0,0,3.56-2.77,15.77,15.77,0,0,1-.53-1.68,23.93,23.93,0,0,1-.62-4.4h-4.8v2.33h3.43a23.92,23.92,0,0,1-.32,4.58A1.28,1.28,0,0,1,324,119c-.34,0-.74,0-1.19-.06l-.31-.91q.82,0,1.39,0c.31,0,.5-.22.59-.62a26,26,0,0,0,.15-3H322.2v.42a11,11,0,0,1-1.65,6l-.77-.69a9.56,9.56,0,0,0,1.4-5.35v-4.66H327c0-.7,0-1.42,0-2.17h1c0,.78,0,1.5,0,2.17h2.62a10.46,10.46,0,0,0-1.7-1.57l.64-.62A12.56,12.56,0,0,1,331.29,109.59Z"/><path class="cls-1" d="M343.92,109.9H334.7v-1h10.59v1a35,35,0,0,1-4.41,3.36v6.26a1.16,1.16,0,0,1-1.32,1.3c-.84,0-1.58,0-2.21-.06l-.28-1c.69.06,1.43.08,2.21.08.38,0,.57-.18.57-.53v-6.58A26.62,26.62,0,0,0,343.92,109.9Z"/><path class="cls-1" d="M360.44,113.89v1H347.84v-1Z"/><path class="cls-1" d="M368.6,108.11a14.67,14.67,0,0,0,6.05,5.1l-.6.91a15,15,0,0,1-5.9-5.07,15.85,15.85,0,0,1-5.9,5.13l-.6-.91a15.64,15.64,0,0,0,6.05-5.16Zm.07,4.13v8.68h-1v-8.68Z"/><path class="cls-1" d="M382.18,110.11a3.27,3.27,0,0,1,1.15,2.38h-1.13a2.53,2.53,0,0,0-.84-1.61,2.92,2.92,0,0,0-1.89-.53,3.38,3.38,0,0,0-1.74.36,1.39,1.39,0,0,0,.14,2.49,11.56,11.56,0,0,0,1.83.63,13.38,13.38,0,0,1,2.61,1,2.36,2.36,0,0,1,1.25,2.11,2.43,2.43,0,0,1-1,2.07,4.84,4.84,0,0,1-2.83.74,4.53,4.53,0,0,1-2.77-.76,3.57,3.57,0,0,1-1.3-2.75h1.13a2.75,2.75,0,0,0,.91,1.92,3.22,3.22,0,0,0,2,.56,3.8,3.8,0,0,0,2-.46,1.42,1.42,0,0,0,.76-1.26,1.63,1.63,0,0,0-1-1.47,12,12,0,0,0-2.12-.73A16.79,16.79,0,0,1,377,114a2.11,2.11,0,0,1-1.15-1.93,2.28,2.28,0,0,1,1.11-2,4.45,4.45,0,0,1,2.55-.67A4.16,4.16,0,0,1,382.18,110.11Z"/><path class="cls-1" d="M390.48,113.28a5,5,0,0,1,.84,3H385.6a3.11,3.11,0,0,0,.66,1.89,2.05,2.05,0,0,0,1.63.67,2.25,2.25,0,0,0,1.44-.45,2.53,2.53,0,0,0,.73-1.13h1.12a3.28,3.28,0,0,1-1,1.71,3.37,3.37,0,0,1-2.31.81,3.24,3.24,0,0,1-2.49-1,4.49,4.49,0,0,1,0-5.48,3,3,0,0,1,2.49-1.13A3.09,3.09,0,0,1,390.48,113.28Zm-4.16.39a2.8,2.8,0,0,0-.69,1.69h4.52c-.14-1.55-.91-2.33-2.28-2.33A2,2,0,0,0,386.32,113.67Z"/><path class="cls-1" d="M394.56,112.29h1.79v.94h-1.79v4.61a.81.81,0,0,0,.15.57.69.69,0,0,0,.53.18h.92v.94h-1.09a1.57,1.57,0,0,1-1.27-.46,1.84,1.84,0,0,1-.35-1.23v-4.61H392v-.94h1.46v-1.88l1.11-.46Z"/><path class="cls-1" d="M13.29,335.92v1H.7v-1Z"/><path class="cls-1" d="M17.52,332.35v-.79H14.76v-.78h2.76v-.66h.9v.66H21v.78h-2.6v.79h2.25v2.44H18.41V335c.83.34,1.67.71,2.51,1.15l-.52.77a19.9,19.9,0,0,0-2-1.25v1.44h-.9v-1.6A12.69,12.69,0,0,1,15,337.23l-.43-.81a10.87,10.87,0,0,0,3-1.62H15.26v-2.44Zm-2,6.13v-.88H26.55v.88H21.41v1.19H25.7v.87H21.41v1.22h5.81v.9H14.78v-.9H17v-2.63H18v2.63H20.4v-3.28Zm2-5.43H16.07v1.05h1.44Zm2.34,0H18.41v1.05h1.44Zm2.2.49c-.2.27-.41.52-.62.76l-.59-.74a7.56,7.56,0,0,0,1.77-3.5l.9.11a11.33,11.33,0,0,1-.31,1.11H27v.87h-.81A6.25,6.25,0,0,1,25,335.21l-.06.06a9,9,0,0,0,2.37,1.08l-.52.8a8.67,8.67,0,0,1-2.55-1.26,8.94,8.94,0,0,1-2.67,1.19l-.35-.83a8,8,0,0,0,2.3-1A7.68,7.68,0,0,1,22.05,333.54Zm.53-.85a6.57,6.57,0,0,0,1.58,2l.07-.07a5,5,0,0,0,1.08-2.52H22.87Z"/><path class="cls-1" d="M41.39,334.4l-.45.94a15.74,15.74,0,0,1-2.65-1.19v.42H32.5v.85H39v.81H32.5v.84H39v.81H32.5v.88H41v.91h-7.3a11.39,11.39,0,0,1-1.6,2.14,58.3,58.3,0,0,0,6.07-.63c-.27-.39-.53-.76-.81-1.09l.87-.29a16.5,16.5,0,0,1,1.93,2.79l-.91.41c-.18-.35-.36-.67-.55-1a77.87,77.87,0,0,1-8.14.73l-.25-.84c.69-.06,1.43-.8,2.21-2.23H29v-.91h2.55v-4.33a15.7,15.7,0,0,1-2.37,1l-.48-.85a11.23,11.23,0,0,0,4.45-2.33h-4v-.92h4.78a5.52,5.52,0,0,0,.64-1.16l1,.11a7.33,7.33,0,0,1-.52,1h5.79v.92H37.06A9.92,9.92,0,0,0,41.39,334.4ZM36,332.21H34.39a8.74,8.74,0,0,1-1.68,1.51h4.92A7.59,7.59,0,0,1,36,332.21Z"/><path class="cls-1" d="M43.05,342.84l-.21-1c.38,0,.74.06,1.08.06a.49.49,0,0,0,.56-.55v-3.45c-.56.22-1.13.43-1.71.62l-.25-1a16.83,16.83,0,0,0,2-.63v-3.12H42.77v-1h1.71v-2.65h1v2.65h1.16v1H45.52v2.69l1.18-.6v1q-.59.31-1.18.59v4.15a1.09,1.09,0,0,1-1.25,1.22ZM51,336q-.21.57-.46,1.09h4.8v1H53.79a5.38,5.38,0,0,1-1.3,2.63c1,.45,1.88.92,2.76,1.43l-.55.81a30.71,30.71,0,0,0-2.93-1.57A11.42,11.42,0,0,1,47.37,343l-.39-.91a12,12,0,0,0,3.75-1.19c-.85-.39-1.76-.77-2.75-1.16.38-.57.71-1.12,1-1.65H47.11v-1h2.39c.2-.42.36-.81.52-1.21Zm-.59-1.47h1.37a14.53,14.53,0,0,0,1-2.23l1,.34a13.22,13.22,0,0,1-.88,1.89h2.27v1H47.29v-1h2.14a18.77,18.77,0,0,0-.85-1.68l.83-.39A16.64,16.64,0,0,1,50.4,334.57Zm1.32-3.19h3.14v.92H47.62v-.92H50.7c-.15-.42-.32-.81-.49-1.16l1-.17C51.41,330.43,51.57,330.88,51.72,331.37ZM50,338.11c-.25.43-.52.85-.8,1.25q1.22.46,2.35,1a4.39,4.39,0,0,0,1.27-2.21Z"/><path class="cls-1" d="M60.08,330.66l.84-.53a9.9,9.9,0,0,1,3.17,4.72c1.32,3.35,3.07,5.71,5.28,7.1l-.63.81c-2.27-1.37-4.12-3.92-5.56-7.62-.08-.22-.15-.42-.22-.59a13.42,13.42,0,0,1-5.8,8.22l-.6-.85a13.59,13.59,0,0,0,5.84-8.54A8,8,0,0,0,60.08,330.66Z"/><path class="cls-1" d="M75,339.57a14,14,0,0,1-3.53,3l-.63-.81a13.87,13.87,0,0,0,3.45-2.82Zm-.06,3.36-.22-1c.5,0,1,.07,1.44.07a.47.47,0,0,0,.52-.52v-3.43c-1.34.08-2.8.17-4.38.24l-.28-.9a4.07,4.07,0,0,0,.88-.18,20.46,20.46,0,0,0,3.87-2.35c-1.22.1-2.54.18-3.94.27l-.21-.9a2.61,2.61,0,0,0,.69-.18A9.4,9.4,0,0,0,75.76,332c-1.19.06-2.45.08-3.8.08l-.29-.88a47.62,47.62,0,0,0,10-.88l.49.85a35.2,35.2,0,0,1-5.15.74,12.82,12.82,0,0,1-2.65,2.38c1.12-.06,2.25-.14,3.4-.24.63-.5,1.28-1.06,1.95-1.67l.92.46a33.14,33.14,0,0,1-6.19,4.51c2.28-.13,4.24-.28,5.87-.48-.35-.45-.71-.91-1.09-1.36L80,335a29.78,29.78,0,0,1,2.65,3.5l-.81.57c-.27-.48-.57-1-.91-1.44-1,.11-2,.21-3.25.31v3.75a1.06,1.06,0,0,1-1.19,1.19Zm8.22-1-.71.71a23.13,23.13,0,0,0-3.5-3.15l.67-.64A23.49,23.49,0,0,1,83.14,341.92Z"/><path class="cls-1" d="M88.08,330.49a21.65,21.65,0,0,1-2.14,4.29c.62-.08,1.23-.2,1.85-.31.25-.48.5-1,.77-1.5l.91.35a33.78,33.78,0,0,1-3.07,5,19.46,19.46,0,0,0,3-1v.94a19.12,19.12,0,0,1-4.23,1.25l-.28-.92a1.9,1.9,0,0,0,.46-.31,15.51,15.51,0,0,0,2-2.84c-.76.14-1.53.28-2.3.39l-.27-.92a1,1,0,0,0,.45-.39,23.06,23.06,0,0,0,2-4.38Zm1.28,10.25A20.54,20.54,0,0,1,85,342.31l-.13-1a19.43,19.43,0,0,0,4.5-1.53Zm2.59-3.92a11.41,11.41,0,0,1-.66,3.89,5.37,5.37,0,0,1-2,2.23l-.64-.8a4.73,4.73,0,0,0,1.77-1.86,9.59,9.59,0,0,0,.59-3.46Zm-2.34-1.47.2-.07a8.67,8.67,0,0,0,1.83-2.7h-2.4v-1h3.57a12.69,12.69,0,0,0-.63-1.44l1-.17c.21.48.42,1,.62,1.61H97v1H92.68A14.07,14.07,0,0,1,91,335.24c1.3-.11,2.61-.27,3.89-.48-.31-.45-.64-.91-1-1.36l.77-.48a26.43,26.43,0,0,1,2.21,3.21l-.79.55c-.2-.36-.41-.71-.64-1.08-1.74.28-3.63.49-5.67.64ZM95,342.72a1.1,1.1,0,0,1-1.26-1.22v-4.8h1v4.64c0,.29.1.45.32.48h.91a.56.56,0,0,0,.55-.5,13.62,13.62,0,0,0,.1-1.82l.87.31a6.33,6.33,0,0,1-.28,2.45,1.42,1.42,0,0,1-1.19.48Z"/><path class="cls-1" d="M101.38,340.29a1.63,1.63,0,0,1,.28,1,2.63,2.63,0,0,1-.55,1.64,2.7,2.7,0,0,1-1.44.91v-.69a1.91,1.91,0,0,0,.88-.62,1.57,1.57,0,0,0,.31-.94.74.74,0,0,1-.31.06.81.81,0,0,1-.6-.25.85.85,0,0,1-.25-.62.81.81,0,0,1,.25-.63.87.87,0,0,1,.66-.24A.92.92,0,0,1,101.38,340.29Z"/><path class="cls-1" d="M116.12,336.62a13,13,0,0,0,.92-4.12h-3.84v-1H118v.74a13.27,13.27,0,0,1-1.19,5.2c.59.78,1.13,1.58,1.63,2.37l-.73.73c-.42-.7-.88-1.4-1.39-2.12a13.2,13.2,0,0,1-3.1,3.61l-.59-.88a10.94,10.94,0,0,0,3.07-3.57c-.78-1-1.68-2.13-2.66-3.22l.67-.63C114.55,334.71,115.36,335.67,116.12,336.62Zm5.49,1.91-.8.56a24.62,24.62,0,0,0-2.14-3.07l.77-.56A22.36,22.36,0,0,1,121.61,338.53Zm1.13-5.69V330.1h1v2.75h1.55v1h-1.55v7.7a1.27,1.27,0,0,1-1.44,1.42h-2.2l-.21-1c.73,0,1.42.07,2.06.07s.78-.25.78-.74v-7.45h-4.06v-1Z"/><path class="cls-1" d="M127.05,342.84l-.21-1c.38,0,.74.06,1.08.06a.49.49,0,0,0,.56-.55v-3.45c-.56.22-1.13.43-1.71.62l-.25-1a16.83,16.83,0,0,0,2-.63v-3.12h-1.71v-1h1.71v-2.65h1v2.65h1.16v1h-1.16v2.69l1.18-.6v1q-.59.31-1.18.59v4.15a1.09,1.09,0,0,1-1.25,1.22ZM135,336q-.21.57-.46,1.09h4.8v1h-1.54a5.38,5.38,0,0,1-1.3,2.63c1,.45,1.88.92,2.76,1.43l-.55.81a30.71,30.71,0,0,0-2.93-1.57,11.42,11.42,0,0,1-4.41,1.61l-.39-.91a12,12,0,0,0,3.75-1.19c-.85-.39-1.76-.77-2.75-1.16.38-.57.71-1.12,1-1.65h-1.88v-1h2.39c.2-.42.36-.81.52-1.21Zm-.59-1.47h1.37a14.53,14.53,0,0,0,1-2.23l1,.34a13.22,13.22,0,0,1-.88,1.89h2.27v1h-7.82v-1h2.14a18.77,18.77,0,0,0-.85-1.68l.83-.39A16.64,16.64,0,0,1,134.4,334.57Zm1.32-3.19h3.14v.92h-7.24v-.92h3.08c-.15-.42-.32-.81-.49-1.16l1-.17C135.41,330.43,135.57,330.88,135.72,331.37ZM134,338.11c-.25.43-.52.85-.8,1.25q1.22.46,2.35,1a4.39,4.39,0,0,0,1.27-2.21Z"/><path class="cls-1" d="M147.37,330.11a20.12,20.12,0,0,0,6.16,4.86l-.55,1a19.79,19.79,0,0,1-6-4.92,20.39,20.39,0,0,1-6,4.94l-.53-1a20.68,20.68,0,0,0,6.21-4.89ZM151.43,343h-1v-.84h-6.89V343h-1v-5.65h8.85Zm-.79-8.39v1h-7.28v-1Zm-.2,6.58v-2.88h-6.89v2.88Z"/><path class="cls-1" d="M154.83,336.79l-.34-1.07a15,15,0,0,0,3.31-5.64l1,.45a17,17,0,0,1-1.42,3.07V343h-1v-7.87A16.68,16.68,0,0,1,154.83,336.79Zm3.73-.15-.71-.85a17.18,17.18,0,0,0,3-5.74l1,.22c-.22.64-.45,1.26-.67,1.83h6.05v1h-4.71v2.31h4.09v1h-4.09v2.37h4.17v1h-4.17V343h-1v-9.89h-.76A16.63,16.63,0,0,1,158.55,336.64Z"/><path class="cls-1" d="M174.95,332.2a10.27,10.27,0,0,0-1-1.78l1-.35A12,12,0,0,1,176,332.2h5.24v1h-7.38l-.13,2.49v0h5.81a32.29,32.29,0,0,1-.32,5.34,2.09,2.09,0,0,1-2.07,1.85c-.45,0-1,0-1.61-.06l-.31-.91c.73,0,1.33,0,1.82,0,.71,0,1.15-.53,1.32-1.51.08-.59.13-1.86.15-3.8h-4.9a9.52,9.52,0,0,1-1,3.08,11.64,11.64,0,0,1-2.87,3.29l-.73-.7a10.91,10.91,0,0,0,3-3.5,10.18,10.18,0,0,0,.81-3.61c0-.88.07-1.55.08-2h-3.91v-1Z"/><path class="cls-1" d="M186,341a12.17,12.17,0,0,1,1.21,1.44l-.7.59a13.4,13.4,0,0,0-1.19-1.43,11.8,11.8,0,0,0-1.55-1.42l.63-.59A11,11,0,0,1,186,341Z"/><path class="cls-1" d="M199.24,330.18c-.13,1-.25,1.82-.36,2.62h2.25v.59a17,17,0,0,1-1.21,5.76c.59.53,1.07,1,1.46,1.44l-.69.78a16.33,16.33,0,0,0-1.2-1.29,10.82,10.82,0,0,1-2.28,2.9l-.64-.8a9,9,0,0,0,2.21-2.79q-.86-.8-1.89-1.68.46-1.83.84-4h-1.07v-1h1.23c.14-.88.25-1.78.36-2.7Zm.94,3.59h-1.46a34.22,34.22,0,0,1-.8,3.66c.45.36.87.73,1.26,1.06A14.92,14.92,0,0,0,200.17,333.77Zm6.72-2.34v-1.27h1v1.27h1.21v.9h-1.21v4.27h-2.07v1.23h3.59v.92h-2.65a8,8,0,0,0,2.8,2.76l-.69.85a9.44,9.44,0,0,1-2.84-3.61h-.21v4.15h-1v-4.15h-.13a8.34,8.34,0,0,1-3.12,3.61l-.55-.9a7.27,7.27,0,0,0,2.93-2.72h-2.7v-.92h3.57V336.6h-2.07v-4.27h-1.26v-.9h1.26v-1.27h1v1.27Zm0,2.19v-1.29h-3.24v1.29Zm0,.84h-3.24v1.27h3.24Z"/><path class="cls-1" d="M210.84,337.23l-.29-1a16.78,16.78,0,0,0,3.15-6.15l.91.42a19.76,19.76,0,0,1-1.36,3.31V343h-1v-7.56A19.76,19.76,0,0,1,210.84,337.23Zm7.24-4.71v-2.41h1v2.41h3.82v1H220a15.25,15.25,0,0,0,3.4,6.18l-.66.83a17.58,17.58,0,0,1-3.54-7h-.17v5.62h2.17v1h-2.17V343h-1v-2.89h-2.14v-1h2.14V333.5h-.17a15.78,15.78,0,0,1-3.64,7.17l-.52-.87a13.91,13.91,0,0,0,3.35-6.3h-2.73v-1Z"/><path class="cls-1" d="M236.68,330.75v1h-5.21V337h5.74v1h-5.74v5h-1v-5H224.8v-1h5.63v-5.29h-5.07v-1Zm-8.1,5.08-.94.46a25.4,25.4,0,0,0-1.51-3.21l.94-.46A32.91,32.91,0,0,1,228.58,335.84Zm7.35-2.84a17.36,17.36,0,0,1-1.67,3.25l-.9-.46a18.4,18.4,0,0,0,1.64-3.22Z"/><path class="cls-1" d="M239.13,334.75q1.85-.63,4.58-4.65l1,.35a21.51,21.51,0,0,1-3.8,4.26c2.69-.11,5.24-.29,7.65-.52a26.18,26.18,0,0,0-1.64-2.12l.91-.43a35.64,35.64,0,0,1,3.36,4.65l-1,.48c-.35-.59-.7-1.13-1-1.67q-4.43.4-9.89.6ZM249.68,343h-1v-.7h-7.31v.7h-1v-5.84h9.36Zm-1-1.67v-3.21h-7.31v3.21Z"/><path class="cls-1" d="M255.53,331.32v-1.18h1v1.18h5v-1.18h1v1.18h2.25v.91h-2.25v4.89H265V338h-9.67v3.81h9v.92h-10V338H253v-.92h2.52v-4.89h-2.37v-.91Zm3.61,7.51a6.13,6.13,0,0,1-2.3,2.44l-.76-.66a5.57,5.57,0,0,0,2.18-2.12Zm2.38-5.53v-1.07h-5v1.07Zm0,1.92v-1.08h-5v1.08Zm0,1.9V336h-5v1.08Zm2.07,3.49-.85.6a17.61,17.61,0,0,0-2.17-2.3l.77-.49A21.56,21.56,0,0,1,263.6,340.6Z"/><path class="cls-1" d="M272.49,338.12V336.5h1v1.63h4.59v1h-4.59v2.34h5.64v1H266.84v-1h5.64v-2.34h-4.66v-1Zm6.3-7.31v1h-6.56a12.54,12.54,0,0,1-2.89,3.42,66.17,66.17,0,0,0,6.61-.73q-.63-.76-1.3-1.47l.81-.52a28.78,28.78,0,0,1,3,3.6l-.83.59c-.29-.45-.62-.9-1-1.36a84.65,84.65,0,0,1-8.81.9l-.27-.88a9.85,9.85,0,0,0,3.49-3.54h-3.91v-1Z"/><path class="cls-1" d="M281.37,332.58v-.94h3a12,12,0,0,0-.71-1.34l1-.17a12.5,12.5,0,0,1,.73,1.51h2.94a14,14,0,0,0,.91-1.61l1,.34a8.64,8.64,0,0,1-.77,1.27h3.17v.94h-3.81v2.75h4.34v1H280.84v-1h4.33v-2.75Zm2.7,2.23-.85.38a10.23,10.23,0,0,0-1-1.92l.88-.29A11.84,11.84,0,0,1,284.08,334.8Zm7.2,8.15h-1v-.66h-6.64V343h-1V337.3h8.57Zm-1-3.54v-1.27h-6.64v1.27Zm0,2v-1.22h-6.64v1.22Zm-4.17-8.87v2.75h1.72v-2.75Zm5.8.74a8.88,8.88,0,0,1-1.2,1.85l-.8-.41a9.39,9.39,0,0,0,1.19-1.82Z"/><path class="cls-1" d="M301.45,342.69a9.14,9.14,0,0,1-2.21-.25,3.21,3.21,0,0,1-1.5-1,.77.77,0,0,0-.55-.35c-.34,0-.9.64-1.67,1.93l-.76-.69a5.5,5.5,0,0,1,2-2.14v-4.26h-2V335h2.93v5.24a2.37,2.37,0,0,1,.35.32,3.16,3.16,0,0,0,1.09.88,5.37,5.37,0,0,0,1.92.34c.74,0,1.67,0,2.77,0l2,0c.67,0,1.19,0,1.56-.06l-.24,1H304Zm-3.25-10.16-.71.7a15.35,15.35,0,0,0-2.41-2.23l.69-.66A17.38,17.38,0,0,1,298.2,332.53Zm4.86.21a13.26,13.26,0,0,0,2-1.27h-6.22v-.85h7.58v.73a15.25,15.25,0,0,1-2.73,1.89l.22.18h2.77v6.26c0,.71-.39,1.08-1.18,1.08h-1.16l-.22-.85,1.11,0c.34,0,.5-.17.5-.48v-1.05H303.4v2.41h-.94v-2.41h-2.34v2.45h-1v-7.45h3.5a16.57,16.57,0,0,0-1.83-1.12l.62-.6C302,332,302.59,332.39,303.06,332.74Zm-.6,1.51h-2.34v1.26h2.34Zm-2.34,3.33h2.34v-1.23h-2.34Zm5.63-3.33H303.4v1.26h2.35Zm-2.35,3.33h2.35v-1.23H303.4Z"/><path class="cls-1" d="M309.36,342.84l-.77-.69a8.14,8.14,0,0,0,1.39-4.75v-6.72h10.44v10.49a1.3,1.3,0,0,1-1.47,1.47h-1.61l-.27-1c.56,0,1.08.06,1.55.06s.77-.29.77-.88v-2.44h-3.81v4.1h-1v-4.1h-3.61A8.36,8.36,0,0,1,309.36,342.84ZM311,331.67v2.41h3.56v-2.41Zm0,5.8h3.56V335H311Zm8.41-5.8h-3.81v2.41h3.81Zm0,3.35h-3.81v2.45h3.81Z"/><path class="cls-1" d="M323.21,343l-.74-.67a10.42,10.42,0,0,0,1.74-6.12v-4.38h4.57a14.72,14.72,0,0,0-.81-1.64L329,330q.38.8.76,1.81h4.43v4.71h-9A11.61,11.61,0,0,1,323.21,343Zm2-10.18v2.73h8v-2.73Z"/><path class="cls-1" d="M.8,421.43a17.36,17.36,0,0,0,4.27-.94l.36.94c-.55.18-1.12.35-1.72.49v2.14H5.37v1H3.71v.73a27.85,27.85,0,0,1,1.86,2.07l-.56.85q-.76-1.26-1.3-2v6.4h-1v-6.32A14.3,14.3,0,0,1,1,430.2l-.42-1.09A10.92,10.92,0,0,0,2.66,425H.73v-1h2v-1.93c-.57.1-1.16.18-1.75.27Zm5.9,8.11a11.64,11.64,0,0,1-1,3L4.87,432a9.16,9.16,0,0,0,1-2.61Zm-.59-1.08v-.87h5.27v-1.06H6.3v-.84h5.07v-1H6.19v-.8l-.43.32-.59-.76a6.77,6.77,0,0,0,2.73-3.25l1,.11a6.08,6.08,0,0,1-.41.91h3.17v.74a12,12,0,0,1-1.26,1.82h1.95v4.71Zm.22-4.71h3a13,13,0,0,0,1.23-1.68H7.94A8.68,8.68,0,0,1,6.33,423.76Zm2.1,9.19c-.78,0-1.18-.43-1.18-1.28v-2.52h.91v2.34a.51.51,0,0,0,.57.57h1.34a.69.69,0,0,0,.49-.15,2.2,2.2,0,0,0,.25-1.15l.87.27a2.76,2.76,0,0,1-.48,1.67,1.48,1.48,0,0,1-1,.25Zm2.12-2.37-.73.5a11.6,11.6,0,0,0-1.22-1.71l.73-.46A12.55,12.55,0,0,1,10.55,430.58Zm3,1.33-.83.36a19.43,19.43,0,0,0-1.36-2.86l.87-.28A19.43,19.43,0,0,1,13.5,431.91Z"/><path class="cls-1" d="M25.14,424.39v1H21.58v2.46h4.17v1H21.58v2.9a27.56,27.56,0,0,0,3.56.24c.71,0,1.44,0,2.2-.08l-.18,1H25.58A17,17,0,0,1,19.5,432a5.29,5.29,0,0,1-2.25-2,10.37,10.37,0,0,1-2,3l-.64-.8a11.4,11.4,0,0,0,2.72-5.76l1,.17a17.48,17.48,0,0,1-.64,2.4,4.52,4.52,0,0,0,2.52,2.28,3.58,3.58,0,0,0,.41.11v-6.11H16.9v-1Zm1.6.25h-1v-2.06h-9.5v2.13h-1v-3.05h5.35a10.75,10.75,0,0,0-.7-1.39L21,420.1a13.71,13.71,0,0,1,.64,1.55h5.08Z"/><path class="cls-1" d="M32,420.16c-.17,1-.34,1.9-.5,2.75H33.9v.57a15.33,15.33,0,0,1-1.37,5.79,23.9,23.9,0,0,1,2,1.71l-.69.8A21.35,21.35,0,0,0,32,430.14a10.7,10.7,0,0,1-2.68,3l-.69-.84a9.39,9.39,0,0,0,2.58-2.79c-.64-.52-1.37-1.06-2.16-1.64a38.9,38.9,0,0,0,1.15-4H28.77v-1h1.7c.2-.92.36-1.86.52-2.83Zm.92,3.71H31.26a29.88,29.88,0,0,1-1,3.7l1.5,1.08A13,13,0,0,0,32.9,423.87Zm4.64,2.24v-1.77a14,14,0,0,0,2.16-2.41H34.78v-1h6.06v1a20,20,0,0,1-2.28,2.72v1.46h2.86v1H38.56v4.48c0,.9-.38,1.34-1.11,1.34h-2l-.27-1H37c.32,0,.49-.24.49-.71v-4.17H34.37v-1Z"/><path class="cls-1" d="M43.36,432.95l-.77-.69A8.15,8.15,0,0,0,44,427.51v-6.72H54.41v10.49a1.3,1.3,0,0,1-1.47,1.47H51.33l-.27-1c.56,0,1.08.06,1.55.06s.77-.29.77-.88v-2.44H49.58v4.1h-1v-4.1H44.93A8.37,8.37,0,0,1,43.36,432.95ZM45,421.77v2.41h3.56v-2.41Zm0,5.8h3.56v-2.45H45Zm8.41-5.8H49.58v2.41h3.81Zm0,3.35H49.58v2.45h3.81Z"/><path class="cls-1" d="M61.66,432.2h-1v-.8H58.13v1.2h-1v-10h1.3a12.89,12.89,0,0,0,.6-2.44l1,.14a13.34,13.34,0,0,1-.66,2.3h2.25Zm-1-5.71V423.6H58.13v2.89Zm0,4V427.4H58.13v3.07Zm8,.83a1.73,1.73,0,0,1-2,1.61c-.28,0-.76,0-1.43-.06l-.24-.92c.59,0,1.09,0,1.53,0a1.09,1.09,0,0,0,1.15-1.08c.08-.78.14-3.21.17-7.24H64.05a11.83,11.83,0,0,1-1.4,2.4l-.6-.8a12.38,12.38,0,0,0,2-5l1,.13a18.39,18.39,0,0,1-.62,2.34H68.9C68.9,427.31,68.83,430.2,68.69,431.29ZM66.39,429l-.8.56a27.49,27.49,0,0,0-2.31-3.11l.81-.5A23.56,23.56,0,0,1,66.39,429Z"/><path class="cls-1" d="M74,423.07v-2.91h1v2.91h4v-2.86h1v2.86h2.56v1H80v3.38h3.25v1H70.76v-1H74v-3.38H71.46v-1Zm1.78,6.51A17.31,17.31,0,0,1,71.46,433l-.7-.9A16.8,16.8,0,0,0,75,428.9ZM79,427.43v-3.38H75v3.38Zm4.26,4.8-.78.8a25.55,25.55,0,0,0-4.09-3.4l.73-.7A29.09,29.09,0,0,1,83.24,432.23Z"/><path class="cls-1" d="M87.61,424.51v6.18c.45-.39.92-.85,1.44-1.37l.27,1.07a18.68,18.68,0,0,1-2.58,2.16l-.39-.9a.76.76,0,0,0,.29-.59v-5.58h-2v-1Zm1-2-.69.7a15.19,15.19,0,0,0-2.35-2.14l.7-.69A16.83,16.83,0,0,1,88.64,422.5Zm3.87,6.39A18.6,18.6,0,0,1,90,433.14l-.88-.64a15.54,15.54,0,0,0,2.47-4Zm4-7.82v6.54H90.11v-6.54Zm-1,1H91.12v4.59h4.43Zm2,10.45-.87.6a32.15,32.15,0,0,0-2.49-4.16l.81-.52A32.92,32.92,0,0,1,97.52,432.48Z"/><path class="cls-1" d="M109.7,423.39v5.5H108v.94h3.18v.9H108v2.37h-1v-2.37h-4a3.16,3.16,0,0,1-.57,1.05,4.78,4.78,0,0,1-2.34,1.27l-.52-.8a4.53,4.53,0,0,0,2.06-1.05,3.44,3.44,0,0,0,.29-.48H98.8v-.9h3.43c0-.14,0-.28,0-.39v-.55h-1.78v-5.5Zm-10,.2-.84-.52a8.25,8.25,0,0,0,1.85-2.94l1,.21c-.11.28-.24.56-.35.83h3.47V422H103a8.12,8.12,0,0,1,.59.85l-.84.31A11.68,11.68,0,0,0,102,422H100.9A9.17,9.17,0,0,1,99.72,423.59Zm9,1.43v-.84h-7.26V425Zm0,1.5v-.79h-7.26v.79Zm0,.73h-7.26v.87h7.26Zm-5.45,2.2a3.52,3.52,0,0,1,0,.39H107v-.94h-3.77Zm2.45-6.14-.83-.53a7.26,7.26,0,0,0,1.51-2.62l1,.21-.29.76h4V422h-2.34a8.74,8.74,0,0,1,.62.91l-.84.31a8.31,8.31,0,0,0-.8-1.22h-1.06A9.12,9.12,0,0,1,105.72,423.31Z"/><path class="cls-1" d="M115.57,425.82l-.73.71a14.11,14.11,0,0,0-2.1-2.12l.71-.69A14.9,14.9,0,0,1,115.57,425.82ZM116,428a46.08,46.08,0,0,1-2,5l-1-.43a40.05,40.05,0,0,0,2.12-4.92Zm.11-5.45-.71.73a13.86,13.86,0,0,0-2.3-2.12l.71-.69A15.42,15.42,0,0,1,116.09,422.52Zm5.1-2.3v2.26h3.6v1h-3.6v2.62h4v1h-4.59a22.22,22.22,0,0,1-2.35,4.54c1.72-.18,3.45-.45,5.18-.79-.41-.84-.83-1.61-1.25-2.31l1-.32a30.54,30.54,0,0,1,2.21,4.51l-1,.42c-.2-.49-.38-1-.57-1.4-2.12.39-4.41.71-6.89,1l-.24-.88a1.61,1.61,0,0,0,.21-.1c.66-.58,1.53-2.12,2.59-4.62h-3.32v-1h4v-2.62h-3.32v-1h3.32v-2.26Z"/><path class="cls-1" d="M129.38,430.4a1.62,1.62,0,0,1,.28,1,2.63,2.63,0,0,1-.55,1.64,2.7,2.7,0,0,1-1.44.91v-.69a1.92,1.92,0,0,0,.88-.62,1.57,1.57,0,0,0,.31-.94.76.76,0,0,1-.31.06.81.81,0,0,1-.6-.25.85.85,0,0,1-.25-.62.81.81,0,0,1,.25-.63.87.87,0,0,1,.66-.24A.92.92,0,0,1,129.38,430.4Z"/><path class="cls-1" d="M143.7,425.93l-.71.7a14.07,14.07,0,0,0-2.41-2.14l.71-.7A16.94,16.94,0,0,1,143.7,425.93Zm.14,1.91a48.81,48.81,0,0,1-2.06,5.11l-.94-.42a42.54,42.54,0,0,0,2.12-5Zm0-5.32-.71.71a13.76,13.76,0,0,0-2.23-2.16l.73-.7A17.06,17.06,0,0,1,143.85,422.51Zm9.44,1.4v.92h-2.77v1.5h2.34v5.35q0,1.26-1.18,1.26h-1.16l-.25-.9,1.12,0c.36,0,.56-.21.56-.6v-4.26h-1.43a5.72,5.72,0,0,1,0,.71c.38.53.77,1.11,1.18,1.75l-.46.69c-.32-.7-.6-1.26-.83-1.68A7.92,7.92,0,0,1,148.8,432l-.66-.59a6.77,6.77,0,0,0,1.54-4.23h-1.85c0,.18,0,.36-.06.53.36.48.76,1,1.15,1.57l-.46.69c-.31-.62-.59-1.12-.81-1.51a7.59,7.59,0,0,1-1.27,2.77l-.67-.59a6.39,6.39,0,0,0,1.29-3.46h-1.43V433h-.91v-6.67H147v-1.5h-2.91v-.92Zm-6.79-2.54v-1.11h1v1.11h2.41v-1.11h1v1.11h2.21v1h-2.21v1h-1v-1h-2.41v1h-1v-1h-2.1v-1Zm3.18,5v-1.5h-1.83v1.5Z"/><path class="cls-1" d="M165.58,420.77v4.76h-3.77v2.33h4.62v1h-4.62v2.93a22.66,22.66,0,0,0,2.8.15c1.05,0,1.93,0,2.66-.07l-.28,1c-.85,0-1.62,0-2.31,0a13.13,13.13,0,0,1-5.1-.69,5.22,5.22,0,0,1-2.12-2.38,11.31,11.31,0,0,1-2.07,3.36l-.64-.8a12,12,0,0,0,2.63-5.88l1,.18a21.23,21.23,0,0,1-.55,2.17,5,5,0,0,0,2.24,2.54,5.6,5.6,0,0,0,.73.24v-6h-4v-4.76Zm-1,1H157.8v2.84h6.77Z"/><path class="cls-1" d="M174.4,426.49h-1.09a1.55,1.55,0,0,0-.56-1,2.25,2.25,0,0,0-1.33-.34,2,2,0,0,0-1.18.28.84.84,0,0,0-.46.76c0,.31.2.57.62.78a10.64,10.64,0,0,0,1.5.48,6.63,6.63,0,0,1,1.86.67,1.68,1.68,0,0,1,.87,1.48c0,1.48-1,2.24-3.07,2.24s-2.94-.84-3.11-2.51h1.09a1.87,1.87,0,0,0,.6,1.23,2.36,2.36,0,0,0,1.39.34c1.29,0,1.95-.42,1.95-1.23a1,1,0,0,0-.69-.94,10.55,10.55,0,0,0-1.54-.46,6.24,6.24,0,0,1-1.79-.64,1.55,1.55,0,0,1-.83-1.42,1.66,1.66,0,0,1,.81-1.46,3.34,3.34,0,0,1,2-.55C173.22,424.23,174.21,425,174.4,426.49Z"/><path class="cls-1" d="M181.39,425a2.89,2.89,0,0,1,.64,2v4.65H181v-1.22a3.36,3.36,0,0,1-1.11,1,3.68,3.68,0,0,1-1.81.45,2.6,2.6,0,0,1-1.74-.55,1.83,1.83,0,0,1-.67-1.46,2,2,0,0,1,1-1.86,4.64,4.64,0,0,1,2.52-.62l1.74,0V427c0-1.22-.63-1.82-1.89-1.82a2.31,2.31,0,0,0-1.3.32,1.57,1.57,0,0,0-.73,1l-1.11-.08a2.48,2.48,0,0,1,1.12-1.7,3.84,3.84,0,0,1,2.09-.5A3,3,0,0,1,181.39,425Zm-2.14,3.18c-1.62,0-2.44.56-2.44,1.61a1,1,0,0,0,.41.83,1.77,1.77,0,0,0,1.09.32,2.74,2.74,0,0,0,1.82-.67,1.93,1.93,0,0,0,.78-1.5v-.62Z"/><path class="cls-1" d="M188.05,421.67v1H186.8a.86.86,0,0,0-.69.24,1.11,1.11,0,0,0-.21.76v.8h2v.94h-2v6.3h-1.12v-6.3H183v-.94h1.82v-.83a2,2,0,0,1,.46-1.41,1.83,1.83,0,0,1,1.42-.52Z"/><path class="cls-1" d="M194.6,425.41a5,5,0,0,1,.84,3h-5.72a3.13,3.13,0,0,0,.66,1.89,2.05,2.05,0,0,0,1.63.67,2.25,2.25,0,0,0,1.44-.45,2.54,2.54,0,0,0,.73-1.13h1.12a3.27,3.27,0,0,1-1,1.71,3.37,3.37,0,0,1-2.31.81,3.24,3.24,0,0,1-2.49-1,4.49,4.49,0,0,1,0-5.48,3,3,0,0,1,2.49-1.13A3.09,3.09,0,0,1,194.6,425.41Zm-4.16.39a2.79,2.79,0,0,0-.69,1.7h4.52c-.14-1.55-.91-2.33-2.28-2.33A2,2,0,0,0,190.44,425.8Z"/><path class="cls-1" d="M198.69,424.43h1.79v.94h-1.79V430a.81.81,0,0,0,.15.57.7.7,0,0,0,.53.18h.92v.94h-1.09a1.57,1.57,0,0,1-1.27-.46,1.85,1.85,0,0,1-.35-1.23v-4.61h-1.46v-.94h1.46v-1.88l1.11-.46Z"/><path class="cls-1" d="M202.15,424.43l2.21,5.71,2.14-5.71h1.23l-4,10h-1.22l1.25-2.94-2.87-7.07Z"/><path class="cls-1" d="M211.84,431.11a12.18,12.18,0,0,1,1.2,1.44l-.7.59a13.46,13.46,0,0,0-1.19-1.43,11.91,11.91,0,0,0-1.55-1.41l.63-.59A11.09,11.09,0,0,1,211.84,431.11Z"/><path class="cls-1" d="M224,421.47v10.2h-1.11v-10.2Z"/><path class="cls-1" d="M227.49,421.94a.73.73,0,0,1,.25.59.82.82,0,0,1-.25.6.88.88,0,0,1-1.21,0,.8.8,0,0,1-.24-.6.72.72,0,0,1,.24-.59.88.88,0,0,1,1.21,0Zm0,2.49v7.24h-1.12v-7.24Z"/><path class="cls-1" d="M230,424.43l2.07,5.84,2.07-5.84h1.23l-2.75,7.24h-1.13l-2.73-7.24Z"/><path class="cls-1" d="M241.91,425.41a5,5,0,0,1,.84,3H237a3.11,3.11,0,0,0,.66,1.89,2.05,2.05,0,0,0,1.63.67,2.25,2.25,0,0,0,1.44-.45,2.52,2.52,0,0,0,.73-1.13h1.12a3.28,3.28,0,0,1-1,1.71,3.37,3.37,0,0,1-2.31.81,3.24,3.24,0,0,1-2.49-1,4.49,4.49,0,0,1,0-5.48,3,3,0,0,1,2.49-1.13A3.09,3.09,0,0,1,241.91,425.41Zm-4.16.39a2.8,2.8,0,0,0-.69,1.7h4.52c-.14-1.55-.91-2.33-2.28-2.33A2,2,0,0,0,237.75,425.8Z"/><path class="cls-1" d="M250.16,427.22v4.45H249V427.3c0-1.42-.64-2.12-1.91-2.12a1.78,1.78,0,0,0-1.3.55,2.33,2.33,0,0,0-.64,1.57v4.37h-1.12v-7.24h1.12v1.06a2.54,2.54,0,0,1,1-.92,2.58,2.58,0,0,1,1.3-.34C249.24,424.23,250.16,425.23,250.16,427.22Z"/><path class="cls-1" d="M257.5,425.41a5,5,0,0,1,.84,3h-5.71a3.11,3.11,0,0,0,.66,1.89,2.05,2.05,0,0,0,1.63.67,2.25,2.25,0,0,0,1.44-.45,2.52,2.52,0,0,0,.73-1.13h1.12a3.28,3.28,0,0,1-1,1.71,3.37,3.37,0,0,1-2.31.81,3.24,3.24,0,0,1-2.49-1,4.49,4.49,0,0,1,0-5.48,3,3,0,0,1,2.49-1.13A3.09,3.09,0,0,1,257.5,425.41Zm-4.16.39a2.8,2.8,0,0,0-.69,1.7h4.52c-.14-1.55-.91-2.33-2.28-2.33A2,2,0,0,0,253.34,425.8Z"/><path class="cls-1" d="M265.19,426.49H264.1a1.54,1.54,0,0,0-.56-1,2.24,2.24,0,0,0-1.33-.34,2,2,0,0,0-1.18.28.84.84,0,0,0-.46.76c0,.31.2.57.62.78a10.57,10.57,0,0,0,1.5.48,6.6,6.6,0,0,1,1.86.67,1.68,1.68,0,0,1,.87,1.48c0,1.48-1,2.24-3.07,2.24s-2.94-.84-3.11-2.51h1.09a1.88,1.88,0,0,0,.6,1.23,2.36,2.36,0,0,0,1.39.34c1.29,0,1.95-.42,1.95-1.23a1,1,0,0,0-.69-.94,10.51,10.51,0,0,0-1.54-.46,6.26,6.26,0,0,1-1.79-.64,1.55,1.55,0,0,1-.83-1.42,1.66,1.66,0,0,1,.81-1.46,3.34,3.34,0,0,1,2-.55C264,424.23,265,425,265.19,426.49Z"/><path class="cls-1" d="M272.26,426.49h-1.09a1.55,1.55,0,0,0-.56-1,2.25,2.25,0,0,0-1.33-.34,2,2,0,0,0-1.18.28.84.84,0,0,0-.46.76c0,.31.2.57.62.78a10.64,10.64,0,0,0,1.5.48,6.63,6.63,0,0,1,1.86.67,1.68,1.68,0,0,1,.87,1.48c0,1.48-1,2.24-3.07,2.24s-2.94-.84-3.11-2.51h1.09a1.87,1.87,0,0,0,.6,1.23,2.36,2.36,0,0,0,1.39.34c1.29,0,1.95-.42,1.95-1.23a1,1,0,0,0-.69-.94,10.55,10.55,0,0,0-1.54-.46,6.24,6.24,0,0,1-1.79-.64,1.55,1.55,0,0,1-.83-1.42,1.66,1.66,0,0,1,.81-1.46,3.34,3.34,0,0,1,2-.55C271.08,424.23,272.06,425,272.26,426.49Z"/><path class="cls-1" d="M276.37,424.08v-2q-1.05.17-2.14.25l-.32-.9a19.22,19.22,0,0,0,5.22-1.05l.48.84a16.81,16.81,0,0,1-2.26.66v2.21h2.4V425h-2.4v.7a29.15,29.15,0,0,1,2.45,2.45l-.59.87c-.73-1-1.34-1.79-1.86-2.38V433h-1v-6.22a13.52,13.52,0,0,1-2.39,3.61l-.42-1.09a11,11,0,0,0,2.82-4.16V425h-2.45v-.94Zm9.3,8.43h-1v-1.11h-3.4v1.25h-1V421.18h5.35Zm-1-2.06v-8.33h-3.4v8.33Z"/><path class="cls-1" d="M295.36,421.67v1h-3.53v9H290.7v-9h-3.53v-1Z"/><path class="cls-1" d="M300.69,421.67q3.45,0,3.45,2.94c0,2-1.16,3-3.46,3h-2.93v4.09H296.6v-10Zm-2.94,4.92h2.87a2.77,2.77,0,0,0,1.79-.49,1.84,1.84,0,0,0,.57-1.48,1.71,1.71,0,0,0-.59-1.46,2.67,2.67,0,0,0-1.78-.49h-2.87Z"/><path class="cls-1" d="M311.61,422.24a3.27,3.27,0,0,1,1.15,2.38h-1.13a2.52,2.52,0,0,0-.84-1.61,2.92,2.92,0,0,0-1.89-.53,3.37,3.37,0,0,0-1.74.36,1.39,1.39,0,0,0,.14,2.49,11.7,11.7,0,0,0,1.83.63,13.51,13.51,0,0,1,2.61,1,2.36,2.36,0,0,1,1.25,2.12,2.43,2.43,0,0,1-1,2.07,4.84,4.84,0,0,1-2.83.74,4.53,4.53,0,0,1-2.77-.76,3.56,3.56,0,0,1-1.3-2.75h1.13a2.75,2.75,0,0,0,.91,1.92,3.22,3.22,0,0,0,2,.56,3.81,3.81,0,0,0,2-.46,1.42,1.42,0,0,0,.76-1.26,1.62,1.62,0,0,0-1-1.47,11.94,11.94,0,0,0-2.12-.73,16.79,16.79,0,0,1-2.3-.81,2.11,2.11,0,0,1-1.15-1.93,2.28,2.28,0,0,1,1.11-2,4.45,4.45,0,0,1,2.55-.67A4.15,4.15,0,0,1,311.61,422.24Z"/><path class="cls-1" d="M326.75,431.32v1H314.12v-1Zm-1-10v1H315.15v-1Zm-1,4.85v1h-8.7v-1Z"/><path class="cls-1" d="M334.38,422.3a10.23,10.23,0,0,0-1-1.78l1-.35a12,12,0,0,1,1.09,2.13h5.24v1h-7.38l-.13,2.49v0h5.81a32.29,32.29,0,0,1-.32,5.34,2.09,2.09,0,0,1-2.07,1.85c-.45,0-1,0-1.61-.06l-.31-.91c.73,0,1.33,0,1.82,0,.71,0,1.15-.53,1.32-1.51.08-.59.13-1.86.15-3.8H333a9.53,9.53,0,0,1-1,3.08,11.67,11.67,0,0,1-2.87,3.29l-.73-.7a10.91,10.91,0,0,0,3-3.5,10.19,10.19,0,0,0,.81-3.61c0-.88.07-1.55.08-2h-3.91v-1Z"/><path class="cls-1" d="M354.67,420.79v1H349a9.81,9.81,0,0,1-.52,1.79h5.38v9.55h-1v-.7h-9v.7h-1v-9.55h4.51a10.05,10.05,0,0,0,.52-1.79H342.2v-1Zm-8.77,10.7v-7H344v7Zm4.13-5.28v-1.74h-3.19v1.74Zm0,2.61V427.1h-3.19v1.71Zm0,2.68V429.7h-3.19v1.79Zm2.91,0v-7h-2v7Z"/><path class="cls-1" d="M361.09,432.2h-1v-.8h-2.55v1.2h-1v-10h1.3a12.89,12.89,0,0,0,.6-2.44l1,.14a13.34,13.34,0,0,1-.66,2.3h2.25Zm-1-5.71V423.6h-2.55v2.89Zm0,4V427.4h-2.55v3.07Zm8,.83a1.73,1.73,0,0,1-2,1.61c-.28,0-.76,0-1.43-.06l-.24-.92c.59,0,1.09,0,1.53,0a1.09,1.09,0,0,0,1.15-1.08c.08-.78.14-3.21.17-7.24h-3.85a11.83,11.83,0,0,1-1.4,2.4l-.6-.8a12.38,12.38,0,0,0,2-5l1,.13a18.39,18.39,0,0,1-.62,2.34h4.47C368.33,427.31,368.26,430.2,368.12,431.29Zm-2.3-2.34-.8.56a27.49,27.49,0,0,0-2.31-3.11l.81-.5A23.56,23.56,0,0,1,365.82,429Z"/><path class="cls-1" d="M373.46,420.58a24.15,24.15,0,0,1-2.09,4.33c.64-.08,1.3-.2,1.95-.32.29-.55.6-1.12.92-1.74l1,.36a32,32,0,0,1-3.38,5.25,26.47,26.47,0,0,0,3.31-.83v.9a26.35,26.35,0,0,1-4.52,1l-.27-.94a1.87,1.87,0,0,0,.46-.29,15.08,15.08,0,0,0,2-2.8l-2.37.39-.25-.94a1.11,1.11,0,0,0,.43-.39,24.7,24.7,0,0,0,1.88-4.41Zm1.85,10.74a32.3,32.3,0,0,1-5,1.19l-.13-1a29.7,29.7,0,0,0,5.11-1.23Zm3.22-11a15.75,15.75,0,0,1-.64,2.17h4.38q0,7.25-.21,9c-.15,1.05-.85,1.58-2.12,1.58-.32,0-.88,0-1.68-.06L378,432c.7,0,1.29.06,1.79.06a1.16,1.16,0,0,0,1.3-1.05q.13-1.22.17-7.52h-3.82a12.09,12.09,0,0,1-1.78,2.66l-.63-.83a11.3,11.3,0,0,0,2.48-5.15Zm1.15,8.77-.85.6a23.14,23.14,0,0,0-2.34-3.25l.83-.52A24.93,24.93,0,0,1,379.68,429.09Z"/><path class="cls-1" d="M389.92,421.67v-1.4h1v1.4h5.45v1H391V424h4.41v4h-3.56a12.69,12.69,0,0,0,5.1,3.81l-.69.87A13.32,13.32,0,0,1,391,428h0v5.08h-1V428h0a11.86,11.86,0,0,1-5.31,4.71l-.59-.92A11.17,11.17,0,0,0,389,428h-3.52v-4h4.38v-1.37h-5.48v-1Zm0,3.29h-3.37V427h3.38Zm4.44,0H391V427h3.4Z"/><path class="cls-1" d="M410.62,420.79v.91h-4.13v1.25h3.26v3.53h-5.83l-.71,1.25h7.58v.92h-3a4.64,4.64,0,0,1-1.54,2.16c1.43.43,2.89.94,4.37,1.53l-.63.83c-1.54-.66-3.1-1.23-4.65-1.74a20.61,20.61,0,0,1-6.54,1.68l-.38-.9a24.5,24.5,0,0,0,5.65-1.18q-1.74-.52-3.49-.92c.34-.49.64-1,1-1.46h-3.46v-.92h4l.71-1.25h-3.68v-3.53h3.26V421.7h-4.13v-.91Zm-8.25,3h-2.3v1.78h2.3Zm4.38,4.82h-4.09c-.24.38-.46.73-.67,1,1,.22,2.09.49,3.17.8A3.77,3.77,0,0,0,406.76,428.65Zm-1.23-6.95h-2.19v1.25h2.19Zm0,2.13h-2.19v1.78h2.19Zm3.26,0h-2.3v1.78h2.3Z"/><path class="cls-1" d="M418,422.8v-2.62h1v2.62h3.17a15.42,15.42,0,0,0-2-1.91l.66-.62a14.07,14.07,0,0,1,2.1,1.86l-.66.66h2.13v1H419v.81a13.47,13.47,0,0,0,1.39,2.42,13.06,13.06,0,0,0,2.56-2.56l.74.66a12.29,12.29,0,0,1-2.77,2.61,16,16,0,0,0,3.89,3.43l-.7.83a15.43,15.43,0,0,1-5.11-5.73v5.45a1.13,1.13,0,0,1-1.26,1.3H415.9l-.21-1c.62,0,1.19.07,1.75.07.38,0,.57-.22.57-.66v-3.82a20.38,20.38,0,0,1-5.17,4.51l-.55-.91a19,19,0,0,0,5.71-4.82v-2.62h-5.58v-1Zm-1.82,4.47-.7.69a16.34,16.34,0,0,0-2.4-2.56l.7-.66A18.14,18.14,0,0,1,416.19,427.27Z"/><path class="cls-1" d="M9.34,488.49a4.12,4.12,0,0,1,1.55,3.12H8.8a2.81,2.81,0,0,0-1-1.71,3.5,3.5,0,0,0-2.12-.52,4,4,0,0,0-1.86.34A1.37,1.37,0,0,0,3,491a1.46,1.46,0,0,0,.9,1.31,18.17,18.17,0,0,0,2.2.79,20.33,20.33,0,0,1,3.37,1.26,3.08,3.08,0,0,1,1.67,2.77,3.23,3.23,0,0,1-1.35,2.74,6.46,6.46,0,0,1-3.82,1A6.45,6.45,0,0,1,2.3,500a4.38,4.38,0,0,1-1.76-3.58H2.63a3,3,0,0,0,1,2.09,4,4,0,0,0,2.34.56,4.57,4.57,0,0,0,2.23-.47,1.46,1.46,0,0,0,.83-1.28,1.82,1.82,0,0,0-1.21-1.62,23.89,23.89,0,0,0-2.5-.85,21,21,0,0,1-3-1.08,2.84,2.84,0,0,1-1.48-2.59,3,3,0,0,1,1.44-2.68,5.82,5.82,0,0,1,3.42-.94A5.86,5.86,0,0,1,9.34,488.49Z"/><path class="cls-1" d="M20.27,492.65a6.21,6.21,0,0,1,1.12,3.93h-7a3.37,3.37,0,0,0,.7,2,2.18,2.18,0,0,0,1.71.68,2.53,2.53,0,0,0,1.53-.43,3.1,3.1,0,0,0,.83-1.13h2.05a4.23,4.23,0,0,1-1.3,2.18,4.61,4.61,0,0,1-3.1,1.06,4.35,4.35,0,0,1-3.29-1.28,5,5,0,0,1-1.3-3.64,5,5,0,0,1,1.22-3.48,4,4,0,0,1,3.28-1.42A4.16,4.16,0,0,1,20.27,492.65Zm-5.06.7a3,3,0,0,0-.76,1.68h4.79a2.23,2.23,0,0,0-2.43-2.25A2.14,2.14,0,0,0,15.21,493.35Z"/><path class="cls-1" d="M25.92,491.35H28V493H25.92v5.26a.74.74,0,0,0,.14.5.62.62,0,0,0,.47.16h1.22v1.69H26.19a2.24,2.24,0,0,1-1.78-.65,2.43,2.43,0,0,1-.54-1.71V493H22.19v-1.69h1.67v-2.16l2.05-.85Z"/><path class="cls-1" d="M38.16,487.81l4.38,10.08h.07L47,487.81h2.47v12.86H47.33V491.8h-.07l-3.78,8.86H41.65l-3.78-8.86H37.8v8.86H35.69V487.81Z"/><path class="cls-1" d="M59.24,492.65a6.21,6.21,0,0,1,1.12,3.93h-7a3.37,3.37,0,0,0,.7,2,2.18,2.18,0,0,0,1.71.68,2.53,2.53,0,0,0,1.53-.43,3.1,3.1,0,0,0,.83-1.13h2.05a4.23,4.23,0,0,1-1.3,2.18,4.61,4.61,0,0,1-3.1,1.06,4.35,4.35,0,0,1-3.29-1.28,5,5,0,0,1-1.3-3.64,5,5,0,0,1,1.22-3.48,4,4,0,0,1,3.28-1.42A4.16,4.16,0,0,1,59.24,492.65Zm-5.06.7a3,3,0,0,0-.76,1.68h4.79a2.23,2.23,0,0,0-2.43-2.25A2.14,2.14,0,0,0,54.18,493.35Z"/><path class="cls-1" d="M64.89,491.35H67V493H64.89v5.26a.74.74,0,0,0,.14.5.62.62,0,0,0,.47.16h1.22v1.69H65.16a2.24,2.24,0,0,1-1.78-.65,2.43,2.43,0,0,1-.54-1.71V493H61.16v-1.69h1.67v-2.16l2.05-.85Z"/><path class="cls-1" d="M70.54,487.55v5a3.26,3.26,0,0,1,1.28-1.15,3.34,3.34,0,0,1,1.57-.34,3.12,3.12,0,0,1,2.54,1,4.32,4.32,0,0,1,.79,2.81v5.76H74.67v-5.4a3,3,0,0,0-.47-1.82,1.89,1.89,0,0,0-1.58-.67,1.75,1.75,0,0,0-1.51.76,3.09,3.09,0,0,0-.56,1.93v5.2H68.49V487.55Z"/><path class="cls-1" d="M86.6,492.49a5.49,5.49,0,0,1,0,7,4.87,4.87,0,0,1-6.84,0,5.49,5.49,0,0,1,0-7,4.35,4.35,0,0,1,3.4-1.39A4.4,4.4,0,0,1,86.6,492.49Zm-5.38,1.3a3.89,3.89,0,0,0-.59,2.23,3.83,3.83,0,0,0,.59,2.21,2.45,2.45,0,0,0,4,0,4.34,4.34,0,0,0,0-4.45,2.45,2.45,0,0,0-4,0Z"/><path class="cls-1" d="M98.35,487.55v13.11H96.45v-1a3.35,3.35,0,0,1-2.81,1.24,3.91,3.91,0,0,1-3.24-1.46A5.44,5.44,0,0,1,89.32,496a5.26,5.26,0,0,1,1.06-3.4,3.78,3.78,0,0,1,3.15-1.46,3.38,3.38,0,0,1,2.77,1.53v-5.08ZM92,493.68a3.86,3.86,0,0,0-.56,2.29,4.18,4.18,0,0,0,.52,2.32,2.19,2.19,0,0,0,2,1,2.14,2.14,0,0,0,1.85-1,4,4,0,0,0,.58-2.23v-.14a3.65,3.65,0,0,0-.72-2.36,2,2,0,0,0-1.64-.81A2.3,2.3,0,0,0,92,493.68Z"/></svg>