<svg id="图层_1" data-name="图层 1" xmlns="http://www.w3.org/2000/svg" viewBox="0 0 967.24 282"><defs><style>.cls-1{fill:#fff;}</style></defs><title>第一屏文字</title><path class="cls-1" d="M5.73,34.57A31.42,31.42,0,0,1,2.5,43L0,41.41A23.45,23.45,0,0,0,3,34ZM.54,24.17h3.4A21.79,21.79,0,0,0,2.5,21l2.65-1a27.1,27.1,0,0,1,1.47,4.13h3c.52-1.37,1-2.76,1.35-4.16l2.72,1a26.56,26.56,0,0,1-1.31,3.2h3.26V27H9.76v2.88h5.38v2.75H9.76v8.55Q9.76,44,6.59,44H4.93l-.67-2.82a5.2,5.2,0,0,0,1.34.19c.77,0,1.15-.34,1.15-1V32.58H1.06V29.83H6.75V27H.54ZM.86,16.9H6.59a23.9,23.9,0,0,0-1.37-2.37L8.35,14A27.26,27.26,0,0,1,9.57,16.9h5.92v2.82H.86ZM13,33.77a53.43,53.43,0,0,1,2,5.56l-2.56,1a51.26,51.26,0,0,0-1.92-5.85ZM29.06,17.32a35.49,35.49,0,0,1-9.12,1.76v5.18h9.92v2.91H26.75V43.94h-3V27.17H19.94v3.24q-.23,8.42-3.75,13.47l-2.14-2.31Q16.8,37.5,17,30.41V16.58a30.41,30.41,0,0,0,10.59-1.95Z"/><path class="cls-1" d="M32.51,27.37h29v3h-29Z"/><path class="cls-1" d="M68,26.89Q66.59,28.64,65,30.34l-1-3.17a34.57,34.57,0,0,0,7.3-13l2.84,1.35a35.69,35.69,0,0,1-3,6.78V44H68ZM92.19,21.7l.48,2.88L82.34,26c.19,1.77.41,3.28.67,4.54a21.56,21.56,0,0,0,3,7.65c1.16,1.66,2.25,2.53,3.3,2.59.75-.06,1.31-2,1.7-5.82l2.65,1.53a19.92,19.92,0,0,1-1.76,5.86,2.91,2.91,0,0,1-2.43,1.5q-2.4,0-5-3.07a22.07,22.07,0,0,1-4.19-8.8,36.6,36.6,0,0,1-.93-5.57l-6.66.9-.48-2.88,6.88-.93q-.31-4.29-.35-9.15h3.07c0,3.26.1,6.18.29,8.74Zm-6.94-7.26a40.88,40.88,0,0,1,4.86,4.77l-2.08,2a29.84,29.84,0,0,0-4.73-4.92Z"/><path class="cls-1" d="M111.9,14.18c.3.86.59,1.73.87,2.63h12.45v2.81H96.77V16.81h12.7a18.25,18.25,0,0,0-1-2Zm5.48,29.63-.71-2.72,2.47.13c1.19,0,1.79-.43,1.79-1.28V31.85H101.09V43.91H98.21V29.22h25.6V40.58c0,2.16-1.26,3.23-3.78,3.23ZM101.79,21.13h18.47v6.65H101.79Zm2.72,12.25h13V40.1h-13Zm12.83-7.9V23.43H104.7v2.05Zm-2.49,12.38V35.62h-7.62v2.24Z"/><path class="cls-1" d="M131.49,20.81a49.78,49.78,0,0,1-1,9.15L128,29.25a42.62,42.62,0,0,0,1.12-8.6Zm1-6.34h3V43.78h-3Zm5.34,5.41a42.11,42.11,0,0,1,1.51,4.35,28.2,28.2,0,0,0,1.47-7.74l2.78.38a32.6,32.6,0,0,1-.32,3.36h3.81V14.5h3.07v5.73h6.72v2.94h-6.72v7.08h6.37v3h-6.37v6.85h7.56V43H138.18V40.07h8.89V33.22H139.9v-3h7.17V23.17h-4.38a25.78,25.78,0,0,1-2.43,6.15l-2.24-2c.25-.51.48-1,.67-1.44l-1.38.36a37.54,37.54,0,0,0-1.69-5.67Z"/><path class="cls-1" d="M172.38,16.61a57.41,57.41,0,0,1,4.36,6.6L174.24,25c-.36-.73-.72-1.39-1.06-2q-5,.78-12,1.16l-.83-2.53a4.49,4.49,0,0,0,1.38-.77,26.68,26.68,0,0,0,4.48-6.53l2.91.87a23.59,23.59,0,0,1-4.51,6.3q2.91-.17,7.26-.7c-.47-.75-1.08-1.66-1.82-2.72ZM165.12,38v6h-2.94V25.54h12.54V40.42c0,2.22-1,3.33-3.1,3.33h-2.53l-.74-2.85,2.27.13c.77,0,1.16-.42,1.16-1.25V38Zm6.66-7.36V28.17h-6.66v2.46Zm-6.66,2.5v2.33h6.66V33.13Zm15.26-4.61q-3.36,0-3.36-3.68V14.47h3v3.81a76.24,76.24,0,0,0,8.1-1.6l1,2.69q-4.1,1-9.09,1.69V24.2c0,1.06.4,1.6,1.19,1.6H185a1.2,1.2,0,0,0,1.09-.48,7.92,7.92,0,0,0,.51-3.23l2.85.92q-.37,4-1.28,4.77a4,4,0,0,1-2.59.74Zm-.32,11.29c0,.6.38.9,1.12.9H185a1.29,1.29,0,0,0,1.09-.45,8.08,8.08,0,0,0,.55-3.26l2.78.86c-.26,2.69-.68,4.3-1.28,4.83a3.8,3.8,0,0,1-2.56.74h-5.25c-2.2,0-3.29-1-3.29-3V29.67h3v3.52a43.07,43.07,0,0,0,8.07-1.57l1,2.72a56.53,56.53,0,0,1-9.06,1.6Z"/><path class="cls-1" d="M203.78,15.78q-3.43,10-9,15.33L192.35,29A33.22,33.22,0,0,0,201,14.66ZM213,31.62a73.42,73.42,0,0,1,5.86,11L216,43.91c-.47-1.2-.92-2.24-1.34-3.14q-8.64,1.32-18.43,2l-.55-2.95q3.39-1.05,9.54-14.56l3,1a83,83,0,0,1-7.8,13.37q7-.48,13-1.47c-1.05-2.07-2.1-3.95-3.17-5.63Zm-.57-17.21a29.37,29.37,0,0,0,9.28,14.27l-2.18,2.49a30.89,30.89,0,0,1-9.69-15.29Z"/><path class="cls-1" d="M230.27,15.08c-.13.62-.34,1.52-.64,2.72H234v2.88H228.8c-.45,1.28-.9,2.46-1.34,3.55h6.11V27H231.2v3.3h3.26v2.81H231.2v6.43a27.25,27.25,0,0,0,2.34-1.66l.51,2.62a22.57,22.57,0,0,1-5.44,2.76l-1.15-2.5a1.26,1.26,0,0,0,.83-1.18V33.06H225V30.25h3.3V27H227V25.22l-.61,1.22L224,24.93a38,38,0,0,0,3.36-10.46Zm23.62,25.47-.77,2.85h-4.48c-.64,0-1.6,0-2.88-.07a13.57,13.57,0,0,1-3.87-.57,6.27,6.27,0,0,1-2.75-1.83,1.67,1.67,0,0,0-1.06-.67c-.45,0-1.33,1.22-2.66,3.65l-1.76-2.3a13.93,13.93,0,0,1,3.14-3.81V27.59h-2.24V24.9h5V38a6.94,6.94,0,0,0,2.4,1.92,12,12,0,0,0,3.24.61c1.62,0,2.83.06,3.64.06C250.12,40.61,251.8,40.59,253.89,40.55ZM236.64,14.92a37.74,37.74,0,0,1,3.2,5.12l-2.24,1.6a37.35,37.35,0,0,0-3.2-5.35Zm4.22,17.18h5.67V28.87h-5l-.58-2.5a30.63,30.63,0,0,0,2.66-5.95h-2.88V17.77h3.71c.3-1.09.58-2.21.86-3.36l2.69.64-.7,2.72H253v2.65h-6.56a37.52,37.52,0,0,1-2.4,5.79h2.47V22.15h2.81v4.06h3.36v2.66h-3.36V32.1h4.29v2.69h-4.29v4.8h-2.81v-4.8h-5.67Z"/><path class="cls-1" d="M15.39,66.62c-.59.64-1,1.09-1.28,1.35h8.55v2.36q-5.22,9.26-19.24,10.4L2.14,78a36.33,36.33,0,0,0,7.2-1.09,33.52,33.52,0,0,0-2.81-3l2.62-1.25q1.66,1.64,3,3.26a16.46,16.46,0,0,0,7-5.28H10.56A30.22,30.22,0,0,1,1.79,74L0,71.17q8.52-1.55,12.67-6ZM12.16,85.21a40.93,40.93,0,0,1,3.26,3.68,19.21,19.21,0,0,0,7.52-5.69H14.18a43.31,43.31,0,0,1-9.8,3L2.56,83.52q10.53-1,15.39-6.18l2.59,1.41a20.5,20.5,0,0,1-1.85,1.7h8.16v2.36Q20,94,1.28,94.53L.06,91.61A41.94,41.94,0,0,0,12.54,90a35.2,35.2,0,0,0-3.07-3.49Z"/><path class="cls-1" d="M36.64,75v2.33A36.53,36.53,0,0,1,32.7,94.72l-2.2-2q3.06-6,3.13-15.39V66.46h24V75Zm18-5.76h-18v3h18ZM37.15,82.62H59v2.75H47a37.44,37.44,0,0,1-4.64,6q5.69-.45,11-1.28c-.62-.79-1.37-1.68-2.27-2.69l2.24-1.37a58.09,58.09,0,0,1,5.89,7.07l-2.43,1.7c-.52-.82-1.05-1.59-1.6-2.34q-7.78,1-16.42,1.6l-.64-2.53a2.88,2.88,0,0,0,.61-.29c1.3-.74,3-2.72,5-5.92H37.15Zm2.24-5.18H57v2.62H39.39Z"/><path class="cls-1" d="M64,73.6a39,39,0,0,1,4.61,4.54l-2.08,2.08A26.94,26.94,0,0,0,62,75.55ZM68.9,84.16a108.82,108.82,0,0,1-3.84,10.46l-2.63-1.15a104.64,104.64,0,0,0,3.91-10.34ZM64.48,65.85a36.25,36.25,0,0,1,4.93,4.39l-2,2a27.2,27.2,0,0,0-4.89-4.45ZM70,68h3a20,20,0,0,0,.67-2.72l3,.42A15.92,15.92,0,0,1,76,68h4v8a31,31,0,0,0,3.26-10.66l2.85.52a38,38,0,0,1-1.09,5h6.56v2.88H90a36.09,36.09,0,0,1-2.53,13,17,17,0,0,0,4.74,5.34L90.4,94.65A18.3,18.3,0,0,1,86,89.57a20.31,20.31,0,0,1-4.51,5.24l-1.63-2.65a16.24,16.24,0,0,0,4.58-5.54,40.88,40.88,0,0,1-2.76-8l-1,1.38-1.25-1.57H75.52l.83,2.27h4.42v2.56H74.56l-.26,1.95h5.6c0,4.27-.26,6.9-.8,7.91a3.17,3.17,0,0,1-2.81,1.47h-2L73.57,92h2a1.15,1.15,0,0,0,1.15-.77A23,23,0,0,0,77,87.68h-3.2a17.49,17.49,0,0,1-.64,2.17,14.53,14.53,0,0,1-3.45,5.06l-1.86-2.37a13.17,13.17,0,0,0,2.78-4.06,27.38,27.38,0,0,0,1.22-5.22H68.9V80.7h4.6l-.83-2.27H70Zm2.62,4.16h4.7v-2h-4.7Zm4.7,4V74.4h-4.7v1.82Zm6-.73a42,42,0,0,0,2.34,7.87,35.57,35.57,0,0,0,1.5-9.57H84.1Z"/><path class="cls-1" d="M101.22,75.1H98.75v5.76c-.1,5.85-.94,10.53-2.49,14L94.14,93q1.69-4.23,1.8-12.13V66.46h14.72v2.75H98.75v3.14h11.07V75.1H103.9v4.13h5.89q-.12,10-.83,12.7a3.22,3.22,0,0,1-3.3,2.6,16.21,16.21,0,0,1-1.85-.16l-.8-2.5c1.24.08,2,.13,2.33.13.69-.07,1.12-.64,1.32-1.73a84.26,84.26,0,0,0,.32-8.42h-3.11q-.28,8.67-3.71,12.87l-2.11-1.83q3.11-3.87,3.17-12.35Zm13-9.6h2.94V72h5.63q0,15.23-.45,19c-.32,2.37-1.72,3.56-4.22,3.56l-2.85-.13-.64-2.56c1.28.1,2.3.16,3,.16,1.13,0,1.79-.72,2-2.15s.27-6.42.32-15h-2.85q-.28,13.66-5.51,20.2l-2.14-1.92q4.49-5.73,4.74-18.28h-3.4V72h3.4Z"/><path class="cls-1" d="M138.82,67.52a36.65,36.65,0,0,1-4.42,6.53,40.06,40.06,0,0,1-6.34,5.5l-1.66-2.69a21.76,21.76,0,0,0,5.7-4.73A32.54,32.54,0,0,0,136.26,66ZM131,80.73V77.82h19.87a96.29,96.29,0,0,1-.64,10,11.24,11.24,0,0,1-1.73,5.24,4.92,4.92,0,0,1-3.77,1.6h-6l-.8-2.91c1.86.07,3.62.1,5.28.1a3.43,3.43,0,0,0,3.52-2c.54-1.37.9-4.38,1.09-9.06H140a24.21,24.21,0,0,1-3.11,8.13,21.14,21.14,0,0,1-7.1,6.08l-1.89-2.43a19.11,19.11,0,0,0,6.27-5A19,19,0,0,0,137,80.73Zm15.3-15.16a21.37,21.37,0,0,0,9.47,11.35l-2.05,2.41a25.36,25.36,0,0,1-10-12.29Z"/><path class="cls-1" d="M173.73,73.89h2.94v3.68h8.83V88.45q0,3.31-3.36,3.32h-2.91L178.5,89l2.68.09c.94,0,1.41-.42,1.41-1.28V80.38h-5.92V94.91h-2.94V80.38h-6V92h-2.91V80.13a39.82,39.82,0,0,1-4.7,4.12l-1.95-2.56a35.47,35.47,0,0,0,9-9.47h-8v-3h9.64a35.93,35.93,0,0,0,1.63-4l3.07.39c-.45,1.36-.91,2.58-1.38,3.65H187.3v3H170.78a41.87,41.87,0,0,1-3.64,5.35h6.59Z"/><path class="cls-1" d="M191.58,78.46h13.76v2.85H200V88.7q3.36-.67,6.62-1.53v3q-7.12,1.73-15,2.85l-.7-2.88c2.09-.26,4.13-.54,6.11-.86V81.31h-5.38Zm-.44-7.61h15.32c-.08-1.54-.12-3.34-.12-5.41h3.13c0,2.07,0,3.87.13,5.41h5a26.71,26.71,0,0,0-2.75-4.13l2.5-1.19a40.34,40.34,0,0,1,2.84,4.2l-2.27,1.12h4.29v2.94h-9.44A53.5,53.5,0,0,0,212,86.11q2,5.34,3.36,5.34.73-.06,1.6-5.15l2.75,1.41q-1.44,7.14-4.16,7.17Q210.91,94.6,208,84a67.47,67.47,0,0,1-1.41-10.21H191.14Z"/><path class="cls-1" d="M225.7,78.05c-1,1.25-1.85,2.34-2.66,3.26l-1-3.26a37.9,37.9,0,0,0,6.59-13l2.85,1.35a42.71,42.71,0,0,1-2.82,6.88V95h-3Zm5.21-8.8h9.38a25.86,25.86,0,0,0-1.44-3.17l2.91-.8a26.61,26.61,0,0,1,1.54,4h8.64v2.84h-21Zm19,14.08V94.91h-2.95V93.25H236.06v1.66h-2.94V83.33Zm-16.07-9.28h15.4v2.72h-15.4Zm0,4.51h15.4v2.75h-15.4Zm2.24,11.84h10.88V86.14H236.06Z"/><path class="cls-1" d="M264.26,66.69a37.54,37.54,0,0,1-3.2,7V95h-3V78c-.88,1-1.87,2.14-3,3.3l-1-3.24a33.75,33.75,0,0,0,7.33-12.64Zm18.2,2.17a41.25,41.25,0,0,1-7.77,1.7v8.13h9.05v3h-9.05v9.09h7.45v3H264.26v-3h7.42V81.66h-9v-3h9V70.85q-3.36.23-6.14.22l-1-2.82a60,60,0,0,0,16.42-2Z"/><path class="cls-1" d="M307.78,94.72l-.8-3,3,.13c.79,0,1.19-.37,1.19-1.12V69.41h-20.1v25.5h-3V66.49h26.12v25q0,3.27-3.2,3.27Zm-7.91-7.2c-.89-1.45-1.74-2.73-2.53-3.84a33.67,33.67,0,0,1-3.84,7.49l-1.95-2.37a35.34,35.34,0,0,0,3.78-8q-1.86-2.56-4.23-5.34L293,73.66q1.35,1.41,3.33,3.94c.51-2.14.92-4.28,1.21-6.43l2.79.48a66.06,66.06,0,0,1-1.86,8.8c1.09,1.53,2.24,3.23,3.46,5.08Zm9.22,1.53q-1.21-2.17-2.75-4.6a33.71,33.71,0,0,1-4.16,7.48l-1.92-2.33a35,35,0,0,0,4.16-8.1c-1.35-2-2.72-3.87-4.13-5.66l1.89-1.79a46.21,46.21,0,0,1,3.26,4.16,64.39,64.39,0,0,0,1.44-6.95l2.82.48a71.8,71.8,0,0,1-2.21,9.51c1.24,1.89,2.45,3.83,3.65,5.79Z"/><path class="cls-1" d="M326.72,66.33a51,51,0,0,1-4.58,9.38q2.17-.25,3.27-.45l1.66-3.36,2.63,1a2.25,2.25,0,0,0-.23.45,16.16,16.16,0,0,0,5.31-7.94l2.88.55c-.15.47-.39,1.17-.73,2.11h8.38v2.21a19.39,19.39,0,0,1-4.7,6.68,26.25,26.25,0,0,0,7.58,3.46l-1.69,2.5a24.67,24.67,0,0,1-8.13-4.1,35.78,35.78,0,0,1-8,4.23l-1.86-2.47a33.4,33.4,0,0,0,7.62-3.74,18,18,0,0,1-2.62-3.33A20.64,20.64,0,0,1,331,75.9l-1.7-2.27a76.46,76.46,0,0,1-5.95,10.14A49.57,49.57,0,0,0,329.41,82V84.7a48,48,0,0,1-9.6,2.43l-.8-2.72a4.13,4.13,0,0,0,1.34-.86A33,33,0,0,0,324,78l-4.61.71-.77-2.76a3.13,3.13,0,0,0,1.28-1.12,60.29,60.29,0,0,0,4-9.56ZM330,90.94a58.77,58.77,0,0,1-10.69,2.88l-.35-3a63.79,63.79,0,0,0,11-2.76Zm15.29-8.35V94.65H342.4V93.47h-7.78v1.18h-2.91V82.59Zm-10.69,8.13h7.78V85.34h-7.78Zm.55-19.43a17,17,0,0,0,3.17,3.81A17.66,17.66,0,0,0,342,70.72h-6.47Z"/><path class="cls-1" d="M3.22,138a18.29,18.29,0,0,1-2.39,4.11L0,141.52a16.07,16.07,0,0,0,2.35-4Zm4.14-12.25h1v1.89h7.09v.91H8.32v2.6h5.74v5.52H2.45v-5.52H7.36Zm5.74,10V132H3.42v3.69ZM6,138.06q.6,2,1,3.93l-1,.23a23.18,23.18,0,0,0-.92-4Zm3.78-.16a35.81,35.81,0,0,1,1.44,4l-1,.24a22.45,22.45,0,0,0-1.37-4.09Zm3.78-.32a30.08,30.08,0,0,1,2.63,4l-.79.56a34.62,34.62,0,0,0-2.63-4.07Z"/><path class="cls-1" d="M20.27,129.87a19.19,19.19,0,0,1-1.78,1.82l-.51-.77a14.13,14.13,0,0,0,3.71-5.2l.9.23a14.85,14.85,0,0,1-.68,1.51h4.21a17.12,17.12,0,0,0-.78-1.64l1-.18c.26.58.51,1.19.73,1.82H33v.87H27.14v1.44h5.22v.79H27.14V132h5.22v.79H27.14v1.53h6.18v.85h-13Zm-1.84,7.83v-.91H25.7v-1.08h1v1.08h7.16v.91H28.08a12.81,12.81,0,0,0,6,3.12l-.42.86c-3.06-1-5.22-2.33-6.49-4h-.45v4.49h-1V137.7h-.48c-1.11,1.58-3.26,2.93-6.46,4.07l-.53-.84c3-.94,5-2,6.07-3.23Zm7.76-7.93v-1.44H21.4l-.21.34v1.1Zm0,2.19v-1.4h-5V132Zm0,2.32v-1.53h-5v1.53Z"/><path class="cls-1" d="M39.91,125.52a16.33,16.33,0,0,0-1.71,3.74,14.34,14.34,0,0,0,0,9.33,16.72,16.72,0,0,0,1.71,3.74h-1a15.32,15.32,0,0,1-1.79-3.71,14.67,14.67,0,0,1,0-9.38,15.57,15.57,0,0,1,1.79-3.72Z"/><path class="cls-1" d="M42.44,127.55h5.22q4.29,0,4.29,3.69c0,2.47-1.44,3.71-4.3,3.71H43.54v5.45h-1.1Zm1.1,1V134h4.05a3.79,3.79,0,0,0,2.47-.69,2.6,2.6,0,0,0,.77-2,2.51,2.51,0,0,0-.77-2,3.68,3.68,0,0,0-2.47-.71Z"/><path class="cls-1" d="M61,132.32a5.77,5.77,0,0,1,0,6.86,4.41,4.41,0,0,1-6.59,0,5.73,5.73,0,0,1,0-6.86,4,4,0,0,1,3.27-1.47A4.11,4.11,0,0,1,61,132.32Zm-5.8.69a5,5,0,0,0,0,5.49,3.19,3.19,0,0,0,5,0,4.54,4.54,0,0,0,.83-2.74,4.45,4.45,0,0,0-.83-2.75,3.18,3.18,0,0,0-5,0Z"/><path class="cls-1" d="M65.81,128a.75.75,0,0,1,.27.63.91.91,0,0,1-.29.65.92.92,0,0,1-.63.25.88.88,0,0,1-.65-.25.89.89,0,0,1-.27-.65.75.75,0,0,1,.27-.63.86.86,0,0,1,.65-.27A.89.89,0,0,1,65.81,128Zm-1.19,3.08H65.7v9.3H64.62Z"/><path class="cls-1" d="M76.07,134.68v5.72H75v-5.65c0-2-.88-3-2.65-3a2.45,2.45,0,0,0-1.87.81,3.28,3.28,0,0,0-.88,2.2v5.61H68.51v-9.3h1.08v1.53a3.8,3.8,0,0,1,1.26-1.32,3.28,3.28,0,0,1,1.76-.46C74.92,130.85,76.07,132.12,76.07,134.68Z"/><path class="cls-1" d="M80.59,128.09v3H83V132H80.59v6.3a1.47,1.47,0,0,0,.21.89,1.09,1.09,0,0,0,.81.25h1.17v.93H81.47a1.92,1.92,0,0,1-1.55-.55,2.27,2.27,0,0,1-.41-1.52V132h-2v-.93h2v-2.56Z"/><path class="cls-1" d="M92.38,128.33a4.06,4.06,0,0,1,1.43,3H92.72a3.61,3.61,0,0,0-1.14-2.29,3.89,3.89,0,0,0-2.59-.77,4.76,4.76,0,0,0-2.45.54,2,2,0,0,0,.2,3.53,19.61,19.61,0,0,0,2.47.83,15.37,15.37,0,0,1,3.31,1.22,3,3,0,0,1,1.6,2.7,3.05,3.05,0,0,1-1.39,2.63,6,6,0,0,1-3.51.92,5.51,5.51,0,0,1-3.49-1,4.62,4.62,0,0,1-1.62-3.49h1.08a3.88,3.88,0,0,0,1.26,2.7,4.36,4.36,0,0,0,2.76.79A5.12,5.12,0,0,0,92,139,2.07,2.07,0,0,0,93,137.16a2.27,2.27,0,0,0-1.32-2,14.69,14.69,0,0,0-2.83-1,16,16,0,0,1-3-1,2.64,2.64,0,0,1-1.47-2.42,2.85,2.85,0,0,1,1.38-2.55A5.66,5.66,0,0,1,89,127.3,5.08,5.08,0,0,1,92.38,128.33Z"/><path class="cls-1" d="M102.92,132.34a6.43,6.43,0,0,1,1.06,3.73H96.43a4.32,4.32,0,0,0,.91,2.68,2.94,2.94,0,0,0,2.31,1,3.1,3.1,0,0,0,2-.67,3.48,3.48,0,0,0,1-1.63h1.1a4.4,4.4,0,0,1-1.24,2.21,4.2,4.2,0,0,1-2.9,1,4,4,0,0,1-3.14-1.34,5.13,5.13,0,0,1-1.2-3.58,5.2,5.2,0,0,1,1.15-3.44,4.28,4.28,0,0,1,6.46,0Zm-5.5.4a4.08,4.08,0,0,0-1,2.44h6.41c-.18-2.26-1.25-3.4-3.22-3.4A2.77,2.77,0,0,0,97.42,132.74Z"/><path class="cls-1" d="M108,128.09v3h2.43V132H108v6.3a1.4,1.4,0,0,0,.22.89,1.06,1.06,0,0,0,.81.25h1.17v.93h-1.32a1.9,1.9,0,0,1-1.54-.55,2.26,2.26,0,0,1-.42-1.52V132h-2v-.93h2v-2.56Z"/><path class="cls-1" d="M113.11,125.52a16.34,16.34,0,0,1,1.78,3.72,14.49,14.49,0,0,1,0,9.38,16.93,16.93,0,0,1-1.78,3.71h-1a17.93,17.93,0,0,0,1.71-3.74,14.52,14.52,0,0,0,0-9.33,17.47,17.47,0,0,0-1.71-3.74Z"/><path class="cls-1" d="M120,131.62a25.79,25.79,0,0,1-2.12,2.48l-.31-1a20.11,20.11,0,0,0,4.36-7.35l.9.42a19.64,19.64,0,0,1-1.86,4v12h-1Zm5.42-2.27a21.32,21.32,0,0,1-2.92,4.63l-.68-.81a21.86,21.86,0,0,0,4-7.53l1,.24c-.23.71-.54,1.55-.94,2.52h8.07v.95h-6.29v3.28h5.46v1h-5.46v3.33h5.6v.95h-5.6v4.29h-1V129.35Z"/><path class="cls-1" d="M142.45,125.73h1v1.86c0,1-.06,1.92-.12,2.68h7.47q0,7.57-.69,9.67a2.55,2.55,0,0,1-2.48,2.07c-.85,0-1.57,0-2.14-.06l-.27-.95c.86.07,1.65.11,2.36.11,1.14-.09,1.8-1.15,2-3.19s.25-4.35.25-6.68h-6.57a19.54,19.54,0,0,1-1.51,5.73,11.34,11.34,0,0,1-5.28,5.13l-.54-.87a10.79,10.79,0,0,0,5.13-5.07,18.64,18.64,0,0,0,1.23-4.92h-5.75v-1h5.85c.07-.78.11-1.67.13-2.68Zm-4.37.49a22.65,22.65,0,0,1,2.44,2.92l-.79.52a22.79,22.79,0,0,0-2.41-2.9Zm6.21,7.6a29.69,29.69,0,0,1,3.09,3.83l-.84.58a28.71,28.71,0,0,0-3-3.91Z"/><path class="cls-1" d="M153.83,133.31h16.11v1H153.83Z"/><path class="cls-1" d="M180.34,125.75q2.26,3.8,7.85,6.7l-.58.86a19.37,19.37,0,0,1-7.72-6.62,21.18,21.18,0,0,1-7.72,6.73l-.58-.88a20.1,20.1,0,0,0,7.85-6.79ZM179.4,131h1v11.12h-1Z"/><path class="cls-1" d="M198.25,125.72a13.63,13.63,0,0,1,.88,1.76h6.68v.94H192.38v4.24a21.56,21.56,0,0,1-1.91,9.42l-.73-.67a20.25,20.25,0,0,0,1.67-8.75v-5.18h6.73a9.47,9.47,0,0,0-.9-1.58Zm-2.79,9.57v5.29a19,19,0,0,0,2.18-.66l.18.92c-1,.28-2.14.6-3.55.93l-.2-.86c.29-.07.44-.22.44-.43v-9.72a73.7,73.7,0,0,0,9.66-1.16l.49.81c-1.25.24-2.65.47-4.19.67.1,1.19.24,2.28.41,3.28h4.46v.93H201c.14.72.29,1.34.43,1.86A9.28,9.28,0,0,0,202.8,140c.5.62.92.94,1.28.94s.65-.9,1-2.59l.8.52c-.5,2.06-1,3.09-1.68,3.09a2.46,2.46,0,0,1-1.74-1.06,10.3,10.3,0,0,1-1.7-3.11,18.79,18.79,0,0,1-.63-2.47Zm0-3.72v2.79h4.48c-.15-.93-.3-2-.43-3.17C198.2,131.33,196.85,131.46,195.46,131.57Zm3.24,6.78a26,26,0,0,1,2.09,3l-.76.56a21.66,21.66,0,0,0-2.05-3Z"/><path class="cls-1" d="M210.72,130.76v1.62a20.1,20.1,0,0,1-2.23,9.66l-.72-.63a18.57,18.57,0,0,0,2-9v-5.82H222.6v4.2Zm10.91-3.28H210.72v2.36h10.91Zm-10.11,8.19h12.09v.9h-6.94a19.71,19.71,0,0,1-3.14,4.12c2.62-.18,5.16-.45,7.64-.83-.54-.66-1.13-1.33-1.77-2l.74-.45a34.83,34.83,0,0,1,3.47,4.19l-.77.56c-.34-.5-.69-1-1-1.47-3.08.42-6.23.73-9.47.93l-.24-.86.2-.07q1.26-.76,3.35-4.09h-4.12Zm1.24-2.93h9.7v.86h-9.7Z"/><path class="cls-1" d="M237.65,142l-.25-.95,1.78,0a.71.71,0,0,0,.79-.81V127.5H227.81v14.61h-1V126.54H241v14a1.31,1.31,0,0,1-1.46,1.49Zm-4.14-3.92c-.63-1-1.28-2-1.94-2.88a19.52,19.52,0,0,1-2.5,4.77l-.63-.76a19.29,19.29,0,0,0,2.48-4.93c-1-1.3-1.85-2.38-2.65-3.26l.62-.61a32.6,32.6,0,0,1,2.35,2.84,35,35,0,0,0,1-4.42l.92.16a35.41,35.41,0,0,1-1.19,5.18c.65.88,1.39,2,2.23,3.28Zm5.35.83c-.64-1.07-1.31-2.17-2-3.3a19.41,19.41,0,0,1-2.69,4.79l-.62-.76a18.93,18.93,0,0,0,2.67-5q-1.35-2-2.61-3.48l.63-.61a35.59,35.59,0,0,1,2.34,3,32.08,32.08,0,0,0,1.1-4.73l.91.16a34.18,34.18,0,0,1-1.35,5.55c.77,1.16,1.54,2.38,2.31,3.67Z"/><path class="cls-1" d="M250.14,139.7a35.32,35.32,0,0,1-6,1.68l-.12-.94a32.78,32.78,0,0,0,6.15-1.67ZM248,126.09a27.91,27.91,0,0,1-2.84,5.75c.79-.1,1.71-.27,2.75-.51l1-1.92.85.32a38.14,38.14,0,0,1-4,6.73,29.56,29.56,0,0,0,4.08-1.11v.88a29.93,29.93,0,0,1-5.24,1.31l-.26-.92a1.79,1.79,0,0,0,.44-.27,21.14,21.14,0,0,0,2.7-4.08c-1.24.25-2.31.44-3.2.56l-.23-.9a1.19,1.19,0,0,0,.41-.36,27.42,27.42,0,0,0,2.68-5.84Zm6-.23a16,16,0,0,1-.6,1.58h5v.74a12.29,12.29,0,0,1-3,4.07,13.94,13.94,0,0,0,4.77,2.3l-.56.8a13.88,13.88,0,0,1-4.91-2.52,19.28,19.28,0,0,1-4.72,2.62l-.61-.79a18.61,18.61,0,0,0,4.61-2.46,11.54,11.54,0,0,1-2-2.51,15.27,15.27,0,0,1-1.73,1.77l-.58-.76a10,10,0,0,0,3.33-5Zm4.46,9.7v6.5h-.93v-.85h-5.35v.85h-.94v-6.5Zm-6.28,4.75h5.35v-3.87h-5.35Zm.4-11.35a10.77,10.77,0,0,0,2.12,2.68,11.56,11.56,0,0,0,2.68-3.3H253Z"/><path class="cls-1" d="M265.19,140.1a3.31,3.31,0,0,1-1.8,3.11l-.38-.63a2.72,2.72,0,0,0,1.37-2.19h-.27a1,1,0,0,1-.66-.23.84.84,0,0,1-.26-.65.78.78,0,0,1,.26-.66.84.84,0,0,1,.66-.26Q265.19,138.6,265.19,140.1Z"/><path class="cls-1" d="M281,139.18a.89.89,0,0,0,.43-.79V126.53h1v12.13a28.72,28.72,0,0,0,4.37-2.18l.29,1a36.26,36.26,0,0,1-5.8,2.65Zm4.5-11.43a40.7,40.7,0,0,1,3.85,4.93l-.81.58a34.49,34.49,0,0,0-3.87-5Zm.63,14.29-.67-.81a12.94,12.94,0,0,0,6.05-6.66,28.34,28.34,0,0,0,1.13-8.66h1a29.42,29.42,0,0,1-1.08,8.57c-.12.36-.22.63-.29.79a40.87,40.87,0,0,1,3.82,5.84l-.74.73a39.85,39.85,0,0,0-3.49-5.61A14.21,14.21,0,0,1,286.13,142Z"/><path class="cls-1" d="M304.47,126.6a20.58,20.58,0,0,1-2.56,3.78,20.17,20.17,0,0,1-3.63,3.11l-.56-.86a13.55,13.55,0,0,0,3.46-2.88,18.3,18.3,0,0,0,2.46-3.66Zm-4.18,7.32V133H311c-.05,2.19-.16,4-.32,5.34a6.53,6.53,0,0,1-.87,2.83,2.34,2.34,0,0,1-1.92.84h-3.37l-.25-.93,3.15,0a1.92,1.92,0,0,0,2-1.31,25.65,25.65,0,0,0,.63-5.89h-5.13a14.35,14.35,0,0,1-1.8,4.86,12.16,12.16,0,0,1-4,3.37l-.62-.77a9.29,9.29,0,0,0,5.41-7.46Zm8.12-8a12.89,12.89,0,0,0,5.64,6.6l-.67.76a14.13,14.13,0,0,1-5.8-6.9Z"/><path class="cls-1" d="M324.54,130.45h.95v2.29h5.13v6a1.37,1.37,0,0,1-1.55,1.57h-1.72l-.24-.94,1.66.06a.8.8,0,0,0,.92-.89v-4.86h-4.2v8.5h-.95v-8.5h-4.21v6.74h-.94v-7.08a23.67,23.67,0,0,1-3.17,2.85l-.63-.81a20.78,20.78,0,0,0,5.65-6.18h-5.05v-1h5.58a20.16,20.16,0,0,0,1-2.52l1,.11a22.56,22.56,0,0,1-.93,2.41h8.91v1h-9.4a20.64,20.64,0,0,1-2.45,3.57h4.63Z"/><path class="cls-1" d="M334.39,133.29h7.52v.94h-3.28v5.06c1.19-.22,2.52-.51,4-.88v1q-3.86.93-8.35,1.56L334,140c1.23-.15,2.43-.33,3.62-.54v-5.24h-3.27Zm-.31-4.23h9c-.06-.88-.09-2-.09-3.29h1c0,1.32,0,2.42.09,3.29h5.65v1h-5.6a29.15,29.15,0,0,0,1.5,8c.77,2,1.48,3,2.14,3q.66-.14,1.26-3.24l.88.45c-.54,2.56-1.23,3.84-2.08,3.86-1.49-.08-2.78-2.06-3.86-6a34.41,34.41,0,0,1-.84-6.1h-9Zm12.58-3.16a19.37,19.37,0,0,1,1.77,2.39l-.83.41a22.62,22.62,0,0,0-1.75-2.41Z"/><path class="cls-1" d="M352.22,142l-.2-.9c.47,0,.92.06,1.36.06s.8-.29.8-.87v-4.66a24.57,24.57,0,0,1-2.37.86l-.25-.95c.92-.26,1.8-.55,2.62-.86v-4.52H351.9v-1h2.28v-3.38h1v3.38h2v1h-2v4.1q1-.47,2.07-1.08v1c-.6.34-1.29.7-2.07,1.06v5.33a1.29,1.29,0,0,1-1.44,1.47Zm5.69-13.48h4.41v-2.68h1v2.68h4.41v.92h-4.41v3.22H367v.88a12.49,12.49,0,0,1-3.27,5.26,18.58,18.58,0,0,0,4.53,2.63l-.5.79a19,19,0,0,1-4.7-2.85,16.9,16.9,0,0,1-5.26,2.88l-.46-.82a16.69,16.69,0,0,0,5-2.67,11.38,11.38,0,0,1-3.15-5.16h-1v-.94h4.09v-3.22h-4.41Zm2.22,5.08a10.26,10.26,0,0,0,2.88,4.59,12.05,12.05,0,0,0,3-4.59Z"/><path class="cls-1" d="M370.3,130.13h7.1V125.7h1v4.43h7.13V131h-6a19.45,19.45,0,0,0,6.56,8.39l-.65.81a21.51,21.51,0,0,1-6.82-9.2h-.18v11.09h-1V131h-.18a19,19,0,0,1-7,9.35l-.54-.85a18.08,18.08,0,0,0,6.64-8.5h-6Zm11-4.4a24.2,24.2,0,0,1,2.57,3l-.77.54a23.45,23.45,0,0,0-2.58-3.08Z"/><path class="cls-1" d="M394.45,125.73h.95v1.86c0,1-.06,1.92-.12,2.68h7.47q0,7.57-.69,9.67a2.55,2.55,0,0,1-2.48,2.07c-.85,0-1.57,0-2.14-.06l-.27-.95c.86.07,1.65.11,2.36.11,1.14-.09,1.8-1.15,2-3.19s.25-4.35.25-6.68h-6.57a19.54,19.54,0,0,1-1.51,5.73,11.34,11.34,0,0,1-5.28,5.13l-.54-.87a10.79,10.79,0,0,0,5.13-5.07,18.64,18.64,0,0,0,1.23-4.92h-5.75v-1h5.85c.07-.78.11-1.67.13-2.68Zm-4.37.49a22.65,22.65,0,0,1,2.44,2.92l-.79.52a22.79,22.79,0,0,0-2.41-2.9Zm6.21,7.6a29.69,29.69,0,0,1,3.09,3.83l-.84.58a28.71,28.71,0,0,0-3.05-3.91Z"/><path class="cls-1" d="M406.37,127.17h3.29v-1.45h1v1.45h6.5v-1.45h1v1.45h3.3V128h-3.3v6.23h3.58v.86h-4a8.67,8.67,0,0,0,4.25,2.88l-.4.85a9.68,9.68,0,0,1-4.79-3.73H411a10.08,10.08,0,0,1-4.6,3.8l-.49-.81a9.3,9.3,0,0,0,4.16-3h-4v-.86h3.58V128h-3.29Zm7,8.72h1v1.56h3.74v.88h-3.74v2.29h6.26v.92H407v-.92h6.39v-2.29h-3.77v-.88h3.77Zm-2.77-6.3h6.5V128h-6.5Zm0,2.28h6.5v-1.49h-6.5Zm0,2.38h6.5v-1.57h-6.5Z"/><path class="cls-1" d="M424,127.79v-.94h6v.94h-2.8a24.26,24.26,0,0,1-1.1,4.37h3.42v9.43h-.87v-1.22h-2.17v1.4h-.89v-8.4a18.52,18.52,0,0,1-1.46,2.61l-.52-.83a18.51,18.51,0,0,0,2.67-7.36Zm2.44,11.71h2.17V133h-2.17Zm11.66-7.43v-4.79H439V133h-3.4v7h2.89v-5.24h.92v7.44h-.92v-1.3h-6.68v1.3h-.91v-7.44h.91V140h2.87v-7h-3.37v-5.69h.92v4.79h2.45v-6.28h.92v6.28Z"/><path class="cls-1" d="M445.19,140.1a3.31,3.31,0,0,1-1.8,3.11l-.38-.63a2.72,2.72,0,0,0,1.37-2.19h-.27a1,1,0,0,1-.66-.23.84.84,0,0,1-.26-.65.78.78,0,0,1,.26-.66.84.84,0,0,1,.66-.26Q445.19,138.6,445.19,140.1Z"/><path class="cls-1" d="M463.64,142.1h-.95v-9.76a19.65,19.65,0,0,1-2.68,5.45l-.42-1a16.82,16.82,0,0,0,3-6.43H460v-.95h2.72v-3.62h.95v3.62H466v.95h-2.33v1.28c.87.91,1.75,1.94,2.65,3.08l-.56.81a31.42,31.42,0,0,0-2.09-2.84Zm5.8-16.28a20.57,20.57,0,0,1-.58,2.65h6.39q0,9.15-.3,11.32a2.24,2.24,0,0,1-2.42,2.2c-.37,0-1,0-1.94-.06l-.21-.86c.75,0,1.42.05,2,.05a1.56,1.56,0,0,0,1.66-1.47c.17-1.12.26-4.54.29-10.26h-5.75a15.47,15.47,0,0,1-1.85,3.78l-.63-.81a16.86,16.86,0,0,0,2.39-6.64Zm-2.72,11.58c.5-.29,1.41-2.26,2.7-5.91l.88.33a38.06,38.06,0,0,1-2.21,5.27c1.52-.31,2.65-.56,3.38-.74-.2-.58-.5-1.33-.88-2.23l.85-.27a38.28,38.28,0,0,1,1.62,4.54l-.85.39c-.16-.6-.32-1.15-.49-1.67q-2.1.55-4.8,1.08Z"/><path class="cls-1" d="M494,140.76l-.18.94h-5.36c-3.2,0-5.48-.47-6.86-1.42a4.24,4.24,0,0,1-.74-.69,10.61,10.61,0,0,1-2.23,2.36l-.63-.81a8.31,8.31,0,0,0,2.23-2.32,12.78,12.78,0,0,1-1.75-3.92l.81-.31a15,15,0,0,0,1.41,3.4,12.61,12.61,0,0,0,1.18-5h-3.36v-.75a42.31,42.31,0,0,0,3-4.58H478.4v-.93h4.27v.81a41.6,41.6,0,0,1-2.86,4.55h3v.61a13.41,13.41,0,0,1-1.49,6.11,4.63,4.63,0,0,0,1,.88,12.51,12.51,0,0,0,5.67,1.1Q489.91,140.84,494,140.76ZM492.48,133h-3.85v1.65H493v.85h-4.34v1.78h4.84v.85h-4.84v2h-1v-2h-4.19v-.85h4.19v-1.78H484v-.85h3.65V133h-3.27v-.87h3.27v-1.67H483.5v-.83h4.15v-1.69h-3.27v-.85h3.27v-1.36h1v1.36h3.85v2.54h1.31v.83h-1.31Zm-3.85-5.06v1.69h2.91v-1.69Zm0,2.52v1.67h2.91v-1.67Z"/><path class="cls-1" d="M495.83,133.31h16.11v1H495.83Z"/><path class="cls-1" d="M522.34,125.75q2.26,3.8,7.85,6.7l-.58.86a19.37,19.37,0,0,1-7.72-6.62,21.18,21.18,0,0,1-7.72,6.73l-.58-.88a20.1,20.1,0,0,0,7.85-6.79ZM521.4,131h1v11.12h-1Z"/><path class="cls-1" d="M542.9,135.44a51.61,51.61,0,0,1,4.23,6.26l-.83.58c-.25-.5-.57-1.05-1-1.68q-5.9.65-12,1.06l-.17-.82c1.57-.86,3.2-3,4.88-6.45h-6.16v-1h7.47v-3.71h-6.35v-1h6.35v-3h1v3h6.31v1h-6.31v3.71h7.45v1h-8.66a20.92,20.92,0,0,1-4.19,6.32c4.84-.38,8.13-.69,9.84-.92q-1.16-1.8-2.7-3.85Z"/><path class="cls-1" d="M557.39,125.66h1V129h6.52v8.28h-1v-1.2h-5.53v6.22h-1v-6.22h-5.51v1.2h-1V129h6.5Zm-5.51,9.45h5.51V130h-5.51Zm6.51,0h5.53V130h-5.53Z"/><path class="cls-1" d="M570.74,131.71a33.62,33.62,0,0,1-2.21,7.78l-.85-.54a32,32,0,0,0,2.11-7.44Zm3.37,9.86q-1.71,0-1.71-1.62V129.51h1v10.23c0,.57.33.86,1,.86H578a1.12,1.12,0,0,0,1-.52,12.4,12.4,0,0,0,.52-4l.91.31c-.1,2.38-.35,3.87-.73,4.46a1.76,1.76,0,0,1-1.55.68Zm.34-15.69a38,38,0,0,1,4,4.48l-.83.56a32.48,32.48,0,0,0-3.94-4.54Zm6.55,5a51.63,51.63,0,0,1,3.21,7.33l-.9.39a47.33,47.33,0,0,0-3.26-7.4Z"/><path class="cls-1" d="M592.16,126.11a20.43,20.43,0,0,1-2.39,4.18V142.2h-1V131.49a25.6,25.6,0,0,1-2.85,2.74l-.3-1a19.48,19.48,0,0,0,5.59-7.52ZM596,141.86a1.51,1.51,0,0,1-1.73-1.69v-5.83c-.87.5-1.73.95-2.56,1.35l-.46-.94a26.13,26.13,0,0,0,3-1.55v-7.38h1v6.77a24.87,24.87,0,0,0,5.21-4.5l.66.76a26.51,26.51,0,0,1-5.87,4.89V140q0,.9,1,.9h3.06a1.34,1.34,0,0,0,1.12-.45,9,9,0,0,0,.45-3.32l.9.29a9.94,9.94,0,0,1-.61,3.78,2,2,0,0,1-1.7.63Z"/><path class="cls-1" d="M615.65,142l-.25-.95,1.78,0a.71.71,0,0,0,.79-.81V127.5H605.81v14.61h-1V126.54H619v14a1.31,1.31,0,0,1-1.46,1.49Zm-4.14-3.92c-.63-1-1.28-2-1.94-2.88a19.52,19.52,0,0,1-2.5,4.77l-.63-.76a19.29,19.29,0,0,0,2.48-4.93c-1-1.3-1.85-2.38-2.65-3.26l.62-.61a32.6,32.6,0,0,1,2.35,2.84,35,35,0,0,0,1-4.42l.92.16a35.41,35.41,0,0,1-1.19,5.18c.65.88,1.39,2,2.23,3.28Zm5.35.83c-.64-1.07-1.31-2.17-2-3.3a19.41,19.41,0,0,1-2.69,4.79l-.62-.76a18.93,18.93,0,0,0,2.67-5q-1.35-2-2.61-3.48l.63-.61a35.59,35.59,0,0,1,2.34,3,32.08,32.08,0,0,0,1.1-4.73l.91.16a34.18,34.18,0,0,1-1.35,5.55c.77,1.16,1.54,2.38,2.31,3.67Z"/><path class="cls-1" d="M628.14,139.7a35.32,35.32,0,0,1-6,1.68l-.12-.94a32.78,32.78,0,0,0,6.15-1.67ZM626,126.09a27.91,27.91,0,0,1-2.84,5.75c.79-.1,1.71-.27,2.75-.51l1-1.92.85.32a38.14,38.14,0,0,1-4,6.73,29.56,29.56,0,0,0,4.08-1.11v.88a29.93,29.93,0,0,1-5.24,1.31l-.26-.92a1.79,1.79,0,0,0,.44-.27,21.14,21.14,0,0,0,2.7-4.08c-1.24.25-2.31.44-3.2.56l-.23-.9a1.19,1.19,0,0,0,.41-.36,27.42,27.42,0,0,0,2.68-5.84Zm6.05-.23a16,16,0,0,1-.6,1.58h5v.74a12.29,12.29,0,0,1-3,4.07,13.94,13.94,0,0,0,4.77,2.3l-.56.8a13.88,13.88,0,0,1-4.91-2.52,19.28,19.28,0,0,1-4.72,2.62l-.61-.79a18.61,18.61,0,0,0,4.61-2.46,11.54,11.54,0,0,1-2-2.51,15.27,15.27,0,0,1-1.73,1.77l-.58-.76a10,10,0,0,0,3.33-5Zm4.46,9.7v6.5h-.93v-.85h-5.35v.85h-.94v-6.5Zm-6.28,4.75h5.35v-3.87h-5.35Zm.4-11.35a10.77,10.77,0,0,0,2.12,2.68,11.56,11.56,0,0,0,2.68-3.3H631Z"/><path class="cls-1" d="M642,132a25.11,25.11,0,0,1-2,2.64l-.3-.95a22.37,22.37,0,0,0,4.19-8l.89.41a24.26,24.26,0,0,1-1.81,4.32v11.78H642Zm2.52-3.05h4.95v-3.25h1V129h5v.94h-4a19.84,19.84,0,0,0,4.66,8.3l-.63.77a22.25,22.25,0,0,1-4.77-9.07h-.34v7.51h3v.93h-3v3.82h-1v-3.82h-2.93v-.93h2.93v-7.51h-.32a20.12,20.12,0,0,1-4.84,9.23l-.51-.82a18.3,18.3,0,0,0,4.63-8.41h-3.91Z"/><path class="cls-1" d="M663.21,137.74a18.94,18.94,0,0,1-4.59,3.87l-.61-.81a17.7,17.7,0,0,0,4.5-3.69Zm0,4.36-.22-.94c.87.05,1.49.07,1.87.07s.76-.24.76-.74v-4.75l-5.74.31-.27-.87a3.08,3.08,0,0,0,.86-.18,24.59,24.59,0,0,0,5.47-3.33c-1.32.1-3.12.21-5.41.35l-.22-.89A2.18,2.18,0,0,0,661,131a12.63,12.63,0,0,0,3.66-3c-1.73.1-3.46.14-5.18.14l-.29-.84A58.58,58.58,0,0,0,671.94,126l.49.83a39.14,39.14,0,0,1-6.54,1,16.89,16.89,0,0,1-3.82,3.35c1.66-.1,3.29-.21,4.9-.33.83-.68,1.69-1.42,2.59-2.21l.9.43a39,39,0,0,1-8.4,6c3.24-.18,6-.4,8.33-.65-.51-.67-1-1.29-1.51-1.87l.72-.47a32.91,32.91,0,0,1,3.38,4.48l-.77.54c-.36-.61-.78-1.24-1.24-1.89-1.13.12-2.59.26-4.4.4v5.06a1.21,1.21,0,0,1-1.36,1.37Zm5.9-5.13a32.83,32.83,0,0,1,4.59,4l-.7.7a29.05,29.05,0,0,0-4.55-4.1Z"/><path class="cls-1" d="M681,138.57a2,2,0,0,1,.65,1.55,2.06,2.06,0,0,1-.65,1.54,2.32,2.32,0,0,1-1.58.62,2.25,2.25,0,0,1-1.58-.62,2.07,2.07,0,0,1-.65-1.54,2,2,0,0,1,.65-1.55,2.17,2.17,0,0,1,1.58-.61A2.24,2.24,0,0,1,681,138.57Zm-2.61.56a1.27,1.27,0,0,0-.43,1,1.36,1.36,0,0,0,.43,1,1.43,1.43,0,0,0,1,.41,1.51,1.51,0,0,0,1-.41,1.33,1.33,0,0,0,.43-1,1.27,1.27,0,0,0-.43-1,1.4,1.4,0,0,0-1-.42A1.36,1.36,0,0,0,678.36,139.13Z"/><path class="cls-1" d="M698.63,125.86a54.55,54.55,0,0,1-.43,7.38,29.56,29.56,0,0,1,3.62,4.57l-.74.74a29.84,29.84,0,0,0-3.06-4.19.1.1,0,0,0,0,.07,14,14,0,0,1-3.81,7.56l-.69-.81A13.27,13.27,0,0,0,697,134.5a50.28,50.28,0,0,0,.66-8.64Zm7,0c0,1.79-.06,3.49-.19,5.11a21.23,21.23,0,0,0,4.73,10.17l-.7.81a21.83,21.83,0,0,1-4.32-8.58l-.2,1.13a13.79,13.79,0,0,1-4,7.62l-.67-.81a13.2,13.2,0,0,0,3.66-6.75,47.06,47.06,0,0,0,.68-8.7Z"/><path class="cls-1" d="M720.25,125.72a13.63,13.63,0,0,1,.88,1.76h6.68v.94H714.38v4.24a21.56,21.56,0,0,1-1.91,9.42l-.73-.67a20.25,20.25,0,0,0,1.67-8.75v-5.18h6.73a9.47,9.47,0,0,0-.9-1.58Zm-2.79,9.57v5.29a19,19,0,0,0,2.18-.66l.18.92c-1,.28-2.14.6-3.55.93l-.2-.86c.29-.07.44-.22.44-.43v-9.72a73.7,73.7,0,0,0,9.66-1.16l.49.81c-1.25.24-2.65.47-4.19.67.1,1.19.24,2.28.41,3.28h4.46v.93H723c.14.72.29,1.34.43,1.86A9.28,9.28,0,0,0,724.8,140c.5.62.92.94,1.28.94s.65-.9,1-2.59l.8.52c-.5,2.06-1.05,3.09-1.68,3.09a2.46,2.46,0,0,1-1.74-1.06,10.3,10.3,0,0,1-1.7-3.11,18.79,18.79,0,0,1-.63-2.47Zm0-3.72v2.79h4.48c-.15-.93-.3-2-.43-3.17C720.2,131.33,718.85,131.46,717.46,131.57Zm3.24,6.78a26,26,0,0,1,2.09,3l-.76.56a21.66,21.66,0,0,0-2-3Z"/><path class="cls-1" d="M732.72,130.76v1.62a20.1,20.1,0,0,1-2.23,9.66l-.72-.63a18.57,18.57,0,0,0,2-9v-5.82H744.6v4.2Zm10.91-3.28H732.72v2.36h10.91Zm-10.11,8.19h12.09v.9h-6.94a19.71,19.71,0,0,1-3.14,4.12c2.62-.18,5.16-.45,7.64-.83-.54-.66-1.13-1.33-1.77-2l.74-.45a34.83,34.83,0,0,1,3.47,4.19l-.77.56c-.34-.5-.69-1-1-1.47-3.08.42-6.23.73-9.47.93l-.24-.86.2-.07q1.26-.76,3.35-4.09h-4.12Zm1.24-2.93h9.7v.86h-9.7Z"/><path class="cls-1" d="M751.26,134.1l.94.11-.43,1.12h3.85v.83a7.54,7.54,0,0,1-2.16,3.24,24,24,0,0,1,2.7,1.33l-.54.77a29.52,29.52,0,0,0-2.93-1.47,14.55,14.55,0,0,1-4.52,2.08l-.49-.82a14.79,14.79,0,0,0,4-1.71q-1.16-.51-2.61-1.05c.5-.81.93-1.59,1.29-2.32H748.1v-.88h2.7Zm-3.11-4.82h3.57v-3.51h.91v3.51H756v.88h-3.4v.22a33.55,33.55,0,0,1,3.1,1.91l-.52.77c-1-.8-1.85-1.45-2.58-1.94v2.59h-.91v-3.55h-.06a8.19,8.19,0,0,1-3.33,3.78l-.5-.81a7.17,7.17,0,0,0,3.09-3h-2.77Zm1.19-3.1a13.31,13.31,0,0,1,1.17,2.25l-.78.35a15.55,15.55,0,0,0-1.22-2.33Zm5.34,10h-3.31a16.34,16.34,0,0,1-1.08,1.93,23.71,23.71,0,0,1,2.22.86A7.72,7.72,0,0,0,754.68,136.21Zm1.12-9.81a11.73,11.73,0,0,1-1.4,2.39l-.74-.37A13.3,13.3,0,0,0,755,126Zm2.07,5.74a17.07,17.07,0,0,1-1.19,2.58l-.61-.76a23.28,23.28,0,0,0,2.23-8.28l1,.18c-.12.94-.26,1.85-.43,2.74h4.9v1h-1.28a19.27,19.27,0,0,1-1.64,7.88,11.42,11.42,0,0,0,3.44,3.86l-.56.82a11.71,11.71,0,0,1-3.36-3.78,12.08,12.08,0,0,1-3.44,3.82l-.54-.83a11.09,11.09,0,0,0,3.44-3.94A24.08,24.08,0,0,1,757.87,132.14Zm.76-2.59c-.12.48-.22.83-.29,1.06a25.6,25.6,0,0,0,1.92,5.78,18.53,18.53,0,0,0,1.26-6.84Z"/><path class="cls-1" d="M766.31,142l-.2-.92c.63.05,1.09.07,1.39.07.49,0,.74-.28.74-.84v-4.79c-.71.26-1.47.52-2.29.77l-.25-.95a24.63,24.63,0,0,0,2.54-.78v-4.3H766v-.95h2.25v-3.49h1v3.49h1.84v.95h-1.84v3.93c.61-.28,1.21-.57,1.78-.87v1c-.62.33-1.22.61-1.78.84v5.42c0,1-.45,1.46-1.37,1.46Zm6.74-8a21,21,0,0,1-2.15,8.19l-.75-.67a20,20,0,0,0,2-9.46v-5.46h9.33v4.12H778V133h4V134h-4v2.45h3.12v5.74h-.9v-.94h-5.39v.94h-.9v-5.74H777V134Zm4-3.28h-3.92l0,2.36H777Zm3.49-3.2h-7.41v2.32h7.41Zm-5.69,12.83h5.39v-3h-5.39Z"/><path class="cls-1" d="M791,137a22.43,22.43,0,0,1,2.09,2.43,10.9,10.9,0,0,0,5-4H792.5a21.13,21.13,0,0,1-5.74,1.69l-.58-.86q5.85-.6,8.74-3.64l.82.45a10.18,10.18,0,0,1-1.69,1.46h5.26v.77q-3.81,6.44-14.24,6.64l-.4-1a23.55,23.55,0,0,0,7.47-1.15,20.24,20.24,0,0,0-2-2.36Zm1.86-10.77a11,11,0,0,1-1.26,1.23H797v.79q-2.91,5.19-10.81,5.81l-.42-.9a17.93,17.93,0,0,0,4.59-.81,12.81,12.81,0,0,0-1.89-2l.85-.42a19.2,19.2,0,0,1,2,2.09,9.73,9.73,0,0,0,4.59-3.67h-5.56a16,16,0,0,1-5,1.89l-.57-.87q4.86-1,7.23-3.6Z"/><path class="cls-1" d="M802.19,136.55h7.25v-1.37h1v1.37h7.24v.9h-5.94a13.47,13.47,0,0,0,6.34,3.42l-.46.94c-3.22-1.09-5.48-2.55-6.76-4.36h-.42v4.74h-1v-4.74H809c-1.11,1.75-3.34,3.26-6.66,4.52l-.56-.92q4.74-1.56,6.37-3.6h-5.95Zm.43-8.08a12.34,12.34,0,0,1,2.81,1.62l-.53.77a12.4,12.4,0,0,0-2.8-1.62Zm4.28,2.93a23.08,23.08,0,0,1-4,3.84l-.68-.76a22.5,22.5,0,0,0,4-3.62Zm-3.29-5.59a16.22,16.22,0,0,1,3.33,2l-.52.78a13.93,13.93,0,0,0-3.33-2Zm12.54,6.3h-7.1v1.58h8.31v.88h-9.29v-8.15h9.09v.88h-8.11v1.55h7.1Zm-7.1-2.43v1.63h6.17v-1.63Z"/><path class="cls-1" d="M831.67,141.83l-3.19,0a12.67,12.67,0,0,1-2.8-.34,4,4,0,0,1-1.89-1.33,1,1,0,0,0-.7-.47c-.49,0-1.27.83-2.35,2.5l-.73-.67c1-1.56,1.9-2.46,2.64-2.71V133H819.9v-.94h3.67v6.75a1.59,1.59,0,0,1,.56.49,4.53,4.53,0,0,0,1.47,1.18,7.8,7.8,0,0,0,2.45.38c1.2,0,2.36,0,3.48,0h2.52l1.94-.07-.23,1ZM821,126.11a22.6,22.6,0,0,1,3.19,2.79l-.68.69a21,21,0,0,0-3.17-2.85Zm3.91,1.73h3.21a11.12,11.12,0,0,0-1-1.73l.9-.34a8.79,8.79,0,0,1,1.11,2.07h2.27a14.3,14.3,0,0,0,1.17-2.14l.94.34a11.84,11.84,0,0,1-1,1.8h3.33v.92h-5.14a10.47,10.47,0,0,1-.51,1.71h4.36V139h-8.34v-8.49h2.94a8.58,8.58,0,0,0,.52-1.71h-4.68Zm2.14,5.22h6.5v-1.69h-6.5Zm0,2.43h6.5v-1.62h-6.5Zm6.5,2.57V136.3h-6.5v1.76Z"/><path class="cls-1" d="M844.07,130.56a15.54,15.54,0,0,1-2,2.21,10.63,10.63,0,0,1,1.33,5.51,5.91,5.91,0,0,1-.65,3.24,1.83,1.83,0,0,1-1.44.56c-.59,0-1.17,0-1.74,0l-.27-.9c.74.05,1.33.07,1.78.07a1.14,1.14,0,0,0,1-.46,6.35,6.35,0,0,0,.35-2.54,11.83,11.83,0,0,0-.15-1.91A12.85,12.85,0,0,1,838.6,139l-.56-.79a12,12,0,0,0,4-3,7.31,7.31,0,0,0-.75-1.89,19.3,19.3,0,0,1-3,1.78l-.5-.81a12.52,12.52,0,0,0,3-1.75,7,7,0,0,0-2.12-1.85l.74-.61a8.43,8.43,0,0,1,2.09,1.87,12.38,12.38,0,0,0,1.72-1.95ZM838,127.21h4.35v-1.57h1v1.57h5.11v-1.57h1v1.57h4.35v.92h-4.35v1.4h-1v-1.4h-5.11v1.4h-1v-1.4H838Zm6.44,6.08h3.82c0-1.33.05-2.36.05-3.09h1c0,.48,0,1.51-.07,3.09h4.29v.94h-4.15a11.33,11.33,0,0,0,4.58,7.11l-.65.72a11.37,11.37,0,0,1-4.34-6.43,12,12,0,0,1-4.23,6.52l-.63-.72a10.56,10.56,0,0,0,4.12-7.2h-3.76Zm6.61-3.49a17.82,17.82,0,0,1,2.21,2.34l-.72.52a19.2,19.2,0,0,0-2.21-2.41Z"/><path class="cls-1" d="M855.93,126.54h8.54v.92h-1.53v10.46l1.8-.47v1l-.9.22c-.44.12-.74.2-.9.23v3.37h-1v-3.13c-1.88.41-3.85.77-5.93,1.08l-.23-1,1.6-.21V127.46h-1.48Zm2.45,4H862v-3.12h-3.59Zm0,3.94H862v-3h-3.59Zm0,4.34c1.19-.22,2.38-.45,3.59-.71V135.4h-3.59Zm6.9-10.43h-.65v-.93h6.69v.9a24.47,24.47,0,0,1-2.52,8.73,19.94,19.94,0,0,0,3.34,4.26l-.65.76a21.46,21.46,0,0,1-3.21-4.12,15.53,15.53,0,0,1-3.65,4.14l-.63-.76a15.25,15.25,0,0,0,3.74-4.35A22.14,22.14,0,0,1,865.28,128.43Zm.88,0a21,21,0,0,0,2.09,7.69,23.56,23.56,0,0,0,2.18-7.69Z"/><path class="cls-1" d="M.47,158.79H3.73v-2.9c-1,.17-2,.29-3,.36l-.32-.9A22.73,22.73,0,0,0,7.18,154l.47.83a23.43,23.43,0,0,1-3,.9v3.09H7.85v.92H4.66v1a38.86,38.86,0,0,1,3.22,3.31l-.57.83a36.49,36.49,0,0,0-2.65-3.24v8.44H3.73v-8.64a17.18,17.18,0,0,1-3.32,5.13l-.41-1a14.61,14.61,0,0,0,3.73-5.83H.47Zm14.9-3.72v14.38h-1V168H9.68v1.66H8.73V155.07ZM9.68,167H14.4V156H9.68Z"/><path class="cls-1" d="M26.17,153.64a14.71,14.71,0,0,1,.61,1.7H34v.93H18.22v-.93h7.54a9.78,9.78,0,0,0-.65-1.52Zm3.49,16.47-.23-.88,1.46,0c.81,0,1.22-.33,1.22-1v-5.17H20.16v7h-.92v-7.9H33v6.24c0,1.08-.61,1.62-1.84,1.62Zm-8.4-12.45H31V161H21.26Zm8.84,2.52v-1.73H22.19v1.73Zm-7.38,4.3h6.87V168H22.72Zm6,2.7v-1.91H23.6v1.91Z"/><path class="cls-1" d="M37.39,157.24a25.52,25.52,0,0,1-.65,5.13l-.81-.21a24.54,24.54,0,0,0,.66-5Zm1.2-3.45h1V170.1h-1Zm2.22,3.06A26.07,26.07,0,0,1,41.94,160l-.79.19a23.58,23.58,0,0,0-1.08-3.13Zm2.88,1.38A15,15,0,0,1,42.21,162l-.74-.65a14.71,14.71,0,0,0,1.75-6.54l.9.11a19.56,19.56,0,0,1-.24,2.36H46.8v-3.47h1v3.47h4.05v.95H47.79v4.63h3.73v.95H47.79v4.83h4.52v1H41.53v-1H46.8v-4.83H42.57v-.95H46.8v-4.63Z"/><path class="cls-1" d="M60.3,155a28.76,28.76,0,0,1,2.57,3.89l-.79.56c-.35-.65-.57-1.06-.68-1.23a69,69,0,0,1-7,.69l-.27-.85a1.45,1.45,0,0,0,.45-.25,16,16,0,0,0,2.93-4l.94.27a13.81,13.81,0,0,1-2.94,4c1.59-.07,3.4-.24,5.44-.51q-.78-1.17-1.41-2Zm-4.16,11.7v3.48h-1v-10H61.7v8.48a1.2,1.2,0,0,1-1.36,1.35H58.81l-.24-.92,1.46.06q.72,0,.72-.69v-1.8Zm4.61-3.65v-2H56.14v2Zm-4.61.86v2h4.61v-2Zm8.93-2.48c-1,0-1.51-.53-1.51-1.59v-6.13h1v2.57a45.13,45.13,0,0,0,5.08-1l.32.89a53.88,53.88,0,0,1-5.4,1v2.47a.77.77,0,0,0,.85.88h2.52a1.15,1.15,0,0,0,.84-.27,4.58,4.58,0,0,0,.42-2.14l.92.3a5,5,0,0,1-.65,2.61,2,2,0,0,1-1.35.4Zm-.5,6.78c0,.53.25.8.77.8h2.48a1.12,1.12,0,0,0,.87-.29,4.79,4.79,0,0,0,.43-2.2l.9.29a5,5,0,0,1-.65,2.66,2,2,0,0,1-1.35.4h-3a1.27,1.27,0,0,1-1.44-1.44v-6.17h1v2.37a27.28,27.28,0,0,0,5-1l.32.9a27.85,27.85,0,0,1-5.34,1Z"/><path class="cls-1" d="M72.5,155.71h5a18.06,18.06,0,0,0,.67-2l1,.11c-.13.49-.34,1.12-.61,1.9H88v1H78.21A19.71,19.71,0,0,1,75.76,161v9.25h-1v-8a23.7,23.7,0,0,1-2.29,2.3l-.59-.79a20.17,20.17,0,0,0,5.24-7H72.5Zm4.79,8.3h5.35v-1.82A18.51,18.51,0,0,0,85.73,160h-7v-.92H87V160a24.77,24.77,0,0,1-3.38,2.59V164h4.63v1H83.61v3.74a1.24,1.24,0,0,1-1.42,1.4H79.94l-.25-.91,2.12,0a.73.73,0,0,0,.83-.83V165H77.29Z"/><path class="cls-1" d="M91.71,159.62A20.81,20.81,0,0,1,90.14,162l-.3-1A22.18,22.18,0,0,0,93,153.73l.88.42a26.64,26.64,0,0,1-1.24,3.6v12.42h-.94Zm1.8-.22h3.11v8c.5-.5,1-1.12,1.66-1.85l.25,1a21.71,21.71,0,0,1-2.81,2.93l-.37-.88a1,1,0,0,0,.32-.65v-7.54H93.51Zm1.57-4.86a24.36,24.36,0,0,1,2.7,2.65l-.74.74a17.54,17.54,0,0,0-2.63-2.74ZM98.84,156h2.25v-2.18H102V156h2.12v.84H102v2.61h.68a18.88,18.88,0,0,0,2.56-4.68l.81.45a21.67,21.67,0,0,1-2.25,4.23h2.35v.9h-3a14.26,14.26,0,0,1-1.82,1.91h3.89v7.9h-.94v-.79h-3.69v.79h-.93v-6.66a15.22,15.22,0,0,1-1.53.85l-.51-.77A12.62,12.62,0,0,0,102,160.3H98.37v-.9h2.72v-2.61H98.84Zm5.43,9.38v-2.24h-3.69v2.24Zm-3.69.86v2.27h3.69v-2.27Z"/><path class="cls-1" d="M111.44,168.1a3.31,3.31,0,0,1-1.8,3.11l-.38-.63a2.77,2.77,0,0,0,1.37-2.19h-.27a1,1,0,0,1-.67-.23.84.84,0,0,1-.25-.65.78.78,0,0,1,.25-.66.87.87,0,0,1,.67-.26Q111.44,166.6,111.44,168.1Z"/><path class="cls-1" d="M135.27,168.44q-4.25.88-8.93,1.44l-.23-.94c1.22-.12,2.65-.3,4.28-.55v-3.77h-3.63v-.93h3.63v-2.25h1v2.25h3.42v.93h-3.42v3.6c1.37-.22,2.67-.48,3.91-.75Zm-9-13.81h8.88v.94h-4.72a18.28,18.28,0,0,1-2.7,4.43q2.92-.28,5.74-.74c-.38-.64-.88-1.38-1.49-2.23l.76-.47a35.14,35.14,0,0,1,2.79,4.34l-.8.56c-.25-.5-.52-1-.81-1.46-2.29.39-4.81.72-7.57,1l-.22-.88.38-.09a14.54,14.54,0,0,0,2.91-4.43h-3.15Zm10.5.8h1v11.19h-1Zm.56,14.56-.22-.94c1.15,0,2,.07,2.5.07a.77.77,0,0,0,.87-.88V153.81h1v14.68A1.34,1.34,0,0,1,140,170Z"/><path class="cls-1" d="M151.63,153.66h1V157h6.52v8.28h-1v-1.2h-5.53v6.22h-1v-6.22h-5.51v1.2h-1V157h6.5Zm-5.51,9.45h5.51V158h-5.51Zm6.52,0h5.53V158h-5.53Z"/><path class="cls-1" d="M163.06,156.74h1v13.43h-1Zm2.31-3.13a21,21,0,0,1,2.21,3.27l-.88.45a19.33,19.33,0,0,0-2.23-3.33Zm1.4,5.07h6.59v8.18h-6.59Zm.94,3.66h4.73v-2.76h-4.73Zm4.73,3.62V163.2h-4.73V166ZM174,170l-.27-.93,1.58,0q.9,0,.9-1.17V155.62h-7.11v-.91h8.08v13.51c0,1.22-.55,1.82-1.67,1.82Z"/><path class="cls-1" d="M183,158.76v1.62a20.21,20.21,0,0,1-2.23,9.66l-.72-.63a18.68,18.68,0,0,0,2-9v-5.82h12.83v4.2Zm10.91-3.28H183v2.36h10.91Zm-10.12,8.19h12.1v.9h-7a19.73,19.73,0,0,1-3.13,4.12c2.61-.18,5.16-.45,7.63-.83-.54-.66-1.13-1.33-1.76-2l.73-.45a34.14,34.14,0,0,1,3.48,4.19l-.78.56c-.33-.5-.68-1-1-1.47q-4.6.63-9.47.93l-.23-.86.2-.07q1.26-.76,3.34-4.09h-4.12Zm1.24-2.93h9.71v.86H185Z"/><path class="cls-1" d="M201.51,162.1l.94.11-.44,1.12h3.86v.83a7.72,7.72,0,0,1-2.16,3.24,25.84,25.84,0,0,1,2.7,1.33l-.54.77a28.69,28.69,0,0,0-2.94-1.47,14.44,14.44,0,0,1-4.52,2.08l-.48-.82a14.71,14.71,0,0,0,4-1.71q-1.16-.51-2.61-1.05a25.67,25.67,0,0,0,1.3-2.32h-2.29v-.88H201Zm-3.11-4.82H202v-3.51h.92v3.51h3.4v.88h-3.4v.22a33.35,33.35,0,0,1,3.09,1.91l-.52.77c-1-.8-1.84-1.45-2.57-1.94v2.59H202v-3.55h-.05a8.25,8.25,0,0,1-3.33,3.78l-.51-.81a7.15,7.15,0,0,0,3.1-3H198.4Zm1.18-3.1a12.62,12.62,0,0,1,1.17,2.25l-.77.35a17.65,17.65,0,0,0-1.22-2.33Zm5.35,10h-3.31a16.34,16.34,0,0,1-1.08,1.93c.75.25,1.49.54,2.21.86A7.75,7.75,0,0,0,204.93,164.21Zm1.12-9.81a11.34,11.34,0,0,1-1.41,2.39l-.74-.37a13.39,13.39,0,0,0,1.34-2.4Zm2.07,5.74a18.1,18.1,0,0,1-1.19,2.58l-.61-.76a23.49,23.49,0,0,0,2.23-8.28l1,.18c-.12.94-.26,1.85-.43,2.74H214v1h-1.27a19.43,19.43,0,0,1-1.64,7.88,11.32,11.32,0,0,0,3.44,3.86l-.56.82a11.85,11.85,0,0,1-3.37-3.78,12.08,12.08,0,0,1-3.44,3.82l-.54-.83a11,11,0,0,0,3.44-3.94A23.58,23.58,0,0,1,208.12,160.14Zm.75-2.59c-.12.48-.21.83-.29,1.06a25.59,25.59,0,0,0,1.93,5.78,19,19,0,0,0,1.26-6.84Z"/><path class="cls-1" d="M216.56,170l-.2-.92c.62.05,1.09.07,1.39.07.49,0,.73-.28.73-.84v-4.79c-.7.26-1.47.52-2.28.77l-.25-.95a24.43,24.43,0,0,0,2.53-.78v-4.3h-2.25v-.95h2.25v-3.49h1v3.49h1.83v.95h-1.83v3.93c.61-.28,1.2-.57,1.78-.87v1c-.63.33-1.22.61-1.78.84v5.42c0,1-.46,1.46-1.37,1.46Zm6.73-8a21,21,0,0,1-2.14,8.19l-.76-.67a20.11,20.11,0,0,0,2-9.46v-5.46h9.32v4.12h-3.47V161h4V162h-4v2.45h3.11v5.74h-.9v-.94h-5.38v.94h-.9v-5.74h3.1V162Zm4-3.28h-3.93l0,2.36h3.95Zm3.49-3.2h-7.42v2.32h7.42Zm-5.69,12.83h5.38v-3h-5.38Z"/><path class="cls-1" d="M240.26,157v12.09h-.93V168h-3.64v1.61h-.93V157h1.62a16.78,16.78,0,0,0,.81-3.23l1,.13a15.69,15.69,0,0,1-.87,3.1Zm-4.57,4.95h3.64v-4h-3.64Zm0,5.14h3.64v-4.26h-3.64ZM249.59,157c0,5.78-.09,9.37-.25,10.79a2.24,2.24,0,0,1-2.51,2.16l-1.76,0-.23-.9c.72,0,1.35.05,1.89.05,1,0,1.53-.53,1.67-1.6s.22-4.14.25-9.48h-5.31a15,15,0,0,1-1.82,3.15l-.57-.76a16,16,0,0,0,2.64-6.62l1,.1a23,23,0,0,1-.83,3.15ZM243.32,161a31.9,31.9,0,0,1,3.14,4l-.78.56a28.39,28.39,0,0,0-3.15-4Z"/><path class="cls-1" d="M256.57,153.88c-.18,1-.38,1.89-.59,2.75h4.08v.87a20.61,20.61,0,0,1-2.86,8,6.25,6.25,0,0,0,1.57,1.76q2.19,1.54,6.93,1.58c.75,0,1.63,0,2.63-.09l-.2,1h-2q-5.48,0-8-1.8a6.71,6.71,0,0,1-1.55-1.69,14.24,14.24,0,0,1-4,3.65l-.53-.92a12.59,12.59,0,0,0,3.95-3.67,21.22,21.22,0,0,1-1.7-4.57,13.87,13.87,0,0,1-1.63,2.5l-.67-.81a18.72,18.72,0,0,0,3.55-8.78Zm.07,10.64a20.36,20.36,0,0,0,2.47-7h-3.4c-.21.65-.45,1.31-.74,2A23.55,23.55,0,0,0,256.64,164.52Zm6.18-10.7h1v4.59a49.09,49.09,0,0,1,4.55,3.78l-.55.87a47.49,47.49,0,0,0-4-3.64v7.89h-1Z"/><path class="cls-1" d="M270.36,160.52h2.05V156h-2.32V155h5.6V156h-2.31v4.57h2.09v.94h-2.09v4.41c.78-.28,1.56-.59,2.34-.92v.93a33.42,33.42,0,0,1-5.65,1.89l-.23-.91c.78-.16,1.64-.38,2.57-.67v-4.73h-2.05Zm6.52-6h8.47v8.11h-3.74v2.47h4.1v.94h-4.1v2.59h4.68v1H276v-1h4.68v-2.59H276.5v-.94h4.14v-2.47h-3.76Zm.95,3.61h2.81v-2.73h-2.81Zm2.81,3.62V159h-2.81v2.75Zm1-6.35v2.73h2.79v-2.73Zm2.79,6.35V159h-2.79v2.75Z"/><path class="cls-1" d="M288.47,158.79h3.26v-2.9c-1,.17-2,.29-3,.36l-.32-.9a22.73,22.73,0,0,0,6.73-1.38l.47.83a23.43,23.43,0,0,1-3,.9v3.09h3.19v.92h-3.19v1a38.86,38.86,0,0,1,3.22,3.31l-.57.83a36.49,36.49,0,0,0-2.65-3.24v8.44h-.93v-8.64a17.18,17.18,0,0,1-3.32,5.13l-.41-1a14.61,14.61,0,0,0,3.73-5.83h-3.26Zm14.9-3.72v14.38h-1V168h-4.72v1.66h-.95V155.07Zm-5.69,12h4.72V156h-4.72Z"/><path class="cls-1" d="M308.86,154c-.18.84-.33,1.48-.47,1.92h2.94v.94h-3.21a21.05,21.05,0,0,1-1.45,3.47l-.76-.48a22.67,22.67,0,0,0,2-6.05Zm-1.46,5.49H311v.88H309.4v2.57h2.09v.92H309.4v4.63a10.75,10.75,0,0,0,1.75-1.12l.18.88a11.86,11.86,0,0,1-2.88,1.5l-.38-.81a.56.56,0,0,0,.38-.54v-4.54h-2.11v-.92h2.11v-2.57H307.4Zm14.94,9.43-.25,1h-2.48l-1.64,0a7.28,7.28,0,0,1-2.16-.35,3.48,3.48,0,0,1-1.58-1.09c-.23-.27-.43-.4-.6-.4-.33,0-.93.7-1.78,2.09l-.58-.72a6.19,6.19,0,0,1,2-2.22v-6.37h-1.59v-.9h2.49v7.31a2,2,0,0,1,.34.31,3.7,3.7,0,0,0,1.38,1.08,7.6,7.6,0,0,0,1.79.34l2,0Zm-9.88-14.74a23.94,23.94,0,0,1,2,2.8l-.74.53a20.28,20.28,0,0,0-2-2.87Zm2.65,9.86h3.47v-2.52H315.5l-.16-.85a19.82,19.82,0,0,0,1.78-3.92H315.2v-.88h2.21c.24-.85.43-1.56.58-2.13l.88.2-.54,1.93h3.6v.88h-3.87a24.63,24.63,0,0,1-1.71,3.91h2.23v-2.52h.9v2.52h2.29v.86h-2.29V164h2.77v.88h-2.77v3.21h-.9v-3.21h-3.47Z"/><path class="cls-1" d="M330.79,153.73h1v5.69h6.66v.94h-6.66v8.06h8.34v1H324.2v-1h6.59Z"/><path class="cls-1" d="M342,159.35h3.71v8.35c.72-.54,1.54-1.22,2.45-2l.25,1a24.23,24.23,0,0,1-3.58,2.72l-.38-.86a1,1,0,0,0,.31-.65v-7.6H342Zm1.93-5.42a24.07,24.07,0,0,1,3.15,2.86l-.67.69a21.94,21.94,0,0,0-3.18-2.88Zm14.51,11.25a8.74,8.74,0,0,1-.71,3.58,2.07,2.07,0,0,1-1.94.81h-4.64c-1.07,0-1.61-.55-1.61-1.67v-7.67H356v-4.55h-7.4v-.94h8.33v6.43h-6.42v6.42c0,.7.33,1,1,1.07h4.14a1.37,1.37,0,0,0,1.42-.8,9.48,9.48,0,0,0,.43-3Z"/><path class="cls-1" d="M362.27,154.49h10.22v5.87h3.31v.92h-7.29v2.17a15.23,15.23,0,0,0,1.55,1.61,10.36,10.36,0,0,0,3.48-3.17l.75.63a10.81,10.81,0,0,1-3.58,3.09,21.76,21.76,0,0,0,5.17,3.1l-.51.85a19.94,19.94,0,0,1-6.86-5v4.14c0,1-.42,1.44-1.27,1.44h-2.06l-.21-.92c.91.05,1.55.07,1.92.07s.65-.27.65-.83v-3.81a30.73,30.73,0,0,1-6.84,4.79l-.39-.9a27.8,27.8,0,0,0,7.23-4.94v-2.35h-7.05v-.92h11v-2h-8.62v-.86h8.62v-2.09h-9.23Zm0,7.69a22.12,22.12,0,0,1,2.81,2.32l-.65.65a17.85,17.85,0,0,0-2.83-2.34Z"/><path class="cls-1" d="M381.44,168.1a3.31,3.31,0,0,1-1.8,3.11l-.38-.63a2.77,2.77,0,0,0,1.37-2.19h-.27a1,1,0,0,1-.67-.23.84.84,0,0,1-.25-.65.78.78,0,0,1,.25-.66.87.87,0,0,1,.67-.26Q381.44,166.6,381.44,168.1Z"/><path class="cls-1" d="M396.7,154.65h14.89v.94h-7v2.18H410v6.8h2.16v.94H410v2.89c0,1.13-.5,1.7-1.51,1.7h-1.69l-.26-1,1.62.06q.87,0,.87-1v-2.7h-9.69v4.64h-1v-4.64h-2.16v-.94h2.16v-6.8h5.33v-2.18H396.7Zm2.59,6.46h4.36v-2.44h-4.36Zm0,3.46h4.36V162h-4.36Zm5.33-5.9v2.44H409v-2.44Zm0,5.9H409V162h-4.36Z"/><path class="cls-1" d="M423.27,168.44q-4.25.88-8.93,1.44l-.23-.94c1.22-.12,2.65-.3,4.28-.55v-3.77h-3.63v-.93h3.63v-2.25h1v2.25h3.42v.93h-3.42v3.6c1.37-.22,2.67-.48,3.91-.75Zm-8.95-13.81h8.88v.94h-4.72a18.28,18.28,0,0,1-2.7,4.43q2.93-.28,5.74-.74c-.38-.64-.88-1.38-1.49-2.23l.76-.47a35.14,35.14,0,0,1,2.79,4.34l-.8.56c-.25-.5-.52-1-.81-1.46-2.29.39-4.81.72-7.57,1l-.22-.88.38-.09a14.54,14.54,0,0,0,2.91-4.43h-3.15Zm10.5.8h.95v11.19h-.95Zm.56,14.56-.22-.94c1.15,0,2,.07,2.5.07a.77.77,0,0,0,.87-.88V153.81h1v14.68A1.34,1.34,0,0,1,428,170Z"/><path class="cls-1" d="M440.41,153.59a15.92,15.92,0,0,1,1,1.94h6.66v1H434.63v4.21a21.6,21.6,0,0,1-1.89,9.47l-.81-.74a19.84,19.84,0,0,0,1.73-8.73v-5.17h6.75a13.23,13.23,0,0,0-1.07-1.76Zm-5.21,14.78h7.56a52.15,52.15,0,0,0,3-9.67l.95.27a50.68,50.68,0,0,1-2.93,9.4h4v.95H435.2Zm1.73-8.8a51.71,51.71,0,0,1,2,6.64l-.91.25a59.17,59.17,0,0,0-1.89-6.61Zm3.49-1.26a56.14,56.14,0,0,1,1.7,6.85l-.92.24a63.34,63.34,0,0,0-1.62-6.81Z"/><path class="cls-1" d="M452.72,164.19a10.53,10.53,0,0,1-2,5.78l-.72-.67a10.61,10.61,0,0,0,1.84-6.24v-8.53h13.14V168a1.55,1.55,0,0,1-1.76,1.76h-2.07l-.26-.95c.72,0,1.39,0,2,0s1.12-.4,1.12-1.22v-3.44h-5.28v5.37h-1v-5.37Zm.07-4.37v3.31l0,.14h5v-3.45Zm4.93-4.34h-4.93v3.44h4.93Zm6.25,3.44v-3.44h-5.28v3.44Zm0,4.35v-3.45h-5.28v3.45Z"/><path class="cls-1" d="M471,158.76v1.62a20.21,20.21,0,0,1-2.23,9.66l-.72-.63a18.68,18.68,0,0,0,2-9v-5.82h12.83v4.2Zm10.91-3.28H471v2.36h10.91Zm-10.12,8.19h12.1v.9h-6.95a19.73,19.73,0,0,1-3.13,4.12c2.61-.18,5.16-.45,7.63-.83-.54-.66-1.13-1.33-1.76-2l.73-.45a34.14,34.14,0,0,1,3.48,4.19l-.78.56c-.33-.5-.68-1-1-1.47q-4.6.63-9.47.93l-.23-.86.2-.07q1.26-.76,3.34-4.09h-4.12Zm1.24-2.93h9.71v.86H473Z"/><path class="cls-1" d="M486.49,170l-.22-.94c.72,0,1.24.07,1.55.07s.68-.19.68-.57v-5c-.73.3-1.49.57-2.27.81l-.25-1a20.32,20.32,0,0,0,2.52-.79v-4.34h-2.3v-.95h2.3v-3.49h1v3.49h1.95v.95h-1.95v3.93q.93-.44,1.71-.87v1c-.85.42-1.42.7-1.71.83v5.65c0,.81-.43,1.21-1.31,1.21Zm5.14-8h10.25v.9h-4.61v2.32h3.9v.88h-3.9v2.67a19.35,19.35,0,0,0,2.73.18c.71,0,1.49,0,2.33-.07l-.27,1c-.53,0-1.19,0-2,0a11.72,11.72,0,0,1-4.85-.68,5.43,5.43,0,0,1-1.94-2.34,10.69,10.69,0,0,1-1.94,3.38l-.72-.65a9.62,9.62,0,0,0,2.34-5.72l.88.11a11.3,11.3,0,0,1-.27,1.85,5,5,0,0,0,2.12,2.59,5.65,5.65,0,0,0,.61.22v-5.67h-4.68Zm1.32-7.54h7.7v6.06H493Zm.95,2.66h5.78v-1.83H493.9Zm5.78,2.58v-1.79H493.9v1.79Z"/><path class="cls-1" d="M506.27,159.6a23.53,23.53,0,0,1-2.23,2.7l-.31-1a20.42,20.42,0,0,0,4.43-7.67l.9.43a23.77,23.77,0,0,1-1.82,4.07v12.08h-1Zm3.06-1.92h2.46v-3.86h1v3.86h3.58v-3.86h1v3.86h2.52v1h-2.52v4.5h3v.95h-11.5v-.95h3v-4.5h-2.46Zm3.85,7.86a19.15,19.15,0,0,1-3.35,4.54l-.84-.6a18.54,18.54,0,0,0,3.31-4.37Zm-.41-2.39h3.58v-4.5h-3.58Zm3.79,1.85a35.59,35.59,0,0,1,3.53,4.48l-.86.62a30.26,30.26,0,0,0-3.46-4.59Z"/><path class="cls-1" d="M529.11,159.91a3.59,3.59,0,0,1,.83,2.5v6h-1v-1.78A4.81,4.81,0,0,1,527.4,168a4.7,4.7,0,0,1-2.43.65,3.33,3.33,0,0,1-2.21-.71,2.38,2.38,0,0,1-.85-1.92,2.75,2.75,0,0,1,1.46-2.59,6.21,6.21,0,0,1,3.11-.67l2.38,0v-.34a2.37,2.37,0,0,0-2.7-2.65,3.2,3.2,0,0,0-1.95.53,2.21,2.21,0,0,0-1,1.62H522.2a3.22,3.22,0,0,1,1.31-2.34,4.55,4.55,0,0,1,2.7-.72A3.66,3.66,0,0,1,529.11,159.91Zm-.25,3.72-2.32,0c-2.36,0-3.53.8-3.53,2.36a1.56,1.56,0,0,0,.59,1.26,2.42,2.42,0,0,0,1.59.49,3.87,3.87,0,0,0,2.59-1,2.74,2.74,0,0,0,1.08-2.07Z"/><path class="cls-1" d="M539.64,160.34a6.24,6.24,0,0,1,0,6.84,3.77,3.77,0,0,1-3.12,1.48,3.41,3.41,0,0,1-3.25-2.2V172h-1.08V159.1h1v1.83a3.43,3.43,0,0,1,3.28-2.08A3.73,3.73,0,0,1,539.64,160.34ZM534,161a4.58,4.58,0,0,0-.77,2.76v.19a4.38,4.38,0,0,0,.83,2.76,2.73,2.73,0,0,0,2.27,1.08,2.91,2.91,0,0,0,2.44-1.15,4.72,4.72,0,0,0,.76-2.81,4.84,4.84,0,0,0-.74-2.81,2.81,2.81,0,0,0-2.43-1.21A2.75,2.75,0,0,0,534,161Z"/><path class="cls-1" d="M544.3,156a.75.75,0,0,1,.27.63.87.87,0,0,1-.29.65.92.92,0,0,1-.63.25.84.84,0,0,1-.64-.25.89.89,0,0,1-.27-.65A.75.75,0,0,1,543,156a.82.82,0,0,1,.64-.27A.88.88,0,0,1,544.3,156Zm-1.19,3.08h1.08v9.3h-1.08Z"/><path class="cls-1" d="M547.2,158.79h3.26v-2.9c-1,.17-2,.29-3,.36l-.33-.9a22.66,22.66,0,0,0,6.73-1.38l.47.83a23,23,0,0,1-3,.9v3.09h3.19v.92h-3.19v1a40.54,40.54,0,0,1,3.23,3.31l-.58.83a36.49,36.49,0,0,0-2.65-3.24v8.44h-.93v-8.64a17.34,17.34,0,0,1-3.31,5.13l-.42-1a14.51,14.51,0,0,0,3.73-5.83H547.2Zm14.9-3.72v14.38h-1V168h-4.71v1.66h-1V155.07Zm-5.68,12h4.71V156h-4.71Z"/><path class="cls-1" d="M571.88,161.71h-1.06a2.18,2.18,0,0,0-.78-1.42,3.65,3.65,0,0,0-3.56-.09,1.23,1.23,0,0,0,.18,2.25,12.32,12.32,0,0,0,2,.64A9.34,9.34,0,0,1,571,164a2.09,2.09,0,0,1,1.12,1.87c0,1.88-1.26,2.83-3.78,2.83s-3.69-1.07-3.91-3.19h1.06a2.52,2.52,0,0,0,.87,1.76,3.17,3.17,0,0,0,1.94.49c1.8,0,2.7-.61,2.7-1.84a1.39,1.39,0,0,0-.92-1.29,11.38,11.38,0,0,0-2.07-.65,8.79,8.79,0,0,1-2.26-.83,2,2,0,0,1-1.07-1.78,2.11,2.11,0,0,1,1-1.82,4.22,4.22,0,0,1,2.45-.66C570.38,158.85,571.61,159.8,571.88,161.71Z"/><path class="cls-1" d="M580.9,155.3H582v13.1h-1v-1.83a3.35,3.35,0,0,1-3.26,2.09,3.8,3.8,0,0,1-3.15-1.48,5.55,5.55,0,0,1-1-3.44,5.47,5.47,0,0,1,1-3.4,3.65,3.65,0,0,1,3.1-1.49,3.4,3.4,0,0,1,3.26,2.21ZM575.39,161a4.45,4.45,0,0,0-.78,2.79,4.77,4.77,0,0,0,.76,2.81,3,3,0,0,0,4.79,0,4.56,4.56,0,0,0,.77-2.7v-.22a4.45,4.45,0,0,0-.83-2.79,2.71,2.71,0,0,0-2.26-1.12A2.85,2.85,0,0,0,575.39,161Z"/><path class="cls-1" d="M584.24,155.3h1.08v8.5l5.17-4.7H592l-4.09,3.69,4.5,5.61H591l-3.86-4.91-1.78,1.62v3.29h-1.08Z"/><path class="cls-1" d="M596.68,168.1a3.31,3.31,0,0,1-1.8,3.11l-.38-.63a2.74,2.74,0,0,0,1.37-2.19h-.27a1,1,0,0,1-.67-.23.87.87,0,0,1-.25-.65.81.81,0,0,1,.25-.66.87.87,0,0,1,.67-.26Q596.68,166.6,596.68,168.1Z"/><path class="cls-1" d="M617.94,153.73h.95v1.86c0,1-.06,1.92-.12,2.68h7.47q0,7.57-.69,9.67a2.55,2.55,0,0,1-2.48,2.07c-.85,0-1.57,0-2.14-.06l-.27-.95c.86.07,1.65.11,2.35.11,1.15-.09,1.8-1.15,2-3.19s.25-4.35.25-6.68h-6.57a19.54,19.54,0,0,1-1.51,5.73,11.34,11.34,0,0,1-5.28,5.13l-.54-.87a10.79,10.79,0,0,0,5.13-5.07,18.64,18.64,0,0,0,1.23-4.92H612v-1h5.85c.06-.78.11-1.67.13-2.68Zm-4.38.49a22,22,0,0,1,2.45,2.92l-.79.52a23.67,23.67,0,0,0-2.41-2.9Zm6.22,7.6a30.58,30.58,0,0,1,3.09,3.83l-.84.58a28.71,28.71,0,0,0-3-3.91Z"/><path class="cls-1" d="M630.45,154.9h13.89v1h-3.09V161h4v.95h-4V170h-1v-8.1h-5.53a14.62,14.62,0,0,1-1,4.7,7.41,7.41,0,0,1-3.36,3.49l-.56-.82a7.11,7.11,0,0,0,3.17-3.41,14.68,14.68,0,0,0,.81-4h-4.3V161h4.35l0-.79v-4.32h-3.4Zm4.37,1v4.71l0,.4h5.48v-5.11Z"/><path class="cls-1" d="M648.65,159.06l1.42-4.79,1,.15-1.13,3.72h3.52a36.93,36.93,0,0,0,.92-4.57l1,.11c-.27,1.72-.57,3.2-.9,4.46H663v.92h-8.8c-.27.93-.54,1.71-.79,2.36h7.47v.85a9.47,9.47,0,0,1-3.13,4.37,27.43,27.43,0,0,0,5.6,2.59l-.49.9a27.26,27.26,0,0,1-5.9-2.88,25.71,25.71,0,0,1-5.67,2.94l-.51-.9a24.46,24.46,0,0,0,5.35-2.63,10.09,10.09,0,0,1-3.28-3.91,19.18,19.18,0,0,1-5.16,7.08l-.51-.9a20.46,20.46,0,0,0,6-9.87Zm5,3.26a9.43,9.43,0,0,0,3.29,3.76,9.11,9.11,0,0,0,3-3.76Zm4.75-8.5a22.32,22.32,0,0,1,3.27,3.05l-.7.7a19.49,19.49,0,0,0-3.24-3.12Z"/><path class="cls-1" d="M667.13,155.71h5v-2h1v2h4.48v.92h-4.48v2.43h2.41a23.74,23.74,0,0,0,4.58-4.17l.73.55a24.87,24.87,0,0,1-3.72,3.62h4.3V160h-5.6l-.9.57a35.41,35.41,0,0,1-3.26,1.68H679v7.94h-1v-.89H669.8v.89h-1v-6.81c-1.25.45-2.32.79-3.21,1.05l-.4-.9a31.06,31.06,0,0,0,8.56-3.35l.28-.18h-8.62v-.94h6.68v-2.43h-5Zm10.89,9.6v-2.18H669.8v2.18Zm-8.22.86v2.23H678v-2.23Z"/><path class="cls-1" d="M683.71,158.79H687v-2.9c-1,.17-2,.29-3,.36l-.33-.9a22.8,22.8,0,0,0,6.74-1.38l.46.83a23.3,23.3,0,0,1-3,.9v3.09h3.18v.92h-3.18v1a42.16,42.16,0,0,1,3.22,3.31l-.58.83a38.53,38.53,0,0,0-2.64-3.24v8.44H687v-8.64a17.14,17.14,0,0,1-3.31,5.13l-.42-1a14.51,14.51,0,0,0,3.73-5.83h-3.26Zm14.91-3.72v14.38h-1V168h-4.71v1.66h-1V155.07Zm-5.69,12h4.71V156h-4.71Z"/><path class="cls-1" d="M704,164.19a10.6,10.6,0,0,1-2,5.78l-.72-.67a10.6,10.6,0,0,0,1.83-6.24v-8.53h13.14V168a1.55,1.55,0,0,1-1.76,1.76h-2.07l-.25-.95c.72,0,1.38,0,2,0s1.12-.4,1.12-1.22v-3.44h-5.27v5.37h-1v-5.37Zm.07-4.37v3.31l0,.14h5v-3.45Zm4.94-4.34H704v3.44H709Zm6.24,3.44v-3.44h-5.27v3.44Zm0,4.35v-3.45h-5.27v3.45Z"/><path class="cls-1" d="M722.32,161.85a14.88,14.88,0,0,1-2.57,8.39l-.74-.67a13.26,13.26,0,0,0,2.36-8V156h5.94a15.31,15.31,0,0,0-1.08-2.22l1-.18a17.85,17.85,0,0,1,1,2.4H734v5.81ZM733,157H722.32v3.89H733Z"/><path class="cls-1" d="M741.13,170.1h-1v-9.76a19.93,19.93,0,0,1-2.68,5.45l-.42-1a16.66,16.66,0,0,0,3-6.43h-2.64v-.95h2.72v-3.62h1v3.62h2.32v.95h-2.32v1.28c.87.91,1.75,1.94,2.65,3.08l-.56.81a31.42,31.42,0,0,0-2.09-2.84Zm5.8-16.28a20.57,20.57,0,0,1-.58,2.65h6.39q0,9.15-.31,11.32A2.22,2.22,0,0,1,750,170c-.37,0-1,0-1.94-.06l-.22-.86c.76,0,1.43.05,2,.05a1.56,1.56,0,0,0,1.66-1.47c.16-1.12.26-4.54.28-10.26h-5.74a15.84,15.84,0,0,1-1.85,3.78l-.63-.81a16.86,16.86,0,0,0,2.39-6.64Zm-2.72,11.58q.75-.43,2.7-5.91l.88.33a38.06,38.06,0,0,1-2.21,5.27c1.52-.31,2.65-.56,3.38-.74-.2-.58-.5-1.33-.88-2.23l.85-.27a38.28,38.28,0,0,1,1.62,4.54l-.85.39c-.16-.6-.32-1.15-.49-1.67q-2.1.55-4.8,1.08Z"/><path class="cls-1" d="M771.5,168.76l-.18.94H766q-4.79,0-6.86-1.42a4.13,4.13,0,0,1-.73-.69,10.61,10.61,0,0,1-2.23,2.36l-.63-.81a8.46,8.46,0,0,0,2.23-2.32A12.78,12.78,0,0,1,756,162.9l.81-.31a15,15,0,0,0,1.41,3.4,12.61,12.61,0,0,0,1.18-5H756v-.75a42.31,42.31,0,0,0,3-4.58h-3.17v-.93h4.27v.81a43.17,43.17,0,0,1-2.86,4.55h3v.61a13.41,13.41,0,0,1-1.49,6.11,4.63,4.63,0,0,0,1,.88,12.51,12.51,0,0,0,5.67,1.1Q767.4,168.84,771.5,168.76ZM770,161h-3.85v1.65h4.33v.85h-4.33v1.78H771v.85h-4.84v2h-1v-2H761v-.85h4.19v-1.78h-3.65v-.85h3.65V161h-3.27v-.87h3.27v-1.67H761v-.83h4.15v-1.69h-3.27v-.85h3.27v-1.36h1v1.36H770v2.54h1.31v.83H770Zm-3.85-5.06v1.69H769v-1.69Zm0,2.52v1.67H769v-1.67Z"/><path class="cls-1" d="M781.74,153.72a15.06,15.06,0,0,1,.88,1.76h6.68v.94H775.87v4.24a21.71,21.71,0,0,1-1.91,9.42l-.74-.67a20.09,20.09,0,0,0,1.68-8.75v-5.18h6.73a11.12,11.12,0,0,0-.9-1.58ZM779,163.29v5.29a19.67,19.67,0,0,0,2.18-.66l.18.92c-1,.28-2.14.6-3.55.93l-.2-.86c.29-.07.44-.22.44-.43v-9.72a73.7,73.7,0,0,0,9.66-1.16l.49.81c-1.25.24-2.65.47-4.2.67.11,1.19.25,2.28.42,3.28h4.46v.93h-4.3c.14.72.29,1.34.43,1.86a9.28,9.28,0,0,0,1.33,2.82c.5.62.92.94,1.28.94s.65-.9,1-2.59l.8.52c-.5,2.06-1.05,3.09-1.68,3.09a2.46,2.46,0,0,1-1.74-1.06,10.3,10.3,0,0,1-1.7-3.11,18.79,18.79,0,0,1-.63-2.47Zm0-3.72v2.79h4.48c-.16-.93-.3-2-.43-3.17C781.69,159.33,780.34,159.46,779,159.57Zm3.24,6.78a26,26,0,0,1,2.09,3l-.76.56a22.57,22.57,0,0,0-2-3Z"/><path class="cls-1" d="M794.21,158.76v1.62A20.21,20.21,0,0,1,792,170l-.72-.63a18.68,18.68,0,0,0,2-9v-5.82h12.83v4.2Zm10.91-3.28H794.21v2.36h10.91ZM795,163.67H807.1v.9h-7a19.73,19.73,0,0,1-3.13,4.12c2.62-.18,5.16-.45,7.63-.83-.54-.66-1.13-1.33-1.76-2l.74-.45a34.83,34.83,0,0,1,3.47,4.19l-.77.56c-.34-.5-.69-1-1.05-1.47q-4.6.63-9.47.93l-.23-.86.2-.07c.84-.51,2-1.87,3.35-4.09H795Zm1.24-2.93H806v.86h-9.7Z"/><path class="cls-1" d="M812.75,162.1l.94.11-.43,1.12h3.85v.83A7.54,7.54,0,0,1,815,167.4a24,24,0,0,1,2.7,1.33l-.54.77a29.52,29.52,0,0,0-2.93-1.47,14.55,14.55,0,0,1-4.52,2.08l-.49-.82a14.58,14.58,0,0,0,4-1.71c-.76-.34-1.63-.69-2.6-1.05.5-.81.93-1.59,1.29-2.32h-2.28v-.88h2.7Zm-3.11-4.82h3.56v-3.51h.92v3.51h3.4v.88h-3.4v.22a33.55,33.55,0,0,1,3.1,1.91l-.52.77c-1-.8-1.85-1.45-2.58-1.94v2.59h-.92v-3.55h-.05a8.25,8.25,0,0,1-3.33,3.78l-.51-.81a7.15,7.15,0,0,0,3.1-3h-2.77Zm1.19-3.1a14.08,14.08,0,0,1,1.17,2.25l-.78.35a16.54,16.54,0,0,0-1.22-2.33Zm5.34,10h-3.31a16.34,16.34,0,0,1-1.08,1.93A23.71,23.71,0,0,1,814,167,7.72,7.72,0,0,0,816.17,164.21Zm1.12-9.81a11.73,11.73,0,0,1-1.4,2.39l-.74-.37a13.3,13.3,0,0,0,1.33-2.4Zm2.07,5.74a18.1,18.1,0,0,1-1.19,2.58l-.61-.76a23.49,23.49,0,0,0,2.23-8.28l1,.18c-.12.94-.26,1.85-.43,2.74h4.9v1H824a19.27,19.27,0,0,1-1.64,7.88,11.42,11.42,0,0,0,3.44,3.86l-.56.82a11.71,11.71,0,0,1-3.36-3.78,12.2,12.2,0,0,1-3.44,3.82l-.54-.83a11.18,11.18,0,0,0,3.44-3.94A24.08,24.08,0,0,1,819.36,160.14Zm.76-2.59c-.12.48-.22.83-.29,1.06a25.6,25.6,0,0,0,1.92,5.78,18.53,18.53,0,0,0,1.26-6.84Z"/><path class="cls-1" d="M827.8,170l-.2-.92c.63.05,1.09.07,1.39.07.49,0,.74-.28.74-.84v-4.79c-.71.26-1.47.52-2.29.77l-.25-.95a24.63,24.63,0,0,0,2.54-.78v-4.3h-2.25v-.95h2.25v-3.49h1v3.49h1.84v.95H830.7v3.93c.61-.28,1.21-.57,1.78-.87v1c-.62.33-1.22.61-1.78.84v5.42c0,1-.46,1.46-1.37,1.46Zm6.73-8a20.78,20.78,0,0,1-2.14,8.19l-.75-.67a20,20,0,0,0,2-9.46v-5.46H843v4.12H839.5V161h4V162h-4v2.45h3.12v5.74h-.9v-.94h-5.39v.94h-.9v-5.74h3.1V162Zm4-3.28H834.6V161h3.94Zm3.49-3.2H834.6v2.32H842Zm-5.69,12.83h5.39v-3h-5.39Z"/><path class="cls-1" d="M845.48,164.46H856.6v.94H845.48Zm4.41-7.36-.33,3.17h10.05q0,7.39-.78,8.58c-.54.76-1.65,1.14-3.34,1.14-.8,0-1.62,0-2.49-.06l-.27-.88,2.54.07c1.61,0,2.56-.37,2.86-1.13s.51-3.08.51-6.8H848.45l.83-7.53,1,.07-.25,2.43h10.29v.94Z"/><path class="cls-1" d="M870,153.73h1v5.69h6.66v.94H871v8.06h8.33v1H863.44v-1H870Z"/><path class="cls-1" d="M3,186.76v1.62A20.21,20.21,0,0,1,.74,198L0,197.41a18.68,18.68,0,0,0,2-9v-5.82H14.85v4.2Zm10.91-3.28H3v2.36H13.88ZM3.76,191.67h12.1v.9H8.91a19.73,19.73,0,0,1-3.13,4.12c2.61-.18,5.16-.45,7.63-.83-.54-.66-1.13-1.33-1.76-2l.73-.45a34.14,34.14,0,0,1,3.48,4.19l-.78.56c-.33-.5-.68-1-1-1.47q-4.6.63-9.47.93l-.23-.86.2-.07q1.26-.76,3.34-4.09H3.76ZM5,188.74h9.71v.86H5Z"/><path class="cls-1" d="M26.41,181.59a15.92,15.92,0,0,1,1,1.94h6.66v1H20.63v4.21a21.6,21.6,0,0,1-1.89,9.47l-.81-.74a19.84,19.84,0,0,0,1.73-8.73v-5.17h6.75a13.23,13.23,0,0,0-1.07-1.76ZM21.2,196.37h7.56a52.15,52.15,0,0,0,3-9.67l1,.27a50.68,50.68,0,0,1-2.93,9.4h4v.95H21.2Zm1.73-8.8a51.71,51.71,0,0,1,2,6.64l-.91.25a59.17,59.17,0,0,0-1.89-6.61Zm3.49-1.26a56.14,56.14,0,0,1,1.7,6.85l-.92.24a63.34,63.34,0,0,0-1.62-6.81Z"/><path class="cls-1" d="M38.72,192.19a10.53,10.53,0,0,1-2,5.78L36,197.3a10.61,10.61,0,0,0,1.84-6.24v-8.53H50.94V196a1.55,1.55,0,0,1-1.76,1.76H47.11l-.26-.95c.72,0,1.39,0,2,0s1.12-.4,1.12-1.22v-3.44H44.69v5.37h-1v-5.37Zm.07-4.37v3.31l0,.14h4.95v-3.45Zm4.93-4.34H38.79v3.44h4.93ZM50,186.92v-3.44H44.69v3.44Zm0,4.35v-3.45H44.69v3.45Z"/><path class="cls-1" d="M60.26,185v12.09h-.93V196H55.69v1.61h-.93V185h1.62a16.78,16.78,0,0,0,.81-3.23l1,.13a15.69,15.69,0,0,1-.87,3.1Zm-4.57,4.95h3.64v-4H55.69Zm0,5.14h3.64v-4.26H55.69ZM69.59,185c0,5.78-.09,9.37-.25,10.79a2.24,2.24,0,0,1-2.51,2.16l-1.76,0-.23-.9c.72,0,1.35.05,1.89.05,1,0,1.53-.53,1.67-1.6s.22-4.14.25-9.48H63.34a15,15,0,0,1-1.82,3.15l-.57-.76a16,16,0,0,0,2.64-6.62l1,.1a23,23,0,0,1-.83,3.15ZM63.32,189a31.9,31.9,0,0,1,3.14,4l-.78.56a28.39,28.39,0,0,0-3.15-4Z"/><path class="cls-1" d="M75.46,198.1h-.94v-9.44a21.68,21.68,0,0,1-2.29,5.21l-.43-1.05a18.12,18.12,0,0,0,2.7-6.5H72.16v-.95h2.36v-3.62h.94v3.62h2.05v.95H75.46v1.17c.69.84,1.47,1.86,2.32,3l-.52.77c-.68-1.13-1.28-2.05-1.8-2.77Zm5.72-6.57a9,9,0,0,1-3,6.62l-.76-.65a8,8,0,0,0,2.79-6v-1.48h.94ZM79,183.91l-.3-.86a22.88,22.88,0,0,0,7.94-1.24l.46.81a15.78,15.78,0,0,1-3.87,1,16.82,16.82,0,0,1-.61,2.49h5.2V187H84.6a8.54,8.54,0,0,0,3.78,3.88l-.41.87A9.91,9.91,0,0,1,83.68,187H82.26c-.16.34-.34.71-.54,1.09a11.71,11.71,0,0,1-3.58,3.66l-.58-.76A9.7,9.7,0,0,0,81,187.49l.23-.46H78.12v-.92h3.53a14.8,14.8,0,0,0,.59-2.36A30.15,30.15,0,0,1,79,183.91Zm5.28,6.14h1v8.06h-1Z"/><path class="cls-1" d="M90.43,192h7.26v-1.82h1V192h7.23v.92h-6a13,13,0,0,0,6.45,4.26l-.47,1q-4.89-2-6.8-5.22h-.38v5.29h-1v-5.29h-.42q-1.63,3-6.66,5.2l-.56-.92c3.21-1.24,5.34-2.66,6.39-4.28h-6Zm4.14-4a15.19,15.19,0,0,1-3.81,2.9l-.6-.76a14.68,14.68,0,0,0,3.76-2.72Zm-3.89-3.46a17.46,17.46,0,0,1,2.9,1.48l-.5.77a13.1,13.1,0,0,0-2.88-1.49Zm.92-2.62a14.58,14.58,0,0,1,3.28,1.83l-.49.76a15.63,15.63,0,0,0-3.29-1.87Zm4.16,1.6v-.9h7.9a51.45,51.45,0,0,1-.27,6,1.69,1.69,0,0,1-.79,1.21,6.41,6.41,0,0,1-2.34.28h-.43l-.29-.86,1,0a2.89,2.89,0,0,0,1.55-.29,1.62,1.62,0,0,0,.47-1c.07-.5.12-2,.16-4.46h-2.36a12.4,12.4,0,0,1-1.62,4.14,10.94,10.94,0,0,1-3.67,3l-.6-.76a10.61,10.61,0,0,0,3.42-2.59,10,10,0,0,0,1.59-3.76Zm1.66,1.33a12.22,12.22,0,0,1-1.73,2.56l-.76-.42a10.92,10.92,0,0,0,1.75-2.46Zm7.34,0a23.6,23.6,0,0,1,1.67,4l-.77.22a24,24,0,0,0-1.69-3.94Z"/><path class="cls-1" d="M111.44,196.1a3.31,3.31,0,0,1-1.8,3.11l-.38-.63a2.77,2.77,0,0,0,1.37-2.19h-.27a1,1,0,0,1-.67-.23.84.84,0,0,1-.25-.65.78.78,0,0,1,.25-.66.87.87,0,0,1,.67-.26Q111.44,194.6,111.44,196.1Z"/><path class="cls-1" d="M128.86,190.52a24.87,24.87,0,0,1-2.43,2.3l-.63-.79a21.3,21.3,0,0,0,5.53-6.77h-4.9v-.95h5.35c.35-.83.67-1.72,1-2.67l1,.11a22.55,22.55,0,0,1-.9,2.56h9.23v.95h-9.66a22.9,22.9,0,0,1-2.58,4.11v8.83h-1Zm2.77-.29h4.29v-3.47h1v3.47h4.37v1h-4.37v5.38h5.22v1H130.84v-1h5.08V191.2h-4.29Z"/><path class="cls-1" d="M146.07,187.6a22.14,22.14,0,0,1-2,2.67l-.32-1a21.37,21.37,0,0,0,4-7.65l.92.43A23.36,23.36,0,0,1,147,186V198.2h-1Zm2.66-3.33h11.63v.94H148.73Zm10.37,7.85v6h-.95v-1h-7.08v1h-1v-6Zm-8.69-5.18h8.39v.88h-8.39Zm0,2.53h8.39v.9h-8.39Zm.66,6.75h7.08V193h-7.08Zm3.32-14.52a14.36,14.36,0,0,1,.91,2.1l-.86.35a14.43,14.43,0,0,0-1-2.2Z"/><path class="cls-1" d="M164.75,193.27a15.05,15.05,0,0,1-1.85,4.29l-.81-.54a12,12,0,0,0,1.73-3.93Zm-.09-10.1h4a6.72,6.72,0,0,0,.61-1.51l1,.15a6.55,6.55,0,0,1-.58,1.36h6.1v8.57H164.66Zm1,2.6h9.18V184h-9.18Zm0,2.52h9.18v-1.7h-9.18Zm9.18,2.59V189.1h-9.18v1.78Zm-7.18,7c-.92,0-1.37-.43-1.37-1.3V193h1v3.39a.57.57,0,0,0,.65.65h4.21a1.24,1.24,0,0,0,1-.31,4.42,4.42,0,0,0,.49-2.3l.93.3a4.75,4.75,0,0,1-.72,2.76,2.21,2.21,0,0,1-1.47.41Zm2.1-5.51a22.28,22.28,0,0,1,2.38,2.54l-.74.52a21.79,21.79,0,0,0-2.36-2.61Zm5.83.42a30.57,30.57,0,0,1,2.81,3.9l-.77.54a29,29,0,0,0-2.79-4Z"/><path class="cls-1" d="M192.22,189.44a16.5,16.5,0,0,1-3.29,4.39,20.65,20.65,0,0,0,7.29,3.37l-.58.9a21,21,0,0,1-7.45-3.6,18.67,18.67,0,0,1-7.45,3.67l-.6-.87a19.14,19.14,0,0,0,7.29-3.43,15.33,15.33,0,0,1-3.36-4.2l.84-.48a14,14,0,0,0,3.26,4,14.17,14.17,0,0,0,3.15-4.18Zm-12-5.44h7.64a14,14,0,0,0-1.12-2.19l1.06-.18a14.33,14.33,0,0,1,1.1,2.37h7.15v.92H180.23Zm5.76,2.36a20.68,20.68,0,0,1-5.07,4.66l-.63-.81a19.63,19.63,0,0,0,5-4.5Zm4.9-.65a34.85,34.85,0,0,1,5,4.83l-.72.7a34.64,34.64,0,0,0-5-4.88Z"/><path class="cls-1" d="M198.43,198l-.21-.92q.74.06,1.38.06c.53,0,.79-.29.79-.87v-4.68a23.56,23.56,0,0,1-2.35.81l-.26-1q1.32-.34,2.61-.81v-4.46h-2.26v-1h2.26v-3.38h1v3.38h2v1h-2v4.07c.61-.28,1.29-.62,2-1v1c-.61.32-1.3.65-2,1v5.33c0,1-.48,1.49-1.43,1.49Zm14.73-11.16v4.9h1.2v.93h-4.71a10.22,10.22,0,0,0,4.78,4.67l-.43.91a11.52,11.52,0,0,1-5.24-5.49c-.69,2.21-2.43,4-5.2,5.48l-.65-.8q3.83-1.84,4.9-4.77h-4.37v-.93h1.36v-4.9h4a19.88,19.88,0,0,0,1.74-2.75h-3.47a11.84,11.84,0,0,1-3,2.86l-.6-.76a9.35,9.35,0,0,0,3.78-4.51l1,.1a9.23,9.23,0,0,1-.65,1.46h4v.72a21,21,0,0,1-1.75,2.88Zm-7.46,4.9h2.38a22.47,22.47,0,0,0,.4-4H205.7Zm6.56,0v-4h-2.87a23.07,23.07,0,0,1-.37,4Z"/><path class="cls-1" d="M216.47,186.79h3.26v-2.9c-1,.17-2,.29-3,.36l-.32-.9a22.73,22.73,0,0,0,6.73-1.38l.47.83a23.43,23.43,0,0,1-3,.9v3.09h3.19v.92h-3.19v1a38.86,38.86,0,0,1,3.22,3.31l-.57.83a36.49,36.49,0,0,0-2.65-3.24v8.44h-.93v-8.64a17.18,17.18,0,0,1-3.32,5.13l-.41-1a14.61,14.61,0,0,0,3.73-5.83h-3.26Zm14.9-3.72v14.38h-1V196h-4.72v1.66h-1V183.07Zm-5.69,12h4.72V184h-4.72Z"/><path class="cls-1" d="M236.32,187.44a23,23,0,0,1-2.14,2.75l-.31-1a20.07,20.07,0,0,0,4-7.38l.9.41a20.15,20.15,0,0,1-1.46,3.55v12.4h-1Zm8.23-5.63a16.3,16.3,0,0,0,5.9,6.49l-.54.83a16.47,16.47,0,0,1-5.79-6.35,17.78,17.78,0,0,1-5.57,6.57l-.54-.83a17.48,17.48,0,0,0,5.69-6.71Zm-3.17,6.26h1v2.74c0,3.34-.93,5.8-2.68,7.38l-.74-.65c1.61-1.39,2.43-3.64,2.47-6.73Zm4.72,0h1v10h-1Z"/><path class="cls-1" d="M254.5,187.24a20.63,20.63,0,0,1-2.21,3l-.33-1a20.87,20.87,0,0,0,3.93-7.56l.88.41a24,24,0,0,1-1.3,3.31V198.2h-1Zm7.51-5.47h1v1.76h4.75v.9H263v1.71h3.51v10.55h1.82v.92H256.46v-.92h1.91V186.14H262v-1.71h-4.77v-.9H262Zm-2.7,7.15h6.24V187h-6.24Zm0,2.59h6.24v-1.77h-6.24Zm0,2.59h6.24v-1.76h-6.24Zm0,2.59h6.24v-1.78h-6.24Z"/><path class="cls-1" d="M273.64,186.67h.95v2.89h2.11v.89h-2.11v2.79c.94-.22,1.82-.44,2.65-.65v.93c-.93.26-1.81.47-2.65.63v4h-.95v-3.78c-1.19.22-2.4.42-3.64.6l-.14-1c1.42-.18,2.68-.36,3.78-.55v-3h-3.12l-.23-.89a27.52,27.52,0,0,0,1.56-4.41h-2v-.93h2.22l.55-2.52.94.12q-.3,1.44-.54,2.4h3.56v.93h-3.79a33.16,33.16,0,0,1-1.52,4.41h2.33Zm3.88-2.45h2.92c.18-.87.34-1.73.49-2.59l.95.09-.45,2.5h4.5v.93h-4.68c-.17.8-.35,1.59-.54,2.4h5.69v.92h-5.92c-.17.61-.43,1.47-.78,2.57h5.83v.83a13,13,0,0,1-2.93,3.83,27.25,27.25,0,0,1,2.29,1.55l-.56.85a26.85,26.85,0,0,0-5.87-3.46l.54-.79a23.79,23.79,0,0,1,2.77,1.38,13.08,13.08,0,0,0,2.77-3.29h-6.08c.34-1.06.68-2.21,1-3.47H277v-.92h2.7q.3-1.26.54-2.4h-2.74Z"/><path class="cls-1" d="M288.2,183.07a28.27,28.27,0,0,0,5.79-1.14l.35.92c-.94.26-1.73.47-2.38.61v3.31h2.48v1H292v1.11a30.9,30.9,0,0,1,2.63,2.47l-.54.79a31.69,31.69,0,0,0-2.09-2.39v8.39h-1v-8.63a16.62,16.62,0,0,1-2.83,5l-.41-1a14.64,14.64,0,0,0,3.17-5.69h-2.78v-1H291v-3.13c-.67.11-1.54.22-2.61.34Zm13.48,5.9a7.63,7.63,0,0,1-1.22,1.46h3.81v.84q-1.66,4.81-9.9,6.83l-.5-.9a21.33,21.33,0,0,0,5.33-1.86c-.56-.57-1.13-1.15-1.73-1.73l.7-.5c.66.59,1.27,1.18,1.82,1.78a8,8,0,0,0,3.26-3.56h-4a15.11,15.11,0,0,1-4.52,1.89l-.58-.88c3.17-.76,5.37-2,6.61-3.77Zm-2-7.09a16,16,0,0,1-.92,1.35h4.27V184q-1.57,4.2-8,6l-.52-.72a16.52,16.52,0,0,0,3.85-1.49,10,10,0,0,0-1.44-1.64l.68-.52a8.23,8.23,0,0,1,1.46,1.74,8.57,8.57,0,0,0,3-3.33h-4a12.67,12.67,0,0,1-2.91,2.2l-.65-.77a11.46,11.46,0,0,0,4.27-3.84Z"/><path class="cls-1" d="M312.79,181.73h1v5.69h6.66v.94h-6.66v8.06h8.34v1H306.2v-1h6.59Z"/><path class="cls-1" d="M325.4,187.06l1.43-4.79,1,.15-1.14,3.72h3.53a38.87,38.87,0,0,0,.92-4.57l1,.11c-.28,1.72-.58,3.2-.9,4.46h8.55v.92H331c-.28.93-.54,1.71-.79,2.36h7.47v.85a9.49,9.49,0,0,1-3.14,4.37,27.68,27.68,0,0,0,5.6,2.59l-.48.9a27.13,27.13,0,0,1-5.91-2.88,25.71,25.71,0,0,1-5.67,2.94l-.5-.9a24.37,24.37,0,0,0,5.34-2.63,10.06,10.06,0,0,1-3.27-3.91,19.2,19.2,0,0,1-5.17,7.08l-.5-.9a20.46,20.46,0,0,0,6-9.87Zm5,3.26a9.38,9.38,0,0,0,3.3,3.76,9.11,9.11,0,0,0,3-3.76Zm4.75-8.5a21.93,21.93,0,0,1,3.28,3.05l-.7.7a20.31,20.31,0,0,0-3.24-3.12Z"/><path class="cls-1" d="M342.43,198l-.21-.92c.5,0,1,.06,1.42.06s.77-.32.77-1v-4.64c-.77.32-1.56.61-2.37.86l-.26-1c1.05-.29,1.92-.57,2.63-.84v-4.43h-2.3v-1h2.3v-3.38h1v3.38h2v1h-2v4a24.36,24.36,0,0,0,2.2-1.13v1c-.76.42-1.49.79-2.2,1.12v5.31c0,1-.46,1.56-1.4,1.56Zm10.19-13.48c-.26.85-.49,1.51-.68,2h5.74v.9h-6.1a18.59,18.59,0,0,1-1.84,3.35h3.1v-2.36h1v2.36h3.47v.84h-3.47V194h4.34v.91h-4.34v3.32h-1v-3.32h-5.35V194h5.35v-2.42h-4l-.19-.79a16.48,16.48,0,0,0,2-3.4h-2.25v-.9H351c.25-.64.5-1.36.75-2.18Zm4.93-1.94v2.88h-.92v-2h-7.27v2h-.92v-2.88Z"/><path class="cls-1" d="M361,183.35h4.2a9,9,0,0,0-.92-1.62l.95-.18a12.52,12.52,0,0,1,.9,1.8h4.29a6.84,6.84,0,0,0,.92-1.83l1,.12a6.35,6.35,0,0,1-.94,1.71h4v.87h-7c-.13.5-.28,1-.43,1.44h6.58v.83h-6.89c-.17.38-.41.85-.72,1.42h9.34v.84H366.3a14.67,14.67,0,0,1-1.15,1.43h9v8h-1v-.72h-8.47v.72h-1v-6.72a17.61,17.61,0,0,1-3.4,2.14l-.43-.86a13.4,13.4,0,0,0,5.29-4h-5.13v-.84h5.71a15.5,15.5,0,0,0,.77-1.42h-4.72v-.83h5.06c.16-.46.3-.94.43-1.44H361Zm12.24,9V191h-8.47v1.38Zm-8.47.76v1.35h8.47v-1.35Zm8.47,3.53v-1.41h-8.47v1.41Z"/><path class="cls-1" d="M380,187.08h5.61v-1.37h-7.16v-.86h7.16v-1.53q-3.44.19-5.85.3l-.16-.82q6.9-.24,12.37-.85l.3.81c-2.12.22-4,.38-5.69.5v1.59h7.2v.86h-7.2v1.37h5.64v5.8H386.6v1.45h6.59v.81H386.6v1.64h7.47v.87H378.2v-.87h7.43v-1.64H379.1v-.81h6.53v-1.45H380Zm1,2.48h4.66v-1.67H381Zm4.66,2.51v-1.71H381v1.71Zm1-4.18v1.67h4.7v-1.67Zm4.7,4.18v-1.71h-4.7v1.71Z"/><path class="cls-1" d="M396.22,182.53h15.84v.9h-5.44v1.85h4.3v4.34h-7.59c-.28.51-.62,1.13-1,1.85h9.95v.92h-3.94a5.86,5.86,0,0,1-2.14,3c1.9.59,3.85,1.28,5.85,2.09l-.59.79q-3-1.26-6.16-2.29s-.07.05-.07.06a26.1,26.1,0,0,1-8.39,2.16l-.38-.88a27.69,27.69,0,0,0,7.63-1.71c-1.52-.47-3.08-.89-4.68-1.25.44-.64.85-1.29,1.25-1.94H396v-.92h5.18l1.07-1.85h-4.9v-4.34h4.3v-1.85h-5.43Zm5.43,6.22v-2.62h-3.36v2.62Zm5.67,3.64h-5.58q-.57.92-1,1.53c1.37.3,2.82.67,4.36,1.12A5.2,5.2,0,0,0,407.32,192.39Zm-1.62-7.11v-1.85h-3.13v1.85Zm0,3.47v-2.62h-3.13v2.62Zm4.29,0v-2.62h-3.37v2.62Z"/><path class="cls-1" d="M420.26,185v12.09h-.93V196h-3.64v1.61h-.93V185h1.62a16.78,16.78,0,0,0,.81-3.23l1,.13a15.69,15.69,0,0,1-.87,3.1Zm-4.57,4.95h3.64v-4h-3.64Zm0,5.14h3.64v-4.26h-3.64ZM429.59,185c0,5.78-.09,9.37-.25,10.79a2.24,2.24,0,0,1-2.51,2.16l-1.76,0-.23-.9c.72,0,1.35.05,1.89.05,1,0,1.53-.53,1.67-1.6s.22-4.14.25-9.48h-5.31a15,15,0,0,1-1.82,3.15l-.57-.76a16,16,0,0,0,2.64-6.62l1,.1a23,23,0,0,1-.83,3.15ZM423.32,189a31.9,31.9,0,0,1,3.14,4l-.78.56a28.39,28.39,0,0,0-3.15-4Z"/><path class="cls-1" d="M434.27,187.62a24.53,24.53,0,0,1-2.13,2.48l-.3-1a20.08,20.08,0,0,0,4.35-7.35l.9.42a20.16,20.16,0,0,1-1.85,4v12h-1Zm5.42-2.27a21.32,21.32,0,0,1-2.92,4.63l-.68-.81a21.68,21.68,0,0,0,4-7.53l1,.24c-.22.71-.54,1.55-.93,2.52h8.06v.95H441.9v3.28h5.45v1H441.9v3.33h5.6v.95h-5.6v4.29h-1V185.35Z"/><path class="cls-1" d="M452.72,192.19a10.53,10.53,0,0,1-2,5.78l-.72-.67a10.61,10.61,0,0,0,1.84-6.24v-8.53h13.14V196a1.55,1.55,0,0,1-1.76,1.76h-2.07l-.26-.95c.72,0,1.39,0,2,0s1.12-.4,1.12-1.22v-3.44h-5.28v5.37h-1v-5.37Zm.07-4.37v3.31l0,.14h5v-3.45Zm4.93-4.34h-4.93v3.44h4.93Zm6.25,3.44v-3.44h-5.28v3.44Zm0,4.35v-3.45h-5.28v3.45Z"/><path class="cls-1" d="M473.22,194.57a2,2,0,0,1,.65,1.55,2.1,2.1,0,0,1-.65,1.54,2.35,2.35,0,0,1-1.58.62,2.27,2.27,0,0,1-1.59-.62,2.07,2.07,0,0,1-.65-1.54,2,2,0,0,1,.65-1.55,2.18,2.18,0,0,1,1.59-.61A2.24,2.24,0,0,1,473.22,194.57Zm-2.61.56a1.24,1.24,0,0,0-.43,1,1.33,1.33,0,0,0,.43,1,1.43,1.43,0,0,0,1,.41,1.49,1.49,0,0,0,1-.41,1.33,1.33,0,0,0,.43-1,1.27,1.27,0,0,0-.43-1,1.37,1.37,0,0,0-1-.42A1.35,1.35,0,0,0,470.61,195.13Z"/><path class="cls-1" d="M498,197.83l-3.26,0a12.72,12.72,0,0,1-2.82-.34,4.05,4.05,0,0,1-1.95-1.33c-.24-.32-.47-.47-.68-.47-.49,0-1.27.83-2.32,2.5l-.74-.65q1.53-2.35,2.61-2.73V189h-2.67v-.94h3.59v6.73a1.94,1.94,0,0,1,.57.51,4.55,4.55,0,0,0,1.51,1.18,8.14,8.14,0,0,0,2.49.38c1.22,0,2.4,0,3.53,0h2.48l1.93-.07-.24,1Zm-10.71-15.72a22.6,22.6,0,0,1,3.19,2.79l-.69.69a20.47,20.47,0,0,0-3.17-2.85Zm7.38,1.73a22.19,22.19,0,0,1,2.12,1.35,15.62,15.62,0,0,0,3-1.91h-8.31v-.83h9.65v.71a20,20,0,0,1-3.66,2.52l.43.34h3.53v8.08c0,.84-.44,1.26-1.31,1.26h-1.59l-.23-.86,1.53,0c.44,0,.67-.2.67-.61v-1.69h-3.35v3.18h-.9v-3.18H492.8v3.26h-.91V186h4.69a26.88,26.88,0,0,0-2.55-1.6Zm1.55,4.91v-1.89H492.8v1.89Zm-3.39.83v1.82h3.39v-1.82Zm7.64-.83v-1.89h-3.35v1.89Zm-3.35.83v1.82h3.35v-1.82Z"/><path class="cls-1" d="M504,187.35h3.66v8.1c.72-.6,1.42-1.24,2.1-1.93l.26,1a23.59,23.59,0,0,1-3.23,2.7l-.37-.9a.88.88,0,0,0,.32-.61V188.3H504Zm2-5.4a20.9,20.9,0,0,1,3,2.84l-.66.69a20.44,20.44,0,0,0-3.06-2.88Zm9.27,1.71h-5.16v-.95h10v.95h-3.85V189h3.62V190h-3.62v6.62h4.23v1H509.53v-1h1.9v-9.73h1v9.73h2.84Z"/><path class="cls-1" d="M527.87,195.29a26.11,26.11,0,0,1-5.71,2.09l-.12-1a25.37,25.37,0,0,0,5.83-2Zm-1.73-13.14a29,29,0,0,1-2.86,5.67c1-.11,1.92-.24,2.93-.38.48-.92.85-1.61,1.1-2.05l.9.32a38.64,38.64,0,0,1-4.41,6.77,26.62,26.62,0,0,0,4.1-1.08v.9a29,29,0,0,1-5.29,1.26l-.27-.9a1.75,1.75,0,0,0,.47-.29,21.31,21.31,0,0,0,2.88-4.05q-1,.15-3.33.45l-.23-.9a1.46,1.46,0,0,0,.41-.34,27.08,27.08,0,0,0,2.66-5.74Zm2.43,7.95-.63-.79q5.22-2,7.22-5.7H528.8v-1h7.55v.78a11.51,11.51,0,0,1-2.09,3,28.19,28.19,0,0,1,4,3.06l-.68.7a27.6,27.6,0,0,0-4-3.15A16.23,16.23,0,0,1,528.57,190.1Zm4,2.07h-3.69v-.93h8.39v.93h-3.73v4.41h4.56v1h-10v-1h4.52Z"/><path class="cls-1" d="M540.65,186a23.58,23.58,0,0,1,3.26,3.17l-.71.68a20.3,20.3,0,0,0-3.22-3.2Zm3.44,5.9a56.24,56.24,0,0,1-2.81,6.14l-.92-.4a46.47,46.47,0,0,0,2.84-6.1Zm-3-10a25.33,25.33,0,0,1,3.37,3.15l-.69.71a23.43,23.43,0,0,0-3.36-3.23Zm6.23,8.81h1V192a9.28,9.28,0,0,1-.81,4,5.09,5.09,0,0,1-2.45,2.16l-.54-.81a4.62,4.62,0,0,0,2.24-2,8.79,8.79,0,0,0,.61-3.35Zm-2.14-7.15h5a13.33,13.33,0,0,0-1-1.75l1-.18a18.34,18.34,0,0,1,.94,1.93h4.53v.94h-1.56a7.1,7.1,0,0,1-2.67,3.51,16.92,16.92,0,0,0,5,1.36l-.36.87a16.57,16.57,0,0,1-5.52-1.68,16.72,16.72,0,0,1-5.58,1.79l-.4-.89a18,18,0,0,0,5.11-1.42,7.91,7.91,0,0,1-2.86-3.54h-1.65Zm2.55.94a7.09,7.09,0,0,0,2.83,3.06,6,6,0,0,0,2.61-3.06Zm5,6.12h1v7.47h-1Z"/><path class="cls-1" d="M561.53,198.1h-.94v-9.62a19.86,19.86,0,0,1-2.37,5.19l-.42-1a17.18,17.18,0,0,0,2.77-6.31h-2.35v-.92h2.37v-3.64h.94v3.64h1.87v.92h-1.87v1.31c.62.8,1.35,1.86,2.19,3.17l-.52.79c-.67-1.24-1.23-2.2-1.67-2.9Zm3.17-11.94H573v5.47h-3.74a11.41,11.41,0,0,1-.18,1.62h5.16v.9h-4.8a10.57,10.57,0,0,0,4.88,3.28l-.63.76a11,11,0,0,1-5-3.66l-.18.4c-.66,1.32-2.15,2.4-4.46,3.26l-.62-.78a7.77,7.77,0,0,0,4.16-2.72,3.4,3.4,0,0,0,.27-.54h-4.52v-.9h4.81a7.46,7.46,0,0,0,.22-1.62H564.7Zm-1.17-2.81h2.77v-1.6h.93v1.6h3.06v-1.6h.94v1.6h2.88v.9h-2.88v1.37h-.94v-1.37h-3.06v1.37h-.93v-1.37h-2.77Zm2.07,5.17h6.49V187H565.6Zm6.49,2.32v-1.55H565.6v1.55Z"/><path class="cls-1" d="M577.3,193.42h6.42v-1.75h1v1.75H591v.91h-6.3v2.42H592v.91H576.27v-.91h7.45v-2.42H577.3Zm-.44-10.79h8.36v.9h-1.93v3h2.3v.93h-2.3v4.05h-.94v-4.05h-2.64a5.89,5.89,0,0,1-2.13,4.29l-.72-.65a4.83,4.83,0,0,0,1.89-3.64H576.4v-.93h2.41v-3h-1.95Zm2.9.9v3h2.59v-3Zm7.13-.55h.92v6.17h-.92Zm.49,8.62-.22-.92c1.06,0,1.82.07,2.29.07s.68-.24.68-.74v-8h1v8.28a1.17,1.17,0,0,1-1.31,1.35Z"/><path class="cls-1" d="M594.18,182.8h15.89v.95h-7.93v3a74.42,74.42,0,0,1,6.91,4.05l-.58.86a73.31,73.31,0,0,0-6.33-3.91V198.2h-1V183.75h-7Z"/><path class="cls-1" d="M618.26,185v12.09h-.93V196h-3.64v1.61h-.93V185h1.62a16.78,16.78,0,0,0,.81-3.23l1,.13a15.69,15.69,0,0,1-.87,3.1Zm-4.57,4.95h3.64v-4h-3.64Zm0,5.14h3.64v-4.26h-3.64ZM627.59,185c0,5.78-.09,9.37-.25,10.79a2.24,2.24,0,0,1-2.51,2.16l-1.76,0-.23-.9c.72,0,1.35.05,1.89.05,1,0,1.53-.53,1.67-1.6s.22-4.14.25-9.48h-5.31a15,15,0,0,1-1.82,3.15l-.57-.76a16,16,0,0,0,2.64-6.62l1,.1a23,23,0,0,1-.83,3.15ZM621.32,189a31.9,31.9,0,0,1,3.14,4l-.78.56a28.39,28.39,0,0,0-3.15-4Z"/><path class="cls-1" d="M638,184.33a4.1,4.1,0,0,1,1.44,3h-1.1a3.56,3.56,0,0,0-1.13-2.29,3.89,3.89,0,0,0-2.59-.77,4.76,4.76,0,0,0-2.45.54,2,2,0,0,0-1,1.82,1.92,1.92,0,0,0,1.21,1.71,19.89,19.89,0,0,0,2.46.83,15.3,15.3,0,0,1,3.32,1.22,3,3,0,0,1,1.6,2.7,3.05,3.05,0,0,1-1.39,2.63,6,6,0,0,1-3.51.92,5.51,5.51,0,0,1-3.49-1,4.62,4.62,0,0,1-1.62-3.49h1.08a3.88,3.88,0,0,0,1.26,2.7,4.35,4.35,0,0,0,2.75.79,5.13,5.13,0,0,0,2.76-.67,2.09,2.09,0,0,0,1-1.82,2.28,2.28,0,0,0-1.31-2,14.69,14.69,0,0,0-2.83-1,16,16,0,0,1-3-1,2.65,2.65,0,0,1-1.48-2.42,2.86,2.86,0,0,1,1.39-2.55,5.63,5.63,0,0,1,3.2-.83A5.06,5.06,0,0,1,638,184.33Z"/><path class="cls-1" d="M641.65,183.55h9v1h-7.92v4.74h7.49v1h-7.49v5.18H651v1h-9.32Z"/><path class="cls-1" d="M652.07,183.55H662.6v1h-4.72V196.4h-1.1V184.52h-4.71Z"/><path class="cls-1" d="M671.65,190.9H664V190h15.86v.89H672.6v2.34h5.33v.9H672.6v2.73a32.2,32.2,0,0,0,3.3.15c1.18,0,2.46,0,3.85-.08l-.27,1-3.51,0q-4.44,0-6-.72a6,6,0,0,1-2.58-2.57,10.39,10.39,0,0,1-2.72,3.49l-.64-.78a10.38,10.38,0,0,0,3.42-5.61l.93.16a16.11,16.11,0,0,1-.63,1.93,5.67,5.67,0,0,0,2.67,2.64,9.82,9.82,0,0,0,1.22.31Zm-5-8.48h10.8v6.06h-10.8Zm1,2.64h8.86v-1.8h-8.86Zm8.86,2.56v-1.75h-8.86v1.75Z"/><path class="cls-1" d="M685.12,186.18a13.6,13.6,0,0,1-2.74,4.18l-.65-.8a14.19,14.19,0,0,0,3.55-7.36l1,.2a21.6,21.6,0,0,1-.8,2.84h4.29v-3.36h1v3.36h6.07v.94h-6.07v4.52h5.71v1h-5.71v4.92h7.22v1H682.16v-1h7.6v-4.92h-5.42v-1h5.42v-4.52Z"/><path class="cls-1" d="M708.43,181.7a19.44,19.44,0,0,1-.38,2h7.07v1h-6c.91,2.12,3.21,3.78,6.92,5l-.52.85q-6-2.1-7.37-5.81h-.43a8.81,8.81,0,0,1-1.62,2.79,3.56,3.56,0,0,1-.29.3,26.32,26.32,0,0,1,2.74,2.27l-.67.68a29.33,29.33,0,0,0-2.73-2.37,14.89,14.89,0,0,1-5.08,2.19l-.39-.91a11.62,11.62,0,0,0,5.63-2.79,7.59,7.59,0,0,0,1.37-2.16h-6.16v-1H707a13.28,13.28,0,0,0,.43-2.14Zm-5.82,10.73a17.35,17.35,0,0,1-1.84,4.82l-.84-.52a14.91,14.91,0,0,0,1.73-4.52Zm3.37,5.34c-1.12,0-1.68-.53-1.68-1.58v-4h1V196c0,.55.34.83,1,.83h3.91a1.1,1.1,0,0,0,.9-.31,5.19,5.19,0,0,0,.49-2.46l.91.3a5.49,5.49,0,0,1-.7,3,1.91,1.91,0,0,1-1.4.45Zm2.19-6.19a19.09,19.09,0,0,1,1.66,3.08l-.9.41a20.29,20.29,0,0,0-1.64-3.2Zm5.35.36a28.06,28.06,0,0,1,2.3,4.36l-.9.41a26.46,26.46,0,0,0-2.36-4.46Z"/><path class="cls-1" d="M724.05,185v12.09h-.94V196h-3.63v1.61h-.94V185h1.62a16.78,16.78,0,0,0,.81-3.23l1,.13a15.68,15.68,0,0,1-.86,3.1Zm-4.57,4.95h3.63v-4h-3.63Zm0,5.14h3.63v-4.26h-3.63ZM733.37,185c0,5.78-.08,9.37-.25,10.79a2.23,2.23,0,0,1-2.5,2.16l-1.77,0-.23-.9c.72,0,1.35.05,1.89.05,1,0,1.53-.53,1.67-1.6s.22-4.14.26-9.48h-5.31a15.47,15.47,0,0,1-1.82,3.15l-.58-.76a16,16,0,0,0,2.65-6.62l1,.1a23.11,23.11,0,0,1-.82,3.15ZM727.11,189a31.68,31.68,0,0,1,3.13,4l-.77.56a28.39,28.39,0,0,0-3.15-4Z"/><path class="cls-1" d="M738.11,187.44a24,24,0,0,1-2.14,2.75l-.31-1a20.22,20.22,0,0,0,4-7.38l.9.41a20.94,20.94,0,0,1-1.46,3.55v12.4h-1Zm8.22-5.63a16.25,16.25,0,0,0,5.91,6.49l-.54.83a16.5,16.5,0,0,1-5.8-6.35,17.76,17.76,0,0,1-5.56,6.57l-.54-.83a17.57,17.57,0,0,0,5.69-6.71Zm-3.16,6.26h1v2.74q-.06,5-2.68,7.38l-.74-.65c1.61-1.39,2.43-3.64,2.47-6.73Zm4.71,0h1v10h-1Z"/><path class="cls-1" d="M756.29,187.24a20.68,20.68,0,0,1-2.22,3l-.32-1a21,21,0,0,0,3.92-7.56l.88.41a23.92,23.92,0,0,1-1.29,3.31V198.2h-1Zm7.5-5.47h1v1.76h4.76v.9h-4.76v1.71h3.51v10.55h1.82v.92H758.25v-.92h1.91V186.14h3.63v-1.71H759v-.9h4.77Zm-2.7,7.15h6.25V187h-6.25Zm0,2.59h6.25v-1.77h-6.25Zm0,2.59h6.25v-1.76h-6.25Zm0,2.59h6.25v-1.78h-6.25Z"/><path class="cls-1" d="M772.29,186.5a20.4,20.4,0,0,1,2.64,2.61l-.66.65a19.59,19.59,0,0,0-2.63-2.63Zm.25-4.35a19.73,19.73,0,0,1,2.77,2.5l-.61.63a18,18,0,0,0-2.81-2.52Zm2.52,9.95a59.12,59.12,0,0,1-2.3,5.91l-.87-.36a54.3,54.3,0,0,0,2.33-5.87Zm1.08-8.73h1.75a9.66,9.66,0,0,0,.48-1.67l.94.12a8.4,8.4,0,0,1-.47,1.55h2.47v5.47h-2.65l.61,1.73h2.61v.83h-3.7c0,.14-.09.68-.24,1.62h3.33c0,2.29-.14,3.69-.43,4.19a1.74,1.74,0,0,1-1.5.76h-1.15l-.21-.83h1.11a1,1,0,0,0,1-.61,12.88,12.88,0,0,0,.24-2.68h-2.56c-.14.57-.29,1.08-.43,1.51a8.22,8.22,0,0,1-1.89,2.79l-.6-.76A7.58,7.58,0,0,0,776.5,195a16.35,16.35,0,0,0,.76-3.56h-1.87v-.83h3l-.59-1.73h-1.62Zm.87,2.4h3.43v-1.64H777Zm3.43,2.3v-1.55H777v1.55Zm2.2.29a11.81,11.81,0,0,1-.83,1.33l-.57-.7a17.42,17.42,0,0,0,2.41-7.26l.91.18a25.72,25.72,0,0,1-.68,3.21H788v.93h-1.12a20.18,20.18,0,0,1-1.47,7.65,10.38,10.38,0,0,0,2.84,3.46l-.56.83a10.27,10.27,0,0,1-2.75-3.33,11.5,11.5,0,0,1-2.83,3.44l-.52-.83a10.74,10.74,0,0,0,2.84-3.6A24.49,24.49,0,0,1,782.64,188.36Zm1-2.31-.41,1.12a26.21,26.21,0,0,0,1.66,5.45,20.09,20.09,0,0,0,1.13-6.57Z"/><path class="cls-1" d="M793.78,186.79h-2v2.54a24.44,24.44,0,0,1-1.43,8.82l-.69-.61a24.39,24.39,0,0,0,1.19-8.21v-6.75h7.85v.9h-6.92v2.41h6.47v.9h-3.55v2.92H798a45.55,45.55,0,0,1-.31,6.53,1.82,1.82,0,0,1-1.85,1.69c-.31,0-.68,0-1.1-.05l-.27-.83,1.28,0c.64,0,1-.5,1.17-1.37s.15-2.54.18-5.13h-2.49q-.25,5-2.15,7.49l-.69-.58q2-2.55,2-8.1Zm7.35-5h.93v3.87h3.28A97.48,97.48,0,0,1,805,196a2.21,2.21,0,0,1-2.48,2c-.24,0-.65,0-1.23-.05l-.21-.83,1.29,0a1.54,1.54,0,0,0,1.71-1.3,82.1,82.1,0,0,0,.33-9.16H802c-.11,5.2-1.15,9-3.15,11.52l-.68-.61q2.73-3.43,2.9-10.91H799v-.94h2.16Z"/><path class="cls-1" d="M811,181.79c-.18,1.41-.35,2.58-.5,3.51h2.92v.57a21.54,21.54,0,0,1-1.61,7.46c.84.79,1.5,1.45,2,2l-.65.76a21.84,21.84,0,0,0-1.74-1.85,13.34,13.34,0,0,1-3,3.94l-.63-.76a12.73,12.73,0,0,0,3-3.83c-.94-.87-1.76-1.59-2.45-2.18.43-1.66.8-3.38,1.11-5.18H807.8v-.92h1.7c.22-1.49.39-2.7.5-3.62Zm1.5,4.43H810.3a40.81,40.81,0,0,1-1.08,4.91c.69.55,1.3,1.07,1.84,1.57A20.17,20.17,0,0,0,812.45,186.22Zm4.08-2.72h4.59v-1.71H822v1.71h1.62v.9H822v5.51H819.3v1.81H824v.9h-3.69a10.53,10.53,0,0,0,3.91,3.93l-.67.81a11.68,11.68,0,0,1-3.94-4.74h-.35v5.46h-1v-5.46h-.25a10.41,10.41,0,0,1-4.21,4.76l-.54-.87a9.54,9.54,0,0,0,4-3.89h-3.72v-.9h4.71v-1.81h-2.75V184.4h-1.67v-.9h1.67v-1.71h.95Zm0,2.81h4.59V184.4h-4.59Zm4.59,2.75v-1.89h-4.59v1.89Z"/><path class="cls-1" d="M834.26,181.81a25.46,25.46,0,0,0,7.74,6.42l-.48.85a24.42,24.42,0,0,1-7.6-6.36,25.47,25.47,0,0,1-7.58,6.52l-.46-.86a26.84,26.84,0,0,0,7.7-6.57Zm-3.9,6h1v3.23q-.08,4.83-3.24,7.11l-.74-.67q3-2,3-6.44Zm6.08,0h1V198h-1Z"/><path class="cls-1" d="M847.22,196.1a3.31,3.31,0,0,1-1.8,3.11l-.37-.63a2.73,2.73,0,0,0,1.36-2.19h-.27a1,1,0,0,1-.66-.23.84.84,0,0,1-.26-.65.78.78,0,0,1,.26-.66.84.84,0,0,1,.66-.26Q847.22,194.6,847.22,196.1Z"/><path class="cls-1" d="M869,193a22.43,22.43,0,0,1,2.09,2.43,10.9,10.9,0,0,0,5-4h-5.56a21,21,0,0,1-5.74,1.69l-.57-.86q5.84-.6,8.73-3.64l.82.45a10.18,10.18,0,0,1-1.69,1.46h5.26v.77q-3.81,6.44-14.24,6.64l-.4-1a23.55,23.55,0,0,0,7.47-1.15,19.32,19.32,0,0,0-2-2.36Zm1.86-10.77a9.59,9.59,0,0,1-1.26,1.23H875v.79q-2.91,5.19-10.81,5.81l-.42-.9a17.93,17.93,0,0,0,4.59-.81,12.81,12.81,0,0,0-1.89-2l.85-.42a19.2,19.2,0,0,1,2,2.09,9.68,9.68,0,0,0,4.59-3.67h-5.56a16,16,0,0,1-5,1.89l-.57-.87q4.86-1,7.23-3.6Z"/><path class="cls-1" d="M3,214.76v1.62A20.21,20.21,0,0,1,.74,226L0,225.41a18.68,18.68,0,0,0,2-9v-5.82H14.85v4.2Zm10.91-3.28H3v2.36H13.88ZM3.76,219.67h12.1v.9H8.91a19.73,19.73,0,0,1-3.13,4.12c2.61-.18,5.16-.45,7.63-.83-.54-.66-1.13-1.33-1.76-2l.73-.45a34.14,34.14,0,0,1,3.48,4.19l-.78.56c-.33-.5-.68-1-1-1.47q-4.6.63-9.47.93l-.23-.86.2-.07q1.26-.76,3.34-4.09H3.76ZM5,216.74h9.71v.86H5Z"/><path class="cls-1" d="M18.54,226l-.22-.92q.7.06,1.35.06t.78-.72v-4.86c-.64.27-1.38.56-2.23.84l-.26-1a26.06,26.06,0,0,0,2.49-.84v-4.43H18.18v-1h2.27v-3.38h1v3.38h1.76v1H21.42v4a16.85,16.85,0,0,0,2-1.08v1c-.69.4-1.37.75-2,1.07v5.54c0,.89-.47,1.33-1.4,1.33Zm10.37-16.36c.23.54.47,1.21.72,2h4v3h-.9v-2.1h-7.6v2.1h-.93v-3h4.51a13.11,13.11,0,0,0-.77-1.82Zm-.83,4.18a9,9,0,0,1-2.93,3.58l-.72-.63a7.62,7.62,0,0,0,2.8-3.28Zm-3.51,4.53H32.9v.85c-3.62,1.74-5.94,3.13-6.94,4.17a1.6,1.6,0,0,0-.51,1c0,.46.34.7,1,.7h4.91a1.91,1.91,0,0,0,1.3-.36,5.06,5.06,0,0,0,.61-2.32l.92.28a5.31,5.31,0,0,1-.85,2.74,3,3,0,0,1-1.94.54h-5c-1.34,0-2-.5-2-1.49a2.45,2.45,0,0,1,.86-1.7,22.42,22.42,0,0,1,5.81-3.47H24.57Zm5.62-5a28,28,0,0,1,2.68,3.4l-.76.54a24.62,24.62,0,0,0-2.66-3.47Z"/><path class="cls-1" d="M36.5,211.8v-.93h5.93v.93h-2.9a24.11,24.11,0,0,1-1.12,4.38h3.3v8H38.66v1.39h-.93v-7.8a18.44,18.44,0,0,1-1.39,2.38l-.52-.83a18.77,18.77,0,0,0,2.77-7.51Zm2.16,11.47h2.15V217.1H38.66Zm8.93-13.57a24.55,24.55,0,0,1,1,2.66h3.53v1H44.69v4a16.65,16.65,0,0,1-2.35,9l-.76-.68q2-2.94,2.14-8.28v-5h3.93a19.48,19.48,0,0,0-1-2.48Z"/><path class="cls-1" d="M54.23,213.37H57v-3.62h1v3.62h2.34v.95H58v1.05a33.7,33.7,0,0,1,2.61,3l-.56.87a36.2,36.2,0,0,0-2-3v9.81H57v-9.72a19.78,19.78,0,0,1-2.7,5.33l-.43-1a16.56,16.56,0,0,0,3.1-6.34H54.23Zm5.42,12.11a11.74,11.74,0,0,0,1.68-3.74,22.3,22.3,0,0,0,.36-4.36V210.6h5.54v13.57c0,.42.17.63.52.63h.63a1.25,1.25,0,0,0,.61-.13.87.87,0,0,0,.36-.61,23,23,0,0,0,.11-3l.92.27a25,25,0,0,1-.13,2.86,1.85,1.85,0,0,1-.55,1.32,2.49,2.49,0,0,1-1.25.25h-.7a1.33,1.33,0,0,1-1.51-1.5V211.53H62.66v5.85a21.11,21.11,0,0,1-.47,4.86,11.88,11.88,0,0,1-1.75,3.95Z"/><path class="cls-1" d="M73.84,213a7.25,7.25,0,0,1-1.21,1.87l-.79-.56a7.39,7.39,0,0,0,1.78-4.12l.94.14a11.75,11.75,0,0,1-.4,1.75h2.47v-2.32h1v2.32h3.49V213H77.6v2.63h4v.91h-4v2.18h3.53v4.7a1.28,1.28,0,0,1-1.44,1.46h-1l-.26-.94.94.06q.81,0,.81-.78v-3.6H77.6v6.55h-1v-6.55H74v5.4H73v-6.3h3.6v-2.18H72.16v-.91h4.47V213Zm9-1.6h1v11.19h-1ZM83.38,226l-.22-.92c.86,0,1.7.05,2.5.05a.82.82,0,0,0,.92-.93V209.81h1v14.63A1.37,1.37,0,0,1,86,226Z"/><path class="cls-1" d="M96.3,211a28.76,28.76,0,0,1,2.57,3.89l-.79.56c-.35-.65-.57-1.06-.68-1.23a69,69,0,0,1-7,.69l-.27-.85a1.45,1.45,0,0,0,.45-.25,16,16,0,0,0,2.93-4l.94.27a13.81,13.81,0,0,1-2.94,4c1.59-.07,3.4-.24,5.44-.51q-.78-1.17-1.41-2Zm-4.16,11.7v3.48h-1v-10H97.7v8.48a1.2,1.2,0,0,1-1.36,1.35H94.81l-.24-.92,1.46.06q.72,0,.72-.69v-1.8Zm4.61-3.65v-2H92.14v2Zm-4.61.86v2h4.61v-2Zm8.93-2.48c-1,0-1.51-.53-1.51-1.59v-6.13h1v2.57a45.13,45.13,0,0,0,5.08-1l.32.89a53.88,53.88,0,0,1-5.4,1v2.47a.77.77,0,0,0,.85.88h2.52a1.15,1.15,0,0,0,.84-.27,4.58,4.58,0,0,0,.42-2.14l.92.3a5,5,0,0,1-.65,2.61,2,2,0,0,1-1.35.4Zm-.5,6.78c0,.53.25.8.77.8h2.48a1.12,1.12,0,0,0,.87-.29,4.79,4.79,0,0,0,.43-2.2l.9.29a5,5,0,0,1-.65,2.66,2,2,0,0,1-1.35.4h-3a1.27,1.27,0,0,1-1.44-1.44v-6.17h1v2.37a27.28,27.28,0,0,0,5-1l.32.9a27.85,27.85,0,0,1-5.34,1Z"/><path class="cls-1" d="M111.24,209.84a17,17,0,0,1-.47,1.91h4.5q0,9.38-.25,11.7c-.17,1.68-1,2.52-2.47,2.52l-1.36-.05-.24-.85,1.51,0c1,0,1.53-.66,1.68-2,.12-1.12.2-4.62.23-10.47h-3.92a13.27,13.27,0,0,1-2,3.6l-.55-.72a14,14,0,0,0,2.43-5.82Zm-2.3,5.87h4v6h-4Zm3.15,5.09v-4.23h-2.31v4.23Zm9.79-3.83a7.49,7.49,0,0,1-1,1.57h3.29v.79q-1.35,4.84-7.92,6.89l-.47-.86a15.58,15.58,0,0,0,4.38-2,19.08,19.08,0,0,0-1.82-1.8l.68-.51a16.93,16.93,0,0,1,1.8,1.8,7.65,7.65,0,0,0,2.4-3.51h-3.12a10.79,10.79,0,0,1-3.67,2.11l-.54-.79a8.38,8.38,0,0,0,5.15-4.07Zm-1.41-7.09a7.08,7.08,0,0,1-.81,1.51h3.62v.79q-1.31,4.09-6.8,5.85l-.52-.75a13.62,13.62,0,0,0,3.49-1.57,7.52,7.52,0,0,0-1.57-1.42l.67-.51a8,8,0,0,1,1.53,1.46,7.8,7.8,0,0,0,2.28-3H119a10.89,10.89,0,0,1-2.45,2l-.58-.73a8.07,8.07,0,0,0,3.57-3.82Z"/><path class="cls-1" d="M130.88,210.09a23.54,23.54,0,0,1-1.66,3.84V226.2h-1V215.57A20.15,20.15,0,0,1,126,218.3l-.31-1a20.63,20.63,0,0,0,4.23-7.62Zm1.26.51h8.35v5.45H136.8v2.23h5.27v1h-4.21a16.18,16.18,0,0,0,4.52,5l-.61.82a18,18,0,0,1-4.68-5.86h-.29v6.91h-1v-6.91h-.31a15.92,15.92,0,0,1-4.77,5.9l-.54-.86a14.57,14.57,0,0,0,4.52-5h-4v-1h5.13v-2.23h-3.69Zm7.38,4.5v-3.57h-6.41v3.57Z"/><path class="cls-1" d="M144,215.35h3.66v8.1c.72-.6,1.42-1.24,2.1-1.93l.26,1a23.59,23.59,0,0,1-3.23,2.7l-.37-.9a.88.88,0,0,0,.32-.61V216.3H144Zm2-5.4a20.9,20.9,0,0,1,3,2.84l-.66.69a20.44,20.44,0,0,0-3.06-2.88Zm9.27,1.71h-5.16v-.95h10v.95h-3.85V217h3.62V218h-3.62v6.62h4.23v1H149.53v-1h1.9v-9.73h1v9.73h2.84Z"/><path class="cls-1" d="M162.85,212.61h2.93v-1.17h-3.65v-.79h3.65v-.92h.9v.92h3.46v.79h-3.46v1.17h2.95v3h-2.95V216a32.9,32.9,0,0,1,3.29,1.69l-.48.74a32.37,32.37,0,0,0-2.81-1.78v2h-.9v-2.24a16.5,16.5,0,0,1-3.44,2.36l-.43-.77a14.08,14.08,0,0,0,3.87-2.36v0h-2.93Zm6.67,7.65h-6.46v-.86h14.19v.86H170.5v1.84h5.74V223H170.5v1.84h7.59v.9H162.18v-.9h3v-3.55h.94v3.55h3.43Zm-3.74-5.38v-1.55h-2.12v1.55Zm3,0v-1.55h-2.12v1.55Zm2.7-.93a10,10,0,0,1-.91,1.18l-.58-.73a10.46,10.46,0,0,0,2.32-4.74l.9.11a15.73,15.73,0,0,1-.43,1.53H178v.86h-1.23a8.12,8.12,0,0,1-1.62,4.07l-.18.18a11.83,11.83,0,0,0,3.23,1.5l-.53.79a11.87,11.87,0,0,1-3.38-1.68,11.22,11.22,0,0,1-3.47,1.59l-.35-.81a10.33,10.33,0,0,0,3.1-1.35A9.33,9.33,0,0,1,171.5,214Zm1-1.79c-.14.29-.29.61-.47,1a8.6,8.6,0,0,0,2.19,2.75l.2-.2a6.7,6.7,0,0,0,1.44-3.51Z"/><path class="cls-1" d="M188.59,209.75q2.26,3.8,7.84,6.7l-.57.86a19.3,19.3,0,0,1-7.72-6.62,21.21,21.21,0,0,1-7.73,6.73l-.57-.88a20.17,20.17,0,0,0,7.85-6.79Zm-.94,5.28h1v11.12h-1Z"/><path class="cls-1" d="M201.33,214.18a13.42,13.42,0,0,1-2.74,4.18l-.64-.8a14.18,14.18,0,0,0,3.54-7.36l1,.2a21.58,21.58,0,0,1-.79,2.84H206v-3.36h1v3.36H213v.94h-6.06v4.52h5.7v1h-5.7v4.92h7.22v1H198.38v-1H206v-4.92h-5.41v-1H206v-4.52Z"/><path class="cls-1" d="M224.64,209.7a17.14,17.14,0,0,1-.38,2h7.08v1h-6c.9,2.12,3.2,3.78,6.91,5l-.52.85q-6-2.1-7.36-5.81H224a9.2,9.2,0,0,1-1.62,2.79l-.29.3a25.33,25.33,0,0,1,2.73,2.27l-.66.68a29.38,29.38,0,0,0-2.74-2.37,14.74,14.74,0,0,1-5.07,2.19l-.4-.91a11.62,11.62,0,0,0,5.63-2.79,7.38,7.38,0,0,0,1.37-2.16h-6.15v-1h6.48a14.46,14.46,0,0,0,.43-2.14Zm-5.81,10.73a18,18,0,0,1-1.84,4.82l-.85-.52a14.66,14.66,0,0,0,1.73-4.52Zm3.36,5.34c-1.11,0-1.67-.53-1.67-1.58v-4h1V224c0,.55.34.83,1,.83h3.9a1.07,1.07,0,0,0,.9-.31,4.94,4.94,0,0,0,.49-2.46l.92.3a5.59,5.59,0,0,1-.7,3,1.93,1.93,0,0,1-1.41.45Zm2.2-6.19a19.88,19.88,0,0,1,1.65,3.08l-.9.41a21.18,21.18,0,0,0-1.63-3.2Zm5.34.36A28.13,28.13,0,0,1,232,224.3l-.9.41a27.21,27.21,0,0,0-2.36-4.46Z"/><path class="cls-1" d="M240.26,213v12.09h-.93V224h-3.64v1.61h-.93V213h1.62a16.78,16.78,0,0,0,.81-3.23l1,.13a15.69,15.69,0,0,1-.87,3.1Zm-4.57,4.95h3.64v-4h-3.64Zm0,5.14h3.64v-4.26h-3.64ZM249.59,213c0,5.78-.09,9.37-.25,10.79a2.24,2.24,0,0,1-2.51,2.16l-1.76,0-.23-.9c.72,0,1.35.05,1.89.05,1,0,1.53-.53,1.67-1.6s.22-4.14.25-9.48h-5.31a15,15,0,0,1-1.82,3.15l-.57-.76a16,16,0,0,0,2.64-6.62l1,.1a23,23,0,0,1-.83,3.15ZM243.32,217a31.9,31.9,0,0,1,3.14,4l-.78.56a28.39,28.39,0,0,0-3.15-4Z"/><path class="cls-1" d="M259.88,209.57a17.76,17.76,0,0,1,.81,2.18h5.24v7.11H259.6a11.42,11.42,0,0,0,2.53,3.24,11.49,11.49,0,0,0,3.89-2.47l.7.69a12.15,12.15,0,0,1-3.81,2.39,14.3,14.3,0,0,0,5.43,2.4l-.46.9a13.1,13.1,0,0,1-9.26-7.15h-3.43v6a39.87,39.87,0,0,0,4.86-1.42l.23.91a45.84,45.84,0,0,1-6.17,1.68l-.22-.85a.51.51,0,0,0,.32-.48V211.75h5.51a17.69,17.69,0,0,0-.88-2Zm5.08,5.28v-2.18h-9.77v2.18Zm-9.77.88V218H265v-2.23Z"/><path class="cls-1" d="M271.39,213.24a25.52,25.52,0,0,1-.65,5.13l-.81-.21a24.54,24.54,0,0,0,.66-5Zm1.2-3.45h1V226.1h-1Zm2.22,3.06a26.07,26.07,0,0,1,1.13,3.17l-.79.19a23.58,23.58,0,0,0-1.08-3.13Zm2.88,1.38a15,15,0,0,1-1.48,3.77l-.74-.65a14.71,14.71,0,0,0,1.75-6.54l.9.11a19.56,19.56,0,0,1-.24,2.36h2.92v-3.47h1v3.47h4v.95h-4v4.63h3.73v.95h-3.73v4.83h4.52v1H275.53v-1h5.27v-4.83h-4.23v-.95h4.23v-4.63Z"/><path class="cls-1" d="M293.06,214.92a16.06,16.06,0,0,1-1.93,2.9v8.26h-.92v-7.29a19.34,19.34,0,0,1-2,1.65l-.29-.93a13.26,13.26,0,0,0,4.28-5Zm-.33-4.57a13.42,13.42,0,0,1-4.32,5.23l-.28-1a12.41,12.41,0,0,0,3.72-4.7Zm10.86.46a42.79,42.79,0,0,1-8.7,1v1.79h4.52l.09-1.53,1,.12-.1,1.41h3.72v.86h-3.8l-.23,1.93h3.2v9.79h-.91V225H297.2v1.13h-.9v-9.75h2.82l.22-1.93h-4.45v3.6a16.58,16.58,0,0,1-1.92,8.08l-.69-.7a15.35,15.35,0,0,0,1.7-7.38v-7a45.23,45.23,0,0,0,9.16-1ZM297.2,219h5.15v-1.78H297.2Zm0,2.54h5.15V219.8H297.2Zm0,2.59h5.15v-1.81H297.2Z"/><path class="cls-1" d="M306.32,216.61h2.2v-4.52h-2.45v-.93h5.83v.93h-2.41v4.52h2.16v.94h-2.16V222c.89-.29,1.75-.59,2.59-.92v1a43.91,43.91,0,0,1-5.86,1.73l-.24-.94c.95-.18,1.8-.37,2.54-.56v-4.71h-2.2Zm6.38-5.94H322v1h-3.6c-.19.66-.41,1.32-.65,2v12.59h-1V215.78a19.56,19.56,0,0,1-4.08,5.28l-.58-.78a18.33,18.33,0,0,0,5.31-8.64H312.7Zm6.24,4.84a39.84,39.84,0,0,1,3.4,4.9l-.79.57a39.7,39.7,0,0,0-3.36-5Z"/><path class="cls-1" d="M329.22,222.57a2,2,0,0,1,.65,1.55,2.1,2.1,0,0,1-.65,1.54,2.35,2.35,0,0,1-1.58.62,2.27,2.27,0,0,1-1.59-.62,2.07,2.07,0,0,1-.65-1.54,2,2,0,0,1,.65-1.55,2.18,2.18,0,0,1,1.59-.61A2.24,2.24,0,0,1,329.22,222.57Zm-2.61.56a1.24,1.24,0,0,0-.43,1,1.33,1.33,0,0,0,.43,1,1.43,1.43,0,0,0,1,.41,1.49,1.49,0,0,0,1-.41,1.33,1.33,0,0,0,.43-1,1.27,1.27,0,0,0-.43-1,1.37,1.37,0,0,0-1-.42A1.35,1.35,0,0,0,326.61,223.13Z"/></svg>