<svg id="图层_1" data-name="图层 1" xmlns="http://www.w3.org/2000/svg" viewBox="0 0 967.24 252"><defs><style>.cls-1{fill:#fff;}</style></defs><title>币网站中英文</title><path class="cls-1" d="M6.56,16.76a23,23,0,0,1-2.37,3L1.54,18.1a17.07,17.07,0,0,0,4.19-6.17l2.94.64L8,14.1h8v2.66H11.49A17,17,0,0,1,13,19L10.3,20a27.81,27.81,0,0,0-2.08-3.2Zm8.19,6.3H4.22V20.28H28.16v7.93H17.7v2.63H29.31c0,3.88-.27,6.36-.8,7.42s-1.76,1.64-3.68,1.67c-.94,0-2.26,0-4-.07L20.13,37c2,.09,3.41.13,4.22.13s1.44-.3,1.63-.9a13.75,13.75,0,0,0,.23-2.78H17.7v8.19H14.75V34q-3.36,4.1-11.29,7.07l-1.7-2.75q7.07-2.22,9.92-4.9H3.3l1.53-8h9.92Zm0,5.15H7.52l-.64,2.63h7.87Zm5.41-11.58A22.61,22.61,0,0,1,18,19.77l-2.63-1.64A18.2,18.2,0,0,0,19,11.93l2.91.64c-.06.14-.23.61-.51,1.4h9v2.66H25.28A22.66,22.66,0,0,1,26.88,19l-2.69,1a21.49,21.49,0,0,0-2.11-3.33ZM17.7,25.46h7.36v-2.4H17.7Z"/><path class="cls-1" d="M33.5,25h29v3h-29Z"/><path class="cls-1" d="M81.34,12.05q4,6.47,13.64,11.36L93.15,26.2Q84.32,21.66,80,14.9A35.3,35.3,0,0,1,66.85,26.23L65,23.48A35.17,35.17,0,0,0,78.66,12.05Zm-2.88,9.54h3.08v20H78.46Z"/><path class="cls-1" d="M114.27,13.3c-.6.64-1,1.09-1.28,1.34h8.55V17q-5.22,9.25-19.24,10.4L101,24.66a36.45,36.45,0,0,0,7.2-1.09,33.52,33.52,0,0,0-2.81-3L108,19.35q1.66,1.63,3,3.26a16.38,16.38,0,0,0,7-5.28h-8.61a30,30,0,0,1-8.77,3.3l-1.79-2.78q8.5-1.55,12.67-6ZM111,31.89a40.93,40.93,0,0,1,3.26,3.68,19.21,19.21,0,0,0,7.52-5.69h-8.76a43.31,43.31,0,0,1-9.8,3l-1.82-2.72q10.53-1,15.39-6.18l2.59,1.41a20.5,20.5,0,0,1-1.85,1.7h8.16v2.36q-6.89,11.23-25.57,11.72l-1.22-2.92a41.94,41.94,0,0,0,12.48-1.63,35.2,35.2,0,0,0-3.07-3.49Z"/><path class="cls-1" d="M135.52,21.69V24a36.53,36.53,0,0,1-3.94,17.38l-2.2-2q3.06-6,3.13-15.39V13.14h24v8.55Zm18-5.76h-18v3h18ZM136,29.3h21.89v2.75H145.86a37.44,37.44,0,0,1-4.64,6.05q5.68-.45,11-1.28c-.62-.79-1.37-1.68-2.27-2.69l2.24-1.37a58.09,58.09,0,0,1,5.89,7.07l-2.43,1.7c-.52-.82-1.05-1.59-1.6-2.34q-7.78,1-16.42,1.6L137,38.26a2.88,2.88,0,0,0,.61-.29c1.3-.74,3-2.72,5-5.92H136Zm2.24-5.18h17.57v2.62H138.27Z"/><path class="cls-1" d="M162.53,41.24l-.67-2.91a14.41,14.41,0,0,0,2.24.19,1,1,0,0,0,1.15-1.19V30.49c-1,.4-2.06.82-3.3,1.24l-.77-3.07a31.73,31.73,0,0,0,4.07-1.28V20.6h-3.59V17.69h3.59v-5.6h3v5.6h2.65V20.6h-2.65v5.5c.49-.25,1.5-.81,3-1.66v3.1c-.86.47-1.87,1-3,1.6v9q0,3.13-3.11,3.14Zm19.1-29.41c.45,1.28.79,2.31,1,3.1h7v5.95h-2.82V17.69h-12v3.19H172V14.93h7.65c-.43-1-.82-1.89-1.18-2.59Zm-8.51,15h15.1v2.57q-9.09,4.22-11.58,6.65a2.38,2.38,0,0,0-.86,1.57c0,.49.4.76,1.21.8h8.23a2.37,2.37,0,0,0,1.72-.51c.3-.34.57-1.54.8-3.59l2.88.93c-.4,2.71-.94,4.34-1.6,4.9a6.27,6.27,0,0,1-3.68,1h-8.51q-4.19,0-4.29-3.23a4.86,4.86,0,0,1,1.76-3.33,32,32,0,0,1,8.42-4.93h-9.6Zm6.82-7.1a15.63,15.63,0,0,1-5,6.24L172.77,24a12.54,12.54,0,0,0,4.64-5.31Zm3.93-1.25a44.65,44.65,0,0,1,4.51,5.8l-2.33,1.66a47.85,47.85,0,0,0-4.42-6Z"/><path class="cls-1" d="M194.27,16.53V13.59h10.85v2.94h-4.86a39.08,39.08,0,0,1-1.64,6.56h5.6v15a28.27,28.27,0,0,0,2.47-12.13V16.28h6.65a32.71,32.71,0,0,0-1.47-3.78L215,12c.47,1.37.91,2.8,1.34,4.29h6.05v2.94H209.73v6.72q-.19,9.85-4.16,15.91l-2.31-2.08c.09-.13.36-.59.8-1.38h-5.12v2.14H196.1V28.69q-.61,1.1-1.44,2.34L193,28.41a32.37,32.37,0,0,0,4.29-11.88Zm4.67,19.08h2.53v-9.7h-2.53Z"/><path class="cls-1" d="M225.76,18.07h4.51v-6h3v6H237V21h-3.71v1.35a61.7,61.7,0,0,1,4.38,4.7l-1.79,2.69c-1-1.86-1.91-3.32-2.59-4.39v16.1h-3v-15a36.62,36.62,0,0,1-3.87,7.71l-1.31-3.29a28.14,28.14,0,0,0,5-9.86h-4.35Zm9.38,21.5a19.27,19.27,0,0,0,2.78-6.17,38.77,38.77,0,0,0,.64-8.07V13.14h11V37.4c0,.38.14.57.44.57h1a1,1,0,0,0,.67-.19,1.33,1.33,0,0,0,.32-.64,38.72,38.72,0,0,0,.22-5.73l2.79.87a44.42,44.42,0,0,1-.26,5.44,4.12,4.12,0,0,1-.93,2.49,4,4,0,0,1-2.43.61H250c-2.32,0-3.49-1-3.49-3.1V16h-4.89v9.31a40.86,40.86,0,0,1-.87,9.12,22.16,22.16,0,0,1-3.07,7.36Z"/><path class="cls-1" d="M261.28,18.71a11,11,0,0,1-1.86,2.94L257,19.89A12.27,12.27,0,0,0,259.87,13l2.85.45c-.19,1.07-.36,1.89-.51,2.47h2.91V12.15h3v3.78h5.73v2.78h-5.73v3.42h6.65V25h-6.65v2.69h6.17v8.54c0,2.12-1.08,3.17-3.26,3.17h-1.57l-.77-2.85,1.41.13c.88,0,1.31-.36,1.31-1.09V30.49h-3.29v11.1h-3V30.49h-3.3v9.12h-2.94V27.67h6.24V25h-7.49V22.13h7.49V18.71Zm15-3.68h2.94V34.61h-2.94ZM277.7,41.3,277,38.39c1.54.13,3,.19,4.39.19.83,0,1.25-.44,1.25-1.31V12.15h3V38c0,2.17-1.06,3.26-3.2,3.26Z"/><path class="cls-1" d="M301.22,17.33V39.61H298.3V37.94h-5.05v2.59h-2.91V17.33h3A30.75,30.75,0,0,0,294.66,12l3,.42a25.09,25.09,0,0,1-1.41,4.92Zm-8,8.77h5.05V20.21h-5.05Zm0,9h5.05V28.82h-5.05Zm24.48-17.76q0,16.58-.48,20.41-.48,3.47-4.58,3.46c-.49,0-1.62-.06-3.39-.16l-.74-2.79c1.88.09,3.1.13,3.65.13a2,2,0,0,0,2.21-2q.25-2.11.35-16.1h-8a30.43,30.43,0,0,1-3.14,5.28l-1.82-2.4A28.39,28.39,0,0,0,306.11,12l3,.38a41.75,41.75,0,0,1-1.28,5ZM307,25a52.3,52.3,0,0,1,4.86,6.88l-2.4,1.7a60.63,60.63,0,0,0-4.93-7Z"/><path class="cls-1" d="M333.7,14.2a36.53,36.53,0,0,1-4.42,6.52,39.55,39.55,0,0,1-6.34,5.51l-1.66-2.69A21.61,21.61,0,0,0,327,18.8a32.13,32.13,0,0,0,4.16-6.14Zm-7.78,13.21V24.5h19.87a96.29,96.29,0,0,1-.64,10,11.24,11.24,0,0,1-1.73,5.24,4.92,4.92,0,0,1-3.77,1.6h-6l-.8-2.91c1.86.07,3.62.1,5.28.1a3.43,3.43,0,0,0,3.52-2.05c.54-1.37.9-4.38,1.09-9.06h-7.9a24.43,24.43,0,0,1-3.11,8.13,21.14,21.14,0,0,1-7.1,6.08l-1.89-2.43a19.11,19.11,0,0,0,6.27-5,19,19,0,0,0,2.82-6.79Zm15.3-15.16a21.34,21.34,0,0,0,9.47,11.36L348.64,26a25.36,25.36,0,0,1-10.05-12.29Z"/><path class="cls-1" d="M368.61,20.57h2.94v3.68h8.83V35.13q0,3.32-3.36,3.32h-2.91l-.73-2.81,2.68.09c.94,0,1.41-.42,1.41-1.28V27.06h-5.92V41.59h-2.94V27.06h-6V38.71h-2.91V26.8a39.79,39.79,0,0,1-4.7,4.13l-1.95-2.56a35.47,35.47,0,0,0,9.05-9.47h-8v-3h9.64a35.93,35.93,0,0,0,1.63-4l3.07.39c-.45,1.36-.91,2.58-1.38,3.65h15.08v3H365.66A42.93,42.93,0,0,1,362,24.25h6.59Z"/><path class="cls-1" d="M386.46,25.14h13.76V28h-5.37v7.39q3.36-.68,6.62-1.53v3q-7.14,1.73-15,2.85l-.7-2.88c2.09-.26,4.13-.54,6.11-.86V28h-5.38ZM386,17.53h15.32c-.08-1.54-.12-3.34-.12-5.41h3.13c0,2.07,0,3.87.13,5.41h5a26.71,26.71,0,0,0-2.75-4.13l2.5-1.19a40.34,40.34,0,0,1,2.84,4.2l-2.27,1.12h4.29v2.94h-9.44a53.4,53.4,0,0,0,2.21,12.32q2,5.34,3.36,5.34.74-.06,1.6-5.15l2.75,1.41q-1.44,7.14-4.16,7.17-4.61-.29-7.49-10.88a67.47,67.47,0,0,1-1.41-10.21H386Z"/><path class="cls-1" d="M438.66,41.4l-.8-2.95,3,.13c.79,0,1.19-.37,1.19-1.12V16.09H422v25.5h-3V13.17h26.12v25q0,3.27-3.2,3.27Zm-7.91-7.2c-.89-1.45-1.74-2.73-2.53-3.84a33.67,33.67,0,0,1-3.84,7.49l-1.95-2.37a35.34,35.34,0,0,0,3.78-8q-1.86-2.57-4.23-5.34l1.86-1.83c.9.94,2,2.25,3.33,3.94q.76-3.21,1.21-6.43l2.79.48a66.06,66.06,0,0,1-1.86,8.8c1.09,1.53,2.24,3.23,3.46,5.08ZM440,35.73q-1.22-2.17-2.75-4.6a34.12,34.12,0,0,1-4.16,7.48l-1.92-2.33a35.41,35.41,0,0,0,4.16-8.1c-1.35-2-2.72-3.87-4.13-5.66l1.89-1.8a49.23,49.23,0,0,1,3.26,4.16,63.7,63.7,0,0,0,1.44-6.94l2.82.48a71.8,71.8,0,0,1-2.21,9.51c1.24,1.89,2.45,3.83,3.65,5.79Z"/><path class="cls-1" d="M457.6,13A50.68,50.68,0,0,1,453,22.39q2.18-.26,3.27-.45L458,18.58l2.63,1a2.25,2.25,0,0,0-.23.45,16.16,16.16,0,0,0,5.31-7.94l2.88.55c-.15.47-.39,1.17-.73,2.11h8.38v2.21a19.66,19.66,0,0,1-4.7,6.69,26.51,26.51,0,0,0,7.58,3.45l-1.69,2.5a24.67,24.67,0,0,1-8.13-4.1,35.78,35.78,0,0,1-8,4.23l-1.86-2.47A33.4,33.4,0,0,0,467,23.48a18,18,0,0,1-2.62-3.33,21.41,21.41,0,0,1-2.53,2.43l-1.7-2.27a76.46,76.46,0,0,1-5.95,10.14,49.57,49.57,0,0,0,6.05-1.79v2.72a48,48,0,0,1-9.6,2.43l-.8-2.72a4.13,4.13,0,0,0,1.34-.86,33,33,0,0,0,3.62-5.57l-4.61.71-.77-2.76a3.13,3.13,0,0,0,1.28-1.12,61.23,61.23,0,0,0,4-9.56Zm3.3,24.61a58.77,58.77,0,0,1-10.69,2.88l-.35-3a64.27,64.27,0,0,0,11-2.76Zm15.29-8.35V41.33h-2.91V40.15H465.5v1.18h-2.91V29.27ZM465.5,37.4h7.78V32H465.5ZM466.05,18a17,17,0,0,0,3.17,3.81,17.66,17.66,0,0,0,3.68-4.38h-6.47Z"/><path class="cls-1" d="M4.09,90a18.85,18.85,0,0,1-2.4,4.1L.9,93.53a16.1,16.1,0,0,0,2.36-4ZM8.23,77.73h.95v1.89h7.09v.92H9.18v2.59h5.74v5.53H3.31V83.13H8.23Zm5.74,10V84.05H4.28v3.69ZM6.89,90.08c.4,1.32.73,2.63,1,3.92l-1,.24a23,23,0,0,0-.91-4Zm3.78-.16a31.58,31.58,0,0,1,1.44,4l-1,.24a22,22,0,0,0-1.37-4.09Zm3.78-.33a29.15,29.15,0,0,1,2.63,4l-.79.55a34.16,34.16,0,0,0-2.63-4.07Z"/><path class="cls-1" d="M21.13,81.89a19.17,19.17,0,0,1-1.78,1.82l-.5-.78a14,14,0,0,0,3.7-5.2l.9.23a12.23,12.23,0,0,1-.68,1.51H27a15.9,15.9,0,0,0-.77-1.63l1-.18c.26.57.51,1.18.74,1.81h5.94v.87H28v1.44h5.22v.79H28V84h5.22v.8H28V86.3h6.17v.84h-13ZM19.3,89.72V88.8h7.27V87.72h1V88.8H34.7v.92H28.94a12.77,12.77,0,0,0,6,3.11l-.41.87q-4.59-1.52-6.5-4h-.45V94.2h-1V89.72h-.49c-1.1,1.57-3.26,2.92-6.46,4.07l-.52-.85c3-.94,5-2,6.06-3.22Zm7.75-7.94V80.34H22.27l-.22.34v1.1Zm0,2.19v-1.4h-5V84Zm0,2.33V84.77h-5V86.3Z"/><path class="cls-1" d="M40.77,77.53a17.08,17.08,0,0,0-1.71,3.75,14.49,14.49,0,0,0,0,9.32,17.67,17.67,0,0,0,1.71,3.74h-1a15.75,15.75,0,0,1-2.56-8.4A14.59,14.59,0,0,1,38,81.26a15.07,15.07,0,0,1,1.78-3.73Z"/><path class="cls-1" d="M43.31,79.57h5.22c2.85,0,4.28,1.22,4.28,3.68S51.38,87,48.51,87h-4.1v5.46h-1.1Zm1.1,1V86h4.05a3.82,3.82,0,0,0,2.46-.68,2.6,2.6,0,0,0,.78-2.06,2.5,2.5,0,0,0-.78-2,3.67,3.67,0,0,0-2.46-.7Z"/><path class="cls-1" d="M61.9,84.33a5.77,5.77,0,0,1,0,6.86,4.41,4.41,0,0,1-6.59,0,5.24,5.24,0,0,1-1.13-3.42,5.16,5.16,0,0,1,1.15-3.44,4,4,0,0,1,3.28-1.47A4.09,4.09,0,0,1,61.9,84.33ZM56.11,85a5,5,0,0,0,0,5.49,2.94,2.94,0,0,0,2.5,1.22,3,3,0,0,0,2.52-1.22A4.54,4.54,0,0,0,62,87.77,4.45,4.45,0,0,0,61.13,85a2.94,2.94,0,0,0-2.52-1.23A2.91,2.91,0,0,0,56.11,85Z"/><path class="cls-1" d="M66.67,80a.77.77,0,0,1,.27.63.87.87,0,0,1-.29.65.92.92,0,0,1-.63.25.84.84,0,0,1-.64-.25.88.88,0,0,1-.27-.65.77.77,0,0,1,.27-.63.82.82,0,0,1,.64-.27A.88.88,0,0,1,66.67,80Zm-1.19,3.08h1.08v9.31H65.48Z"/><path class="cls-1" d="M76.93,86.69v5.73H75.85V86.76c0-2-.88-3-2.65-3a2.48,2.48,0,0,0-1.87.82,3.25,3.25,0,0,0-.88,2.19v5.62H69.37V83.11h1.08v1.53a3.86,3.86,0,0,1,1.26-1.31,3.21,3.21,0,0,1,1.77-.47Q76.93,82.86,76.93,86.69Z"/><path class="cls-1" d="M81.45,80.11v3h2.43v.94H81.45v6.3a1.46,1.46,0,0,0,.21.88,1.06,1.06,0,0,0,.82.25h1.17v.94H82.33a1.94,1.94,0,0,1-1.55-.56,2.29,2.29,0,0,1-.41-1.51v-6.3h-2v-.94h2V80.55Z"/><path class="cls-1" d="M93.24,80.34a4.1,4.1,0,0,1,1.44,3h-1.1a3.56,3.56,0,0,0-1.13-2.28,3.86,3.86,0,0,0-2.6-.78,4.72,4.72,0,0,0-2.44.54,2,2,0,0,0,.19,3.53,19.13,19.13,0,0,0,2.47.83,15.71,15.71,0,0,1,3.31,1.22,3,3,0,0,1,1.6,2.7,3.05,3.05,0,0,1-1.38,2.63,6.05,6.05,0,0,1-3.51.92,5.49,5.49,0,0,1-3.49-1A4.56,4.56,0,0,1,85,88.17h1.08a3.88,3.88,0,0,0,1.26,2.7,4.27,4.27,0,0,0,2.75.79A5.18,5.18,0,0,0,92.82,91a2.1,2.1,0,0,0,1.05-1.82,2.26,2.26,0,0,0-1.32-2.05,13.93,13.93,0,0,0-2.82-1,15.71,15.71,0,0,1-3-1A2.62,2.62,0,0,1,85.3,82.7a2.84,2.84,0,0,1,1.39-2.56,5.61,5.61,0,0,1,3.2-.83A5.14,5.14,0,0,1,93.24,80.34Z"/><path class="cls-1" d="M103.79,84.35a6.5,6.5,0,0,1,1.06,3.73H97.29a4.39,4.39,0,0,0,.92,2.68,2.91,2.91,0,0,0,2.3,1,3.13,3.13,0,0,0,2-.66,3.52,3.52,0,0,0,1-1.64h1.1a4.29,4.29,0,0,1-1.24,2.21,4.13,4.13,0,0,1-2.9,1,4,4,0,0,1-3.13-1.33,5.13,5.13,0,0,1-1.21-3.59,5.23,5.23,0,0,1,1.15-3.43,4.28,4.28,0,0,1,6.47,0Zm-5.51.4a4,4,0,0,0-1,2.45h6.4q-.27-3.4-3.22-3.41A2.77,2.77,0,0,0,98.28,84.75Z"/><path class="cls-1" d="M108.83,80.11v3h2.43v.94h-2.43v6.3a1.46,1.46,0,0,0,.21.88,1,1,0,0,0,.81.25H111v.94h-1.31a1.93,1.93,0,0,1-1.55-.56,2.24,2.24,0,0,1-.41-1.51v-6.3h-2v-.94h2V80.55Z"/><path class="cls-1" d="M114,77.53a16.24,16.24,0,0,1,1.79,3.73,15.43,15.43,0,0,1,.77,4.68,15.59,15.59,0,0,1-.77,4.69A16.74,16.74,0,0,1,114,94.34h-1a17.93,17.93,0,0,0,1.71-3.74,14.31,14.31,0,0,0,0-9.32A17.33,17.33,0,0,0,113,77.53Z"/><path class="cls-1" d="M120.89,83.63a27.3,27.3,0,0,1-2.13,2.49l-.3-1a20.12,20.12,0,0,0,4.35-7.34l.9.41a20.16,20.16,0,0,1-1.85,4v12h-1Zm5.41-2.26A20.61,20.61,0,0,1,123.39,86l-.69-.81a21.64,21.64,0,0,0,4-7.52l1,.23q-.35,1.06-.93,2.52h8.06v1h-6.28v3.27H134v1h-5.45v3.33h5.6v1h-5.6v4.28h-1V81.37Z"/><path class="cls-1" d="M143.31,77.75h1V79.6c0,1-.07,1.93-.13,2.68h7.47c0,5-.23,8.28-.68,9.67A2.57,2.57,0,0,1,148.45,94c-.86,0-1.57,0-2.15-.06L146,93c.87.07,1.65.11,2.36.11,1.14-.08,1.8-1.15,2-3.19s.25-4.35.25-6.68h-6.57A19.54,19.54,0,0,1,142.54,89a11.31,11.31,0,0,1-5.27,5.13l-.54-.86a10.85,10.85,0,0,0,5.13-5.08,18.94,18.94,0,0,0,1.22-4.92h-5.74v-1h5.85c.06-.78.1-1.67.12-2.68Zm-4.37.48a22.86,22.86,0,0,1,2.45,2.92l-.79.52a24.59,24.59,0,0,0-2.42-2.9Zm6.21,7.6a31.55,31.55,0,0,1,3.1,3.83l-.85.58a28.56,28.56,0,0,0-3-3.91Z"/><path class="cls-1" d="M154.69,85.33H170.8v1H154.69Z"/><path class="cls-1" d="M181.2,77.76q2.28,3.81,7.85,6.7l-.57.87a19.5,19.5,0,0,1-7.73-6.63A21.09,21.09,0,0,1,173,85.43l-.57-.88a20.07,20.07,0,0,0,7.84-6.79ZM180.27,83h1V94.16h-1Z"/><path class="cls-1" d="M199.11,77.73a15.75,15.75,0,0,1,.89,1.76h6.67v.94H193.25v4.25a21.84,21.84,0,0,1-1.91,9.41l-.74-.67a19.91,19.91,0,0,0,1.67-8.74V79.49H199a12.36,12.36,0,0,0-.9-1.58Zm-2.79,9.57v5.3a21.56,21.56,0,0,0,2.18-.67l.18.92c-1,.29-2.14.6-3.54.94l-.2-.87c.29-.07.43-.21.43-.43V82.77A73.86,73.86,0,0,0,205,81.62l.48.81c-1.25.24-2.64.46-4.19.66.11,1.19.24,2.28.41,3.28h4.47v.93h-4.3c.14.73.28,1.34.43,1.86A9.22,9.22,0,0,0,203.67,92c.49.62.92.93,1.28.93s.64-.9,1-2.59l.79.52c-.49,2.07-1.05,3.1-1.67,3.1a2.48,2.48,0,0,1-1.75-1.07,10.19,10.19,0,0,1-1.69-3.11A18.79,18.79,0,0,1,201,87.3Zm0-3.72v2.79h4.49c-.16-.92-.3-2-.44-3.17C199.07,83.34,197.72,83.47,196.32,83.58Zm3.24,6.79a23.26,23.26,0,0,1,2.09,2.95l-.75.56a22.15,22.15,0,0,0-2.06-3Z"/><path class="cls-1" d="M211.59,82.77v1.62a20.27,20.27,0,0,1-2.23,9.66l-.72-.63a18.69,18.69,0,0,0,2-9V78.58h12.84v4.19Zm10.91-3.28H211.59v2.36H222.5Zm-10.12,8.19h12.1v.9h-6.95a20.21,20.21,0,0,1-3.13,4.13c2.61-.18,5.16-.46,7.63-.83q-.81-1-1.77-2l.74-.45a34.27,34.27,0,0,1,3.48,4.2l-.78.55c-.33-.5-.68-1-1-1.47q-4.6.63-9.47.94l-.23-.87.2-.07c.83-.5,2-1.87,3.34-4.09h-4.12Zm1.24-2.93h9.7v.86h-9.7Z"/><path class="cls-1" d="M238.52,94.05l-.26-1,1.79.06a.72.72,0,0,0,.79-.82V79.51H228.67V94.13h-1V78.56h14.11v14a1.3,1.3,0,0,1-1.46,1.49Zm-4.14-3.92q-1-1.47-1.95-2.88a18.84,18.84,0,0,1-2.5,4.77l-.63-.76a18.51,18.51,0,0,0,2.48-4.93c-1-1.29-1.85-2.38-2.64-3.25l.61-.62a31.37,31.37,0,0,1,2.36,2.85,35.26,35.26,0,0,0,.95-4.43L234,81a35.11,35.11,0,0,1-1.19,5.18c.65.88,1.39,2,2.23,3.28Zm5.34.83c-.63-1.07-1.31-2.17-2-3.29a19.87,19.87,0,0,1-2.7,4.78l-.61-.75a19.12,19.12,0,0,0,2.66-5,41.7,41.7,0,0,0-2.61-3.47l.63-.61a34.08,34.08,0,0,1,2.34,3,31,31,0,0,0,1.1-4.74l.92.16a36.39,36.39,0,0,1-1.35,5.55c.76,1.16,1.53,2.39,2.3,3.67Z"/><path class="cls-1" d="M251,91.71a34.93,34.93,0,0,1-6,1.68l-.13-.94A33.11,33.11,0,0,0,251,90.78Zm-2.13-13.6A28.06,28.06,0,0,1,246,83.85c.79-.1,1.71-.27,2.75-.51l1-1.92.84.32a37.76,37.76,0,0,1-4,6.73,29.69,29.69,0,0,0,4.09-1.11v.88a28.44,28.44,0,0,1-5.24,1.31l-.27-.91a2,2,0,0,0,.45-.27,22.65,22.65,0,0,0,2.7-4.09c-1.25.25-2.32.44-3.21.56l-.23-.9a1,1,0,0,0,.41-.36A27.84,27.84,0,0,0,248,77.75Zm6.05-.24c-.17.53-.36,1.06-.59,1.59h5v.74a12.42,12.42,0,0,1-3,4.06,14.14,14.14,0,0,0,4.77,2.31l-.56.79a14,14,0,0,1-4.91-2.52A19.63,19.63,0,0,1,251,87.47l-.61-.8A18.43,18.43,0,0,0,255,84.21a11.48,11.48,0,0,1-2-2.5,15.17,15.17,0,0,1-1.73,1.76l-.57-.76a10.08,10.08,0,0,0,3.33-5Zm4.47,9.71v6.49h-.94v-.84h-5.35v.84h-.93V87.58Zm-6.29,4.75h5.35V88.46h-5.35Zm.4-11.36a11.25,11.25,0,0,0,2.12,2.68,11.56,11.56,0,0,0,2.69-3.29h-4.43Z"/><path class="cls-1" d="M266.06,92.11a3.3,3.3,0,0,1-1.8,3.11l-.38-.63a2.75,2.75,0,0,0,1.37-2.19l-.27,0a1,1,0,0,1-.67-.24.81.81,0,0,1-.25-.64.79.79,0,0,1,.25-.67.87.87,0,0,1,.67-.25C265.7,90.62,266.06,91.12,266.06,92.11Z"/><path class="cls-1" d="M281.86,91.19a.87.87,0,0,0,.43-.79V78.54h1V90.67a27.4,27.4,0,0,0,4.37-2.18l.29,1a34.48,34.48,0,0,1-5.79,2.65Zm4.5-11.43a40.72,40.72,0,0,1,3.85,4.94l-.81.57a34.46,34.46,0,0,0-3.87-5ZM287,94.05l-.67-.8a12.88,12.88,0,0,0,6.05-6.67,27.94,27.94,0,0,0,1.14-8.65h1a29.13,29.13,0,0,1-1.08,8.57c-.12.36-.21.62-.28.79A41.57,41.57,0,0,1,297,93.12l-.74.74a38.48,38.48,0,0,0-3.49-5.62A14.15,14.15,0,0,1,287,94.05Z"/><path class="cls-1" d="M305.33,78.61a20.58,20.58,0,0,1-2.55,3.78,19.85,19.85,0,0,1-3.64,3.11l-.56-.86A13,13,0,0,0,302,81.76a17.69,17.69,0,0,0,2.46-3.65Zm-4.17,7.33V85H311.9c0,2.19-.15,4-.32,5.35a6.39,6.39,0,0,1-.87,2.82,2.36,2.36,0,0,1-1.92.85h-3.37l-.25-.94c1.49,0,2.54,0,3.15,0a1.91,1.91,0,0,0,2-1.32,25.62,25.62,0,0,0,.63-5.88H305.8A14.31,14.31,0,0,1,304,90.8a12.14,12.14,0,0,1-4,3.36l-.61-.77a11.57,11.57,0,0,0,3.67-3,11.39,11.39,0,0,0,1.73-4.46Zm8.11-8a12.93,12.93,0,0,0,5.64,6.6l-.67.76a14,14,0,0,1-5.79-6.89Z"/><path class="cls-1" d="M325.4,82.46h1v2.29h5.13v6a1.38,1.38,0,0,1-1.55,1.57h-1.73l-.23-.93,1.65,0c.61,0,.92-.29.92-.88V85.67h-4.19v8.49h-1V85.67h-4.21V92.4h-.94V85.33a24.88,24.88,0,0,1-3.16,2.84l-.63-.81a20.93,20.93,0,0,0,5.65-6.18h-5.06v-1h5.58a21.92,21.92,0,0,0,1-2.52l1,.11a20.57,20.57,0,0,1-.94,2.41h8.91v1h-9.4a20.75,20.75,0,0,1-2.44,3.57h4.62Z"/><path class="cls-1" d="M335.25,85.31h7.52v.93H339.5V91.3c1.18-.22,2.52-.51,4-.88v1c-2.57.62-5.35,1.15-8.35,1.57l-.23-.94c1.22-.14,2.43-.32,3.61-.54V86.24h-3.27Zm-.31-4.23h9q-.09-1.33-.09-3.3h1q0,2,.09,3.3h5.66v1H345a28.81,28.81,0,0,0,1.49,8c.77,2,1.48,3,2.14,3q.67-.15,1.26-3.24l.89.45c-.54,2.55-1.24,3.84-2.09,3.85q-2.24-.1-3.85-6a34.2,34.2,0,0,1-.85-6.1h-9Zm12.58-3.17a19.11,19.11,0,0,1,1.77,2.39l-.83.42a21.44,21.44,0,0,0-1.75-2.42Z"/><path class="cls-1" d="M353.09,94l-.2-.89c.47,0,.92.05,1.35.05s.81-.29.81-.87V87.59a23.21,23.21,0,0,1-2.38.87l-.25-1c.92-.26,1.8-.55,2.63-.86V82.12h-2.29v-1h2.29V77.78h1v3.39h2v1h-2v4.1q1-.47,2.07-1.08v1c-.6.35-1.29.7-2.07,1.06v5.33A1.29,1.29,0,0,1,354.58,94Zm5.68-13.48h4.41V77.8h1v2.68h4.41v.92h-4.41v3.22h3.69v.88a12.61,12.61,0,0,1-3.28,5.26,18.15,18.15,0,0,0,4.54,2.63l-.51.79a19.24,19.24,0,0,1-4.69-2.84,17.13,17.13,0,0,1-5.26,2.88l-.47-.83a16.25,16.25,0,0,0,5-2.67,11.38,11.38,0,0,1-3.15-5.16h-1v-.94h4.08V81.4h-4.41ZM361,85.56a10.15,10.15,0,0,0,2.88,4.59,11.94,11.94,0,0,0,3-4.59Z"/><path class="cls-1" d="M371.16,82.14h7.11V77.71h1v4.43h7.13v.92h-6a19.46,19.46,0,0,0,6.55,8.39l-.65.8a21.63,21.63,0,0,1-6.82-9.19h-.18V94.14h-1V83.06h-.18a19.07,19.07,0,0,1-7,9.34l-.54-.85a18.11,18.11,0,0,0,6.64-8.49h-6Zm11-4.39a24.58,24.58,0,0,1,2.58,3l-.78.54a23.28,23.28,0,0,0-2.57-3.08Z"/><path class="cls-1" d="M395.31,77.75h1V79.6c0,1-.07,1.93-.13,2.68h7.47c0,5-.23,8.28-.68,9.67A2.57,2.57,0,0,1,400.45,94c-.86,0-1.57,0-2.15-.06L398,93c.87.07,1.65.11,2.36.11,1.14-.08,1.8-1.15,2-3.19s.25-4.35.25-6.68h-6.57A19.54,19.54,0,0,1,394.54,89a11.31,11.31,0,0,1-5.27,5.13l-.54-.86a10.85,10.85,0,0,0,5.13-5.08,18.94,18.94,0,0,0,1.22-4.92h-5.74v-1h5.85c.06-.78.1-1.67.12-2.68Zm-4.37.48a22.86,22.86,0,0,1,2.45,2.92l-.79.52a24.59,24.59,0,0,0-2.42-2.9Zm6.21,7.6a31.55,31.55,0,0,1,3.1,3.83l-.85.58a28.56,28.56,0,0,0-3-3.91Z"/><path class="cls-1" d="M407.23,79.19h3.29V77.73h1v1.46H418V77.73h1v1.46h3.29V80H419v6.23h3.58v.87h-4A8.73,8.73,0,0,0,422.8,90l-.39.85a9.68,9.68,0,0,1-4.79-3.72h-5.76a10.15,10.15,0,0,1-4.61,3.79l-.49-.81a9.23,9.23,0,0,0,4.16-3h-4v-.87h3.58V80h-3.29Zm7,8.71h1v1.56H419v.89h-3.75v2.28h6.26v.92H407.88v-.92h6.39V90.35h-3.78v-.89h3.78Zm-2.77-6.3H418V80H411.5Zm0,2.28H418V82.39H411.5Zm0,2.38H418V84.7H411.5Z"/><path class="cls-1" d="M424.89,79.8v-.94h6v.94H428a23.25,23.25,0,0,1-1.1,4.37h3.42v9.44h-.86V92.38h-2.18v1.41h-.88V85.38A19.58,19.58,0,0,1,425,88l-.52-.83a18.65,18.65,0,0,0,2.66-7.36Zm2.43,11.72h2.18V85h-2.18ZM439,84.08V79.29h.92V85h-3.4v7h2.9V86.76h.91V94.2h-.91V92.9h-6.68v1.3h-.92V86.76h.92V92h2.86V85h-3.37V79.29h.92v4.79h2.45V77.8h.92v6.28Z"/><path class="cls-1" d="M446.06,92.11a3.3,3.3,0,0,1-1.8,3.11l-.38-.63a2.75,2.75,0,0,0,1.37-2.19l-.27,0a1,1,0,0,1-.67-.24.81.81,0,0,1-.25-.64.79.79,0,0,1,.25-.67.87.87,0,0,1,.67-.25C445.7,90.62,446.06,91.12,446.06,92.11Z"/><path class="cls-1" d="M464.51,94.11h-1V84.35a19.71,19.71,0,0,1-2.68,5.46l-.41-1a16.68,16.68,0,0,0,3-6.42h-2.65v-1h2.72V77.76h1v3.62h2.32v1h-2.32v1.28c.86.91,1.74,1.93,2.64,3.07l-.56.81a31.45,31.45,0,0,0-2.08-2.84Zm5.79-16.27a20,20,0,0,1-.57,2.64h6.39c0,6.1-.11,9.87-.31,11.32A2.23,2.23,0,0,1,473.4,94l-1.95,0-.21-.87c.75,0,1.42.06,2,.06a1.57,1.57,0,0,0,1.65-1.48c.17-1.12.27-4.53.29-10.26h-5.74a15.48,15.48,0,0,1-1.86,3.78l-.63-.81a16.81,16.81,0,0,0,2.4-6.64Zm-2.72,11.57c.51-.29,1.41-2.25,2.7-5.9l.89.32A38.75,38.75,0,0,1,469,89.11c1.53-.32,2.65-.56,3.39-.74-.21-.59-.5-1.33-.89-2.24l.85-.26a37.48,37.48,0,0,1,1.62,4.53l-.85.4q-.22-.9-.48-1.68c-1.41.38-3,.74-4.81,1.08Z"/><path class="cls-1" d="M494.87,92.78l-.18.93h-5.36q-4.79,0-6.86-1.42a5.16,5.16,0,0,1-.74-.68A10.34,10.34,0,0,1,479.5,94l-.63-.8a8.35,8.35,0,0,0,2.23-2.33,12.44,12.44,0,0,1-1.74-3.92l.81-.31a14.85,14.85,0,0,0,1.4,3.4,12.74,12.74,0,0,0,1.19-5h-3.37V84.3a40.73,40.73,0,0,0,3-4.57h-3.16v-.94h4.26v.81a42.79,42.79,0,0,1-2.86,4.56h3v.61a13.36,13.36,0,0,1-1.5,6.1,4.24,4.24,0,0,0,1.05.88,12.32,12.32,0,0,0,5.67,1.1C490.14,92.85,492.14,92.83,494.87,92.78ZM493.34,85h-3.85v1.66h4.34v.84h-4.34v1.79h4.84v.84h-4.84v2h-1v-2h-4.2v-.84h4.2V87.5h-3.66v-.84h3.66V85h-3.28v-.86h3.28V82.46h-4.16v-.83h4.16V79.94h-3.28V79.1h3.28V77.73h1V79.1h3.85v2.53h1.32v.83h-1.32Zm-3.85-5.06v1.69h2.92V79.94Zm0,2.52v1.68h2.92V82.46Z"/><path class="cls-1" d="M496.69,85.33H512.8v1H496.69Z"/><path class="cls-1" d="M523.2,77.76q2.28,3.81,7.85,6.7l-.57.87a19.5,19.5,0,0,1-7.73-6.63A21.09,21.09,0,0,1,515,85.43l-.57-.88a20.07,20.07,0,0,0,7.84-6.79ZM522.27,83h1V94.16h-1Z"/><path class="cls-1" d="M543.76,87.45A53.22,53.22,0,0,1,548,93.71l-.83.58c-.25-.49-.57-1.05-.95-1.67q-5.91.64-12,1.06l-.16-.83q2.35-1.27,4.87-6.44H532.8v-1h7.47V81.72h-6.36v-1h6.36v-3h1v3h6.32v1h-6.32v3.71h7.45v1H540a20.49,20.49,0,0,1-4.19,6.31q7.27-.57,9.85-.92c-.77-1.19-1.67-2.48-2.7-3.85Z"/><path class="cls-1" d="M558.25,77.67h1V81h6.51v8.29h-1V88.08h-5.52v6.23h-1V88.08h-5.51v1.21h-1V81h6.5Zm-5.51,9.46h5.51V82h-5.51Zm6.52,0h5.52V82h-5.52Z"/><path class="cls-1" d="M571.61,83.72a34.1,34.1,0,0,1-2.22,7.78l-.84-.54a31.92,31.92,0,0,0,2.1-7.43ZM575,93.59q-1.71,0-1.71-1.62V81.53h1V91.75c0,.58.34.87,1,.87h3.56a1.12,1.12,0,0,0,1-.53,12,12,0,0,0,.52-4l.92.31c-.11,2.39-.36,3.88-.74,4.46a1.76,1.76,0,0,1-1.55.69Zm.34-15.7a37,37,0,0,1,4,4.48l-.82.56a33.31,33.31,0,0,0-4-4.54Zm6.56,5a53.28,53.28,0,0,1,3.2,7.33l-.9.39a45.9,45.9,0,0,0-3.26-7.39Z"/><path class="cls-1" d="M593,78.13a20.39,20.39,0,0,1-2.4,4.17V94.22h-1V83.51a25.42,25.42,0,0,1-2.84,2.73l-.31-1a19.61,19.61,0,0,0,5.6-7.53Zm3.81,15.75a1.52,1.52,0,0,1-1.73-1.7V86.35c-.87.51-1.72,1-2.55,1.35l-.47-.94a27.71,27.71,0,0,0,3-1.54V77.84h1v6.77a25.41,25.41,0,0,0,5.2-4.5l.66.75a26.77,26.77,0,0,1-5.86,4.9V92q0,.9,1,.9h3.06a1.34,1.34,0,0,0,1.11-.45,8.9,8.9,0,0,0,.45-3.31l.9.28a10.05,10.05,0,0,1-.61,3.79,2,2,0,0,1-1.69.63Z"/><path class="cls-1" d="M616.52,94.05l-.26-1,1.79.06a.72.72,0,0,0,.79-.82V79.51H606.67V94.13h-1V78.56h14.11v14a1.3,1.3,0,0,1-1.46,1.49Zm-4.14-3.92q-1-1.47-2-2.88a18.84,18.84,0,0,1-2.5,4.77l-.63-.76a18.51,18.51,0,0,0,2.48-4.93c-1-1.29-1.85-2.38-2.64-3.25l.61-.62a31.37,31.37,0,0,1,2.36,2.85,35.26,35.26,0,0,0,.95-4.43L612,81a35.11,35.11,0,0,1-1.19,5.18c.65.88,1.39,2,2.23,3.28Zm5.34.83c-.63-1.07-1.31-2.17-2-3.29a19.87,19.87,0,0,1-2.7,4.78l-.61-.75a19.12,19.12,0,0,0,2.66-5,41.7,41.7,0,0,0-2.61-3.47l.63-.61a34.08,34.08,0,0,1,2.34,3,31,31,0,0,0,1.1-4.74l.92.16a36.39,36.39,0,0,1-1.35,5.55c.76,1.16,1.53,2.39,2.3,3.67Z"/><path class="cls-1" d="M629,91.71a34.93,34.93,0,0,1-6,1.68l-.13-.94A33.11,33.11,0,0,0,629,90.78Zm-2.13-13.6A28.06,28.06,0,0,1,624,83.85c.79-.1,1.71-.27,2.75-.51l1-1.92.84.32a37.76,37.76,0,0,1-4,6.73,29.69,29.69,0,0,0,4.09-1.11v.88a28.44,28.44,0,0,1-5.24,1.31l-.27-.91a2,2,0,0,0,.45-.27,22.65,22.65,0,0,0,2.7-4.09c-1.25.25-2.32.44-3.21.56l-.23-.9a1,1,0,0,0,.41-.36A27.84,27.84,0,0,0,626,77.75Zm6-.24c-.17.53-.36,1.06-.59,1.59h5v.74a12.42,12.42,0,0,1-3,4.06,14.14,14.14,0,0,0,4.77,2.31l-.56.79a14,14,0,0,1-4.91-2.52A19.63,19.63,0,0,1,629,87.47l-.61-.8A18.43,18.43,0,0,0,633,84.21a11.48,11.48,0,0,1-2-2.5,15.17,15.17,0,0,1-1.73,1.76l-.57-.76a10.08,10.08,0,0,0,3.33-5Zm4.47,9.71v6.49h-.94v-.84h-5.35v.84h-.93V87.58Zm-6.29,4.75h5.35V88.46h-5.35Zm.4-11.36a11.25,11.25,0,0,0,2.12,2.68,11.56,11.56,0,0,0,2.69-3.29h-4.43Z"/><path class="cls-1" d="M642.81,84a23.08,23.08,0,0,1-2,2.64l-.31-1a22.46,22.46,0,0,0,4.2-8l.88.42a24.13,24.13,0,0,1-1.8,4.32V94.2h-1Zm2.52-3h4.95V77.73h1V81h5v.93h-4a19.89,19.89,0,0,0,4.66,8.3l-.63.78a22.47,22.47,0,0,1-4.77-9.08h-.34v7.51h3v.94h-3v3.81h-1V90.37h-2.93v-.94h2.93V81.92H650a20.16,20.16,0,0,1-4.84,9.24l-.51-.83a18.11,18.11,0,0,0,4.63-8.41h-3.91Z"/><path class="cls-1" d="M664.07,89.75a18.32,18.32,0,0,1-4.59,3.87l-.61-.81a17.7,17.7,0,0,0,4.5-3.69Zm0,4.36-.21-.94c.86,0,1.48.08,1.87.08a.67.67,0,0,0,.76-.74V87.75l-5.75.31-.27-.86a4.12,4.12,0,0,0,.87-.18,25.62,25.62,0,0,0,5.47-3.33c-1.32.09-3.13.21-5.42.34l-.22-.88a2.87,2.87,0,0,0,.69-.18,12.68,12.68,0,0,0,3.65-3c-1.73.1-3.45.15-5.18.15l-.29-.85A58,58,0,0,0,672.8,78l.49.82a39.14,39.14,0,0,1-6.54,1,17.07,17.07,0,0,1-3.81,3.35c1.65-.09,3.29-.2,4.89-.32.83-.69,1.7-1.42,2.6-2.22l.9.43a38.92,38.92,0,0,1-8.41,6q4.86-.27,8.33-.64c-.51-.68-1-1.3-1.51-1.88l.72-.46a33.33,33.33,0,0,1,3.39,4.48l-.78.54a22.55,22.55,0,0,0-1.24-1.89c-1.13.12-2.59.25-4.39.39v5.06a1.21,1.21,0,0,1-1.37,1.37ZM670,89a33.49,33.49,0,0,1,4.59,4l-.71.7a29.05,29.05,0,0,0-4.55-4.1Z"/><path class="cls-1" d="M681.84,90.58a2,2,0,0,1,.65,1.55,2.12,2.12,0,0,1-.65,1.55,2.4,2.4,0,0,1-1.59.61,2.28,2.28,0,0,1-1.58-.61,2.09,2.09,0,0,1-.65-1.55,2,2,0,0,1,.65-1.55,2.17,2.17,0,0,1,1.58-.61A2.26,2.26,0,0,1,681.84,90.58Zm-2.61.56a1.24,1.24,0,0,0-.43,1,1.33,1.33,0,0,0,.43,1,1.4,1.4,0,0,0,1,.41,1.49,1.49,0,0,0,1-.41,1.33,1.33,0,0,0,.43-1,1.27,1.27,0,0,0-.43-1,1.4,1.4,0,0,0-1-.42A1.33,1.33,0,0,0,679.23,91.14Z"/><path class="cls-1" d="M699.5,77.87a54.19,54.19,0,0,1-.44,7.38,29.62,29.62,0,0,1,3.62,4.58l-.73.73a29.16,29.16,0,0,0-3.07-4.19s0,0,0,.07A14,14,0,0,1,695.05,94l-.68-.81a13.22,13.22,0,0,0,3.47-6.68,51,51,0,0,0,.67-8.64Zm7,0c0,1.78-.07,3.49-.2,5.11a21.51,21.51,0,0,0,4.73,10.17l-.7.81A22.15,22.15,0,0,1,706,85.36l-.2,1.14a13.73,13.73,0,0,1-4,7.61l-.66-.81a13.26,13.26,0,0,0,3.65-6.75,46.07,46.07,0,0,0,.69-8.69Z"/><path class="cls-1" d="M721.11,77.73a15.75,15.75,0,0,1,.89,1.76h6.67v.94H715.25v4.25a21.84,21.84,0,0,1-1.91,9.41l-.74-.67a19.91,19.91,0,0,0,1.67-8.74V79.49H721a12.36,12.36,0,0,0-.9-1.58Zm-2.79,9.57v5.3a21.56,21.56,0,0,0,2.18-.67l.18.92c-1,.29-2.14.6-3.54.94l-.2-.87c.29-.07.43-.21.43-.43V82.77A73.86,73.86,0,0,0,727,81.62l.48.81c-1.25.24-2.64.46-4.19.66.11,1.19.24,2.28.41,3.28h4.47v.93h-4.3c.14.73.28,1.34.43,1.86A9.22,9.22,0,0,0,725.67,92c.49.62.92.93,1.28.93s.64-.9,1-2.59l.79.52c-.49,2.07-1.05,3.1-1.67,3.1a2.48,2.48,0,0,1-1.75-1.07,10.19,10.19,0,0,1-1.69-3.11A18.79,18.79,0,0,1,723,87.3Zm0-3.72v2.79h4.49c-.16-.92-.3-2-.44-3.17C721.07,83.34,719.72,83.47,718.32,83.58Zm3.24,6.79a23.26,23.26,0,0,1,2.09,2.95l-.75.56a22.15,22.15,0,0,0-2.06-3Z"/><path class="cls-1" d="M733.59,82.77v1.62a20.27,20.27,0,0,1-2.23,9.66l-.72-.63a18.69,18.69,0,0,0,2-9V78.58h12.84v4.19Zm10.91-3.28H733.59v2.36H744.5Zm-10.12,8.19h12.1v.9h-7a20.21,20.21,0,0,1-3.13,4.13c2.61-.18,5.16-.46,7.63-.83q-.81-1-1.77-2l.74-.45a34.27,34.27,0,0,1,3.48,4.2l-.78.55c-.33-.5-.68-1-1-1.47q-4.6.63-9.47.94l-.23-.87.2-.07c.83-.5,2-1.87,3.34-4.09h-4.12Zm1.24-2.93h9.7v.86h-9.7Z"/><path class="cls-1" d="M752.13,86.12l.93.1-.43,1.12h3.86v.83a7.65,7.65,0,0,1-2.17,3.24,25.88,25.88,0,0,1,2.7,1.33l-.53.77A29.76,29.76,0,0,0,753.55,92,14.45,14.45,0,0,1,749,94.13l-.48-.83a14.12,14.12,0,0,0,4-1.71c-.77-.34-1.64-.68-2.61-1,.5-.81.94-1.58,1.3-2.32H749v-.88h2.7ZM749,81.29h3.57V77.78h.92v3.51h3.4v.88h-3.4v.22a34.74,34.74,0,0,1,3.09,1.91l-.52.77c-1-.8-1.84-1.45-2.57-1.94v2.59h-.92V82.17h-.06A8.14,8.14,0,0,1,749.2,86l-.51-.82a7.2,7.2,0,0,0,3.1-3H749Zm1.19-3.09a12,12,0,0,1,1.17,2.25l-.77.34a16.45,16.45,0,0,0-1.23-2.32Zm5.35,10h-3.31a16.34,16.34,0,0,1-1.08,1.93c.75.25,1.49.54,2.21.86A7.75,7.75,0,0,0,755.55,88.22Zm1.11-9.81a10.94,10.94,0,0,1-1.4,2.4l-.74-.38A13,13,0,0,0,755.85,78Zm2.08,5.75a18.49,18.49,0,0,1-1.19,2.57l-.62-.76a23.26,23.26,0,0,0,2.24-8.28l1,.18c-.12.94-.27,1.85-.43,2.74h4.89v1h-1.28a19.36,19.36,0,0,1-1.63,7.89,11.36,11.36,0,0,0,3.43,3.85l-.55.83a12.07,12.07,0,0,1-3.37-3.78,12,12,0,0,1-3.44,3.81l-.54-.83a11.09,11.09,0,0,0,3.44-3.94A23.67,23.67,0,0,1,758.74,84.16Zm.75-2.6c-.12.48-.22.84-.29,1.07a25.17,25.17,0,0,0,1.93,5.77,19,19,0,0,0,1.26-6.84Z"/><path class="cls-1" d="M767.18,94l-.2-.92c.62,0,1.08.08,1.38.08.5,0,.74-.29.74-.85V87.52c-.71.27-1.47.52-2.28.77l-.26-1a23.94,23.94,0,0,0,2.54-.77V82.26h-2.25v-1h2.25V77.82h1v3.49h1.84v1h-1.84v3.93c.62-.28,1.21-.56,1.79-.86v1a17.76,17.76,0,0,1-1.79.85v5.41c0,1-.45,1.46-1.36,1.46Zm6.73-8a21,21,0,0,1-2.14,8.19L771,93.5A20.15,20.15,0,0,0,773,84V78.58h9.32V82.7h-3.47v2.35h4V86h-4v2.45H782v5.74h-.9v-.93h-5.38v.93h-.9V88.42h3.1V86Zm4-3.27H774l0,2.35h3.95Zm3.49-3.21H774v2.33h7.42Zm-5.69,12.84h5.38v-3h-5.38Z"/><path class="cls-1" d="M791.84,89a23.48,23.48,0,0,1,2.08,2.43,11,11,0,0,0,5-4h-5.56A21.21,21.21,0,0,1,787.62,89l-.57-.86q5.85-.6,8.73-3.64l.83.45a9.8,9.8,0,0,1-1.7,1.46h5.26v.77q-3.79,6.44-14.24,6.65l-.39-1A23.36,23.36,0,0,0,793,91.75a20.15,20.15,0,0,0-2-2.36Zm1.85-10.76a9.46,9.46,0,0,1-1.26,1.22h5.42v.79Q794.94,85.4,787,86l-.41-.9a19,19,0,0,0,4.59-.81,13.41,13.41,0,0,0-1.89-2l.84-.41a18.19,18.19,0,0,1,2,2.08,9.62,9.62,0,0,0,4.59-3.67h-5.56a16,16,0,0,1-5,1.89l-.58-.86a12.89,12.89,0,0,0,7.24-3.6Z"/><path class="cls-1" d="M803.05,88.57h7.25V87.2h1v1.37h7.23v.89h-5.94a13.4,13.4,0,0,0,6.34,3.42l-.45.94q-4.85-1.63-6.77-4.36h-.41V94.2h-1V89.46h-.45c-1.11,1.76-3.33,3.26-6.65,4.52l-.56-.91c3.15-1,5.28-2.25,6.37-3.61h-6Zm.43-8.09a13.12,13.12,0,0,1,2.81,1.62l-.52.78A11.94,11.94,0,0,0,803,81.26Zm4.29,2.94a23,23,0,0,1-4,3.83l-.68-.75a23,23,0,0,0,4-3.62Zm-3.3-5.6a15.74,15.74,0,0,1,3.33,2l-.52.77a13.88,13.88,0,0,0-3.33-2ZM817,84.12h-7.11V85.7h8.31v.88h-9.28V78.43H818v.88h-8.12v1.55H817Zm-7.11-2.43v1.64h6.17V81.69Z"/><path class="cls-1" d="M832.53,93.84c-.58,0-1.65,0-3.18,0a12.2,12.2,0,0,1-2.81-.34,4,4,0,0,1-1.89-1.33,1,1,0,0,0-.7-.47c-.48,0-1.26.84-2.34,2.5l-.74-.66c1-1.56,1.9-2.47,2.65-2.72V85h-2.76v-.94h3.67v6.75a1.51,1.51,0,0,1,.56.49,4.63,4.63,0,0,0,1.48,1.19,8,8,0,0,0,2.45.37c1.2,0,2.35,0,3.47,0h2.52l1.94-.07-.23,1ZM821.88,78.13a21.27,21.27,0,0,1,3.18,2.79l-.68.68a21,21,0,0,0-3.17-2.85Zm3.9,1.72H829a10.3,10.3,0,0,0-1-1.72l.9-.35A8.81,8.81,0,0,1,830,79.85h2.27a13.82,13.82,0,0,0,1.17-2.14l.93.34a11.68,11.68,0,0,1-1,1.8h3.33v.92h-5.15a9.93,9.93,0,0,1-.5,1.71h4.35V91H827v-8.5h2.93a7.64,7.64,0,0,0,.52-1.71h-4.68Zm2.15,5.22h6.49V83.38h-6.49Zm0,2.43h6.49V85.88h-6.49Zm6.49,2.58V88.31h-6.49v1.77Z"/><path class="cls-1" d="M844.94,82.57a16.25,16.25,0,0,1-2,2.22,10.6,10.6,0,0,1,1.34,5.5,5.91,5.91,0,0,1-.65,3.24,1.83,1.83,0,0,1-1.44.56c-.59,0-1.17,0-1.75,0l-.27-.89c.74,0,1.34.07,1.78.07a1.18,1.18,0,0,0,1-.47,6.36,6.36,0,0,0,.34-2.54,13.1,13.1,0,0,0-.14-1.91A12.85,12.85,0,0,1,839.46,91l-.55-.79a12.08,12.08,0,0,0,4-3,7,7,0,0,0-.76-1.89,18.86,18.86,0,0,1-3,1.78l-.51-.81a13.12,13.12,0,0,0,3-1.74,7.05,7.05,0,0,0-2.13-1.86l.74-.61A8.64,8.64,0,0,1,842.38,84a12.36,12.36,0,0,0,1.73-1.94Zm-6.07-3.35h4.36V77.66h1v1.56h5.11V77.66h1v1.56h4.36v.92h-4.36v1.4h-1v-1.4H844.2v1.4h-1v-1.4h-4.36Zm6.44,6.09h3.82c0-1.34,0-2.37,0-3.1h1c0,.48,0,1.51-.08,3.1h4.29v.93h-4.14a11.27,11.27,0,0,0,4.57,7.11l-.65.72a11.34,11.34,0,0,1-4.34-6.42,11.88,11.88,0,0,1-4.23,6.51l-.63-.72a10.59,10.59,0,0,0,4.13-7.2h-3.77Zm6.61-3.49a17.21,17.21,0,0,1,2.21,2.34l-.72.52a18.54,18.54,0,0,0-2.21-2.42Z"/><path class="cls-1" d="M856.8,78.56h8.53v.91H863.8V89.93l1.8-.47v1l-.9.21-.9.24v3.36h-1V91.12c-1.87.41-3.85.77-5.92,1.08l-.24-1,1.6-.22V79.47H856.8Zm2.45,4h3.58V79.47h-3.58Zm0,3.94h3.58v-3h-3.58Zm0,4.34c1.18-.22,2.38-.45,3.58-.7V87.41h-3.58Zm6.89-10.42h-.65v-.94h6.7v.9a24.76,24.76,0,0,1-2.52,8.73A19.89,19.89,0,0,0,873,93.41l-.65.75a21,21,0,0,1-3.2-4.12,15.26,15.26,0,0,1-3.66,4.14l-.63-.76a15.17,15.17,0,0,0,3.75-4.35A22,22,0,0,1,866.14,80.45Zm.88,0a21.15,21.15,0,0,0,2.09,7.68,23.32,23.32,0,0,0,2.18-7.68Z"/><path class="cls-1" d="M1.33,110.8H4.59v-2.89c-1,.17-2,.29-2.95.36l-.33-.9A22.47,22.47,0,0,0,8.05,106l.46.83a23.3,23.3,0,0,1-3,.9v3.09H8.71v.92H5.53v1a40.44,40.44,0,0,1,3.22,3.31l-.58.83a38.53,38.53,0,0,0-2.64-3.24v8.44H4.59v-8.64a17.14,17.14,0,0,1-3.31,5.13l-.42-1a14.44,14.44,0,0,0,3.73-5.83H1.33Zm14.91-3.72v14.38h-1V120H10.55v1.65h-1V107.08Zm-5.69,12h4.71V108H10.55Z"/><path class="cls-1" d="M27,105.66c.2.47.4,1,.61,1.69H34.9v.94H19.08v-.94h7.54a9.65,9.65,0,0,0-.65-1.51Zm3.49,16.47-.24-.88,1.46,0c.82,0,1.23-.32,1.23-1v-5.17H21v7h-.91v-7.9H33.89v6.25q0,1.62-1.83,1.62Zm-8.41-12.46H31.9V113H22.12ZM31,112.19v-1.73h-7.9v1.73Zm-7.38,4.3h6.88V120H23.58Zm6,2.7v-1.9h-5.1v1.9Z"/><path class="cls-1" d="M38.25,109.26a24.82,24.82,0,0,1-.65,5.13l-.81-.22a23.85,23.85,0,0,0,.67-5Zm1.21-3.46h1v16.31h-1Zm2.21,3.06A23.08,23.08,0,0,1,42.8,112l-.79.2a23.72,23.72,0,0,0-1.08-3.14Zm2.88,1.39A14.36,14.36,0,0,1,43.07,114l-.73-.65a14.83,14.83,0,0,0,1.74-6.53l.9.1a17.81,17.81,0,0,1-.23,2.36h2.91v-3.47h1v3.47H52.7v1H48.65v4.62h3.73v1H48.65v4.82h4.52v1H42.39v-1h5.27v-4.82H43.43v-1h4.23v-4.62Z"/><path class="cls-1" d="M61.16,107a30,30,0,0,1,2.58,3.88l-.79.56c-.35-.65-.58-1-.69-1.22a69,69,0,0,1-7,.68l-.27-.85a1.12,1.12,0,0,0,.45-.25,15.74,15.74,0,0,0,2.93-4l.94.27a14,14,0,0,1-2.93,4c1.58-.07,3.39-.24,5.43-.5-.51-.78-1-1.45-1.4-2ZM57,118.72v3.48h-1v-10h6.52v8.47a1.2,1.2,0,0,1-1.37,1.35H59.67l-.23-.91,1.45,0c.48,0,.72-.23.72-.68v-1.81Zm4.6-3.65v-2H57v2Zm-4.6.86v1.95h4.6v-1.95Zm8.92-2.48c-1,0-1.51-.53-1.51-1.58v-6.14h1v2.57a45.18,45.18,0,0,0,5.07-1l.33.88a53.88,53.88,0,0,1-5.4,1v2.47c0,.59.28.88.84.88h2.52a1.16,1.16,0,0,0,.85-.27,4.73,4.73,0,0,0,.41-2.14l.92.31a4.84,4.84,0,0,1-.65,2.6,2,2,0,0,1-1.35.4Zm-.5,6.79a.69.69,0,0,0,.77.79h2.49a1.1,1.1,0,0,0,.86-.29,4.62,4.62,0,0,0,.43-2.2l.9.29a5.1,5.1,0,0,1-.64,2.67,2,2,0,0,1-1.35.39h-3a1.27,1.27,0,0,1-1.44-1.44v-6.17h1v2.38a27.07,27.07,0,0,0,5-1l.33.9a28.9,28.9,0,0,1-5.35,1Z"/><path class="cls-1" d="M73.37,107.73h5a17.21,17.21,0,0,0,.66-2l1,.11c-.13.49-.33,1.13-.61,1.91h9.36v1H79.07A20.08,20.08,0,0,1,76.63,113v9.26h-1v-8a23.63,23.63,0,0,1-2.28,2.3l-.6-.79a20,20,0,0,0,5.24-7H73.37Zm4.79,8.3H83.5v-1.82A19.7,19.7,0,0,0,86.6,112h-7v-.92h8.3V112a24.29,24.29,0,0,1-3.39,2.59V116H89.1v1H84.47v3.74a1.25,1.25,0,0,1-1.42,1.41H80.8l-.25-.92c.86,0,1.57,0,2.12,0a.73.73,0,0,0,.83-.83V117H78.16Z"/><path class="cls-1" d="M92.57,111.63A20.73,20.73,0,0,1,91,114l-.31-1a22,22,0,0,0,3.17-7.25l.88.41a25.71,25.71,0,0,1-1.24,3.6v12.42h-.94Zm1.8-.21h3.12v8c.49-.5,1-1.12,1.65-1.85l.26,1a22.34,22.34,0,0,1-2.81,2.93l-.38-.88a.9.9,0,0,0,.32-.65v-7.54H94.37Zm1.57-4.86a22.71,22.71,0,0,1,2.7,2.64l-.74.74a17.06,17.06,0,0,0-2.63-2.73ZM99.7,108H102v-2.18h.92V108H105v.85h-2.12v2.61h.68a19.25,19.25,0,0,0,2.56-4.68l.81.45a22.26,22.26,0,0,1-2.25,4.23H107v.9h-3a14.1,14.1,0,0,1-1.81,1.9h3.88v7.91h-.93v-.8h-3.69v.8h-.94v-6.66a13.32,13.32,0,0,1-1.53.84l-.5-.77a12.82,12.82,0,0,0,4.34-3.22H99.23v-.9H102v-2.61H99.7Zm5.44,9.38v-2.23h-3.69v2.23Zm-3.69.86v2.27h3.69V118.2Z"/><path class="cls-1" d="M112.3,120.11a3.3,3.3,0,0,1-1.8,3.11l-.38-.63a2.73,2.73,0,0,0,1.37-2.19l-.27,0a1,1,0,0,1-.66-.24.82.82,0,0,1-.26-.64.79.79,0,0,1,.26-.67.83.83,0,0,1,.66-.25C111.94,118.62,112.3,119.12,112.3,120.11Z"/><path class="cls-1" d="M136.13,120.45q-4.24.89-8.92,1.44L127,121c1.23-.12,2.65-.31,4.29-.56v-3.76h-3.64v-.94h3.64v-2.25h1v2.25h3.42v.94h-3.42v3.6c1.37-.23,2.67-.48,3.9-.76Zm-8.94-13.8h8.87v.93h-4.71a18.72,18.72,0,0,1-2.7,4.43q2.91-.29,5.74-.74c-.39-.63-.88-1.38-1.5-2.23l.76-.47a35.9,35.9,0,0,1,2.79,4.34l-.79.56c-.25-.49-.52-1-.81-1.46q-3.43.6-7.58,1l-.22-.88.38-.09a14.71,14.71,0,0,0,2.92-4.43h-3.15Zm10.49.79h1v11.19h-1Zm.56,14.56-.22-.93c1.16,0,2,.07,2.51.07a.78.78,0,0,0,.86-.89V105.82h1v14.69a1.33,1.33,0,0,1-1.51,1.49Z"/><path class="cls-1" d="M152.5,105.67h1V109H160v8.29h-1v-1.21H153.5v6.23h-1v-6.23H147v1.21h-1V109h6.5ZM147,115.13h5.51V110H147Zm6.51,0H159V110H153.5Z"/><path class="cls-1" d="M163.93,108.75h1v13.43h-1Zm2.3-3.13a20.9,20.9,0,0,1,2.21,3.28l-.88.45a18.07,18.07,0,0,0-2.23-3.33Zm1.4,5.08h6.59v8.17h-6.59Zm.94,3.65h4.73V111.6h-4.73ZM173.3,118v-2.76h-4.73V118Zm1.55,4.08-.27-.93,1.59,0c.6,0,.9-.4.9-1.17V107.64H170v-.92H178v13.52c0,1.21-.56,1.81-1.68,1.81Z"/><path class="cls-1" d="M183.83,110.77v1.62a20,20,0,0,1-2.23,9.66l-.72-.63a18.57,18.57,0,0,0,2-9v-5.81h12.83v4.19Zm10.91-3.28H183.83v2.36h10.91Zm-10.11,8.19h12.09v.9h-6.95a19.85,19.85,0,0,1-3.13,4.13q3.93-.27,7.63-.83c-.54-.66-1.12-1.34-1.76-2l.74-.45a34,34,0,0,1,3.47,4.2l-.77.55q-.51-.75-1-1.47-4.6.63-9.46.94l-.24-.87.2-.07c.84-.5,2-1.87,3.35-4.09h-4.12Zm1.24-2.93h9.7v.86h-9.7Z"/><path class="cls-1" d="M202.37,114.12l.94.1-.43,1.12h3.85v.83a7.54,7.54,0,0,1-2.16,3.24,25.88,25.88,0,0,1,2.7,1.33l-.54.77A29.52,29.52,0,0,0,203.8,120a14.56,14.56,0,0,1-4.52,2.09l-.49-.83a14.19,14.19,0,0,0,4-1.71c-.77-.34-1.64-.68-2.61-1,.5-.81.93-1.58,1.29-2.32h-2.28v-.88h2.7Zm-3.11-4.83h3.56v-3.51h.92v3.51h3.4v.88h-3.4v.22a33.55,33.55,0,0,1,3.1,1.91l-.52.77c-1-.8-1.85-1.45-2.58-1.94v2.59h-.92v-3.55h0a8.22,8.22,0,0,1-3.33,3.79l-.5-.82a7.17,7.17,0,0,0,3.09-3h-2.77Zm1.19-3.09a13.27,13.27,0,0,1,1.17,2.25l-.78.34a16.42,16.42,0,0,0-1.22-2.32Zm5.34,10h-3.31a16.34,16.34,0,0,1-1.08,1.93,23.71,23.71,0,0,1,2.22.86A7.72,7.72,0,0,0,205.79,116.22Zm1.12-9.81a11.8,11.8,0,0,1-1.4,2.4l-.74-.38A13.59,13.59,0,0,0,206.1,106Zm2.07,5.75a17.41,17.41,0,0,1-1.19,2.57l-.61-.76a23.28,23.28,0,0,0,2.23-8.28l1,.18c-.12.94-.26,1.85-.43,2.74h4.9v1h-1.28a19.35,19.35,0,0,1-1.64,7.89,11.39,11.39,0,0,0,3.44,3.85l-.56.83a11.92,11.92,0,0,1-3.36-3.78,12.16,12.16,0,0,1-3.44,3.81l-.54-.83a11.09,11.09,0,0,0,3.44-3.94A24.18,24.18,0,0,1,209,112.16Zm.76-2.6c-.12.48-.22.84-.29,1.07a25.67,25.67,0,0,0,1.92,5.77,18.53,18.53,0,0,0,1.26-6.84Z"/><path class="cls-1" d="M217.42,122l-.2-.92c.63,0,1.09.08,1.39.08.49,0,.74-.29.74-.85v-4.79c-.71.27-1.47.52-2.29.77l-.25-1a24.68,24.68,0,0,0,2.54-.77v-4.31H217.1v-1h2.25v-3.49h1v3.49h1.84v1h-1.84v3.93c.61-.28,1.21-.56,1.78-.86v1a17.66,17.66,0,0,1-1.78.85v5.41c0,1-.46,1.46-1.37,1.46Zm6.73-8a20.78,20.78,0,0,1-2.14,8.19l-.75-.66a20,20,0,0,0,2-9.47v-5.45h9.33v4.12h-3.48v2.35h4V114h-4v2.45h3.12v5.74h-.9v-.93H226v.93h-.9v-5.74h3.1V114Zm4-3.27h-3.92l0,2.35h3.94Zm3.49-3.21h-7.41v2.33h7.41ZM226,120.33h5.39v-3H226Z"/><path class="cls-1" d="M241.13,109v12.1h-.94V120h-3.63v1.6h-.94V109h1.62a16.68,16.68,0,0,0,.81-3.22l1,.12a15.49,15.49,0,0,1-.86,3.1Zm-4.57,5h3.63v-4h-3.63Zm0,5.15h3.63V114.8h-3.63ZM250.45,109q0,8.66-.25,10.78a2.23,2.23,0,0,1-2.5,2.16l-1.77,0-.23-.9q1.08.06,1.89.06a1.58,1.58,0,0,0,1.67-1.6c.14-1,.22-4.15.26-9.49h-5.31a15.39,15.39,0,0,1-1.82,3.15l-.58-.76a16,16,0,0,0,2.65-6.62l.95.11a22.39,22.39,0,0,1-.83,3.15ZM244.19,113a30.29,30.29,0,0,1,3.13,4l-.77.55a28.39,28.39,0,0,0-3.15-4Z"/><path class="cls-1" d="M257.44,105.89c-.18,1-.38,1.89-.6,2.75h4.09v.87a20.77,20.77,0,0,1-2.86,8,6.09,6.09,0,0,0,1.56,1.76c1.47,1,3.78,1.56,6.93,1.59.76,0,1.63,0,2.63-.09l-.2,1h-2q-5.47,0-8-1.8a6.51,6.51,0,0,1-1.54-1.69,14.14,14.14,0,0,1-4,3.65l-.52-.91a12.78,12.78,0,0,0,3.94-3.67,21.32,21.32,0,0,1-1.69-4.58,13.53,13.53,0,0,1-1.64,2.5l-.67-.8a18.56,18.56,0,0,0,3.55-8.79Zm.07,10.64a20.56,20.56,0,0,0,2.46-7h-3.4a20.49,20.49,0,0,1-.74,2A22.77,22.77,0,0,0,257.51,116.53Zm6.17-10.69h1v4.59a45,45,0,0,1,4.56,3.78l-.56.86a47.66,47.66,0,0,0-4-3.64v7.89h-1Z"/><path class="cls-1" d="M271.22,112.53h2.06V108H271V107h5.6V108h-2.3v4.57h2.09v.94h-2.09v4.41c.78-.28,1.56-.58,2.34-.92v.94a35.64,35.64,0,0,1-5.65,1.89l-.24-.92c.78-.16,1.64-.38,2.58-.67v-4.73h-2.06Zm6.52-6h8.48v8.12h-3.75v2.46h4.11v.94h-4.11v2.59h4.68v1H276.82v-1h4.68v-2.59h-4.14v-.94h4.14v-2.46h-3.76Zm.95,3.62h2.81v-2.74h-2.81Zm2.81,3.62V111h-2.81v2.76Zm1-6.36v2.74h2.79v-2.74Zm2.79,6.36V111h-2.79v2.76Z"/><path class="cls-1" d="M289.33,110.8h3.26v-2.89c-1,.17-2,.29-2.95.36l-.33-.9a22.47,22.47,0,0,0,6.74-1.39l.46.83a23.3,23.3,0,0,1-3,.9v3.09h3.18v.92h-3.18v1a40.44,40.44,0,0,1,3.22,3.31l-.58.83a38.53,38.53,0,0,0-2.64-3.24v8.44h-.94v-8.64a17.14,17.14,0,0,1-3.31,5.13l-.42-1a14.44,14.44,0,0,0,3.73-5.83h-3.26Zm14.91-3.72v14.38h-1V120h-4.71v1.65h-1V107.08Zm-5.69,12h4.71V108h-4.71Z"/><path class="cls-1" d="M309.73,106c-.18.84-.34,1.48-.47,1.92h2.93v.94H309a20.34,20.34,0,0,1-1.46,3.47l-.76-.48a22.33,22.33,0,0,0,2-6Zm-1.46,5.49h3.56v.88h-1.56V115h2.08v.91h-2.08v4.63a9.68,9.68,0,0,0,1.74-1.12l.18.88a11.86,11.86,0,0,1-2.88,1.5l-.38-.81a.55.55,0,0,0,.38-.54v-4.54h-2.1V115h2.1v-2.58h-1Zm14.94,9.43-.25,1h-2.49l-1.64,0a7.64,7.64,0,0,1-2.16-.34,3.5,3.5,0,0,1-1.58-1.1c-.23-.27-.43-.4-.59-.4-.34,0-.93.7-1.79,2.09l-.57-.72a6,6,0,0,1,2-2.21v-6.37h-1.58v-.91H315v7.31a2.45,2.45,0,0,1,.34.31,3.47,3.47,0,0,0,1.39,1.08,7,7,0,0,0,1.78.34c.91,0,1.59,0,2,0C321.19,121,322.08,121,323.21,120.92Zm-9.88-14.74a25.65,25.65,0,0,1,2,2.81l-.74.52a21.42,21.42,0,0,0-2-2.86ZM316,116h3.48v-2.52h-3.08l-.16-.84a20.81,20.81,0,0,0,1.78-3.93h-1.93v-.88h2.22c.24-.85.43-1.56.57-2.12l.88.2-.54,1.92h3.6v.88h-3.87a24.63,24.63,0,0,1-1.71,3.91h2.24v-2.52h.9v2.52h2.28v.86h-2.28V116h2.77v.88h-2.77v3.21h-.9v-3.21H316Z"/><path class="cls-1" d="M331.65,105.75h1v5.68h6.66v.94h-6.66v8.06H341v1H325.06v-1h6.59Z"/><path class="cls-1" d="M342.85,111.36h3.7v8.35c.72-.54,1.54-1.22,2.45-2l.25,1a23.67,23.67,0,0,1-3.58,2.71l-.38-.86a1,1,0,0,0,.31-.65v-7.59h-2.75Zm1.92-5.41a21.64,21.64,0,0,1,3.15,2.86l-.66.68a21.54,21.54,0,0,0-3.19-2.88Zm14.51,11.25a8.84,8.84,0,0,1-.7,3.58,2.09,2.09,0,0,1-1.95.81H352c-1.07,0-1.6-.56-1.6-1.68v-7.66h6.44v-4.56h-7.4v-.94h8.34v6.43h-6.43v6.43c0,.69.33,1,1,1.06h4.14a1.36,1.36,0,0,0,1.42-.79,9.84,9.84,0,0,0,.44-3Z"/><path class="cls-1" d="M363.13,106.5h10.23v5.87h3.31v.92h-7.29v2.18a14.26,14.26,0,0,0,1.55,1.6,10.22,10.22,0,0,0,3.47-3.17l.76.63a10.76,10.76,0,0,1-3.59,3.1,22.07,22.07,0,0,0,5.17,3.09l-.5.85a19.71,19.71,0,0,1-6.86-5v4.14c0,1-.43,1.44-1.28,1.44h-2.05l-.22-.92c.91,0,1.56.07,1.93.07s.65-.27.65-.82v-3.82a30.87,30.87,0,0,1-6.84,4.79l-.4-.9a28.08,28.08,0,0,0,7.24-4.93v-2.36h-7.06v-.92h11v-2h-8.63v-.87h8.63V107.4h-9.24Zm0,7.69a21.44,21.44,0,0,1,2.81,2.32l-.65.65a18.86,18.86,0,0,0-2.82-2.34Z"/><path class="cls-1" d="M382.3,120.11a3.3,3.3,0,0,1-1.8,3.11l-.38-.63a2.73,2.73,0,0,0,1.37-2.19l-.27,0a1,1,0,0,1-.66-.24.82.82,0,0,1-.26-.64.79.79,0,0,1,.26-.67.83.83,0,0,1,.66-.25C381.94,118.62,382.3,119.12,382.3,120.11Z"/><path class="cls-1" d="M397.57,106.67h14.88v.93h-7v2.18h5.32v6.8H413v.94h-2.16v2.9c0,1.12-.5,1.69-1.51,1.69h-1.69l-.25-1,1.62,0c.57,0,.86-.33.86-1v-2.7h-9.68v4.64h-1v-4.64H397v-.94h2.16v-6.8h5.32V107.6h-6.94Zm2.59,6.46h4.35v-2.45h-4.35Zm0,3.45h4.35V114h-4.35Zm5.33-5.9v2.45h4.35v-2.45Zm0,5.9h4.35V114h-4.35Z"/><path class="cls-1" d="M424.13,120.45q-4.25.89-8.92,1.44L415,121c1.23-.12,2.65-.31,4.29-.56v-3.76h-3.64v-.94h3.64v-2.25h1v2.25h3.42v.94h-3.42v3.6c1.37-.23,2.67-.48,3.9-.76Zm-8.94-13.8h8.87v.93h-4.71a18.72,18.72,0,0,1-2.7,4.43q2.91-.29,5.74-.74c-.39-.63-.88-1.38-1.5-2.23l.76-.47a35.9,35.9,0,0,1,2.79,4.34l-.79.56c-.25-.49-.52-1-.81-1.46q-3.43.6-7.58,1l-.22-.88.38-.09a14.71,14.71,0,0,0,2.92-4.43h-3.15Zm10.49.79h1v11.19h-1Zm.56,14.56-.22-.93c1.16,0,2,.07,2.51.07a.78.78,0,0,0,.86-.89V105.82h1v14.69a1.33,1.33,0,0,1-1.51,1.49Z"/><path class="cls-1" d="M441.27,105.6a17.63,17.63,0,0,1,1,2H449v1H435.49v4.21a21.6,21.6,0,0,1-1.89,9.47l-.81-.74a19.78,19.78,0,0,0,1.73-8.73v-5.16h6.75a14.52,14.52,0,0,0-1.06-1.77Zm-5.2,14.78h7.56a52,52,0,0,0,3-9.67l1,.28a50,50,0,0,1-2.94,9.39h4v1H436.07Zm1.73-8.8a53.87,53.87,0,0,1,2,6.64l-.92.25a55,55,0,0,0-1.89-6.6Zm3.49-1.26a56.45,56.45,0,0,1,1.69,6.86l-.92.23a63.16,63.16,0,0,0-1.62-6.8Z"/><path class="cls-1" d="M453.58,116.21a10.6,10.6,0,0,1-2,5.77l-.72-.66a10.57,10.57,0,0,0,1.83-6.25v-8.53H465.8V120a1.56,1.56,0,0,1-1.76,1.77H462l-.25-1c.72,0,1.38.06,2,.06s1.11-.41,1.11-1.23v-3.43h-5.27v5.36h-1v-5.36Zm.07-4.38v3.46h4.95v-3.46Zm4.94-4.34h-4.94v3.44h4.94Zm6.24,3.44v-3.44h-5.27v3.44Zm0,4.36v-3.46h-5.27v3.46Z"/><path class="cls-1" d="M471.83,110.77v1.62a20,20,0,0,1-2.23,9.66l-.72-.63a18.57,18.57,0,0,0,2-9v-5.81h12.83v4.19Zm10.91-3.28H471.83v2.36h10.91Zm-10.11,8.19h12.09v.9h-7a19.85,19.85,0,0,1-3.13,4.13q3.93-.27,7.63-.83c-.54-.66-1.12-1.34-1.76-2l.74-.45a34,34,0,0,1,3.47,4.2l-.77.55q-.51-.75-1.05-1.47-4.61.63-9.46.94l-.24-.87.2-.07c.84-.5,2-1.87,3.35-4.09h-4.12Zm1.24-2.93h9.7v.86h-9.7Z"/><path class="cls-1" d="M487.35,122l-.22-.93c.72,0,1.24.07,1.55.07s.69-.19.69-.58v-5c-.74.3-1.49.57-2.27.81l-.25-1a18.76,18.76,0,0,0,2.52-.79v-4.34h-2.31v-1h2.31v-3.49h1v3.49h1.94v1h-1.94v3.93c.61-.29,1.18-.58,1.71-.86v1c-.85.42-1.42.69-1.71.82v5.65c0,.81-.44,1.21-1.32,1.21Zm5.15-8h10.24v.9h-4.61v2.33H502v.88h-3.91v2.66a19.39,19.39,0,0,0,2.74.18c.71,0,1.48,0,2.32-.07l-.27,1-2,0a11.42,11.42,0,0,1-4.84-.69,5.31,5.31,0,0,1-2-2.34,10.48,10.48,0,0,1-1.94,3.38l-.72-.64a9.53,9.53,0,0,0,2.34-5.73l.88.11a9.59,9.59,0,0,1-.27,1.86,5,5,0,0,0,2.13,2.59,6.26,6.26,0,0,0,.61.21v-5.67H492.5Zm1.31-7.54h7.71v6.07h-7.71Zm1,2.66h5.77v-1.83h-5.77Zm5.77,2.58v-1.78h-5.77v1.78Z"/><path class="cls-1" d="M507.13,111.62a22.53,22.53,0,0,1-2.23,2.7l-.31-1A20.29,20.29,0,0,0,509,105.6l.9.44a24,24,0,0,1-1.82,4.06v12.08h-1Zm3.06-1.93h2.47v-3.85h1v3.85h3.58v-3.85h1v3.85h2.52v1h-2.52v4.5h3v1h-11.5v-1h2.95v-4.5h-2.47Zm3.85,7.86a18.92,18.92,0,0,1-3.34,4.54l-.85-.59a18.4,18.4,0,0,0,3.31-4.38Zm-.41-2.39h3.58v-4.5h-3.58Zm3.8,1.85A36.54,36.54,0,0,1,521,121.5l-.87.61a31.87,31.87,0,0,0-3.45-4.59Z"/><path class="cls-1" d="M530,111.92a3.56,3.56,0,0,1,.83,2.5v6h-1v-1.79a4.82,4.82,0,0,1-3.95,2,3.38,3.38,0,0,1-2.21-.7,2.43,2.43,0,0,1-.85-1.93,2.75,2.75,0,0,1,1.46-2.59,6.23,6.23,0,0,1,3.12-.67l2.37,0v-.34q0-2.64-2.7-2.64a3.17,3.17,0,0,0-1.94.52,2.23,2.23,0,0,0-1,1.62h-1.06a3.25,3.25,0,0,1,1.32-2.34,4.55,4.55,0,0,1,2.7-.72A3.65,3.65,0,0,1,530,111.92Zm-.25,3.73-2.32,0c-2.35,0-3.53.79-3.53,2.35a1.54,1.54,0,0,0,.6,1.26,2.34,2.34,0,0,0,1.58.49,3.85,3.85,0,0,0,2.59-1,2.77,2.77,0,0,0,1.08-2.07Z"/><path class="cls-1" d="M540.5,112.35a5.5,5.5,0,0,1,1,3.44,5.57,5.57,0,0,1-1,3.4,3.72,3.72,0,0,1-3.11,1.48,3.4,3.4,0,0,1-3.26-2.2V124h-1.08V111.11h1V113a3.4,3.4,0,0,1,3.27-2.09A3.74,3.74,0,0,1,540.5,112.35Zm-5.61.61a4.52,4.52,0,0,0-.78,2.76v.2a4.37,4.37,0,0,0,.83,2.75,2.74,2.74,0,0,0,2.27,1.08,2.91,2.91,0,0,0,2.45-1.15,4.77,4.77,0,0,0,.75-2.81,4.86,4.86,0,0,0-.73-2.81,2.84,2.84,0,0,0-2.44-1.2A2.72,2.72,0,0,0,534.89,113Z"/><path class="cls-1" d="M545.17,108a.77.77,0,0,1,.27.63.91.91,0,0,1-.29.65.94.94,0,0,1-.63.25.87.87,0,0,1-.65-.25.88.88,0,0,1-.27-.65.77.77,0,0,1,.27-.63.85.85,0,0,1,.65-.27A.89.89,0,0,1,545.17,108ZM544,111.11h1.08v9.31H544Z"/><path class="cls-1" d="M548.06,110.8h3.26v-2.89c-1,.17-2,.29-3,.36l-.32-.9a22.47,22.47,0,0,0,6.73-1.39l.46.83a22.83,22.83,0,0,1-3,.9v3.09h3.18v.92h-3.18v1a40.44,40.44,0,0,1,3.22,3.31l-.58.83a38.53,38.53,0,0,0-2.64-3.24v8.44h-.94v-8.64a17.14,17.14,0,0,1-3.31,5.13l-.41-1a14.52,14.52,0,0,0,3.72-5.83h-3.26ZM563,107.08v14.38h-1V120h-4.71v1.65h-1V107.08Zm-5.69,12H562V108h-4.71Z"/><path class="cls-1" d="M572.74,113.72h-1.06a2.21,2.21,0,0,0-.77-1.42,3.67,3.67,0,0,0-3.57-.09,1.23,1.23,0,0,0,.18,2.25,12.44,12.44,0,0,0,2,.65,9.14,9.14,0,0,1,2.42.86,2.11,2.11,0,0,1,1.11,1.87q0,2.84-3.78,2.83-3.59,0-3.91-3.19h1.07a2.5,2.5,0,0,0,.86,1.77,3.26,3.26,0,0,0,2,.48c1.79,0,2.7-.61,2.7-1.83a1.41,1.41,0,0,0-.92-1.3,13,13,0,0,0-2.07-.65,9,9,0,0,1-2.27-.82,2,2,0,0,1-1.06-1.79,2.08,2.08,0,0,1,1-1.81,4.17,4.17,0,0,1,2.45-.67Q572.35,110.86,572.74,113.72Z"/><path class="cls-1" d="M581.76,107.31h1.08v13.11h-1v-1.84a3.34,3.34,0,0,1-3.25,2.09,3.75,3.75,0,0,1-3.15-1.48,6.19,6.19,0,0,1,0-6.84,3.64,3.64,0,0,1,3.09-1.49,3.41,3.41,0,0,1,3.26,2.21ZM576.25,113a4.55,4.55,0,0,0-.77,2.79,4.75,4.75,0,0,0,.75,2.81,2.8,2.8,0,0,0,2.43,1.19A2.75,2.75,0,0,0,581,118.6a4.49,4.49,0,0,0,.78-2.7v-.22a4.55,4.55,0,0,0-.83-2.79,2.71,2.71,0,0,0-2.27-1.11A2.85,2.85,0,0,0,576.25,113Z"/><path class="cls-1" d="M585.11,107.31h1.08v8.5l5.16-4.7h1.48l-4.09,3.69,4.5,5.62h-1.42L588,115.5l-1.78,1.62v3.3h-1.08Z"/><path class="cls-1" d="M597.54,120.11a3.28,3.28,0,0,1-1.8,3.11l-.37-.63a2.75,2.75,0,0,0,1.37-2.19l-.28,0a1,1,0,0,1-.66-.24.81.81,0,0,1-.25-.64.79.79,0,0,1,.25-.67.85.85,0,0,1,.66-.25C597.19,118.62,597.54,119.12,597.54,120.11Z"/><path class="cls-1" d="M618.8,105.75h1v1.85c0,1-.07,1.93-.13,2.68h7.47c0,5-.23,8.28-.68,9.67a2.57,2.57,0,0,1-2.49,2.07c-.85,0-1.56,0-2.14-.06l-.27-.95c.86.07,1.65.11,2.36.11,1.14-.08,1.8-1.15,2-3.19s.25-4.35.25-6.68h-6.57A19.54,19.54,0,0,1,618,117a11.34,11.34,0,0,1-5.28,5.13l-.54-.86a10.76,10.76,0,0,0,5.13-5.08,18.54,18.54,0,0,0,1.23-4.92h-5.74v-1h5.85c.06-.78.1-1.67.12-2.68Zm-4.37.48a22.86,22.86,0,0,1,2.45,2.92l-.8.52a23.51,23.51,0,0,0-2.41-2.9Zm6.21,7.6a31.55,31.55,0,0,1,3.1,3.83l-.85.58a29.37,29.37,0,0,0-3-3.91Z"/><path class="cls-1" d="M631.31,106.92h13.9v1h-3.1V113h4v1h-4V122h-1v-8.1h-5.53a14.57,14.57,0,0,1-1,4.69,7.45,7.45,0,0,1-3.37,3.5l-.56-.83a7,7,0,0,0,3.17-3.4,14.68,14.68,0,0,0,.81-4h-4.3v-1h4.36v-5.11h-3.4Zm4.38,1v4.72l0,.39h5.47v-5.11Z"/><path class="cls-1" d="M649.51,111.08l1.42-4.79,1,.14-1.14,3.73h3.53a41.21,41.21,0,0,0,.92-4.58l1,.11q-.42,2.58-.9,4.47h8.55v.92h-8.81c-.27.92-.53,1.71-.79,2.35h7.47v.85a9.35,9.35,0,0,1-3.13,4.37,27.42,27.42,0,0,0,5.6,2.6l-.49.89a26.37,26.37,0,0,1-5.9-2.88,25.71,25.71,0,0,1-5.67,2.94l-.51-.9a24.46,24.46,0,0,0,5.35-2.63,10.18,10.18,0,0,1-3.28-3.91,19.07,19.07,0,0,1-5.16,7.08l-.51-.9a20.49,20.49,0,0,0,6-9.86Zm5,3.25a9.36,9.36,0,0,0,3.29,3.76,9.11,9.11,0,0,0,3-3.76Zm4.75-8.49a21.88,21.88,0,0,1,3.28,3l-.71.7a19.77,19.77,0,0,0-3.23-3.11Z"/><path class="cls-1" d="M668,107.73h5v-2h1v2h4.49v.91H674v2.44h2.42a24.05,24.05,0,0,0,4.57-4.18l.74.56a25.43,25.43,0,0,1-3.73,3.62h4.3V112h-5.59l-.91.58c-1,.58-2.09,1.14-3.25,1.67h7.38v7.94h-1v-.88h-8.23v.88h-1v-6.81c-1.25.45-2.32.8-3.2,1l-.4-.9a31.11,31.11,0,0,0,8.55-3.35l.29-.18H666.3v-.93H673v-2.44h-5Zm10.89,9.59v-2.18h-8.23v2.18Zm-8.23.86v2.24h8.23v-2.24Z"/><path class="cls-1" d="M684.57,110.8h3.26v-2.89c-1,.17-2,.29-3,.36l-.32-.9a22.41,22.41,0,0,0,6.73-1.39l.47.83a23.43,23.43,0,0,1-3,.9v3.09H692v.92h-3.18v1a40.44,40.44,0,0,1,3.22,3.31l-.58.83a36.64,36.64,0,0,0-2.64-3.24v8.44h-.94v-8.64a17.14,17.14,0,0,1-3.31,5.13l-.41-1a14.52,14.52,0,0,0,3.72-5.83h-3.26Zm14.91-3.72v14.38h-1V120h-4.72v1.65h-.95V107.08Zm-5.69,12h4.72V108h-4.72Z"/><path class="cls-1" d="M704.82,116.21a10.44,10.44,0,0,1-2,5.77l-.72-.66a10.64,10.64,0,0,0,1.84-6.25v-8.53h13.14V120a1.56,1.56,0,0,1-1.77,1.77h-2.07l-.25-1c.72,0,1.39.06,2,.06s1.11-.41,1.11-1.23v-3.43H710.8v5.36h-1v-5.36Zm.08-4.38v3.31l0,.15h5v-3.46Zm4.93-4.34H704.9v3.44h4.93Zm6.24,3.44v-3.44H710.8v3.44Zm0,4.36v-3.46H710.8v3.46Z"/><path class="cls-1" d="M723.19,113.87a14.93,14.93,0,0,1-2.58,8.38l-.74-.66a13.21,13.21,0,0,0,2.36-8v-5.49h5.94a13.37,13.37,0,0,0-1.08-2.21l1-.18a19.07,19.07,0,0,1,1,2.39h5.69v5.82ZM733.84,109H723.19v3.89h10.65Z"/><path class="cls-1" d="M742,122.11h-1v-9.76a19.71,19.71,0,0,1-2.68,5.46l-.41-1a17,17,0,0,0,3-6.42h-2.65v-1H741v-3.62h1v3.62h2.33v1H742v1.28c.87.91,1.75,1.93,2.65,3.07l-.56.81a29.61,29.61,0,0,0-2.09-2.84Zm5.8-16.27a18.58,18.58,0,0,1-.58,2.64h6.4c0,6.1-.11,9.87-.31,11.32a2.23,2.23,0,0,1-2.41,2.2l-1.95,0-.21-.87c.75,0,1.42.06,2,.06a1.57,1.57,0,0,0,1.65-1.48c.17-1.12.26-4.53.29-10.26h-5.74a15.85,15.85,0,0,1-1.86,3.78l-.63-.81a16.81,16.81,0,0,0,2.4-6.64Zm-2.72,11.57c.51-.29,1.41-2.25,2.7-5.9l.89.32a38.75,38.75,0,0,1-2.22,5.28c1.52-.32,2.65-.56,3.38-.74-.2-.59-.49-1.33-.88-2.24l.85-.26a37.48,37.48,0,0,1,1.62,4.53l-.85.4c-.15-.6-.32-1.16-.48-1.68-1.41.38-3,.74-4.81,1.08Z"/><path class="cls-1" d="M772.36,120.78l-.18.93h-5.36c-3.2,0-5.48-.47-6.86-1.42a4.67,4.67,0,0,1-.74-.68A10.56,10.56,0,0,1,757,122l-.63-.8a8.35,8.35,0,0,0,2.23-2.33,12.67,12.67,0,0,1-1.75-3.92l.82-.31a14.41,14.41,0,0,0,1.4,3.4,12.74,12.74,0,0,0,1.19-5h-3.37v-.75a40.73,40.73,0,0,0,3-4.57h-3.17v-.94H761v.81a42.79,42.79,0,0,1-2.86,4.56h3v.61a13.36,13.36,0,0,1-1.49,6.1,4.38,4.38,0,0,0,1,.88,12.38,12.38,0,0,0,5.67,1.1Q768.26,120.85,772.36,120.78ZM770.83,113H767v1.66h4.34v.84H767v1.79h4.84v.84H767v2h-1v-2h-4.2v-.84H766V115.5h-3.66v-.84H766V113h-3.28v-.86H766v-1.68h-4.16v-.83H766v-1.69h-3.28v-.84H766v-1.37h1v1.37h3.85v2.53h1.32v.83h-1.32ZM767,107.94v1.69h2.92v-1.69Zm0,2.52v1.68h2.92v-1.68Z"/><path class="cls-1" d="M782.6,105.73a15.75,15.75,0,0,1,.89,1.76h6.67v.94H776.74v4.25a21.84,21.84,0,0,1-1.91,9.41l-.74-.67c1.07-2.08,1.62-5,1.67-8.74v-5.19h6.73a10.35,10.35,0,0,0-.9-1.58Zm-2.79,9.57v5.3a21.56,21.56,0,0,0,2.18-.67l.18.92c-1,.29-2.14.6-3.55.94l-.19-.87c.28-.07.43-.21.43-.43v-9.72a74.07,74.07,0,0,0,9.67-1.15l.48.81c-1.25.24-2.65.46-4.19.66.1,1.19.24,2.28.41,3.28h4.47v.93h-4.31c.15.73.29,1.34.43,1.86a9.46,9.46,0,0,0,1.34,2.83c.49.62.91.93,1.28.93s.64-.9,1-2.59l.79.52c-.49,2.07-1.05,3.1-1.67,3.1a2.48,2.48,0,0,1-1.75-1.07,10.19,10.19,0,0,1-1.69-3.11,18.79,18.79,0,0,1-.63-2.47Zm0-3.72v2.79h4.48c-.15-.92-.3-2-.43-3.17C782.55,111.34,781.2,111.47,779.81,111.58Zm3.24,6.79a24.33,24.33,0,0,1,2.09,2.95l-.76.56a21.13,21.13,0,0,0-2-3Z"/><path class="cls-1" d="M795.08,110.77v1.62a20.16,20.16,0,0,1-2.24,9.66l-.72-.63a18.57,18.57,0,0,0,2-9v-5.81H807v4.19ZM806,107.49H795.08v2.36H806Zm-10.12,8.19H808v.9H801a19.82,19.82,0,0,1-3.14,4.13c2.62-.18,5.16-.46,7.64-.83q-.81-1-1.77-2l.74-.45a34,34,0,0,1,3.47,4.2l-.77.55c-.33-.5-.68-1-1-1.47-3.08.42-6.23.73-9.47.94l-.23-.87.19-.07c.84-.5,2-1.87,3.35-4.09h-4.12Zm1.24-2.93h9.7v.86h-9.7Z"/><path class="cls-1" d="M813.62,114.12l.93.1-.43,1.12H818v.83a7.54,7.54,0,0,1-2.16,3.24,25.88,25.88,0,0,1,2.7,1.33l-.54.77A28.46,28.46,0,0,0,815,120a14.45,14.45,0,0,1-4.52,2.09l-.49-.83a14.07,14.07,0,0,0,4-1.71c-.77-.34-1.64-.68-2.61-1,.5-.81.93-1.58,1.3-2.32h-2.29v-.88h2.7Zm-3.12-4.83h3.57v-3.51H815v3.51h3.4v.88H815v.22a34.74,34.74,0,0,1,3.09,1.91l-.52.77c-1-.8-1.84-1.45-2.57-1.94v2.59h-.92v-3.55H814a8.11,8.11,0,0,1-3.33,3.79l-.5-.82a7.2,7.2,0,0,0,3.1-3H810.5Zm1.19-3.09a12,12,0,0,1,1.17,2.25l-.77.34a16.45,16.45,0,0,0-1.23-2.32Zm5.35,10h-3.31a17.9,17.9,0,0,1-1.08,1.93c.75.25,1.49.54,2.21.86A7.75,7.75,0,0,0,817,116.22Zm1.11-9.81a11.35,11.35,0,0,1-1.4,2.4l-.74-.38a13,13,0,0,0,1.33-2.39Zm2.07,5.75a17.41,17.41,0,0,1-1.19,2.57l-.61-.76a23.47,23.47,0,0,0,2.24-8.28l1,.18c-.12.94-.27,1.85-.43,2.74h4.89v1h-1.28a19.19,19.19,0,0,1-1.64,7.89,11.39,11.39,0,0,0,3.44,3.85l-.56.83a12,12,0,0,1-3.36-3.78,12,12,0,0,1-3.44,3.81l-.54-.83a11.09,11.09,0,0,0,3.44-3.94A24.18,24.18,0,0,1,820.22,112.16Zm.76-2.6c-.12.48-.22.84-.29,1.07a25.17,25.17,0,0,0,1.93,5.77,19,19,0,0,0,1.26-6.84Z"/><path class="cls-1" d="M828.66,122l-.19-.92c.62,0,1.08.08,1.38.08.49,0,.74-.29.74-.85v-4.79c-.71.27-1.47.52-2.29.77l-.25-1a24.68,24.68,0,0,0,2.54-.77v-4.31h-2.25v-1h2.25v-3.49h1v3.49h1.84v1h-1.84v3.93c.61-.28,1.21-.56,1.78-.86v1a16.68,16.68,0,0,1-1.78.85v5.41c0,1-.45,1.46-1.36,1.46Zm6.74-8a20.78,20.78,0,0,1-2.15,8.19l-.75-.66a20.15,20.15,0,0,0,2-9.47v-5.45h9.32v4.12h-3.48v2.35h4V114h-4v2.45h3.12v5.74h-.9v-.93H837.2v.93h-.9v-5.74h3.09V114Zm4-3.27h-3.92l0,2.35h3.94Zm3.49-3.21h-7.41v2.33h7.41Zm-5.68,12.84h5.38v-3H837.2Z"/><path class="cls-1" d="M846.34,116.47h11.12v.94H846.34Zm4.41-7.36-.32,3.17h10c0,4.93-.26,7.8-.77,8.59S858,122,856.35,122c-.79,0-1.62,0-2.49,0l-.27-.88,2.54.07c1.61,0,2.57-.38,2.86-1.14s.51-3.08.51-6.8H849.31l.83-7.53,1,.08-.25,2.43h10.3v.93Z"/><path class="cls-1" d="M870.89,105.75h1v5.68h6.66v.94H871.9v8.06h8.34v1H864.3v-1h6.59Z"/><path class="cls-1" d="M3.83,138.77v1.62a20,20,0,0,1-2.23,9.66l-.72-.63a18.57,18.57,0,0,0,2-9v-5.81H15.71v4.19Zm10.91-3.28H3.83v2.36H14.74ZM4.63,143.68H16.72v.9H9.77a19.85,19.85,0,0,1-3.13,4.13q3.93-.27,7.63-.83c-.54-.66-1.12-1.34-1.76-2l.74-.45a34,34,0,0,1,3.47,4.2l-.77.55q-.51-.75-1-1.47-4.61.63-9.46.94l-.24-.87.2-.07c.84-.5,2-1.87,3.35-4.09H4.63Zm1.24-2.93h9.7v.86H5.87Z"/><path class="cls-1" d="M27.27,133.6a17.63,17.63,0,0,1,1,2H35v.95H21.49v4.21a21.6,21.6,0,0,1-1.89,9.47l-.81-.74a19.78,19.78,0,0,0,1.73-8.73v-5.16h6.75a14.52,14.52,0,0,0-1.06-1.77Zm-5.2,14.78h7.56a52,52,0,0,0,3-9.67l1,.28a50,50,0,0,1-2.94,9.39h4v1H22.07Zm1.73-8.8a53.87,53.87,0,0,1,2,6.64l-.92.25a55,55,0,0,0-1.89-6.6Zm3.49-1.26A56.45,56.45,0,0,1,29,145.18l-.92.23a63.16,63.16,0,0,0-1.62-6.8Z"/><path class="cls-1" d="M39.58,144.21a10.6,10.6,0,0,1-2,5.77l-.72-.66a10.57,10.57,0,0,0,1.83-6.25v-8.53H51.8V148A1.56,1.56,0,0,1,50,149.77H48l-.25-1c.72,0,1.38.06,2,.06s1.11-.41,1.11-1.23v-3.43H45.56v5.36h-1v-5.36Zm.07-4.38v3.46h5v-3.46Zm4.94-4.34H39.65v3.44h4.94Zm6.24,3.44v-3.44H45.56v3.44Zm0,4.36v-3.46H45.56v3.46Z"/><path class="cls-1" d="M61.13,137v12.1h-.94V148H56.56v1.6h-.94V137h1.62a16.68,16.68,0,0,0,.81-3.22l1,.12a15.49,15.49,0,0,1-.86,3.1Zm-4.57,4.95h3.63v-4H56.56Zm0,5.15h3.63V142.8H56.56ZM70.45,137q0,8.65-.25,10.78a2.23,2.23,0,0,1-2.5,2.16l-1.77,0-.23-.9q1.08.06,1.89.06a1.58,1.58,0,0,0,1.67-1.6c.14-1,.22-4.15.26-9.49H64.21a15.39,15.39,0,0,1-1.82,3.15l-.58-.76a16,16,0,0,0,2.65-6.62l1,.11a22.39,22.39,0,0,1-.83,3.15Zm-6.26,4a30.29,30.29,0,0,1,3.13,4l-.77.55a28.39,28.39,0,0,0-3.15-4Z"/><path class="cls-1" d="M76.32,150.11h-.94v-9.43a21.37,21.37,0,0,1-2.28,5.2l-.43-1a18.43,18.43,0,0,0,2.7-6.49H73v-1h2.35v-3.62h.94v3.62h2.05v1H76.32v1.17c.7.84,1.47,1.85,2.32,3l-.52.77c-.67-1.12-1.27-2-1.8-2.77ZM82,143.54a8.93,8.93,0,0,1-3,6.62l-.75-.65a8,8,0,0,0,2.79-6v-1.48H82Zm-2.19-7.62-.31-.86a22.6,22.6,0,0,0,7.94-1.24l.47.81a16.22,16.22,0,0,1-3.87,1,18.37,18.37,0,0,1-.61,2.48h5.2V139H85.46a8.66,8.66,0,0,0,3.78,3.89l-.41.86A9.79,9.79,0,0,1,84.55,139H83.12c-.15.35-.33.71-.54,1.1A11.68,11.68,0,0,1,79,143.79l-.57-.75a9.74,9.74,0,0,0,3.47-3.53l.23-.47H79v-.92h3.53a16,16,0,0,0,.6-2.36A30.28,30.28,0,0,1,79.85,135.92Zm5.27,6.14h1v8.07h-1Z"/><path class="cls-1" d="M91.3,144h7.25v-1.82h1V144h7.24v.92h-6a13.13,13.13,0,0,0,6.44,4.27l-.47,1q-4.89-2-6.8-5.22h-.38v5.29h-1v-5.29h-.41c-1.1,2-3.32,3.73-6.66,5.2l-.56-.92q4.8-1.84,6.39-4.28h-6Zm4.14-4a15.2,15.2,0,0,1-3.82,2.9l-.59-.76a14.83,14.83,0,0,0,3.76-2.71Zm-3.89-3.45a17.08,17.08,0,0,1,2.9,1.47l-.51.78a13.13,13.13,0,0,0-2.88-1.5Zm.92-2.63a14.75,14.75,0,0,1,3.27,1.84l-.48.75a16,16,0,0,0-3.3-1.87Zm4.15,1.6v-.9h7.91a51.45,51.45,0,0,1-.27,6,1.73,1.73,0,0,1-.8,1.21,6.27,6.27,0,0,1-2.34.29h-.43l-.29-.87,1,0a2.87,2.87,0,0,0,1.55-.29,1.57,1.57,0,0,0,.47-1c.07-.5.13-2,.16-4.46h-2.36a12,12,0,0,1-1.62,4.14,10.61,10.61,0,0,1-3.67,3l-.59-.75a10.85,10.85,0,0,0,3.42-2.6,10.07,10.07,0,0,0,1.58-3.76Zm1.66,1.33a11.38,11.38,0,0,1-1.73,2.56L95.8,139a11.14,11.14,0,0,0,1.74-2.47Zm7.34.06a22.47,22.47,0,0,1,1.68,4l-.78.21a23.14,23.14,0,0,0-1.69-3.94Z"/><path class="cls-1" d="M112.3,148.11a3.3,3.3,0,0,1-1.8,3.11l-.38-.63a2.73,2.73,0,0,0,1.37-2.19l-.27,0a1,1,0,0,1-.66-.24.82.82,0,0,1-.26-.64.79.79,0,0,1,.26-.67.83.83,0,0,1,.66-.25C111.94,146.62,112.3,147.12,112.3,148.11Z"/><path class="cls-1" d="M129.73,142.53a24.87,24.87,0,0,1-2.43,2.3l-.63-.79a21.37,21.37,0,0,0,5.52-6.76H127.3v-1h5.34c.35-.83.67-1.71,1-2.66l1,.1a19.22,19.22,0,0,1-.9,2.56h9.24v1h-9.67a22.43,22.43,0,0,1-2.57,4.1v8.84h-1Zm2.77-.29h4.28v-3.47h1v3.47h4.38v1h-4.38v5.39H143v1H131.71v-1h5.07v-5.39H132.5Z"/><path class="cls-1" d="M146.93,139.62a24,24,0,0,1-2,2.66l-.33-1a21.22,21.22,0,0,0,4-7.65l.92.44a23.22,23.22,0,0,1-1.6,3.92v12.26h-1Zm2.67-3.33h11.63v.93H149.6ZM160,144.13v6h-1v-1h-7.07v1h-1v-6Zm-8.7-5.18h8.39v.88h-8.39Zm0,2.54h8.39v.9h-8.39Zm.67,6.75H159v-3.19h-7.07Zm3.31-14.53a14.57,14.57,0,0,1,.92,2.11l-.87.34a13.07,13.07,0,0,0-1-2.2Z"/><path class="cls-1" d="M165.62,145.29a15.41,15.41,0,0,1-1.86,4.28L163,149a11.69,11.69,0,0,0,1.73-3.92Zm-.09-10.1h3.94a6.53,6.53,0,0,0,.61-1.52l1,.15a6.88,6.88,0,0,1-.58,1.37h6.11v8.56H165.53Zm.95,2.59h9.18V136h-9.18Zm0,2.52h9.18v-1.69h-9.18Zm9.18,2.59v-1.78h-9.18v1.78Zm-7.18,7c-.91,0-1.37-.43-1.37-1.29V145h1v3.38a.58.58,0,0,0,.65.65H173a1.22,1.22,0,0,0,1-.31,4.45,4.45,0,0,0,.48-2.3l.94.3a4.88,4.88,0,0,1-.72,2.76,2.24,2.24,0,0,1-1.48.41Zm2.11-5.51a22.92,22.92,0,0,1,2.37,2.54l-.74.53a20.85,20.85,0,0,0-2.35-2.62Zm5.83.42a31.91,31.91,0,0,1,2.81,3.91l-.78.54a27.84,27.84,0,0,0-2.79-4Z"/><path class="cls-1" d="M193.09,141.45a16.17,16.17,0,0,1-3.3,4.39,20.65,20.65,0,0,0,7.29,3.37l-.57.9a21.09,21.09,0,0,1-7.46-3.6,18.6,18.6,0,0,1-7.45,3.67l-.59-.86a19.15,19.15,0,0,0,7.29-3.44,15.07,15.07,0,0,1-3.37-4.2l.85-.48a13.88,13.88,0,0,0,3.26,4,14.52,14.52,0,0,0,3.15-4.18Zm-12-5.44h7.63a13.22,13.22,0,0,0-1.12-2.19l1.07-.18a14.75,14.75,0,0,1,1.09,2.37h7.15v.92H181.1Zm5.76,2.36a20.94,20.94,0,0,1-5.08,4.67l-.63-.82a19.85,19.85,0,0,0,5-4.5Zm4.89-.65a35.49,35.49,0,0,1,5,4.83l-.72.7a34.77,34.77,0,0,0-5-4.88Z"/><path class="cls-1" d="M199.3,150l-.22-.91c.49,0,.95,0,1.39,0s.79-.29.79-.86v-4.68c-.83.32-1.62.59-2.36.81l-.25-1a26.08,26.08,0,0,0,2.61-.81v-4.46H199v-1h2.27v-3.39h1v3.39h2v1h-2v4.07c.61-.28,1.3-.61,2.05-1v1c-.61.33-1.29.66-2.05,1v5.33c0,1-.47,1.49-1.42,1.49ZM214,138.8v4.9h1.21v.94h-4.72a10.18,10.18,0,0,0,4.79,4.66l-.43.92a11.56,11.56,0,0,1-5.24-5.49q-1,3.32-5.2,5.47l-.65-.79q3.81-1.86,4.89-4.77H204.3v-.94h1.37v-4.9h4a20.22,20.22,0,0,0,1.75-2.75H208a11.68,11.68,0,0,1-2.95,2.86l-.59-.75a9.37,9.37,0,0,0,3.78-4.52l.95.11a9.13,9.13,0,0,1-.65,1.46h4v.71a22,22,0,0,1-1.74,2.88Zm-7.45,4.9h2.37a22.44,22.44,0,0,0,.4-4h-2.77Zm6.55,0v-4h-2.86a22.81,22.81,0,0,1-.38,4Z"/><path class="cls-1" d="M217.33,138.8h3.26v-2.89c-1,.17-2,.29-3,.36l-.33-.9a22.47,22.47,0,0,0,6.74-1.39l.46.83a23.3,23.3,0,0,1-3,.9v3.09h3.18v.92h-3.18v1a40.44,40.44,0,0,1,3.22,3.31l-.58.83a38.53,38.53,0,0,0-2.64-3.24v8.44h-.94v-8.64a17.14,17.14,0,0,1-3.31,5.13l-.42-1a14.44,14.44,0,0,0,3.73-5.83h-3.26Zm14.91-3.72v14.38h-1V148h-4.71v1.65h-1V135.08Zm-5.69,12h4.71V136h-4.71Z"/><path class="cls-1" d="M237.19,139.45a24,24,0,0,1-2.15,2.76l-.3-1a20.06,20.06,0,0,0,4-7.38l.9.41a21.43,21.43,0,0,1-1.46,3.55v12.4h-1Zm8.22-5.63a16.27,16.27,0,0,0,5.91,6.5l-.54.82a16.5,16.5,0,0,1-5.8-6.35,17.76,17.76,0,0,1-5.56,6.57l-.54-.83a17.5,17.5,0,0,0,5.69-6.71Zm-3.17,6.26h1v2.74q-.06,5-2.68,7.38l-.74-.65q2.41-2.09,2.46-6.73ZM247,140h.95v10H247Z"/><path class="cls-1" d="M255.37,139.25a21.33,21.33,0,0,1-2.22,3.05l-.32-1a20.84,20.84,0,0,0,3.92-7.56l.88.42a25.82,25.82,0,0,1-1.29,3.31v12.78h-1Zm7.5-5.47h1v1.77h4.76v.9h-4.76v1.71h3.51v10.55h1.82v.91H257.33v-.91h1.91V138.16h3.63v-1.71H258.1v-.9h4.77Zm-2.7,7.15h6.25v-1.87h-6.25Zm0,2.59h6.25v-1.76h-6.25Zm0,2.59h6.25v-1.76h-6.25Zm0,2.6h6.25v-1.79h-6.25Z"/><path class="cls-1" d="M274.5,138.68h.95v2.9h2.11v.88h-2.11v2.79c.94-.22,1.82-.43,2.65-.65v.94c-.92.25-1.81.46-2.65.63v4h-.95v-3.77c-1.19.21-2.4.41-3.64.59l-.14-1c1.43-.18,2.69-.37,3.78-.56v-3h-3.11l-.24-.88a28.17,28.17,0,0,0,1.57-4.41h-2v-.94H273l.56-2.52.93.13c-.2,1-.38,1.75-.54,2.39h3.57v.94h-3.8a35.84,35.84,0,0,1-1.51,4.41h2.32Zm3.89-2.45h2.91c.18-.86.35-1.73.49-2.59l.95.09-.45,2.5h4.5v.94h-4.68c-.16.79-.34,1.59-.54,2.39h5.69v.92h-5.92c-.17.61-.43,1.47-.77,2.57h5.83v.83a13.06,13.06,0,0,1-2.94,3.83,25.71,25.71,0,0,1,2.29,1.55l-.56.85a26.62,26.62,0,0,0-5.87-3.46l.54-.79a25.73,25.73,0,0,1,2.78,1.39,13.33,13.33,0,0,0,2.77-3.3h-6.09c.34-1,.68-2.21,1-3.47h-2.47v-.92h2.7c.21-.84.39-1.64.54-2.39h-2.73Z"/><path class="cls-1" d="M289.06,135.08a28.27,28.27,0,0,0,5.8-1.13l.34.91c-.94.27-1.73.47-2.38.61v3.32h2.49v1h-2.49v1.12a30.61,30.61,0,0,1,2.63,2.46l-.54.8a28.32,28.32,0,0,0-2.09-2.4v8.39h-1v-8.62a16.62,16.62,0,0,1-2.82,5l-.42-1a14.52,14.52,0,0,0,3.17-5.69H289v-1h2.84v-3.13c-.67.1-1.54.22-2.61.34Zm13.48,5.9a7,7,0,0,1-1.22,1.46h3.82v.85q-1.68,4.8-9.9,6.82l-.51-.9a21.35,21.35,0,0,0,5.33-1.85c-.55-.58-1.13-1.16-1.73-1.73l.7-.51a23.78,23.78,0,0,1,1.82,1.79,8.06,8.06,0,0,0,3.26-3.57h-4a15.11,15.11,0,0,1-4.52,1.89l-.57-.88c3.16-.76,5.37-2,6.6-3.76Zm-2-7.09a15.92,15.92,0,0,1-.91,1.35h4.26V136q-1.56,4.2-8,6l-.52-.71a16.8,16.8,0,0,0,3.85-1.5,9.5,9.5,0,0,0-1.44-1.64l.69-.52a8.65,8.65,0,0,1,1.46,1.75,8.69,8.69,0,0,0,3-3.33h-4a12.9,12.9,0,0,1-2.92,2.19l-.65-.77a11.3,11.3,0,0,0,4.27-3.84Z"/><path class="cls-1" d="M313.65,133.75h1v5.68h6.66v.94h-6.66v8.06H323v1H307.06v-1h6.59Z"/><path class="cls-1" d="M326.27,139.08l1.42-4.79,1,.14-1.13,3.73h3.53a39.06,39.06,0,0,0,.91-4.58l1,.11q-.4,2.58-.9,4.47h8.55v.92h-8.8c-.27.92-.54,1.71-.79,2.35h7.47v.85a9.42,9.42,0,0,1-3.13,4.37,27.42,27.42,0,0,0,5.6,2.6l-.49.89a26.37,26.37,0,0,1-5.9-2.88,25.71,25.71,0,0,1-5.67,2.94l-.51-.9a24.46,24.46,0,0,0,5.35-2.63,10.09,10.09,0,0,1-3.28-3.91,19.07,19.07,0,0,1-5.16,7.08l-.51-.9a20.4,20.4,0,0,0,6-9.86Zm5,3.25a9.36,9.36,0,0,0,3.29,3.76,9.11,9.11,0,0,0,3-3.76Zm4.75-8.49a21.77,21.77,0,0,1,3.27,3l-.7.7a19.47,19.47,0,0,0-3.24-3.11Z"/><path class="cls-1" d="M343.3,150l-.22-.91c.5,0,1,0,1.42,0s.78-.32.78-.95V143.5a23.21,23.21,0,0,1-2.38.87l-.25-1a25.14,25.14,0,0,0,2.63-.84v-4.43H343v-1h2.31v-3.39h1v3.39h2v1h-2v4a21.91,21.91,0,0,0,2.19-1.13v1c-.75.42-1.48.79-2.19,1.12v5.31q0,1.56-1.41,1.56Zm10.18-13.48c-.26.85-.49,1.52-.68,2h5.74v.9h-6.1a18,18,0,0,1-1.84,3.35h3.1v-2.36h1v2.36h3.48v.85h-3.48V146H359v.92h-4.34v3.31h-1v-3.31h-5.35V146h5.35v-2.41h-4l-.2-.8a16,16,0,0,0,2-3.4h-2.25v-.9h2.63c.25-.63.5-1.36.76-2.17Zm4.94-1.94v2.88h-.92v-2h-7.27v2h-.92v-2.88Z"/><path class="cls-1" d="M361.82,135.37H366a8.43,8.43,0,0,0-.92-1.62l1-.18a12.52,12.52,0,0,1,.9,1.8h4.28a6.47,6.47,0,0,0,.92-1.84l1,.13a6.6,6.6,0,0,1-.93,1.71h4v.86h-7c-.13.51-.27,1-.43,1.44h6.59v.83h-6.9a13.63,13.63,0,0,1-.72,1.42h9.35v.85h-9.89a14.54,14.54,0,0,1-1.15,1.42h9v8h-.95v-.72h-8.48v.72h-.95v-6.71a18.51,18.51,0,0,1-3.41,2.14l-.43-.87a13.4,13.4,0,0,0,5.29-4H361v-.85h5.71a13.38,13.38,0,0,0,.77-1.42h-4.71v-.83h5.06c.15-.46.3-.93.43-1.44h-6.39Zm12.24,9V143h-8.48v1.38Zm-8.48.76v1.35h8.48v-1.35Zm8.48,3.53v-1.41h-8.48v1.41Z"/><path class="cls-1" d="M380.88,139.09h5.62v-1.37h-7.17v-.86h7.17v-1.53c-2.3.13-4.25.24-5.85.31l-.17-.83q6.9-.24,12.37-.85l.31.81c-2.13.22-4,.39-5.69.51v1.58h7.2v.86h-7.2v1.37h5.63v5.8h-5.63v1.46h6.59v.81h-6.59v1.63h7.47v.87H379.06v-.87h7.44v-1.63H380v-.81h6.54v-1.46h-5.62Zm.95,2.49h4.67V139.9h-4.67Zm4.67,2.5v-1.71h-4.67v1.71Zm1-4.18v1.68h4.7V139.9Zm4.7,4.18v-1.71h-4.7v1.71Z"/><path class="cls-1" d="M397.08,134.54h15.84v.9h-5.44v1.85h4.31v4.34h-7.6c-.28.52-.62,1.13-1,1.86h10v.91h-3.94a5.94,5.94,0,0,1-2.15,3q2.85.88,5.85,2.09l-.59.79q-3-1.26-6.16-2.28s-.07,0-.07.05c-1.73.94-4.52,1.66-8.39,2.16l-.37-.88a27.78,27.78,0,0,0,7.63-1.71c-1.53-.47-3.09-.88-4.68-1.24.43-.65.84-1.3,1.24-1.95h-4.63v-.91h5.19l1.06-1.86h-4.9v-4.34h4.31v-1.85h-5.44Zm5.44,6.23v-2.63h-3.37v2.63Zm5.67,3.63h-5.58c-.39.61-.72,1.13-1,1.53,1.36.3,2.82.68,4.35,1.12A5.22,5.22,0,0,0,408.19,144.4Zm-1.62-7.11v-1.85h-3.14v1.85Zm0,3.48v-2.63h-3.14v2.63Zm4.28,0v-2.63h-3.37v2.63Z"/><path class="cls-1" d="M421.13,137v12.1h-.94V148h-3.63v1.6h-.94V137h1.62a16.68,16.68,0,0,0,.81-3.22l1,.12a15.49,15.49,0,0,1-.86,3.1Zm-4.57,4.95h3.63v-4h-3.63Zm0,5.15h3.63V142.8h-3.63ZM430.45,137q0,8.65-.25,10.78a2.23,2.23,0,0,1-2.5,2.16l-1.77,0-.23-.9q1.08.06,1.89.06a1.58,1.58,0,0,0,1.67-1.6c.14-1,.22-4.15.26-9.49h-5.31a15.39,15.39,0,0,1-1.82,3.15l-.58-.76a16,16,0,0,0,2.65-6.62l1,.11a22.39,22.39,0,0,1-.83,3.15Zm-6.26,4a30.29,30.29,0,0,1,3.13,4l-.77.55a28.39,28.39,0,0,0-3.15-4Z"/><path class="cls-1" d="M435.13,139.63a27.22,27.22,0,0,1-2.12,2.49l-.31-1a20.15,20.15,0,0,0,4.36-7.34l.9.41a19.64,19.64,0,0,1-1.86,4v12h-1Zm5.42-2.26a21,21,0,0,1-2.92,4.62l-.68-.81a21.81,21.81,0,0,0,4-7.52l1,.23c-.23.71-.54,1.55-.94,2.52h8.07v1h-6.29v3.27h5.46v1h-5.46v3.33h5.6v1h-5.6v4.28h-1V137.37Z"/><path class="cls-1" d="M453.58,144.21a10.6,10.6,0,0,1-2,5.77l-.72-.66a10.57,10.57,0,0,0,1.83-6.25v-8.53H465.8V148a1.56,1.56,0,0,1-1.76,1.77H462l-.25-1c.72,0,1.38.06,2,.06s1.11-.41,1.11-1.23v-3.43h-5.27v5.36h-1v-5.36Zm.07-4.38v3.46h4.95v-3.46Zm4.94-4.34h-4.94v3.44h4.94Zm6.24,3.44v-3.44h-5.27v3.44Zm0,4.36v-3.46h-5.27v3.46Z"/><path class="cls-1" d="M474.08,146.58a2,2,0,0,1,.65,1.55,2.09,2.09,0,0,1-.65,1.55,2.36,2.36,0,0,1-1.58.61,2.28,2.28,0,0,1-1.58-.61,2.05,2.05,0,0,1-.65-1.55,2,2,0,0,1,.65-1.55,2.16,2.16,0,0,1,1.58-.61A2.24,2.24,0,0,1,474.08,146.58Zm-2.61.56a1.27,1.27,0,0,0-.43,1,1.36,1.36,0,0,0,.43,1,1.43,1.43,0,0,0,1,.41,1.51,1.51,0,0,0,1-.41,1.36,1.36,0,0,0,.43-1,1.3,1.3,0,0,0-.43-1,1.4,1.4,0,0,0-1-.42A1.36,1.36,0,0,0,471.47,147.14Z"/><path class="cls-1" d="M498.83,149.84c-.61,0-1.69,0-3.25,0a12.32,12.32,0,0,1-2.83-.34,4,4,0,0,1-1.94-1.33c-.24-.31-.47-.47-.69-.47-.49,0-1.26.84-2.32,2.5l-.74-.65q1.53-2.35,2.61-2.73V141H487v-.94h3.58v6.74a1.82,1.82,0,0,1,.58.5,4.62,4.62,0,0,0,1.51,1.19,8.49,8.49,0,0,0,2.48.37c1.23,0,2.4,0,3.53,0h2.48l1.93-.07-.23,1Zm-10.71-15.71a21.39,21.39,0,0,1,3.19,2.79l-.68.68a21.5,21.5,0,0,0-3.17-2.85Zm7.38,1.72a23.83,23.83,0,0,1,2.13,1.35,16.27,16.27,0,0,0,3-1.91h-8.32v-.82h9.65v.7a19,19,0,0,1-3.65,2.52l.43.34h3.53v8.08q0,1.26-1.32,1.26h-1.58l-.24-.86,1.53,0c.45,0,.67-.2.67-.61v-1.69H498v3.19h-.9v-3.19h-3.38v3.26h-.92V138h4.7c-.81-.56-1.66-1.1-2.56-1.6Zm1.55,4.92v-1.89h-3.38v1.89Zm-3.38.82v1.82h3.38v-1.82Zm7.63-.82v-1.89H498v1.89Zm-3.35.82v1.82h3.35v-1.82Z"/><path class="cls-1" d="M504.83,139.36h3.65v8.1c.72-.6,1.42-1.24,2.11-1.92l.25,1a22.83,22.83,0,0,1-3.22,2.7l-.38-.9a.82.82,0,0,0,.32-.61v-7.43h-2.73Zm2-5.4a21.47,21.47,0,0,1,3,2.85l-.67.68a19.51,19.51,0,0,0-3.06-2.88Zm9.27,1.71h-5.17v-.95h10v.95h-3.85v5.38h3.61V142h-3.61v6.63h4.23v1H510.39v-1h1.91v-9.74h1v9.74h2.85Z"/><path class="cls-1" d="M528.73,147.3a25.52,25.52,0,0,1-5.7,2.09l-.13-1a25.2,25.2,0,0,0,5.83-2ZM527,134.16a28.49,28.49,0,0,1-2.86,5.67c1-.11,1.93-.23,2.94-.38.48-.92.84-1.61,1.09-2l.9.32a38.25,38.25,0,0,1-4.41,6.77,26.74,26.74,0,0,0,4.11-1.08v.9a29.16,29.16,0,0,1-5.29,1.26l-.27-.9a1.87,1.87,0,0,0,.46-.29,21,21,0,0,0,2.88-4c-.63.1-1.74.25-3.33.46l-.23-.91a1.21,1.21,0,0,0,.41-.34,27.59,27.59,0,0,0,2.67-5.74Zm2.43,8-.63-.79q5.22-2,7.22-5.71h-6.35v-1h7.54v.77a11.13,11.13,0,0,1-2.09,3,27.63,27.63,0,0,1,4,3.06l-.68.7a27.05,27.05,0,0,0-4-3.15A15.94,15.94,0,0,1,529.43,142.12Zm4,2.07h-3.69v-.94h8.38v.94h-3.72v4.41H539v1H529v-1h4.52Z"/><path class="cls-1" d="M541.51,138a23.59,23.59,0,0,1,3.26,3.17l-.7.68a21.65,21.65,0,0,0-3.22-3.2Zm3.44,5.9a53.62,53.62,0,0,1-2.81,6.14l-.92-.39a47.17,47.17,0,0,0,2.85-6.1Zm-3-10a23,23,0,0,1,3.37,3.15l-.68.7a23,23,0,0,0-3.37-3.22Zm6.23,8.8h1V144a9.59,9.59,0,0,1-.81,4,5.13,5.13,0,0,1-2.45,2.16l-.54-.81a4.55,4.55,0,0,0,2.23-2,8.6,8.6,0,0,0,.61-3.35ZM546,135.58h5a13.8,13.8,0,0,0-1-1.74l1-.18a15.64,15.64,0,0,1,.94,1.92h4.54v.94h-1.57a7.14,7.14,0,0,1-2.66,3.51,17,17,0,0,0,5,1.37l-.36.86a16.71,16.71,0,0,1-5.53-1.67,16.58,16.58,0,0,1-5.58,1.78l-.39-.88a18.82,18.82,0,0,0,5.11-1.42,7.87,7.87,0,0,1-2.86-3.55H546Zm2.56.94a6.9,6.9,0,0,0,2.82,3.06,6,6,0,0,0,2.61-3.06Zm5,6.12h1v7.47h-1Z"/><path class="cls-1" d="M562.39,150.11h-.93V140.5a19.66,19.66,0,0,1-2.38,5.18l-.41-1a17.4,17.4,0,0,0,2.77-6.32h-2.36v-.92h2.38v-3.64h.93v3.64h1.87v.92h-1.87v1.31c.63.81,1.36,1.86,2.2,3.17l-.52.79c-.68-1.23-1.23-2.2-1.68-2.89Zm3.17-11.94h8.32v5.48h-3.75a9.31,9.31,0,0,1-.18,1.62h5.17v.9h-4.81a10.56,10.56,0,0,0,4.88,3.27l-.63.76a11.16,11.16,0,0,1-5-3.66l-.18.4c-.66,1.32-2.14,2.41-4.46,3.26l-.61-.78a7.81,7.81,0,0,0,4.16-2.71q.15-.27.27-.54h-4.52v-.9H569a6.53,6.53,0,0,0,.22-1.62h-3.69Zm-1.17-2.8h2.77v-1.61h.94v1.61h3.06v-1.61h.93v1.61H575v.9h-2.88v1.36h-.93v-1.36H568.1v1.36h-.94v-1.36h-2.77Zm2.07,5.16H573V139h-6.5Zm6.5,2.33v-1.55h-6.5v1.55Z"/><path class="cls-1" d="M578.16,145.43h6.43v-1.75h1v1.75h6.3v.92h-6.3v2.41h7.31v.92H577.13v-.92h7.46v-2.41h-6.43Zm-.43-10.78h8.35v.9h-1.93v2.95h2.31v.93h-2.31v4.06h-.93v-4.06h-2.65a5.87,5.87,0,0,1-2.12,4.29l-.72-.65a4.89,4.89,0,0,0,1.89-3.64h-2.36v-.93h2.41v-2.95h-1.94Zm2.9.9v2.95h2.59v-2.95Zm7.12-.56h.92v6.17h-.92Zm.49,8.62-.22-.92c1.06.05,1.82.07,2.29.07s.68-.24.68-.73V134h1v8.28a1.18,1.18,0,0,1-1.32,1.35Z"/><path class="cls-1" d="M595,134.81h15.9v.95H603v3a73.13,73.13,0,0,1,6.91,4l-.57.86a71.86,71.86,0,0,0-6.34-3.9v10.44h-1V135.76h-7Z"/><path class="cls-1" d="M619.13,137v12.1h-.94V148h-3.63v1.6h-.94V137h1.62a16.68,16.68,0,0,0,.81-3.22l1,.12a15.49,15.49,0,0,1-.86,3.1Zm-4.57,4.95h3.63v-4h-3.63Zm0,5.15h3.63V142.8h-3.63ZM628.45,137q0,8.65-.25,10.78a2.23,2.23,0,0,1-2.5,2.16l-1.77,0-.23-.9q1.08.06,1.89.06a1.58,1.58,0,0,0,1.67-1.6c.14-1,.22-4.15.26-9.49h-5.31a15.39,15.39,0,0,1-1.82,3.15l-.58-.76a16,16,0,0,0,2.65-6.62l.95.11a22.39,22.39,0,0,1-.83,3.15Zm-6.26,4a30.29,30.29,0,0,1,3.13,4l-.77.55a28.39,28.39,0,0,0-3.15-4Z"/><path class="cls-1" d="M638.86,136.34a4.1,4.1,0,0,1,1.44,3h-1.1a3.57,3.57,0,0,0-1.14-2.28,3.84,3.84,0,0,0-2.59-.78,4.76,4.76,0,0,0-2.45.54,2,2,0,0,0-1,1.82,1.93,1.93,0,0,0,1.2,1.71,18.58,18.58,0,0,0,2.47.83,15.71,15.71,0,0,1,3.31,1.22,3,3,0,0,1,1.6,2.7,3.05,3.05,0,0,1-1.38,2.63,6.05,6.05,0,0,1-3.51.92,5.54,5.54,0,0,1-3.5-1,4.62,4.62,0,0,1-1.62-3.49h1.08a4,4,0,0,0,1.26,2.7,4.3,4.3,0,0,0,2.76.79,5.21,5.21,0,0,0,2.75-.66,2.1,2.1,0,0,0,1-1.82,2.26,2.26,0,0,0-1.32-2.05,13.93,13.93,0,0,0-2.82-1,16.2,16.2,0,0,1-3-1,2.63,2.63,0,0,1-1.47-2.41,2.86,2.86,0,0,1,1.38-2.56,5.66,5.66,0,0,1,3.21-.83A5.14,5.14,0,0,1,638.86,136.34Z"/><path class="cls-1" d="M642.51,135.57h9v1h-7.92v4.73h7.49v1h-7.49v5.19h8.22v1h-9.32Z"/><path class="cls-1" d="M652.93,135.57h10.53v1h-4.72v11.88h-1.09V136.54h-4.72Z"/><path class="cls-1" d="M672.52,142.91h-7.64V142h15.86v.88h-7.27v2.34h5.33v.9h-5.33v2.73a32.13,32.13,0,0,0,3.29.15c1.18,0,2.46,0,3.85-.07l-.27.95-3.51,0q-4.44,0-6-.72a6,6,0,0,1-2.57-2.57,10.41,10.41,0,0,1-2.72,3.49l-.65-.77a10.44,10.44,0,0,0,3.42-5.62l.94.16a15.55,15.55,0,0,1-.63,1.93,5.6,5.6,0,0,0,2.66,2.64,8.47,8.47,0,0,0,1.23.31Zm-5-8.48h10.8v6.07h-10.8Zm1,2.65h8.85v-1.8h-8.85Zm8.85,2.55v-1.74h-8.85v1.74Z"/><path class="cls-1" d="M686,138.19a13.31,13.31,0,0,1-2.74,4.18l-.65-.79a14.15,14.15,0,0,0,3.55-7.37l1,.2a21.73,21.73,0,0,1-.79,2.85h4.28v-3.37h1v3.37h6.06v.93h-6.06v4.52h5.7v1h-5.7v4.91h7.21v1H683v-1h7.59v-4.91H685.2v-1h5.42v-4.52Z"/><path class="cls-1" d="M709.29,133.71a17.32,17.32,0,0,1-.38,2H716v.95h-6q1.35,3.18,6.91,5l-.52.84q-6-2.1-7.36-5.81h-.43a9.08,9.08,0,0,1-1.62,2.79l-.29.3a25.33,25.33,0,0,1,2.73,2.27l-.66.69a28.13,28.13,0,0,0-2.74-2.38,14.79,14.79,0,0,1-5.08,2.2l-.39-.92a11.62,11.62,0,0,0,5.63-2.79,7.59,7.59,0,0,0,1.37-2.16h-6.15v-.95h6.47a13.62,13.62,0,0,0,.44-2.15Zm-5.81,10.73a17.86,17.86,0,0,1-1.84,4.82l-.85-.52a14.91,14.91,0,0,0,1.73-4.52Zm3.36,5.35c-1.11,0-1.67-.53-1.67-1.59v-4h1V148c0,.55.33.83,1,.83h3.9a1.12,1.12,0,0,0,.9-.3,5.08,5.08,0,0,0,.49-2.47l.92.31a5.57,5.57,0,0,1-.7,3,1.93,1.93,0,0,1-1.41.46Zm2.2-6.2a20.35,20.35,0,0,1,1.65,3.08l-.9.41a21.67,21.67,0,0,0-1.63-3.2Zm5.34.36a29,29,0,0,1,2.31,4.36l-.9.41a27.21,27.21,0,0,0-2.36-4.46Z"/><path class="cls-1" d="M724.91,137v12.1H724V148h-3.64v1.6h-.93V137H721a16,16,0,0,0,.8-3.22l1,.12A15.49,15.49,0,0,1,722,137Zm-4.57,4.95H724v-4h-3.64Zm0,5.15H724V142.8h-3.64ZM734.24,137c0,5.77-.09,9.36-.25,10.78a2.25,2.25,0,0,1-2.51,2.16l-1.76,0-.23-.9c.71,0,1.34.06,1.88.06a1.58,1.58,0,0,0,1.68-1.6c.13-1,.22-4.15.25-9.49H728a15,15,0,0,1-1.82,3.15l-.57-.76a16,16,0,0,0,2.64-6.62l1,.11a23.84,23.84,0,0,1-.83,3.15ZM728,141a30.49,30.49,0,0,1,3.14,4l-.78.55a28.39,28.39,0,0,0-3.15-4Z"/><path class="cls-1" d="M739,139.45a23.94,23.94,0,0,1-2.14,2.76l-.31-1a19.92,19.92,0,0,0,4-7.38l.9.41a20.61,20.61,0,0,1-1.46,3.55v12.4h-1Zm8.23-5.63a16.24,16.24,0,0,0,5.9,6.5l-.54.82a16.47,16.47,0,0,1-5.79-6.35,17.78,17.78,0,0,1-5.57,6.57l-.54-.83a17.41,17.41,0,0,0,5.69-6.71ZM744,140.08h1v2.74c0,3.35-.93,5.81-2.68,7.38l-.74-.65q2.41-2.09,2.47-6.73Zm4.71-.05h1v10h-1Z"/><path class="cls-1" d="M757.15,139.25a21.28,21.28,0,0,1-2.21,3.05l-.33-1a20.86,20.86,0,0,0,3.93-7.56l.88.42a24.47,24.47,0,0,1-1.3,3.31v12.78h-1Zm7.51-5.47h1v1.77h4.75v.9h-4.75v1.71h3.51v10.55H771v.91H759.11v-.91H761V138.16h3.64v-1.71h-4.77v-.9h4.77Zm-2.7,7.15h6.24v-1.87H762Zm0,2.59h6.24v-1.76H762Zm0,2.59h6.24v-1.76H762Zm0,2.6h6.24v-1.79H762Z"/><path class="cls-1" d="M773.15,138.52a21.16,21.16,0,0,1,2.65,2.61l-.67.65a18.48,18.48,0,0,0-2.63-2.63Zm.26-4.36a20.3,20.3,0,0,1,2.77,2.5l-.61.63a20.09,20.09,0,0,0-2.81-2.52Zm2.51,10a59.88,59.88,0,0,1-2.3,5.9l-.86-.36a51.52,51.52,0,0,0,2.32-5.87Zm1.08-8.74h1.75a8.67,8.67,0,0,0,.49-1.67l.93.13a7.6,7.6,0,0,1-.47,1.54h2.47v5.48h-2.64l.61,1.72h2.61v.83H779q0,.22-.24,1.62h3.33c0,2.3-.14,3.69-.43,4.2a1.69,1.69,0,0,1-1.49.75h-1.15l-.22-.82H780a1,1,0,0,0,1-.62,12.35,12.35,0,0,0,.23-2.68h-2.56c-.14.58-.28,1.08-.43,1.51a8.08,8.08,0,0,1-1.89,2.79l-.59-.75a7.94,7.94,0,0,0,1.65-2.43,16.45,16.45,0,0,0,.76-3.57h-1.87v-.83h3l-.6-1.72H777Zm.87,2.4h3.44v-1.64h-3.44Zm3.44,2.3v-1.54h-3.44v1.54Zm2.19.29a9.84,9.84,0,0,1-.83,1.33l-.57-.7a17.28,17.28,0,0,0,2.41-7.25l.92.18a24.08,24.08,0,0,1-.69,3.2h4.09v.94h-1.12a20.26,20.26,0,0,1-1.47,7.65,10.24,10.24,0,0,0,2.84,3.45l-.55.83a10.43,10.43,0,0,1-2.76-3.33,11.47,11.47,0,0,1-2.82,3.44l-.53-.83a10.67,10.67,0,0,0,2.85-3.6A24.12,24.12,0,0,1,783.5,140.37Zm1-2.3-.42,1.11a27.14,27.14,0,0,0,1.66,5.46,20.18,20.18,0,0,0,1.13-6.57Z"/><path class="cls-1" d="M794.65,138.8h-2v2.54a24.63,24.63,0,0,1-1.44,8.82l-.69-.61a24.1,24.1,0,0,0,1.19-8.21v-6.75h7.85v.9h-6.91v2.42h6.46v.89h-3.55v2.92h3.35a47.59,47.59,0,0,1-.3,6.53,1.85,1.85,0,0,1-1.86,1.7c-.31,0-.68,0-1.1-.06l-.27-.82,1.28,0c.64,0,1-.49,1.17-1.37s.16-2.53.18-5.13h-2.48q-.27,5-2.16,7.49l-.69-.58q2-2.55,2-8.09Zm7.34-5h.93v3.87h3.28a98.7,98.7,0,0,1-.3,10.26,2.22,2.22,0,0,1-2.49,2c-.24,0-.65,0-1.22-.06l-.22-.82,1.3,0a1.54,1.54,0,0,0,1.71-1.3,80.47,80.47,0,0,0,.32-9.16h-2.39q-.17,7.8-3.15,11.52l-.69-.61q2.74-3.44,2.9-10.91h-2.14v-.93H802Z"/><path class="cls-1" d="M811.82,133.8q-.27,2.13-.51,3.51h2.92v.58a21.77,21.77,0,0,1-1.6,7.45c.84.79,1.5,1.46,2,2l-.65.75a23.76,23.76,0,0,0-1.75-1.85,13.21,13.21,0,0,1-3,3.94l-.63-.76a12.6,12.6,0,0,0,3-3.83c-.94-.86-1.75-1.59-2.45-2.18q.64-2.47,1.12-5.18h-1.53v-.92h1.69c.23-1.49.39-2.69.5-3.62Zm1.49,4.43h-2.14a44.57,44.57,0,0,1-1.08,4.91c.68.56,1.29,1.08,1.83,1.57A19.8,19.8,0,0,0,813.31,138.23Zm4.09-2.72H822V133.8h.92v1.71h1.62v.9h-1.62v5.51h-2.74v1.82h4.73v.9h-3.69a10.59,10.59,0,0,0,3.91,3.92l-.67.81a11.66,11.66,0,0,1-3.94-4.73h-.34v5.45h-1v-5.45H819a10.41,10.41,0,0,1-4.22,4.75l-.54-.86a9.69,9.69,0,0,0,4-3.89h-3.73v-.9h4.72v-1.82h-2.76v-5.51h-1.67v-.9h1.67V133.8h1Zm0,2.81H822v-1.91H817.4Zm4.59,2.75v-1.89H817.4v1.89Z"/><path class="cls-1" d="M835.13,133.82a25.64,25.64,0,0,0,7.74,6.43l-.49.84a24.64,24.64,0,0,1-7.6-6.35,25.67,25.67,0,0,1-7.57,6.51l-.47-.86a26.27,26.27,0,0,0,7.7-6.57Zm-3.91,6.05h1v3.22q-.06,4.84-3.24,7.11l-.74-.67c2-1.33,3-3.48,3-6.44Zm6.08-.06h1V150h-1Z"/><path class="cls-1" d="M848.09,148.11a3.3,3.3,0,0,1-1.8,3.11l-.38-.63a2.75,2.75,0,0,0,1.37-2.19l-.27,0a1,1,0,0,1-.67-.24.81.81,0,0,1-.25-.64.79.79,0,0,1,.25-.67.87.87,0,0,1,.67-.25C847.73,146.62,848.09,147.12,848.09,148.11Z"/><path class="cls-1" d="M869.87,145a23.48,23.48,0,0,1,2.08,2.43,11,11,0,0,0,5-4H871.4a21.24,21.24,0,0,1-5.74,1.69l-.58-.86q5.85-.6,8.73-3.64l.83.45a10.12,10.12,0,0,1-1.69,1.46h5.25v.77q-3.8,6.43-14.24,6.65l-.39-1a23.36,23.36,0,0,0,7.47-1.15,20.15,20.15,0,0,0-2-2.36Zm1.85-10.76a9.46,9.46,0,0,1-1.26,1.22h5.42v.79Q873,141.4,865.06,142l-.41-.9a18.93,18.93,0,0,0,4.59-.81,13.41,13.41,0,0,0-1.89-2l.84-.41a19.22,19.22,0,0,1,2,2.08,9.64,9.64,0,0,0,4.58-3.67h-5.56a16,16,0,0,1-5,1.89l-.58-.86a12.89,12.89,0,0,0,7.24-3.6Z"/><path class="cls-1" d="M3.83,166.77v1.62a20,20,0,0,1-2.23,9.66l-.72-.63a18.57,18.57,0,0,0,2-9v-5.81H15.71v4.19Zm10.91-3.28H3.83v2.36H14.74ZM4.63,171.68H16.72v.9H9.77a19.85,19.85,0,0,1-3.13,4.13q3.93-.27,7.63-.83c-.54-.66-1.12-1.34-1.76-2l.74-.45a34,34,0,0,1,3.47,4.2l-.77.55q-.51-.75-1-1.47-4.61.63-9.46.94l-.24-.87.2-.07c.84-.5,2-1.87,3.35-4.09H4.63Zm1.24-2.93h9.7v.86H5.87Z"/><path class="cls-1" d="M19.4,178l-.21-.91c.47,0,.92,0,1.35,0s.77-.24.77-.72v-4.86c-.63.28-1.38.56-2.23.85l-.25-1a24.18,24.18,0,0,0,2.48-.84v-4.43H19v-1h2.27v-3.39h1v3.39h1.77v1H22.28v4a17,17,0,0,0,2-1.08v1c-.7.39-1.38.75-2,1.06v5.54c0,.89-.46,1.33-1.4,1.33ZM29.77,161.6c.23.54.47,1.21.72,2h4v3h-.9V164.5H26v2.11H25v-3h4.52a12.39,12.39,0,0,0-.78-1.82Zm-.83,4.18A8.91,8.91,0,0,1,26,169.36l-.72-.63a7.68,7.68,0,0,0,2.81-3.27Zm-3.51,4.54h8.34v.84c-3.63,1.74-5.94,3.13-7,4.18a1.53,1.53,0,0,0-.5,1c0,.47.33.7,1,.7h4.92a1.88,1.88,0,0,0,1.29-.36,5,5,0,0,0,.62-2.32l.91.29a5.22,5.22,0,0,1-.84,2.73,3,3,0,0,1-1.95.54h-5c-1.35,0-2-.5-2-1.49a2.47,2.47,0,0,1,.86-1.69A22.49,22.49,0,0,1,32,171.23H25.43Zm5.62-4.95a26.36,26.36,0,0,1,2.68,3.4l-.75.54a25,25,0,0,0-2.67-3.48Z"/><path class="cls-1" d="M37.37,163.82v-.94h5.92v.94h-2.9a23.22,23.22,0,0,1-1.11,4.37h3.29v8h-3v1.39h-.94v-7.79a19,19,0,0,1-1.38,2.37l-.53-.83a18.89,18.89,0,0,0,2.78-7.5Zm2.16,11.46h2.14v-6.17H39.53Zm8.93-13.57a25,25,0,0,1,1,2.67H53v1H45.56v4a16.69,16.69,0,0,1-2.36,9l-.76-.69c1.36-1.95,2.07-4.72,2.15-8.28v-5h3.92a20.39,20.39,0,0,0-1-2.49Z"/><path class="cls-1" d="M55.1,165.38h2.79v-3.62h1v3.62H61.2v1H58.86v1a32.57,32.57,0,0,1,2.61,3l-.56.86a36.2,36.2,0,0,0-2-3v9.81h-1v-9.72a19.78,19.78,0,0,1-2.7,5.33l-.43-1a16.64,16.64,0,0,0,3.09-6.33H55.1Zm5.42,12.12a11.64,11.64,0,0,0,1.67-3.75,22.12,22.12,0,0,0,.36-4.35v-6.79h5.54v13.57c0,.42.18.63.53.63h.63a1.41,1.41,0,0,0,.61-.12.89.89,0,0,0,.36-.61,25.2,25.2,0,0,0,.11-3.05l.91.27a28.17,28.17,0,0,1-.12,2.87,1.85,1.85,0,0,1-.56,1.31,2.35,2.35,0,0,1-1.24.25h-.7a1.33,1.33,0,0,1-1.52-1.49V163.55H63.52v5.85a20.68,20.68,0,0,1-.47,4.86,11.8,11.8,0,0,1-1.74,3.94Z"/><path class="cls-1" d="M74.7,165a7,7,0,0,1-1.21,1.87l-.79-.55a7.36,7.36,0,0,0,1.78-4.13l.94.15a11.89,11.89,0,0,1-.4,1.74h2.47V161.8h1v2.32H82V165H78.46v2.63h4v.92h-4v2.17H82v4.7a1.28,1.28,0,0,1-1.44,1.46h-1l-.25-.93.93,0q.81,0,.81-.78v-3.59H78.46v6.55h-1v-6.55H74.84v5.4h-1v-6.31h3.6v-2.17H73v-.92h4.46V165Zm9-1.6h1v11.19h-1ZM84.24,178l-.22-.92c.87,0,1.7.06,2.51.06.61,0,.91-.31.91-.94V161.82h1v14.63A1.37,1.37,0,0,1,86.87,178Z"/><path class="cls-1" d="M97.16,163a30,30,0,0,1,2.58,3.88l-.79.56c-.35-.65-.58-1.05-.69-1.22a69,69,0,0,1-7,.68l-.27-.85a1.12,1.12,0,0,0,.45-.25,15.74,15.74,0,0,0,2.93-4.05l.94.27a14,14,0,0,1-2.93,4c1.58-.07,3.39-.24,5.43-.5-.51-.78-1-1.45-1.4-2ZM93,174.72v3.48h-1v-9.95h6.52v8.47a1.2,1.2,0,0,1-1.37,1.35H95.67l-.23-.91,1.45.05c.48,0,.72-.23.72-.68v-1.81Zm4.6-3.65v-2H93v2Zm-4.6.86v1.95h4.6v-1.95Zm8.92-2.48c-1,0-1.51-.53-1.51-1.58v-6.14h1v2.57a45.18,45.18,0,0,0,5.07-1l.33.88a53.88,53.88,0,0,1-5.4,1v2.47c0,.59.28.88.84.88h2.52a1.16,1.16,0,0,0,.85-.27,4.73,4.73,0,0,0,.41-2.14l.92.31a4.84,4.84,0,0,1-.65,2.6,2,2,0,0,1-1.35.4Zm-.5,6.79a.69.69,0,0,0,.77.79h2.49a1.1,1.1,0,0,0,.86-.29,4.62,4.62,0,0,0,.43-2.2l.9.29a5.1,5.1,0,0,1-.64,2.67,2,2,0,0,1-1.35.39h-3a1.27,1.27,0,0,1-1.44-1.44v-6.17h1v2.38a27.07,27.07,0,0,0,5-1l.33.9a28.9,28.9,0,0,1-5.35,1Z"/><path class="cls-1" d="M112.1,161.86a17.27,17.27,0,0,1-.46,1.9h4.5q0,9.39-.26,11.7c-.16,1.68-1,2.52-2.46,2.52l-1.37,0-.23-.85,1.51,0c1,0,1.53-.66,1.67-2q.18-1.69.24-10.48h-3.93a13.24,13.24,0,0,1-2,3.6l-.56-.72a13.72,13.72,0,0,0,2.43-5.81Zm-2.3,5.86h4v6h-4Zm3.15,5.1v-4.23h-2.3v4.23Zm9.79-3.84a6.75,6.75,0,0,1-1,1.57h3.3v.79q-1.35,4.84-7.92,6.9l-.47-.87a15,15,0,0,0,4.37-2,18,18,0,0,0-1.82-1.8l.69-.5a19,19,0,0,1,1.8,1.8,7.81,7.81,0,0,0,2.39-3.51H121a10.88,10.88,0,0,1-3.67,2.1l-.54-.79a8.32,8.32,0,0,0,5.14-4.07Zm-1.4-7.09a8.1,8.1,0,0,1-.81,1.51h3.62v.8q-1.32,4.08-6.81,5.84l-.52-.75a13.29,13.29,0,0,0,3.49-1.57,8.09,8.09,0,0,0-1.56-1.42l.66-.5a7.14,7.14,0,0,1,1.53,1.45,7.73,7.73,0,0,0,2.29-3h-3.37a10.71,10.71,0,0,1-2.45,2l-.57-.74a8.1,8.1,0,0,0,3.56-3.82Z"/><path class="cls-1" d="M131.74,162.11a22.92,22.92,0,0,1-1.65,3.83v12.28h-1V167.58a21,21,0,0,1-2.2,2.74l-.31-1a20.63,20.63,0,0,0,4.23-7.62Zm1.26.5h8.35v5.46h-3.69v2.23h5.28v1h-4.21a15.93,15.93,0,0,0,4.51,5l-.61.83a18.31,18.31,0,0,1-4.68-5.87h-.29v6.91h-1v-6.91h-.3a15.84,15.84,0,0,1-4.77,5.9l-.54-.86a14.37,14.37,0,0,0,4.51-5h-4v-1h5.13v-2.23H133Zm7.38,4.5v-3.56H134v3.56Z"/><path class="cls-1" d="M144.83,167.36h3.65v8.1c.72-.6,1.42-1.24,2.11-1.92l.25,1a22.83,22.83,0,0,1-3.22,2.7l-.38-.9a.82.82,0,0,0,.32-.61v-7.43h-2.73Zm2-5.4a21.47,21.47,0,0,1,3,2.85l-.67.68a19.51,19.51,0,0,0-3.06-2.88Zm9.27,1.71h-5.17v-.95h10v.95h-3.85v5.38h3.61V170h-3.61v6.63h4.23v1H150.39v-1h1.91v-9.74h.95v9.74h2.85Z"/><path class="cls-1" d="M163.71,164.63h2.93v-1.17H163v-.79h3.65v-.92h.9v.92H171v.79h-3.46v1.17h3v3h-3V168a34.18,34.18,0,0,1,3.3,1.69l-.49.74a32.37,32.37,0,0,0-2.81-1.78v2h-.9v-2.23a16.39,16.39,0,0,1-3.43,2.35l-.44-.77a13.84,13.84,0,0,0,3.87-2.36v0h-2.93Zm6.68,7.65h-6.46v-.87h14.18v.87h-6.75v1.83h5.74V175h-5.74v1.83H179v.9H163v-.9h3v-3.54H167v3.54h3.44Zm-3.75-5.39v-1.54h-2.12v1.54Zm3,0v-1.54h-2.13v1.54Zm2.7-.93a11.34,11.34,0,0,1-.92,1.19l-.58-.74a10.42,10.42,0,0,0,2.33-4.74l.9.11a15.78,15.78,0,0,1-.44,1.53h5.15v.87h-1.22a8.16,8.16,0,0,1-1.62,4.07l-.18.17a11.77,11.77,0,0,0,3.22,1.5l-.52.79A12.19,12.19,0,0,1,175.1,169a11.34,11.34,0,0,1-3.47,1.58l-.34-.81a10.37,10.37,0,0,0,3.09-1.35A9.14,9.14,0,0,1,172.37,166Zm1-1.78c-.13.28-.29.6-.47.95a8.39,8.39,0,0,0,2.2,2.75l.2-.19a6.94,6.94,0,0,0,1.44-3.51Z"/><path class="cls-1" d="M189.45,161.76q2.27,3.81,7.85,6.7l-.58.87A19.46,19.46,0,0,1,189,162.7a21.09,21.09,0,0,1-7.72,6.73l-.58-.88a20.1,20.1,0,0,0,7.85-6.79Zm-.94,5.28h1v11.12h-1Z"/><path class="cls-1" d="M202.19,166.19a13.29,13.29,0,0,1-2.73,4.18l-.65-.79a14.3,14.3,0,0,0,3.55-7.37l1,.2a21.75,21.75,0,0,1-.8,2.85h4.29v-3.37h.95v3.37h6.07v.93h-6.07v4.52h5.71v1h-5.71v4.91H215v1H199.24v-1h7.6v-4.91h-5.42v-1h5.42v-4.52Z"/><path class="cls-1" d="M225.5,161.71a17.41,17.41,0,0,1-.37,2h7.07v.95h-6q1.35,3.18,6.92,5l-.53.84q-6-2.1-7.36-5.81h-.43a8.7,8.7,0,0,1-1.62,2.79l-.29.3a26.32,26.32,0,0,1,2.74,2.27l-.67.69a28.08,28.08,0,0,0-2.73-2.38,14.88,14.88,0,0,1-5.08,2.2l-.4-.92a11.66,11.66,0,0,0,5.64-2.79,7.59,7.59,0,0,0,1.37-2.16h-6.16v-.95h6.48a13.63,13.63,0,0,0,.43-2.15Zm-5.81,10.73a17.23,17.23,0,0,1-1.84,4.82l-.84-.52a14.91,14.91,0,0,0,1.73-4.52Zm3.37,5.35q-1.68,0-1.68-1.59v-4h1V176c0,.55.34.83,1,.83h3.91a1.13,1.13,0,0,0,.9-.3,5.12,5.12,0,0,0,.48-2.47l.92.31a5.57,5.57,0,0,1-.7,3,1.92,1.92,0,0,1-1.4.46Zm2.19-6.2a20.37,20.37,0,0,1,1.66,3.08l-.9.41a21.66,21.66,0,0,0-1.64-3.2Zm5.35.36a28.06,28.06,0,0,1,2.3,4.36l-.9.41a26.46,26.46,0,0,0-2.36-4.46Z"/><path class="cls-1" d="M241.13,165v12.1h-.94V176h-3.63v1.6h-.94V165h1.62a16.68,16.68,0,0,0,.81-3.22l1,.12a15.49,15.49,0,0,1-.86,3.1Zm-4.57,4.95h3.63v-4h-3.63Zm0,5.15h3.63V170.8h-3.63ZM250.45,165q0,8.65-.25,10.78a2.23,2.23,0,0,1-2.5,2.16l-1.77,0-.23-.9q1.08.06,1.89.06a1.58,1.58,0,0,0,1.67-1.6c.14-1,.22-4.15.26-9.49h-5.31a15.39,15.39,0,0,1-1.82,3.15l-.58-.76a16,16,0,0,0,2.65-6.62l.95.11a22.39,22.39,0,0,1-.83,3.15Zm-6.26,4a30.29,30.29,0,0,1,3.13,4l-.77.55a28.39,28.39,0,0,0-3.15-4Z"/><path class="cls-1" d="M260.75,161.58a18.39,18.39,0,0,1,.81,2.18h5.24v7.11h-6.34a11.45,11.45,0,0,0,2.54,3.24,11.4,11.4,0,0,0,3.89-2.46l.7.68a12,12,0,0,1-3.82,2.39,14.2,14.2,0,0,0,5.44,2.4l-.47.9a13.06,13.06,0,0,1-9.25-7.15h-3.44v6a37.24,37.24,0,0,0,4.86-1.42l.23.92A44.53,44.53,0,0,1,255,178l-.22-.84a.53.53,0,0,0,.33-.49V163.76h5.51a18.45,18.45,0,0,0-.89-2Zm5.07,5.28v-2.18h-9.77v2.18Zm-9.77.88V170h9.77v-2.23Z"/><path class="cls-1" d="M272.25,165.26a24.82,24.82,0,0,1-.65,5.13l-.81-.22a23.85,23.85,0,0,0,.67-5Zm1.21-3.46h1v16.31h-1Zm2.21,3.06A23.08,23.08,0,0,1,276.8,168l-.79.2a23.72,23.72,0,0,0-1.08-3.14Zm2.88,1.39a14.36,14.36,0,0,1-1.48,3.76l-.73-.65a14.83,14.83,0,0,0,1.74-6.53l.9.1a17.81,17.81,0,0,1-.23,2.36h2.91v-3.47h1v3.47h4.05v1h-4.05v4.62h3.73v1h-3.73v4.82h4.52v1H276.39v-1h5.27v-4.82h-4.23v-1h4.23v-4.62Z"/><path class="cls-1" d="M293.92,166.93a15.17,15.17,0,0,1-1.92,2.9v8.26h-.92V170.8a21,21,0,0,1-2,1.66l-.29-.94a13.34,13.34,0,0,0,4.29-5Zm-.32-4.57a13.44,13.44,0,0,1-4.32,5.24l-.29-1a12.41,12.41,0,0,0,3.73-4.69Zm10.85.47a42.69,42.69,0,0,1-8.69,1v1.78h4.52l.09-1.53,1,.13-.11,1.4H305v.86h-3.8l-.24,1.93h3.21v9.79h-.92V177h-5.15v1.13h-.9v-9.75H300l.21-1.93h-4.44v3.6a16.66,16.66,0,0,1-1.93,8.08l-.68-.7a15.35,15.35,0,0,0,1.69-7.38v-7a45.84,45.84,0,0,0,9.16-1ZM298.06,171h5.15v-1.78h-5.15Zm0,2.53h5.15v-1.74h-5.15Zm0,2.6h5.15v-1.82h-5.15Z"/><path class="cls-1" d="M307.19,168.62h2.19v-4.51h-2.44v-.94h5.83v.94h-2.41v4.51h2.16v.94h-2.16V174c.88-.28,1.75-.59,2.59-.91V174a44.07,44.07,0,0,1-5.87,1.73l-.23-.94c.94-.18,1.79-.36,2.53-.55v-4.72h-2.19Zm6.37-5.94h9.31v1h-3.6c-.2.66-.41,1.31-.65,2V178.2h-1V167.79a19.44,19.44,0,0,1-4.09,5.28l-.58-.78a18.35,18.35,0,0,0,5.31-8.63h-4.73Zm6.25,4.85a41,41,0,0,1,3.4,4.89l-.79.58a38.85,38.85,0,0,0-3.37-5Z"/><path class="cls-1" d="M330.08,174.58a2,2,0,0,1,.65,1.55,2.09,2.09,0,0,1-.65,1.55,2.36,2.36,0,0,1-1.58.61,2.28,2.28,0,0,1-1.58-.61,2.05,2.05,0,0,1-.65-1.55,2,2,0,0,1,.65-1.55,2.16,2.16,0,0,1,1.58-.61A2.24,2.24,0,0,1,330.08,174.58Zm-2.61.56a1.27,1.27,0,0,0-.43,1,1.36,1.36,0,0,0,.43,1,1.43,1.43,0,0,0,1,.41,1.51,1.51,0,0,0,1-.41,1.36,1.36,0,0,0,.43-1,1.3,1.3,0,0,0-.43-1,1.4,1.4,0,0,0-1-.42A1.36,1.36,0,0,0,327.47,175.14Z"/></svg>