<svg id="图层_1" data-name="图层 1" xmlns="http://www.w3.org/2000/svg" viewBox="0 0 500 640"><defs><style>.cls-1{fill:#6ae276;}.cls-2{fill:#fff;}.cls-3{fill:#c1c1c1;}.cls-4{fill:#33353c;}</style></defs><title>英文</title><rect class="cls-1" x="37.22" y="112.95" width="22.33" height="22.33" transform="translate(-73.59 70.57) rotate(-45)"/><rect class="cls-1" x="440.45" y="112.95" width="22.33" height="22.33" transform="translate(44.51 355.69) rotate(-45)"/><rect class="cls-2" x="48.39" y="33.45" width="406.7" height="593"/><rect class="cls-1" x="32.64" y="13.55" width="434.77" height="110.56"/><path class="cls-2" d="M166.86,55.24a9.54,9.54,0,0,1,3.42,6.2h-3.81A6.19,6.19,0,0,0,164,57.58a8.06,8.06,0,0,0-4.61-1.22,7.28,7.28,0,0,0-6.26,2.84,11.34,11.34,0,0,0-2,7.09,11.67,11.67,0,0,0,1.94,7.17q2.06,2.7,6.38,2.7a7.49,7.49,0,0,0,4.68-1.41,8,8,0,0,0,2.7-4.53h3.81a11.32,11.32,0,0,1-4,7,11,11,0,0,1-7.13,2.38q-6.3,0-9.5-4-2.78-3.42-2.77-9.29A14.39,14.39,0,0,1,150.09,57q3.19-4.06,9.36-4.07A11.37,11.37,0,0,1,166.86,55.24Z"/><path class="cls-2" d="M185.29,60.46v3.82a9.28,9.28,0,0,0-2.7-.4,4.2,4.2,0,0,0-3.09,1.41,5.41,5.41,0,0,0-1.44,4v9.86h-3.82V60.5h3.82v2.81a5.46,5.46,0,0,1,1.8-2.27,4.56,4.56,0,0,1,3-1A5.39,5.39,0,0,1,185.29,60.46Z"/><path class="cls-2" d="M203,62.8a10.11,10.11,0,0,1,2.52,7,9.88,9.88,0,0,1-2.48,7,9.55,9.55,0,0,1-13.61,0,9.84,9.84,0,0,1-2.49-7,10,10,0,0,1,2.52-7,9.58,9.58,0,0,1,13.54,0ZM192.1,65.21a7.68,7.68,0,0,0-1.26,4.61,7.62,7.62,0,0,0,1.26,4.58,4.73,4.73,0,0,0,4.1,2.08,4.89,4.89,0,0,0,4.14-2.08,7.72,7.72,0,0,0,1.3-4.58,7.58,7.58,0,0,0-1.3-4.61,4.84,4.84,0,0,0-4.14-2.08A4.69,4.69,0,0,0,192.1,65.21Z"/><path class="cls-2" d="M224,65.86h-3.7A3.5,3.5,0,0,0,219,63.78a5.29,5.29,0,0,0-2.95-.65,5,5,0,0,0-2.59.5,1.77,1.77,0,0,0-1,1.66c0,.62.51,1.17,1.51,1.65a31.36,31.36,0,0,0,3.75,1.12,15.91,15.91,0,0,1,4.71,1.76,4.38,4.38,0,0,1,2.24,3.89q0,5.91-8.28,5.91-7.64,0-8.28-6.52h3.74a4.13,4.13,0,0,0,1.33,2.66,5.37,5.37,0,0,0,3.1.72q4.46,0,4.46-2.52A2.34,2.34,0,0,0,219,71.84a20.14,20.14,0,0,0-3.75-1.08,15.41,15.41,0,0,1-4.61-1.62,4.22,4.22,0,0,1-2.16-3.74,4.49,4.49,0,0,1,2.09-4A9.46,9.46,0,0,1,216.07,60Q223.34,60,224,65.86Z"/><path class="cls-2" d="M242.71,65.86H239a3.44,3.44,0,0,0-1.33-2.08,5.29,5.29,0,0,0-2.95-.65,5,5,0,0,0-2.59.5,1.77,1.77,0,0,0-1,1.66c0,.62.5,1.17,1.51,1.65a30.76,30.76,0,0,0,3.75,1.12,16,16,0,0,1,4.71,1.76,4.38,4.38,0,0,1,2.24,3.89q0,5.91-8.29,5.91-7.62,0-8.27-6.52h3.74a4.13,4.13,0,0,0,1.33,2.66,5.35,5.35,0,0,0,3.1.72q4.45,0,4.46-2.52a2.34,2.34,0,0,0-1.65-2.12A20.14,20.14,0,0,0,234,70.76a15.41,15.41,0,0,1-4.61-1.62,4.22,4.22,0,0,1-2.16-3.74,4.49,4.49,0,0,1,2.09-4A9.46,9.46,0,0,1,234.79,60Q242.07,60,242.71,65.86Z"/><path class="cls-2" d="M277.49,55.24a9.54,9.54,0,0,1,3.42,6.2h-3.82a6.18,6.18,0,0,0-2.48-3.86A8.08,8.08,0,0,0,270,56.36a7.28,7.28,0,0,0-6.26,2.84,11.34,11.34,0,0,0-2,7.09,11.67,11.67,0,0,0,1.94,7.17q2.06,2.7,6.37,2.7a7.45,7.45,0,0,0,4.68-1.41,7.86,7.86,0,0,0,2.7-4.53h3.82a11.37,11.37,0,0,1-4,7,11.05,11.05,0,0,1-7.13,2.38q-6.3,0-9.51-4-2.76-3.42-2.77-9.29A14.39,14.39,0,0,1,260.71,57q3.21-4.06,9.36-4.07A11.38,11.38,0,0,1,277.49,55.24Z"/><path class="cls-2" d="M284.87,52.9h3.81V63.13a6.39,6.39,0,0,1,2.6-2.42,6.64,6.64,0,0,1,3.16-.71,6.4,6.4,0,0,1,5.08,2,8.33,8.33,0,0,1,1.62,5.58V79.11h-3.82V68.2a6.11,6.11,0,0,0-1-3.74A4,4,0,0,0,293,63.13a3.74,3.74,0,0,0-3.13,1.54,6.26,6.26,0,0,0-1.23,4V79.11h-3.81Z"/><path class="cls-2" d="M319.9,62.05a7.32,7.32,0,0,1,1.69,5.18V79.11h-3.53V76.48a8.2,8.2,0,0,1-2.74,2.27,9.88,9.88,0,0,1-4.28.87,6.73,6.73,0,0,1-4.57-1.48,5.06,5.06,0,0,1-1.73-4,5.69,5.69,0,0,1,2.77-5.22,11.55,11.55,0,0,1,6.12-1.44l4.18,0V67c0-2.59-1.41-3.89-4.21-3.89a5.34,5.34,0,0,0-3,.72,3.28,3.28,0,0,0-1.47,2.45h-3.78a6.55,6.55,0,0,1,2.8-4.9A10.2,10.2,0,0,1,313.85,60Q317.94,60,319.9,62.05Zm-2.09,8.31-3.93,0q-5.22,0-5.22,3.64a2.33,2.33,0,0,0,.83,1.83,3.58,3.58,0,0,0,2.41.72,6.47,6.47,0,0,0,4.29-1.44,4.91,4.91,0,0,0,1.62-3.82Z"/><path class="cls-2" d="M330.55,53.77a2.31,2.31,0,0,1,.76,1.83,2.57,2.57,0,0,1-.79,1.87,2.77,2.77,0,0,1-3.75,0A2.53,2.53,0,0,1,326,55.6a2.34,2.34,0,0,1,.75-1.83,2.52,2.52,0,0,1,1.87-.72A2.57,2.57,0,0,1,330.55,53.77Zm-3.81,6.73h3.81V79.11h-3.81Z"/><path class="cls-2" d="M352.08,67.63V79.11h-3.82V68q0-4.76-4.35-4.75a3.87,3.87,0,0,0-2.85,1.15,5.6,5.6,0,0,0-1.54,3.56v11.2H335.7V60.5h3.82v2.3A7.17,7.17,0,0,1,342,60.71a6.6,6.6,0,0,1,3.13-.71Q352.08,60,352.08,67.63Z"/><path class="cls-1" d="M189.28,177.25a8,8,0,0,1,2.58,6.12,9.89,9.89,0,0,1-2.78,6.71,40.53,40.53,0,0,1-5.88,4.56c-3,2-4.87,3.8-5.48,5.36H191.9v3.82H172.36a10.83,10.83,0,0,1,2.82-7.43,37.29,37.29,0,0,1,6.39-5.16,30.26,30.26,0,0,0,4.05-3.26,6.86,6.86,0,0,0,1.95-4.64,4.62,4.62,0,0,0-1.31-3.58,5.56,5.56,0,0,0-3.85-1.19,4.71,4.71,0,0,0-4,1.83,8.71,8.71,0,0,0-1.51,5.2h-4.33a11,11,0,0,1,2.74-7.62,9.26,9.26,0,0,1,7.31-3.06A9.61,9.61,0,0,1,189.28,177.25Z"/><path class="cls-1" d="M213.7,179.12q2.51,3.93,2.5,10.52t-2.5,10.52a9.23,9.23,0,0,1-15.49,0q-2.51-3.93-2.5-10.52t2.5-10.52a9.23,9.23,0,0,1,15.49,0ZM201,182.41a25.89,25.89,0,0,0,0,14.46q1.42,3.85,4.93,3.85c2.32,0,4-1.28,4.92-3.85a20.91,20.91,0,0,0,1-7.23,20.53,20.53,0,0,0-1-7.23c-.95-2.56-2.6-3.85-4.92-3.85S202,179.85,201,182.41Z"/><path class="cls-1" d="M236.93,177.25a8,8,0,0,1,2.58,6.12,9.89,9.89,0,0,1-2.78,6.71,40.53,40.53,0,0,1-5.88,4.56c-3,2-4.87,3.8-5.48,5.36h14.18v3.82H220a10.83,10.83,0,0,1,2.82-7.43,37.29,37.29,0,0,1,6.39-5.16,30.26,30.26,0,0,0,4.05-3.26,6.86,6.86,0,0,0,1.95-4.64,4.62,4.62,0,0,0-1.31-3.58,5.56,5.56,0,0,0-3.85-1.19,4.71,4.71,0,0,0-4.05,1.83,8.71,8.71,0,0,0-1.51,5.2h-4.33a11,11,0,0,1,2.74-7.62,9.24,9.24,0,0,1,7.31-3.06A9.61,9.61,0,0,1,236.93,177.25Z"/><path class="cls-1" d="M256.58,175.46v28.36h-4.33V180.67a15.49,15.49,0,0,1-6.51,3.57V180a16.73,16.73,0,0,0,4-1.67,17.07,17.07,0,0,0,3.5-2.82Z"/><path class="cls-1" d="M304.27,179.12q3.57,4,3.57,10.56a15.47,15.47,0,0,1-3.45,10.4q2.22,3,3.14,4.33l-2.78,2.46c-1.25-1.8-2.29-3.27-3.14-4.4a14.26,14.26,0,0,1-7.54,1.9q-6.48,0-10.21-4.21-3.54-4-3.53-10.48t3.53-10.52q3.66-4.24,10.21-4.25T304.27,179.12ZM287,181.78a14.19,14.19,0,0,0,0,15.76,8.69,8.69,0,0,0,7,3,9.65,9.65,0,0,0,5.08-1.27q-2-2.53-4.25-4.88l2.5-2.47q1.78,1.88,4.29,4.81a12.74,12.74,0,0,0,1.79-7.07,12.3,12.3,0,0,0-2.43-8,9.68,9.68,0,0,0-14,.12Z"/><path class="cls-1" d="M328.49,177.25a8,8,0,0,1,2.58,6.12,9.84,9.84,0,0,1-2.78,6.71,40.88,40.88,0,0,1-5.87,4.56c-3.05,2-4.87,3.8-5.48,5.36h14.17v3.82H311.58a10.83,10.83,0,0,1,2.82-7.43,36.87,36.87,0,0,1,6.39-5.16,31.66,31.66,0,0,0,4-3.26,6.86,6.86,0,0,0,2-4.64,4.59,4.59,0,0,0-1.32-3.58,5.55,5.55,0,0,0-3.85-1.19,4.71,4.71,0,0,0-4.05,1.83,8.78,8.78,0,0,0-1.51,5.2h-4.32a11,11,0,0,1,2.74-7.62,9.24,9.24,0,0,1,7.3-3.06A9.61,9.61,0,0,1,328.49,177.25Z"/><circle class="cls-3" cx="102.56" cy="270.69" r="3.67"/><path class="cls-4" d="M114.61,261.22h13.47v1.45H116.25v7.07h11.18v1.48H116.25V279h12.28v1.45H114.61Z"/><path class="cls-4" d="M130.42,266.51h1.93l4,5.35,4-5.35h1.91l-5,6.57,5.57,7.33h-1.93l-4.55-6.13-4.57,6.13h-1.93l5.59-7.33Z"/><path class="cls-4" d="M155.74,268.37a8.19,8.19,0,0,1,1.54,5.13,8.39,8.39,0,0,1-1.51,5.09,5.59,5.59,0,0,1-4.65,2.2,5.08,5.08,0,0,1-4.87-3.28v8.23h-1.61V266.51h1.53v2.75a5.11,5.11,0,0,1,4.89-3.12A5.57,5.57,0,0,1,155.74,268.37Zm-8.39.91a6.75,6.75,0,0,0-1.15,4.12v.29a6.54,6.54,0,0,0,1.23,4.12,4.12,4.12,0,0,0,3.39,1.61,4.35,4.35,0,0,0,3.66-1.72,7.13,7.13,0,0,0,1.13-4.2,7.26,7.26,0,0,0-1.1-4.19,4.21,4.21,0,0,0-3.63-1.8A4.1,4.1,0,0,0,147.35,269.28Z"/><path class="cls-4" d="M170.34,267.72a5.36,5.36,0,0,1,1.24,3.74v9h-1.53v-2.66a7.15,7.15,0,0,1-2.26,2.07,7,7,0,0,1-3.63,1,5,5,0,0,1-3.31-1.05,3.57,3.57,0,0,1-1.26-2.87,4.12,4.12,0,0,1,2.18-3.88,9.39,9.39,0,0,1,4.65-1l3.55,0v-.51q0-3.94-4-3.95a4.78,4.78,0,0,0-2.9.78,3.3,3.3,0,0,0-1.42,2.42H160a4.86,4.86,0,0,1,2-3.5,6.86,6.86,0,0,1,4-1.07A5.48,5.48,0,0,1,170.34,267.72Zm-.37,5.57-3.47,0c-3.52,0-5.27,1.19-5.27,3.52a2.32,2.32,0,0,0,.89,1.88,3.51,3.51,0,0,0,2.36.73,5.8,5.8,0,0,0,3.87-1.45,4.13,4.13,0,0,0,1.62-3.1Z"/><path class="cls-4" d="M186.26,271.86v8.55h-1.61V272c0-3-1.32-4.43-4-4.43a3.65,3.65,0,0,0-2.8,1.21,4.9,4.9,0,0,0-1.32,3.28v8.38H175v-13.9h1.61v2.29a5.61,5.61,0,0,1,1.88-2,4.89,4.89,0,0,1,2.64-.7Q186.26,266.14,186.26,271.86Z"/><path class="cls-4" d="M200.13,260.84h1.62v19.57h-1.54v-2.74a5,5,0,0,1-4.86,3.12,5.65,5.65,0,0,1-4.71-2.2,8.28,8.28,0,0,1-1.53-5.14,8.16,8.16,0,0,1,1.53-5.08,5.44,5.44,0,0,1,4.63-2.23,5.07,5.07,0,0,1,4.86,3.31Zm-8.22,8.44a6.67,6.67,0,0,0-1.16,4.17,7.13,7.13,0,0,0,1.13,4.2,4.18,4.18,0,0,0,3.63,1.77A4.11,4.11,0,0,0,199,277.7a6.76,6.76,0,0,0,1.16-4v-.33a6.74,6.74,0,0,0-1.24-4.16,4,4,0,0,0-3.39-1.67A4.25,4.25,0,0,0,191.91,269.28Z"/><path class="cls-4" d="M217.45,262v4.49h3.63v1.4h-3.63v9.41a2.17,2.17,0,0,0,.32,1.32A1.56,1.56,0,0,0,219,279h1.75v1.39h-2a2.83,2.83,0,0,1-2.31-.83,3.32,3.32,0,0,1-.62-2.26v-9.41h-3v-1.4h3V262.7Z"/><path class="cls-4" d="M223.52,260.84h1.65V269a5.34,5.34,0,0,1,1.93-2.18,5,5,0,0,1,2.64-.72,4.83,4.83,0,0,1,3.71,1.4,5.62,5.62,0,0,1,1.34,4v8.87h-1.61v-8.65a4.59,4.59,0,0,0-1-3.15,3.82,3.82,0,0,0-2.88-1.07,3.74,3.74,0,0,0-2.93,1.39,5,5,0,0,0-1.18,3.45v8h-1.65Z"/><path class="cls-4" d="M248.75,268.37a9.72,9.72,0,0,1,1.58,5.57H239a6.56,6.56,0,0,0,1.37,4,4.37,4.37,0,0,0,3.44,1.45,4.7,4.7,0,0,0,3.07-1A5.27,5.27,0,0,0,248.4,276H250a6.51,6.51,0,0,1-1.86,3.31,6.21,6.21,0,0,1-4.33,1.53,5.89,5.89,0,0,1-4.67-2,7.62,7.62,0,0,1-1.81-5.35,7.75,7.75,0,0,1,1.73-5.13,6.38,6.38,0,0,1,9.65.05Zm-8.23.59a6.1,6.1,0,0,0-1.45,3.66h9.57q-.4-5.08-4.81-5.08A4.16,4.16,0,0,0,240.52,269Z"/><path class="cls-4" d="M273.16,271.86v8.55h-1.61V272c0-3-1.32-4.43-4-4.43a3.64,3.64,0,0,0-2.79,1.21,4.9,4.9,0,0,0-1.32,3.28v8.38h-1.61v-13.9h1.61v2.29a5.61,5.61,0,0,1,1.88-2,4.86,4.86,0,0,1,2.64-.7Q273.16,266.14,273.16,271.86Z"/><path class="cls-4" d="M276.55,266.51h1.61V275a4.9,4.9,0,0,0,.92,3.25,3.68,3.68,0,0,0,3,1.13,3.88,3.88,0,0,0,2.82-1.23,4.89,4.89,0,0,0,1.37-3.2v-8.45h1.62v13.9h-1.62v-2.33a5.08,5.08,0,0,1-4.62,2.71q-5.08,0-5.08-5.7Z"/><path class="cls-4" d="M301.26,269a5.47,5.47,0,0,1,1.85-2.13,4.36,4.36,0,0,1,2.53-.72,4.61,4.61,0,0,1,3.5,1.37,5.48,5.48,0,0,1,1.26,3.82v9.08h-1.62v-8.87a4.57,4.57,0,0,0-.8-3,3.46,3.46,0,0,0-2.77-1,3.19,3.19,0,0,0-2.53,1.15,4.09,4.09,0,0,0-1,2.88v8.84H300v-8.87q0-4-3.47-4a3.21,3.21,0,0,0-2.61,1.26,4.53,4.53,0,0,0-1.07,3.06v8.55h-1.62v-13.9h1.62v2.1a4.51,4.51,0,0,1,4-2.47A4.2,4.2,0,0,1,301.26,269Z"/><path class="cls-4" d="M313.79,260.84h1.61v8.61a5.08,5.08,0,0,1,4.87-3.31,5.43,5.43,0,0,1,4.62,2.23,8.16,8.16,0,0,1,1.53,5.08,8.28,8.28,0,0,1-1.53,5.14,5.61,5.61,0,0,1-4.68,2.2,5,5,0,0,1-4.89-3.12v2.74h-1.53Zm2.79,8.34a6.58,6.58,0,0,0-1.23,4.16v.33a6.59,6.59,0,0,0,1.15,4,4.08,4.08,0,0,0,3.52,1.72,4.22,4.22,0,0,0,3.63-1.77,7.05,7.05,0,0,0,1.13-4.2,6.85,6.85,0,0,0-1.15-4.17,4.26,4.26,0,0,0-3.66-1.77A4,4,0,0,0,316.58,269.18Z"/><path class="cls-4" d="M339.84,268.37a9.72,9.72,0,0,1,1.59,5.57h-11.3a6.56,6.56,0,0,0,1.37,4,4.39,4.39,0,0,0,3.45,1.45,4.69,4.69,0,0,0,3.06-1,5.18,5.18,0,0,0,1.48-2.45h1.64a6.49,6.49,0,0,1-1.85,3.31,6.23,6.23,0,0,1-4.33,1.53,5.89,5.89,0,0,1-4.68-2,7.66,7.66,0,0,1-1.8-5.35,7.74,7.74,0,0,1,1.72-5.13,6.38,6.38,0,0,1,9.65.05Zm-8.23.59a6.16,6.16,0,0,0-1.45,3.66h9.57q-.41-5.08-4.81-5.08A4.17,4.17,0,0,0,331.61,269Z"/><path class="cls-4" d="M351.86,266.43v1.64a7.67,7.67,0,0,0-2.13-.29,3.43,3.43,0,0,0-3,1.67,6,6,0,0,0-1.1,3.63v7.33H344v-13.9h1.61v2.67a5.15,5.15,0,0,1,1.53-2.07,4,4,0,0,1,2.69-1A5.73,5.73,0,0,1,351.86,266.43Z"/><path class="cls-4" d="M373.64,268.34a8.62,8.62,0,0,1,0,10.25,6.6,6.6,0,0,1-9.84,0,8.54,8.54,0,0,1,0-10.25,6,6,0,0,1,4.9-2.2A6.11,6.11,0,0,1,373.64,268.34Zm-8.66,1a7.41,7.41,0,0,0,0,8.21,4.77,4.77,0,0,0,7.5,0,6.73,6.73,0,0,0,1.24-4.09,6.64,6.64,0,0,0-1.24-4.12,4.77,4.77,0,0,0-7.5,0Z"/><path class="cls-4" d="M386.3,261.22v1.42H384a1.89,1.89,0,0,0-1.53.54,2.47,2.47,0,0,0-.48,1.72v1.61h4.16v1.4H382v12.5h-1.62v-12.5h-3.71v-1.4h3.71v-1.64a3.7,3.7,0,0,1,.86-2.66,3.36,3.36,0,0,1,2.64-1Z"/><path class="cls-4" d="M124.55,302.29a5.36,5.36,0,0,1,1.24,3.74v9h-1.53v-2.66a7.15,7.15,0,0,1-2.26,2.07,7,7,0,0,1-3.63,1,5,5,0,0,1-3.31-1.05,3.57,3.57,0,0,1-1.26-2.87,4.12,4.12,0,0,1,2.18-3.88,9.39,9.39,0,0,1,4.65-1l3.55,0V306c0-2.63-1.35-3.95-4-3.95a4.79,4.79,0,0,0-2.91.78,3.3,3.3,0,0,0-1.42,2.42h-1.59a4.89,4.89,0,0,1,2-3.5,6.88,6.88,0,0,1,4-1.07A5.48,5.48,0,0,1,124.55,302.29Zm-.37,5.57-3.47,0c-3.51,0-5.27,1.19-5.27,3.52a2.32,2.32,0,0,0,.89,1.88,3.51,3.51,0,0,0,2.36.73,5.78,5.78,0,0,0,3.87-1.45,4.13,4.13,0,0,0,1.62-3.1Z"/><path class="cls-4" d="M140.28,302.94a8.19,8.19,0,0,1,1.54,5.13,8.39,8.39,0,0,1-1.51,5.09,5.59,5.59,0,0,1-4.65,2.2,5.08,5.08,0,0,1-4.87-3.28v8.23h-1.61V301.08h1.53v2.75a5.11,5.11,0,0,1,4.89-3.12A5.57,5.57,0,0,1,140.28,302.94Zm-8.39.91a6.75,6.75,0,0,0-1.15,4.12v.29a6.54,6.54,0,0,0,1.23,4.12,4.12,4.12,0,0,0,3.39,1.61,4.35,4.35,0,0,0,3.66-1.72,7.13,7.13,0,0,0,1.13-4.2,7.26,7.26,0,0,0-1.1-4.19,4.21,4.21,0,0,0-3.63-1.8A4.1,4.1,0,0,0,131.89,303.85Z"/><path class="cls-4" d="M155.77,302.94a8.25,8.25,0,0,1,1.53,5.13,8.39,8.39,0,0,1-1.5,5.09,5.59,5.59,0,0,1-4.65,2.2,5.08,5.08,0,0,1-4.87-3.28v8.23h-1.61V301.08h1.53v2.75a5.11,5.11,0,0,1,4.89-3.12A5.59,5.59,0,0,1,155.77,302.94Zm-8.39.91a6.75,6.75,0,0,0-1.15,4.12v.29a6.54,6.54,0,0,0,1.23,4.12,4.09,4.09,0,0,0,3.39,1.61,4.35,4.35,0,0,0,3.66-1.72,8.42,8.42,0,0,0,0-8.39,4.21,4.21,0,0,0-3.63-1.8A4.08,4.08,0,0,0,147.38,303.85Z"/><path class="cls-4" d="M160.66,295.41h1.62V315h-1.62Z"/><path class="cls-4" d="M168.76,296.49a1.12,1.12,0,0,1,.4.94,1.29,1.29,0,0,1-.43,1,1.37,1.37,0,0,1-.94.38,1.27,1.27,0,0,1-1-.38,1.29,1.29,0,0,1-.4-1,1.12,1.12,0,0,1,.4-.94,1.26,1.26,0,0,1,1-.41A1.34,1.34,0,0,1,168.76,296.49ZM167,301.08h1.61V315H167Z"/><path class="cls-4" d="M182.71,301.92a5.26,5.26,0,0,1,1.91,3.71H183a4,4,0,0,0-1.4-2.64,4.66,4.66,0,0,0-3-.88,4.15,4.15,0,0,0-3.49,1.69,6.73,6.73,0,0,0-1.27,4.33,6.89,6.89,0,0,0,1.21,4.25,4.18,4.18,0,0,0,3.52,1.58c2.59,0,4.07-1.31,4.47-3.95h1.58a6.4,6.4,0,0,1-2,4,6.07,6.07,0,0,1-4.07,1.34,5.79,5.79,0,0,1-4.78-2.1,7.75,7.75,0,0,1-1.59-5.13,8.09,8.09,0,0,1,1.64-5.22,5.71,5.71,0,0,1,4.76-2.2A6.41,6.41,0,0,1,182.71,301.92Z"/><path class="cls-4" d="M197.47,302.29a5.36,5.36,0,0,1,1.24,3.74v9h-1.53v-2.66a7.15,7.15,0,0,1-2.26,2.07,7,7,0,0,1-3.63,1,5,5,0,0,1-3.31-1.05,3.57,3.57,0,0,1-1.26-2.87,4.11,4.11,0,0,1,2.17-3.88,9.46,9.46,0,0,1,4.66-1l3.54,0V306q0-3.94-4-3.95a4.76,4.76,0,0,0-2.9.78,3.31,3.31,0,0,0-1.43,2.42h-1.58a4.86,4.86,0,0,1,2-3.5,6.85,6.85,0,0,1,4-1.07A5.49,5.49,0,0,1,197.47,302.29Zm-.38,5.57-3.46,0c-3.52,0-5.27,1.19-5.27,3.52a2.31,2.31,0,0,0,.88,1.88,3.55,3.55,0,0,0,2.37.73,5.82,5.82,0,0,0,3.87-1.45,4.11,4.11,0,0,0,1.61-3.1Z"/><path class="cls-4" d="M205.46,296.59v4.49h3.63v1.4h-3.63v9.41a2.17,2.17,0,0,0,.32,1.32,1.56,1.56,0,0,0,1.21.38h1.75V315h-2a2.86,2.86,0,0,1-2.32-.83,3.37,3.37,0,0,1-.62-2.26v-9.41h-3v-1.4h3v-3.81Z"/><path class="cls-4" d="M214.12,296.49a1.12,1.12,0,0,1,.4.94,1.29,1.29,0,0,1-.43,1,1.37,1.37,0,0,1-.94.38,1.27,1.27,0,0,1-1-.38,1.29,1.29,0,0,1-.4-1,1.12,1.12,0,0,1,.4-.94,1.26,1.26,0,0,1,1-.41A1.34,1.34,0,0,1,214.12,296.49Zm-1.78,4.59H214V315h-1.61Z"/><path class="cls-4" d="M229.15,302.91a8.62,8.62,0,0,1,0,10.25,6.61,6.61,0,0,1-9.85,0,7.87,7.87,0,0,1-1.69-5.11,7.69,7.69,0,0,1,1.72-5.14,6,6,0,0,1,4.89-2.2A6.12,6.12,0,0,1,229.15,302.91Zm-8.66,1a6.48,6.48,0,0,0-1.24,4.12,6.4,6.4,0,0,0,1.24,4.08,4.76,4.76,0,0,0,7.5,0,7.4,7.4,0,0,0,0-8.2,4.43,4.43,0,0,0-3.77-1.82A4.38,4.38,0,0,0,220.49,303.93Z"/><path class="cls-4" d="M245,306.43V315h-1.61v-8.44c0-3-1.32-4.43-4-4.43a3.65,3.65,0,0,0-2.8,1.21,4.88,4.88,0,0,0-1.32,3.28V315h-1.61v-13.9h1.61v2.29a5.7,5.7,0,0,1,1.88-2,4.89,4.89,0,0,1,2.64-.7Q245,300.71,245,306.43Z"/><path class="cls-4" d="M257.83,295.41h1.62V315h-1.62Z"/><path class="cls-4" d="M273.56,302.29A5.36,5.36,0,0,1,274.8,306v9h-1.53v-2.66a7.15,7.15,0,0,1-2.26,2.07,7,7,0,0,1-3.63,1,5,5,0,0,1-3.31-1.05,3.57,3.57,0,0,1-1.26-2.87,4.1,4.1,0,0,1,2.18-3.88,9.39,9.39,0,0,1,4.65-1l3.55,0V306q0-3.94-4-3.95a4.76,4.76,0,0,0-2.9.78,3.35,3.35,0,0,0-1.43,2.42h-1.58a4.86,4.86,0,0,1,2-3.5,6.85,6.85,0,0,1,4-1.07A5.49,5.49,0,0,1,273.56,302.29Zm-.37,5.57-3.47,0c-3.52,0-5.27,1.19-5.27,3.52a2.31,2.31,0,0,0,.88,1.88,3.55,3.55,0,0,0,2.37.73,5.82,5.82,0,0,0,3.87-1.45,4.13,4.13,0,0,0,1.62-3.1Z"/><path class="cls-4" d="M276.63,301.08h1.77L283,312.67l4.49-11.59h1.77l-7.66,19.23H279.8l2.34-5.68Z"/><path class="cls-4" d="M301.6,302.94a9.63,9.63,0,0,1,1.59,5.56H291.9a6.51,6.51,0,0,0,1.37,4,4.37,4.37,0,0,0,3.44,1.45,4.7,4.7,0,0,0,3.07-1,5.35,5.35,0,0,0,1.48-2.45h1.64a6.51,6.51,0,0,1-1.86,3.31,6.21,6.21,0,0,1-4.33,1.53,5.92,5.92,0,0,1-4.68-2,7.68,7.68,0,0,1-1.8-5.35,7.79,7.79,0,0,1,1.72-5.13,6.38,6.38,0,0,1,9.65.05Zm-8.22.59a6,6,0,0,0-1.45,3.66h9.57c-.27-3.39-1.88-5.08-4.81-5.08A4.16,4.16,0,0,0,293.38,303.53Z"/><path class="cls-4" d="M313.62,301v1.64a7.65,7.65,0,0,0-2.12-.29,3.43,3.43,0,0,0-3,1.66,6,6,0,0,0-1.1,3.63V315h-1.62v-13.9h1.62v2.67a5,5,0,0,1,1.53-2.07,4,4,0,0,1,2.69-1A5.63,5.63,0,0,1,313.62,301Z"/><path class="cls-4" d="M325.72,305h-1.58a3.29,3.29,0,0,0-1.16-2.12,5.56,5.56,0,0,0-5.32-.14,1.85,1.85,0,0,0,.27,3.37,19,19,0,0,0,2.93,1,14,14,0,0,1,3.6,1.29,3.16,3.16,0,0,1,1.67,2.8c0,2.81-1.89,4.22-5.65,4.22-3.57,0-5.51-1.58-5.83-4.76h1.58a3.79,3.79,0,0,0,1.29,2.64,4.88,4.88,0,0,0,2.91.72q4,0,4-2.74a2.09,2.09,0,0,0-1.37-1.93,17.33,17.33,0,0,0-3.09-1,13.54,13.54,0,0,1-3.39-1.24,3,3,0,0,1-1.59-2.66,3.13,3.13,0,0,1,1.51-2.72,6.26,6.26,0,0,1,3.65-1Q325.13,300.71,325.72,305Z"/><circle class="cls-3" cx="102.56" cy="367.85" r="3.67"/><path class="cls-4" d="M113.8,358.89h7.8c4.26,0,6.39,1.83,6.39,5.51s-2.14,5.54-6.42,5.54h-6.13v8.14H113.8Zm1.64,1.45v8.15h6a5.73,5.73,0,0,0,3.68-1,3.91,3.91,0,0,0,1.16-3.07,3.75,3.75,0,0,0-1.16-3,5.48,5.48,0,0,0-3.68-1.05Z"/><path class="cls-4" d="M141.57,366a8.58,8.58,0,0,1,0,10.25,6.6,6.6,0,0,1-9.84,0,7.81,7.81,0,0,1-1.69-5.11,7.71,7.71,0,0,1,1.72-5.14,6,6,0,0,1,4.89-2.2A6.09,6.09,0,0,1,141.57,366Zm-8.66,1a6.54,6.54,0,0,0-1.23,4.12,6.46,6.46,0,0,0,1.23,4.08,4.77,4.77,0,0,0,7.51,0,7.45,7.45,0,0,0,0-8.2,4.78,4.78,0,0,0-7.51,0Z"/><path class="cls-4" d="M148.7,359.59a1.12,1.12,0,0,1,.4.94,1.29,1.29,0,0,1-.43,1,1.41,1.41,0,0,1-.94.38,1.33,1.33,0,0,1-1-.38,1.29,1.29,0,0,1-.4-1,1.12,1.12,0,0,1,.4-.94,1.28,1.28,0,0,1,1-.41A1.32,1.32,0,0,1,148.7,359.59Zm-1.78,4.59h1.62v13.9h-1.62Z"/><path class="cls-4" d="M164,369.53v8.55h-1.61v-8.44q0-4.42-3.95-4.43a3.68,3.68,0,0,0-2.8,1.2,4.92,4.92,0,0,0-1.32,3.29v8.38h-1.61v-13.9h1.61v2.29a5.64,5.64,0,0,1,1.89-2,4.83,4.83,0,0,1,2.63-.7Q164,363.81,164,369.53Z"/><path class="cls-4" d="M170.77,359.69v4.49h3.63v1.4h-3.63V375a2.17,2.17,0,0,0,.32,1.32,1.56,1.56,0,0,0,1.21.38h1.75v1.39h-2a2.83,2.83,0,0,1-2.31-.83,3.39,3.39,0,0,1-.62-2.26v-9.41h-3v-1.4h3v-3.82Z"/><path class="cls-4" d="M187.12,368.08h-1.59a3.28,3.28,0,0,0-1.15-2.12,4.49,4.49,0,0,0-2.83-.75,4.54,4.54,0,0,0-2.5.61,2,2,0,0,0-1,1.67,1.93,1.93,0,0,0,1.23,1.7,19.39,19.39,0,0,0,2.93,1,14,14,0,0,1,3.61,1.29,3.14,3.14,0,0,1,1.66,2.8q0,4.22-5.64,4.22-5.35,0-5.84-4.76h1.59a3.79,3.79,0,0,0,1.29,2.64,4.82,4.82,0,0,0,2.9.72q4,0,4-2.74a2.12,2.12,0,0,0-1.37-1.94,18.73,18.73,0,0,0-3.1-1,13.43,13.43,0,0,1-3.38-1.24,2.94,2.94,0,0,1-1.59-2.66,3.15,3.15,0,0,1,1.5-2.72,6.28,6.28,0,0,1,3.66-1C184.88,363.81,186.72,365.23,187.12,368.08Z"/><path class="cls-4" d="M200.67,366a9.71,9.71,0,0,1,1.59,5.56H191a6.57,6.57,0,0,0,1.37,4,4.39,4.39,0,0,0,3.45,1.45,4.69,4.69,0,0,0,3.06-1,5.18,5.18,0,0,0,1.48-2.45H202a6.44,6.44,0,0,1-1.86,3.31,6.18,6.18,0,0,1-4.32,1.53,5.89,5.89,0,0,1-4.68-2A8.68,8.68,0,0,1,191,366a6.38,6.38,0,0,1,9.65.05Zm-8.23.59a6.16,6.16,0,0,0-1.45,3.66h9.57q-.41-5.09-4.81-5.08A4.17,4.17,0,0,0,192.44,366.63Z"/><path class="cls-4" d="M208.2,359.69v4.49h3.63v1.4H208.2V375a2.17,2.17,0,0,0,.32,1.32,1.56,1.56,0,0,0,1.21.38h1.75v1.39h-2a2.86,2.86,0,0,1-2.32-.83,3.39,3.39,0,0,1-.62-2.26v-9.41h-3v-1.4h3v-3.82Z"/><path class="cls-4" d="M237,360.18a6.52,6.52,0,0,1,2.61,4.51H238a4.94,4.94,0,0,0-2.18-3.46,6.91,6.91,0,0,0-4.09-1.21,6.73,6.73,0,0,0-5.54,2.5,9.29,9.29,0,0,0-1.88,6.05,9.11,9.11,0,0,0,1.86,6,6.55,6.55,0,0,0,5.4,2.4,7,7,0,0,0,4.22-1.32,6.74,6.74,0,0,0,2.48-4.12h1.58a8.24,8.24,0,0,1-3,5.22,8.37,8.37,0,0,1-5.24,1.72,8.2,8.2,0,0,1-6.72-3,10.57,10.57,0,0,1-2.21-6.93,10.72,10.72,0,0,1,2.26-7,9.1,9.1,0,0,1,12-1.37Z"/><path class="cls-4" d="M242.72,358.51h1.64v8.2a5.37,5.37,0,0,1,1.94-2.18,5,5,0,0,1,2.63-.72,4.82,4.82,0,0,1,3.71,1.4,5.58,5.58,0,0,1,1.35,4v8.87h-1.62v-8.65a4.59,4.59,0,0,0-1-3.15,3.82,3.82,0,0,0-2.88-1.07,3.75,3.75,0,0,0-2.93,1.39,5.08,5.08,0,0,0-1.18,3.45v8h-1.64Z"/><path class="cls-4" d="M267.59,365.39a5.36,5.36,0,0,1,1.24,3.74v8.95H267.3v-2.66a7.15,7.15,0,0,1-2.26,2.07,7,7,0,0,1-3.63,1,5,5,0,0,1-3.31-1,3.57,3.57,0,0,1-1.26-2.87,4.1,4.1,0,0,1,2.18-3.88,9.39,9.39,0,0,1,4.65-1l3.55,0v-.51q0-3.94-4-3.95a4.76,4.76,0,0,0-2.9.78,3.35,3.35,0,0,0-1.43,2.42h-1.58a4.86,4.86,0,0,1,2-3.5,6.85,6.85,0,0,1,4-1.07A5.49,5.49,0,0,1,267.59,365.39Zm-.37,5.57-3.47,0c-3.52,0-5.27,1.19-5.27,3.52a2.31,2.31,0,0,0,.88,1.88,3.61,3.61,0,0,0,2.37.73,5.82,5.82,0,0,0,3.87-1.45,4.13,4.13,0,0,0,1.62-3.1Z"/><path class="cls-4" d="M274.8,359.59a1.12,1.12,0,0,1,.4.94,1.29,1.29,0,0,1-.43,1,1.41,1.41,0,0,1-.94.38,1.33,1.33,0,0,1-1-.38,1.29,1.29,0,0,1-.4-1,1.12,1.12,0,0,1,.4-.94,1.28,1.28,0,0,1,1-.41A1.32,1.32,0,0,1,274.8,359.59ZM273,364.18h1.62v13.9H273Z"/><path class="cls-4" d="M290.12,369.53v8.55h-1.61v-8.44q0-4.42-3.95-4.43a3.69,3.69,0,0,0-2.8,1.2,4.92,4.92,0,0,0-1.32,3.29v8.38h-1.61v-13.9h1.61v2.29a5.73,5.73,0,0,1,1.89-2,4.85,4.85,0,0,1,2.63-.7Q290.12,363.81,290.12,369.53Z"/><path class="cls-4" d="M312.68,365.39a5.36,5.36,0,0,1,1.24,3.74v8.95h-1.53v-2.66a7.15,7.15,0,0,1-2.26,2.07,7,7,0,0,1-3.63,1,5,5,0,0,1-3.31-1,3.57,3.57,0,0,1-1.26-2.87,4.1,4.1,0,0,1,2.18-3.88,9.39,9.39,0,0,1,4.65-1l3.54,0v-.51q0-3.94-4-3.95a4.76,4.76,0,0,0-2.9.78,3.35,3.35,0,0,0-1.43,2.42h-1.58a4.86,4.86,0,0,1,2-3.5,6.85,6.85,0,0,1,4-1.07A5.49,5.49,0,0,1,312.68,365.39ZM312.3,371l-3.46,0c-3.52,0-5.27,1.19-5.27,3.52a2.31,2.31,0,0,0,.88,1.88,3.61,3.61,0,0,0,2.37.73,5.82,5.82,0,0,0,3.87-1.45,4.11,4.11,0,0,0,1.61-3.1Z"/><path class="cls-4" d="M327.58,368.08H326a3.25,3.25,0,0,0-1.16-2.12,4.44,4.44,0,0,0-2.82-.75,4.51,4.51,0,0,0-2.5.61,2,2,0,0,0-1,1.67,1.92,1.92,0,0,0,1.24,1.7,19,19,0,0,0,2.93,1,14,14,0,0,1,3.6,1.29,3.15,3.15,0,0,1,1.67,2.8q0,4.22-5.65,4.22c-3.56,0-5.51-1.59-5.83-4.76h1.59a3.79,3.79,0,0,0,1.29,2.64,4.82,4.82,0,0,0,2.9.72q4,0,4-2.74a2.1,2.1,0,0,0-1.37-1.94,18.19,18.19,0,0,0-3.09-1,13.7,13.7,0,0,1-3.39-1.24,2.93,2.93,0,0,1-1.58-2.66,3.15,3.15,0,0,1,1.5-2.72,6.28,6.28,0,0,1,3.66-1C325.34,363.81,327.18,365.23,327.58,368.08Z"/><path class="cls-4" d="M340.83,368.08h-1.58a3.29,3.29,0,0,0-1.16-2.12,5.56,5.56,0,0,0-5.32-.14,1.85,1.85,0,0,0,.27,3.37,19,19,0,0,0,2.93,1,14,14,0,0,1,3.6,1.29,3.15,3.15,0,0,1,1.67,2.8c0,2.81-1.89,4.22-5.65,4.22-3.57,0-5.51-1.59-5.84-4.76h1.59a3.79,3.79,0,0,0,1.29,2.64,4.86,4.86,0,0,0,2.91.72c2.68,0,4-.91,4-2.74a2.12,2.12,0,0,0-1.37-1.94,18.51,18.51,0,0,0-3.09-1,13.38,13.38,0,0,1-3.39-1.24,2.94,2.94,0,0,1-1.59-2.66,3.13,3.13,0,0,1,1.51-2.72,6.26,6.26,0,0,1,3.65-1Q340.24,363.81,340.83,368.08Z"/><path class="cls-4" d="M354.38,366A9.63,9.63,0,0,1,356,371.6H344.68a6.51,6.51,0,0,0,1.37,4,4.37,4.37,0,0,0,3.44,1.45,4.7,4.7,0,0,0,3.07-1,5.35,5.35,0,0,0,1.48-2.45h1.63a6.42,6.42,0,0,1-1.85,3.31,6.21,6.21,0,0,1-4.33,1.53,5.92,5.92,0,0,1-4.68-2,8.68,8.68,0,0,1-.08-10.48,6.38,6.38,0,0,1,9.65.05Zm-8.22.59a6.11,6.11,0,0,0-1.46,3.66h9.58q-.4-5.09-4.82-5.08A4.13,4.13,0,0,0,346.16,366.63Z"/><path class="cls-4" d="M361.91,359.69v4.49h3.63v1.4h-3.63V375a2.1,2.1,0,0,0,.33,1.32,1.52,1.52,0,0,0,1.2.38h1.75v1.39h-2a2.83,2.83,0,0,1-2.31-.83,3.39,3.39,0,0,1-.62-2.26v-9.41h-3v-1.4h3v-3.82Z"/><path class="cls-4" d="M378.26,368.08h-1.59a3.28,3.28,0,0,0-1.15-2.12,5.56,5.56,0,0,0-5.32-.14,1.85,1.85,0,0,0,.26,3.37,19.8,19.8,0,0,0,2.93,1,14,14,0,0,1,3.61,1.29,3.14,3.14,0,0,1,1.66,2.8q0,4.22-5.64,4.22c-3.57,0-5.51-1.59-5.84-4.76h1.59a3.79,3.79,0,0,0,1.29,2.64,4.84,4.84,0,0,0,2.9.72q4,0,4-2.74a2.12,2.12,0,0,0-1.37-1.94,18.73,18.73,0,0,0-3.1-1,13.43,13.43,0,0,1-3.38-1.24,2.94,2.94,0,0,1-1.59-2.66,3.13,3.13,0,0,1,1.51-2.72,6.22,6.22,0,0,1,3.65-1Q377.67,363.81,378.26,368.08Z"/><circle class="cls-3" cx="102.56" cy="439.61" r="3.67"/><path class="cls-4" d="M113.8,430h6.83c3,0,5.24.89,6.75,2.69q2.07,2.44,2.07,6.9a9.9,9.9,0,0,1-2.32,6.94,8.77,8.77,0,0,1-6.85,2.66H113.8Zm1.64,1.45v16.29H120a7.59,7.59,0,0,0,5.87-2.18,8.46,8.46,0,0,0,1.93-6q0-4-1.69-6c-1.22-1.44-3.14-2.15-5.75-2.15Z"/><path class="cls-4" d="M142.86,437.17a9.63,9.63,0,0,1,1.59,5.56H133.16a6.51,6.51,0,0,0,1.37,4,4.36,4.36,0,0,0,3.44,1.45,4.65,4.65,0,0,0,3.06-1,5.18,5.18,0,0,0,1.48-2.45h1.64a6.53,6.53,0,0,1-1.85,3.31,6.21,6.21,0,0,1-4.33,1.53,5.91,5.91,0,0,1-4.68-2,7.68,7.68,0,0,1-1.8-5.35,7.79,7.79,0,0,1,1.72-5.14,6.39,6.39,0,0,1,9.65.06Zm-8.23.59a6.16,6.16,0,0,0-1.45,3.66h9.57c-.26-3.39-1.87-5.09-4.81-5.09A4.18,4.18,0,0,0,134.63,437.76Z"/><path class="cls-4" d="M157,436.15a5.26,5.26,0,0,1,1.91,3.71h-1.61a4,4,0,0,0-1.4-2.64,4.66,4.66,0,0,0-3-.89,4.16,4.16,0,0,0-3.49,1.7,6.73,6.73,0,0,0-1.27,4.33,6.89,6.89,0,0,0,1.21,4.25,4.18,4.18,0,0,0,3.52,1.58q3.87,0,4.47-3.95h1.58a6.36,6.36,0,0,1-2,4,6,6,0,0,1-4.06,1.34,5.79,5.79,0,0,1-4.78-2.1,7.75,7.75,0,0,1-1.59-5.13,8.09,8.09,0,0,1,1.64-5.22,5.7,5.7,0,0,1,4.76-2.2A6.41,6.41,0,0,1,157,436.15Z"/><path class="cls-4" d="M172.06,437.17a9.63,9.63,0,0,1,1.59,5.56H162.36a6.51,6.51,0,0,0,1.37,4,4.36,4.36,0,0,0,3.44,1.45,4.65,4.65,0,0,0,3.06-1,5.18,5.18,0,0,0,1.48-2.45h1.64a6.53,6.53,0,0,1-1.85,3.31,6.21,6.21,0,0,1-4.33,1.53,5.91,5.91,0,0,1-4.68-2,7.68,7.68,0,0,1-1.8-5.35,7.79,7.79,0,0,1,1.72-5.14,6.39,6.39,0,0,1,9.65.06Zm-8.23.59a6.16,6.16,0,0,0-1.45,3.66H172q-.41-5.09-4.82-5.09A4.18,4.18,0,0,0,163.83,437.76Z"/><path class="cls-4" d="M187.52,440.66v8.55h-1.61v-8.44q0-4.44-3.95-4.44a3.7,3.7,0,0,0-2.8,1.21,4.92,4.92,0,0,0-1.32,3.28v8.39h-1.61v-13.9h1.61v2.29a5.76,5.76,0,0,1,1.89-2,4.94,4.94,0,0,1,2.63-.69Q187.52,434.94,187.52,440.66Z"/><path class="cls-4" d="M194.27,430.82v4.49h3.63v1.4h-3.63v9.41a2.17,2.17,0,0,0,.32,1.32,1.56,1.56,0,0,0,1.21.37h1.75v1.4h-2a2.83,2.83,0,0,1-2.31-.83,3.34,3.34,0,0,1-.62-2.26v-9.41h-3v-1.4h3v-3.82Z"/><path class="cls-4" d="M208.2,435.23v1.64a7.31,7.31,0,0,0-2.13-.29,3.44,3.44,0,0,0-3,1.66,6,6,0,0,0-1.1,3.63v7.34h-1.61v-13.9H202V438a5.26,5.26,0,0,1,1.53-2.08,4,4,0,0,1,2.69-1A5.5,5.5,0,0,1,208.2,435.23Z"/><path class="cls-4" d="M220.24,436.52a5.36,5.36,0,0,1,1.24,3.74v8.95H220v-2.66a7.15,7.15,0,0,1-2.26,2.07,7,7,0,0,1-3.63,1,5,5,0,0,1-3.31-1,3.57,3.57,0,0,1-1.26-2.87,4.12,4.12,0,0,1,2.18-3.88,9.39,9.39,0,0,1,4.65-1l3.55,0v-.51c0-2.64-1.35-3.95-4-3.95a4.79,4.79,0,0,0-2.91.78,3.29,3.29,0,0,0-1.42,2.42h-1.59a4.89,4.89,0,0,1,2-3.5,6.86,6.86,0,0,1,4-1.07A5.48,5.48,0,0,1,220.24,436.52Zm-.37,5.57-3.47,0c-3.52,0-5.27,1.19-5.27,3.52a2.32,2.32,0,0,0,.89,1.88,3.56,3.56,0,0,0,2.36.73,5.74,5.74,0,0,0,3.87-1.46,4.09,4.09,0,0,0,1.62-3.09Z"/><path class="cls-4" d="M225.38,429.64H227v19.57h-1.61Z"/><path class="cls-4" d="M233.47,430.72a1.12,1.12,0,0,1,.41.94,1.33,1.33,0,0,1-.43,1,1.42,1.42,0,0,1-.95.38,1.35,1.35,0,0,1-1.37-1.34,1.12,1.12,0,0,1,.41-.94,1.25,1.25,0,0,1,1-.41A1.32,1.32,0,0,1,233.47,430.72Zm-1.77,4.59h1.61v13.9H231.7Z"/><path class="cls-4" d="M236.75,435.31h10.78v1.24l-9,11.26H248v1.4H236.48V448l9-11.24h-8.69Z"/><path class="cls-4" d="M260.9,437.17a9.71,9.71,0,0,1,1.58,5.56H251.19a6.57,6.57,0,0,0,1.37,4,4.37,4.37,0,0,0,3.44,1.45,4.7,4.7,0,0,0,3.07-1,5.27,5.27,0,0,0,1.48-2.45h1.64a6.55,6.55,0,0,1-1.86,3.31,6.21,6.21,0,0,1-4.33,1.53,5.89,5.89,0,0,1-4.67-2,7.64,7.64,0,0,1-1.81-5.35,7.79,7.79,0,0,1,1.73-5.14,6.39,6.39,0,0,1,9.65.06Zm-8.23.59a6.1,6.1,0,0,0-1.45,3.66h9.57q-.41-5.09-4.81-5.09A4.16,4.16,0,0,0,252.67,437.76Z"/><path class="cls-4" d="M275.55,429.64h1.61v19.57h-1.53v-2.74a5,5,0,0,1-4.87,3.12,5.65,5.65,0,0,1-4.7-2.2,8.28,8.28,0,0,1-1.53-5.14,8.16,8.16,0,0,1,1.53-5.08,5.43,5.43,0,0,1,4.62-2.23,5.08,5.08,0,0,1,4.87,3.3Zm-8.23,8.44a6.73,6.73,0,0,0-1.15,4.17,7.05,7.05,0,0,0,1.13,4.2,4.18,4.18,0,0,0,3.63,1.77,4.11,4.11,0,0,0,3.52-1.72,6.76,6.76,0,0,0,1.15-4v-.33a6.74,6.74,0,0,0-1.23-4.16,4,4,0,0,0-3.39-1.67A4.26,4.26,0,0,0,267.32,438.08Z"/><path class="cls-4" d="M292.08,430.72a1.12,1.12,0,0,1,.41.94,1.29,1.29,0,0,1-.43,1,1.41,1.41,0,0,1-.94.38,1.31,1.31,0,0,1-1-.38,1.29,1.29,0,0,1-.4-1,1.11,1.11,0,0,1,.4-.94,1.26,1.26,0,0,1,1-.41A1.3,1.3,0,0,1,292.08,430.72Zm-1.77,4.59h1.61v13.9h-1.61Z"/><path class="cls-4" d="M307.41,440.66v8.55H305.8v-8.44q0-4.44-3.95-4.44a3.68,3.68,0,0,0-2.8,1.21,4.92,4.92,0,0,0-1.32,3.28v8.39h-1.61v-13.9h1.61v2.29a5.76,5.76,0,0,1,1.89-2,4.91,4.91,0,0,1,2.63-.69Q307.41,434.94,307.41,440.66Z"/><path class="cls-4" d="M321.07,439.21h-1.59a3.28,3.28,0,0,0-1.15-2.12,4.49,4.49,0,0,0-2.83-.76,4.54,4.54,0,0,0-2.5.62,2,2,0,0,0-1,1.67,1.91,1.91,0,0,0,1.23,1.69,18.05,18.05,0,0,0,2.93,1,14,14,0,0,1,3.61,1.29,3.14,3.14,0,0,1,1.66,2.8q0,4.22-5.64,4.22-5.35,0-5.84-4.76h1.59a3.79,3.79,0,0,0,1.29,2.64,4.82,4.82,0,0,0,2.9.72q4,0,4-2.74a2.12,2.12,0,0,0-1.37-1.94,19.47,19.47,0,0,0-3.1-1,13.12,13.12,0,0,1-3.38-1.23,3,3,0,0,1-1.59-2.66,3.13,3.13,0,0,1,1.51-2.72,6.22,6.22,0,0,1,3.65-1Q320.48,434.94,321.07,439.21Z"/><path class="cls-4" d="M324.06,435.31h1.61v8.5a4.91,4.91,0,0,0,.91,3.25,3.74,3.74,0,0,0,3,1.13,3.88,3.88,0,0,0,2.82-1.23,4.93,4.93,0,0,0,1.37-3.2v-8.45h1.62v13.9h-1.62v-2.34a5.1,5.1,0,0,1-4.62,2.72q-5.08,0-5.08-5.7Z"/><path class="cls-4" d="M346.61,435.23v1.64a7.29,7.29,0,0,0-2.12-.29,3.43,3.43,0,0,0-3,1.66,6,6,0,0,0-1.11,3.63v7.34h-1.61v-13.9h1.61V438a5.18,5.18,0,0,1,1.54-2.08,4,4,0,0,1,2.69-1A5.41,5.41,0,0,1,346.61,435.23Z"/><path class="cls-4" d="M358.66,436.52a5.41,5.41,0,0,1,1.23,3.74v8.95h-1.53v-2.66a7.17,7.17,0,0,1-5.88,3,5,5,0,0,1-3.31-1,3.55,3.55,0,0,1-1.27-2.87,4.12,4.12,0,0,1,2.18-3.88,9.44,9.44,0,0,1,4.65-1l3.55,0v-.51c0-2.64-1.34-3.95-4-3.95a4.79,4.79,0,0,0-2.91.78,3.32,3.32,0,0,0-1.42,2.42h-1.59a4.86,4.86,0,0,1,2-3.5,6.83,6.83,0,0,1,4-1.07A5.51,5.51,0,0,1,358.66,436.52Zm-.38,5.57-3.47,0c-3.51,0-5.27,1.19-5.27,3.52a2.32,2.32,0,0,0,.89,1.88,3.57,3.57,0,0,0,2.37.73,5.78,5.78,0,0,0,3.87-1.46,4.11,4.11,0,0,0,1.61-3.09Z"/><path class="cls-4" d="M374.57,440.66v8.55H373v-8.44q0-4.44-3.95-4.44a3.72,3.72,0,0,0-2.8,1.21,4.92,4.92,0,0,0-1.32,3.28v8.39h-1.61v-13.9h1.61v2.29a5.85,5.85,0,0,1,1.89-2,4.94,4.94,0,0,1,2.63-.69Q374.57,434.94,374.57,440.66Z"/><path class="cls-4" d="M387.89,436.15a5.25,5.25,0,0,1,1.9,3.71h-1.61a3.93,3.93,0,0,0-1.4-2.64,4.66,4.66,0,0,0-3-.89,4.17,4.17,0,0,0-3.49,1.7,8.07,8.07,0,0,0-.05,8.58,4.16,4.16,0,0,0,3.52,1.58q3.87,0,4.46-3.95h1.59a6.36,6.36,0,0,1-2,4,6,6,0,0,1-4.06,1.34,5.81,5.81,0,0,1-4.79-2.1,7.75,7.75,0,0,1-1.58-5.13,8,8,0,0,1,1.64-5.22,5.68,5.68,0,0,1,4.75-2.2A6.44,6.44,0,0,1,387.89,436.15Z"/><path class="cls-4" d="M403,437.17a9.63,9.63,0,0,1,1.59,5.56H393.29a6.51,6.51,0,0,0,1.37,4,4.37,4.37,0,0,0,3.44,1.45,4.7,4.7,0,0,0,3.07-1,5.35,5.35,0,0,0,1.48-2.45h1.63a6.46,6.46,0,0,1-1.85,3.31,6.21,6.21,0,0,1-4.33,1.53,5.92,5.92,0,0,1-4.68-2,7.68,7.68,0,0,1-1.8-5.35,7.84,7.84,0,0,1,1.72-5.14,6.39,6.39,0,0,1,9.65.06Zm-8.22.59a6.11,6.11,0,0,0-1.46,3.66h9.58q-.4-5.09-4.82-5.09A4.14,4.14,0,0,0,394.77,437.76Z"/><circle class="cls-3" cx="102.56" cy="507.01" r="3.67"/><path class="cls-4" d="M128.37,498.71a6.5,6.5,0,0,1,2.61,4.51h-1.59a4.92,4.92,0,0,0-2.17-3.47,7,7,0,0,0-4.09-1.21,6.74,6.74,0,0,0-5.54,2.5,10.66,10.66,0,0,0,0,12.05,6.59,6.59,0,0,0,5.41,2.39,7,7,0,0,0,4.22-1.31,6.69,6.69,0,0,0,2.47-4.12h1.59a8.33,8.33,0,0,1-3,5.22A8.42,8.42,0,0,1,123,517a8.23,8.23,0,0,1-6.72-3,10.57,10.57,0,0,1-2.2-6.94,10.69,10.69,0,0,1,2.26-7,9.1,9.1,0,0,1,12-1.37Z"/><path class="cls-4" d="M142,502.63v1.64a7.29,7.29,0,0,0-2.12-.29,3.44,3.44,0,0,0-3,1.66,6,6,0,0,0-1.1,3.63v7.34H134.1v-13.9h1.61v2.66a5.22,5.22,0,0,1,1.53-2.07,4,4,0,0,1,2.69-1A5.48,5.48,0,0,1,142,502.63Z"/><path class="cls-4" d="M154.78,504.54a8.6,8.6,0,0,1,0,10.24,6.59,6.59,0,0,1-9.85,0,7.84,7.84,0,0,1-1.69-5.1,7.68,7.68,0,0,1,1.72-5.14,6,6,0,0,1,4.89-2.21A6.13,6.13,0,0,1,154.78,504.54Zm-8.66,1a7.4,7.4,0,0,0,0,8.2,4.41,4.41,0,0,0,3.73,1.83,4.46,4.46,0,0,0,3.77-1.83,7.4,7.4,0,0,0,0-8.2,4.41,4.41,0,0,0-3.77-1.83A4.36,4.36,0,0,0,146.12,505.56Z"/><path class="cls-4" d="M169.59,506.61H168a3.26,3.26,0,0,0-1.15-2.12,4.43,4.43,0,0,0-2.83-.76,4.51,4.51,0,0,0-2.5.62,2,2,0,0,0-1,1.67,1.91,1.91,0,0,0,1.23,1.69,19.12,19.12,0,0,0,2.93,1,14,14,0,0,1,3.61,1.29,3.13,3.13,0,0,1,1.66,2.8q0,4.22-5.64,4.22-5.35,0-5.84-4.76h1.59a3.74,3.74,0,0,0,1.29,2.63,4.75,4.75,0,0,0,2.9.73q4,0,4-2.74a2.11,2.11,0,0,0-1.38-1.94,18.89,18.89,0,0,0-3.09-1,13.78,13.78,0,0,1-3.39-1.23,3,3,0,0,1-1.58-2.66,3.15,3.15,0,0,1,1.5-2.72,6.28,6.28,0,0,1,3.66-1C167.35,502.33,169.19,503.76,169.59,506.61Z"/><path class="cls-4" d="M182.85,506.61h-1.59a3.22,3.22,0,0,0-1.16-2.12,4.39,4.39,0,0,0-2.82-.76,4.51,4.51,0,0,0-2.5.62,1.93,1.93,0,0,0-1,1.67,1.91,1.91,0,0,0,1.24,1.69,18.73,18.73,0,0,0,2.93,1,14,14,0,0,1,3.6,1.29,3.14,3.14,0,0,1,1.67,2.8q0,4.22-5.65,4.22c-3.56,0-5.51-1.59-5.83-4.76h1.58a3.82,3.82,0,0,0,1.29,2.63,4.8,4.8,0,0,0,2.91.73q4,0,4-2.74a2.12,2.12,0,0,0-1.37-1.94,18.89,18.89,0,0,0-3.09-1,13.78,13.78,0,0,1-3.39-1.23,3,3,0,0,1-1.59-2.66,3.16,3.16,0,0,1,1.51-2.72,6.28,6.28,0,0,1,3.66-1C180.61,502.33,182.45,503.76,182.85,506.61Z"/><path class="cls-4" d="M208.55,498.71a6.5,6.5,0,0,1,2.61,4.51h-1.59a4.93,4.93,0,0,0-2.18-3.47,7,7,0,0,0-4.08-1.21,6.74,6.74,0,0,0-5.54,2.5,9.27,9.27,0,0,0-1.88,6,9.14,9.14,0,0,0,1.85,6,6.58,6.58,0,0,0,5.41,2.39,7,7,0,0,0,4.22-1.31,6.73,6.73,0,0,0,2.47-4.12h1.59a8.08,8.08,0,0,1-8.26,6.94,8.2,8.2,0,0,1-6.72-3,10.58,10.58,0,0,1-2.21-6.94,10.74,10.74,0,0,1,2.26-7,9.11,9.11,0,0,1,12.05-1.37Z"/><path class="cls-4" d="M214.28,497h1.64v8.2a5.35,5.35,0,0,1,1.93-2.18,5,5,0,0,1,2.64-.73,4.87,4.87,0,0,1,3.71,1.4,5.65,5.65,0,0,1,1.34,4v8.87h-1.61V508a4.59,4.59,0,0,0-1-3.15,3.83,3.83,0,0,0-2.88-1.08,3.75,3.75,0,0,0-2.93,1.4,5,5,0,0,0-1.18,3.44v8h-1.64Z"/><path class="cls-4" d="M239.15,503.92a5.41,5.41,0,0,1,1.23,3.74v8.95h-1.53V514a7.05,7.05,0,0,1-2.26,2.07,7,7,0,0,1-3.63,1,5,5,0,0,1-3.3-1,3.58,3.58,0,0,1-1.27-2.88,4.12,4.12,0,0,1,2.18-3.87,9.44,9.44,0,0,1,4.65-1l3.55,0v-.51c0-2.64-1.34-4-4-4a4.79,4.79,0,0,0-2.91.78,3.32,3.32,0,0,0-1.42,2.42h-1.59a4.89,4.89,0,0,1,2-3.5,6.81,6.81,0,0,1,4-1.08A5.47,5.47,0,0,1,239.15,503.92Zm-.38,5.57-3.47,0q-5.27,0-5.27,3.53a2.32,2.32,0,0,0,.89,1.88,3.57,3.57,0,0,0,2.37.73,5.78,5.78,0,0,0,3.87-1.46,4.13,4.13,0,0,0,1.61-3.09Z"/><path class="cls-4" d="M246.35,498.11a1.14,1.14,0,0,1,.41.94,1.35,1.35,0,0,1-.43,1,1.42,1.42,0,0,1-1,.38,1.3,1.3,0,0,1-1-.38,1.32,1.32,0,0,1-.41-1,1.14,1.14,0,0,1,.41-.94,1.25,1.25,0,0,1,1-.4A1.31,1.31,0,0,1,246.35,498.11Zm-1.77,4.6h1.61v13.9h-1.61Z"/><path class="cls-4" d="M261.68,508.06v8.55h-1.61v-8.44q0-4.44-4-4.44a3.68,3.68,0,0,0-2.79,1.21,4.9,4.9,0,0,0-1.32,3.28v8.39h-1.61v-13.9H252V505a5.64,5.64,0,0,1,1.88-2,5,5,0,0,1,2.64-.7Q261.68,502.33,261.68,508.06Z"/><path class="cls-4" d="M284.51,497h1.61v19.57h-1.53v-2.74a5,5,0,0,1-4.87,3.12,5.63,5.63,0,0,1-4.7-2.21,8.17,8.17,0,0,1-1.54-5.13,8.08,8.08,0,0,1,1.54-5.08,5.44,5.44,0,0,1,4.62-2.24,5.11,5.11,0,0,1,4.87,3.31Zm-8.23,8.44a6.69,6.69,0,0,0-1.16,4.17,7.09,7.09,0,0,0,1.13,4.19,4.53,4.53,0,0,0,7.15.06,6.77,6.77,0,0,0,1.16-4v-.32a6.73,6.73,0,0,0-1.24-4.17,4,4,0,0,0-3.38-1.66A4.26,4.26,0,0,0,276.28,505.48Z"/><path class="cls-4" d="M299.72,503.92a5.36,5.36,0,0,1,1.24,3.74v8.95h-1.53V514a7.27,7.27,0,0,1-2.26,2.07,7,7,0,0,1-3.63,1,5,5,0,0,1-3.31-1,3.6,3.6,0,0,1-1.26-2.88,4.12,4.12,0,0,1,2.18-3.87,9.39,9.39,0,0,1,4.65-1l3.55,0v-.51c0-2.64-1.35-4-4-4a4.78,4.78,0,0,0-2.9.78,3.29,3.29,0,0,0-1.42,2.42H289.4a4.86,4.86,0,0,1,2-3.5,6.79,6.79,0,0,1,4-1.08A5.45,5.45,0,0,1,299.72,503.92Zm-.37,5.57-3.47,0c-3.52,0-5.27,1.2-5.27,3.53a2.32,2.32,0,0,0,.89,1.88,3.56,3.56,0,0,0,2.36.73,5.78,5.78,0,0,0,3.87-1.46,4.11,4.11,0,0,0,1.62-3.09Z"/><path class="cls-4" d="M307.71,498.22v4.49h3.63v1.4h-3.63v9.41a2.17,2.17,0,0,0,.32,1.32,1.56,1.56,0,0,0,1.21.37H311v1.4h-2a2.86,2.86,0,0,1-2.32-.83,3.39,3.39,0,0,1-.62-2.26v-9.41h-2.95v-1.4h2.95v-3.82Z"/><path class="cls-4" d="M324,503.92a5.36,5.36,0,0,1,1.24,3.74v8.95h-1.53V514a7.27,7.27,0,0,1-2.26,2.07,7,7,0,0,1-3.63,1,5,5,0,0,1-3.31-1,3.6,3.6,0,0,1-1.26-2.88,4.1,4.1,0,0,1,2.18-3.87,9.39,9.39,0,0,1,4.65-1l3.55,0v-.51c0-2.64-1.35-4-4-4a4.78,4.78,0,0,0-2.9.78,3.33,3.33,0,0,0-1.43,2.42h-1.58a4.86,4.86,0,0,1,2-3.5,6.78,6.78,0,0,1,4-1.08A5.46,5.46,0,0,1,324,503.92Zm-.37,5.57-3.47,0c-3.52,0-5.27,1.2-5.27,3.53a2.31,2.31,0,0,0,.88,1.88,3.61,3.61,0,0,0,2.37.73,5.78,5.78,0,0,0,3.87-1.46,4.11,4.11,0,0,0,1.62-3.09Z"/><path class="cls-4" d="M124.88,541.18h-1.59a3.22,3.22,0,0,0-1.16-2.12,4.38,4.38,0,0,0-2.82-.76,4.51,4.51,0,0,0-2.5.62,2,2,0,0,0-1,1.67,1.91,1.91,0,0,0,1.24,1.69,18.73,18.73,0,0,0,2.93,1,14,14,0,0,1,3.6,1.29,3.14,3.14,0,0,1,1.67,2.8q0,4.21-5.65,4.22c-3.56,0-5.51-1.59-5.83-4.76h1.59a3.74,3.74,0,0,0,1.29,2.63,4.75,4.75,0,0,0,2.9.73q4,0,4-2.74a2.1,2.1,0,0,0-1.37-1.94,18.89,18.89,0,0,0-3.09-1,13.78,13.78,0,0,1-3.39-1.23,2.94,2.94,0,0,1-1.58-2.66,3.15,3.15,0,0,1,1.5-2.72,6.28,6.28,0,0,1,3.66-1C122.64,536.9,124.48,538.33,124.88,541.18Z"/><path class="cls-4" d="M131.22,532.79v4.49h3.63v1.4h-3.63v9.41a2.17,2.17,0,0,0,.32,1.32,1.56,1.56,0,0,0,1.21.37h1.75v1.4h-2a2.83,2.83,0,0,1-2.31-.83,3.39,3.39,0,0,1-.62-2.26v-9.41h-3v-1.4h3v-3.82Z"/><path class="cls-4" d="M148.3,539.11a8.6,8.6,0,0,1,0,10.24,6.58,6.58,0,0,1-9.84,0,7.79,7.79,0,0,1-1.7-5.1,7.68,7.68,0,0,1,1.72-5.14,6,6,0,0,1,4.9-2.21A6.12,6.12,0,0,1,148.3,539.11Zm-8.66,1a7.4,7.4,0,0,0,0,8.2,4.76,4.76,0,0,0,7.5,0,7.4,7.4,0,0,0,0-8.2,4.76,4.76,0,0,0-7.5,0Z"/><path class="cls-4" d="M160.69,537.2v1.64a7.29,7.29,0,0,0-2.12-.29,3.41,3.41,0,0,0-3,1.66,6,6,0,0,0-1.11,3.63v7.34h-1.61v-13.9h1.61v2.66a5.15,5.15,0,0,1,1.53-2.07,4.06,4.06,0,0,1,2.69-1A5.41,5.41,0,0,1,160.69,537.2Z"/><path class="cls-4" d="M172.74,538.49a5.41,5.41,0,0,1,1.23,3.74v8.95h-1.53v-2.66a7.28,7.28,0,0,1-2.26,2.07,7,7,0,0,1-3.63,1,5,5,0,0,1-3.31-1,3.6,3.6,0,0,1-1.26-2.88,4.12,4.12,0,0,1,2.18-3.87,9.39,9.39,0,0,1,4.65-1l3.55,0v-.51c0-2.64-1.35-4-4-4a4.79,4.79,0,0,0-2.91.78,3.28,3.28,0,0,0-1.42,2.41h-1.59a4.89,4.89,0,0,1,2-3.49,6.81,6.81,0,0,1,4-1.08A5.49,5.49,0,0,1,172.74,538.49Zm-.38,5.57-3.47,0q-5.26,0-5.27,3.53a2.32,2.32,0,0,0,.89,1.88,3.56,3.56,0,0,0,2.36.72,5.78,5.78,0,0,0,3.88-1.45,4.13,4.13,0,0,0,1.61-3.09Z"/><path class="cls-4" d="M188.06,540.08v-2.8h1.62v12.88q0,6.72-6.24,6.72a6.66,6.66,0,0,1-4.22-1.18,5.07,5.07,0,0,1-1.78-3.33h1.61a3.62,3.62,0,0,0,1.29,2.31,4.89,4.89,0,0,0,3.1.86q4.62,0,4.62-5.19v-2.66a5.17,5.17,0,0,1-5,3.17,5.77,5.77,0,0,1-4.65-2.07,8.21,8.21,0,0,1,0-9.79,5.73,5.73,0,0,1,4.65-2.1A5.16,5.16,0,0,1,188.06,540.08Zm-8.36-.14a6.07,6.07,0,0,0-1.24,4,6.21,6.21,0,0,0,1.16,3.87,4.24,4.24,0,0,0,3.63,1.69,4.36,4.36,0,0,0,3.6-1.61,7.07,7.07,0,0,0,0-7.91,4.68,4.68,0,0,0-7.15,0Z"/><path class="cls-4" d="M203.63,539.14a9.69,9.69,0,0,1,1.59,5.56h-11.3a6.57,6.57,0,0,0,1.37,4,4.39,4.39,0,0,0,3.45,1.45,4.69,4.69,0,0,0,3.06-1,5.24,5.24,0,0,0,1.48-2.45h1.64a6.48,6.48,0,0,1-1.86,3.31,6.18,6.18,0,0,1-4.32,1.53,5.89,5.89,0,0,1-4.68-2,8.7,8.7,0,0,1-.08-10.49,6.37,6.37,0,0,1,9.65.06Zm-8.23.59a6.16,6.16,0,0,0-1.45,3.65h9.57c-.27-3.38-1.87-5.08-4.81-5.08A4.18,4.18,0,0,0,195.4,539.73Z"/></svg>