<svg id="图层_1" data-name="图层 1" xmlns="http://www.w3.org/2000/svg" viewBox="0 0 500 640"><defs><style>.cls-1{fill:#a494c6;}.cls-2{fill:#fff;}.cls-3{fill:#c1c1c1;}.cls-4{fill:#33353c;}</style></defs><title>英文</title><rect class="cls-1" x="37.22" y="112.95" width="22.33" height="22.33" transform="translate(-73.59 70.57) rotate(-45)"/><rect class="cls-2" x="48.39" y="33.45" width="406.7" height="593"/><rect class="cls-1" x="32.64" y="13.55" width="434.77" height="110.56"/><path class="cls-2" d="M57.42,53.41H69.16a8.83,8.83,0,0,1,5.9,1.8,5.79,5.79,0,0,1,2.06,4.68A6.15,6.15,0,0,1,76,63.56a6.48,6.48,0,0,1-3,2.12,6.43,6.43,0,0,1,3.85,2.06,6.31,6.31,0,0,1,1.3,4.17,6.42,6.42,0,0,1-2.67,5.69,11.39,11.39,0,0,1-6.37,1.51H57.42Zm3.93,3.24v7.67h6.77A6.43,6.43,0,0,0,72,63.38a3.66,3.66,0,0,0,1.19-3A3.21,3.21,0,0,0,72,57.55a6.26,6.26,0,0,0-3.81-.9Zm0,10.87v8.35h7.27a8.22,8.22,0,0,0,3.89-.79,3.52,3.52,0,0,0,1.76-3.24,3.87,3.87,0,0,0-1.37-3.31,6.93,6.93,0,0,0-4.17-1Z"/><path class="cls-2" d="M82.23,52.9H86V79.11H82.23Z"/><path class="cls-2" d="M106.13,62.8a10.15,10.15,0,0,1,2.52,7,9.88,9.88,0,0,1-2.48,7,9.55,9.55,0,0,1-13.61,0,9.83,9.83,0,0,1-2.48-7,10,10,0,0,1,2.52-7,9.57,9.57,0,0,1,13.53,0ZM95.26,65.22A7.62,7.62,0,0,0,94,69.82a7.62,7.62,0,0,0,1.26,4.58,4.73,4.73,0,0,0,4.1,2.08,4.89,4.89,0,0,0,4.14-2.08,7.72,7.72,0,0,0,1.3-4.58,7.53,7.53,0,0,0-1.3-4.6,4.8,4.8,0,0,0-4.14-2.09A4.67,4.67,0,0,0,95.26,65.22Z"/><path class="cls-2" d="M126.29,61.62A7.93,7.93,0,0,1,129,66.8h-3.78A4.3,4.3,0,0,0,123.7,64a5,5,0,0,0-3.13-.9,4.39,4.39,0,0,0-3.71,1.76,7.65,7.65,0,0,0-1.37,4.9,8,8,0,0,0,1.33,4.93,4.26,4.26,0,0,0,3.71,1.76q4.25,0,4.79-4.24h3.78a9.07,9.07,0,0,1-2.85,5.58,8.77,8.77,0,0,1-5.75,1.8,8.22,8.22,0,0,1-6.63-2.81,10.3,10.3,0,0,1-2.3-7,10.39,10.39,0,0,1,2.26-6.91A8.35,8.35,0,0,1,120.57,60,9.31,9.31,0,0,1,126.29,61.62Z"/><path class="cls-2" d="M132.38,52.9h3.81V68.17l8.07-7.67h4.93l-8.25,7.67,9,10.94H145l-6.69-8.49-2.13,2v6.51h-3.81Z"/><path class="cls-2" d="M166.07,61.62a7.93,7.93,0,0,1,2.74,5.18H165A4.3,4.3,0,0,0,163.48,64a5,5,0,0,0-3.13-.9,4.39,4.39,0,0,0-3.71,1.76,7.65,7.65,0,0,0-1.37,4.9,8,8,0,0,0,1.33,4.93,4.26,4.26,0,0,0,3.71,1.76q4.24,0,4.79-4.24h3.78A9.07,9.07,0,0,1,166,77.82a8.78,8.78,0,0,1-5.76,1.8,8.2,8.2,0,0,1-6.62-2.81,10.3,10.3,0,0,1-2.3-7,10.39,10.39,0,0,1,2.26-6.91A8.35,8.35,0,0,1,160.35,60,9.31,9.31,0,0,1,166.07,61.62Z"/><path class="cls-2" d="M172.16,52.9H176V63.13a6.33,6.33,0,0,1,2.59-2.41,6.59,6.59,0,0,1,3.17-.72,6.38,6.38,0,0,1,5.08,2q1.62,1.86,1.62,5.58V79.11h-3.82V68.2a6.11,6.11,0,0,0-1-3.74,4,4,0,0,0-3.27-1.33,3.73,3.73,0,0,0-3.13,1.55,6.21,6.21,0,0,0-1.23,4V79.11h-3.81Z"/><path class="cls-2" d="M207.18,62.05a7.28,7.28,0,0,1,1.69,5.18V79.11h-3.52V76.48a8.2,8.2,0,0,1-2.74,2.27,9.88,9.88,0,0,1-4.28.87,6.76,6.76,0,0,1-4.58-1.48,5.06,5.06,0,0,1-1.72-4,5.69,5.69,0,0,1,2.77-5.22,11.55,11.55,0,0,1,6.12-1.44l4.17,0V67q0-3.89-4.21-3.89a5.28,5.28,0,0,0-3,.72,3.32,3.32,0,0,0-1.48,2.45H192.6a6.59,6.59,0,0,1,2.81-4.9A10.14,10.14,0,0,1,201.13,60Q205.24,60,207.18,62.05Zm-2.09,8.31-3.92,0Q196,70.4,196,74a2.33,2.33,0,0,0,.83,1.83,3.56,3.56,0,0,0,2.41.72,6.46,6.46,0,0,0,4.28-1.44,4.91,4.91,0,0,0,1.62-3.81Z"/><path class="cls-2" d="M217.84,53.77a2.35,2.35,0,0,1,.75,1.83,2.57,2.57,0,0,1-.79,1.88,2.79,2.79,0,0,1-3.74,0,2.54,2.54,0,0,1-.76-1.88,2.33,2.33,0,0,1,.76-1.83,2.52,2.52,0,0,1,1.87-.72A2.59,2.59,0,0,1,217.84,53.77ZM214,60.5h3.82V79.11H214Z"/><path class="cls-2" d="M239.37,67.63V79.11h-3.82V68q0-4.76-4.36-4.75a3.86,3.86,0,0,0-2.84,1.15,5.66,5.66,0,0,0-1.55,3.57V79.11H223V60.5h3.81v2.3a7.16,7.16,0,0,1,2.49-2.08,6.46,6.46,0,0,1,3.13-.72Q239.37,60,239.37,67.63Z"/><path class="cls-2" d="M263.45,53.41h4.46l9.9,25.7H273.6l-2.41-6.62H260.14l-2.41,6.62h-4.18Zm-2.12,15.84H270l-4.25-11.63h-.14Z"/><path class="cls-2" d="M295.74,62.91a10.85,10.85,0,0,1,2.16,7,10.78,10.78,0,0,1-2.12,6.8,7.55,7.55,0,0,1-6.3,2.92,6.74,6.74,0,0,1-5.69-3.24v9.86H280V60.5h3.57v2.23A6.6,6.6,0,0,1,289.3,60,7.87,7.87,0,0,1,295.74,62.91Zm-10.87,2.16a8,8,0,0,0-1.19,4.61V70a7.35,7.35,0,0,0,1.48,4.83,4.11,4.11,0,0,0,3.45,1.69,4.76,4.76,0,0,0,4.14-1.84A8.21,8.21,0,0,0,294,69.9a9,9,0,0,0-1.12-4.79,4.6,4.6,0,0,0-4.14-2A4.36,4.36,0,0,0,284.87,65.07Z"/><path class="cls-2" d="M317.27,62.91a10.85,10.85,0,0,1,2.16,7,10.73,10.73,0,0,1-2.13,6.8,7.54,7.54,0,0,1-6.3,2.92,6.72,6.72,0,0,1-5.68-3.24v9.86H301.5V60.5h3.56v2.23A6.62,6.62,0,0,1,310.82,60,7.88,7.88,0,0,1,317.27,62.91ZM306.4,65.07a7.94,7.94,0,0,0-1.19,4.61V70a7.35,7.35,0,0,0,1.48,4.83,4.11,4.11,0,0,0,3.45,1.69,4.76,4.76,0,0,0,4.14-1.84,8.22,8.22,0,0,0,1.22-4.78,9,9,0,0,0-1.11-4.79,4.6,4.6,0,0,0-4.14-2A4.35,4.35,0,0,0,306.4,65.07Z"/><path class="cls-2" d="M323.46,52.9h3.82V79.11h-3.82Z"/><path class="cls-2" d="M336.64,53.77a2.35,2.35,0,0,1,.75,1.83,2.57,2.57,0,0,1-.79,1.88,2.79,2.79,0,0,1-3.74,0,2.54,2.54,0,0,1-.76-1.88,2.33,2.33,0,0,1,.76-1.83,2.52,2.52,0,0,1,1.87-.72A2.59,2.59,0,0,1,336.64,53.77Zm-3.82,6.73h3.82V79.11h-3.82Z"/><path class="cls-2" d="M355.79,61.62a7.92,7.92,0,0,1,2.73,5.18h-3.78A4.29,4.29,0,0,0,353.2,64a5,5,0,0,0-3.14-.9,4.38,4.38,0,0,0-3.7,1.76,7.59,7.59,0,0,0-1.37,4.9,8,8,0,0,0,1.33,4.93A4.26,4.26,0,0,0,350,76.48q4.25,0,4.79-4.24h3.78a9.12,9.12,0,0,1-2.85,5.58,8.78,8.78,0,0,1-5.76,1.8,8.2,8.2,0,0,1-6.62-2.81,10.3,10.3,0,0,1-2.31-7,10.4,10.4,0,0,1,2.27-6.91A8.33,8.33,0,0,1,350.06,60,9.32,9.32,0,0,1,355.79,61.62Z"/><path class="cls-2" d="M376.31,62.05A7.28,7.28,0,0,1,378,67.23V79.11h-3.53V76.48a8.16,8.16,0,0,1-2.73,2.27,10,10,0,0,1-4.29.87,6.73,6.73,0,0,1-4.57-1.48,5.06,5.06,0,0,1-1.73-4,5.71,5.71,0,0,1,2.77-5.22A11.55,11.55,0,0,1,370,67.48l4.18,0V67q0-3.89-4.21-3.89a5.34,5.34,0,0,0-3,.72,3.28,3.28,0,0,0-1.47,2.45h-3.78a6.56,6.56,0,0,1,2.81-4.9A10.14,10.14,0,0,1,370.26,60C373,60,375,60.68,376.31,62.05Zm-2.09,8.31-3.92,0q-5.22,0-5.22,3.64a2.32,2.32,0,0,0,.82,1.83,3.6,3.6,0,0,0,2.42.72,6.46,6.46,0,0,0,4.28-1.44,4.91,4.91,0,0,0,1.62-3.81Z"/><path class="cls-2" d="M388,54.49v6h4.25v3.17H388v10.8a1.73,1.73,0,0,0,.32,1.11,1.37,1.37,0,0,0,1,.36h2.45v3.17h-3.06a4.36,4.36,0,0,1-3.49-1.26,4.85,4.85,0,0,1-1.05-3.38V63.67h-3.45V60.5h3.45V56.07Z"/><path class="cls-2" d="M399.92,53.77a2.33,2.33,0,0,1,.76,1.83,2.57,2.57,0,0,1-.79,1.88,2.8,2.8,0,0,1-3.75,0,2.57,2.57,0,0,1-.75-1.88,2.35,2.35,0,0,1,.75-1.83,2.84,2.84,0,0,1,3.78,0Zm-3.81,6.73h3.81V79.11h-3.81Z"/><path class="cls-2" d="M420.41,62.8a10.15,10.15,0,0,1,2.52,7,9.84,9.84,0,0,1-2.49,7,9.55,9.55,0,0,1-13.61,0,9.88,9.88,0,0,1-2.48-7,10,10,0,0,1,2.52-7,9.58,9.58,0,0,1,13.54,0Zm-10.87,2.42a7.56,7.56,0,0,0-1.27,4.6,7.55,7.55,0,0,0,1.27,4.58,4.73,4.73,0,0,0,4.1,2.08,4.89,4.89,0,0,0,4.14-2.08,7.79,7.79,0,0,0,1.3-4.58,7.6,7.6,0,0,0-1.3-4.6,4.82,4.82,0,0,0-4.14-2.09A4.65,4.65,0,0,0,409.54,65.22Z"/><path class="cls-2" d="M442.94,67.63V79.11h-3.81V68c0-3.17-1.46-4.75-4.36-4.75a3.83,3.83,0,0,0-2.84,1.15,5.61,5.61,0,0,0-1.55,3.57V79.11h-3.82V60.5h3.82v2.3a7,7,0,0,1,2.48-2.08A6.49,6.49,0,0,1,436,60Q443,60,442.94,67.63Z"/><path class="cls-1" d="M197.24,162.14a8,8,0,0,1,2.59,6.14A9.93,9.93,0,0,1,197,175a42.1,42.1,0,0,1-5.9,4.58q-4.59,3-5.51,5.39h14.24v3.83H180.25a10.87,10.87,0,0,1,2.83-7.46,36.78,36.78,0,0,1,6.42-5.19,31.34,31.34,0,0,0,4.07-3.27,6.91,6.91,0,0,0,2-4.66,4.63,4.63,0,0,0-1.31-3.59,5.57,5.57,0,0,0-3.87-1.2,4.72,4.72,0,0,0-4.07,1.84,8.78,8.78,0,0,0-1.52,5.22h-4.34a11.09,11.09,0,0,1,2.75-7.66,9.32,9.32,0,0,1,7.34-3.07A9.65,9.65,0,0,1,197.24,162.14Z"/><path class="cls-1" d="M221.76,164q2.52,3.94,2.52,10.57t-2.52,10.57a9.27,9.27,0,0,1-15.55,0q-2.52-3.94-2.51-10.57T206.21,164a9.26,9.26,0,0,1,15.55,0ZM209,167.32a20,20,0,0,0-1,7.26,20.23,20.23,0,0,0,1,7.26q1.44,3.87,5,3.87c2.34,0,4-1.29,4.94-3.87a21.07,21.07,0,0,0,1-7.26,20.61,20.61,0,0,0-1-7.26c-1-2.58-2.6-3.87-4.94-3.87S210,164.74,209,167.32Z"/><path class="cls-1" d="M240.9,160.34v28.48h-4.34V165.57a15.76,15.76,0,0,1-6.54,3.59v-4.31a16.85,16.85,0,0,0,4.06-1.68,16.58,16.58,0,0,0,3.51-2.83Z"/><path class="cls-1" d="M269.46,163.57q2.67,3.7,2.67,10.21,0,6.9-2.83,11.25a9,9,0,0,1-7.82,4.34q-8.3,0-9.37-7.73h4.23c.56,2.76,2.28,4.14,5.18,4.14a5.44,5.44,0,0,0,4.71-2.91,13.07,13.07,0,0,0,1.71-6.89l0-.52h-.16a8.12,8.12,0,0,1-3,2.79,9.1,9.1,0,0,1-3.95.88,8.76,8.76,0,0,1-6.74-2.72,9.55,9.55,0,0,1-2.43-6.82,9.28,9.28,0,0,1,2.83-7,9.69,9.69,0,0,1,7.1-2.8A9.17,9.17,0,0,1,269.46,163.57Zm-12,1.56a6.29,6.29,0,0,0-1.59,4.46,5.88,5.88,0,0,0,1.59,4.35,5.36,5.36,0,0,0,4.19,1.68,5.49,5.49,0,0,0,4.23-1.68,6.29,6.29,0,0,0,1.55-4.47,6.14,6.14,0,0,0-1.59-4.42,5.46,5.46,0,0,0-4.15-1.68A5.29,5.29,0,0,0,257.45,165.13Z"/><path class="cls-1" d="M312.73,164q3.58,4,3.59,10.61a15.56,15.56,0,0,1-3.47,10.45q2.22,3,3.15,4.34l-2.79,2.48q-1.87-2.71-3.16-4.43a14.26,14.26,0,0,1-7.57,1.91q-6.51,0-10.25-4.22-3.56-4-3.55-10.53t3.55-10.57q3.66-4.26,10.25-4.27T312.73,164Zm-17.31,2.67c-1.6,1.94-2.39,4.59-2.39,7.94a12.15,12.15,0,0,0,2.39,7.9,8.72,8.72,0,0,0,7.06,3,9.7,9.7,0,0,0,5.1-1.28c-1.35-1.7-2.78-3.34-4.27-4.91l2.52-2.47c1.19,1.25,2.63,2.86,4.3,4.83a12.76,12.76,0,0,0,1.8-7.1,12.42,12.42,0,0,0-2.43-8.06,9.74,9.74,0,0,0-14.08.12Z"/><path class="cls-1" d="M332.75,160.34h4v18.83H341v3.46h-4.31v6.19h-4.14v-6.19H318.71v-4.1Zm-.28,5.51-10.21,13.32h10.33V165.85Z"/><circle class="cls-3" cx="116.92" cy="236.3" r="3.67"/><path class="cls-4" d="M138.4,228a6.07,6.07,0,0,1,2.15,4.51h-1.64a5.33,5.33,0,0,0-1.69-3.41,5.79,5.79,0,0,0-3.87-1.16,7.09,7.09,0,0,0-3.66.81A2.93,2.93,0,0,0,130,234a30.65,30.65,0,0,0,3.68,1.24,23,23,0,0,1,5,1.82,4.48,4.48,0,0,1,2.39,4,4.55,4.55,0,0,1-2.07,3.92,9,9,0,0,1-5.24,1.37,8.23,8.23,0,0,1-5.22-1.5,6.9,6.9,0,0,1-2.42-5.22h1.61a5.79,5.79,0,0,0,1.89,4,6.39,6.39,0,0,0,4.11,1.19,7.69,7.69,0,0,0,4.12-1,3.11,3.11,0,0,0,1.55-2.71,3.39,3.39,0,0,0-2-3.07,21.39,21.39,0,0,0-4.22-1.48,23,23,0,0,1-4.41-1.53,3.91,3.91,0,0,1-2.2-3.6,4.26,4.26,0,0,1,2.07-3.82,8.39,8.39,0,0,1,4.78-1.24A7.55,7.55,0,0,1,138.4,228Z"/><path class="cls-4" d="M153.59,234.6a5.47,5.47,0,0,1,1.86-2.12,4.29,4.29,0,0,1,2.53-.73,4.57,4.57,0,0,1,3.49,1.37,5.46,5.46,0,0,1,1.27,3.82V246h-1.62v-8.88a4.58,4.58,0,0,0-.8-3,3.43,3.43,0,0,0-2.77-1A3.19,3.19,0,0,0,155,234.3a4.09,4.09,0,0,0-1,2.88V246h-1.64v-8.88q0-4-3.47-4a3.21,3.21,0,0,0-2.61,1.26,4.51,4.51,0,0,0-1.08,3.07V246h-1.61v-13.9h1.61v2.09a4.53,4.53,0,0,1,4-2.47A4.19,4.19,0,0,1,153.59,234.6Z"/><path class="cls-4" d="M176.34,233.34a5.38,5.38,0,0,1,1.24,3.73v9H176v-2.67a7.06,7.06,0,0,1-5.88,3,5,5,0,0,1-3.31-1.05,3.58,3.58,0,0,1-1.27-2.87,4.1,4.1,0,0,1,2.18-3.87,9.33,9.33,0,0,1,4.65-1l3.55,0v-.51q0-3.94-4-3.95a4.76,4.76,0,0,0-2.9.78,3.31,3.31,0,0,0-1.43,2.42H166a4.8,4.8,0,0,1,2-3.49,6.78,6.78,0,0,1,4-1.08A5.47,5.47,0,0,1,176.34,233.34ZM176,238.9l-3.46,0c-3.52,0-5.27,1.19-5.27,3.52a2.31,2.31,0,0,0,.88,1.88,3.54,3.54,0,0,0,2.37.73,5.77,5.77,0,0,0,3.87-1.45,4.1,4.1,0,0,0,1.61-3.1Z"/><path class="cls-4" d="M188.82,232.05v1.64a7.36,7.36,0,0,0-2.13-.3,3.45,3.45,0,0,0-3,1.67,6,6,0,0,0-1.1,3.63V246H181v-13.9h1.61v2.66a5.15,5.15,0,0,1,1.53-2.07,4,4,0,0,1,2.69-1A5.48,5.48,0,0,1,188.82,232.05Z"/><path class="cls-4" d="M194,227.64v4.49h3.64v1.39H194v9.42a2.08,2.08,0,0,0,.33,1.31,1.55,1.55,0,0,0,1.21.38h1.74V246h-2a2.86,2.86,0,0,1-2.31-.84,3.34,3.34,0,0,1-.62-2.25v-9.42h-3v-1.39h3v-3.82Z"/><path class="cls-4" d="M219,233a5.32,5.32,0,0,1,1.91,3.71h-1.62a4,4,0,0,0-1.4-2.64,4.64,4.64,0,0,0-2.95-.88,4.17,4.17,0,0,0-3.5,1.69,8.07,8.07,0,0,0-.05,8.58,4.14,4.14,0,0,0,3.52,1.58c2.58,0,4.07-1.31,4.46-3.95h1.59a6.36,6.36,0,0,1-2,4,6,6,0,0,1-4.06,1.34,5.83,5.83,0,0,1-4.79-2.09,7.85,7.85,0,0,1-1.58-5.14,8.07,8.07,0,0,1,1.64-5.22,5.68,5.68,0,0,1,4.76-2.2A6.43,6.43,0,0,1,219,233Z"/><path class="cls-4" d="M234.5,234a8.62,8.62,0,0,1,0,10.25,6.6,6.6,0,0,1-9.84,0,8.54,8.54,0,0,1,0-10.25,6,6,0,0,1,4.9-2.2A6.11,6.11,0,0,1,234.5,234Zm-8.66,1a7.4,7.4,0,0,0,0,8.2,4.77,4.77,0,0,0,7.5,0,6.71,6.71,0,0,0,1.24-4.09,6.59,6.59,0,0,0-1.24-4.11,4.76,4.76,0,0,0-7.5,0Z"/><path class="cls-4" d="M250.33,237.48V246h-1.61v-8.45q0-4.43-3.95-4.43a3.67,3.67,0,0,0-2.8,1.21,4.9,4.9,0,0,0-1.32,3.28V246H239v-13.9h1.61v2.28a5.73,5.73,0,0,1,1.89-2,4.85,4.85,0,0,1,2.63-.7Q250.33,231.75,250.33,237.48Z"/><path class="cls-4" d="M257.08,227.64v4.49h3.63v1.39h-3.63v9.42a2.15,2.15,0,0,0,.32,1.31,1.56,1.56,0,0,0,1.21.38h1.75V246h-2a2.83,2.83,0,0,1-2.31-.84,3.34,3.34,0,0,1-.62-2.25v-9.42h-3v-1.39h3v-3.82Z"/><path class="cls-4" d="M271,232.05v1.64a7.29,7.29,0,0,0-2.12-.3,3.45,3.45,0,0,0-3,1.67,6,6,0,0,0-1.1,3.63V246h-1.61v-13.9h1.61v2.66a5.15,5.15,0,0,1,1.53-2.07,4,4,0,0,1,2.69-1A5.44,5.44,0,0,1,271,232.05Z"/><path class="cls-4" d="M283.06,233.34a5.38,5.38,0,0,1,1.23,3.73v9h-1.53v-2.67a7.19,7.19,0,0,1-2.26,2.08,7,7,0,0,1-3.63,1,5,5,0,0,1-3.31-1.05,3.57,3.57,0,0,1-1.26-2.87,4.1,4.1,0,0,1,2.18-3.87,9.3,9.3,0,0,1,4.65-1l3.55,0v-.51c0-2.63-1.35-3.95-4-3.95a4.79,4.79,0,0,0-2.91.78,3.3,3.3,0,0,0-1.42,2.42h-1.59a4.87,4.87,0,0,1,2-3.49,6.81,6.81,0,0,1,4-1.08A5.49,5.49,0,0,1,283.06,233.34Zm-.38,5.56-3.47,0q-5.26,0-5.27,3.52a2.32,2.32,0,0,0,.89,1.88,3.52,3.52,0,0,0,2.37.73,5.77,5.77,0,0,0,3.87-1.45,4.13,4.13,0,0,0,1.61-3.1Z"/><path class="cls-4" d="M297.6,233a5.28,5.28,0,0,1,1.91,3.71H297.9a4,4,0,0,0-1.4-2.64,4.66,4.66,0,0,0-3-.88,4.15,4.15,0,0,0-3.49,1.69,6.73,6.73,0,0,0-1.27,4.33,6.87,6.87,0,0,0,1.21,4.25,4.15,4.15,0,0,0,3.52,1.58c2.58,0,4.07-1.31,4.47-3.95h1.58a6.36,6.36,0,0,1-2,4,6,6,0,0,1-4.06,1.34,5.81,5.81,0,0,1-4.78-2.09,7.8,7.8,0,0,1-1.59-5.14,8.13,8.13,0,0,1,1.64-5.22,5.7,5.7,0,0,1,4.76-2.2A6.41,6.41,0,0,1,297.6,233Z"/><path class="cls-4" d="M305.51,227.64v4.49h3.63v1.39h-3.63v9.42a2.15,2.15,0,0,0,.32,1.31,1.55,1.55,0,0,0,1.21.38h1.75V246h-2a2.86,2.86,0,0,1-2.31-.84,3.34,3.34,0,0,1-.62-2.25v-9.42h-2.95v-1.39h2.95v-3.82Z"/><path class="cls-4" d="M331.53,234a8.58,8.58,0,0,1,0,10.25,6.6,6.6,0,0,1-9.84,0,7.79,7.79,0,0,1-1.69-5.11,7.71,7.71,0,0,1,1.72-5.14,6,6,0,0,1,4.89-2.2A6.09,6.09,0,0,1,331.53,234Zm-8.66,1a7.45,7.45,0,0,0,0,8.2,4.78,4.78,0,0,0,7.51,0,6.77,6.77,0,0,0,1.23-4.09,6.64,6.64,0,0,0-1.23-4.11,4.77,4.77,0,0,0-7.51,0Z"/><path class="cls-4" d="M347.37,237.48V246h-1.61v-8.45q0-4.43-3.95-4.43a3.65,3.65,0,0,0-2.8,1.21,4.9,4.9,0,0,0-1.32,3.28V246h-1.61v-13.9h1.61v2.28a5.61,5.61,0,0,1,1.88-2,4.89,4.89,0,0,1,2.64-.7Q347.37,231.75,347.37,237.48Z"/><path class="cls-4" d="M351.27,226.45h1.61V246h-1.61Z"/><path class="cls-4" d="M359.36,227.53a1.12,1.12,0,0,1,.4.94,1.33,1.33,0,0,1-.43,1,1.38,1.38,0,0,1-.94.37,1.34,1.34,0,0,1-1-.37,1.35,1.35,0,0,1-.4-1,1.15,1.15,0,0,1,.4-.94,1.28,1.28,0,0,1,1-.4A1.31,1.31,0,0,1,359.36,227.53Zm-1.77,4.6h1.61V246h-1.61Z"/><path class="cls-4" d="M374.69,237.48V246h-1.62v-8.45c0-3-1.31-4.43-3.95-4.43a3.64,3.64,0,0,0-2.79,1.21,4.9,4.9,0,0,0-1.32,3.28V246h-1.62v-13.9H365v2.28a5.61,5.61,0,0,1,1.88-2,4.86,4.86,0,0,1,2.64-.7Q374.69,231.75,374.69,237.48Z"/><path class="cls-4" d="M388.64,234a9.64,9.64,0,0,1,1.59,5.57H378.94a6.48,6.48,0,0,0,1.37,4,4.36,4.36,0,0,0,3.44,1.45,4.65,4.65,0,0,0,3.06-1,5.18,5.18,0,0,0,1.48-2.45h1.64a6.49,6.49,0,0,1-1.85,3.31,6.21,6.21,0,0,1-4.33,1.53,5.89,5.89,0,0,1-4.68-2,7.66,7.66,0,0,1-1.8-5.35,7.74,7.74,0,0,1,1.72-5.13,6.38,6.38,0,0,1,9.65,0Zm-8.23.59a6.16,6.16,0,0,0-1.45,3.66h9.57c-.26-3.39-1.87-5.08-4.81-5.08A4.17,4.17,0,0,0,380.41,234.57Z"/><circle class="cls-3" cx="116.92" cy="299.72" r="3.67"/><path class="cls-4" d="M133.75,289.31h1.94l7.69,19.2h-1.8l-2.24-5.73h-9.25l-2.23,5.73h-1.8Zm-3.12,12.08h8.18l-4-10.3h-.08Z"/><path class="cls-4" d="M155,295.44a5.3,5.3,0,0,1,1.91,3.71h-1.61a4,4,0,0,0-1.4-2.63,4.66,4.66,0,0,0-3-.89,4.16,4.16,0,0,0-3.49,1.7,6.7,6.7,0,0,0-1.27,4.32,6.85,6.85,0,0,0,1.21,4.25,4.16,4.16,0,0,0,3.52,1.59c2.59,0,4.07-1.32,4.47-3.95H157a6.33,6.33,0,0,1-2,4,6,6,0,0,1-4.06,1.35,5.79,5.79,0,0,1-4.78-2.1,7.76,7.76,0,0,1-1.59-5.14,8.08,8.08,0,0,1,1.64-5.21,5.72,5.72,0,0,1,4.76-2.21A6.47,6.47,0,0,1,155,295.44Z"/><path class="cls-4" d="M159.54,288.94h1.64v8.2a5.35,5.35,0,0,1,1.93-2.18,5.41,5.41,0,0,1,6.35.67,5.65,5.65,0,0,1,1.34,4v8.87h-1.61v-8.66a4.58,4.58,0,0,0-1-3.14,3.83,3.83,0,0,0-2.88-1.08,3.75,3.75,0,0,0-2.93,1.4,5,5,0,0,0-1.18,3.44v8h-1.64Z"/><path class="cls-4" d="M176.77,290a1.14,1.14,0,0,1,.4.94,1.32,1.32,0,0,1-.43,1,1.39,1.39,0,0,1-.94.38,1.33,1.33,0,0,1-1.37-1.35,1.17,1.17,0,0,1,.4-.94,1.28,1.28,0,0,1,1-.4A1.31,1.31,0,0,1,176.77,290Zm-1.77,4.6h1.61v13.9H175Z"/><path class="cls-4" d="M191.37,296.47A9.61,9.61,0,0,1,193,302h-11.3a6.6,6.6,0,0,0,1.38,4,4.36,4.36,0,0,0,3.44,1.45,4.65,4.65,0,0,0,3.06-1,5.24,5.24,0,0,0,1.48-2.45h1.64a6.53,6.53,0,0,1-1.85,3.31,6.23,6.23,0,0,1-4.33,1.53,5.92,5.92,0,0,1-4.68-2,7.68,7.68,0,0,1-1.8-5.35,7.77,7.77,0,0,1,1.72-5.14,6.37,6.37,0,0,1,9.65.06Zm-8.23.59a6.16,6.16,0,0,0-1.45,3.65h9.57c-.26-3.38-1.87-5.08-4.81-5.08A4.18,4.18,0,0,0,183.14,297.06Z"/><path class="cls-4" d="M194,294.61h1.77l4.39,11.86,4.35-11.86h1.8L201,308.51H199.3Z"/><path class="cls-4" d="M218.69,296.47a9.69,9.69,0,0,1,1.58,5.56H209a6.59,6.59,0,0,0,1.37,4,4.37,4.37,0,0,0,3.44,1.45,4.7,4.7,0,0,0,3.07-1,5.32,5.32,0,0,0,1.48-2.45H220a6.48,6.48,0,0,1-1.86,3.31,6.21,6.21,0,0,1-4.33,1.53,5.92,5.92,0,0,1-4.67-2,7.64,7.64,0,0,1-1.81-5.35,7.77,7.77,0,0,1,1.73-5.14,6.37,6.37,0,0,1,9.65.06Zm-8.23.59a6.1,6.1,0,0,0-1.45,3.65h9.57c-.27-3.38-1.87-5.08-4.81-5.08A4.18,4.18,0,0,0,210.46,297.06Z"/><path class="cls-4" d="M242.08,298.51h-1.59a3.31,3.31,0,0,0-1.15-2.13,5.54,5.54,0,0,0-5.33-.13,2,2,0,0,0-1,1.67,1.91,1.91,0,0,0,1.23,1.69,19.12,19.12,0,0,0,2.93,1,14,14,0,0,1,3.61,1.29,3.13,3.13,0,0,1,1.66,2.8q0,4.21-5.64,4.22-5.35,0-5.84-4.76h1.59a3.74,3.74,0,0,0,1.29,2.63,4.75,4.75,0,0,0,2.9.73q4,0,4-2.74a2.11,2.11,0,0,0-1.38-1.94,18.89,18.89,0,0,0-3.09-1,13.78,13.78,0,0,1-3.39-1.23,3,3,0,0,1-1.58-2.67,3.14,3.14,0,0,1,1.5-2.71,6.21,6.21,0,0,1,3.66-1C239.84,294.23,241.68,295.66,242.08,298.51Z"/><path class="cls-4" d="M255.63,296.47a9.61,9.61,0,0,1,1.59,5.56h-11.3a6.53,6.53,0,0,0,1.38,4,4.36,4.36,0,0,0,3.44,1.45,4.67,4.67,0,0,0,3.06-1,5.24,5.24,0,0,0,1.48-2.45h1.64a6.53,6.53,0,0,1-1.85,3.31,6.23,6.23,0,0,1-4.33,1.53,5.92,5.92,0,0,1-4.68-2,7.68,7.68,0,0,1-1.8-5.35,7.77,7.77,0,0,1,1.72-5.14,6.37,6.37,0,0,1,9.65.06Zm-8.23.59a6.16,6.16,0,0,0-1.45,3.65h9.57c-.26-3.38-1.87-5.08-4.81-5.08A4.18,4.18,0,0,0,247.4,297.06Z"/><path class="cls-4" d="M260.31,288.94h1.61v19.57h-1.61Z"/><path class="cls-4" d="M273.94,289.31v1.43H271.6a1.89,1.89,0,0,0-1.53.54,2.47,2.47,0,0,0-.49,1.72v1.61h4.17V296h-4.17v12.5H268V296h-3.71v-1.4H268V293a3.7,3.7,0,0,1,.86-2.66,3.36,3.36,0,0,1,2.64-1Z"/><path class="cls-4" d="M275.42,300.85H289v1.4H275.42Z"/><path class="cls-4" d="M294.62,290a1.14,1.14,0,0,1,.4.94,1.32,1.32,0,0,1-.43,1,1.41,1.41,0,0,1-.94.38,1.33,1.33,0,0,1-1-.38,1.31,1.31,0,0,1-.4-1,1.14,1.14,0,0,1,.4-.94,1.27,1.27,0,0,1,1-.4A1.31,1.31,0,0,1,294.62,290Zm-1.78,4.6h1.62v13.9h-1.62Z"/><path class="cls-4" d="M308.92,298.51h-1.59a3.31,3.31,0,0,0-1.15-2.13,5.52,5.52,0,0,0-5.32-.13,1.93,1.93,0,0,0-1,1.67,1.91,1.91,0,0,0,1.23,1.69,19.52,19.52,0,0,0,2.93,1,14,14,0,0,1,3.61,1.29,3.13,3.13,0,0,1,1.66,2.8q0,4.21-5.64,4.22c-3.57,0-5.51-1.59-5.84-4.76h1.59a3.74,3.74,0,0,0,1.29,2.63,4.77,4.77,0,0,0,2.9.73q4,0,4-2.74a2.12,2.12,0,0,0-1.37-1.94,19.47,19.47,0,0,0-3.1-1,13.51,13.51,0,0,1-3.38-1.23,3,3,0,0,1-1.59-2.67,3.13,3.13,0,0,1,1.51-2.71,6.15,6.15,0,0,1,3.65-1Q308.33,294.23,308.92,298.51Z"/><path class="cls-4" d="M322.18,298.51h-1.59a3.27,3.27,0,0,0-1.16-2.13,4.44,4.44,0,0,0-2.82-.75,4.51,4.51,0,0,0-2.5.62,2,2,0,0,0-1,1.67,1.91,1.91,0,0,0,1.24,1.69,18.73,18.73,0,0,0,2.93,1,14,14,0,0,1,3.6,1.29,3.14,3.14,0,0,1,1.67,2.8q0,4.21-5.65,4.22c-3.56,0-5.51-1.59-5.83-4.76h1.59a3.74,3.74,0,0,0,1.29,2.63,4.75,4.75,0,0,0,2.9.73q4,0,4-2.74a2.1,2.1,0,0,0-1.37-1.94,18.89,18.89,0,0,0-3.09-1,13.78,13.78,0,0,1-3.39-1.23,3,3,0,0,1-1.58-2.67,3.14,3.14,0,0,1,1.5-2.71,6.21,6.21,0,0,1,3.66-1C319.94,294.23,321.78,295.66,322.18,298.51Z"/><path class="cls-4" d="M325.16,294.61h1.61v8.5a4.92,4.92,0,0,0,.92,3.25,3.72,3.72,0,0,0,3,1.13,3.85,3.85,0,0,0,2.82-1.24,4.9,4.9,0,0,0,1.38-3.2v-8.44h1.61v13.9h-1.61v-2.34a5.11,5.11,0,0,1-4.63,2.72q-5.08,0-5.08-5.7Z"/><path class="cls-4" d="M350.43,296.47A9.61,9.61,0,0,1,352,302H340.73a6.53,6.53,0,0,0,1.37,4,4.37,4.37,0,0,0,3.44,1.45,4.7,4.7,0,0,0,3.07-1,5.4,5.4,0,0,0,1.48-2.45h1.64a6.55,6.55,0,0,1-1.86,3.31,6.21,6.21,0,0,1-4.33,1.53,6,6,0,0,1-4.68-2,7.68,7.68,0,0,1-1.8-5.35,7.82,7.82,0,0,1,1.72-5.14,6.37,6.37,0,0,1,9.65.06Zm-8.22.59a6,6,0,0,0-1.45,3.65h9.57c-.27-3.38-1.88-5.08-4.81-5.08A4.15,4.15,0,0,0,342.21,297.06Z"/><path class="cls-4" d="M365.09,288.94h1.61v19.57h-1.53v-2.74a5,5,0,0,1-4.87,3.12,5.63,5.63,0,0,1-4.7-2.21,9.23,9.23,0,0,1,0-10.21,5.44,5.44,0,0,1,4.62-2.24,5.1,5.1,0,0,1,4.87,3.31Zm-8.23,8.44a6.69,6.69,0,0,0-1.16,4.17,7.07,7.07,0,0,0,1.13,4.19,4.21,4.21,0,0,0,3.63,1.78A4.16,4.16,0,0,0,364,305.8a6.77,6.77,0,0,0,1.15-4v-.32a6.71,6.71,0,0,0-1.24-4.17,4,4,0,0,0-3.38-1.67A4.27,4.27,0,0,0,356.86,297.38Z"/><path class="cls-4" d="M138.24,323.51h1.61v19.57h-1.53v-2.74a5,5,0,0,1-4.87,3.12,5.66,5.66,0,0,1-4.7-2.21,8.23,8.23,0,0,1-1.53-5.13,8.14,8.14,0,0,1,1.53-5.08,5.44,5.44,0,0,1,4.62-2.24,5.09,5.09,0,0,1,4.87,3.31ZM130,332a6.69,6.69,0,0,0-1.15,4.17,7,7,0,0,0,1.13,4.19,4.19,4.19,0,0,0,3.63,1.78,4.14,4.14,0,0,0,3.52-1.72,6.77,6.77,0,0,0,1.16-4V336a6.77,6.77,0,0,0-1.24-4.17,4,4,0,0,0-3.39-1.67A4.27,4.27,0,0,0,130,332Z"/><path class="cls-4" d="M145.82,324.58a1.14,1.14,0,0,1,.4.94,1.34,1.34,0,0,1-.42,1,1.42,1.42,0,0,1-1,.38,1.3,1.3,0,0,1-1-.38,1.32,1.32,0,0,1-.41-1,1.14,1.14,0,0,1,.41-.94,1.25,1.25,0,0,1,1-.4A1.31,1.31,0,0,1,145.82,324.58Zm-1.77,4.6h1.61v13.9h-1.61Z"/><path class="cls-4" d="M160.56,332v-2.8h1.61v12.88q0,6.72-6.24,6.72a6.66,6.66,0,0,1-4.22-1.18,5.06,5.06,0,0,1-1.77-3.34h1.61a3.67,3.67,0,0,0,1.29,2.32,4.88,4.88,0,0,0,3.09.86q4.63,0,4.63-5.19v-2.66a5.17,5.17,0,0,1-5,3.17,5.79,5.79,0,0,1-4.65-2.07,8.25,8.25,0,0,1,0-9.79,5.76,5.76,0,0,1,4.65-2.1A5.16,5.16,0,0,1,160.56,332Zm-8.37-.14a6.06,6.06,0,0,0-1.23,4,6.21,6.21,0,0,0,1.15,3.88,4.27,4.27,0,0,0,3.64,1.69,4.36,4.36,0,0,0,3.6-1.61,7.07,7.07,0,0,0,0-7.91,4.67,4.67,0,0,0-7.16,0Z"/><path class="cls-4" d="M168.14,324.58a1.14,1.14,0,0,1,.4.94,1.32,1.32,0,0,1-.43,1,1.39,1.39,0,0,1-.94.38,1.33,1.33,0,0,1-1-.38,1.31,1.31,0,0,1-.4-1,1.14,1.14,0,0,1,.4-.94,1.27,1.27,0,0,1,1-.4A1.31,1.31,0,0,1,168.14,324.58Zm-1.78,4.6H168v13.9h-1.62Z"/><path class="cls-4" d="M175.53,324.69v4.49h3.63v1.4h-3.63V340a2.1,2.1,0,0,0,.33,1.32,1.55,1.55,0,0,0,1.21.37h1.74v1.4h-2a2.87,2.87,0,0,1-2.31-.83,3.39,3.39,0,0,1-.62-2.26v-9.41h-3v-1.4h3v-3.82Z"/><path class="cls-4" d="M191.83,330.39a5.39,5.39,0,0,1,1.23,3.74v8.95h-1.53v-2.66a7.28,7.28,0,0,1-2.26,2.07,7,7,0,0,1-3.63,1,5,5,0,0,1-3.31-1,3.6,3.6,0,0,1-1.26-2.88,4.12,4.12,0,0,1,2.18-3.87,9.41,9.41,0,0,1,4.65-1l3.55,0v-.51c0-2.64-1.35-4-4-4a4.86,4.86,0,0,0-2.91.78,3.32,3.32,0,0,0-1.42,2.42H181.5a4.87,4.87,0,0,1,2-3.49,6.81,6.81,0,0,1,4-1.08A5.49,5.49,0,0,1,191.83,330.39Zm-.38,5.57L188,336q-5.26,0-5.27,3.53a2.33,2.33,0,0,0,.89,1.88,3.57,3.57,0,0,0,2.37.72,5.77,5.77,0,0,0,3.87-1.45,4.13,4.13,0,0,0,1.61-3.09Z"/><path class="cls-4" d="M197,323.51h1.62v19.57H197Z"/><path class="cls-4" d="M221.65,330.39a5.39,5.39,0,0,1,1.23,3.74v8.95h-1.53v-2.66a7.28,7.28,0,0,1-2.26,2.07,7,7,0,0,1-3.63,1,5,5,0,0,1-3.31-1,3.6,3.6,0,0,1-1.26-2.88,4.12,4.12,0,0,1,2.18-3.87,9.39,9.39,0,0,1,4.65-1l3.55,0v-.51c0-2.64-1.35-4-4-4a4.86,4.86,0,0,0-2.91.78,3.32,3.32,0,0,0-1.42,2.42h-1.59a4.87,4.87,0,0,1,2-3.49,6.81,6.81,0,0,1,4-1.08A5.49,5.49,0,0,1,221.65,330.39Zm-.38,5.57-3.47,0q-5.27,0-5.27,3.53a2.33,2.33,0,0,0,.89,1.88,3.56,3.56,0,0,0,2.36.72,5.78,5.78,0,0,0,3.88-1.45,4.13,4.13,0,0,0,1.61-3.09Z"/><path class="cls-4" d="M236.54,333.08H235A3.31,3.31,0,0,0,233.8,331a4.49,4.49,0,0,0-2.83-.75,4.54,4.54,0,0,0-2.5.62,2,2,0,0,0-1,1.67,1.91,1.91,0,0,0,1.23,1.69,19.52,19.52,0,0,0,2.93,1,14,14,0,0,1,3.61,1.29,3.13,3.13,0,0,1,1.66,2.8q0,4.22-5.64,4.22-5.36,0-5.84-4.76h1.59a3.74,3.74,0,0,0,1.29,2.63,4.75,4.75,0,0,0,2.9.73q4,0,4-2.74a2.11,2.11,0,0,0-1.37-1.94,19.47,19.47,0,0,0-3.1-1,13.51,13.51,0,0,1-3.38-1.23,3,3,0,0,1-1.59-2.67,3.13,3.13,0,0,1,1.51-2.71,6.15,6.15,0,0,1,3.65-1Q236,328.8,236.54,333.08Z"/><path class="cls-4" d="M249.8,333.08h-1.59a3.27,3.27,0,0,0-1.16-2.13,4.44,4.44,0,0,0-2.82-.75,4.51,4.51,0,0,0-2.5.62,2,2,0,0,0-1,1.67,1.91,1.91,0,0,0,1.24,1.69,18.73,18.73,0,0,0,2.93,1,14,14,0,0,1,3.6,1.29,3.14,3.14,0,0,1,1.67,2.8q0,4.22-5.65,4.22c-3.56,0-5.51-1.59-5.83-4.76h1.59a3.74,3.74,0,0,0,1.29,2.63,4.75,4.75,0,0,0,2.9.73q4,0,4-2.74a2.09,2.09,0,0,0-1.37-1.94,18.89,18.89,0,0,0-3.09-1,13.78,13.78,0,0,1-3.39-1.23,3,3,0,0,1-1.58-2.67,3.14,3.14,0,0,1,1.5-2.71,6.21,6.21,0,0,1,3.66-1C247.56,328.8,249.4,330.23,249.8,333.08Z"/><path class="cls-4" d="M263.35,331a9.69,9.69,0,0,1,1.58,5.56H253.64a6.59,6.59,0,0,0,1.37,4,4.37,4.37,0,0,0,3.44,1.45,4.7,4.7,0,0,0,3.07-1,5.32,5.32,0,0,0,1.48-2.45h1.64a6.55,6.55,0,0,1-1.86,3.31,6.21,6.21,0,0,1-4.33,1.53,5.92,5.92,0,0,1-4.67-2,7.64,7.64,0,0,1-1.81-5.35,7.8,7.8,0,0,1,1.72-5.14,6.38,6.38,0,0,1,9.66.06Zm-8.23.59a6.1,6.1,0,0,0-1.45,3.65h9.57c-.27-3.38-1.87-5.08-4.81-5.08A4.16,4.16,0,0,0,255.12,331.63Z"/><path class="cls-4" d="M270.87,324.69v4.49h3.64v1.4h-3.64V340a2.1,2.1,0,0,0,.33,1.32,1.55,1.55,0,0,0,1.21.37h1.74v1.4h-2a2.89,2.89,0,0,1-2.31-.83,3.39,3.39,0,0,1-.62-2.26v-9.41h-3v-1.4h3v-3.82Z"/><path class="cls-4" d="M287.22,333.08h-1.58a3.32,3.32,0,0,0-1.16-2.13,5.52,5.52,0,0,0-5.32-.13,1.93,1.93,0,0,0-1,1.67,1.91,1.91,0,0,0,1.24,1.69,18.73,18.73,0,0,0,2.93,1,14,14,0,0,1,3.6,1.29,3.14,3.14,0,0,1,1.67,2.8c0,2.81-1.89,4.22-5.65,4.22-3.57,0-5.51-1.59-5.84-4.76h1.59a3.74,3.74,0,0,0,1.29,2.63,4.78,4.78,0,0,0,2.91.73c2.68,0,4-.91,4-2.74a2.11,2.11,0,0,0-1.37-1.94,19.24,19.24,0,0,0-3.09-1,13.46,13.46,0,0,1-3.39-1.23,3,3,0,0,1-1.59-2.67A3.13,3.13,0,0,1,278,329.8a6.19,6.19,0,0,1,3.65-1Q286.63,328.8,287.22,333.08Z"/><circle class="cls-3" cx="116.92" cy="392.93" r="3.67"/><path class="cls-4" d="M127.54,382.39h6.83q4.49,0,6.75,2.69,2.07,2.44,2.07,6.91a9.94,9.94,0,0,1-2.31,6.93,8.79,8.79,0,0,1-6.86,2.67h-6.48Zm1.64,1.45v16.3h4.6a7.6,7.6,0,0,0,5.86-2.18,8.49,8.49,0,0,0,1.94-6q0-4-1.7-6-1.83-2.14-5.75-2.15Z"/><path class="cls-4" d="M156.6,389.54a9.64,9.64,0,0,1,1.59,5.57H146.9a6.48,6.48,0,0,0,1.37,4,4.38,4.38,0,0,0,3.44,1.46,4.7,4.7,0,0,0,3.07-1,5.35,5.35,0,0,0,1.48-2.45h1.63a6.49,6.49,0,0,1-1.85,3.31,6.21,6.21,0,0,1-4.33,1.53,5.92,5.92,0,0,1-4.68-2,7.66,7.66,0,0,1-1.8-5.35,7.74,7.74,0,0,1,1.72-5.13,6.38,6.38,0,0,1,9.65.05Zm-8.22.59a6.11,6.11,0,0,0-1.46,3.66h9.58q-.41-5.09-4.82-5.08A4.13,4.13,0,0,0,148.38,390.13Z"/><path class="cls-4" d="M170.69,388.52a5.24,5.24,0,0,1,1.91,3.71H171a4,4,0,0,0-1.4-2.63,4.6,4.6,0,0,0-3-.89,4.15,4.15,0,0,0-3.49,1.69,6.73,6.73,0,0,0-1.27,4.33,6.89,6.89,0,0,0,1.21,4.25,4.16,4.16,0,0,0,3.53,1.59q3.87,0,4.46-4h1.59a6.4,6.4,0,0,1-2,4,6,6,0,0,1-4.06,1.34,5.83,5.83,0,0,1-4.79-2.09,7.8,7.8,0,0,1-1.59-5.14,8.11,8.11,0,0,1,1.64-5.22,5.74,5.74,0,0,1,4.76-2.2A6.41,6.41,0,0,1,170.69,388.52Z"/><path class="cls-4" d="M185.8,389.54a9.64,9.64,0,0,1,1.59,5.57H176.1a6.48,6.48,0,0,0,1.37,4,4.38,4.38,0,0,0,3.44,1.46,4.7,4.7,0,0,0,3.07-1,5.35,5.35,0,0,0,1.48-2.45h1.63a6.42,6.42,0,0,1-1.85,3.31,6.21,6.21,0,0,1-4.33,1.53,5.92,5.92,0,0,1-4.68-2,7.66,7.66,0,0,1-1.8-5.35,7.74,7.74,0,0,1,1.72-5.13,6.38,6.38,0,0,1,9.65.05Zm-8.22.59a6.11,6.11,0,0,0-1.46,3.66h9.58q-.4-5.09-4.82-5.08A4.13,4.13,0,0,0,177.58,390.13Z"/><path class="cls-4" d="M201.26,393v8.55h-1.61v-8.45q0-4.42-4-4.43a3.68,3.68,0,0,0-2.8,1.21,4.9,4.9,0,0,0-1.32,3.28v8.39H190v-13.9h1.61V390a5.73,5.73,0,0,1,1.89-2,4.85,4.85,0,0,1,2.63-.7Q201.26,387.31,201.26,393Z"/><path class="cls-4" d="M208,383.2v4.49h3.63v1.39H208v9.42a2.08,2.08,0,0,0,.33,1.31,1.52,1.52,0,0,0,1.2.38h1.75v1.4h-2a2.83,2.83,0,0,1-2.31-.84,3.34,3.34,0,0,1-.62-2.25v-9.42h-3v-1.39h3v-3.82Z"/><path class="cls-4" d="M221.94,387.61v1.64a7.29,7.29,0,0,0-2.12-.3,3.45,3.45,0,0,0-3,1.67,6,6,0,0,0-1.1,3.63v7.34h-1.61v-13.9h1.61v2.66a5.15,5.15,0,0,1,1.53-2.07,4,4,0,0,1,2.69-1A5.44,5.44,0,0,1,221.94,387.61Z"/><path class="cls-4" d="M234,388.9a5.38,5.38,0,0,1,1.23,3.73v9h-1.53v-2.67a7,7,0,0,1-2.26,2.07,7,7,0,0,1-3.63,1,5.08,5.08,0,0,1-3.31-1,3.6,3.6,0,0,1-1.26-2.88,4.1,4.1,0,0,1,2.18-3.87,9.3,9.3,0,0,1,4.65-1l3.55,0v-.51c0-2.63-1.35-3.95-4-3.95a4.79,4.79,0,0,0-2.91.78,3.3,3.3,0,0,0-1.42,2.42h-1.59a4.87,4.87,0,0,1,2-3.49,6.81,6.81,0,0,1,4-1.08A5.49,5.49,0,0,1,234,388.9Zm-.38,5.56-3.47,0q-5.26,0-5.27,3.52a2.32,2.32,0,0,0,.89,1.88,3.52,3.52,0,0,0,2.37.73,5.77,5.77,0,0,0,3.87-1.45,4.13,4.13,0,0,0,1.61-3.09Z"/><path class="cls-4" d="M239.12,382h1.61v19.58h-1.61Z"/><path class="cls-4" d="M247.21,383.09a1.13,1.13,0,0,1,.41.94,1.33,1.33,0,0,1-.43,1,1.41,1.41,0,0,1-.94.38,1.33,1.33,0,0,1-1.37-1.35,1.12,1.12,0,0,1,.4-.94,1.25,1.25,0,0,1,1-.4A1.29,1.29,0,0,1,247.21,383.09Zm-1.77,4.6h1.61v13.9h-1.61Z"/><path class="cls-4" d="M250.5,387.69h10.78v1.23l-9,11.27h9.41v1.4H250.23v-1.27l9-11.24H250.5Z"/><path class="cls-4" d="M274.64,389.54a9.72,9.72,0,0,1,1.59,5.57h-11.3a6.54,6.54,0,0,0,1.37,4,4.39,4.39,0,0,0,3.45,1.46,4.69,4.69,0,0,0,3.06-1,5.18,5.18,0,0,0,1.48-2.45h1.64a6.44,6.44,0,0,1-1.86,3.31,6.18,6.18,0,0,1-4.32,1.53,5.89,5.89,0,0,1-4.68-2,7.66,7.66,0,0,1-1.8-5.35,7.74,7.74,0,0,1,1.72-5.13,6.38,6.38,0,0,1,9.65.05Zm-8.23.59a6.1,6.1,0,0,0-1.45,3.66h9.57q-.4-5.09-4.81-5.08A4.17,4.17,0,0,0,266.41,390.13Z"/><path class="cls-4" d="M289.29,382h1.62v19.58h-1.54v-2.74a5,5,0,0,1-4.86,3.11,5.65,5.65,0,0,1-4.71-2.2,8.28,8.28,0,0,1-1.53-5.14,8.18,8.18,0,0,1,1.53-5.08,5.44,5.44,0,0,1,4.63-2.23,5.07,5.07,0,0,1,4.86,3.31Zm-8.23,8.45a6.68,6.68,0,0,0-1.15,4.16,7.13,7.13,0,0,0,1.13,4.2,4.18,4.18,0,0,0,3.63,1.77,4.11,4.11,0,0,0,3.52-1.72,6.76,6.76,0,0,0,1.16-4v-.32a6.75,6.75,0,0,0-1.24-4.17,4,4,0,0,0-3.39-1.67A4.26,4.26,0,0,0,281.06,390.46Z"/><path class="cls-4" d="M130.63,417.77v4.49h3.63v1.39h-3.63v9.42a2.15,2.15,0,0,0,.32,1.31,1.56,1.56,0,0,0,1.21.38h1.75v1.4h-2a2.83,2.83,0,0,1-2.31-.84,3.34,3.34,0,0,1-.62-2.25v-9.42h-3v-1.39h3v-3.82Z"/><path class="cls-4" d="M144.56,422.18v1.64a7.29,7.29,0,0,0-2.12-.3,3.43,3.43,0,0,0-3,1.67,6,6,0,0,0-1.1,3.63v7.34h-1.61v-13.9h1.61v2.66a5.15,5.15,0,0,1,1.53-2.07,4,4,0,0,1,2.69-1A5.44,5.44,0,0,1,144.56,422.18Z"/><path class="cls-4" d="M156.61,423.47a5.38,5.38,0,0,1,1.23,3.73v9h-1.53v-2.67a7,7,0,0,1-2.26,2.07,7,7,0,0,1-3.63,1,5.08,5.08,0,0,1-3.31-1,3.6,3.6,0,0,1-1.26-2.88,4.1,4.1,0,0,1,2.18-3.87,9.28,9.28,0,0,1,4.65-1l3.55,0v-.51c0-2.63-1.35-3.95-4-3.95a4.79,4.79,0,0,0-2.91.78,3.3,3.3,0,0,0-1.42,2.42h-1.59a4.87,4.87,0,0,1,2-3.49,6.81,6.81,0,0,1,4-1.08A5.49,5.49,0,0,1,156.61,423.47Zm-.38,5.56-3.47,0q-5.26,0-5.27,3.52a2.32,2.32,0,0,0,.89,1.88,3.51,3.51,0,0,0,2.36.73,5.78,5.78,0,0,0,3.88-1.45,4.13,4.13,0,0,0,1.61-3.1Z"/><path class="cls-4" d="M172.52,427.61v8.55h-1.61v-8.45q0-4.43-3.95-4.43a3.65,3.65,0,0,0-2.8,1.21,4.9,4.9,0,0,0-1.32,3.28v8.39h-1.61v-13.9h1.61v2.28a5.64,5.64,0,0,1,1.89-2,4.85,4.85,0,0,1,2.63-.7Q172.52,421.88,172.52,427.61Z"/><path class="cls-4" d="M186.18,426.15h-1.59a3.31,3.31,0,0,0-1.15-2.12,5.54,5.54,0,0,0-5.33-.13,1.85,1.85,0,0,0,.27,3.36,19.52,19.52,0,0,0,2.93,1,13.61,13.61,0,0,1,3.61,1.29,3.13,3.13,0,0,1,1.66,2.79c0,2.82-1.88,4.22-5.64,4.22-3.57,0-5.51-1.58-5.84-4.76h1.59a3.79,3.79,0,0,0,1.29,2.64,4.82,4.82,0,0,0,2.9.72q4,0,4-2.74a2.1,2.1,0,0,0-1.37-1.93,18.45,18.45,0,0,0-3.1-1,13,13,0,0,1-3.38-1.24,2.93,2.93,0,0,1-1.59-2.66,3.15,3.15,0,0,1,1.51-2.72,6.22,6.22,0,0,1,3.65-1C183.94,421.88,185.79,423.31,186.18,426.15Z"/><path class="cls-4" d="M199.38,423.47a5.34,5.34,0,0,1,1.24,3.73v9h-1.53v-2.67a7.15,7.15,0,0,1-2.26,2.07,7,7,0,0,1-3.63,1,5.06,5.06,0,0,1-3.31-1,3.6,3.6,0,0,1-1.26-2.88,4.08,4.08,0,0,1,2.18-3.87,9.28,9.28,0,0,1,4.65-1l3.55,0v-.51q0-3.94-4-3.95a4.78,4.78,0,0,0-2.9.78,3.3,3.3,0,0,0-1.42,2.42h-1.59a4.83,4.83,0,0,1,2-3.49,6.78,6.78,0,0,1,4-1.08A5.46,5.46,0,0,1,199.38,423.47ZM199,429l-3.47,0c-3.52,0-5.27,1.19-5.27,3.52a2.29,2.29,0,0,0,.89,1.88,3.51,3.51,0,0,0,2.36.73,5.77,5.77,0,0,0,3.87-1.45,4.11,4.11,0,0,0,1.62-3.1Z"/><path class="cls-4" d="M213.93,423.09a5.28,5.28,0,0,1,1.91,3.71h-1.62a4,4,0,0,0-1.39-2.64,4.67,4.67,0,0,0-3-.88,4.17,4.17,0,0,0-3.5,1.69,8.07,8.07,0,0,0-.05,8.58,4.15,4.15,0,0,0,3.52,1.58c2.58,0,4.07-1.31,4.46-3.95h1.59a6.36,6.36,0,0,1-2,4,6,6,0,0,1-4.06,1.34,5.83,5.83,0,0,1-4.79-2.09,7.85,7.85,0,0,1-1.58-5.14,8.11,8.11,0,0,1,1.64-5.22,5.72,5.72,0,0,1,4.76-2.2A6.43,6.43,0,0,1,213.93,423.09Z"/><path class="cls-4" d="M221.83,417.77v4.49h3.63v1.39h-3.63v9.42a2.08,2.08,0,0,0,.33,1.31,1.53,1.53,0,0,0,1.21.38h1.74v1.4h-2a2.85,2.85,0,0,1-2.31-.84,3.34,3.34,0,0,1-.62-2.25v-9.42h-3v-1.39h3v-3.82Z"/><path class="cls-4" d="M230.49,417.66a1.12,1.12,0,0,1,.4.94,1.33,1.33,0,0,1-.43,1,1.38,1.38,0,0,1-.94.37,1.3,1.3,0,0,1-1-.37,1.32,1.32,0,0,1-.41-1,1.13,1.13,0,0,1,.41-.94,1.25,1.25,0,0,1,1-.4A1.31,1.31,0,0,1,230.49,417.66Zm-1.77,4.6h1.61v13.9h-1.61Z"/><path class="cls-4" d="M245.52,424.08a8.62,8.62,0,0,1,0,10.25,6.6,6.6,0,0,1-9.84,0,7.8,7.8,0,0,1-1.7-5.11,7.72,7.72,0,0,1,1.73-5.14,6,6,0,0,1,4.89-2.2A6.14,6.14,0,0,1,245.52,424.08Zm-8.66,1a7.45,7.45,0,0,0,0,8.2,4.77,4.77,0,0,0,7.5,0,6.71,6.71,0,0,0,1.24-4.09,6.59,6.59,0,0,0-1.24-4.11,4.76,4.76,0,0,0-7.5,0Z"/><path class="cls-4" d="M261.36,427.61v8.55h-1.62v-8.45c0-2.95-1.31-4.43-4-4.43a3.64,3.64,0,0,0-2.79,1.21,4.9,4.9,0,0,0-1.32,3.28v8.39h-1.62v-13.9h1.62v2.28a5.61,5.61,0,0,1,1.88-2,4.85,4.85,0,0,1,2.63-.7Q261.37,421.88,261.36,427.61Z"/><circle class="cls-3" cx="116.92" cy="476.39" r="3.67"/><path class="cls-4" d="M126.09,465.91h6.83c3,0,5.24.89,6.75,2.69q2.07,2.44,2.07,6.91a9.89,9.89,0,0,1-2.32,6.93,8.75,8.75,0,0,1-6.85,2.66h-6.48Zm1.64,1.45v16.29h4.6a7.58,7.58,0,0,0,5.86-2.18,8.45,8.45,0,0,0,1.93-6q0-4-1.69-6c-1.22-1.44-3.14-2.15-5.75-2.15Z"/><path class="cls-4" d="M155.15,473.06a9.63,9.63,0,0,1,1.59,5.56H145.45a6.51,6.51,0,0,0,1.37,4,4.36,4.36,0,0,0,3.44,1.45,4.65,4.65,0,0,0,3.06-1,5.18,5.18,0,0,0,1.48-2.45h1.64a6.49,6.49,0,0,1-1.85,3.31,6.21,6.21,0,0,1-4.33,1.53,5.91,5.91,0,0,1-4.68-2A8.68,8.68,0,0,1,145.5,473a6.38,6.38,0,0,1,9.65.05Zm-8.23.59a6.16,6.16,0,0,0-1.45,3.66h9.58q-.41-5.08-4.82-5.08A4.17,4.17,0,0,0,146.92,473.65Z"/><path class="cls-4" d="M157.76,471.2h1.78l4.38,11.86,4.35-11.86h1.81l-5.33,13.9h-1.67Z"/><path class="cls-4" d="M181.91,473.68a5.4,5.4,0,0,1,1.85-2.13,4.36,4.36,0,0,1,2.53-.72,4.59,4.59,0,0,1,3.5,1.37,5.48,5.48,0,0,1,1.26,3.82v9.08h-1.61v-8.87a4.57,4.57,0,0,0-.81-3,3.46,3.46,0,0,0-2.77-1,3.19,3.19,0,0,0-2.53,1.15,4.07,4.07,0,0,0-1,2.88v8.84h-1.64v-8.87q0-4-3.47-4a3.22,3.22,0,0,0-2.61,1.26,4.53,4.53,0,0,0-1.07,3.06v8.55H171.9V471.2h1.62v2.1a4.51,4.51,0,0,1,4-2.47A4.19,4.19,0,0,1,181.91,473.68Z"/><path class="cls-4" d="M197,466.61a1.12,1.12,0,0,1,.4.94,1.29,1.29,0,0,1-.43,1,1.41,1.41,0,0,1-.94.38,1.31,1.31,0,0,1-1-.38,1.29,1.29,0,0,1-.4-1,1.12,1.12,0,0,1,.4-.94,1.26,1.26,0,0,1,1-.41A1.32,1.32,0,0,1,197,466.61Zm-1.78,4.59h1.61v13.9h-1.61Z"/><path class="cls-4" d="M212.34,476.55v8.55h-1.61v-8.44q0-4.43-3.95-4.43a3.67,3.67,0,0,0-2.8,1.21,4.88,4.88,0,0,0-1.32,3.28v8.38h-1.61V471.2h1.61v2.29a5.73,5.73,0,0,1,1.89-2,4.85,4.85,0,0,1,2.63-.7Q212.34,470.83,212.34,476.55Z"/><path class="cls-4" d="M226.3,473.06a9.71,9.71,0,0,1,1.58,5.56H216.59a6.57,6.57,0,0,0,1.37,4,4.37,4.37,0,0,0,3.44,1.45,4.7,4.7,0,0,0,3.07-1,5.27,5.27,0,0,0,1.48-2.45h1.64a6.51,6.51,0,0,1-1.86,3.31,6.21,6.21,0,0,1-4.33,1.53,5.89,5.89,0,0,1-4.67-2,7.64,7.64,0,0,1-1.81-5.35,7.75,7.75,0,0,1,1.73-5.13,6.38,6.38,0,0,1,9.65.05Zm-8.23.59a6.1,6.1,0,0,0-1.45,3.66h9.57q-.41-5.08-4.81-5.08A4.16,4.16,0,0,0,218.07,473.65Z"/><path class="cls-4" d="M249.42,473.68a5.34,5.34,0,0,1,1.86-2.13,4.32,4.32,0,0,1,2.52-.72,4.59,4.59,0,0,1,3.5,1.37,5.48,5.48,0,0,1,1.26,3.82v9.08H257v-8.87a4.57,4.57,0,0,0-.81-3,3.45,3.45,0,0,0-2.77-1,3.17,3.17,0,0,0-2.52,1.15,4.08,4.08,0,0,0-1,2.88v8.84h-1.64v-8.87c0-2.67-1.15-4-3.47-4a3.21,3.21,0,0,0-2.6,1.26,4.49,4.49,0,0,0-1.08,3.06v8.55h-1.61V471.2H241v2.1a4.52,4.52,0,0,1,4-2.47A4.19,4.19,0,0,1,249.42,473.68Z"/><path class="cls-4" d="M264.53,466.61a1.12,1.12,0,0,1,.4.94,1.29,1.29,0,0,1-.43,1,1.39,1.39,0,0,1-.94.38,1.33,1.33,0,0,1-1.37-1.34,1.15,1.15,0,0,1,.4-.94,1.29,1.29,0,0,1,1-.41A1.32,1.32,0,0,1,264.53,466.61Zm-1.77,4.59h1.61v13.9h-1.61Z"/><path class="cls-4" d="M279.86,476.55v8.55h-1.62v-8.44c0-3-1.31-4.43-3.95-4.43a3.64,3.64,0,0,0-2.79,1.21,4.88,4.88,0,0,0-1.32,3.28v8.38h-1.62V471.2h1.62v2.29a5.61,5.61,0,0,1,1.88-2,4.86,4.86,0,0,1,2.64-.7Q279.86,470.83,279.86,476.55Z"/><path class="cls-4" d="M285.82,466.61a1.13,1.13,0,0,1,.41.94,1.29,1.29,0,0,1-.43,1,1.41,1.41,0,0,1-.94.38,1.31,1.31,0,0,1-1-.38,1.29,1.29,0,0,1-.4-1,1.12,1.12,0,0,1,.4-.94,1.26,1.26,0,0,1,1-.41A1.3,1.3,0,0,1,285.82,466.61Zm-1.77,4.59h1.61v13.9h-1.61Z"/><path class="cls-4" d="M301.15,476.55v8.55h-1.61v-8.44q0-4.43-4-4.43a3.64,3.64,0,0,0-2.79,1.21,4.88,4.88,0,0,0-1.32,3.28v8.38h-1.61V471.2h1.61v2.29a5.61,5.61,0,0,1,1.88-2,4.86,4.86,0,0,1,2.64-.7Q301.15,470.83,301.15,476.55Z"/><path class="cls-4" d="M315.24,474v-2.8h1.61v12.88q0,6.72-6.23,6.72a6.71,6.71,0,0,1-4.23-1.18,5,5,0,0,1-1.77-3.33h1.61a3.62,3.62,0,0,0,1.29,2.31,4.89,4.89,0,0,0,3.1.86q4.62,0,4.62-5.19v-2.66a5.17,5.17,0,0,1-5,3.17,5.77,5.77,0,0,1-4.65-2.07,8.21,8.21,0,0,1,0-9.79,5.75,5.75,0,0,1,4.65-2.09A5.17,5.17,0,0,1,315.24,474Zm-8.36-.13a6,6,0,0,0-1.24,3.95,6.17,6.17,0,0,0,1.16,3.87,4.24,4.24,0,0,0,3.63,1.69,4.34,4.34,0,0,0,3.6-1.61,7.05,7.05,0,0,0,0-7.9,4.66,4.66,0,0,0-7.15,0Z"/><path class="cls-4" d="M128.4,501.18a1.11,1.11,0,0,1,.4.94,1.29,1.29,0,0,1-.43,1,1.39,1.39,0,0,1-.94.38,1.33,1.33,0,0,1-1.37-1.34,1.14,1.14,0,0,1,.4-.94,1.29,1.29,0,0,1,1-.41A1.32,1.32,0,0,1,128.4,501.18Zm-1.77,4.59h1.61v13.9h-1.61Z"/><path class="cls-4" d="M143.72,511.12v8.55h-1.61v-8.44c0-3-1.31-4.43-4-4.43a3.71,3.71,0,0,0-2.8,1.2,4.92,4.92,0,0,0-1.31,3.29v8.38h-1.62v-13.9h1.62v2.29a5.61,5.61,0,0,1,1.88-2,4.85,4.85,0,0,1,2.63-.7C142,505.4,143.72,507.31,143.72,511.12Z"/><path class="cls-4" d="M157,506.61a5.25,5.25,0,0,1,1.9,3.71h-1.61a3.93,3.93,0,0,0-1.4-2.64,4.66,4.66,0,0,0-3-.88,4.16,4.16,0,0,0-3.49,1.69,8.07,8.07,0,0,0,0,8.58,4.14,4.14,0,0,0,3.52,1.58c2.58,0,4.07-1.31,4.46-3.95H159a6.36,6.36,0,0,1-2,4,6,6,0,0,1-4.06,1.34,5.81,5.81,0,0,1-4.79-2.1,7.75,7.75,0,0,1-1.58-5.13,8.05,8.05,0,0,1,1.64-5.22,5.68,5.68,0,0,1,4.75-2.2A6.44,6.44,0,0,1,157,506.61Z"/><path class="cls-4" d="M172.14,507.63a9.63,9.63,0,0,1,1.59,5.56H162.44a6.51,6.51,0,0,0,1.37,4,4.37,4.37,0,0,0,3.44,1.45,4.7,4.7,0,0,0,3.07-1,5.35,5.35,0,0,0,1.48-2.45h1.64a6.51,6.51,0,0,1-1.86,3.31,6.21,6.21,0,0,1-4.33,1.53,5.92,5.92,0,0,1-4.68-2,7.68,7.68,0,0,1-1.8-5.35,7.79,7.79,0,0,1,1.72-5.13,6.38,6.38,0,0,1,9.65.05Zm-8.22.59a6,6,0,0,0-1.45,3.66H172c-.27-3.39-1.88-5.08-4.81-5.08A4.14,4.14,0,0,0,163.92,508.22Z"/><path class="cls-4" d="M187.6,511.12v8.55H186v-8.44c0-3-1.31-4.43-4-4.43a3.71,3.71,0,0,0-2.8,1.2,4.92,4.92,0,0,0-1.31,3.29v8.38h-1.62v-13.9h1.62v2.29a5.61,5.61,0,0,1,1.88-2,4.85,4.85,0,0,1,2.63-.7Q187.6,505.4,187.6,511.12Z"/><path class="cls-4" d="M194.35,501.28v4.49H198v1.4h-3.64v9.41a2.1,2.1,0,0,0,.33,1.32,1.55,1.55,0,0,0,1.21.38h1.75v1.39h-2a2.86,2.86,0,0,1-2.31-.83,3.39,3.39,0,0,1-.62-2.26v-9.41h-3v-1.4h3V502Z"/><path class="cls-4" d="M203,501.18a1.12,1.12,0,0,1,.41.94,1.33,1.33,0,0,1-.43,1,1.42,1.42,0,0,1-1,.38,1.35,1.35,0,0,1-1.37-1.34,1.12,1.12,0,0,1,.41-.94,1.25,1.25,0,0,1,1-.41A1.32,1.32,0,0,1,203,501.18Zm-1.77,4.59h1.61v13.9h-1.61Z"/><path class="cls-4" d="M205.49,505.77h1.77l4.38,11.86L216,505.77h1.8l-5.32,13.9h-1.67Z"/><path class="cls-4" d="M230.19,507.63a9.63,9.63,0,0,1,1.59,5.56H220.49a6.51,6.51,0,0,0,1.37,4,4.37,4.37,0,0,0,3.44,1.45,4.7,4.7,0,0,0,3.07-1,5.35,5.35,0,0,0,1.48-2.45h1.63a6.42,6.42,0,0,1-1.85,3.31,6.21,6.21,0,0,1-4.33,1.53,5.92,5.92,0,0,1-4.68-2,7.68,7.68,0,0,1-1.8-5.35,7.79,7.79,0,0,1,1.72-5.13,6.38,6.38,0,0,1,9.65.05Zm-8.22.59a6.11,6.11,0,0,0-1.46,3.66h9.58q-.41-5.08-4.82-5.08A4.13,4.13,0,0,0,222,508.22Z"/><circle class="cls-3" cx="116.92" cy="559.79" r="3.67"/><path class="cls-4" d="M126.06,549.8h2.18l7.53,17.13h.08l7.47-17.13h2.18V569h-1.64V552.52h-.08L136.57,569H135l-7.18-16.48h-.11V569h-1.64Z"/><path class="cls-4" d="M160.15,556.93a8.56,8.56,0,0,1,0,10.24,6.6,6.6,0,0,1-9.84,0,7.79,7.79,0,0,1-1.69-5.11,7.67,7.67,0,0,1,1.72-5.13,6,6,0,0,1,4.89-2.21A6.09,6.09,0,0,1,160.15,556.93Zm-8.65,1a7.4,7.4,0,0,0,0,8.2,4.41,4.41,0,0,0,3.73,1.83,4.46,4.46,0,0,0,3.77-1.83,6.77,6.77,0,0,0,1.24-4.09A6.65,6.65,0,0,0,159,558a4.41,4.41,0,0,0-3.77-1.83A4.36,4.36,0,0,0,151.5,558Z"/><path class="cls-4" d="M172.55,555v1.64a7.31,7.31,0,0,0-2.13-.3,3.45,3.45,0,0,0-3,1.67,6,6,0,0,0-1.1,3.63V569H164.7V555.1h1.61v2.66a5.15,5.15,0,0,1,1.53-2.07,4,4,0,0,1,2.69-1A5.48,5.48,0,0,1,172.55,555Z"/><path class="cls-4" d="M184.94,557a9.67,9.67,0,0,1,1.59,5.57H175.24a6.53,6.53,0,0,0,1.37,4,4.4,4.4,0,0,0,3.44,1.45,4.65,4.65,0,0,0,3.06-1,5.15,5.15,0,0,0,1.48-2.44h1.64a6.5,6.5,0,0,1-1.85,3.3,6.21,6.21,0,0,1-4.33,1.53,5.94,5.94,0,0,1-4.68-2,8.7,8.7,0,0,1-.08-10.49,6.38,6.38,0,0,1,9.65.05Zm-8.22.6a6.05,6.05,0,0,0-1.46,3.65h9.58q-.41-5.09-4.82-5.08A4.11,4.11,0,0,0,176.72,557.55Z"/><path class="cls-4" d="M208.55,549.42h1.61V569h-1.53v-2.74a5,5,0,0,1-4.87,3.11,5.62,5.62,0,0,1-4.7-2.2,9.25,9.25,0,0,1,0-10.22,5.46,5.46,0,0,1,4.62-2.23,5.08,5.08,0,0,1,4.87,3.31Zm-8.23,8.45a6.69,6.69,0,0,0-1.15,4.17,7.11,7.11,0,0,0,1.12,4.19,4.21,4.21,0,0,0,3.63,1.77,4.13,4.13,0,0,0,3.53-1.72,6.74,6.74,0,0,0,1.15-4v-.32a6.75,6.75,0,0,0-1.23-4.17,4.06,4.06,0,0,0-3.39-1.67A4.24,4.24,0,0,0,200.32,557.87Z"/><path class="cls-4" d="M224.12,557a9.74,9.74,0,0,1,1.58,5.57H214.41a6.59,6.59,0,0,0,1.37,4,4.4,4.4,0,0,0,3.44,1.45,4.7,4.7,0,0,0,3.07-1,5.23,5.23,0,0,0,1.48-2.44h1.64a6.45,6.45,0,0,1-1.86,3.3,6.21,6.21,0,0,1-4.33,1.53,5.91,5.91,0,0,1-4.67-2,7.64,7.64,0,0,1-1.81-5.35,7.76,7.76,0,0,1,1.73-5.14,6.38,6.38,0,0,1,9.65.05Zm-8.23.6a6,6,0,0,0-1.45,3.65H224q-.4-5.09-4.81-5.08A4.13,4.13,0,0,0,215.89,557.55Z"/><path class="cls-4" d="M226.73,555.1h1.77L232.88,567l4.36-11.85H239L233.72,569h-1.67Z"/><path class="cls-4" d="M251.43,557a9.67,9.67,0,0,1,1.59,5.57H241.73a6.53,6.53,0,0,0,1.37,4,4.4,4.4,0,0,0,3.44,1.45,4.7,4.7,0,0,0,3.07-1,5.31,5.31,0,0,0,1.48-2.44h1.64a6.52,6.52,0,0,1-1.86,3.3,6.21,6.21,0,0,1-4.33,1.53,5.94,5.94,0,0,1-4.68-2,7.68,7.68,0,0,1-1.8-5.35,7.8,7.8,0,0,1,1.72-5.14,6.38,6.38,0,0,1,9.65.05Zm-8.22.6a6,6,0,0,0-1.45,3.65h9.57c-.27-3.39-1.88-5.08-4.81-5.08A4.12,4.12,0,0,0,243.21,557.55Z"/><path class="cls-4" d="M256.11,549.42h1.62V569h-1.62Z"/><path class="cls-4" d="M272.62,556.93a8.56,8.56,0,0,1,0,10.24,6.6,6.6,0,0,1-9.84,0,7.79,7.79,0,0,1-1.69-5.11,7.67,7.67,0,0,1,1.72-5.13,6,6,0,0,1,4.89-2.21A6.11,6.11,0,0,1,272.62,556.93ZM264,558a7.45,7.45,0,0,0,0,8.2,4.77,4.77,0,0,0,7.51,0,6.77,6.77,0,0,0,1.23-4.09,6.64,6.64,0,0,0-1.23-4.11,4.77,4.77,0,0,0-7.51,0Z"/><path class="cls-4" d="M288.27,557a9.38,9.38,0,0,1,0,10.22,5.59,5.59,0,0,1-4.65,2.2,5.08,5.08,0,0,1-4.87-3.28v8.23h-1.61V555.1h1.53v2.74a5.11,5.11,0,0,1,4.89-3.12A5.62,5.62,0,0,1,288.27,557Zm-8.39.92a6.74,6.74,0,0,0-1.15,4.11v.3a6.53,6.53,0,0,0,1.23,4.11,4.06,4.06,0,0,0,3.39,1.61,4.35,4.35,0,0,0,3.66-1.72,7.07,7.07,0,0,0,1.13-4.19,7.2,7.2,0,0,0-1.11-4.2,4.21,4.21,0,0,0-3.63-1.8A4.07,4.07,0,0,0,279.88,557.87Z"/><path class="cls-4" d="M303.22,557a9.74,9.74,0,0,1,1.58,5.57H293.51a6.59,6.59,0,0,0,1.37,4,4.4,4.4,0,0,0,3.44,1.45,4.7,4.7,0,0,0,3.07-1,5.23,5.23,0,0,0,1.48-2.44h1.64a6.45,6.45,0,0,1-1.86,3.3,6.21,6.21,0,0,1-4.33,1.53,5.91,5.91,0,0,1-4.67-2,8.66,8.66,0,0,1-.08-10.49,6.38,6.38,0,0,1,9.65.05Zm-8.23.6a6,6,0,0,0-1.45,3.65h9.57q-.41-5.09-4.81-5.08A4.15,4.15,0,0,0,295,557.55Z"/><path class="cls-4" d="M315.24,555v1.64a7.36,7.36,0,0,0-2.13-.3,3.45,3.45,0,0,0-3,1.67,6,6,0,0,0-1.1,3.63V569h-1.61V555.1H309v2.66a5.15,5.15,0,0,1,1.53-2.07,4,4,0,0,1,2.69-1A5.48,5.48,0,0,1,315.24,555Z"/><path class="cls-4" d="M329.38,550.61v4.49H333v1.4h-3.63v9.41a2.13,2.13,0,0,0,.32,1.31,1.53,1.53,0,0,0,1.21.38h1.75V569h-2a2.83,2.83,0,0,1-2.31-.84,3.29,3.29,0,0,1-.62-2.25V556.5h-3v-1.4h3v-3.82Z"/><path class="cls-4" d="M346.45,556.93a8.56,8.56,0,0,1,0,10.24,6.6,6.6,0,0,1-9.84,0,7.79,7.79,0,0,1-1.69-5.11,7.67,7.67,0,0,1,1.72-5.13,6,6,0,0,1,4.89-2.21A6.09,6.09,0,0,1,346.45,556.93Zm-8.65,1a7.4,7.4,0,0,0,0,8.2,4.41,4.41,0,0,0,3.73,1.83,4.46,4.46,0,0,0,3.77-1.83,6.77,6.77,0,0,0,1.24-4.09A6.65,6.65,0,0,0,345.3,558a4.41,4.41,0,0,0-3.77-1.83A4.36,4.36,0,0,0,337.8,558Z"/><path class="cls-4" d="M362,556.93a8.6,8.6,0,0,1,0,10.24,6.61,6.61,0,0,1-9.85,0,7.85,7.85,0,0,1-1.69-5.11,7.67,7.67,0,0,1,1.72-5.13,6,6,0,0,1,4.89-2.21A6.13,6.13,0,0,1,362,556.93Zm-8.66,1a7.4,7.4,0,0,0,0,8.2,4.41,4.41,0,0,0,3.73,1.83,4.46,4.46,0,0,0,3.77-1.83,6.77,6.77,0,0,0,1.24-4.09,6.65,6.65,0,0,0-1.24-4.11,4.41,4.41,0,0,0-3.77-1.83A4.36,4.36,0,0,0,353.34,558Z"/><path class="cls-4" d="M367.05,549.42h1.61V569h-1.61Z"/><path class="cls-4" d="M382.83,559h-1.58a3.32,3.32,0,0,0-1.16-2.13,5.52,5.52,0,0,0-5.32-.13,1.84,1.84,0,0,0,.26,3.36,19.34,19.34,0,0,0,2.94,1,14,14,0,0,1,3.6,1.29,3.14,3.14,0,0,1,1.67,2.79c0,2.82-1.89,4.22-5.65,4.22-3.57,0-5.51-1.58-5.84-4.75h1.59a3.78,3.78,0,0,0,1.29,2.63,4.84,4.84,0,0,0,2.9.73q4,0,4-2.75a2.1,2.1,0,0,0-1.37-1.93,19.47,19.47,0,0,0-3.1-1,13,13,0,0,1-3.38-1.24,2.93,2.93,0,0,1-1.59-2.66,3.12,3.12,0,0,1,1.51-2.71,6.17,6.17,0,0,1,3.65-1Q382.24,554.72,382.83,559Z"/></svg>