<svg id="图层_1" data-name="图层 1" xmlns="http://www.w3.org/2000/svg" viewBox="0 0 500 640"><defs><style>.cls-1{fill:#e3625a;}.cls-2{fill:#fff;}.cls-3{fill:#c1c1c1;}.cls-4{fill:#33353c;}</style></defs><title>英文</title><rect class="cls-1" x="37.22" y="112.95" width="22.33" height="22.33" transform="translate(-73.59 70.57) rotate(-45)"/><rect class="cls-2" x="48.39" y="33.45" width="406.7" height="593"/><rect class="cls-1" x="32.64" y="13.55" width="434.77" height="110.56"/><path class="cls-2" d="M162.67,31.81h18.47v3.34H166.59v7.49h13.68V46H166.59v8.17h15.16v3.35H162.67Z"/><path class="cls-2" d="M199.39,40a8,8,0,0,1,2.73,5.19h-3.78a4.29,4.29,0,0,0-1.54-2.77,5,5,0,0,0-3.14-.9,4.38,4.38,0,0,0-3.7,1.76,7.59,7.59,0,0,0-1.37,4.9,8,8,0,0,0,1.33,4.93,4.26,4.26,0,0,0,3.71,1.76c2.83,0,4.43-1.41,4.79-4.25h3.78a9.06,9.06,0,0,1-2.85,5.58,8.73,8.73,0,0,1-5.76,1.8,8.2,8.2,0,0,1-6.62-2.8,10.3,10.3,0,0,1-2.31-7,10.38,10.38,0,0,1,2.27-6.91,8.34,8.34,0,0,1,6.73-2.92A9.32,9.32,0,0,1,199.39,40Z"/><path class="cls-2" d="M220.81,41.2a10.11,10.11,0,0,1,2.52,7,9.85,9.85,0,0,1-2.49,7,9.56,9.56,0,0,1-13.6,0,9.85,9.85,0,0,1-2.49-7,10,10,0,0,1,2.52-7,9.56,9.56,0,0,1,13.54,0Zm-10.87,2.41a7.68,7.68,0,0,0-1.26,4.61,7.62,7.62,0,0,0,1.26,4.58,4.73,4.73,0,0,0,4.1,2.08,4.89,4.89,0,0,0,4.14-2.08,7.79,7.79,0,0,0,1.3-4.58,7.65,7.65,0,0,0-1.3-4.61A4.84,4.84,0,0,0,214,41.53,4.68,4.68,0,0,0,209.94,43.61Z"/><path class="cls-2" d="M227.4,31.3h3.81V57.51H227.4Z"/><path class="cls-2" d="M251.3,41.2a10.11,10.11,0,0,1,2.52,7,9.89,9.89,0,0,1-2.48,7,9.57,9.57,0,0,1-13.61,0,9.85,9.85,0,0,1-2.49-7,10,10,0,0,1,2.52-7,9.56,9.56,0,0,1,13.54,0Zm-10.87,2.41a7.68,7.68,0,0,0-1.26,4.61,7.62,7.62,0,0,0,1.26,4.58,4.73,4.73,0,0,0,4.1,2.08,4.89,4.89,0,0,0,4.14-2.08,7.72,7.72,0,0,0,1.3-4.58,7.58,7.58,0,0,0-1.3-4.61,4.84,4.84,0,0,0-4.14-2.08A4.68,4.68,0,0,0,240.43,43.61Z"/><path class="cls-2" d="M270.88,41.38V38.9h3.82V56.29q0,8.85-8.68,8.85a10.24,10.24,0,0,1-5.94-1.47,6.86,6.86,0,0,1-2.55-4.58h3.81a3.39,3.39,0,0,0,1.37,2.34,6.28,6.28,0,0,0,3.31.69q4.86,0,4.86-5.26V54a6.44,6.44,0,0,1-5.68,3.1,7.86,7.86,0,0,1-6.12-2.56,9.36,9.36,0,0,1-2.34-6.73A9.6,9.6,0,0,1,259.08,41a7.73,7.73,0,0,1,6.12-2.63A6.47,6.47,0,0,1,270.88,41.38ZM262,43.18a6.89,6.89,0,0,0-1.37,4.61,7.47,7.47,0,0,0,1.08,4.28,4.5,4.5,0,0,0,4,1.88,4.8,4.8,0,0,0,3.82-1.62,7.31,7.31,0,0,0,1.33-4.54,7.42,7.42,0,0,0-1.33-4.61,4.65,4.65,0,0,0-3.82-1.69A4.36,4.36,0,0,0,262,43.18Z"/><path class="cls-2" d="M283.63,32.17a2.34,2.34,0,0,1,.75,1.83,2.53,2.53,0,0,1-.79,1.87,2.79,2.79,0,0,1-3.74,0,2.5,2.5,0,0,1-.76-1.87,2.31,2.31,0,0,1,.76-1.83,2.52,2.52,0,0,1,1.87-.72A2.59,2.59,0,0,1,283.63,32.17Zm-3.82,6.73h3.82V57.51h-3.82Z"/><path class="cls-2" d="M302.78,40a7.93,7.93,0,0,1,2.73,5.19h-3.77a4.3,4.3,0,0,0-1.55-2.77,5,5,0,0,0-3.14-.9,4.38,4.38,0,0,0-3.7,1.76,7.59,7.59,0,0,0-1.37,4.9,8,8,0,0,0,1.33,4.93A4.26,4.26,0,0,0,297,54.88c2.83,0,4.43-1.41,4.79-4.25h3.78a9,9,0,0,1-2.85,5.58A8.73,8.73,0,0,1,297,58a8.2,8.2,0,0,1-6.62-2.8,10.3,10.3,0,0,1-2.31-7,10.38,10.38,0,0,1,2.27-6.91,8.35,8.35,0,0,1,6.73-2.92A9.32,9.32,0,0,1,302.78,40Z"/><path class="cls-2" d="M323.3,40.45A7.28,7.28,0,0,1,325,45.63V57.51h-3.53V54.88a8.16,8.16,0,0,1-2.73,2.27,10,10,0,0,1-4.29.86,6.73,6.73,0,0,1-4.57-1.47,5.06,5.06,0,0,1-1.73-4,5.69,5.69,0,0,1,2.78-5.22A11.5,11.5,0,0,1,317,45.88l4.17,0v-.47q0-3.89-4.21-3.89a5.34,5.34,0,0,0-3,.72,3.28,3.28,0,0,0-1.47,2.45h-3.78a6.56,6.56,0,0,1,2.81-4.9,10.14,10.14,0,0,1,5.72-1.37C320,38.39,322,39.08,323.3,40.45Zm-2.09,8.31-3.92,0q-5.22,0-5.22,3.63a2.32,2.32,0,0,0,.82,1.84,3.6,3.6,0,0,0,2.42.72,6.46,6.46,0,0,0,4.28-1.44,4.91,4.91,0,0,0,1.62-3.82Z"/><path class="cls-2" d="M329.78,31.3h3.81V57.51h-3.81Z"/><path class="cls-2" d="M169.26,76.84a9.57,9.57,0,0,1,3.42,6.2h-3.82a6.18,6.18,0,0,0-2.48-3.86A8.08,8.08,0,0,0,161.77,78a7.26,7.26,0,0,0-6.26,2.84,11.29,11.29,0,0,0-2,7.1q0,4.6,1.95,7.16t6.37,2.7a7.5,7.5,0,0,0,4.68-1.4,7.92,7.92,0,0,0,2.7-4.54H173a11.37,11.37,0,0,1-4,7,11,11,0,0,1-7.13,2.37q-6.3,0-9.51-4-2.77-3.42-2.77-9.28a14.4,14.4,0,0,1,2.88-9.33q3.21-4.06,9.36-4.07A11.4,11.4,0,0,1,169.26,76.84Z"/><path class="cls-2" d="M192,84.4a10.13,10.13,0,0,1,2.52,7,9.89,9.89,0,0,1-2.48,7,9.57,9.57,0,0,1-13.61,0,9.85,9.85,0,0,1-2.48-7,10,10,0,0,1,2.52-7,9.55,9.55,0,0,1,13.53,0ZM181.1,86.82a9,9,0,0,0,0,9.18,4.73,4.73,0,0,0,4.1,2.08A4.89,4.89,0,0,0,189.34,96a7.72,7.72,0,0,0,1.3-4.58,7.53,7.53,0,0,0-1.3-4.6,4.8,4.8,0,0,0-4.14-2.09A4.67,4.67,0,0,0,181.1,86.82Z"/><path class="cls-2" d="M213.46,84.4a10.13,10.13,0,0,1,2.52,7,9.85,9.85,0,0,1-2.48,7,9.57,9.57,0,0,1-13.61,0,11,11,0,0,1,0-14,9.55,9.55,0,0,1,13.53,0Zm-10.87,2.42a9,9,0,0,0,0,9.18,4.75,4.75,0,0,0,4.11,2.08A4.91,4.91,0,0,0,210.84,96a7.78,7.78,0,0,0,1.29-4.58,7.6,7.6,0,0,0-1.29-4.6,4.82,4.82,0,0,0-4.14-2.09A4.68,4.68,0,0,0,202.59,86.82Z"/><path class="cls-2" d="M235.39,84.51a10.85,10.85,0,0,1,2.16,7,10.73,10.73,0,0,1-2.13,6.8,7.53,7.53,0,0,1-6.3,2.91A6.74,6.74,0,0,1,223.44,98v9.86h-3.82V82.1h3.56v2.23a6.63,6.63,0,0,1,5.76-2.74A7.9,7.9,0,0,1,235.39,84.51Zm-10.87,2.16a7.94,7.94,0,0,0-1.19,4.61v.32a7.41,7.41,0,0,0,1.47,4.83,4.14,4.14,0,0,0,3.46,1.69,4.76,4.76,0,0,0,4.14-1.84,8.29,8.29,0,0,0,1.22-4.78,9,9,0,0,0-1.11-4.79,4.6,4.6,0,0,0-4.14-2A4.35,4.35,0,0,0,224.52,86.67Z"/><path class="cls-2" d="M256,84.69a12.6,12.6,0,0,1,2.23,7.78H244.1a6.79,6.79,0,0,0,1.48,4.17,4.6,4.6,0,0,0,3.56,1.44,5.32,5.32,0,0,0,3.24-.93,6.31,6.31,0,0,0,1.69-2.42h3.82a8.62,8.62,0,0,1-2.56,4.36,9,9,0,0,1-6.16,2.12,8.47,8.47,0,0,1-6.51-2.55,11.31,11.31,0,0,1-.15-14.22A8,8,0,0,1,249,81.59,8.18,8.18,0,0,1,256,84.69ZM245.72,86a6.37,6.37,0,0,0-1.55,3.6h10c-.35-3.24-2.05-4.86-5.07-4.86A4.62,4.62,0,0,0,245.72,86Z"/><path class="cls-2" d="M272.5,82.06v3.82a9.28,9.28,0,0,0-2.7-.4,4.2,4.2,0,0,0-3.09,1.41,5.41,5.41,0,0,0-1.44,4v9.86h-3.82V82.1h3.82v2.81a5.46,5.46,0,0,1,1.8-2.27,4.57,4.57,0,0,1,3-1A5.41,5.41,0,0,1,272.5,82.06Z"/><path class="cls-2" d="M289.28,83.65A7.28,7.28,0,0,1,291,88.83v11.88h-3.53V98.08a8.16,8.16,0,0,1-2.73,2.27,10,10,0,0,1-4.29.86,6.73,6.73,0,0,1-4.57-1.47,5.06,5.06,0,0,1-1.73-4,5.71,5.71,0,0,1,2.77-5.22A11.6,11.6,0,0,1,283,89.08l4.18,0v-.47q0-3.89-4.21-3.89a5.28,5.28,0,0,0-3,.72,3.26,3.26,0,0,0-1.48,2.45H274.7a6.56,6.56,0,0,1,2.81-4.9,10.14,10.14,0,0,1,5.72-1.37C286,81.59,288,82.28,289.28,83.65ZM287.19,92l-3.92,0q-5.22,0-5.22,3.63a2.32,2.32,0,0,0,.82,1.84,3.6,3.6,0,0,0,2.42.72,6.46,6.46,0,0,0,4.28-1.44,4.91,4.91,0,0,0,1.62-3.81Z"/><path class="cls-2" d="M301,76.09v6h4.25v3.17H301v10.8a1.73,1.73,0,0,0,.32,1.11,1.37,1.37,0,0,0,1,.36h2.45v3.17H301.7a4.36,4.36,0,0,1-3.49-1.26,4.85,4.85,0,0,1-1-3.38V85.27h-3.45V82.1h3.45V77.67Z"/><path class="cls-2" d="M312.89,75.37a2.33,2.33,0,0,1,.76,1.83,2.53,2.53,0,0,1-.79,1.87,2.77,2.77,0,0,1-3.75,0,2.53,2.53,0,0,1-.75-1.87,2.35,2.35,0,0,1,.75-1.83,2.84,2.84,0,0,1,3.78,0Zm-3.81,6.73h3.81v18.61h-3.81Z"/><path class="cls-2" d="M333.38,84.4a10.13,10.13,0,0,1,2.52,7,9.85,9.85,0,0,1-2.49,7,9.56,9.56,0,0,1-13.6,0,9.85,9.85,0,0,1-2.49-7,10,10,0,0,1,2.52-7,9.56,9.56,0,0,1,13.54,0Zm-10.87,2.42a9,9,0,0,0,0,9.18,4.73,4.73,0,0,0,4.1,2.08A4.89,4.89,0,0,0,330.75,96a7.79,7.79,0,0,0,1.3-4.58,7.6,7.6,0,0,0-1.3-4.6,4.82,4.82,0,0,0-4.14-2.09A4.65,4.65,0,0,0,322.51,86.82Z"/><path class="cls-2" d="M355.91,89.23v11.48H352.1V89.55c0-3.17-1.46-4.75-4.36-4.75A3.85,3.85,0,0,0,344.9,86a5.61,5.61,0,0,0-1.55,3.57v11.19h-3.82V82.1h3.82v2.3a7,7,0,0,1,2.48-2.08,6.49,6.49,0,0,1,3.13-.73Q355.92,81.59,355.91,89.23Z"/><path class="cls-1" d="M185.46,175.05a8.47,8.47,0,0,1,2.74,6.49,10.49,10.49,0,0,1-2.95,7.12,43.38,43.38,0,0,1-6.24,4.85c-3.23,2.14-5.17,4-5.82,5.69h15.05v4H167.51a11.49,11.49,0,0,1,3-7.88,39.22,39.22,0,0,1,6.78-5.47,34.13,34.13,0,0,0,4.3-3.46,7.28,7.28,0,0,0,2.06-4.93,4.86,4.86,0,0,0-1.39-3.79,5.88,5.88,0,0,0-4.08-1.27,5,5,0,0,0-4.3,1.94,9.22,9.22,0,0,0-1.6,5.52h-4.6a11.75,11.75,0,0,1,2.91-8.09,9.83,9.83,0,0,1,7.75-3.24A10.23,10.23,0,0,1,185.46,175.05Z"/><path class="cls-1" d="M211.37,177Q214,181.21,214,188.2t-2.66,11.17a9.8,9.8,0,0,1-16.43,0q-2.66-4.17-2.66-11.17T194.94,177a9.8,9.8,0,0,1,16.43,0Zm-13.44,3.5a27.29,27.29,0,0,0,0,15.34q1.51,4.09,5.22,4.09t5.23-4.09a22.21,22.21,0,0,0,1.09-7.67,21.78,21.78,0,0,0-1.09-7.67c-1-2.72-2.75-4.09-5.23-4.09S198.94,177.81,197.93,180.53Z"/><path class="cls-1" d="M231.6,173.16v30.08H227V178.68a16.52,16.52,0,0,1-6.91,3.79v-4.55a16.41,16.41,0,0,0,8-4.76Z"/><path class="cls-1" d="M261.35,175.1a7.29,7.29,0,0,1,2.52,5.64,7.14,7.14,0,0,1-1,3.92,7,7,0,0,1-3.41,2.57v.13a6.38,6.38,0,0,1,3.71,2.53,7.59,7.59,0,0,1,1.77,5,8.22,8.22,0,0,1-2.91,6.49c-2,1.66-4.76,2.48-8.3,2.48s-6.34-.82-8.3-2.48a8.22,8.22,0,0,1-2.91-6.49,7.59,7.59,0,0,1,1.77-5,6.38,6.38,0,0,1,3.71-2.53v-.13a6.94,6.94,0,0,1-3.41-2.57,7.15,7.15,0,0,1-1-3.92,7.3,7.3,0,0,1,2.53-5.64,12.77,12.77,0,0,1,15.26,0Zm-12.6,15.76a5.1,5.1,0,0,0-1.69,4,4.68,4.68,0,0,0,1.73,3.79,7.39,7.39,0,0,0,4.93,1.48,7.83,7.83,0,0,0,5-1.48,4.85,4.85,0,0,0,1.65-3.79,5,5,0,0,0-1.65-4,7.07,7.07,0,0,0-5-1.65Q250.35,189.25,248.75,190.86Zm.54-13.15a4.09,4.09,0,0,0-1.43,3.2,4.68,4.68,0,0,0,1.18,3.41c1,1,2.54,1.52,4.68,1.52a6.35,6.35,0,0,0,4.68-1.52,4.91,4.91,0,0,0,1.18-3.41,4.16,4.16,0,0,0-1.44-3.2,7.36,7.36,0,0,0-8.85,0Z"/><path class="cls-1" d="M307.49,177q3.78,4.22,3.79,11.21a16.37,16.37,0,0,1-3.67,11c1.58,2.11,2.68,3.64,3.33,4.6L308,206.49q-2-2.87-3.33-4.68a15.09,15.09,0,0,1-8,2q-6.87,0-10.83-4.46-3.75-4.26-3.75-11.13c0-4.6,1.25-8.33,3.75-11.16q3.87-4.52,10.83-4.51T307.49,177Zm-18.29,2.83q-2.54,3.07-2.53,8.38a12.84,12.84,0,0,0,2.53,8.35,9.24,9.24,0,0,0,7.46,3.2,10.24,10.24,0,0,0,5.39-1.35c-1.43-1.8-2.94-3.52-4.51-5.18l2.66-2.61q1.89,2,4.55,5.09a13.5,13.5,0,0,0,1.89-7.5c0-3.56-.85-6.4-2.57-8.51s-4.18-3.12-7.41-3.12A9,9,0,0,0,289.2,179.86Z"/><path class="cls-1" d="M328.64,173.16h4.21v19.89h4.55v3.66h-4.55v6.53h-4.38v-6.53H313.81v-4.34Zm-.3,5.81-10.78,14.08h10.91V179Z"/><circle class="cls-3" cx="97.56" cy="444.47" r="3.67"/><path class="cls-4" d="M124.07,434.29a6.12,6.12,0,0,1,2.16,4.51h-1.64a5.34,5.34,0,0,0-1.7-3.41,5.77,5.77,0,0,0-3.87-1.16,7.09,7.09,0,0,0-3.66.81,2.93,2.93,0,0,0,.3,5.27,28.9,28.9,0,0,0,3.68,1.24,23,23,0,0,1,5,1.82,4.47,4.47,0,0,1,2.39,4,4.54,4.54,0,0,1-2.07,3.92,9,9,0,0,1-5.24,1.37,8.25,8.25,0,0,1-5.22-1.5,6.9,6.9,0,0,1-2.42-5.22h1.62a5.79,5.79,0,0,0,1.88,4,6.39,6.39,0,0,0,4.11,1.18,7.78,7.78,0,0,0,4.12-1,3.13,3.13,0,0,0,1.56-2.72,3.4,3.4,0,0,0-2-3.07,21.14,21.14,0,0,0-4.22-1.48,23.23,23.23,0,0,1-4.41-1.53,3.9,3.9,0,0,1-2.2-3.6,4.26,4.26,0,0,1,2.07-3.82,8.41,8.41,0,0,1,4.78-1.23A7.6,7.6,0,0,1,124.07,434.29Z"/><path class="cls-4" d="M139.83,440.28a9.64,9.64,0,0,1,1.59,5.57h-11.3a6.48,6.48,0,0,0,1.38,4,4.36,4.36,0,0,0,3.44,1.46,4.69,4.69,0,0,0,3.06-1,5.18,5.18,0,0,0,1.48-2.45h1.64a6.49,6.49,0,0,1-1.85,3.31,6.23,6.23,0,0,1-4.33,1.53,5.92,5.92,0,0,1-4.68-2,8.7,8.7,0,0,1-.08-10.49,6.38,6.38,0,0,1,9.65,0Zm-8.23.59a6.19,6.19,0,0,0-1.45,3.66h9.57c-.26-3.39-1.87-5.08-4.81-5.08A4.17,4.17,0,0,0,131.6,440.87Z"/><path class="cls-4" d="M144.51,432.76h1.61v19.57h-1.61Z"/><path class="cls-4" d="M158.14,433.13v1.43H155.8a1.93,1.93,0,0,0-1.53.53,2.49,2.49,0,0,0-.49,1.72v1.62H158v1.4h-4.17v12.5h-1.61v-12.5h-3.71v-1.4h3.71v-1.64a3.73,3.73,0,0,1,.86-2.67,3.36,3.36,0,0,1,2.64-1Z"/><path class="cls-4" d="M159.62,444.66H173.2v1.4H159.62Z"/><path class="cls-4" d="M186.24,440.9a5.37,5.37,0,0,1,1.85-2.12,4.29,4.29,0,0,1,2.53-.73,4.59,4.59,0,0,1,3.5,1.37,5.5,5.5,0,0,1,1.26,3.82v9.09h-1.61v-8.87a4.53,4.53,0,0,0-.81-3,3.43,3.43,0,0,0-2.77-1.05,3.18,3.18,0,0,0-2.53,1.16,4,4,0,0,0-1,2.87v8.85H185v-8.87c0-2.68-1.15-4-3.47-4a3.19,3.19,0,0,0-2.6,1.26,4.51,4.51,0,0,0-1.08,3.07v8.55h-1.61v-13.9h1.61v2.09a4.54,4.54,0,0,1,4-2.47A4.19,4.19,0,0,1,186.24,440.9Z"/><path class="cls-4" d="M209.33,440.28a9.64,9.64,0,0,1,1.59,5.57H199.63a6.48,6.48,0,0,0,1.37,4,4.38,4.38,0,0,0,3.44,1.46,4.65,4.65,0,0,0,3.06-1,5.18,5.18,0,0,0,1.48-2.45h1.64a6.49,6.49,0,0,1-1.85,3.31,6.21,6.21,0,0,1-4.33,1.53,5.94,5.94,0,0,1-4.68-2,8.7,8.7,0,0,1-.08-10.49,6.38,6.38,0,0,1,9.65,0Zm-8.22.59a6.13,6.13,0,0,0-1.46,3.66h9.58q-.4-5.08-4.82-5.08A4.13,4.13,0,0,0,201.11,440.87Z"/><path class="cls-4" d="M224,432.76h1.61v19.57h-1.53v-2.74a5,5,0,0,1-4.87,3.11,5.62,5.62,0,0,1-4.7-2.2,8.22,8.22,0,0,1-1.54-5.14,8.12,8.12,0,0,1,1.54-5.08,5.43,5.43,0,0,1,4.62-2.23,5.09,5.09,0,0,1,4.87,3.31Zm-8.23,8.44a6.68,6.68,0,0,0-1.16,4.16,7.13,7.13,0,0,0,1.13,4.2,4.18,4.18,0,0,0,3.63,1.77,4.1,4.1,0,0,0,3.52-1.72,6.67,6.67,0,0,0,1.16-4v-.32a6.69,6.69,0,0,0-1.24-4.17,4,4,0,0,0-3.38-1.67A4.24,4.24,0,0,0,215.76,441.2Z"/><path class="cls-4" d="M231.57,433.83a1.14,1.14,0,0,1,.4.94,1.33,1.33,0,0,1-.43,1,1.41,1.41,0,0,1-.94.38,1.33,1.33,0,0,1-1-.38,1.31,1.31,0,0,1-.4-1,1.14,1.14,0,0,1,.4-.94,1.27,1.27,0,0,1,1-.4A1.31,1.31,0,0,1,231.57,433.83Zm-1.78,4.6h1.62v13.9h-1.62Z"/><path class="cls-4" d="M245.82,439.64a5.38,5.38,0,0,1,1.24,3.73v9h-1.54v-2.67a7.06,7.06,0,0,1-5.88,3,5,5,0,0,1-3.31-1,3.61,3.61,0,0,1-1.27-2.88,4.12,4.12,0,0,1,2.18-3.87,9.33,9.33,0,0,1,4.65-1l3.55,0v-.51q0-3.94-4-3.95a4.76,4.76,0,0,0-2.9.78,3.31,3.31,0,0,0-1.43,2.42H235.5a4.8,4.8,0,0,1,2-3.49,6.78,6.78,0,0,1,4-1.08A5.47,5.47,0,0,1,245.82,439.64Zm-.38,5.56-3.46,0c-3.52,0-5.27,1.19-5.27,3.52a2.31,2.31,0,0,0,.88,1.88,3.54,3.54,0,0,0,2.37.73,5.77,5.77,0,0,0,3.87-1.45,4.13,4.13,0,0,0,1.61-3.09Z"/><path class="cls-4" d="M269.67,442.33h-1.59a3.31,3.31,0,0,0-1.15-2.13,5.54,5.54,0,0,0-5.33-.13,1.84,1.84,0,0,0,.27,3.36,19.12,19.12,0,0,0,2.93,1,14,14,0,0,1,3.61,1.29,3.13,3.13,0,0,1,1.66,2.79c0,2.82-1.88,4.22-5.64,4.22q-5.35,0-5.84-4.75h1.59a3.76,3.76,0,0,0,1.29,2.63,4.82,4.82,0,0,0,2.9.73q4,0,4-2.75a2.1,2.1,0,0,0-1.38-1.93,17.92,17.92,0,0,0-3.09-1,13.3,13.3,0,0,1-3.39-1.24,2.94,2.94,0,0,1-1.58-2.66,3.13,3.13,0,0,1,1.5-2.71,6.21,6.21,0,0,1,3.66-1C267.43,438.05,269.27,439.48,269.67,442.33Z"/><path class="cls-4" d="M272.65,438.43h1.62v8.49a5,5,0,0,0,.91,3.26,3.74,3.74,0,0,0,3,1.13,3.88,3.88,0,0,0,2.82-1.24,5,5,0,0,0,1.37-3.2v-8.44H284v13.9h-1.61V450a5.1,5.1,0,0,1-4.62,2.71c-3.39,0-5.09-1.89-5.09-5.69Z"/><path class="cls-4" d="M298.46,440.28a8.22,8.22,0,0,1,1.54,5.14,8.36,8.36,0,0,1-1.51,5.08,5.59,5.59,0,0,1-4.65,2.2,5.08,5.08,0,0,1-4.87-3.28v8.23h-1.61V438.43h1.53v2.74a5.11,5.11,0,0,1,4.89-3.12A5.57,5.57,0,0,1,298.46,440.28Zm-8.38.92a6.68,6.68,0,0,0-1.16,4.11v.3a6.47,6.47,0,0,0,1.24,4.11,4.06,4.06,0,0,0,3.38,1.61,4.35,4.35,0,0,0,3.66-1.72,7.09,7.09,0,0,0,1.13-4.19,7.27,7.27,0,0,0-1.1-4.2,4.21,4.21,0,0,0-3.63-1.8A4.06,4.06,0,0,0,290.08,441.2Z"/><path class="cls-4" d="M314,440.28a9.38,9.38,0,0,1,0,10.22,5.59,5.59,0,0,1-4.65,2.2,5.08,5.08,0,0,1-4.87-3.28v8.23h-1.61V438.43h1.53v2.74a5.11,5.11,0,0,1,4.89-3.12A5.58,5.58,0,0,1,314,440.28Zm-8.39.92a6.74,6.74,0,0,0-1.15,4.11v.3a6.53,6.53,0,0,0,1.23,4.11,4.09,4.09,0,0,0,3.39,1.61,4.35,4.35,0,0,0,3.66-1.72,7.09,7.09,0,0,0,1.13-4.19,7.2,7.2,0,0,0-1.11-4.2,4.18,4.18,0,0,0-3.62-1.8A4.09,4.09,0,0,0,305.56,441.2Z"/><path class="cls-4" d="M329.33,440.26a8.56,8.56,0,0,1,0,10.24,6.6,6.6,0,0,1-9.84,0,7.79,7.79,0,0,1-1.69-5.11,7.67,7.67,0,0,1,1.72-5.13,6,6,0,0,1,4.89-2.21A6.12,6.12,0,0,1,329.33,440.26Zm-8.66,1a7.45,7.45,0,0,0,0,8.2,4.76,4.76,0,0,0,7.5,0,6.71,6.71,0,0,0,1.24-4.09,6.59,6.59,0,0,0-1.24-4.11,4.76,4.76,0,0,0-7.5,0Z"/><path class="cls-4" d="M341.73,438.35V440a7.41,7.41,0,0,0-2.13-.3,3.45,3.45,0,0,0-3,1.67,6,6,0,0,0-1.1,3.63v7.34h-1.62v-13.9h1.62v2.66A5,5,0,0,1,337,439a4,4,0,0,1,2.69-1A5.48,5.48,0,0,1,341.73,438.35Z"/><path class="cls-4" d="M346.92,433.94v4.49h3.63v1.4h-3.63v9.41a2.07,2.07,0,0,0,.32,1.31,1.51,1.51,0,0,0,1.21.38h1.75v1.4h-2a2.89,2.89,0,0,1-2.31-.83,3.39,3.39,0,0,1-.62-2.26v-9.41h-3v-1.4h3v-3.82Z"/><path class="cls-4" d="M373.05,440.28a9.38,9.38,0,0,1,0,10.22,5.59,5.59,0,0,1-4.65,2.2,5.08,5.08,0,0,1-4.87-3.28v8.23H362V438.43h1.53v2.74a5.11,5.11,0,0,1,4.89-3.12A5.59,5.59,0,0,1,373.05,440.28Zm-8.39.92a6.74,6.74,0,0,0-1.15,4.11v.3a6.53,6.53,0,0,0,1.23,4.11,4.06,4.06,0,0,0,3.39,1.61,4.35,4.35,0,0,0,3.66-1.72,7.09,7.09,0,0,0,1.13-4.19,7.2,7.2,0,0,0-1.11-4.2,4.21,4.21,0,0,0-3.63-1.8A4.07,4.07,0,0,0,364.66,441.2Z"/><path class="cls-4" d="M377.94,432.76h1.62v19.57h-1.62Z"/><path class="cls-4" d="M393.67,439.64a5.34,5.34,0,0,1,1.24,3.73v9h-1.53v-2.67a7.3,7.3,0,0,1-2.26,2.08,7.09,7.09,0,0,1-3.63,1,5,5,0,0,1-3.31-1,3.6,3.6,0,0,1-1.26-2.88,4.1,4.1,0,0,1,2.18-3.87,9.28,9.28,0,0,1,4.65-1l3.55,0v-.51q0-3.94-4-3.95a4.76,4.76,0,0,0-2.9.78,3.35,3.35,0,0,0-1.43,2.42h-1.58a4.83,4.83,0,0,1,2-3.49,6.78,6.78,0,0,1,4-1.08A5.46,5.46,0,0,1,393.67,439.64Zm-.37,5.56-3.47,0c-3.52,0-5.27,1.19-5.27,3.52a2.31,2.31,0,0,0,.88,1.88,3.55,3.55,0,0,0,2.37.73,5.77,5.77,0,0,0,3.87-1.45,4.11,4.11,0,0,0,1.62-3.09Z"/><path class="cls-4" d="M409.59,443.78v8.55H408v-8.45c0-2.95-1.31-4.43-4-4.43a3.64,3.64,0,0,0-2.79,1.21,4.9,4.9,0,0,0-1.32,3.28v8.39H398.3v-13.9h1.61v2.28a5.61,5.61,0,0,1,1.88-2,4.86,4.86,0,0,1,2.64-.7Q409.59,438.05,409.59,443.78Z"/><circle class="cls-3" cx="97.56" cy="527.9" r="3.67"/><path class="cls-4" d="M111.73,515.62h1.64v19.2h-1.64Z"/><path class="cls-4" d="M128.56,526.27v8.55H127v-8.45q0-4.43-4-4.43a3.67,3.67,0,0,0-2.8,1.21,4.9,4.9,0,0,0-1.32,3.28v8.39h-1.61v-13.9h1.61v2.28a5.64,5.64,0,0,1,1.89-2,4.85,4.85,0,0,1,2.63-.7Q128.56,520.54,128.56,526.27Z"/><path class="cls-4" d="M141.87,521.75a5.24,5.24,0,0,1,1.91,3.71h-1.61a4,4,0,0,0-1.4-2.63,4.66,4.66,0,0,0-3-.89,4.15,4.15,0,0,0-3.49,1.69,6.73,6.73,0,0,0-1.27,4.33,6.87,6.87,0,0,0,1.21,4.25,4.16,4.16,0,0,0,3.53,1.59q3.87,0,4.46-4h1.59a6.38,6.38,0,0,1-2,4,6,6,0,0,1-4.06,1.34A5.79,5.79,0,0,1,133,533.1a7.78,7.78,0,0,1-1.59-5.14,8.08,8.08,0,0,1,1.64-5.21,5.72,5.72,0,0,1,4.76-2.21A6.41,6.41,0,0,1,141.87,521.75Z"/><path class="cls-4" d="M154.27,520.84v1.64a7.36,7.36,0,0,0-2.13-.3,3.45,3.45,0,0,0-3,1.67,6,6,0,0,0-1.1,3.63v7.34h-1.61v-13.9H148v2.66a5.15,5.15,0,0,1,1.53-2.07,4,4,0,0,1,2.69-1A5.48,5.48,0,0,1,154.27,520.84Z"/><path class="cls-4" d="M166.66,522.77a9.64,9.64,0,0,1,1.59,5.57H157a6.48,6.48,0,0,0,1.37,4,4.36,4.36,0,0,0,3.44,1.46,4.65,4.65,0,0,0,3.06-1,5.14,5.14,0,0,0,1.48-2.45H168a6.49,6.49,0,0,1-1.85,3.31,6.21,6.21,0,0,1-4.33,1.53,5.93,5.93,0,0,1-4.68-2,8.7,8.7,0,0,1-.08-10.49,6.38,6.38,0,0,1,9.65,0Zm-8.23.59A6.19,6.19,0,0,0,157,527h9.57c-.26-3.39-1.87-5.08-4.81-5.08A4.17,4.17,0,0,0,158.43,523.36Z"/><path class="cls-4" d="M181.05,522.13a5.38,5.38,0,0,1,1.23,3.73v9h-1.53v-2.66a7.28,7.28,0,0,1-2.26,2.07,7,7,0,0,1-3.63,1,5.08,5.08,0,0,1-3.31-1,3.6,3.6,0,0,1-1.26-2.88,4.12,4.12,0,0,1,2.18-3.87,9.41,9.41,0,0,1,4.65-1l3.55,0v-.51q0-3.95-4-4a4.79,4.79,0,0,0-2.91.78,3.3,3.3,0,0,0-1.42,2.42h-1.59a4.87,4.87,0,0,1,2-3.49,6.81,6.81,0,0,1,4-1.08A5.49,5.49,0,0,1,181.05,522.13Zm-.38,5.56-3.47,0q-5.26,0-5.27,3.52a2.32,2.32,0,0,0,.89,1.88,3.52,3.52,0,0,0,2.37.73,5.77,5.77,0,0,0,3.87-1.45,4.13,4.13,0,0,0,1.61-3.09Z"/><path class="cls-4" d="M195.94,524.82h-1.58a3.32,3.32,0,0,0-1.16-2.13,5.52,5.52,0,0,0-5.32-.13,1.84,1.84,0,0,0,.26,3.36,19.34,19.34,0,0,0,2.94,1,14,14,0,0,1,3.6,1.29,3.14,3.14,0,0,1,1.67,2.79c0,2.82-1.89,4.22-5.65,4.22-3.57,0-5.51-1.58-5.84-4.75h1.59a3.76,3.76,0,0,0,1.29,2.63,4.84,4.84,0,0,0,2.9.73q4,0,4-2.75a2.1,2.1,0,0,0-1.37-1.93,18.45,18.45,0,0,0-3.1-1,13,13,0,0,1-3.38-1.24,2.93,2.93,0,0,1-1.59-2.66,3.12,3.12,0,0,1,1.51-2.71,6.17,6.17,0,0,1,3.65-1Q195.35,520.54,195.94,524.82Z"/><path class="cls-4" d="M209.49,522.77a9.64,9.64,0,0,1,1.59,5.57H199.79a6.48,6.48,0,0,0,1.37,4,4.36,4.36,0,0,0,3.44,1.46,4.65,4.65,0,0,0,3.06-1,5.14,5.14,0,0,0,1.48-2.45h1.64a6.49,6.49,0,0,1-1.85,3.31,6.21,6.21,0,0,1-4.33,1.53,5.94,5.94,0,0,1-4.68-2,8.7,8.7,0,0,1-.08-10.49,6.38,6.38,0,0,1,9.65,0Zm-8.22.59a6.13,6.13,0,0,0-1.46,3.66h9.58q-.4-5.09-4.82-5.08A4.13,4.13,0,0,0,201.27,523.36Z"/><path class="cls-4" d="M234.15,516.78a6.11,6.11,0,0,1,2.15,4.51h-1.64a5.33,5.33,0,0,0-1.69-3.41,5.8,5.8,0,0,0-3.88-1.16,7,7,0,0,0-3.65.81,2.93,2.93,0,0,0,.29,5.27,29.82,29.82,0,0,0,3.69,1.24,22.61,22.61,0,0,1,4.94,1.82,4.48,4.48,0,0,1,2.4,4,4.54,4.54,0,0,1-2.07,3.92,9,9,0,0,1-5.25,1.37,8.22,8.22,0,0,1-5.21-1.5,6.9,6.9,0,0,1-2.42-5.22h1.61a5.87,5.87,0,0,0,1.88,4,6.43,6.43,0,0,0,4.12,1.18,7.75,7.75,0,0,0,4.11-1,3.13,3.13,0,0,0,1.56-2.72,3.39,3.39,0,0,0-2-3.07,21.65,21.65,0,0,0-4.22-1.48,22.68,22.68,0,0,1-4.41-1.53,3.91,3.91,0,0,1-2.21-3.6,4.26,4.26,0,0,1,2.07-3.82,8.45,8.45,0,0,1,4.79-1.23A7.62,7.62,0,0,1,234.15,516.78Z"/><path class="cls-4" d="M239.61,515.62h13.47v1.45H241.25v7.07h11.18v1.48H241.25v7.75h12.29v1.45H239.61Z"/><path class="cls-4" d="M255.18,515.62h15.73v1.45h-7.05v17.75h-1.64V517.07h-7Z"/><path class="cls-4" d="M282.55,515.25h1.61v19.57h-1.61Z"/><path class="cls-4" d="M290.64,516.32a1.14,1.14,0,0,1,.4.94,1.33,1.33,0,0,1-.43,1,1.41,1.41,0,0,1-.94.38,1.33,1.33,0,0,1-1-.38,1.31,1.31,0,0,1-.4-1,1.14,1.14,0,0,1,.4-.94,1.27,1.27,0,0,1,1-.4A1.31,1.31,0,0,1,290.64,516.32Zm-1.78,4.6h1.62v13.9h-1.62Z"/><path class="cls-4" d="M305.24,523.66v-2.74h1.53v19.22h-1.61v-8.22a5.09,5.09,0,0,1-4.87,3.27,5.41,5.41,0,0,1-4.62-2.2,9.2,9.2,0,0,1,0-10.22,5.51,5.51,0,0,1,4.68-2.23A5.1,5.1,0,0,1,305.24,523.66Zm-8.34.05a7.12,7.12,0,0,0-1.1,4.2A6.89,6.89,0,0,0,297,532.1a4.17,4.17,0,0,0,3.63,1.72,4,4,0,0,0,3.38-1.61,6.59,6.59,0,0,0,1.24-4.11v-.3a6.86,6.86,0,0,0-1.15-4.11,4.47,4.47,0,0,0-7.16,0Z"/><path class="cls-4" d="M310.16,520.92h1.61v8.49a5,5,0,0,0,.92,3.26,3.72,3.72,0,0,0,3,1.13,3.85,3.85,0,0,0,2.82-1.24,4.86,4.86,0,0,0,1.37-3.2v-8.44h1.62v13.9h-1.62v-2.34a5.08,5.08,0,0,1-4.62,2.71c-3.39,0-5.08-1.89-5.08-5.69Z"/><path class="cls-4" d="M327.45,516.32a1.14,1.14,0,0,1,.4.94,1.33,1.33,0,0,1-.43,1,1.41,1.41,0,0,1-.94.38,1.33,1.33,0,0,1-1-.38,1.31,1.31,0,0,1-.4-1,1.14,1.14,0,0,1,.4-.94,1.27,1.27,0,0,1,1-.4A1.31,1.31,0,0,1,327.45,516.32Zm-1.78,4.6h1.62v13.9h-1.62Z"/><path class="cls-4" d="M342,515.25h1.61v19.57h-1.53v-2.74a5,5,0,0,1-4.87,3.11,5.62,5.62,0,0,1-4.7-2.2,9.25,9.25,0,0,1,0-10.22,5.43,5.43,0,0,1,4.62-2.23,5.09,5.09,0,0,1,4.87,3.31Zm-8.23,8.44a6.68,6.68,0,0,0-1.16,4.16,7.13,7.13,0,0,0,1.13,4.2,4.18,4.18,0,0,0,3.63,1.77,4.1,4.1,0,0,0,3.52-1.72,6.74,6.74,0,0,0,1.16-4v-.32a6.69,6.69,0,0,0-1.24-4.17,4,4,0,0,0-3.39-1.67A4.24,4.24,0,0,0,333.74,523.69Z"/><path class="cls-4" d="M349.55,516.32a1.14,1.14,0,0,1,.4.94,1.33,1.33,0,0,1-.43,1,1.39,1.39,0,0,1-.94.38,1.33,1.33,0,0,1-1-.38,1.31,1.31,0,0,1-.4-1,1.14,1.14,0,0,1,.4-.94,1.27,1.27,0,0,1,1-.4A1.31,1.31,0,0,1,349.55,516.32Zm-1.78,4.6h1.62v13.9h-1.62Z"/><path class="cls-4" d="M356.94,516.43v4.49h3.63v1.4h-3.63v9.41a2.13,2.13,0,0,0,.32,1.31,1.53,1.53,0,0,0,1.21.38h1.75v1.4h-2A2.86,2.86,0,0,1,356,534a3.34,3.34,0,0,1-.62-2.26v-9.41h-3v-1.4h3V517.1Z"/><path class="cls-4" d="M361.46,520.92h1.77l4.55,11.59,4.49-11.59H374l-7.66,19.22h-1.75l2.34-5.67Z"/><circle class="cls-3" cx="97.56" cy="280.22" r="3.67"/><path class="cls-4" d="M111.73,268h6.83q4.48,0,6.75,2.69c1.38,1.63,2.07,3.94,2.07,6.91a10,10,0,0,1-2.31,6.94,8.82,8.82,0,0,1-6.86,2.66h-6.48Zm1.64,1.45v16.3H118a7.6,7.6,0,0,0,5.86-2.18,8.49,8.49,0,0,0,1.94-6q0-4-1.7-6c-1.22-1.43-3.13-2.15-5.75-2.15Z"/><path class="cls-4" d="M132.81,268.66a1.14,1.14,0,0,1,.4.94,1.33,1.33,0,0,1-.43,1,1.39,1.39,0,0,1-.94.38,1.33,1.33,0,0,1-1.37-1.35,1.17,1.17,0,0,1,.4-.94,1.28,1.28,0,0,1,1-.4A1.31,1.31,0,0,1,132.81,268.66Zm-1.77,4.6h1.61v13.9H131Z"/><path class="cls-4" d="M147.55,276.05v-2.79h1.61v12.88q0,6.72-6.24,6.72a6.66,6.66,0,0,1-4.22-1.18,5.14,5.14,0,0,1-1.78-3.34h1.62a3.58,3.58,0,0,0,1.29,2.31,4.82,4.82,0,0,0,3.09.87c3.08,0,4.63-1.73,4.63-5.19v-2.67a5.17,5.17,0,0,1-5,3.18,5.79,5.79,0,0,1-4.65-2.07,8.25,8.25,0,0,1,0-9.79,5.76,5.76,0,0,1,4.65-2.1A5.18,5.18,0,0,1,147.55,276.05Zm-8.37-.13a6,6,0,0,0-1.23,3.95,6.21,6.21,0,0,0,1.15,3.88,4.29,4.29,0,0,0,3.63,1.69,4.37,4.37,0,0,0,3.61-1.61,7.07,7.07,0,0,0,0-7.91,4.67,4.67,0,0,0-7.16,0Z"/><path class="cls-4" d="M155.13,268.66a1.14,1.14,0,0,1,.4.94,1.33,1.33,0,0,1-.43,1,1.41,1.41,0,0,1-.94.38,1.33,1.33,0,0,1-1-.38,1.31,1.31,0,0,1-.4-1,1.14,1.14,0,0,1,.4-.94,1.27,1.27,0,0,1,1-.4A1.31,1.31,0,0,1,155.13,268.66Zm-1.78,4.6H155v13.9h-1.62Z"/><path class="cls-4" d="M162.52,268.77v4.49h3.63v1.4h-3.63v9.41a2.17,2.17,0,0,0,.32,1.32,1.56,1.56,0,0,0,1.21.37h1.75v1.4h-2a2.86,2.86,0,0,1-2.31-.83,3.39,3.39,0,0,1-.62-2.26v-9.41h-3v-1.4h3v-3.82Z"/><path class="cls-4" d="M178.82,274.47a5.39,5.39,0,0,1,1.23,3.74v9h-1.53V284.5a7.28,7.28,0,0,1-2.26,2.07,7,7,0,0,1-3.63,1,5,5,0,0,1-3.31-1.05,3.6,3.6,0,0,1-1.26-2.88,4.12,4.12,0,0,1,2.18-3.87,9.41,9.41,0,0,1,4.65-1l3.55,0v-.51q0-4-4-4a4.79,4.79,0,0,0-2.91.78,3.3,3.3,0,0,0-1.42,2.42h-1.59a4.87,4.87,0,0,1,2-3.49,6.81,6.81,0,0,1,4-1.08A5.49,5.49,0,0,1,178.82,274.47Zm-.38,5.56-3.47,0q-5.26,0-5.27,3.52a2.35,2.35,0,0,0,.89,1.89,3.57,3.57,0,0,0,2.37.72,5.77,5.77,0,0,0,3.87-1.45,4.13,4.13,0,0,0,1.61-3.09Z"/><path class="cls-4" d="M184,267.59h1.61v19.57H184Z"/><path class="cls-4" d="M201,268.66a1.14,1.14,0,0,1,.4.94,1.33,1.33,0,0,1-.43,1,1.41,1.41,0,0,1-.94.38,1.33,1.33,0,0,1-1-.38,1.31,1.31,0,0,1-.4-1,1.14,1.14,0,0,1,.4-.94,1.27,1.27,0,0,1,1-.4A1.31,1.31,0,0,1,201,268.66Zm-1.78,4.6h1.62v13.9h-1.62Z"/><path class="cls-4" d="M215.52,267.59h1.61v19.57H215.6v-2.74a5,5,0,0,1-4.87,3.12,5.63,5.63,0,0,1-4.7-2.21,9.25,9.25,0,0,1,0-10.22,5.46,5.46,0,0,1,4.62-2.23,5.09,5.09,0,0,1,4.87,3.31ZM207.29,276a6.69,6.69,0,0,0-1.16,4.17,7.11,7.11,0,0,0,1.13,4.19,4.18,4.18,0,0,0,3.63,1.77,4.1,4.1,0,0,0,3.52-1.72,6.74,6.74,0,0,0,1.16-4v-.32a6.69,6.69,0,0,0-1.24-4.17,4,4,0,0,0-3.39-1.67A4.24,4.24,0,0,0,207.29,276Z"/><path class="cls-4" d="M231.08,275.11a9.67,9.67,0,0,1,1.59,5.57H221.38a6.53,6.53,0,0,0,1.37,4,4.4,4.4,0,0,0,3.44,1.45,4.65,4.65,0,0,0,3.07-1,5.31,5.31,0,0,0,1.48-2.44h1.63a6.5,6.5,0,0,1-1.85,3.3,6.17,6.17,0,0,1-4.33,1.54,6,6,0,0,1-4.68-2,8.7,8.7,0,0,1-.08-10.49,6.38,6.38,0,0,1,9.65.05Zm-8.22.6a6.08,6.08,0,0,0-1.46,3.65H231q-.4-5.08-4.82-5.08A4.14,4.14,0,0,0,222.86,275.71Z"/><path class="cls-4" d="M246.54,278.61v8.55h-1.61v-8.44q0-4.44-4-4.44a3.68,3.68,0,0,0-2.8,1.21,4.9,4.9,0,0,0-1.32,3.28v8.39h-1.61v-13.9h1.61v2.28a5.82,5.82,0,0,1,1.89-2,4.94,4.94,0,0,1,2.63-.7Q246.54,272.88,246.54,278.61Z"/><path class="cls-4" d="M253.29,268.77v4.49h3.63v1.4h-3.63v9.41a2.17,2.17,0,0,0,.32,1.32,1.56,1.56,0,0,0,1.21.37h1.75v1.4h-2a2.86,2.86,0,0,1-2.31-.83,3.39,3.39,0,0,1-.62-2.26v-9.41h-3v-1.4h3v-3.82Z"/><path class="cls-4" d="M262,268.66a1.14,1.14,0,0,1,.4.94,1.33,1.33,0,0,1-.43,1,1.39,1.39,0,0,1-.94.38,1.33,1.33,0,0,1-1.37-1.35,1.17,1.17,0,0,1,.4-.94,1.28,1.28,0,0,1,1-.4A1.31,1.31,0,0,1,262,268.66Zm-1.77,4.6h1.61v13.9h-1.61Z"/><path class="cls-4" d="M269.34,268.77v4.49H273v1.4h-3.63v9.41a2.1,2.1,0,0,0,.33,1.32,1.53,1.53,0,0,0,1.21.37h1.74v1.4h-2a2.86,2.86,0,0,1-2.31-.83,3.39,3.39,0,0,1-.62-2.26v-9.41h-3v-1.4h3v-3.82Z"/><path class="cls-4" d="M273.86,273.26h1.78l4.54,11.59,4.49-11.59h1.77l-7.66,19.22H277l2.34-5.67Z"/><path class="cls-4" d="M308.22,275.09a8.56,8.56,0,0,1,0,10.24,6.58,6.58,0,0,1-9.84,0,7.79,7.79,0,0,1-1.69-5.11,7.67,7.67,0,0,1,1.72-5.13,6,6,0,0,1,4.89-2.21A6.09,6.09,0,0,1,308.22,275.09Zm-8.65,1a7.4,7.4,0,0,0,0,8.2,4.41,4.41,0,0,0,3.73,1.83,4.46,4.46,0,0,0,3.77-1.83,6.77,6.77,0,0,0,1.24-4.09,6.65,6.65,0,0,0-1.24-4.11,4.41,4.41,0,0,0-3.77-1.83A4.36,4.36,0,0,0,299.57,276.11Z"/><path class="cls-4" d="M324.06,278.61v8.55h-1.61v-8.44q0-4.44-3.95-4.44a3.65,3.65,0,0,0-2.8,1.21,4.9,4.9,0,0,0-1.32,3.28v8.39h-1.61v-13.9h1.61v2.28a5.7,5.7,0,0,1,1.88-2,5,5,0,0,1,2.64-.7Q324.06,272.88,324.06,278.61Z"/><path class="cls-4" d="M328,267.59h1.61v19.57H328Z"/><path class="cls-4" d="M336.05,268.66a1.14,1.14,0,0,1,.4.94,1.33,1.33,0,0,1-.43,1,1.39,1.39,0,0,1-.94.38,1.33,1.33,0,0,1-1.37-1.35,1.17,1.17,0,0,1,.4-.94,1.28,1.28,0,0,1,1-.4A1.31,1.31,0,0,1,336.05,268.66Zm-1.77,4.6h1.61v13.9h-1.61Z"/><path class="cls-4" d="M351.38,278.61v8.55h-1.62v-8.44c0-3-1.31-4.44-3.95-4.44a3.64,3.64,0,0,0-2.79,1.21,4.9,4.9,0,0,0-1.32,3.28v8.39h-1.62v-13.9h1.62v2.28a5.7,5.7,0,0,1,1.88-2,5,5,0,0,1,2.64-.7Q351.38,272.88,351.38,278.61Z"/><path class="cls-4" d="M365.33,275.11a9.67,9.67,0,0,1,1.59,5.57h-11.3a6.6,6.6,0,0,0,1.38,4,4.39,4.39,0,0,0,3.44,1.45,4.6,4.6,0,0,0,3.06-1A5.15,5.15,0,0,0,365,282.7h1.64a6.5,6.5,0,0,1-1.85,3.3,6.19,6.19,0,0,1-4.33,1.54,5.92,5.92,0,0,1-4.68-2,8.7,8.7,0,0,1-.08-10.49,6.38,6.38,0,0,1,9.65.05Zm-8.23.6a6.13,6.13,0,0,0-1.45,3.65h9.57c-.26-3.39-1.87-5.08-4.81-5.08A4.18,4.18,0,0,0,357.1,275.71Z"/><circle class="cls-3" cx="97.56" cy="347.04" r="3.67"/><path class="cls-4" d="M112.54,335.83H126v1.45H114.18v7.07h11.19v1.48H114.18v7.75h12.29V355H112.54Z"/><path class="cls-4" d="M139.24,342a5.28,5.28,0,0,1,1.91,3.71h-1.61a4,4,0,0,0-1.4-2.64,4.67,4.67,0,0,0-3-.88,4.17,4.17,0,0,0-3.5,1.69,8.07,8.07,0,0,0-.05,8.58,4.15,4.15,0,0,0,3.52,1.58c2.58,0,4.07-1.31,4.47-3.95h1.58a6.36,6.36,0,0,1-2,4,6,6,0,0,1-4.06,1.34,5.81,5.81,0,0,1-4.78-2.09,7.8,7.8,0,0,1-1.59-5.14,8.11,8.11,0,0,1,1.64-5.22,5.72,5.72,0,0,1,4.76-2.2A6.41,6.41,0,0,1,139.24,342Z"/><path class="cls-4" d="M154.78,343a8.58,8.58,0,0,1,0,10.25,6.6,6.6,0,0,1-9.84,0,7.79,7.79,0,0,1-1.69-5.11A7.71,7.71,0,0,1,145,343a6,6,0,0,1,4.89-2.2A6.14,6.14,0,0,1,154.78,343Zm-8.66,1a7.45,7.45,0,0,0,0,8.2,4.77,4.77,0,0,0,7.5,0,6.71,6.71,0,0,0,1.24-4.09,6.59,6.59,0,0,0-1.24-4.11,4.76,4.76,0,0,0-7.5,0Z"/><path class="cls-4" d="M159.84,335.45h1.61V355h-1.61Z"/><path class="cls-4" d="M176.34,343a8.58,8.58,0,0,1,0,10.25,6.6,6.6,0,0,1-9.84,0,7.79,7.79,0,0,1-1.69-5.11,7.71,7.71,0,0,1,1.72-5.14,6,6,0,0,1,4.89-2.2A6.12,6.12,0,0,1,176.34,343Zm-8.65,1a7.4,7.4,0,0,0,0,8.2,4.4,4.4,0,0,0,3.73,1.82,4.45,4.45,0,0,0,3.77-1.82,6.77,6.77,0,0,0,1.24-4.09,6.65,6.65,0,0,0-1.24-4.11,4.41,4.41,0,0,0-3.77-1.83A4.36,4.36,0,0,0,167.69,344Z"/><path class="cls-4" d="M191.59,343.92v-2.79h1.61V354q0,6.74-6.24,6.73a6.68,6.68,0,0,1-4.22-1.19,5,5,0,0,1-1.77-3.33h1.61a3.62,3.62,0,0,0,1.29,2.31,4.82,4.82,0,0,0,3.09.86q4.64,0,4.63-5.19v-2.66a5.15,5.15,0,0,1-5,3.17,5.8,5.8,0,0,1-4.66-2.07,8.23,8.23,0,0,1,0-9.78,5.76,5.76,0,0,1,4.66-2.1A5.17,5.17,0,0,1,191.59,343.92Zm-8.36-.13a6,6,0,0,0-1.24,3.95,6.1,6.1,0,0,0,1.16,3.87,4.25,4.25,0,0,0,3.63,1.7,4.34,4.34,0,0,0,3.6-1.62,7.05,7.05,0,0,0,0-7.9,4.66,4.66,0,0,0-7.15,0Z"/><path class="cls-4" d="M199.17,336.53a1.12,1.12,0,0,1,.4.94,1.33,1.33,0,0,1-.43,1,1.38,1.38,0,0,1-.94.37,1.34,1.34,0,0,1-1-.37,1.35,1.35,0,0,1-.4-1,1.15,1.15,0,0,1,.4-.94,1.28,1.28,0,0,1,1-.4A1.31,1.31,0,0,1,199.17,336.53Zm-1.77,4.6H199V355H197.4Z"/><path class="cls-4" d="M213.13,342a5.32,5.32,0,0,1,1.91,3.71h-1.62A4,4,0,0,0,212,343a4.64,4.64,0,0,0-3-.88,4.17,4.17,0,0,0-3.5,1.69,8.07,8.07,0,0,0,0,8.58A4.14,4.14,0,0,0,209,354c2.58,0,4.07-1.31,4.46-3.95h1.59a6.36,6.36,0,0,1-2,4A6,6,0,0,1,209,355.4a5.83,5.83,0,0,1-4.79-2.09,7.8,7.8,0,0,1-1.58-5.14,8.05,8.05,0,0,1,1.64-5.22,5.71,5.71,0,0,1,4.76-2.2A6.43,6.43,0,0,1,213.13,342Z"/><path class="cls-4" d="M227.89,342.34a5.38,5.38,0,0,1,1.23,3.73v9h-1.53v-2.67a7,7,0,0,1-2.26,2.07,7,7,0,0,1-3.63,1,5.08,5.08,0,0,1-3.31-1,3.6,3.6,0,0,1-1.26-2.88,4.1,4.1,0,0,1,2.18-3.87,9.3,9.3,0,0,1,4.65-1l3.55,0v-.51c0-2.63-1.35-3.95-4-3.95a4.79,4.79,0,0,0-2.91.78,3.3,3.3,0,0,0-1.42,2.42h-1.59a4.91,4.91,0,0,1,2-3.5,6.88,6.88,0,0,1,4-1.07A5.49,5.49,0,0,1,227.89,342.34Zm-.38,5.56-3.47,0q-5.26,0-5.27,3.52a2.32,2.32,0,0,0,.89,1.88,3.52,3.52,0,0,0,2.37.73,5.77,5.77,0,0,0,3.87-1.45,4.13,4.13,0,0,0,1.61-3.1Z"/><path class="cls-4" d="M233,335.45h1.62V355H233Z"/><path class="cls-4" d="M257.41,342a5.28,5.28,0,0,1,1.91,3.71h-1.61a4,4,0,0,0-1.4-2.64,4.67,4.67,0,0,0-3-.88,4.17,4.17,0,0,0-3.5,1.69,8.07,8.07,0,0,0,0,8.58,4.15,4.15,0,0,0,3.52,1.58c2.58,0,4.07-1.31,4.47-3.95h1.58a6.36,6.36,0,0,1-2,4,6,6,0,0,1-4.06,1.34,5.8,5.8,0,0,1-4.78-2.09,7.8,7.8,0,0,1-1.59-5.14,8.11,8.11,0,0,1,1.64-5.22,5.72,5.72,0,0,1,4.76-2.2A6.41,6.41,0,0,1,257.41,342Z"/><path class="cls-4" d="M264.53,336.53a1.13,1.13,0,0,1,.41.94,1.37,1.37,0,0,1-.43,1,1.41,1.41,0,0,1-.95.37,1.3,1.3,0,0,1-1-.37,1.32,1.32,0,0,1-.41-1,1.13,1.13,0,0,1,.41-.94,1.25,1.25,0,0,1,1-.4A1.31,1.31,0,0,1,264.53,336.53Zm-1.77,4.6h1.61V355h-1.61Z"/><path class="cls-4" d="M276.42,341.05v1.64a7.31,7.31,0,0,0-2.13-.3,3.43,3.43,0,0,0-3,1.67,6,6,0,0,0-1.1,3.63V355h-1.61v-13.9h1.61v2.66a5.15,5.15,0,0,1,1.53-2.07,4,4,0,0,1,2.69-1A5.48,5.48,0,0,1,276.42,341.05Z"/><path class="cls-4" d="M288.17,342a5.32,5.32,0,0,1,1.91,3.71h-1.62a4,4,0,0,0-1.4-2.64,4.64,4.64,0,0,0-2.95-.88,4.17,4.17,0,0,0-3.5,1.69,8.07,8.07,0,0,0-.05,8.58,4.14,4.14,0,0,0,3.52,1.58c2.58,0,4.07-1.31,4.46-3.95h1.59a6.36,6.36,0,0,1-2,4,6,6,0,0,1-4.06,1.34,5.83,5.83,0,0,1-4.79-2.09,7.8,7.8,0,0,1-1.58-5.14,8.05,8.05,0,0,1,1.64-5.22,5.71,5.71,0,0,1,4.76-2.2A6.43,6.43,0,0,1,288.17,342Z"/><path class="cls-4" d="M293.22,335.45h1.62V355h-1.62Z"/><path class="cls-4" d="M309.3,343a9.72,9.72,0,0,1,1.59,5.57h-11.3a6.54,6.54,0,0,0,1.37,4,4.39,4.39,0,0,0,3.45,1.45,4.69,4.69,0,0,0,3.06-1,5.18,5.18,0,0,0,1.48-2.45h1.64a6.44,6.44,0,0,1-1.86,3.31,6.18,6.18,0,0,1-4.32,1.53,5.89,5.89,0,0,1-4.68-2,7.66,7.66,0,0,1-1.8-5.35,7.74,7.74,0,0,1,1.72-5.13,6.38,6.38,0,0,1,9.65.05Zm-8.23.59a6.16,6.16,0,0,0-1.45,3.66h9.57q-.4-5.09-4.81-5.08A4.17,4.17,0,0,0,301.07,343.57Z"/><path class="cls-4" d="M122.19,376.53a5.24,5.24,0,0,1,1.91,3.71h-1.61a4,4,0,0,0-1.4-2.64,4.66,4.66,0,0,0-3-.88,4.15,4.15,0,0,0-3.49,1.69,6.73,6.73,0,0,0-1.27,4.33,6.89,6.89,0,0,0,1.21,4.25,4.16,4.16,0,0,0,3.53,1.58c2.58,0,4.07-1.31,4.46-3.95h1.59a6.4,6.4,0,0,1-2,4,6,6,0,0,1-4.06,1.34,5.8,5.8,0,0,1-4.79-2.1,7.75,7.75,0,0,1-1.59-5.13,8.11,8.11,0,0,1,1.64-5.22,5.74,5.74,0,0,1,4.76-2.2A6.41,6.41,0,0,1,122.19,376.53Z"/><path class="cls-4" d="M137.74,377.52a8.62,8.62,0,0,1,0,10.25,6.61,6.61,0,0,1-9.85,0,7.85,7.85,0,0,1-1.69-5.11,7.71,7.71,0,0,1,1.72-5.14,6,6,0,0,1,4.89-2.2A6.15,6.15,0,0,1,137.74,377.52Zm-8.66,1a7.4,7.4,0,0,0,0,8.2,4.43,4.43,0,0,0,3.73,1.82,4.48,4.48,0,0,0,3.77-1.82,6.77,6.77,0,0,0,1.24-4.09,6.65,6.65,0,0,0-1.24-4.11,4.41,4.41,0,0,0-3.77-1.83A4.36,4.36,0,0,0,129.08,378.55Z"/><path class="cls-4" d="M153.57,381.05v8.55H152v-8.45q0-4.42-4-4.43a3.65,3.65,0,0,0-2.8,1.21,4.9,4.9,0,0,0-1.32,3.28v8.39h-1.61V375.7h1.61V378a5.61,5.61,0,0,1,1.88-2,4.89,4.89,0,0,1,2.64-.7Q153.57,375.32,153.57,381.05Z"/><path class="cls-4" d="M167.23,379.59h-1.59a3.31,3.31,0,0,0-1.15-2.12,4.49,4.49,0,0,0-2.83-.75,4.43,4.43,0,0,0-2.5.62,1.85,1.85,0,0,0,.27,3.36,18.29,18.29,0,0,0,2.93,1A13.91,13.91,0,0,1,166,383a3.13,3.13,0,0,1,1.66,2.79c0,2.82-1.88,4.22-5.64,4.22-3.57,0-5.52-1.58-5.84-4.76h1.59a3.79,3.79,0,0,0,1.29,2.64,4.82,4.82,0,0,0,2.9.72q4,0,4-2.74a2.1,2.1,0,0,0-1.38-1.93,17.92,17.92,0,0,0-3.09-1,13.3,13.3,0,0,1-3.39-1.24,3,3,0,0,1-1.58-2.66,3.16,3.16,0,0,1,1.5-2.72,6.28,6.28,0,0,1,3.66-1C165,375.32,166.83,376.75,167.23,379.59Z"/><path class="cls-4" d="M173.57,371.21v4.49h3.64v1.39h-3.64v9.42a2.08,2.08,0,0,0,.33,1.31,1.55,1.55,0,0,0,1.21.38h1.74v1.4h-2a2.86,2.86,0,0,1-2.31-.84,3.36,3.36,0,0,1-.62-2.25v-9.42h-3V375.7h3v-3.82Z"/><path class="cls-4" d="M187.5,375.62v1.64a7.29,7.29,0,0,0-2.12-.3,3.41,3.41,0,0,0-3,1.67,5.93,5.93,0,0,0-1.11,3.63v7.34h-1.61V375.7h1.61v2.66a5.08,5.08,0,0,1,1.54-2.07,4,4,0,0,1,2.69-1A5.38,5.38,0,0,1,187.5,375.62Z"/><path class="cls-4" d="M189.33,375.7h1.61v8.49a5,5,0,0,0,.92,3.26,3.71,3.71,0,0,0,3,1.12,3.88,3.88,0,0,0,2.82-1.23,4.94,4.94,0,0,0,1.38-3.2V375.7h1.61v13.9H199v-2.34a5.1,5.1,0,0,1-4.63,2.71q-5.08,0-5.08-5.7Z"/><path class="cls-4" d="M214,376.53a5.28,5.28,0,0,1,1.91,3.71h-1.62a4,4,0,0,0-1.39-2.64,4.67,4.67,0,0,0-3-.88,4.17,4.17,0,0,0-3.5,1.69,8.07,8.07,0,0,0-.05,8.58,4.15,4.15,0,0,0,3.52,1.58c2.58,0,4.07-1.31,4.47-3.95h1.58a6.36,6.36,0,0,1-2,4,6,6,0,0,1-4.06,1.34,5.78,5.78,0,0,1-4.78-2.1,7.75,7.75,0,0,1-1.59-5.13,8.11,8.11,0,0,1,1.64-5.22,5.72,5.72,0,0,1,4.76-2.2A6.41,6.41,0,0,1,214,376.53Z"/><path class="cls-4" d="M221.86,371.21v4.49h3.64v1.39h-3.64v9.42a2.08,2.08,0,0,0,.33,1.31,1.55,1.55,0,0,0,1.21.38h1.74v1.4h-2a2.86,2.86,0,0,1-2.31-.84,3.36,3.36,0,0,1-.62-2.25v-9.42h-3V375.7h3v-3.82Z"/><path class="cls-4" d="M230.52,371.1a1.12,1.12,0,0,1,.4.94,1.36,1.36,0,0,1-.42,1,1.43,1.43,0,0,1-.95.37,1.3,1.3,0,0,1-1-.37,1.32,1.32,0,0,1-.41-1,1.13,1.13,0,0,1,.41-.94,1.25,1.25,0,0,1,1-.41A1.32,1.32,0,0,1,230.52,371.1Zm-1.77,4.6h1.61v13.9h-1.61Z"/><path class="cls-4" d="M245.55,377.52a8.58,8.58,0,0,1,0,10.25,6.6,6.6,0,0,1-9.84,0,7.79,7.79,0,0,1-1.69-5.11,7.71,7.71,0,0,1,1.72-5.14,6,6,0,0,1,4.89-2.2A6.14,6.14,0,0,1,245.55,377.52Zm-8.66,1a7.45,7.45,0,0,0,0,8.2,4.77,4.77,0,0,0,7.5,0,6.71,6.71,0,0,0,1.24-4.09,6.59,6.59,0,0,0-1.24-4.11,4.76,4.76,0,0,0-7.5,0Z"/><path class="cls-4" d="M261.39,381.05v8.55h-1.62v-8.45c0-2.95-1.31-4.43-3.95-4.43a3.64,3.64,0,0,0-2.79,1.21,4.9,4.9,0,0,0-1.32,3.28v8.39h-1.62V375.7h1.62V378a5.61,5.61,0,0,1,1.88-2,4.86,4.86,0,0,1,2.64-.7Q261.39,375.32,261.39,381.05Z"/></svg>