<svg id="图层_1" data-name="图层 1" xmlns="http://www.w3.org/2000/svg" viewBox="0 0 500 640"><defs><style>.cls-1{fill:#fdda57;}.cls-2{fill:#fff;}.cls-3{fill:#c1c1c1;}.cls-4{fill:#33353c;}</style></defs><title>英文</title><rect class="cls-1" x="37.22" y="112.95" width="22.33" height="22.33" transform="translate(-73.59 70.57) rotate(-45)"/><rect class="cls-1" x="440.45" y="112.95" width="22.33" height="22.33" transform="translate(44.51 355.69) rotate(-45)"/><rect class="cls-2" x="48.39" y="33.45" width="406.7" height="593"/><rect class="cls-1" x="32.64" y="13.55" width="434.77" height="110.56"/><path class="cls-2" d="M130.52,53.41h10.66q9.18,0,9.18,7.81t-9.25,7.88h-6.66v10h-3.93Zm3.93,3.35v9h6.4a6.73,6.73,0,0,0,4.25-1.08,4.27,4.27,0,0,0,1.33-3.46,3.85,3.85,0,0,0-1.36-3.38,6.69,6.69,0,0,0-4.22-1.08Z"/><path class="cls-2" d="M169,62.8a10.15,10.15,0,0,1,2.52,7,9.88,9.88,0,0,1-2.48,7,9.55,9.55,0,0,1-13.61,0,9.84,9.84,0,0,1-2.49-7,10,10,0,0,1,2.52-7,9.58,9.58,0,0,1,13.54,0ZM158.1,65.22a7.62,7.62,0,0,0-1.26,4.6,7.62,7.62,0,0,0,1.26,4.58,4.73,4.73,0,0,0,4.1,2.08,4.89,4.89,0,0,0,4.14-2.08,7.72,7.72,0,0,0,1.3-4.58,7.53,7.53,0,0,0-1.3-4.6,4.82,4.82,0,0,0-4.14-2.09A4.66,4.66,0,0,0,158.1,65.22Z"/><path class="cls-2" d="M179.73,53.77a2.33,2.33,0,0,1,.76,1.83,2.61,2.61,0,0,1-.79,1.88,2.8,2.8,0,0,1-3.75,0,2.57,2.57,0,0,1-.75-1.88,2.35,2.35,0,0,1,.75-1.83,2.54,2.54,0,0,1,1.87-.72A2.57,2.57,0,0,1,179.73,53.77Zm-3.81,6.73h3.81V79.11h-3.81Z"/><path class="cls-2" d="M201.26,67.63V79.11h-3.82V68q0-4.76-4.35-4.75a3.87,3.87,0,0,0-2.85,1.15,5.65,5.65,0,0,0-1.54,3.57V79.11h-3.82V60.5h3.82v2.3a7,7,0,0,1,2.48-2.08,6.49,6.49,0,0,1,3.13-.72Q201.26,60,201.26,67.63Z"/><path class="cls-2" d="M211.27,54.49v6h4.25v3.17h-4.25v10.8a1.73,1.73,0,0,0,.32,1.11,1.37,1.37,0,0,0,1,.36h2.45v3.17H212a4.36,4.36,0,0,1-3.49-1.26,4.85,4.85,0,0,1-1.05-3.38V63.67H204V60.5h3.45V56.07Z"/><path class="cls-2" d="M233.44,65.86h-3.7a3.5,3.5,0,0,0-1.34-2.08,5.29,5.29,0,0,0-3-.65,5.08,5.08,0,0,0-2.59.5,1.77,1.77,0,0,0-1,1.66c0,.62.51,1.17,1.51,1.65a31.36,31.36,0,0,0,3.75,1.12,15.91,15.91,0,0,1,4.71,1.76,4.39,4.39,0,0,1,2.24,3.89q0,5.91-8.28,5.91-7.64,0-8.28-6.52h3.74a4.13,4.13,0,0,0,1.33,2.66,5.37,5.37,0,0,0,3.1.72q4.46,0,4.46-2.52a2.34,2.34,0,0,0-1.65-2.12,20.14,20.14,0,0,0-3.75-1.08,14.87,14.87,0,0,1-4.61-1.62A4.22,4.22,0,0,1,218,65.4a4.49,4.49,0,0,1,2.09-4A9.46,9.46,0,0,1,225.52,60Q232.8,60,233.44,65.86Z"/><path class="cls-2" d="M252.13,63.09a12.66,12.66,0,0,1,2.23,7.78H240.25A6.85,6.85,0,0,0,241.72,75a4.63,4.63,0,0,0,3.57,1.44,5.32,5.32,0,0,0,3.24-.93,6.34,6.34,0,0,0,1.69-2.41H254a8.63,8.63,0,0,1-2.56,4.35,9.05,9.05,0,0,1-6.16,2.13,8.46,8.46,0,0,1-6.51-2.56,10,10,0,0,1-2.59-7.27,10.11,10.11,0,0,1,2.44-7A8,8,0,0,1,245.18,60,8.17,8.17,0,0,1,252.13,63.09Zm-10.26,1.3a6.37,6.37,0,0,0-1.55,3.6h10q-.54-4.86-5.07-4.86A4.62,4.62,0,0,0,241.87,64.39Z"/><path class="cls-2" d="M263.25,54.49v6h4.25v3.17h-4.25v10.8a1.67,1.67,0,0,0,.33,1.11,1.33,1.33,0,0,0,1,.36H267v3.17H264a4.36,4.36,0,0,1-3.49-1.26,4.85,4.85,0,0,1-1-3.38V63.67H256V60.5h3.46V56.07Z"/><path class="cls-2" d="M296.55,61.62a7.93,7.93,0,0,1,2.74,5.18h-3.78A4.3,4.3,0,0,0,294,64a5,5,0,0,0-3.13-.9,4.39,4.39,0,0,0-3.71,1.76,7.65,7.65,0,0,0-1.37,4.9,8,8,0,0,0,1.33,4.93,4.26,4.26,0,0,0,3.71,1.76q4.24,0,4.79-4.24h3.78a9.07,9.07,0,0,1-2.85,5.58,8.78,8.78,0,0,1-5.76,1.8,8.2,8.2,0,0,1-6.62-2.81,10.3,10.3,0,0,1-2.3-7,10.39,10.39,0,0,1,2.26-6.91A8.35,8.35,0,0,1,290.83,60,9.31,9.31,0,0,1,296.55,61.62Z"/><path class="cls-2" d="M302.63,52.9h3.82V63.13A6.33,6.33,0,0,1,309,60.72a6.59,6.59,0,0,1,3.17-.72,6.4,6.4,0,0,1,5.08,2q1.62,1.86,1.62,5.58V79.11h-3.82V68.2a6.11,6.11,0,0,0-1-3.74,4,4,0,0,0-3.27-1.33,3.76,3.76,0,0,0-3.14,1.55,6.26,6.26,0,0,0-1.22,4V79.11h-3.82Z"/><path class="cls-2" d="M337.66,62.05a7.28,7.28,0,0,1,1.69,5.18V79.11h-3.52V76.48a8.2,8.2,0,0,1-2.74,2.27,9.88,9.88,0,0,1-4.28.87,6.76,6.76,0,0,1-4.58-1.48,5.06,5.06,0,0,1-1.72-4,5.69,5.69,0,0,1,2.77-5.22,11.55,11.55,0,0,1,6.12-1.44l4.17,0V67q0-3.89-4.21-3.89a5.28,5.28,0,0,0-3,.72,3.32,3.32,0,0,0-1.48,2.45h-3.78a6.59,6.59,0,0,1,2.81-4.9A10.14,10.14,0,0,1,331.61,60Q335.72,60,337.66,62.05Zm-2.09,8.31-3.92,0q-5.22,0-5.22,3.64a2.33,2.33,0,0,0,.83,1.83,3.56,3.56,0,0,0,2.41.72A6.46,6.46,0,0,0,334,75.15a4.91,4.91,0,0,0,1.62-3.81Z"/><path class="cls-2" d="M348.32,53.77a2.35,2.35,0,0,1,.75,1.83,2.57,2.57,0,0,1-.79,1.88,2.79,2.79,0,0,1-3.74,0,2.54,2.54,0,0,1-.76-1.88,2.33,2.33,0,0,1,.76-1.83,2.52,2.52,0,0,1,1.87-.72A2.59,2.59,0,0,1,348.32,53.77ZM344.5,60.5h3.82V79.11H344.5Z"/><path class="cls-2" d="M369.85,67.63V79.11H366V68q0-4.76-4.36-4.75a3.85,3.85,0,0,0-2.84,1.15,5.66,5.66,0,0,0-1.55,3.57V79.11h-3.81V60.5h3.81v2.3a7.16,7.16,0,0,1,2.49-2.08A6.46,6.46,0,0,1,362.9,60Q369.85,60,369.85,67.63Z"/><path class="cls-1" d="M185.79,175.14a8.37,8.37,0,0,1,2.73,6.45,10.44,10.44,0,0,1-2.93,7.09,44.21,44.21,0,0,1-6.21,4.82q-4.81,3.18-5.78,5.66h15v4H167.94a11.46,11.46,0,0,1,3-7.84,39.65,39.65,0,0,1,6.75-5.45,34,34,0,0,0,4.28-3.43,7.29,7.29,0,0,0,2.05-4.91,4.84,4.84,0,0,0-1.38-3.77,5.85,5.85,0,0,0-4.07-1.26,5,5,0,0,0-4.27,1.93,9.26,9.26,0,0,0-1.6,5.49H168.1a11.64,11.64,0,0,1,2.9-8.05,9.77,9.77,0,0,1,7.71-3.23A10.1,10.1,0,0,1,185.79,175.14Z"/><path class="cls-1" d="M211.58,177.11q2.64,4.14,2.64,11.11t-2.64,11.11a9.75,9.75,0,0,1-16.35,0q-2.64-4.16-2.64-11.11t2.64-11.11a9.73,9.73,0,0,1,16.35,0Zm-13.38,3.48a21.16,21.16,0,0,0-1.09,7.63,21.39,21.39,0,0,0,1.09,7.63q1.52,4.07,5.2,4.06t5.2-4.06a22,22,0,0,0,1.09-7.63,21.54,21.54,0,0,0-1.09-7.63q-1.51-4.07-5.2-4.07T198.2,180.59Z"/><path class="cls-1" d="M231.7,173.25v29.93h-4.57V178.74a16.45,16.45,0,0,1-6.88,3.78V178a17.8,17.8,0,0,0,4.28-1.76,18.12,18.12,0,0,0,3.69-3Z"/><path class="cls-1" d="M261.72,176.65q2.8,3.9,2.8,10.73,0,7.25-3,11.82a9.51,9.51,0,0,1-8.22,4.57q-8.72,0-9.85-8.13h4.44c.59,2.9,2.41,4.36,5.45,4.36a5.72,5.72,0,0,0,4.95-3.06,13.81,13.81,0,0,0,1.8-7.26l0-.54h-.17a8.36,8.36,0,0,1-3.18,2.93,9.45,9.45,0,0,1-4.15.93,9.19,9.19,0,0,1-7.09-2.85,10.09,10.09,0,0,1-2.56-7.17,9.78,9.78,0,0,1,3-7.38,10.18,10.18,0,0,1,7.46-2.94A9.63,9.63,0,0,1,261.72,176.65Zm-12.62,1.63a6.62,6.62,0,0,0-1.68,4.7,6.19,6.19,0,0,0,1.68,4.57,5.64,5.64,0,0,0,4.4,1.76,5.78,5.78,0,0,0,4.44-1.76,6.64,6.64,0,0,0,1.64-4.7,6.44,6.44,0,0,0-1.68-4.65,5.73,5.73,0,0,0-4.36-1.76A5.54,5.54,0,0,0,249.1,178.28Z"/><path class="cls-1" d="M307.2,177.11Q311,181.3,311,188.26a16.33,16.33,0,0,1-3.64,11c1.56,2.1,2.67,3.62,3.31,4.57l-2.94,2.6q-2-2.85-3.31-4.65a15.06,15.06,0,0,1-8,2q-6.84,0-10.78-4.44-3.73-4.25-3.73-11.07t3.73-11.11q3.86-4.49,10.78-4.49T307.2,177.11ZM289,179.92q-2.52,3.06-2.52,8.34a12.78,12.78,0,0,0,2.52,8.3,9.18,9.18,0,0,0,7.42,3.19,10.13,10.13,0,0,0,5.36-1.35c-1.42-1.78-2.92-3.5-4.48-5.15l2.64-2.6c1.26,1.31,2.76,3,4.53,5.07a13.48,13.48,0,0,0,1.88-7.46q0-5.32-2.56-8.47t-7.37-3.1A8.94,8.94,0,0,0,289,179.92Z"/><path class="cls-1" d="M332.77,175.14a8.37,8.37,0,0,1,2.73,6.45,10.41,10.41,0,0,1-2.94,7.09,43.37,43.37,0,0,1-6.2,4.82c-3.22,2.12-5.14,4-5.79,5.66h15v4H314.91a11.47,11.47,0,0,1,3-7.84,38.82,38.82,0,0,1,6.75-5.45,34,34,0,0,0,4.28-3.43,7.29,7.29,0,0,0,2.05-4.91,4.84,4.84,0,0,0-1.38-3.77,5.87,5.87,0,0,0-4.07-1.26,5,5,0,0,0-4.28,1.93,9.33,9.33,0,0,0-1.59,5.49h-4.57a11.68,11.68,0,0,1,2.89-8.05,9.79,9.79,0,0,1,7.72-3.23A10.12,10.12,0,0,1,332.77,175.14Z"/><circle class="cls-3" cx="99.02" cy="277.43" r="3.67"/><path class="cls-4" d="M110.27,268h1.64v8.52h11.91V268h1.64v19.2h-1.64V278H111.91v9.2h-1.64Z"/><path class="cls-4" d="M131.7,268.66a1.14,1.14,0,0,1,.4.94,1.33,1.33,0,0,1-.43,1,1.39,1.39,0,0,1-.94.38,1.33,1.33,0,0,1-1-.38,1.35,1.35,0,0,1-.4-1,1.17,1.17,0,0,1,.4-.94,1.27,1.27,0,0,1,1-.4A1.31,1.31,0,0,1,131.7,268.66Zm-1.78,4.6h1.62v13.9h-1.62Z"/><path class="cls-4" d="M146.43,276.05v-2.79h1.62v12.88q0,6.72-6.24,6.72a6.66,6.66,0,0,1-4.22-1.18,5.09,5.09,0,0,1-1.78-3.34h1.62a3.53,3.53,0,0,0,1.29,2.31,4.78,4.78,0,0,0,3.09.87q4.62,0,4.62-5.19v-2.67a5.16,5.16,0,0,1-5,3.18,5.77,5.77,0,0,1-4.65-2.07,8.21,8.21,0,0,1,0-9.79,5.73,5.73,0,0,1,4.65-2.1A5.17,5.17,0,0,1,146.43,276.05Zm-8.36-.13a6,6,0,0,0-1.24,3.95,6.22,6.22,0,0,0,1.16,3.88,4.27,4.27,0,0,0,3.63,1.69,4.36,4.36,0,0,0,3.6-1.61,7.07,7.07,0,0,0,0-7.91,4.66,4.66,0,0,0-7.15,0Z"/><path class="cls-4" d="M151.44,267.59h1.64v8.2a5.35,5.35,0,0,1,1.93-2.18,5.41,5.41,0,0,1,6.35.67,5.65,5.65,0,0,1,1.34,4v8.87h-1.61V278.5a4.58,4.58,0,0,0-1-3.14,3.83,3.83,0,0,0-2.88-1.08,3.75,3.75,0,0,0-2.93,1.4,5,5,0,0,0-1.18,3.44v8h-1.64Z"/><path class="cls-4" d="M165.74,279.5h13.58v1.39H165.74Z"/><path class="cls-4" d="M193.46,275.11a9.38,9.38,0,0,1,0,10.22,5.6,5.6,0,0,1-4.65,2.21,5.09,5.09,0,0,1-4.87-3.28v8.22h-1.61V273.26h1.53V276a5.11,5.11,0,0,1,4.89-3.12A5.62,5.62,0,0,1,193.46,275.11Zm-8.39.92a6.74,6.74,0,0,0-1.15,4.11v.3a6.53,6.53,0,0,0,1.23,4.11,4.06,4.06,0,0,0,3.39,1.61,4.35,4.35,0,0,0,3.66-1.72,7.07,7.07,0,0,0,1.13-4.19,7.2,7.2,0,0,0-1.11-4.2,4.21,4.21,0,0,0-3.63-1.8A4.07,4.07,0,0,0,185.07,276Z"/><path class="cls-4" d="M208.41,275.11a9.74,9.74,0,0,1,1.58,5.57H198.7a6.59,6.59,0,0,0,1.37,4,4.4,4.4,0,0,0,3.44,1.45,4.65,4.65,0,0,0,3.07-1,5.23,5.23,0,0,0,1.48-2.44h1.64a6.45,6.45,0,0,1-1.86,3.3,6.17,6.17,0,0,1-4.33,1.54,5.92,5.92,0,0,1-4.67-2,8.7,8.7,0,0,1-.08-10.49,6.38,6.38,0,0,1,9.65.05Zm-8.23.6a6.07,6.07,0,0,0-1.45,3.65h9.57q-.41-5.08-4.81-5.08A4.18,4.18,0,0,0,200.18,275.71Z"/><path class="cls-4" d="M220.43,273.18v1.64a7.36,7.36,0,0,0-2.13-.3,3.45,3.45,0,0,0-3,1.67,6,6,0,0,0-1.1,3.63v7.34h-1.61v-13.9h1.61v2.66a5.15,5.15,0,0,1,1.53-2.07,4,4,0,0,1,2.69-1A5.48,5.48,0,0,1,220.43,273.18Z"/><path class="cls-4" d="M230.38,268v1.43H228a2,2,0,0,0-1.54.53,2.52,2.52,0,0,0-.48,1.73v1.61h4.17v1.4H226v12.5h-1.61v-12.5H220.7v-1.4h3.71v-1.64a3.65,3.65,0,0,1,.86-2.66,3.32,3.32,0,0,1,2.63-1Z"/><path class="cls-4" d="M243.2,275.09a8.6,8.6,0,0,1,0,10.24,6.58,6.58,0,0,1-9.84,0,7.8,7.8,0,0,1-1.7-5.11,7.67,7.67,0,0,1,1.73-5.13,6,6,0,0,1,4.89-2.21A6.12,6.12,0,0,1,243.2,275.09Zm-8.66,1a7.45,7.45,0,0,0,0,8.2,4.76,4.76,0,0,0,7.5,0,6.71,6.71,0,0,0,1.24-4.09,6.59,6.59,0,0,0-1.24-4.11,4.76,4.76,0,0,0-7.5,0Z"/><path class="cls-4" d="M255.59,273.18v1.64a7.29,7.29,0,0,0-2.12-.3,3.43,3.43,0,0,0-3,1.67,5.93,5.93,0,0,0-1.1,3.63v7.34h-1.62v-13.9h1.62v2.66a5,5,0,0,1,1.53-2.07,4,4,0,0,1,2.69-1A5.38,5.38,0,0,1,255.59,273.18Z"/><path class="cls-4" d="M267.43,275.73a5.37,5.37,0,0,1,1.85-2.12,4.29,4.29,0,0,1,2.53-.73,4.57,4.57,0,0,1,3.49,1.37,5.47,5.47,0,0,1,1.27,3.82v9.09H275v-8.87a4.53,4.53,0,0,0-.8-3,3.43,3.43,0,0,0-2.77-1.05,3.2,3.2,0,0,0-2.53,1.16,4,4,0,0,0-1,2.87v8.85h-1.64v-8.87q0-4-3.47-4a3.21,3.21,0,0,0-2.61,1.26,4.51,4.51,0,0,0-1.07,3.07v8.55h-1.62v-13.9H259v2.1a4.52,4.52,0,0,1,4-2.48A4.2,4.2,0,0,1,267.43,275.73Z"/><path class="cls-4" d="M290.17,274.47a5.34,5.34,0,0,1,1.24,3.74v9h-1.53V284.5a7.39,7.39,0,0,1-2.26,2.07,7,7,0,0,1-3.63,1,5,5,0,0,1-3.31-1.05,3.6,3.6,0,0,1-1.26-2.88,4.12,4.12,0,0,1,2.18-3.87,9.38,9.38,0,0,1,4.65-1l3.55,0v-.51q0-4-4-4a4.78,4.78,0,0,0-2.9.78,3.3,3.3,0,0,0-1.42,2.42h-1.59a4.83,4.83,0,0,1,2-3.49,6.79,6.79,0,0,1,4-1.08A5.45,5.45,0,0,1,290.17,274.47ZM289.8,280l-3.47,0c-3.52,0-5.27,1.19-5.27,3.52a2.35,2.35,0,0,0,.89,1.89,3.56,3.56,0,0,0,2.36.72,5.77,5.77,0,0,0,3.87-1.45,4.11,4.11,0,0,0,1.62-3.09Z"/><path class="cls-4" d="M306.09,278.61v8.55h-1.61v-8.44q0-4.44-4-4.44a3.64,3.64,0,0,0-2.79,1.21,4.9,4.9,0,0,0-1.32,3.28v8.39H294.8v-13.9h1.61v2.28a5.7,5.7,0,0,1,1.88-2,5,5,0,0,1,2.64-.7Q306.09,272.88,306.09,278.61Z"/><path class="cls-4" d="M319.4,274.09a5.3,5.3,0,0,1,1.91,3.71h-1.62a4,4,0,0,0-1.39-2.63,4.68,4.68,0,0,0-3-.89,4.17,4.17,0,0,0-3.5,1.69,8.07,8.07,0,0,0,0,8.58,4.16,4.16,0,0,0,3.52,1.59q3.87,0,4.47-3.95h1.58a6.33,6.33,0,0,1-2,4,6,6,0,0,1-4.06,1.35,5.78,5.78,0,0,1-4.78-2.1,7.78,7.78,0,0,1-1.59-5.14,8.08,8.08,0,0,1,1.64-5.21,5.7,5.7,0,0,1,4.76-2.21A6.47,6.47,0,0,1,319.4,274.09Z"/><path class="cls-4" d="M334.51,275.11a9.67,9.67,0,0,1,1.59,5.57H324.8a6.59,6.59,0,0,0,1.37,4,4.43,4.43,0,0,0,3.45,1.45,4.64,4.64,0,0,0,3.06-1,5.15,5.15,0,0,0,1.48-2.44h1.64A6.5,6.5,0,0,1,334,286a6.19,6.19,0,0,1-4.33,1.54,5.92,5.92,0,0,1-4.68-2,8.7,8.7,0,0,1-.08-10.49,6.38,6.38,0,0,1,9.65.05Zm-8.23.6a6.13,6.13,0,0,0-1.45,3.65h9.57q-.4-5.08-4.81-5.08A4.18,4.18,0,0,0,326.28,275.71Z"/><path class="cls-4" d="M110,307.83h1.61v8.49a4.93,4.93,0,0,0,.92,3.26,3.72,3.72,0,0,0,3,1.13,3.89,3.89,0,0,0,2.83-1.24,5,5,0,0,0,1.37-3.2v-8.44h1.61v13.9h-1.61v-2.34a5.11,5.11,0,0,1-4.63,2.72q-5.08,0-5.08-5.7Z"/><path class="cls-4" d="M136,313.18v8.55h-1.61v-8.44q0-4.44-3.95-4.44a3.65,3.65,0,0,0-2.8,1.21,4.9,4.9,0,0,0-1.32,3.28v8.39h-1.61v-13.9h1.61v2.28a5.79,5.79,0,0,1,1.88-2,5,5,0,0,1,2.64-.7Q136,307.45,136,313.18Z"/><path class="cls-4" d="M149.87,302.16h1.62v19.57H150V319a5,5,0,0,1-4.87,3.12,5.66,5.66,0,0,1-4.71-2.21,9.3,9.3,0,0,1,0-10.22,5.48,5.48,0,0,1,4.63-2.23,5.07,5.07,0,0,1,4.86,3.31Zm-8.22,8.44a6.69,6.69,0,0,0-1.16,4.17,7.11,7.11,0,0,0,1.13,4.19,4.18,4.18,0,0,0,3.63,1.77,4.1,4.1,0,0,0,3.52-1.72,6.74,6.74,0,0,0,1.16-4v-.32a6.69,6.69,0,0,0-1.24-4.17,4,4,0,0,0-3.39-1.67A4.24,4.24,0,0,0,141.65,310.6Z"/><path class="cls-4" d="M165.44,309.68a9.67,9.67,0,0,1,1.59,5.57H155.74a6.53,6.53,0,0,0,1.37,4,4.39,4.39,0,0,0,3.44,1.45,4.6,4.6,0,0,0,3.06-1,5.15,5.15,0,0,0,1.48-2.44h1.64a6.5,6.5,0,0,1-1.85,3.3,6.17,6.17,0,0,1-4.33,1.54,5.94,5.94,0,0,1-4.68-2,8.7,8.7,0,0,1-.08-10.49,6.38,6.38,0,0,1,9.65.05Zm-8.23.6a6.13,6.13,0,0,0-1.45,3.65h9.57c-.26-3.39-1.87-5.08-4.81-5.08A4.18,4.18,0,0,0,157.21,310.28Z"/><path class="cls-4" d="M177.46,307.75v1.64a7.29,7.29,0,0,0-2.12-.3,3.45,3.45,0,0,0-3,1.67,6,6,0,0,0-1.1,3.63v7.34h-1.61v-13.9h1.61v2.66a5.15,5.15,0,0,1,1.53-2.07,4,4,0,0,1,2.69-1A5.44,5.44,0,0,1,177.46,307.75Z"/><path class="cls-4" d="M179.8,302.16h1.61v19.57H179.8Z"/><path class="cls-4" d="M183.75,307.83h1.78l4.54,11.59,4.49-11.59h1.78l-7.67,19.22h-1.75l2.34-5.67Z"/><path class="cls-4" d="M200.74,303.23a1.14,1.14,0,0,1,.41.94,1.33,1.33,0,0,1-.43,1,1.41,1.41,0,0,1-.94.38,1.33,1.33,0,0,1-1.37-1.35,1.14,1.14,0,0,1,.4-.94,1.25,1.25,0,0,1,1-.4A1.29,1.29,0,0,1,200.74,303.23Zm-1.77,4.6h1.61v13.9H199Z"/><path class="cls-4" d="M216.07,313.18v8.55h-1.61v-8.44q0-4.44-4-4.44a3.65,3.65,0,0,0-2.8,1.21,4.9,4.9,0,0,0-1.32,3.28v8.39h-1.61v-13.9h1.61v2.28a5.7,5.7,0,0,1,1.88-2,5,5,0,0,1,2.64-.7Q216.07,307.45,216.07,313.18Z"/><path class="cls-4" d="M230.16,310.62v-2.79h1.61v12.88q0,6.72-6.23,6.72a6.71,6.71,0,0,1-4.23-1.18,5.08,5.08,0,0,1-1.77-3.34h1.61a3.62,3.62,0,0,0,1.29,2.31,4.83,4.83,0,0,0,3.1.87q4.62,0,4.62-5.19v-2.67a5.16,5.16,0,0,1-5,3.18,5.77,5.77,0,0,1-4.65-2.07,8.21,8.21,0,0,1,0-9.79,5.73,5.73,0,0,1,4.65-2.1A5.17,5.17,0,0,1,230.16,310.62Zm-8.36-.13a6,6,0,0,0-1.24,3.95,6.17,6.17,0,0,0,1.16,3.87,4.25,4.25,0,0,0,3.63,1.7,4.36,4.36,0,0,0,3.6-1.61,7.07,7.07,0,0,0,0-7.91,4.66,4.66,0,0,0-7.15,0Z"/><path class="cls-4" d="M254.39,311.73H252.8a3.27,3.27,0,0,0-1.16-2.13,4.44,4.44,0,0,0-2.82-.75,4.51,4.51,0,0,0-2.5.62,1.94,1.94,0,0,0-1,1.67,1.92,1.92,0,0,0,1.24,1.69,18.73,18.73,0,0,0,2.93,1,14,14,0,0,1,3.6,1.29,3.14,3.14,0,0,1,1.67,2.79q0,4.23-5.65,4.23c-3.56,0-5.51-1.59-5.83-4.76h1.58a3.81,3.81,0,0,0,1.3,2.63,4.75,4.75,0,0,0,2.9.73c2.69,0,4-.92,4-2.74a2.09,2.09,0,0,0-1.37-1.94,18.89,18.89,0,0,0-3.09-1,13.3,13.3,0,0,1-3.39-1.24,2.92,2.92,0,0,1-1.58-2.66,3.13,3.13,0,0,1,1.5-2.71,6.21,6.21,0,0,1,3.66-1C252.15,307.45,254,308.88,254.39,311.73Z"/><path class="cls-4" d="M260.73,303.34v4.49h3.63v1.4h-3.63v9.41a2.17,2.17,0,0,0,.32,1.32,1.56,1.56,0,0,0,1.21.37H264v1.4h-2a2.86,2.86,0,0,1-2.31-.83,3.34,3.34,0,0,1-.62-2.26v-9.41h-3v-1.4h3V304Z"/><path class="cls-4" d="M277.8,309.66a8.56,8.56,0,0,1,0,10.24,6.58,6.58,0,0,1-9.84,0,7.79,7.79,0,0,1-1.69-5.11,7.67,7.67,0,0,1,1.72-5.13,6,6,0,0,1,4.89-2.21A6.09,6.09,0,0,1,277.8,309.66Zm-8.65,1a7.4,7.4,0,0,0,0,8.2,4.41,4.41,0,0,0,3.73,1.83,4.46,4.46,0,0,0,3.77-1.83,6.77,6.77,0,0,0,1.24-4.09,6.65,6.65,0,0,0-1.24-4.11,4.41,4.41,0,0,0-3.77-1.83A4.36,4.36,0,0,0,269.15,310.68Z"/><path class="cls-4" d="M290.2,307.75v1.64a7.29,7.29,0,0,0-2.12-.3,3.45,3.45,0,0,0-3,1.67,6,6,0,0,0-1.1,3.63v7.34h-1.61v-13.9H284v2.66a5.15,5.15,0,0,1,1.53-2.07,4,4,0,0,1,2.69-1A5.48,5.48,0,0,1,290.2,307.75Z"/><path class="cls-4" d="M302.24,309a5.34,5.34,0,0,1,1.24,3.74v9H302v-2.66a7.39,7.39,0,0,1-2.26,2.07,7,7,0,0,1-3.63,1,5,5,0,0,1-3.31-1.05,3.6,3.6,0,0,1-1.26-2.88,4.12,4.12,0,0,1,2.18-3.87,9.38,9.38,0,0,1,4.65-1l3.55,0v-.51c0-2.64-1.35-4-4-4a4.79,4.79,0,0,0-2.91.78,3.3,3.3,0,0,0-1.42,2.42h-1.59a4.87,4.87,0,0,1,2-3.49,6.81,6.81,0,0,1,4-1.08A5.45,5.45,0,0,1,302.24,309Zm-.37,5.56-3.47,0q-5.26,0-5.27,3.52A2.35,2.35,0,0,0,294,320a3.56,3.56,0,0,0,2.36.72,5.73,5.73,0,0,0,3.87-1.45,4.11,4.11,0,0,0,1.62-3.09Z"/><path class="cls-4" d="M317.57,310.62v-2.79h1.61v12.88q0,6.72-6.24,6.72a6.68,6.68,0,0,1-4.22-1.18,5.08,5.08,0,0,1-1.77-3.34h1.61a3.62,3.62,0,0,0,1.29,2.31,4.82,4.82,0,0,0,3.09.87q4.63,0,4.63-5.19v-2.67a5.16,5.16,0,0,1-5,3.18,5.8,5.8,0,0,1-4.66-2.07,8.25,8.25,0,0,1,0-9.79,5.76,5.76,0,0,1,4.66-2.1A5.17,5.17,0,0,1,317.57,310.62Zm-8.36-.13a6,6,0,0,0-1.24,3.95,6.17,6.17,0,0,0,1.16,3.87,4.25,4.25,0,0,0,3.63,1.7,4.36,4.36,0,0,0,3.6-1.61,7.07,7.07,0,0,0,0-7.91,4.66,4.66,0,0,0-7.15,0Z"/><path class="cls-4" d="M333.14,309.68a9.74,9.74,0,0,1,1.59,5.57h-11.3a6.59,6.59,0,0,0,1.37,4,4.41,4.41,0,0,0,3.45,1.45,4.64,4.64,0,0,0,3.06-1,5.15,5.15,0,0,0,1.48-2.44h1.64a6.45,6.45,0,0,1-1.86,3.3,6.16,6.16,0,0,1-4.32,1.54,5.92,5.92,0,0,1-4.68-2,8.7,8.7,0,0,1-.08-10.49,6.38,6.38,0,0,1,9.65.05Zm-8.23.6a6.07,6.07,0,0,0-1.45,3.65H333q-.4-5.08-4.81-5.08A4.18,4.18,0,0,0,324.91,310.28Z"/><path class="cls-4" d="M356.18,308.66a5.28,5.28,0,0,1,1.91,3.71h-1.61a4,4,0,0,0-1.4-2.63,4.68,4.68,0,0,0-3-.89,4.17,4.17,0,0,0-3.5,1.69,8.07,8.07,0,0,0-.05,8.58,4.16,4.16,0,0,0,3.52,1.59q3.87,0,4.47-3.95h1.58a6.33,6.33,0,0,1-2,4,6,6,0,0,1-4.06,1.35,5.79,5.79,0,0,1-4.78-2.1,7.78,7.78,0,0,1-1.59-5.14,8.08,8.08,0,0,1,1.64-5.21,5.7,5.7,0,0,1,4.76-2.21A6.47,6.47,0,0,1,356.18,308.66Z"/><path class="cls-4" d="M360.72,302.16h1.64v8.2a5.37,5.37,0,0,1,1.94-2.18,5.41,5.41,0,0,1,6.35.67,5.65,5.65,0,0,1,1.34,4v8.87h-1.61v-8.66a4.56,4.56,0,0,0-1-3.14,3.83,3.83,0,0,0-2.88-1.08,3.73,3.73,0,0,0-2.93,1.4,5,5,0,0,0-1.19,3.44v8h-1.64Z"/><path class="cls-4" d="M385.6,309a5.39,5.39,0,0,1,1.23,3.74v9H385.3v-2.66a7.28,7.28,0,0,1-2.26,2.07,7,7,0,0,1-3.63,1,5,5,0,0,1-3.31-1.05,3.6,3.6,0,0,1-1.26-2.88,4.12,4.12,0,0,1,2.18-3.87,9.38,9.38,0,0,1,4.65-1l3.55,0v-.51c0-2.64-1.35-4-4-4a4.79,4.79,0,0,0-2.91.78,3.3,3.3,0,0,0-1.42,2.42h-1.59a4.87,4.87,0,0,1,2-3.49,6.81,6.81,0,0,1,4-1.08A5.49,5.49,0,0,1,385.6,309Zm-.38,5.56-3.47,0q-5.26,0-5.27,3.52a2.35,2.35,0,0,0,.89,1.89,3.56,3.56,0,0,0,2.36.72,5.78,5.78,0,0,0,3.88-1.45,4.13,4.13,0,0,0,1.61-3.09Z"/><path class="cls-4" d="M392.8,303.23a1.14,1.14,0,0,1,.4.94,1.33,1.33,0,0,1-.43,1,1.39,1.39,0,0,1-.94.38,1.33,1.33,0,0,1-1-.38,1.35,1.35,0,0,1-.4-1,1.17,1.17,0,0,1,.4-.94,1.27,1.27,0,0,1,1-.4A1.31,1.31,0,0,1,392.8,303.23Zm-1.78,4.6h1.62v13.9H391Z"/><path class="cls-4" d="M408.13,313.18v8.55h-1.62v-8.44c0-3-1.31-4.44-3.95-4.44a3.68,3.68,0,0,0-2.8,1.21,4.94,4.94,0,0,0-1.31,3.28v8.39h-1.62v-13.9h1.62v2.28a5.7,5.7,0,0,1,1.88-2,4.94,4.94,0,0,1,2.63-.7Q408.14,307.45,408.13,313.18Z"/><circle class="cls-3" cx="99.02" cy="368.33" r="3.67"/><path class="cls-4" d="M111.83,357.92H114l7.53,17.13h.08l7.47-17.13h2.18v19.2h-1.64V360.63h-.08l-7.21,16.49h-1.58l-7.18-16.49h-.11v16.49h-1.64Z"/><path class="cls-4" d="M134.92,363.21h1.62v8.5a5,5,0,0,0,.91,3.26,3.74,3.74,0,0,0,3,1.12,3.9,3.9,0,0,0,2.82-1.23,4.93,4.93,0,0,0,1.37-3.2v-8.45h1.62v13.91h-1.62v-2.34a5.09,5.09,0,0,1-4.62,2.71q-5.08,0-5.09-5.7Z"/><path class="cls-4" d="M150.14,357.54h1.62v19.58h-1.62Z"/><path class="cls-4" d="M159,358.72v4.49h3.63v1.4H159V374a2.09,2.09,0,0,0,.32,1.31,1.55,1.55,0,0,0,1.21.38h1.75v1.4h-2a2.86,2.86,0,0,1-2.31-.84,3.36,3.36,0,0,1-.62-2.25v-9.42h-3v-1.4h3V359.4Z"/><path class="cls-4" d="M167.67,358.62a1.13,1.13,0,0,1,.41.94,1.37,1.37,0,0,1-.43,1,1.4,1.4,0,0,1-.94.37,1.3,1.3,0,0,1-1-.37,1.32,1.32,0,0,1-.41-1,1.13,1.13,0,0,1,.41-.94,1.26,1.26,0,0,1,1-.41A1.3,1.3,0,0,1,167.67,358.62Zm-1.77,4.59h1.61v13.91H165.9Z"/><path class="cls-4" d="M171.36,369.45h13.57v1.4H171.36Z"/><path class="cls-4" d="M199.08,365.07a9.35,9.35,0,0,1,0,10.22,5.57,5.57,0,0,1-4.65,2.2,5.07,5.07,0,0,1-4.86-3.28v8.23H188V363.21h1.53V366a5.13,5.13,0,0,1,4.9-3.12A5.59,5.59,0,0,1,199.08,365.07Zm-8.39.91a6.8,6.8,0,0,0-1.16,4.12v.29a6.48,6.48,0,0,0,1.24,4.12,4.09,4.09,0,0,0,3.39,1.61,4.31,4.31,0,0,0,3.65-1.72,7,7,0,0,0,1.13-4.19,7.27,7.27,0,0,0-1.1-4.2,4.21,4.21,0,0,0-3.63-1.8A4.07,4.07,0,0,0,190.69,366Z"/><path class="cls-4" d="M204,357.54h1.62v19.58H204Z"/><path class="cls-4" d="M219.7,364.43a5.38,5.38,0,0,1,1.24,3.73v9H219.4v-2.67a7.13,7.13,0,0,1-5.88,3,5,5,0,0,1-3.31-1.05,3.58,3.58,0,0,1-1.27-2.87,4.1,4.1,0,0,1,2.18-3.87,9.34,9.34,0,0,1,4.66-1l3.54,0v-.51q0-3.95-4-4a4.76,4.76,0,0,0-2.9.78,3.31,3.31,0,0,0-1.43,2.42h-1.58a4.84,4.84,0,0,1,2-3.5,6.85,6.85,0,0,1,4-1.07A5.47,5.47,0,0,1,219.7,364.43Zm-.38,5.56-3.46,0c-3.52,0-5.27,1.19-5.27,3.52a2.31,2.31,0,0,0,.88,1.88,3.54,3.54,0,0,0,2.37.73,5.82,5.82,0,0,0,3.87-1.45,4.1,4.1,0,0,0,1.61-3.1Z"/><path class="cls-4" d="M227.68,358.72v4.49h3.64v1.4h-3.64V374a2.08,2.08,0,0,0,.33,1.31,1.55,1.55,0,0,0,1.21.38H231v1.4h-2a2.86,2.86,0,0,1-2.31-.84,3.36,3.36,0,0,1-.62-2.25v-9.42h-3v-1.4h3V359.4Z"/><path class="cls-4" d="M241.88,357.92v1.42h-2.34a1.92,1.92,0,0,0-1.53.54,2.49,2.49,0,0,0-.48,1.72v1.61h4.16v1.4h-4.16v12.51h-1.62V364.61H232.2v-1.4h3.71v-1.63a3.73,3.73,0,0,1,.86-2.67,3.36,3.36,0,0,1,2.64-1Z"/><path class="cls-4" d="M254.71,365a8.62,8.62,0,0,1,0,10.25,6.6,6.6,0,0,1-9.84,0,8.54,8.54,0,0,1,0-10.25,6,6,0,0,1,4.9-2.2A6.11,6.11,0,0,1,254.71,365Zm-8.66,1a7.4,7.4,0,0,0,0,8.2,4.77,4.77,0,0,0,7.5,0,6.73,6.73,0,0,0,1.24-4.09,6.59,6.59,0,0,0-1.24-4.11,4.76,4.76,0,0,0-7.5,0Z"/><path class="cls-4" d="M267.1,363.14v1.64a7.29,7.29,0,0,0-2.12-.3,3.4,3.4,0,0,0-3,1.67,5.93,5.93,0,0,0-1.11,3.63v7.34h-1.61V363.21h1.61v2.67a5.08,5.08,0,0,1,1.54-2.07,4,4,0,0,1,2.68-1A5.41,5.41,0,0,1,267.1,363.14Z"/><path class="cls-4" d="M278.93,365.69a5.49,5.49,0,0,1,1.86-2.13,4.36,4.36,0,0,1,2.53-.72,4.59,4.59,0,0,1,3.49,1.37,5.48,5.48,0,0,1,1.26,3.82v9.09h-1.61v-8.88a4.52,4.52,0,0,0-.81-2.95,3.41,3.41,0,0,0-2.76-1.05,3.17,3.17,0,0,0-2.53,1.15,4.09,4.09,0,0,0-1,2.88v8.85H277.7v-8.88q0-4-3.47-4a3.21,3.21,0,0,0-2.61,1.26,4.5,4.5,0,0,0-1.08,3.07v8.55h-1.61V363.21h1.61v2.1a4.52,4.52,0,0,1,4-2.47A4.19,4.19,0,0,1,278.93,365.69Z"/><path class="cls-4" d="M303.78,358.72v4.49h3.63v1.4h-3.63V374a2.15,2.15,0,0,0,.32,1.31,1.56,1.56,0,0,0,1.21.38h1.75v1.4h-2a2.87,2.87,0,0,1-2.32-.84,3.36,3.36,0,0,1-.62-2.25v-9.42h-3v-1.4h3V359.4Z"/><path class="cls-4" d="M320.85,365a8.62,8.62,0,0,1,0,10.25,6.6,6.6,0,0,1-9.84,0,7.8,7.8,0,0,1-1.7-5.11A7.72,7.72,0,0,1,311,365a6,6,0,0,1,4.89-2.2A6.11,6.11,0,0,1,320.85,365Zm-8.66,1a7.4,7.4,0,0,0,0,8.2,4.77,4.77,0,0,0,7.5,0,6.73,6.73,0,0,0,1.24-4.09,6.59,6.59,0,0,0-1.24-4.11,4.76,4.76,0,0,0-7.5,0Z"/><path class="cls-4" d="M325.39,357.54H327v12.69l7.71-7h2.21l-6.11,5.52,6.73,8.39h-2.13l-5.75-7.34L327,372.19v4.93h-1.62Z"/><path class="cls-4" d="M349.81,365.07a9.72,9.72,0,0,1,1.58,5.57H340.1a6.56,6.56,0,0,0,1.37,4,4.38,4.38,0,0,0,3.45,1.45,4.69,4.69,0,0,0,3.06-1,5.27,5.27,0,0,0,1.48-2.45h1.64a6.44,6.44,0,0,1-1.86,3.31,6.2,6.2,0,0,1-4.32,1.53,5.89,5.89,0,0,1-4.68-2,7.66,7.66,0,0,1-1.8-5.35,7.74,7.74,0,0,1,1.72-5.13,6.38,6.38,0,0,1,9.65.05Zm-8.23.59a6.1,6.1,0,0,0-1.45,3.66h9.57q-.4-5.08-4.81-5.08A4.17,4.17,0,0,0,341.58,365.66Z"/><path class="cls-4" d="M365.27,368.57v8.55h-1.61v-8.45q0-4.43-4-4.43a3.64,3.64,0,0,0-2.79,1.21,4.9,4.9,0,0,0-1.32,3.28v8.39H354V363.21h1.61v2.29a5.61,5.61,0,0,1,1.88-2,4.86,4.86,0,0,1,2.64-.7Q365.27,362.84,365.27,368.57Z"/><path class="cls-4" d="M110,397.78h1.8l3.77,11.84,3.49-11.84h1.56l3.5,11.84,3.79-11.84h1.77l-4.76,13.91h-1.56l-3.49-11.81-3.55,11.81h-1.53Z"/><path class="cls-4" d="M141.73,399a5.36,5.36,0,0,1,1.23,3.73v9h-1.53V409a7.17,7.17,0,0,1-5.89,3,5,5,0,0,1-3.3-1.05,3.55,3.55,0,0,1-1.27-2.87,4.1,4.1,0,0,1,2.18-3.87,9.33,9.33,0,0,1,4.65-1l3.55,0v-.51q0-3.94-4-4a4.79,4.79,0,0,0-2.91.78A3.34,3.34,0,0,0,133,402H131.4a4.91,4.91,0,0,1,2-3.5,6.88,6.88,0,0,1,4-1.07A5.47,5.47,0,0,1,141.73,399Zm-.38,5.56-3.47,0q-5.26,0-5.27,3.52a2.32,2.32,0,0,0,.89,1.88,3.52,3.52,0,0,0,2.37.73,5.82,5.82,0,0,0,3.87-1.45,4.13,4.13,0,0,0,1.61-3.1Z"/><path class="cls-4" d="M146.86,392.11h1.62v19.58h-1.62Z"/><path class="cls-4" d="M152.89,392.11h1.61v19.58h-1.61Z"/><path class="cls-4" d="M169,399.64a9.64,9.64,0,0,1,1.59,5.57H159.26a6.5,6.5,0,0,0,1.37,4,4.37,4.37,0,0,0,3.44,1.45,4.7,4.7,0,0,0,3.07-1,5.35,5.35,0,0,0,1.48-2.45h1.63a6.49,6.49,0,0,1-1.85,3.31,6.21,6.21,0,0,1-4.33,1.53,5.92,5.92,0,0,1-4.68-2,7.66,7.66,0,0,1-1.8-5.35,7.74,7.74,0,0,1,1.72-5.13,6.38,6.38,0,0,1,9.65.05Zm-8.22.59a6.11,6.11,0,0,0-1.46,3.66h9.58q-.41-5.08-4.82-5.08A4.13,4.13,0,0,0,160.74,400.23Z"/><path class="cls-4" d="M176.49,393.29v4.49h3.63v1.4h-3.63v9.42a2.15,2.15,0,0,0,.32,1.31,1.56,1.56,0,0,0,1.21.38h1.75v1.4h-2a2.83,2.83,0,0,1-2.31-.84,3.36,3.36,0,0,1-.62-2.25v-9.42h-3v-1.4h3V394Z"/><circle class="cls-3" cx="99.02" cy="462.5" r="3.67"/><path class="cls-4" d="M110,451.15h8.44a6.25,6.25,0,0,1,4.14,1.27,4.77,4.77,0,0,1,.59,6.37,4.84,4.84,0,0,1-2.39,1.56,5.21,5.21,0,0,1,3,1.53,4.65,4.65,0,0,1,1.11,3.18,4.72,4.72,0,0,1-2,4.11,7.92,7.92,0,0,1-4.57,1.18H110Zm1.64,1.43v7.15h6.45a5,5,0,0,0,3.2-.91,3.67,3.67,0,0,0,0-5.38,5.21,5.21,0,0,0-3.2-.86Zm0,8.55v7.8h6.67a6.24,6.24,0,0,0,3.44-.86,3.48,3.48,0,0,0,1.51-3,3.4,3.4,0,0,0-1.4-3,6,6,0,0,0-3.58-.94Z"/><path class="cls-4" d="M128.26,450.78h1.61v19.57h-1.61Z"/><path class="cls-4" d="M144.77,458.28a8.6,8.6,0,0,1,0,10.24,6.59,6.59,0,0,1-9.85,0,7.82,7.82,0,0,1-1.69-5.1,7.68,7.68,0,0,1,1.72-5.14,6,6,0,0,1,4.89-2.2A6.12,6.12,0,0,1,144.77,458.28Zm-8.66,1a7.4,7.4,0,0,0,0,8.2,4.76,4.76,0,0,0,7.5,0,7.4,7.4,0,0,0,0-8.2,4.41,4.41,0,0,0-3.77-1.83A4.36,4.36,0,0,0,136.11,459.3Z"/><path class="cls-4" d="M159.23,457.28a5.3,5.3,0,0,1,1.91,3.72h-1.61a4,4,0,0,0-1.4-2.64,4.66,4.66,0,0,0-3-.89,4.14,4.14,0,0,0-3.49,1.7,6.71,6.71,0,0,0-1.27,4.33,6.83,6.83,0,0,0,1.21,4.25,4.18,4.18,0,0,0,3.52,1.58q3.87,0,4.47-3.95h1.58a6.38,6.38,0,0,1-2,4,6,6,0,0,1-4.06,1.34,5.79,5.79,0,0,1-4.78-2.1,7.75,7.75,0,0,1-1.59-5.13,8.09,8.09,0,0,1,1.64-5.22,5.7,5.7,0,0,1,4.76-2.2A6.47,6.47,0,0,1,159.23,457.28Z"/><path class="cls-4" d="M163.77,450.78h1.62v12.69l7.72-7h2.2l-6.1,5.51,6.72,8.39H173.8L168.05,463l-2.66,2.42v4.92h-1.62Z"/><path class="cls-4" d="M186.58,450.78h1.61v8.6a5.08,5.08,0,0,1,4.87-3.3,5.43,5.43,0,0,1,4.62,2.23,9.28,9.28,0,0,1,0,10.21,5.63,5.63,0,0,1-4.68,2.21,5,5,0,0,1-4.89-3.12v2.74h-1.53Zm2.79,8.33a6.63,6.63,0,0,0-1.23,4.17v.32a6.62,6.62,0,0,0,1.15,4,4.1,4.1,0,0,0,3.52,1.72,4.21,4.21,0,0,0,3.63-1.78,7,7,0,0,0,1.13-4.19,6.85,6.85,0,0,0-1.15-4.17,4.26,4.26,0,0,0-3.66-1.77A4,4,0,0,0,189.37,459.11Z"/><path class="cls-4" d="M209.91,456.37V458a7.29,7.29,0,0,0-2.12-.29,3.43,3.43,0,0,0-3,1.66,6,6,0,0,0-1.11,3.63v7.34h-1.61v-13.9h1.61v2.66a5.22,5.22,0,0,1,1.54-2.07,4,4,0,0,1,2.69-1A5.41,5.41,0,0,1,209.91,456.37Z"/><path class="cls-4" d="M222.74,458.28a8.6,8.6,0,0,1,0,10.24,6.58,6.58,0,0,1-9.84,0,8.52,8.52,0,0,1,0-10.24,6,6,0,0,1,4.9-2.2A6.11,6.11,0,0,1,222.74,458.28Zm-8.66,1a7.4,7.4,0,0,0,0,8.2,4.76,4.76,0,0,0,7.5,0,7.4,7.4,0,0,0,0-8.2,4.76,4.76,0,0,0-7.5,0Z"/><path class="cls-4" d="M225.72,456.45h1.8l3.77,11.83,3.49-11.83h1.56l3.5,11.83,3.79-11.83h1.77l-4.76,13.9h-1.55l-3.5-11.8L232,470.35h-1.53Z"/><path class="cls-4" d="M257.5,460.35h-1.58a3.29,3.29,0,0,0-1.16-2.12,4.41,4.41,0,0,0-2.82-.76,4.49,4.49,0,0,0-2.5.62,1.93,1.93,0,0,0-1,1.67,1.91,1.91,0,0,0,1.24,1.69,18.73,18.73,0,0,0,2.93,1,14,14,0,0,1,3.6,1.29,3.14,3.14,0,0,1,1.67,2.8c0,2.81-1.89,4.22-5.65,4.22q-5.35,0-5.83-4.76H248a3.74,3.74,0,0,0,1.29,2.63,4.8,4.8,0,0,0,2.91.73q4,0,4-2.74a2.12,2.12,0,0,0-1.37-1.94,19.24,19.24,0,0,0-3.09-1,13.22,13.22,0,0,1-3.39-1.23,3,3,0,0,1-1.59-2.66,3.13,3.13,0,0,1,1.51-2.72,6.26,6.26,0,0,1,3.65-1Q256.91,456.08,257.5,460.35Z"/><path class="cls-4" d="M271.05,458.31a9.61,9.61,0,0,1,1.59,5.56H261.35a6.51,6.51,0,0,0,1.37,4,4.37,4.37,0,0,0,3.44,1.45,4.7,4.7,0,0,0,3.07-1,5.35,5.35,0,0,0,1.48-2.45h1.64a6.55,6.55,0,0,1-1.86,3.31,6.21,6.21,0,0,1-4.33,1.53,5.92,5.92,0,0,1-4.68-2,7.68,7.68,0,0,1-1.8-5.35,7.82,7.82,0,0,1,1.72-5.14,6.39,6.39,0,0,1,9.65.06Zm-8.22.59a6,6,0,0,0-1.45,3.65H271c-.27-3.38-1.88-5.08-4.81-5.08A4.15,4.15,0,0,0,262.83,458.9Z"/><path class="cls-4" d="M283.07,456.37V458a7.29,7.29,0,0,0-2.12-.29,3.43,3.43,0,0,0-3,1.66,6,6,0,0,0-1.1,3.63v7.34h-1.62v-13.9h1.62v2.66a5.11,5.11,0,0,1,1.53-2.07,4,4,0,0,1,2.69-1A5.41,5.41,0,0,1,283.07,456.37Z"/><path class="cls-4" d="M304.85,458.28a8.56,8.56,0,0,1,0,10.24,6.58,6.58,0,0,1-9.84,0,7.76,7.76,0,0,1-1.69-5.1,7.68,7.68,0,0,1,1.72-5.14,6,6,0,0,1,4.89-2.2A6.11,6.11,0,0,1,304.85,458.28Zm-8.66,1a7.45,7.45,0,0,0,0,8.2,4.76,4.76,0,0,0,7.5,0,7.4,7.4,0,0,0,0-8.2,4.76,4.76,0,0,0-7.5,0Z"/><path class="cls-4" d="M320.69,461.8v8.55h-1.62v-8.44c0-3-1.31-4.44-3.95-4.44a3.68,3.68,0,0,0-2.79,1.21A4.92,4.92,0,0,0,311,462v8.39h-1.62v-13.9H311v2.29a5.64,5.64,0,0,1,1.88-2,5,5,0,0,1,2.64-.69Q320.69,456.08,320.69,461.8Z"/><path class="cls-4" d="M324.59,450.78h1.61v19.57h-1.61Z"/><path class="cls-4" d="M332.68,451.85a1.14,1.14,0,0,1,.4.94,1.32,1.32,0,0,1-.43,1,1.39,1.39,0,0,1-.94.38,1.33,1.33,0,0,1-1.37-1.35,1.17,1.17,0,0,1,.4-.94,1.3,1.3,0,0,1,1-.4A1.35,1.35,0,0,1,332.68,451.85Zm-1.78,4.6h1.62v13.9H330.9Z"/><path class="cls-4" d="M348,461.8v8.55h-1.61v-8.44q0-4.44-3.95-4.44a3.7,3.7,0,0,0-2.8,1.21,4.92,4.92,0,0,0-1.32,3.28v8.39h-1.61v-13.9h1.61v2.29a5.76,5.76,0,0,1,1.89-2,4.94,4.94,0,0,1,2.63-.69Q348,456.08,348,461.8Z"/><path class="cls-4" d="M362,458.31a9.61,9.61,0,0,1,1.59,5.56h-11.3a6.57,6.57,0,0,0,1.37,4,4.39,4.39,0,0,0,3.45,1.45,4.69,4.69,0,0,0,3.06-1,5.18,5.18,0,0,0,1.48-2.45h1.64a6.53,6.53,0,0,1-1.85,3.31,6.23,6.23,0,0,1-4.33,1.53,5.89,5.89,0,0,1-4.68-2,7.68,7.68,0,0,1-1.8-5.35,7.77,7.77,0,0,1,1.72-5.14,6.39,6.39,0,0,1,9.65.06Zm-8.23.59a6.16,6.16,0,0,0-1.45,3.65h9.57c-.27-3.38-1.87-5.08-4.81-5.08A4.18,4.18,0,0,0,353.73,458.9Z"/><circle class="cls-3" cx="99.02" cy="522.1" r="3.67"/><path class="cls-4" d="M124.31,511.11a6.56,6.56,0,0,1,2.6,4.52h-1.58a4.93,4.93,0,0,0-2.18-3.47,6.91,6.91,0,0,0-4.09-1.21,6.74,6.74,0,0,0-5.54,2.5,9.31,9.31,0,0,0-1.88,6,9.16,9.16,0,0,0,1.86,6,6.57,6.57,0,0,0,5.4,2.39,6.93,6.93,0,0,0,4.22-1.32,6.67,6.67,0,0,0,2.48-4.11h1.58a8.24,8.24,0,0,1-3,5.21,8.37,8.37,0,0,1-5.24,1.72,8.19,8.19,0,0,1-6.72-2.95A10.58,10.58,0,0,1,110,519.5a10.74,10.74,0,0,1,2.26-7,9.14,9.14,0,0,1,12-1.37Z"/><path class="cls-4" d="M141,517a8.6,8.6,0,0,1,0,10.24,6.6,6.6,0,0,1-9.84,0,7.8,7.8,0,0,1-1.7-5.11,7.67,7.67,0,0,1,1.73-5.13,6,6,0,0,1,4.89-2.21A6.12,6.12,0,0,1,141,517Zm-8.66,1a7.4,7.4,0,0,0,0,8.2,4.76,4.76,0,0,0,7.5,0,6.71,6.71,0,0,0,1.24-4.09,6.59,6.59,0,0,0-1.24-4.11,4.76,4.76,0,0,0-7.5,0Z"/><path class="cls-4" d="M155.58,517.59a5.37,5.37,0,0,1,1.85-2.12,4.29,4.29,0,0,1,2.53-.73,4.61,4.61,0,0,1,3.5,1.37,5.52,5.52,0,0,1,1.26,3.82V529H163.1v-8.87a4.53,4.53,0,0,0-.8-3,3.43,3.43,0,0,0-2.77-1.05A3.17,3.17,0,0,0,157,517.3a4,4,0,0,0-1,2.87V529h-1.64v-8.87q0-4-3.47-4a3.21,3.21,0,0,0-2.61,1.26,4.56,4.56,0,0,0-1.07,3.07V529h-1.62v-13.9h1.62v2.09a4.52,4.52,0,0,1,4-2.47A4.19,4.19,0,0,1,155.58,517.59Z"/><path class="cls-4" d="M179.21,517a9.38,9.38,0,0,1,0,10.22,5.6,5.6,0,0,1-4.66,2.2,5.08,5.08,0,0,1-4.86-3.27v8.22H168.1V515.12h1.54v2.74a5.11,5.11,0,0,1,4.89-3.12A5.62,5.62,0,0,1,179.21,517Zm-8.39.92a6.74,6.74,0,0,0-1.15,4.11v.3a6.53,6.53,0,0,0,1.23,4.11,4.07,4.07,0,0,0,3.39,1.62A4.35,4.35,0,0,0,178,526.3a7.07,7.07,0,0,0,1.12-4.19,7.2,7.2,0,0,0-1.1-4.2,4.21,4.21,0,0,0-3.63-1.8A4.07,4.07,0,0,0,170.82,517.89Z"/><path class="cls-4" d="M184.1,509.45h1.62V529H184.1Z"/><path class="cls-4" d="M200.18,517a9.67,9.67,0,0,1,1.59,5.57H190.48a6.53,6.53,0,0,0,1.37,4,4.39,4.39,0,0,0,3.44,1.45,4.6,4.6,0,0,0,3.06-1,5.15,5.15,0,0,0,1.48-2.44h1.64a6.5,6.5,0,0,1-1.85,3.3,6.21,6.21,0,0,1-4.33,1.53,5.93,5.93,0,0,1-4.68-2,8.7,8.7,0,0,1-.08-10.49,6.38,6.38,0,0,1,9.65.05Zm-8.23.6a6.16,6.16,0,0,0-1.45,3.65h9.58q-.41-5.09-4.82-5.08A4.15,4.15,0,0,0,192,517.57Z"/><path class="cls-4" d="M207.71,510.63v4.49h3.63v1.4h-3.63v9.41a2.17,2.17,0,0,0,.32,1.32,1.56,1.56,0,0,0,1.21.37H211V529h-2a2.86,2.86,0,0,1-2.31-.83,3.34,3.34,0,0,1-.62-2.26v-9.41h-3v-1.4h3V511.3Z"/><path class="cls-4" d="M224.35,517a9.67,9.67,0,0,1,1.59,5.57H214.65a6.53,6.53,0,0,0,1.37,4,4.4,4.4,0,0,0,3.44,1.45,4.65,4.65,0,0,0,3.07-1,5.31,5.31,0,0,0,1.48-2.44h1.63a6.5,6.5,0,0,1-1.85,3.3,6.21,6.21,0,0,1-4.33,1.53,5.94,5.94,0,0,1-4.68-2,8.7,8.7,0,0,1-.08-10.49,6.38,6.38,0,0,1,9.65.05Zm-8.22.6a6.1,6.1,0,0,0-1.46,3.65h9.58q-.41-5.09-4.82-5.08A4.11,4.11,0,0,0,216.13,517.57Z"/><path class="cls-4" d="M240.83,510.63v4.49h3.64v1.4h-3.64v9.41a2.1,2.1,0,0,0,.33,1.32,1.55,1.55,0,0,0,1.21.37h1.74V529h-2a2.89,2.89,0,0,1-2.31-.83,3.39,3.39,0,0,1-.62-2.26v-9.41h-3v-1.4h3V511.3Z"/><path class="cls-4" d="M257.91,517a8.6,8.6,0,0,1,0,10.24,6.6,6.6,0,0,1-9.84,0,7.8,7.8,0,0,1-1.7-5.11,7.72,7.72,0,0,1,1.72-5.13,6,6,0,0,1,4.9-2.21A6.12,6.12,0,0,1,257.91,517Zm-8.66,1a7.4,7.4,0,0,0,0,8.2,4.76,4.76,0,0,0,7.5,0,6.71,6.71,0,0,0,1.24-4.09,6.59,6.59,0,0,0-1.24-4.11,4.76,4.76,0,0,0-7.5,0Z"/><path class="cls-4" d="M262.45,509.45h1.61v12.69l7.72-7H274l-6.11,5.51,6.73,8.39h-2.13l-5.75-7.34-2.67,2.42V529h-1.61Z"/><path class="cls-4" d="M286.87,517a9.74,9.74,0,0,1,1.58,5.57H277.16a6.59,6.59,0,0,0,1.37,4A4.4,4.4,0,0,0,282,528a4.65,4.65,0,0,0,3.07-1,5.23,5.23,0,0,0,1.48-2.44h1.64a6.52,6.52,0,0,1-1.86,3.3,6.21,6.21,0,0,1-4.33,1.53,5.94,5.94,0,0,1-4.68-2,7.68,7.68,0,0,1-1.8-5.35,7.8,7.8,0,0,1,1.72-5.14,6.39,6.39,0,0,1,9.66.05Zm-8.23.6a6.1,6.1,0,0,0-1.45,3.65h9.57c-.27-3.39-1.88-5.08-4.81-5.08A4.13,4.13,0,0,0,278.64,517.57Z"/><path class="cls-4" d="M302.33,520.47V529h-1.62v-8.44c0-3-1.31-4.44-3.95-4.44a3.68,3.68,0,0,0-2.8,1.21,4.89,4.89,0,0,0-1.31,3.28V529H291v-13.9h1.62v2.28a5.61,5.61,0,0,1,1.88-2,4.94,4.94,0,0,1,2.63-.7Q302.34,514.74,302.33,520.47Z"/><path class="cls-4" d="M120.54,552.16A5.39,5.39,0,0,1,122.4,550a4.28,4.28,0,0,1,2.52-.73,4.59,4.59,0,0,1,3.5,1.37,5.52,5.52,0,0,1,1.26,3.82v9.09h-1.61v-8.87a4.53,4.53,0,0,0-.81-3,3.41,3.41,0,0,0-2.76-1,3.15,3.15,0,0,0-2.53,1.16,4.05,4.05,0,0,0-1,2.87v8.85h-1.63v-8.87q0-4-3.47-4a3.21,3.21,0,0,0-2.61,1.26,4.51,4.51,0,0,0-1.08,3.07v8.55h-1.61v-13.9h1.61v2.09a4.54,4.54,0,0,1,4-2.47A4.19,4.19,0,0,1,120.54,552.16Z"/><path class="cls-4" d="M135.65,545.09a1.14,1.14,0,0,1,.41.94,1.37,1.37,0,0,1-.43,1,1.42,1.42,0,0,1-.95.38,1.3,1.3,0,0,1-1-.38,1.32,1.32,0,0,1-.41-1,1.14,1.14,0,0,1,.41-.94,1.25,1.25,0,0,1,1-.4A1.31,1.31,0,0,1,135.65,545.09Zm-1.77,4.6h1.61v13.9h-1.61Z"/><path class="cls-4" d="M150.39,552.48v-2.79H152v12.88q0,6.72-6.24,6.72a6.66,6.66,0,0,1-4.22-1.18,5.08,5.08,0,0,1-1.77-3.34h1.61a3.67,3.67,0,0,0,1.29,2.32,4.88,4.88,0,0,0,3.09.85c3.09,0,4.63-1.72,4.63-5.18v-2.67a5.17,5.17,0,0,1-5,3.18,5.79,5.79,0,0,1-4.65-2.07,8.25,8.25,0,0,1,0-9.79,5.76,5.76,0,0,1,4.65-2.1A5.18,5.18,0,0,1,150.39,552.48Zm-8.37-.13a6,6,0,0,0-1.23,3.95,6.21,6.21,0,0,0,1.15,3.88,4.29,4.29,0,0,0,3.63,1.69,4.35,4.35,0,0,0,3.61-1.62,7.05,7.05,0,0,0,0-7.9,4.67,4.67,0,0,0-7.16,0Z"/><path class="cls-4" d="M163.24,549.61v1.64a7.31,7.31,0,0,0-2.13-.3,3.45,3.45,0,0,0-3,1.67,6,6,0,0,0-1.1,3.63v7.34h-1.61v-13.9H157v2.66a5.15,5.15,0,0,1,1.53-2.07,4,4,0,0,1,2.69-1A5.48,5.48,0,0,1,163.24,549.61Z"/><path class="cls-4" d="M175.28,550.9a5.34,5.34,0,0,1,1.24,3.74v9H175v-2.66a7.39,7.39,0,0,1-2.26,2.07,7,7,0,0,1-3.63,1,5,5,0,0,1-3.31-1,3.6,3.6,0,0,1-1.26-2.88,4.12,4.12,0,0,1,2.18-3.87,9.38,9.38,0,0,1,4.65-1l3.55,0v-.51c0-2.64-1.35-4-4-4a4.79,4.79,0,0,0-2.91.78,3.3,3.3,0,0,0-1.42,2.42H165a4.87,4.87,0,0,1,2-3.49,6.79,6.79,0,0,1,4-1.08A5.45,5.45,0,0,1,175.28,550.9Zm-.37,5.56-3.47,0c-3.52,0-5.27,1.19-5.27,3.52a2.35,2.35,0,0,0,.89,1.89,3.56,3.56,0,0,0,2.36.72,5.73,5.73,0,0,0,3.87-1.45,4.11,4.11,0,0,0,1.62-3.09Z"/><path class="cls-4" d="M183.27,545.2v4.49h3.63v1.4h-3.63v9.41a2.17,2.17,0,0,0,.32,1.32,1.56,1.56,0,0,0,1.21.37h1.75v1.4h-2a2.9,2.9,0,0,1-2.32-.83,3.39,3.39,0,0,1-.61-2.26v-9.41h-3v-1.4h3v-3.82Z"/><path class="cls-4" d="M191.93,545.09a1.14,1.14,0,0,1,.4.94,1.33,1.33,0,0,1-.43,1,1.41,1.41,0,0,1-.94.38,1.33,1.33,0,0,1-1.37-1.35,1.14,1.14,0,0,1,.4-.94,1.25,1.25,0,0,1,1-.4A1.31,1.31,0,0,1,191.93,545.09Zm-1.78,4.6h1.61v13.9h-1.61Z"/><path class="cls-4" d="M207,551.52a8.6,8.6,0,0,1,0,10.24,6.6,6.6,0,0,1-9.84,0,7.8,7.8,0,0,1-1.7-5.11,7.72,7.72,0,0,1,1.72-5.13,6,6,0,0,1,4.9-2.21A6.12,6.12,0,0,1,207,551.52Zm-8.66,1a7.4,7.4,0,0,0,0,8.2,4.76,4.76,0,0,0,7.5,0,6.71,6.71,0,0,0,1.24-4.09,6.59,6.59,0,0,0-1.24-4.11,4.76,4.76,0,0,0-7.5,0Z"/><path class="cls-4" d="M222.79,555v8.55h-1.61v-8.44q0-4.44-4-4.44a3.67,3.67,0,0,0-2.8,1.21,4.9,4.9,0,0,0-1.32,3.28v8.39H211.5v-13.9h1.61V552a5.73,5.73,0,0,1,1.89-2,4.94,4.94,0,0,1,2.63-.7Q222.79,549.31,222.79,555Z"/></svg>