<svg id="图层_1" data-name="图层 1" xmlns="http://www.w3.org/2000/svg" viewBox="0 0 500 640"><defs><style>.cls-1{fill:#90bae1;}.cls-2{fill:#fff;}.cls-3{fill:#c1c1c1;}.cls-4{fill:#33353c;}</style></defs><title>英文</title><rect class="cls-1" x="440.42" y="112.95" width="22.33" height="22.33" transform="translate(44.51 355.68) rotate(-45)"/><rect class="cls-2" x="48.37" y="33.45" width="406.7" height="593"/><rect class="cls-1" x="32.62" y="13.55" width="434.77" height="110.56"/><path class="cls-2" d="M97.42,53.41h18.46v3.35H101.34v7.48H115v3.35H101.34v8.17H116.5v3.35H97.42Z"/><path class="cls-2" d="M134.14,61.61a8,8,0,0,1,2.73,5.19h-3.78A4.26,4.26,0,0,0,131.54,64a4.94,4.94,0,0,0-3.13-.9,4.41,4.41,0,0,0-3.71,1.76,7.65,7.65,0,0,0-1.37,4.9,8,8,0,0,0,1.34,4.93,4.24,4.24,0,0,0,3.7,1.76c2.84,0,4.43-1.41,4.79-4.25h3.78a9.06,9.06,0,0,1-2.84,5.58,8.75,8.75,0,0,1-5.76,1.8,8.2,8.2,0,0,1-6.62-2.8,10.3,10.3,0,0,1-2.31-7,10.4,10.4,0,0,1,2.27-6.91A8.32,8.32,0,0,1,128.41,60,9.32,9.32,0,0,1,134.14,61.61Z"/><path class="cls-2" d="M155.56,62.8a10.15,10.15,0,0,1,2.52,7,9.85,9.85,0,0,1-2.49,7,9.57,9.57,0,0,1-13.61,0,9.89,9.89,0,0,1-2.48-7,10,10,0,0,1,2.52-7,9.56,9.56,0,0,1,13.54,0Zm-10.88,2.42a7.62,7.62,0,0,0-1.26,4.6,7.62,7.62,0,0,0,1.26,4.58,4.76,4.76,0,0,0,4.11,2.08,4.89,4.89,0,0,0,4.14-2.08,7.78,7.78,0,0,0,1.29-4.58,7.6,7.6,0,0,0-1.29-4.6,4.82,4.82,0,0,0-4.14-2.09A4.68,4.68,0,0,0,144.68,65.22Z"/><path class="cls-2" d="M162.14,52.9H166V79.11h-3.82Z"/><path class="cls-2" d="M186.05,62.8a10.15,10.15,0,0,1,2.52,7,9.85,9.85,0,0,1-2.49,7,9.57,9.57,0,0,1-13.61,0,9.89,9.89,0,0,1-2.48-7,10,10,0,0,1,2.52-7,9.56,9.56,0,0,1,13.54,0Zm-10.88,2.42a7.62,7.62,0,0,0-1.25,4.6,7.62,7.62,0,0,0,1.25,4.58,4.76,4.76,0,0,0,4.11,2.08,4.89,4.89,0,0,0,4.14-2.08,7.78,7.78,0,0,0,1.29-4.58,7.6,7.6,0,0,0-1.29-4.6,4.82,4.82,0,0,0-4.14-2.09A4.68,4.68,0,0,0,175.17,65.22Z"/><path class="cls-2" d="M205.63,63V60.5h3.82V77.89q0,8.85-8.68,8.85a10.22,10.22,0,0,1-5.94-1.47,6.87,6.87,0,0,1-2.56-4.58h3.82A3.39,3.39,0,0,0,197.46,83a6.26,6.26,0,0,0,3.31.69q4.86,0,4.86-5.26V75.58a6.46,6.46,0,0,1-5.69,3.1,7.89,7.89,0,0,1-6.12-2.56,9.41,9.41,0,0,1-2.34-6.73,9.64,9.64,0,0,1,2.34-6.77A7.76,7.76,0,0,1,199.94,60,6.47,6.47,0,0,1,205.63,63Zm-8.86,1.8a6.89,6.89,0,0,0-1.36,4.61,7.53,7.53,0,0,0,1.08,4.29,4.52,4.52,0,0,0,4,1.87,4.77,4.77,0,0,0,3.81-1.62,7.25,7.25,0,0,0,1.34-4.54,7.36,7.36,0,0,0-1.34-4.61,4.61,4.61,0,0,0-3.81-1.69A4.37,4.37,0,0,0,196.77,64.78Z"/><path class="cls-2" d="M218.37,53.77a2.33,2.33,0,0,1,.76,1.83,2.57,2.57,0,0,1-.79,1.88,2.83,2.83,0,0,1-3.75,0,2.57,2.57,0,0,1-.75-1.88,2.35,2.35,0,0,1,.75-1.83,2.84,2.84,0,0,1,3.78,0Zm-3.81,6.73h3.81V79.11h-3.81Z"/><path class="cls-2" d="M237.53,61.61a8,8,0,0,1,2.73,5.19h-3.78A4.26,4.26,0,0,0,234.93,64a4.94,4.94,0,0,0-3.13-.9,4.41,4.41,0,0,0-3.71,1.76,7.65,7.65,0,0,0-1.36,4.9,8,8,0,0,0,1.33,4.93,4.25,4.25,0,0,0,3.71,1.76c2.83,0,4.42-1.41,4.78-4.25h3.78a9.06,9.06,0,0,1-2.84,5.58,8.73,8.73,0,0,1-5.76,1.8,8.2,8.2,0,0,1-6.62-2.8,10.3,10.3,0,0,1-2.31-7,10.4,10.4,0,0,1,2.27-6.91A8.34,8.34,0,0,1,231.8,60,9.32,9.32,0,0,1,237.53,61.61Z"/><path class="cls-2" d="M258.05,62.05a7.32,7.32,0,0,1,1.69,5.18V79.11h-3.53V76.48a8.2,8.2,0,0,1-2.74,2.27,9.88,9.88,0,0,1-4.28.86,6.73,6.73,0,0,1-4.57-1.47,5.06,5.06,0,0,1-1.73-4,5.69,5.69,0,0,1,2.77-5.22,11.55,11.55,0,0,1,6.12-1.44l4.18,0V67c0-2.59-1.41-3.89-4.21-3.89a5.34,5.34,0,0,0-3,.72,3.28,3.28,0,0,0-1.47,2.45h-3.78a6.55,6.55,0,0,1,2.8-4.9A10.19,10.19,0,0,1,252,60Q256.09,60,258.05,62.05ZM256,70.36l-3.93,0q-5.22,0-5.22,3.63a2.33,2.33,0,0,0,.83,1.84,3.58,3.58,0,0,0,2.41.72,6.47,6.47,0,0,0,4.29-1.44A4.91,4.91,0,0,0,256,71.34Z"/><path class="cls-2" d="M264.53,52.9h3.81V79.11h-3.81Z"/><path class="cls-2" d="M292.82,53.41h4.47l9.9,25.7H303l-2.41-6.62H289.51l-2.41,6.62h-4.18ZM290.7,69.25h8.67l-4.25-11.63H295Z"/><path class="cls-2" d="M323.35,61.61a7.93,7.93,0,0,1,2.73,5.19h-3.77A4.3,4.3,0,0,0,320.76,64a5,5,0,0,0-3.14-.9,4.38,4.38,0,0,0-3.7,1.76,7.59,7.59,0,0,0-1.37,4.9,8,8,0,0,0,1.33,4.93,4.26,4.26,0,0,0,3.71,1.76c2.83,0,4.43-1.41,4.79-4.25h3.78a9,9,0,0,1-2.85,5.58,8.73,8.73,0,0,1-5.76,1.8,8.2,8.2,0,0,1-6.62-2.8,10.3,10.3,0,0,1-2.31-7,10.4,10.4,0,0,1,2.27-6.91A8.35,8.35,0,0,1,317.62,60,9.32,9.32,0,0,1,323.35,61.61Z"/><path class="cls-2" d="M343.44,61.61a8,8,0,0,1,2.73,5.19h-3.78A4.26,4.26,0,0,0,340.84,64a4.94,4.94,0,0,0-3.13-.9A4.41,4.41,0,0,0,334,64.89a7.65,7.65,0,0,0-1.36,4.9A8,8,0,0,0,334,74.72a4.25,4.25,0,0,0,3.71,1.76c2.83,0,4.43-1.41,4.78-4.25h3.79a9.06,9.06,0,0,1-2.85,5.58,8.73,8.73,0,0,1-5.76,1.8,8.2,8.2,0,0,1-6.62-2.8,10.3,10.3,0,0,1-2.31-7A10.4,10.4,0,0,1,331,62.91,8.34,8.34,0,0,1,337.71,60,9.32,9.32,0,0,1,343.44,61.61Z"/><path class="cls-2" d="M364.35,63.09a12.53,12.53,0,0,1,2.23,7.78H352.47A6.92,6.92,0,0,0,354,75a4.61,4.61,0,0,0,3.56,1.44,5.32,5.32,0,0,0,3.24-.93,6.35,6.35,0,0,0,1.7-2.41h3.81a8.69,8.69,0,0,1-2.55,4.35,9.06,9.06,0,0,1-6.16,2.12A8.49,8.49,0,0,1,351,77.06a10,10,0,0,1-2.59-7.27,10.12,10.12,0,0,1,2.45-7A8,8,0,0,1,357.41,60,8.16,8.16,0,0,1,364.35,63.09Zm-10.26,1.3a6.43,6.43,0,0,0-1.55,3.6h10q-.54-4.86-5.08-4.86A4.62,4.62,0,0,0,354.09,64.39Z"/><path class="cls-2" d="M384.69,65.86H381a3.5,3.5,0,0,0-1.33-2.09,5.41,5.41,0,0,0-2.95-.64,5.08,5.08,0,0,0-2.59.5,1.77,1.77,0,0,0-1,1.66c0,.62.5,1.17,1.51,1.65a30.76,30.76,0,0,0,3.75,1.12,16,16,0,0,1,4.71,1.76,4.38,4.38,0,0,1,2.23,3.89q0,5.91-8.28,5.9-7.62,0-8.27-6.51h3.74a4.13,4.13,0,0,0,1.33,2.66,5.35,5.35,0,0,0,3.1.72q4.45,0,4.46-2.52a2.34,2.34,0,0,0-1.66-2.12A19.7,19.7,0,0,0,376,70.76a14.87,14.87,0,0,1-4.61-1.62,4.22,4.22,0,0,1-2.16-3.74,4.49,4.49,0,0,1,2.09-4A9.46,9.46,0,0,1,376.77,60Q384,60,384.69,65.86Z"/><path class="cls-2" d="M403.41,65.86H399.7a3.5,3.5,0,0,0-1.33-2.09,5.41,5.41,0,0,0-2.95-.64,5.08,5.08,0,0,0-2.59.5,1.77,1.77,0,0,0-1,1.66c0,.62.5,1.17,1.51,1.65a30.76,30.76,0,0,0,3.75,1.12,16,16,0,0,1,4.71,1.76A4.38,4.38,0,0,1,404,73.71q0,5.91-8.28,5.9-7.62,0-8.28-6.51h3.75a4.09,4.09,0,0,0,1.33,2.66,5.35,5.35,0,0,0,3.1.72q4.46,0,4.46-2.52a2.34,2.34,0,0,0-1.66-2.12,19.7,19.7,0,0,0-3.74-1.08,14.87,14.87,0,0,1-4.61-1.62,4.22,4.22,0,0,1-2.16-3.74,4.49,4.49,0,0,1,2.09-4A9.46,9.46,0,0,1,395.49,60Q402.77,60,403.41,65.86Z"/><path class="cls-1" d="M195.65,162.34a7.88,7.88,0,0,1,2.56,6.06,9.81,9.81,0,0,1-2.75,6.65,40.84,40.84,0,0,1-5.83,4.52q-4.51,3-5.43,5.32h14.05v3.77H178.89a10.72,10.72,0,0,1,2.79-7.35,36.53,36.53,0,0,1,6.34-5.12,30.84,30.84,0,0,0,4-3.23,6.79,6.79,0,0,0,1.93-4.6,4.54,4.54,0,0,0-1.3-3.54,5.47,5.47,0,0,0-3.81-1.18,4.66,4.66,0,0,0-4,1.81,8.64,8.64,0,0,0-1.49,5.15h-4.29a11,11,0,0,1,2.71-7.55,9.18,9.18,0,0,1,7.24-3A9.49,9.49,0,0,1,195.65,162.34Z"/><path class="cls-1" d="M219.85,164.19q2.47,3.9,2.48,10.43T219.85,185a9.15,9.15,0,0,1-15.35,0Q202,181.15,202,174.62t2.47-10.43a9.15,9.15,0,0,1,15.35,0Zm-12.55,3.27a19.73,19.73,0,0,0-1,7.16,20,20,0,0,0,1,7.16q1.41,3.81,4.88,3.81t4.88-3.81a20.79,20.79,0,0,0,1-7.16,20.32,20.32,0,0,0-1-7.16q-1.42-3.83-4.88-3.82T207.3,167.46Z"/><path class="cls-1" d="M242.87,162.34a7.91,7.91,0,0,1,2.55,6.06,9.81,9.81,0,0,1-2.75,6.65,40,40,0,0,1-5.82,4.52q-4.53,3-5.43,5.32h14v3.77H226.1a10.73,10.73,0,0,1,2.8-7.35,36.34,36.34,0,0,1,6.33-5.12,31.11,31.11,0,0,0,4-3.23,6.82,6.82,0,0,0,1.92-4.6,4.57,4.57,0,0,0-1.29-3.54,5.5,5.5,0,0,0-3.82-1.18,4.64,4.64,0,0,0-4,1.81,8.64,8.64,0,0,0-1.5,5.15h-4.29a10.91,10.91,0,0,1,2.72-7.55,9.15,9.15,0,0,1,7.24-3A9.52,9.52,0,0,1,242.87,162.34Z"/><path class="cls-1" d="M267.06,164.19q2.49,3.9,2.48,10.43T267.06,185a9.14,9.14,0,0,1-15.34,0q-2.47-3.89-2.48-10.42t2.48-10.43a9.14,9.14,0,0,1,15.34,0Zm-12.55,3.27a19.76,19.76,0,0,0-1,7.16,20,20,0,0,0,1,7.16c1,2.54,2.57,3.81,4.88,3.81s3.94-1.27,4.88-3.81a20.79,20.79,0,0,0,1-7.16,20.32,20.32,0,0,0-1-7.16q-1.41-3.83-4.88-3.82C257.08,163.64,255.46,164.91,254.51,167.46Z"/><path class="cls-1" d="M309.6,164.19q3.54,3.93,3.54,10.47A15.32,15.32,0,0,1,309.71,185q2.21,2.94,3.11,4.28l-2.75,2.44c-1.24-1.78-2.27-3.24-3.11-4.36a14.23,14.23,0,0,1-7.48,1.88q-6.41,0-10.11-4.17c-2.33-2.64-3.5-6.11-3.5-10.38s1.17-7.78,3.5-10.43c2.41-2.81,5.79-4.21,10.11-4.21S307.13,161.41,309.6,164.19Zm-17.08,2.64a14.1,14.1,0,0,0,0,15.62,8.62,8.62,0,0,0,7,3,9.57,9.57,0,0,0,5-1.26q-2-2.52-4.21-4.84l2.48-2.44q1.77,1.84,4.25,4.76a12.59,12.59,0,0,0,1.77-7,12.24,12.24,0,0,0-2.4-7.95,9.61,9.61,0,0,0-13.89.12Z"/><path class="cls-1" d="M333.6,162.07a7,7,0,0,1,2.51,5.66c0,3.1-1.54,5.16-4.64,6.18a7.8,7.8,0,0,1,3.78,2.32,5.9,5.9,0,0,1,1.42,4.09A8.33,8.33,0,0,1,334,186.7a10.76,10.76,0,0,1-7.36,2.51,10.4,10.4,0,0,1-6.92-2.2,9.9,9.9,0,0,1-3.31-7.2h4.33a5.78,5.78,0,0,0,1.85,4.37,5.69,5.69,0,0,0,4,1.41A6.15,6.15,0,0,0,331,184a4.78,4.78,0,0,0,1.46-3.5,4.34,4.34,0,0,0-1.54-3.66,6.43,6.43,0,0,0-4.21-1.18h-2.05v-3.23h2a5.87,5.87,0,0,0,3.9-1.14,4.05,4.05,0,0,0,1.33-3.26,4.19,4.19,0,0,0-1.22-3.23,5.51,5.51,0,0,0-3.81-1.14,5.66,5.66,0,0,0-4,1.3,5.8,5.8,0,0,0-1.69,3.89H317a9.25,9.25,0,0,1,3.11-6.53,9.63,9.63,0,0,1,6.73-2.32A10.57,10.57,0,0,1,333.6,162.07Z"/><circle class="cls-3" cx="92.11" cy="236.3" r="3.67"/><path class="cls-4" d="M105.41,226.83h7.8c4.26,0,6.4,1.84,6.4,5.51s-2.14,5.54-6.43,5.54h-6.13V246h-1.64Zm1.64,1.45v8.15h6a5.72,5.72,0,0,0,3.69-1,3.94,3.94,0,0,0,1.15-3.07,3.79,3.79,0,0,0-1.15-3,5.53,5.53,0,0,0-3.69-1.05Z"/><path class="cls-4" d="M133.19,234a8.62,8.62,0,0,1,0,10.25,6.6,6.6,0,0,1-9.84,0,7.8,7.8,0,0,1-1.7-5.11,7.71,7.71,0,0,1,1.72-5.14,6,6,0,0,1,4.9-2.2A6.11,6.11,0,0,1,133.19,234Zm-8.66,1a7.4,7.4,0,0,0,0,8.2,4.77,4.77,0,0,0,7.5,0,6.77,6.77,0,0,0,1.24-4.09A6.65,6.65,0,0,0,132,235a4.76,4.76,0,0,0-7.5,0Z"/><path class="cls-4" d="M140.31,227.53a1.12,1.12,0,0,1,.4.94,1.33,1.33,0,0,1-.43,1,1.38,1.38,0,0,1-.94.37,1.34,1.34,0,0,1-1-.37,1.35,1.35,0,0,1-.4-1,1.15,1.15,0,0,1,.4-.94,1.28,1.28,0,0,1,1-.4A1.31,1.31,0,0,1,140.31,227.53Zm-1.77,4.6h1.61V246h-1.61Z"/><path class="cls-4" d="M155.64,237.48V246H154v-8.45c0-3-1.31-4.43-4-4.43a3.68,3.68,0,0,0-2.8,1.21,4.89,4.89,0,0,0-1.31,3.28V246h-1.62v-13.9H146v2.28a5.61,5.61,0,0,1,1.88-2,4.85,4.85,0,0,1,2.63-.7Q155.64,231.75,155.64,237.48Z"/><path class="cls-4" d="M162.39,227.64v4.49H166v1.39h-3.63v9.42a2.09,2.09,0,0,0,.32,1.31,1.55,1.55,0,0,0,1.21.38h1.75V246h-2a2.86,2.86,0,0,1-2.31-.84,3.34,3.34,0,0,1-.62-2.25v-9.42h-3v-1.39h3v-3.82Z"/><path class="cls-4" d="M191.18,228.12a6.52,6.52,0,0,1,2.61,4.52H192.2a4.91,4.91,0,0,0-2.18-3.47,6.86,6.86,0,0,0-4.08-1.21,6.71,6.71,0,0,0-5.54,2.5,10.65,10.65,0,0,0,0,12,6.55,6.55,0,0,0,5.41,2.4,7,7,0,0,0,4.22-1.32,6.69,6.69,0,0,0,2.47-4.11h1.59a8.33,8.33,0,0,1-3,5.21,8.42,8.42,0,0,1-5.25,1.72,8.21,8.21,0,0,1-6.72-3,10.61,10.61,0,0,1-2.2-6.94,10.74,10.74,0,0,1,2.26-7,9.1,9.1,0,0,1,12-1.37Z"/><path class="cls-4" d="M196.91,226.45h1.64v8.2a5.32,5.32,0,0,1,1.93-2.17,5.41,5.41,0,0,1,6.35.67,5.58,5.58,0,0,1,1.34,4V246h-1.61v-8.66a4.59,4.59,0,0,0-1-3.15,3.86,3.86,0,0,0-2.88-1.07,3.72,3.72,0,0,0-2.93,1.4,5,5,0,0,0-1.18,3.44v8h-1.64Z"/><path class="cls-4" d="M222.13,234a9.72,9.72,0,0,1,1.58,5.57H212.42a6.54,6.54,0,0,0,1.37,4,4.37,4.37,0,0,0,3.44,1.45,4.7,4.7,0,0,0,3.07-1,5.27,5.27,0,0,0,1.48-2.45h1.64a6.44,6.44,0,0,1-1.86,3.31,6.21,6.21,0,0,1-4.33,1.53,5.89,5.89,0,0,1-4.67-2,7.66,7.66,0,0,1-1.8-5.35,7.74,7.74,0,0,1,1.72-5.13,6.38,6.38,0,0,1,9.65,0Zm-8.23.59a6.1,6.1,0,0,0-1.45,3.66H222q-.41-5.08-4.81-5.08A4.17,4.17,0,0,0,213.9,234.57Z"/><path class="cls-4" d="M236.22,233a5.28,5.28,0,0,1,1.91,3.71h-1.62a4,4,0,0,0-1.4-2.64,4.63,4.63,0,0,0-3-.88,4.17,4.17,0,0,0-3.5,1.69,8.07,8.07,0,0,0,0,8.58,4.14,4.14,0,0,0,3.52,1.58c2.58,0,4.07-1.31,4.46-3.95h1.59a6.36,6.36,0,0,1-2,4,6,6,0,0,1-4.06,1.34,5.83,5.83,0,0,1-4.79-2.09,7.85,7.85,0,0,1-1.58-5.14A8.13,8.13,0,0,1,227.4,234a5.68,5.68,0,0,1,4.76-2.2A6.43,6.43,0,0,1,236.22,233Z"/><path class="cls-4" d="M240.76,226.45h1.61v12.69l7.72-7h2.21l-6.11,5.51,6.73,8.39h-2.13L245,238.69l-2.67,2.42V246h-1.61Z"/><path class="cls-4" d="M273.48,233a5.24,5.24,0,0,1,1.91,3.71h-1.61a4,4,0,0,0-1.4-2.64,4.66,4.66,0,0,0-3-.88,4.15,4.15,0,0,0-3.49,1.69,6.73,6.73,0,0,0-1.27,4.33,6.87,6.87,0,0,0,1.21,4.25A4.16,4.16,0,0,0,269.4,245c2.58,0,4.07-1.31,4.46-3.95h1.59a6.4,6.4,0,0,1-2,4,6,6,0,0,1-4.06,1.34,5.82,5.82,0,0,1-4.79-2.09,7.8,7.8,0,0,1-1.59-5.14,8.13,8.13,0,0,1,1.64-5.22,5.71,5.71,0,0,1,4.76-2.2A6.41,6.41,0,0,1,273.48,233Z"/><path class="cls-4" d="M289,234a8.58,8.58,0,0,1,0,10.25,6.6,6.6,0,0,1-9.84,0,7.79,7.79,0,0,1-1.69-5.11,7.71,7.71,0,0,1,1.72-5.14,6,6,0,0,1,4.89-2.2A6.09,6.09,0,0,1,289,234Zm-8.65,1a7.4,7.4,0,0,0,0,8.2A4.4,4.4,0,0,0,284.1,245a4.45,4.45,0,0,0,3.77-1.82,6.77,6.77,0,0,0,1.24-4.09,6.65,6.65,0,0,0-1.24-4.11,4.41,4.41,0,0,0-3.77-1.83A4.36,4.36,0,0,0,280.37,235Z"/><path class="cls-4" d="M304.67,234a9.38,9.38,0,0,1,0,10.22,5.59,5.59,0,0,1-4.65,2.2,5.08,5.08,0,0,1-4.87-3.28v8.23h-1.61V232.13h1.53v2.74a5.11,5.11,0,0,1,4.89-3.12A5.58,5.58,0,0,1,304.67,234Zm-8.39.92a6.74,6.74,0,0,0-1.15,4.11v.29a6.54,6.54,0,0,0,1.23,4.12,4.1,4.1,0,0,0,3.39,1.61,4.35,4.35,0,0,0,3.66-1.72,7.09,7.09,0,0,0,1.13-4.19,7.2,7.2,0,0,0-1.11-4.2,4.18,4.18,0,0,0-3.62-1.8A4.09,4.09,0,0,0,296.28,234.9Z"/><path class="cls-4" d="M307.49,232.13h1.78l4.54,11.58,4.49-11.58h1.78l-7.67,19.22h-1.74l2.34-5.67Z"/><path class="cls-4" d="M329.76,232.05v1.64a7.31,7.31,0,0,0-2.13-.3,3.45,3.45,0,0,0-3,1.67,6,6,0,0,0-1.1,3.63V246h-1.61v-13.9h1.61v2.66a5.15,5.15,0,0,1,1.53-2.07,4,4,0,0,1,2.69-1A5.48,5.48,0,0,1,329.76,232.05Z"/><path class="cls-4" d="M334.17,227.53a1.12,1.12,0,0,1,.4.94,1.33,1.33,0,0,1-.43,1,1.4,1.4,0,0,1-.94.37,1.32,1.32,0,0,1-1.37-1.34,1.12,1.12,0,0,1,.4-.94,1.27,1.27,0,0,1,1-.4A1.31,1.31,0,0,1,334.17,227.53Zm-1.78,4.6H334V246h-1.62Z"/><path class="cls-4" d="M348.9,234.92v-2.79h1.61V245q0,6.74-6.23,6.73a6.71,6.71,0,0,1-4.23-1.19,5.08,5.08,0,0,1-1.77-3.33h1.61a3.62,3.62,0,0,0,1.29,2.31,4.83,4.83,0,0,0,3.1.86q4.62,0,4.62-5.19v-2.66a5.15,5.15,0,0,1-5,3.17,5.77,5.77,0,0,1-4.65-2.07,8.19,8.19,0,0,1,0-9.78,5.73,5.73,0,0,1,4.65-2.1A5.17,5.17,0,0,1,348.9,234.92Zm-8.36-.13a6,6,0,0,0-1.24,4,6.17,6.17,0,0,0,1.16,3.87,4.25,4.25,0,0,0,3.63,1.7,4.34,4.34,0,0,0,3.6-1.62,7.05,7.05,0,0,0,0-7.9,4.66,4.66,0,0,0-7.15,0Z"/><path class="cls-4" d="M353.9,226.45h1.64v8.2a5.34,5.34,0,0,1,1.94-2.17,5.4,5.4,0,0,1,6.34.67,5.58,5.58,0,0,1,1.35,4V246h-1.62v-8.66a4.59,4.59,0,0,0-1-3.15,3.86,3.86,0,0,0-2.87-1.07,3.74,3.74,0,0,0-2.94,1.4,5,5,0,0,0-1.18,3.44v8H353.9Z"/><path class="cls-4" d="M371.92,227.64v4.49h3.63v1.39h-3.63v9.42a2.15,2.15,0,0,0,.32,1.31,1.56,1.56,0,0,0,1.21.38h1.75V246h-2a2.87,2.87,0,0,1-2.32-.84,3.34,3.34,0,0,1-.62-2.25v-9.42h-2.95v-1.39h2.95v-3.82Z"/><path class="cls-4" d="M116.25,268.55a9.35,9.35,0,0,1,0,10.22,5.57,5.57,0,0,1-4.65,2.2,5.09,5.09,0,0,1-4.87-3.28v8.23h-1.61V266.7h1.53v2.74a5.13,5.13,0,0,1,4.9-3.12A5.59,5.59,0,0,1,116.25,268.55Zm-8.39.92a6.74,6.74,0,0,0-1.16,4.11v.29a6.48,6.48,0,0,0,1.24,4.12,4.09,4.09,0,0,0,3.39,1.61,4.31,4.31,0,0,0,3.65-1.72,7,7,0,0,0,1.13-4.19,7.27,7.27,0,0,0-1.1-4.2,4.21,4.21,0,0,0-3.63-1.8A4.06,4.06,0,0,0,107.86,269.47Z"/><path class="cls-4" d="M128.48,266.62v1.64a7.29,7.29,0,0,0-2.12-.3,3.45,3.45,0,0,0-3,1.67,6,6,0,0,0-1.1,3.63v7.34h-1.61V266.7h1.61v2.66a5.15,5.15,0,0,1,1.53-2.07,4,4,0,0,1,2.69-1A5.44,5.44,0,0,1,128.48,266.62Z"/><path class="cls-4" d="M141.31,268.52a8.62,8.62,0,0,1,0,10.25,6.6,6.6,0,0,1-9.84,0,7.8,7.8,0,0,1-1.7-5.11,7.71,7.71,0,0,1,1.72-5.14,6,6,0,0,1,4.89-2.2A6.12,6.12,0,0,1,141.31,268.52Zm-8.66,1a7.4,7.4,0,0,0,0,8.2,4.77,4.77,0,0,0,7.5,0,6.77,6.77,0,0,0,1.24-4.09,6.65,6.65,0,0,0-1.24-4.11,4.41,4.41,0,0,0-3.77-1.83A4.36,4.36,0,0,0,132.65,269.55Z"/><path class="cls-4" d="M149.21,262.21v4.49h3.63v1.39h-3.63v9.41a2.17,2.17,0,0,0,.32,1.32,1.56,1.56,0,0,0,1.21.38h1.75v1.4h-2a2.83,2.83,0,0,1-2.31-.84,3.32,3.32,0,0,1-.62-2.26v-9.41h-3V266.7h3v-3.82Z"/><path class="cls-4" d="M165.85,268.55a9.64,9.64,0,0,1,1.59,5.57H156.15a6.48,6.48,0,0,0,1.37,4,4.36,4.36,0,0,0,3.44,1.45,4.65,4.65,0,0,0,3.06-1,5.18,5.18,0,0,0,1.48-2.45h1.64a6.49,6.49,0,0,1-1.85,3.31A6.21,6.21,0,0,1,161,281a5.92,5.92,0,0,1-4.68-2,7.66,7.66,0,0,1-1.8-5.35,7.74,7.74,0,0,1,1.72-5.13,6.38,6.38,0,0,1,9.65.05Zm-8.23.59a6.16,6.16,0,0,0-1.45,3.66h9.58q-.41-5.08-4.82-5.08A4.17,4.17,0,0,0,157.62,269.14Z"/><path class="cls-4" d="M179.94,267.53a5.24,5.24,0,0,1,1.91,3.71h-1.61a4,4,0,0,0-1.4-2.64,4.66,4.66,0,0,0-3-.88,4.15,4.15,0,0,0-3.49,1.69,6.73,6.73,0,0,0-1.27,4.33,6.89,6.89,0,0,0,1.21,4.25,4.16,4.16,0,0,0,3.53,1.58c2.58,0,4.07-1.31,4.46-3.95h1.59a6.4,6.4,0,0,1-2,4,6,6,0,0,1-4.06,1.34,5.82,5.82,0,0,1-4.79-2.09,7.8,7.8,0,0,1-1.59-5.14,8.13,8.13,0,0,1,1.64-5.22,5.71,5.71,0,0,1,4.76-2.2A6.41,6.41,0,0,1,179.94,267.53Z"/><path class="cls-4" d="M187.85,262.21v4.49h3.63v1.39h-3.63v9.41a2.17,2.17,0,0,0,.32,1.32,1.56,1.56,0,0,0,1.21.38h1.75v1.4h-2a2.87,2.87,0,0,1-2.32-.84,3.37,3.37,0,0,1-.62-2.26v-9.41h-2.95V266.7h2.95v-3.82Z"/><path class="cls-4" d="M196.5,262.1a1.13,1.13,0,0,1,.41.94,1.33,1.33,0,0,1-.43,1,1.4,1.4,0,0,1-.94.37,1.32,1.32,0,0,1-1.37-1.34,1.12,1.12,0,0,1,.4-.94,1.25,1.25,0,0,1,1-.4A1.29,1.29,0,0,1,196.5,262.1Zm-1.77,4.6h1.61v13.9h-1.61Z"/><path class="cls-4" d="M211.54,268.52a8.62,8.62,0,0,1,0,10.25,6.61,6.61,0,0,1-9.85,0,7.85,7.85,0,0,1-1.69-5.11,7.71,7.71,0,0,1,1.72-5.14,6,6,0,0,1,4.89-2.2A6.12,6.12,0,0,1,211.54,268.52Zm-8.66,1a7.4,7.4,0,0,0,0,8.2,4.4,4.4,0,0,0,3.73,1.82,4.45,4.45,0,0,0,3.77-1.82,6.77,6.77,0,0,0,1.24-4.09,6.65,6.65,0,0,0-1.24-4.11,4.41,4.41,0,0,0-3.77-1.83A4.36,4.36,0,0,0,202.88,269.55Z"/><path class="cls-4" d="M227.37,272.05v8.55h-1.61v-8.45q0-4.42-3.95-4.43a3.65,3.65,0,0,0-2.8,1.21,4.9,4.9,0,0,0-1.32,3.28v8.39h-1.61V266.7h1.61V269a5.61,5.61,0,0,1,1.88-2,4.89,4.89,0,0,1,2.64-.7Q227.37,266.32,227.37,272.05Z"/><circle class="cls-3" cx="92.11" cy="327.02" r="3.67"/><path class="cls-4" d="M105.14,318.05H112q4.48,0,6.75,2.69c1.38,1.63,2.07,3.94,2.07,6.91a10,10,0,0,1-2.31,6.94,8.82,8.82,0,0,1-6.86,2.66h-6.48Zm1.64,1.45v16.3h4.6a7.6,7.6,0,0,0,5.86-2.18,8.49,8.49,0,0,0,1.94-6q0-4-1.7-6c-1.22-1.43-3.13-2.15-5.75-2.15Z"/><path class="cls-4" d="M126.22,318.75a1.14,1.14,0,0,1,.4.94,1.33,1.33,0,0,1-.43,1,1.39,1.39,0,0,1-.94.38,1.33,1.33,0,0,1-1-.38,1.35,1.35,0,0,1-.4-1,1.17,1.17,0,0,1,.4-.94,1.27,1.27,0,0,1,1-.4A1.31,1.31,0,0,1,126.22,318.75Zm-1.78,4.6h1.62v13.9h-1.62Z"/><path class="cls-4" d="M140.53,327.25h-1.59a3.32,3.32,0,0,0-1.16-2.13,4.46,4.46,0,0,0-2.82-.75,4.51,4.51,0,0,0-2.5.62,1.84,1.84,0,0,0,.27,3.36,18.73,18.73,0,0,0,2.93,1,14,14,0,0,1,3.6,1.29,3.14,3.14,0,0,1,1.67,2.79c0,2.82-1.88,4.22-5.65,4.22q-5.35,0-5.83-4.75H131a3.76,3.76,0,0,0,1.29,2.63,4.87,4.87,0,0,0,2.91.73q4,0,4-2.75a2.1,2.1,0,0,0-1.37-1.93,18.89,18.89,0,0,0-3.09-1,13.3,13.3,0,0,1-3.39-1.24,2.93,2.93,0,0,1-1.59-2.66,3.12,3.12,0,0,1,1.51-2.71,6.21,6.21,0,0,1,3.66-1Q139.93,323,140.53,327.25Z"/><path class="cls-4" d="M146.87,318.86v4.49h3.63v1.4h-3.63v9.41a2.13,2.13,0,0,0,.32,1.31,1.53,1.53,0,0,0,1.21.38h1.75v1.4h-2a2.86,2.86,0,0,1-2.31-.83,3.34,3.34,0,0,1-.62-2.26v-9.41h-3v-1.4h3v-3.82Z"/><path class="cls-4" d="M160.8,323.27v1.64a7.36,7.36,0,0,0-2.13-.3,3.45,3.45,0,0,0-3,1.67,6,6,0,0,0-1.1,3.63v7.34H153v-13.9h1.61V326a5.15,5.15,0,0,1,1.53-2.07,4,4,0,0,1,2.69-1A5.48,5.48,0,0,1,160.8,323.27Z"/><path class="cls-4" d="M165.21,318.75a1.14,1.14,0,0,1,.4.94,1.33,1.33,0,0,1-.43,1,1.41,1.41,0,0,1-.94.38,1.33,1.33,0,0,1-1.37-1.35,1.14,1.14,0,0,1,.4-.94,1.25,1.25,0,0,1,1-.4A1.31,1.31,0,0,1,165.21,318.75Zm-1.78,4.6H165v13.9h-1.61Z"/><path class="cls-4" d="M169.24,317.68h1.61v8.6a5.11,5.11,0,0,1,4.87-3.31,5.49,5.49,0,0,1,4.63,2.23,9.3,9.3,0,0,1,0,10.22,5.62,5.62,0,0,1-4.68,2.2,5,5,0,0,1-4.9-3.11v2.74h-1.53ZM172,326a6.57,6.57,0,0,0-1.24,4.17v.32a6.59,6.59,0,0,0,1.16,4,4.07,4.07,0,0,0,3.52,1.72,4.23,4.23,0,0,0,3.63-1.77,7.11,7.11,0,0,0,1.13-4.19,6.85,6.85,0,0,0-1.16-4.17,4.24,4.24,0,0,0-3.66-1.78A4,4,0,0,0,172,326Z"/><path class="cls-4" d="M184.73,323.35h1.61v8.49a5,5,0,0,0,.91,3.26,3.74,3.74,0,0,0,3,1.13,3.85,3.85,0,0,0,2.82-1.24,4.86,4.86,0,0,0,1.37-3.2v-8.44h1.62v13.9h-1.62v-2.34a5.08,5.08,0,0,1-4.62,2.71c-3.39,0-5.08-1.89-5.08-5.69Z"/><path class="cls-4" d="M202.8,318.86v4.49h3.63v1.4H202.8v9.41a2.07,2.07,0,0,0,.32,1.31,1.51,1.51,0,0,0,1.21.38h1.75v1.4h-2a2.89,2.89,0,0,1-2.31-.83,3.39,3.39,0,0,1-.62-2.26v-9.41h-3v-1.4h3v-3.82Z"/><path class="cls-4" d="M219.44,325.2a9.74,9.74,0,0,1,1.59,5.57h-11.3a6.59,6.59,0,0,0,1.37,4,4.41,4.41,0,0,0,3.45,1.45,4.69,4.69,0,0,0,3.06-1,5.15,5.15,0,0,0,1.48-2.44h1.64a6.45,6.45,0,0,1-1.86,3.3,6.18,6.18,0,0,1-4.32,1.53,5.92,5.92,0,0,1-4.68-2,8.7,8.7,0,0,1-.08-10.49,6.38,6.38,0,0,1,9.65.05Zm-8.23.6a6.1,6.1,0,0,0-1.45,3.65h9.57q-.41-5.08-4.81-5.08A4.15,4.15,0,0,0,211.21,325.8Z"/><path class="cls-4" d="M234.09,317.68h1.62v19.57h-1.54v-2.74a5,5,0,0,1-4.86,3.11,5.65,5.65,0,0,1-4.71-2.2,9.3,9.3,0,0,1,0-10.22,5.46,5.46,0,0,1,4.63-2.23,5.09,5.09,0,0,1,4.86,3.31Zm-8.23,8.44a6.69,6.69,0,0,0-1.15,4.17,7.11,7.11,0,0,0,1.13,4.19,4.18,4.18,0,0,0,3.63,1.77,4.11,4.11,0,0,0,3.52-1.72,6.74,6.74,0,0,0,1.16-4v-.32a6.75,6.75,0,0,0-1.24-4.17,4,4,0,0,0-3.39-1.67A4.26,4.26,0,0,0,225.86,326.12Z"/><path class="cls-4" d="M258.32,327.25h-1.59a3.27,3.27,0,0,0-1.16-2.13,4.44,4.44,0,0,0-2.82-.75,4.51,4.51,0,0,0-2.5.62,1.94,1.94,0,0,0-1,1.67,1.92,1.92,0,0,0,1.24,1.69,19.12,19.12,0,0,0,2.93,1,14,14,0,0,1,3.6,1.29,3.14,3.14,0,0,1,1.67,2.79c0,2.82-1.88,4.22-5.65,4.22-3.56,0-5.51-1.58-5.83-4.75h1.59a3.76,3.76,0,0,0,1.29,2.63,4.82,4.82,0,0,0,2.9.73q4,0,4-2.75a2.09,2.09,0,0,0-1.37-1.93,18.89,18.89,0,0,0-3.09-1,13.3,13.3,0,0,1-3.39-1.24,2.94,2.94,0,0,1-1.58-2.66,3.13,3.13,0,0,1,1.5-2.71,6.21,6.21,0,0,1,3.66-1C256.08,323,257.92,324.4,258.32,327.25Z"/><path class="cls-4" d="M272.3,325.18a8.6,8.6,0,0,1,0,10.24,6.6,6.6,0,0,1-9.84,0,7.8,7.8,0,0,1-1.7-5.11,7.72,7.72,0,0,1,1.72-5.13,6,6,0,0,1,4.9-2.21A6.12,6.12,0,0,1,272.3,325.18Zm-8.66,1a7.4,7.4,0,0,0,0,8.2,4.76,4.76,0,0,0,7.5,0,6.71,6.71,0,0,0,1.24-4.09,6.59,6.59,0,0,0-1.24-4.11,4.76,4.76,0,0,0-7.5,0Z"/><path class="cls-4" d="M286.76,324.18a5.24,5.24,0,0,1,1.91,3.71h-1.61a4,4,0,0,0-1.4-2.63,4.66,4.66,0,0,0-3-.89,4.15,4.15,0,0,0-3.49,1.69,6.74,6.74,0,0,0-1.27,4.33,6.87,6.87,0,0,0,1.21,4.25,4.16,4.16,0,0,0,3.53,1.59q3.87,0,4.46-4h1.59a6.38,6.38,0,0,1-2,4,6,6,0,0,1-4.06,1.34,5.79,5.79,0,0,1-4.79-2.09,7.78,7.78,0,0,1-1.59-5.14,8.08,8.08,0,0,1,1.64-5.21A5.72,5.72,0,0,1,282.7,323,6.41,6.41,0,0,1,286.76,324.18Z"/><path class="cls-4" d="M293.89,318.75a1.14,1.14,0,0,1,.4.94,1.33,1.33,0,0,1-.43,1,1.41,1.41,0,0,1-.94.38,1.33,1.33,0,0,1-1-.38,1.31,1.31,0,0,1-.4-1,1.14,1.14,0,0,1,.4-.94,1.27,1.27,0,0,1,1-.4A1.31,1.31,0,0,1,293.89,318.75Zm-1.78,4.6h1.62v13.9h-1.62Z"/><path class="cls-4" d="M308.14,324.56a5.39,5.39,0,0,1,1.24,3.74v8.95h-1.54v-2.66a7.24,7.24,0,0,1-2.25,2.07,7.09,7.09,0,0,1-3.63,1,5,5,0,0,1-3.31-1,3.61,3.61,0,0,1-1.27-2.88,4.12,4.12,0,0,1,2.18-3.87,9.44,9.44,0,0,1,4.65-1l3.55,0v-.51q0-4-4-4a4.76,4.76,0,0,0-2.9.78,3.31,3.31,0,0,0-1.43,2.42h-1.58a4.8,4.8,0,0,1,2-3.49,6.78,6.78,0,0,1,4-1.08A5.47,5.47,0,0,1,308.14,324.56Zm-.38,5.56-3.46,0c-3.52,0-5.27,1.19-5.27,3.52a2.34,2.34,0,0,0,.88,1.89,3.59,3.59,0,0,0,2.37.72,5.77,5.77,0,0,0,3.87-1.45,4.13,4.13,0,0,0,1.61-3.09Z"/><path class="cls-4" d="M313.28,317.68h1.61v19.57h-1.61Z"/><path class="cls-4" d="M338.74,325.18a8.6,8.6,0,0,1,0,10.24,6.6,6.6,0,0,1-9.84,0,7.8,7.8,0,0,1-1.7-5.11,7.72,7.72,0,0,1,1.72-5.13,6,6,0,0,1,4.9-2.21A6.12,6.12,0,0,1,338.74,325.18Zm-8.66,1a7.4,7.4,0,0,0,0,8.2,4.76,4.76,0,0,0,7.5,0,6.71,6.71,0,0,0,1.24-4.09,6.59,6.59,0,0,0-1.24-4.11,4.76,4.76,0,0,0-7.5,0Z"/><path class="cls-4" d="M354.57,328.7v8.55H353v-8.44q0-4.44-3.95-4.44a3.67,3.67,0,0,0-2.8,1.21,4.9,4.9,0,0,0-1.32,3.28v8.39h-1.61v-13.9h1.61v2.28a5.73,5.73,0,0,1,1.89-2,4.94,4.94,0,0,1,2.63-.7Q354.57,323,354.57,328.7Z"/><path class="cls-4" d="M358.47,317.68h1.61v19.57h-1.61Z"/><path class="cls-4" d="M366.56,318.75a1.14,1.14,0,0,1,.41.94,1.33,1.33,0,0,1-.43,1,1.41,1.41,0,0,1-.94.38,1.33,1.33,0,0,1-1.37-1.35,1.14,1.14,0,0,1,.4-.94,1.25,1.25,0,0,1,1-.4A1.29,1.29,0,0,1,366.56,318.75Zm-1.77,4.6h1.61v13.9h-1.61Z"/><path class="cls-4" d="M381.89,328.7v8.55h-1.61v-8.44q0-4.44-3.95-4.44a3.65,3.65,0,0,0-2.8,1.21,4.9,4.9,0,0,0-1.32,3.28v8.39H370.6v-13.9h1.61v2.28a5.61,5.61,0,0,1,1.88-2,5,5,0,0,1,2.64-.7Q381.89,323,381.89,328.7Z"/><path class="cls-4" d="M395.84,325.2a9.67,9.67,0,0,1,1.59,5.57H386.14a6.53,6.53,0,0,0,1.37,4,4.4,4.4,0,0,0,3.44,1.45,4.7,4.7,0,0,0,3.07-1,5.22,5.22,0,0,0,1.47-2.44h1.64a6.5,6.5,0,0,1-1.85,3.3,6.21,6.21,0,0,1-4.33,1.53,5.94,5.94,0,0,1-4.68-2,8.7,8.7,0,0,1-.08-10.49,6.38,6.38,0,0,1,9.65.05Zm-8.22.6a6.1,6.1,0,0,0-1.46,3.65h9.58q-.4-5.08-4.82-5.08A4.11,4.11,0,0,0,387.62,325.8Z"/><circle class="cls-3" cx="92.11" cy="391.43" r="3.67"/><path class="cls-4" d="M106.22,381.43H114q6.39,0,6.39,5.51c0,3.7-2.14,5.54-6.42,5.54h-6.13v8.15h-1.64Zm1.64,1.45V391h6a5.67,5.67,0,0,0,3.68-1,3.88,3.88,0,0,0,1.16-3.07,3.77,3.77,0,0,0-1.16-3,5.48,5.48,0,0,0-3.68-1.05Z"/><path class="cls-4" d="M134,388.56a8.56,8.56,0,0,1,0,10.24,6.58,6.58,0,0,1-9.84,0,7.79,7.79,0,0,1-1.69-5.11,7.67,7.67,0,0,1,1.72-5.13,6,6,0,0,1,4.89-2.21A6.09,6.09,0,0,1,134,388.56Zm-8.66,1a7.45,7.45,0,0,0,0,8.2,4.77,4.77,0,0,0,7.51,0,6.77,6.77,0,0,0,1.23-4.09,6.64,6.64,0,0,0-1.23-4.11,4.77,4.77,0,0,0-7.51,0Z"/><path class="cls-4" d="M141.12,382.13a1.14,1.14,0,0,1,.4.94,1.33,1.33,0,0,1-.43,1,1.41,1.41,0,0,1-.94.38,1.33,1.33,0,0,1-1.37-1.35,1.14,1.14,0,0,1,.4-.94,1.25,1.25,0,0,1,1-.4A1.31,1.31,0,0,1,141.12,382.13Zm-1.78,4.6H141v13.9h-1.62Z"/><path class="cls-4" d="M156.44,392.08v8.55h-1.61v-8.44q0-4.44-4-4.44a3.65,3.65,0,0,0-2.8,1.21,4.9,4.9,0,0,0-1.32,3.28v8.39h-1.61v-13.9h1.61V389a5.79,5.79,0,0,1,1.88-2,5,5,0,0,1,2.64-.7Q156.44,386.35,156.44,392.08Z"/><path class="cls-4" d="M163.19,382.24v4.49h3.63v1.4h-3.63v9.41a2.17,2.17,0,0,0,.32,1.32,1.56,1.56,0,0,0,1.21.37h1.75v1.4h-2a2.86,2.86,0,0,1-2.31-.83,3.34,3.34,0,0,1-.62-2.26v-9.41h-3v-1.4h3v-3.82Z"/><path class="cls-4" d="M178.49,381.43h6.83q4.49,0,6.75,2.69c1.38,1.63,2.07,3.94,2.07,6.91a10,10,0,0,1-2.31,6.94,8.82,8.82,0,0,1-6.86,2.66h-6.48Zm1.64,1.45v16.3h4.6a7.61,7.61,0,0,0,5.86-2.18,8.49,8.49,0,0,0,1.93-6q0-4-1.69-6-1.83-2.16-5.75-2.16Z"/><path class="cls-4" d="M208,388.56a8.6,8.6,0,0,1,0,10.24,6.58,6.58,0,0,1-9.84,0,7.8,7.8,0,0,1-1.7-5.11,7.67,7.67,0,0,1,1.72-5.13,6,6,0,0,1,4.9-2.21A6.12,6.12,0,0,1,208,388.56Zm-8.66,1a7.4,7.4,0,0,0,0,8.2,4.76,4.76,0,0,0,7.5,0,6.77,6.77,0,0,0,1.24-4.09,6.65,6.65,0,0,0-1.24-4.11,4.76,4.76,0,0,0-7.5,0Z"/><path class="cls-4" d="M222.45,387.56a5.3,5.3,0,0,1,1.91,3.71h-1.61a4,4,0,0,0-1.4-2.63,4.66,4.66,0,0,0-3-.89,4.17,4.17,0,0,0-3.49,1.69,6.74,6.74,0,0,0-1.27,4.33,6.85,6.85,0,0,0,1.21,4.25,4.16,4.16,0,0,0,3.52,1.59q3.87,0,4.47-3.95h1.58a6.33,6.33,0,0,1-2,4,6,6,0,0,1-4.06,1.35,5.79,5.79,0,0,1-4.78-2.1,7.78,7.78,0,0,1-1.59-5.14,8.08,8.08,0,0,1,1.64-5.21,5.7,5.7,0,0,1,4.76-2.21A6.47,6.47,0,0,1,222.45,387.56Z"/><path class="cls-4" d="M227,381.06h1.61v12.69l7.72-7h2.2l-6.1,5.51,6.72,8.39H237l-5.75-7.34-2.66,2.42v4.92H227Z"/><path class="cls-4" d="M255.79,381.43h1.94l7.69,19.2h-1.81l-2.23-5.73h-9.25l-2.23,5.73h-1.8Zm-3.12,12.07h8.17l-4-10.29h-.08Z"/><path class="cls-4" d="M277,387.56a5.26,5.26,0,0,1,1.91,3.71h-1.61a4,4,0,0,0-1.4-2.63,4.66,4.66,0,0,0-3-.89,4.17,4.17,0,0,0-3.49,1.69,6.74,6.74,0,0,0-1.27,4.33,6.85,6.85,0,0,0,1.21,4.25,4.16,4.16,0,0,0,3.53,1.59q3.87,0,4.46-3.95H279a6.38,6.38,0,0,1-2,4A6,6,0,0,1,273,401a5.8,5.8,0,0,1-4.79-2.1,7.78,7.78,0,0,1-1.59-5.14,8.08,8.08,0,0,1,1.64-5.21,5.72,5.72,0,0,1,4.76-2.21A6.47,6.47,0,0,1,277,387.56Z"/><path class="cls-4" d="M291.5,387.56a5.34,5.34,0,0,1,1.91,3.71h-1.62a3.93,3.93,0,0,0-1.4-2.63,4.63,4.63,0,0,0-2.95-.89,4.19,4.19,0,0,0-3.5,1.69,8.07,8.07,0,0,0-.05,8.58,4.14,4.14,0,0,0,3.52,1.59q3.87,0,4.46-3.95h1.59a6.33,6.33,0,0,1-2,4,6,6,0,0,1-4.06,1.35,5.81,5.81,0,0,1-4.79-2.1,7.83,7.83,0,0,1-1.58-5.14,8,8,0,0,1,1.64-5.21,5.69,5.69,0,0,1,4.76-2.21A6.49,6.49,0,0,1,291.5,387.56Z"/><path class="cls-4" d="M306.61,388.59a9.69,9.69,0,0,1,1.58,5.56H296.9a6.59,6.59,0,0,0,1.37,4,4.4,4.4,0,0,0,3.44,1.45,4.65,4.65,0,0,0,3.07-1,5.23,5.23,0,0,0,1.48-2.44h1.64a6.45,6.45,0,0,1-1.86,3.3,6.17,6.17,0,0,1-4.33,1.54,5.92,5.92,0,0,1-4.67-2,7.64,7.64,0,0,1-1.81-5.35,7.76,7.76,0,0,1,1.73-5.14,6.37,6.37,0,0,1,9.65.06Zm-8.23.59a6.1,6.1,0,0,0-1.45,3.65h9.57q-.4-5.08-4.81-5.08A4.18,4.18,0,0,0,298.38,389.18Z"/><path class="cls-4" d="M321.05,390.63h-1.59a3.27,3.27,0,0,0-1.16-2.13,4.44,4.44,0,0,0-2.82-.75,4.51,4.51,0,0,0-2.5.62,2,2,0,0,0-1,1.67,1.91,1.91,0,0,0,1.24,1.69,18.73,18.73,0,0,0,2.93,1,14,14,0,0,1,3.6,1.29,3.14,3.14,0,0,1,1.67,2.8q0,4.21-5.65,4.22c-3.56,0-5.51-1.59-5.83-4.76h1.59a3.74,3.74,0,0,0,1.29,2.63,4.75,4.75,0,0,0,2.9.73c2.69,0,4-.92,4-2.74a2.09,2.09,0,0,0-1.37-1.94,18.89,18.89,0,0,0-3.09-1,13.3,13.3,0,0,1-3.39-1.24,2.92,2.92,0,0,1-1.58-2.66,3.13,3.13,0,0,1,1.5-2.71,6.28,6.28,0,0,1,3.66-1C318.81,386.35,320.65,387.78,321.05,390.63Z"/><path class="cls-4" d="M334.3,390.63h-1.58a3.32,3.32,0,0,0-1.16-2.13,5.52,5.52,0,0,0-5.32-.13,1.93,1.93,0,0,0-1,1.67,1.91,1.91,0,0,0,1.24,1.69,18.73,18.73,0,0,0,2.93,1A14,14,0,0,1,333,394a3.14,3.14,0,0,1,1.67,2.8c0,2.81-1.89,4.22-5.65,4.22-3.57,0-5.51-1.59-5.84-4.76h1.59a3.74,3.74,0,0,0,1.29,2.63,4.8,4.8,0,0,0,2.91.73c2.68,0,4-.92,4-2.74a2.11,2.11,0,0,0-1.37-1.94,19.24,19.24,0,0,0-3.09-1,13.15,13.15,0,0,1-3.39-1.24,2.93,2.93,0,0,1-1.59-2.66,3.12,3.12,0,0,1,1.51-2.71,6.27,6.27,0,0,1,3.65-1Q333.71,386.35,334.3,390.63Z"/><path class="cls-4" d="M117.48,417.16a6.1,6.1,0,0,1,2.15,4.52H118a5.33,5.33,0,0,0-1.69-3.42,5.79,5.79,0,0,0-3.87-1.16,7.09,7.09,0,0,0-3.66.81,2.92,2.92,0,0,0-1.5,2.72,2.88,2.88,0,0,0,1.8,2.55,27.34,27.34,0,0,0,3.68,1.24,23.4,23.4,0,0,1,5,1.83,4.46,4.46,0,0,1,2.39,4,4.56,4.56,0,0,1-2.07,3.93,9,9,0,0,1-5.24,1.37,8.23,8.23,0,0,1-5.22-1.51,6.9,6.9,0,0,1-2.42-5.22h1.61a5.84,5.84,0,0,0,1.89,4,6.39,6.39,0,0,0,4.11,1.18,7.78,7.78,0,0,0,4.12-1,3.13,3.13,0,0,0,1.55-2.72,3.39,3.39,0,0,0-2-3.07,20.9,20.9,0,0,0-4.22-1.47,23.75,23.75,0,0,1-4.41-1.54,3.9,3.9,0,0,1-2.2-3.6,4.26,4.26,0,0,1,2.07-3.82,8.41,8.41,0,0,1,4.78-1.23A7.6,7.6,0,0,1,117.48,417.16Z"/><path class="cls-4" d="M121.11,421.3h1.78l4.54,11.59,4.49-11.59h1.78L126,440.52h-1.74l2.34-5.67Z"/><path class="cls-4" d="M145.8,425.2h-1.59a3.32,3.32,0,0,0-1.16-2.13,4.46,4.46,0,0,0-2.82-.75,4.51,4.51,0,0,0-2.5.62,1.93,1.93,0,0,0-1,1.67A1.91,1.91,0,0,0,138,426.3a18.73,18.73,0,0,0,2.93,1,14,14,0,0,1,3.6,1.29,3.14,3.14,0,0,1,1.67,2.8q0,4.22-5.65,4.22-5.36,0-5.83-4.76h1.58a3.78,3.78,0,0,0,1.29,2.63,4.8,4.8,0,0,0,2.91.73c2.69,0,4-.92,4-2.74a2.11,2.11,0,0,0-1.37-1.94,18.89,18.89,0,0,0-3.09-1,13.3,13.3,0,0,1-3.39-1.24,2.93,2.93,0,0,1-1.59-2.66,3.12,3.12,0,0,1,1.51-2.71,6.28,6.28,0,0,1,3.66-1Q145.2,420.92,145.8,425.2Z"/><path class="cls-4" d="M152.14,416.81v4.49h3.63v1.4h-3.63v9.41a2.17,2.17,0,0,0,.32,1.32,1.56,1.56,0,0,0,1.21.37h1.75v1.4h-2a2.86,2.86,0,0,1-2.31-.83,3.34,3.34,0,0,1-.62-2.26V422.7h-3v-1.4h3v-3.82Z"/><path class="cls-4" d="M168.78,423.16a9.61,9.61,0,0,1,1.59,5.56H159.08a6.53,6.53,0,0,0,1.37,4,4.4,4.4,0,0,0,3.44,1.45,4.65,4.65,0,0,0,3.07-1,5.31,5.31,0,0,0,1.48-2.44h1.63a6.43,6.43,0,0,1-1.85,3.3,6.17,6.17,0,0,1-4.33,1.54,6,6,0,0,1-4.68-2,7.68,7.68,0,0,1-1.8-5.35,7.8,7.8,0,0,1,1.72-5.14,6.37,6.37,0,0,1,9.65.06Zm-8.22.59a6.1,6.1,0,0,0-1.46,3.65h9.58q-.41-5.08-4.82-5.08A4.14,4.14,0,0,0,160.56,423.75Z"/><path class="cls-4" d="M183,423.77a5.47,5.47,0,0,1,1.86-2.12,4.36,4.36,0,0,1,2.53-.73,4.57,4.57,0,0,1,3.49,1.37,5.47,5.47,0,0,1,1.27,3.82v9.09h-1.62v-8.87a4.59,4.59,0,0,0-.8-3,3.43,3.43,0,0,0-2.77-1.05,3.2,3.2,0,0,0-2.53,1.16,4,4,0,0,0-1,2.87v8.85h-1.64v-8.87q0-4-3.47-4a3.21,3.21,0,0,0-2.61,1.26,4.51,4.51,0,0,0-1.08,3.07v8.55H173V421.3h1.61v2.1a4.54,4.54,0,0,1,4-2.48A4.19,4.19,0,0,1,183,423.77Z"/><circle class="cls-3" cx="92.11" cy="490.42" r="3.67"/><path class="cls-4" d="M105.14,480.69h1.64v11.78a6.88,6.88,0,0,0,1.35,4.65,6.9,6.9,0,0,0,9,0,7.06,7.06,0,0,0,1.34-4.65V480.69h1.64v11.78a8.3,8.3,0,0,1-1.8,5.72,7.33,7.33,0,0,1-5.67,2.07c-2.51,0-4.4-.68-5.65-2a8.22,8.22,0,0,1-1.83-5.75Z"/><path class="cls-4" d="M134,489.88h-1.59a3.31,3.31,0,0,0-1.15-2.12,4.49,4.49,0,0,0-2.83-.75,4.43,4.43,0,0,0-2.5.62,1.85,1.85,0,0,0,.27,3.36,18.29,18.29,0,0,0,2.93,1,13.55,13.55,0,0,1,3.61,1.3,3.13,3.13,0,0,1,1.66,2.79c0,2.82-1.88,4.22-5.64,4.22-3.57,0-5.52-1.58-5.84-4.76h1.59a3.79,3.79,0,0,0,1.29,2.64,4.82,4.82,0,0,0,2.9.72q4,0,4-2.74a2.1,2.1,0,0,0-1.38-1.93,17.92,17.92,0,0,0-3.09-1A13.3,13.3,0,0,1,124.9,492a3,3,0,0,1-1.58-2.66,3.15,3.15,0,0,1,1.5-2.72,6.28,6.28,0,0,1,3.66-1C131.78,485.61,133.62,487,134,489.88Z"/><path class="cls-4" d="M147.57,487.84a9.8,9.8,0,0,1,1.59,5.57h-11.3a6.54,6.54,0,0,0,1.37,4,4.38,4.38,0,0,0,3.45,1.45,4.69,4.69,0,0,0,3.06-1,5.27,5.27,0,0,0,1.48-2.45h1.64a6.44,6.44,0,0,1-1.86,3.31,6.2,6.2,0,0,1-4.32,1.53,5.89,5.89,0,0,1-4.68-2,7.66,7.66,0,0,1-1.8-5.35,7.74,7.74,0,0,1,1.72-5.13,6.38,6.38,0,0,1,9.65,0Zm-8.23.59a6.1,6.1,0,0,0-1.45,3.66h9.57q-.41-5.08-4.81-5.08A4.17,4.17,0,0,0,139.34,488.43Z"/><path class="cls-4" d="M161.74,488.46a5.47,5.47,0,0,1,1.85-2.13,4.36,4.36,0,0,1,2.53-.72,4.59,4.59,0,0,1,3.5,1.37,5.48,5.48,0,0,1,1.26,3.82v9.09h-1.61V491a4.52,4.52,0,0,0-.81-2.95,3.43,3.43,0,0,0-2.77-1.05,3.2,3.2,0,0,0-2.53,1.15,4.09,4.09,0,0,0-1,2.88v8.85H160.5V491q0-4-3.47-4a3.19,3.19,0,0,0-2.6,1.26,4.5,4.5,0,0,0-1.08,3.07v8.55h-1.61V486h1.61v2.09a4.52,4.52,0,0,1,4-2.47A4.19,4.19,0,0,1,161.74,488.46Z"/><path class="cls-4" d="M176.85,481.39a1.12,1.12,0,0,1,.4.94,1.33,1.33,0,0,1-.43,1,1.38,1.38,0,0,1-.94.37,1.32,1.32,0,0,1-1-.37,1.37,1.37,0,0,1-.4-1,1.15,1.15,0,0,1,.4-.94,1.27,1.27,0,0,1,1-.4A1.31,1.31,0,0,1,176.85,481.39Zm-1.78,4.6h1.62v13.9h-1.62Z"/><path class="cls-4" d="M192.17,491.34v8.55h-1.61v-8.45q0-4.43-3.95-4.43a3.68,3.68,0,0,0-2.8,1.21,4.9,4.9,0,0,0-1.32,3.28v8.39h-1.61V486h1.61v2.28a5.73,5.73,0,0,1,1.89-2,4.85,4.85,0,0,1,2.63-.7Q192.17,485.61,192.17,491.34Z"/><path class="cls-4" d="M206.13,487.84a9.64,9.64,0,0,1,1.59,5.57h-11.3a6.48,6.48,0,0,0,1.38,4,4.36,4.36,0,0,0,3.44,1.45,4.69,4.69,0,0,0,3.06-1,5.18,5.18,0,0,0,1.48-2.45h1.64a6.49,6.49,0,0,1-1.85,3.31,6.23,6.23,0,0,1-4.33,1.53,5.89,5.89,0,0,1-4.68-2,7.66,7.66,0,0,1-1.8-5.35,7.74,7.74,0,0,1,1.72-5.13,6.38,6.38,0,0,1,9.65,0Zm-8.23.59a6.16,6.16,0,0,0-1.45,3.66H206q-.41-5.08-4.81-5.08A4.17,4.17,0,0,0,197.9,488.43Z"/><path class="cls-4" d="M229.25,488.46a5.49,5.49,0,0,1,1.86-2.13,4.35,4.35,0,0,1,2.52-.72,4.59,4.59,0,0,1,3.5,1.37,5.48,5.48,0,0,1,1.26,3.82v9.09h-1.61V491a4.52,4.52,0,0,0-.81-2.95,3.41,3.41,0,0,0-2.76-1.05,3.17,3.17,0,0,0-2.53,1.15,4.1,4.1,0,0,0-1,2.88v8.85H228V491q0-4-3.47-4a3.21,3.21,0,0,0-2.61,1.26,4.5,4.5,0,0,0-1.08,3.07v8.55h-1.61V486h1.61v2.09a4.52,4.52,0,0,1,4-2.47A4.19,4.19,0,0,1,229.25,488.46Z"/><path class="cls-4" d="M244.36,481.39a1.13,1.13,0,0,1,.41.94,1.37,1.37,0,0,1-.43,1,1.41,1.41,0,0,1-1,.37,1.3,1.3,0,0,1-1-.37,1.34,1.34,0,0,1-.41-1,1.13,1.13,0,0,1,.41-.94,1.25,1.25,0,0,1,1-.4A1.31,1.31,0,0,1,244.36,481.39Zm-1.77,4.6h1.61v13.9h-1.61Z"/><path class="cls-4" d="M259.69,491.34v8.55h-1.62v-8.45c0-2.95-1.31-4.43-3.95-4.43a3.64,3.64,0,0,0-2.79,1.21A4.9,4.9,0,0,0,250,491.5v8.39H248.4V486H250v2.28a5.61,5.61,0,0,1,1.88-2,4.86,4.86,0,0,1,2.64-.7Q259.69,485.61,259.69,491.34Z"/><path class="cls-4" d="M265.66,481.39a1.12,1.12,0,0,1,.4.94,1.33,1.33,0,0,1-.43,1,1.4,1.4,0,0,1-.94.37,1.32,1.32,0,0,1-1.37-1.34,1.12,1.12,0,0,1,.4-.94,1.27,1.27,0,0,1,1-.4A1.31,1.31,0,0,1,265.66,481.39Zm-1.78,4.6h1.62v13.9h-1.62Z"/><path class="cls-4" d="M281,491.34v8.55h-1.61v-8.45q0-4.43-3.95-4.43a3.67,3.67,0,0,0-2.8,1.21,4.9,4.9,0,0,0-1.32,3.28v8.39h-1.61V486h1.61v2.28a5.64,5.64,0,0,1,1.89-2,4.85,4.85,0,0,1,2.63-.7Q281,485.61,281,491.34Z"/><path class="cls-4" d="M295.07,488.78V486h1.62v12.87q0,6.74-6.24,6.73a6.66,6.66,0,0,1-4.22-1.19,5,5,0,0,1-1.78-3.33h1.62a3.53,3.53,0,0,0,1.29,2.31,4.84,4.84,0,0,0,3.09.86q4.62,0,4.62-5.19v-2.66a5.15,5.15,0,0,1-5,3.17,5.77,5.77,0,0,1-4.65-2.07,8.19,8.19,0,0,1,0-9.78,5.73,5.73,0,0,1,4.65-2.1A5.17,5.17,0,0,1,295.07,488.78Zm-8.36-.13a6,6,0,0,0-1.24,4,6.17,6.17,0,0,0,1.16,3.87,4.24,4.24,0,0,0,3.63,1.69,4.34,4.34,0,0,0,3.6-1.61,7.05,7.05,0,0,0,0-7.9,4.66,4.66,0,0,0-7.15,0Z"/><path class="cls-4" d="M311.61,481.39a1.12,1.12,0,0,1,.4.94,1.33,1.33,0,0,1-.43,1,1.4,1.4,0,0,1-.94.37,1.32,1.32,0,0,1-1.37-1.34,1.12,1.12,0,0,1,.4-.94,1.27,1.27,0,0,1,1-.4A1.31,1.31,0,0,1,311.61,481.39Zm-1.78,4.6h1.62v13.9h-1.62Z"/><path class="cls-4" d="M326.93,491.34v8.55h-1.61v-8.45q0-4.43-3.95-4.43a3.67,3.67,0,0,0-2.8,1.21,4.9,4.9,0,0,0-1.32,3.28v8.39h-1.61V486h1.61v2.28a5.73,5.73,0,0,1,1.89-2,4.85,4.85,0,0,1,2.63-.7Q326.93,485.61,326.93,491.34Z"/><path class="cls-4" d="M340.24,486.82a5.24,5.24,0,0,1,1.91,3.71h-1.61a4,4,0,0,0-1.4-2.64,4.66,4.66,0,0,0-3-.88,4.15,4.15,0,0,0-3.49,1.69,6.73,6.73,0,0,0-1.27,4.33,6.89,6.89,0,0,0,1.21,4.25,4.15,4.15,0,0,0,3.52,1.58c2.59,0,4.07-1.31,4.47-3.95h1.59a6.4,6.4,0,0,1-2,4,6,6,0,0,1-4.07,1.34,5.79,5.79,0,0,1-4.78-2.1,7.75,7.75,0,0,1-1.59-5.13,8.11,8.11,0,0,1,1.64-5.22,5.71,5.71,0,0,1,4.76-2.2A6.41,6.41,0,0,1,340.24,486.82Z"/><path class="cls-4" d="M355.35,487.84a9.64,9.64,0,0,1,1.59,5.57H345.65a6.48,6.48,0,0,0,1.37,4,4.36,4.36,0,0,0,3.44,1.45,4.65,4.65,0,0,0,3.06-1,5.18,5.18,0,0,0,1.48-2.45h1.64a6.49,6.49,0,0,1-1.85,3.31,6.21,6.21,0,0,1-4.33,1.53,5.92,5.92,0,0,1-4.68-2,7.66,7.66,0,0,1-1.8-5.35,7.74,7.74,0,0,1,1.72-5.13,6.38,6.38,0,0,1,9.65,0Zm-8.23.59a6.16,6.16,0,0,0-1.45,3.66h9.58q-.4-5.08-4.82-5.08A4.17,4.17,0,0,0,347.12,488.43Z"/><path class="cls-4" d="M370.81,491.34v8.55H369.2v-8.45q0-4.43-3.95-4.43a3.67,3.67,0,0,0-2.8,1.21,4.9,4.9,0,0,0-1.32,3.28v8.39h-1.61V486h1.61v2.28a5.73,5.73,0,0,1,1.89-2,4.85,4.85,0,0,1,2.63-.7Q370.81,485.61,370.81,491.34Z"/><path class="cls-4" d="M377.56,481.5V486h3.63v1.39h-3.63v9.41a2.17,2.17,0,0,0,.32,1.32,1.56,1.56,0,0,0,1.21.38h1.75v1.4h-2a2.83,2.83,0,0,1-2.31-.84,3.32,3.32,0,0,1-.62-2.26v-9.41h-3V486h3v-3.82Z"/><path class="cls-4" d="M386.22,481.39a1.12,1.12,0,0,1,.4.94,1.33,1.33,0,0,1-.43,1,1.38,1.38,0,0,1-.94.37,1.32,1.32,0,0,1-1.37-1.34,1.12,1.12,0,0,1,.4-.94,1.27,1.27,0,0,1,1-.4A1.31,1.31,0,0,1,386.22,481.39Zm-1.78,4.6h1.62v13.9h-1.62Z"/><path class="cls-4" d="M388.69,486h1.78l4.38,11.85L399.21,486H401l-5.33,13.9H394Z"/><path class="cls-4" d="M413.4,487.84a9.64,9.64,0,0,1,1.59,5.57H403.7a6.48,6.48,0,0,0,1.37,4,4.36,4.36,0,0,0,3.44,1.45,4.65,4.65,0,0,0,3.06-1,5.18,5.18,0,0,0,1.48-2.45h1.64a6.49,6.49,0,0,1-1.85,3.31,6.21,6.21,0,0,1-4.33,1.53,5.91,5.91,0,0,1-4.68-2,7.66,7.66,0,0,1-1.8-5.35,7.74,7.74,0,0,1,1.72-5.13,6.38,6.38,0,0,1,9.65,0Zm-8.23.59a6.16,6.16,0,0,0-1.45,3.66h9.58q-.41-5.08-4.82-5.08A4.17,4.17,0,0,0,405.17,488.43Z"/></svg>